<?xml version="1.0" encoding="utf-8" ?>
<svg baseProfile="full" height="300mm" version="1.1" viewBox="0,0,200,300" width="200mm" xmlns="http://www.w3.org/2000/svg" xmlns:ev="http://www.w3.org/2001/xml-events" xmlns:xlink="http://www.w3.org/1999/xlink"><defs /><rect fill="#222222" height="300" width="200" x="0" y="0" /><text fill="#FFFFFF" style="font-size:12px; font-family:Arial; font-weight:bold;" x="10" y="20">Over 5km Runs</text><text fill="#FFFFFF" style="font-size:4px; font-family:Arial" x="10" y="280">ATHLETE</text><text fill="#FFFFFF" style="font-size:9px; font-family:Arial" x="10" y="290">feng qijun</text><text fill="#FFFFFF" style="font-size:4px; font-family:Arial" x="120" y="280">STATISTICS</text><text fill="#FFFFFF" style="font-size:3px; font-family:Arial" x="120" y="285">Number: 21</text><text fill="#FFFFFF" style="font-size:3px; font-family:Arial" x="120" y="290">Weekly: 1.3</text><text fill="#FFFFFF" style="font-size:3px; font-family:Arial" x="141" y="285">Total: 123.0 km</text><text fill="#FFFFFF" style="font-size:3px; font-family:Arial" x="141" y="290">Avg: 5.9 km</text><text fill="#FFFFFF" style="font-size:3px; font-family:Arial" x="167" y="285">Min: 5.0 km</text><text fill="#FFFFFF" style="font-size:3px; font-family:Arial" x="167" y="290">Max: 10.0 km</text><polyline fill="none" points="15.615168539283331,53.562255267839646 15.943820224609226,50.31044905092858 15.754213483072817,49.76354693483154 15.43820224708179,49.57139162905514 13.99719101114897,49.9409208286379 13.896067415655125,49.66007872611226 12.0,49.2166426780168 12.101123595435638,48.758423949810094 14.16151685389923,49.290548783756094 18.964887640380766,49.30533000022115 23.4396067414782,50.66519522489398 25.8918539325241,51.079064622856095 35.56179775274359,50.901692173836636 38.6713483146159,51.53727574071672 39.74578651675256,51.10862667579204 40.2514044943382,48.43323555366078 40.617977528017946,47.97501425619703 43.00702247180743,48.25585974579735 43.17134831455769,48.04892101875157 45.18117977521615,48.122827742176014 48.0,47.102911506037344 47.848314606701024,46.437744732160354 45.82584269659128,47.22116304542578 44.28370786510641,47.47244723427866 42.627808988734614,47.44288441204117 40.706460674118716,47.08813005659613 40.22612359537743,47.22116304542578 39.22752808983205,48.04892101875157 38.97471910103923,48.743642675486626 39.03792134823743,49.453142078767996 38.46910112351179,49.48270447572577 38.06460674153641,49.9409208286379 38.051966292085126,50.369573475807556 37.66011235944461,50.56172768387478 36.74999999994179,50.23654348462878 36.40870786510641,49.4087984716316 35.7514044943382,49.09839282750909 34.84129213477718,49.290548783756094 34.24719101114897,50.11829449729703 33.223314606701024,50.28088682911766 32.56601123587461,50.28088682911766 32.21207865164615,50.04438882939576 29.330056179722305,50.08873223482806 29.0646067414782,49.4087984716316 26.359550561697688,49.83745275127876" stroke="#4dd2ff" stroke-linecap="round" stroke-linejoin="round" stroke-width="0.5"><title>2023-03-26 5.6km</title></polyline><polyline fill="none" points="94.66666666668607,63.11269903912034 93.64216073788702,63.12933812654228 91.0097496706876,62.264103247842286 90.6540184453479,62.53032987136976 89.30223978927825,62.497051568032475 86.28563899878645,63.012864477801486 84.9054018445895,63.012864477801486 84.13702239794657,62.44713409985707 83.08405797107844,60.20083163611707 81.19156785256928,58.669999723206274 80.67931488802424,58.53688320047513 80.42318840586813,58.07097448375134 77.7196310936124,57.55514536591363 75.40026350464905,56.407003513595555 74.83109354414046,55.10909393482143 74.7030303030042,53.711333177940105 74.03425559954485,52.72956521861488 72.66824769444065,52.49660243019753 69.19631093548378,53.12892919583828 68.39947299082996,52.979167823214084 65.73860342561966,50.99897626398888 65.90935441374313,50.2168769302516 64.88484848494409,47.953759072348475 64.60026350460248,47.78735206199053 64.58603425562615,47.10508147817745 64.13069828721927,46.572575550933834 64.03109354421031,45.923581513852696 63.81765480898321,45.62404490093468 63.035046113305725,45.35778965486679 62.56548089598073,44.60894435799855 62.42318840586813,44.309405240710475 62.949670619214885,44.04314776841784 60.17496706201928,39.81625000029453 58.66666666668607,36.8373837039253 60.0042160738376,39.549984918907285 63.67536231887061,45.27458479798224 63.561528326768894,45.54084018498543 64.54334650858073,47.005236754208454 64.52911725954618,47.87055558919383 64.91330698295496,48.07024387487036 65.92358366277767,50.31671961497341 65.6816864295397,50.93241477002448 66.16548089595744,51.13209916741471 66.53544137027347,51.681229952926515 68.37101449281909,52.92924733401742 69.03978919633664,53.079008754109964 72.6540184453479,52.49660243019753 73.99156785249943,52.79612595192157 74.66034255601699,53.59485255408799 74.75994729914237,54.94269449614512 75.38603425567271,56.407003513595555 77.37812911730725,57.45530727671576 80.4089591568918,58.087614104530076 80.79314888012595,58.63672060309909 81.12042160739657,58.63672060309909 83.08405797107844,60.20083163611707 84.15125164698111,62.28074242503499 84.91963109362405,63.02950357574446 86.0152832675958,63.12933812654228 88.66192358371336,62.48041241375904 89.38761528331088,62.89639074278239 89.80026350473054,62.53032987136976 90.63978919637157,62.497051568032475 90.85322793154046,62.21418570577225 93.35757575766183,63.16261629606015 94.26824769441737,63.07942085909599" stroke="#4dd2ff" stroke-linecap="round" stroke-linejoin="round" stroke-width="0.5"><title>2023-03-18 7.0km</title></polyline><polyline fill="none" points="105.33333333331393,51.30281498254044 107.68194490903988,51.23239528434351 112.21054979361361,52.55627937760437 114.13761570194038,52.89429022787954 123.55615032895003,52.767536259591 126.50697000109358,53.44355602929136 127.63912122219335,52.92245775999618 128.04862272774335,50.48594419368601 128.37381509982515,50.049338785596774 132.07137281139148,50.17609534191433 133.80573212890886,49.83807759024785 135.55213560833363,49.147955348933465 135.37147317943163,48.528250695890165 137.671908107528,47.218410913745174 141.16471506631933,46.556443970723194 141.33333333331393,46.66911942754814 139.12925170065137,46.795879202429205 137.6357756216894,47.19024217470724 134.51633768260945,48.92260853614425 133.02286160358926,49.359217639503186 131.1680606668233,49.51414310616383 128.50630088098114,49.10570285060385 128.08475521352375,49.20429199254431 127.08508977357997,50.147927228710614 126.86829485883936,50.83804428623989 127.03691312583396,51.23239528434351 126.91647150658537,52.04926149308449 126.57923497265438,52.359105985291535 125.42299542762339,52.457692717944155 123.95360767247621,51.0915557762346 122.90576558490284,51.204227394628106 122.33968997432385,50.75354034896009 121.86996765912045,50.669036357998266 121.42433366784826,50.823960300403996 120.88234638114227,51.47182210611936 120.56919817102607,51.49998993922782 119.97903423657408,51.99292605338269 119.0034571205033,52.04926149308449 118.7987063677283,51.359150714226416 115.36612021859037,51.72533238932374" stroke="#4dd2ff" stroke-linecap="round" stroke-linejoin="round" stroke-width="0.5"><title>2023-03-14 5.6km</title></polyline><polyline fill="none" points="184.86175115214428,56.74969762019464 183.645161290362,56.588035271764966 181.33640552998986,55.828219943417935 179.6774193548481,56.28087633859832 179.33179723506328,55.989883095622645 176.4700460829772,56.66886646737112 175.58525345625822,56.62036775512388 174.67281105992151,55.860552587517304 173.4147465438,53.43558529349684 171.97695852536708,51.835085798069485 171.00921658985317,51.46325018214702 167.89861751155695,51.042913178986055 166.22580645163544,50.1375680139754 165.5622119816253,48.71487191632332 165.3548387096962,47.17899194106576 164.80184331798228,46.51613370863197 163.7096774193924,46.305958546625334 159.81105990789365,46.887981363921426 157.91705069126328,45.64309652651718 155.33179723500507,45.723933512257645 155.11059907835443,44.39820154578774 155.06912442395696,45.756268294513575 152.89861751149874,45.90177473019867 152.0,43.25030237980536 152.7327188940253,45.64309652651718 153.09216589858988,45.96644421269593 157.40552995388862,45.6107617202797 158.0000000000582,45.756268294513575 159.31336405529873,46.71014129387913 160.0875576037215,46.90414863273327 163.83410138246836,46.37062785803573 164.8571428572177,46.64547212612524 165.39631336409366,47.34066424447519 165.54838709678734,48.71487191632332 166.115207373281,50.07290029685828 167.9400921658962,51.10758048550633 170.9400921658962,51.689585012660245 171.3548387097544,52.255420622139354 171.8248847926734,52.35242080189346 173.62211981567089,53.77508303133072 174.71428571431898,55.84438626631163 175.37788018432911,56.62036775512388 177.10599078348605,56.73353139300889 177.8801843317924,56.34554142849811 179.9124423963949,55.97371678808122 181.0322580645443,56.0868809048261 181.18433179723797,55.860552587517304 183.94930875580758,56.74969762019464 188.0,56.588035271764966" stroke="#4dd2ff" stroke-linecap="round" stroke-linejoin="round" stroke-width="0.5"><title>2023-03-12 6.0km</title></polyline><polyline fill="none" points="46.45022421522299,96.45635049366683 42.12376681610476,95.38032845794805 41.94618834077846,95.66349278064445 40.92914798203856,95.32369553949684 40.283408071729355,95.94665665396315 40.154260089679155,95.60685995208041 36.57040358748054,96.34308532175783 35.40807174885413,96.21094253036426 34.53632286994252,95.30481789598707 32.74439461884322,92.15222341833578 31.45291479822481,90.8307600641565 29.983856502221897,90.30217198208265 26.513004484353587,89.83021701419784 24.575784753309563,88.71639834021335 23.962331838614773,87.18724612318329 23.865470852062572,85.54480877345486 23.17130044841906,84.61975119625276 21.573094170424156,84.33656934641476 17.424215246690437,85.0162050309591 16.875336322933435,84.92181134071143 16.39103139011422,84.33656934641476 14.98654708522372,83.54365777557541 14.356950672634412,83.43038440636883 12.0,83.6380521949759 14.825112107617315,83.50589999380463 16.826905829657335,84.8085388464533 21.66995515691815,84.27993292252359 23.058295964088757,84.58199364226311 23.84932735422626,85.71471678666421 23.962331838614773,87.09285358151828 24.543497757811565,88.56537154399848 26.65829596412368,89.73582587073906 30.209865470824298,90.45319730820484 30.6295964125311,91.00066304364009 31.194618834124412,91.0761754270643 33.34170403587632,92.85070723766694 34.584753363218624,95.32369553949684 35.52107623318443,96.17318742912903 36.84484304935904,96.30533024849137 38.33004484308185,95.81451356897014 38.58834080712404,96.13543231986114 39.62152466364205,95.62573756353231 42.043049327330664,95.41808372693777 45.287892376596574,96.56961559363117 48.0,96.36196285538608" stroke="#4dd2ff" stroke-linecap="round" stroke-linejoin="round" stroke-width="0.5"><title>2023-03-05 5.0km</title></polyline><polyline fill="none" points="91.72175848635379,89.87132217107865 91.92209237616044,90.52711363884737 93.98553144128527,90.12895476496487 94.44629938795697,91.53421818513016 94.3661658319179,92.23684655298712 89.0172509738477,93.71235887333751 85.55147468007635,95.32838490292488 82.20589872007258,97.62359002177254 79.86199220921844,93.9465662745497 78.37952142464928,92.7052642270719 64.43628269340843,89.56684690136171 64.27601558156312,89.1686863018258 65.05731775192544,86.99050094667473 64.83695047313813,86.54549270216376 65.09738452988677,85.3978357360611 58.66666666662786,82.16562702656665 65.07735114078969,85.3275708307774 63.59488035622053,89.52000451501226 63.05397885374259,92.2602674602822 63.89538119093049,90.22263927024323 64.43628269340843,89.89474332841928 76.37618252646644,92.28368836500158 79.24095715081785,93.59525507985381 81.76516416249797,97.8343729734479 87.01391207566485,94.62576633828576 89.31775180867407,93.64209660467168 94.66666666662786,92.16658381644811 93.98553144128527,89.09842259237485" stroke="#4dd2ff" stroke-linecap="round" stroke-linejoin="round" stroke-width="0.5"><title>2023-02-22 5.0km</title></polyline><polyline fill="none" points="105.33333333331393,94.1716622033855 105.5593929879251,90.14048784524493 105.87022501300089,89.57875856851751 109.09157509158831,89.74397327139741 112.77917320776032,91.11524855994503 114.0366300366004,91.19785512049566 114.60177917324472,91.57784473647189 115.11041339609073,91.41263197358057 117.5264259550022,91.7760998212907 118.13396127679152,91.67697231033526 119.02407116693212,92.07348197656393 119.81527995807119,91.94131219969131 121.51072736782953,92.15608803034411 122.64102564100176,91.51175965227594 122.68341182626318,91.84218479359697 123.13553113548551,92.04043954286317 123.81371009943541,92.09000319082406 124.40711669280427,91.85870603231888 125.56567242275923,92.05696076057211 126.39926739921793,91.26394033749239 126.87964416533941,91.18133381186635 129.33804290939588,91.74305732458015 129.52171637880383,91.95783342789218 129.62061747774715,91.36306811060058 130.76504447928164,91.42915325777722 132.0366300365422,91.04916327999672 132.46049188898178,89.43006518649054 132.5593929879833,87.95964523080329 133.124542124453,87.41442981865839 134.4243851386127,87.67877692285401 138.15436943998793,87.66225524194306 141.33333333331393,86.42312419267546 140.9801151228603,85.82833779662906 139.4259549973649,86.43964600464096 137.3490319204284,86.88573426785297 135.992673992645,86.91877779221977 132.82783882779768,86.50573323520075 131.4573521715938,87.57964681120939 131.18890633172123,88.40572915221856 131.3019361590268,89.05007034476148 130.34118262684206,89.38050069435849 130.10099424386863,90.14048784524493 129.64887493452989,90.33874475467019 128.8152799581294,90.20657350968395 127.84039769752417,89.59528004669119 126.51229722658172,89.57875856851751 125.96127681841608,89.92570924274332 124.13867085293168,90.04135929618496 123.75719518569531,89.77701619103027 119.47619047621265,89.82658055733191 118.67085295653669,89.71093034482328 118.27524856093805,89.34745769086294 115.42124542122474,89.95875212385727 113.16064887488028,89.52919412357733 108.95028780744178,87.97616688023845 106.8027210884029,87.66225524194306 110.87179487175308,87.62921187494067" stroke="#4dd2ff" stroke-linecap="round" stroke-linejoin="round" stroke-width="0.5"><title>2023-02-10 5.9km</title></polyline><polyline fill="none" points="160.30047763785115,97.01005325175356 160.3473729917314,92.05653410952073 161.97307859308785,92.07481303898385 164.67737733392278,92.7694109253498 166.1623968735803,92.33071784827916 166.7720364741399,90.48453894279373 166.88145896646893,88.8576916764141 167.350412505446,88.34587139137147 170.05471124616452,88.72973674732202 170.57056013890542,88.47382660477888 173.11854103335645,88.51038521977898 175.71341728174593,87.68781451137329 180.26226660877,85.40287532914954 185.46765089017572,84.68996811950637 188.0,83.73942059729598 187.85931393830106,83.84909942446393 187.60920538421487,83.41038369806483 187.65610073815333,82.98994674826099 186.8119843681925,83.46522322481906 184.63916630484164,84.01361753464153 183.7012592270621,84.05017709339154 183.48241424228763,83.77598021407903 180.57490230130497,84.30609378812369 178.6521927919821,85.01900258183014 175.4789405122865,86.82868092374702 173.14980460272636,87.55985871588928 170.3048198002507,87.7609320662159 168.03821102902293,87.34050570317777 166.91272253583884,87.37706455790612 165.63091619621264,88.47382660477888 165.33391228830442,89.31467279269418 165.4277029960649,90.15551488865458 164.73990447242977,90.15551488865458 164.2396873642574,90.63077165467257 164.13026487187017,91.34365435267682 163.61441597918747,91.58128126508382 162.58271819364745,91.1974222441495 162.20755536248907,90.21035227453103 161.25401650025742,89.7168151751539 160.17542336083716,90.02756092061463 159.5814155449043,90.95979480382812 158.2996092053363,91.1974222441495 157.34607034293003,91.21570126446022 157.01780286582652,90.94151575640717 152.23447676940123,90.90495765577361 152.0,90.70388796414773 152.34389926178847,90.30174787894066 154.90751194092445,90.11895662172174 155.20451584889088,91.05119001179992 156.47069040377392,90.95979480382812 157.51801997394068,90.28346876193245 158.4871906209155,90.35658521842561 158.9405123751494,89.80821104063943 159.47199305257527,89.78993187144806 160.33174120704643,90.72216703671438 161.48849326960044,90.6673298132664 162.17629179329379,91.2339802828501 163.5987841945025,91.61783922261384 165.17759444197873,91.39849136142584 165.5840208423324,90.06411920682876 165.63091619621264,91.27053831386729 165.08380373427644,91.70923408256203 163.08293530181982,91.4350493576494 162.5983499782742,91.21570126446022 162.0512375162798,90.08239834706183 159.04993486753665,89.20499743496475 158.2996092053363,89.38778965908568 156.43942683452042,90.90495765577361 155.5015197568573,90.88667860260466 155.0169344333699,90.17379401919607 155.45462440297706,89.89960685782717 156.22058184980415,89.89960685782717 156.86148501950083,90.46625984513958 158.4246634823503,90.35658521842561 159.12809379061218,89.8630485367612 159.78462874511024,90.39314343506703 160.36300477635814,90.00928177460446 161.3790707772132,89.80821104063943" stroke="#4dd2ff" stroke-linecap="round" stroke-linejoin="round" stroke-width="0.5"><title>2023-02-05 7.1km</title></polyline><polyline fill="none" points="12.42784380307421,135.62255874017137 12.753820033976808,132.68035364303068 12.988115449959878,132.59697019212035 14.67911714775255,132.87094415612955 15.280135823471937,132.77564893991075 16.869269949092995,133.4546255956884 17.551782682538033,133.52609658442816 17.87775891344063,132.10858016822021 17.633276740263682,131.62018802594685 16.93039049237268,131.63210005463043 16.594227504276205,131.2985627753951 14.699490662140306,131.46533153849305 13.568760611233301,131.27473864620697 13.039049236045685,130.869727678888 12.071307300589979,130.69104590664938 12.0,131.41768334567314 12.071307300589979,130.72678228376753 12.417657045880333,130.70295803360204 12.601018675777595,130.84590345898323 12.580645161331631,131.3462110186083 12.774193548422772,131.65592410817771 15.157894736912567,131.46533153849305 17.826825127354823,132.54932247818215 19.589134125679266,132.9662392916798 20.66893039055867,132.78756084635097 21.361629881197587,133.06153434660519 22.084889643476345,133.0019749467101 22.930390492430888,133.16874118694977 24.977928692766,132.8471203595982 26.546689303941093,133.04962246913783 27.432937181729358,132.9662392916798 27.69779286935227,132.71608938882127 28.706281833641697,132.6922655595481 29.062818336184137,133.0019749467101 29.90831918513868,133.2759479253 30.886247877788264,133.20447677776247 31.171477079798933,132.99006306297088 31.161290322605055,131.83460434926383 31.354838709754404,131.2985627753951 32.149405772506725,130.56001242677303 35.01188455015654,130.82207923401438 36.52971137518762,130.61957311833976 37.752122241130564,130.20264761572616 40.88964346348075,128.63022897197516 44.33276740240399,128.24903326633648 47.43972835317254,126.8433629473875 47.96943972830195,125.87844350206433 47.704584040737245,124.37744125982863 48.0,125.81888030231494 47.88794567063451,126.18817163266067 47.735144312435295,126.54554918610665 46.47198641765863,127.30795084192505 46.26825127337361,127.64149994294712 45.4634974533692,127.68914973385108 44.55687606113497,128.16564653370733 42.98811544995988,128.48728073359234 42.101867572171614,128.41580654634163 40.57385398983024,128.68979068438784 37.7317487266846,130.1669110722287 36.417657045822125,130.60766098256136 34.461799660522956,130.786342887106 32.26146010187222,130.48853955529194 31.273344651970547,131.25091451198386 30.998302207153756,131.01267289253155 31.30390492361039,131.37003513265518 31.14091680815909,131.7750443003897 31.26315789477667,132.23961184597283 31.079796264879405,132.44211504803388 31.151103565411177,132.8471203595982 30.926994906621985,133.13300558488118 29.979626485612243,133.2759479253 28.838709677453153,132.8471203595982 28.747028862533625,132.65652980623418 27.738539898127783,132.66844172526908 27.31069609511178,132.9305036252772 26.465195246215444,133.0019749467101 25.96604414266767,133.0019749467101 25.70118845498655,132.82329655810463 23.541595925344154,132.88285605247074 22.380305602797307,132.72800130154792 21.11714770802064,132.9185917339637 20.55687606113497,132.73991321303765 19.762308998324443,132.95432740416436 18.254668930429034,132.65652980623418 15.07640067912871,131.5129797111731 14.373514431295916,131.40577129431767 12.764006791170686,131.64401208204072 12.560271646885667,131.22709037271852 12.713073005143087,130.79825500401057 13.558573853981216,131.32238689953374 14.485568760661408,131.5129797111731 16.543293718190398,131.2985627753951 16.84889643470524,131.63210005463043 17.317487266554963,131.6678361330487" stroke="#4dd2ff" stroke-linecap="round" stroke-linejoin="round" stroke-width="0.5"><title>2022-12-15 10.0km</title></polyline><polyline fill="none" points="58.66666666668607,134.8262742246443 58.98457166063599,130.50643723986286 61.60454730008496,130.68589940899983 61.94437677634414,130.91663609308307 64.16971173370257,131.42938270683226 64.52050345111638,129.94241154933115 64.43280552176293,129.48093403156236 63.479090540029574,129.41683979291702 63.15022330498323,128.99381696725322 61.9663012586534,129.0450925398909 61.50588712951867,128.827171206176 60.760454730072524,129.09636809086805 59.982135607046075,129.0450925398909 58.9187982135918,128.42978423566092 58.809175801929086,129.01945475627144 59.072269589989446,129.42965864335565 61.527811611944344,129.05791142969247 61.900527811667416,129.50657171759667 64.64108810399193,130.45516228557244 66.49370686156908,130.83972391387942 67.49127080803737,130.62180580767745 68.3682501015137,130.9038173999361 70.48396264720941,130.9294547848549 71.64596021117177,130.8653613123679 72.12829882261576,130.64744325228094 73.8712951685302,130.9038173999361 74.7373122209101,130.83972391387942 75.14291514421348,130.53207470888447 76.16240357293282,130.53207470888447 76.42549736099318,130.80126780593855 77.3353633780498,130.9935482234505 77.58749492489733,131.2627402953658 77.85058871295769,130.9550921643604 78.38773853029124,131.07046030498168 78.74949248885969,130.9294547848549 78.99066179461079,129.0450925398909 79.9663012586534,128.1862238353424 82.22452293953393,128.4682410962414 84.08810393832391,128.3785084025949 85.69955339020817,127.9554819519035 88.87860332935816,126.28899974634987 93.12099066190422,125.71213518101285 94.39261063747108,125.17372577536298 94.54608201386873,125.75059290416539 94.66666666668607,125.71213518101285 93.48274462041445,126.17362705305277 89.84328055224614,126.60947887369548 85.60089321970008,128.53233583666588 84.01136825012509,128.96817917274166 82.14778725139331,129.0835492051774 80.2074705644045,128.81435229200724 79.87860332929995,129.19891912775347 79.81282988231396,130.3013372925343 79.42915144137805,131.63448074487678 78.85911490058061,131.85239702987747 78.36581404792378,131.9805828968165 75.94315874954918,131.39092678607267 73.70686155103613,131.42938270683226" stroke="#4dd2ff" stroke-linecap="round" stroke-linejoin="round" stroke-width="0.5"><title>2022-12-12 7.2km</title></polyline><polyline fill="none" points="105.91576784790959,134.02966484615172 106.20698510529473,129.95951307333598 106.10991268622456,129.5865455535095 105.3472008217941,129.4892495295062 105.33333333331393,129.00276848321664 109.25783256290015,129.0676327119727 113.61222393426578,130.39734335172398 116.73240883409744,131.01354681015073 127.4519774010987,130.8513882454281 128.65844889573054,130.94868340485846 130.69696969696088,131.61353200797748 131.33487416536082,131.4027266655612 132.18079096043948,130.98111511093157 132.58294812531676,129.50546553783352 132.6522855674848,128.14331486157607 132.94350282486994,127.68926194623054 133.65074473549612,127.57574850720994 135.6615305598243,127.98115326049447 136.09142270154553,127.75412673072424 138.1160760143539,127.81899148781667 139.57216230093036,127.42980253350106 141.33333333331393,126.58655640923826 141.0837185413693,125.97033515384828 137.49203903443413,127.05682885838905 135.8418079096009,127.10547765006777 132.76322547503514,126.73250318576174 131.5567539804615,127.80277530114108 131.32100667688064,128.4514214310184 131.5151515151374,129.08384876484342 131.2932716999785,129.4730335195345 131.3764766306267,129.94329711310274 131.01592193113174,130.33247968567593 130.36414997430984,130.26761599222664 129.51823317917297,130.5270706014271 129.12994350277586,130.13788852289144 128.33949666150147,130.00816094379115 128.1592193117831,129.78113741619745 128.08988186949864,129.92708115110872 126.81407293269876,129.7973533936165 124.94196199276485,130.15410446254828 124.29019003594294,130.17032040050253 123.86029789410532,129.87843325486756 121.00359527481487,129.97572903183755 119.33949666155968,129.76492143706128 117.64766307140235,130.00816094379115" stroke="#4dd2ff" stroke-linecap="round" stroke-linejoin="round" stroke-width="0.5"><title>2022-12-06 5.0km</title></polyline><polyline fill="none" points="152.0,134.39234482176835 152.3079743355047,130.94542660215666 152.4729605866596,131.1126301142358 154.782768102712,131.13835371107416 157.80751604033867,132.14156974244543 157.91750687448075,132.36021829160745 157.75252062332584,132.36021829160745 157.8955087076174,132.12870805081184 157.57653528876835,132.14156974244543 157.30155820352957,131.8586122127308 157.54353803856065,131.93578251339204 157.81851512374124,130.0836817780073 157.64252978918375,130.1994389005631 157.6645279560471,130.5724333235121 158.0714940421749,130.90684114364558 159.7323556370684,131.31841873648955 160.7442713107448,131.12549191332073 161.64619615033735,131.40845114921103 163.0540788267972,131.44703644856054 166.1008249312872,131.17693909610534 166.9477543538669,131.40845114921103 168.19065077911364,131.27983339637285 168.49862511456013,131.0354592910735 169.58753437217092,131.0354592910735 169.6975252062548,131.2541098294314 171.03941338224104,131.63996276149555 172.08432630618336,131.45989821226976 172.337305224617,129.51775648119656 173.34922089829342,128.66886359651835 176.25297891843366,128.96469057768263 177.6608615948935,128.83607023956574 179.2227314390475,128.3601738052239 182.1704857928562,126.79098858022917 183.17140238313004,126.53374316832924 185.81118240149226,126.31508414025302 187.2520623281598,125.92921430768911 187.81301558203995,125.60765517823893 187.98900091659743,126.23791027170955 188.0,126.09642471883126 185.75618698442122,126.84243759728997 182.66544454632094,127.25402894989384 181.05957836849848,128.0643453530647 178.07882676448207,129.35055077570723 175.82401466544252,129.4534466216719 175.58203483041143,129.59492826772475 173.54720439959783,129.35055077570723 168.19065077911364,131.92292080003972 163.09807516034925,132.02581446897966" stroke="#4dd2ff" stroke-linecap="round" stroke-linejoin="round" stroke-width="0.5"><title>2022-11-27 5.6km</title></polyline><polyline fill="none" points="12.0,172.13247406667506 13.42826780024916,172.34124251411413 13.823591923515778,172.22194629629666 14.4739638682222,172.55001065231045 14.907545164751355,172.47545063841972 17.190223166835494,173.17631321179215 17.572794899053406,171.40178206581913 17.368756641924847,171.10353934431623 17.445270988275297,171.71493624428695 18.082890542049427,172.11756202290417 20.09776833152864,172.50527464873448 21.054197662102524,172.22194629629666 22.061636556871235,172.57983464677818 25.747077577048913,172.55001065231045 26.461211477173492,172.31141846912215 28.41232731140917,172.55001065231045 29.45802337938221,172.49036264437018 29.929861849115696,172.13247406667506 31.19234856532421,172.11756202290417 31.332624867151026,172.4008905851224 32.799149840604514,172.8482503134146 33.79383634432452,172.71404254400113 34.21466524974676,172.28159441777098 34.35494155151537,171.550903189971 34.189160467649344,170.95441774697974 34.3931987247779,170.34301754827902 35.56641870352905,169.388631449503 38.512221041484736,169.7614392884716 40.51434643997345,169.61231627120287 42.59298618492903,168.91143597688642 45.577045696089044,167.28597677417565 48.0,166.8236867881933 45.768331562168896,167.19650141138118 42.529224229510874,168.94126074123778 40.46333687566221,169.59740396078269 38.55047821463086,169.7167023998336 35.89798087137751,169.31406976340804 35.426142401760444,169.40354378202755 34.35494155151537,170.40266646486998 34.163655685435515,170.95441774697974 34.32943676941795,171.550903189971 34.099893730075564,171.95352943710168 34.189160467649344,172.41580259896 33.844845908577554,172.72895452467492 32.4165781083866,172.78860243163945 30.911795961786993,172.07282588204544 29.878852284804452,172.0877379305748 29.381509032973554,172.46053863092675 28.182784272066783,172.53509865267552 27.226354941551108,172.29650644423964 23.196599362359848,172.23685832902265" stroke="#4dd2ff" stroke-linecap="round" stroke-linejoin="round" stroke-width="0.5"><title>2022-11-23 5.3km</title></polyline><polyline fill="none" points="58.66666666668607,170.8665280080313 61.731414868088905,171.23668282122526 65.1558752997662,172.1788911856711 65.60191846516682,170.19351704967266 65.50119904079475,169.72240768438496 65.0551558752777,169.50367786180868 64.33573141484521,169.57097937767685 63.70263788965531,169.04939188450226 62.14868105517235,169.09986816823948 61.803357314143796,169.2849477384152 61.86091127095278,169.45320170615742 66.75299760187045,171.11890638321347 68.27817745809443,171.3039836037933 69.0839328536531,170.8497027688136 70.09112709830515,171.01795508118812 71.31414868106367,170.799227040392 71.55875299760373,171.1525568029756 72.24940047966084,171.2535080195521 76.22062350122724,171.1525568029756 77.21342925663339,171.47223543564905 78.89688249403844,171.3881095419638 79.44364508392755,171.00112985796295 80.85371702641714,170.9843046329479 81.18465227814158,171.35445917202742 82.86810551560484,171.77508828435384 84.32134292565752,171.40493472426897 84.29256594722392,170.73192604423093 84.50839328538859,170.39542063625413 84.35011990414932,169.55415400135098 84.62350119906478,168.9147883827245 85.87529976019869,167.92208403922268 90.23501199041493,168.34272222938307 92.62350119906478,167.85478182547376 94.30695443646982,167.1312812296528 94.66666666668607,167.78747958333406 93.27098321344238,168.4100242365821 90.76738609111635,169.04939188450226 88.99760191846872,168.94843926889007 88.70983213430736,169.13351901517308 86.4508393285796,168.7297083818412 86.00479616306257,168.8474865891476 85.64508393284632,169.3185985461605 85.47242206236115,171.3039836037933 85.04076738614822,172.5322178832721 84.06235011992976,172.86871877036174 80.20623501203954,172.12841587906587 69.35731414862676,172.36396717278694 65.31414868106367,171.59001161203196" stroke="#4dd2ff" stroke-linecap="round" stroke-linejoin="round" stroke-width="0.5"><title>2022-11-18 5.5km</title></polyline><polyline fill="none" points="105.33333333331393,173.9450123735587 105.72940406028647,169.80982892931206 106.66299934516428,170.04140209281468 107.56830386380898,169.90907461277675 110.0296005239361,170.19027037390333 112.43431565159699,171.01731379929697 112.81624099542387,169.2474355329323 112.74551407987019,168.4700060364121 111.61388343153521,168.42038274584047 111.01977734116372,167.8910666662414 109.52036673214752,167.95723127419478 109.22331368696177,168.33767722653283 109.35062213492347,168.4700060364121 113.19816633919254,169.7602060639183 115.65946299931966,170.2729749133141 116.62134905043058,169.94215649328544 117.7388343156781,170.32259761598834 121.84099541581236,170.30605671684316 122.63313686964102,170.02486116391083 124.81152586772805,170.32259761598834 125.91486574982991,170.25643400895933 126.65042567125056,169.90907461277675 127.79620170261478,169.92561555391876 128.1356908971793,170.25643400895933 129.87557301891502,170.62033350103593 131.24767518002773,170.30605671684316 131.474001309718,169.23089452004933 131.2901113294065,168.55271148576867 131.53058284218423,167.94069012484397 132.76123117218958,166.8158878627728 137.45749836275354,167.17979536246276 139.3388343155966,166.78280532079225 141.17773411906091,166.0549876264413 141.33333333331393,166.7166402158764 137.88185985584278,167.9076078208309 134.4728225278086,167.97377242177026 133.49679109361023,167.62640795444895 132.90268500323873,167.80836086691124 132.60563195805298,168.20534830458928 132.46417812700383,169.94215649328544 132.08225278317695,171.29850756739324 130.92233136866707,171.69548614385712 128.2912901113159,171.0338546231942 116.63549443351803,171.1827219594561" stroke="#4dd2ff" stroke-linecap="round" stroke-linejoin="round" stroke-width="0.5"><title>2022-11-06 5.5km</title></polyline><polyline fill="none" points="152.0,181.08579185836425 152.8300970873097,176.61587832354417 153.4199029126903,164.38066325143154 153.92233009717893,162.10724601768015 154.05339805828407,162.33714311523363 156.71844660199713,162.26051077367447 164.21116504864767,163.94641666948155 164.73543689318467,160.37023865027004 164.53883495146874,161.39200920319126 165.34708737861365,161.97952531334886 169.23543689330108,162.77139259119576 177.25242718448862,161.1876554384944 177.77669902914204,161.1876554384944 177.8859223301988,162.61812815946178 179.67718446603976,162.36268722366367 181.49029126216192,162.46486363040458 182.16747572820168,162.89911287665018 185.05097087391187,162.79693665372906 185.96844660199713,162.15833428050973 185.99029126227833,161.2131996685639 187.86893203889485,160.65122598335438 188.0,159.34846377353824 187.30097087391187,158.91420814163575 186.12135922338348,160.49796020583017 186.3398058252642,161.1110227321915 185.85922330105677,161.31537656174623 185.07281553407665,162.61812815946178 182.6699029126903,162.9246569257084 181.49029126216192,162.46486363040458 174.67475728155114,162.46486363040458 174.12864077673294,162.87356882498716 172.46844660199713,162.87356882498716 170.74271844665054,162.28605489025358 169.06067961163353,162.77139259119576 166.13349514571019,162.2349666544178 159.3398058252642,160.012617935281 159.12135922338348,159.60390789809753 159.6456310680369,159.42509703931864 161.98300970869604,159.1441082793608 162.74757281551138,160.012617935281 163.49029126216192,159.96152921850444 162.72572815523017,159.9359848560125 161.93932038836647,159.19519716913055 160.69417475734372,159.19519716913055 159.42718446603976,159.37400819819595 159.2742718446534,160.0381622895802 166.24271844665054,162.36268722366367 164.3859223301988,161.28983234253246 164.49514563113917,160.37023865027004" stroke="#4dd2ff" stroke-linecap="round" stroke-linejoin="round" stroke-width="0.5"><title>2022-11-02 5.0km</title></polyline><polyline fill="none" points="13.108545034658164,218.22303921698767 13.053117782925256,217.8827934118599 12.069284064637031,217.75317576350062 12.0,217.28331086906837 12.360277136263903,214.85295220337866 12.360277136263903,212.61698817726574 12.581986143253744,212.1471075292502 12.457274826825596,210.4296004842763 12.762124711356591,206.83249502746912 13.053117782925256,205.47140606907487 13.288683602761012,205.64964459708426 16.04618937644409,205.55242360751436 19.593533487350214,206.6542578758963 19.939953810651787,204.33715603112068 19.75981524254894,204.87187495264516 20.009237875347026,205.26076026856026 22.84988452657126,205.90890026759007 27.270207852241583,204.98529993844568 28.766743649030104,204.95289280822908 29.612009237869643,205.37418496636383 30.06928406469524,205.0987248402671 31.939953810651787,205.1473354867485 32.50808314088499,204.6288211288338 33.353348729840945,205.05011417834612 34.42032332561212,204.67743192447233 35.224018475739285,205.0339106209576 35.58429561200319,205.97371411665517 36.581986143195536,206.28157952509355 37.981524249364156,205.98991757461044 38.21709006931633,204.77465346940153 38.0508083141176,204.15891597575683 38.31408775981981,203.51076857146109 39.17321016162168,202.65196903595643 40.018475750577636,202.4737270195037 42.45727482676739,202.86261842436215 44.06466512696352,202.86261842436215 45.85219399537891,202.5223384990968 47.73672055423958,201.77696078302688 48.0,202.34409633179894 46.47575057740323,203.0570637564815 44.43879907618975,203.57558343531855 42.33256351033924,203.7052130807715 39.741339491913095,203.4135462242557 39.353348729840945,203.8672499832901 38.84064665128244,206.848698394635 37.7459584295284,207.2537820158468 33.824480369570665,206.58944431479904 23.293302540492732,206.8000882880733 20.133949191658758,206.13574861928646 19.745958429586608,208.5986519559956" stroke="#4dd2ff" stroke-linecap="round" stroke-linejoin="round" stroke-width="0.5"><title>2022-10-28 6.2km</title></polyline><polyline fill="none" points="58.66666666668607,213.89509512709628 58.892018779413775,210.43649640479998 59.13145539909601,209.81064652182977 59.35680751176551,210.04122308720252 61.07511737092864,209.8765255753242 62.42723004700383,210.0247533438378 65.27230046957266,210.99646522014518 65.84976525820093,210.864708033012 66.17370892019244,209.10244493576465 66.04694835678674,208.5095295024512 65.62441314558964,208.31189052283298 64.8075117371045,208.37777021057263 64.34272300469456,207.9166118109133 62.8356807512464,207.99896162531513 62.62441314558964,208.19660100221517 62.79342723003356,208.4765896898898 67.11737089208327,209.95887435301847 68.52582159632584,210.20592042480712 74.483568075113,209.33302255006856 74.53990610333858,210.1565112418175 76.5117370892549,210.0247533438378 77.8075117371045,210.33767816946784 81.11737089202506,209.9259348471969 81.27230046951445,210.2388598714315 82.9061032863683,210.6506023661059 84.23004694835981,210.51884488624637 84.5117370892549,210.28826902825676 84.483568075113,209.59653940534918 84.7089201878407,209.30008291175182 84.53990610333858,208.49305959703634 84.8075117371045,207.88367187295808 86.032863849774,206.84606025958783 89.48356807505479,207.22487165007624 90.86384976527188,207.15899147449818 92.46948356810026,206.84606025958783 94.31455399061088,206.10490487290372 94.66666666668607,206.68135936745966 93.032863849774,207.38957196717092 90.87793427234283,207.94955174195638 89.20187793427613,207.88367187295808 88.90610328642651,208.03190153888136 86.66666666668607,207.65309211207204 86.18779342726339,207.78485201727017 85.89201877935557,208.2295408739592 85.8075117371045,209.66241854947293 85.37089201877825,211.2929184834502 84.20187793427613,211.65524948322854 83.18779342720518,211.5564320214762 83.01877934270306,211.25997925987758 82.45539906108752,211.3423273058288 81.04694835684495,211.01293486068607 75.032863849774,211.0952830372844" stroke="#4dd2ff" stroke-linecap="round" stroke-linejoin="round" stroke-width="0.5"><title>2022-10-20 5.2km</title></polyline><polyline fill="none" points="113.46394557820167,211.63234565447783 114.00272108835634,212.46281501092017 115.42312925169244,212.86373034017743 116.89251700672321,212.31963082085713 120.71292516996618,212.7205463621067 120.98231292527635,212.2909939737292 121.61904761905316,212.97827746797702 122.74557823128998,213.26464507562923 123.5537414966384,212.97827746797702 127.2761904761428,213.35055529882084 128.54965986392926,212.1478096928331 129.30884353735019,212.83509355058777 131.0965986395022,212.4055413439637 132.8353741496103,212.66327274977812 135.01496598636732,212.34826766492915 135.30884353735019,214.43874909973238 135.67619047616608,214.12374608084792 135.7496598639991,212.03326221357565 136.435374149587,211.54643488599686 140.47619047609624,212.74918316374533 141.33333333337214,214.18101938429754 140.7455782314064,211.86144090385642 138.5904761904385,206.7353883360338 135.57823129242752,207.79497140625608 134.67210884357337,209.28410817036638 132.37006802717224,209.6563910813711 131.19455782312434,209.6563910813711 130.7292517006863,209.19819665662362 123.3823129250668,209.2268338309077 122.79455782310106,208.79727589871618 119.51292517012917,209.42729396597133 118.92517006804701,208.9690991533571 126.12517006800044,207.96679529713583 126.49251700681634,208.65408976990147 126.02721088426188,209.37001965672243 122.57414965995122,208.9690991533571 119.68435374146793,209.42729396597133 118.65578231296968,209.05501073983032 123.72517006797716,208.10998178948648 126.41904761898331,208.02406990312738 126.4680272109108,208.91182474730886 126.07619047618937,209.37001965672243 122.50068027211819,208.9690991533571 119.51292517012917,209.39865681287483 118.68027210887522,209.0836479292193 120.71292516996618,208.7113642305485 121.34965986385942,209.11228511566878 125.9782312924508,209.5132054069545 126.41904761898331,209.16955947925453 126.44353741488885,208.02406990312738 124.77823129249737,207.88088336537476 116.74557823117357,209.5418425478565 113.09659863938577,208.88318753970088 105.67619047604967,206.3917388819391 105.33333333337214,205.93353893130552 105.8721088435268,205.58988845936256 108.4680272109108,205.56125090029673" stroke="#4dd2ff" stroke-linecap="round" stroke-linejoin="round" stroke-width="0.5"><title>2022-09-24 5.1km</title></polyline><polyline fill="none" points="184.72727272706106,216.40558863815386 186.15019762841985,215.4905193640734 187.78656126465648,209.33457112277392 181.1699604736641,205.34149785438785 175.6916996045038,211.830231621454 175.6916996045038,215.9896481912001 178.60869565187022,217.23746887297602 184.65612648194656,217.32065684796544 186.2213438730687,216.3224005663651 188.0,209.00181579124182 181.73913043458015,205.0919301022077 175.83399209473282,211.9134201685083 175.97628458496183,216.73834083764814 179.889328063,216.90471688465914 181.09881422901526,217.73659659159603 179.8181818178855,218.98441450216342 153.63636363623664,220.48179338232148 152.56916996045038,221.31366930616787 154.41897233203053,219.8994797122432 181.88142292480916,220.56498101423495 186.07905138283968,219.56672884972068 169.857707509771,218.98441450216342 171.2094861655496,199.18547018396202 170.42687747022137,199.0190903894836 167.50988142285496,219.3171656106715 152.0,219.15079007402528 152.21343873487785,220.06585509027354 186.2213438730687,220.48179338232148 183.58893280569464,218.98441450216342 180.6719367587939,219.6499165786081 169.78656126465648,218.73485107842134 170.92490118555725,198.68633069389034 168.2213438730687,218.73485107842134 165.87351778661832,219.6499165786081 154.063241106458,219.15079007402528 153.92094861669466,220.06585509027354 187.9288537548855,220.89773145405343 178.3952569165267,220.56498101423495 185.65217391308397,220.48179338232148 185.65217391308397,219.40035336604342 181.45454545412213,219.06760229257634" stroke="#4dd2ff" stroke-linecap="round" stroke-linejoin="round" stroke-width="0.5"><title>2022-09-22 5.0km</title></polyline><polyline fill="none" points="28.465286236372776,252.76885720992868 29.890377588337287,252.56376030009415 30.94275274069514,253.25596167506592 32.192448233952746,253.0765022491687 34.889159561600536,253.51233205301105 36.31425091368146,252.87140559972613 36.27040194894653,252.4099375037913 36.57734470162541,252.33302606915822 37.10353227786254,253.23032462238916 39.646772229112685,252.92267977834854 40.567600487265736,253.28159872509423 42.49695493304171,252.33302606915822 42.51887941546738,253.15341344797343 42.86967113276478,253.4866950273863 43.088915956323035,252.1279287904763 43.5274056030903,251.84591974892828 47.36419001233298,252.87140559972613 48.0,254.07634592984687 46.85992691852152,250.30768283661746 45.52253349579405,247.4619188094366 43.59317905001808,248.15413475646346 43.00121802696958,247.743932952435 40.567600487265736,247.38500580433174 37.607795371557586,249.71802276480594 33.35444579797331,249.7949350294948 32.8063337393105,248.64124849700602 29.05724725953769,249.17963622894604 27.74177831923589,249.48728582452168 29.276492082863115,250.1794959865365 35.59074299642816,250.12822122751095 36.57734470162541,249.71802276480594 38.375152253429405,249.71802276480594 39.49330085283145,250.12822122751095 41.77344701590482,249.8718472696928 42.19001218036283,248.79507368533814 41.44457978080027,248.12849716409983 40.172959805233404,248.0003091612889 38.24360535945743,249.05144878223655 36.971985383774154,248.12849716409983 35.23995127901435,248.61561095615616 33.06942752748728,248.56433586624917 33.02557856286876,249.84620985902438 31.24969549337402,249.5385607190983 28.53105968341697,249.97439688538725 27.149817296070978,249.5385607190983 26.207064555492252,249.9231220829679 24.650426309439354,249.8718472696928 15.661388550652191,247.15426664268307 16.18757612677291,246.33385895534593 14.740560292382725,245.92365407015313 13.885505481157452,246.53896113751398 12.0,246.20567000328447 12.350791717530228,246.51332337428175 15.639464068226516,246.8978895387554 18.62119366636034,246.3851345171861 19.56394640682265,247.2568174083135 20.747868453152478,247.05171583370247 21.427527405670844,247.30809277480876 20.989037759019993,251.1537143466121 20.375152253429405,251.1537143466121 21.734470158466138,251.74337092519272 20.9232643119758,251.84591974892828 20.72594397084322,252.64067166157474" stroke="#4dd2ff" stroke-linecap="round" stroke-linejoin="round" stroke-width="0.5"><title>2022-09-09 5.2km</title></polyline></svg>