<?xml version="1.0" encoding="utf-8" ?>
<svg baseProfile="full" height="300mm" version="1.1" viewBox="0,0,200,300" width="200mm" xmlns="http://www.w3.org/2000/svg" xmlns:ev="http://www.w3.org/2001/xml-events" xmlns:xlink="http://www.w3.org/1999/xlink"><defs /><rect fill="#222222" height="300" width="200" x="0" y="0" /><text fill="#FFFFFF" style="font-size:12px; font-family:Arial; font-weight:bold;" x="10" y="20">Over 5km Runs</text><text fill="#FFFFFF" style="font-size:4px; font-family:Arial" x="10" y="280">ATHLETE</text><text fill="#FFFFFF" style="font-size:9px; font-family:Arial" x="10" y="290">feng qijun</text><text fill="#FFFFFF" style="font-size:4px; font-family:Arial" x="120" y="280">STATISTICS</text><text fill="#FFFFFF" style="font-size:3px; font-family:Arial" x="120" y="285">Number: 22</text><text fill="#FFFFFF" style="font-size:3px; font-family:Arial" x="120" y="290">Weekly: 1.3</text><text fill="#FFFFFF" style="font-size:3px; font-family:Arial" x="141" y="285">Total: 128.1 km</text><text fill="#FFFFFF" style="font-size:3px; font-family:Arial" x="141" y="290">Avg: 5.8 km</text><text fill="#FFFFFF" style="font-size:3px; font-family:Arial" x="167" y="285">Min: 5.0 km</text><text fill="#FFFFFF" style="font-size:3px; font-family:Arial" x="167" y="290">Max: 10.0 km</text><polyline fill="none" points="47.64820846897783,64.0942843957746 48.0,61.17572276415012 45.70497905998491,60.41179635307344 41.466728710976895,59.82415850790858 41.21544904605253,59.58910284776357 41.43322475568857,56.572528727177996 42.505351326137315,56.33746893989155 43.3261982317199,48.50197195528017 42.95765472308267,48.32566945916915 42.60586319217691,48.61950685939519 41.44997673330363,48.541150264951284 41.73476035357453,48.48238279734505 41.466728710976895,48.22772355546476 37.47975802689325,49.226769342436455 35.85481619351776,49.18759117781883 34.8832014889922,48.30608028257848 33.62680316425394,45.896595756625175 31.449046067951713,44.074769567116164 30.845974871946964,43.937642139266245 30.544439274061006,43.42831080383621 27.294555607193615,42.74267025514564 24.597487203311175,41.46933107127552 23.960912052018102,39.92172242719971 23.810144253016915,38.236969196470454 22.92228943691589,37.081141252681846 21.515123313118238,36.84605672003818 17.276872964110225,37.62967066807323 16.472778036200907,37.43376749199524 14.713820381555706,36.08202992724546 13.876221498299856,35.905715604210855 12.0,36.12121086510888 14.22801302926382,35.96448706391675 16.17124243831495,37.218273758888245 17.276872964110225,37.61008035978011 21.44811540248338,36.88523749622982 22.855281526222825,37.100731616970734 23.759888320113532,38.27614967827685 23.94416007446125,39.98049261205597 24.597487203311175,41.48892097118369 26.97626803163439,42.68390094712959 30.410423452674877,43.34995201250422 30.896230804966763,43.99641104940383 31.449046067951713,44.09435919135285 32.93997207994107,45.21096434810897 33.89483480685158,46.34715215701726" stroke="#4dd2ff" stroke-linecap="round" stroke-linejoin="round" stroke-width="0.5"><title>2023-03-28 5.0km</title></polyline><polyline fill="none" points="62.2818352059694,53.562255267839646 62.610486891295295,50.31044905092858 62.42088014975889,49.76354693483154 62.10486891376786,49.57139162905514 60.66385767783504,49.9409208286379 60.562734082341194,49.66007872611226 58.66666666668607,49.2166426780168 58.76779026212171,48.758423949810094 60.8281835205853,49.290548783756094 65.63155430706684,49.30533000022115 70.10627340816427,50.66519522489398 72.55852059921017,51.079064622856095 82.22846441942966,50.901692173836636 85.33801498130197,51.53727574071672 86.41245318343863,51.10862667579204 86.91807116102427,48.43323555366078 87.28464419470401,47.97501425619703 89.6736891384935,48.25585974579735 89.83801498124376,48.04892101875157 91.84784644190222,48.122827742176014 94.66666666668607,47.102911506037344 94.5149812733871,46.437744732160354 92.49250936327735,47.22116304542578 90.95037453179248,47.47244723427866 89.29447565542068,47.44288441204117 87.37312734080479,47.08813005659613 86.8927902620635,47.22116304542578 85.89419475651812,48.04892101875157 85.6413857677253,48.743642675486626 85.7045880149235,49.453142078767996 85.13576779019786,49.48270447572577 84.73127340822248,49.9409208286379 84.7186329587712,50.369573475807556 84.32677902613068,50.56172768387478 83.41666666662786,50.23654348462878 83.07537453179248,49.4087984716316 82.41807116102427,49.09839282750909 81.50795880146325,49.290548783756094 80.91385767783504,50.11829449729703 79.8899812733871,50.28088682911766 79.23267790256068,50.28088682911766 78.87874531833222,50.04438882939576 75.99672284640837,50.08873223482806 75.73127340816427,49.4087984716316 73.02621722838376,49.83745275127876" stroke="#4dd2ff" stroke-linecap="round" stroke-linejoin="round" stroke-width="0.5"><title>2023-03-26 5.6km</title></polyline><polyline fill="none" points="141.33333333331393,63.11269903912034 140.3088274045149,63.12933812654228 137.67641633731546,62.264103247842286 137.32068511197576,62.53032987136976 135.9689064559061,62.497051568032475 132.95230566541431,63.012864477801486 131.57206851121737,63.012864477801486 130.80368906457443,62.44713409985707 129.7507246377063,60.20083163611707 127.85823451919714,58.669999723206274 127.3459815546521,58.53688320047513 127.089855072496,58.07097448375134 124.38629776024027,57.55514536591363 122.06693017127691,56.407003513595555 121.49776021076832,55.10909393482143 121.36969696963206,53.711333177940105 120.70092226617271,52.72956521861488 119.33491436106851,52.49660243019753 115.86297760211164,53.12892919583828 115.06613965745782,52.979167823214084 112.40527009224752,50.99897626398888 112.57602108037099,50.2168769302516 111.55151515157195,47.953759072348475 111.26693017123034,47.78735206199053 111.25270092225401,47.10508147817745 110.79736495384714,46.572575550933834 110.69776021083817,45.923581513852696 110.48432147561107,45.62404490093468 109.70171277993359,45.35778965486679 109.23214756260859,44.60894435799855 109.089855072496,44.309405240710475 109.61633728584275,44.04314776841784 106.84163372864714,39.81625000029453 105.33333333331393,36.8373837039253 106.67088274046546,39.549984918907285 110.34202898549847,45.27458479798224 110.22819499339676,45.54084018498543 111.21001317520859,47.005236754208454 111.19578392617404,47.87055558919383 111.57997364958283,48.07024387487036 112.59025032940554,50.31671961497341 112.34835309616756,50.93241477002448 112.8321475625853,51.13209916741471 113.20210803690134,51.681229952926515 115.03768115944695,52.92924733401742 115.7064558629645,53.079008754109964 119.32068511197576,52.49660243019753 120.65823451912729,52.79612595192157 121.32700922264485,53.59485255408799 121.42661396577023,54.94269449614512 122.05270092230057,56.407003513595555 124.04479578393511,57.45530727671576 127.07562582351966,58.087614104530076 127.45981554675382,58.63672060309909 127.78708827402443,58.63672060309909 129.7507246377063,60.20083163611707 130.81791831360897,62.28074242503499 131.5862977602519,63.02950357574446 132.68194993422367,63.12933812654228 135.32859025034122,62.48041241375904 136.05428194993874,62.89639074278239 136.4669301713584,62.53032987136976 137.30645586299943,62.497051568032475 137.51989459816832,62.21418570577225 140.0242424242897,63.16261629606015 140.93491436104523,63.07942085909599" stroke="#4dd2ff" stroke-linecap="round" stroke-linejoin="round" stroke-width="0.5"><title>2023-03-18 7.0km</title></polyline><polyline fill="none" points="152.0,51.30281498254044 154.34861157572595,51.23239528434351 158.87721646029968,52.55627937760437 160.80428236862645,52.89429022787954 170.2228169956361,52.767536259591 173.17363666777965,53.44355602929136 174.30578788887942,52.92245775999618 174.71528939442942,50.48594419368601 175.04048176651122,50.049338785596774 178.73803947807755,50.17609534191433 180.47239879559493,49.83807759024785 182.2188022750197,49.147955348933465 182.0381398461177,48.528250695890165 184.33857477421407,47.218410913745174 187.8313817330054,46.556443970723194 188.0,46.66911942754814 185.79591836733744,46.795879202429205 184.30244228837546,47.19024217470724 181.18300434929552,48.92260853614425 179.68952827027533,49.359217639503186 177.83472733350936,49.51414310616383 175.1729675476672,49.10570285060385 174.75142188020982,49.20429199254431 173.75175644026604,50.147927228710614 173.53496152552543,50.83804428623989 173.70357979252003,51.23239528434351 173.58313817327144,52.04926149308449 173.24590163934045,52.359105985291535 172.08966209430946,52.457692717944155 170.62027433916228,51.0915557762346 169.5724322515889,51.204227394628106 169.00635664100992,50.75354034896009 168.53663432580652,50.669036357998266 168.09100033453433,50.823960300403996 167.54901304782834,51.47182210611936 167.23586483771214,51.49998993922782 166.64570090326015,51.99292605338269 165.67012378718937,52.04926149308449 165.46537303441437,51.359150714226416 162.03278688527644,51.72533238932374" stroke="#4dd2ff" stroke-linecap="round" stroke-linejoin="round" stroke-width="0.5"><title>2023-03-14 5.6km</title></polyline><polyline fill="none" points="44.86175115214428,96.74969762019464 43.64516129036201,96.58803527176497 41.33640552998986,95.82821994341793 39.6774193548481,96.28087633859832 39.33179723506328,95.98988309562264 36.470046082977206,96.66886646737112 35.585253456258215,96.62036775512388 34.672811059921514,95.8605525875173 33.41474654379999,93.43558529349684 31.97695852536708,91.83508579806949 31.009216589853168,91.46325018214702 27.89861751155695,91.04291317898605 26.225806451635435,90.1375680139754 25.562211981625296,88.71487191632332 25.354838709696196,87.17899194106576 24.801843317982275,86.51613370863197 23.709677419392392,86.30595854662533 19.81105990789365,86.88798136392143 17.917050691263285,85.64309652651718 15.33179723500507,85.72393351225764 15.110599078354426,84.39820154578774 15.069124423956964,85.75626829451357 12.898617511498742,85.90177473019867 12.0,83.25030237980536 12.73271889402531,85.64309652651718 13.092165898589883,85.96644421269593 17.405529953888617,85.6107617202797 18.000000000058208,85.75626829451357 19.313364055298734,86.71014129387913 20.087557603721507,86.90414863273327 23.83410138246836,86.37062785803573 24.857142857217696,86.64547212612524 25.396313364093658,87.34066424447519 25.548387096787337,88.71487191632332 26.11520737328101,90.07290029685828 27.940092165896203,91.10758048550633 30.940092165896203,91.68958501266025 31.354838709754404,92.25542062213935 31.8248847926734,92.35242080189346 33.622119815670885,93.77508303133072 34.714285714318976,95.84438626631163 35.377880184329115,96.62036775512388 37.10599078348605,96.73353139300889 37.88018433179241,96.34554142849811 39.91244239639491,95.97371678808122 41.032258064544294,96.0868809048261 41.184331797237974,95.8605525875173 43.94930875580758,96.74969762019464 48.0,96.58803527176497" stroke="#4dd2ff" stroke-linecap="round" stroke-linejoin="round" stroke-width="0.5"><title>2023-03-12 6.0km</title></polyline><polyline fill="none" points="93.11689088190906,96.45635049366683 88.79043348279083,95.38032845794805 88.61285500746453,95.66349278064445 87.59581464872463,95.32369553949684 86.95007473841542,95.94665665396315 86.82092675636522,95.60685995208041 83.23707025416661,96.34308532175783 82.0747384155402,96.21094253036426 81.20298953662859,95.30481789598707 79.41106128552929,92.15222341833578 78.11958146491088,90.8307600641565 76.65052316890797,90.30217198208265 73.17967115103966,89.83021701419784 71.24245141999563,88.71639834021335 70.62899850530084,87.18724612318329 70.53213751874864,85.54480877345486 69.83796711510513,84.61975119625276 68.23976083711023,84.33656934641476 64.0908819133765,85.0162050309591 63.542002989619505,84.92181134071143 63.05769805680029,84.33656934641476 61.65321375190979,83.54365777557541 61.02361733932048,83.43038440636883 58.66666666668607,83.6380521949759 61.491778774303384,83.50589999380463 63.493572496343404,84.8085388464533 68.33662182360422,84.27993292252359 69.72496263077483,84.58199364226311 70.51599402091233,85.71471678666421 70.62899850530084,87.09285358151828 71.21016442449763,88.56537154399848 73.32496263080975,89.73582587073906 76.87653213751037,90.45319730820484 77.29626307921717,91.00066304364009 77.86128550081048,91.0761754270643 80.00837070256239,92.85070723766694 81.2514200299047,95.32369553949684 82.1877428998705,96.17318742912903 83.51150971604511,96.30533024849137 84.99671150976792,95.81451356897014 85.25500747381011,96.13543231986114 86.28819133032812,95.62573756353231 88.70971599401673,95.41808372693777 91.95455904328264,96.56961559363117 94.66666666668607,96.36196285538608" stroke="#4dd2ff" stroke-linecap="round" stroke-linejoin="round" stroke-width="0.5"><title>2023-03-05 5.0km</title></polyline><polyline fill="none" points="138.38842515309807,89.87132217107865 138.5887590429047,90.52711363884737 140.65219810802955,90.12895476496487 141.11296605470125,91.53421818513016 141.03283249866217,92.23684655298712 135.68391764059197,93.71235887333751 132.21814134682063,95.32838490292488 128.87256538681686,97.62359002177254 126.52865887596272,93.9465662745497 125.04618809139356,92.7052642270719 111.1029493601527,89.56684690136171 110.94268224830739,89.1686863018258 111.72398441866972,86.99050094667473 111.50361713988241,86.54549270216376 111.76405119663104,85.3978357360611 105.33333333337214,82.16562702656665 111.74401780753396,85.3275708307774 110.2615470229648,89.52000451501226 109.72064552048687,92.2602674602822 110.56204785767477,90.22263927024323 111.1029493601527,89.89474332841928 123.04284919321071,92.28368836500158 125.90762381756213,93.59525507985381 128.43183082924224,97.8343729734479 133.68057874240912,94.62576633828576 135.98441847541835,93.64209660467168 141.33333333337214,92.16658381644811 140.65219810802955,89.09842259237485" stroke="#4dd2ff" stroke-linecap="round" stroke-linejoin="round" stroke-width="0.5"><title>2023-02-22 5.0km</title></polyline><polyline fill="none" points="152.0,94.1716622033855 152.22605965461116,90.14048784524493 152.53689167968696,89.57875856851751 155.75824175827438,89.74397327139741 159.4458398744464,91.11524855994503 160.70329670328647,91.19785512049566 161.2684458399308,91.57784473647189 161.7770800627768,91.41263197358057 164.19309262168827,91.7760998212907 164.8006279434776,91.67697231033526 165.6907378336182,92.07348197656393 166.48194662475726,91.94131219969131 168.1773940345156,92.15608803034411 169.30769230768783,91.51175965227594 169.35007849294925,91.84218479359697 169.80219780217158,92.04043954286317 170.48037676612148,92.09000319082406 171.07378335949033,91.85870603231888 172.2323390894453,92.05696076057211 173.065934065904,91.26394033749239 173.54631083202548,91.18133381186635 176.00470957608195,91.74305732458015 176.1883830454899,91.95783342789218 176.28728414443322,91.36306811060058 177.4317111459677,91.42915325777722 178.70329670322826,91.04916327999672 179.12715855566785,89.43006518649054 179.22605965466937,87.95964523080329 179.79120879113907,87.41442981865839 181.09105180529878,87.67877692285401 184.821036106674,87.66225524194306 188.0,86.42312419267546 187.64678178954637,85.82833779662906 186.09262166405097,86.43964600464096 184.01569858711446,86.88573426785297 182.65934065933106,86.91877779221977 179.49450549448375,86.50573323520075 178.12401883827988,87.57964681120939 177.8555729984073,88.40572915221856 177.96860282571288,89.05007034476148 177.00784929352812,89.38050069435849 176.7676609105547,90.14048784524493 176.31554160121595,90.33874475467019 175.48194662481546,90.20657350968395 174.50706436421024,89.59528004669119 173.1789638932678,89.57875856851751 172.62794348510215,89.92570924274332 170.80533751961775,90.04135929618496 170.42386185238138,89.77701619103027 166.14285714289872,89.82658055733191 165.33751962322276,89.71093034482328 164.94191522762412,89.34745769086294 162.0879120879108,89.95875212385727 159.82731554156635,89.52919412357733 155.61695447412785,87.97616688023845 153.46938775508897,87.66225524194306 157.53846153843915,87.62921187494067" stroke="#4dd2ff" stroke-linecap="round" stroke-linejoin="round" stroke-width="0.5"><title>2023-02-10 5.9km</title></polyline><polyline fill="none" points="20.300477637851145,137.01005325175356 20.34737299173139,132.05653410952073 21.97307859308785,132.07481303898385 24.677377333922777,132.7694109253498 26.162396873580292,132.33071784827916 26.772036474139895,130.48453894279373 26.881458966468927,128.8576916764141 27.350412505446002,128.34587139137147 30.054711246164516,128.72973674732202 30.57056013890542,128.47382660477888 33.11854103335645,128.51038521977898 35.71341728174593,127.68781451137329 40.262266608770005,125.40287532914954 45.46765089017572,124.68996811950637 48.0,123.73942059729598 47.85931393830106,123.84909942446393 47.609205384214874,123.41038369806483 47.65610073815333,122.98994674826099 46.8119843681925,123.46522322481906 44.63916630484164,124.01361753464153 43.70125922706211,124.05017709339154 43.48241424228763,123.77598021407903 40.574902301304974,124.30609378812369 38.65219279198209,125.01900258183014 35.4789405122865,126.82868092374702 33.14980460272636,127.55985871588928 30.304819800250698,127.7609320662159 28.038211029022932,127.34050570317777 26.91272253583884,127.37706455790612 25.630916196212638,128.47382660477888 25.33391228830442,129.31467279269418 25.42770299606491,130.15551488865458 24.73990447242977,130.15551488865458 24.239687364257406,130.63077165467257 24.130264871870168,131.34365435267682 23.61441597918747,131.58128126508382 22.58271819364745,131.1974222441495 22.207555362489074,130.21035227453103 21.25401650025742,129.7168151751539 20.175423360837158,130.02756092061463 19.581415544904303,130.95979480382812 18.29960920533631,131.1974222441495 17.346070342930034,131.21570126446022 17.017802865826525,130.94151575640717 12.234476769401226,130.90495765577361 12.0,130.70388796414773 12.343899261788465,130.30174787894066 14.90751194092445,130.11895662172174 15.204515848890878,131.05119001179992 16.470690403773915,130.95979480382812 17.51801997394068,130.28346876193245 18.4871906209155,130.3565852184256 18.94051237514941,129.80821104063943 19.47199305257527,129.78993187144806 20.331741207046434,130.72216703671438 21.48849326960044,130.6673298132664 22.176291793293785,131.2339802828501 23.598784194502514,131.61783922261384 25.177594441978727,131.39849136142584 25.584020842332393,130.06411920682876 25.630916196212638,131.2705383138673 25.083803734276444,131.70923408256203 23.082935301819816,131.4350493576494 22.5983499782742,131.21570126446022 22.051237516279798,130.08239834706183 19.04993486753665,129.20499743496475 18.29960920533631,129.38778965908568 16.439426834520418,130.90495765577361 15.501519756857306,130.88667860260466 15.016934433369897,130.17379401919607 15.45462440297706,129.89960685782717 16.220581849804148,129.89960685782717 16.861485019500833,130.46625984513958 18.424663482350297,130.3565852184256 19.128093790612184,129.8630485367612 19.78462874511024,130.39314343506703 20.36300477635814,130.00928177460446 21.3790707772132,129.80821104063943" stroke="#4dd2ff" stroke-linecap="round" stroke-linejoin="round" stroke-width="0.5"><title>2023-02-05 7.1km</title></polyline><polyline fill="none" points="59.09451046976028,135.62255874017137 59.42048670066288,132.68035364303068 59.65478211664595,132.59697019212035 61.34578381443862,132.87094415612955 61.94680249015801,132.77564893991075 63.535936615779065,133.4546255956884 64.2184493492241,133.52609658442816 64.5444255801267,132.10858016822021 64.29994340694975,131.62018802594685 63.59705715905875,131.63210005463043 63.260894170962274,131.2985627753951 61.366157328826375,131.46533153849305 60.23542727791937,131.27473864620697 59.705715902731754,130.869727678888 58.73797396727605,130.69104590664938 58.66666666668607,131.41768334567314 58.73797396727605,130.72678228376753 59.0843237125664,130.70295803360204 59.267685342463665,130.84590345898323 59.2473118280177,131.3462110186083 59.44086021510884,131.65592410817771 61.824561403598636,131.46533153849305 64.49349179404089,132.54932247818215 66.25580079236533,132.9662392916798 67.33559705724474,132.78756084635097 68.02829654788366,133.06153434660519 68.75155631016241,133.0019749467101 69.59705715911696,133.16874118694977 71.64459535945207,132.8471203595982 73.21335597062716,133.04962246913783 74.09960384841543,132.9662392916798 74.36445953603834,132.71608938882127 75.37294850032777,132.6922655595481 75.7294850028702,133.0019749467101 76.57498585182475,133.2759479253 77.55291454447433,133.20447677776247 77.838143746485,132.99006306297088 77.82795698929112,131.83460434926383 78.02150537644047,131.2985627753951 78.8160724391928,130.56001242677303 81.6785512168426,130.82207923401438 83.19637804187369,130.61957311833976 84.41878890781663,130.20264761572616 87.55631013016682,128.63022897197516 90.99943406909006,128.24903326633648 94.10639501985861,126.8433629473875 94.63610639498802,125.87844350206433 94.37125070742331,124.37744125982863 94.66666666668607,125.81888030231494 94.55461233732058,126.18817163266067 94.40181097912136,126.54554918610665 93.1386530843447,127.30795084192505 92.93491794005968,127.64149994294712 92.13016412005527,127.68914973385108 91.22354272782104,128.16564653370733 89.65478211664595,128.48728073359234 88.76853423885768,128.41580654634163 87.24052065651631,128.68979068438784 84.39841539337067,130.1669110722287 83.0843237125082,130.60766098256136 81.12846632720903,130.786342887106 78.92812676855829,130.48853955529194 77.94001131865662,131.25091451198386 77.66496887383983,131.01267289253155 77.97057159029646,131.37003513265518 77.80758347484516,131.7750443003897 77.92982456146274,132.23961184597283 77.74646293156547,132.44211504803388 77.81777023209725,132.8471203595982 77.59366157330805,133.13300558488118 76.64629315229831,133.2759479253 75.50537634413922,132.8471203595982 75.4136955292197,132.65652980623418 74.40520656481385,132.66844172526908 73.97736276179785,132.9305036252772 73.13186191290151,133.0019749467101 72.63271080935374,133.0019749467101 72.36785512167262,132.82329655810463 70.20826259203022,132.88285605247074 69.04697226948338,132.72800130154792 67.78381437470671,132.9185917339637 67.22354272782104,132.73991321303765 66.42897566501051,132.95432740416436 64.9213355971151,132.65652980623418 61.74306734581478,131.5129797111731 61.040181097981986,131.40577129431767 59.430673457856756,131.64401208204072 59.226938313571736,131.22709037271852 59.37973967182916,130.79825500401057 60.225240520667285,131.32238689953374 61.15223542734748,131.5129797111731 63.20996038487647,131.2985627753951 63.51556310139131,131.63210005463043 63.98415393324103,131.6678361330487" stroke="#4dd2ff" stroke-linecap="round" stroke-linejoin="round" stroke-width="0.5"><title>2022-12-15 10.0km</title></polyline><polyline fill="none" points="105.33333333331393,134.8262742246443 105.65123832726385,130.50643723986286 108.27121396671282,130.68589940899983 108.611043442972,130.91663609308307 110.83637840033043,131.42938270683226 111.18717011774424,129.94241154933115 111.09947218839079,129.48093403156236 110.14575720665744,129.41683979291702 109.81688997161109,128.99381696725322 108.63296792528126,129.0450925398909 108.17255379614653,128.827171206176 107.42712139670039,129.09636809086805 106.64880227367394,129.0450925398909 105.58546488021966,128.42978423566092 105.47584246855695,129.01945475627144 105.73893625661731,129.42965864335565 108.1944782785722,129.05791142969247 108.56719447829528,129.50657171759667 111.3077547706198,130.45516228557244 113.16037352819694,130.83972391387942 114.15793747466523,130.62180580767745 115.03491676814156,130.9038173999361 117.15062931383727,130.9294547848549 118.31262687779963,130.8653613123679 118.79496548924362,130.64744325228094 120.53796183515806,130.9038173999361 121.40397888753796,130.83972391387942 121.80958181084134,130.53207470888447 122.82907023956068,130.53207470888447 123.09216402762104,130.80126780593855 124.00203004467767,130.9935482234505 124.25416159152519,131.2627402953658 124.51725537958555,130.9550921643604 125.0544051969191,131.07046030498168 125.41615915548755,130.9294547848549 125.65732846123865,129.0450925398909 126.63296792528126,128.1862238353424 128.8911896061618,128.4682410962414 130.75477060495177,128.3785084025949 132.36622005683603,127.9554819519035 135.54526999598602,126.28899974634987 139.78765732853208,125.71213518101285 141.05927730409894,125.17372577536298 141.2127486804966,125.75059290416539 141.33333333331393,125.71213518101285 140.1494112870423,126.17362705305277 136.509947218874,126.60947887369548 132.26755988632794,128.53233583666588 130.67803491675295,128.96817917274166 128.81445391802117,129.0835492051774 126.87413723103236,128.81435229200724 126.54526999592781,129.19891912775347 126.47949654894182,130.3013372925343 126.09581810800591,131.63448074487678 125.52578156720847,131.85239702987747 125.03248071455164,131.9805828968165 122.60982541617705,131.39092678607267 120.37352821766399,131.42938270683226" stroke="#4dd2ff" stroke-linecap="round" stroke-linejoin="round" stroke-width="0.5"><title>2022-12-12 7.2km</title></polyline><polyline fill="none" points="152.58243451459566,134.02966484615172 152.8736517719808,129.95951307333598 152.77657935291063,129.5865455535095 152.01386748848017,129.4892495295062 152.0,129.00276848321664 155.92449922958622,129.0676327119727 160.27889060095185,130.39734335172398 163.3990755007835,131.01354681015073 174.11864406778477,130.8513882454281 175.3251155624166,130.94868340485846 177.36363636364695,131.61353200797748 178.00154083204689,131.4027266655612 178.84745762712555,130.98111511093157 179.24961479200283,129.50546553783352 179.31895223417087,128.14331486157607 179.610169491556,127.68926194623054 180.3174114021822,127.57574850720994 182.32819722651038,127.98115326049447 182.7580893682316,127.75412673072424 184.78274268103996,127.81899148781667 186.23882896761643,127.42980253350106 188.0,126.58655640923826 187.75038520805538,125.97033515384828 184.1587057011202,127.05682885838905 182.50847457628697,127.10547765006777 179.4298921417212,126.73250318576174 178.22342064714758,127.80277530114108 177.9876733435667,128.4514214310184 178.18181818182347,129.08384876484342 177.95993836666457,129.4730335195345 178.04314329731278,129.94329711310274 177.6825885978178,130.33247968567593 177.0308166409959,130.26761599222664 176.18489984585904,130.5270706014271 175.79661016946193,130.13788852289144 175.00616332818754,130.00816094379115 174.82588597846916,129.78113741619745 174.7565485361847,129.92708115110872 173.48073959938483,129.7973533936165 171.60862865945091,130.15410446254828 170.956856702629,130.17032040050253 170.52696456079138,129.87843325486756 167.67026194150094,129.97572903183755 166.00616332824575,129.76492143706128 164.31432973808842,130.00816094379115" stroke="#4dd2ff" stroke-linecap="round" stroke-linejoin="round" stroke-width="0.5"><title>2022-12-06 5.0km</title></polyline><polyline fill="none" points="12.0,174.39234482176835 12.307974335504696,170.94542660215666 12.47296058665961,171.1126301142358 14.782768102711998,171.13835371107416 17.80751604033867,172.14156974244543 17.91750687448075,172.36021829160745 17.752520623325836,172.36021829160745 17.89550870761741,172.12870805081184 17.576535288768355,172.14156974244543 17.301558203529567,171.8586122127308 17.543538038560655,171.93578251339204 17.818515123741236,170.0836817780073 17.642529789183754,170.1994389005631 17.664527956047095,170.5724333235121 18.07149404217489,170.90684114364558 19.732355637068395,171.31841873648955 20.744271310744807,171.12549191332073 21.646196150337346,171.40845114921103 23.054078826797195,171.44703644856054 26.100824931287207,171.17693909610534 26.947754353866912,171.40845114921103 28.19065077911364,171.27983339637285 28.498625114560127,171.0354592910735 29.58753437217092,171.0354592910735 29.697525206254795,171.2541098294314 31.039413382241037,171.63996276149555 32.08432630618336,171.45989821226976 32.33730522461701,169.51775648119656 33.349220898293424,168.66886359651835 36.252978918433655,168.96469057768263 37.660861594893504,168.83607023956574 39.22273143904749,168.3601738052239 42.1704857928562,166.79098858022917 43.171402383130044,166.53374316832924 45.81118240149226,166.31508414025302 47.25206232815981,165.9292143076891 47.81301558203995,165.60765517823893 47.98900091659743,166.23791027170955 48.0,166.09642471883126 45.75618698442122,166.84243759728997 42.66544454632094,167.25402894989384 41.05957836849848,168.0643453530647 38.07882676448207,169.35055077570723 35.82401466544252,169.4534466216719 35.58203483041143,169.59492826772475 33.54720439959783,169.35055077570723 28.19065077911364,171.92292080003972 23.098075160349254,172.02581446897966" stroke="#4dd2ff" stroke-linecap="round" stroke-linejoin="round" stroke-width="0.5"><title>2022-11-27 5.6km</title></polyline><polyline fill="none" points="58.66666666668607,172.13247406667506 60.09493446693523,172.34124251411413 60.49025859020185,172.22194629629666 61.14063053490827,172.55001065231045 61.574211831437424,172.47545063841972 63.856889833521564,173.17631321179215 64.23946156573948,171.40178206581913 64.03542330861092,171.10353934431623 64.11193765496137,171.71493624428695 64.7495572087355,172.11756202290417 66.76443499821471,172.50527464873448 67.7208643287886,172.22194629629666 68.7283032235573,172.57983464677818 72.41374424373498,172.55001065231045 73.12787814385956,172.31141846912215 75.07899397809524,172.55001065231045 76.12469004606828,172.49036264437018 76.59652851580177,172.13247406667506 77.85901523201028,172.11756202290417 77.9992915338371,172.4008905851224 79.46581650729058,172.8482503134146 80.46050301101059,172.71404254400113 80.88133191643283,172.28159441777098 81.02160821820144,171.550903189971 80.85582713433541,170.95441774697974 81.05986539146397,170.34301754827902 82.23308537021512,169.388631449503 85.1788877081708,169.7614392884716 87.18101310665952,169.61231627120287 89.2596528516151,168.91143597688642 92.24371236277511,167.28597677417565 94.66666666668607,166.8236867881933 92.43499822885497,167.19650141138118 89.19589089619694,168.94126074123778 87.13000354234828,169.59740396078269 85.21714488131693,169.7167023998336 82.56464753806358,169.31406976340804 82.09280906844651,169.40354378202755 81.02160821820144,170.40266646486998 80.83032235212158,170.95441774697974 80.99610343610402,171.550903189971 80.76656039676163,171.95352943710168 80.85582713433541,172.41580259896 80.51151257526362,172.72895452467492 79.08324477507267,172.78860243163945 77.57846262847306,172.07282588204544 76.54551895149052,172.0877379305748 76.04817569965962,172.46053863092675 74.84945093875285,172.53509865267552 73.89302160823718,172.29650644423964 69.86326602904592,172.23685832902265" stroke="#4dd2ff" stroke-linecap="round" stroke-linejoin="round" stroke-width="0.5"><title>2022-11-23 5.3km</title></polyline><polyline fill="none" points="105.33333333331393,170.8665280080313 108.39808153471677,171.23668282122526 111.82254196639406,172.1788911856711 112.26858513179468,170.19351704967266 112.1678657074226,169.72240768438496 111.72182254190557,169.50367786180868 111.00239808147307,169.57097937767685 110.36930455628317,169.04939188450226 108.81534772180021,169.09986816823948 108.47002398077166,169.2849477384152 108.52757793758065,169.45320170615742 113.41966426849831,171.11890638321347 114.9448441247223,171.3039836037933 115.75059952028096,170.8497027688136 116.75779376493301,171.01795508118812 117.98081534769153,170.799227040392 118.2254196642316,171.1525568029756 118.9160671462887,171.2535080195521 122.8872901678551,171.1525568029756 123.88009592326125,171.47223543564905 125.5635491606663,171.3881095419638 126.11031175055541,171.00112985796295 127.520383693045,170.9843046329479 127.85131894476945,171.35445917202742 129.5347721822327,171.77508828435384 130.98800959228538,171.40493472426897 130.95923261385178,170.73192604423093 131.17505995201645,170.39542063625413 131.01678657077719,169.55415400135098 131.29016786569264,168.9147883827245 132.54196642682655,167.92208403922268 136.9016786570428,168.34272222938307 139.29016786569264,167.85478182547376 140.97362110309768,167.1312812296528 141.33333333331393,167.78747958333406 139.93764988007024,168.4100242365821 137.4340527577442,169.04939188450226 135.66426858509658,168.94843926889007 135.37649880093522,169.13351901517308 133.11750599520747,168.7297083818412 132.67146282969043,168.8474865891476 132.31175059947418,169.3185985461605 132.139088728989,171.3039836037933 131.70743405277608,172.5322178832721 130.72901678655762,172.86871877036174 126.8729016786674,172.12841587906587 116.02398081525462,172.36396717278694 111.98081534769153,171.59001161203196" stroke="#4dd2ff" stroke-linecap="round" stroke-linejoin="round" stroke-width="0.5"><title>2022-11-18 5.5km</title></polyline><polyline fill="none" points="152.0,173.9450123735587 152.39607072697254,169.80982892931206 153.32966601185035,170.04140209281468 154.23497053049505,169.90907461277675 156.69626719062217,170.19027037390333 159.10098231828306,171.01731379929697 159.48290766210994,169.2474355329323 159.41218074655626,168.4700060364121 158.28055009822128,168.42038274584047 157.6864440078498,167.8910666662414 156.1870333988336,167.95723127419478 155.88998035364784,168.33767722653283 156.01728880160954,168.4700060364121 159.8648330058786,169.7602060639183 162.32612966600573,170.2729749133141 163.28801571711665,169.94215649328544 164.40550098236417,170.32259761598834 168.50766208249843,170.30605671684316 169.2998035363271,170.02486116391083 171.47819253441412,170.32259761598834 172.58153241651598,170.25643400895933 173.31709233793663,169.90907461277675 174.46286836930085,169.92561555391876 174.80235756386537,170.25643400895933 176.5422396856011,170.62033350103593 177.9143418467138,170.30605671684316 178.14066797640407,169.23089452004933 177.95677799609257,168.55271148576867 178.1972495088703,167.94069012484397 179.42789783887565,166.8158878627728 184.1241650294396,167.17979536246276 186.00550098228268,166.78280532079225 187.84440078574698,166.0549876264413 188.0,166.7166402158764 184.54852652252885,167.9076078208309 181.13948919449467,167.97377242177026 180.1634577602963,167.62640795444895 179.5693516699248,167.80836086691124 179.27229862473905,168.20534830458928 179.1308447936899,169.94215649328544 178.74891944986302,171.29850756739324 177.58899803535314,171.69548614385712 174.95795677800197,171.0338546231942 163.3021611002041,171.1827219594561" stroke="#4dd2ff" stroke-linecap="round" stroke-linejoin="round" stroke-width="0.5"><title>2022-11-06 5.5km</title></polyline><polyline fill="none" points="12.0,221.08579185836425 12.830097087309696,216.61587832354417 13.419902912690304,204.38066325143154 13.922330097178929,202.10724601768015 14.053398058284074,202.33714311523363 16.71844660199713,202.26051077367447 24.211165048647672,203.94641666948155 24.73543689318467,200.37023865027004 24.538834951468743,201.39200920319126 25.34708737861365,201.97952531334886 29.235436893301085,202.77139259119576 37.252427184488624,201.1876554384944 37.77669902914204,201.1876554384944 37.88592233019881,202.61812815946178 39.67718446603976,202.36268722366367 41.49029126216192,202.46486363040458 42.16747572820168,202.89911287665018 45.050970873911865,202.79693665372906 45.96844660199713,202.15833428050973 45.99029126227833,201.2131996685639 47.868932038894854,200.65122598335438 48.0,199.34846377353824 47.300970873911865,198.91420814163575 46.12135922338348,200.49796020583017 46.33980582526419,201.1110227321915 45.85922330105677,201.31537656174623 45.07281553407665,202.61812815946178 42.669902912690304,202.9246569257084 41.49029126216192,202.46486363040458 34.67475728155114,202.46486363040458 34.12864077673294,202.87356882498716 32.46844660199713,202.87356882498716 30.742718446650542,202.28605489025358 29.06067961163353,202.77139259119576 26.133495145710185,202.2349666544178 19.339805825264193,200.012617935281 19.12135922338348,199.60390789809753 19.64563106803689,199.42509703931864 21.983009708696045,199.1441082793608 22.747572815511376,200.012617935281 23.490291262161918,199.96152921850444 22.725728155230172,199.9359848560125 21.93932038836647,199.19519716913055 20.694174757343717,199.19519716913055 19.427184466039762,199.37400819819595 19.274271844653413,200.0381622895802 26.242718446650542,202.36268722366367 24.38592233019881,201.28983234253246 24.495145631139167,200.37023865027004" stroke="#4dd2ff" stroke-linecap="round" stroke-linejoin="round" stroke-width="0.5"><title>2022-11-02 5.0km</title></polyline><polyline fill="none" points="59.77521170134423,218.22303921698767 59.719784449611325,217.8827934118599 58.7359507313231,217.75317576350062 58.66666666668607,217.28331086906837 59.02694380294997,214.85295220337866 59.02694380294997,212.61698817726574 59.24865280993981,212.1471075292502 59.123941493511666,210.4296004842763 59.42879137804266,206.83249502746912 59.719784449611325,205.47140606907487 59.95535026944708,205.64964459708426 62.71285604313016,205.55242360751436 66.26020015403628,206.6542578758963 66.60662047733786,204.33715603112068 66.42648190923501,204.87187495264516 66.6759045420331,205.26076026856026 69.51655119325733,205.90890026759007 73.93687451892765,204.98529993844568 75.43341031571617,204.95289280822908 76.27867590455571,205.37418496636383 76.73595073138131,205.0987248402671 78.60662047733786,205.1473354867485 79.17474980757106,204.6288211288338 80.02001539652701,205.05011417834612 81.08698999229819,204.67743192447233 81.89068514242535,205.0339106209576 82.25096227868926,205.97371411665517 83.2486528098816,206.28157952509355 84.64819091605023,205.98991757461044 84.8837567360024,204.77465346940153 84.71747498080367,204.15891597575683 84.98075442650588,203.51076857146109 85.83987682830775,202.65196903595643 86.6851424172637,202.4737270195037 89.12394149345346,202.86261842436215 90.73133179364959,202.86261842436215 92.51886066206498,202.5223384990968 94.40338722092565,201.77696078302688 94.66666666668607,202.34409633179894 93.1424172440893,203.0570637564815 91.10546574287582,203.57558343531855 88.99923017702531,203.7052130807715 86.40800615859916,203.4135462242557 86.02001539652701,203.8672499832901 85.50731331796851,206.848698394635 84.41262509621447,207.2537820158468 80.49114703625673,206.58944431479904 69.9599692071788,206.8000882880733 66.80061585834483,206.13574861928646 66.41262509627268,208.5986519559956" stroke="#4dd2ff" stroke-linecap="round" stroke-linejoin="round" stroke-width="0.5"><title>2022-10-28 6.2km</title></polyline><polyline fill="none" points="105.33333333331393,213.89509512709628 105.55868544604164,210.43649640479998 105.79812206572387,209.81064652182977 106.02347417839337,210.04122308720252 107.7417840375565,209.8765255753242 109.0938967136317,210.0247533438378 111.93896713620052,210.99646522014518 112.5164319248288,210.864708033012 112.8403755868203,209.10244493576465 112.7136150234146,208.5095295024512 112.2910798122175,208.31189052283298 111.47417840373237,208.37777021057263 111.00938967132242,207.9166118109133 109.50234741787426,207.99896162531513 109.2910798122175,208.19660100221517 109.46009389666142,208.4765896898898 113.78403755871113,209.95887435301847 115.1924882629537,210.20592042480712 121.15023474174086,209.33302255006856 121.20657276996644,210.1565112418175 123.17840375588275,210.0247533438378 124.47417840373237,210.33767816946784 127.78403755865293,209.9259348471969 127.93896713614231,210.2388598714315 129.57276995299617,210.6506023661059 130.89671361498768,210.51884488624637 131.17840375588275,210.28826902825676 131.15023474174086,209.59653940534918 131.37558685446857,209.30008291175182 131.20657276996644,208.49305959703634 131.47417840373237,207.88367187295808 132.69953051640186,206.84606025958783 136.15023474168265,207.22487165007624 137.53051643189974,207.15899147449818 139.13615023472812,206.84606025958783 140.98122065723874,206.10490487290372 141.33333333331393,206.68135936745966 139.69953051640186,207.38957196717092 137.5446009389707,207.94955174195638 135.868544600904,207.88367187295808 135.57276995305438,208.03190153888136 133.33333333331393,207.65309211207204 132.85446009389125,207.78485201727017 132.55868544598343,208.2295408739592 132.47417840373237,209.66241854947293 132.0375586854061,211.2929184834502 130.868544600904,211.65524948322854 129.85446009383304,211.5564320214762 129.68544600933092,211.25997925987758 129.12206572771538,211.3423273058288 127.71361502347281,211.01293486068607 121.69953051640186,211.0952830372844" stroke="#4dd2ff" stroke-linecap="round" stroke-linejoin="round" stroke-width="0.5"><title>2022-10-20 5.2km</title></polyline><polyline fill="none" points="160.13061224482954,211.63234565447783 160.6693877549842,212.46281501092017 162.0897959183203,212.86373034017743 163.55918367335107,212.31963082085713 167.37959183659405,212.7205463621067 167.6489795919042,212.2909939737292 168.28571428568102,212.97827746797702 169.41224489791784,213.26464507562923 170.22040816326626,212.97827746797702 173.94285714277066,213.35055529882084 175.21632653055713,212.1478096928331 175.97551020397805,212.83509355058777 177.76326530613005,212.4055413439637 179.50204081623815,212.66327274977812 181.68163265299518,212.34826766492915 181.97551020397805,214.43874909973238 182.34285714279395,214.12374608084792 182.41632653062697,212.03326221357565 183.10204081621487,211.54643488599686 187.1428571427241,212.74918316374533 188.0,214.18101938429754 187.41224489803426,211.86144090385642 185.25714285706636,206.7353883360338 182.24489795905538,207.79497140625608 181.33877551020123,209.28410817036638 179.0367346938001,209.6563910813711 177.8612244897522,209.6563910813711 177.39591836731415,209.19819665662362 170.04897959169466,209.2268338309077 169.46122448972892,208.79727589871618 166.17959183675703,209.42729396597133 165.59183673467487,208.9690991533571 172.7918367346283,207.96679529713583 173.1591836734442,208.65408976990147 172.69387755088974,209.37001965672243 169.24081632657908,208.9690991533571 166.3510204080958,209.42729396597133 165.32244897959754,209.05501073983032 170.39183673460502,208.10998178948648 173.08571428561118,208.02406990312738 173.13469387753867,208.91182474730886 172.74285714281723,209.37001965672243 169.16734693874605,208.9690991533571 166.17959183675703,209.39865681287483 165.34693877550308,209.0836479292193 167.37959183659405,208.7113642305485 168.01632653048728,209.11228511566878 172.64489795907866,209.5132054069545 173.08571428561118,209.16955947925453 173.1102040815167,208.02406990312738 171.44489795912523,207.88088336537476 163.41224489780143,209.5418425478565 159.76326530601364,208.88318753970088 152.34285714267753,206.3917388819391 152.0,205.93353893130552 152.53877551015466,205.58988845936256 155.13469387753867,205.56125090029673" stroke="#4dd2ff" stroke-linecap="round" stroke-linejoin="round" stroke-width="0.5"><title>2022-09-24 5.1km</title></polyline><polyline fill="none" points="44.72727272706106,256.40558863815386 46.150197628419846,255.4905193640734 47.786561264656484,249.33457112277392 41.169960473664105,245.34149785438785 35.69169960450381,251.830231621454 35.69169960450381,255.9896481912001 38.60869565187022,257.237468872976 44.65612648194656,257.32065684796544 46.22134387306869,256.3224005663651 48.0,249.00181579124182 41.73913043458015,245.0919301022077 35.83399209473282,251.9134201685083 35.97628458496183,256.73834083764814 39.889328062999994,256.90471688465914 41.09881422901526,257.736596591596 39.81818181788549,258.9844145021634 13.636363636236638,260.4817933823215 12.569169960450381,261.31366930616787 14.418972332030535,259.8994797122432 41.88142292480916,260.56498101423495 46.07905138283968,259.5667288497207 29.85770750977099,258.9844145021634 31.209486165549606,239.18547018396202 30.42687747022137,239.0190903894836 27.50988142285496,259.3171656106715 12.0,259.1507900740253 12.213438734877855,260.06585509027354 46.22134387306869,260.4817933823215 43.58893280569464,258.9844145021634 40.67193675879389,259.6499165786081 29.786561264656484,258.73485107842134 30.924901185557246,238.68633069389034 28.22134387306869,258.73485107842134 25.873517786618322,259.6499165786081 14.063241106458008,259.1507900740253 13.920948616694659,260.06585509027354 47.928853754885495,260.8977314540534 38.395256916526705,260.56498101423495 45.65217391308397,260.4817933823215 45.65217391308397,259.4003533660434 41.454545454122126,259.06760229257634" stroke="#4dd2ff" stroke-linecap="round" stroke-linejoin="round" stroke-width="0.5"><title>2022-09-22 5.0km</title></polyline><polyline fill="none" points="75.13195290300064,252.76885720992868 76.55704425496515,252.56376030009415 77.609419407323,253.25596167506592 78.85911490058061,253.0765022491687 81.5558262282284,253.51233205301105 82.98091758030932,252.87140559972613 82.93706861557439,252.4099375037913 83.24401136825327,252.33302606915822 83.7701989444904,253.23032462238916 86.31343889574055,252.92267977834854 87.2342671538936,253.28159872509423 89.16362159966957,252.33302606915822 89.18554608209524,253.15341344797343 89.53633779939264,253.4866950273863 89.7555826229509,252.1279287904763 90.19407226971816,251.84591974892828 94.03085667896084,252.87140559972613 94.66666666662786,254.07634592984687 93.52659358514939,250.30768283661746 92.18920016242191,247.4619188094366 90.25984571664594,248.15413475646346 89.66788469359744,247.743932952435 87.2342671538936,247.38500580433174 84.27446203818545,249.71802276480594 80.02111246460117,249.7949350294948 79.47300040593836,248.64124849700602 75.72391392616555,249.17963622894604 74.40844498586375,249.48728582452168 75.94315874949098,250.1794959865365 82.25740966305602,250.12822122751095 83.24401136825327,249.71802276480594 85.04181892005727,249.71802276480594 86.15996751945931,250.12822122751095 88.44011368253268,249.8718472696928 88.85667884699069,248.79507368533814 88.11124644742813,248.12849716409983 86.83962647186127,248.0003091612889 84.9102720260853,249.05144878223655 83.63865205040202,248.12849716409983 81.90661794564221,248.61561095615616 79.73609419411514,248.56433586624917 79.69224522949662,249.84620985902438 77.91636216000188,249.5385607190983 75.19772635004483,249.97439688538725 73.81648396269884,249.5385607190983 72.87373122212011,249.9231220829679 71.31709297606722,249.8718472696928 62.32805521728005,247.15426664268307 62.85424279340077,246.33385895534593 61.407226959010586,245.92365407015313 60.55217214778531,246.53896113751398 58.66666666662786,246.20567000328447 59.01745838415809,246.51332337428175 62.30613073485438,246.8978895387554 65.2878603329882,246.3851345171861 66.23061307345051,247.2568174083135 67.41453511978034,247.05171583370247 68.0941940722987,247.30809277480876 67.65570442564785,251.1537143466121 67.04181892005727,251.1537143466121 68.401136825094,251.74337092519272 67.58993097860366,251.84591974892828 67.39261063747108,252.64067166157474" stroke="#4dd2ff" stroke-linecap="round" stroke-linejoin="round" stroke-width="0.5"><title>2022-09-09 5.2km</title></polyline></svg>