<?xml version="1.0" encoding="utf-8" ?>
<svg baseProfile="full" height="300mm" version="1.1" viewBox="0,0,200,300" width="200mm" xmlns="http://www.w3.org/2000/svg" xmlns:ev="http://www.w3.org/2001/xml-events" xmlns:xlink="http://www.w3.org/1999/xlink"><defs /><rect fill="#222222" height="300" width="200" x="0" y="0" /><text fill="#FFFFFF" style="font-size:12px; font-family:Arial; font-weight:bold;" x="10" y="20">Over 5km Runs</text><text fill="#FFFFFF" style="font-size:4px; font-family:Arial" x="10" y="280">ATHLETE</text><text fill="#FFFFFF" style="font-size:9px; font-family:Arial" x="10" y="290">fengde</text><text fill="#FFFFFF" style="font-size:4px; font-family:Arial" x="120" y="280">STATISTICS</text><text fill="#FFFFFF" style="font-size:3px; font-family:Arial" x="120" y="285">Number: 41</text><text fill="#FFFFFF" style="font-size:3px; font-family:Arial" x="120" y="290">Weekly: 1.5</text><text fill="#FFFFFF" style="font-size:3px; font-family:Arial" x="141" y="285">Total: 250.3 km</text><text fill="#FFFFFF" style="font-size:3px; font-family:Arial" x="141" y="290">Avg: 6.1 km</text><text fill="#FFFFFF" style="font-size:3px; font-family:Arial" x="167" y="285">Min: 5.0 km</text><text fill="#FFFFFF" style="font-size:3px; font-family:Arial" x="167" y="290">Max: 10.0 km</text><polyline fill="none" points="15.064094061555807,57.18305231854902 15.455415895441547,57.55523448936583 15.247526171209756,58.01330344271264 15.77336488547735,57.79858381464146 16.592694975202903,58.5 16.984016809030436,58.47137083944108 17.52208433067426,57.82721311812929 17.876719742664136,57.85584241557808 18.09683827421395,57.16873759914597 18.732736254227348,57.082849250829895 19.136286895431112,56.32416646373167 18.965083593153395,54.7495281820884 19.46646469278494,53.86199668061454 21.618734779127408,55.23623652430251 22.26686156645883,54.7495281820884 23.037276426970493,55.021512472318136 23.881064131273888,55.021512472318136 25.715385227638762,52.401851493821596 26.815977885387838,51.70040357331163 27.072782838891726,51.013267376765725 27.610850360477343,50.36907401079952 28.601383752480615,49.6676155103778 28.919332742516417,48.923206578037934 29.628603566496167,48.379212834945065 29.273968154448085,46.73290260236536 29.567459529847838,45.616263345771586 29.897637327259872,45.01499222127313 32.23333952325629,42.86757344743819 32.69803420105018,41.693636717114714 32.587974935246166,38.25766556158487 32.88146631058771,35.136582486884436 34.66687217768049,32.473582886115764 34.9359059385024,31.772031220578356 34.67910098505672,31.5 34.01874539034907,31.5 33.78639805142302,31.81498346834269 34.01874539034907,32.44494819579995 33.407305024855305,33.03195813143975 33.44399144680938,33.704868813671055 33.077127227559686,33.862358062469866 32.61243254982401,34.85024096936104 31.744187230884563,35.89538456524315 31.829788882052526,36.42511178499262 30.814797875413205,37.1839066066168 30.30118796840543,38.71580011135666 30.27673035382759,38.987816763299634 30.98600117774913,39.188249734346755 30.839255490049254,40.53400624735514 32.575746127869934,40.67717104284384 32.759178237523884,41.665003986199736 32.49014447676018,42.55261581632658 29.824264483409934,45.229732216583216 29.261739347188268,46.57542839583766 29.67751879565185,48.27900322167261 28.992705586424563,48.837312975141685 28.72367182560265,49.51014473299438 27.57416393852327,50.36907401079952 26.913808343815617,51.457043237707694 26.057791832252406,52.215753421754926 25.44635146681685,53.47548920002009 25.006114403659012,53.8763117511844 24.87159752327716,54.592063342177426 23.844377709319815,55.42233042595035 23.929979360487778,55.95198089367477 23.39191183890216,56.352796080405824 22.32800560304895,55.679998481035" stroke="#4dd2ff" stroke-linecap="round" stroke-linejoin="round" stroke-width="0.5"><title>2023-06-21 5.9km</title></polyline><polyline fill="none" points="45.34899277432123,57.088740186198265 45.45749878929928,57.21575418319844 45.1922618636745,57.25809215515619 45.50572368490975,57.58268282581412 45.97591641667532,57.6532459101727 45.83124173001852,58.34476215408358 46.4461091485573,58.5 47.20565125369467,58.27419943692803 48.146036717284005,56.94761338054377 48.67651056853356,56.87704992145882 49.08642218093155,56.312540900253225 49.0502535092528,54.39319229043031 49.556614912697114,53.54641203158826 51.59411675046431,54.91537076032546 52.32954640785465,54.44964411582623 53.89685551385628,54.74601580570743 55.632951754378155,52.14921280705312 56.705955680750776,51.40121122470009 57.622228696534876,50.04632971271349 58.65906395128695,49.29831629208638 58.851963533612434,48.64909368324152 59.53916829545051,48.2256859249901 59.15336913091596,46.7014068227727 59.40654983260902,45.37470522179501 61.914244402199984,43.10234510540613 62.50499937287532,42.0861217926431 62.625561611843295,37.188380977502675 62.384437134023756,36.70847735108691 62.432662029517815,36.03096339745389 62.95107965689385,34.56300464287051 64.47016386734322,32.64334179244179 64.8077381363255,31.71173070410441 64.61483855405822,31.5 63.831184001115616,31.627038462960627 63.71062176214764,31.895230374619132 63.8914651205414,32.43161257338943 63.324822597554885,33.01033830587403 63.40921616484411,33.631407018663594 62.963135880825575,33.89959488325985 62.408549581770785,34.98645594854315 61.62489502882818,35.847469440312125 61.72134481993271,36.39795055129798 60.76890313246986,37.146036609628936 60.21431683341507,38.71276923165715 60.19020438560983,38.98094683732779 60.91357781912666,39.22089476243127 60.660397117433604,40.519428955347394 62.42060580570251,40.505314521476976 62.661730283580255,41.62035017639573 62.143312656204216,42.83417581953108 59.828517668822315,45.02185682102572 59.50299962377176,45.642869379604235 59.273931369767524,46.89899954473367 59.63561808661325,48.09866333437094 58.96046954864869,48.60675296813133 58.58672660792945,49.39711075880041 57.622228696534876,50.07455655175727 56.88679903920274,51.274191669828724 55.71734532160917,52.092760004336014 55.1748152464279,53.108906783571 54.54789160407381,53.64520333985274 53.99330530501902,54.717789958944195 52.24515284068184,54.49198296916438 51.71467898937408,54.95770946521952 49.72540204715915,53.588751172690536 49.13464707642561,54.19561071268981 49.23109686758835,56.08673662036017 48.86941015080083,56.862937225188944 48.29071140399901,56.94761338054377 47.69995643326547,56.53834479652869 47.00069544749567,56.66535931956605" stroke="#4dd2ff" stroke-linecap="round" stroke-linejoin="round" stroke-width="0.5"><title>2023-06-15 6.6km</title></polyline><polyline fill="none" points="85.6819159577426,41.70439563605032 85.697239911824,41.90148336359562 85.33712699034368,42.34940831192944 85.39076082970132,42.922748790129845 85.82749352173414,44.64274694559572 85.97307108572568,46.28208768815966 86.34084598429035,46.60457721554121 86.486423548311,47.76015460976487 86.88484635506757,48.906758463563165 86.66264902052353,49.58754716107069 86.87718437798321,50.09813509498781 86.80056460745982,50.5728895365537 86.94614217148046,51.03868376225728 87.122367643693,51.14617437386187 87.28326916182414,52.49875291790522 87.41352277170517,52.722687680063245 87.32157904707128,54.44248693171539 87.55910033572582,55.31133057650004 87.96518511950853,55.347158989192394 88.14141059172107,57.165431045687 87.7276638308831,57.88198074747925 87.98050907358993,58.14172851849435 87.98817105067428,58.5 87.94986116542714,57.38039659226342 88.14141059172107,57.21917248344835 88.00349500478478,55.347158989192394 87.57442428980721,55.30237347094953 87.30625509293168,54.03941211324127 87.45183265692322,53.83339535460982 87.45949463400757,52.71373030093673 87.32924102409743,52.57041210614989 87.18366346010589,50.92223544586159 87.59741022097296,50.13396571165504 87.26028323065839,47.69744926407293 86.4404516859795,44.88461888587335 86.51707145647379,44.821911412102054 85.86580340701039,41.85669073849567 84.9540281376976,41.22959150059614 85.10726767874439,40.69207417348662 85.0459718623315,40.047048879067006 84.24912624878925,39.43785381360067 84.11121066185297,39.187007513290155 83.85070344206179,37.34147261079488 83.65915401570965,37.018947820834 83.42163272708422,35.75571390246478 81.85858940824983,32.07341391714726 82.02715290343622,32.0644543545568 81.87391336238943,31.5 82.12675860512536,31.98381824851822 82.21870232975925,32.709540439071134 82.12675860512536,32.93352751365455 82.70906886117882,34.02657593906042 83.52123842877336,36.07824350237934 83.46760458938661,36.33805812027276 83.82771751092514,37.33251360544091 84.12653461596346,39.267636762248 85.05363383935764,40.06496631469781 85.09960570171825,40.701032823562855 84.93104220653186,41.25646727743879 85.75087375121075,41.76710541728971 85.32946501328843,42.34044983615604 85.42907071494847,42.68087124905287 85.75087375121075,42.74358030749136 85.79684561351314,43.12879207674996 85.6359440954111,43.352751602535136 85.42907071494847,43.06608330340532 85.34478896736982,42.34044983615604 85.70490188887925,41.92835892727453 85.7125638659054,41.65960290678777 84.83909848186886,41.21167431130743" stroke="#4dd2ff" stroke-linecap="round" stroke-linejoin="round" stroke-width="0.5"><title>2023-06-04 8.0km</title></polyline><polyline fill="none" points="128.3229121118784,55.417017308660434 126.70550940092653,55.458433292777045 126.00896370789269,55.92781352766906 125.13533012679545,55.80356598277285 124.78115435061045,56.03825569055334 123.36445124621969,55.78976069269993 122.90402273723157,55.29276927738101 121.74704853515141,53.09770121812471 120.57826847396791,51.84138778998749 119.6337997376686,51.51005036463903 117.4261040664278,51.30296404658293 115.67883690423332,50.4055862036912 115.12396152166184,49.14924685511505 114.98229121119948,47.934313781850506 114.46283340617083,47.31303681587451 113.51836466987152,47.10594383649004 110.236335811147,47.644384899234865 109.57520769565599,47.326843002825626 108.00502842152491,45.98763606759894 107.61543506773887,45.90479807379597 107.78071709664073,45.26970504040946 106.67096633143956,43.11588825476065 106.58832531701773,42.45316824398469 106.28137297765352,42.190840643059346 106.03344993438805,41.44527510770422 105.27787494531367,41.141524964317796 104.90008745080559,40.38214651160524 105.3369042413542,40.20265641325386 102.77503279404482,36.28142647961795 101.60625273280311,33.809886488175835 101.5,33.906539769945084 102.8222562308656,36.405692616986926 105.8917796239839,41.10010443540523 105.78552689112257,41.29340012438479 106.60013117617927,42.563621812922065 106.63554875383852,43.26776111642539 106.95430695230607,43.474860188303865 107.75710537820123,45.29731784528121 107.61543506773887,45.94621707723127 108.04044599912595,46.04286136760493 108.24114560557064,46.41563153115567 110.28355924790958,47.63057874588412 113.34127678180812,47.11975004532724 114.47463926539058,47.34064918832155 115.04132050724002,48.113793243494 115.11215566244209,49.232082789065316 115.572584171372,50.364168615764356 117.50874508090783,51.358187096891925 119.4331001311657,51.496244620357174 120.61368605156895,51.88280490897887 122.03038915607613,53.55328441786696 123.35264538694173,55.77595540114271 124.56864888500422,55.941618803175515 124.69851333624683,56.190113511824165 125.46589418448275,55.72073422042013 126.78815041540656,55.44462796625157 128.3465238303179,55.44462796625157 128.5,55.251353240717435" stroke="#4dd2ff" stroke-linecap="round" stroke-linejoin="round" stroke-width="0.5"><title>2023-06-01 6.5km</title></polyline><polyline fill="none" points="158.5,57.618194316732115 156.87768240342848,57.904260790979606 156.10515021457104,57.70853116021317 155.59012875537155,57.196621622511884 153.82618025748525,54.140182241550065 153.09227467805613,53.53792043462454 152.06223175959894,53.08622240681143 149.71888412017142,52.8152029018529 147.78755364805693,51.85157381526369 147.16952789702918,50.677142043350614 147.0150214592577,49.246731280349195 146.37124463520013,48.55410616514564 145.2896995707997,48.343306547860266 141.68454935622867,48.87030500557739 139.6244635193725,47.560333806686685 139.34120171674294,46.82252862706082 139.0836909871432,46.65689836704405 139.13519313302822,46.340694608021295 138.2339055793709,44.29288182372693 137.8733905579429,44.08207589338417 137.88626609439962,43.35931033238012 137.4742489270866,42.90757999231573 137.30686695274198,42.18480846498278 137.03648068674374,42.01917280622001 137.10085836908547,41.71801656890602 135.00214592274278,38.1944412306766 133.86909871245734,36.71872990473639 132.15665236057248,33.36067667452153 131.70600858371472,32.96914961337461 131.5,32.09573920900584 131.65450643771328,32.878797061610385 132.1952789700008,33.39079409613623 133.7789699570858,36.688613187667215 137.10085836908547,41.6577852449409 136.9592274678289,41.97399941121694 137.860515021428,43.34425267750339 137.8733905579429,44.12724861902825 138.24678111588582,44.35311203218589 139.12231759657152,46.340694608021295 139.01931330474326,46.61172644450562 139.37982832617126,46.83758591384685 139.6115879827994,47.50010495581955 141.25965665234253,48.6444487626577 142.03218884125818,48.91547621112841 145.2639484978863,48.35836367376032 146.3068669528002,48.478820623407955 146.92489270382794,49.14133202377707 147.14377682405757,50.73736954946071 147.68454935628688,51.89674407450366 149.4871244635433,52.8152029018529 152.19098712445702,53.131392274051905 153.1952789699426,53.552977010869654 154.41845493559958,54.95323163794819 156.0150214591995,57.63325046132377 156.3755364806857,57.88920467509888 157.40557939914288,57.88920467509888" stroke="#4dd2ff" stroke-linecap="round" stroke-linejoin="round" stroke-width="0.5"><title>2023-05-26 6.2km</title></polyline><polyline fill="none" points="161.5,48.76113778724539 162.5322496748704,49.23739935003687 164.11222366709262,49.385204068457824 164.25968790636398,49.574065243483346 165.95903771129088,49.401626797553035 166.23992197657935,49.67260132631054 167.3564369310916,49.565853897613124 167.18790637192433,49.68902399462968 167.42665799739189,49.98463143000117 167.78478543562233,49.779348608215514 168.12184655395686,49.787559931501164 168.3886866059911,49.79577125392825 168.5501950585167,49.96820882424072 169.0979193757812,50.13243472552858 169.89843953188392,50.13243472552858 170.12314694406814,49.90251836641983 170.10208062417223,49.147074105807405 170.21443433032255,48.83504063509463 170.7762028608704,48.31771922245389 171.2817945383431,48.27666181977838 172.50364109230577,48.49016007643513 173.80975292588118,48.35877660338883 174.6804941482842,48.05495147014153 176.52028608584078,47.08598769493983 179.28699609884643,46.69182947761874 181.44278283487074,45.64894287267816 181.70962288687588,45.139812037785305 181.4989596879168,44.02299721694726 181.0635890767153,43.23464766665711 180.6703511053347,42.14244182665425 179.92600780233624,41.690773264475865 180.03133940181579,41.403346446975775 180.8529258777562,41.86322884393303 181.59726918075467,41.871441004834196 182.19414824448177,42.07674474464875 184.37802340701455,44.48286408960121 184.75019505852833,44.655313464325445 185.0591677503253,44.56498288724106 185.73328998702345,43.86697033744713 186.5057217165304,42.70086477819859 187.67841352405958,41.493680704341386 188.5,39.27635490677494 187.98738621588564,40.7545791453158 187.48179453835473,41.75647067325917 186.5267880364263,42.63516816894844 185.72626788038178,43.83412253339338 185.01703511056257,44.58140663636732 184.69401820545318,44.655313464325445 184.0901170351135,44.23650717529381 182.1871261378401,42.06853260547359 181.5691807542171,41.86322884393303 180.8318595578603,41.83859235602722 180.06644993499503,41.37049760004447 180.01027308194898,41.551166086086596 180.6703511053347,42.18350247469061 181.47087126137922,44.03942108074989 181.68855656695087,45.148023851943435 181.27425227567437,45.78854267943825 179.6591677503311,46.57686628717056 178.43029908972676,46.85606231143174 178.12834850454237,46.782157579225895 177.04694408320938,46.92996697326453 176.2394018205814,47.151680536531785 175.0456436930981,47.866086598689435 175.08777633288992,48.2356043954278 173.76762028608937,48.73650348899537 173.2058517555124,48.83504063509463 172.37724317298853,48.79398350609699 172.2648894668382,48.88430916121433 170.958777633321,48.73650348899537 170.7762028608704,48.933577656091074 170.67087126139086,49.91072967670334 170.41807542263996,50.53478671524499 169.7439531859418,50.72364509322506 168.50806241872488,50.40340670302976" stroke="#4dd2ff" stroke-linecap="round" stroke-linejoin="round" stroke-width="0.5"><title>2023-05-21 9.9km</title></polyline><polyline fill="none" points="38.5,83.62927641313581 37.819327731151134,83.97040065689362 36.49039615847869,84.0083033105766 34.88595438183984,83.55347093744786 34.61044417775702,84.0083033105766 33.63805522210896,83.97040065689362 31.563625450246036,82.87122021231335 30.33193277317332,82.98492884694133 29.181272509042174,82.22686991936644 25.61584633856546,82.47323942270305 24.546218487492297,82.32162746074027 23.91416566632688,82.8333173180581 19.95978391362587,84.36837812034355 19.295318127260543,83.91354666140978 19.003601440635975,82.54904535558308 15.956782713124994,78.87242065853206 15.454381752759218,78.51233480090741 11.87274909968255,78.07644042580796 15.794717887183651,78.70185376358859 19.100840336235706,82.79541441582842 19.279111644718796,84.04620595621236 19.92737094842596,84.36837812034355 23.735894357727375,82.96597741283767 23.995198079268448,82.53009387537895 22.6338535414543,82.41638495202642 21.402160864439793,81.86679080491012 20.672869147732854,82.1321123278467 20.251500600308646,83.06073456327431 20.89975990401581,83.38290849972691 20.494597839191556,83.72403321265301 20.672869147732854,84.06515727605438 20.23529411770869,84.3494268325885 19.700480192201212,84.23571906406141 19.3115246098605,84.02725463436218 19.246698679518886,83.06073456327431 18.857743097294588,82.37848196148116 18.063625450246036,81.71517832971585 17.10744297725614,80.12323959208152 15.648859543842264,78.53128670626029 12.456182472989894,78.11434432661918 15.584033613500651,78.53128670626029 18.938775510236155,82.49219090890256 19.392557022860274,83.66717913896719 18.857743097294588,83.38290849972691 17.156062425056007,80.16114305978408 15.697478991583921,78.58814241003711 11.5,78.05748847240466 11.807923169340938,75.631621879671 15.827130852325354,75.74533511018672 16.605042016890366,76.18123515821935" stroke="#4dd2ff" stroke-linecap="round" stroke-linejoin="round" stroke-width="0.5"><title>2023-05-19 5.4km</title></polyline><polyline fill="none" points="41.5,79.7164661706338 44.150375939847436,79.75603090957884 48.424812030105386,81.04847214277834 49.96992481203051,81.33861016987794 59.20676691731205,81.21991742223327 61.71052631578641,81.81338003047858 62.860902255633846,81.39136246587441 63.30075187975308,78.8328503964658 63.59398496244103,78.58227164897107 65.6917293232982,78.8592270774243 65.86090225563385,78.661401834157 67.80075187975308,78.63502511137631 68.46616541355615,78.43719951230014 68.5,78.18661996951414 67.30451127822744,78.70096690794162 65.87218045117334,78.6877785514007 65.64661654137308,78.8328503964658 63.56015037599718,78.60864838293492 63.24436090228846,78.93835708684492 62.81578947370872,81.41773860555986 61.82330827071564,81.76062791306322 59.01503759401385,81.16716505365912 50.5676691729459,81.36498632068106 48.27819548873231,80.96934347275965 44.060150375938974,79.7164661706338 41.91729323309846,79.78240739519242" stroke="#4dd2ff" stroke-linecap="round" stroke-linejoin="round" stroke-width="0.5"><title>2023-05-17 5.0km</title></polyline><polyline fill="none" points="74.25912408763543,82.45126765682653 75.11015262111323,82.92265003185457 75.57597876578802,82.72362219164643 76.93762441939907,82.92265003185457 77.32282680826029,82.67124637778761 77.35865958861541,82.35699091257266 79.29362972796662,82.27318928674504 83.19940278702416,82.22081323460588 85.25082946254406,82.6502960444268 85.98540145991137,82.4093668926871 86.30789648310747,80.51333876167337 86.59455872600665,80.10479755939014 87.47246184473624,80.26192899051966 88.35932315862738,80.16765016175486 89.63138686132152,80.29335524681665 92.10384870605776,79.42389180975442 94.11944260122254,78.38681097867811 96.10816191107733,78.2506278404544 98.01625746523496,77.69541772310185 98.5,77.47542794749461 98.32979429332772,77.55923363391776 98.23125414730748,77.07734996814543 97.99834107497009,77.27638915788702 97.0935633709887,77.52780650982459 93.6088254810893,78.02016364139126 91.2976111479802,79.25628352245258 89.92700729926582,79.68577919066593 88.49369608494453,79.79053394906805 86.97080291970633,79.53912234269228 86.36164565366926,79.58102432142914 85.60019907105016,80.25145356955181 85.40311877906788,81.83322958769713 84.18480424687732,82.03225921748526 84.2385534173809,81.91703158582823 83.87126741878456,81.70752645747416 83.61147976113716,81.14186039681226 83.11877903121058,80.92187827832822 82.50066357001197,81.06853307828715 82.09754479100229,81.64467483254703 81.45255474455189,81.74942751861818 80.91506303916685,81.75990278113022 80.65527538151946,81.59229844793299 78.63968148641288,81.6341995578332 78.45155938953394,81.17328637385071 78.34406104846857,81.17328637385071 75.60285335103981,81.72847699025442 73.80225613806397,81.3827926325248 71.52687458531,80.56571571694076 71.5,80.38763395587011 71.92999336431967,80.30383066334616" stroke="#4dd2ff" stroke-linecap="round" stroke-linejoin="round" stroke-width="0.5"><title>2023-05-14 6.3km</title></polyline><polyline fill="none" points="101.8776937618386,85.75332964488916 102.20434782613302,83.73616817298898 101.5,83.4735764533907 101.89810964080971,83.39002441448247 102.01039697544184,83.18711206242006 102.21455576561857,81.27733087239903 102.08185255201533,81.15796847490856 102.43913043482462,81.16990472034377 102.63308128545759,77.25474850706087 102.78620037809014,76.93245825514168 105.1544423440937,77.09957183402003 107.6962192817009,78.0186920937631 107.92079395084875,77.95900918731786 108.17599243862787,77.46960816358478 110.1461247637053,77.91126283940685 111.25879017013358,77.98288235368818 118.64933837432181,77.83964327967988 120.87466918717837,78.34097924314847 121.77296786388615,78.0186920937631 122.15066162572475,75.76265627289831 122.39565217396012,75.48810915247304 124.34536862006644,75.63135121169762 126.13175803405466,75.54779336594947 128.5,74.72414843213483 128.2856332703377,74.24667035511811 126.92797731567407,74.80770688786288 125.83572778827511,75.03450809862261 124.47807183366967,75.08225566385227 122.27315689984243,74.80770688786288 121.34423440456158,75.54779336594947 121.1502835538704,76.1088234290437 121.28298676747363,76.56242016401666 121.09924385638442,77.33830508879328 120.12948960304493,77.5770378384259 119.08827977319015,77.29055847824202 118.7207939508371,76.9921417045698 117.83270321367308,76.9921417045698 117.42438563331962,77.24281184745632 116.47504725895124,77.32636843804357 115.5665406427579,77.15925519503071 114.01493383746129,77.23087518662214 112.3408317581052,77.06376180223015 111.18733459356008,77.23087518662214 110.50340264651459,77.05182512245665 109.58468809071928,77.23087518662214 108.16578449908411,76.93245825514168 107.71663516073022,76.52660996173654 107.68601134215714,75.96558197597915 107.26748582231812,75.9417083828157 107.81871455581859,76.06107629822509" stroke="#4dd2ff" stroke-linecap="round" stroke-linejoin="round" stroke-width="0.5"><title>2023-05-12 6.0km</title></polyline><polyline fill="none" points="138.55365607858403,93.35563351665041 138.8287759810337,93.3445283943147 138.09828520554584,92.94474320396694 138.30699685565196,93.00026901623642 138.44930025353096,92.80037595404428 138.38289200118743,93.31121302016254 138.55365607858403,93.20016169633163 139.19876481534448,93.5 139.749004620302,93.47778978475253 139.91028180450667,92.70042927964096 139.8343866590294,91.43442980173131 140.21386238653213,90.9013728042919 140.18540170695633,90.623737875183 142.50969053810695,88.8690680706859 143.211720634019,88.18051871030184 144.0370803414262,87.02552250371082 144.65372839861084,85.19305041840562 144.86244004877517,81.25035006396502 145.05217791249743,81.05043453563121 145.0426910193637,80.12859687567834 145.45062742644222,78.81801849725889 146.674436647736,76.76326508170314 148.80898761510616,74.7528996740075 149.64383421564708,73.44225388984341 150.57354974810733,69.15477234565333 151.90171479451237,66.5 150.61149732087506,69.0103722370186 149.86203275900334,72.5981004455316 149.4540963518666,73.77547047781991 148.60027596494183,74.98614847219869 147.16775509354193,76.20791938700859 146.29496092023328,77.2519668523164 145.5265225719195,78.56256486586062 145.1280730580329,79.89535955263273 145.02371723297983,80.47289863955666 145.13755995122483,81.10596666519996 146.26650024065748,81.03932810619153 147.61363907332998,81.18371159697563 148.32515606249217,81.02822167558043 149.26435848808615,81.19481801109214 149.95690169086447,81.10596666519996 150.250995379698,81.26145647095836 150.37432499113493,81.77234991874866 150.24150848650606,82.28324086971406 148.34412984887604,84.04912731822697 147.9931148008909,84.65996159899805 147.8508114030701,85.55954740497691 148.17336577142123,86.85893545950239 144.86244004877517,91.22342839852354 143.42991917737527,92.82258631316654 143.20223374082707,92.82258631316654 140.232836172916,90.84584587741847 139.85336044535507,91.51216705346451 139.98617694998393,92.58937730717298" stroke="#4dd2ff" stroke-linecap="round" stroke-linejoin="round" stroke-width="0.5"><title>2023-05-09 7.6km</title></polyline><polyline fill="none" points="173.94451972824754,93.5 174.1483366083121,91.5253742155619 173.81349459115881,90.45293799169303 171.9354676247458,89.8571370018326 168.38323057221714,89.38049462188792 168.29588048078585,88.54636706043675 168.54337240656605,86.62275028511067 170.01376561279176,86.65679679957975 169.54789845831692,86.55465723454836 169.4023149725981,85.26088379997236 169.05291460675653,85.58432813371473 168.52881405805238,85.22683699020126 168.57248910376802,74.92734635573288 168.76174763520248,74.43363520609273 168.29588048078585,74.67197870883683 167.6844298405922,74.33148788248945 168.6743975437712,72.54389922301925 168.73263093811693,71.33513754123123 169.30040653253673,71.04571438264975 169.54789845831692,74.2293404940574 169.09658965247218,75.60832476618816 169.21305644110544,76.93622437746671 169.38775662396802,77.22563694084238 170.49419111578027,77.1064671248314 171.25122524169274,76.4765680598357 170.82903313299175,73.9739717393677 171.51327551610302,72.95249266753672 171.4550421217573,72.45877545815893 170.9600582701969,72.56092397061002 169.95553221844602,72.0672055597388 170.29037423571572,71.55646078179416 170.93094157305313,71.57348563388223 171.7898841390852,71.99910634967091 172.1101678077248,71.8118333734601 172.22663459635805,72.01613115487271 173.20204395084875,69.58156571917061 173.10013551090378,68.11740373156499 172.69250175071647,66.90860879354295 172.357659733505,66.5 171.6006256075343,66.89158344782481 171.2803419388947,67.55557059420971 171.71709239616757,67.04481149405183 171.58606725896243,67.72582326723204 171.87723423045827,68.16847937401326 172.21207624772796,68.25360540873953 172.69250175071647,67.79392428601568 172.98366872227052,67.87905051896814 173.18748560227687,68.71328521810938 173.10013551090378,70.0412417344487 172.1101678077248,71.98208154267923 169.50422341265948,74.34851244089077 169.12570634967415,75.55725148538477 169.34408157825237,77.27670969208702 169.86818212707294,77.61719428631477 171.70253404753748,77.4469520792627 172.72161844791844,77.61719428631477 173.5660026653204,78.21304059261456 174.70155385421822,78.19601644303475 176.30297219753265,79.06424577436701 177.87527384376153,79.28555838404282 180.5103349359706,79.06424577436701 180.94708539324347,79.52389470030903 182.25733676512027,79.57496672208072 182.3155701594078,80.98795289857662 182.02440318791196,82.14557088144647 181.7332362163579,82.07747593650129 181.45662759343395,82.67330572784704 181.67500282207038,83.71174666276784 181.15090227330802,86.35037791002833" stroke="#4dd2ff" stroke-linecap="round" stroke-linejoin="round" stroke-width="0.5"><title>2023-05-06 6.0km</title></polyline><polyline fill="none" points="18.542842030525208,128.488835180382 18.237629246141296,128.310197905339 18.580993628595024,128.01991168599488 19.32494979049079,128.5 19.630162574874703,128.4665055376172 19.763693168060854,127.69612995725038 19.64923837390961,126.55730354105617 20.040292253892403,125.89856498214795 19.99260275636334,125.68642795733467 22.319850237166975,123.93348984222393 23.769610963005107,122.19168798450846 24.48495342634851,120.19304644649674 24.704325115133543,116.15098483863403 24.904621004825458,115.91649583106482 24.84739360777894,115.3581865644228 25.209833789267577,113.99589950602967 26.20177533844253,112.17576710690628 28.67209131200798,109.69676306987094 29.61634336365387,108.08872917995177 30.43660272168927,104.13554125385417 31.762370753800496,101.5 30.407989023136906,104.202545678163 29.66403286124114,107.86538919340092 29.311130579328164,108.7252455372145 28.452719623222947,109.94243274722248 26.211313238018192,112.11993432638701 25.25752328679664,113.83957035341882 24.84739360777894,115.34702034883958 24.971386301447637,115.73783718843333 24.694787215674296,116.26264608688507 24.55171872297069,119.85807487252896 23.864989958063234,122.04653652687557 23.378557083022315,122.81695351059898 22.50107032788219,123.76601014851622 20.049830153409857,125.67526283892221 19.71600367053179,125.55244645797211" stroke="#4dd2ff" stroke-linecap="round" stroke-linejoin="round" stroke-width="0.5"><title>2023-05-04 6.1km</title></polyline><polyline fill="none" points="42.320330082497094,120.08631591555604 42.59377344336826,117.04291295647272 42.67479369841749,116.8297532289871 42.89759939984651,116.80606878973776 42.68492123024771,116.71133098277642 42.63428357086377,116.24948302568373 42.90772693173494,112.7085853888857 43.140660165052395,112.56647344709927 43.991372843214776,112.73227069498535 45.287696924235206,112.7085853888857 47.039759940002114,113.34808689445344 47.79932483116863,113.45467012354493 48.052513128262945,112.00986660464696 47.88034508621786,111.59537034973619 47.12078019505134,111.61905589134403 46.746061515354086,111.21640100210789 45.62190547637874,111.27561504726327 45.19654913729755,111.08612999255274 44.66991747939028,111.28745785251522 43.981245311384555,111.28745785251522 42.69504876219435,110.62425882802927 42.08739684917964,110.74268751341151 41.5,110.4939871293609 41.51012753188843,110.99138734491862 42.148162040510215,111.09797281785723 42.25956489122473,110.64794457514654 42.745686421578284,110.68347318637097 43.859714928781614,111.28745785251522 44.76106526632793,111.45325699471869 45.35858964745421,111.29930065650842 45.71305326325819,111.66642695957125 48.41710427607177,112.62568677810486 49.68304576142691,112.89806769731513 50.047636909235734,112.94543822430569 50.58439609903144,112.69674273396959 51.35408852214459,112.89806769731513 52.31620405102149,112.69674273396959 52.792198049486615,112.80332658316911 53.19729932479095,112.63752944052976 53.65303825959563,112.83885451038077 55.80007501877844,112.7677986447161 56.48874718678417,112.98096610642096 57.521755438880064,112.89806769731513 57.90660165040754,112.62568677810486 58.828207051730715,112.62568677810486 59.14216054009739,112.90991033095634 60.30682670668466,113.18229055862321 61.20817704428919,113.00465135485865 61.36009002249921,112.12829382420023 61.22843210800784,111.79669729382294 61.420855213771574,111.24008662391861 62.3222055513761,110.45845845794975 65.63390847714618,110.70715892095905 67.04163540888112,110.4347726707565 68.27719429857098,109.91368408445123 68.5,110.35187237609352 67.50750187551603,110.8255875186369 65.76556639163755,111.25192943293223 64.3578394599026,111.32298626079864 62.45386346586747,111.14534410658234 62.18042010505451,111.50062813310069 62.08927231805865,112.69674273396959 61.825956489134114,113.64415116920281 60.83345836465014,113.98758474692295 58.71680420107441,113.47835527179996 51.171792948269285,113.6323086132179 49.41972993250238,113.37177206525666" stroke="#4dd2ff" stroke-linecap="round" stroke-linejoin="round" stroke-width="0.5"><title>2023-04-26 7.0km</title></polyline><polyline fill="none" points="71.5,117.8816031635215 71.878151260491,117.10041524880216 71.70168067223858,116.5550550519838 71.73949579824694,114.68312678759685 71.878151260491,114.25567507422238 72.16806722682668,114.10827762763074 75.67226890753955,114.4325518043479 77.71428571426077,115.2874528344546 78.30672268901253,115.22849431114446 79.31512605038006,115.52328667828988 79.79411764704855,115.86229712955537 80.23529411759228,115.75912012303888 81.00420168059645,116.02443227119511 82.99579831928713,115.89177626025048 83.89075630251318,116.45187855842232 84.57142857142026,116.18656722415471 85.39075630245497,116.45187855842232 86.10924369742861,116.30448343507305 86.6890756302164,115.92125538468827 87.19327731087105,116.36344150311197 88.54201680672122,116.15708815582911 89.13445378147298,116.2897439141816 90.88655462185852,115.52328667828988 91.63025210087653,115.59698467268026 92.91596638655756,116.11286954164098 93.30672268907074,115.62646385945845 94.20168067223858,115.75912012303888 95.3991596638225,115.31693208677461 95.66386554623023,114.594688609679 95.85294117644662,112.6932542064169 96.09243697475176,112.31001622333133 96.68487394956173,112.11839683649305 97.56722689070739,112.38371591737086 98.5,112.38371591737086 96.5210084033315,112.13313679870043 96.07983193278778,112.28053633484524 95.81512605038006,112.61955467615917 95.3991596638225,115.3464113328373 94.10084033611929,115.78859927556186 91.22689075628296,115.11057718961092 81.2436974789598,115.2874528344546 79.79411764704855,115.05161859143118 74.65126050414983,113.50394646626955 72.39495798316784,113.57764552872686 74.57563025207492,113.71030374293332 74.72689075628296,113.5629057193728 75.10504201677395,113.72504353668774" stroke="#4dd2ff" stroke-linecap="round" stroke-linejoin="round" stroke-width="0.5"><title>2023-04-20 5.0km</title></polyline><polyline fill="none" points="107.68024633004097,127.61733862921392 107.81818138668314,128.3815946527684 107.68944200052647,128.06943443788623 107.78139870491577,128.23089673802315 108.79292245325632,128.5 109.45501072495244,128.16631184885046 109.79525053116959,127.35899726173375 109.89640290598618,127.31594030313136 110.0803163148812,127.60657441870717 110.48492581414757,127.57428178036207 110.7516002569464,127.0575981674483 110.64125221164431,125.65823348906997 111.02747037011432,125.00160186468565 110.92631799523951,124.84013442014111 113.73099747934612,122.60109267281223 114.65976019378286,121.36313970170158 115.30345712450799,119.31779296459717 115.45978352200473,115.96979421174183 115.53334888553945,115.54994090312539 115.70806662383256,115.44228592836589 115.59771857858868,115.02243043397175 115.88278436224209,113.82744758134504 116.9402864627773,111.84654405961192 117.72191845014459,110.92067369736469 119.11966035695514,109.67181189817347 119.94727069651708,108.49829841942119 120.27831483236514,107.7015934482406 121.11512084235437,103.72874135125312 122.31975366995903,101.5 121.04155547881965,104.12711024314922 120.34268452547258,107.51856574551493 119.98405337834265,108.50906465992011 118.86218158470001,110.00556095527281 117.08741718978854,111.63122612574807 115.98393673705868,113.62289955424785 115.66208827169612,114.94707157133962 115.71726229431806,115.54994090312539 115.51495754462667,115.81907783957286 115.30345712450799,119.70533551624976 114.68734720506473,121.41696405835683 113.28040962782688,123.13932837834 111.0366660405416,124.8508989244292 111.07344872230897,125.03389532274014 110.80677427956834,125.4752382180668" stroke="#4dd2ff" stroke-linecap="round" stroke-linejoin="round" stroke-width="0.5"><title>2023-04-17 6.5km</title></polyline><polyline fill="none" points="131.65612952964148,121.04291408213612 131.5,120.9090397561813 131.5,120.54392716650182 132.16615265997825,112.21904578707472 132.3430994602968,111.64699234809086 133.13415574398823,111.86607697993895 133.5817270624102,111.73219197671278 134.63299922895385,111.8173915422376 136.6939090208034,112.52332837243739 137.02698535082163,112.42595803266886 138.42174248263473,112.94932263994997 138.5154202004196,113.27794571151753 138.9942174248281,113.41182891603967 139.66037008480635,113.15623357223376 141.1383962991531,113.37531533026777 141.47147262917133,113.2049184433854 142.06476484192535,113.58222549646598 142.80377794912783,113.47268486661778 143.8966846569092,113.6552525251318 144.55242868157802,113.33880173288344 144.52120277564973,113.10754868046206 144.75019275245722,113.09537745429407 144.9375481880852,113.54571196476172 145.54124903620686,113.59439667114202 146.11372397840023,113.42400010871643 146.69660755590303,113.5700543205312 147.42521202773787,113.18057601037435 147.4668465689174,113.53354078494885 147.64379336923594,113.6552525251318 148.12259059364442,113.54571196476172 148.44525828835322,112.94932263994997 149.88164996140404,113.47268486661778 149.8712413260946,113.11971990532766 150.7455666923197,113.15623357223376 151.71356977632968,112.77892512220569 152.09868928289507,110.44201941575011 152.37972243636614,110.17424593916076 152.7544333075639,110.0525305164847 154.24286815722007,110.36899034756061 154.56553585192887,110.23510360217915 155.94988434843253,110.32030427637801 156.8138010793482,110.13773132586357 158.5,109.41960824286798 158.26060138782486,108.95708591787115 156.87625289120479,109.49263791366684 155.33577486500144,109.74824139646807 152.1715497301193,109.45612308406999 151.21395528136054,110.28378970943595 151.04741711640963,110.89236431183963 151.21395528136054,111.25750752806925 150.98496530449484,112.09733252763544 149.88164996140404,112.29207368096831 149.32999228988774,112.18253182278568 148.64302235929063,111.72002060507657 147.60215882805642,111.69567785789695 147.18581341556273,111.96344779351784 146.2698535080999,112.06081852467469 145.520431765588,111.87824833615741 143.12644564377842,111.90259104466531 142.94949884345988,111.4279072990903 143.0535851965542,111.35487885670591 144.34425597533118,111.29402178597957 144.94795682345284,111.76870608396712 144.85427910560975,111.86607697993895 142.60601387813222,111.87824833615741 142.6372397840605,111.54962126672035 142.46029298374197,111.44007870163477 139.420971472573,111.98779048401047 137.71395528141875,111.64699234809086 134.75790285272524,110.50287693716382 134.36237471085042,110.5150484375772 134.21665381646017,110.35681883169309 134.6538164995727,110.14990286490502 135.11179645336233,110.36899034756061 136.25674633769086,110.30813275534456 136.56900539703202,110.67327782582288 136.81881264451658,110.67327782582288" stroke="#4dd2ff" stroke-linecap="round" stroke-linejoin="round" stroke-width="0.5"><title>2023-04-07 7.0km</title></polyline><polyline fill="none" points="161.5,118.14113639922289 161.5953689168091,115.78687245862238 161.8496860283194,114.58494051747402 164.24450549454195,114.82037145666254 166.70290423865663,115.51427041934949 166.91483516484732,115.05580192259367 169.6063579277834,115.65057151829387 177.7551020408282,115.51427041934949 180.57378335949033,116.08425577785965 181.54866562003735,115.78687245862238 181.93014128727373,113.49451736457559 182.2374411302735,113.11038860866392 184.13422291987808,113.30864876900887 184.5051020408282,113.17234494486911 185.85086342220893,113.2590837604148 188.5,112.34212731750449 188.34105180529878,111.85886360076984 185.5541601255536,112.68908465364075 184.3143642071518,112.71386728118523 182.05729984299978,112.39169271413994 181.10361067496706,113.2590837604148 180.8598901098594,115.10536617092293 179.86381475668168,115.29123191535473 179.14324960752856,115.16732145182323 178.28492935636314,114.65928718098439 177.34183673467487,114.68406939164561 176.98155416012742,114.94428228718607 176.0702511773561,115.00623765328783 175.47684458398726,115.00623765328783 175.19073783355998,114.82037145666254 172.97605965461116,114.89471797071747 172.75353218213422,114.79558927481412 172.54160125588533,114.3247268236446 169.11891679750988,114.95667336304905 167.30690737831173,114.63450496504811 164.08555729989894,113.44495243458368 161.74372056516586,113.56886472020415 161.68014128733194,112.71386728118523 162.72919937211554,113.2838662673239 164.33987441135105,113.37060500032385" stroke="#4dd2ff" stroke-linecap="round" stroke-linejoin="round" stroke-width="0.5"><title>2023-04-04 6.0km</title></polyline><polyline fill="none" points="14.64607657957822,160.88711611693725 31.927445167675614,161.9322701675119 37.73756046872586,144.68714353023097 23.435738189145923,138.06775403907523 13.156303425319493,149.73876498127356 12.709371479228139,159.84196140361018 18.66846409626305,162.97742355475202 34.162104898132384,160.19034638197627 36.992673891596496,146.60327762854286 25.372443289496005,137.54516952473205 12.709371479228139,151.48069981997833 13.603235371410847,161.9322701675119 33.864150268025696,161.5838855577167 37.290628522634506,145.38391982403118 25.670397920534015,137.19677975727245 18.66846409626305,142.4226185400039 12.709371479228139,150.95811956189573 12.560394163243473,160.71292371093296 29.394830805249512,163.5 34.60903684515506,161.23550087457988 37.14165120664984,145.38391982403118 25.22346597351134,137.19677975727245 13.156303425319493,150.43553913745563 12.560394163243473,161.06130850501359 27.011193758808076,162.80323136947118 33.566195636987686,160.88711611693725 37.290628522634506,144.51294941047672 24.32960208132863,136.84838991542347 13.007326110266149,150.60973263089545 13.156303425319493,161.40969322540332 22.243919665925205,162.80323136947118 34.60903684515506,160.53873128595296 37.290628522634506,145.20972577808425 24.32960208132863,136.5 12.858348795212805,150.60973263089545 13.30528074130416,161.5838855577167 31.033581275492907,162.4548469443107 34.31108221411705,160.71292371093296 37.14165120664984,144.33875527279451 25.074488658457994,136.84838991542347 13.454258056357503,149.73876498127356 12.262439532205462,160.71292371093296 33.566195636987686,161.40969322540332 36.54574194550514,144.86133763124235 25.372443289496005,137.19677975727245 18.07255483418703,142.4226185400039 13.156303425319493,150.60973263089545 13.007326110266149,161.5838855577167 29.096876174211502,162.80323136947118 33.864150268025696,160.71292371093296 36.694719260558486,144.33875527279451 24.776534027419984,137.02258484519552 15.390963156707585,146.0806958230678 12.262439532205462,160.88711611693725 17.327668257057667,162.97742355475202 33.71517295297235,161.5838855577167 37.14165120664984,145.73230785992928 25.968352551572025,137.19677975727245 18.66846409626305,142.59681288083084 12.709371479228139,151.30650641873945 12.262439532205462,160.88711611693725 15.688917787745595,162.62903916602954" stroke="#4dd2ff" stroke-linecap="round" stroke-linejoin="round" stroke-width="0.5"><title>2023-03-30 5.2km</title></polyline><polyline fill="none" points="68.23615635174792,160.57071329683822 68.5,158.3817920731235 66.77873429498868,157.80884726480872 63.60004653321812,157.3681188809569 63.41158678452484,157.19182713582995 63.57491856679553,154.92939654539805 64.37901349464664,154.75310170493321 64.99464867380448,148.87647896647104 64.7182410423411,148.74425209438778 64.45439739414724,148.96463014456094 63.587482550006825,148.90586269872438 63.801070265239105,148.86178709802334 63.60004653321812,148.67079266661312 60.60981852019904,149.4200770068419 59.391112145152874,149.39069338337868 58.66240111680236,148.72956021194113 57.72010237321956,146.9224468174798 56.08678455097834,145.55607717535167 55.634481153974775,145.45323160446424 55.4083294555312,145.0712331028917 52.97091670543887,144.55700269137742 50.94811540248338,143.60199830347847 50.47068403905723,142.44129182041797 50.35760818980634,141.1777268973674 49.69171707768692,140.3108559395332 48.63634248485323,140.13454254005046 45.45765472308267,140.7222530010622 44.854583527194336,140.57532561900734 43.53536528616678,139.56152244545228 42.907166123739444,139.42928670317633 41.5,139.5909081488353 43.17100977193331,139.47336529794848 44.62843182875076,140.41370531918074 45.45765472308267,140.707560269846 48.58608655189164,140.16392812218692 49.64146114472533,140.3255487127317 50.31991624011425,141.2071122587222 50.45812005584594,142.48536945905653 50.94811540248338,143.6166907283914 52.73220102372579,144.51292571035447 55.30781758954981,145.0124640094 55.67217310372507,145.4973082870565 56.08678455097834,145.57076939352555 57.20497905998491,146.40822326109628 57.92112610518234,147.26036411778477" stroke="#4dd2ff" stroke-linecap="round" stroke-linejoin="round" stroke-width="0.5"><title>2023-03-28 5.0km</title></polyline><polyline fill="none" points="74.21137640450615,152.67169145087973 74.45786516851513,150.2328367881928 74.31566011236282,149.82266020112002 74.0786516853259,149.67854372179863 72.99789325840538,149.95569062147842 72.9220505617559,149.74505904458783 71.5,149.4124820085126 71.57584269659128,149.06881796236848 73.12113764043897,149.46791158781707 76.72366573032923,149.47899750016222 80.0797050561523,150.49889641867776 81.91889044939307,150.8092984671457 89.1713483146159,150.67626913038112 91.50351123599103,151.15295680554846 92.30933988757897,150.8314700068513 92.6885533707682,148.82492666524922 92.96348314604256,148.48126069215505 94.75526685389923,148.69189480935165 94.87851123593282,148.53669076406368 96.38588483142667,148.59212080662837 98.5,147.82718362952437 98.38623595505487,147.32830854912027 96.86938202247256,147.91587228407298 95.71278089884436,148.10433542571263 94.47085674159462,148.08216330903088 93.02984550560359,147.8160975424471 92.66959269659128,147.91587228407298 91.92064606735948,148.53669076406368 91.73103932582308,149.05773200661497 91.77844101120718,149.58985655908327 91.35182584263384,149.6120283568016 91.0484550561523,149.95569062147842 91.03897471912205,150.2771801068593 90.74508426961256,150.42129576290608 90.0625,150.17740761347522 89.80653089884436,149.5565988537346 89.3135533707682,149.32379462063545 88.63096910109743,149.46791158781707 88.18539325840538,150.0887208729764 87.41748595505487,150.2106651218346 86.92450842692051,150.2106651218346 86.65905898873461,150.03329162205046 84.49754213483538,150.06654917612468 84.2984550561523,149.5565988537346 82.26966292131692,149.8780895634627" stroke="#4dd2ff" stroke-linecap="round" stroke-linejoin="round" stroke-width="0.5"><title>2023-03-26 5.6km</title></polyline><polyline fill="none" points="128.5,159.83452427935117 127.73162055335706,159.8470035949067 125.75731225300115,159.198077435889 125.49051383399637,159.3977474035346 124.47667984192958,159.37278867603163 122.21422924904618,159.75964835836203 121.17905138339847,159.75964835836203 120.60276679845992,159.3353505749037 119.81304347829428,157.65062372710236 118.3936758893542,156.50249979241926 118.00948616600363,156.40266240036726 117.81739130435744,156.05323086282442 115.78972332016565,155.6663590244425 114.05019762844313,154.80525263519667 113.62332015804714,153.83182045112335 113.52727272722404,152.78349988345872 113.02569169958588,152.04717391396116 112.00118577078683,151.87245182265906 109.39723320154008,152.346696896886 108.79960474307882,152.23437586741784 106.80395256914198,150.74923219800257 106.93201581027824,150.16265769769234 106.1636363636353,148.46531930426863 105.9501976284082,148.3405140465038 105.93952569167595,147.82881110863673 105.5980237153708,147.42943166321493 105.52332015812863,146.94268613539316 105.3632411067374,146.71803367571556 104.77628458495019,146.51834224115737 104.42411067191279,145.95670826850255 104.31739130435744,145.7320539305365 104.71225296438206,145.53236082632066 102.6312252964708,142.36218750022817 101.5,140.1280377779549 102.50316205533454,142.16248868918774 105.25652173912385,146.45593859849032 105.17114624503301,146.65563013874635 105.90750988142099,147.75392756566725 105.89683794463053,148.40291669190628 106.18498023715802,148.55268290616368 106.9426877470105,150.23753971124097 106.76126482215477,150.69931107752927 107.12411067192443,150.8490743755683 107.40158102766145,151.26092246470216 108.77826086961431,152.19693550052034 109.27984189719427,152.30925656558975 111.99051383399637,151.87245182265906 112.99367588933092,152.09709446394118 113.49525691696908,152.69613941557327 113.56996047426946,153.70702087211976 114.03952569171088,154.80525263519667 115.53359683795134,155.5914804575441 117.80671936762519,156.06571057840483 118.09486166003626,156.4775404523316 118.34031620551832,156.4775404523316 119.81304347829428,157.65062372710236 120.61343873519218,159.21055681878352 121.18972332013072,159.77212768181926 122.01146245060954,159.8470035949067 123.99644268775592,159.36030931032292 124.5407114624395,159.6722930570977 124.8501976284897,159.3977474035346 125.47984189726412,159.37278867603163 125.63992094859714,159.1606392793401 127.51818181818817,159.8719622220524 128.20118577074027,159.80956564432563" stroke="#4dd2ff" stroke-linecap="round" stroke-linejoin="round" stroke-width="0.5"><title>2023-03-18 7.0km</title></polyline><polyline fill="none" points="131.5,150.97711123689805 133.26145868183812,150.92429646325763 136.65791234525386,151.91720953320328 138.10321177652804,152.17071767090965 145.16711274674162,152.07565219468233 147.38022750086384,152.58266702196124 148.22934091673233,152.19184331998986 148.53646704583662,150.36445814526815 148.78036132489797,150.03700408920122 151.55352960858727,150.13207150643575 152.85429909673985,149.8785581926859 154.16410170629388,149.36096651169646 154.02860488463193,148.89618802191399 155.75393108068965,147.91380818530888 158.3735362997977,147.41733297803876 158.5,147.50183957065747 156.84693877556128,147.59690940181463 155.7268317163107,147.8926816310268 153.3872532619862,149.1919564021082 152.2671462027356,149.51941322961648 150.87604550016113,149.63560732961923 148.8797256607795,149.32927713794925 148.56356641015736,149.4032189944046 147.81381733022863,150.11094542153296 147.65122114418773,150.62853321467992 147.77768484444823,150.92429646325763 147.68735362996813,151.53694611981336 147.43442622950533,151.76932948896865 146.56724657077575,151.84326953845448 145.46520575444447,150.8186668321723 144.67932418873534,150.90317054597108 144.254767480772,150.5651552617128 143.90247574442765,150.50177726850234 143.5682502509444,150.61797022529936 143.16175978590036,151.10386657959316 142.92689862829866,151.12499245441722 142.48427567747422,151.49469454003702 141.75259284040658,151.53694611981336 141.59902977582533,151.01936303566617 139.02459016395733,151.29399929198553" stroke="#4dd2ff" stroke-linecap="round" stroke-linejoin="round" stroke-width="0.5"><title>2023-03-14 5.6km</title></polyline><polyline fill="none" points="186.14631336409366,155.06227321514598 185.23387096775696,154.941026453831 183.5023041474633,154.37116495756345 182.25806451612152,154.71065725394874 181.99884792632656,154.49241232172062 179.8525345622329,155.00164985052834 179.18894009216456,154.9652758163429 178.50460829492658,154.39541444063798 177.56105990783544,152.576688970119 176.4827188940253,151.37631434855575 175.75691244238988,151.0974376366139 173.42396313365316,150.78218488424318 172.16935483872658,150.10317601048882 171.67165898618987,149.03615393724613 171.51612903224304,147.8842439558066 171.10138248850126,147.38710028147761 170.2822580645443,147.22946890997264 167.35829493089113,147.66598602294107 165.9377880184329,146.73232239489153 163.99884792621015,146.7929501342005 163.83294930873672,145.7986511593408 163.80184331798228,146.81720122088882 162.17396313365316,146.92633104764536 161.5,144.93772678485402 162.04953917051898,146.73232239489153 162.31912442395696,146.9748331595183 165.55414746538736,146.70807129020977 166.0,146.81720122088882 166.9850230414304,147.53260597040935 167.56566820282023,147.6781114745536 170.37557603686582,147.2779708935268 171.14285714289872,147.48410409459757 171.5472350230557,148.00549818336003 171.66129032260505,149.03615393724613 172.08640552993165,150.05467522265099 173.4550691244076,150.83068536414066 175.7050691244076,151.2671887595061 176.01612903230125,151.69156546660815 176.36866359447595,151.76431560142373 177.71658986172406,152.83131227349804 178.53571428573923,154.383289699741 179.03341013827594,154.9652758163429 180.32949308759999,155.05014854476758 180.9101382488734,154.75915607137722 182.43433179729618,154.48028759106091 183.27419354842277,154.56516067862685 183.38824884791393,154.39541444063798 185.46198156685568,155.06227321514598 188.5,154.941026453831" stroke="#4dd2ff" stroke-linecap="round" stroke-linejoin="round" stroke-width="0.5"><title>2023-03-12 6.0km</title></polyline><polyline fill="none" points="37.33766816143179,189.8422628702392 34.092825112107676,189.03524634345376 33.95964125561295,189.24761958548333 33.19686098652892,188.99277165462263 32.71255605382612,189.459992490476 32.61569506727392,189.20514496405667 29.927802690595854,189.75731399131473 29.05605381168425,189.6582068977732 28.402242152485996,188.9786134219903 27.058295964146964,186.6141675637482 26.08968609868316,185.62307004812465 24.98789237672463,185.22662898656563 22.38475336326519,184.87266276065202 20.931838564982172,184.03729875516728 20.471748878946528,182.89043459239474 20.39910313906148,181.65860658008023 19.87847533635795,180.9648133971932 18.67982062784722,180.75242700980743 15.568161435017828,181.26215377321932 15.156502242200077,181.19135850552993 14.793273542600218,180.75242700980743 13.739910313975997,180.15774333167064 13.26771300449036,180.07278830478026 11.5,180.228539146221 13.618834080698434,180.12942499534984 15.120179372257553,181.10640413482906 18.752466367732268,180.70994969189633 19.79372197308112,180.93649523169734 20.386995515669696,181.78603759000544 20.471748878946528,182.81964018613508 20.907623318373226,183.9240286580025 22.49372197309276,184.80186940304702 25.15739910316188,185.3398979811609 25.47219730936922,185.75049728273007 25.895964125636965,185.80713157029822 27.50627802690724,187.1380304282502 28.43856502242852,188.99277165462263 29.140807174902875,189.62989057184313 30.133632287033834,189.72899768636853 31.24753363232594,189.36088517673488 31.441255605372135,189.60157423988858 32.216143497789744,189.21930317264923 34.032286995556206,189.0635627951997 36.46591928246198,189.92721169521974 38.5,189.77147214153956" stroke="#4dd2ff" stroke-linecap="round" stroke-linejoin="round" stroke-width="0.5"><title>2023-03-05 5.0km</title></polyline><polyline fill="none" points="66.29131886479445,184.90349162828352 66.44156928214943,185.3953352291137 67.98914858099306,185.09671607370547 68.33472454093862,186.15066363882215 68.27462437393842,186.6776349147258 64.26293823041487,187.78426915498858 61.66360601008637,188.99628867718275 59.15442404005444,190.71769251630758 57.39649415691383,187.95992470589408 56.28464106854517,187.028948170293 45.82721202005632,184.6751351760031 45.707011686172336,184.37651472634752 46.29298831394408,182.74287570998422 46.127712854824495,182.40911952660827 46.323038397415075,181.5483768020349 41.5,179.1242202699068 46.30801335565047,181.49567812307214 45.196160267165396,184.64000338624464 44.79048414027784,186.69520059518982 45.421535893226974,185.16697945266787 45.82721202005632,184.92105749629263 54.78213689487893,186.712766273733 56.93071786314249,187.69644130986126 58.82387312193168,190.87577973007865 62.760434056806844,188.4693247536925 64.48831385647645,187.73157245348557 68.5,186.6249378623179 67.98914858099306,184.32381694426294" stroke="#4dd2ff" stroke-linecap="round" stroke-linejoin="round" stroke-width="0.5"><title>2023-02-22 5.0km</title></polyline><polyline fill="none" points="71.5,188.12874665253912 71.66954474098748,185.10536588393006 71.90266875980888,184.6840689263845 74.31868131872034,184.80797995354078 77.0843799058348,185.83643641995877 78.02747252746485,185.89839134037175 78.45133437996265,186.18338355235028 78.8328100470826,186.05947398018907 80.64481946628075,186.33207486596802 81.1004709576373,186.2577292327478 81.76805337524274,186.55511148242658 82.3614599686116,186.4559841497612 83.63304552593036,186.61706602275808 84.48076923075132,186.13381973920332 84.51255886972649,186.3816385951941 84.85164835164323,186.53032965715101 85.36028257460566,186.56750239311077 85.80533751961775,186.3940295242428 86.67425431706943,186.54272057043272 87.29945054941345,185.9479552531193 87.65973312401911,185.88600035889976 89.50353218207601,186.3072929934351 89.64128728414653,186.46837507092278 89.71546310832491,186.02230108295043 90.57378335949033,186.0718649433329 91.52747252746485,185.78687245999754 91.84536891675089,184.57254888987518 91.91954474098748,183.46973392309883 92.34340659336885,183.06082236400107 93.31828885403229,183.25908269214415 96.1157770800055,183.2466914314573 98.5,182.31734314450296 98.23508634214522,181.87125334746815 97.06946624803822,182.32973450348072 95.5117739403504,182.66430070088973 94.49450549448375,182.68908334416483 92.12087912089191,182.37929992639693 91.09301412873901,183.18473510839976 90.89167974877637,183.80429686416028 90.97645211929921,184.2875527585711 90.2558869701461,184.53537552077614 90.07574568293057,185.10536588393006 89.73665620095562,185.25405856600264 89.1114599686116,185.15493013225932 88.38029827317223,184.6964600350184 87.38422291993629,184.6840689263845 86.97095761384116,184.94428193205385 85.60400313971331,185.03101947213872 85.31789638928603,184.83276214326906 82.10714285715949,184.86993541799893 81.50313971744617,184.78319775861746 81.20643642073264,184.51059326813993 79.065934065904,184.9690640928893 77.37048665620387,184.646895592683 74.21271585562499,183.4821251601752 72.60204081633128,183.2466914314573 75.65384615381481,183.22190890619822" stroke="#4dd2ff" stroke-linecap="round" stroke-linejoin="round" stroke-width="0.5"><title>2023-02-10 5.9km</title></polyline><polyline fill="none" points="107.7253582283738,190.25753993881517 107.76052974379854,186.54240058214054 108.97980894480133,186.5561097792379 111.00803300039843,187.07705819400144 112.12179765518522,186.748038386213 112.57902735559037,185.36340420709166 112.66109422489535,184.14326875731058 113.0128093790845,183.75940354353224 115.04103343462339,184.04730256048788 115.42792010417907,183.85536995358416 117.33890577504644,183.88278891483787 119.28506296133855,183.2658608835336 122.6966999565484,181.5521564968658 126.60073816758813,181.01747608963342 128.5,180.3045654479647 128.3944854537258,180.38682456834067 128.2069040381466,180.05778777354863 128.24207555357134,179.74246006119938 127.60898827615893,180.0989174186252 125.97937472863123,180.5102131509775 125.27594442031113,180.53763282003638 125.11181068170117,180.3319851605629 122.93117672600783,180.72957034109277 121.48914459394291,181.2642519363726 119.10920538421487,182.6215106928139 117.36235345201567,183.16989403692423 115.22861485014437,183.32069904965465 113.5286582717672,183.00537927738333 112.68454190186458,183.03279841842595 111.72318714711582,183.85536995358416 111.50043421622831,184.48600459452427 111.57077724701958,185.11663616649457 111.05492835427867,185.11663616649457 110.6797655231785,185.47307874100807 110.59769865387352,186.00774076450034 110.21081198437605,186.1859609488165 109.43703864526469,185.8980666831194 109.1556665218668,185.15776420589827 108.44051237514941,184.78761138136906 107.63156752061332,185.0206706904719 107.18606165866368,185.71984610287473 106.22470690403134,185.8980666831194 105.50955275719753,185.9117759483488 105.263352149399,185.70613681730174 101.67585757706547,185.67871824183385 101.5,185.52791597311443 101.75792444631224,185.22631090920186 103.68063395569334,185.08921746628766 103.90338688663905,185.78839250885358 104.85301780281588,185.71984610287473 105.63851498044096,185.2126015714457 106.36539296567207,185.26743891381193 106.7053842813475,184.8561582804832 107.1039947894169,184.8424489035824 107.74880590528483,185.5416252775467 108.61636995215667,185.50049735994253 109.13221884495579,185.92548521213757 110.19908814586233,186.21337941696402 111.3831958314986,186.04886852107302 111.6880156317493,185.04808940512885 111.72318714711582,185.9529037353932 111.31285280070733,186.28192556192516 109.81220147636486,186.07628701823705 109.4487624837202,185.9117759483488 109.0384281371953,185.06179876030365 106.78745115065249,184.40374807621993 106.22470690403134,184.54084224431426 104.82957012590487,185.67871824183385 104.12613981764298,185.6650089519535 103.76270082499832,185.1303455143934 104.09096830221824,184.92470514337765 104.66543638735311,184.92470514337765 105.14611376461107,185.34969488385832 106.31849761179183,185.26743891381193 106.84607034298824,184.8972864025709 107.33847155881813,185.29485757630027 107.77225358225405,185.00696133096062 108.5343030829099,184.8561582804832" stroke="#4dd2ff" stroke-linecap="round" stroke-linejoin="round" stroke-width="0.5"><title>2023-02-05 7.1km</title></polyline><polyline fill="none" points="131.82088285230566,189.21691905512853 132.0653650254535,187.01026523227483 132.24108658745536,186.94772764408845 133.50933786077076,187.15320811709535 133.9601018675603,187.08173670493125 135.1519524618052,187.59096919676085 135.66383701187442,187.64457243831566 135.90831918505137,186.58143512616516 135.7249575551541,186.2151410194565 135.19779286923585,186.22407504096918 134.9456706281926,185.97392208154633 133.52461799659068,186.09899865386978 132.67657045839587,185.95605398465705 132.2792869269906,185.652295759166 131.55348047538428,185.51828442998521 131.5,186.06326250925486 131.55348047538428,185.54508671282383 131.81324278438115,185.52721852519608 131.95076400681864,185.63442759423924 131.93548387094052,186.0096582639526 132.08064516127342,186.2419430811351 133.86842105264077,186.09899865386978 135.870118845487,186.9119918586366 137.1918505942449,187.22467946875986 138.00169779287535,187.0906706347596 138.5212224108691,187.2961507599539 139.06366723260726,187.2514812100344 139.69779286926496,187.37655589021597 141.23344651953084,187.13534026969864 142.4100169778976,187.28721685185155 143.07470288625336,187.22467946875986 143.27334465197055,187.03706704161596 144.02971137521672,187.0191991696629 144.297113752109,187.2514812100344 144.9312393888249,187.45696094397135 145.66468590832665,187.40335758332367 145.87860780983465,187.24254729722452 145.87096774191014,186.37595326194423 146.01612903227215,185.97392208154633 146.6120543293364,185.42000932007795 148.75891341257375,185.61655942551442 149.89728353137616,185.46467983875482 150.81409168080427,185.15198571179644 153.167232597596,183.97267172898137 155.7495755517739,183.68677494975418 158.0797962648503,182.632522210537 158.47707979622646,181.90883262654825 158.27843803050928,180.78308094487147 158.5,181.86416022673802 158.41595925294678,182.14112872449186 158.30135823428282,182.40916188957635 157.35398981321487,182.98096313144197 157.20118845498655,183.23112495720852 156.5976230899687,183.26686230038467 155.91765704582212,183.62423490027868 154.74108658742625,183.86546055019426 154.0764006790996,183.81185490975622 152.93039049234358,184.0173430132927 150.79881154498435,185.12518330416788 149.81324278435204,185.45574573692284 148.34634974534856,185.58975716532586 146.6960950763605,185.36640466647077 145.95500848896336,185.93818588398426 145.74872665535077,185.75950466939685 145.97792869264958,186.02752634949138 145.8556876060902,186.331283225285 145.94736842103885,186.67970888447599 145.80984719863045,186.83158628601814 145.86332767404383,187.13534026969864 145.69524617993739,187.34975418866088 144.98471986415097,187.45696094397135 144.12903225806076,187.13534026969864 144.06027164685656,186.99239735467563 143.30390492358129,187.00133129394817 142.98302207130473,187.19787771895062 142.34889643461793,187.2514812100344 141.9745331069571,187.2514812100344 141.7758913412399,187.11747241857665 140.156196943979,187.1621420393567 139.28522920203977,187.04600097615912 138.33786078097182,187.18894380047277 137.91765704582212,187.05493490977824 137.32173174872878,187.21574555311963 136.19100169779267,186.99239735467563 133.80730050933198,186.13473478337983 133.28013582344283,186.05432847073826 132.0730050933489,186.23300906152872 131.9202037351497,185.92031777954253 132.03480475384276,185.5986912530061 132.66893039047136,185.99179017464485 133.36417657043785,186.13473478337983 134.90747028859914,185.97392208154633 135.13667232598527,186.22407504096918 135.48811544990167,186.25087709978834" stroke="#4dd2ff" stroke-linecap="round" stroke-linejoin="round" stroke-width="0.5"><title>2022-12-15 10.0km</title></polyline><polyline fill="none" points="161.5,188.61970566848322 161.7384287454479,185.37982792990078 163.70341047504917,185.51442455674987 163.9582825821999,185.6874770698123 165.62728380024782,186.07203703012055 165.89037758830818,184.95680866199837 165.8246041412931,184.61070052367722 165.10931790500763,184.56262984468776 164.86266747870832,184.24536272544356 163.97472594396095,184.28381940491818 163.62941534712445,184.12037840463017 163.07034104751074,184.32227606815286 162.48660170525545,184.28381940491818 161.68909866016475,183.8223381767457 161.6068818514177,184.26459106719994 161.80420219246298,184.57224398251856 163.6458587089437,184.29343357226753 163.925395858736,184.62992878819932 165.98081607796485,185.34137171418115 167.37028014616226,185.6297929354114 168.11845310599892,185.46635435576172 168.77618757612072,185.67786304995388 170.3629719853925,185.6970910886448 171.23447015834972,185.64902098428138 171.59622411691817,185.48558243921434 172.90347137636854,185.67786304995388 173.55298416566802,185.6297929354114 173.857186358131,185.399056031667 174.6218026796414,185.399056031667 174.81912302071578,185.60095085445937 175.50152253347915,185.74516116758605 175.690621193673,185.947055221528 175.88794153471827,185.71631912327575 176.29080389768933,185.8028452287399 176.5621193666011,185.6970910886448 176.74299634594354,184.28381940491818 177.47472594399005,183.6396678765086 179.16839220462134,183.85118082218105 180.56607795372838,183.78388130194799 181.77466504264157,183.4666114639258 184.15895249697496,182.2167498097624 187.34074299639906,181.78410138576146 188.2944579781033,181.38029433152406 188.40956151037244,181.81294467812404 188.5,181.78410138576146 187.61205846531084,182.13022028979321 184.88246041414095,182.4571091552716 181.70066991474596,183.89925187750487 180.50852618759382,184.22613437955442 179.11084043851588,184.3126619038885 177.65560292327427,184.1107642190036 177.40895249694586,184.3991893458151 177.35962241172092,185.22600296940072 177.07186358098988,186.22586055866122 176.64433617540635,186.38929777240992 176.27436053592828,186.48543717261055 174.45736906214734,186.04319508955814 172.780146163248,186.07203703012055" stroke="#4dd2ff" stroke-linecap="round" stroke-linejoin="round" stroke-width="0.5"><title>2022-12-12 7.2km</title></polyline><polyline fill="none" points="11.936825885961298,223.02224863461743 12.15523882897105,219.96963480499835 12.082434514712077,219.68990916513576 11.510400616331026,219.61693714713329 11.5,219.25207636241248 14.443374422204215,219.30072453397588 17.709167950728443,220.29800751378934 20.049306625616737,220.7601601076094 28.08898305083858,220.6385411840747 28.99383667181246,220.71151255363657 30.522727272706106,221.21014900597947 31.001155624049716,221.05204499916726 31.635593220358714,220.73583633319504 31.937211094016675,219.62909915336786 31.989214175671805,218.60748614617478 32.20762711868156,218.26694645967655 32.73805855162209,218.1818113804111 34.246147919853684,218.4858649453745 34.568567026173696,218.31559504804318 36.087057010794524,218.3642436158625 37.17912172572687,218.0723519001258 38.5,217.43991730692505 38.31278890604153,216.97775136538985 35.61902927584015,217.7926216437845 34.38135593221523,217.82910823755083 32.072419106261805,217.54937738931767 31.16756548540434,218.35208147585945 30.990755007660482,218.83856607326743 31.136363636353053,219.3128865736362 30.96995377499843,219.60477513964724 31.032357472984586,219.95747283482342 30.76194144837791,220.2493597642533 30.273112480761483,220.2007119941627 29.638674884394277,220.39530295107397 29.34745762712555,220.10341639216495 28.754622496140655,220.00612070783973 28.619414483837318,219.8358530621481 28.567411402182188,219.94531086332427 27.610554699553177,219.84801504520874 26.206471494573634,220.11557834690757 25.717642526957206,220.12774030038418 25.395223420578986,219.90882494115795 23.2526964560966,219.98179677388543 22.004622496140655,219.82369107779232 20.735747303580865,220.00612070783973" stroke="#4dd2ff" stroke-linecap="round" stroke-linejoin="round" stroke-width="0.5"><title>2022-12-06 5.0km</title></polyline><polyline fill="none" points="41.5,223.29425861632626 41.73098075162852,220.7090699516193 41.85472044002381,220.8344725856732 43.5870760770631,220.85376528331108 45.855637030268554,221.6061773068359 45.938130155875115,221.7701637187056 45.81439046750893,221.7701637187056 45.92163153071306,221.59653103810706 45.68240146661992,221.6061773068359 45.476168652647175,221.3939591595481 45.65765352893504,221.45183688504767 45.86388634284958,220.06276133350184 45.73189734190237,220.1495791754278 45.748395967064425,220.42932499263406 46.05362053166027,220.68013085773418 47.29926672781585,220.98881405236898 48.05820348308771,220.84411893499055 48.73464711278211,221.05633836190827 49.790559120127,221.08527733641677 52.07561869849451,220.88270432208083 52.710815765400184,221.05633836190827 53.64298808434978,220.95987504727964 53.8739688359492,220.77659446830512 54.69065077914274,220.77659446830512 54.7731439047202,220.94058237207355 55.77956003672443,221.22997207112348 56.56324472965207,221.09492365919868 56.75297891846276,219.63831736089924 57.51191567373462,219.00164769739058 59.68973418883979,219.2235179332638 60.74564619618468,219.1270526796725 61.917048579314724,218.77013035392156 64.1278643446567,217.59324143517006 64.87855178737664,217.4003073762433 66.8583868011192,217.23631310518977 67.93904674611986,216.94691073076683 68.35976168652996,216.70574138368102 68.49175068744808,217.17843270378216 68.5,217.07231853912526 66.81714023835957,217.6318281979693 64.49908340975526,217.9405217124222 63.294683776417514,218.54825901480217 61.05912007339066,219.51291308178043 59.36801099911099,219.59008496625756 59.186526122823125,219.69619620079175 57.66040329975658,219.51291308178043 53.64298808434978,221.44219060002797 49.823556370305596,221.51936085173656" stroke="#4dd2ff" stroke-linecap="round" stroke-linejoin="round" stroke-width="0.5"><title>2022-11-27 5.6km</title></polyline><polyline fill="none" points="71.5,221.59935555000993 72.57120085012866,221.7559318855856 72.86769394262228,221.66645972222614 73.35547290113755,221.91250798923284 73.68065887351986,221.8565879788148 75.39266737509752,222.3822349088441 75.6795961742173,221.05133654937526 75.52656748139998,220.8276545082408 75.58395324117737,221.28620218321885 76.06216790649341,221.5881715171854 77.57332624861738,221.8789559865545 78.29064824653324,221.66645972222614 79.04622741765343,221.93487598508364 81.81030818278668,221.91250798923284 82.34590860782191,221.7335638518416 83.80924548354233,221.91250798923284 84.593517534493,221.8677719832849 84.94739638682222,221.59935555000993 85.89426142396405,221.5881715171854 85.99946865031961,221.80066793884907 87.09936238039518,222.13618773507187 87.84537725819973,222.0355319080045 88.16099893726641,221.71119581333915 88.26620616362197,221.16317739248188 88.14187035069335,220.71581331024208 88.29489904351067,220.2572631612129 89.17481402761769,219.54147358713817 91.38416578108445,219.8210794663537 92.88575982995098,219.70923720340215 94.44473963865312,219.18357698266482 96.68278427200858,217.96448258063901 98.5,217.6177650911486 96.82624867156846,217.89737605854316 94.39691817207495,219.20594555592834 92.84750265668845,219.69805297059793 91.41285866091494,219.78752679988247 89.42348565353313,219.4855523225633 89.06960680126213,219.5526578365243 88.26620616362197,220.30199984865612 88.12274176406208,220.71581331024208 88.24707757704891,221.16317739248188 88.07492029748391,221.46514707783354 88.14187035069335,221.81185194922728 87.88363443140406,222.04671589351346 86.8124335812754,222.09145182373322 85.68384697131114,221.554619411545 84.90913921355968,221.56580344793474 84.5361317746574,221.84540397319506 83.63708820403554,221.90132398950664 82.91976620611968,221.72237983319064 79.89744952175533,221.6776437467779" stroke="#4dd2ff" stroke-linecap="round" stroke-linejoin="round" stroke-width="0.5"><title>2022-11-23 5.3km</title></polyline><polyline fill="none" points="101.5,220.64989600601984 103.79856115108123,220.92751211590803 106.3669064748683,221.63416838923877 106.70143884891877,220.14513778725086 106.62589928059606,219.79180576328508 106.29136690648738,219.6277583963456 105.75179856113391,219.67823453324672 105.27697841724148,219.28704391336942 104.11151079135016,219.32490112616506 103.8525179856224,219.4637108038005 103.89568345324369,219.58990127961442 107.56474820140284,220.8391797873992 108.70863309357082,220.97798770284135 109.31294964026893,220.63727707659564 110.06834532372886,220.7634663108838 110.9856115108123,220.59942028028308 111.16906474821735,220.86441760222078 111.68705035973107,220.9401310146568 114.66546762589132,220.86441760222078 115.4100719424896,221.10417657672951 116.67266187054338,221.0410821564583 117.08273381291656,220.75084739346494 118.14028776978375,220.73822847470728 118.38848920859164,221.0158443790133 119.65107913670363,221.33131621326174 120.74100719427224,221.05370104319445 120.71942446043249,220.54894453316228 120.881294964056,220.29656547717605 120.76258992811199,219.66561550099868 120.96762589929858,219.18609128703247 121.90647482016357,218.44156302940246 125.1762589928112,218.7570416720264 126.96762589929858,218.39108636909805 128.23021582735237,217.8484609222287 128.5,218.34060968748963 127.45323741005268,218.80751817743294 125.57553956832271,219.28704391336942 124.24820143886609,219.21132945166028 124.03237410075963,219.35013926137617 122.3381294964347,219.04728128637362 122.00359712226782,219.13561494184978 121.73381294962019,219.48894890960946 121.60431654681452,220.97798770284135 121.28057553956751,221.8991634124468 120.54676258994732,222.15153907776403 117.65467625902966,221.59631190929213 109.51798561151372,221.77297537958657 106.4856115108123,221.19250870901305" stroke="#4dd2ff" stroke-linecap="round" stroke-linejoin="round" stroke-width="0.5"><title>2022-11-18 5.5km</title></polyline><polyline fill="none" points="131.5,222.95875928016176 131.79705304518575,219.85737169697677 132.49724950885866,220.03105156960373 133.17622789787129,219.93180595957529 135.02220039296662,220.14270278041658 136.8257367386832,220.76298534946545 137.1121807465679,219.43557664969558 137.0591355599463,218.85250452729815 136.2104125736514,218.81528705937671 135.76483300584368,218.41829999967013 134.64027504913975,218.46792345563154 134.41748526523588,218.7532579198887 134.51296660123626,218.85250452729815 137.3986247543944,219.82015454793145 139.24459724948974,220.20473118498194 139.96601178782294,219.9566173699568 140.80412573675858,220.24194821198034 143.88074656185927,220.22954253762873 144.47485265223077,220.0186458729222 146.1086444007815,220.24194821198034 146.93614931235788,220.19232550671586 147.48781925346702,219.93180595957529 148.34715127694653,219.94421166543907 148.60176817286992,220.19232550671586 149.90667976421537,220.4652501257733 150.93575638503535,220.22954253762873 151.1055009822594,219.42317089002609 150.96758349705487,218.9145336143265 151.14793713163817,218.45551759363298 152.07092337909853,217.61191589706868 155.59312377206516,217.8848465218398 157.004125736712,217.58710399059055 158.38330058928113,217.04124071983097 158.5,217.53748016190366 155.9113948919112,218.43070586561953 153.3546168958419,218.4803293163277 152.62259332020767,218.21980596583307 152.17701375245815,218.35627065017616 151.9542239685543,218.65401122844196 151.84813359525288,219.9566173699568 151.56168958736816,220.97388067553402 150.6917485265294,221.2716146078892 148.71846758347237,220.775390967392 139.97662082512397,220.8870414695848" stroke="#4dd2ff" stroke-linecap="round" stroke-linejoin="round" stroke-width="0.5"><title>2022-11-06 5.5km</title></polyline><polyline fill="none" points="161.5,228.31434389376955 162.12257281545317,224.9619087426545 162.56492718443042,215.78549743857002 162.94174757279688,214.0804345132492 163.04004854371306,214.25285733642522 165.03883495141054,214.19538308023766 170.65837378642755,215.45981250210025 171.0515776698594,212.77767898769525 170.90412621351425,213.5440069023898 171.51031553390203,213.984643985008 174.4265776699176,214.5785444433859 180.43932038830826,213.39074157885625 180.83252427179832,213.39074157885625 180.9144417475909,214.46359611958906 182.2578883494716,214.27201541773684 183.61771844659233,214.3486477227998 184.12560679606395,214.67433465748036 186.2882281553466,214.5977024902968 186.97633495146874,214.11875071037502 186.99271844665054,213.40989975140837 188.40169902914204,212.98841948750487 188.5,212.01134783015004 187.9757281554048,211.6856561062159 187.0910194175085,212.87347015435807 187.25485436891904,213.33326704913634 186.89441747573437,213.4865324213024 186.3046116505284,214.46359611958906 184.50242718443042,214.6934926942631 183.61771844659233,214.3486477227998 178.50606796116335,214.3486477227998 178.0964805824915,214.6551766187331 176.85133495146874,214.6551766187331 175.5570388349588,214.21454116767563 174.29550970869604,214.5785444433859 172.10012135922443,214.17622499080608 167.00485436891904,212.50946345145348 166.8410194174503,212.20293092356587 167.23422330094036,212.06882277947443 168.98725728149293,211.85808120950242 169.56067961163353,212.50946345145348 170.11771844653413,212.47114691387105 169.54429611645173,212.4519886420021 168.95449029124575,211.89639787684428 168.02063106792048,211.89639787684428 167.0703883494716,212.03050614862877 166.95570388343185,212.52862171718152 172.1820388349588,214.27201541773684 170.7894417475909,213.4673742568848 170.87135922326706,212.77767898769525" stroke="#4dd2ff" stroke-linecap="round" stroke-linejoin="round" stroke-width="0.5"><title>2022-11-02 5.0km</title></polyline><polyline fill="none" points="12.331408775935415,261.1672794127371 12.289838337164838,260.9120950588913 11.551963048463222,260.81488182262547 11.5,260.462483151794 11.770207852183376,258.63971415253036 11.770207852183376,256.962741132942 11.9364896073821,256.6103306469304 11.842956120090093,255.3222003632036 12.071593533502892,252.6243712705982 12.289838337164838,251.60355455180252 12.466512701997999,251.73723344780592 14.534642032289412,251.66431770563213 17.195150115469005,252.49069340692222 17.454965357959736,250.7528670233296 17.319861431897152,251.15390621448023 17.506928406481165,251.44557020141656 19.637413394870237,251.93167520068528 22.952655889152084,251.23897495382698 24.07505773671437,251.2146696061609 24.709006928373128,251.53063872476923 25.05196304846322,251.32404363020032 26.454965357959736,251.3605016150541 26.881062355649192,250.97161584662535 27.515011547366157,251.28758563374868 28.31524249416543,251.00807394335425 28.918013856746256,251.27543296571093 29.18822170898784,251.98028558748047 29.9364896073821,252.21118464381289 30.98614318697946,251.99243818094692 31.162817551929038,251.08099010204023 31.0381062355591,250.61918698181398 31.235565819835756,250.13307642858854 31.879907621187158,249.48897677696368 32.51385681290412,249.3552952646205 34.342956120031886,249.6469638182607 35.548498845193535,249.6469638182607 36.889145496475976,249.3917538743117 38.30254041560693,248.83272058726288 38.5,249.2580722488492 37.35681293299422,249.79279781735386 35.82909930712776,250.18168757648527 34.24942263273988,250.27890981056407 32.30600461893482,250.06015966818813 32.01501154730795,250.40043748745666 31.63048498838907,252.63652379596897 30.809468822088093,252.9403365118851 27.868360277148895,252.442083236092 19.969976905325893,252.60006621604407 17.600461893714964,252.1018114644612 17.3094688221463,253.94898896698578" stroke="#4dd2ff" stroke-linecap="round" stroke-linejoin="round" stroke-width="0.5"><title>2022-10-28 6.2km</title></polyline><polyline fill="none" points="41.5,257.92132134532585 41.66901408456033,255.3273723036109 41.84859154932201,254.8579848913796 42.01760563382413,255.03091731540917 43.306338028167374,254.90739418150042 44.32042253523832,255.01856500787835 46.45422535215039,255.74734891511616 46.88732394366525,255.64853102476627 47.130281690100674,254.32683370183076 47.03521126759006,253.88214712684567 46.71830985916313,253.733917892132 46.10563380282838,253.7833276579404 45.75704225350637,253.43745885819226 44.626760563405696,253.49922121899726 44.46830985916313,253.64745075166138 44.59507042251062,253.857442267421 47.838028169062454,254.96915576477477 48.89436619722983,255.15444031860534 53.36267605633475,254.49976691255142 53.40492957748938,255.11738343136676 54.883802816912066,255.01856500787835 55.85563380282838,255.25325862710451 58.33802816900425,254.94445113540132 58.45422535209218,255.17914490357362 59.67957746476168,255.48795177457941 60.6725352111971,255.38913366469205 60.883802816912066,255.2162017712035 60.86267605633475,254.69740455401188 61.03169014083687,254.4750621838175 60.90492957748938,253.86979469778453 61.10563380282838,253.41275390471856 62.0246478873305,252.63454519469815 64.61267605627654,252.91865373755718 65.6478873239248,252.86924360587727 66.85211267601699,252.63454519469815 68.23591549292905,252.07867865467415 68.5,252.51101952559839 67.2746478872723,253.0421789753891 65.65845070424257,253.46216380647093 64.40140845067799,253.41275390471856 64.17957746476168,253.52392615416466 62.5,253.23981908405403 62.140845070418436,253.3386390129599 61.91901408450212,253.67215565547667 61.85563380277017,254.7468139121047 61.52816901408369,255.96968886259128 60.65140845067799,256.2414371124323 59.89084507036023,256.1673240161108 59.76408450701274,255.94498444491182 59.34154929581564,256.00674547937524 58.285211267648265,255.75970114552183 53.7746478873305,255.82146227797057" stroke="#4dd2ff" stroke-linecap="round" stroke-linejoin="round" stroke-width="0.5"><title>2022-10-20 5.2km</title></polyline><polyline fill="none" points="77.59795918362215,256.2242592408584 78.00204081623815,256.8471112581756 79.06734693865292,257.1477977551258 80.1693877549842,256.7397231156501 83.03469387744553,257.04040977158 83.23673469386995,256.7182454802969 83.71428571420256,257.2337081009755 84.55918367346749,257.4484838067292 85.16530612239148,257.2337081009755 87.95714285701979,257.51291647410835 88.91224489791784,256.61085726962483 89.48163265292533,257.1263201629481 90.82244897959754,256.8041560079728 92.1265306121204,256.99745456234086 93.76122448977549,256.7612007486896 93.98163265292533,258.3290618247993 94.25714285706636,258.09280956063594 94.31224489794113,256.5249466601672 94.82653061219025,256.15982616449764 97.85714285704307,257.06188737282355 98.5,258.13576453822316 98.05918367346749,256.39608067787776 96.44285714277066,252.55154125203262 94.18367346923333,253.34622855469934 93.50408163259272,254.46308112777479 91.77755102037918,254.74229331102106 90.89591836731415,254.74229331102106 90.54693877545651,254.39864749246044 85.0367346938001,254.4201253731735 84.59591836726759,254.0979569240444 82.13469387753867,254.57047047448577 81.69387755100615,254.22682436501782 87.09387755102944,253.4750964728446 87.36938775505405,253.99056732743338 87.02040816319641,254.52751474254183 84.4306122448761,254.22682436501782 82.26326530601364,254.57047047448577 81.49183673469815,254.29125805487274 85.29387755086645,253.58248634211486 87.31428571417928,253.51805242734554 87.35102040809579,254.18386856048892 87.05714285711292,254.52751474254183 84.37551020400133,254.22682436501782 82.13469387753867,254.54899260964885 81.51020408165641,254.31273594692175 83.03469387744553,254.03352317291137 83.51224489789456,254.3342138367443 86.98367346927989,254.63490405520133 87.31428571417928,254.37716960943362 87.33265306113753,253.51805242734554 86.08367346925661,253.4106625240238 80.05918367335107,254.65638191089965 77.32244897948112,254.1623906547611 71.75714285706636,252.29380416145432 71.5,251.9501541984646 71.904081632616,251.69241634452192 73.85102040809579,251.67093817521527" stroke="#4dd2ff" stroke-linecap="round" stroke-linejoin="round" stroke-width="0.5"><title>2022-09-24 5.1km</title></polyline><polyline fill="none" points="126.04545454541221,259.8041914785863 127.11264822119847,259.1178895230405 128.3399209487252,254.50092834205134 123.37747035548091,251.50612339074723 119.26877470361069,256.37267371604685 119.26877470361069,259.4922361433273 121.45652173901908,260.42810165468836 125.99209486157633,260.4904926359304 127.16600790503435,259.7418004247593 128.5,254.25136184343137 123.80434782616794,251.31894757662667 119.37549407128245,256.4350651263376 119.48221343872137,260.0537556281779 122.41699604713358,260.1785376634216 123.32411067187786,260.80244744365336 122.36363636353053,261.73831087659346 102.72727272706106,262.861345036712 101.92687747022137,263.48525197961135 103.3142292490229,262.4246097841533 123.91106719360687,262.923735760618 127.05928853736259,262.17504663724685 114.89328063232824,261.73831087659346 115.90711462451145,246.88910263794241 115.32015810278244,246.7643177920836 113.13241106714122,261.98787420796 101.5,261.86309255548986 101.6600790512748,262.54939131764695 127.16600790503435,262.861345036712 125.19169960450381,261.73831087659346 123.00395256909542,262.2374374339124 114.8399209487252,261.55113830877235 115.69367588916793,246.51474802038865 113.66600790503435,261.55113830877235 111.90513833984733,262.2374374339124 103.0474308298435,261.86309255548986 102.94071146240458,262.54939131764695 128.44664031616412,263.1732985905255 121.29644268751144,262.923735760618 126.73913043481298,262.861345036712 126.73913043481298,262.05026502447436 123.59090909082443,261.8007017194177" stroke="#4dd2ff" stroke-linecap="round" stroke-linejoin="round" stroke-width="0.5"><title>2022-09-22 5.0km</title></polyline><polyline fill="none" points="143.84896467725048,257.0766429074574 144.91778319119476,256.9228202250815 145.70706455543404,257.44197125631035 146.64433617546456,257.3073766868911 148.6668696711422,257.63424903976556 149.7356881852029,257.1535541998164 149.70280146162258,256.8074531278544 149.93300852621906,256.7497695518832 150.3276492083678,257.42274346679915 152.2350791717763,257.1920098337723 152.9257003653911,257.46119904382795 154.37271619972307,256.7497695518832 154.38915956154233,257.3650600859837 154.65225334954448,257.6150212705543 154.81668696715496,256.5959465928754 155.14555420225952,256.3844398117071 158.02314250922063,257.1535541998164 158.5,258.0572594473924 157.64494518883293,255.23076212748128 156.64190012181643,253.09643910708837 155.19488428748446,253.6156010673585 154.75091352016898,253.30794971434807 152.9257003653911,253.03875435327063 150.70584652863909,254.78851707362628 147.51583434839267,254.84620127212838 147.10475030448288,253.98093637276907 144.29293544456596,254.38472717172408 143.30633373942692,254.61546436839853 144.45736906211823,255.13462198991328 149.1930572472629,255.0961659206514 149.93300852621906,254.78851707362628 151.28136419004295,254.78851707362628 152.11997563956538,255.0961659206514 153.8300852618995,254.90388545228052 154.14250913524302,254.09630526401452 153.583434835542,253.59637287308578 152.62971985386685,253.5002318709885 151.18270401953487,254.28858658669924 150.2289890378015,253.59637287308578 148.92996345920255,253.96170821713167 147.30207064555725,253.92325189970143 147.26918392209336,254.88465739428648 145.93727162003051,254.65392053933465 143.89829476253362,254.98079766404408 142.86236297199503,254.65392053933465 142.15529841656098,254.9423415622441 140.9878197320504,254.90388545228052 134.24604141293094,252.86569998202322 134.64068209507968,252.25039421652036 133.55542021919973,251.94274055262213 132.9141291108681,252.4042208531464 131.5,252.15425250247063 131.76309378806036,252.3849925307295 134.22959805111168,252.67341715407383 136.46589524968294,252.28885088789684 137.17295980505878,252.94261305624968 138.06090133980615,252.78878687528777 138.57064555416582,252.98106958111748 138.24177831917768,255.86528575996635 137.78136419004295,255.86528575996635 138.8008526188205,256.3075281939091 138.19244823389454,256.3844398117071 138.0444579781033,256.98050374619197" stroke="#4dd2ff" stroke-linecap="round" stroke-linejoin="round" stroke-width="0.5"><title>2022-09-09 5.2km</title></polyline></svg>