<?xml version="1.0" encoding="utf-8" ?>
<svg baseProfile="full" height="300mm" version="1.1" viewBox="0,0,200,300" width="200mm" xmlns="http://www.w3.org/2000/svg" xmlns:ev="http://www.w3.org/2001/xml-events" xmlns:xlink="http://www.w3.org/1999/xlink"><defs /><rect fill="#222222" height="300" width="200" x="0" y="0" /><text fill="#FFFFFF" style="font-size:12px; font-family:Arial; font-weight:bold;" x="10" y="20">Over 5km Runs</text><text fill="#FFFFFF" style="font-size:4px; font-family:Arial" x="10" y="280">ATHLETE</text><text fill="#FFFFFF" style="font-size:9px; font-family:Arial" x="10" y="290">feng qijun</text><text fill="#FFFFFF" style="font-size:4px; font-family:Arial" x="120" y="280">STATISTICS</text><text fill="#FFFFFF" style="font-size:3px; font-family:Arial" x="120" y="285">Number: 18</text><text fill="#FFFFFF" style="font-size:3px; font-family:Arial" x="120" y="290">Weekly: 1.3</text><text fill="#FFFFFF" style="font-size:3px; font-family:Arial" x="141" y="285">Total: 104.9 km</text><text fill="#FFFFFF" style="font-size:3px; font-family:Arial" x="141" y="290">Avg: 5.8 km</text><text fill="#FFFFFF" style="font-size:3px; font-family:Arial" x="167" y="285">Min: 5.0 km</text><text fill="#FFFFFF" style="font-size:3px; font-family:Arial" x="167" y="290">Max: 10.0 km</text><polyline fill="none" points="49.21947004616959,60.09340982271533 47.85080645169364,59.91153968073195 45.253456221253145,59.05674743633426 43.38709677424049,59.56598588092311 42.99827188946074,59.238618482573656 39.778801843349356,60.00247477578523 38.78341013833415,59.94791372450709 37.75691244244808,59.09312166094605 36.34158986178227,56.36503345517849 34.724078341037966,54.56447152282635 33.63536866358481,54.146156454924494 30.135944700508844,53.67327732635022 28.25403225811897,52.65476401572232 27.507488479313906,51.05423090586555 27.274193548422772,49.326365933709894 26.652073732751887,48.580650422212784 25.423387096845545,48.344203364948044 21.03744239639491,48.99897903439705 18.90668202767847,47.59848359233001 15.998271889402531,47.689425201300764 15.749423963134177,46.197976739000296 15.702764976944309,47.72580183132959 13.260944700450636,47.88949657145713 12.25,44.90659017727012 13.074308755807579,47.59848359233001 13.478686635906342,47.96224973927019 18.331221198139247,47.56210693530738 19.000000000058208,47.72580183132959 20.477534562174696,48.79890895560675 21.34850230423035,49.01716721183038 25.563364055298734,48.41695634028292 26.714285714377183,48.72615614188544 27.32085253461264,49.50824727503641 27.49193548387848,51.05423090586555 28.129608294926584,52.5820128339692 30.182603686640505,53.74602804619644 33.557603686640505,54.40078313925187 34.02419354848098,55.03734819989768 34.55299539177213,55.14647340212832 36.5748847926734,56.74696841023979 37.80357142863795,59.074934549600584 38.550115207384806,59.94791372450709 40.49423963139998,60.07522281714773 41.36520737328101,59.63873410706583 43.65149769594427,59.22043138658046 44.911290322605055,59.347741017933004 45.0823732719291,59.09312166094605 48.192972350283526,60.09340982271533 52.75,59.91153968073195" stroke="#4dd2ff" stroke-linecap="round" stroke-linejoin="round" stroke-width="0.5"><title>2023-03-12 6.0km</title></polyline><polyline fill="none" points="96.00650224206038,59.76339430536609 91.13923766813241,58.55286951518792 90.93946188339032,58.871429378225 89.79529147979338,58.48915748191939 89.06883408071008,59.189988735699444 88.92354260082357,58.80771744607773 84.89170403592288,59.6359709869721 83.58408071740996,59.48731034665252 82.60336322861258,58.4679201329709 80.58744394616224,54.92125134561502 79.13452914799564,53.43460507217969 77.48183856497053,52.83994347983389 73.57713004481047,52.30899414097075 71.39775784744415,51.055948132736376 70.70762331841979,49.335651888584835 70.5986547084758,47.48790987012035 69.81771300442051,46.44722009576799 68.01973094174173,46.12864051471115 63.35224215243943,46.893230659814435 62.734753363300115,46.787037758287624 62.189910313813016,46.12864051471115 60.60986547090579,45.23661499751324 59.90156950673554,45.109182457163115 57.25,45.342808719331515 60.428251121076755,45.19413749303203 62.68026905832812,46.659606202243594 68.1286995515693,46.06492453784449 69.69058295956347,46.404742847546004 70.58049327344634,47.6790563849936 70.70762331841979,49.22946027919534 71.36143497750163,50.88604298699647 73.74058295961004,52.20280410457053 77.73609865468461,53.00984697173408 78.20829596405383,53.62574592408782 78.84394618833903,53.71069735544734 81.25941704038996,55.70704564236803 82.65784753358457,58.48915748191939 83.711210762267,59.4448358577647 85.20044843049254,59.59349652954552 86.8713004484307,59.04132776509505 87.16188340797089,59.40236135982559 88.3242152465973,58.828954758966574 91.0484304932179,58.59534419279953 94.69887892366387,59.89081754282233 97.75,59.657208212302066" stroke="#4dd2ff" stroke-linecap="round" stroke-linejoin="round" stroke-width="0.5"><title>2023-03-05 5.0km</title></polyline><polyline fill="none" points="139.43697829719167,52.35523744246166 139.66235392319504,53.09300284369965 141.9837228715187,52.645074110580026 142.50208681134973,54.225995458255056 142.41193656087853,55.01645237211778 136.39440734568052,56.676403732504696 132.49540901510045,58.49443301578867 128.73163606016897,61.07653877447592 126.09474123537075,56.93988705886295 124.42696160275955,55.54342225546134 108.74081803008448,52.01270276401192 108.5605175292585,51.564772089535836 109.43948247085791,49.11431356499088 109.19156928220764,48.613679289934225 109.48455759615172,47.322565203066915 102.25,43.686330404889304 109.46202003350481,47.243517184615484 107.7942404007772,51.96000507938152 107.18572621047497,55.04280089279928 108.13230383989867,52.75046917902364 108.74081803008448,52.38158624446078 122.1732053423766,55.069149410614045 125.39607679471374,56.544661964828265 128.23580968286842,61.31366959512525 134.14065108518116,57.703987130575115 136.73247078468557,56.597358680242905 142.75,54.93740679349867 141.9837228715187,51.48572541640897" stroke="#4dd2ff" stroke-linecap="round" stroke-linejoin="round" stroke-width="0.5"><title>2023-02-22 5.0km</title></polyline><polyline fill="none" points="147.25,57.19311997880868 147.5043171114521,52.658048825891456 147.8540031396551,52.026103389580385 151.4780219780514,52.21196993031481 155.6265698587522,53.7546546299418 157.04120879119728,53.847587010546704 157.67700156988576,54.27507532852178 158.2492150706239,54.0892109702836 160.96722919936292,54.49811229894112 161.65070643642684,54.38659384912171 162.652080062835,54.83266722362896 163.5421899528592,54.68397622463817 165.44956828886643,54.925599034133484 166.72115384612698,54.2007296087977 166.76883830456063,54.572457892791135 167.27747252740664,54.795494485719246 168.0404238618794,54.85125358967343 168.70800627942663,54.59104428636783 170.01138147560414,54.81408085564908 170.94917582412018,53.921932879675296 171.48959968605777,53.82900053834601 174.25529827311402,54.46093949014903 174.4619309261907,54.70256260638416 174.57319466251647,54.033451624418376 175.8606750391773,54.10779741499573 177.29120879113907,53.68030868998903 177.76805337512633,51.85882333481277 177.8793171114521,50.20460088465188 178.51510989008239,49.59123354598705 179.97743328096112,49.88862403821258 184.17366562003735,49.870037147178664 187.75,48.476014716754435 187.35262951324694,47.80688002120587 185.60419937205734,48.49460175521381 183.2676609104965,48.996451051323675 181.74175824172562,49.03362501625088 178.18131868127966,48.56894988959539 176.6395211930503,49.777102662599646 176.33751962316455,50.70644529623678 176.46467817894882,51.43132913786394 175.38383045519004,51.80306328115694 175.11361852433765,52.658048825891456 174.60498430137523,52.88108784900396 173.6671899529174,52.73239519838535 172.57044740970014,52.044690052527585 171.07633437990444,52.026103389580385 170.45643642079085,52.41642289808078 168.40600470959907,52.546529208208085 167.97684458392905,52.24914321491087 163.16071428573923,52.30490312699112 162.25470957614016,52.17479663791892 161.80965463106986,51.765889902206254 158.5989010988851,52.45359613932669 156.0557299842476,51.97034338902449 151.31907378335018,50.22318774026644 148.90306122443872,49.870037147178664 153.48076923075132,49.83286335930461" stroke="#4dd2ff" stroke-linecap="round" stroke-linejoin="round" stroke-width="0.5"><title>2023-02-10 5.9km</title></polyline><polyline fill="none" points="21.588037342648022,109.13630990822276 21.640794615726918,103.56360087321082 23.469713417231105,103.5841646688641 26.512049500714056,104.36558729101671 28.182696482748725,103.87205757931224 28.868541033472866,101.79510631064477 28.99164133728482,99.96490313597315 29.519214068655856,99.38910531530564 32.561550151905976,99.82095384072454 33.14188015635591,99.53305493037624 36.008358662598766,99.57418337225681 38.927594442036934,98.64879132529313 44.04504993488081,96.07823474530596 49.901107251411304,95.27621413444285 52.75,94.20684817196161 52.591728180646896,94.33023685251828 52.31035605724901,93.83668166032294 52.36311333044432,93.3636900917918 51.413482414209284,93.89837612792326 48.96906209294684,94.51531972647354 47.91391663055401,94.55644923006184 47.66771602258086,94.24797774084436 44.39676508901175,94.84435551163915 42.23371689103078,95.64637790454435 38.66380807640962,97.68226603922085 36.0435301780235,98.5048410553718 32.84292227530386,98.73104857449653 30.2929874076508,98.25806891608227 29.02681285282597,98.29919762763893 27.584780720761046,99.53305493037624 27.25065132440068,100.47900689177914 27.35616587055847,101.4249542497273 26.582392531447113,101.4249542497273 26.01964828488417,101.95961811150482 25.896547980839387,102.76161114675051 25.316217976622283,103.0289414232102 24.15555796783883,102.59710002466454 23.733499782858416,101.48664630885469 22.660768562811427,100.93141707204632 21.44735128094908,101.28100603570056 20.779092487995513,102.32976915431209 19.337060356047004,102.59710002466454 18.2643291358836,102.61766392251593 17.895028224098496,102.30920522595989 12.513786365627311,102.26807736275077 12.25,102.04187395966437 12.636886669555679,101.58946636380279 15.520950933569111,101.38382619943877 15.855080330045894,102.43258876327309 17.279526704340242,102.32976915431209 18.45777247066144,101.56890235717583 19.54808944859542,101.6511583707179 20.058076422079466,101.03423742071027 20.65599218418356,101.01367335538089 21.623208857956342,102.0624379163055 22.924554928322323,102.00074603992107 23.69832826743368,102.63822781819908 25.298632218851708,103.07006912544603 27.074793747277,102.82330278160225 27.53202344768215,101.322134107686 27.584780720761046,102.67935560308979 26.969279201119207,103.17288834288775 24.71830221451819,102.8644305273483 24.173143725609407,102.61766392251593 23.557642205851153,101.34269814044819 20.181176726007834,100.35562211433717 19.337060356047004,100.56126336645684 17.24435518879909,102.26807736275077 16.189209726522677,102.24751342793752 15.644051237613894,101.44551827160467 16.136452453327365,101.13705771505192 16.99815458105877,101.13705771505192 17.719170646974817,101.77454232577293 19.477746417745948,101.6511583707179 20.269105514511466,101.09592960386362 21.007707338314503,101.69228636445769 21.65838037338108,101.26044199643366 22.801454624393955,101.03423742071027" stroke="#4dd2ff" stroke-linecap="round" stroke-linejoin="round" stroke-width="0.5"><title>2023-02-05 7.1km</title></polyline><polyline fill="none" points="57.73132427845849,107.57537858269643 58.098047538194805,104.26539784840861 58.36162988119759,104.17159146613267 60.264006791228894,104.47981217564666 60.940152801340446,104.37260505739687 62.72792869270779,105.13645379514492 63.49575551785529,105.21685865747713 63.862478777591605,103.62215268924774 63.587436332774814,103.07271152918838 62.796689303882886,103.08611256146105 62.41850594233256,102.71088312231586 60.28692699491512,102.89849798080832 59.01485568762291,102.68408097698557 58.41893039055867,102.22844363875629 57.33022071310552,102.02742664497782 57.25,102.84489376388228 57.33022071310552,102.06763006923575 57.71986417664448,102.04082778780139 57.926146010286175,102.20164139135886 57.90322580648353,102.76448739593616 58.12096774193924,103.1129146217063 60.80263157899026,102.89849798080832 63.80517826828873,104.11798778795492 65.78777589136735,104.58701920314343 67.00254668935668,104.38600595214666 67.78183361631818,104.69422613993083 68.59550084895454,104.62722181505524 69.5466893039411,104.81483383532031 71.85016977932537,104.45301040454797 73.61502546689007,104.6808252777846 74.6120543294237,104.58701920314343 74.91001697798492,104.30560056242393 76.04456706286874,104.27879875449435 76.4456706282217,104.62722181505524 77.39685908326646,104.93544141596794 78.49702886253363,104.85503637498914 78.81791171478108,104.61382094583678 78.80645161290886,103.31392989292362 79.02419354842277,102.71088312231586 79.91808149404824,101.88001398011693 83.13837011886062,102.17483913827164 84.84592529706424,101.94701975813223 86.22113752126461,101.47797856769466 89.75084889639402,99.70900759347569 93.62436332768993,99.28016242463491 97.11969439731911,97.69878331581276 97.71561969438335,96.61324893982237 97.41765704576392,94.92462141730357 97.75,96.5462403401034 97.62393887946382,96.96169308674143 97.45203735143878,97.3637428343718 96.03098471986596,98.22144469717023 95.80178268253803,98.59668743581278 94.89643463498214,98.65029345058429 93.87648556876229,99.18635235042166 92.11162988113938,99.54819082529139 91.11460101866396,99.46778236463433 89.39558573852992,99.77601451993542 86.19821731752018,101.43777495625545 84.71986417652806,101.93361860538425 82.51952461805195,102.13463574799243 80.04414261458442,101.79960699970252 78.93251273344504,102.65727882598003 78.6230899830698,102.38925700409891 78.96689303900348,102.79128952424071 78.78353140916442,103.24692483793478 78.92105263163103,103.76956332671398 78.71477079798933,103.99737942903448 78.79499151109485,104.45301040454797 78.54286926990608,104.77463128299132 77.47707979625557,104.93544141596794 76.19354838714935,104.45301040454797 76.0904074702994,104.23859603201709 74.95585738541558,104.25199694093317 74.4745331070153,104.54681657843321 73.52334465197055,104.62722181505524 72.96179966046475,104.62722181505524 72.66383701184532,104.42620862786862 70.23429541598307,104.4932130590314 68.92784380313242,104.31900146423868 67.50679117150139,104.53341570071643 66.87648556876229,104.332402364671 65.98259762313683,104.57361832968309 64.28650254674722,104.23859603201709 60.71095076401252,102.95210217506974 59.9202037351788,102.83149270610738 58.10950764006702,103.09951359229308 57.8803056027391,102.6304766693138 58.052207130764145,102.14803687951644 59.00339558569249,102.73768526197091 60.04626485571498,102.95210217506974 62.361205432971474,102.71088312231586 62.705008489021566,103.08611256146105 63.23217317491071,103.12631564968615" stroke="#4dd2ff" stroke-linecap="round" stroke-linejoin="round" stroke-width="0.5"><title>2022-12-15 10.0km</title></polyline><polyline fill="none" points="102.25,106.67955850272847 102.60764311812818,101.81974189485481 105.55511571251554,102.02163683512481 105.9374238732853,102.28121560471482 108.44092570035718,102.85805554519175 108.83556638244772,101.18521299299027 108.73690621193964,100.6660507855122 107.66397685749689,100.59394476703892 107.29400121804792,100.11804408815806 105.96208891592687,100.17572910738818 105.44412302068667,99.9305676069489 104.60551157122245,100.23341410222929 103.72990255785407,100.17572910738818 102.53364799026167,99.48350726511853 102.41032277711201,100.14688660080719 102.70630328863626,100.60836597377784 105.46878806338646,100.19015035840857 105.88809378811857,100.69489318229898 108.97122411691817,101.76205757126445 111.05542021925794,102.19468940311344 112.17767965898383,101.94953153363895 113.16428136418108,102.26679457492719 115.54445797810331,102.29563663295994 116.85170523746638,102.22353147641115 117.39433617534814,101.97837365882879 119.35520706453826,102.26679457492719 120.32947624847293,102.19468940311344 120.7857795371674,101.84858404748957 121.93270401947666,101.84858404748957 122.22868453105912,102.15142628167814 123.25228380021872,102.36774175138271 123.53593179048039,102.67058283228835 123.83191230206285,102.32447868490999 124.43620584654855,102.45426784310257 124.84317904990166,102.29563663295994 125.11449451890076,100.17572910738818 126.21208891598508,99.20950181476655 128.7525883069029,99.52677123327157 130.84911693056347,99.42582195292925 132.66199756396236,98.9499171958887 136.238428745477,97.07512471465452 141.01111449458404,96.42615207863855 142.44168696715496,95.82044149728608 142.61434226552956,96.46941701718606 142.75,96.42615207863855 141.41808769793715,96.94533043468255 137.32369062118232,97.43566373291833 132.55100487207528,99.5988778162573 130.76278928137617,100.08920156933891 128.66626065777382,100.21899285582185 126.48340438492596,99.9161463285127 126.11342874541879,100.34878401872993 126.03943361755228,101.58900445410109 125.60779537149938,103.08879083799548 124.96650426310953,103.33394665861852 124.41154080384877,103.47815575891582 121.68605359317735,102.81479263433721 119.17021924484288,102.85805554519175" stroke="#4dd2ff" stroke-linecap="round" stroke-linejoin="round" stroke-width="0.5"><title>2022-12-12 7.2km</title></polyline><polyline fill="none" points="147.90523882891284,105.78337295191886 148.23285824345658,101.20445220750116 148.123651772039,100.7848637477 147.26560092455475,100.67540572069993 147.25,100.12811454362236 151.66506163327722,100.20108680096746 156.56375192606356,101.69701127069129 160.0739599383669,102.39024016141775 172.13347457622876,102.20781177611207 173.49075500766048,102.31726883046213 175.78409090905916,103.06522350896557 176.50173343607457,102.82806749874726 177.45338983047986,102.3537544997962 177.9058166409959,100.69364873005543 177.9838212634786,99.16122921925853 178.31144067802234,98.65041968951118 179.10708782746224,98.52271707062027 181.36922187980963,98.97879741806537 181.85285053926054,98.72339257206477 184.13058551616268,98.7963654237974 185.7686825885903,98.35852785018506 187.75,97.40987596039486 187.4691833590041,96.71662704808114 183.42854391376022,97.93893246568041 181.57203389832284,97.99366235632624 178.10862865945091,97.57406608398014 176.7513482280774,98.77812221378554 176.48613251151983,99.5078491098975 176.7045454545878,100.21932986045431 176.45493066246854,100.65716270948178 176.54853620950598,101.18620925223513 176.14291217259597,101.62403964638361 175.40966872108402,101.55106799124042 174.45801232662052,101.84295442661096 174.02118644065922,101.40512458824378 173.13193374418188,101.25918106175959 172.92912172578508,101.00377959322941 172.85111710324418,101.16796629499004 171.41583204932977,101.02202256782039 169.30970724188956,101.42336752035771 168.5764637904358,101.44161045056535 168.0928351309267,101.11323741172964 164.879044684174,101.22269516081724 163.0069337442401,100.98553661668848 161.1036209553713,101.25918106175959" stroke="#4dd2ff" stroke-linecap="round" stroke-linejoin="round" stroke-width="0.5"><title>2022-12-06 5.0km</title></polyline><polyline fill="none" points="12.25,154.94138792448211 12.596471127413679,151.06360492741806 12.782080659992062,151.25170887850982 15.380614115507342,151.2806479249557 18.783455545373727,152.40926596024656 18.90719523379812,152.65524557804747 18.721585701219738,152.65524557804747 18.882447296055034,152.39479655715695 18.523602199857123,152.40926596024656 18.214252978970762,152.09093873931852 18.486480293329805,152.1777553275606 18.795829514216166,150.09414200024912 18.597846012795344,150.22436876312713 18.62259395053843,150.64398748894746 19.080430797475856,151.02019628659764 20.948900091694668,151.48322107855347 22.087305224558804,151.26617840248218 23.101970669114962,151.5845075428515 24.685838680132292,151.62791600462515 28.113428047683556,151.3240564831067 29.066223648085725,151.5845075428515 30.464482126466464,151.43981257091218 30.810953253880143,151.16489170244313 32.035976168641355,151.16489170244313 32.15971585700754,151.41087355811032 33.66934005502844,151.8449581066816 34.8448670944199,151.64238548879803 35.129468377679586,149.45747604133794 36.26787351054372,148.50247154607496 39.53460128325969,148.8352768998884 41.11846929421881,148.69057901950146 42.87557286891388,148.1551955308678 46.191796516941395,146.3898621527478 47.3178276810213,146.10046106435766 50.28758020163514,145.85446965777373 51.90857011912158,145.4203660961357 52.53964252973674,145.05861207551789 52.73762603115756,145.76764905567688 52.75,145.60847780868062 50.22571035748115,146.4477422969503 46.74862511456013,146.91078256862238 44.94202566455351,147.82238852219598 41.58868010999868,149.26936962266336 39.052016498637386,149.38512744937907 38.779789184220135,149.54429430118762 36.490604949591216,149.26936962266336 30.464482126466464,152.16328590003832 24.735334555443842,152.27904127759393" stroke="#4dd2ff" stroke-linecap="round" stroke-linejoin="round" stroke-width="0.5"><title>2022-11-27 5.6km</title></polyline><polyline fill="none" points="57.25,152.3990333250258 58.856801275280304,152.6338978283893 59.30154091393342,152.49968958333193 60.033209351764526,152.86876198384562 60.520988310338,152.78488196822582 63.08900106267538,153.57335236326617 63.519394261413254,151.57700482406653 63.28985122212907,151.24148176236486 63.375929861853365,151.92930327483919 64.09325185976923,152.3822572757781 66.35998937301338,152.81843397983175 67.43597236985806,152.49968958333193 68.56934112648014,152.90231397762545 72.71546227420913,152.86876198384562 73.51886291184928,152.6003457777697 75.7138682253426,152.86876198384562 76.89027630182682,152.80165797493828 77.42109458026243,152.3990333250258 78.84139213600429,152.3822572757781 78.99920297553763,152.7010019082809 80.64904357068008,153.2042816026078 81.7680658873287,153.0532978620031 82.24149840592872,152.56679372000508 82.39930924546206,151.74476608872646 82.21280552609824,151.07371996536676 82.44234856532421,150.3858947418339 83.76222104148474,149.3122103807109 87.07624867162667,149.73161919953418 89.32863974495558,149.56385580511414 91.66710945800878,148.7753654739936 95.02417640807107,146.94672387096216 97.75,146.42664763673383 95.23937300744001,146.84606408781838 91.59537725819973,148.80891833390342 89.27125398511998,149.54707945589325 87.11928799148882,149.68129019983462 84.1352284803288,149.2283284838486 83.6044102019514,149.32898675478646 82.39930924546206,150.45299977298419 82.18411264615133,151.07371996536676 82.37061636557337,151.74476608872646 82.11238044634229,152.1977206167503 82.21280552609824,152.7177779238409 81.8254516471643,153.0700738402811 80.2186503719422,153.13717773561075 78.52577045699582,152.33192911732476 77.36370882036863,152.34870517191302 76.80419766210252,152.76810595979623 75.4556323060533,152.8519859842636 74.37964930920862,152.58356974978233 69.8461742826621,152.51646562016685" stroke="#4dd2ff" stroke-linecap="round" stroke-linejoin="round" stroke-width="0.5"><title>2022-11-23 5.3km</title></polyline><polyline fill="none" points="102.25,150.9748440090334 105.69784172659274,151.39126817387296 109.55035971227335,152.45125258386543 110.05215827329084,150.21770668087993 109.93884892086498,149.68770864493854 109.43705035967287,149.4416375945293 108.62769784167176,149.51735179987736 107.91546762583312,148.9305658700614 106.16726618702523,148.98735168925487 105.77877697837539,149.19556620570074 105.84352517983643,149.3848519194289 111.34712230210425,151.2587696811097 113.06294964032713,151.46698155427293 113.96942446037428,150.95591561490437 115.10251798556419,151.14519946633663 116.47841726616025,150.89913042043918 116.75359712226782,151.29662640334573 117.53057553956751,151.41019652198884 121.99820143886609,151.29662640334573 123.11510791367618,151.65626486510155 125.00899280578597,151.5616232346947 125.62410071934573,151.12627109020832 127.21043165464653,151.10734271207184 127.58273381291656,151.5237665685272 129.47661870502634,151.99697431990353 131.11151079135016,151.58055156479531 131.07913669064874,150.82341679975798 131.3219424460549,150.44484821577498 131.14388489210978,149.49842325151258 131.45143884891877,148.77913693056325 132.85971223021625,147.66234454412188 137.7643884891877,148.13556250804686 140.45143884891877,147.58662955365435 142.34532374102855,146.77269138334668 142.75,147.51091453124536 141.17985611507902,148.21127726616396 138.36330935248407,148.9305658700614 136.37230215827003,148.8169941774977 136.04856115108123,149.0252088920679 133.50719424459385,148.5709219295677 133.00539568340173,148.70342241278559 132.60071942443028,149.23342336442147 132.40647482016357,151.46698155427293 131.92086330935126,152.8487451186811 130.82014388492098,153.22730861665332 126.48201438848628,152.39446786395274 114.27697841724148,152.65946306938713 109.72841726616025,151.78876306352322" stroke="#4dd2ff" stroke-linecap="round" stroke-linejoin="round" stroke-width="0.5"><title>2022-11-18 5.5km</title></polyline><polyline fill="none" points="147.25,154.43813892024627 147.69557956780773,149.78605754548335 148.745874263288,150.04657735441288 149.76434184680693,149.8977089393884 152.53330058942083,150.2140541706467 155.2386051080539,151.14447802421637 155.66827111988096,149.15336497455428 155.58870333986124,148.27875679096906 154.31561886047712,148.22293058907962 153.64724950882373,147.62744999951974 151.96041257370962,147.70188518347277 151.62622789788293,148.12988687984762 151.76944990182528,148.27875679096906 156.0979371315916,149.73023182191537 158.8668958742055,150.30709677748382 159.9490176817053,149.93492605494976 161.20618860510876,150.3629223179887 165.821119842818,150.3443138064613 166.71227897831704,150.0279688094015 169.16296660120133,150.3629223179887 170.40422396856593,150.28848826009198 171.23172888014233,149.8977089393884 172.5207269154489,149.91631749816588 172.902652259334,150.28848826009198 174.86001964629395,150.69787518867815 176.40363457752392,150.3443138064613 176.6582514734473,149.13475633505732 176.4513752455823,148.3718004215043 176.72190569742816,147.68327639046765 178.1063850686769,146.41787384562485 183.38968565815594,146.82726978276332 185.50618860503891,146.3806559858931 187.5749508839799,145.56186107975373 187.75,146.30622024287004 183.86709233780857,147.64605879843293 180.03192534379195,147.72049397449882 178.9338899803115,147.32970894876053 178.26552062865812,147.53440597528243 177.93133595277322,147.9810168426775 177.7722003928502,149.93492605494976 177.34253438108135,151.46082101331558 176.0376227897941,151.90742191184836 173.07770137517946,151.16308645110985 159.96493123768596,151.33056220439903" stroke="#4dd2ff" stroke-linecap="round" stroke-linejoin="round" stroke-width="0.5"><title>2022-11-06 5.5km</title></polyline><polyline fill="none" points="12.25,211.22151584064704 13.183859223267063,206.19286311397445 13.847390776732937,192.42824615785503 14.412621359224431,189.87065176988835 14.560072815627791,190.12928600463783 17.558252427144907,190.04307462036377 25.987560679670423,191.93971875315765 26.5773665048182,187.9165184815356 26.356189320329577,189.066010353592 27.265473300940357,189.72696597751928 31.639866504934616,190.61781666509341 40.658980582491495,188.83611236829893 41.24878640775569,188.83611236829893 41.37166262138635,190.4453941794054 43.386832524323836,190.15802312662709 45.426577669917606,190.2729715841997 46.18841019412503,190.76150198624237 49.432342233136296,190.64655373545247 50.46450242726132,189.92812606555526 50.48907767003402,188.8648496271344 52.602548543713056,188.23262923126458 52.75,186.76702174523962 51.963592233136296,186.27848415932385 50.636529126320966,188.06020523156621 50.88228155346587,188.74990057371906 50.34162621363066,188.97979863197543 49.456917475908995,190.4453941794054 46.75364077673294,190.79023904140922 45.426577669917606,190.2729715841997 37.75910194183234,190.2729715841997 37.14472087379545,190.73276492810692 35.27700242726132,190.73276492810692 33.335558252525516,190.07181175152073 31.443264563102275,190.61781666509341 28.150182038894854,190.01433748623822 20.507281553465873,187.51419517718023 20.26152912620455,187.05439638535609 20.851334951468743,186.85323416921892 23.480885922326706,186.53712181426818 24.341019417508505,187.51419517718023 25.176577669917606,187.4567203708284 24.316444174735807,187.42798296301044 23.431735436897725,186.5945968152664 22.030946601880714,186.5945968152664 20.605582524323836,186.795759222965 20.433555825147778,187.54293257577228 28.2730582524091,190.15802312662709 26.18416262138635,188.95106138533447 26.30703883501701,187.9165184815356" stroke="#4dd2ff" stroke-linecap="round" stroke-linejoin="round" stroke-width="0.5"><title>2022-11-02 5.0km</title></polyline><polyline fill="none" points="58.497113163990434,208.00091911910567 58.43475750577636,207.61814258834056 57.327944572723936,207.47232273394184 57.25,206.94372472769464 57.65531177830417,204.20957122879918 57.65531177830417,201.69411169941304 57.904734411102254,201.1654959703883 57.764434180164244,199.23330054480175 58.10739030025434,195.18655690590094 58.43475750577636,193.6553318277147 58.69976905308431,193.8558501717198 61.80196304846322,193.7464765584591 65.79272517323261,194.9860401103797 66.18244803696871,192.37930053500168 65.97979214787483,192.9808593217167 66.26039260975085,193.41835530212848 69.45612009236356,194.14751280102064 74.42898383375723,193.10846243074047 76.11258660512976,193.07200440924498 77.06351039255969,193.54595808715385 77.57794457278214,193.2360654452932 79.68244803696871,193.2907524225884 80.32159353350289,192.70742376994167 81.27251732104924,193.18137845062301 82.47286374133546,192.762110915035 83.37702078517759,193.16314944857731 83.78233256348176,194.22042838121706 84.90473441110225,194.56677696573024 86.4792147805565,194.23865727141674 86.74422632792266,192.87148515306762 86.55715935339686,192.17878047272097 86.85334872978274,191.44961464288644 87.81986143183894,190.48346516543825 88.77078521938529,190.28294289692712 91.51443418010604,190.72044572739105 93.32274826784851,190.72044572739105 95.33371824474307,190.33763081146753 97.4538106234977,189.49908088089433 97.75,190.13710837326653 96.03521939954953,190.9391967260308 93.74364896072075,191.52253136472427 91.37413394916803,191.66836471584975 88.45900692843134,191.34023950228584 88.02251732104924,191.85065623118135 87.44572748267092,195.20478569394618 86.21420323319035,195.6605047678313 81.80254041572334,194.913124854138 69.95496535801794,195.15009932406247 66.40069284063065,194.40271719668817 65.96420323324855,197.17348345048958" stroke="#4dd2ff" stroke-linecap="round" stroke-linejoin="round" stroke-width="0.5"><title>2022-10-28 6.2km</title></polyline><polyline fill="none" points="102.25,203.13198201797786 102.50352112681139,199.2410584554018 102.7728873239248,198.53697733704757 103.0264084507362,198.79637597310648 104.95950704225106,198.61109127223608 106.48063380282838,198.77784751181025 109.68133802822558,199.8710233726597 110.33098591543967,199.72279653714213 110.69542253518011,197.74025055272796 110.55281690135598,197.07322069024667 110.07746478874469,196.8508768381871 109.15845070418436,196.92499148689967 108.63556338025955,196.40618828727747 106.94014084507944,196.49883182847407 106.70246478874469,196.72117612748116 106.89260563376592,197.03616340110602 111.75704225356458,198.70373364714033 113.34154929581564,198.98166047790437 120.04401408450212,197.99965036881622 120.10739436623408,198.92607514704287 122.3257042253972,198.77784751181025 123.78345070424257,199.12988794063858 127.50704225350637,198.6666767030838 127.68133802816737,199.01871735534223 129.5193661971134,199.48192766186548 131.00880281685386,199.33370049702353 131.325704225339,199.07430265679432 131.29401408450212,198.29610683101055 131.5475352112553,197.96259327571897 131.35739436623408,197.0546920466586 131.65845070418436,196.36913085707056 133.03697183099575,195.20181779203995 136.91901408444392,195.62798060632485 138.4718309858581,195.55386540880136 140.27816901402548,195.20181779203995 142.35387323936448,194.3680179820076 142.75,195.0165292883903 140.91197183093755,195.8132684630691 138.48767605633475,196.44324570968456 136.602112676017,196.36913085707056 136.26936619717162,196.53588923123607 133.7499999999418,196.10972862606286 133.21126760559855,196.25795851943258 132.87852112675318,196.75823348319682 132.78345070418436,198.37022086814977 132.29225352109643,200.20453329387237 130.977112676017,200.61215566862666 129.83626760559855,200.50098602414073 129.6461267604609,200.16747666735318 129.01232394372346,200.26011821904103 127.42781690141419,199.8895517182682 120.66197183099575,199.98219341694494" stroke="#4dd2ff" stroke-linecap="round" stroke-linejoin="round" stroke-width="0.5"><title>2022-10-20 5.2km</title></polyline><polyline fill="none" points="156.39693877543323,200.58638886126573 157.00306122447364,201.52066688725608 158.6010204080958,201.97169663268141 160.25408163259272,201.35958467345336 164.5520408161683,201.81061465735547 164.85510204092134,201.3273682204308 165.57142857136205,202.10056215143413 166.83877551020123,202.42272571008652 167.74795918364543,202.10056215143413 171.9357142855879,202.51937471114798 173.36836734681856,201.16628590441542 174.2224489795044,201.93948024438578 176.2336734693963,201.45623401194462 178.18979591829702,201.7461818434822 180.64183673472144,201.39180112301256 180.9724489795044,203.74359273718437 181.38571428565774,203.38921434094664 181.4683673469117,201.03741999022895 182.2397959183436,200.48973924672464 186.78571428568102,201.8428310592135 187.75,203.45364680732018 187.08877551031765,200.84412101679482 184.664285714156,195.07731187800528 181.2755102039082,196.26934283203445 180.25612244894728,197.9446216916549 177.66632653062697,198.36343996651703 176.34387755102944,198.36343996651703 175.82040816324297,197.84797123866156 167.55510204075836,197.88018805976026 166.8938775509596,197.39693538605934 163.202040816308,198.10570571169956 162.54081632650923,197.59023654751945 170.64081632648595,196.46264470924507 171.0540816327557,197.23585099112825 170.53061224485282,198.0412721137982 166.64591836731415,197.59023654751945 163.39489795907866,198.10570571169956 162.23775510198902,197.68688708229456 167.9408163264161,196.6237295131723 170.97142857138533,196.52707864099648 171.0265306122601,197.52580284071155 170.58571428561118,198.0412721137982 166.56326530617662,197.59023654751945 163.202040816308,198.073488914466 162.26530612248462,197.7191039203608 164.5520408161683,197.30028475934523 165.26836734684184,197.7513207551092 170.47551020409446,198.20235608279472 170.97142857138533,197.8157544141286 170.9989795917645,196.52707864099648 169.12551020400133,196.36599378602114 160.08877551008482,198.23457286632038 155.9836734692799,197.49358598212712 147.63571428554133,194.69070624216693 147.25,194.17523129767505 147.856122448924,193.7886245167465 150.7765306122601,193.75640726281563" stroke="#4dd2ff" stroke-linecap="round" stroke-linejoin="round" stroke-width="0.5"><title>2022-09-24 5.1km</title></polyline><polyline fill="none" points="49.06818181835115,254.70628721790854 50.668972332030535,253.67683428461896 52.50988142285496,246.75139251316432 45.066205533221364,242.25918508623727 38.9031620551832,249.55901057412848 38.9031620551832,254.2383542151074 42.18478260887787,255.64215248206165 48.988142292480916,255.73573895398295 50.74901185790077,254.61270063719712 52.75,246.37704276520526 45.70652173925191,241.97842136502732 39.06324110692367,249.65259768959368 39.223320158198476,255.08063344238326 43.625494070816785,255.2678064952488 44.98616600828245,256.20367116556736 43.54545454541221,257.6074663149775 14.090909090824425,259.2920175550971 12.890316205564886,260.2278779694461 14.971343873534352,258.63691467628814 45.86660079052672,259.3856036410434 50.5889328061603,258.2625699559576 32.33992094825953,257.6074663149775 33.860671936534345,235.33365395694273 32.98023715429008,235.14647668821272 29.698616601061076,257.9818113120273 12.25,257.7946388332639 12.49011857714504,258.82408697658684 50.74901185790077,259.2920175550971 47.787549406755716,257.6074663149775 44.50592885399237,258.35615615092684 32.25988142332062,257.32670746324584 33.54051383398473,234.77212203061208 30.499011857435107,257.32670746324584 27.85770750977099,258.35615615092684 14.571146245114505,257.7946388332639 14.411067193839699,258.82408697658684 52.669960474129766,259.7599478858756 41.94466403173283,259.3856036410434 50.10869565233588,259.2920175550971 50.10869565233588,258.07539753679885 45.38636363623664,257.70105257915566" stroke="#4dd2ff" stroke-linecap="round" stroke-linejoin="round" stroke-width="0.5"><title>2022-09-22 5.0km</title></polyline><polyline fill="none" points="75.77344701590482,250.61496436118614 77.37667478690855,250.38423033760046 78.56059683323838,251.16295688445098 79.96650426322594,250.9610650303075 83.0003045067424,251.45137355965562 84.60353227774613,250.7303312997101 84.55420219246298,250.2111796917743 84.89951278932858,250.12465432781028 85.4914738124935,251.13411520019872 88.35261875763535,250.78801475063665 89.38855054811575,251.19179856573464 91.55907429964282,250.12465432781028 91.58373934228439,251.04759012896102 91.97838002431672,251.42253190581687 92.22503045073245,249.89391988929128 92.71833130333107,249.57665971753886 97.03471376386005,250.7303312997101 97.75,252.08588917108136 96.4674177832203,247.84614319121465 94.96285018278286,244.64465866063256 92.79232643125579,245.4234016010305 92.12637028028257,244.96192457151483 89.38855054811575,244.5581315298914 86.05876979301684,247.1827756104176 81.27375152264722,247.26930190820713 80.65712545672432,245.9714045591536 76.43940316687804,246.57709075757884 74.95950060908217,246.92319655261235 76.68605359317735,247.70193298486993 83.78958587092347,247.64424888096983 84.89951278932858,247.1827756104176 86.92204628512263,247.1827756104176 88.17996345937718,247.64424888096983 90.74512789293658,247.35582817840623 91.21376370289363,246.14445789600722 90.37515225331299,245.39455930964323 88.94457978080027,245.25034780646092 86.7740560292732,246.43287988004158 85.34348355676048,245.39455930964323 83.39494518889114,245.94256232568296 80.95310596830677,245.88487784954486 80.90377588314004,247.32698609141516 78.90590742998756,246.98088080898742 75.84744214382954,247.4711964960734 74.29354445799254,246.98088080898742 73.23294762487058,247.41351234336616 71.48172959813382,247.35582817840623 61.3690621193964,244.29854997302755 61.96102314267773,243.37559132478782 60.3331303287996,242.91411082891864 59.37119366636034,243.60633127970505 57.25,243.23137875369866 57.64464068214875,243.57748879608698 61.34439707675483,244.01012573111802 64.69884287461173,243.433276331838 65.75943970761728,244.41391958435997 67.09135200979654,244.1831803129171 67.85596833133604,244.47160437167622 67.36266747873742,248.79792863994953 66.67204628500622,248.79792863994953 68.20127892820165,249.46129229085636 67.28867235092912,249.57665971753886 67.06668696715496,250.47075561928796" stroke="#4dd2ff" stroke-linecap="round" stroke-linejoin="round" stroke-width="0.5"><title>2022-09-09 5.2km</title></polyline></svg>