<?xml version="1.0" encoding="utf-8" ?>
<svg baseProfile="full" height="300mm" version="1.1" viewBox="0,0,200,300" width="200mm" xmlns="http://www.w3.org/2000/svg" xmlns:ev="http://www.w3.org/2001/xml-events" xmlns:xlink="http://www.w3.org/1999/xlink"><defs /><rect fill="#222222" height="300" width="200" x="0" y="0" /><text fill="#FFFFFF" style="font-size:12px; font-family:Arial; font-weight:bold;" x="10" y="20">Over 5km Runs</text><text fill="#FFFFFF" style="font-size:4px; font-family:Arial" x="10" y="280">ATHLETE</text><text fill="#FFFFFF" style="font-size:9px; font-family:Arial" x="10" y="290">feng qijun</text><text fill="#FFFFFF" style="font-size:4px; font-family:Arial" x="120" y="280">STATISTICS</text><text fill="#FFFFFF" style="font-size:3px; font-family:Arial" x="120" y="285">Number: 30</text><text fill="#FFFFFF" style="font-size:3px; font-family:Arial" x="120" y="290">Weekly: 1.4</text><text fill="#FFFFFF" style="font-size:3px; font-family:Arial" x="141" y="285">Total: 176.8 km</text><text fill="#FFFFFF" style="font-size:3px; font-family:Arial" x="141" y="290">Avg: 5.9 km</text><text fill="#FFFFFF" style="font-size:3px; font-family:Arial" x="167" y="285">Min: 5.0 km</text><text fill="#FFFFFF" style="font-size:3px; font-family:Arial" x="167" y="290">Max: 10.0 km</text><polyline fill="none" points="26.733423673780635,64.19999999999709 26.978003929951228,61.830449058674276 26.576193509274162,60.54352559002291 24.322561149601825,59.82856440219621 20.059876686660573,59.25659354626259 19.955056576873176,58.25564047251828 20.252046887762845,55.94730034212989 22.01651873521041,55.9881561594957 21.457478149910457,55.86558868146676 21.282777967047878,54.313060559972655 20.863497528014705,54.70119376045477 20.234576869639568,54.272204388238606 20.28698692447506,41.912815626870724 20.51409716217313,41.32036224730837 19.955056576873176,41.60637445059547 19.221315808710642,41.197785458978615 20.409277052385733,39.0526790676231 20.479157125693746,37.60216504948039 21.16048783902079,37.25485725917679 21.457478149910457,41.075208592868876 20.915907582850195,42.72998971941706 21.05566772923339,44.32346925296588 21.26530794869177,44.67076432899921 22.593029338866472,44.52776054979768 23.501470290008,43.77188167181157 22.994839759543538,40.76876608724706 23.815930619253777,39.54299120104406 23.74605054606218,38.9505305497878 23.152069924166426,39.07310876472911 21.94663866213523,38.480646671683644 22.348449082812294,37.86775293815299 23.117129887570627,37.88818276065285 24.14786096685566,38.398927619608 24.532201369293034,38.174200048160856 24.671961515559815,38.41935738583561 25.842452740995213,35.497878862996004 25.720162612968124,33.74088447786926 25.23100210085977,32.29033055224863 24.829191680066288,31.80000000000291 23.920750729041174,32.26990013739851 23.5364103266038,33.06668471303419 24.060510875307955,32.453773792862194 23.903280710685067,33.270987920681364 24.252681076526642,33.802175248813 24.654491497203708,33.90432649049035 25.23100210085977,33.35270914321882 25.580402466701344,33.45486062276177 25.82498272275552,34.45594226173125 25.720162612968124,36.049490081350086 24.532201369293034,38.37849785121216 21.405068095074967,41.21821492907475 20.95084761956241,42.66870178245881 21.21289789385628,44.73205163050443 21.841818552464247,45.140633143571904 24.043040856951848,44.93634249510069 25.265942137455568,45.140633143571904 26.27920319826808,45.85564871113456 27.641864624922164,45.8352197316417 29.56356663699262,46.8770949292375 31.450328612467274,47.14267006084265 34.612401923164725,46.8770949292375 35.13650247186888,47.42867364035919 36.70880411809776,47.48996006649395 36.77868419117294,49.18554347829195 36.42928382544778,50.57468505774159 36.07988345960621,50.49297112379281 35.74795311212074,51.20796687340771 36.01000338641461,52.45409599531558 35.38108272792306,55.620453492039815" stroke="#4dd2ff" stroke-linecap="round" stroke-linejoin="round" stroke-width="0.5"><title>2023-05-06 6.0km</title></polyline><polyline fill="none" points="56.2514104367001,64.18660221645405 55.88515509542776,63.972237486399536 56.29719235439552,63.62389402318513 57.18993974867044,64.19999999999709 57.55619508988457,64.15980664513336 57.71643180173123,63.23535594869463 57.579086048703175,61.868764249258675 58.04835070471745,61.07827797857317 57.99112330767093,60.82371354880161 60.78382028470514,58.720187810664356 62.52353315567598,56.63002558140579 63.38194411166478,54.23165573579172 63.645190138195176,49.381181806355016 63.885545205906965,49.099794997266144 63.816872329451144,48.42982387729717 64.2518005471793,46.79507940723124 65.44213040621253,44.61092052827735 68.4065095745027,41.63611568383931 69.53961203648942,39.70647501593339 70.52392326603876,34.96264950461773 72.11484490463044,31.799999999995634 70.48958682786906,35.04305481378833 69.59683943359414,39.43846703207964 69.17335669527529,40.470294644648675 68.1432635479141,41.93091929666116 65.45357588568004,44.54392119166005 64.30902794422582,46.607484424093855 63.816872329451144,48.41642441860313 63.96566356177209,48.88540462611854 63.63374465884408,49.5151753042519 63.46206246758811,53.82968984703621 62.63798794976901,56.45584383224195 62.0542684996617,57.38034421271732 61.00128439354012,58.51921217821655 58.05979618412675,60.81031540670665 57.659204404684715,60.662935749562166" stroke="#4dd2ff" stroke-linecap="round" stroke-linejoin="round" stroke-width="0.5"><title>2023-05-04 6.1km</title></polyline><polyline fill="none" points="84.78439609898487,54.10357909866434 85.11252813198371,50.45149554776435 85.20975243812427,50.1957038747787 85.47711927979253,50.16728254768532 85.22190547629725,50.05359717932879 85.16114028502489,49.499379630811745 85.48927231802372,45.250302466665744 85.76879219803959,45.07976813650748 86.78964741178788,45.27872483397368 88.34523630904732,45.250302466665744 90.44771192793269,46.017704273341224 91.35918979742564,46.145604148245184 91.66301575390389,44.41183992558217 91.45641410344979,43.91444441968633 90.54493623401504,43.94286706960702 90.09527381841326,43.45968120252655 88.74628657160792,43.530738056710106 88.23585896473378,43.30335599105456 87.60390097525669,43.54494942301244 86.7774943736149,43.54494942301244 85.23405851458665,42.74911059363512 84.50487621902721,42.89122501609381 83.79999999998836,42.592784555235994 83.81215303821955,43.189664813893614 84.57779444858897,43.31756738142576 84.7114778694231,42.777533490167116 85.29482370585902,42.82016782365099 86.63165791449137,43.54494942301244 87.71327831957024,43.74390839366242 88.43030757689849,43.55916078781593 88.85566391592147,43.999712351476774 92.10052513127448,45.15082413372875 93.61965491372393,45.47768123677815 94.05716429109452,45.53452586916683 94.70127531886101,45.2360912807635 95.62490622652695,45.47768123677815 96.77944486122578,45.2360912807635 97.3506376593723,45.3639918997942 97.83675918978406,45.16503532863862 98.3836459114682,45.406625412462745 100.96009002247592,45.32135837365058 101.78649662411772,45.57715932770225 103.02610652660951,45.47768123677815 103.48792198044248,45.15082413372875 104.59384846210014,45.15082413372875 104.97059264814015,45.49189239714178 106.36819204798667,45.81874867033912 107.44981245312374,45.60558162583038 107.63210802699905,44.55395258903445 107.47411852964433,44.15603675258171 107.7050262565026,43.48810394870816 108.78664666163968,42.550150149530964 112.76069017255213,42.848590705150855 114.4499624906457,42.52172720490489 115.93263315828517,41.89642090133566 116.19999999995343,42.4222468513035 115.00900225061923,42.99070502235554 112.91867966990685,43.502315319521585 111.22940735187149,43.58758351295546 108.9446361589944,43.37441292789299 108.61650412599556,43.80075375971501 108.50712678168202,45.2360912807635 108.19114778691437,46.372981403037556 107.00015003752196,46.7851016962959 104.46016504126601,46.17402632615995 95.40615153789986,46.35877033586439 93.30367591895629,46.046126478308" stroke="#4dd2ff" stroke-linecap="round" stroke-linejoin="round" stroke-width="0.5"><title>2023-04-26 7.0km</title></polyline><polyline fill="none" points="119.79999999998836,51.457923796217074 120.25378151255427,50.520498298545135 120.04201680666301,49.86606606235728 120.08739495789632,47.619752145095845 120.25378151255427,47.106810089040664 120.60168067220366,46.92993315313652 124.80672268907074,47.31906216518837 127.25714285712456,48.344943401316414 127.96806722681504,48.27419317334716 129.17815126042115,48.6279440139333 129.7529411764117,49.034756555454805 130.28235294111073,48.910944147617556 131.20504201675067,49.22931872541085 133.59495798317948,49.070131512286025 134.66890756296925,49.742254270095145 135.48571428569267,49.423880668968195 136.4689075629576,49.742254270095145 137.33109243691433,49.56538012206147 138.0268907562713,49.10550646160846 138.63193277304526,49.636129803722724 140.2504201681004,49.388505786977476 140.96134453779086,49.54769269700046 143.0638655461953,48.6279440139333 143.95630252099363,48.7163816071843 145.49915966385743,49.3354434499488 145.96806722687325,48.75175663133268 147.042016806663,48.910944147617556 148.47899159655208,48.38031850410334 148.79663865541806,47.51362633159442 149.02352941170102,45.2319050476799 149.3109243697254,44.772019467971404 150.02184873947408,44.542076203768374 151.08067226881394,44.860459100833395 152.19999999995343,44.860459100833395 149.82521008397453,44.55976415843179 149.2957983193337,44.736643601791 148.9781512604677,45.14346561137063 148.47899159655208,48.415693599396036 146.9210084033548,48.946319130656775 143.4722689075279,48.13269262750691 131.49243697471684,48.344943401316414 129.7529411764117,48.06194230969413 123.58151260495652,46.20473575951473 120.87394957977813,46.29317463444022 123.4907563024899,46.45236449150252 123.67226890753955,46.2754868632328 124.12605042010546,46.47005224401073" stroke="#4dd2ff" stroke-linecap="round" stroke-linejoin="round" stroke-width="0.5"><title>2023-04-20 5.0km</title></polyline><polyline fill="none" points="163.21629559603753,63.14080635505525 163.38181766396156,64.05791358331771 163.22733040060848,63.683321325457655 163.33767844579415,63.8770760856205 164.5515069438843,64.19999999999709 165.3460128698498,63.79957421861036 165.7543006374035,62.83079671407177 165.87568348710192,62.779128363748896 166.0963795777643,63.127889302435506 166.58191097690724,63.08913813641993 166.90192030824255,62.46911780093069 166.76950265391497,60.7898801868796 167.2329644440906,60.00192223761405 167.11158159421757,59.80816130416497 170.4771969752037,57.12131120736012 171.5917122324463,55.635767642037536 172.3641485493863,53.181351557512244 172.55174022633582,49.16375305408292 172.6400186625542,48.65992908374028 172.84967994858744,48.53074311402452 172.71726229425985,48.02691652075737 173.05934123462066,46.59293709760823 174.32834375533275,44.21585287152993 175.26630214013858,43.10480843683035 176.94359242828796,41.606174277796526 177.93672483577393,40.19795810330106 178.33397779881489,39.24191213787708 179.3381450108136,34.47448962149792 180.78370440390427,31.799999999995634 179.249866574537,34.952532291768875 178.41122143046232,39.0222788946121 177.98086405394133,40.21087759189686 176.6346179015818,42.00667314632301 174.50490062771132,43.957471350891865 173.1807240844355,46.347479465090146 172.7945059259655,47.93648588559881 172.86071475310018,48.65992908374028 172.61794905352872,48.982893407475785 172.3641485493863,53.64640261948807 171.62481664604275,55.700356870023825 169.9364915533224,57.767194054002175 167.24399924860336,59.82107870931213 167.28813846671255,60.04067438728089 166.96812913543545,60.57028586166416" stroke="#4dd2ff" stroke-linecap="round" stroke-linejoin="round" stroke-width="0.5"><title>2023-04-17 6.5km</title></polyline><polyline fill="none" points="11.987355435558129,96.05149689856626 11.799999999988358,95.89084770741465 11.799999999988358,95.45271259979927 12.59938319196226,85.46285494448966 12.811719352321234,84.77639081771486 13.76098689273931,85.03929237592092 14.298072474892251,84.87863037205534 15.559599074767902,84.98086985068221 18.0326908249408,85.82799404692196 18.43238242098596,85.71114963920263 20.106090979126748,86.33918716793414 20.218504240503535,86.73353485381813 20.79306090978207,86.89419469924178 21.592444101755973,86.58748028668924 23.366075558995362,86.85037839632423 23.765767154982314,86.64590213206247 24.477717810310423,87.09867059576209 25.364533538930118,86.96722183993552 26.67602158826776,87.18630303016107 27.462914417905267,86.80656207946595 27.42544333077967,86.52905841654865 27.700231302995235,86.51445294514997 27.9250578256906,87.05485435771698 28.649498843413312,87.11327600537334 29.336468774068635,86.90880013046262 30.03592906706035,87.08406518463744 30.910254433285445,86.61669121244631 30.960215882747434,87.04024894193572 31.172552043106407,87.18630303016107 31.747108712384943,87.05485435771698 32.13430994597729,86.33918716793414 33.857979953696486,86.96722183993552 33.845489591301885,86.54366388639028 34.89468003081856,86.58748028668924 36.05628373159561,86.13471014665265 36.51842713949736,83.33042329890304 36.85566692362772,83.00909512699582 37.30531996907666,82.86303661977581 39.091441788710654,83.24278841707564 39.478643022303004,83.08212432262371 41.1398612181074,83.18436513165943 42.176561295229476,82.96527759103628 44.199999999953434,82.10352989145031 43.91272166534327,81.54850310143956 42.25150346948067,82.19116549640603 40.40292983799009,82.49788967575296 36.605859676143155,82.14734770088398 35.45674633764429,83.14054765133187 35.25690053967992,83.87083717421046 35.45674633764429,84.30900903367728 35.18195836542873,85.31679903315671 33.857979953696486,85.55048841715325 33.19599074788857,85.41903818733408 32.37162683112547,84.86402472609188 31.122590593644418,84.83481342947925 30.62297609867528,85.15613735222723 29.523824209696613,85.27298222960962 28.624518118682317,85.0538980033889 25.751734772522468,85.08310925359547 25.539398612105288,84.51348875890835 25.664302235876676,84.42585462804709 27.21310717036249,84.35282614317839 27.937548188085202,84.92244730076345 27.825134926708415,85.03929237592092 25.127216653781943,85.0538980033889 25.16468774090754,84.6595455200586 24.952351580490358,84.52809444196464 21.3051657670876,85.18534858080966 19.256746337690856,84.77639081771486 15.709483423270285,83.40345232459367 15.234849653032143,83.41805812508392 15.059984579798765,83.22818259803171 15.584579799498897,82.97988343788893 16.13415574404644,83.24278841707564 17.50809560518246,83.16975930641638 17.882806476438418,83.60793339098745 18.182575173443183,83.60793339098745" stroke="#4dd2ff" stroke-linecap="round" stroke-linejoin="round" stroke-width="0.5"><title>2023-04-07 7.0km</title></polyline><polyline fill="none" points="47.79999999998836,92.56936367906746 47.91444270015927,89.74424695034395 48.219623234006576,88.30192862097465 51.09340659348527,88.58444574799796 54.04348508641124,89.41712450321938 54.29780219780514,88.86696230711823 57.52762951335171,89.58068582195847 67.30612244899385,89.41712450321938 70.68854003137676,90.1011069334345 71.85839874407975,89.74424695034395 72.31616954470519,86.9934208374907 72.68492935638642,86.53246633040544 74.96106750390027,86.77037852280773 75.40612244897056,86.60681393384584 77.02103610668564,86.71090051249485 80.20000000001164,85.61055278099957 80.00926216639346,85.0306363209238 76.66499215067597,86.02690158436599 75.17723704862874,86.0566407374281 72.46875981159974,85.67003125697374 71.32433281000704,86.71090051249485 71.0318681318895,88.92643940511334 69.83657770801801,89.14947829842276 68.97189952904591,89.00078574218787 67.94191522768233,88.39114461718418 66.81020408164477,88.42088326998055 66.37786499218782,88.73313874463202 65.2843014128739,88.8074851839483 64.57221350085456,88.8074851839483 64.22888540028362,88.58444574799796 61.5712715855916,88.67366156486969 61.30423861858435,88.55470712977694 61.04992150707403,87.9896721883706 56.94270015700022,88.74800803566177 54.76828885404393,88.36140595805773 50.90266875986708,86.93394292150333 48.09246467822231,87.0826376642508 48.01616954477504,86.0566407374281 49.275039246538654,86.7406395207945 51.207849293597974,86.84472600038862" stroke="#4dd2ff" stroke-linecap="round" stroke-linejoin="round" stroke-width="0.5"><title>2023-04-04 6.0km</title></polyline><polyline fill="none" points="87.5752918953076,101.86453934025485 108.31293420121074,103.1187242011074 115.28507256228477,82.4245722363703 98.12288582604378,74.48130484693684 85.78756411094218,88.48651797755156 85.25124577526003,100.61035368428566 92.40215691458434,104.37290826567914 110.99452587775886,101.0284156583948 114.39120867010206,84.72393315436784 100.44693194702268,73.85420342977159 85.25124577526003,90.57683978404384 86.32388244569302,103.1187242011074 110.6369803212583,102.70066266926005 114.74875422660261,83.26070378883742 100.80447750445455,73.43613570870366 92.40215691458434,79.70714224805124 85.25124577526003,89.94974347425159 85.07247299607843,101.65550845314283 105.27379696629941,105.0 111.53084421437234,102.28260104951914 114.56998144742101,83.26070378883742 100.26815916784108,73.43613570870366 85.78756411094218,89.32264696492348 85.07247299607843,102.07357020606287 102.41343251056969,104.16387764341198 110.27943476475775,101.86453934025485 114.74875422660261,82.21553929254878 99.19552249740809,73.01806789857801 85.60879133176059,89.53167915705126 85.78756411094218,102.49163187039085 96.69270359911025,104.16387764341198 111.53084421437234,101.4464775432134 114.74875422660261,83.05167093372438 99.19552249740809,72.59999999997672 85.43001855444163,89.53167915705126 85.96633688919246,102.70066266926005 107.24029752984643,103.74581633321941 111.17329865694046,101.65550845314283 114.56998144742101,82.00650632742327 100.08938639052212,73.01806789857801 86.14510966744274,88.48651797755156 84.71492743864655,101.65550845314283 110.27943476475775,102.49163187039085 113.85489033348858,82.63360515749082 100.44693194702268,73.43613570870366 91.68706580065191,79.70714224805124 85.78756411094218,89.53167915705126 85.60879133176059,102.70066266926005 104.91625140886754,104.16387764341198 110.6369803212583,101.65550845314283 114.03366311173886,82.00650632742327 99.73184083309025,73.22710181423463 88.46915578749031,84.09683498775121 84.71492743864655,101.86453934025485 90.7932019084692,104.37290826567914 110.45820754300803,102.70066266926005 114.56998144742101,83.67876943189185 101.16202306188643,73.43613570870366 92.40215691458434,79.91617545706686 85.25124577526003,90.36780770251062 84.71492743864655,101.86453934025485 88.82670134492218,103.95484699925873" stroke="#4dd2ff" stroke-linecap="round" stroke-linejoin="round" stroke-width="0.5"><title>2023-03-30 5.2km</title></polyline><polyline fill="none" points="151.88338762207422,101.48485595620878 152.20000000001164,98.85815048775112 150.13448115403298,98.17061671777628 146.32005583989667,97.64174265714246 146.0939041414531,97.43019256299885 146.289902280143,94.71527585446893 147.25481619354105,94.50372204591986 147.99357840855373,87.45177475977107 147.66188925079769,87.2931025132566 147.34527687297668,87.55755617347313 146.30497906001983,87.48703523846052 146.56128431827528,87.4341445176251 146.32005583989667,87.20495119993575 142.73178222426213,88.10409240820445 141.2693345741718,88.06883206006023 140.3948813401512,87.27547225433227 139.2641228478169,85.10693618097866 137.30414146120893,83.46729261042492 136.76137738476973,83.3438779253629 136.48999534663744,82.88547972346714 133.565100046515,82.26840322963835 131.13773848296842,81.12239796416543 130.56482084683375,79.72955018450739 130.4291298277676,78.21327227684378 129.63006049318938,77.17302712742821 128.36361098184716,76.96145104806055 124.54918566771084,77.66670360128046 123.8255002326332,77.49039074280881 122.24243834341178,76.27382693454274 121.48859934852226,76.1151440438116 119.79999999998836,76.30908977861691 121.80521172634326,76.16803835752944 123.55411819450092,77.29644638301397 124.54918566771084,77.64907232380938 128.3033038622234,76.99671374661557 129.56975337362383,77.19065845529258 130.3838994880789,78.24853471046663 130.54974406701513,79.78244335086492 131.13773848296842,81.14002887408424 133.27864122850588,82.21551085243118 136.36938110744813,82.81495681127126 136.80660772451665,83.39676994447655 137.30414146120893,83.48492327223357 138.64597487199353,84.48986791331845 139.50535132619552,85.51243694133882" stroke="#4dd2ff" stroke-linecap="round" stroke-linejoin="round" stroke-width="0.5"><title>2023-03-28 5.0km</title></polyline><polyline fill="none" points="159.05365168536082,92.00602974105277 159.34943820221815,89.07940414582845 159.17879213480046,88.58719224134256 158.89438202243764,88.41425246615108 157.59747191006318,88.74682874577411 157.50646067410707,88.49407085349958 155.79999999998836,88.0949784102122 155.89101123594446,87.68258155483636 157.74536516855005,88.16149390537612 162.06839887640672,88.17479700019612 166.09564606734784,89.3986757024104 168.30266853928333,89.77115816056903 177.00561797752744,89.61152295646025 179.8042134831776,90.18354816664942 180.77120786509477,89.7977640082172 181.2262640449335,87.38991199829616 181.55617977527436,86.9775128305846 183.70632022467908,87.23027377122344 183.85421348310774,87.04402891686914 185.66306179773528,87.11054496795259 188.20000000001164,86.19262035543215 188.0634831460775,85.5939702589385 186.24325842695544,86.29904674088175 184.85533707862487,86.52520251085662 183.3650280899019,86.4985959708356 181.63581460673595,86.17931705092633 181.20351123588625,86.29904674088175 180.30477528087795,87.04402891686914 180.0772471909877,87.66927840792778 180.13412921340205,88.30782787089265 179.62219101120718,88.33443402815465 179.25814606738277,88.74682874577411 179.24676966294646,89.1326161282268 178.89410112350015,89.30555491548148 178.07500000001164,89.01288913616736 177.7678370786598,88.26791862447135 177.17626404488692,87.98855354476109 176.3571629213402,88.16149390537612 175.8224719100399,88.90646504756296 174.90098314604256,89.05279814620008 174.3094101123279,89.05279814620008 173.99087078653974,88.83994994645764 171.39705056179082,88.8798590113438 171.15814606740605,88.26791862447135 168.7235955055803,88.65370747615088" stroke="#4dd2ff" stroke-linecap="round" stroke-linejoin="round" stroke-width="0.5"><title>2023-03-26 5.6km</title></polyline><polyline fill="none" points="44.20000000001164,141.4014291352214 43.2779446640634,141.41640431388805 40.90877470362466,140.63769292306097 40.58861660078401,140.8772968842386 39.37201581028057,140.84734641123214 36.65707509883214,141.3115780300286 35.41486166010145,141.3115780300286 34.72332015814027,140.80242068988446 33.77565217396477,138.78074847251992 32.072411067259964,137.40299975090602 31.611383399227634,137.2831948804378 31.380869565240573,136.8638770353864 28.947667984175496,136.3996308293281 26.860237154120114,135.36630316224182 26.347984189691488,134.1981845413393 26.232727272668853,132.94019986015337 25.63083003956126,132.0566086967592 24.4014229249442,131.84694218718505 21.276679841859732,132.41603627626318 20.559525691729505,132.2812510408985 18.164743083005305,130.49907863760018 18.318418972368818,129.79518923723663 17.396363636420574,127.75838316512818 17.140237154089846,127.60861685579584 17.127430830034427,126.99457333036116 16.71762845851481,126.51531799585791 16.627984189777635,125.93122336246597 16.435889328073245,125.66164041084994 15.731541501940228,125.42201068939175 15.308932806365192,124.74804992220015 15.180869565228932,124.47846471665252 15.65470355731668,124.23883299158479 13.15747035574168,120.4346250002709 11.799999999988358,117.75364533354877 13.003794466436375,120.1949864270282 16.307826086995192,125.34712631818547 16.205375494027976,125.5867561664927 17.08901185769355,126.90471307879488 17.076205533579923,127.68350003028172 17.42197628458962,127.86321948739351 18.331225296482444,129.88504765348625 18.1135177865508,130.43917329303804 18.54893280635588,130.6188892506907 18.881897233251948,131.11310695763677 20.533913043502253,132.23632260062732 21.135810276668053,132.37110787870188 24.388616600830574,131.84694218718505 25.592411067220382,132.1165133567265 26.194308300386183,132.83536729868501 26.283952569181565,134.0484250465379 26.847430830064695,135.36630316224182 28.640316205564886,136.3097765490529 31.368063241126947,136.87885269409162 31.713833992078435,137.373048542795 32.008379446633626,137.373048542795 33.77565217396477,138.78074847251992 34.736126482253894,140.6526681825344 35.42766798421508,141.3265532181831 36.41375494078966,141.41640431388805 38.79573122528382,140.83237117239332 39.44885375490412,141.20675166852016 39.820237154199276,140.8772968842386 40.57581027672859,140.84734641123214 40.767905138316564,140.59276713521103 43.021818181849085,141.44635466646287 43.84142292494653,141.37147877318785" stroke="#4dd2ff" stroke-linecap="round" stroke-linejoin="round" stroke-width="0.5"><title>2023-03-18 7.0km</title></polyline><polyline fill="none" points="47.79999999998836,130.77253348428349 49.91375041817082,130.70915575591061 53.989494814304635,131.90065143984975 55.7238541317638,132.20486120509304 64.20053529611323,132.09078263362608 66.85627300100168,132.6992004263593 67.87520910002058,132.2302119839951 68.2437604549923,130.0373497743276 68.53643358987756,129.64440490704146 71.86423553031636,129.75848580772436 73.42515891604125,129.45426983122888 74.99692204751773,128.83315981404303 74.83432586153504,128.27542562630697 76.90471729676938,127.09656982237357 80.04824355972232,126.50079957365233 80.20000000001164,126.60220748479333 78.21632653067354,126.71629128218046 76.87219805951463,127.07121795723651 74.06470391439507,128.6303476825342 72.72057544329436,129.0232958755514 71.05125460017007,129.1627287955489 68.65567079291213,128.79513256554492 68.27627969218884,128.8838627932928 67.37658079626272,129.73313450584828 67.18146537302528,130.35423985762463 67.3332218133146,130.70915575591061 67.2248243559734,131.44433534378186 66.92131147545297,131.72319538676675 65.8806958849309,131.81192344614828 64.55824690527515,130.58240019861114 63.61518902645912,130.68380465517112 63.10572097694967,130.27818631406262 62.68297089327825,130.2021327222028 62.28190030111,130.34156427036214 61.794111743045505,130.9246398955147 61.51227835397003,130.94999094530795 60.98113081295742,131.39363344805315 60.10311140847625,131.44433534378186 59.918835730990395,130.82323564280523 56.82950819673715,131.1527991503899" stroke="#4dd2ff" stroke-linecap="round" stroke-linejoin="round" stroke-width="0.5"><title>2023-03-14 5.6km</title></polyline><polyline fill="none" points="113.37557603686582,135.67472785817517 112.28064516128507,135.52923174458556 110.20276497694431,134.84539794905868 108.70967741933418,135.25278870473267 108.39861751155695,134.9908947860531 105.82304147467948,135.60197982062527 105.02672811062075,135.55833097960567 104.20552995393518,134.87449732875393 103.07327188941417,132.69202676413988 101.77926267281873,131.2515772182669 100.90829493082128,130.9169251639396 98.10875576036051,130.53862186108017 96.60322580643697,129.72381121257786 96.00599078339292,128.4433847246837 95.81935483869165,127.06109274695336 95.32165898615494,126.46452033775859 94.33870967745315,126.27536269195843 90.82995391706936,126.79918322751473 89.12534562213114,125.6787868738611 86.79861751146382,125.75154016102897 86.59953917050734,124.55838139119442 86.56221198150888,125.78064146505494 84.6087557603023,125.91159725717444 83.79999999998836,123.52527214182192 84.4594470045995,125.6787868738611 84.78294930869015,125.96979979141906 88.66497695847647,125.64968554825464 89.20000000001164,125.78064146505494 90.38202764972812,126.63912716448249 91.07880184333771,126.8137337694643 94.4506912442157,126.33356507222925 95.37142857146682,126.58092491350544 95.8566820276319,127.20659782002622 95.9935483870795,128.4433847246837 96.50368663592963,129.66561026716954 98.14608294924255,130.59682243695715 100.8460829492542,131.1206265114015 101.21935483871493,131.62987855992105 101.64239631337114,131.71717872170848 103.25990783405723,132.997574728186 104.24285714287544,134.85994763967756 104.84009216586128,135.55833097960567 106.3953917050967,135.66017825370363 107.09216589858988,135.31098728564393 108.9211981567205,134.97634510925855 109.92903225804912,135.07819281434058 110.06589861749671,134.87449732875393 112.55437788018025,135.67472785817517 116.19999999995343,135.52923174458556" stroke="#4dd2ff" stroke-linecap="round" stroke-linejoin="round" stroke-width="0.5"><title>2023-03-12 6.0km</title></polyline><polyline fill="none" points="150.80520179367159,135.41071544428996 146.91139013448264,134.44229561215616 146.75156950671226,134.6971435025771 145.83623318385798,134.39132598554716 145.25506726454478,134.9519909885712 145.13883408071706,134.64617395686219 141.91336322872667,135.30877678957768 140.86726457398618,135.18984827732493 140.0826905829599,134.37433610638254 138.46995515696472,131.5370010764891 137.3076233183965,130.34768405774958 135.9854708519997,129.87195478387002 132.86170403589495,129.4471953127795 131.11820627795532,128.44475850620074 130.56609865475912,127.06852151086787 130.47892376681557,125.59032789610501 129.8541704036179,124.75777607662894 128.41578475339338,124.50291241177183 124.68179372197483,125.11458452785155 124.18780269060517,125.02963020662719 123.75192825112026,124.50291241177183 122.48789237672463,123.78929199800768 121.92125560541172,123.68734596573631 119.79999999998836,123.87424697546521 122.34260089683812,123.7553099944198 124.1442152466625,124.9276849618036 128.50295964127872,124.4519396302785 129.75246636767406,124.72379427803389 130.46439461881528,125.74324510799488 130.56609865475912,126.98356822336791 131.08914798207115,128.30883438959427 132.99246636766475,129.36224328365643 136.18887892377097,130.00787757738726 136.5666367712547,130.50059673926444 137.07515695074107,130.56855788435496 139.00753363227705,132.1656365138915 140.12627802690258,134.39132598554716 140.9689686098718,135.1558686862263 142.1603587443824,135.27479722363933 143.4970403587795,134.83306221207022 143.7295067263767,135.1218890878663 144.65937219728949,134.6631638071849 146.8387443945976,134.47627535424544 149.7591031389311,135.51265403426078 152.20000000001164,135.32576656984747" stroke="#4dd2ff" stroke-linecap="round" stroke-linejoin="round" stroke-width="0.5"><title>2023-03-05 5.0km</title></polyline><polyline fill="none" points="185.54958263773005,129.4841899539606 185.72988313867245,130.07440227494226 187.58697829721496,129.7160592884611 188.00166944914963,130.9807963665953 187.92954924877267,131.61316189767967 183.11552587652113,132.94112298599794 179.99632721219677,134.3955464126193 176.9853088480886,136.46123101958074 174.87579298834316,133.1519096470729 173.54156928230077,132.0347378043516 160.9926544240443,129.21016221120954 160.8484140234068,128.85181767161703 161.5515859767329,126.89145085198106 161.35325542581268,126.49094343192701 161.58764607692137,125.4580521624448 155.80000000004657,122.54906432390271 161.56961602682713,125.39481374768366 160.23539232066832,129.16800406349648 159.7485809683567,131.6342407142365 160.5058430719655,129.80037534319854 160.9926544240443,129.5052689955628 171.73856427392457,131.6553195284796 174.316861435771,132.83572957184515 176.5886477463646,136.65093567609438 181.31252086814493,133.76318970444845 183.3859766278183,132.8778869441885 188.20000000006985,131.54992543479602 187.58697829721496,128.78858033311553" stroke="#4dd2ff" stroke-linecap="round" stroke-linejoin="round" stroke-width="0.5"><title>2023-02-22 5.0km</title></polyline><polyline fill="none" points="11.799999999988358,174.15449598304986 12.003453689161688,170.52643906070443 12.283202511724085,170.0208827116585 15.18241758242948,170.16957594425185 18.50125588697847,171.4037237039447 19.632967032957822,171.47806960843445 20.14160125592025,171.82006026282033 20.599372056487482,171.67136877622397 22.773783359501977,171.9984898391558 23.320565149129834,171.90927507929155 24.1216640502098,172.26613377890317 24.83375196228735,172.14718097970763 26.35965463105822,172.3404792273068 27.37692307686666,171.76058368703525 27.415070643590298,172.0579663142271 27.821978021936957,172.23639558856667 28.432339089456946,172.28100287173584 28.96640502352966,172.07283542909136 30.009105180448387,172.25126468451344 30.75934065930778,171.53754630373442 31.191679748822935,171.4632004306768 33.40423861844465,171.9687515921105 33.569544740894344,172.1620500850986 33.65855572995497,171.62676129952888 34.68854003131855,171.68623793199367 35.832967032911256,171.34424695199414 36.21444270008942,169.88705866783857 36.30345368915005,168.56368070770986 36.81208791205427,168.07298683679255 37.981946624757256,168.31089923056425 41.338932495971676,168.2960297177342 44.199999999953434,167.18081177340355 43.882103610550985,166.64550401695305 42.48335949762259,167.19568140417687 40.61412872839719,167.59716084106185 39.39340659335721,167.6269000129978 36.545054944988806,167.2551599116705 35.31161695445189,168.22168213008263 35.07001569849672,168.9651562369836 35.17174254311249,169.54506331028824 34.30706436414039,169.8424506249139 34.09089481947012,170.52643906070443 33.683987441065256,170.70487027919444 32.933751962322276,170.5859161587141 32.056357927736826,170.03575204202207 30.86106750392355,170.0208827116585 30.365149136574473,170.3331383184559 28.724803767632693,170.43722336656356 28.381475667119958,170.19931457191706 24.52857142861467,170.24392250159872 23.80376766086556,170.1398373103293 23.44772370485589,169.8127119217679 20.87912087904988,170.36287691145844 18.84458398737479,169.97627471121086 15.055259026703425,168.57855019220733 13.12244897952769,168.2960297177342 16.784615384589415,168.26629068743205" stroke="#4dd2ff" stroke-linecap="round" stroke-linejoin="round" stroke-width="0.5"><title>2023-02-10 5.9km</title></polyline><polyline fill="none" points="55.270429874013644,176.7090479265753 55.31263569253497,172.250880698557 56.77577073377324,172.26733173508546 59.20963960047811,172.89246983280464 60.54615718621062,172.4976460634498 61.09483282675501,170.83608504850417 61.19331306981621,169.37192250876979 61.615371254854836,168.91128425222996 64.0492401215015,169.25676307258254 64.51350412500324,169.02644394429808 66.80668693000916,169.05934669780254 69.14207555359462,168.31903306023742 73.2360399478348,166.26258779624186 77.92088580114068,165.62097130755137 80.19999999995343,164.76547853756347 80.07338254444767,164.86418948200298 79.84828484582249,164.46934532825253 79.89049066428561,164.09095207342762 79.13078593136743,164.5187009023357 77.17524967429927,165.0122557811701 76.33113330439664,165.04515938404074 76.1341728180414,164.7983821926755 73.51741207117448,165.27548440931423 71.78697351273149,165.9171023236413 68.93104646104621,167.54581283137668 66.83482414245373,168.20387284430035 64.27433782018488,168.3848388595943 62.23438992613228,168.00645513285417 61.221450282260776,168.03935810210533 60.06782457657391,169.02644394429808 59.80052105942741,169.7832055134204 59.88493269647006,170.53996339977311 59.26591402513441,170.53996339977311 58.815718627825845,170.96769448919804 58.717238384648226,171.60928891740332 58.2529743812629,171.82315313856816 57.32444637425942,171.47768001972872 56.98679982626345,170.58931704708084 56.12861485022586,170.14513365762832 55.157881024701055,170.42480482855171 54.62327399040805,171.26381532344385 53.469648284837604,171.47768001972872 52.61146330862539,171.49413113800983 52.316022579267155,171.24736418075918 48.01102909242036,171.2144618901948 47.79999999998836,171.03349916772277 48.10950933559798,170.6715730910364 50.41676074679708,170.5070609595423 50.68406426400179,171.34607101061556 51.82362136337906,171.26381532344385 52.76621797651751,170.65512188573484 53.638471558806486,170.72092669658014 54.046461137593724,170.22738993656822 54.52479374728864,170.21093868429307 55.29856708634179,171.04995033305022 56.33964394259965,171.00059683193103 56.9586626139353,171.51058225455927 58.23890577501152,171.8560553003481 59.659834997786675,171.65864222528762 60.025618758110795,170.45770728614298 60.06782457657391,171.5434844824631 59.57542336086044,171.93831067430438 57.77464177162619,171.69154442187573 57.3385149804526,171.49413113800983 56.846113764622714,170.47415851235564 54.14494138077134,169.6844976914581 53.469648284837604,169.8490106931713 51.795484151050914,171.2144618901948 50.95136778114829,171.1980107423442 50.51524099003291,170.55641461726918 50.90916196262697,170.30964617204154 51.59852366481209,170.30964617204154 52.175336517510004,170.81963386062125 53.582197134091984,170.72092669658014 54.21528441156261,170.27674368307635 54.80616587062832,170.7538290915545 55.32670429866994,170.408353597144 56.24116369948024,170.22738993656822" stroke="#4dd2ff" stroke-linecap="round" stroke-linejoin="round" stroke-width="0.5"><title>2023-02-05 7.1km</title></polyline><polyline fill="none" points="84.1850594227435,175.4603028661586 84.47843803052092,172.81231827873125 84.68930390494643,172.73727317291196 86.21120543294819,172.9838497405217 86.75212224107236,172.89808404592623 88.18234295415459,173.5091630361203 88.79660441423766,173.57348692599044 89.08998302207328,172.2977221514011 88.86994906619657,171.85816922335653 88.23735144309467,171.86889004917612 87.93480475380784,171.56870649786288 86.22954159590881,171.71879838465247 85.21188455005176,171.54726478159137 84.73514431237709,171.1827549110094 83.86417657049606,171.02194131598662 83.79999999998836,171.6759150111102 83.86417657049606,171.05410405539442 84.1758913412923,171.03266223024548 84.34091680817073,171.16131311309437 84.3225806451519,171.6115899167562 84.49677419353975,171.8903316973665 86.6421052631922,171.71879838465247 89.04414261458442,172.6943902303683 90.63022071309388,173.06961536251765 91.60203735146206,172.90880476171878 92.22546689305454,173.1553809119505 92.87640067911707,173.1017774520442 93.63735144311795,173.25186706826207 95.48013582342537,172.96240832364856 96.89202037348878,173.14466022222769 97.68964346352732,173.06961536251765 97.92801358236466,172.84448044994497 98.83565365028335,172.8230390036042 99.1565365025308,173.1017774520442 99.91748726658989,173.34835313278018 100.79762308998033,173.28402909999568 101.0543293718365,173.09105675667524 101.04516129026888,172.05114391434472 101.21935483871493,171.56870649786288 101.93446519522695,170.90401118410227 104.51069609506521,171.13987131062459 105.87674023763975,170.95761580651015 106.97691001696512,170.58238285416155 109.80067911709193,169.16720607478783 112.89949066215195,168.8241299397123 115.69575551780872,167.55902665265603 116.1724957554834,166.69059915186517 115.93412563658785,165.3396971338516 116.20000000001164,166.63699227209145 116.09915110352449,166.96935446940188 115.9616298811161,167.29099426750327 114.82478777586948,167.97715575774055 114.64142614597222,168.2773499486575 113.917147708009,168.32023476046743 113.10118845500983,168.7490818803417 111.68930390488822,169.03855266024038 110.89168081490789,168.97422589171765 109.51646859082393,169.22081161595997 106.95857385394629,170.55021996500727 105.77589134121081,170.94689488431322 104.01561969442992,171.10770859839977 102.03531409165589,170.83968559977075 101.14601018675603,171.5258230607942 100.89847198640928,171.31140560327913 101.17351443122607,171.63303161939984 101.02682512730826,171.99753987035365 101.13684210524661,172.4156506613799 100.97181663836818,172.59790354323195 101.03599320881767,172.96240832364856 100.83429541590158,173.21970502640033 99.98166383698117,173.34835313278018 98.95483870967291,172.96240832364856 98.87232597620459,172.79087682561658 97.9646859082859,172.80159755275236 97.57962648558896,173.03745326275384 96.81867572152987,173.1017774520442 96.36943972838344,173.1017774520442 96.1310696094879,172.94096690230072 94.18743633280974,172.99457044723385 93.14227504248265,172.85520117139822 92.00543293717783,173.0267325605746 91.50118845503312,172.86592189173825 90.7860780984629,173.05889466375083 89.42920203733956,172.79087682561658 86.5687606111751,171.76168174006307 85.9361629881314,171.6651941648961 84.48760611203033,171.87961087383883 84.30424448219128,171.50438133545686 84.44176570459967,171.1184295036146 85.20271646854235,171.5901482095869 86.03701188456034,171.76168174006307 87.88896434631897,171.56870649786288 88.16400679119397,171.86889004917612 88.58573853987036,171.90105251975183" stroke="#4dd2ff" stroke-linecap="round" stroke-linejoin="round" stroke-width="0.5"><title>2022-12-15 10.0km</title></polyline><polyline fill="none" points="119.79999999998836,174.74364680217695 120.08611449453747,170.85579351587512 122.44409257004736,171.01730946809403 122.74993909866316,171.22497248377476 124.75274056033231,171.68644443614176 125.06845310598146,170.34817039439804 124.98952496954007,169.93284062840394 124.13118148600915,169.87515581362095 123.8352009744849,169.4944352705279 122.76967113272985,169.54058328590327 122.35529841657262,169.3444540855562 121.68440925702453,169.58673128177907 120.98392204631818,169.54058328590327 120.02691839222098,168.98680581209192 119.9282582217129,169.51750928063848 120.16504263097886,169.88669277902227 122.37503045075573,169.55212028672395 122.71047503052978,169.95591454583337 125.1769792935811,170.80964605700865 126.844336175418,171.1557515224922 127.74214372719871,170.95962522691116 128.5314250913798,171.21343565994175 130.43556638248265,171.2365093063636 131.48136418999638,171.17882518113038 131.91546894033672,170.9826989270514 133.48416565166553,171.21343565994175 134.26358099881327,171.1557515224922 134.62862362974556,170.87886723799602 135.54616321559297,170.87886723799602 135.78294762485893,171.12114102534542 136.60182704019826,171.29419340110326 136.82874543243088,171.53646626583213 137.06552984163864,171.25958294792508 137.54896467726212,171.36341427448497 137.87454323994461,171.2365093063636 138.0915956151439,169.54058328590327 138.9696711327997,168.76760145180742 141.0020706455689,169.0214169866158 142.67929354449734,168.94065756233613 144.12959805119317,168.55993375671096 146.99074299639324,167.06009977171925 150.8088915956905,166.5409216629123 151.95334957371233,166.05635319782596 152.0914738124702,166.57553361374448 152.20000000001164,166.5409216629123 151.134470158373,166.9562643477475 147.8589524969575,167.34853098632448 144.04080389771843,169.07910225300293 142.6102314250893,169.4713612554624 140.93300852621906,169.57519428466185 139.18672350794077,169.3329170628058 138.8907429963583,169.67902721497376 138.83154689404182,170.67120356328087 138.48623629723443,171.87103267038765 137.9732034105109,172.06715732688463 137.52923264313722,172.1825246071312 135.3488428745768,171.6518341074625 133.3361753958743,171.68644443614176" stroke="#4dd2ff" stroke-linecap="round" stroke-linejoin="round" stroke-width="0.5"><title>2022-12-12 7.2km</title></polyline><polyline fill="none" points="156.32419106311863,174.02669836154382 156.58628659474198,170.36356176600384 156.4989214176312,170.0278909981571 155.81248073960887,169.94032457655703 155.79999999998836,169.50249163489207 159.3320493066567,169.56086944077106 163.2510015408625,170.75760901655303 166.05916795070516,171.3121921291313 175.7067796610063,171.16624942088674 176.79260400612839,171.2538150643668 178.62727272725897,171.8521788071812 179.2013867488131,171.66245399900072 179.9627118643839,171.28300359983405 180.32465331279673,169.95491898404725 180.38705701078288,168.72898337541847 180.64915254240623,168.32033575161768 181.2856702619465,168.21817365649622 183.09537750383606,168.5830379344552 183.48228043143172,168.37871405766055 185.3044684129418,168.43709233903792 186.6149460708839,168.08682228015095 188.20000000001164,167.32790076831589 187.97534668719163,166.77330163847364 184.74283513100818,167.75114597255015 183.2576271186117,167.79492988505808 180.48690292751417,167.4592528671783 179.40107858245028,168.42249777102552 179.18890600919258,169.006279287918 179.36363636364695,169.57546388836636 179.16394453000976,169.92573016758251 179.23882896761643,170.34896740179101 178.91432973806513,170.6992317171098 178.3277349768905,170.64085439300106 177.5664098612615,170.87436354128295 177.21694915252738,170.52409967059793 176.50554699532222,170.4073448494164 176.34329738060478,170.2030236745777 176.28089368256042,170.33437303599203 175.13266563945217,170.21761805425922 173.44776579353493,170.53869401628617 172.8611710323603,170.553288360461 172.47426810470643,170.2905899293837 169.90323574730428,170.3781561286596 168.4055469954037,170.1884292933537 166.8828967642621,170.4073448494164" stroke="#4dd2ff" stroke-linecap="round" stroke-linejoin="round" stroke-width="0.5"><title>2022-12-06 5.0km</title></polyline><polyline fill="none" points="11.799999999988358,215.15311033959006 12.077176901919302,212.05088394193444 12.225664527970366,212.2013671028035 14.304491292394232,212.22451833996456 17.0267644362757,213.12741276819725 17.125756187015213,213.3241964624467 16.97726856096415,213.3241964624467 17.105957836844027,213.11583724572847 16.8188817598857,213.12741276819725 16.571402383153327,212.87275099145336 16.789184234687127,212.94220426204993 17.03666361136129,211.2753136001993 16.878276810224634,211.37949501050753 16.89807516039582,211.71518999115506 17.264344637980685,212.01615702927666 18.759120073344093,212.3865768628384 19.669844179647043,212.2129427219843 20.481576535326894,212.46760603428993 21.74867094407091,212.50233280369866 24.49074243818177,212.25924518649117 25.252978918433655,212.46760603428993 26.371585701184813,212.35185005672975 26.648762603115756,212.13191336196178 27.628780934901442,212.13191336196178 27.72777268558275,212.32869884648244 28.935472044046037,212.67596648534527 29.87589367554756,212.51390839103988 30.103574702108745,210.7659808330718 31.014298808411695,210.00197723686142 33.62768102658447,210.26822151991655 34.89477543538669,210.15246321560699 36.30045829509618,209.7241564247015 38.953437213553116,208.31188972220116 39.85426214477047,208.0803688514934 42.23006416129647,207.88357572622044 43.52685609529726,207.5362928769173 44.03171402378939,207.2468896604114 44.19010082492605,207.81411924454005 44.199999999953434,207.68678224694304 42.18056828598492,208.35819383755734 39.3989000916481,208.72862605490081 37.95362053165445,209.45791081775678 35.27094408799894,210.6154956981336 33.241613198886625,210.7081019594989 33.023831347352825,210.83543544094573 31.19248395966133,210.6154956981336 26.371585701184813,212.93062872003065 21.788267644355074,213.02323302208242" stroke="#4dd2ff" stroke-linecap="round" stroke-linejoin="round" stroke-width="0.5"><title>2022-11-27 5.6km</title></polyline><polyline fill="none" points="47.79999999998836,213.11922666001192 49.08544102020096,213.30711826270272 49.44123273110017,213.19975166665972 50.02656748139998,213.49500958707358 50.41679064818891,213.42790557457192 52.47120085009374,214.05868189061584 52.81551540910732,212.46160385925032 52.63188097765669,212.19318540988024 52.700743889436126,212.7434426198597 53.2746014877921,213.1058058206254 55.087991498352494,213.45474718385958 55.94877789582824,213.19975166665972 56.855472901137546,213.52185118210036 60.1723698193091,213.49500958707358 60.8150903294445,213.2802766222012 62.57109458022751,213.49500958707358 63.51222104142653,213.44132637993607 63.93687566416338,213.11922666001192 65.07311370875686,213.1058058206254 65.1993623803719,213.3608015266218 66.51923485647421,213.76342528208625 67.41445270983968,213.64263828960247 67.79319872474298,213.25343497600988 67.91944739635801,212.59581287097535 67.7702444207971,212.0589759722934 67.95387885224773,211.5087157934613 69.00977683311794,210.64976830455998 71.66099893726641,210.98529535962734 73.46291179594118,210.85108464407676 75.33368756639538,210.22029237919196 78.01934112643357,208.7573790967581 80.19999999995343,208.34131810937834 78.19149840588216,208.67685127024015 75.27630180650158,210.24713466710818 73.41700318804942,210.8376635647146 71.69543039315613,210.94503215985605 69.30818278423976,210.58266278707015 68.88352816150291,210.66318940382916 67.91944739635801,211.56239981838735 67.74729011685122,212.0589759722934 67.89649309241213,212.59581287097535 67.68990435701562,212.95817649339733 67.7702444207971,213.37422233907273 67.46036131767323,213.65605907222198 66.17492029751884,213.70974218848278 64.8206163655268,213.06554329385108 63.89096705627162,213.07896413751587 63.44335812958889,213.41448476782534 62.364505844831,213.48158878741378 61.50371944735525,213.26685579982586 57.87693942611804,213.21317249612184" stroke="#4dd2ff" stroke-linecap="round" stroke-linejoin="round" stroke-width="0.5"><title>2022-11-23 5.3km</title></polyline><polyline fill="none" points="83.79999999998836,211.97987520723836 86.55827338126255,212.3130145391042 89.64028776984196,213.1610020671069 90.04172661865596,211.37416534470685 89.95107913669199,210.95016691595083 89.54964028776158,210.75331007562636 88.90215827338398,210.81388143991353 88.33237410068978,210.34445269606658 86.93381294963183,210.3898813514097 86.6230215827236,210.55645296457806 86.67482014390407,210.70788153554895 91.0776978416834,212.20701574489067 92.45035971229663,212.37358524341835 93.17553956829943,211.96473249193514 94.082014388463,212.11615957308095 95.18273381295148,211.91930433634843 95.40287769783754,212.23730112267367 96.02446043171221,212.32815721760562 99.5985611511278,212.23730112267367 100.49208633095259,212.52501189208124 102.00719424465206,212.44929858775868 102.49928057554644,212.10101687216957 103.7683453237405,212.08587416965747 104.06618705030996,212.41901325482468 105.58129496406764,212.79757945593155 106.88920863310341,212.4644412518537 106.86330935254227,211.85873343981802 107.0575539568672,211.55587857263163 106.91510791372275,210.79873860121006 107.16115107916994,210.2233095444535 108.28776978421956,209.32987563530332 112.21151079138508,209.70845000645204 114.36115107918158,209.2693036429264 115.87625899282284,208.61815310668317 116.20000000001164,209.20873162501084 114.94388489209814,209.76902181292826 112.6906474819989,210.34445269606658 111.09784172667423,210.25359534200106 110.83884892088827,210.42016711366887 108.80575539573329,210.0567375436658 108.40431654674467,210.1627379302372 108.08057553955587,210.58673869154882 107.92517985613085,212.37358524341835 107.53669064753922,213.47899609495653 106.65611510793678,213.78184689332556 103.18561151082395,213.1155742911651 93.42158273380483,213.3275704555126 89.78273381298641,212.63101045083022" stroke="#4dd2ff" stroke-linecap="round" stroke-linejoin="round" stroke-width="0.5"><title>2022-11-18 5.5km</title></polyline><polyline fill="none" points="119.79999999998836,214.75051113619702 120.15646365424618,211.02884603638086 120.99669941066531,211.23726188353612 121.81147347745718,211.1181671515078 124.02664047153667,211.37124333651445 126.19088408647804,212.11558241937018 126.53461689595133,210.5226919796405 126.47096267191228,209.82300543277233 125.45249508845154,209.77834447126952 124.91779960709391,209.3019599996187 123.56833005900262,209.3615081467724 123.30098231835291,209.7039095038781 123.41555992147187,209.82300543277233 126.87834970530821,210.9841854575352 129.0935166993877,211.44567742198706 129.9592141454341,211.14794084396272 130.9649508841103,211.49033785438223 134.65689587430097,211.4754510451603 135.3698231827002,211.2223750475241 137.3303732809727,211.49033785438223 138.32337917486439,211.43079060806485 138.9853831041837,211.1181671515078 140.01658153237076,211.13305399853562 140.32212180749048,211.43079060806485 141.88801571709337,211.75830015094834 143.1229076620657,211.4754510451603 143.32660117879277,210.50780506804585 143.1611001964775,209.89744033719762 143.3775245579891,209.34662111237412 144.48510805499973,208.33429907649406 148.71174852654804,208.66181582621357 150.40495088405441,208.3045247887203 152.0599607072072,207.6494888638117 152.20000000001164,208.24497619429894 149.0936738703167,209.31684703874635 146.02554027509177,209.37639517959906 145.14711198426085,209.06376715900842 144.61241650296142,209.2275247802172 144.3450687622535,209.58481347413908 144.21776031435002,211.14794084396272 143.87402750487672,212.36865681064955 142.83009823184693,212.72593752946705 140.4621611001785,212.13046916088206 129.97194499021862,212.26444976351922" stroke="#4dd2ff" stroke-linecap="round" stroke-linejoin="round" stroke-width="0.5"><title>2022-11-06 5.5km</title></polyline><polyline fill="none" points="155.80000000004657,221.17721267252637 156.54708737856708,217.1542904911912 157.07791262143292,206.14259692629275 157.53009708737954,204.09652141592233 157.64805825252552,204.3034288037161 160.04660194180906,204.23445969630848 166.79004854371306,205.75177500254358 167.26189320383128,202.53321478524595 167.08495145628694,203.4528082828765 167.81237864075229,203.98157278202416 171.31189320387784,204.69425333208346 178.52718446601648,203.26888989465078 178.99902912625112,203.26888989465078 179.09733009710908,204.55631534352142 180.7094660194125,204.32641850129585 182.34126213600393,204.4183772673714 182.9507281553233,204.80920158898516 185.5458737864392,204.7172429883649 186.3716019417625,204.1425008524675 186.3912621360505,203.2918797017046 188.08203883492388,202.7861033850204 188.20000000006985,201.61361739618587 187.57087378646247,201.22278732748237 186.50922330108006,202.64816418524424 186.70582524267957,203.19992045898107 186.27330097090453,203.38383890557452 185.5655339807272,204.55631534352142 183.40291262138635,204.83219123314484 182.34126213600393,204.4183772673714 176.2072815534193,204.4183772673714 175.71577669901308,204.78621194248262 174.2216019417392,204.78621194248262 172.66844660206698,204.25744940123695 171.1546116505051,204.69425333208346 168.52014563116245,204.21146998899349 162.40582524274942,202.21135614175 162.2092233010335,201.8435171082965 162.6810679611517,201.68258733538096 164.78470873786137,201.4296974514291 165.47281553398352,202.21135614175 166.14126213593408,202.16537629665982 165.4531553396955,202.1423863704258 164.74538834951818,201.47567745222477 163.62475728150457,201.47567745222477 162.48446601943579,201.636607378372 162.34684466011822,202.2343460606353 168.6184466020204,204.32641850129585 166.9473300970858,203.36084910828504 167.04563106794376,202.53321478524595" stroke="#4dd2ff" stroke-linecap="round" stroke-linejoin="round" stroke-width="0.5"><title>2022-11-02 5.0km</title></polyline><polyline fill="none" points="12.797690531180706,259.40073529529036 12.747806004597805,259.09451407067536 11.862355658144224,258.9778581871651 11.799999999988358,258.5549797821732 12.124249422631692,256.36765698304225 12.124249422631692,254.3552893595479 12.323787528846879,253.93239677631937 12.211547344108112,252.38664043585595 12.485912240168545,249.1492455247353 12.747806004597805,247.92426546217757 12.959815242444165,248.08468013738457 15.441570438735653,247.9971812467702 18.63418013858609,248.9888320883183 18.945958429540042,246.90344042801007 18.783833718276583,247.38468745739374 19.008314087754115,247.73468424171733 21.56489607389085,248.31801024083688 25.54318706697086,247.48676994460402 26.890069284068886,247.45760352740763 27.650808314036112,247.8367664697289 28.062355658214074,247.5888523562462 29.7459584295284,247.63260193807946 30.257274826755747,247.16593901596207 31.01801385683939,247.54510276051587 31.9782909930218,247.20968873203674 32.70161662809551,247.5305195588735 33.02586605073884,248.3763427049853 33.923787528823595,248.6534215725842 35.183371824386995,248.39092581714795 35.39538106234977,247.29718812246574 35.24572748265928,246.7430243781855 35.48267898376798,246.1596917143179 36.25588914542459,245.38677213236224 37.01662817550823,245.22635431755043 39.211547344049904,245.57635658192157 40.658198614255525,245.57635658192157 42.26697459578281,245.27010464918567 43.96304849872831,244.5992647047242 44.199999999953434,245.1096866986336 42.82817551959306,245.75135738083918 40.99491916853003,246.21802509178815 39.09930715931114,246.33469177268853 36.767205542710144,246.0721916018374 36.418013856804464,246.48052498495963 35.95658198610181,249.1638285551744 34.971362586540636,249.52840381427086 31.442032332590315,248.93049988332496 21.96397228637943,249.1200794592587 19.120554272492882,248.52217375735927 18.771362586587202,250.7387867603975" stroke="#4dd2ff" stroke-linecap="round" stroke-linejoin="round" stroke-width="0.5"><title>2022-10-28 6.2km</title></polyline><polyline fill="none" points="47.79999999998836,255.5055856143881 48.00281690148404,252.39284676432726 48.21830985916313,251.8295818696497 48.4211267606006,252.03710077849973 49.967605633777566,251.8888730178005 51.184507042285986,252.02227800946275 53.74507042259211,252.89681869813649 54.2647887323983,252.77823722972244 54.556338028167374,251.192200442194 54.44225352111971,250.6585765522177 54.06197183101904,250.48070147055842 53.32676056335913,250.5399931895372 52.90845070418436,250.12495062983362 51.552112676086836,250.19906546280254 51.361971831007395,250.3769409020024 51.51408450701274,250.6289307209081 55.405633802874945,251.96298691772972 56.67323943669908,252.18532838232932 62.03521126759006,251.39972029507044 62.08591549296398,252.14086011765175 63.86056338035269,252.02227800946275 65.02676056337077,252.3039103525225 68.00563380285166,251.9333413624845 68.14507042255718,252.21497388428543 69.61549295770237,252.5855421294982 70.80704225349473,252.46696039763629 71.06056338030612,252.2594421254471 71.03521126759006,251.63688546481717 71.23802816902753,251.37007462058682 71.08591549296398,250.64375363734143 71.32676056335913,250.0953046856739 72.42957746481989,249.1614542336465 75.53521126753185,249.50238448508026 76.77746478869813,249.44309232705564 78.22253521124367,249.1614542336465 79.8830985915265,248.4944143856119 80.20000000001164,249.01322343072388 78.72957746475004,249.65061477046402 76.79014084511437,250.1545965677651 75.28169014083687,250.0953046856739 75.01549295772566,250.2287113850034 73.0,249.88778290087066 72.5690140844672,250.00636681556352 72.30281690141419,250.406586786572 72.22676056338241,251.69617669453146 71.83380281692371,253.16362663511245 70.78169014083687,253.48972453491297 69.86901408445556,253.40078881933005 69.716901408392,253.1339813339 69.20985915500205,253.2080945752532 67.94225352117792,252.9116413746233 62.5295774647966,252.9857547335705" stroke="#4dd2ff" stroke-linecap="round" stroke-linejoin="round" stroke-width="0.5"><title>2022-10-20 5.2km</title></polyline><polyline fill="none" points="91.11755102034658,253.46911108901259 91.60244897950906,254.2165335098107 92.88081632647663,254.57735730614513 94.20326530607417,254.08766773877142 97.64163265295792,254.44849172589602 97.88408163271379,254.06189457635628 98.4571428571362,254.68044972115604 99.47102040820755,254.9381805680605 100.19836734700948,254.68044972115604 103.54857142851688,255.0154997689242 104.69469387747813,253.9330287235498 105.37795918365009,254.55158419552026 106.98693877551705,254.1649872095586 108.55183673463762,254.3969454748003 110.51346938777715,254.1134408984217 110.77795918355696,255.99487418975332 111.10857142857276,255.71137147276022 111.17469387757592,253.8299359921948 111.7918367346283,253.39179139738553 115.42857142852154,254.47426484737662 116.19999999995343,255.76291744585615 115.6710204082774,253.67529681345331 113.73142857139464,249.0618495024246 111.02040816319641,250.01547426563047 110.20489795913454,251.35569735332683 108.1330612244783,251.69075197321945 107.0751020408934,251.69075197321945 106.65632653061766,251.2783769909438 100.04408163262997,251.30415044780239 99.5151020407211,250.91754830884747 96.56163265311625,251.4845645693713 96.03265306120738,251.0721892380243 102.51265306118876,250.17011576739606 102.84326530620456,250.78868079291715 102.4244897958124,251.43301769104437 99.31673469394445,251.0721892380243 96.71591836726293,251.4845645693713 95.79020408156794,251.14950966583274 100.35265306115616,250.29898361054074 102.77714285708498,250.22166291279427 102.82122448983137,251.02064227257506 102.46857142855879,251.43301769104437 99.2506122449413,251.0721892380243 96.56163265311625,251.4587911315757 95.81224489805754,251.17528313629737 97.64163265295792,250.84022780749365 98.21469387749676,251.20105660408444 102.38040816329885,251.5618848662416 102.77714285708498,251.25260353132035 102.79918367334176,250.22166291279427 101.30040816322435,250.0927950288169 94.07102040806785,251.58765829306503 90.7869387754472,250.99486878571042 84.10857142845634,248.75256499374518 83.80000000004657,248.34018503814877 84.28489795909263,248.03089961341175 86.62122448976152,248.00512581024668" stroke="#4dd2ff" stroke-linecap="round" stroke-linejoin="round" stroke-width="0.5"><title>2022-09-24 5.1km</title></polyline><polyline fill="none" points="149.25454545463435,257.76502977428026 150.5351778655313,256.9414674276486 152.00790513842367,251.4011140104849 146.0529644265771,247.80734806891996 141.12252964428626,253.64720845926786 141.12252964428626,257.39068337203935 143.7478260868229,258.51372198562603 149.1905138338916,258.58859116310487 150.59920948604122,257.6901605097228 152.20000000018626,251.10163421212928 146.56521739135496,247.58273709198693 141.25059288553894,253.72207815165166 141.37865612632595,258.0645067538717 144.9003952567,258.21424519614084 145.9889328063,258.9629369323957 144.83636363619007,260.0859730519005 121.27272727247328,261.43361404404277 120.31225296435878,262.1823023755569 121.97707509878092,260.9095317409956 146.6932806323748,261.50848291278817 150.47114624478854,260.61005596467294 135.87193675874732,260.0859730519005 137.08853754936717,242.2669231655309 136.38418972329237,242.11718135053525 133.75889328075573,260.3854490495869 119.80000000004657,260.2357110665762 119.99209486157633,261.0592695812229 150.59920948604122,261.43361404404277 148.23003952531144,260.0859730519005 145.60474308300763,260.6849249207298 135.80790513847023,259.8613659705152 136.83241106709465,241.8176976244431 134.39920948608778,259.8613659705152 132.28616600786336,260.6849249207298 121.65691699599847,260.2357110665762 121.52885375497863,261.0592695812229 152.1359683794435,261.80795830860734 143.55573122529313,261.50848291278817 150.086956521729,261.43361404404277 150.086956521729,260.4603180293925 146.30909090908244,260.1608420632547" stroke="#4dd2ff" stroke-linecap="round" stroke-linejoin="round" stroke-width="0.5"><title>2022-09-22 5.0km</title></polyline><polyline fill="none" points="170.61875761277042,254.49197148894018 171.90133982955012,254.30738427008328 172.84847746661399,254.9303655075637 173.97320341062732,254.76885202425183 176.40024360548705,255.16109884771868 177.68282582226675,254.58426503976807 177.64336175413337,254.16894375342235 177.91961023153272,254.09972346226277 178.39317905006465,254.9072921601619 180.6820950062247,254.63041180052096 181.51084043853916,254.95343885259354 183.2472594397841,254.09972346226277 183.2669914739672,254.83807210318628 183.58270401961636,255.13802552466223 183.78002436063252,253.91513591143303 184.17466504278127,253.66132777403982 187.62777101120446,254.58426503976807 188.20000000006985,255.668711336868 187.17393422673922,252.27691455297463 185.9702801463427,249.71572692850896 184.23386114509776,250.3387212808302 183.70109622424934,249.96953965720604 181.51084043853916,249.64650522392185 178.84701583441347,251.74622048833407 175.01900121814106,251.81544152655988 174.52570036542602,250.77712364731997 171.15152253361885,251.26167260606599 169.96760048740543,251.53855724207824 171.348842874635,252.16154638789885 177.03166869690176,252.11539910477586 177.91961023153272,251.74622048833407 179.53763702814467,251.74622048833407 180.54397076752502,252.11539910477586 182.5961023144191,251.88466254273953 182.97101096238475,250.91556631682033 182.30012180283666,250.31564744771458 181.15566382475663,250.20027824517456 179.4192448235117,251.14630390402453 178.27478684543166,250.31564744771458 176.7159561511362,250.7540498605522 174.76248477469198,250.7079022796388 174.7230207065586,251.86158887314377 173.12472594412975,251.5847046472045 170.67795371508691,251.97695719684998 169.4348355664406,251.5847046472045 168.58635809994303,251.9308098746842 167.18538367853034,251.88466254273953 159.09524969558697,249.43883997842204 159.56881851423532,248.70047305982735 158.2665042631561,248.33128866314655 157.49695493315812,248.88506502377277 155.80000000004657,248.58510300295893 156.11571254581213,248.86199103685794 159.07551766140386,249.2081005848886 161.75907429971267,248.74662106548203 162.60755176621024,249.5311356674938 163.67308160790708,249.3465442503366 164.28477466513868,249.5772834973468 163.89013398310635,253.03834291196836 163.33763702807482,253.03834291196836 164.56102314265445,253.56903383268218 163.83093788078986,253.66132777403982 163.6533495738404,254.37660449542454" stroke="#4dd2ff" stroke-linecap="round" stroke-linejoin="round" stroke-width="0.5"><title>2022-09-09 5.2km</title></polyline></svg>