<?xml version="1.0" encoding="utf-8" ?>
<svg baseProfile="full" height="300mm" version="1.1" viewBox="0,0,200,300" width="200mm" xmlns="http://www.w3.org/2000/svg" xmlns:ev="http://www.w3.org/2001/xml-events" xmlns:xlink="http://www.w3.org/1999/xlink"><defs /><rect fill="#222222" height="300" width="200" x="0" y="0" /><text fill="#FFFFFF" style="font-size:12px; font-family:Arial; font-weight:bold;" x="10" y="20">Over 5km Runs</text><text fill="#FFFFFF" style="font-size:4px; font-family:Arial" x="10" y="280">ATHLETE</text><text fill="#FFFFFF" style="font-size:9px; font-family:Arial" x="10" y="290">feng qijun</text><text fill="#FFFFFF" style="font-size:4px; font-family:Arial" x="120" y="280">STATISTICS</text><text fill="#FFFFFF" style="font-size:3px; font-family:Arial" x="120" y="285">Number: 31</text><text fill="#FFFFFF" style="font-size:3px; font-family:Arial" x="120" y="290">Weekly: 1.4</text><text fill="#FFFFFF" style="font-size:3px; font-family:Arial" x="141" y="285">Total: 184.4 km</text><text fill="#FFFFFF" style="font-size:3px; font-family:Arial" x="141" y="290">Avg: 5.9 km</text><text fill="#FFFFFF" style="font-size:3px; font-family:Arial" x="167" y="285">Min: 5.0 km</text><text fill="#FFFFFF" style="font-size:3px; font-family:Arial" x="167" y="290">Max: 10.0 km</text><polyline fill="none" points="19.77560694690328,62.40643830474437 20.09002969262656,62.39374673635757 19.255183092027437,61.9368493759539 19.493710692157038,62.000307447124214 19.656343146867584,61.77185823319451 19.580448001332115,62.3556720230481 19.77560694690328,62.22875622437277 20.512874074687716,62.57142857142753 21.141719566076063,62.546045468290686 21.32603634800762,61.65763346244057 21.23929903883254,60.210776916268514 21.672985584591515,59.60156891919178 21.64045909367269,59.28427185734472 24.296789186366368,57.27893493792362 25.099109295988455,56.49202138320106 26.042377532983664,55.17202571852249 26.747118169791065,53.07777190674824 26.98564577003708,48.571828644533525 27.202489042829257,48.34335375500086 27.191646879189648,47.28982500077109 27.657859915925656,45.79202113972133 29.056499025959056,43.443731521947484 31.495985845802352,41.146171056010644 32.45009624643717,39.648290159821045 33.51262828352628,34.74831125217315 35.03053119365359,31.714285714282596 33.55599693808472,34.583282556595805 32.69946601026459,38.68354336631455 32.23325297352858,40.029109117509506 31.257458245614544,41.41274111108214 29.620291535451543,42.809050728006696 28.622812480200082,44.002247831216664 27.744597225042526,45.5000741324111 27.289226352004334,47.02326806014753 27.169962551968638,47.68331273091462 27.300068515643943,48.40681904594385 28.590285989281256,48.330660692787205 30.129873226687778,48.495670396543574 30.943035499949474,48.31796762923477 32.016409700678196,48.50836344125128 32.807887646660674,48.40681904594385 33.14399471960496,48.584521681092156 33.28494284697808,49.168399907139246 33.13315255596535,49.752275279672176 30.96471982722869,51.77043122082978 30.56355977244675,52.46852754170686 30.400927317736205,53.49662560568686 30.76956088159932,54.98164052514039 26.98564577003708,59.96963245545339 25.348479059815872,61.79724150076072 25.088267132348847,61.79724150076072 21.694669911870733,59.53810957419046 21.26098336611176,60.29961948967684 21.41277365712449,61.53071692248341" stroke="#4dd2ff" stroke-linecap="round" stroke-linejoin="round" stroke-width="0.5"><title>2023-05-09 7.6km</title></polyline><polyline fill="none" points="62.365165403694846,62.57142857143481 62.598098981019575,60.31471338921983 62.21542238991242,59.08907199050009 60.069105856935494,58.40815657352505 56.00940636830637,57.863422425012686 55.909577692335006,56.91013378335629 56.192425607529,54.711714611563366 57.87287498603109,54.75062491380959 57.34045538096689,54.63389398234722 57.17407425446436,53.155295771415695 56.77475955057889,53.52494643854152 56.175787494925316,53.11638513165235 56.225701832911,41.34553869225783 56.44199729745742,40.781297378387535 55.909577692335006,41.0536899529543 55.210776960710064,40.664557579977554 56.34216862148605,38.62159911202616 56.40872107213363,37.24015718999726 57.05760746577289,36.909387865889585 57.34045538096689,40.547817707498325 56.824673888564575,42.12379973278439 56.95777878985973,43.64139928855002 57.157436141744256,43.97215650381986 58.4219327038154,43.83596242839121 59.28711456200108,43.11607778268808 58.80460929486435,40.255967702149064 59.58660058985697,39.08856304861547 59.520048139151186,38.524314809328644 58.9543523088214,38.641055966421845 57.80632253544172,38.076806353987195 58.18899912660709,37.49309803634242 58.92107608355582,37.51255501015112 59.90272473037476,37.998978685354814 60.26876320887823,37.78495242682402 60.401868110115174,38.01843560556881 61.51662165817106,35.2360751076194 61.400154869654216,33.56274712178856 60.93428771517938,32.18126719261636 60.551611124014016,31.714285714289872 59.68642926582834,32.16180965467356 59.32039078732487,32.92065210767032 59.819534167065285,32.33692742178391 59.669791153108235,33.11522659113689 60.002553406287916,33.6211192845949 60.38522999745328,33.71840618143324 60.93428771517938,33.19305632688338 61.26704996835906,33.29034345026594 61.49998354550917,34.243754534982145 61.400154869654216,35.76141912509047 60.26876320887823,37.97952176305989 57.29054104303941,40.68401421816088 56.85795011394657,42.065430269023636 57.10752180375857,44.030525362395565 57.706493859528564,44.41965061292285 59.80289605434518,44.22508809057763 60.96756394050317,44.41965061292285 61.932574474660214,45.10061782012053 63.23034726199694,45.08116164918465 65.06053965439787,46.07342374214204 66.85745582147501,46.326352438903996 69.86895421257941,46.07342374214204 70.36809759231983,46.598736800355255 71.86552773159929,46.657104825237184 71.93208018218866,48.27194616981433 71.59931792912539,49.5949381502287 71.2665556758875,49.51711535600771 70.95043153542792,50.198063688978436 71.20000322523993,51.384853328883764 70.60103116952814,54.400431897185626" stroke="#4dd2ff" stroke-linecap="round" stroke-linejoin="round" stroke-width="0.5"><title>2023-05-06 6.0km</title></polyline><polyline fill="none" points="92.62039089208702,62.55866877757944 92.27157628134592,62.35451189181913 92.663992718386,62.02275621256558 93.51422833203105,62.57142857142753 93.86304294271395,62.533149185845105 94.015649334935,61.65271995114017 93.88484385586344,60.35120404692134 94.33176257589366,59.598359979594534 94.27726029301994,59.355917665532616 96.93697169964435,57.352559819686576 98.59384110057727,55.361929125159804 99.41137534438167,53.0777673674238 99.66208584583364,48.45826838701032 99.89099543413613,48.19028094978421 99.82559269462945,47.55221321647696 100.23981004487723,45.99531372117781 101.3734575296985,43.91516240788769 104.19667578517692,41.08201493699016 105.27582098706625,39.2442619199428 106.21326025336748,34.72633286155178 107.72842371865408,31.714285714289872 106.18055888364324,34.802909346472006 105.33032326999819,38.989016221035854 104.92700637638336,39.971709185389045 103.94596528366674,41.3627802825431 101.38435798627324,43.85135351587087 100.29431232780917,45.81665183247969 99.82559269462945,47.53945182725147 99.96729863021756,47.98609964392381 99.6511853893171,48.58588124215021 99.4876785405213,52.694942711466865 98.70284566638293,55.19604174500273 98.14692238060525,56.07651829782844 97.14408037473913,57.161154455447104 94.34266303246841,59.34315753020201 93.96114705200307,59.202795951969165" stroke="#4dd2ff" stroke-linecap="round" stroke-linejoin="round" stroke-width="0.5"><title>2023-05-04 6.1km</title></polyline><polyline fill="none" points="121.93752009433229,52.9557896177721 122.25002679240424,49.477614807387 122.34262136963662,49.23400369026058 122.59725645696744,49.20693575969199 122.35419569176156,49.09866398030135 122.29632408102043,48.570837743624 122.60883077909239,44.52409758728754 122.87504018860636,44.361683939539944 123.84728324937169,44.55116650855052 125.32879648479866,44.52409758728754 127.33115421712864,45.254956450808095 128.19922837847844,45.376765855471604 128.48858643235872,43.72556183388224 128.2918229557108,43.25185182825953 127.42374879430281,43.27892101867474 126.99549887469038,42.818744002404856 125.7107491158531,42.88641719685984 125.22462758549955,42.66986284861923 124.62276283360552,42.89995183143765 123.83570892730495,42.89995183143765 122.36577001394471,42.14201008917007 121.67131068481831,42.27735715817835 121.0,41.993128147834796 121.01157432212494,42.56158553704154 121.74075661774259,42.68339750611631 121.868074161408,42.169079514438636 122.42364162468584,42.20968364155851 123.69681706145639,42.89995183143765 124.72693173296284,43.08943656539486 125.40981673990609,42.91348646457482 125.81491801515222,43.33305938236299 128.905262029788,44.42935631783621 130.35205229878193,44.74064879692742 130.7687278962694,44.79478654205741 131.3821669703466,44.5105631245242 132.26181545387954,44.74064879692742 133.36137605831027,44.5105631245242 133.90536919940496,44.63237323789508 134.36834208550863,44.44289078917063 134.88918658235343,44.67297658328607 137.34294287860394,44.5917698796693 138.1299967849045,44.83538983590552 139.31057764444267,44.74064879692742 139.75040188618004,44.42935631783621 140.8036652019946,44.42935631783621 141.16246918868273,44.75418323537451 142.4935162361944,45.06547492413665 143.52363090775907,44.86245869126287 143.69724574004067,43.86090722764493 143.54677955206716,43.481939764358685 143.76669167290675,42.84581328446802 144.7968063444714,41.95252395194257 148.58160968817538,42.236753052522545 150.19044046732597,41.92545448085002 151.60250776982866,41.32992466793803 151.8571428571595,41.830711286951555 150.72285928629572,42.37210002129723 148.73207587614888,42.8593479233532 147.1232450970565,42.9405557266291 144.9472725324449,42.737536121800076 144.63476583431475,43.143575009249616 144.53059693495743,44.5105631245242 144.2296645589522,45.59331562193984 143.09538098814664,45.98581113932596 140.67634765832918,45.40383459633449 132.0534776551649,45.57978127224487 130.0511199228349,45.28202521742787" stroke="#4dd2ff" stroke-linecap="round" stroke-linejoin="round" stroke-width="0.5"><title>2023-04-26 7.0km</title></polyline><polyline fill="none" points="157.42857142857974,50.4361179011612 157.86074429773726,49.543331712906365 157.65906362538226,48.92006291654252 157.70228091231547,46.7807163286634 157.86074429773726,46.29220008481934 158.19207683065906,46.123745860139024 162.19687875150703,46.49434491923603 164.53061224491103,47.47137466793356 165.20768307318212,47.4039934984321 166.36014405754395,47.74089906089648 166.90756302519003,48.12833957663679 167.4117647058447,48.01042299774417 168.29051620641258,48.313636881357525 170.5666266506305,48.16203001170652 171.5894357743091,48.80214692390291 172.3673469387577,48.49893397044798 173.30372148856986,48.80214692390291 174.12484993995167,48.63369535435049 174.7875150059699,48.19572043963126 175.36374549817992,48.70107600354822 176.90516206488246,48.46524360665353 177.58223289315356,48.61685018762364 179.58463385357754,47.74089906089648 180.4345738295815,47.8251253401977 181.90396158467047,48.41470804758137 182.35054021608084,47.85881583938317 183.37334933970124,48.01042299774417 184.74189675867092,47.505065242017736 185.044417767087,46.67964412533911 185.26050420163665,44.506576235900866 185.5342136854888,44.06858996950905 186.2112845138181,43.84959638454893 187.21968787512742,44.15281819127267 188.28571428573923,44.15281819127267 186.02400960383238,43.866442055645166 185.51980792317772,44.034898668382084 185.21728691476164,44.422348201303976 184.74189675867092,47.53875580895692 183.25810324132908,48.04411345778499 179.97358943580184,47.26923107383482 168.56422569026472,47.47137466793356 166.90756302519003,47.201849818768096 161.03001200477593,45.43308167572832 158.45138055220013,45.51730917567329 160.9435774309677,45.66891856334405 161.11644657858415,45.5004636792728 161.54861944774166,45.685764041918446" stroke="#4dd2ff" stroke-linecap="round" stroke-linejoin="round" stroke-width="0.5"><title>2023-04-20 5.0km</title></polyline><polyline fill="none" points="18.77742437721463,95.84838700481487 18.935064441873692,96.7218224603057 18.787933714862447,96.36506792900764 18.89302709128242,96.54959627202334 20.049054232251365,96.85714285714494 20.805726542777847,96.47578497011273 21.1945720356307,95.55313972769363 21.31017474969849,95.50393177500519 21.52036150265485,95.83608504994481 21.98277235904243,95.79917917754938 22.287543150770944,95.2086836199378 22.161431098997127,93.60940970179217 22.60282328008907,92.85897355963971 22.48722056596307,92.67443933730101 25.692568547849078,90.11553448320774 26.75401164998766,88.70073108765791 27.4896652851603,86.36319195954275 27.668324025114998,82.53690767056105 27.752398726297542,82.05707531785447 27.952076141547877,81.93404106098751 27.82596408983227,81.4542062102555 28.151753556798212,80.08851152154239 29.360327386064455,77.82462178241258 30.253621085896157,76.76648422556173 31.851040407957043,75.33921359790838 32.796880796027835,73.99805533648032 33.17521695129108,73.08753536941367 34.13156667700969,68.54713297286071 35.5082899085246,66.0 34.047491975768935,69.00241170645313 33.248782314767595,72.87836085201707 32.83891814661911,74.01035961133312 31.556778953876346,75.72064109174244 29.528476788313128,77.57854414371104 28.26735627092421,79.85474234771391 27.899529453308787,81.3680817958084 27.962585479195695,82.05707531785447 27.731380051001906,82.3646603880843 27.4896652851603,86.80609773285687 26.785539662931114,88.76224463812105 25.17761100322241,90.73066100381402 22.613332617736887,92.68674162792013 22.65536996832816,92.89588036884379 22.350599176599644,93.40027224921505" stroke="#4dd2ff" stroke-linecap="round" stroke-linejoin="round" stroke-width="0.5"><title>2023-04-17 6.5km</title></polyline><polyline fill="none" points="48.32129089103546,88.33475895100855 48.14285714284051,88.18175972135214 48.14285714284051,87.76448819028155 48.90417446853826,78.25033804237319 49.10639938316308,77.59656268353865 50.01046370738186,77.84694511991984 50.52197378559504,77.6939336876676 51.72342769027455,77.79130461970635 54.0787531665992,78.59808956850611 54.459411829477176,78.4868091801909 56.05341998010408,79.08494015994074 56.160480229067616,79.46050938458939 56.7076770568965,79.61351876117988 57.468994382594246,79.32140979684482 59.158167198998854,79.57178894887329 59.53882586187683,79.37704964958539 60.216874105040915,79.80825771024683 61.06146051327232,79.68306841899175 62.31049675075337,79.89171717157296 63.05991849320708,79.53005912329536 63.02423174359137,79.26576992053015 63.28593457426177,79.25185994776257 63.50005507207243,79.76652795972768 64.18999889848055,79.82216762415192 64.84425597527297,79.62742869567592 65.51040863530943,79.79434779488656 66.34309946023859,79.34922972614004 66.39068179304013,79.75261803994363 66.59290670772316,79.89171717157296 67.14010353561025,79.76652795972768 67.50886661524419,79.08494015994074 69.15045709873084,79.68306841899175 69.138561515545,79.27967989179888 70.13779050554149,79.32140979684482 71.24407974438509,78.89020013966365 71.68421632330865,76.21945076085103 72.00539707014104,75.91342393046943 72.43363806582056,75.77432059026614 74.134706465411,76.13598896864278 74.50346954504494,75.98297554535384 76.08558211248601,76.08034774442785 77.07291551929666,75.87169294383784 79.0,75.05098084898782 78.72640158602735,74.52238390613638 77.14428901852807,75.13444332990912 75.38374270289205,75.42656159595936 71.76748540584231,75.09271209606959 70.67309175012633,76.03861681079434 70.48276241874555,76.73413064210035 70.67309175012633,77.15143717493629 70.41138891945593,78.11123717443843 69.15045709873084,78.33379849253106 68.5199911884265,78.20860779746727 67.73488269629888,77.68002354865894 66.54532437492162,77.65220326615963 66.06950104632415,77.95822604974092 65.02268972352613,78.06950688533834 64.16620773210889,77.86085524132068 61.43022359290626,77.88867547961127 61.22799867822323,77.34617977039306 61.3469545103726,77.26271869338234 62.82200682896655,77.19316775540938 63.51195065531647,77.73566409596242 63.40489040641114,77.84694511991984 60.83544443215942,77.86085524132068 60.87113118177513,77.48528144767624 60.668906267150305,77.36008994471922 57.195395968679804,77.98604626744054 55.244520321604796,77.59656268353865 51.86617468885379,76.28900221390359 51.41414252668619,76.30291250009032 51.24760436167708,76.12207866479002 51.747218856646214,75.88560327417508 52.27062451810343,76.13598896864278 53.57913867163006,76.06643743468157 53.93600616801996,76.48374608665472 54.22150016517844,76.48374608665472" stroke="#4dd2ff" stroke-linecap="round" stroke-linejoin="round" stroke-width="0.5"><title>2023-04-07 7.0km</title></polyline><polyline fill="none" points="84.57142857142026,85.01844159910979 84.68042161921039,82.32785423842142 84.97106974665076,80.95421773425187 87.70800627954304,81.22328166475927 90.51760484423721,82.01630905068305 90.75981161696836,81.49234505440108 93.8358376317774,82.17208173518884 103.14868804666912,82.01630905068305 106.37003812514013,82.6677208889887 107.48418928007595,82.32785423842142 107.92016147117829,79.70801984523132 108.27136129175778,79.26901555276709 110.4391119084903,79.49559859315923 110.86297376092989,79.33982279413613 112.4009867683053,79.43895286903717 115.42857142857974,78.39100264856825 115.24691634892952,77.83870125802059 112.06189728638856,78.78752531844657 110.64498766534962,78.81584832136286 108.06548553489847,78.44764881615993 106.97555505717173,79.43895286903717 106.69701726845233,81.54898990962829 105.558645436191,81.76140790326463 104.73514240863733,81.61979594494915 103.75420497870073,81.03918534969853 102.67638483963674,81.06750787617057 102.2646333258599,81.3648940425046 101.22314420272596,81.43570017519232 100.54496523889247,81.43570017519232 100.21798609552206,81.22328166475927 97.6869253196055,81.30824910939555 97.4326082081534,81.19495917121822 97.19040143536404,80.65683065560006 93.27876205428038,81.37905527206021 91.20789414667524,81.010862817202 87.52635119989282,79.65137421095278 84.84996636025608,79.79298825166188 84.77730432839599,78.81584832136286 85.97622785385465,79.46727573408862 87.81699932727497,79.56640571466414" stroke="#4dd2ff" stroke-linecap="round" stroke-linejoin="round" stroke-width="0.5"><title>2023-04-04 6.0km</title></polyline><polyline fill="none" points="124.59551608934999,93.87098984792829 144.34565161913633,95.06545162003022 150.98578339163214,75.35673546313774 134.64084364287555,67.7917189017171 122.89291819930077,81.13001712143887 122.38213883247226,92.67652731831186 129.19253039360046,96.25991263391916 146.89954845421016,93.07468157936819 150.13448444660753,77.54660300409887 136.8542209006846,67.19447945686989 122.38213883247226,83.12079979432747 123.40369756612927,95.06545162003022 146.55902887601405,94.66729778016452 150.47500402387232,76.15305122744758 137.1947404788807,66.7963197225472 129.19253039360046,72.7687069028616 122.38213883247226,82.52356521354523 122.21187904290855,93.67191281239502 141.45123520493507,96.85714285715949 147.41032782197,94.2691438565962 150.3047442343086,76.15305122744758 136.68396111112088,66.7963197225472 122.89291819930077,81.92633044277318 122.21187904290855,94.07006686285604 138.72707858029753,96.06083585077431 146.21850929874927,93.87098984792829 150.47500402387232,75.15765646914952 135.66240237746388,66.39815990335774 122.72265840973705,82.12540872104 122.89291819930077,94.46822082891595 133.27876533102244,96.06083585077431 147.41032782197,93.47283575544134 150.47500402387232,75.95397231774405 135.66240237746388,66.0 122.55239862203598,82.12540872104 123.06317798793316,94.66729778016452 143.324092884548,95.662682222086 147.06980824377388,93.67191281239502 150.3047442343086,74.95857745455578 136.5137013234198,66.39815990335774 123.23343777749687,81.13001712143887 121.87135946471244,93.67191281239502 146.21850929874927,94.46822082891595 149.6237050788477,75.55581443558913 136.8542209006846,66.7963197225472 128.51149123720825,72.7687069028616 122.89291819930077,82.12540872104 122.72265840973705,94.66729778016452 141.11071562673897,96.06083585077431 146.55902887601405,93.67191281239502 149.7939648674801,74.95857745455578 136.17318174429238,66.5972398230806 125.4468150343746,76.94936665496789 121.87135946471244,93.87098984792829 127.66019229218364,96.25991263391916 146.38876908738166,94.66729778016452 150.3047442343086,76.5512089827098 137.5352600570768,66.7963197225472 129.19253039360046,72.96778614958748 122.38213883247226,82.92172162141651 121.87135946471244,93.87098984792829 125.78733461350203,95.86175904690754" stroke="#4dd2ff" stroke-linecap="round" stroke-linejoin="round" stroke-width="0.5"><title>2023-03-30 5.2km</title></polyline><polyline fill="none" points="187.98417868773686,93.50938662495173 188.28571428568102,91.00776236927777 186.31855348002864,90.35296830262814 182.68576746655162,89.84927872107073 182.47038489661645,89.64780244094436 182.65704979060683,87.06216748042789 183.57601542241173,86.86068766276003 184.27959848433966,80.14454739024222 183.9637040483649,79.99343096499797 183.66216845042072,80.24529159377562 182.67140862857923,80.17812879852136 182.9155088745174,80.12775668344693 182.68576746655162,79.9094773332472 179.268364023068,80.76580229350657 177.87555673730094,80.732221009559 177.04274413344683,79.97664024219557 175.96583128365455,77.91136779138469 174.09918234398356,76.34980248610373 173.5822641759878,76.23226469079964 173.32380509207724,75.79569497471675 170.53819052048493,75.20800307583704 168.22641760285478,74.11656948966265 167.68078175891424,72.79004779474053 167.55155221687164,71.34597359698091 166.79053380305413,70.35526393087639 165.58439141127747,70.15376290288987 161.95160539780045,70.82543200119107 161.26238117390312,70.65751499314501 159.7547031841823,69.49888279478182 159.03676128428197,69.34775623217865 157.42857142857974,69.5324664557993 159.33829688222613,69.39813176906318 161.00392208999256,70.47280607905122 161.95160539780045,70.80864030837256 165.52695605927147,70.18734642532945 166.73309845110634,70.37205567168712 167.50847570295446,71.37955686709029 167.66642292094184,72.8404222389072 168.22641760285478,74.13336083243485 170.26537259854376,75.1576293832477 173.20893438800704,75.72853029643011 173.6253406899632,76.28263804233575 174.09918234398356,76.36659359258192 175.3771189256804,77.32368372695055 176.19557269162033,78.29755899173324" stroke="#4dd2ff" stroke-linecap="round" stroke-linejoin="round" stroke-width="0.5"><title>2023-03-28 5.0km</title></polyline><polyline fill="none" points="14.813001605099998,118.76764737243502 15.094703049689997,115.98038490079489 14.932182985474356,115.51161165843223 14.661316211801022,115.34690711063013 13.426163723866921,115.66364642455301 13.339486356300768,115.42292462239129 11.714285714260768,115.04283658116037 11.800963081826922,114.65007767127827 13.567014446191024,115.10618467179302 17.684189406048972,115.11885428590176 21.519662921258714,116.28445304992056 23.621589085028972,116.63919824816548 31.91011235950282,116.4871647204418 34.57544141251128,117.03195063491148 35.496388442930765,116.66453715068928 35.92977528087795,114.37134476029314 36.24398073827615,113.9785836481824 38.29173354728846,114.21930835355306 38.43258426961256,114.04193230178498 40.15529695019359,114.10528092186723 42.571428571420256,113.23106700517383 42.44141252001282,112.66092405614472 40.70786516845692,113.33242546751717 39.38603531289846,113.54781191510847 37.96669341891538,113.52247235317918 36.31982343492564,113.21839719136915 35.9081059389282,113.33242546751717 35.052166934125125,114.04193230178498 34.83547351520974,114.63740800756204 34.889646869909484,115.2455503532401 34.40208667732077,115.27088955062936 34.055377206997946,115.66364642455301 34.04454253608128,116.0310629792657 33.708667736675125,116.19576658617734 32.928571428521536,115.91703727254207 32.636035312956665,115.20754154712631 32.07263242371846,114.94147956644156 31.292536115506664,115.10618467179302 30.7833065809682,115.81568099768629 29.905698234331794,115.95504585353046 29.34229534503538,115.95504585353046 29.038924558553845,115.75233328234754 26.568619582627434,115.79034191557002 26.341091492737178,115.20754154712631 24.022471910051536,115.57495950110024" stroke="#4dd2ff" stroke-linecap="round" stroke-linejoin="round" stroke-width="0.5"><title>2023-03-26 5.6km</title></polyline><polyline fill="none" points="79.0,126.95374203355459 78.12185206101276,126.96800410846481 75.86549971770728,126.22637421244872 75.56058723886963,126.45456846118032 74.4019198192982,126.42604420118732 71.81626199890161,126.86816955241375 70.63320158101851,126.86816955241375 69.97459062677808,126.38325779989827 69.07204968947917,124.45785568811698 67.44991530216066,123.14571404848539 67.01084133255063,123.03161417185038 66.79130434786202,122.63226384323207 64.47396950871916,122.19012459936494 62.48594014678383,121.20600301165541 61.998080180666875,120.09350908700435 61.888311688264366,118.89542843824893 61.315076228114776,118.05391304453951 60.14421230944572,117.85423065446957 57.16826651606243,118.3962250250188 56.48526256351033,118.26785813420429 54.204517221893184,116.57055108343775 54.350875211763196,115.90018022592994 53.472727272775955,113.96036491917039 53.22879728960106,113.81773033886566 53.216600790503435,113.23292698130535 52.826312817574944,112.77649332939473 52.74093732354231,112.22021272616985 52.557989836263005,111.9634670579544 51.88718238280853,111.7352482756105 51.484697910782415,111.09338087828655 51.36273291928228,110.83663306347444 51.81400338787353,110.60841237293789 49.43568605306791,106.98535714313039 48.14285714284051,104.43204317480559 49.28932806325611,106.7571299304982 52.43602484470466,111.66392982685647 52.33845285145799,111.89214872999582 53.18001129303593,113.14734578932985 53.1678147938801,113.88904764789913 53.49712027102942,114.06020903562603 54.36307171086082,115.9857596699876 54.15573122526985,116.51349837431917 54.570412196510006,116.68465642922092 54.88752117450349,117.15533995965961 56.46086956525687,118.22506914346013 57.03410502540646,118.35343607496179 60.132015810289886,117.85423065446957 61.27848673064727,118.11096510165953 61.85172219085507,118.79558790351439 61.9370976848877,119.95088099670829 62.473743647686206,121.20600301165541 64.18125352909556,122.10454909433611 66.77910784870619,122.64652637531981 67.1084133257973,123.1171890883852 67.38893280632328,123.1171890883852 69.07204968947917,124.45785568811698 69.98678712593392,126.24063636432402 70.64539808017435,126.8824316363607 71.58452851499896,126.96800410846481 73.85307735740207,126.41178206894256 74.475098814175,126.7683349223953 74.8287972896942,126.45456846118032 75.5483907397138,126.42604420118732 75.7313382269931,126.18358774781518 77.87792207795428,126.99652825377416 78.65849802375305,126.92521787923761" stroke="#4dd2ff" stroke-linecap="round" stroke-linejoin="round" stroke-width="0.5"><title>2023-03-18 7.0km</title></polyline><polyline fill="none" points="84.57142857142026,116.83098427073855 86.58452420774847,116.77062452943937 90.46618553739972,117.90538232366089 92.11795631592395,118.19510590960999 100.19098599621793,118.08645965106552 102.72026000090409,118.66590516795986 103.6906753333169,118.21924950856192 104.04167662374675,116.13080930887372 104.32041294267401,115.75657610194321 107.48974812403321,115.86522457878164 108.97634182474576,115.5754950773553 110.47325909283245,114.98396172765206 110.31840558233671,114.4527863107578 112.29020694928477,113.33006649749586 115.28404148539994,112.7626662606126 115.42857142852154,112.85924522361165 113.53935860056663,112.96789645921672 112.25923624716233,113.30592186402646 109.58543229935458,114.79080731669092 108.30530994595028,115.1650436909913 106.71548057155451,115.29783694813523 104.43397218373138,114.94774530051654 104.07264732586918,115.03225027932058 103.21579123445554,115.84108048175403 103.02996702183736,116.43260938820458 103.17449696501717,116.77062452943937 103.07126129133394,117.47079556549579 102.78220140514895,117.73637655881612 101.79113893798785,117.8208794725142 100.53166371927364,116.64990495105303 99.63351335847983,116.74648062396591 99.14830569224432,116.36017744195851 98.74568656500196,116.28774544971384 98.36371457244968,116.42053740033589 97.89915404096246,116.975847519534 97.63074128946755,116.99999137647683 97.12488648848375,117.42250804575451 96.2886775318766,117.47079556549579 96.11317688663257,116.87927204075822 93.17096018732991,117.19314204798138" stroke="#4dd2ff" stroke-linecap="round" stroke-linejoin="round" stroke-width="0.5"><title>2023-03-14 5.6km</title></polyline><polyline fill="none" points="149.1672152732499,121.49974081730761 148.12442396319238,121.36117309008841 146.14549045427702,120.70990280863771 144.72350230417214,121.097894004517 144.4272547729197,120.84847122481733 141.97432521398878,121.43045697202615 141.21593153395224,121.38888664724072 140.43383805139456,120.7376165035821 139.35549703758443,118.65907310870534 138.12310730747413,117.28721639835567 137.29361421987414,116.96850015613018 134.6273864384857,116.60821129627584 133.19354838714935,115.83220115484437 132.6247531271074,114.61274735684856 132.4470046083443,113.29627880663611 131.97300855827052,112.72811460739467 131.03686635947088,112.54796446854016 127.69519420678262,113.04684116906719 126.07175773539348,111.97979702273733 123.85582620144123,112.04908586764941 123.66622778144665,110.91274418210378 123.63067807769403,112.07680139529111 121.77024358132621,112.20152119730483 121.0,109.92883061125758 121.62804476631572,111.97979702273733 121.93614219879964,112.25695218230248 125.63331138907233,111.95208147453377 126.14285714289872,112.07680139529111 127.26859776169294,112.89440682332497 127.93219223176129,113.06069882806332 131.14351547072874,112.60339530688361 132.02040816331282,112.83897610810527 132.4825543120969,113.43485506669094 132.61290322581772,114.61274735684856 133.09874917712295,115.77677168302762 134.66293614218011,116.66364041615452 137.23436471365858,117.16250143942307 137.5898617511848,117.64750339039892 137.99275839375332,117.7306464016292 139.53324555628933,118.95007116971829 140.46938775514718,120.72375965684478 141.03818301518913,121.38888664724072 142.5194206715678,121.48588405115879 143.18301514157793,121.15332122443942 144.9249506255146,120.83461438977974 145.8847926267772,120.93161220413458 146.015141540498,120.7376165035821 148.3851217906922,121.49974081730761 151.8571428571595,121.36117309008841" stroke="#4dd2ff" stroke-linecap="round" stroke-linejoin="round" stroke-width="0.5"><title>2023-03-12 6.0km</title></polyline><polyline fill="none" points="186.95733504166128,121.2483004231326 183.2489429852576,120.32599582109833 183.0967328635743,120.56870809769316 182.22498398466269,120.27745331956248 181.67149263294414,120.81141998911335 181.5607943626237,120.5201656732097 178.48891736072255,121.15121599007398 177.49263292760588,121.03795074031223 176.74541960284114,120.2612724822684 175.20948110189056,117.55904864428157 174.10249839851167,116.42636576927907 172.84330557339126,115.97329027035448 169.8682895580423,115.56875744074932 168.20781550288666,114.61405572018703 167.68199871882098,113.3033538198797 167.598975016037,111.89555037724494 167.00397181295557,111.10264388249198 165.63408071757294,110.85991658264538 162.07789878291078,111.44246145509533 161.6074311339762,111.36155257774226 161.19231262011454,110.85991658264538 159.98846893024165,110.18027809335035 159.44881486229133,110.08318663403043 157.42857142857974,110.26118759567908 159.85009609226836,110.14791428040189 161.56591928255511,111.26446186838439 165.7171044202987,110.81137107645918 166.90711082640337,111.07028026480111 167.58513773221057,112.04118581714283 167.68199871882098,113.22244592702191 168.180140935292,114.4846041805722 169.99282511213096,115.48785074634361 173.03702754649566,116.10274054988986 173.3967969250516,116.57199689454865 173.88110185787082,116.63672179462446 175.72146060218802,118.15774906084698 176.78693145420402,120.27745331956248 177.58949391415808,121.00558922496566 178.72415118518984,121.11885449869442 179.99718129413668,120.69815448769077 180.21857783471933,120.97322770273604 181.10416399745736,120.53634648302977 183.17975656635826,120.35835748023237 185.9610506085446,121.34538479453477 188.28571428573923,121.16739673318807" stroke="#4dd2ff" stroke-linecap="round" stroke-linejoin="round" stroke-width="0.5"><title>2023-03-05 5.0km</title></polyline><polyline fill="none" points="40.04722155968193,149.88970471805078 40.21893632237334,150.4518116904219 41.98759837821126,150.1105326556717 42.38254233245971,151.3150441586622 42.313856427324936,151.9172970454092 37.72907226328971,153.18202189142175 34.75840686861193,154.56718705962703 31.890770331432577,156.53450573292503 29.88170760788489,153.38277109245246 28.61101836396847,152.31879790889798 16.65967088000616,149.6287259154342 16.522299069853034,149.28744540154003 17.191986644407734,147.42042938283703 17.003100405447185,147.03899374468892 17.226329597004224,146.05528777375002 11.714285714260768,143.28482316560985 17.209158120676875,145.99506071208452 15.938468876702245,149.58857529856323 15.474839017377235,151.93737210879044 16.196041020797566,150.19083366019186 16.65967088000616,149.90977999576717 26.89387073693797,151.95744716997433 29.349391843541525,153.08164721127832 31.512997853569686,156.7151768343756 36.01192463625921,153.9649425756652 37.98664440738503,153.1217970896978 42.57142857136205,151.85707184264902 41.98759837821126,149.22721936486778" stroke="#4dd2ff" stroke-linecap="round" stroke-linejoin="round" stroke-width="0.5"><title>2023-02-22 5.0km</title></polyline><polyline fill="none" points="48.14285714284051,153.57571046003432 48.33662256109528,150.12041815304838 48.603050011151936,149.6389359158493 51.364207221369725,149.78054851831985 54.52500560664339,150.95592733708327 55.60282574564917,151.02673296039575 56.087239291344304,151.3524383455224 56.52321148238843,151.21082740591373 58.59407938999357,151.522371275365 59.11482395156054,151.43740483740112 59.87777528591687,151.7772702656075 60.555954249808565,151.66398188541643 62.00919488671934,151.84807545455988 62.978021977993194,151.295793987636 63.01435299392324,151.57901553733973 63.40188383043278,151.7489481795783 63.98318008519709,151.79143130639568 64.49181430810131,151.59317659911176 65.48486207664246,151.76310922333505 66.1993720564642,151.08337743212178 66.61112357029924,151.01257183872804 68.71832249377621,151.49404913533363 68.87575689610094,151.67814293818083 68.96052926662378,151.1683440947818 69.94146669650218,151.22498850664124 71.03139717422891,150.89928281139873 71.39470733341295,149.51148444555292 71.4794797039358,148.25112448351865 71.96389324957272,147.783796987409 73.07804440456675,148.0103802195663 76.27517380571226,147.99621877878963 78.99999999994179,146.93410645084805 78.69724153389689,146.42428953995113 77.365104283439,146.9482680039655 75.58488450321602,147.3306293724163 74.4222919936874,147.35895239331876 71.70957613812061,147.00491420157778 70.53487328992924,147.92541155243816 70.30477685574442,148.6334821304481 70.4016595648718,149.18577458120126 69.57815653725993,149.4690005951561 69.37228078045882,150.12041815304838 68.98474994389107,150.29035264684353 68.27023996412754,150.17706300827558 67.43462659785291,149.65309718286153 66.29625476564979,149.6389359158493 65.82395155867562,149.93632220804284 64.2617178739747,150.03545082527853 63.934738730604295,149.80887102086854 60.26530612248462,149.85135476340656 59.57501681987196,149.75222600983398 59.23592733795522,149.44067802072095 56.78963893244509,149.96464467757323 54.85198474989738,149.5964521059068 51.24310383491684,148.2652858973306 49.40233236149652,147.99621877878963 52.890109890082385,147.96789589278342" stroke="#4dd2ff" stroke-linecap="round" stroke-linejoin="round" stroke-width="0.5"><title>2023-02-10 5.9km</title></polyline><polyline fill="none" points="91.68612368957838,156.0086170729337 91.7263197072316,151.76274352244218 93.1197816512431,151.77841117627395 95.43775200052187,152.37378079314658 96.71062589163193,151.9977581556741 97.23317412071628,150.4153190938232 97.32696482841857,149.02087857978768 97.72892500465969,148.58217547832464 100.04689535388025,148.91120292627602 100.48905154765816,148.69185137552267 102.67303517146502,148.7231873312412 104.8972148129833,148.01812672404048 108.79622852179455,146.05960742499155 113.25798647728516,145.44854410242988 115.42857142857974,144.63378908339655 115.30798337573651,144.72779950668337 115.09360461507458,144.35175745548622 115.1338006327278,143.99138292708085 114.4102723156102,144.3987627641327 112.54785683273803,144.86881502969482 111.74393648037221,144.90015179433976 111.55635506485123,144.6651258977945 109.06420197256375,145.11950896124472 107.41616525029531,145.7305736415583 104.69623472483363,147.28172650607303 102.69983251660597,147.90845032790094 100.26127411448397,148.08079891389934 98.31846659630537,147.72043345986458 97.35376217361772,147.75176962105616 96.25507102534175,148.69185137552267 96.00049624714302,149.41257667944592 96.08088828239124,150.13329847597925 95.49134669068735,150.13329847597925 95.06258916936349,150.54066141828662 94.968798461603,151.15170373086585 94.52664226788329,151.35538394149626 93.64232988026924,151.02636192356294 93.32076173933456,150.1803019496001 92.50344271451468,149.757270150134 91.57893430930562,150.0236236462515 91.06978475279175,150.82268126042618 89.97109360463219,151.02636192356294 89.15377457969589,151.04202965524746 88.87240245647263,150.8070135054877 84.77240865951171,150.7756779906631 84.57142857142026,150.6033325407043 84.8661993672722,150.25864103909407 87.06358166364953,150.10196281861863 87.31815644190647,150.90102001011837 88.40344891755376,150.82268126042618 89.30115997768007,150.24297322452185 90.13187767512864,150.30564447293 90.52043917868286,149.8356094634073 90.97599404508946,149.8199416041025 91.71292103466112,150.61900031719415 92.70442280248972,150.57199698279146 93.29396439425182,151.05769738530216 94.51324359531282,151.38671933367732 95.86650952172931,151.19870688123046 96.21487500774674,150.0549593201431 96.25507102534175,151.08903284044936 95.7861174865393,151.46505778505525 94.0710874015931,151.23004230654624 93.65572855283972,151.04202965524746 93.18677501397906,150.0706271546369 90.61422988644335,149.31856922997395 89.97109360463219,149.47524827921006 88.37665157247102,150.7756779906631 87.5727312201634,150.76001023080607 87.15737237146823,150.14896630217845 87.5325352025684,149.91394873528043 88.18907015695004,149.91394873528043 88.73841573100071,150.3996512958256 90.07828298490494,150.30564447293 90.6812232491211,149.88261303151376 91.24396749585867,150.3369800872024 91.73971837974386,150.00795580681006 92.61063209478743,149.8356094634073" stroke="#4dd2ff" stroke-linecap="round" stroke-linejoin="round" stroke-width="0.5"><title>2023-02-05 7.1km</title></polyline><polyline fill="none" points="121.36672325979453,154.819336063003 121.64613145764451,152.2974459797406 121.84695609996561,152.22597445038264 123.29638612660347,152.46080927667936 123.8115449915058,152.3791276627744 125.17365995637374,152.961107653442 125.75867087073857,153.02236850093323 126.03807906864677,151.8073544298968 125.82852292020107,151.38873259366665 125.2260489934124,151.39894290397206 124.9379092893796,151.11305380747945 123.31384913896909,151.25599846156547 122.34465195244411,151.0926331253213 121.89061363087967,150.74548086761934 121.06112054333789,150.59232506284025 121.0,151.21515715343412 121.06112054333789,150.62295624322724 121.35799175361171,150.60253545737214 121.51515886496054,150.72506010770303 121.49769585253671,151.15389515880815 121.66359447006835,151.41936352129414 123.70676691731205,151.25599846156547 125.9944215377327,152.18513355272444 127.50497210770845,152.54249082144088 128.43051176331937,152.38933786829875 129.02425418386701,152.62417229708808 129.6441911229631,152.57312138289853 130.36890613631113,152.71606387453357 132.12393887946382,152.4403888796587 133.46859083190793,152.61396211640385 134.22823187004542,152.54249082144088 134.45525103085674,152.32807661899278 135.31967014312977,152.3076561939015 135.6252728595864,152.57312138289853 136.34998787293443,152.8079553645439 137.18821246665902,152.74669438094134 137.43269463983597,152.5629111968301 137.42396313359495,151.57251801365783 137.5898617511848,151.11305380747945 138.27091923356056,150.48001065151766 140.72447247151285,150.70463934344298 142.0254668929847,150.53106267286057 143.0732476352132,150.17369795633567 145.7625515401014,148.82591054740624 148.71380063064862,148.4991713711497 151.3769100169884,147.29431109776488 151.83094833855284,146.46723728748475 151.60392917774152,145.18066393698973 151.8571428571595,146.416183116271 151.76109628909035,146.73271854227642 151.63012369634816,147.03904215952207 150.54741692938842,147.69252929308277 150.37278680573218,147.97842852252506 149.6829978171154,148.01927120044274 148.9058937666705,148.427697028892 147.56124181422638,148.70338348593214 146.8016007761471,148.64211989686737 145.49187484837603,148.8769634437631 143.05578462284757,150.1430666333399 141.92942032497376,150.52085227076896 140.25297113752458,150.67400818895112 138.3669658015715,150.41874819024815 137.5200097016641,151.07221243884123 137.28425903466996,150.86800533645146 137.54620422021253,151.17431582799327 137.40650012128754,151.52146654318494 137.51127819548128,151.91966729654814 137.35411108413246,152.09324146973813 137.41523162747035,152.4403888796587 137.22313849139027,152.68543335847062 136.41110841621412,152.8079553645439 135.43317972350633,152.4403888796587 135.35459616786102,152.2770255482028 134.49017705552978,152.2872357645174 134.12345379579347,152.51186025023344 133.39873878244543,152.57312138289853 132.97089497942943,152.57312138289853 132.7438758185599,152.41996847837436 130.89279650739627,152.4710194735453 129.89740480238106,152.33828682989406 128.81469803542132,152.5016500576894 128.33446519525023,152.3484970397476 127.65340771287447,152.53228063214192 126.36114479752723,152.2770255482028 123.63691486779135,151.29683975243097 123.0344409410609,151.2049468237019 121.65486296382733,151.40915321317152 121.48023284017108,151.05179174804653 121.61120543297147,150.68421857486828 122.3359204462613,151.1334744853084 123.13048750907183,151.29683975243097 124.89425175840734,151.11305380747945 125.15619694400812,151.39894290397206 125.55784622847568,151.42957382833265" stroke="#4dd2ff" stroke-linecap="round" stroke-linejoin="round" stroke-width="0.5"><title>2022-12-15 10.0km</title></polyline><polyline fill="none" points="157.42857142857974,154.1368064782655 157.70106142334407,150.43408906274271 159.9467548286193,150.58791377914167 160.23803723679157,150.78568807978445 162.1454672003165,151.22518517728167 162.44614581519272,149.95063847085112 162.37097616150277,149.5550863127719 161.55350617715158,149.5001483939268 161.27161997568328,149.13755740050692 160.2568296501995,149.18150789133506 159.86218896816717,148.9947181767202 159.2232469114242,149.22545836360223 158.55611623456934,149.18150789133506 157.64468418306205,148.6541007734195 157.55072211590596,149.15953264822747 157.77623107709223,149.5111359800212 159.88098138163332,149.1924955111681 160.2004524099757,149.57706147222052 162.549504089111,150.39013910191716 164.13746302417712,150.71976335475483 164.9925178354024,150.53297640658275 165.7442143727094,150.77470062851353 167.55768226902,150.79667552987667 168.55368018097943,150.74173826774495 168.9671132764779,150.55495135910314 170.46111014444614,150.77470062851353 171.20341047504917,150.71976335475483 171.55107012356166,150.45606403618876 172.42491734819487,150.45606403618876 172.65042630938115,150.68680097652395 173.43031146685826,150.85161276295548 173.64642422134057,151.08234882460238 173.87193318252685,150.81865042659774 174.33234731166158,150.91753740426793 174.64242213324178,150.79667552987667 174.84913868107833,149.18150789133506 175.68540107883746,148.4453347160088 177.62101966241607,148.68706379678042 179.21837480424438,148.61015005937224 180.59961719159037,148.2475559587765 183.32451713940827,146.81914263973158 186.96084913873347,146.32468729801622 188.05080911779078,145.86319352174178 188.18235601182096,146.3576510607163 188.28571428573923,146.32468729801622 187.27092396031367,146.7202517597616 184.15138333046343,147.0938390345982 180.51505133113824,148.74200214571465 179.1526013572584,149.11558214806428 177.5552462154301,149.21447074729804 175.8921176266158,148.98373053600517 175.6102314250893,149.31335925235908 175.55385418480728,150.2582891078855 175.22498694970272,151.40098349560867 174.7363842004561,151.58776888275315 174.31355489819543,151.69764248298452 172.23699321388267,151.19222295949294 170.320167043712,151.22518517728167" stroke="#4dd2ff" stroke-linecap="round" stroke-linejoin="round" stroke-width="0.5"><title>2022-12-12 7.2km</title></polyline><polyline fill="none" points="12.213515298208222,187.73971272527706 12.46313009026926,184.25101120570616 12.379925159621052,183.93132476015307 11.726172132999636,183.84792816815025 11.714285714260768,183.4309444141836 15.078142196813133,183.4865423245501 18.8104776579421,184.62629430147354 21.48492185783107,185.15446869441075 30.673123486689292,185.01547563893837 31.70724191062618,185.09887148987036 33.45454545452958,185.66874172112148 34.001320713199675,185.48805142761557 34.72639225178864,185.12667009508004 35.07109839312034,183.8618276038469 35.13053048646543,182.69426988133637 35.38014527846826,182.30508166819345 35.986352630425245,182.20778443475137 37.70988333702553,182.55527422328305 38.07836231566034,182.36068005490233 39.81377944088308,182.41627841812442 41.06185340083903,182.08268788584974 42.571428571420256,181.35990549362032 42.35747303545941,180.83171584615775 39.278890600951854,181.76299616432516 37.864406779641286,181.80469512862328 35.22562183573609,181.48500273063837 34.19150341185741,182.40237882954534 33.989434294519015,182.9583612265851 34.15584415587364,183.50044179843098 33.965661457157694,183.8340287310275 34.03697996912524,184.23711181122053 33.72793308389373,184.57069687343028 33.169271406542975,184.51509942190023 32.444199867895804,184.7374890869396 32.111380145244766,184.4039044481906 31.433854281320237,184.29270938038826 31.27933083870448,184.09811778531002 31.21989874530118,184.2232124152215 30.126348228077404,184.1120171945222 28.5216817081091,184.4178038250393 27.96302003081655,184.43170320043282 27.59454105212353,184.18151421846414 25.14593880699249,184.26491059872205 23.71956856705947,184.08421837461356 22.269425489823334,184.29270938038826" stroke="#4dd2ff" stroke-linecap="round" stroke-linejoin="round" stroke-width="0.5"><title>2022-12-06 5.0km</title></polyline><polyline fill="none" points="48.14285714284051,188.05058127579832 48.406835144676734,185.09607994469843 48.548251931380946,185.23939724076627 50.52808694518171,185.2614460380646 53.12072803452611,186.1213454935205 53.215005892387126,186.3087585356625 53.07358910568291,186.3087585356625 53.196150320756715,186.11032118640287 52.9227445332217,186.1213454935205 52.68704988871468,185.87881046804978 52.8944611758925,185.94495644004928 53.130155820341315,184.35744152400002 52.9793112478219,184.4566619147663 52.99816681945231,184.7763714201501 53.34699489327613,185.0630066945523 54.77059054601705,185.41578748841857 55.63794683775632,185.25042163998296 56.41102527169278,185.49295812789205 57.617781851498876,185.52603124162124 60.22927851253189,185.29451922523003 60.95521801756695,185.49295812789205 62.020557810668834,185.38271433974296 62.28453581244685,185.17325082091702 63.217886604659725,185.17325082091702 63.31216446246253,185.36066556807782 64.46235432761023,185.69139665270632 65.3579939766787,185.53705561051174 65.57483304961352,183.8723626981664 66.44218934135279,183.14474022558716 68.93112478719559,183.39830620944122 70.13788136700168,183.28806020534103 71.476626947755,182.8801489759062 74.00327353668399,181.53513306876266 74.86120204266626,181.31463700142194 77.12387062981725,181.12721497735765 78.35891056695255,180.79646940658859 78.83972764172358,180.5208472956292 78.9905722141848,181.06106594717858 78.99999999994179,180.93979261614004 77.07673170091584,181.5792322262496 74.42752389679663,181.93202481419576 73.05106717301533,182.62658173119416 70.49613722669892,183.72904352203477 68.56344114179956,183.81723996142682 68.35602985462174,183.9385099437568 66.6118894853862,183.72904352203477 62.020557810668834,185.93393211431976 57.655492994585074,186.0221266876979" stroke="#4dd2ff" stroke-linecap="round" stroke-linejoin="round" stroke-width="0.5"><title>2022-11-27 5.6km</title></polyline><polyline fill="none" points="84.57142857142026,186.1135492000103 85.79565811448265,186.29249358352536 86.13450736302184,186.19023968253896 86.69196902989643,186.47143770197727 87.06361014116555,186.40752911864547 89.02019128581742,187.0082684672525 89.34810991346603,185.48724177070835 89.17321997875115,185.2316051522721 89.23880370426923,185.75565963796544 89.78533475031145,186.1007674482098 91.51237285562092,186.43309255606437 92.33216942462604,186.19023968253896 93.19568847730989,186.49700112581195 96.35463792318478,186.47143770197727 96.96675269474508,186.26693011639145 98.63913769548526,186.47143770197727 99.53544861089904,186.42031083803886 99.93988158495631,186.1135492000103 101.02201305597555,186.1007674482098 101.14224988612114,186.34362050153868 102.39927129191346,186.7270716972198 103.25185972370673,186.61203646628564 103.61257021402707,186.24136664381513 103.73280704417266,185.61505987712007 103.59070897224592,185.10378664027667 103.7655989069026,184.57972932710254 104.77121603157138,183.76168409958336 107.29618946410483,184.08123367583175 109.01229694852373,183.95341394674324 110.7939881584607,183.3526594087598 113.3517534537823,181.95940866358433 115.42857142857974,181.56316010416776 113.5157127675484,181.88271549547062 110.7393350538332,183.37822349248745 108.968574464845,183.94063196639036 107.32898132683476,184.04288777129113 105.05541217548307,183.6977740829243 104.650979201484,183.77446609888284 103.73280704417266,184.63085696988855 103.56884773040656,185.10378664027667 103.7109458023333,185.61505987712007 103.51419462577906,185.96016808895365 103.59070897224592,186.35640222768416 103.29558220738545,186.6248181640185 102.07135266432306,186.6759449414094 100.78153939580079,186.06242218462285 99.89615910121938,186.0752039404979 99.46986488538096,186.39474739793513 98.44238651893102,186.45865598801174 97.62258994986769,186.25414838077995 94.16851373919053,186.20302142488072" stroke="#4dd2ff" stroke-linecap="round" stroke-linejoin="round" stroke-width="0.5"><title>2022-11-23 5.3km</title></polyline><polyline fill="none" points="121.0,185.02845257830631 123.62692702980712,185.34572813246632 126.56217882840429,186.15333530199132 126.94450154161314,184.4515860425745 126.85817060637055,184.04777801518503 126.47584789310349,183.86029531010718 125.85919835558161,183.91798232372093 125.31654676259495,183.47090732956713 123.98458376154304,183.51417271562968 123.68859198357677,183.6728123471985 123.73792394658085,183.81703003383882 127.9311408016365,185.24477689989726 129.23843782121548,185.4034145175392 129.92908530315617,185.01403094468697 130.79239465569844,185.1582472124428 131.84069886949146,184.97076603461755 132.05035971221514,185.27362011683 132.64234326826409,185.36014973104466 136.0462487153127,185.27362011683 136.8972250771476,185.54763037340308 138.34018499491503,185.47552246453415 138.80883864336647,185.14382559253136 140.0174717369373,185.12940397109196 140.301130524138,185.44667929029674 141.74409044196364,185.80721852944407 142.98972250771476,185.48994404936093 142.96505652624182,184.91307946648158 143.15005138749257,184.62464625963185 143.0143884892459,183.90356057258032 143.24871531350072,183.35553289946984 144.32168550876668,182.50464346217632 148.05858170607826,182.86519048232003 150.1058581706602,182.44695585040608 151.54881808842765,181.8268124825554 151.8571428571595,182.38926821427594 150.66084275435423,182.92287791706622 148.51490236382233,183.47090732956713 146.99794450157788,183.38437651618733 146.75128468655748,183.5430162987177 144.81500513874926,183.19689289871894 144.4326824254822,183.2978456478304 144.12435765675036,183.7016558967007 143.97636176773813,185.4034145175392 143.60637204523664,186.4561867570883 142.7677286742255,186.7446160888794 139.46248715318507,186.1100707534788 130.163412127411,186.3119718623784 126.69784172665095,185.64858138172713" stroke="#4dd2ff" stroke-linecap="round" stroke-linejoin="round" stroke-width="0.5"><title>2022-11-18 5.5km</title></polyline><polyline fill="none" points="157.42857142857974,187.6671534630441 157.76806062308606,184.122710510841 158.56828515295638,184.32120179383492 159.34426045470173,184.20777823952085 161.45394330623094,184.44880317762727 163.5151277013356,185.1576975422504 163.84249228180852,183.64065902822767 163.78186921135057,182.97429088834906 162.811900084198,182.9317566392856 162.3026662924094,182.47805714247806 161.0174571989919,182.5347696635872 160.76284030312672,182.86086619416892 160.87196182995103,182.97429088834906 164.16985686216503,184.0801766262157 166.27953971369425,184.5196927828365 167.10401347180596,184.23613413709973 168.06185798486695,184.5622265279817 171.57799607072957,184.548048614437 172.256974459684,184.3070238547807 174.1241650294396,184.5622265279817 175.069884928409,184.50551486482436 175.70036486105528,184.20777823952085 176.68245860224124,184.221956189067 176.9734493404394,184.50551486482436 178.46477687335573,184.8174287151778 179.64086444000714,184.548048614437 179.83485826547258,183.62648101718514 179.6772382823401,183.04518127351184 179.88335672183894,182.5205915355764 180.93819814757444,181.5564753109502 184.96357002522564,181.86839602496184 186.57614369905787,181.52811884638504 188.15234353061533,180.90427510837617 188.28571428568102,181.47140589932678 185.32730844785692,182.49223527499998 182.405276452424,182.54894779008464 181.5686780802207,182.25120681809494 181.05944428849034,182.4071664573421 180.80482739262516,182.7474414039316 180.68358125170926,184.23613413709973 180.35621667129453,185.39872077204927 179.36199831601698,185.7389881232957 177.10682009538868,185.17187539131555 167.11613808583934,185.29947596525017" stroke="#4dd2ff" stroke-linecap="round" stroke-linejoin="round" stroke-width="0.5"><title>2022-11-06 5.5km</title></polyline><polyline fill="none" points="11.714285714318976,228.0735358785896 12.425797503325157,224.24218142016616 12.9313453536015,213.7548542154982 13.361997226020321,211.80621087228064 13.474341192748398,212.00326552733895 15.758668515947647,211.93758066312876 22.180998613126576,213.38264285953483 22.63037447980605,210.31734741450055 22.461858529713936,211.19315074558835 23.154646324459463,211.6967359828559 26.487517337081954,212.37547936386545 33.35922330094036,211.01799037583987 33.80859916773625,211.01799037583987 33.902219140087254,212.24410985095892 35.43758668517694,212.02516047740937 36.99167822464369,212.11274025462626 37.57212205266114,212.48495389426535 40.04368932044599,212.3973742746166 40.830097087309696,211.85000081185717 40.848821081919596,211.03988543017476 42.45908460475039,210.55819370000972 42.571428571478464,209.44154037730186 41.97226074896753,209.0693212642509 40.96116504864767,210.42682303355832 41.14840499300044,210.95230519901088 40.736477115075104,211.12746562434768 40.06241331493948,212.24410985095892 38.002773925079964,212.50684879344772 36.99167822464369,212.11274025462626 31.14979195559863,212.11274025462626 30.681692094309255,212.46305899282743 29.258668515947647,212.46305899282743 27.779472954222,211.95947562019865 26.33772538136691,212.37547936386545 23.82871012482792,211.91568570377422 18.005547850159928,210.01081537308346 17.818307905690745,209.66049248407944 18.267683772486635,209.50722603368922 20.271151178865694,209.26637852514978 20.926490984740667,210.01081537308346 21.56310679600574,209.96702504441782 20.907766990247183,209.945129876578 20.23370318999514,209.31016900209943 19.16643550619483,209.31016900209943 18.08044382801745,209.4634355984308 17.94937586679589,210.03271053390927 23.922330097062513,212.02516047740937 22.33079056860879,211.1055705792969 22.424410540843382,210.31734741450055" stroke="#4dd2ff" stroke-linecap="round" stroke-linejoin="round" stroke-width="0.5"><title>2022-11-02 5.0km</title></polyline><polyline fill="none" points="49.09303860110231,225.61974790027307 49.045529528171755,225.3281086387433 48.2022434839746,225.21700779729872 48.14285714284051,224.81426645920146 48.451666116772685,222.73110188861028 48.451666116772685,220.8145612947992 48.641702408436686,220.4118064536451 48.53480699437205,218.93965755795944 48.796106895431876,215.85642430926964 49.045529528171755,214.6897766306356 49.24744308803929,214.84255251179275 51.611019465490244,214.75922023502062 54.65160013193963,215.70364960790903 54.94853183766827,213.71756231239124 54.79412735073129,214.1758928165509 55.007918178802356,214.50922308734152 57.44275816559093,215.06477165792603 61.231606730492786,214.27311423294304 62.51435169909382,214.2453366927657 63.2388650609646,214.60644425688952 63.63081491255434,214.37033557737595 65.2342461233493,214.41200184579066 65.72121412074193,213.967560967576 66.44572748267092,214.328669295719 67.3602771362057,214.00922736384382 68.04915869346587,214.31478053225146 68.35796766739804,215.12032638570236 69.21313097985694,215.3842110215046 70.41273507085862,215.1342150639539 70.61464863078436,214.09256011662364 70.47212141205091,213.5647851220856 70.69778950838372,213.0092302041012 71.43418013851624,212.27311631652992 72.15869350044522,212.1203374452889 74.24909270863282,212.45367293516756 75.62685582309496,212.45367293516756 77.15902342455229,212.16200442779518 78.77433190355077,211.52310924259655 79.0,212.0092254272604 77.69350049487548,212.62034036270052 75.94754206528887,213.0647858017037 74.14219729456818,213.17589692637557 71.92114813590888,212.92589676365606 71.58858462551143,213.3147856999567 71.14912570104934,215.87031290968298 70.21082151099108,216.21752744216064 66.8495546024642,215.64809512697684 57.82283074891893,215.82864710406284 55.11481359280879,215.2592131022393 54.782250082469545,217.37027310514532" stroke="#4dd2ff" stroke-linecap="round" stroke-linejoin="round" stroke-width="0.5"><title>2022-10-28 6.2km</title></polyline><polyline fill="none" points="84.57142857142026,221.91008153751318 84.76458752522012,218.9455683469714 84.96981891349424,218.40912559014396 85.1629778672359,218.6067626461736 86.63581488933414,218.46559335027996 87.79476861166768,218.5926457232854 90.23340040247422,219.4255416172673 90.72837022133172,219.31260688544717 91.00603621732444,217.80209565923724 90.89738430583384,217.2938824306766 90.53521126764826,217.12447759100178 89.83501006034203,217.18094589478278 89.43661971832626,216.78566726650752 88.1448692153208,216.85625282170076 87.9637826961698,217.02565800190496 88.10865191143239,217.26564830561983 91.81488933606306,218.53617801687506 93.02213279681746,218.74793179269182 98.12877263582777,217.9997336143424 98.17706237424864,218.7055810644233 99.86720321938628,218.5926457232854 100.97786720324075,218.86086700239684 103.81488933600485,218.5079441547423 103.94768611667678,218.77616560408205 105.34808853117283,219.1290877423744 106.48289738426683,219.01615275965014 106.72434607648756,218.8185163099406 106.70020120724803,218.225605204585 106.89336016098969,217.9714996386465 106.7484909457271,217.27976536889037 106.97786720324075,216.7574330339703 108.02816901408369,215.86805165107944 110.98591549292905,216.19274712863262 112.16901408450212,216.13627840671688 113.54527162975864,215.86805165107944 115.12676056334749,215.23277560534189 115.42857142857974,215.72687945782673 114.02816901408369,216.33391882901196 112.181086519151,216.81390149310755 110.74446680082474,216.7574330339703 110.49094567407155,216.88448703332688 108.57142857142026,216.55979323892097 108.16096579475561,216.67273030053184 107.90744466800243,217.05389217767515 107.83501006034203,218.28207304239913 107.46076458750758,219.67964441439835 106.45875251508551,219.99021384277148 105.58953722333536,219.90551316126948 105.44466800801456,219.65141079419118 104.96177062380593,219.72199483356962 103.75452716299333,219.43965845201456 98.59959758550394,219.5102426033991" stroke="#4dd2ff" stroke-linecap="round" stroke-linejoin="round" stroke-width="0.5"><title>2022-10-20 5.2km</title></polyline><polyline fill="none" points="127.96909620985389,219.97058198953164 128.43090379005298,220.6824128664739 129.64839650143404,221.02605457727623 130.90787172003184,220.55968356072844 134.1825072885258,220.903325453226 134.41341107874177,220.53513769175333 134.95918367349077,221.12423782965925 135.9247813411057,221.36969577909622 136.61749271140434,221.12423782965925 139.808163265232,221.44333311326045 140.89970845473,220.41240830812603 141.55043731769547,221.0015087576321 143.0827988338424,220.6333211519377 144.57317784253974,220.8542337855033 146.44139941688627,220.5842294270551 146.69329446053598,222.376070656901 147.00816326530185,222.10606806927535 147.07113702618517,220.31422475446016 147.65889212826733,219.89694418797444 151.1224489795277,220.92787128320197 151.8571428571595,222.15515947224048 151.35335276974365,220.16694934612315 149.50612244894728,215.7731900022918 146.92419825063553,216.68140406248858 146.1475218659034,217.95780700315663 144.17434402334038,218.27690664115653 143.1667638483923,218.27690664115653 142.76793002919294,217.8841685627849 136.4705539358547,217.90871471218998 135.96676384832244,217.54052219889127 133.15393586014397,218.0805376851058 132.65014577261172,217.68779927429568 138.8215743440669,216.82868168322602 139.13644314871635,217.41779123133165 138.73760932940058,218.03144542004156 135.77784256567247,217.68779927429568 133.3008746355772,218.0805376851058 132.41924198251218,217.7614377769787 136.76443148683757,216.95141296240035 139.0734693877166,216.87777420265775 139.11545189504977,217.63870692625642 138.77959183673374,218.03144542004156 135.71486880467273,217.68779927429568 133.15393586014397,218.05599155387608 132.44023323617876,217.78598393932043 134.1825072885258,217.46688362616987 134.7282798832748,217.81053009911557 138.69562682218384,218.15417606307892 139.0734693877166,217.85962241077505 139.0944606413832,216.87777420265775 137.66705539356917,216.7550428845716 130.78192419814877,218.17872218386037 127.65422740520444,217.61416074828594 121.29387755098287,215.47863332736597 121.0,215.08589051252056 121.46180758008268,214.7913329651492 123.68688046641182,214.76678648593952" stroke="#4dd2ff" stroke-linecap="round" stroke-linejoin="round" stroke-width="0.5"><title>2022-09-24 5.1km</title></polyline><polyline fill="none" points="185.48051948053762,224.06193311838433 186.70016939588822,223.27758802636527 188.1027667983435,218.00106096238596 182.4313946920447,214.57842673233245 177.73574251821265,220.14019853266655 177.73574251821265,223.70541273528943 180.23602484469302,224.7749733196688 185.41953698452562,224.84627729823114 186.76115189143457,223.99062905687606 188.28571428568102,217.71584210678702 182.9192546585109,214.36451151617803 177.85770751000382,220.21150300157024 177.97967250132933,224.34714928938774 181.33370976825245,224.489757329633 182.37041219649836,225.2027970785275 181.2727272727061,226.27235528756864 158.83116883109324,227.55582289909944 157.9164313946385,228.26885940530337 159.50197628466412,227.05669689620845 183.04121964983642,227.6271265835967 186.63918689987622,226.77148187113926 172.73517786548473,226.27235528756864 173.89384528505616,209.30183158622822 173.2230378317181,209.1592203337932 170.72275550547056,226.55757052340778 157.42857142863795,226.4149629205349 157.61151891574264,227.19930436305003 186.76115189143457,227.55582289909944 184.50479954807088,226.27235528756864 182.00451722182333,226.84278563875705 172.6741953699384,226.05844378145412 173.6499153021723,208.87399773759535 171.3325804627966,226.05844378145412 169.32015810278244,226.84278563875705 159.19706380576827,226.4149629205349 159.07509881420992,227.19930436305003 188.22473178990185,227.9123412463232 180.0530773573555,227.6271265835967 186.27329192543402,227.55582289909944 186.27329192543402,226.62887431372656 182.6753246751614,226.34365910786437" stroke="#4dd2ff" stroke-linecap="round" stroke-linejoin="round" stroke-width="0.5"><title>2022-09-22 5.0km</title></polyline><polyline fill="none" points="25.82738820265513,255.23044903708796 27.04889507580083,255.05465168580122 27.95093092066236,255.64796715007105 29.022098486311734,255.4941447850142 31.333565338514745,255.86771318830142 32.55507221177686,255.31834765692474 32.51748738484457,254.9228035746928 32.78058117290493,254.85687948786654 33.231599095393904,255.6259925334889 35.41151905350853,255.36229695288057 36.20080041768961,255.6699417643831 37.85453279979993,254.85687948786654 37.87332521332428,255.56006866969983 38.17400382820051,255.84573859491502 38.36192796251271,254.68108182042488 38.73777623125352,254.43935978479567 42.02644858206622,255.31834765692474 42.571428571478464,256.3511536541628 41.59422307298519,253.12087100282952 40.44788585358765,250.68164469381736 38.79415347147733,251.2749726484035 38.28675830888096,250.92337110210792 36.20080041768961,250.61571926086617 33.66382460424211,252.615448084136 30.018096398329362,252.68137288243452 29.548286062316038,251.6924987117236 26.33478336536791,252.15397391053557 25.20723855937831,252.41767356389028 26.52270749968011,253.01099655989674 31.934922568383627,252.9670467664546 32.78058117290493,252.615448084136 34.321559074451216,252.615448084136 35.279972159536555,252.9670467664546 37.23438315652311,252.74729765974917 37.59143901185598,251.8243488731532 36.95249695505481,251.25299756924505 35.862536975881085,251.14312213826634 34.20880459388718,252.0440989562194 33.11884461471345,251.25299756924505 31.634243953507394,251.67052367671567 29.773795023560524,251.6265735996567 29.73621019674465,252.72532273632532 28.214024708722718,252.46162347352947 25.883765442995355,252.8351973303361 24.69984339666553,252.46162347352947 23.891769619076513,252.79124749969924 22.557508265250362,252.74729765974917 14.85261875775177,250.4179428366042 15.303636680124328,249.71473624744976 14.063337393454276,249.36313206014165 13.330433269613422,249.89053811787744 11.714285714318976,249.6048600028298 12.014964329311624,249.86856289225398 14.833826344227418,250.19819103322516 17.389594571199268,249.75868672902288 18.197668348788284,250.50584349285054 19.21245867421385,250.3300421431777 19.79502349055838,250.54979380698933 19.4191752220504,253.84604086853506 18.892987645813264,253.84604086853506 20.058117278735153,254.3514607930265 19.362797981710173,254.43935978479567 19.193666260805912,255.1205757099233" stroke="#4dd2ff" stroke-linecap="round" stroke-linejoin="round" stroke-width="0.5"><title>2022-09-09 5.2km</title></polyline></svg>