<?xml version="1.0" encoding="utf-8" ?>
<svg baseProfile="full" height="300mm" version="1.1" viewBox="0,0,200,300" width="200mm" xmlns="http://www.w3.org/2000/svg" xmlns:ev="http://www.w3.org/2001/xml-events" xmlns:xlink="http://www.w3.org/1999/xlink"><defs /><rect fill="#222222" height="300" width="200" x="0" y="0" /><text fill="#FFFFFF" style="font-size:12px; font-family:Arial; font-weight:bold;" x="10" y="20">Over 5km Runs</text><text fill="#FFFFFF" style="font-size:4px; font-family:Arial" x="10" y="280">ATHLETE</text><text fill="#FFFFFF" style="font-size:9px; font-family:Arial" x="10" y="290">feng qijun</text><text fill="#FFFFFF" style="font-size:4px; font-family:Arial" x="120" y="280">STATISTICS</text><text fill="#FFFFFF" style="font-size:3px; font-family:Arial" x="120" y="285">Number: 27</text><text fill="#FFFFFF" style="font-size:3px; font-family:Arial" x="120" y="290">Weekly: 1.4</text><text fill="#FFFFFF" style="font-size:3px; font-family:Arial" x="141" y="285">Total: 157.7 km</text><text fill="#FFFFFF" style="font-size:3px; font-family:Arial" x="141" y="290">Avg: 5.8 km</text><text fill="#FFFFFF" style="font-size:3px; font-family:Arial" x="167" y="285">Min: 5.0 km</text><text fill="#FFFFFF" style="font-size:3px; font-family:Arial" x="167" y="290">Max: 10.0 km</text><polyline fill="none" points="11.799999999988358,51.457923796217074 12.25378151255427,50.520498298545135 12.042016806663014,49.86606606235728 12.087394957896322,47.619752145095845 12.25378151255427,47.106810089040664 12.601680672203656,46.92993315313652 16.80672268907074,47.31906216518837 19.257142857124563,48.344943401316414 19.968067226815037,48.27419317334716 21.178151260421146,48.6279440139333 21.752941176411696,49.034756555454805 22.28235294111073,48.910944147617556 23.205042016750667,49.22931872541085 25.594957983179484,49.070131512286025 26.668907562969252,49.742254270095145 27.485714285692666,49.423880668968195 28.46890756295761,49.742254270095145 29.331092436914332,49.56538012206147 30.026890756271314,49.10550646160846 30.631932773045264,49.636129803722724 32.25042016810039,49.388505786977476 32.961344537790865,49.54769269700046 35.0638655461953,48.6279440139333 35.95630252099363,48.7163816071843 37.49915966385743,49.3354434499488 37.968067226873245,48.75175663133268 39.042016806663014,48.910944147617556 40.47899159655208,48.38031850410334 40.796638655418064,47.51362633159442 41.02352941170102,45.2319050476799 41.3109243697254,44.772019467971404 42.02184873947408,44.542076203768374 43.08067226881394,44.860459100833395 44.199999999953434,44.860459100833395 41.825210083974525,44.55976415843179 41.2957983193337,44.736643601791 40.97815126046771,45.14346561137063 40.47899159655208,48.415693599396036 38.92100840335479,48.946319130656775 35.472268907527905,48.13269262750691 23.49243697471684,48.344943401316414 21.752941176411696,48.06194230969413 15.581512604956515,46.20473575951473 12.873949579778127,46.29317463444022 15.490756302489899,46.45236449150252 15.672268907539546,46.2754868632328 16.126050420105457,46.47005224401073" stroke="#4dd2ff" stroke-linecap="round" stroke-linejoin="round" stroke-width="0.5"><title>2023-04-20 5.0km</title></polyline><polyline fill="none" points="55.216295596037526,63.14080635505525 55.381817663961556,64.05791358331771 55.22733040060848,63.683321325457655 55.337678445794154,63.8770760856205 56.551506943884306,64.19999999999709 57.3460128698498,63.79957421861036 57.7543006374035,62.83079671407177 57.875683487101924,62.779128363748896 58.09637957776431,63.127889302435506 58.58191097690724,63.08913813641993 58.90192030824255,62.46911780093069 58.76950265391497,60.7898801868796 59.23296444409061,60.00192223761405 59.11158159421757,59.80816130416497 62.4771969752037,57.12131120736012 63.5917122324463,55.635767642037536 64.3641485493863,53.181351557512244 64.55174022633582,49.16375305408292 64.64001866255421,48.65992908374028 64.84967994858744,48.53074311402452 64.71726229425985,48.02691652075737 65.05934123462066,46.59293709760823 66.32834375533275,44.21585287152993 67.26630214013858,43.10480843683035 68.94359242828796,41.606174277796526 69.93672483577393,40.19795810330106 70.33397779881489,39.24191213787708 71.3381450108136,34.47448962149792 72.78370440390427,31.799999999995634 71.24986657453701,34.952532291768875 70.41122143046232,39.0222788946121 69.98086405394133,40.21087759189686 68.6346179015818,42.00667314632301 66.50490062771132,43.957471350891865 65.1807240844355,46.347479465090146 64.7945059259655,47.93648588559881 64.86071475310018,48.65992908374028 64.61794905352872,48.982893407475785 64.3641485493863,53.64640261948807 63.624816646042746,55.700356870023825 61.93649155332241,57.767194054002175 59.24399924860336,59.82107870931213 59.28813846671255,60.04067438728089 58.96812913543545,60.57028586166416" stroke="#4dd2ff" stroke-linecap="round" stroke-linejoin="round" stroke-width="0.5"><title>2023-04-17 6.5km</title></polyline><polyline fill="none" points="83.98735543555813,55.251496898563346 83.79999999998836,55.09084770741174 83.79999999998836,54.65271259979636 84.59938319196226,44.66285494448675 84.81171935232123,43.976390817711945 85.76098689273931,44.23929237591801 86.29807247489225,44.07863037205243 87.5595990747679,44.1808698506793 90.0326908249408,45.02799404691905 90.43238242098596,44.91114963919972 92.10609097912675,45.53918716793123 92.21850424050353,45.93353485381522 92.79306090978207,46.09419469923887 93.59244410175597,45.78748028668633 95.36607555899536,46.05037839632132 95.76576715498231,45.845902132059564 96.47771781031042,46.29867059575918 97.36453353893012,46.16722183993261 98.67602158826776,46.38630303015816 99.46291441790527,46.00656207946304 99.42544333077967,45.72905841654574 99.70023130299523,45.71445294514706 99.9250578256906,46.254854357714066 100.64949884341331,46.313276005370426 101.33646877406863,46.10880013045971 102.03592906706035,46.28406518463453 102.91025443328544,45.8166912124434 102.96021588274743,46.240248941932805 103.1725520431064,46.38630303015816 103.74710871238494,46.254854357714066 104.1343099459773,45.53918716793123 105.85797995369649,46.16722183993261 105.84548959130188,45.74366388638737 106.89468003081856,45.78748028668633 108.05628373159561,45.33471014664974 108.51842713949736,42.53042329890013 108.85566692362772,42.209095126992906 109.30531996907666,42.0630366197729 111.09144178871065,42.442788417072734 111.478643022303,42.2821243226208 113.1398612181074,42.38436513165652 114.17656129522948,42.16527759103337 116.19999999995343,41.3035298914474 115.91272166534327,40.748503101436654 114.25150346948067,41.39116549640312 112.40292983799009,41.69788967575005 108.60585967614315,41.34734770088107 107.45674633764429,42.34054765132896 107.25690053967992,43.070837174207554 107.45674633764429,43.509009033674374 107.18195836542873,44.5167990331538 105.85797995369649,44.750488417150336 105.19599074788857,44.61903818733117 104.37162683112547,44.064024726088974 103.12259059364442,44.034813429476344 102.62297609867528,44.35613735222432 101.52382420969661,44.472982229606714 100.62451811868232,44.253898003385984 97.75173477252247,44.283109253592556 97.53939861210529,43.71348875890544 97.66430223587668,43.62585462804418 99.21310717036249,43.55282614317548 99.9375481880852,44.12244730076054 99.82513492670842,44.23929237591801 97.12721665378194,44.253898003385984 97.16468774090754,43.85954552005569 96.95235158049036,43.72809444196173 93.3051657670876,44.38534858080675 91.25674633769086,43.976390817711945 87.70948342327029,42.60345232459076 87.23484965303214,42.618058125081006 87.05998457979877,42.4281825980288 87.5845797994989,42.17988343788602 88.13415574404644,42.442788417072734 89.50809560518246,42.36975930641347 89.88280647643842,42.807933390984545 90.18257517344318,42.807933390984545" stroke="#4dd2ff" stroke-linecap="round" stroke-linejoin="round" stroke-width="0.5"><title>2023-04-07 7.0km</title></polyline><polyline fill="none" points="119.79999999998836,51.769363679064554 119.91444270015927,48.94424695034104 120.21962323400658,47.50192862097174 123.09340659348527,47.78444574799505 126.04348508641124,48.61712450321647 126.29780219780514,48.06696230711532 129.5276295133517,48.78068582195556 139.30612244899385,48.61712450321647 142.68854003137676,49.30110693343158 143.85839874407975,48.94424695034104 144.3161695447052,46.19342083748779 144.68492935638642,45.73246633040253 146.96106750390027,45.97037852280482 147.40612244897056,45.80681393384293 149.02103610668564,45.910900512491935 152.20000000001164,44.81055278099666 152.00926216639346,44.230636320920894 148.66499215067597,45.22690158436308 147.17723704862874,45.25664073742519 144.46875981159974,44.87003125697083 143.32433281000704,45.910900512491935 143.0318681318895,48.12643940511043 141.836577708018,48.349478298419854 140.9718995290459,48.20078574218496 139.94191522768233,47.59114461718127 138.81020408164477,47.62088326997764 138.37786499218782,47.933138744629105 137.2843014128739,48.00748518394539 136.57221350085456,48.00748518394539 136.22888540028362,47.78444574799505 133.5712715855916,47.87366156486678 133.30423861858435,47.75470712977403 133.04992150707403,47.189672188367695 128.94270015700022,47.94800803565886 126.76828885404393,47.56140595805482 122.90266875986708,46.13394292150042 120.09246467822231,46.282637664247886 120.01616954477504,45.25664073742519 121.27503924653865,45.94063952079159 123.20784929359797,46.04472600038571" stroke="#4dd2ff" stroke-linecap="round" stroke-linejoin="round" stroke-width="0.5"><title>2023-04-04 6.0km</title></polyline><polyline fill="none" points="159.5752918953076,61.064539340208285 180.31293420121074,62.31872420106083 187.28507256228477,41.62457223632373 170.12288582604378,33.68130484689027 157.78756411094218,47.68651797750499 157.25124577526003,59.81035368423909 164.40215691458434,63.57290826563258 182.99452587775886,60.22841565834824 186.39120867010206,43.923933154321276 172.44693194702268,33.05420342972502 157.25124577526003,49.776839783997275 158.32388244569302,62.31872420106083 182.6369803212583,61.90066266921349 186.7487542266026,42.46070378879085 172.80447750445455,32.63613570865709 164.40215691458434,38.907142248004675 157.25124577526003,49.149743474205025 157.07247299607843,60.85550845309626 177.27379696629941,64.19999999995343 183.53084421437234,61.48260104947258 186.56998144742101,42.46070378879085 172.26815916784108,32.63613570865709 157.78756411094218,48.52264696487691 157.07247299607843,61.2735702060163 174.4134325105697,63.36387764336541 182.27943476475775,61.064539340208285 186.7487542266026,41.41553929250222 171.1955224974081,32.218067898531444 157.60879133176059,48.73167915700469 157.78756411094218,61.69163187034428 168.69270359911025,63.36387764336541 183.53084421437234,60.64647754316684 186.7487542266026,42.251670933677815 171.1955224974081,31.79999999993015 157.43001855444163,48.73167915700469 157.96633688919246,61.90066266921349 179.24029752984643,62.94581633317284 183.17329865694046,60.85550845309626 186.56998144742101,41.2065063273767 172.08938639052212,32.218067898531444 158.14510966744274,47.68651797750499 156.71492743864655,60.85550845309626 182.27943476475775,61.69163187034428 185.85489033348858,41.833605157444254 172.44693194702268,32.63613570865709 163.6870658006519,38.907142248004675 157.78756411094218,48.73167915700469 157.60879133176059,61.90066266921349 176.91625140886754,63.36387764336541 182.6369803212583,60.85550845309626 186.03366311173886,41.2065063273767 171.73184083309025,32.42710181418806 160.4691557874903,43.29683498770464 156.71492743864655,61.064539340208285 162.7932019084692,63.57290826563258 182.45820754300803,61.90066266921349 186.56998144742101,42.878769431845285 173.16202306188643,32.63613570865709 164.40215691458434,39.11617545702029 157.25124577526003,49.56780770246405 156.71492743864655,61.064539340208285 160.82670134492218,63.15484699921217" stroke="#4dd2ff" stroke-linecap="round" stroke-linejoin="round" stroke-width="0.5"><title>2023-03-30 5.2km</title></polyline><polyline fill="none" points="43.883387622074224,101.48485595620878 44.20000000001164,98.85815048775112 42.13448115403298,98.17061671777628 38.32005583989667,97.64174265714246 38.093904141453095,97.43019256299885 38.289902280143,94.71527585446893 39.254816193541046,94.50372204591986 39.99357840855373,87.45177475977107 39.661889250797685,87.2931025132566 39.34527687297668,87.55755617347313 38.30497906001983,87.48703523846052 38.561284318275284,87.4341445176251 38.32005583989667,87.20495119993575 34.73178222426213,88.10409240820445 33.26933457417181,88.06883206006023 32.39488134015119,87.27547225433227 31.264122847816907,85.10693618097866 29.30414146120893,83.46729261042492 28.76137738476973,83.3438779253629 28.489995346637443,82.88547972346714 25.565100046515,82.26840322963835 23.137738482968416,81.12239796416543 22.564820846833754,79.72955018450739 22.42912982776761,78.21327227684378 21.630060493189376,77.17302712742821 20.36361098184716,76.96145104806055 16.549185667710844,77.66670360128046 15.825500232633203,77.49039074280881 14.242438343411777,76.27382693454274 13.488599348522257,76.1151440438116 11.799999999988358,76.30908977861691 13.80521172634326,76.16803835752944 15.554118194500916,77.29644638301397 16.549185667710844,77.64907232380938 20.3033038622234,76.99671374661557 21.569753373623826,77.19065845529258 22.383899488078896,78.24853471046663 22.549744067015126,79.78244335086492 23.137738482968416,81.14002887408424 25.278641228505876,82.21551085243118 28.369381107448135,82.81495681127126 28.806607724516653,83.39676994447655 29.30414146120893,83.48492327223357 30.64597487199353,84.48986791331845 31.505351326195523,85.51243694133882" stroke="#4dd2ff" stroke-linecap="round" stroke-linejoin="round" stroke-width="0.5"><title>2023-03-28 5.0km</title></polyline><polyline fill="none" points="51.05365168536082,92.00602974105277 51.34943820221815,89.07940414582845 51.17879213480046,88.58719224134256 50.89438202243764,88.41425246615108 49.59747191006318,88.74682874577411 49.506460674107075,88.49407085349958 47.79999999998836,88.0949784102122 47.89101123594446,87.68258155483636 49.74536516855005,88.16149390537612 54.06839887640672,88.17479700019612 58.09564606734784,89.3986757024104 60.30266853928333,89.77115816056903 69.00561797752744,89.61152295646025 71.80421348317759,90.18354816664942 72.77120786509477,89.7977640082172 73.22626404493349,87.38991199829616 73.55617977527436,86.9775128305846 75.70632022467908,87.23027377122344 75.85421348310774,87.04402891686914 77.66306179773528,87.11054496795259 80.20000000001164,86.19262035543215 80.06348314607749,85.5939702589385 78.24325842695544,86.29904674088175 76.85533707862487,86.52520251085662 75.3650280899019,86.4985959708356 73.63581460673595,86.17931705092633 73.20351123588625,86.29904674088175 72.30477528087795,87.04402891686914 72.07724719098769,87.66927840792778 72.13412921340205,88.30782787089265 71.62219101120718,88.33443402815465 71.25814606738277,88.74682874577411 71.24676966294646,89.1326161282268 70.89410112350015,89.30555491548148 70.07500000001164,89.01288913616736 69.7678370786598,88.26791862447135 69.17626404488692,87.98855354476109 68.3571629213402,88.16149390537612 67.8224719100399,88.90646504756296 66.90098314604256,89.05279814620008 66.3094101123279,89.05279814620008 65.99087078653974,88.83994994645764 63.39705056179082,88.8798590113438 63.15814606740605,88.26791862447135 60.723595505580306,88.65370747615088" stroke="#4dd2ff" stroke-linecap="round" stroke-linejoin="round" stroke-width="0.5"><title>2023-03-26 5.6km</title></polyline><polyline fill="none" points="116.20000000001164,100.6014291352185 115.2779446640634,100.61640431388514 112.90877470362466,99.83769292305806 112.58861660078401,100.0772968842357 111.37201581028057,100.04734641122923 108.65707509883214,100.5115780300257 107.41486166010145,100.5115780300257 106.72332015814027,100.00242068988155 105.77565217396477,97.980748472517 104.07241106725996,96.60299975090311 103.61138339922763,96.4831948804349 103.38086956524057,96.06387703538348 100.9476679841755,95.59963082932518 98.86023715412011,94.56630316223891 98.34798418969149,93.39818454133638 98.23272727266885,92.14019986015046 97.63083003956126,91.2566086967563 96.4014229249442,91.04694218718214 93.27667984185973,91.61603627626027 92.5595256917295,91.48125104089559 90.1647430830053,89.69907863759727 90.31841897236882,88.99518923723372 89.39636363642057,86.95838316512527 89.14023715408985,86.80861685579293 89.12743083003443,86.19457333035825 88.71762845851481,85.715317995855 88.62798418977764,85.13122336246306 88.43588932807324,84.86164041084703 87.73154150194023,84.62201068938884 87.30893280636519,83.94804992219724 87.18086956522893,83.67846471664961 87.65470355731668,83.43883299158188 85.15747035574168,79.63462500026799 83.79999999998836,76.95364533354586 85.00379446643637,79.39498642702529 88.30782608699519,84.54712631818256 88.20537549402798,84.7867561664898 89.08901185769355,86.10471307879197 89.07620553357992,86.88350003027881 89.42197628458962,87.0632194873906 90.33122529648244,89.08504765348334 90.1135177865508,89.63917329303513 90.54893280635588,89.81888925068779 90.88189723325195,90.31310695763386 92.53391304350225,91.43632260062441 93.13581027666805,91.57110787869897 96.38861660083057,91.04694218718214 97.59241106722038,91.31651335672359 98.19430830038618,92.0353672986821 98.28395256918157,93.24842504653498 98.8474308300647,94.56630316223891 100.64031620556489,95.50977654905 103.36806324112695,96.07885269408871 103.71383399207843,96.5730485427921 104.00837944663363,96.5730485427921 105.77565217396477,97.980748472517 106.7361264822539,99.85266818253149 107.42766798421508,100.5265532181802 108.41375494078966,100.61640431388514 110.79573122528382,100.03237117239041 111.44885375490412,100.40675166851724 111.82023715419928,100.0772968842357 112.57581027672859,100.04734641122923 112.76790513831656,99.79276713520812 115.02181818184908,100.64635466645996 115.84142292494653,100.57147877318494" stroke="#4dd2ff" stroke-linecap="round" stroke-linejoin="round" stroke-width="0.5"><title>2023-03-18 7.0km</title></polyline><polyline fill="none" points="119.79999999998836,89.97253348428058 121.91375041817082,89.9091557559077 125.98949481430463,91.10065143984684 127.7238541317638,91.40486120509013 136.20053529611323,91.29078263362317 138.85627300100168,91.8992004263564 139.87520910002058,91.4302119839922 140.2437604549923,89.23734977432468 140.53643358987756,88.84440490703855 143.86423553031636,88.95848580772144 145.42515891604125,88.65426983122597 146.99692204751773,88.03315981404012 146.83432586153504,87.47542562630406 148.90471729676938,86.29656982237066 152.04824355972232,85.70079957364942 152.20000000001164,85.80220748479042 150.21632653067354,85.91629128217755 148.87219805951463,86.2712179572336 146.06470391439507,87.83034768253128 144.72057544329436,88.2232958755485 143.05125460017007,88.36272879554599 140.65567079291213,87.99513256554201 140.27627969218884,88.08386279328988 139.37658079626272,88.93313450584537 139.18146537302528,89.55423985762172 139.3332218133146,89.9091557559077 139.2248243559734,90.64433534377895 138.92131147545297,90.92319538676384 137.8806958849309,91.01192344614537 136.55824690527515,89.78240019860823 135.61518902645912,89.8838046551682 135.10572097694967,89.47818631405971 134.68297089327825,89.4021327221999 134.28190030111,89.54156427035923 133.7941117430455,90.12463989551179 133.51227835397003,90.14999094530503 132.98113081295742,90.59363344805024 132.10311140847625,90.64433534377895 131.9188357309904,90.02323564280232 128.82950819673715,90.352799150387" stroke="#4dd2ff" stroke-linecap="round" stroke-linejoin="round" stroke-width="0.5"><title>2023-03-14 5.6km</title></polyline><polyline fill="none" points="185.37557603686582,94.87472785817226 184.28064516128507,94.72923174458265 182.2027649769443,94.04539794905577 180.70967741933418,94.45278870472976 180.39861751155695,94.1908947860502 177.82304147467948,94.80197982062236 177.02672811062075,94.75833097960276 176.20552995393518,94.07449732875102 175.07327188941417,91.89202676413697 173.77926267281873,90.45157721826399 172.90829493082128,90.11692516393668 170.1087557603605,89.73862186107726 168.60322580643697,88.92381121257495 168.00599078339292,87.6433847246808 167.81935483869165,86.26109274695045 167.32165898615494,85.66452033775568 166.33870967745315,85.47536269195552 162.82995391706936,85.99918322751182 161.12534562213114,84.87878687385819 158.79861751146382,84.95154016102606 158.59953917050734,83.7583813911915 158.56221198150888,84.98064146505203 156.6087557603023,85.11159725717152 155.79999999998836,82.725272141819 156.4594470045995,84.87878687385819 156.78294930869015,85.16979979141615 160.66497695847647,84.84968554825173 161.20000000001164,84.98064146505203 162.38202764972812,85.83912716447958 163.07880184333771,86.0137337694614 166.4506912442157,85.53356507222634 167.37142857146682,85.78092491350253 167.8566820276319,86.40659782002331 167.9935483870795,87.6433847246808 168.50368663592963,88.86561026716663 170.14608294924255,89.79682243695424 172.8460829492542,90.32062651139859 173.21935483871493,90.82987855991814 173.64239631337114,90.91717872170557 175.25990783405723,92.1975747281831 176.24285714287544,94.05994763967465 176.84009216586128,94.75833097960276 178.3953917050967,94.86017825370072 179.09216589858988,94.51098728564102 180.9211981567205,94.17634510925564 181.92903225804912,94.27819281433767 182.0658986174967,94.07449732875102 184.55437788018025,94.87472785817226 188.19999999995343,94.72923174458265" stroke="#4dd2ff" stroke-linecap="round" stroke-linejoin="round" stroke-width="0.5"><title>2023-03-12 6.0km</title></polyline><polyline fill="none" points="42.805201793671586,135.41071544428996 38.911390134482644,134.44229561215616 38.75156950671226,134.6971435025771 37.836233183857985,134.39132598554716 37.25506726454478,134.9519909885712 37.13883408071706,134.64617395686219 33.913363228726666,135.30877678957768 32.867264573986176,135.18984827732493 32.08269058295991,134.37433610638254 30.469955156964716,131.5370010764891 29.30762331839651,130.34768405774958 27.985470851999708,129.87195478387002 24.861704035894945,129.4471953127795 23.118206277955323,128.44475850620074 22.566098654759116,127.06852151086787 22.47892376681557,125.59032789610501 21.8541704036179,124.75777607662894 20.415784753393382,124.50291241177183 16.681793721974827,125.11458452785155 16.187802690605167,125.02963020662719 15.751928251120262,124.50291241177183 14.48789237672463,123.78929199800768 13.921255605411716,123.68734596573631 11.799999999988358,123.87424697546521 14.342600896838121,123.7553099944198 16.144215246662498,124.9276849618036 20.50295964127872,124.4519396302785 21.75246636767406,124.72379427803389 22.464394618815277,125.74324510799488 22.566098654759116,126.98356822336791 23.089147982071154,128.30883438959427 24.992466367664747,129.36224328365643 28.18887892377097,130.00787757738726 28.566636771254707,130.50059673926444 29.075156950741075,130.56855788435496 31.007533632277045,132.1656365138915 32.12627802690258,134.39132598554716 32.96896860987181,135.1558686862263 34.16035874438239,135.27479722363933 35.497040358779486,134.83306221207022 35.72950672637671,135.1218890878663 36.659372197289485,134.6631638071849 38.8387443945976,134.47627535424544 41.759103138931096,135.51265403426078 44.20000000001164,135.32576656984747" stroke="#4dd2ff" stroke-linecap="round" stroke-linejoin="round" stroke-width="0.5"><title>2023-03-05 5.0km</title></polyline><polyline fill="none" points="77.54958263773005,129.4841899539606 77.72988313867245,130.07440227494226 79.58697829721496,129.7160592884611 80.00166944914963,130.9807963665953 79.92954924877267,131.61316189767967 75.11552587652113,132.94112298599794 71.99632721219677,134.3955464126193 68.98530884808861,136.46123101958074 66.87579298834316,133.1519096470729 65.54156928230077,132.0347378043516 52.992654424044304,129.21016221120954 52.848414023406804,128.85181767161703 53.551585976732895,126.89145085198106 53.35325542581268,126.49094343192701 53.587646076921374,125.4580521624448 47.800000000046566,122.54906432390271 53.569616026827134,125.39481374768366 52.235392320668325,129.16800406349648 51.74858096835669,131.6342407142365 52.5058430719655,129.80037534319854 52.992654424044304,129.5052689955628 63.73856427392457,131.6553195284796 66.31686143577099,132.83572957184515 68.58864774636459,136.65093567609438 73.31252086814493,133.76318970444845 75.38597662781831,132.8778869441885 80.20000000006985,131.54992543479602 79.58697829721496,128.78858033311553" stroke="#4dd2ff" stroke-linecap="round" stroke-linejoin="round" stroke-width="0.5"><title>2023-02-22 5.0km</title></polyline><polyline fill="none" points="83.79999999998836,133.35449598304695 84.00345368916169,129.72643906070152 84.28320251172408,129.22088271165558 87.18241758242948,129.36957594424894 90.50125588697847,130.6037237039418 91.63296703295782,130.67806960843154 92.14160125592025,131.02006026281742 92.59937205648748,130.87136877622106 94.77378335950198,131.1984898391529 95.32056514912983,131.10927507928864 96.1216640502098,131.46613377890026 96.83375196228735,131.34718097970472 98.35965463105822,131.54047922730388 99.37692307686666,130.96058368703234 99.4150706435903,131.25796631422418 99.82197802193696,131.43639558856376 100.43233908945695,131.48100287173293 100.96640502352966,131.27283542908845 102.00910518044839,131.45126468451053 102.75934065930778,130.7375463037315 103.19167974882293,130.6632004306739 105.40423861844465,131.16875159210758 105.56954474089434,131.3620500850957 105.65855572995497,130.82676129952597 106.68854003131855,130.88623793199076 107.83296703291126,130.54424695199123 108.21444270008942,129.08705866783566 108.30345368915005,127.76368070770695 108.81208791205427,127.27298683678964 109.98194662475726,127.51089923056134 113.33893249597168,127.49602971773129 116.19999999995343,126.38081177340064 115.88210361055098,125.84550401695014 114.48335949762259,126.39568140417396 112.61412872839719,126.79716084105894 111.39340659335721,126.82690001299488 108.5450549449888,126.45515991166758 107.31161695445189,127.42168213007972 107.07001569849672,128.1651562369807 107.17174254311249,128.74506331028533 106.30706436414039,129.042450624911 106.09089481947012,129.72643906070152 105.68398744106526,129.90487027919153 104.93375196232228,129.7859161587112 104.05635792773683,129.23575204201916 102.86106750392355,129.22088271165558 102.36514913657447,129.53313831845298 100.7248037676327,129.63722336656065 100.38147566711996,129.39931457191415 96.52857142861467,129.4439225015958 95.80376766086556,129.3398373103264 95.44772370485589,129.012711921765 92.87912087904988,129.56287691145553 90.84458398737479,129.17627471120795 87.05525902670342,127.77855019220442 85.12244897952769,127.49602971773129 88.78461538458942,127.46629068742914" stroke="#4dd2ff" stroke-linecap="round" stroke-linejoin="round" stroke-width="0.5"><title>2023-02-10 5.9km</title></polyline><polyline fill="none" points="127.27042987401364,135.90904792657238 127.31263569253497,131.4508806985541 128.77577073377324,131.46733173508255 131.2096396004781,132.09246983280173 132.54615718621062,131.69764606344688 133.094832826755,130.03608504850126 133.1933130698162,128.57192250876687 133.61537125485484,128.11128425222705 136.0492401215015,128.45676307257963 136.51350412500324,128.22644394429517 138.80668693000916,128.25934669779963 141.14207555359462,127.5190330602345 145.2360399478348,125.46258779623895 149.92088580114068,124.82097130754846 152.19999999995343,123.96547853756056 152.07338254444767,124.06418948200007 151.8482848458225,123.66934532824962 151.8904906642856,123.2909520734247 151.13078593136743,123.71870090233278 149.17524967429927,124.21225578116719 148.33113330439664,124.24515938403783 148.1341728180414,123.99838219267258 145.51741207117448,124.47548440931132 143.7869735127315,125.11710232363839 140.9310464610462,126.74581283137377 138.83482414245373,127.40387284429744 136.27433782018488,127.5848388595914 134.23438992613228,127.20645513285126 133.22145028226078,127.23935810210241 132.0678245765739,128.22644394429517 131.8005210594274,128.9832055134175 131.88493269647006,129.7399633997702 131.2659140251344,129.7399633997702 130.81571862782585,130.16769448919513 130.71723838464823,130.8092889174004 130.2529743812629,131.02315313856525 129.32444637425942,130.6776800197258 128.98679982626345,129.78931704707793 128.12861485022586,129.3451336576254 127.15788102470106,129.6248048285488 126.62327399040805,130.46381532344094 125.4696482848376,130.6776800197258 124.61146330862539,130.69413113800692 124.31602257926716,130.44736418075627 120.01102909242036,130.4144618901919 119.79999999998836,130.23349916771986 120.10950933559798,129.8715730910335 122.41676074679708,129.70706095953938 122.68406426400179,130.54607101061265 123.82362136337906,130.46381532344094 124.76621797651751,129.85512188573193 125.63847155880649,129.92092669657723 126.04646113759372,129.4273899365653 126.52479374728864,129.41093868429016 127.29856708634179,130.2499503330473 128.33964394259965,130.20059683192812 128.9586626139353,130.71058225455636 130.23890577501152,131.05605530034518 131.65983499778667,130.8586422252847 132.0256187581108,129.65770728614007 132.0678245765739,130.7434844824602 131.57542336086044,131.13831067430147 129.7746417716262,130.89154442187282 129.3385149804526,130.69413113800692 128.84611376462271,129.67415851235273 126.14494138077134,128.88449769145518 125.4696482848376,129.04901069316838 123.79548415105091,130.4144618901919 122.95136778114829,130.39801074234128 122.51524099003291,129.75641461726627 122.90916196262697,129.50964617203863 123.59852366481209,129.50964617203863 124.17533651751,130.01963386061834 125.58219713409198,129.92092669657723 126.2152844115626,129.47674368307344 126.80616587062832,129.9538290915516 127.32670429866994,129.6083535971411 128.24116369948024,129.4273899365653" stroke="#4dd2ff" stroke-linecap="round" stroke-linejoin="round" stroke-width="0.5"><title>2023-02-05 7.1km</title></polyline><polyline fill="none" points="156.1850594227435,134.6603028661557 156.47843803052092,132.01231827872834 156.68930390494643,131.93727317290904 158.2112054329482,132.18384974051878 158.75212224107236,132.09808404592331 160.1823429541546,132.7091630361174 160.79660441423766,132.77348692598753 161.08998302207328,131.4977221513982 160.86994906619657,131.05816922335362 160.23735144309467,131.0688900491732 159.93480475380784,130.76870649785997 158.2295415959088,130.91879838464956 157.21188455005176,130.74726478158846 156.7351443123771,130.3827549110065 155.86417657049606,130.2219413159837 155.79999999998836,130.87591501110728 155.86417657049606,130.2541040553915 156.1758913412923,130.23266223024257 156.34091680817073,130.36131311309146 156.3225806451519,130.8115899167533 156.49677419353975,131.09033169736358 158.6421052631922,130.91879838464956 161.04414261458442,131.8943902303654 162.63022071309388,132.26961536251474 163.60203735146206,132.10880476171587 164.22546689305454,132.35538091194758 164.87640067911707,132.30177745204128 165.63735144311795,132.45186706825916 167.48013582342537,132.16240832364565 168.89202037348878,132.34466022222477 169.68964346352732,132.26961536251474 169.92801358236466,132.04448044994206 170.83565365028335,132.0230390036013 171.1565365025308,132.30177745204128 171.9174872665899,132.54835313277727 172.79762308998033,132.48402909999277 173.0543293718365,132.29105675667233 173.04516129026888,131.2511439143418 173.21935483871493,130.76870649785997 173.93446519522695,130.10401118409936 176.5106960950652,130.33987131062167 177.87674023763975,130.15761580650724 178.97691001696512,129.78238285415864 181.80067911709193,128.36720607478492 184.89949066215195,128.02412993970938 187.69575551780872,126.75902665265312 188.1724957554834,125.89059915186226 187.93412563658785,124.53969713384868 188.20000000001164,125.83699227208854 188.0991511035245,126.16935446939897 187.9616298811161,126.49099426750035 186.82478777586948,127.17715575773764 186.64142614597222,127.47734994865459 185.917147708009,127.52023476046452 185.10118845500983,127.94908188033878 183.68930390488822,128.23855266023747 182.8916808149079,128.17422589171474 181.51646859082393,128.42081161595706 178.9585738539463,129.75021996500436 177.7758913412108,130.1468948843103 176.01561969442992,130.30770859839686 174.0353140916559,130.03968559976784 173.14601018675603,130.7258230607913 172.89847198640928,130.51140560327622 173.17351443122607,130.83303161939693 173.02682512730826,131.19753987035074 173.13684210524661,131.615650661377 172.97181663836818,131.79790354322904 173.03599320881767,132.16240832364565 172.83429541590158,132.41970502639742 171.98166383698117,132.54835313277727 170.9548387096729,132.16240832364565 170.8723259762046,131.99087682561367 169.9646859082859,132.00159755274944 169.57962648558896,132.23745326275093 168.81867572152987,132.30177745204128 168.36943972838344,132.30177745204128 168.1310696094879,132.1409669022978 166.18743633280974,132.19457044723094 165.14227504248265,132.0552011713953 164.00543293717783,132.2267325605717 163.50118845503312,132.06592189173534 162.7860780984629,132.25889466374792 161.42920203733956,131.99087682561367 158.5687606111751,130.96168174006016 157.9361629881314,130.86519416489318 156.48760611203033,131.07961087383592 156.30424448219128,130.70438133545395 156.44176570459967,130.3184295036117 157.20271646854235,130.790148209584 158.03701188456034,130.96168174006016 159.88896434631897,130.76870649785997 160.16400679119397,131.0688900491732 160.58573853987036,131.10105251974892" stroke="#4dd2ff" stroke-linecap="round" stroke-linejoin="round" stroke-width="0.5"><title>2022-12-15 10.0km</title></polyline><polyline fill="none" points="11.799999999988358,174.74364680217695 12.086114494537469,170.85579351587512 14.44409257004736,171.01730946809403 14.749939098663162,171.22497248377476 16.752740560332313,171.68644443614176 17.06845310598146,170.34817039439804 16.98952496954007,169.93284062840394 16.131181486009154,169.87515581362095 15.835200974484906,169.4944352705279 14.769671132729854,169.54058328590327 14.355298416572623,169.3444540855562 13.684409257024527,169.58673128177907 12.983922046318185,169.54058328590327 12.026918392220978,168.98680581209192 11.928258221712895,169.51750928063848 12.16504263097886,169.88669277902227 14.37503045075573,169.55212028672395 14.710475030529778,169.95591454583337 17.1769792935811,170.80964605700865 18.844336175417993,171.1557515224922 19.74214372719871,170.95962522691116 20.531425091379788,171.21343565994175 22.435566382482648,171.2365093063636 23.481364189996384,171.17882518113038 23.915468940336723,170.9826989270514 25.484165651665535,171.21343565994175 26.263580998813268,171.1557515224922 26.62862362974556,170.87886723799602 27.54616321559297,170.87886723799602 27.782947624858934,171.12114102534542 28.60182704019826,171.29419340110326 28.82874543243088,171.53646626583213 29.065529841638636,171.25958294792508 29.54896467726212,171.36341427448497 29.874543239944614,171.2365093063636 30.091595615143888,169.54058328590327 30.969671132799704,168.76760145180742 33.00207064556889,169.0214169866158 34.67929354449734,168.94065756233613 36.12959805119317,168.55993375671096 38.99074299639324,167.06009977171925 42.80889159569051,166.5409216629123 43.95334957371233,166.05635319782596 44.09147381247021,166.57553361374448 44.20000000001164,166.5409216629123 43.134470158373006,166.9562643477475 39.8589524969575,167.34853098632448 36.04080389771843,169.07910225300293 34.610231425089296,169.4713612554624 32.933008526219055,169.57519428466185 31.18672350794077,169.3329170628058 30.890742996358313,169.67902721497376 30.83154689404182,170.67120356328087 30.486236297234427,171.87103267038765 29.973203410510905,172.06715732688463 29.52923264313722,172.1825246071312 27.348842874576803,171.6518341074625 25.336175395874307,171.68644443614176" stroke="#4dd2ff" stroke-linecap="round" stroke-linejoin="round" stroke-width="0.5"><title>2022-12-12 7.2km</title></polyline><polyline fill="none" points="48.32419106311863,174.02669836154382 48.58628659474198,170.36356176600384 48.49892141763121,170.0278909981571 47.81248073960887,169.94032457655703 47.79999999998836,169.50249163489207 51.3320493066567,169.56086944077106 55.25100154086249,170.75760901655303 58.05916795070516,171.3121921291313 67.7067796610063,171.16624942088674 68.79260400612839,171.2538150643668 70.62727272725897,171.8521788071812 71.20138674881309,171.66245399900072 71.96271186438389,171.28300359983405 72.32465331279673,169.95491898404725 72.38705701078288,168.72898337541847 72.64915254240623,168.32033575161768 73.2856702619465,168.21817365649622 75.09537750383606,168.5830379344552 75.48228043143172,168.37871405766055 77.30446841294179,168.43709233903792 78.61494607088389,168.08682228015095 80.20000000001164,167.32790076831589 79.97534668719163,166.77330163847364 76.74283513100818,167.75114597255015 75.25762711861171,167.79492988505808 72.48690292751417,167.4592528671783 71.40107858245028,168.42249777102552 71.18890600919258,169.006279287918 71.36363636364695,169.57546388836636 71.16394453000976,169.92573016758251 71.23882896761643,170.34896740179101 70.91432973806513,170.6992317171098 70.3277349768905,170.64085439300106 69.56640986126149,170.87436354128295 69.21694915252738,170.52409967059793 68.50554699532222,170.4073448494164 68.34329738060478,170.2030236745777 68.28089368256042,170.33437303599203 67.13266563945217,170.21761805425922 65.44776579353493,170.53869401628617 64.86117103236029,170.553288360461 64.47426810470643,170.2905899293837 61.90323574730428,170.3781561286596 60.40554699540371,170.1884292933537 58.882896764262114,170.4073448494164" stroke="#4dd2ff" stroke-linecap="round" stroke-linejoin="round" stroke-width="0.5"><title>2022-12-06 5.0km</title></polyline><polyline fill="none" points="83.79999999998836,174.35311033958715 84.0771769019193,171.25088394193153 84.22566452797037,171.40136710280058 86.30449129239423,171.42451833996165 89.0267644362757,172.32741276819434 89.12575618701521,172.5241964624438 88.97726856096415,172.5241964624438 89.10595783684403,172.31583724572556 88.8188817598857,172.32741276819434 88.57140238315333,172.07275099145045 88.78918423468713,172.14220426204702 89.03666361136129,170.4753136001964 88.87827681022463,170.57949501050462 88.89807516039582,170.91518999115215 89.26434463798068,171.21615702927375 90.75912007334409,171.5865768628355 91.66984417964704,171.41294272198138 92.4815765353269,171.66760603428702 93.74867094407091,171.70233280369575 96.49074243818177,171.45924518648826 97.25297891843366,171.66760603428702 98.37158570118481,171.55185005672683 98.64876260311576,171.33191336195887 99.62878093490144,171.33191336195887 99.72777268558275,171.52869884647953 100.93547204404604,171.87596648534236 101.87589367554756,171.71390839103697 102.10357470210874,169.9659808330689 103.0142988084117,169.2019772368585 105.62768102658447,169.46822151991364 106.89477543538669,169.35246321560408 108.30045829509618,168.9241564246986 110.95343721355312,167.51188972219825 111.85426214477047,167.2803688514905 114.23006416129647,167.08357572621753 115.52685609529726,166.73629287691438 116.03171402378939,166.4468896604085 116.19010082492605,167.01411924453714 116.19999999995343,166.88678224694013 114.18056828598492,167.55819383755443 111.3989000916481,167.9286260548979 109.95362053165445,168.65791081775387 107.27094408799894,169.8154956981307 105.24161319888663,169.90810195949598 105.02383134735283,170.03543544094282 103.19248395966133,169.8154956981307 98.37158570118481,172.13062872002774 93.78826764435507,172.2232330220795" stroke="#4dd2ff" stroke-linecap="round" stroke-linejoin="round" stroke-width="0.5"><title>2022-11-27 5.6km</title></polyline><polyline fill="none" points="119.79999999998836,172.31922666001628 121.08544102020096,172.50711826270708 121.44123273110017,172.3997516666641 122.02656748139998,172.69500958707795 122.41679064818891,172.6279055745763 124.47120085009374,173.2586818906202 124.81551540910732,171.66160385925468 124.63188097765669,171.3931854098846 124.70074388943613,171.94344261986407 125.2746014877921,172.30580582062976 127.0879914983525,172.65474718386395 127.94877789582824,172.3997516666641 128.85547290113755,172.72185118210473 132.1723698193091,172.69500958707795 132.8150903294445,172.48027662220557 134.5710945802275,172.69500958707795 135.51222104142653,172.64132637994044 135.93687566416338,172.31922666001628 137.07311370875686,172.30580582062976 137.1993623803719,172.56080152662616 138.5192348564742,172.9634252820906 139.41445270983968,172.84263828960684 139.79319872474298,172.45343497601425 139.919447396358,171.79581287097972 139.7702444207971,171.25897597229778 139.95387885224773,170.70871579346567 141.00977683311794,169.84976830456435 143.6609989372664,170.1852953596317 145.46291179594118,170.05108464408113 147.33368756639538,169.42029237919633 150.01934112643357,167.95737909676245 152.19999999995343,167.5413181093827 150.19149840588216,167.87685127024452 147.27630180650158,169.44713466711255 145.41700318804942,170.03766356471897 143.69543039315613,170.14503215986042 141.30818278423976,169.7826627870745 140.8835281615029,169.86318940383353 139.919447396358,170.7623998183917 139.74729011685122,171.25897597229778 139.89649309241213,171.79581287097972 139.68990435701562,172.1581764934017 139.7702444207971,172.5742223390771 139.46036131767323,172.85605907222634 138.17492029751884,172.90974218848714 136.8206163655268,172.26554329385544 135.89096705627162,172.27896413752023 135.4433581295889,172.6144847678297 134.364505844831,172.68158878741815 133.50371944735525,172.46685579983023 129.87693942611804,172.4131724961262" stroke="#4dd2ff" stroke-linecap="round" stroke-linejoin="round" stroke-width="0.5"><title>2022-11-23 5.3km</title></polyline><polyline fill="none" points="155.79999999998836,171.17987520723545 158.55827338126255,171.51301453910128 161.64028776984196,172.36100206710398 162.04172661865596,170.57416534470394 161.951079136692,170.15016691594792 161.54964028776158,169.95331007562345 160.90215827338398,170.01388143991062 160.33237410068978,169.54445269606367 158.93381294963183,169.5898813514068 158.6230215827236,169.75645296457515 158.67482014390407,169.90788153554604 163.0776978416834,171.40701574488776 164.45035971229663,171.57358524341544 165.17553956829943,171.16473249193223 166.082014388463,171.31615957307804 167.18273381295148,171.11930433634552 167.40287769783754,171.43730112267076 168.0244604317122,171.5281572176027 171.5985611511278,171.43730112267076 172.4920863309526,171.72501189207833 174.00719424465206,171.64929858775577 174.49928057554644,171.30101687216666 175.7683453237405,171.28587416965456 176.06618705030996,171.61901325482177 177.58129496406764,171.99757945592864 178.8892086331034,171.6644412518508 178.86330935254227,171.05873343981511 179.0575539568672,170.75587857262872 178.91510791372275,169.99873860120715 179.16115107916994,169.4233095444506 180.28776978421956,168.5298756353004 184.21151079138508,168.90845000644913 186.36115107918158,168.46930364292348 187.87625899282284,167.81815310668026 188.20000000001164,168.40873162500793 186.94388489209814,168.96902181292535 184.6906474819989,169.54445269606367 183.09784172667423,169.45359534199815 182.83884892088827,169.62016711366596 180.80575539573329,169.2567375436629 180.40431654674467,169.3627379302343 180.08057553955587,169.7867386915459 179.92517985613085,171.57358524341544 179.53669064753922,172.67899609495362 178.65611510793678,172.98184689332265 175.18561151082395,172.3155742911622 165.42158273380483,172.5275704555097 161.7827338129864,171.8310104508273" stroke="#4dd2ff" stroke-linecap="round" stroke-linejoin="round" stroke-width="0.5"><title>2022-11-18 5.5km</title></polyline><polyline fill="none" points="11.799999999988358,214.75051113619702 12.156463654246181,211.02884603638086 12.996699410665315,211.23726188353612 13.811473477457184,211.1181671515078 16.026640471536666,211.37124333651445 18.190884086478036,212.11558241937018 18.53461689595133,210.5226919796405 18.470962671912275,209.82300543277233 17.452495088451542,209.77834447126952 16.91779960709391,209.3019599996187 15.56833005900262,209.3615081467724 15.300982318352908,209.7039095038781 15.415559921471868,209.82300543277233 18.87834970530821,210.9841854575352 21.093516699387692,211.44567742198706 21.95921414543409,211.14794084396272 22.964950884110294,211.49033785438223 26.65689587430097,211.4754510451603 27.369823182700202,211.2223750475241 29.330373280972708,211.49033785438223 30.323379174864385,211.43079060806485 30.98538310418371,211.1181671515078 32.016581532370765,211.13305399853562 32.322121807490475,211.43079060806485 33.88801571709337,211.75830015094834 35.1229076620657,211.4754510451603 35.32660117879277,210.50780506804585 35.16110019647749,209.89744033719762 35.37752455798909,209.34662111237412 36.48510805499973,208.33429907649406 40.711748526548035,208.66181582621357 42.404950884054415,208.3045247887203 44.05996070720721,207.6494888638117 44.20000000001164,208.24497619429894 41.09367387031671,209.31684703874635 38.02554027509177,209.37639517959906 37.147111984260846,209.06376715900842 36.61241650296142,209.2275247802172 36.345068762253504,209.58481347413908 36.217760314350016,211.14794084396272 35.87402750487672,212.36865681064955 34.83009823184693,212.72593752946705 32.46216110017849,212.13046916088206 21.971944990218617,212.26444976351922" stroke="#4dd2ff" stroke-linecap="round" stroke-linejoin="round" stroke-width="0.5"><title>2022-11-06 5.5km</title></polyline><polyline fill="none" points="47.800000000046566,221.17721267252637 48.547087378567085,217.1542904911912 49.077912621432915,206.14259692629275 49.530097087379545,204.09652141592233 49.648058252525516,204.3034288037161 52.04660194180906,204.23445969630848 58.790048543713056,205.75177500254358 59.26189320383128,202.53321478524595 59.084951456286944,203.4528082828765 59.812378640752286,203.98157278202416 63.311893203877844,204.69425333208346 70.52718446601648,203.26888989465078 70.99902912625112,203.26888989465078 71.09733009710908,204.55631534352142 72.7094660194125,204.32641850129585 74.34126213600393,204.4183772673714 74.9507281553233,204.80920158898516 77.54587378643919,204.7172429883649 78.37160194176249,204.1425008524675 78.3912621360505,203.2918797017046 80.08203883492388,202.7861033850204 80.20000000006985,201.61361739618587 79.57087378646247,201.22278732748237 78.50922330108006,202.64816418524424 78.70582524267957,203.19992045898107 78.27330097090453,203.38383890557452 77.5655339807272,204.55631534352142 75.40291262138635,204.83219123314484 74.34126213600393,204.4183772673714 68.2072815534193,204.4183772673714 67.71577669901308,204.78621194248262 66.22160194173921,204.78621194248262 64.66844660206698,204.25744940123695 63.1546116505051,204.69425333208346 60.52014563116245,204.21146998899349 54.405825242749415,202.21135614175 54.20922330103349,201.8435171082965 54.68106796115171,201.68258733538096 56.784708737861365,201.4296974514291 57.47281553398352,202.21135614175 58.141262135934085,202.16537629665982 57.45315533969551,202.1423863704258 56.74538834951818,201.47567745222477 55.62475728150457,201.47567745222477 54.484466019435786,201.636607378372 54.34684466011822,202.2343460606353 60.61844660202041,204.32641850129585 58.947330097085796,203.36084910828504 59.04563106794376,202.53321478524595" stroke="#4dd2ff" stroke-linecap="round" stroke-linejoin="round" stroke-width="0.5"><title>2022-11-02 5.0km</title></polyline><polyline fill="none" points="84.7976905311807,218.60073529528745 84.7478060045978,218.29451407067245 83.86235565814422,218.1778581871622 83.79999999998836,217.75497978217027 84.12424942263169,215.56765698303934 84.12424942263169,213.555289359545 84.32378752884688,213.13239677631645 84.21154734410811,211.58664043585304 84.48591224016855,208.3492455247324 84.7478060045978,207.12426546217466 84.95981524244417,207.28468013738166 87.44157043873565,207.1971812467673 90.63418013858609,208.1888320883154 90.94595842954004,206.10344042800716 90.78383371827658,206.58468745739083 91.00831408775412,206.93468424171442 93.56489607389085,207.51801024083397 97.54318706697086,206.6867699446011 98.89006928406889,206.65760352740472 99.65080831403611,207.036766469726 100.06235565821407,206.7888523562433 101.7459584295284,206.83260193807655 102.25727482675575,206.36593901595916 103.01801385683939,206.74510276051296 103.9782909930218,206.40968873203383 104.70161662809551,206.73051955887058 105.02586605073884,207.57634270498238 105.9237875288236,207.85342157258128 107.183371824387,207.59092581714503 107.39538106234977,206.49718812246283 107.24572748265928,205.9430243781826 107.48267898376798,205.35969171431498 108.25588914542459,204.58677213235933 109.01662817550823,204.42635431754752 111.2115473440499,204.77635658191866 112.65819861425553,204.77635658191866 114.26697459578281,204.47010464918276 115.96304849872831,203.79926470472128 116.19999999995343,204.30968669863068 114.82817551959306,204.95135738083627 112.99491916853003,205.41802509178524 111.09930715931114,205.53469177268562 108.76720554271014,205.2721916018345 108.41801385680446,205.68052498495672 107.95658198610181,208.3638285551715 106.97136258654064,208.72840381426795 103.44203233259032,208.13049988332205 93.96397228637943,208.3200794592558 91.12055427249288,207.72217375735636 90.7713625865872,209.93878676039458" stroke="#4dd2ff" stroke-linecap="round" stroke-linejoin="round" stroke-width="0.5"><title>2022-10-28 6.2km</title></polyline><polyline fill="none" points="119.79999999998836,214.7055856143852 120.00281690148404,211.59284676432435 120.21830985916313,211.0295818696468 120.4211267606006,211.23710077849682 121.96760563377757,211.0888730177976 123.18450704228599,211.22227800945984 125.74507042259211,212.09681869813357 126.2647887323983,211.97823722971953 126.55633802816737,210.3922004421911 126.44225352111971,209.8585765522148 126.06197183101904,209.6807014705555 125.32676056335913,209.7399931895343 124.90845070418436,209.3249506298307 123.55211267608684,209.39906546279963 123.3619718310074,209.57694090199948 123.51408450701274,209.8289307209052 127.40563380287495,211.1629869177268 128.67323943669908,211.3853283823264 134.03521126759006,210.59972029506753 134.08591549296398,211.34086011764884 135.8605633803527,211.22227800945984 137.02676056337077,211.5039103525196 140.00563380285166,211.1333413624816 140.14507042255718,211.41497388428252 141.61549295770237,211.7855421294953 142.80704225349473,211.66696039763337 143.06056338030612,211.45944212544418 143.03521126759006,210.83688546481426 143.23802816902753,210.5700746205839 143.08591549296398,209.84375363733852 143.32676056335913,209.295304685671 144.4295774648199,208.3614542336436 147.53521126753185,208.70238448507735 148.77746478869813,208.64309232705273 150.22253521124367,208.3614542336436 151.8830985915265,207.69441438560898 152.20000000001164,208.21322343072097 150.72957746475004,208.8506147704611 148.79014084511437,209.3545965677622 147.28169014083687,209.295304685671 147.01549295772566,209.4287113850005 145.0,209.08778290086775 144.5690140844672,209.2063668155606 144.3028169014142,209.6065867865691 144.2267605633824,210.89617669452855 143.8338028169237,212.36362663510954 142.78169014083687,212.68972453491006 141.86901408445556,212.60078881932714 141.716901408392,212.3339813338971 141.20985915500205,212.4080945752503 139.94225352117792,212.11164137462038 134.5295774647966,212.1857547335676" stroke="#4dd2ff" stroke-linecap="round" stroke-linejoin="round" stroke-width="0.5"><title>2022-10-20 5.2km</title></polyline><polyline fill="none" points="163.11755102034658,212.66911108900968 163.60244897950906,213.41653350980778 164.88081632647663,213.77735730614222 166.20326530607417,213.2876677387685 169.64163265295792,213.6484917258931 169.8840816327138,213.26189457635337 170.4571428571362,213.88044972115313 171.47102040820755,214.13818056805758 172.19836734700948,213.88044972115313 175.54857142851688,214.2154997689213 176.69469387747813,213.1330287235469 177.3779591836501,213.75158419551735 178.98693877551705,213.3649872095557 180.55183673463762,213.5969454747974 182.51346938777715,213.31344089841878 182.77795918355696,215.1948741897504 183.10857142857276,214.9113714727573 183.17469387757592,213.0299359921919 183.7918367346283,212.59179139738262 187.42857142852154,213.6742648473737 188.19999999995343,214.96291744585324 187.6710204082774,212.8752968134504 185.73142857139464,208.26184950242168 183.0204081631964,209.21547426562756 182.20489795913454,210.55569735332392 180.1330612244783,210.89075197321654 179.0751020408934,210.89075197321654 178.65632653061766,210.4783769909409 172.04408163262997,210.50415044779947 171.5151020407211,210.11754830884456 168.56163265311625,210.68456456936838 168.03265306120738,210.27218923802138 174.51265306118876,209.37011576739314 174.84326530620456,209.98868079291424 174.4244897958124,210.63301769104146 171.31673469394445,210.27218923802138 168.71591836726293,210.68456456936838 167.79020408156794,210.34950966582983 172.35265306115616,209.49898361053783 174.77714285708498,209.42166291279136 174.82122448983137,210.22064227257215 174.4685714285588,210.63301769104146 171.2506122449413,210.27218923802138 168.56163265311625,210.6587911315728 167.81224489805754,210.37528313629446 169.64163265295792,210.04022780749074 170.21469387749676,210.40105660408153 174.38040816329885,210.7618848662387 174.77714285708498,210.45260353131744 174.79918367334176,209.42166291279136 173.30040816322435,209.292795028814 166.07102040806785,210.78765829306212 162.7869387754472,210.1948687857075 156.10857142845634,207.95256499374227 155.80000000004657,207.54018503814586 156.28489795909263,207.23089961340884 158.62122448976152,207.20512581024377" stroke="#4dd2ff" stroke-linecap="round" stroke-linejoin="round" stroke-width="0.5"><title>2022-09-24 5.1km</title></polyline><polyline fill="none" points="41.25454545463435,257.76502977428026 42.535177865531296,256.9414674276486 44.007905138423666,251.4011140104849 38.05296442657709,247.80734806891996 33.12252964428626,253.64720845926786 33.12252964428626,257.39068337203935 35.7478260868229,258.51372198562603 41.1905138338916,258.58859116310487 42.59920948604122,257.6901605097228 44.200000000186265,251.10163421212928 38.56521739135496,247.58273709198693 33.250592885538936,253.72207815165166 33.37865612632595,258.0645067538717 36.900395256699994,258.21424519614084 37.9889328063,258.9629369323957 36.83636363619007,260.0859730519005 13.272727272473276,261.43361404404277 12.312252964358777,262.1823023755569 13.977075098780915,260.9095317409956 38.69328063237481,261.50848291278817 42.47114624478854,260.61005596467294 27.871936758747324,260.0859730519005 29.088537549367175,242.2669231655309 28.384189723292366,242.11718135053525 25.75889328075573,260.3854490495869 11.800000000046566,260.2357110665762 11.992094861576334,261.0592695812229 42.59920948604122,261.43361404404277 40.23003952531144,260.0859730519005 37.604743083007634,260.6849249207298 27.807905138470232,259.8613659705152 28.832411067094654,241.8176976244431 26.399209486087784,259.8613659705152 24.286166007863358,260.6849249207298 13.656916995998472,260.2357110665762 13.528853754978627,261.0592695812229 44.13596837944351,261.80795830860734 35.55573122529313,261.50848291278817 42.08695652172901,261.43361404404277 42.08695652172901,260.4603180293925 38.30909090908244,260.1608420632547" stroke="#4dd2ff" stroke-linecap="round" stroke-linejoin="round" stroke-width="0.5"><title>2022-09-22 5.0km</title></polyline><polyline fill="none" points="62.61875761277042,254.49197148894018 63.901339829550125,254.30738427008328 64.84847746661399,254.9303655075637 65.97320341062732,254.76885202425183 68.40024360548705,255.16109884771868 69.68282582226675,254.58426503976807 69.64336175413337,254.16894375342235 69.91961023153272,254.09972346226277 70.39317905006465,254.9072921601619 72.6820950062247,254.63041180052096 73.51084043853916,254.95343885259354 75.2472594397841,254.09972346226277 75.26699147396721,254.83807210318628 75.58270401961636,255.13802552466223 75.78002436063252,253.91513591143303 76.17466504278127,253.66132777403982 79.62777101120446,254.58426503976807 80.20000000006985,255.668711336868 79.17393422673922,252.27691455297463 77.9702801463427,249.71572692850896 76.23386114509776,250.3387212808302 75.70109622424934,249.96953965720604 73.51084043853916,249.64650522392185 70.84701583441347,251.74622048833407 67.01900121814106,251.81544152655988 66.52570036542602,250.77712364731997 63.151522533618845,251.26167260606599 61.967600487405434,251.53855724207824 63.34884287463501,252.16154638789885 69.03166869690176,252.11539910477586 69.91961023153272,251.74622048833407 71.53763702814467,251.74622048833407 72.54397076752502,252.11539910477586 74.59610231441911,251.88466254273953 74.97101096238475,250.91556631682033 74.30012180283666,250.31564744771458 73.15566382475663,250.20027824517456 71.41924482351169,251.14630390402453 70.27478684543166,250.31564744771458 68.7159561511362,250.7540498605522 66.76248477469198,250.7079022796388 66.7230207065586,251.86158887314377 65.12472594412975,251.5847046472045 62.677953715086915,251.97695719684998 61.4348355664406,251.5847046472045 60.58635809994303,251.9308098746842 59.18538367853034,251.88466254273953 51.09524969558697,249.43883997842204 51.56881851423532,248.70047305982735 50.266504263156094,248.33128866314655 49.49695493315812,248.88506502377277 47.800000000046566,248.58510300295893 48.11571254581213,248.86199103685794 51.075517661403865,249.2081005848886 53.759074299712665,248.74662106548203 54.607551766210236,249.5311356674938 55.67308160790708,249.3465442503366 56.284774665138684,249.5772834973468 55.89013398310635,253.03834291196836 55.33763702807482,253.03834291196836 56.56102314265445,253.56903383268218 55.83093788078986,253.66132777403982 55.65334957384039,254.37660449542454" stroke="#4dd2ff" stroke-linecap="round" stroke-linejoin="round" stroke-width="0.5"><title>2022-09-09 5.2km</title></polyline></svg>