<?xml version="1.0" encoding="utf-8" ?>
<svg baseProfile="full" height="300mm" version="1.1" viewBox="0,0,200,300" width="200mm" xmlns="http://www.w3.org/2000/svg" xmlns:ev="http://www.w3.org/2001/xml-events" xmlns:xlink="http://www.w3.org/1999/xlink"><defs /><rect fill="#222222" height="300" width="200" x="0" y="0" /><text fill="#FFFFFF" style="font-size:12px; font-family:Arial; font-weight:bold;" x="10" y="20">Over 5km Runs</text><text fill="#FFFFFF" style="font-size:4px; font-family:Arial" x="10" y="280">ATHLETE</text><text fill="#FFFFFF" style="font-size:9px; font-family:Arial" x="10" y="290">feng qijun</text><text fill="#FFFFFF" style="font-size:4px; font-family:Arial" x="120" y="280">STATISTICS</text><text fill="#FFFFFF" style="font-size:3px; font-family:Arial" x="120" y="285">Number: 28</text><text fill="#FFFFFF" style="font-size:3px; font-family:Arial" x="120" y="290">Weekly: 1.4</text><text fill="#FFFFFF" style="font-size:3px; font-family:Arial" x="141" y="285">Total: 164.7 km</text><text fill="#FFFFFF" style="font-size:3px; font-family:Arial" x="141" y="290">Avg: 5.9 km</text><text fill="#FFFFFF" style="font-size:3px; font-family:Arial" x="167" y="285">Min: 5.0 km</text><text fill="#FFFFFF" style="font-size:3px; font-family:Arial" x="167" y="290">Max: 10.0 km</text><polyline fill="none" points="12.784396098984871,54.10357909866434 13.112528131983709,50.45149554776435 13.20975243812427,50.1957038747787 13.477119279792532,50.16728254768532 13.221905476297252,50.05359717932879 13.161140285024885,49.499379630811745 13.489272318023723,45.250302466665744 13.768792198039591,45.07976813650748 14.789647411787882,45.27872483397368 16.345236309047323,45.250302466665744 18.447711927932687,46.017704273341224 19.359189797425643,46.145604148245184 19.663015753903892,44.41183992558217 19.456414103449788,43.91444441968633 18.54493623401504,43.94286706960702 18.09527381841326,43.45968120252655 16.746286571607925,43.530738056710106 16.23585896473378,43.30335599105456 15.603900975256693,43.54494942301244 14.7774943736149,43.54494942301244 13.23405851458665,42.74911059363512 12.50487621902721,42.89122501609381 11.799999999988358,42.592784555235994 11.812153038219549,43.189664813893614 12.577794448588975,43.31756738142576 12.711477869423106,42.777533490167116 13.294823705859017,42.82016782365099 14.63165791449137,43.54494942301244 15.713278319570236,43.74390839366242 16.430307576898485,43.55916078781593 16.85566391592147,43.999712351476774 20.10052513127448,45.15082413372875 21.619654913723934,45.47768123677815 22.057164291094523,45.53452586916683 22.701275318861008,45.2360912807635 23.624906226526946,45.47768123677815 24.779444861225784,45.2360912807635 25.350637659372296,45.3639918997942 25.83675918978406,45.16503532863862 26.383645911468193,45.406625412462745 28.960090022475924,45.32135837365058 29.786496624117717,45.57715932770225 31.02610652660951,45.47768123677815 31.48792198044248,45.15082413372875 32.59384846210014,45.15082413372875 32.970592648140155,45.49189239714178 34.36819204798667,45.81874867033912 35.44981245312374,45.60558162583038 35.63210802699905,44.55395258903445 35.47411852964433,44.15603675258171 35.705026256502606,43.48810394870816 36.78664666163968,42.550150149530964 40.76069017255213,42.848590705150855 42.4499624906457,42.52172720490489 43.93263315828517,41.89642090133566 44.199999999953434,42.4222468513035 43.00900225061923,42.99070502235554 40.91867966990685,43.502315319521585 39.22940735187149,43.58758351295546 36.9446361589944,43.37441292789299 36.61650412599556,43.80075375971501 36.50712678168202,45.2360912807635 36.19114778691437,46.372981403037556 35.00015003752196,46.7851016962959 32.46016504126601,46.17402632615995 23.40615153789986,46.35877033586439 21.303675918956287,46.046126478308" stroke="#4dd2ff" stroke-linecap="round" stroke-linejoin="round" stroke-width="0.5"><title>2023-04-26 7.0km</title></polyline><polyline fill="none" points="47.79999999998836,51.457923796217074 48.25378151255427,50.520498298545135 48.042016806663014,49.86606606235728 48.08739495789632,47.619752145095845 48.25378151255427,47.106810089040664 48.601680672203656,46.92993315313652 52.80672268907074,47.31906216518837 55.25714285712456,48.344943401316414 55.96806722681504,48.27419317334716 57.178151260421146,48.6279440139333 57.752941176411696,49.034756555454805 58.28235294111073,48.910944147617556 59.20504201675067,49.22931872541085 61.594957983179484,49.070131512286025 62.66890756296925,49.742254270095145 63.485714285692666,49.423880668968195 64.46890756295761,49.742254270095145 65.33109243691433,49.56538012206147 66.02689075627131,49.10550646160846 66.63193277304526,49.636129803722724 68.25042016810039,49.388505786977476 68.96134453779086,49.54769269700046 71.0638655461953,48.6279440139333 71.95630252099363,48.7163816071843 73.49915966385743,49.3354434499488 73.96806722687325,48.75175663133268 75.04201680666301,48.910944147617556 76.47899159655208,48.38031850410334 76.79663865541806,47.51362633159442 77.02352941170102,45.2319050476799 77.3109243697254,44.772019467971404 78.02184873947408,44.542076203768374 79.08067226881394,44.860459100833395 80.19999999995343,44.860459100833395 77.82521008397453,44.55976415843179 77.2957983193337,44.736643601791 76.97815126046771,45.14346561137063 76.47899159655208,48.415693599396036 74.92100840335479,48.946319130656775 71.4722689075279,48.13269262750691 59.49243697471684,48.344943401316414 57.752941176411696,48.06194230969413 51.581512604956515,46.20473575951473 48.87394957977813,46.29317463444022 51.4907563024899,46.45236449150252 51.67226890753955,46.2754868632328 52.12605042010546,46.47005224401073" stroke="#4dd2ff" stroke-linecap="round" stroke-linejoin="round" stroke-width="0.5"><title>2023-04-20 5.0km</title></polyline><polyline fill="none" points="91.21629559603753,63.14080635505525 91.38181766396156,64.05791358331771 91.22733040060848,63.683321325457655 91.33767844579415,63.8770760856205 92.5515069438843,64.19999999999709 93.3460128698498,63.79957421861036 93.7543006374035,62.83079671407177 93.87568348710192,62.779128363748896 94.09637957776431,63.127889302435506 94.58191097690724,63.08913813641993 94.90192030824255,62.46911780093069 94.76950265391497,60.7898801868796 95.23296444409061,60.00192223761405 95.11158159421757,59.80816130416497 98.4771969752037,57.12131120736012 99.5917122324463,55.635767642037536 100.3641485493863,53.181351557512244 100.55174022633582,49.16375305408292 100.64001866255421,48.65992908374028 100.84967994858744,48.53074311402452 100.71726229425985,48.02691652075737 101.05934123462066,46.59293709760823 102.32834375533275,44.21585287152993 103.26630214013858,43.10480843683035 104.94359242828796,41.606174277796526 105.93672483577393,40.19795810330106 106.33397779881489,39.24191213787708 107.3381450108136,34.47448962149792 108.78370440390427,31.799999999995634 107.24986657453701,34.952532291768875 106.41122143046232,39.0222788946121 105.98086405394133,40.21087759189686 104.6346179015818,42.00667314632301 102.50490062771132,43.957471350891865 101.1807240844355,46.347479465090146 100.7945059259655,47.93648588559881 100.86071475310018,48.65992908374028 100.61794905352872,48.982893407475785 100.3641485493863,53.64640261948807 99.62481664604275,55.700356870023825 97.93649155332241,57.767194054002175 95.24399924860336,59.82107870931213 95.28813846671255,60.04067438728089 94.96812913543545,60.57028586166416" stroke="#4dd2ff" stroke-linecap="round" stroke-linejoin="round" stroke-width="0.5"><title>2023-04-17 6.5km</title></polyline><polyline fill="none" points="119.98735543555813,55.251496898563346 119.79999999998836,55.09084770741174 119.79999999998836,54.65271259979636 120.59938319196226,44.66285494448675 120.81171935232123,43.976390817711945 121.76098689273931,44.23929237591801 122.29807247489225,44.07863037205243 123.5595990747679,44.1808698506793 126.0326908249408,45.02799404691905 126.43238242098596,44.91114963919972 128.10609097912675,45.53918716793123 128.21850424050353,45.93353485381522 128.79306090978207,46.09419469923887 129.59244410175597,45.78748028668633 131.36607555899536,46.05037839632132 131.7657671549823,45.845902132059564 132.47771781031042,46.29867059575918 133.36453353893012,46.16722183993261 134.67602158826776,46.38630303015816 135.46291441790527,46.00656207946304 135.42544333077967,45.72905841654574 135.70023130299523,45.71445294514706 135.9250578256906,46.254854357714066 136.6494988434133,46.313276005370426 137.33646877406863,46.10880013045971 138.03592906706035,46.28406518463453 138.91025443328544,45.8166912124434 138.96021588274743,46.240248941932805 139.1725520431064,46.38630303015816 139.74710871238494,46.254854357714066 140.1343099459773,45.53918716793123 141.85797995369649,46.16722183993261 141.84548959130188,45.74366388638737 142.89468003081856,45.78748028668633 144.0562837315956,45.33471014664974 144.51842713949736,42.53042329890013 144.85566692362772,42.209095126992906 145.30531996907666,42.0630366197729 147.09144178871065,42.442788417072734 147.478643022303,42.2821243226208 149.1398612181074,42.38436513165652 150.17656129522948,42.16527759103337 152.19999999995343,41.3035298914474 151.91272166534327,40.748503101436654 150.25150346948067,41.39116549640312 148.4029298379901,41.69788967575005 144.60585967614315,41.34734770088107 143.4567463376443,42.34054765132896 143.25690053967992,43.070837174207554 143.4567463376443,43.509009033674374 143.18195836542873,44.5167990331538 141.85797995369649,44.750488417150336 141.19599074788857,44.61903818733117 140.37162683112547,44.064024726088974 139.12259059364442,44.034813429476344 138.62297609867528,44.35613735222432 137.5238242096966,44.472982229606714 136.62451811868232,44.253898003385984 133.75173477252247,44.283109253592556 133.5393986121053,43.71348875890544 133.66430223587668,43.62585462804418 135.2131071703625,43.55282614317548 135.9375481880852,44.12244730076054 135.82513492670842,44.23929237591801 133.12721665378194,44.253898003385984 133.16468774090754,43.85954552005569 132.95235158049036,43.72809444196173 129.3051657670876,44.38534858080675 127.25674633769086,43.976390817711945 123.70948342327029,42.60345232459076 123.23484965303214,42.618058125081006 123.05998457979877,42.4281825980288 123.5845797994989,42.17988343788602 124.13415574404644,42.442788417072734 125.50809560518246,42.36975930641347 125.88280647643842,42.807933390984545 126.18257517344318,42.807933390984545" stroke="#4dd2ff" stroke-linecap="round" stroke-linejoin="round" stroke-width="0.5"><title>2023-04-07 7.0km</title></polyline><polyline fill="none" points="155.79999999998836,51.769363679064554 155.91444270015927,48.94424695034104 156.21962323400658,47.50192862097174 159.09340659348527,47.78444574799505 162.04348508641124,48.61712450321647 162.29780219780514,48.06696230711532 165.5276295133517,48.78068582195556 175.30612244899385,48.61712450321647 178.68854003137676,49.30110693343158 179.85839874407975,48.94424695034104 180.3161695447052,46.19342083748779 180.68492935638642,45.73246633040253 182.96106750390027,45.97037852280482 183.40612244897056,45.80681393384293 185.02103610668564,45.910900512491935 188.20000000001164,44.81055278099666 188.00926216639346,44.230636320920894 184.66499215067597,45.22690158436308 183.17723704862874,45.25664073742519 180.46875981159974,44.87003125697083 179.32433281000704,45.910900512491935 179.0318681318895,48.12643940511043 177.836577708018,48.349478298419854 176.9718995290459,48.20078574218496 175.94191522768233,47.59114461718127 174.81020408164477,47.62088326997764 174.37786499218782,47.933138744629105 173.2843014128739,48.00748518394539 172.57221350085456,48.00748518394539 172.22888540028362,47.78444574799505 169.5712715855916,47.87366156486678 169.30423861858435,47.75470712977403 169.04992150707403,47.189672188367695 164.94270015700022,47.94800803565886 162.76828885404393,47.56140595805482 158.90266875986708,46.13394292150042 156.0924646782223,46.282637664247886 156.01616954477504,45.25664073742519 157.27503924653865,45.94063952079159 159.20784929359797,46.04472600038571" stroke="#4dd2ff" stroke-linecap="round" stroke-linejoin="round" stroke-width="0.5"><title>2023-04-04 6.0km</title></polyline><polyline fill="none" points="15.5752918953076,101.86453934025485 36.31293420121074,103.1187242011074 43.28507256228477,82.4245722363703 26.122885826043785,74.48130484693684 13.787564110942185,88.48651797755156 13.251245775260031,100.61035368428566 20.40215691458434,104.37290826567914 38.99452587775886,101.0284156583948 42.39120867010206,84.72393315436784 28.446931947022676,73.85420342977159 13.251245775260031,90.57683978404384 14.323882445693016,103.1187242011074 38.63698032125831,102.70066266926005 42.748754226602614,83.26070378883742 28.804477504454553,73.43613570870366 20.40215691458434,79.70714224805124 13.251245775260031,89.94974347425159 13.072472996078432,101.65550845314283 33.273796966299415,105.0 39.53084421437234,102.28260104951914 42.569981447421014,83.26070378883742 28.268159167841077,73.43613570870366 13.787564110942185,89.32264696492348 13.072472996078432,102.07357020606287 30.41343251056969,104.16387764341198 38.27943476475775,101.86453934025485 42.748754226602614,82.21553929254878 27.195522497408092,73.01806789857801 13.608791331760585,89.53167915705126 13.787564110942185,102.49163187039085 24.692703599110246,104.16387764341198 39.53084421437234,101.4464775432134 42.748754226602614,83.05167093372438 27.195522497408092,72.59999999997672 13.43001855444163,89.53167915705126 13.966336889192462,102.70066266926005 35.24029752984643,103.74581633321941 39.17329865694046,101.65550845314283 42.569981447421014,82.00650632742327 28.089386390522122,73.01806789857801 14.145109667442739,88.48651797755156 12.714927438646555,101.65550845314283 38.27943476475775,102.49163187039085 41.854890333488584,82.63360515749082 28.446931947022676,73.43613570870366 19.687065800651908,79.70714224805124 13.787564110942185,89.53167915705126 13.608791331760585,102.70066266926005 32.91625140886754,104.16387764341198 38.63698032125831,101.65550845314283 42.03366311173886,82.00650632742327 27.731840833090246,73.22710181423463 16.46915578749031,84.09683498775121 12.714927438646555,101.86453934025485 18.7932019084692,104.37290826567914 38.45820754300803,102.70066266926005 42.569981447421014,83.67876943189185 29.16202306188643,73.43613570870366 20.40215691458434,79.91617545706686 13.251245775260031,90.36780770251062 12.714927438646555,101.86453934025485 16.826701344922185,103.95484699925873" stroke="#4dd2ff" stroke-linecap="round" stroke-linejoin="round" stroke-width="0.5"><title>2023-03-30 5.2km</title></polyline><polyline fill="none" points="79.88338762207422,101.48485595620878 80.20000000001164,98.85815048775112 78.13448115403298,98.17061671777628 74.32005583989667,97.64174265714246 74.0939041414531,97.43019256299885 74.289902280143,94.71527585446893 75.25481619354105,94.50372204591986 75.99357840855373,87.45177475977107 75.66188925079769,87.2931025132566 75.34527687297668,87.55755617347313 74.30497906001983,87.48703523846052 74.56128431827528,87.4341445176251 74.32005583989667,87.20495119993575 70.73178222426213,88.10409240820445 69.26933457417181,88.06883206006023 68.39488134015119,87.27547225433227 67.2641228478169,85.10693618097866 65.30414146120893,83.46729261042492 64.76137738476973,83.3438779253629 64.48999534663744,82.88547972346714 61.565100046515,82.26840322963835 59.137738482968416,81.12239796416543 58.564820846833754,79.72955018450739 58.42912982776761,78.21327227684378 57.630060493189376,77.17302712742821 56.36361098184716,76.96145104806055 52.549185667710844,77.66670360128046 51.8255002326332,77.49039074280881 50.24243834341178,76.27382693454274 49.48859934852226,76.1151440438116 47.79999999998836,76.30908977861691 49.80521172634326,76.16803835752944 51.554118194500916,77.29644638301397 52.549185667710844,77.64907232380938 56.3033038622234,76.99671374661557 57.569753373623826,77.19065845529258 58.383899488078896,78.24853471046663 58.549744067015126,79.78244335086492 59.137738482968416,81.14002887408424 61.278641228505876,82.21551085243118 64.36938110744813,82.81495681127126 64.80660772451665,83.39676994447655 65.30414146120893,83.48492327223357 66.64597487199353,84.48986791331845 67.50535132619552,85.51243694133882" stroke="#4dd2ff" stroke-linecap="round" stroke-linejoin="round" stroke-width="0.5"><title>2023-03-28 5.0km</title></polyline><polyline fill="none" points="87.05365168536082,92.00602974105277 87.34943820221815,89.07940414582845 87.17879213480046,88.58719224134256 86.89438202243764,88.41425246615108 85.59747191006318,88.74682874577411 85.50646067410707,88.49407085349958 83.79999999998836,88.0949784102122 83.89101123594446,87.68258155483636 85.74536516855005,88.16149390537612 90.06839887640672,88.17479700019612 94.09564606734784,89.3986757024104 96.30266853928333,89.77115816056903 105.00561797752744,89.61152295646025 107.80421348317759,90.18354816664942 108.77120786509477,89.7977640082172 109.22626404493349,87.38991199829616 109.55617977527436,86.9775128305846 111.70632022467908,87.23027377122344 111.85421348310774,87.04402891686914 113.66306179773528,87.11054496795259 116.20000000001164,86.19262035543215 116.06348314607749,85.5939702589385 114.24325842695544,86.29904674088175 112.85533707862487,86.52520251085662 111.3650280899019,86.4985959708356 109.63581460673595,86.17931705092633 109.20351123588625,86.29904674088175 108.30477528087795,87.04402891686914 108.07724719098769,87.66927840792778 108.13412921340205,88.30782787089265 107.62219101120718,88.33443402815465 107.25814606738277,88.74682874577411 107.24676966294646,89.1326161282268 106.89410112350015,89.30555491548148 106.07500000001164,89.01288913616736 105.7678370786598,88.26791862447135 105.17626404488692,87.98855354476109 104.3571629213402,88.16149390537612 103.8224719100399,88.90646504756296 102.90098314604256,89.05279814620008 102.3094101123279,89.05279814620008 101.99087078653974,88.83994994645764 99.39705056179082,88.8798590113438 99.15814606740605,88.26791862447135 96.7235955055803,88.65370747615088" stroke="#4dd2ff" stroke-linecap="round" stroke-linejoin="round" stroke-width="0.5"><title>2023-03-26 5.6km</title></polyline><polyline fill="none" points="152.20000000001164,100.6014291352185 151.2779446640634,100.61640431388514 148.90877470362466,99.83769292305806 148.588616600784,100.0772968842357 147.37201581028057,100.04734641122923 144.65707509883214,100.5115780300257 143.41486166010145,100.5115780300257 142.72332015814027,100.00242068988155 141.77565217396477,97.980748472517 140.07241106725996,96.60299975090311 139.61138339922763,96.4831948804349 139.38086956524057,96.06387703538348 136.9476679841755,95.59963082932518 134.8602371541201,94.56630316223891 134.3479841896915,93.39818454133638 134.23272727266885,92.14019986015046 133.63083003956126,91.2566086967563 132.4014229249442,91.04694218718214 129.27667984185973,91.61603627626027 128.5595256917295,91.48125104089559 126.1647430830053,89.69907863759727 126.31841897236882,88.99518923723372 125.39636363642057,86.95838316512527 125.14023715408985,86.80861685579293 125.12743083003443,86.19457333035825 124.71762845851481,85.715317995855 124.62798418977764,85.13122336246306 124.43588932807324,84.86164041084703 123.73154150194023,84.62201068938884 123.30893280636519,83.94804992219724 123.18086956522893,83.67846471664961 123.65470355731668,83.43883299158188 121.15747035574168,79.63462500026799 119.79999999998836,76.95364533354586 121.00379446643637,79.39498642702529 124.30782608699519,84.54712631818256 124.20537549402798,84.7867561664898 125.08901185769355,86.10471307879197 125.07620553357992,86.88350003027881 125.42197628458962,87.0632194873906 126.33122529648244,89.08504765348334 126.1135177865508,89.63917329303513 126.54893280635588,89.81888925068779 126.88189723325195,90.31310695763386 128.53391304350225,91.43632260062441 129.13581027666805,91.57110787869897 132.38861660083057,91.04694218718214 133.59241106722038,91.31651335672359 134.19430830038618,92.0353672986821 134.28395256918157,93.24842504653498 134.8474308300647,94.56630316223891 136.6403162055649,95.50977654905 139.36806324112695,96.07885269408871 139.71383399207843,96.5730485427921 140.00837944663363,96.5730485427921 141.77565217396477,97.980748472517 142.7361264822539,99.85266818253149 143.42766798421508,100.5265532181802 144.41375494078966,100.61640431388514 146.79573122528382,100.03237117239041 147.44885375490412,100.40675166851724 147.82023715419928,100.0772968842357 148.5758102767286,100.04734641122923 148.76790513831656,99.79276713520812 151.02181818184908,100.64635466645996 151.84142292494653,100.57147877318494" stroke="#4dd2ff" stroke-linecap="round" stroke-linejoin="round" stroke-width="0.5"><title>2023-03-18 7.0km</title></polyline><polyline fill="none" points="155.79999999998836,89.97253348428058 157.91375041817082,89.9091557559077 161.98949481430463,91.10065143984684 163.7238541317638,91.40486120509013 172.20053529611323,91.29078263362317 174.85627300100168,91.8992004263564 175.87520910002058,91.4302119839922 176.2437604549923,89.23734977432468 176.53643358987756,88.84440490703855 179.86423553031636,88.95848580772144 181.42515891604125,88.65426983122597 182.99692204751773,88.03315981404012 182.83432586153504,87.47542562630406 184.90471729676938,86.29656982237066 188.04824355972232,85.70079957364942 188.20000000001164,85.80220748479042 186.21632653067354,85.91629128217755 184.87219805951463,86.2712179572336 182.06470391439507,87.83034768253128 180.72057544329436,88.2232958755485 179.05125460017007,88.36272879554599 176.65567079291213,87.99513256554201 176.27627969218884,88.08386279328988 175.37658079626272,88.93313450584537 175.18146537302528,89.55423985762172 175.3332218133146,89.9091557559077 175.2248243559734,90.64433534377895 174.92131147545297,90.92319538676384 173.8806958849309,91.01192344614537 172.55824690527515,89.78240019860823 171.61518902645912,89.8838046551682 171.10572097694967,89.47818631405971 170.68297089327825,89.4021327221999 170.28190030111,89.54156427035923 169.7941117430455,90.12463989551179 169.51227835397003,90.14999094530503 168.98113081295742,90.59363344805024 168.10311140847625,90.64433534377895 167.9188357309904,90.02323564280232 164.82950819673715,90.352799150387" stroke="#4dd2ff" stroke-linecap="round" stroke-linejoin="round" stroke-width="0.5"><title>2023-03-14 5.6km</title></polyline><polyline fill="none" points="41.37557603686582,135.67472785817517 40.280645161285065,135.52923174458556 38.20276497694431,134.84539794905868 36.709677419334184,135.25278870473267 36.39861751155695,134.9908947860531 33.823041474679485,135.60197982062527 33.02672811062075,135.55833097960567 32.205529953935184,134.87449732875393 31.073271889414173,132.69202676413988 29.77926267281873,131.2515772182669 28.908294930821285,130.9169251639396 26.10875576036051,130.53862186108017 24.603225806436967,129.72381121257786 24.005990783392917,128.4433847246837 23.819354838691652,127.06109274695336 23.321658986154944,126.46452033775859 22.338709677453153,126.27536269195843 18.82995391706936,126.79918322751473 17.125345622131135,125.6787868738611 14.798617511463817,125.75154016102897 14.599539170507342,124.55838139119442 14.56221198150888,125.78064146505494 12.608755760302301,125.91159725717444 11.799999999988358,123.52527214182192 12.459447004599497,125.6787868738611 12.78294930869015,125.96979979141906 16.664976958476473,125.64968554825464 17.20000000001164,125.78064146505494 18.382027649728116,126.63912716448249 19.078801843337715,126.8137337694643 22.450691244215705,126.33356507222925 23.371428571466822,126.58092491350544 23.856682027631905,127.20659782002622 23.9935483870795,128.4433847246837 24.503686635929625,129.66561026716954 26.146082949242555,130.59682243695715 28.846082949254196,131.1206265114015 29.219354838714935,131.62987855992105 29.642396313371137,131.71717872170848 31.25990783405723,132.997574728186 32.24285714287544,134.85994763967756 32.84009216586128,135.55833097960567 34.3953917050967,135.66017825370363 35.09216589858988,135.31098728564393 36.92119815672049,134.97634510925855 37.92903225804912,135.07819281434058 38.065898617496714,134.87449732875393 40.554377880180255,135.67472785817517 44.199999999953434,135.52923174458556" stroke="#4dd2ff" stroke-linecap="round" stroke-linejoin="round" stroke-width="0.5"><title>2023-03-12 6.0km</title></polyline><polyline fill="none" points="78.80520179367159,135.41071544428996 74.91139013448264,134.44229561215616 74.75156950671226,134.6971435025771 73.83623318385798,134.39132598554716 73.25506726454478,134.9519909885712 73.13883408071706,134.64617395686219 69.91336322872667,135.30877678957768 68.86726457398618,135.18984827732493 68.08269058295991,134.37433610638254 66.46995515696472,131.5370010764891 65.30762331839651,130.34768405774958 63.98547085199971,129.87195478387002 60.861704035894945,129.4471953127795 59.11820627795532,128.44475850620074 58.56609865475912,127.06852151086787 58.47892376681557,125.59032789610501 57.8541704036179,124.75777607662894 56.41578475339338,124.50291241177183 52.68179372197483,125.11458452785155 52.18780269060517,125.02963020662719 51.75192825112026,124.50291241177183 50.48789237672463,123.78929199800768 49.921255605411716,123.68734596573631 47.79999999998836,123.87424697546521 50.34260089683812,123.7553099944198 52.1442152466625,124.9276849618036 56.50295964127872,124.4519396302785 57.75246636767406,124.72379427803389 58.46439461881528,125.74324510799488 58.56609865475912,126.98356822336791 59.089147982071154,128.30883438959427 60.99246636766475,129.36224328365643 64.18887892377097,130.00787757738726 64.56663677125471,130.50059673926444 65.07515695074107,130.56855788435496 67.00753363227705,132.1656365138915 68.12627802690258,134.39132598554716 68.96896860987181,135.1558686862263 70.16035874438239,135.27479722363933 71.49704035877949,134.83306221207022 71.72950672637671,135.1218890878663 72.65937219728949,134.6631638071849 74.8387443945976,134.47627535424544 77.7591031389311,135.51265403426078 80.20000000001164,135.32576656984747" stroke="#4dd2ff" stroke-linecap="round" stroke-linejoin="round" stroke-width="0.5"><title>2023-03-05 5.0km</title></polyline><polyline fill="none" points="113.54958263773005,129.4841899539606 113.72988313867245,130.07440227494226 115.58697829721496,129.7160592884611 116.00166944914963,130.9807963665953 115.92954924877267,131.61316189767967 111.11552587652113,132.94112298599794 107.99632721219677,134.3955464126193 104.98530884808861,136.46123101958074 102.87579298834316,133.1519096470729 101.54156928230077,132.0347378043516 88.9926544240443,129.21016221120954 88.8484140234068,128.85181767161703 89.5515859767329,126.89145085198106 89.35325542581268,126.49094343192701 89.58764607692137,125.4580521624448 83.80000000004657,122.54906432390271 89.56961602682713,125.39481374768366 88.23539232066832,129.16800406349648 87.74858096835669,131.6342407142365 88.5058430719655,129.80037534319854 88.9926544240443,129.5052689955628 99.73856427392457,131.6553195284796 102.31686143577099,132.83572957184515 104.58864774636459,136.65093567609438 109.31252086814493,133.76318970444845 111.38597662781831,132.8778869441885 116.20000000006985,131.54992543479602 115.58697829721496,128.78858033311553" stroke="#4dd2ff" stroke-linecap="round" stroke-linejoin="round" stroke-width="0.5"><title>2023-02-22 5.0km</title></polyline><polyline fill="none" points="119.79999999998836,133.35449598304695 120.00345368916169,129.72643906070152 120.28320251172408,129.22088271165558 123.18241758242948,129.36957594424894 126.50125588697847,130.6037237039418 127.63296703295782,130.67806960843154 128.14160125592025,131.02006026281742 128.59937205648748,130.87136877622106 130.77378335950198,131.1984898391529 131.32056514912983,131.10927507928864 132.1216640502098,131.46613377890026 132.83375196228735,131.34718097970472 134.35965463105822,131.54047922730388 135.37692307686666,130.96058368703234 135.4150706435903,131.25796631422418 135.82197802193696,131.43639558856376 136.43233908945695,131.48100287173293 136.96640502352966,131.27283542908845 138.0091051804484,131.45126468451053 138.75934065930778,130.7375463037315 139.19167974882293,130.6632004306739 141.40423861844465,131.16875159210758 141.56954474089434,131.3620500850957 141.65855572995497,130.82676129952597 142.68854003131855,130.88623793199076 143.83296703291126,130.54424695199123 144.21444270008942,129.08705866783566 144.30345368915005,127.76368070770695 144.81208791205427,127.27298683678964 145.98194662475726,127.51089923056134 149.33893249597168,127.49602971773129 152.19999999995343,126.38081177340064 151.88210361055098,125.84550401695014 150.4833594976226,126.39568140417396 148.6141287283972,126.79716084105894 147.3934065933572,126.82690001299488 144.5450549449888,126.45515991166758 143.3116169544519,127.42168213007972 143.07001569849672,128.1651562369807 143.1717425431125,128.74506331028533 142.3070643641404,129.042450624911 142.09089481947012,129.72643906070152 141.68398744106526,129.90487027919153 140.93375196232228,129.7859161587112 140.05635792773683,129.23575204201916 138.86106750392355,129.22088271165558 138.36514913657447,129.53313831845298 136.7248037676327,129.63722336656065 136.38147566711996,129.39931457191415 132.52857142861467,129.4439225015958 131.80376766086556,129.3398373103264 131.4477237048559,129.012711921765 128.87912087904988,129.56287691145553 126.84458398737479,129.17627471120795 123.05525902670342,127.77855019220442 121.12244897952769,127.49602971773129 124.78461538458942,127.46629068742914" stroke="#4dd2ff" stroke-linecap="round" stroke-linejoin="round" stroke-width="0.5"><title>2023-02-10 5.9km</title></polyline><polyline fill="none" points="163.27042987401364,135.90904792657238 163.31263569253497,131.4508806985541 164.77577073377324,131.46733173508255 167.2096396004781,132.09246983280173 168.54615718621062,131.69764606344688 169.094832826755,130.03608504850126 169.1933130698162,128.57192250876687 169.61537125485484,128.11128425222705 172.0492401215015,128.45676307257963 172.51350412500324,128.22644394429517 174.80668693000916,128.25934669779963 177.14207555359462,127.5190330602345 181.2360399478348,125.46258779623895 185.92088580114068,124.82097130754846 188.19999999995343,123.96547853756056 188.07338254444767,124.06418948200007 187.8482848458225,123.66934532824962 187.8904906642856,123.2909520734247 187.13078593136743,123.71870090233278 185.17524967429927,124.21225578116719 184.33113330439664,124.24515938403783 184.1341728180414,123.99838219267258 181.51741207117448,124.47548440931132 179.7869735127315,125.11710232363839 176.9310464610462,126.74581283137377 174.83482414245373,127.40387284429744 172.27433782018488,127.5848388595914 170.23438992613228,127.20645513285126 169.22145028226078,127.23935810210241 168.0678245765739,128.22644394429517 167.8005210594274,128.9832055134175 167.88493269647006,129.7399633997702 167.2659140251344,129.7399633997702 166.81571862782585,130.16769448919513 166.71723838464823,130.8092889174004 166.2529743812629,131.02315313856525 165.32444637425942,130.6776800197258 164.98679982626345,129.78931704707793 164.12861485022586,129.3451336576254 163.15788102470106,129.6248048285488 162.62327399040805,130.46381532344094 161.4696482848376,130.6776800197258 160.6114633086254,130.69413113800692 160.31602257926716,130.44736418075627 156.01102909242036,130.4144618901919 155.79999999998836,130.23349916771986 156.10950933559798,129.8715730910335 158.41676074679708,129.70706095953938 158.6840642640018,130.54607101061265 159.82362136337906,130.46381532344094 160.7662179765175,129.85512188573193 161.6384715588065,129.92092669657723 162.04646113759372,129.4273899365653 162.52479374728864,129.41093868429016 163.2985670863418,130.2499503330473 164.33964394259965,130.20059683192812 164.9586626139353,130.71058225455636 166.23890577501152,131.05605530034518 167.65983499778667,130.8586422252847 168.0256187581108,129.65770728614007 168.0678245765739,130.7434844824602 167.57542336086044,131.13831067430147 165.7746417716262,130.89154442187282 165.3385149804526,130.69413113800692 164.84611376462271,129.67415851235273 162.14494138077134,128.88449769145518 161.4696482848376,129.04901069316838 159.7954841510509,130.4144618901919 158.9513677811483,130.39801074234128 158.5152409900329,129.75641461726627 158.90916196262697,129.50964617203863 159.5985236648121,129.50964617203863 160.17533651751,130.01963386061834 161.58219713409198,129.92092669657723 162.2152844115626,129.47674368307344 162.80616587062832,129.9538290915516 163.32670429866994,129.6083535971411 164.24116369948024,129.4273899365653" stroke="#4dd2ff" stroke-linecap="round" stroke-linejoin="round" stroke-width="0.5"><title>2023-02-05 7.1km</title></polyline><polyline fill="none" points="12.185059422743507,175.4603028661586 12.47843803052092,172.81231827873125 12.689303904946428,172.73727317291196 14.21120543294819,172.9838497405217 14.752122241072357,172.89808404592623 16.182342954154592,173.5091630361203 16.796604414237663,173.57348692599044 17.089983022073284,172.2977221514011 16.86994906619657,171.85816922335653 16.237351443094667,171.86889004917612 15.934804753807839,171.56870649786288 14.229541595908813,171.71879838465247 13.211884550051764,171.54726478159137 12.735144312377088,171.1827549110094 11.864176570496056,171.02194131598662 11.799999999988358,171.6759150111102 11.864176570496056,171.05410405539442 12.1758913412923,171.03266223024548 12.340916808170732,171.16131311309437 12.322580645151902,171.6115899167562 12.49677419353975,171.8903316973665 14.642105263192207,171.71879838465247 17.044142614584416,172.6943902303683 18.630220713093877,173.06961536251765 19.60203735146206,172.90880476171878 20.225466893054545,173.1553809119505 20.87640067911707,173.1017774520442 21.63735144311795,173.25186706826207 23.48013582342537,172.96240832364856 24.892020373488776,173.14466022222769 25.689643463527318,173.06961536251765 25.928013582364656,172.84448044994497 26.835653650283348,172.8230390036042 27.1565365025308,173.1017774520442 27.917487266589887,173.34835313278018 28.797623089980334,173.28402909999568 29.054329371836502,173.09105675667524 29.04516129026888,172.05114391434472 29.219354838714935,171.56870649786288 29.93446519522695,170.90401118410227 32.510696095065214,171.13987131062459 33.87674023763975,170.95761580651015 34.97691001696512,170.58238285416155 37.80067911709193,169.16720607478783 40.89949066215195,168.8241299397123 43.69575551780872,167.55902665265603 44.172495755483396,166.69059915186517 43.93412563658785,165.3396971338516 44.20000000001164,166.63699227209145 44.09915110352449,166.96935446940188 43.961629881116096,167.29099426750327 42.82478777586948,167.97715575774055 42.64142614597222,168.2773499486575 41.917147708009,168.32023476046743 41.10118845500983,168.7490818803417 39.68930390488822,169.03855266024038 38.891680814907886,168.97422589171765 37.51646859082393,169.22081161595997 34.95857385394629,170.55021996500727 33.77589134121081,170.94689488431322 32.015619694429915,171.10770859839977 30.03531409165589,170.83968559977075 29.14601018675603,171.5258230607942 28.898471986409277,171.31140560327913 29.173514431226067,171.63303161939984 29.026825127308257,171.99753987035365 29.136842105246615,172.4156506613799 28.971816638368182,172.59790354323195 29.035993208817672,172.96240832364856 28.83429541590158,173.21970502640033 27.98166383698117,173.34835313278018 26.954838709672913,172.96240832364856 26.872325976204593,172.79087682561658 25.9646859082859,172.80159755275236 25.57962648558896,173.03745326275384 24.81867572152987,173.1017774520442 24.36943972838344,173.1017774520442 24.131069609487895,172.94096690230072 22.18743633280974,172.99457044723385 21.14227504248265,172.85520117139822 20.00543293717783,173.0267325605746 19.501188455033116,172.86592189173825 18.786078098462895,173.05889466375083 17.429202037339564,172.79087682561658 14.568760611175094,171.76168174006307 13.9361629881314,171.6651941648961 12.487606112030335,171.87961087383883 12.30424448219128,171.50438133545686 12.441765704599675,171.1184295036146 13.202716468542349,171.5901482095869 14.037011884560343,171.76168174006307 15.888964346318971,171.56870649786288 16.16400679119397,171.86889004917612 16.585738539870363,171.90105251975183" stroke="#4dd2ff" stroke-linecap="round" stroke-linejoin="round" stroke-width="0.5"><title>2022-12-15 10.0km</title></polyline><polyline fill="none" points="47.79999999998836,174.74364680217695 48.08611449453747,170.85579351587512 50.44409257004736,171.01730946809403 50.74993909866316,171.22497248377476 52.75274056033231,171.68644443614176 53.06845310598146,170.34817039439804 52.98952496954007,169.93284062840394 52.131181486009154,169.87515581362095 51.835200974484906,169.4944352705279 50.769671132729854,169.54058328590327 50.35529841657262,169.3444540855562 49.68440925702453,169.58673128177907 48.983922046318185,169.54058328590327 48.02691839222098,168.98680581209192 47.928258221712895,169.51750928063848 48.16504263097886,169.88669277902227 50.37503045075573,169.55212028672395 50.71047503052978,169.95591454583337 53.1769792935811,170.80964605700865 54.84433617541799,171.1557515224922 55.74214372719871,170.95962522691116 56.53142509137979,171.21343565994175 58.43556638248265,171.2365093063636 59.481364189996384,171.17882518113038 59.91546894033672,170.9826989270514 61.484165651665535,171.21343565994175 62.26358099881327,171.1557515224922 62.62862362974556,170.87886723799602 63.54616321559297,170.87886723799602 63.782947624858934,171.12114102534542 64.60182704019826,171.29419340110326 64.82874543243088,171.53646626583213 65.06552984163864,171.25958294792508 65.54896467726212,171.36341427448497 65.87454323994461,171.2365093063636 66.09159561514389,169.54058328590327 66.9696711327997,168.76760145180742 69.00207064556889,169.0214169866158 70.67929354449734,168.94065756233613 72.12959805119317,168.55993375671096 74.99074299639324,167.06009977171925 78.80889159569051,166.5409216629123 79.95334957371233,166.05635319782596 80.09147381247021,166.57553361374448 80.20000000001164,166.5409216629123 79.134470158373,166.9562643477475 75.8589524969575,167.34853098632448 72.04080389771843,169.07910225300293 70.6102314250893,169.4713612554624 68.93300852621906,169.57519428466185 67.18672350794077,169.3329170628058 66.89074299635831,169.67902721497376 66.83154689404182,170.67120356328087 66.48623629723443,171.87103267038765 65.9732034105109,172.06715732688463 65.52923264313722,172.1825246071312 63.3488428745768,171.6518341074625 61.33617539587431,171.68644443614176" stroke="#4dd2ff" stroke-linecap="round" stroke-linejoin="round" stroke-width="0.5"><title>2022-12-12 7.2km</title></polyline><polyline fill="none" points="84.32419106311863,174.02669836154382 84.58628659474198,170.36356176600384 84.49892141763121,170.0278909981571 83.81248073960887,169.94032457655703 83.79999999998836,169.50249163489207 87.3320493066567,169.56086944077106 91.25100154086249,170.75760901655303 94.05916795070516,171.3121921291313 103.7067796610063,171.16624942088674 104.79260400612839,171.2538150643668 106.62727272725897,171.8521788071812 107.20138674881309,171.66245399900072 107.96271186438389,171.28300359983405 108.32465331279673,169.95491898404725 108.38705701078288,168.72898337541847 108.64915254240623,168.32033575161768 109.2856702619465,168.21817365649622 111.09537750383606,168.5830379344552 111.48228043143172,168.37871405766055 113.30446841294179,168.43709233903792 114.61494607088389,168.08682228015095 116.20000000001164,167.32790076831589 115.97534668719163,166.77330163847364 112.74283513100818,167.75114597255015 111.25762711861171,167.79492988505808 108.48690292751417,167.4592528671783 107.40107858245028,168.42249777102552 107.18890600919258,169.006279287918 107.36363636364695,169.57546388836636 107.16394453000976,169.92573016758251 107.23882896761643,170.34896740179101 106.91432973806513,170.6992317171098 106.3277349768905,170.64085439300106 105.56640986126149,170.87436354128295 105.21694915252738,170.52409967059793 104.50554699532222,170.4073448494164 104.34329738060478,170.2030236745777 104.28089368256042,170.33437303599203 103.13266563945217,170.21761805425922 101.44776579353493,170.53869401628617 100.86117103236029,170.553288360461 100.47426810470643,170.2905899293837 97.90323574730428,170.3781561286596 96.40554699540371,170.1884292933537 94.88289676426211,170.4073448494164" stroke="#4dd2ff" stroke-linecap="round" stroke-linejoin="round" stroke-width="0.5"><title>2022-12-06 5.0km</title></polyline><polyline fill="none" points="119.79999999998836,174.35311033958715 120.0771769019193,171.25088394193153 120.22566452797037,171.40136710280058 122.30449129239423,171.42451833996165 125.0267644362757,172.32741276819434 125.12575618701521,172.5241964624438 124.97726856096415,172.5241964624438 125.10595783684403,172.31583724572556 124.8188817598857,172.32741276819434 124.57140238315333,172.07275099145045 124.78918423468713,172.14220426204702 125.03666361136129,170.4753136001964 124.87827681022463,170.57949501050462 124.89807516039582,170.91518999115215 125.26434463798068,171.21615702927375 126.75912007334409,171.5865768628355 127.66984417964704,171.41294272198138 128.4815765353269,171.66760603428702 129.7486709440709,171.70233280369575 132.49074243818177,171.45924518648826 133.25297891843366,171.66760603428702 134.3715857011848,171.55185005672683 134.64876260311576,171.33191336195887 135.62878093490144,171.33191336195887 135.72777268558275,171.52869884647953 136.93547204404604,171.87596648534236 137.87589367554756,171.71390839103697 138.10357470210874,169.9659808330689 139.0142988084117,169.2019772368585 141.62768102658447,169.46822151991364 142.8947754353867,169.35246321560408 144.30045829509618,168.9241564246986 146.95343721355312,167.51188972219825 147.85426214477047,167.2803688514905 150.23006416129647,167.08357572621753 151.52685609529726,166.73629287691438 152.0317140237894,166.4468896604085 152.19010082492605,167.01411924453714 152.19999999995343,166.88678224694013 150.18056828598492,167.55819383755443 147.3989000916481,167.9286260548979 145.95362053165445,168.65791081775387 143.27094408799894,169.8154956981307 141.24161319888663,169.90810195949598 141.02383134735283,170.03543544094282 139.19248395966133,169.8154956981307 134.3715857011848,172.13062872002774 129.78826764435507,172.2232330220795" stroke="#4dd2ff" stroke-linecap="round" stroke-linejoin="round" stroke-width="0.5"><title>2022-11-27 5.6km</title></polyline><polyline fill="none" points="155.79999999998836,172.31922666001628 157.08544102020096,172.50711826270708 157.44123273110017,172.3997516666641 158.02656748139998,172.69500958707795 158.4167906481889,172.6279055745763 160.47120085009374,173.2586818906202 160.81551540910732,171.66160385925468 160.6318809776567,171.3931854098846 160.70074388943613,171.94344261986407 161.2746014877921,172.30580582062976 163.0879914983525,172.65474718386395 163.94877789582824,172.3997516666641 164.85547290113755,172.72185118210473 168.1723698193091,172.69500958707795 168.8150903294445,172.48027662220557 170.5710945802275,172.69500958707795 171.51222104142653,172.64132637994044 171.93687566416338,172.31922666001628 173.07311370875686,172.30580582062976 173.1993623803719,172.56080152662616 174.5192348564742,172.9634252820906 175.41445270983968,172.84263828960684 175.79319872474298,172.45343497601425 175.919447396358,171.79581287097972 175.7702444207971,171.25897597229778 175.95387885224773,170.70871579346567 177.00977683311794,169.84976830456435 179.6609989372664,170.1852953596317 181.46291179594118,170.05108464408113 183.33368756639538,169.42029237919633 186.01934112643357,167.95737909676245 188.19999999995343,167.5413181093827 186.19149840588216,167.87685127024452 183.27630180650158,169.44713466711255 181.41700318804942,170.03766356471897 179.69543039315613,170.14503215986042 177.30818278423976,169.7826627870745 176.8835281615029,169.86318940383353 175.919447396358,170.7623998183917 175.74729011685122,171.25897597229778 175.89649309241213,171.79581287097972 175.68990435701562,172.1581764934017 175.7702444207971,172.5742223390771 175.46036131767323,172.85605907222634 174.17492029751884,172.90974218848714 172.8206163655268,172.26554329385544 171.89096705627162,172.27896413752023 171.4433581295889,172.6144847678297 170.364505844831,172.68158878741815 169.50371944735525,172.46685579983023 165.87693942611804,172.4131724961262" stroke="#4dd2ff" stroke-linecap="round" stroke-linejoin="round" stroke-width="0.5"><title>2022-11-23 5.3km</title></polyline><polyline fill="none" points="11.799999999988358,211.97987520723836 14.558273381262552,212.3130145391042 17.64028776984196,213.1610020671069 18.041726618655957,211.37416534470685 17.951079136691988,210.95016691595083 17.549640287761576,210.75331007562636 16.902158273383975,210.81388143991353 16.332374100689776,210.34445269606658 14.933812949631829,210.3898813514097 14.623021582723595,210.55645296457806 14.674820143904071,210.70788153554895 19.077697841683403,212.20701574489067 20.45035971229663,212.37358524341835 21.175539568299428,211.96473249193514 22.082014388462994,212.11615957308095 23.182733812951483,211.91930433634843 23.40287769783754,212.23730112267367 24.024460431712214,212.32815721760562 27.598561151127797,212.23730112267367 28.49208633095259,212.52501189208124 30.007194244652055,212.44929858775868 30.499280575546436,212.10101687216957 31.768345323740505,212.08587416965747 32.06618705030996,212.41901325482468 33.58129496406764,212.79757945593155 34.88920863310341,212.4644412518537 34.863309352542274,211.85873343981802 35.057553956867196,211.55587857263163 34.91510791372275,210.79873860121006 35.16115107916994,210.2233095444535 36.28776978421956,209.32987563530332 40.21151079138508,209.70845000645204 42.36115107918158,209.2693036429264 43.87625899282284,208.61815310668317 44.20000000001164,209.20873162501084 42.94388489209814,209.76902181292826 40.690647481998894,210.34445269606658 39.09784172667423,210.25359534200106 38.83884892088827,210.42016711366887 36.805755395733286,210.0567375436658 36.40431654674467,210.1627379302372 36.080575539555866,210.58673869154882 35.92517985613085,212.37358524341835 35.53669064753922,213.47899609495653 34.656115107936785,213.78184689332556 31.185611510823946,213.1155742911651 21.421582733804826,213.3275704555126 17.782733812986407,212.63101045083022" stroke="#4dd2ff" stroke-linecap="round" stroke-linejoin="round" stroke-width="0.5"><title>2022-11-18 5.5km</title></polyline><polyline fill="none" points="47.79999999998836,214.75051113619702 48.15646365424618,211.02884603638086 48.996699410665315,211.23726188353612 49.811473477457184,211.1181671515078 52.026640471536666,211.37124333651445 54.190884086478036,212.11558241937018 54.53461689595133,210.5226919796405 54.470962671912275,209.82300543277233 53.45249508845154,209.77834447126952 52.91779960709391,209.3019599996187 51.56833005900262,209.3615081467724 51.30098231835291,209.7039095038781 51.41555992147187,209.82300543277233 54.87834970530821,210.9841854575352 57.09351669938769,211.44567742198706 57.95921414543409,211.14794084396272 58.964950884110294,211.49033785438223 62.65689587430097,211.4754510451603 63.3698231827002,211.2223750475241 65.33037328097271,211.49033785438223 66.32337917486439,211.43079060806485 66.98538310418371,211.1181671515078 68.01658153237076,211.13305399853562 68.32212180749048,211.43079060806485 69.88801571709337,211.75830015094834 71.1229076620657,211.4754510451603 71.32660117879277,210.50780506804585 71.16110019647749,209.89744033719762 71.37752455798909,209.34662111237412 72.48510805499973,208.33429907649406 76.71174852654804,208.66181582621357 78.40495088405441,208.3045247887203 80.05996070720721,207.6494888638117 80.20000000001164,208.24497619429894 77.0936738703167,209.31684703874635 74.02554027509177,209.37639517959906 73.14711198426085,209.06376715900842 72.61241650296142,209.2275247802172 72.3450687622535,209.58481347413908 72.21776031435002,211.14794084396272 71.87402750487672,212.36865681064955 70.83009823184693,212.72593752946705 68.46216110017849,212.13046916088206 57.97194499021862,212.26444976351922" stroke="#4dd2ff" stroke-linecap="round" stroke-linejoin="round" stroke-width="0.5"><title>2022-11-06 5.5km</title></polyline><polyline fill="none" points="83.80000000004657,221.17721267252637 84.54708737856708,217.1542904911912 85.07791262143292,206.14259692629275 85.53009708737954,204.09652141592233 85.64805825252552,204.3034288037161 88.04660194180906,204.23445969630848 94.79004854371306,205.75177500254358 95.26189320383128,202.53321478524595 95.08495145628694,203.4528082828765 95.81237864075229,203.98157278202416 99.31189320387784,204.69425333208346 106.52718446601648,203.26888989465078 106.99902912625112,203.26888989465078 107.09733009710908,204.55631534352142 108.7094660194125,204.32641850129585 110.34126213600393,204.4183772673714 110.9507281553233,204.80920158898516 113.54587378643919,204.7172429883649 114.37160194176249,204.1425008524675 114.3912621360505,203.2918797017046 116.08203883492388,202.7861033850204 116.20000000006985,201.61361739618587 115.57087378646247,201.22278732748237 114.50922330108006,202.64816418524424 114.70582524267957,203.19992045898107 114.27330097090453,203.38383890557452 113.5655339807272,204.55631534352142 111.40291262138635,204.83219123314484 110.34126213600393,204.4183772673714 104.2072815534193,204.4183772673714 103.71577669901308,204.78621194248262 102.22160194173921,204.78621194248262 100.66844660206698,204.25744940123695 99.1546116505051,204.69425333208346 96.52014563116245,204.21146998899349 90.40582524274942,202.21135614175 90.20922330103349,201.8435171082965 90.68106796115171,201.68258733538096 92.78470873786137,201.4296974514291 93.47281553398352,202.21135614175 94.14126213593408,202.16537629665982 93.45315533969551,202.1423863704258 92.74538834951818,201.47567745222477 91.62475728150457,201.47567745222477 90.48446601943579,201.636607378372 90.34684466011822,202.2343460606353 96.61844660202041,204.32641850129585 94.9473300970858,203.36084910828504 95.04563106794376,202.53321478524595" stroke="#4dd2ff" stroke-linecap="round" stroke-linejoin="round" stroke-width="0.5"><title>2022-11-02 5.0km</title></polyline><polyline fill="none" points="120.7976905311807,218.60073529528745 120.7478060045978,218.29451407067245 119.86235565814422,218.1778581871622 119.79999999998836,217.75497978217027 120.12424942263169,215.56765698303934 120.12424942263169,213.555289359545 120.32378752884688,213.13239677631645 120.21154734410811,211.58664043585304 120.48591224016855,208.3492455247324 120.7478060045978,207.12426546217466 120.95981524244417,207.28468013738166 123.44157043873565,207.1971812467673 126.63418013858609,208.1888320883154 126.94595842954004,206.10344042800716 126.78383371827658,206.58468745739083 127.00831408775412,206.93468424171442 129.56489607389085,207.51801024083397 133.54318706697086,206.6867699446011 134.8900692840689,206.65760352740472 135.6508083140361,207.036766469726 136.06235565821407,206.7888523562433 137.7459584295284,206.83260193807655 138.25727482675575,206.36593901595916 139.0180138568394,206.74510276051296 139.9782909930218,206.40968873203383 140.7016166280955,206.73051955887058 141.02586605073884,207.57634270498238 141.9237875288236,207.85342157258128 143.183371824387,207.59092581714503 143.39538106234977,206.49718812246283 143.24572748265928,205.9430243781826 143.48267898376798,205.35969171431498 144.2558891454246,204.58677213235933 145.01662817550823,204.42635431754752 147.2115473440499,204.77635658191866 148.65819861425553,204.77635658191866 150.2669745957828,204.47010464918276 151.9630484987283,203.79926470472128 152.19999999995343,204.30968669863068 150.82817551959306,204.95135738083627 148.99491916853003,205.41802509178524 147.09930715931114,205.53469177268562 144.76720554271014,205.2721916018345 144.41801385680446,205.68052498495672 143.9565819861018,208.3638285551715 142.97136258654064,208.72840381426795 139.44203233259032,208.13049988332205 129.96397228637943,208.3200794592558 127.12055427249288,207.72217375735636 126.7713625865872,209.93878676039458" stroke="#4dd2ff" stroke-linecap="round" stroke-linejoin="round" stroke-width="0.5"><title>2022-10-28 6.2km</title></polyline><polyline fill="none" points="155.79999999998836,214.7055856143852 156.00281690148404,211.59284676432435 156.21830985916313,211.0295818696468 156.4211267606006,211.23710077849682 157.96760563377757,211.0888730177976 159.184507042286,211.22227800945984 161.7450704225921,212.09681869813357 162.2647887323983,211.97823722971953 162.55633802816737,210.3922004421911 162.4422535211197,209.8585765522148 162.06197183101904,209.6807014705555 161.32676056335913,209.7399931895343 160.90845070418436,209.3249506298307 159.55211267608684,209.39906546279963 159.3619718310074,209.57694090199948 159.51408450701274,209.8289307209052 163.40563380287495,211.1629869177268 164.67323943669908,211.3853283823264 170.03521126759006,210.59972029506753 170.08591549296398,211.34086011764884 171.8605633803527,211.22227800945984 173.02676056337077,211.5039103525196 176.00563380285166,211.1333413624816 176.14507042255718,211.41497388428252 177.61549295770237,211.7855421294953 178.80704225349473,211.66696039763337 179.06056338030612,211.45944212544418 179.03521126759006,210.83688546481426 179.23802816902753,210.5700746205839 179.08591549296398,209.84375363733852 179.32676056335913,209.295304685671 180.4295774648199,208.3614542336436 183.53521126753185,208.70238448507735 184.77746478869813,208.64309232705273 186.22253521124367,208.3614542336436 187.8830985915265,207.69441438560898 188.20000000001164,208.21322343072097 186.72957746475004,208.8506147704611 184.79014084511437,209.3545965677622 183.28169014083687,209.295304685671 183.01549295772566,209.4287113850005 181.0,209.08778290086775 180.5690140844672,209.2063668155606 180.3028169014142,209.6065867865691 180.2267605633824,210.89617669452855 179.8338028169237,212.36362663510954 178.78169014083687,212.68972453491006 177.86901408445556,212.60078881932714 177.716901408392,212.3339813338971 177.20985915500205,212.4080945752503 175.94225352117792,212.11164137462038 170.5295774647966,212.1857547335676" stroke="#4dd2ff" stroke-linecap="round" stroke-linejoin="round" stroke-width="0.5"><title>2022-10-20 5.2km</title></polyline><polyline fill="none" points="19.117551020346582,253.46911108901259 19.602448979509063,254.2165335098107 20.880816326476634,254.57735730614513 22.203265306074172,254.08766773877142 25.641632652957924,254.44849172589602 25.884081632713787,254.06189457635628 26.457142857136205,254.68044972115604 27.47102040820755,254.9381805680605 28.19836734700948,254.68044972115604 31.54857142851688,255.0154997689242 32.69469387747813,253.9330287235498 33.37795918365009,254.55158419552026 34.98693877551705,254.1649872095586 36.55183673463762,254.3969454748003 38.51346938777715,254.1134408984217 38.77795918355696,255.99487418975332 39.10857142857276,255.71137147276022 39.17469387757592,253.8299359921948 39.791836734628305,253.39179139738553 43.428571428521536,254.47426484737662 44.199999999953434,255.76291744585615 43.6710204082774,253.67529681345331 41.731428571394645,249.0618495024246 39.02040816319641,250.01547426563047 38.20489795913454,251.35569735332683 36.1330612244783,251.69075197321945 35.0751020408934,251.69075197321945 34.65632653061766,251.2783769909438 28.04408163262997,251.30415044780239 27.515102040721104,250.91754830884747 24.56163265311625,251.4845645693713 24.032653061207384,251.0721892380243 30.512653061188757,250.17011576739606 30.843265306204557,250.78868079291715 30.424489795812406,251.43301769104437 27.316734693944454,251.0721892380243 24.71591836726293,251.4845645693713 23.790204081567936,251.14950966583274 28.35265306115616,250.29898361054074 30.777142857084982,250.22166291279427 30.821224489831366,251.02064227257506 30.46857142855879,251.43301769104437 27.250612244941294,251.0721892380243 24.56163265311625,251.4587911315757 23.812244898057543,251.17528313629737 25.641632652957924,250.84022780749365 26.214693877496757,251.20105660408444 30.380408163298853,251.5618848662416 30.777142857084982,251.25260353132035 30.79918367334176,250.22166291279427 29.300408163224347,250.0927950288169 22.071020408067852,251.58765829306503 18.786938775447197,250.99486878571042 12.108571428456344,248.75256499374518 11.800000000046566,248.34018503814877 12.284897959092632,248.03089961341175 14.621224489761516,248.00512581024668" stroke="#4dd2ff" stroke-linecap="round" stroke-linejoin="round" stroke-width="0.5"><title>2022-09-24 5.1km</title></polyline><polyline fill="none" points="77.25454545463435,257.76502977428026 78.5351778655313,256.9414674276486 80.00790513842367,251.4011140104849 74.05296442657709,247.80734806891996 69.12252964428626,253.64720845926786 69.12252964428626,257.39068337203935 71.7478260868229,258.51372198562603 77.1905138338916,258.58859116310487 78.59920948604122,257.6901605097228 80.20000000018626,251.10163421212928 74.56521739135496,247.58273709198693 69.25059288553894,253.72207815165166 69.37865612632595,258.0645067538717 72.9003952567,258.21424519614084 73.9889328063,258.9629369323957 72.83636363619007,260.0859730519005 49.272727272473276,261.43361404404277 48.31225296435878,262.1823023755569 49.977075098780915,260.9095317409956 74.69328063237481,261.50848291278817 78.47114624478854,260.61005596467294 63.871936758747324,260.0859730519005 65.08853754936717,242.2669231655309 64.38418972329237,242.11718135053525 61.75889328075573,260.3854490495869 47.800000000046566,260.2357110665762 47.992094861576334,261.0592695812229 78.59920948604122,261.43361404404277 76.23003952531144,260.0859730519005 73.60474308300763,260.6849249207298 63.80790513847023,259.8613659705152 64.83241106709465,241.8176976244431 62.399209486087784,259.8613659705152 60.28616600786336,260.6849249207298 49.65691699599847,260.2357110665762 49.52885375497863,261.0592695812229 80.13596837944351,261.80795830860734 71.55573122529313,261.50848291278817 78.08695652172901,261.43361404404277 78.08695652172901,260.4603180293925 74.30909090908244,260.1608420632547" stroke="#4dd2ff" stroke-linecap="round" stroke-linejoin="round" stroke-width="0.5"><title>2022-09-22 5.0km</title></polyline><polyline fill="none" points="98.61875761277042,254.49197148894018 99.90133982955012,254.30738427008328 100.84847746661399,254.9303655075637 101.97320341062732,254.76885202425183 104.40024360548705,255.16109884771868 105.68282582226675,254.58426503976807 105.64336175413337,254.16894375342235 105.91961023153272,254.09972346226277 106.39317905006465,254.9072921601619 108.6820950062247,254.63041180052096 109.51084043853916,254.95343885259354 111.2472594397841,254.09972346226277 111.26699147396721,254.83807210318628 111.58270401961636,255.13802552466223 111.78002436063252,253.91513591143303 112.17466504278127,253.66132777403982 115.62777101120446,254.58426503976807 116.20000000006985,255.668711336868 115.17393422673922,252.27691455297463 113.9702801463427,249.71572692850896 112.23386114509776,250.3387212808302 111.70109622424934,249.96953965720604 109.51084043853916,249.64650522392185 106.84701583441347,251.74622048833407 103.01900121814106,251.81544152655988 102.52570036542602,250.77712364731997 99.15152253361885,251.26167260606599 97.96760048740543,251.53855724207824 99.34884287463501,252.16154638789885 105.03166869690176,252.11539910477586 105.91961023153272,251.74622048833407 107.53763702814467,251.74622048833407 108.54397076752502,252.11539910477586 110.59610231441911,251.88466254273953 110.97101096238475,250.91556631682033 110.30012180283666,250.31564744771458 109.15566382475663,250.20027824517456 107.41924482351169,251.14630390402453 106.27478684543166,250.31564744771458 104.7159561511362,250.7540498605522 102.76248477469198,250.7079022796388 102.7230207065586,251.86158887314377 101.12472594412975,251.5847046472045 98.67795371508691,251.97695719684998 97.4348355664406,251.5847046472045 96.58635809994303,251.9308098746842 95.18538367853034,251.88466254273953 87.09524969558697,249.43883997842204 87.56881851423532,248.70047305982735 86.2665042631561,248.33128866314655 85.49695493315812,248.88506502377277 83.80000000004657,248.58510300295893 84.11571254581213,248.86199103685794 87.07551766140386,249.2081005848886 89.75907429971267,248.74662106548203 90.60755176621024,249.5311356674938 91.67308160790708,249.3465442503366 92.28477466513868,249.5772834973468 91.89013398310635,253.03834291196836 91.33763702807482,253.03834291196836 92.56102314265445,253.56903383268218 91.83093788078986,253.66132777403982 91.65334957384039,254.37660449542454" stroke="#4dd2ff" stroke-linecap="round" stroke-linejoin="round" stroke-width="0.5"><title>2022-09-09 5.2km</title></polyline></svg>