<?xml version="1.0" encoding="utf-8" ?>
<svg baseProfile="full" height="300mm" version="1.1" viewBox="0,0,200,300" width="200mm" xmlns="http://www.w3.org/2000/svg" xmlns:ev="http://www.w3.org/2001/xml-events" xmlns:xlink="http://www.w3.org/1999/xlink"><defs /><rect fill="#222222" height="300" width="200" x="0" y="0" /><text fill="#FFFFFF" style="font-size:12px; font-family:Arial; font-weight:bold;" x="10" y="20">Over 5km Runs</text><text fill="#FFFFFF" style="font-size:4px; font-family:Arial" x="10" y="280">ATHLETE</text><text fill="#FFFFFF" style="font-size:9px; font-family:Arial" x="10" y="290">feng qijun</text><text fill="#FFFFFF" style="font-size:4px; font-family:Arial" x="120" y="280">STATISTICS</text><text fill="#FFFFFF" style="font-size:3px; font-family:Arial" x="120" y="285">Number: 29</text><text fill="#FFFFFF" style="font-size:3px; font-family:Arial" x="120" y="290">Weekly: 1.4</text><text fill="#FFFFFF" style="font-size:3px; font-family:Arial" x="141" y="285">Total: 170.8 km</text><text fill="#FFFFFF" style="font-size:3px; font-family:Arial" x="141" y="290">Avg: 5.9 km</text><text fill="#FFFFFF" style="font-size:3px; font-family:Arial" x="167" y="285">Min: 5.0 km</text><text fill="#FFFFFF" style="font-size:3px; font-family:Arial" x="167" y="290">Max: 10.0 km</text><polyline fill="none" points="20.251410436700098,64.18660221645405 19.885155095427763,63.972237486399536 20.29719235439552,63.62389402318513 21.18993974867044,64.19999999999709 21.556195089884568,64.15980664513336 21.716431801731233,63.23535594869463 21.579086048703175,61.868764249258675 22.04835070471745,61.07827797857317 21.991123307670932,60.82371354880161 24.783820284705143,58.720187810664356 26.523533155675977,56.63002558140579 27.38194411166478,54.23165573579172 27.645190138195176,49.381181806355016 27.885545205906965,49.099794997266144 27.816872329451144,48.42982387729717 28.2518005471793,46.79507940723124 29.442130406212527,44.61092052827735 32.40650957450271,41.63611568383931 33.539612036489416,39.70647501593339 34.523923266038764,34.96264950461773 36.114844904630445,31.799999999995634 34.48958682786906,35.04305481378833 33.59683943359414,39.43846703207964 33.17335669527529,40.470294644648675 32.1432635479141,41.93091929666116 29.45357588568004,44.54392119166005 28.309027944225818,46.607484424093855 27.816872329451144,48.41642441860313 27.96566356177209,48.88540462611854 27.63374465884408,49.5151753042519 27.46206246758811,53.82968984703621 26.637987949769013,56.45584383224195 26.054268499661703,57.38034421271732 25.001284393540118,58.51921217821655 22.059796184126753,60.81031540670665 21.659204404684715,60.662935749562166" stroke="#4dd2ff" stroke-linecap="round" stroke-linejoin="round" stroke-width="0.5"><title>2023-05-04 6.1km</title></polyline><polyline fill="none" points="48.78439609898487,54.10357909866434 49.11252813198371,50.45149554776435 49.20975243812427,50.1957038747787 49.47711927979253,50.16728254768532 49.22190547629725,50.05359717932879 49.161140285024885,49.499379630811745 49.48927231802372,45.250302466665744 49.76879219803959,45.07976813650748 50.78964741178788,45.27872483397368 52.34523630904732,45.250302466665744 54.44771192793269,46.017704273341224 55.35918979742564,46.145604148245184 55.66301575390389,44.41183992558217 55.45641410344979,43.91444441968633 54.54493623401504,43.94286706960702 54.09527381841326,43.45968120252655 52.746286571607925,43.530738056710106 52.23585896473378,43.30335599105456 51.60390097525669,43.54494942301244 50.7774943736149,43.54494942301244 49.23405851458665,42.74911059363512 48.50487621902721,42.89122501609381 47.79999999998836,42.592784555235994 47.81215303821955,43.189664813893614 48.577794448588975,43.31756738142576 48.711477869423106,42.777533490167116 49.29482370585902,42.82016782365099 50.63165791449137,43.54494942301244 51.713278319570236,43.74390839366242 52.430307576898485,43.55916078781593 52.85566391592147,43.999712351476774 56.10052513127448,45.15082413372875 57.619654913723934,45.47768123677815 58.05716429109452,45.53452586916683 58.70127531886101,45.2360912807635 59.624906226526946,45.47768123677815 60.779444861225784,45.2360912807635 61.350637659372296,45.3639918997942 61.83675918978406,45.16503532863862 62.38364591146819,45.406625412462745 64.96009002247592,45.32135837365058 65.78649662411772,45.57715932770225 67.02610652660951,45.47768123677815 67.48792198044248,45.15082413372875 68.59384846210014,45.15082413372875 68.97059264814015,45.49189239714178 70.36819204798667,45.81874867033912 71.44981245312374,45.60558162583038 71.63210802699905,44.55395258903445 71.47411852964433,44.15603675258171 71.7050262565026,43.48810394870816 72.78664666163968,42.550150149530964 76.76069017255213,42.848590705150855 78.4499624906457,42.52172720490489 79.93263315828517,41.89642090133566 80.19999999995343,42.4222468513035 79.00900225061923,42.99070502235554 76.91867966990685,43.502315319521585 75.22940735187149,43.58758351295546 72.9446361589944,43.37441292789299 72.61650412599556,43.80075375971501 72.50712678168202,45.2360912807635 72.19114778691437,46.372981403037556 71.00015003752196,46.7851016962959 68.46016504126601,46.17402632615995 59.40615153789986,46.35877033586439 57.30367591895629,46.046126478308" stroke="#4dd2ff" stroke-linecap="round" stroke-linejoin="round" stroke-width="0.5"><title>2023-04-26 7.0km</title></polyline><polyline fill="none" points="83.79999999998836,51.457923796217074 84.25378151255427,50.520498298545135 84.04201680666301,49.86606606235728 84.08739495789632,47.619752145095845 84.25378151255427,47.106810089040664 84.60168067220366,46.92993315313652 88.80672268907074,47.31906216518837 91.25714285712456,48.344943401316414 91.96806722681504,48.27419317334716 93.17815126042115,48.6279440139333 93.7529411764117,49.034756555454805 94.28235294111073,48.910944147617556 95.20504201675067,49.22931872541085 97.59495798317948,49.070131512286025 98.66890756296925,49.742254270095145 99.48571428569267,49.423880668968195 100.46890756295761,49.742254270095145 101.33109243691433,49.56538012206147 102.02689075627131,49.10550646160846 102.63193277304526,49.636129803722724 104.25042016810039,49.388505786977476 104.96134453779086,49.54769269700046 107.0638655461953,48.6279440139333 107.95630252099363,48.7163816071843 109.49915966385743,49.3354434499488 109.96806722687325,48.75175663133268 111.04201680666301,48.910944147617556 112.47899159655208,48.38031850410334 112.79663865541806,47.51362633159442 113.02352941170102,45.2319050476799 113.3109243697254,44.772019467971404 114.02184873947408,44.542076203768374 115.08067226881394,44.860459100833395 116.19999999995343,44.860459100833395 113.82521008397453,44.55976415843179 113.2957983193337,44.736643601791 112.97815126046771,45.14346561137063 112.47899159655208,48.415693599396036 110.92100840335479,48.946319130656775 107.4722689075279,48.13269262750691 95.49243697471684,48.344943401316414 93.7529411764117,48.06194230969413 87.58151260495652,46.20473575951473 84.87394957977813,46.29317463444022 87.4907563024899,46.45236449150252 87.67226890753955,46.2754868632328 88.12605042010546,46.47005224401073" stroke="#4dd2ff" stroke-linecap="round" stroke-linejoin="round" stroke-width="0.5"><title>2023-04-20 5.0km</title></polyline><polyline fill="none" points="127.21629559603753,63.14080635505525 127.38181766396156,64.05791358331771 127.22733040060848,63.683321325457655 127.33767844579415,63.8770760856205 128.5515069438843,64.19999999999709 129.3460128698498,63.79957421861036 129.7543006374035,62.83079671407177 129.87568348710192,62.779128363748896 130.0963795777643,63.127889302435506 130.58191097690724,63.08913813641993 130.90192030824255,62.46911780093069 130.76950265391497,60.7898801868796 131.2329644440906,60.00192223761405 131.11158159421757,59.80816130416497 134.4771969752037,57.12131120736012 135.5917122324463,55.635767642037536 136.3641485493863,53.181351557512244 136.55174022633582,49.16375305408292 136.6400186625542,48.65992908374028 136.84967994858744,48.53074311402452 136.71726229425985,48.02691652075737 137.05934123462066,46.59293709760823 138.32834375533275,44.21585287152993 139.26630214013858,43.10480843683035 140.94359242828796,41.606174277796526 141.93672483577393,40.19795810330106 142.33397779881489,39.24191213787708 143.3381450108136,34.47448962149792 144.78370440390427,31.799999999995634 143.249866574537,34.952532291768875 142.41122143046232,39.0222788946121 141.98086405394133,40.21087759189686 140.6346179015818,42.00667314632301 138.50490062771132,43.957471350891865 137.1807240844355,46.347479465090146 136.7945059259655,47.93648588559881 136.86071475310018,48.65992908374028 136.61794905352872,48.982893407475785 136.3641485493863,53.64640261948807 135.62481664604275,55.700356870023825 133.9364915533224,57.767194054002175 131.24399924860336,59.82107870931213 131.28813846671255,60.04067438728089 130.96812913543545,60.57028586166416" stroke="#4dd2ff" stroke-linecap="round" stroke-linejoin="round" stroke-width="0.5"><title>2023-04-17 6.5km</title></polyline><polyline fill="none" points="155.98735543555813,55.251496898563346 155.79999999998836,55.09084770741174 155.79999999998836,54.65271259979636 156.59938319196226,44.66285494448675 156.81171935232123,43.976390817711945 157.7609868927393,44.23929237591801 158.29807247489225,44.07863037205243 159.5595990747679,44.1808698506793 162.0326908249408,45.02799404691905 162.43238242098596,44.91114963919972 164.10609097912675,45.53918716793123 164.21850424050353,45.93353485381522 164.79306090978207,46.09419469923887 165.59244410175597,45.78748028668633 167.36607555899536,46.05037839632132 167.7657671549823,45.845902132059564 168.47771781031042,46.29867059575918 169.36453353893012,46.16722183993261 170.67602158826776,46.38630303015816 171.46291441790527,46.00656207946304 171.42544333077967,45.72905841654574 171.70023130299523,45.71445294514706 171.9250578256906,46.254854357714066 172.6494988434133,46.313276005370426 173.33646877406863,46.10880013045971 174.03592906706035,46.28406518463453 174.91025443328544,45.8166912124434 174.96021588274743,46.240248941932805 175.1725520431064,46.38630303015816 175.74710871238494,46.254854357714066 176.1343099459773,45.53918716793123 177.85797995369649,46.16722183993261 177.84548959130188,45.74366388638737 178.89468003081856,45.78748028668633 180.0562837315956,45.33471014664974 180.51842713949736,42.53042329890013 180.85566692362772,42.209095126992906 181.30531996907666,42.0630366197729 183.09144178871065,42.442788417072734 183.478643022303,42.2821243226208 185.1398612181074,42.38436513165652 186.17656129522948,42.16527759103337 188.19999999995343,41.3035298914474 187.91272166534327,40.748503101436654 186.25150346948067,41.39116549640312 184.4029298379901,41.69788967575005 180.60585967614315,41.34734770088107 179.4567463376443,42.34054765132896 179.25690053967992,43.070837174207554 179.4567463376443,43.509009033674374 179.18195836542873,44.5167990331538 177.85797995369649,44.750488417150336 177.19599074788857,44.61903818733117 176.37162683112547,44.064024726088974 175.12259059364442,44.034813429476344 174.62297609867528,44.35613735222432 173.5238242096966,44.472982229606714 172.62451811868232,44.253898003385984 169.75173477252247,44.283109253592556 169.5393986121053,43.71348875890544 169.66430223587668,43.62585462804418 171.2131071703625,43.55282614317548 171.9375481880852,44.12244730076054 171.82513492670842,44.23929237591801 169.12721665378194,44.253898003385984 169.16468774090754,43.85954552005569 168.95235158049036,43.72809444196173 165.3051657670876,44.38534858080675 163.25674633769086,43.976390817711945 159.70948342327029,42.60345232459076 159.23484965303214,42.618058125081006 159.05998457979877,42.4281825980288 159.5845797994989,42.17988343788602 160.13415574404644,42.442788417072734 161.50809560518246,42.36975930641347 161.88280647643842,42.807933390984545 162.18257517344318,42.807933390984545" stroke="#4dd2ff" stroke-linecap="round" stroke-linejoin="round" stroke-width="0.5"><title>2023-04-07 7.0km</title></polyline><polyline fill="none" points="11.799999999988358,92.56936367906746 11.91444270015927,89.74424695034395 12.219623234006576,88.30192862097465 15.09340659348527,88.58444574799796 18.043485086411238,89.41712450321938 18.29780219780514,88.86696230711823 21.527629513351712,89.58068582195847 31.306122448993847,89.41712450321938 34.68854003137676,90.1011069334345 35.85839874407975,89.74424695034395 36.31616954470519,86.9934208374907 36.68492935638642,86.53246633040544 38.96106750390027,86.77037852280773 39.406122448970564,86.60681393384584 41.02103610668564,86.71090051249485 44.20000000001164,85.61055278099957 44.009262166393455,85.0306363209238 40.66499215067597,86.02690158436599 39.17723704862874,86.0566407374281 36.46875981159974,85.67003125697374 35.324332810007036,86.71090051249485 35.031868131889496,88.92643940511334 33.83657770801801,89.14947829842276 32.97189952904591,89.00078574218787 31.94191522768233,88.39114461718418 30.81020408164477,88.42088326998055 30.377864992187824,88.73313874463202 29.2843014128739,88.8074851839483 28.57221350085456,88.8074851839483 28.228885400283616,88.58444574799796 25.571271585591603,88.67366156486969 25.30423861858435,88.55470712977694 25.049921507074032,87.9896721883706 20.942700157000218,88.74800803566177 18.76828885404393,88.36140595805773 14.902668759867083,86.93394292150333 12.092464678222314,87.0826376642508 12.016169544775039,86.0566407374281 13.275039246538654,86.7406395207945 15.207849293597974,86.84472600038862" stroke="#4dd2ff" stroke-linecap="round" stroke-linejoin="round" stroke-width="0.5"><title>2023-04-04 6.0km</title></polyline><polyline fill="none" points="51.5752918953076,101.86453934025485 72.31293420121074,103.1187242011074 79.28507256228477,82.4245722363703 62.122885826043785,74.48130484693684 49.787564110942185,88.48651797755156 49.25124577526003,100.61035368428566 56.40215691458434,104.37290826567914 74.99452587775886,101.0284156583948 78.39120867010206,84.72393315436784 64.44693194702268,73.85420342977159 49.25124577526003,90.57683978404384 50.323882445693016,103.1187242011074 74.6369803212583,102.70066266926005 78.74875422660261,83.26070378883742 64.80447750445455,73.43613570870366 56.40215691458434,79.70714224805124 49.25124577526003,89.94974347425159 49.07247299607843,101.65550845314283 69.27379696629941,105.0 75.53084421437234,102.28260104951914 78.56998144742101,83.26070378883742 64.26815916784108,73.43613570870366 49.787564110942185,89.32264696492348 49.07247299607843,102.07357020606287 66.41343251056969,104.16387764341198 74.27943476475775,101.86453934025485 78.74875422660261,82.21553929254878 63.19552249740809,73.01806789857801 49.608791331760585,89.53167915705126 49.787564110942185,102.49163187039085 60.692703599110246,104.16387764341198 75.53084421437234,101.4464775432134 78.74875422660261,83.05167093372438 63.19552249740809,72.59999999997672 49.43001855444163,89.53167915705126 49.96633688919246,102.70066266926005 71.24029752984643,103.74581633321941 75.17329865694046,101.65550845314283 78.56998144742101,82.00650632742327 64.08938639052212,73.01806789857801 50.14510966744274,88.48651797755156 48.714927438646555,101.65550845314283 74.27943476475775,102.49163187039085 77.85489033348858,82.63360515749082 64.44693194702268,73.43613570870366 55.68706580065191,79.70714224805124 49.787564110942185,89.53167915705126 49.608791331760585,102.70066266926005 68.91625140886754,104.16387764341198 74.6369803212583,101.65550845314283 78.03366311173886,82.00650632742327 63.731840833090246,73.22710181423463 52.46915578749031,84.09683498775121 48.714927438646555,101.86453934025485 54.7932019084692,104.37290826567914 74.45820754300803,102.70066266926005 78.56998144742101,83.67876943189185 65.16202306188643,73.43613570870366 56.40215691458434,79.91617545706686 49.25124577526003,90.36780770251062 48.714927438646555,101.86453934025485 52.826701344922185,103.95484699925873" stroke="#4dd2ff" stroke-linecap="round" stroke-linejoin="round" stroke-width="0.5"><title>2023-03-30 5.2km</title></polyline><polyline fill="none" points="115.88338762207422,101.48485595620878 116.20000000001164,98.85815048775112 114.13448115403298,98.17061671777628 110.32005583989667,97.64174265714246 110.0939041414531,97.43019256299885 110.289902280143,94.71527585446893 111.25481619354105,94.50372204591986 111.99357840855373,87.45177475977107 111.66188925079769,87.2931025132566 111.34527687297668,87.55755617347313 110.30497906001983,87.48703523846052 110.56128431827528,87.4341445176251 110.32005583989667,87.20495119993575 106.73178222426213,88.10409240820445 105.26933457417181,88.06883206006023 104.39488134015119,87.27547225433227 103.2641228478169,85.10693618097866 101.30414146120893,83.46729261042492 100.76137738476973,83.3438779253629 100.48999534663744,82.88547972346714 97.565100046515,82.26840322963835 95.13773848296842,81.12239796416543 94.56482084683375,79.72955018450739 94.42912982776761,78.21327227684378 93.63006049318938,77.17302712742821 92.36361098184716,76.96145104806055 88.54918566771084,77.66670360128046 87.8255002326332,77.49039074280881 86.24243834341178,76.27382693454274 85.48859934852226,76.1151440438116 83.79999999998836,76.30908977861691 85.80521172634326,76.16803835752944 87.55411819450092,77.29644638301397 88.54918566771084,77.64907232380938 92.3033038622234,76.99671374661557 93.56975337362383,77.19065845529258 94.3838994880789,78.24853471046663 94.54974406701513,79.78244335086492 95.13773848296842,81.14002887408424 97.27864122850588,82.21551085243118 100.36938110744813,82.81495681127126 100.80660772451665,83.39676994447655 101.30414146120893,83.48492327223357 102.64597487199353,84.48986791331845 103.50535132619552,85.51243694133882" stroke="#4dd2ff" stroke-linecap="round" stroke-linejoin="round" stroke-width="0.5"><title>2023-03-28 5.0km</title></polyline><polyline fill="none" points="123.05365168536082,92.00602974105277 123.34943820221815,89.07940414582845 123.17879213480046,88.58719224134256 122.89438202243764,88.41425246615108 121.59747191006318,88.74682874577411 121.50646067410707,88.49407085349958 119.79999999998836,88.0949784102122 119.89101123594446,87.68258155483636 121.74536516855005,88.16149390537612 126.06839887640672,88.17479700019612 130.09564606734784,89.3986757024104 132.30266853928333,89.77115816056903 141.00561797752744,89.61152295646025 143.8042134831776,90.18354816664942 144.77120786509477,89.7977640082172 145.2262640449335,87.38991199829616 145.55617977527436,86.9775128305846 147.70632022467908,87.23027377122344 147.85421348310774,87.04402891686914 149.66306179773528,87.11054496795259 152.20000000001164,86.19262035543215 152.0634831460775,85.5939702589385 150.24325842695544,86.29904674088175 148.85533707862487,86.52520251085662 147.3650280899019,86.4985959708356 145.63581460673595,86.17931705092633 145.20351123588625,86.29904674088175 144.30477528087795,87.04402891686914 144.0772471909877,87.66927840792778 144.13412921340205,88.30782787089265 143.62219101120718,88.33443402815465 143.25814606738277,88.74682874577411 143.24676966294646,89.1326161282268 142.89410112350015,89.30555491548148 142.07500000001164,89.01288913616736 141.7678370786598,88.26791862447135 141.17626404488692,87.98855354476109 140.3571629213402,88.16149390537612 139.8224719100399,88.90646504756296 138.90098314604256,89.05279814620008 138.3094101123279,89.05279814620008 137.99087078653974,88.83994994645764 135.39705056179082,88.8798590113438 135.15814606740605,88.26791862447135 132.7235955055803,88.65370747615088" stroke="#4dd2ff" stroke-linecap="round" stroke-linejoin="round" stroke-width="0.5"><title>2023-03-26 5.6km</title></polyline><polyline fill="none" points="188.20000000001164,100.6014291352185 187.2779446640634,100.61640431388514 184.90877470362466,99.83769292305806 184.588616600784,100.0772968842357 183.37201581028057,100.04734641122923 180.65707509883214,100.5115780300257 179.41486166010145,100.5115780300257 178.72332015814027,100.00242068988155 177.77565217396477,97.980748472517 176.07241106725996,96.60299975090311 175.61138339922763,96.4831948804349 175.38086956524057,96.06387703538348 172.9476679841755,95.59963082932518 170.8602371541201,94.56630316223891 170.3479841896915,93.39818454133638 170.23272727266885,92.14019986015046 169.63083003956126,91.2566086967563 168.4014229249442,91.04694218718214 165.27667984185973,91.61603627626027 164.5595256917295,91.48125104089559 162.1647430830053,89.69907863759727 162.31841897236882,88.99518923723372 161.39636363642057,86.95838316512527 161.14023715408985,86.80861685579293 161.12743083003443,86.19457333035825 160.7176284585148,85.715317995855 160.62798418977764,85.13122336246306 160.43588932807324,84.86164041084703 159.73154150194023,84.62201068938884 159.3089328063652,83.94804992219724 159.18086956522893,83.67846471664961 159.65470355731668,83.43883299158188 157.15747035574168,79.63462500026799 155.79999999998836,76.95364533354586 157.00379446643637,79.39498642702529 160.3078260869952,84.54712631818256 160.20537549402798,84.7867561664898 161.08901185769355,86.10471307879197 161.07620553357992,86.88350003027881 161.42197628458962,87.0632194873906 162.33122529648244,89.08504765348334 162.1135177865508,89.63917329303513 162.54893280635588,89.81888925068779 162.88189723325195,90.31310695763386 164.53391304350225,91.43632260062441 165.13581027666805,91.57110787869897 168.38861660083057,91.04694218718214 169.59241106722038,91.31651335672359 170.19430830038618,92.0353672986821 170.28395256918157,93.24842504653498 170.8474308300647,94.56630316223891 172.6403162055649,95.50977654905 175.36806324112695,96.07885269408871 175.71383399207843,96.5730485427921 176.00837944663363,96.5730485427921 177.77565217396477,97.980748472517 178.7361264822539,99.85266818253149 179.42766798421508,100.5265532181802 180.41375494078966,100.61640431388514 182.79573122528382,100.03237117239041 183.44885375490412,100.40675166851724 183.82023715419928,100.0772968842357 184.5758102767286,100.04734641122923 184.76790513831656,99.79276713520812 187.02181818184908,100.64635466645996 187.84142292494653,100.57147877318494" stroke="#4dd2ff" stroke-linecap="round" stroke-linejoin="round" stroke-width="0.5"><title>2023-03-18 7.0km</title></polyline><polyline fill="none" points="11.799999999988358,130.77253348428349 13.913750418170821,130.70915575591061 17.989494814304635,131.90065143984975 19.7238541317638,132.20486120509304 28.20053529611323,132.09078263362608 30.856273001001682,132.6992004263593 31.875209100020584,132.2302119839951 32.2437604549923,130.0373497743276 32.53643358987756,129.64440490704146 35.864235530316364,129.75848580772436 37.425158916041255,129.45426983122888 38.99692204751773,128.83315981404303 38.834325861535035,128.27542562630697 40.90471729676938,127.09656982237357 44.04824355972232,126.50079957365233 44.20000000001164,126.60220748479333 42.21632653067354,126.71629128218046 40.87219805951463,127.07121795723651 38.06470391439507,128.6303476825342 36.720575443294365,129.0232958755514 35.05125460017007,129.1627287955489 32.65567079291213,128.79513256554492 32.27627969218884,128.8838627932928 31.376580796262715,129.73313450584828 31.181465373025276,130.35423985762463 31.333221813314594,130.70915575591061 31.224824355973396,131.44433534378186 30.921311475452967,131.72319538676675 29.8806958849309,131.81192344614828 28.558246905275155,130.58240019861114 27.61518902645912,130.68380465517112 27.10572097694967,130.27818631406262 26.682970893278252,130.2021327222028 26.28190030111,130.34156427036214 25.794111743045505,130.9246398955147 25.512278353970032,130.94999094530795 24.981130812957417,131.39363344805315 24.103111408476252,131.44433534378186 23.918835730990395,130.82323564280523 20.82950819673715,131.1527991503899" stroke="#4dd2ff" stroke-linecap="round" stroke-linejoin="round" stroke-width="0.5"><title>2023-03-14 5.6km</title></polyline><polyline fill="none" points="77.37557603686582,135.67472785817517 76.28064516128507,135.52923174458556 74.20276497694431,134.84539794905868 72.70967741933418,135.25278870473267 72.39861751155695,134.9908947860531 69.82304147467948,135.60197982062527 69.02672811062075,135.55833097960567 68.20552995393518,134.87449732875393 67.07327188941417,132.69202676413988 65.77926267281873,131.2515772182669 64.90829493082128,130.9169251639396 62.10875576036051,130.53862186108017 60.60322580643697,129.72381121257786 60.00599078339292,128.4433847246837 59.81935483869165,127.06109274695336 59.321658986154944,126.46452033775859 58.33870967745315,126.27536269195843 54.82995391706936,126.79918322751473 53.125345622131135,125.6787868738611 50.79861751146382,125.75154016102897 50.59953917050734,124.55838139119442 50.56221198150888,125.78064146505494 48.6087557603023,125.91159725717444 47.79999999998836,123.52527214182192 48.4594470045995,125.6787868738611 48.78294930869015,125.96979979141906 52.66497695847647,125.64968554825464 53.20000000001164,125.78064146505494 54.382027649728116,126.63912716448249 55.078801843337715,126.8137337694643 58.450691244215705,126.33356507222925 59.37142857146682,126.58092491350544 59.856682027631905,127.20659782002622 59.9935483870795,128.4433847246837 60.503686635929625,129.66561026716954 62.146082949242555,130.59682243695715 64.8460829492542,131.1206265114015 65.21935483871493,131.62987855992105 65.64239631337114,131.71717872170848 67.25990783405723,132.997574728186 68.24285714287544,134.85994763967756 68.84009216586128,135.55833097960567 70.3953917050967,135.66017825370363 71.09216589858988,135.31098728564393 72.9211981567205,134.97634510925855 73.92903225804912,135.07819281434058 74.06589861749671,134.87449732875393 76.55437788018025,135.67472785817517 80.19999999995343,135.52923174458556" stroke="#4dd2ff" stroke-linecap="round" stroke-linejoin="round" stroke-width="0.5"><title>2023-03-12 6.0km</title></polyline><polyline fill="none" points="114.80520179367159,135.41071544428996 110.91139013448264,134.44229561215616 110.75156950671226,134.6971435025771 109.83623318385798,134.39132598554716 109.25506726454478,134.9519909885712 109.13883408071706,134.64617395686219 105.91336322872667,135.30877678957768 104.86726457398618,135.18984827732493 104.08269058295991,134.37433610638254 102.46995515696472,131.5370010764891 101.30762331839651,130.34768405774958 99.98547085199971,129.87195478387002 96.86170403589495,129.4471953127795 95.11820627795532,128.44475850620074 94.56609865475912,127.06852151086787 94.47892376681557,125.59032789610501 93.8541704036179,124.75777607662894 92.41578475339338,124.50291241177183 88.68179372197483,125.11458452785155 88.18780269060517,125.02963020662719 87.75192825112026,124.50291241177183 86.48789237672463,123.78929199800768 85.92125560541172,123.68734596573631 83.79999999998836,123.87424697546521 86.34260089683812,123.7553099944198 88.1442152466625,124.9276849618036 92.50295964127872,124.4519396302785 93.75246636767406,124.72379427803389 94.46439461881528,125.74324510799488 94.56609865475912,126.98356822336791 95.08914798207115,128.30883438959427 96.99246636766475,129.36224328365643 100.18887892377097,130.00787757738726 100.56663677125471,130.50059673926444 101.07515695074107,130.56855788435496 103.00753363227705,132.1656365138915 104.12627802690258,134.39132598554716 104.96896860987181,135.1558686862263 106.16035874438239,135.27479722363933 107.49704035877949,134.83306221207022 107.72950672637671,135.1218890878663 108.65937219728949,134.6631638071849 110.8387443945976,134.47627535424544 113.7591031389311,135.51265403426078 116.20000000001164,135.32576656984747" stroke="#4dd2ff" stroke-linecap="round" stroke-linejoin="round" stroke-width="0.5"><title>2023-03-05 5.0km</title></polyline><polyline fill="none" points="149.54958263773005,129.4841899539606 149.72988313867245,130.07440227494226 151.58697829721496,129.7160592884611 152.00166944914963,130.9807963665953 151.92954924877267,131.61316189767967 147.11552587652113,132.94112298599794 143.99632721219677,134.3955464126193 140.9853088480886,136.46123101958074 138.87579298834316,133.1519096470729 137.54156928230077,132.0347378043516 124.9926544240443,129.21016221120954 124.8484140234068,128.85181767161703 125.5515859767329,126.89145085198106 125.35325542581268,126.49094343192701 125.58764607692137,125.4580521624448 119.80000000004657,122.54906432390271 125.56961602682713,125.39481374768366 124.23539232066832,129.16800406349648 123.74858096835669,131.6342407142365 124.5058430719655,129.80037534319854 124.9926544240443,129.5052689955628 135.73856427392457,131.6553195284796 138.316861435771,132.83572957184515 140.5886477463646,136.65093567609438 145.31252086814493,133.76318970444845 147.3859766278183,132.8778869441885 152.20000000006985,131.54992543479602 151.58697829721496,128.78858033311553" stroke="#4dd2ff" stroke-linecap="round" stroke-linejoin="round" stroke-width="0.5"><title>2023-02-22 5.0km</title></polyline><polyline fill="none" points="155.79999999998836,133.35449598304695 156.0034536891617,129.72643906070152 156.28320251172408,129.22088271165558 159.18241758242948,129.36957594424894 162.50125588697847,130.6037237039418 163.63296703295782,130.67806960843154 164.14160125592025,131.02006026281742 164.59937205648748,130.87136877622106 166.77378335950198,131.1984898391529 167.32056514912983,131.10927507928864 168.1216640502098,131.46613377890026 168.83375196228735,131.34718097970472 170.35965463105822,131.54047922730388 171.37692307686666,130.96058368703234 171.4150706435903,131.25796631422418 171.82197802193696,131.43639558856376 172.43233908945695,131.48100287173293 172.96640502352966,131.27283542908845 174.0091051804484,131.45126468451053 174.75934065930778,130.7375463037315 175.19167974882293,130.6632004306739 177.40423861844465,131.16875159210758 177.56954474089434,131.3620500850957 177.65855572995497,130.82676129952597 178.68854003131855,130.88623793199076 179.83296703291126,130.54424695199123 180.21444270008942,129.08705866783566 180.30345368915005,127.76368070770695 180.81208791205427,127.27298683678964 181.98194662475726,127.51089923056134 185.33893249597168,127.49602971773129 188.19999999995343,126.38081177340064 187.88210361055098,125.84550401695014 186.4833594976226,126.39568140417396 184.6141287283972,126.79716084105894 183.3934065933572,126.82690001299488 180.5450549449888,126.45515991166758 179.3116169544519,127.42168213007972 179.07001569849672,128.1651562369807 179.1717425431125,128.74506331028533 178.3070643641404,129.042450624911 178.09089481947012,129.72643906070152 177.68398744106526,129.90487027919153 176.93375196232228,129.7859161587112 176.05635792773683,129.23575204201916 174.86106750392355,129.22088271165558 174.36514913657447,129.53313831845298 172.7248037676327,129.63722336656065 172.38147566711996,129.39931457191415 168.52857142861467,129.4439225015958 167.80376766086556,129.3398373103264 167.4477237048559,129.012711921765 164.87912087904988,129.56287691145553 162.8445839873748,129.17627471120795 159.05525902670342,127.77855019220442 157.1224489795277,127.49602971773129 160.78461538458942,127.46629068742914" stroke="#4dd2ff" stroke-linecap="round" stroke-linejoin="round" stroke-width="0.5"><title>2023-02-10 5.9km</title></polyline><polyline fill="none" points="19.270429874013644,176.7090479265753 19.31263569253497,172.250880698557 20.775770733773243,172.26733173508546 23.209639600478113,172.89246983280464 24.54615718621062,172.4976460634498 25.09483282675501,170.83608504850417 25.193313069816213,169.37192250876979 25.615371254854836,168.91128425222996 28.049240121501498,169.25676307258254 28.513504125003237,169.02644394429808 30.806686930009164,169.05934669780254 33.14207555359462,168.31903306023742 37.2360399478348,166.26258779624186 41.920885801140685,165.62097130755137 44.199999999953434,164.76547853756347 44.07338254444767,164.86418948200298 43.84828484582249,164.46934532825253 43.89049066428561,164.09095207342762 43.13078593136743,164.5187009023357 41.175249674299266,165.0122557811701 40.331133304396644,165.04515938404074 40.13417281804141,164.7983821926755 37.517412071174476,165.27548440931423 35.78697351273149,165.9171023236413 32.93104646104621,167.54581283137668 30.834824142453726,168.20387284430035 28.274337820184883,168.3848388595943 26.23438992613228,168.00645513285417 25.221450282260776,168.03935810210533 24.067824576573912,169.02644394429808 23.80052105942741,169.7832055134204 23.88493269647006,170.53996339977311 23.265914025134407,170.53996339977311 22.815718627825845,170.96769448919804 22.717238384648226,171.60928891740332 22.252974381262902,171.82315313856816 21.324446374259423,171.47768001972872 20.98679982626345,170.58931704708084 20.12861485022586,170.14513365762832 19.157881024701055,170.42480482855171 18.62327399040805,171.26381532344385 17.469648284837604,171.47768001972872 16.61146330862539,171.49413113800983 16.316022579267155,171.24736418075918 12.011029092420358,171.2144618901948 11.799999999988358,171.03349916772277 12.109509335597977,170.6715730910364 14.416760746797081,170.5070609595423 14.68406426400179,171.34607101061556 15.823621363379061,171.26381532344385 16.76621797651751,170.65512188573484 17.638471558806486,170.72092669658014 18.046461137593724,170.22738993656822 18.52479374728864,170.21093868429307 19.29856708634179,171.04995033305022 20.33964394259965,171.00059683193103 20.958662613935303,171.51058225455927 22.238905775011517,171.8560553003481 23.659834997786675,171.65864222528762 24.025618758110795,170.45770728614298 24.067824576573912,171.5434844824631 23.57542336086044,171.93831067430438 21.774641771626193,171.69154442187573 21.3385149804526,171.49413113800983 20.846113764622714,170.47415851235564 18.144941380771343,169.6844976914581 17.469648284837604,169.8490106931713 15.795484151050914,171.2144618901948 14.951367781148292,171.1980107423442 14.515240990032908,170.55641461726918 14.909161962626968,170.30964617204154 15.598523664812092,170.30964617204154 16.175336517510004,170.81963386062125 17.582197134091984,170.72092669658014 18.215284411562607,170.27674368307635 18.80616587062832,170.7538290915545 19.326704298669938,170.408353597144 20.24116369948024,170.22738993656822" stroke="#4dd2ff" stroke-linecap="round" stroke-linejoin="round" stroke-width="0.5"><title>2023-02-05 7.1km</title></polyline><polyline fill="none" points="48.18505942274351,175.4603028661586 48.47843803052092,172.81231827873125 48.68930390494643,172.73727317291196 50.21120543294819,172.9838497405217 50.75212224107236,172.89808404592623 52.18234295415459,173.5091630361203 52.79660441423766,173.57348692599044 53.089983022073284,172.2977221514011 52.86994906619657,171.85816922335653 52.23735144309467,171.86889004917612 51.93480475380784,171.56870649786288 50.22954159590881,171.71879838465247 49.211884550051764,171.54726478159137 48.73514431237709,171.1827549110094 47.864176570496056,171.02194131598662 47.79999999998836,171.6759150111102 47.864176570496056,171.05410405539442 48.1758913412923,171.03266223024548 48.34091680817073,171.16131311309437 48.3225806451519,171.6115899167562 48.49677419353975,171.8903316973665 50.64210526319221,171.71879838465247 53.044142614584416,172.6943902303683 54.63022071309388,173.06961536251765 55.60203735146206,172.90880476171878 56.225466893054545,173.1553809119505 56.87640067911707,173.1017774520442 57.63735144311795,173.25186706826207 59.48013582342537,172.96240832364856 60.892020373488776,173.14466022222769 61.68964346352732,173.06961536251765 61.928013582364656,172.84448044994497 62.83565365028335,172.8230390036042 63.1565365025308,173.1017774520442 63.91748726658989,173.34835313278018 64.79762308998033,173.28402909999568 65.0543293718365,173.09105675667524 65.04516129026888,172.05114391434472 65.21935483871493,171.56870649786288 65.93446519522695,170.90401118410227 68.51069609506521,171.13987131062459 69.87674023763975,170.95761580651015 70.97691001696512,170.58238285416155 73.80067911709193,169.16720607478783 76.89949066215195,168.8241299397123 79.69575551780872,167.55902665265603 80.1724957554834,166.69059915186517 79.93412563658785,165.3396971338516 80.20000000001164,166.63699227209145 80.09915110352449,166.96935446940188 79.9616298811161,167.29099426750327 78.82478777586948,167.97715575774055 78.64142614597222,168.2773499486575 77.917147708009,168.32023476046743 77.10118845500983,168.7490818803417 75.68930390488822,169.03855266024038 74.89168081490789,168.97422589171765 73.51646859082393,169.22081161595997 70.95857385394629,170.55021996500727 69.77589134121081,170.94689488431322 68.01561969442992,171.10770859839977 66.03531409165589,170.83968559977075 65.14601018675603,171.5258230607942 64.89847198640928,171.31140560327913 65.17351443122607,171.63303161939984 65.02682512730826,171.99753987035365 65.13684210524661,172.4156506613799 64.97181663836818,172.59790354323195 65.03599320881767,172.96240832364856 64.83429541590158,173.21970502640033 63.98166383698117,173.34835313278018 62.95483870967291,172.96240832364856 62.87232597620459,172.79087682561658 61.9646859082859,172.80159755275236 61.57962648558896,173.03745326275384 60.81867572152987,173.1017774520442 60.36943972838344,173.1017774520442 60.131069609487895,172.94096690230072 58.18743633280974,172.99457044723385 57.14227504248265,172.85520117139822 56.00543293717783,173.0267325605746 55.501188455033116,172.86592189173825 54.786078098462895,173.05889466375083 53.429202037339564,172.79087682561658 50.568760611175094,171.76168174006307 49.9361629881314,171.6651941648961 48.487606112030335,171.87961087383883 48.30424448219128,171.50438133545686 48.441765704599675,171.1184295036146 49.20271646854235,171.5901482095869 50.03701188456034,171.76168174006307 51.88896434631897,171.56870649786288 52.16400679119397,171.86889004917612 52.58573853987036,171.90105251975183" stroke="#4dd2ff" stroke-linecap="round" stroke-linejoin="round" stroke-width="0.5"><title>2022-12-15 10.0km</title></polyline><polyline fill="none" points="83.79999999998836,174.74364680217695 84.08611449453747,170.85579351587512 86.44409257004736,171.01730946809403 86.74993909866316,171.22497248377476 88.75274056033231,171.68644443614176 89.06845310598146,170.34817039439804 88.98952496954007,169.93284062840394 88.13118148600915,169.87515581362095 87.8352009744849,169.4944352705279 86.76967113272985,169.54058328590327 86.35529841657262,169.3444540855562 85.68440925702453,169.58673128177907 84.98392204631818,169.54058328590327 84.02691839222098,168.98680581209192 83.9282582217129,169.51750928063848 84.16504263097886,169.88669277902227 86.37503045075573,169.55212028672395 86.71047503052978,169.95591454583337 89.1769792935811,170.80964605700865 90.844336175418,171.1557515224922 91.74214372719871,170.95962522691116 92.53142509137979,171.21343565994175 94.43556638248265,171.2365093063636 95.48136418999638,171.17882518113038 95.91546894033672,170.9826989270514 97.48416565166553,171.21343565994175 98.26358099881327,171.1557515224922 98.62862362974556,170.87886723799602 99.54616321559297,170.87886723799602 99.78294762485893,171.12114102534542 100.60182704019826,171.29419340110326 100.82874543243088,171.53646626583213 101.06552984163864,171.25958294792508 101.54896467726212,171.36341427448497 101.87454323994461,171.2365093063636 102.09159561514389,169.54058328590327 102.9696711327997,168.76760145180742 105.00207064556889,169.0214169866158 106.67929354449734,168.94065756233613 108.12959805119317,168.55993375671096 110.99074299639324,167.06009977171925 114.80889159569051,166.5409216629123 115.95334957371233,166.05635319782596 116.09147381247021,166.57553361374448 116.20000000001164,166.5409216629123 115.134470158373,166.9562643477475 111.8589524969575,167.34853098632448 108.04080389771843,169.07910225300293 106.6102314250893,169.4713612554624 104.93300852621906,169.57519428466185 103.18672350794077,169.3329170628058 102.89074299635831,169.67902721497376 102.83154689404182,170.67120356328087 102.48623629723443,171.87103267038765 101.9732034105109,172.06715732688463 101.52923264313722,172.1825246071312 99.3488428745768,171.6518341074625 97.3361753958743,171.68644443614176" stroke="#4dd2ff" stroke-linecap="round" stroke-linejoin="round" stroke-width="0.5"><title>2022-12-12 7.2km</title></polyline><polyline fill="none" points="120.32419106311863,174.02669836154382 120.58628659474198,170.36356176600384 120.49892141763121,170.0278909981571 119.81248073960887,169.94032457655703 119.79999999998836,169.50249163489207 123.3320493066567,169.56086944077106 127.25100154086249,170.75760901655303 130.05916795070516,171.3121921291313 139.7067796610063,171.16624942088674 140.79260400612839,171.2538150643668 142.62727272725897,171.8521788071812 143.2013867488131,171.66245399900072 143.9627118643839,171.28300359983405 144.32465331279673,169.95491898404725 144.38705701078288,168.72898337541847 144.64915254240623,168.32033575161768 145.2856702619465,168.21817365649622 147.09537750383606,168.5830379344552 147.48228043143172,168.37871405766055 149.3044684129418,168.43709233903792 150.6149460708839,168.08682228015095 152.20000000001164,167.32790076831589 151.97534668719163,166.77330163847364 148.74283513100818,167.75114597255015 147.2576271186117,167.79492988505808 144.48690292751417,167.4592528671783 143.40107858245028,168.42249777102552 143.18890600919258,169.006279287918 143.36363636364695,169.57546388836636 143.16394453000976,169.92573016758251 143.23882896761643,170.34896740179101 142.91432973806513,170.6992317171098 142.3277349768905,170.64085439300106 141.5664098612615,170.87436354128295 141.21694915252738,170.52409967059793 140.50554699532222,170.4073448494164 140.34329738060478,170.2030236745777 140.28089368256042,170.33437303599203 139.13266563945217,170.21761805425922 137.44776579353493,170.53869401628617 136.8611710323603,170.553288360461 136.47426810470643,170.2905899293837 133.90323574730428,170.3781561286596 132.4055469954037,170.1884292933537 130.8828967642621,170.4073448494164" stroke="#4dd2ff" stroke-linecap="round" stroke-linejoin="round" stroke-width="0.5"><title>2022-12-06 5.0km</title></polyline><polyline fill="none" points="155.79999999998836,174.35311033958715 156.0771769019193,171.25088394193153 156.22566452797037,171.40136710280058 158.30449129239423,171.42451833996165 161.0267644362757,172.32741276819434 161.1257561870152,172.5241964624438 160.97726856096415,172.5241964624438 161.10595783684403,172.31583724572556 160.8188817598857,172.32741276819434 160.57140238315333,172.07275099145045 160.78918423468713,172.14220426204702 161.0366636113613,170.4753136001964 160.87827681022463,170.57949501050462 160.89807516039582,170.91518999115215 161.26434463798068,171.21615702927375 162.7591200733441,171.5865768628355 163.66984417964704,171.41294272198138 164.4815765353269,171.66760603428702 165.7486709440709,171.70233280369575 168.49074243818177,171.45924518648826 169.25297891843366,171.66760603428702 170.3715857011848,171.55185005672683 170.64876260311576,171.33191336195887 171.62878093490144,171.33191336195887 171.72777268558275,171.52869884647953 172.93547204404604,171.87596648534236 173.87589367554756,171.71390839103697 174.10357470210874,169.9659808330689 175.0142988084117,169.2019772368585 177.62768102658447,169.46822151991364 178.8947754353867,169.35246321560408 180.30045829509618,168.9241564246986 182.95343721355312,167.51188972219825 183.85426214477047,167.2803688514905 186.23006416129647,167.08357572621753 187.52685609529726,166.73629287691438 188.0317140237894,166.4468896604085 188.19010082492605,167.01411924453714 188.19999999995343,166.88678224694013 186.18056828598492,167.55819383755443 183.3989000916481,167.9286260548979 181.95362053165445,168.65791081775387 179.27094408799894,169.8154956981307 177.24161319888663,169.90810195949598 177.02383134735283,170.03543544094282 175.19248395966133,169.8154956981307 170.3715857011848,172.13062872002774 165.78826764435507,172.2232330220795" stroke="#4dd2ff" stroke-linecap="round" stroke-linejoin="round" stroke-width="0.5"><title>2022-11-27 5.6km</title></polyline><polyline fill="none" points="11.799999999988358,213.11922666001192 13.08544102020096,213.30711826270272 13.441232731100172,213.19975166665972 14.02656748139998,213.49500958707358 14.416790648188908,213.42790557457192 16.471200850093737,214.05868189061584 16.81551540910732,212.46160385925032 16.631880977656692,212.19318540988024 16.700743889436126,212.7434426198597 17.274601487792097,213.1058058206254 19.087991498352494,213.45474718385958 19.948777895828243,213.19975166665972 20.855472901137546,213.52185118210036 24.172369819309097,213.49500958707358 24.8150903294445,213.2802766222012 26.57109458022751,213.49500958707358 27.51222104142653,213.44132637993607 27.93687566416338,213.11922666001192 29.073113708756864,213.1058058206254 29.199362380371895,213.3608015266218 30.519234856474213,213.76342528208625 31.41445270983968,213.64263828960247 31.79319872474298,213.25343497600988 31.91944739635801,212.59581287097535 31.7702444207971,212.0589759722934 31.953878852247726,211.5087157934613 33.00977683311794,210.64976830455998 35.66099893726641,210.98529535962734 37.46291179594118,210.85108464407676 39.33368756639538,210.22029237919196 42.019341126433574,208.7573790967581 44.199999999953434,208.34131810937834 42.19149840588216,208.67685127024015 39.27630180650158,210.24713466710818 37.41700318804942,210.8376635647146 35.69543039315613,210.94503215985605 33.30818278423976,210.58266278707015 32.88352816150291,210.66318940382916 31.91944739635801,211.56239981838735 31.747290116851218,212.0589759722934 31.89649309241213,212.59581287097535 31.68990435701562,212.95817649339733 31.7702444207971,213.37422233907273 31.460361317673232,213.65605907222198 30.174920297518838,213.70974218848278 28.820616365526803,213.06554329385108 27.89096705627162,213.07896413751587 27.443358129588887,213.41448476782534 26.364505844831,213.48158878741378 25.50371944735525,213.26685579982586 21.876939426118042,213.21317249612184" stroke="#4dd2ff" stroke-linecap="round" stroke-linejoin="round" stroke-width="0.5"><title>2022-11-23 5.3km</title></polyline><polyline fill="none" points="47.79999999998836,211.97987520723836 50.55827338126255,212.3130145391042 53.64028776984196,213.1610020671069 54.04172661865596,211.37416534470685 53.95107913669199,210.95016691595083 53.54964028776158,210.75331007562636 52.902158273383975,210.81388143991353 52.332374100689776,210.34445269606658 50.93381294963183,210.3898813514097 50.623021582723595,210.55645296457806 50.67482014390407,210.70788153554895 55.0776978416834,212.20701574489067 56.45035971229663,212.37358524341835 57.17553956829943,211.96473249193514 58.082014388462994,212.11615957308095 59.18273381295148,211.91930433634843 59.40287769783754,212.23730112267367 60.024460431712214,212.32815721760562 63.5985611511278,212.23730112267367 64.49208633095259,212.52501189208124 66.00719424465206,212.44929858775868 66.49928057554644,212.10101687216957 67.7683453237405,212.08587416965747 68.06618705030996,212.41901325482468 69.58129496406764,212.79757945593155 70.88920863310341,212.4644412518537 70.86330935254227,211.85873343981802 71.0575539568672,211.55587857263163 70.91510791372275,210.79873860121006 71.16115107916994,210.2233095444535 72.28776978421956,209.32987563530332 76.21151079138508,209.70845000645204 78.36115107918158,209.2693036429264 79.87625899282284,208.61815310668317 80.20000000001164,209.20873162501084 78.94388489209814,209.76902181292826 76.6906474819989,210.34445269606658 75.09784172667423,210.25359534200106 74.83884892088827,210.42016711366887 72.80575539573329,210.0567375436658 72.40431654674467,210.1627379302372 72.08057553955587,210.58673869154882 71.92517985613085,212.37358524341835 71.53669064753922,213.47899609495653 70.65611510793678,213.78184689332556 67.18561151082395,213.1155742911651 57.421582733804826,213.3275704555126 53.78273381298641,212.63101045083022" stroke="#4dd2ff" stroke-linecap="round" stroke-linejoin="round" stroke-width="0.5"><title>2022-11-18 5.5km</title></polyline><polyline fill="none" points="83.79999999998836,214.75051113619702 84.15646365424618,211.02884603638086 84.99669941066531,211.23726188353612 85.81147347745718,211.1181671515078 88.02664047153667,211.37124333651445 90.19088408647804,212.11558241937018 90.53461689595133,210.5226919796405 90.47096267191228,209.82300543277233 89.45249508845154,209.77834447126952 88.91779960709391,209.3019599996187 87.56833005900262,209.3615081467724 87.30098231835291,209.7039095038781 87.41555992147187,209.82300543277233 90.87834970530821,210.9841854575352 93.09351669938769,211.44567742198706 93.95921414543409,211.14794084396272 94.9649508841103,211.49033785438223 98.65689587430097,211.4754510451603 99.3698231827002,211.2223750475241 101.33037328097271,211.49033785438223 102.32337917486439,211.43079060806485 102.98538310418371,211.1181671515078 104.01658153237076,211.13305399853562 104.32212180749048,211.43079060806485 105.88801571709337,211.75830015094834 107.1229076620657,211.4754510451603 107.32660117879277,210.50780506804585 107.16110019647749,209.89744033719762 107.37752455798909,209.34662111237412 108.48510805499973,208.33429907649406 112.71174852654804,208.66181582621357 114.40495088405441,208.3045247887203 116.05996070720721,207.6494888638117 116.20000000001164,208.24497619429894 113.0936738703167,209.31684703874635 110.02554027509177,209.37639517959906 109.14711198426085,209.06376715900842 108.61241650296142,209.2275247802172 108.3450687622535,209.58481347413908 108.21776031435002,211.14794084396272 107.87402750487672,212.36865681064955 106.83009823184693,212.72593752946705 104.46216110017849,212.13046916088206 93.97194499021862,212.26444976351922" stroke="#4dd2ff" stroke-linecap="round" stroke-linejoin="round" stroke-width="0.5"><title>2022-11-06 5.5km</title></polyline><polyline fill="none" points="119.80000000004657,221.17721267252637 120.54708737856708,217.1542904911912 121.07791262143292,206.14259692629275 121.53009708737954,204.09652141592233 121.64805825252552,204.3034288037161 124.04660194180906,204.23445969630848 130.79004854371306,205.75177500254358 131.26189320383128,202.53321478524595 131.08495145628694,203.4528082828765 131.81237864075229,203.98157278202416 135.31189320387784,204.69425333208346 142.52718446601648,203.26888989465078 142.99902912625112,203.26888989465078 143.09733009710908,204.55631534352142 144.7094660194125,204.32641850129585 146.34126213600393,204.4183772673714 146.9507281553233,204.80920158898516 149.5458737864392,204.7172429883649 150.3716019417625,204.1425008524675 150.3912621360505,203.2918797017046 152.08203883492388,202.7861033850204 152.20000000006985,201.61361739618587 151.57087378646247,201.22278732748237 150.50922330108006,202.64816418524424 150.70582524267957,203.19992045898107 150.27330097090453,203.38383890557452 149.5655339807272,204.55631534352142 147.40291262138635,204.83219123314484 146.34126213600393,204.4183772673714 140.2072815534193,204.4183772673714 139.71577669901308,204.78621194248262 138.2216019417392,204.78621194248262 136.66844660206698,204.25744940123695 135.1546116505051,204.69425333208346 132.52014563116245,204.21146998899349 126.40582524274942,202.21135614175 126.20922330103349,201.8435171082965 126.68106796115171,201.68258733538096 128.78470873786137,201.4296974514291 129.47281553398352,202.21135614175 130.14126213593408,202.16537629665982 129.4531553396955,202.1423863704258 128.74538834951818,201.47567745222477 127.62475728150457,201.47567745222477 126.48446601943579,201.636607378372 126.34684466011822,202.2343460606353 132.6184466020204,204.32641850129585 130.9473300970858,203.36084910828504 131.04563106794376,202.53321478524595" stroke="#4dd2ff" stroke-linecap="round" stroke-linejoin="round" stroke-width="0.5"><title>2022-11-02 5.0km</title></polyline><polyline fill="none" points="156.7976905311807,218.60073529528745 156.7478060045978,218.29451407067245 155.86235565814422,218.1778581871622 155.79999999998836,217.75497978217027 156.1242494226317,215.56765698303934 156.1242494226317,213.555289359545 156.32378752884688,213.13239677631645 156.2115473441081,211.58664043585304 156.48591224016855,208.3492455247324 156.7478060045978,207.12426546217466 156.95981524244417,207.28468013738166 159.44157043873565,207.1971812467673 162.6341801385861,208.1888320883154 162.94595842954004,206.10344042800716 162.78383371827658,206.58468745739083 163.00831408775412,206.93468424171442 165.56489607389085,207.51801024083397 169.54318706697086,206.6867699446011 170.8900692840689,206.65760352740472 171.6508083140361,207.036766469726 172.06235565821407,206.7888523562433 173.7459584295284,206.83260193807655 174.25727482675575,206.36593901595916 175.0180138568394,206.74510276051296 175.9782909930218,206.40968873203383 176.7016166280955,206.73051955887058 177.02586605073884,207.57634270498238 177.9237875288236,207.85342157258128 179.183371824387,207.59092581714503 179.39538106234977,206.49718812246283 179.24572748265928,205.9430243781826 179.48267898376798,205.35969171431498 180.2558891454246,204.58677213235933 181.01662817550823,204.42635431754752 183.2115473440499,204.77635658191866 184.65819861425553,204.77635658191866 186.2669745957828,204.47010464918276 187.9630484987283,203.79926470472128 188.19999999995343,204.30968669863068 186.82817551959306,204.95135738083627 184.99491916853003,205.41802509178524 183.09930715931114,205.53469177268562 180.76720554271014,205.2721916018345 180.41801385680446,205.68052498495672 179.9565819861018,208.3638285551715 178.97136258654064,208.72840381426795 175.44203233259032,208.13049988332205 165.96397228637943,208.3200794592558 163.12055427249288,207.72217375735636 162.7713625865872,209.93878676039458" stroke="#4dd2ff" stroke-linecap="round" stroke-linejoin="round" stroke-width="0.5"><title>2022-10-28 6.2km</title></polyline><polyline fill="none" points="11.799999999988358,255.5055856143881 12.002816901484039,252.39284676432726 12.218309859163128,251.8295818696497 12.4211267606006,252.03710077849973 13.967605633777566,251.8888730178005 15.184507042285986,252.02227800946275 17.745070422592107,252.89681869813649 18.2647887323983,252.77823722972244 18.556338028167374,251.192200442194 18.44225352111971,250.6585765522177 18.061971831019036,250.48070147055842 17.32676056335913,250.5399931895372 16.90845070418436,250.12495062983362 15.552112676086836,250.19906546280254 15.361971831007395,250.3769409020024 15.51408450701274,250.6289307209081 19.405633802874945,251.96298691772972 20.673239436699077,252.18532838232932 26.035211267590057,251.39972029507044 26.085915492963977,252.14086011765175 27.860563380352687,252.02227800946275 29.02676056337077,252.3039103525225 32.00563380285166,251.9333413624845 32.14507042255718,252.21497388428543 33.61549295770237,252.5855421294982 34.80704225349473,252.46696039763629 35.06056338030612,252.2594421254471 35.03521126759006,251.63688546481717 35.23802816902753,251.37007462058682 35.08591549296398,250.64375363734143 35.32676056335913,250.0953046856739 36.429577464819886,249.1614542336465 39.53521126753185,249.50238448508026 40.777464788698126,249.44309232705564 42.22253521124367,249.1614542336465 43.883098591526505,248.4944143856119 44.20000000001164,249.01322343072388 42.72957746475004,249.65061477046402 40.790140845114365,250.1545965677651 39.28169014083687,250.0953046856739 39.015492957725655,250.2287113850034 37.0,249.88778290087066 36.5690140844672,250.00636681556352 36.30281690141419,250.406586786572 36.22676056338241,251.69617669453146 35.83380281692371,253.16362663511245 34.78169014083687,253.48972453491297 33.86901408445556,253.40078881933005 33.716901408392005,253.1339813339 33.20985915500205,253.2080945752532 31.942253521177918,252.9116413746233 26.529577464796603,252.9857547335705" stroke="#4dd2ff" stroke-linecap="round" stroke-linejoin="round" stroke-width="0.5"><title>2022-10-20 5.2km</title></polyline><polyline fill="none" points="55.11755102034658,253.46911108901259 55.60244897950906,254.2165335098107 56.88081632647663,254.57735730614513 58.20326530607417,254.08766773877142 61.641632652957924,254.44849172589602 61.88408163271379,254.06189457635628 62.457142857136205,254.68044972115604 63.47102040820755,254.9381805680605 64.19836734700948,254.68044972115604 67.54857142851688,255.0154997689242 68.69469387747813,253.9330287235498 69.37795918365009,254.55158419552026 70.98693877551705,254.1649872095586 72.55183673463762,254.3969454748003 74.51346938777715,254.1134408984217 74.77795918355696,255.99487418975332 75.10857142857276,255.71137147276022 75.17469387757592,253.8299359921948 75.7918367346283,253.39179139738553 79.42857142852154,254.47426484737662 80.19999999995343,255.76291744585615 79.6710204082774,253.67529681345331 77.73142857139464,249.0618495024246 75.02040816319641,250.01547426563047 74.20489795913454,251.35569735332683 72.1330612244783,251.69075197321945 71.0751020408934,251.69075197321945 70.65632653061766,251.2783769909438 64.04408163262997,251.30415044780239 63.5151020407211,250.91754830884747 60.56163265311625,251.4845645693713 60.032653061207384,251.0721892380243 66.51265306118876,250.17011576739606 66.84326530620456,250.78868079291715 66.4244897958124,251.43301769104437 63.316734693944454,251.0721892380243 60.71591836726293,251.4845645693713 59.790204081567936,251.14950966583274 64.35265306115616,250.29898361054074 66.77714285708498,250.22166291279427 66.82122448983137,251.02064227257506 66.46857142855879,251.43301769104437 63.250612244941294,251.0721892380243 60.56163265311625,251.4587911315757 59.81224489805754,251.17528313629737 61.641632652957924,250.84022780749365 62.21469387749676,251.20105660408444 66.38040816329885,251.5618848662416 66.77714285708498,251.25260353132035 66.79918367334176,250.22166291279427 65.30040816322435,250.0927950288169 58.07102040806785,251.58765829306503 54.7869387754472,250.99486878571042 48.108571428456344,248.75256499374518 47.800000000046566,248.34018503814877 48.28489795909263,248.03089961341175 50.62122448976152,248.00512581024668" stroke="#4dd2ff" stroke-linecap="round" stroke-linejoin="round" stroke-width="0.5"><title>2022-09-24 5.1km</title></polyline><polyline fill="none" points="113.25454545463435,257.76502977428026 114.5351778655313,256.9414674276486 116.00790513842367,251.4011140104849 110.05296442657709,247.80734806891996 105.12252964428626,253.64720845926786 105.12252964428626,257.39068337203935 107.7478260868229,258.51372198562603 113.1905138338916,258.58859116310487 114.59920948604122,257.6901605097228 116.20000000018626,251.10163421212928 110.56521739135496,247.58273709198693 105.25059288553894,253.72207815165166 105.37865612632595,258.0645067538717 108.9003952567,258.21424519614084 109.9889328063,258.9629369323957 108.83636363619007,260.0859730519005 85.27272727247328,261.43361404404277 84.31225296435878,262.1823023755569 85.97707509878092,260.9095317409956 110.69328063237481,261.50848291278817 114.47114624478854,260.61005596467294 99.87193675874732,260.0859730519005 101.08853754936717,242.2669231655309 100.38418972329237,242.11718135053525 97.75889328075573,260.3854490495869 83.80000000004657,260.2357110665762 83.99209486157633,261.0592695812229 114.59920948604122,261.43361404404277 112.23003952531144,260.0859730519005 109.60474308300763,260.6849249207298 99.80790513847023,259.8613659705152 100.83241106709465,241.8176976244431 98.39920948608778,259.8613659705152 96.28616600786336,260.6849249207298 85.65691699599847,260.2357110665762 85.52885375497863,261.0592695812229 116.13596837944351,261.80795830860734 107.55573122529313,261.50848291278817 114.08695652172901,261.43361404404277 114.08695652172901,260.4603180293925 110.30909090908244,260.1608420632547" stroke="#4dd2ff" stroke-linecap="round" stroke-linejoin="round" stroke-width="0.5"><title>2022-09-22 5.0km</title></polyline><polyline fill="none" points="134.61875761277042,254.49197148894018 135.90133982955012,254.30738427008328 136.84847746661399,254.9303655075637 137.97320341062732,254.76885202425183 140.40024360548705,255.16109884771868 141.68282582226675,254.58426503976807 141.64336175413337,254.16894375342235 141.91961023153272,254.09972346226277 142.39317905006465,254.9072921601619 144.6820950062247,254.63041180052096 145.51084043853916,254.95343885259354 147.2472594397841,254.09972346226277 147.2669914739672,254.83807210318628 147.58270401961636,255.13802552466223 147.78002436063252,253.91513591143303 148.17466504278127,253.66132777403982 151.62777101120446,254.58426503976807 152.20000000006985,255.668711336868 151.17393422673922,252.27691455297463 149.9702801463427,249.71572692850896 148.23386114509776,250.3387212808302 147.70109622424934,249.96953965720604 145.51084043853916,249.64650522392185 142.84701583441347,251.74622048833407 139.01900121814106,251.81544152655988 138.52570036542602,250.77712364731997 135.15152253361885,251.26167260606599 133.96760048740543,251.53855724207824 135.348842874635,252.16154638789885 141.03166869690176,252.11539910477586 141.91961023153272,251.74622048833407 143.53763702814467,251.74622048833407 144.54397076752502,252.11539910477586 146.5961023144191,251.88466254273953 146.97101096238475,250.91556631682033 146.30012180283666,250.31564744771458 145.15566382475663,250.20027824517456 143.4192448235117,251.14630390402453 142.27478684543166,250.31564744771458 140.7159561511362,250.7540498605522 138.76248477469198,250.7079022796388 138.7230207065586,251.86158887314377 137.12472594412975,251.5847046472045 134.67795371508691,251.97695719684998 133.4348355664406,251.5847046472045 132.58635809994303,251.9308098746842 131.18538367853034,251.88466254273953 123.09524969558697,249.43883997842204 123.56881851423532,248.70047305982735 122.2665042631561,248.33128866314655 121.49695493315812,248.88506502377277 119.80000000004657,248.58510300295893 120.11571254581213,248.86199103685794 123.07551766140386,249.2081005848886 125.75907429971267,248.74662106548203 126.60755176621024,249.5311356674938 127.67308160790708,249.3465442503366 128.28477466513868,249.5772834973468 127.89013398310635,253.03834291196836 127.33763702807482,253.03834291196836 128.56102314265445,253.56903383268218 127.83093788078986,253.66132777403982 127.65334957384039,254.37660449542454" stroke="#4dd2ff" stroke-linecap="round" stroke-linejoin="round" stroke-width="0.5"><title>2022-09-09 5.2km</title></polyline></svg>