<?xml version="1.0" encoding="utf-8" ?>
<svg baseProfile="full" height="300mm" version="1.1" viewBox="0,0,200,300" width="200mm" xmlns="http://www.w3.org/2000/svg" xmlns:ev="http://www.w3.org/2001/xml-events" xmlns:xlink="http://www.w3.org/1999/xlink"><defs /><rect fill="#222222" height="300" width="200" x="0" y="0" /><text fill="#FFFFFF" style="font-size:12px; font-family:Arial; font-weight:bold;" x="10" y="20">Over 5km Runs</text><text fill="#FFFFFF" style="font-size:4px; font-family:Arial" x="10" y="280">ATHLETE</text><text fill="#FFFFFF" style="font-size:9px; font-family:Arial" x="10" y="290">feng qijun</text><text fill="#FFFFFF" style="font-size:4px; font-family:Arial" x="120" y="280">STATISTICS</text><text fill="#FFFFFF" style="font-size:3px; font-family:Arial" x="120" y="285">Number: 23</text><text fill="#FFFFFF" style="font-size:3px; font-family:Arial" x="120" y="290">Weekly: 1.4</text><text fill="#FFFFFF" style="font-size:3px; font-family:Arial" x="141" y="285">Total: 133.3 km</text><text fill="#FFFFFF" style="font-size:3px; font-family:Arial" x="141" y="290">Avg: 5.8 km</text><text fill="#FFFFFF" style="font-size:3px; font-family:Arial" x="167" y="285">Min: 5.0 km</text><text fill="#FFFFFF" style="font-size:3px; font-family:Arial" x="167" y="290">Max: 10.0 km</text><polyline fill="none" points="16.194768771529198,64.51615482242778 39.23659355659038,65.9096935566049 46.983413957990706,42.91619137348607 27.914317584596574,34.09033871861175 14.208404567092657,49.65168664162047 13.612495305016637,63.12261520465836 21.557952127419412,67.30323140625842 42.21613986324519,63.58712850930169 45.99023185484111,45.47103683790192 30.496591052040458,33.393559366231784 13.612495305016637,51.97426642663777 14.804313827306032,65.9096935566049 41.81886702310294,65.44518074346706 46.387504695914686,43.845226431963965 30.89386389311403,32.92903967620805 21.557952127419412,39.896824719849974 13.612495305016637,51.277492749039084 13.41385888401419,64.28389828116633 35.85977440606803,68.0 42.81204912625253,64.98066783254035 46.18886827491224,43.845226431963965 30.297954630106688,32.92903967620805 14.208404567092657,50.580718849785626 13.41385888401419,64.7484113399405 32.681591677479446,67.07097515906207 41.42159418202937,64.51615482242778 46.387504695914686,42.683932547224686 29.106136107817292,32.46451988723129 14.00976814609021,50.812976841116324 14.208404567092657,65.21292430046014 26.325226220302284,67.07097515906207 42.81204912625253,64.05164171452634 46.387504695914686,43.61296770395711 29.106136107817292,32.0 13.811131726019084,50.812976841116324 14.407040987163782,65.44518074346706 38.04477503336966,66.60646259225905 42.41477628517896,64.28389828116633 46.18886827491224,42.45167369698174 30.099318210966885,32.46451988723129 14.605677407234907,49.65168664162047 13.016586042940617,64.28389828116633 41.42159418202937,65.21292430046014 45.39432259276509,43.14845017483458 30.496591052040458,32.92903967620805 20.763406444340944,39.896824719849974 14.208404567092657,50.812976841116324 14.00976814609021,65.44518074346706 35.462501564994454,67.07097515906207 41.81886702310294,64.28389828116633 45.59295901283622,42.45167369698174 29.702045369893312,32.69677979359403 17.18795087467879,44.7742610971909 13.016586042940617,64.51615482242778 19.770224342122674,67.30323140625842 41.620230603031814,65.44518074346706 46.18886827491224,44.30974381300621 31.291136734187603,32.92903967620805 21.557952127419412,40.129083841107786 13.612495305016637,51.74200855824165 13.016586042940617,64.51615482242778 17.585223715752363,66.83871888788417" stroke="#4dd2ff" stroke-linecap="round" stroke-linejoin="round" stroke-width="0.5"><title>2023-03-30 5.2km</title></polyline><polyline fill="none" points="94.3148751356639,64.0942843957746 94.66666666668607,61.17572276415012 92.37164572667098,60.41179635307344 88.13339537766296,59.82415850790858 87.8821157127386,59.58910284776357 88.09989142237464,56.572528727177996 89.17201799282338,56.33746893989155 89.99286489840597,48.50197195528017 89.62432138976874,48.32566945916915 89.27252985886298,48.61950685939519 88.1166433999897,48.541150264951284 88.4014270202606,48.48238279734505 88.13339537766296,48.22772355546476 84.14642469357932,49.226769342436455 82.52148286020383,49.18759117781883 81.54986815567827,48.30608028257848 80.29346983094001,45.896595756625175 78.11571273463778,44.074769567116164 77.51264153863303,43.937642139266245 77.21110594074707,43.42831080383621 73.96122227387968,42.74267025514564 71.26415386999724,41.46933107127552 70.62757871870417,39.92172242719971 70.47681091970298,38.236969196470454 69.58895610360196,37.081141252681846 68.18178997980431,36.84605672003818 63.943539630796295,37.62967066807323 63.139444702886976,37.43376749199524 61.380487048241775,36.08202992724546 60.542888164985925,35.905715604210855 58.66666666668607,36.12121086510888 60.89467969594989,35.96448706391675 62.83790910500102,37.218273758888245 63.943539630796295,37.61008035978011 68.11478206916945,36.88523749622982 69.5219481929089,37.100731616970734 70.4265549867996,38.27614967827685 70.61082674114732,39.98049261205597 71.26415386999724,41.48892097118369 73.64293469832046,42.68390094712959 77.07709011936095,43.34995201250422 77.56289747165283,43.99641104940383 78.11571273463778,44.09435919135285 79.60663874662714,45.21096434810897 80.56150147353765,46.34715215701726" stroke="#4dd2ff" stroke-linecap="round" stroke-linejoin="round" stroke-width="0.5"><title>2023-03-28 5.0km</title></polyline><polyline fill="none" points="108.94850187259726,53.562255267839646 109.27715355792316,50.31044905092858 109.08754681638675,49.76354693483154 108.77153558039572,49.57139162905514 107.3305243444629,49.9409208286379 107.22940074896906,49.66007872611226 105.33333333331393,49.2166426780168 105.43445692874957,48.758423949810094 107.49485018721316,49.290548783756094 112.2982209736947,49.30533000022115 116.77294007479213,50.66519522489398 119.22518726583803,51.079064622856095 128.89513108605752,50.901692173836636 132.00468164792983,51.53727574071672 133.0791198500665,51.10862667579204 133.58473782765213,48.43323555366078 133.95131086133188,47.97501425619703 136.34035580512136,48.25585974579735 136.50468164787162,48.04892101875157 138.51451310853008,48.122827742176014 141.33333333331393,47.102911506037344 141.18164794001495,46.437744732160354 139.1591760299052,47.22116304542578 137.61704119842034,47.47244723427866 135.96114232204854,47.44288441204117 134.03979400743265,47.08813005659613 133.55945692869136,47.22116304542578 132.56086142314598,48.04892101875157 132.30805243435316,48.743642675486626 132.37125468155136,49.453142078767996 131.80243445682572,49.48270447572577 131.39794007485034,49.9409208286379 131.38529962539906,50.369573475807556 130.99344569275854,50.56172768387478 130.08333333325572,50.23654348462878 129.74204119842034,49.4087984716316 129.08473782765213,49.09839282750909 128.1746254680911,49.290548783756094 127.5805243444629,50.11829449729703 126.55664794001495,50.28088682911766 125.89934456918854,50.28088682911766 125.54541198496008,50.04438882939576 122.66338951303624,50.08873223482806 122.39794007479213,49.4087984716316 119.69288389501162,49.83745275127876" stroke="#4dd2ff" stroke-linecap="round" stroke-linejoin="round" stroke-width="0.5"><title>2023-03-26 5.6km</title></polyline><polyline fill="none" points="188.0,63.11269903912034 186.97549407120096,63.12933812654228 184.34308300400153,62.264103247842286 183.98735177866183,62.53032987136976 182.63557312259218,62.497051568032475 179.61897233210038,63.012864477801486 178.23873517790344,63.012864477801486 177.4703557312605,62.44713409985707 176.41739130439237,60.20083163611707 174.5249011858832,58.669999723206274 174.01264822133817,58.53688320047513 173.75652173918206,58.07097448375134 171.05296442692634,57.55514536591363 168.73359683796298,56.407003513595555 168.1644268774544,55.10909393482143 168.03636363631813,53.711333177940105 167.36758893285878,52.72956521861488 166.00158102775458,52.49660243019753 162.5296442687977,53.12892919583828 161.7328063241439,52.979167823214084 159.0719367589336,50.99897626398888 159.24268774705706,50.2168769302516 158.21818181825802,47.953759072348475 157.9335968379164,47.78735206199053 157.91936758894008,47.10508147817745 157.4640316205332,46.572575550933834 157.36442687752424,45.923581513852696 157.15098814229714,45.62404490093468 156.36837944661966,45.35778965486679 155.89881422929466,44.60894435799855 155.75652173918206,44.309405240710475 156.28300395252882,44.04314776841784 153.5083003953332,39.81625000029453 152.0,36.8373837039253 153.33754940715153,39.549984918907285 157.00869565218454,45.27458479798224 156.89486166008282,45.54084018498543 157.87667984189466,47.005236754208454 157.8624505928601,47.87055558919383 158.2466403162689,48.07024387487036 159.2569169960916,50.31671961497341 159.01501976285363,50.93241477002448 159.49881422927137,51.13209916741471 159.8687747035874,51.681229952926515 161.70434782613302,52.92924733401742 162.37312252965057,53.079008754109964 165.98735177866183,52.49660243019753 167.32490118581336,52.79612595192157 167.99367588933092,53.59485255408799 168.0932806324563,54.94269449614512 168.71936758898664,56.407003513595555 170.71146245062118,57.45530727671576 173.74229249020573,58.087614104530076 174.12648221343989,58.63672060309909 174.4537549407105,58.63672060309909 176.41739130439237,60.20083163611707 177.48458498029504,62.28074242503499 178.25296442693798,63.02950357574446 179.34861660090974,63.12933812654228 181.9952569170273,62.48041241375904 182.7209486166248,62.89639074278239 183.13359683804447,62.53032987136976 183.9731225296855,62.497051568032475 184.1865612648544,62.21418570577225 186.69090909097577,63.16261629606015 187.6015810277313,63.07942085909599" stroke="#4dd2ff" stroke-linecap="round" stroke-linejoin="round" stroke-width="0.5"><title>2023-03-18 7.0km</title></polyline><polyline fill="none" points="12.0,91.30281498254044 14.348611575725954,91.23239528434351 18.877216460299678,92.55627937760437 20.804282368626446,92.89429022787954 30.222816995636094,92.767536259591 33.17363666777965,93.44355602929136 34.30578788887942,92.92245775999618 34.71528939442942,90.48594419368601 35.04048176651122,90.04933878559677 38.73803947807755,90.17609534191433 40.47239879559493,89.83807759024785 42.2188022750197,89.14795534893346 42.0381398461177,88.52825069589016 44.33857477421407,87.21841091374517 47.8313817330054,86.5564439707232 48.0,86.66911942754814 45.795918367337435,86.7958792024292 44.30244228837546,87.19024217470724 41.183004349295516,88.92260853614425 39.68952827027533,89.35921763950319 37.83472733350936,89.51414310616383 35.17296754766721,89.10570285060385 34.75142188020982,89.20429199254431 33.751756440266035,90.14792722871061 33.53496152552543,90.83804428623989 33.70357979252003,91.23239528434351 33.583138173271436,92.04926149308449 33.245901639340445,92.35910598529154 32.08966209430946,92.45769271794416 30.62027433916228,91.0915557762346 29.572432251588907,91.2042273946281 29.006356641009916,90.75354034896009 28.536634325806517,90.66903635799827 28.09100033453433,90.823960300404 27.54901304782834,91.47182210611936 27.235864837712143,91.49998993922782 26.64570090326015,91.99292605338269 25.670123787189368,92.04926149308449 25.46537303441437,91.35915071422642 22.032786885276437,91.72533238932374" stroke="#4dd2ff" stroke-linecap="round" stroke-linejoin="round" stroke-width="0.5"><title>2023-03-14 5.6km</title></polyline><polyline fill="none" points="91.52841781883035,96.74969762019464 90.31182795704808,96.58803527176497 88.00307219667593,95.82821994341793 86.34408602153417,96.28087633859832 85.99846390174935,95.98988309562264 83.13671274966327,96.66886646737112 82.25192012294428,96.62036775512388 81.33947772660758,95.8605525875173 80.08141321048606,93.43558529349684 78.64362519205315,91.83508579806949 77.67588325653924,91.46325018214702 74.56528417824302,91.04291317898605 72.8924731183215,90.1375680139754 72.22887864831137,88.71487191632332 72.02150537638227,87.17899194106576 71.46850998466834,86.51613370863197 70.37634408607846,86.30595854662533 66.47772657457972,86.88798136392143 64.58371735794935,85.64309652651718 61.99846390169114,85.72393351225764 61.777265745040495,84.39820154578774 61.73579109064303,85.75626829451357 59.56528417818481,85.90177473019867 58.66666666668607,83.25030237980536 59.39938556071138,85.64309652651718 59.75883256527595,85.96644421269593 64.07219662057469,85.6107617202797 64.66666666674428,85.75626829451357 65.9800307219848,86.71014129387913 66.75422427040758,86.90414863273327 70.50076804915443,86.37062785803573 71.52380952390376,86.64547212612524 72.06298003077973,87.34066424447519 72.2150537634734,88.71487191632332 72.78187403996708,90.07290029685828 74.60675883258227,91.10758048550633 77.60675883258227,91.68958501266025 78.02150537644047,92.25542062213935 78.49155145935947,92.35242080189346 80.28878648235695,93.77508303133072 81.38095238100505,95.84438626631163 82.04454685101518,96.62036775512388 83.77265745017212,96.73353139300889 84.54685099847848,96.34554142849811 86.57910906308098,95.97371678808122 87.69892473123036,96.0868809048261 87.85099846392404,95.8605525875173 90.61597542249365,96.74969762019464 94.66666666668607,96.58803527176497" stroke="#4dd2ff" stroke-linecap="round" stroke-linejoin="round" stroke-width="0.5"><title>2023-03-12 6.0km</title></polyline><polyline fill="none" points="139.78355754853692,96.45635049366683 135.4571001494187,95.38032845794805 135.2795216740924,95.66349278064445 134.2624813153525,95.32369553949684 133.61674140504329,95.94665665396315 133.4875934229931,95.60685995208041 129.90373692079447,96.34308532175783 128.74140508216806,96.21094253036426 127.86965620325645,95.30481789598707 126.07772795215715,92.15222341833578 124.78624813153874,90.8307600641565 123.31718983553583,90.30217198208265 119.84633781766752,89.83021701419784 117.9091180866235,88.71639834021335 117.2956651719287,87.18724612318329 117.1988041853765,85.54480877345486 116.50463378173299,84.61975119625276 114.90642750373809,84.33656934641476 110.75754858000437,85.0162050309591 110.20866965624737,84.92181134071143 109.72436472342815,84.33656934641476 108.31988041853765,83.54365777557541 107.69028400594834,83.43038440636883 105.33333333331393,83.6380521949759 108.15844544093125,83.50589999380463 110.16023916297127,84.8085388464533 115.00328849023208,84.27993292252359 116.39162929740269,84.58199364226311 117.18266068754019,85.71471678666421 117.2956651719287,87.09285358151828 117.8768310911255,88.56537154399848 119.99162929743761,89.73582587073906 123.54319880413823,90.45319730820484 123.96292974584503,91.00066304364009 124.52795216743834,91.0761754270643 126.67503736919025,92.85070723766694 127.91808669653255,95.32369553949684 128.85440956649836,96.17318742912903 130.17817638267297,96.30533024849137 131.66337817639578,95.81451356897014 131.92167414043797,96.13543231986114 132.95485799695598,95.62573756353231 135.3763826606446,95.41808372693777 138.6212257099105,96.56961559363117 141.33333333331393,96.36196285538608" stroke="#4dd2ff" stroke-linecap="round" stroke-linejoin="round" stroke-width="0.5"><title>2023-03-05 5.0km</title></polyline><polyline fill="none" points="185.05509181972593,89.87132217107865 185.25542570953257,90.52711363884737 187.3188647746574,90.12895476496487 187.7796327213291,91.53421818513016 187.69949916529004,92.23684655298712 182.35058430721983,93.71235887333751 178.8848080134485,95.32838490292488 175.53923205344472,97.62359002177254 173.19532554259058,93.9465662745497 171.71285475802142,92.7052642270719 157.76961602678057,89.56684690136171 157.60934891493525,89.1686863018258 158.39065108529758,86.99050094667473 158.17028380651027,86.54549270216376 158.4307178632589,85.3978357360611 152.0,82.16562702656665 158.41068447416183,85.3275708307774 156.92821368959267,89.52000451501226 156.38731218711473,92.2602674602822 157.22871452430263,90.22263927024323 157.76961602678057,89.89474332841928 169.70951585983858,92.28368836500158 172.57429048419,93.59525507985381 175.0984974958701,97.8343729734479 180.347245409037,94.62576633828576 182.6510851420462,93.64209660467168 188.0,92.16658381644811 187.3188647746574,89.09842259237485" stroke="#4dd2ff" stroke-linecap="round" stroke-linejoin="round" stroke-width="0.5"><title>2023-02-22 5.0km</title></polyline><polyline fill="none" points="12.0,134.1716622033855 12.226059654611163,130.14048784524493 12.53689167968696,129.57875856851751 15.75824175827438,129.7439732713974 19.445839874446392,131.11524855994503 20.70329670328647,131.19785512049566 21.26844583993079,131.5778447364719 21.777080062776804,131.41263197358057 24.193092621688265,131.7760998212907 24.800627943477593,131.67697231033526 25.690737833618186,132.07348197656393 26.481946624757256,131.9413121996913 28.1773940345156,132.1560880303441 29.30769230768783,131.51175965227594 29.35007849294925,131.84218479359697 29.802197802171577,132.04043954286317 30.48037676612148,132.09000319082406 31.073783359490335,131.85870603231888 32.232339089445304,132.0569607605721 33.065934065904,131.2639403374924 33.54631083202548,131.18133381186635 36.00470957608195,131.74305732458015 36.1883830454899,131.95783342789218 36.287284144433215,131.36306811060058 37.43171114596771,131.42915325777722 38.70329670322826,131.04916327999672 39.12715855566785,129.43006518649054 39.22605965466937,127.95964523080329 39.79120879113907,127.41442981865839 41.091051805298775,127.67877692285401 44.821036106674,127.66225524194306 48.0,126.42312419267546 47.64678178954637,125.82833779662906 46.09262166405097,126.43964600464096 44.01569858711446,126.88573426785297 42.659340659331065,126.91877779221977 39.49450549448375,126.50573323520075 38.12401883827988,127.57964681120939 37.8555729984073,128.40572915221856 37.96860282571288,129.05007034476148 37.007849293528125,129.3805006943585 36.767660910554696,130.14048784524493 36.315541601215955,130.3387447546702 35.481946624815464,130.20657350968395 34.50706436421024,129.5952800466912 33.17896389326779,129.57875856851751 32.62794348510215,129.92570924274332 30.80533751961775,130.04135929618496 30.42386185238138,129.77701619103027 26.14285714289872,129.8265805573319 25.33751962322276,129.71093034482328 24.941915227624122,129.34745769086294 22.08791208791081,129.95875212385727 19.82731554156635,129.52919412357733 15.616954474127851,127.97616688023845 13.469387755088974,127.66225524194306 17.53846153843915,127.62921187494067" stroke="#4dd2ff" stroke-linecap="round" stroke-linejoin="round" stroke-width="0.5"><title>2023-02-10 5.9km</title></polyline><polyline fill="none" points="66.96714430453721,137.01005325175356 67.01403965841746,132.05653410952073 68.63974525977392,132.07481303898385 71.34404400060885,132.7694109253498 72.82906354026636,132.33071784827916 73.43870314082596,130.48453894279373 73.548125633155,128.8576916764141 74.01707917213207,128.34587139137147 76.72137791285058,128.72973674732202 77.23722680559149,128.47382660477888 79.78520770004252,128.51038521977898 82.380083948432,127.68781451137329 86.92893327545607,125.40287532914954 92.13431755686179,124.68996811950637 94.66666666668607,123.73942059729598 94.52598060498713,123.84909942446393 94.27587205090094,123.41038369806483 94.3227674048394,122.98994674826099 93.47865103487857,123.46522322481906 91.3058329715277,124.01361753464153 90.36792589374818,124.05017709339154 90.1490809089737,123.77598021407903 87.24156896799104,124.30609378812369 85.31885945866816,125.01900258183014 82.14560717897257,126.82868092374702 79.81647126941243,127.55985871588928 76.97148646693677,127.7609320662159 74.704877695709,127.34050570317777 73.57938920252491,127.37706455790612 72.29758286289871,128.47382660477888 72.00057895499049,129.31467279269418 72.09436966275098,130.15551488865458 71.40657113911584,130.15551488865458 70.90635403094348,130.63077165467257 70.79693153855624,131.34365435267682 70.28108264587354,131.58128126508382 69.24938486033352,131.1974222441495 68.87422202917514,130.21035227453103 67.92068316694349,129.7168151751539 66.84209002752323,130.02756092061463 66.24808221159037,130.95979480382812 64.96627587202238,131.1974222441495 64.0127370096161,131.21570126446022 63.684469532512594,130.94151575640717 58.901143436087295,130.90495765577361 58.66666666668607,130.70388796414773 59.010565928474534,130.30174787894066 61.57417860761052,130.11895662172174 61.87118251557695,131.05119001179992 63.137357070459984,130.95979480382812 64.18468664062675,130.28346876193245 65.15385728760157,130.3565852184256 65.60717904183548,129.80821104063943 66.13865971926134,129.78993187144806 66.9984078737325,130.72216703671438 68.15515993628651,130.6673298132664 68.84295845997985,131.2339802828501 70.26545086118858,131.61783922261384 71.8442611086648,131.39849136142584 72.25068750901846,130.06411920682876 72.29758286289871,131.2705383138673 71.75047040096251,131.70923408256203 69.74960196850589,131.4350493576494 69.26501664496027,131.21570126446022 68.71790418296587,130.08239834706183 65.71660153422272,129.20499743496475 64.96627587202238,129.38778965908568 63.10609350120649,130.90495765577361 62.168186423543375,130.88667860260466 61.68360110005597,130.17379401919607 62.12129106966313,129.89960685782717 62.88724851649022,129.89960685782717 63.5281516861869,130.46625984513958 65.09133014903637,130.3565852184256 65.79476045729825,129.8630485367612 66.45129541179631,130.39314343506703 67.02967144304421,130.00928177460446 68.04573744389927,129.80821104063943" stroke="#4dd2ff" stroke-linecap="round" stroke-linejoin="round" stroke-width="0.5"><title>2023-02-05 7.1km</title></polyline><polyline fill="none" points="105.76117713638814,135.62255874017137 106.08715336729074,132.68035364303068 106.32144878327381,132.59697019212035 108.01245048106648,132.87094415612955 108.61346915678587,132.77564893991075 110.20260328240693,133.4546255956884 110.88511601585196,133.52609658442816 111.21109224675456,132.10858016822021 110.96661007357761,131.62018802594685 110.26372382568661,131.63210005463043 109.92756083759014,131.2985627753951 108.03282399545424,131.46533153849305 106.90209394454723,131.27473864620697 106.37238256935962,130.869727678888 105.40464063390391,130.69104590664938 105.33333333331393,131.41768334567314 105.40464063390391,130.72678228376753 105.75099037919426,130.70295803360204 105.93435200909153,130.84590345898323 105.91397849464556,131.3462110186083 106.1075268817367,131.65592410817771 108.4912280702265,131.46533153849305 111.16015846066875,132.54932247818215 112.9224674589932,132.9662392916798 114.0022637238726,132.78756084635097 114.69496321451152,133.06153434660519 115.41822297679028,133.0019749467101 116.26372382574482,133.16874118694977 118.31126202607993,132.8471203595982 119.88002263725502,133.04962246913783 120.76627051504329,132.9662392916798 121.0311262026662,132.71608938882127 122.03961516695563,132.6922655595481 122.39615166949807,133.0019749467101 123.24165251845261,133.2759479253 124.2195812111022,133.20447677776247 124.50481041311286,132.99006306297088 124.49462365591899,131.83460434926383 124.68817204306833,131.2985627753951 125.48273910582066,130.56001242677303 128.34521788347047,130.82207923401438 129.86304470850155,130.61957311833976 131.0854555744445,130.20264761572616 134.22297679679468,128.63022897197516 137.66610073571792,128.24903326633648 140.77306168648647,126.8433629473875 141.30277306161588,125.87844350206433 141.03791737405118,124.37744125982863 141.33333333331393,125.81888030231494 141.22127900394844,126.18817163266067 141.06847764574923,126.54554918610665 139.80531975097256,127.30795084192505 139.60158460668754,127.64149994294712 138.79683078668313,127.68914973385108 137.8902093944489,128.16564653370733 136.3214487832738,128.48728073359234 135.43520090548554,128.41580654634163 133.90718732314417,128.68979068438784 131.06508205999853,130.1669110722287 129.75099037913606,130.60766098256136 127.79513299383689,130.786342887106 125.59479343518615,130.48853955529194 124.60667798528448,131.25091451198386 124.33163554046769,131.01267289253155 124.63723825692432,131.37003513265518 124.47425014147302,131.7750443003897 124.5964912280906,132.23961184597283 124.41312959819334,132.44211504803388 124.48443689872511,132.8471203595982 124.26032823993592,133.13300558488118 123.31295981892617,133.2759479253 122.17204301076708,132.8471203595982 122.08036219584756,132.65652980623418 121.07187323144171,132.66844172526908 120.64402942842571,132.9305036252772 119.79852857952937,133.0019749467101 119.2993774759816,133.0019749467101 119.03452178830048,132.82329655810463 116.87492925865809,132.88285605247074 115.71363893611124,132.72800130154792 114.45048104133457,132.9185917339637 113.8902093944489,132.73991321303765 113.09564233163837,132.95432740416436 111.58800226374296,132.65652980623418 108.40973401244264,131.5129797111731 107.70684776460985,131.40577129431767 106.09734012448462,131.64401208204072 105.8936049801996,131.22709037271852 106.04640633845702,130.79825500401057 106.89190718729515,131.32238689953374 107.81890209397534,131.5129797111731 109.87662705150433,131.2985627753951 110.18222976801917,131.63210005463043 110.6508205998689,131.6678361330487" stroke="#4dd2ff" stroke-linecap="round" stroke-linejoin="round" stroke-width="0.5"><title>2022-12-15 10.0km</title></polyline><polyline fill="none" points="152.0,134.8262742246443 152.31790499394992,130.50643723986286 154.9378806333989,130.68589940899983 155.27771010965807,130.91663609308307 157.5030450670165,131.42938270683226 157.8538367844303,129.94241154933115 157.76613885507686,129.48093403156236 156.8124238733435,129.41683979291702 156.48355663829716,128.99381696725322 155.29963459196733,129.0450925398909 154.8392204628326,128.827171206176 154.09378806338646,129.09636809086805 153.31546894036,129.0450925398909 152.25213154690573,128.42978423566092 152.14250913524302,129.01945475627144 152.40560292330338,129.42965864335565 154.86114494525827,129.05791142969247 155.23386114498135,129.50657171759667 157.97442143730586,130.45516228557244 159.827040194883,130.83972391387942 160.8246041413513,130.62180580767745 161.70158343482763,130.9038173999361 163.81729598052334,130.9294547848549 164.9792935444857,130.8653613123679 165.4616321559297,130.64744325228094 167.20462850184413,130.9038173999361 168.07064555422403,130.83972391387942 168.4762484775274,130.53207470888447 169.49573690624675,130.53207470888447 169.7588306943071,130.80126780593855 170.66869671136374,130.9935482234505 170.92082825821126,131.2627402953658 171.18392204627162,130.9550921643604 171.72107186360518,131.07046030498168 172.08282582217362,130.9294547848549 172.32399512792472,129.0450925398909 173.29963459196733,128.1862238353424 175.55785627284786,128.4682410962414 177.42143727163784,128.3785084025949 179.0328867235221,127.9554819519035 182.2119366626721,126.28899974634987 186.45432399521815,125.71213518101285 187.725943970785,125.17372577536298 187.87941534718266,125.75059290416539 188.0,125.71213518101285 186.81607795372838,126.17362705305277 183.17661388556007,126.60947887369548 178.934226553014,128.53233583666588 177.34470158343902,128.96817917274166 175.48112058470724,129.0835492051774 173.54080389771843,128.81435229200724 173.21193666261388,129.19891912775347 173.1461632156279,130.3013372925343 172.76248477469198,131.63448074487678 172.19244823389454,131.85239702987747 171.6991473812377,131.9805828968165 169.27649208286311,131.39092678607267 167.04019488435006,131.42938270683226" stroke="#4dd2ff" stroke-linecap="round" stroke-linejoin="round" stroke-width="0.5"><title>2022-12-12 7.2km</title></polyline><polyline fill="none" points="12.582434514595661,174.02966484615172 12.873651771980803,169.95951307333598 12.77657935291063,169.5865455535095 12.013867488480173,169.4892495295062 12.0,169.00276848321664 15.924499229586218,169.0676327119727 20.278890600951854,170.39734335172398 23.39907550078351,171.01354681015073 34.11864406778477,170.8513882454281 35.32511556241661,170.94868340485846 37.36363636364695,171.61353200797748 38.001540832046885,171.4027266655612 38.84745762712555,170.98111511093157 39.24961479200283,169.50546553783352 39.318952234170865,168.14331486157607 39.61016949155601,167.68926194623054 40.31741140218219,167.57574850720994 42.32819722651038,167.98115326049447 42.758089368231595,167.75412673072424 44.78274268103996,167.81899148781667 46.23882896761643,167.42980253350106 48.0,166.58655640923826 47.75038520805538,165.97033515384828 44.1587057011202,167.05682885838905 42.50847457628697,167.10547765006777 39.42989214172121,166.73250318576174 38.22342064714758,167.80277530114108 37.98767334356671,168.4514214310184 38.18181818182347,169.08384876484342 37.95993836666457,169.4730335195345 38.04314329731278,169.94329711310274 37.68258859781781,170.33247968567593 37.03081664099591,170.26761599222664 36.184899845859036,170.5270706014271 35.79661016946193,170.13788852289144 35.00616332818754,170.00816094379115 34.82588597846916,169.78113741619745 34.75654853618471,169.92708115110872 33.48073959938483,169.7973533936165 31.608628659450915,170.15410446254828 30.95685670262901,170.17032040050253 30.526964560791384,169.87843325486756 27.67026194150094,169.97572903183755 26.006163328245748,169.76492143706128 24.314329738088418,170.00816094379115" stroke="#4dd2ff" stroke-linecap="round" stroke-linejoin="round" stroke-width="0.5"><title>2022-12-06 5.0km</title></polyline><polyline fill="none" points="58.66666666668607,174.39234482176835 58.974641002190765,170.94542660215666 59.13962725334568,171.1126301142358 61.44943476939807,171.13835371107416 64.47418270702474,172.14156974244543 64.58417354116682,172.36021829160745 64.4191872900119,172.36021829160745 64.56217537430348,172.12870805081184 64.24320195545442,172.14156974244543 63.968224870215636,171.8586122127308 64.21020470524672,171.93578251339204 64.4851817904273,170.0836817780073 64.30919645586982,170.1994389005631 64.33119462273316,170.5724333235121 64.73816070886096,170.90684114364558 66.39902230375446,171.31841873648955 67.41093797743088,171.12549191332073 68.31286281702342,171.40845114921103 69.72074549348326,171.44703644856054 72.76749159797328,171.17693909610534 73.61442102055298,171.40845114921103 74.85731744579971,171.27983339637285 75.1652917812462,171.0354592910735 76.25420103885699,171.0354592910735 76.36419187294086,171.2541098294314 77.7060800489271,171.63996276149555 78.75099297286943,171.45989821226976 79.00397189130308,169.51775648119656 80.0158875649795,168.66886359651835 82.91964558511972,168.96469057768263 84.32752826157957,168.83607023956574 85.88939810573356,168.3601738052239 88.83715245954227,166.79098858022917 89.83806904981611,166.53374316832924 92.47784906817833,166.31508414025302 93.91872899484588,165.9292143076891 94.47968224872602,165.60765517823893 94.6556675832835,166.23791027170955 94.66666666668607,166.09642471883126 92.42285365110729,166.84243759728997 89.33211121300701,167.25402894989384 87.72624503518455,168.0643453530647 84.74549343116814,169.35055077570723 82.49068133212859,169.4534466216719 82.2487014970975,169.59492826772475 80.2138710662839,169.35055077570723 74.85731744579971,171.92292080003972 69.76474182703532,172.02581446897966" stroke="#4dd2ff" stroke-linecap="round" stroke-linejoin="round" stroke-width="0.5"><title>2022-11-27 5.6km</title></polyline><polyline fill="none" points="105.33333333331393,172.13247406667506 106.76160113356309,172.34124251411413 107.15692525682971,172.22194629629666 107.80729720153613,172.55001065231045 108.24087849806529,172.47545063841972 110.52355650014943,173.17631321179215 110.90612823236734,171.40178206581913 110.70208997523878,171.10353934431623 110.77860432158923,171.71493624428695 111.41622387536336,172.11756202290417 113.43110166484257,172.50527464873448 114.38753099541645,172.22194629629666 115.39496989018517,172.57983464677818 119.08041091036284,172.55001065231045 119.79454481048742,172.31141846912215 121.7456606447231,172.55001065231045 122.79135671269614,172.49036264437018 123.26319518242963,172.13247406667506 124.52568189863814,172.11756202290417 124.66595820046496,172.4008905851224 126.13248317391844,172.8482503134146 127.12716967763845,172.71404254400113 127.54799858306069,172.28159441777098 127.6882748848293,171.550903189971 127.52249380096328,170.95441774697974 127.72653205809183,170.34301754827902 128.89975203684298,169.388631449503 131.84555437479867,169.7614392884716 133.84767977328738,169.61231627120287 135.92631951824296,168.91143597688642 138.91037902940297,167.28597677417565 141.33333333331393,166.8236867881933 139.10166489548283,167.19650141138118 135.8625575628248,168.94126074123778 133.79667020897614,169.59740396078269 131.8838115479448,169.7167023998336 129.23131420469144,169.31406976340804 128.75947573507437,169.40354378202755 127.6882748848293,170.40266646486998 127.49698901874945,170.95441774697974 127.66277010273188,171.550903189971 127.4332270633895,171.95352943710168 127.52249380096328,172.41580259896 127.17817924189148,172.72895452467492 125.74991144170053,172.78860243163945 124.24512929510092,172.07282588204544 123.21218561811838,172.0877379305748 122.71484236628748,172.46053863092675 121.51611760538071,172.53509865267552 120.55968827486504,172.29650644423964 116.52993269567378,172.23685832902265" stroke="#4dd2ff" stroke-linecap="round" stroke-linejoin="round" stroke-width="0.5"><title>2022-11-23 5.3km</title></polyline><polyline fill="none" points="152.0,170.8665280080313 155.06474820140284,171.23668282122526 158.48920863308012,172.1788911856711 158.93525179848075,170.19351704967266 158.83453237410868,169.72240768438496 158.38848920859164,169.50367786180868 157.66906474815914,169.57097937767685 157.03597122296924,169.04939188450226 155.48201438848628,169.09986816823948 155.13669064745773,169.2849477384152 155.19424460426671,169.45320170615742 160.08633093518438,171.11890638321347 161.61151079140836,171.3039836037933 162.41726618696703,170.8497027688136 163.42446043161908,171.01795508118812 164.6474820143776,170.799227040392 164.89208633091766,171.1525568029756 165.58273381297477,171.2535080195521 169.55395683454117,171.1525568029756 170.54676258994732,171.47223543564905 172.23021582735237,171.3881095419638 172.77697841724148,171.00112985796295 174.18705035973107,170.9843046329479 174.51798561145552,171.35445917202742 176.20143884891877,171.77508828435384 177.65467625897145,171.40493472426897 177.62589928053785,170.73192604423093 177.84172661870252,170.39542063625413 177.68345323746325,169.55415400135098 177.9568345323787,168.9147883827245 179.20863309351262,167.92208403922268 183.56834532372886,168.34272222938307 185.9568345323787,167.85478182547376 187.64028776978375,167.1312812296528 188.0,167.78747958333406 186.6043165467563,168.4100242365821 184.10071942443028,169.04939188450226 182.33093525178265,168.94843926889007 182.0431654676213,169.13351901517308 179.78417266189354,168.7297083818412 179.3381294963765,168.8474865891476 178.97841726616025,169.3185985461605 178.80575539567508,171.3039836037933 178.37410071946215,172.5322178832721 177.3956834532437,172.86871877036174 173.53956834535347,172.12841587906587 162.6906474819407,172.36396717278694 158.6474820143776,171.59001161203196" stroke="#4dd2ff" stroke-linecap="round" stroke-linejoin="round" stroke-width="0.5"><title>2022-11-18 5.5km</title></polyline><polyline fill="none" points="12.0,213.9450123735587 12.396070726972539,209.80982892931206 13.32966601185035,210.04140209281468 14.234970530495048,209.90907461277675 16.696267190622166,210.19027037390333 19.10098231828306,211.01731379929697 19.482907662109938,209.2474355329323 19.41218074655626,208.4700060364121 18.280550098221283,208.42038274584047 17.686444007849786,207.8910666662414 16.18703339883359,207.95723127419478 15.889980353647843,208.33767722653283 16.01728880160954,208.4700060364121 19.86483300587861,209.7602060639183 22.326129666005727,210.2729749133141 23.28801571711665,209.94215649328544 24.405500982364174,210.32259761598834 28.507662082498427,210.30605671684316 29.29980353632709,210.02486116391083 31.47819253441412,210.32259761598834 32.581532416515984,210.25643400895933 33.31709233793663,209.90907461277675 34.46286836930085,209.92561555391876 34.80235756386537,210.25643400895933 36.54223968560109,210.62033350103593 37.914341846713796,210.30605671684316 38.140667976404075,209.23089452004933 37.95677799609257,208.55271148576867 38.1972495088703,207.94069012484397 39.42789783887565,206.8158878627728 44.12416502943961,207.17979536246276 46.00550098228268,206.78280532079225 47.844400785746984,206.0549876264413 48.0,206.7166402158764 44.548526522528846,207.9076078208309 41.13948919449467,207.97377242177026 40.163457760296296,207.62640795444895 39.5693516699248,207.80836086691124 39.27229862473905,208.20534830458928 39.1308447936899,209.94215649328544 38.748919449863024,211.29850756739324 37.58899803535314,211.69548614385712 34.95795677800197,211.0338546231942 23.302161100204103,211.1827219594561" stroke="#4dd2ff" stroke-linecap="round" stroke-linejoin="round" stroke-width="0.5"><title>2022-11-06 5.5km</title></polyline><polyline fill="none" points="58.66666666662786,221.08579185836425 59.49676375393756,216.61587832354417 60.086569579318166,204.38066325143154 60.58899676380679,202.10724601768015 60.720064724911936,202.33714311523363 63.38511326862499,202.26051077367447 70.87783171527553,203.94641666948155 71.40210355981253,200.37023865027004 71.2055016180966,201.39200920319126 72.01375404524151,201.97952531334886 75.90210355992895,202.77139259119576 83.91909385111649,201.1876554384944 84.4433656957699,201.1876554384944 84.55258899682667,202.61812815946178 86.34385113266762,202.36268722366367 88.15695792878978,202.46486363040458 88.83414239482954,202.89911287665018 91.71763754053973,202.79693665372906 92.63511326862499,202.15833428050973 92.6569579289062,201.2131996685639 94.53559870552272,200.65122598335438 94.66666666662786,199.34846377353824 93.96763754053973,198.91420814163575 92.78802589001134,200.49796020583017 93.00647249189205,201.1110227321915 92.52588996768463,201.31537656174623 91.73948220070451,202.61812815946178 89.33656957931817,202.9246569257084 88.15695792878978,202.46486363040458 81.341423948179,202.46486363040458 80.7953074433608,202.87356882498716 79.13511326862499,202.87356882498716 77.4093851132784,202.28605489025358 75.7273462782614,202.77139259119576 72.80016181233805,202.2349666544178 66.00647249189205,200.012617935281 65.78802589001134,199.60390789809753 66.31229773466475,199.42509703931864 68.6496763753239,199.1441082793608 69.41423948213924,200.012617935281 70.15695792878978,199.96152921850444 69.39239482185803,199.9359848560125 68.60598705499433,199.19519716913055 67.36084142397158,199.19519716913055 66.09385113266762,199.37400819819595 65.94093851128127,200.0381622895802 72.9093851132784,202.36268722366367 71.05258899682667,201.28983234253246 71.16181229776703,200.37023865027004" stroke="#4dd2ff" stroke-linecap="round" stroke-linejoin="round" stroke-width="0.5"><title>2022-11-02 5.0km</title></polyline><polyline fill="none" points="106.4418783679721,218.22303921698767 106.38645111623919,217.8827934118599 105.40261739795096,217.75317576350062 105.33333333331393,217.28331086906837 105.69361046957783,214.85295220337866 105.69361046957783,212.61698817726574 105.91531947656767,212.1471075292502 105.79060816013953,210.4296004842763 106.09545804467052,206.83249502746912 106.38645111623919,205.47140606907487 106.62201693607494,205.64964459708426 109.37952270975802,205.55242360751436 112.92686682066415,206.6542578758963 113.27328714396572,204.33715603112068 113.09314857586287,204.87187495264516 113.34257120866096,205.26076026856026 116.18321785988519,205.90890026759007 120.60354118555551,204.98529993844568 122.10007698234404,204.95289280822908 122.94534257118357,205.37418496636383 123.40261739800917,205.0987248402671 125.27328714396572,205.1473354867485 125.84141647419892,204.6288211288338 126.68668206315488,205.05011417834612 127.75365665892605,204.67743192447233 128.55735180905322,205.0339106209576 128.91762894531712,205.97371411665517 129.91531947650947,206.28157952509355 131.3148575826781,205.98991757461044 131.55042340263026,204.77465346940153 131.38414164743153,204.15891597575683 131.64742109313374,203.51076857146109 132.5065434949356,202.65196903595643 133.35180908389157,202.4737270195037 135.79060816008132,202.86261842436215 137.39799846027745,202.86261842436215 139.18552732869284,202.5223384990968 141.0700538875535,201.77696078302688 141.33333333331393,202.34409633179894 139.80908391071716,203.0570637564815 137.77213240950368,203.57558343531855 135.66589684365317,203.7052130807715 133.07467282522703,203.4135462242557 132.68668206315488,203.8672499832901 132.17397998459637,206.848698394635 131.07929176284233,207.2537820158468 127.1578137028846,206.58944431479904 116.62663587380666,206.8000882880733 113.46728252497269,206.13574861928646 113.07929176290054,208.5986519559956" stroke="#4dd2ff" stroke-linecap="round" stroke-linejoin="round" stroke-width="0.5"><title>2022-10-28 6.2km</title></polyline><polyline fill="none" points="152.0,213.89509512709628 152.2253521127277,210.43649640479998 152.46478873240994,209.81064652182977 152.69014084507944,210.04122308720252 154.40845070424257,209.8765255753242 155.76056338031776,210.0247533438378 158.6056338028866,210.99646522014518 159.18309859151486,210.864708033012 159.50704225350637,209.10244493576465 159.38028169010067,208.5095295024512 158.95774647890357,208.31189052283298 158.14084507041844,208.37777021057263 157.6760563380085,207.9166118109133 156.16901408456033,207.99896162531513 155.95774647890357,208.19660100221517 156.1267605633475,208.4765896898898 160.4507042253972,209.95887435301847 161.85915492963977,210.20592042480712 167.81690140842693,209.33302255006856 167.8732394366525,210.1565112418175 169.84507042256882,210.0247533438378 171.14084507041844,210.33767816946784 174.450704225339,209.9259348471969 174.60563380282838,210.2388598714315 176.23943661968224,210.6506023661059 177.56338028167374,210.51884488624637 177.84507042256882,210.28826902825676 177.81690140842693,209.59653940534918 178.04225352115463,209.30008291175182 177.8732394366525,208.49305959703634 178.14084507041844,207.88367187295808 179.36619718308793,206.84606025958783 182.81690140836872,207.22487165007624 184.1971830985858,207.15899147449818 185.8028169014142,206.84606025958783 187.6478873239248,206.10490487290372 188.0,206.68135936745966 186.36619718308793,207.38957196717092 184.21126760565676,207.94955174195638 182.53521126759006,207.88367187295808 182.23943661974045,208.03190153888136 180.0,207.65309211207204 179.52112676057732,207.78485201727017 179.2253521126695,208.2295408739592 179.14084507041844,209.66241854947293 178.70422535209218,211.2929184834502 177.53521126759006,211.65524948322854 176.5211267605191,211.5564320214762 176.352112676017,211.25997925987758 175.78873239440145,211.3423273058288 174.38028169015888,211.01293486068607 168.36619718308793,211.0952830372844" stroke="#4dd2ff" stroke-linecap="round" stroke-linejoin="round" stroke-width="0.5"><title>2022-10-20 5.2km</title></polyline><polyline fill="none" points="20.130612244829535,251.63234565447783 20.6693877549842,252.46281501092017 22.089795918320306,252.86373034017743 23.55918367335107,252.31963082085713 27.379591836594045,252.7205463621067 27.648979591904208,252.2909939737292 28.285714285681024,252.97827746797702 29.412244897917844,253.26464507562923 30.220408163266256,252.97827746797702 33.94285714277066,253.35055529882084 35.216326530557126,252.1478096928331 35.97551020397805,252.83509355058777 37.76326530613005,252.4055413439637 39.50204081623815,252.66327274977812 41.68163265299518,252.34826766492915 41.97551020397805,254.43874909973238 42.342857142793946,254.12374608084792 42.416326530626975,252.03326221357565 43.10204081621487,251.54643488599686 47.1428571427241,252.74918316374533 48.0,254.18101938429754 47.41224489803426,251.86144090385642 45.257142857066356,246.7353883360338 42.24489795905538,247.79497140625608 41.33877551020123,249.28410817036638 39.0367346938001,249.6563910813711 37.8612244897522,249.6563910813711 37.39591836731415,249.19819665662362 30.04897959169466,249.2268338309077 29.46122448972892,248.79727589871618 26.179591836757027,249.42729396597133 25.59183673467487,248.9690991533571 32.791836734628305,247.96679529713583 33.159183673444204,248.65408976990147 32.69387755088974,249.37001965672243 29.24081632657908,248.9690991533571 26.351020408095792,249.42729396597133 25.32244897959754,249.05501073983032 30.39183673460502,248.10998178948648 33.085714285611175,248.02406990312738 33.134693877538666,248.91182474730886 32.74285714281723,249.37001965672243 29.16734693874605,248.9690991533571 26.179591836757027,249.39865681287483 25.346938775503077,249.0836479292193 27.379591836594045,248.7113642305485 28.016326530487277,249.11228511566878 32.64489795907866,249.5132054069545 33.085714285611175,249.16955947925453 33.11020408151671,248.02406990312738 31.44489795912523,247.88088336537476 23.41224489780143,249.5418425478565 19.763265306013636,248.88318753970088 12.34285714267753,246.3917388819391 12.0,245.93353893130552 12.538775510154665,245.58988845936256 15.134693877538666,245.56125090029673" stroke="#4dd2ff" stroke-linecap="round" stroke-linejoin="round" stroke-width="0.5"><title>2022-09-24 5.1km</title></polyline><polyline fill="none" points="91.39393939357251,256.40558863815386 92.81686429493129,255.4905193640734 94.45322793116793,249.33457112277392 87.83662714017555,245.34149785438785 82.35836627101526,251.830231621454 82.35836627101526,255.9896481912001 85.27536231838167,257.237468872976 91.322793148458,257.32065684796544 92.88801053958014,256.3224005663651 94.66666666651145,249.00181579124182 88.4057971010916,245.0919301022077 82.50065876124427,251.9134201685083 82.64295125147328,256.73834083764814 86.55599472951144,256.90471688465914 87.76548089552671,257.736596591596 86.48484848439693,258.9844145021634 60.303030302748084,260.4817933823215 59.23583662696183,261.31366930616787 61.08563899854198,259.8994797122432 88.5480895913206,260.56498101423495 92.74571804935113,259.5667288497207 76.52437417628244,258.9844145021634 77.87615283206105,239.18547018396202 77.09354413673282,239.0190903894836 74.1765480893664,259.3171656106715 58.666666666511446,259.1507900740253 58.8801054013893,260.06585509027354 92.88801053958014,260.4817933823215 90.25559947220609,258.9844145021634 87.33860342530534,259.6499165786081 76.45322793116793,258.73485107842134 77.59156785206869,238.68633069389034 74.88801053958014,258.73485107842134 72.54018445312977,259.6499165786081 60.729907772969455,259.1507900740253 60.587615283206105,260.06585509027354 94.59552042139694,260.8977314540534 85.06192358303815,260.56498101423495 92.31884057959542,260.4817933823215 92.31884057959542,259.4003533660434 88.12121212063357,259.06760229257634" stroke="#4dd2ff" stroke-linecap="round" stroke-linejoin="round" stroke-width="0.5"><title>2022-09-22 5.0km</title></polyline><polyline fill="none" points="121.79861956974491,252.76885720992868 123.22371092170943,252.56376030009415 124.27608607406728,253.25596167506592 125.52578156732488,253.0765022491687 128.22249289497267,253.51233205301105 129.6475842470536,252.87140559972613 129.60373528231867,252.4099375037913 129.91067803499755,252.33302606915822 130.43686561123468,253.23032462238916 132.98010556248482,252.92267977834854 133.90093382063787,253.28159872509423 135.83028826641385,252.33302606915822 135.85221274883952,253.15341344797343 136.20300446613692,253.4866950273863 136.42224928969517,252.1279287904763 136.86073893646244,251.84591974892828 140.69752334570512,252.87140559972613 141.33333333337214,254.07634592984687 140.19326025189366,250.30768283661746 138.8558668291662,247.4619188094366 136.92651238339022,248.15413475646346 136.33455136034172,247.743932952435 133.90093382063787,247.38500580433174 130.94112870492972,249.71802276480594 126.68777913134545,249.7949350294948 126.13966707268264,248.64124849700602 122.39058059290983,249.17963622894604 121.07511165260803,249.48728582452168 122.60982541623525,250.1794959865365 128.9240763298003,250.12822122751095 129.91067803499755,249.71802276480594 131.70848558680154,249.71802276480594 132.8266341862036,250.12822122751095 135.10678034927696,249.8718472696928 135.52334551373497,248.79507368533814 134.7779131141724,248.12849716409983 133.50629313860554,248.0003091612889 131.57693869282957,249.05144878223655 130.3053187171463,248.12849716409983 128.5732846123865,248.61561095615616 126.40276086085942,248.56433586624917 126.3589118962409,249.84620985902438 124.58302882674616,249.5385607190983 121.86439301678911,249.97439688538725 120.48315062944312,249.5385607190983 119.54039788886439,249.9231220829679 117.98375964281149,249.8718472696928 108.99472188402433,247.15426664268307 109.52090946014505,246.33385895534593 108.07389362575486,245.92365407015313 107.21883881452959,246.53896113751398 105.33333333337214,246.20567000328447 105.68412505090237,246.51332337428175 108.97279740159865,246.8978895387554 111.95452699973248,246.3851345171861 112.89727974019479,247.2568174083135 114.08120178652462,247.05171583370247 114.76086073904298,247.30809277480876 114.32237109239213,251.1537143466121 113.70848558680154,251.1537143466121 115.06780349183828,251.74337092519272 114.25659764534794,251.84591974892828 114.05927730421536,252.64067166157474" stroke="#4dd2ff" stroke-linecap="round" stroke-linejoin="round" stroke-width="0.5"><title>2022-09-09 5.2km</title></polyline></svg>