<?xml version="1.0" encoding="utf-8" ?>
<svg baseProfile="full" height="300mm" version="1.1" viewBox="0,0,200,300" width="200mm" xmlns="http://www.w3.org/2000/svg" xmlns:ev="http://www.w3.org/2001/xml-events" xmlns:xlink="http://www.w3.org/1999/xlink"><defs /><rect fill="#222222" height="300" width="200" x="0" y="0" /><text fill="#FFFFFF" style="font-size:12px; font-family:Arial; font-weight:bold;" x="10" y="20">Over 5km Runs</text><text fill="#FFFFFF" style="font-size:4px; font-family:Arial" x="10" y="280">ATHLETE</text><text fill="#FFFFFF" style="font-size:9px; font-family:Arial" x="10" y="290">feng qijun</text><text fill="#FFFFFF" style="font-size:4px; font-family:Arial" x="120" y="280">STATISTICS</text><text fill="#FFFFFF" style="font-size:3px; font-family:Arial" x="120" y="285">Number: 16</text><text fill="#FFFFFF" style="font-size:3px; font-family:Arial" x="120" y="290">Weekly: 1.3</text><text fill="#FFFFFF" style="font-size:3px; font-family:Arial" x="141" y="285">Total: 93.9 km</text><text fill="#FFFFFF" style="font-size:3px; font-family:Arial" x="141" y="290">Avg: 5.9 km</text><text fill="#FFFFFF" style="font-size:3px; font-family:Arial" x="167" y="285">Min: 5.0 km</text><text fill="#FFFFFF" style="font-size:3px; font-family:Arial" x="167" y="290">Max: 10.0 km</text><polyline fill="none" points="49.43697829719167,52.35523744246166 49.66235392319504,53.09300284369965 51.983722871518694,52.645074110580026 52.50208681134973,54.225995458255056 52.41193656087853,55.01645237211778 46.39440734568052,56.676403732504696 42.49540901510045,58.49443301578867 38.73163606016897,61.07653877447592 36.09474123537075,56.93988705886295 34.42696160275955,55.54342225546134 18.740818030084483,52.01270276401192 18.560517529258505,51.564772089535836 19.43948247085791,49.11431356499088 19.191569282207638,48.613679289934225 19.484557596151717,47.322565203066915 12.25,43.686330404889304 19.462020033504814,47.243517184615484 17.7942404007772,51.96000507938152 17.185726210474968,55.04280089279928 18.13230383989867,52.75046917902364 18.740818030084483,52.38158624446078 32.173205342376605,55.069149410614045 35.396076794713736,56.544661964828265 38.23580968286842,61.31366959512525 44.14065108518116,57.703987130575115 46.732470784685574,56.597358680242905 52.75,54.93740679349867 51.983722871518694,51.48572541640897" stroke="#4dd2ff" stroke-linecap="round" stroke-linejoin="round" stroke-width="0.5"><title>2023-02-22 5.0km</title></polyline><polyline fill="none" points="57.25,57.19311997880868 57.50431711145211,52.658048825891456 57.854003139655106,52.026103389580385 61.4780219780514,52.21196993031481 65.62656985875219,53.7546546299418 67.04120879119728,53.847587010546704 67.67700156988576,54.27507532852178 68.2492150706239,54.0892109702836 70.96722919936292,54.49811229894112 71.65070643642684,54.38659384912171 72.65208006283501,54.83266722362896 73.54218995285919,54.68397622463817 75.44956828886643,54.925599034133484 76.72115384612698,54.2007296087977 76.76883830456063,54.572457892791135 77.27747252740664,54.795494485719246 78.04042386187939,54.85125358967343 78.70800627942663,54.59104428636783 80.01138147560414,54.81408085564908 80.94917582412018,53.921932879675296 81.48959968605777,53.82900053834601 84.25529827311402,54.46093949014903 84.46193092619069,54.70256260638416 84.57319466251647,54.033451624418376 85.8606750391773,54.10779741499573 87.29120879113907,53.68030868998903 87.76805337512633,51.85882333481277 87.87931711145211,50.20460088465188 88.51510989008239,49.59123354598705 89.97743328096112,49.88862403821258 94.17366562003735,49.870037147178664 97.75,48.476014716754435 97.35262951324694,47.80688002120587 95.60419937205734,48.49460175521381 93.26766091049649,48.996451051323675 91.74175824172562,49.03362501625088 88.18131868127966,48.56894988959539 86.63952119305031,49.777102662599646 86.33751962316455,50.70644529623678 86.46467817894882,51.43132913786394 85.38383045519004,51.80306328115694 85.11361852433765,52.658048825891456 84.60498430137523,52.88108784900396 83.6671899529174,52.73239519838535 82.57044740970014,52.044690052527585 81.07633437990444,52.026103389580385 80.45643642079085,52.41642289808078 78.40600470959907,52.546529208208085 77.97684458392905,52.24914321491087 73.16071428573923,52.30490312699112 72.25470957614016,52.17479663791892 71.80965463106986,51.765889902206254 68.59890109888511,52.45359613932669 66.05572998424759,51.97034338902449 61.31907378335018,50.22318774026644 58.903061224438716,49.870037147178664 63.48076923075132,49.83286335930461" stroke="#4dd2ff" stroke-linecap="round" stroke-linejoin="round" stroke-width="0.5"><title>2023-02-10 5.9km</title></polyline><polyline fill="none" points="111.58803734264802,60.386309908222756 111.64079461572692,54.81360087321082 113.4697134172311,54.834164668864105 116.51204950071406,55.61558729101671 118.18269648274872,55.12205757931224 118.86854103347287,53.04510631064477 118.99164133728482,51.214903135973145 119.51921406865586,50.63910531530564 122.56155015190598,51.07095384072454 123.14188015635591,50.78305493037624 126.00835866259877,50.82418337225681 128.92759444203693,49.89879132529313 134.0450499348808,47.32823474530596 139.9011072514113,46.52621413444285 142.75,45.45684817196161 142.5917281806469,45.58023685251828 142.310356057249,45.08668166032294 142.36311333044432,44.613690091791796 141.41348241420928,45.14837612792326 138.96906209294684,45.765319726473535 137.913916630554,45.806449230061844 137.66771602258086,45.49797774084436 134.39676508901175,46.09435551163915 132.23371689103078,46.89637790454435 128.66380807640962,48.93226603922085 126.0435301780235,49.7548410553718 122.84292227530386,49.981048574496526 120.2929874076508,49.508068916082266 119.02681285282597,49.54919762763893 117.58478072076105,50.78305493037624 117.25065132440068,51.729006891779136 117.35616587055847,52.67495424972731 116.58239253144711,52.67495424972731 116.01964828488417,53.209618111504824 115.89654798083939,54.01161114675051 115.31621797662228,54.2789414232102 114.15555796783883,53.84710002466454 113.73349978285842,52.73664630885469 112.66076856281143,52.181417072046315 111.44735128094908,52.53100603570056 110.77909248799551,53.57976915431209 109.337060356047,53.84710002466454 108.2643291358836,53.86766392251593 107.8950282240985,53.559205225959886 102.51378636562731,53.51807736275077 102.25,53.29187395966437 102.63688666955568,52.839466363802785 105.52095093356911,52.63382619943877 105.8550803300459,53.68258876327309 107.27952670434024,53.57976915431209 108.45777247066144,52.81890235717583 109.54808944859542,52.901158370717894 110.05807642207947,52.28423742071027 110.65599218418356,52.26367335538089 111.62320885795634,53.3124379163055 112.92455492832232,53.25074603992107 113.69832826743368,53.888227818199084 115.29863221885171,54.320069125446025 117.074793747277,54.07330278160225 117.53202344768215,52.572134107686 117.58478072076105,53.92935560308979 116.9692792011192,54.422888342887745 114.71830221451819,54.114430527348304 114.1731437256094,53.86766392251593 113.55764220585115,52.59269814044819 110.18117672600783,51.605622114337166 109.337060356047,51.81126336645684 107.24435518879909,53.51807736275077 106.18920972652268,53.49751342793752 105.6440512376139,52.69551827160467 106.13645245332737,52.387057715051924 106.99815458105877,52.387057715051924 107.71917064697482,53.02454232577293 109.47774641774595,52.901158370717894 110.26910551451147,52.345929603863624 111.0077073383145,52.942286364457686 111.65838037338108,52.510441996433656 112.80145462439395,52.28423742071027" stroke="#4dd2ff" stroke-linecap="round" stroke-linejoin="round" stroke-width="0.5"><title>2023-02-05 7.1km</title></polyline><polyline fill="none" points="147.7313242784585,58.82537858269643 148.0980475381948,55.51539784840861 148.3616298811976,55.42159146613267 150.2640067912289,55.72981217564666 150.94015280134045,55.62260505739687 152.7279286927078,56.38645379514492 153.4957555178553,56.46685865747713 153.8624787775916,54.87215268924774 153.58743633277481,54.32271152918838 152.79668930388289,54.33611256146105 152.41850594233256,53.96088312231586 150.28692699491512,54.148497980808315 149.0148556876229,53.93408097698557 148.41893039055867,53.47844363875629 147.33022071310552,53.27742664497782 147.25,54.09489376388228 147.33022071310552,53.31763006923575 147.71986417664448,53.29082778780139 147.92614601028617,53.45164139135886 147.90322580648353,54.01448739593616 148.12096774193924,54.362914621706295 150.80263157899026,54.148497980808315 153.80517826828873,55.36798778795492 155.78777589136735,55.83701920314343 157.00254668935668,55.63600595214666 157.78183361631818,55.944226139930834 158.59550084895454,55.877221815055236 159.5466893039411,56.064833835320314 161.85016977932537,55.70301040454797 163.61502546689007,55.930825277784606 164.6120543294237,55.83701920314343 164.91001697798492,55.55560056242393 166.04456706286874,55.528798754494346 166.4456706282217,55.877221815055236 167.39685908326646,56.185441415967944 168.49702886253363,56.10503637498914 168.81791171478108,55.86382094583678 168.80645161290886,54.563929892923625 169.02419354842277,53.96088312231586 169.91808149404824,53.13001398011693 173.13837011886062,53.424839138271636 174.84592529706424,53.19701975813223 176.2211375212646,52.72797856769466 179.75084889639402,50.95900759347569 183.62436332768993,50.53016242463491 187.1196943973191,48.94878331581276 187.71561969438335,47.86324893982237 187.41765704576392,46.17462141730357 187.75,47.796240340103395 187.62393887946382,48.211693086741434 187.45203735143878,48.613742834371806 186.03098471986596,49.47144469717023 185.80178268253803,49.84668743581278 184.89643463498214,49.900293450584286 183.8764855687623,50.43635235042166 182.11162988113938,50.798190825291385 181.11460101866396,50.71778236463433 179.39558573852992,51.026014519935416 176.19821731752018,52.68777495625545 174.71986417652806,53.183618605384254 172.51952461805195,53.384635747992434 170.04414261458442,53.04960699970252 168.93251273344504,53.90727882598003 168.6230899830698,53.63925700409891 168.96689303900348,54.04128952424071 168.78353140916442,54.496924837934785 168.92105263163103,55.01956332671398 168.71477079798933,55.24737942903448 168.79499151109485,55.70301040454797 168.54286926990608,56.02463128299132 167.47707979625557,56.185441415967944 166.19354838714935,55.70301040454797 166.0904074702994,55.488596032017085 164.95585738541558,55.50199694093317 164.4745331070153,55.79681657843321 163.52334465197055,55.877221815055236 162.96179966046475,55.877221815055236 162.66383701184532,55.67620862786862 160.23429541598307,55.743213059031405 158.92784380313242,55.56900146423868 157.5067911715014,55.78341570071643 156.8764855687623,55.582402364671 155.98259762313683,55.823618329683086 154.28650254674722,55.488596032017085 150.71095076401252,54.20210217506974 149.9202037351788,54.08149270610738 148.10950764006702,54.34951359229308 147.8803056027391,53.88047666931379 148.05220713076415,53.39803687951644 149.0033955856925,53.98768526197091 150.04626485571498,54.20210217506974 152.36120543297147,53.96088312231586 152.70500848902157,54.33611256146105 153.2321731749107,54.37631564968615" stroke="#4dd2ff" stroke-linecap="round" stroke-linejoin="round" stroke-width="0.5"><title>2022-12-15 10.0km</title></polyline><polyline fill="none" points="12.25,122.92955850272847 12.60764311812818,118.06974189485481 15.555115712515544,118.27163683512481 15.937423873285297,118.53121560471482 18.440925700357184,119.10805554519175 18.835566382447723,117.43521299299027 18.73690621193964,116.9160507855122 17.66397685749689,116.84394476703892 17.294001218047924,116.36804408815806 15.96208891592687,116.42572910738818 15.444123020686675,116.1805676069489 14.60551157122245,116.48341410222929 13.729902557854075,116.42572910738818 12.53364799026167,115.73350726511853 12.410322777112015,116.39688660080719 12.706303288636263,116.85836597377784 15.468788063386455,116.44015035840857 15.888093788118567,116.94489318229898 18.971224116918165,118.01205757126445 21.05542021925794,118.44468940311344 22.177679658983834,118.19953153363895 23.16428136418108,118.51679457492719 25.54445797810331,118.54563663295994 26.851705237466376,118.47353147641115 27.394336175348144,118.22837365882879 29.355207064538263,118.51679457492719 30.32947624847293,118.44468940311344 30.7857795371674,118.09858404748957 31.93270401947666,118.09858404748957 32.228684531059116,118.40142628167814 33.25228380021872,118.61774175138271 33.53593179048039,118.92058283228835 33.83191230206285,118.57447868490999 34.436205846548546,118.70426784310257 34.843179049901664,118.54563663295994 35.114494518900756,116.42572910738818 36.21208891598508,115.45950181476655 38.75258830690291,115.77677123327157 40.84911693056347,115.67582195292925 42.66199756396236,115.1999171958887 46.238428745476995,113.32512471465452 51.011114494584035,112.67615207863855 52.441686967154965,112.07044149728608 52.61434226552956,112.71941701718606 52.75,112.67615207863855 51.41808769793715,113.19533043468255 47.32369062118232,113.68566373291833 42.55100487207528,115.8488778162573 40.76278928137617,116.33920156933891 38.66626065777382,116.46899285582185 36.48340438492596,116.1661463285127 36.11342874541879,116.59878401872993 36.03943361755228,117.83900445410109 35.60779537149938,119.33879083799548 34.96650426310953,119.58394665861852 34.411540803848766,119.72815575891582 31.68605359317735,119.06479263433721 29.170219244842883,119.10805554519175" stroke="#4dd2ff" stroke-linecap="round" stroke-linejoin="round" stroke-width="0.5"><title>2022-12-12 7.2km</title></polyline><polyline fill="none" points="57.90523882891284,122.03337295191886 58.232858243456576,117.45445220750116 58.12365177203901,117.0348637477 57.26560092455475,116.92540572069993 57.25,116.37811454362236 61.66506163327722,116.45108680096746 66.56375192606356,117.94701127069129 70.0739599383669,118.64024016141775 82.13347457622876,118.45781177611207 83.49075500766048,118.56726883046213 85.78409090905916,119.31522350896557 86.50173343607457,119.07806749874726 87.45338983047986,118.6037544997962 87.90581664099591,116.94364873005543 87.9838212634786,115.41122921925853 88.31144067802234,114.90041968951118 89.10708782746224,114.77271707062027 91.36922187980963,115.22879741806537 91.85285053926054,114.97339257206477 94.13058551616268,115.0463654237974 95.76868258859031,114.60852785018506 97.75,113.65987596039486 97.46918335900409,112.96662704808114 93.42854391376022,114.18893246568041 91.57203389832284,114.24366235632624 88.10862865945091,113.82406608398014 86.7513482280774,115.02812221378554 86.48613251151983,115.7578491098975 86.70454545458779,116.46932986045431 86.45493066246854,116.90716270948178 86.54853620950598,117.43620925223513 86.14291217259597,117.87403964638361 85.40966872108402,117.80106799124042 84.45801232662052,118.09295442661096 84.02118644065922,117.65512458824378 83.13193374418188,117.50918106175959 82.92912172578508,117.25377959322941 82.85111710324418,117.41796629499004 81.41583204932977,117.27202256782039 79.30970724188956,117.67336752035771 78.57646379043581,117.69161045056535 78.09283513092669,117.36323741172964 74.879044684174,117.47269516081724 73.00693374424009,117.23553661668848 71.1036209553713,117.50918106175959" stroke="#4dd2ff" stroke-linecap="round" stroke-linejoin="round" stroke-width="0.5"><title>2022-12-06 5.0km</title></polyline><polyline fill="none" points="102.25,122.44138792448211 102.59647112741368,118.56360492741806 102.78208065999206,118.75170887850982 105.38061411550734,118.7806479249557 108.78345554537373,119.90926596024656 108.90719523379812,120.15524557804747 108.72158570121974,120.15524557804747 108.88244729605503,119.89479655715695 108.52360219985712,119.90926596024656 108.21425297897076,119.59093873931852 108.4864802933298,119.67775532756059 108.79582951421617,117.59414200024912 108.59784601279534,117.72436876312713 108.62259395053843,118.14398748894746 109.08043079747586,118.52019628659764 110.94890009169467,118.98322107855347 112.0873052245588,118.76617840248218 113.10197066911496,119.0845075428515 114.68583868013229,119.12791600462515 118.11342804768356,118.82405648310669 119.06622364808572,119.0845075428515 120.46448212646646,118.93981257091218 120.81095325388014,118.66489170244313 122.03597616864135,118.66489170244313 122.15971585700754,118.91087355811032 123.66934005502844,119.34495810668159 124.8448670944199,119.14238548879803 125.12946837767959,116.95747604133794 126.26787351054372,116.00247154607496 129.5346012832597,116.33527689988841 131.1184692942188,116.19057901950146 132.87557286891388,115.65519553086779 136.1917965169414,113.88986215274781 137.3178276810213,113.60046106435766 140.28758020163514,113.35446965777373 141.90857011912158,112.9203660961357 142.53964252973674,112.55861207551789 142.73762603115756,113.26764905567688 142.75,113.10847780868062 140.22571035748115,113.94774229695031 136.74862511456013,114.41078256862238 134.9420256645535,115.32238852219598 131.58868010999868,116.76936962266336 129.05201649863739,116.88512744937907 128.77978918422014,117.04429430118762 126.49060494959122,116.76936962266336 120.46448212646646,119.66328590003832 114.73533455544384,119.77904127759393" stroke="#4dd2ff" stroke-linecap="round" stroke-linejoin="round" stroke-width="0.5"><title>2022-11-27 5.6km</title></polyline><polyline fill="none" points="147.25,119.89903332502581 148.8568012752803,120.13389782838931 149.30154091393342,119.99968958333193 150.03320935176453,120.36876198384562 150.520988310338,120.28488196822582 153.08900106267538,121.07335236326617 153.51939426141325,119.07700482406653 153.28985122212907,118.74148176236486 153.37592986185336,119.42930327483919 154.09325185976923,119.8822572757781 156.35998937301338,120.31843397983175 157.43597236985806,119.99968958333193 158.56934112648014,120.40231397762545 162.71546227420913,120.36876198384562 163.51886291184928,120.10034577776969 165.7138682253426,120.36876198384562 166.89027630182682,120.30165797493828 167.42109458026243,119.89903332502581 168.8413921360043,119.8822572757781 168.99920297553763,120.20100190828089 170.64904357068008,120.70428160260781 171.7680658873287,120.55329786200309 172.24149840592872,120.06679372000508 172.39930924546206,119.24476608872646 172.21280552609824,118.57371996536676 172.4423485653242,117.88589474183391 173.76222104148474,116.8122103807109 177.07624867162667,117.23161919953418 179.32863974495558,117.06385580511414 181.66710945800878,116.27536547399359 185.02417640807107,114.44672387096216 187.75,113.92664763673383 185.23937300744,114.34606408781838 181.59537725819973,116.30891833390342 179.27125398511998,117.04707945589325 177.11928799148882,117.18129019983462 174.1352284803288,116.7283284838486 173.6044102019514,116.82898675478646 172.39930924546206,117.95299977298419 172.18411264615133,118.57371996536676 172.37061636557337,119.24476608872646 172.11238044634229,119.6977206167503 172.21280552609824,120.21777792384091 171.8254516471643,120.57007384028111 170.2186503719422,120.63717773561075 168.52577045699582,119.83192911732476 167.36370882036863,119.84870517191302 166.80419766210252,120.26810595979623 165.4556323060533,120.35198598426359 164.37964930920862,120.08356974978233 159.8461742826621,120.01646562016685" stroke="#4dd2ff" stroke-linecap="round" stroke-linejoin="round" stroke-width="0.5"><title>2022-11-23 5.3km</title></polyline><polyline fill="none" points="12.25,183.4748440090334 15.697841726592742,183.89126817387296 19.550359712273348,184.95125258386543 20.052158273290843,182.71770668087993 19.938848920864984,182.18770864493854 19.437050359672867,181.9416375945293 18.62769784167176,182.01735179987736 17.915467625833116,181.4305658700614 16.167266187025234,181.48735168925487 15.77877697837539,181.69556620570074 15.843525179836433,181.8848519194289 21.347122302104253,183.7587696811097 23.062949640327133,183.96698155427293 23.969424460374285,183.45591561490437 25.10251798556419,183.64519946633663 26.47841726616025,183.39913042043918 26.75359712226782,183.79662640334573 27.530575539567508,183.91019652198884 31.99820143886609,183.79662640334573 33.115107913676184,184.15626486510155 35.008992805785965,184.0616232346947 35.62410071934573,183.62627109020832 37.21043165464653,183.60734271207184 37.58273381291656,184.0237665685272 39.47661870502634,184.49697431990353 41.111510791350156,184.08055156479531 41.07913669064874,183.32341679975798 41.32194244605489,182.94484821577498 41.14388489210978,181.99842325151258 41.45143884891877,181.27913693056325 42.859712230216246,180.16234454412188 47.764388489187695,180.63556250804686 50.45143884891877,180.08662955365435 52.34532374102855,179.27269138334668 52.75,180.01091453124536 51.17985611507902,180.71127726616396 48.363309352484066,181.4305658700614 46.37230215827003,181.3169941774977 46.04856115108123,181.5252088920679 43.50719424459385,181.0709219295677 43.00539568340173,181.20342241278559 42.60071942443028,181.73342336442147 42.40647482016357,183.96698155427293 41.92086330935126,185.3487451186811 40.82014388492098,185.72730861665332 36.48201438848628,184.89446786395274 24.27697841724148,185.15946306938713 19.72841726616025,184.28876306352322" stroke="#4dd2ff" stroke-linecap="round" stroke-linejoin="round" stroke-width="0.5"><title>2022-11-18 5.5km</title></polyline><polyline fill="none" points="57.25,186.93813892024627 57.69557956780773,182.28605754548335 58.74587426328799,182.54657735441288 59.76434184680693,182.3977089393884 62.53330058942083,182.7140541706467 65.23860510805389,183.64447802421637 65.66827111988096,181.65336497455428 65.58870333986124,180.77875679096906 64.31561886047712,180.72293058907962 63.647249508823734,180.12744999951974 61.96041257370962,180.20188518347277 61.62622789788293,180.62988687984762 61.76944990182528,180.77875679096906 66.0979371315916,182.23023182191537 68.86689587420551,182.80709677748382 69.9490176817053,182.43492605494976 71.20618860510876,182.8629223179887 75.821119842818,182.8443138064613 76.71227897831704,182.5279688094015 79.16296660120133,182.8629223179887 80.40422396856593,182.78848826009198 81.23172888014233,182.3977089393884 82.5207269154489,182.41631749816588 82.90265225933399,182.78848826009198 84.86001964629395,183.19787518867815 86.40363457752392,182.8443138064613 86.65825147344731,181.63475633505732 86.45137524558231,180.8718004215043 86.72190569742816,180.18327639046765 88.1063850686769,178.91787384562485 93.38968565815594,179.32726978276332 95.50618860503891,178.8806559858931 97.57495088397991,178.06186107975373 97.75,178.80622024287004 93.86709233780857,180.14605879843293 90.03192534379195,180.22049397449882 88.9338899803115,179.82970894876053 88.26552062865812,180.03440597528243 87.93133595277322,180.4810168426775 87.77220039285021,182.43492605494976 87.34253438108135,183.96082101331558 86.03762278979411,184.40742191184836 83.07770137517946,183.66308645110985 69.96493123768596,183.83056220439903" stroke="#4dd2ff" stroke-linecap="round" stroke-linejoin="round" stroke-width="0.5"><title>2022-11-06 5.5km</title></polyline><polyline fill="none" points="102.25,194.97151584064704 103.18385922326706,189.94286311397445 103.84739077673294,176.17824615785503 104.41262135922443,173.62065176988835 104.56007281562779,173.87928600463783 107.55825242714491,173.79307462036377 115.98756067967042,175.68971875315765 116.5773665048182,171.6665184815356 116.35618932032958,172.816010353592 117.26547330094036,173.47696597751928 121.63986650493462,174.36781666509341 130.6589805824915,172.58611236829893 131.2487864077557,172.58611236829893 131.37166262138635,174.1953941794054 133.38683252432384,173.90802312662709 135.4265776699176,174.0229715841997 136.18841019412503,174.51150198624237 139.4323422331363,174.39655373545247 140.46450242726132,173.67812606555526 140.48907767003402,172.6148496271344 142.60254854371306,171.98262923126458 142.75,170.51702174523962 141.9635922331363,170.02848415932385 140.63652912632097,171.81020523156621 140.88228155346587,172.49990057371906 140.34162621363066,172.72979863197543 139.456917475909,174.1953941794054 136.75364077673294,174.54023904140922 135.4265776699176,174.0229715841997 127.75910194183234,174.0229715841997 127.14472087379545,174.48276492810692 125.27700242726132,174.48276492810692 123.33555825252552,173.82181175152073 121.44326456310228,174.36781666509341 118.15018203889485,173.76433748623822 110.50728155346587,171.26419517718023 110.26152912620455,170.80439638535609 110.85133495146874,170.60323416921892 113.4808859223267,170.28712181426818 114.3410194175085,171.26419517718023 115.1765776699176,171.2067203708284 114.3164441747358,171.17798296301044 113.43173543689772,170.3445968152664 112.03094660188071,170.3445968152664 110.60558252432384,170.545759222965 110.43355582514778,171.29293257577228 118.2730582524091,173.90802312662709 116.18416262138635,172.70106138533447 116.30703883501701,171.6665184815356" stroke="#4dd2ff" stroke-linecap="round" stroke-linejoin="round" stroke-width="0.5"><title>2022-11-02 5.0km</title></polyline><polyline fill="none" points="148.49711316399043,191.75091911910567 148.43475750577636,191.36814258834056 147.32794457272394,191.22232273394184 147.25,190.69372472769464 147.65531177830417,187.95957122879918 147.65531177830417,185.44411169941304 147.90473441110225,184.9154959703883 147.76443418016424,182.98330054480175 148.10739030025434,178.93655690590094 148.43475750577636,177.4053318277147 148.6997690530843,177.6058501717198 151.80196304846322,177.4964765584591 155.7927251732326,178.7360401103797 156.1824480369687,176.12930053500168 155.97979214787483,176.7308593217167 156.26039260975085,177.16835530212848 159.45612009236356,177.89751280102064 164.42898383375723,176.85846243074047 166.11258660512976,176.82200440924498 167.0635103925597,177.29595808715385 167.57794457278214,176.9860654452932 169.6824480369687,177.0407524225884 170.3215935335029,176.45742376994167 171.27251732104924,176.93137845062301 172.47286374133546,176.512110915035 173.3770207851776,176.91314944857731 173.78233256348176,177.97042838121706 174.90473441110225,178.31677696573024 176.4792147805565,177.98865727141674 176.74422632792266,176.62148515306762 176.55715935339686,175.92878047272097 176.85334872978274,175.19961464288644 177.81986143183894,174.23346516543825 178.7707852193853,174.03294289692712 181.51443418010604,174.47044572739105 183.3227482678485,174.47044572739105 185.33371824474307,174.08763081146753 187.4538106234977,173.24908088089433 187.75,173.88710837326653 186.03521939954953,174.6891967260308 183.74364896072075,175.27253136472427 181.37413394916803,175.41836471584975 178.45900692843134,175.09023950228584 178.02251732104924,175.60065623118135 177.44572748267092,178.95478569394618 176.21420323319035,179.4105047678313 171.80254041572334,178.663124854138 159.95496535801794,178.90009932406247 156.40069284063065,178.15271719668817 155.96420323324855,180.92348345048958" stroke="#4dd2ff" stroke-linecap="round" stroke-linejoin="round" stroke-width="0.5"><title>2022-10-28 6.2km</title></polyline><polyline fill="none" points="12.25,251.88198201797786 12.503521126811393,247.9910584554018 12.772887323924806,247.28697733704757 13.026408450736199,247.54637597310648 14.959507042251062,247.36109127223608 16.48063380282838,247.52784751181025 19.681338028225582,248.6210233726597 20.33098591543967,248.47279653714213 20.695422535180114,246.49025055272796 20.552816901355982,245.82322069024667 20.07746478874469,245.6008768381871 19.15845070418436,245.67499148689967 18.635563380259555,245.15618828727747 16.94014084507944,245.24883182847407 16.70246478874469,245.47117612748116 16.892605633765925,245.78616340110602 21.757042253564578,247.45373364714033 23.34154929581564,247.73166047790437 30.044014084502123,246.74965036881622 30.107394366234075,247.67607514704287 32.3257042253972,247.52784751181025 33.78345070424257,247.87988794063858 37.50704225350637,247.4166767030838 37.681338028167374,247.76871735534223 39.51936619711341,248.23192766186548 41.00880281685386,248.08370049702353 41.325704225338995,247.82430265679432 41.29401408450212,247.04610683101055 41.54753521125531,246.71259327571897 41.357394366234075,245.8046920466586 41.65845070418436,245.11913085707056 43.03697183099575,243.95181779203995 46.919014084443916,244.37798060632485 48.471830985858105,244.30386540880136 50.27816901402548,243.95181779203995 52.353873239364475,243.1180179820076 52.75,243.7665292883903 50.911971830937546,244.5632684630691 48.48767605633475,245.19324570968456 46.602112676016986,245.11913085707056 46.26936619717162,245.28588923123607 43.74999999994179,244.85972862606286 43.21126760559855,245.00795851943258 42.878521126753185,245.50823348319682 42.78345070418436,247.12022086814977 42.29225352109643,248.95453329387237 40.977112676016986,249.36215566862666 39.83626760559855,249.25098602414073 39.6461267604609,248.91747666735318 39.01232394372346,249.01011821904103 37.42781690141419,248.6395517182682 30.661971830995753,248.73219341694494" stroke="#4dd2ff" stroke-linecap="round" stroke-linejoin="round" stroke-width="0.5"><title>2022-10-20 5.2km</title></polyline><polyline fill="none" points="66.39693877543323,249.33638886126573 67.00306122447364,250.27066688725608 68.60102040809579,250.72169663268141 70.25408163259272,250.10958467345336 74.5520408161683,250.56061465735547 74.85510204092134,250.0773682204308 75.57142857136205,250.85056215143413 76.83877551020123,251.17272571008652 77.74795918364543,250.85056215143413 81.93571428558789,251.26937471114798 83.36836734681856,249.91628590441542 84.2224489795044,250.68948024438578 86.23367346939631,250.20623401194462 88.18979591829702,250.4961818434822 90.64183673472144,250.14180112301256 90.9724489795044,252.49359273718437 91.38571428565774,252.13921434094664 91.46836734691169,249.78741999022895 92.23979591834359,249.23973924672464 96.78571428568102,250.5928310592135 97.75,252.20364680732018 97.08877551031765,249.59412101679482 94.664285714156,243.82731187800528 91.2755102039082,245.01934283203445 90.25612244894728,246.6946216916549 87.66632653062697,247.11343996651703 86.34387755102944,247.11343996651703 85.82040816324297,246.59797123866156 77.55510204075836,246.63018805976026 76.89387755095959,246.14693538605934 73.202040816308,246.85570571169956 72.54081632650923,246.34023654751945 80.64081632648595,245.21264470924507 81.0540816327557,245.98585099112825 80.53061224485282,246.7912721137982 76.64591836731415,246.34023654751945 73.39489795907866,246.85570571169956 72.23775510198902,246.43688708229456 77.9408163264161,245.3737295131723 80.97142857138533,245.27707864099648 81.0265306122601,246.27580284071155 80.58571428561118,246.7912721137982 76.56326530617662,246.34023654751945 73.202040816308,246.823488914466 72.26530612248462,246.4691039203608 74.5520408161683,246.05028475934523 75.26836734684184,246.5013207551092 80.47551020409446,246.95235608279472 80.97142857138533,246.5657544141286 80.99897959176451,245.27707864099648 79.12551020400133,245.11599378602114 70.08877551008482,246.98457286632038 65.98367346927989,246.24358598212712 57.635714285541326,243.44070624216693 57.25,242.92523129767505 57.856122448924,242.5386245167465 60.7765306122601,242.50640726281563" stroke="#4dd2ff" stroke-linecap="round" stroke-linejoin="round" stroke-width="0.5"><title>2022-09-24 5.1km</title></polyline><polyline fill="none" points="139.06818181835115,254.70628721790854 140.66897233203053,253.67683428461896 142.50988142285496,246.75139251316432 135.06620553322136,242.25918508623727 128.9031620551832,249.55901057412848 128.9031620551832,254.2383542151074 132.18478260887787,255.64215248206165 138.98814229248092,255.73573895398295 140.74901185790077,254.61270063719712 142.75,246.37704276520526 135.7065217392519,241.97842136502732 129.06324110692367,249.65259768959368 129.22332015819848,255.08063344238326 133.62549407081679,255.2678064952488 134.98616600828245,256.20367116556736 133.5454545454122,257.6074663149775 104.09090909082443,259.2920175550971 102.89031620556489,260.2278779694461 104.97134387353435,258.63691467628814 135.86660079052672,259.3856036410434 140.5889328061603,258.2625699559576 122.33992094825953,257.6074663149775 123.86067193653435,235.33365395694273 122.98023715429008,235.14647668821272 119.69861660106108,257.9818113120273 102.25,257.7946388332639 102.49011857714504,258.82408697658684 140.74901185790077,259.2920175550971 137.78754940675572,257.6074663149775 134.50592885399237,258.35615615092684 122.25988142332062,257.32670746324584 123.54051383398473,234.77212203061208 120.49901185743511,257.32670746324584 117.85770750977099,258.35615615092684 104.5711462451145,257.7946388332639 104.4110671938397,258.82408697658684 142.66996047412977,259.7599478858756 131.94466403173283,259.3856036410434 140.10869565233588,259.2920175550971 140.10869565233588,258.07539753679885 135.38636363623664,257.70105257915566" stroke="#4dd2ff" stroke-linecap="round" stroke-linejoin="round" stroke-width="0.5"><title>2022-09-22 5.0km</title></polyline><polyline fill="none" points="165.77344701590482,250.61496436118614 167.37667478690855,250.38423033760046 168.56059683323838,251.16295688445098 169.96650426322594,250.9610650303075 173.0003045067424,251.45137355965562 174.60353227774613,250.7303312997101 174.55420219246298,250.2111796917743 174.89951278932858,250.12465432781028 175.4914738124935,251.13411520019872 178.35261875763535,250.78801475063665 179.38855054811575,251.19179856573464 181.55907429964282,250.12465432781028 181.5837393422844,251.04759012896102 181.97838002431672,251.42253190581687 182.22503045073245,249.89391988929128 182.71833130333107,249.57665971753886 187.03471376386005,250.7303312997101 187.75,252.08588917108136 186.4674177832203,247.84614319121465 184.96285018278286,244.64465866063256 182.7923264312558,245.4234016010305 182.12637028028257,244.96192457151483 179.38855054811575,244.5581315298914 176.05876979301684,247.1827756104176 171.27375152264722,247.26930190820713 170.65712545672432,245.9714045591536 166.43940316687804,246.57709075757884 164.95950060908217,246.92319655261235 166.68605359317735,247.70193298486993 173.78958587092347,247.64424888096983 174.89951278932858,247.1827756104176 176.92204628512263,247.1827756104176 178.17996345937718,247.64424888096983 180.74512789293658,247.35582817840623 181.21376370289363,246.14445789600722 180.375152253313,245.39455930964323 178.94457978080027,245.25034780646092 176.7740560292732,246.43287988004158 175.34348355676048,245.39455930964323 173.39494518889114,245.94256232568296 170.95310596830677,245.88487784954486 170.90377588314004,247.32698609141516 168.90590742998756,246.98088080898742 165.84744214382954,247.4711964960734 164.29354445799254,246.98088080898742 163.23294762487058,247.41351234336616 161.48172959813382,247.35582817840623 151.3690621193964,244.29854997302755 151.96102314267773,243.37559132478782 150.3331303287996,242.91411082891864 149.37119366636034,243.60633127970505 147.25,243.23137875369866 147.64464068214875,243.57748879608698 151.34439707675483,244.01012573111802 154.69884287461173,243.433276331838 155.75943970761728,244.41391958435997 157.09135200979654,244.1831803129171 157.85596833133604,244.47160437167622 157.36266747873742,248.79792863994953 156.67204628500622,248.79792863994953 158.20127892820165,249.46129229085636 157.28867235092912,249.57665971753886 157.06668696715496,250.47075561928796" stroke="#4dd2ff" stroke-linecap="round" stroke-linejoin="round" stroke-width="0.5"><title>2022-09-09 5.2km</title></polyline></svg>