<?xml version="1.0" encoding="utf-8" ?>
<svg baseProfile="full" height="300mm" version="1.1" viewBox="0,0,200,300" width="200mm" xmlns="http://www.w3.org/2000/svg" xmlns:ev="http://www.w3.org/2001/xml-events" xmlns:xlink="http://www.w3.org/1999/xlink"><defs /><rect fill="#222222" height="300" width="200" x="0" y="0" /><text fill="#FFFFFF" style="font-size:12px; font-family:Arial; font-weight:bold;" x="10" y="20">Over 5km Runs</text><text fill="#FFFFFF" style="font-size:4px; font-family:Arial" x="10" y="280">ATHLETE</text><text fill="#FFFFFF" style="font-size:9px; font-family:Arial" x="10" y="290">feng qijun</text><text fill="#FFFFFF" style="font-size:4px; font-family:Arial" x="120" y="280">STATISTICS</text><text fill="#FFFFFF" style="font-size:3px; font-family:Arial" x="120" y="285">Number: 26</text><text fill="#FFFFFF" style="font-size:3px; font-family:Arial" x="120" y="290">Weekly: 1.4</text><text fill="#FFFFFF" style="font-size:3px; font-family:Arial" x="141" y="285">Total: 152.7 km</text><text fill="#FFFFFF" style="font-size:3px; font-family:Arial" x="141" y="290">Avg: 5.9 km</text><text fill="#FFFFFF" style="font-size:3px; font-family:Arial" x="167" y="285">Min: 5.0 km</text><text fill="#FFFFFF" style="font-size:3px; font-family:Arial" x="167" y="290">Max: 10.0 km</text><polyline fill="none" points="19.216295596037526,63.14080635505525 19.381817663961556,64.05791358331771 19.22733040060848,63.683321325457655 19.337678445794154,63.8770760856205 20.551506943884306,64.19999999999709 21.3460128698498,63.79957421861036 21.754300637403503,62.83079671407177 21.875683487101924,62.779128363748896 22.09637957776431,63.127889302435506 22.58191097690724,63.08913813641993 22.901920308242552,62.46911780093069 22.76950265391497,60.7898801868796 23.232964444090612,60.00192223761405 23.11158159421757,59.80816130416497 26.477196975203697,57.12131120736012 27.591712232446298,55.635767642037536 28.3641485493863,53.181351557512244 28.551740226335824,49.16375305408292 28.640018662554212,48.65992908374028 28.849679948587436,48.53074311402452 28.717262294259854,48.02691652075737 29.05934123462066,46.59293709760823 30.328343755332753,44.21585287152993 31.266302140138578,43.10480843683035 32.94359242828796,41.606174277796526 33.93672483577393,40.19795810330106 34.333977798814885,39.24191213787708 35.338145010813605,34.47448962149792 36.78370440390427,31.799999999995634 35.24986657453701,34.952532291768875 34.41122143046232,39.0222788946121 33.98086405394133,40.21087759189686 32.634617901581805,42.00667314632301 30.504900627711322,43.957471350891865 29.180724084435496,46.347479465090146 28.794505925965495,47.93648588559881 28.860714753100183,48.65992908374028 28.61794905352872,48.982893407475785 28.3641485493863,53.64640261948807 27.624816646042746,55.700356870023825 25.936491553322412,57.767194054002175 23.24399924860336,59.82107870931213 23.288138466712553,60.04067438728089 22.968129135435447,60.57028586166416" stroke="#4dd2ff" stroke-linecap="round" stroke-linejoin="round" stroke-width="0.5"><title>2023-04-17 6.5km</title></polyline><polyline fill="none" points="47.98735543555813,55.251496898563346 47.79999999998836,55.09084770741174 47.79999999998836,54.65271259979636 48.59938319196226,44.66285494448675 48.811719352321234,43.976390817711945 49.76098689273931,44.23929237591801 50.29807247489225,44.07863037205243 51.5595990747679,44.1808698506793 54.0326908249408,45.02799404691905 54.43238242098596,44.91114963919972 56.10609097912675,45.53918716793123 56.218504240503535,45.93353485381522 56.79306090978207,46.09419469923887 57.59244410175597,45.78748028668633 59.36607555899536,46.05037839632132 59.76576715498231,45.845902132059564 60.47771781031042,46.29867059575918 61.36453353893012,46.16722183993261 62.67602158826776,46.38630303015816 63.46291441790527,46.00656207946304 63.42544333077967,45.72905841654574 63.700231302995235,45.71445294514706 63.9250578256906,46.254854357714066 64.64949884341331,46.313276005370426 65.33646877406863,46.10880013045971 66.03592906706035,46.28406518463453 66.91025443328544,45.8166912124434 66.96021588274743,46.240248941932805 67.1725520431064,46.38630303015816 67.74710871238494,46.254854357714066 68.1343099459773,45.53918716793123 69.85797995369649,46.16722183993261 69.84548959130188,45.74366388638737 70.89468003081856,45.78748028668633 72.05628373159561,45.33471014664974 72.51842713949736,42.53042329890013 72.85566692362772,42.209095126992906 73.30531996907666,42.0630366197729 75.09144178871065,42.442788417072734 75.478643022303,42.2821243226208 77.1398612181074,42.38436513165652 78.17656129522948,42.16527759103337 80.19999999995343,41.3035298914474 79.91272166534327,40.748503101436654 78.25150346948067,41.39116549640312 76.40292983799009,41.69788967575005 72.60585967614315,41.34734770088107 71.45674633764429,42.34054765132896 71.25690053967992,43.070837174207554 71.45674633764429,43.509009033674374 71.18195836542873,44.5167990331538 69.85797995369649,44.750488417150336 69.19599074788857,44.61903818733117 68.37162683112547,44.064024726088974 67.12259059364442,44.034813429476344 66.62297609867528,44.35613735222432 65.52382420969661,44.472982229606714 64.62451811868232,44.253898003385984 61.75173477252247,44.283109253592556 61.53939861210529,43.71348875890544 61.664302235876676,43.62585462804418 63.21310717036249,43.55282614317548 63.9375481880852,44.12244730076054 63.825134926708415,44.23929237591801 61.12721665378194,44.253898003385984 61.16468774090754,43.85954552005569 60.95235158049036,43.72809444196173 57.3051657670876,44.38534858080675 55.256746337690856,43.976390817711945 51.709483423270285,42.60345232459076 51.23484965303214,42.618058125081006 51.059984579798765,42.4281825980288 51.5845797994989,42.17988343788602 52.13415574404644,42.442788417072734 53.50809560518246,42.36975930641347 53.88280647643842,42.807933390984545 54.18257517344318,42.807933390984545" stroke="#4dd2ff" stroke-linecap="round" stroke-linejoin="round" stroke-width="0.5"><title>2023-04-07 7.0km</title></polyline><polyline fill="none" points="83.79999999998836,51.769363679064554 83.91444270015927,48.94424695034104 84.21962323400658,47.50192862097174 87.09340659348527,47.78444574799505 90.04348508641124,48.61712450321647 90.29780219780514,48.06696230711532 93.52762951335171,48.78068582195556 103.30612244899385,48.61712450321647 106.68854003137676,49.30110693343158 107.85839874407975,48.94424695034104 108.31616954470519,46.19342083748779 108.68492935638642,45.73246633040253 110.96106750390027,45.97037852280482 111.40612244897056,45.80681393384293 113.02103610668564,45.910900512491935 116.20000000001164,44.81055278099666 116.00926216639346,44.230636320920894 112.66499215067597,45.22690158436308 111.17723704862874,45.25664073742519 108.46875981159974,44.87003125697083 107.32433281000704,45.910900512491935 107.0318681318895,48.12643940511043 105.83657770801801,48.349478298419854 104.97189952904591,48.20078574218496 103.94191522768233,47.59114461718127 102.81020408164477,47.62088326997764 102.37786499218782,47.933138744629105 101.2843014128739,48.00748518394539 100.57221350085456,48.00748518394539 100.22888540028362,47.78444574799505 97.5712715855916,47.87366156486678 97.30423861858435,47.75470712977403 97.04992150707403,47.189672188367695 92.94270015700022,47.94800803565886 90.76828885404393,47.56140595805482 86.90266875986708,46.13394292150042 84.09246467822231,46.282637664247886 84.01616954477504,45.25664073742519 85.27503924653865,45.94063952079159 87.20784929359797,46.04472600038571" stroke="#4dd2ff" stroke-linecap="round" stroke-linejoin="round" stroke-width="0.5"><title>2023-04-04 6.0km</title></polyline><polyline fill="none" points="123.5752918953076,61.064539340208285 144.31293420121074,62.31872420106083 151.28507256228477,41.62457223632373 134.12288582604378,33.68130484689027 121.78756411094218,47.68651797750499 121.25124577526003,59.81035368423909 128.40215691458434,63.57290826563258 146.99452587775886,60.22841565834824 150.39120867010206,43.923933154321276 136.44693194702268,33.05420342972502 121.25124577526003,49.776839783997275 122.32388244569302,62.31872420106083 146.6369803212583,61.90066266921349 150.7487542266026,42.46070378879085 136.80447750445455,32.63613570865709 128.40215691458434,38.907142248004675 121.25124577526003,49.149743474205025 121.07247299607843,60.85550845309626 141.27379696629941,64.19999999995343 147.53084421437234,61.48260104947258 150.56998144742101,42.46070378879085 136.26815916784108,32.63613570865709 121.78756411094218,48.52264696487691 121.07247299607843,61.2735702060163 138.4134325105697,63.36387764336541 146.27943476475775,61.064539340208285 150.7487542266026,41.41553929250222 135.1955224974081,32.218067898531444 121.60879133176059,48.73167915700469 121.78756411094218,61.69163187034428 132.69270359911025,63.36387764336541 147.53084421437234,60.64647754316684 150.7487542266026,42.251670933677815 135.1955224974081,31.79999999993015 121.43001855444163,48.73167915700469 121.96633688919246,61.90066266921349 143.24029752984643,62.94581633317284 147.17329865694046,60.85550845309626 150.56998144742101,41.2065063273767 136.08938639052212,32.218067898531444 122.14510966744274,47.68651797750499 120.71492743864655,60.85550845309626 146.27943476475775,61.69163187034428 149.85489033348858,41.833605157444254 136.44693194702268,32.63613570865709 127.68706580065191,38.907142248004675 121.78756411094218,48.73167915700469 121.60879133176059,61.90066266921349 140.91625140886754,63.36387764336541 146.6369803212583,60.85550845309626 150.03366311173886,41.2065063273767 135.73184083309025,32.42710181418806 124.46915578749031,43.29683498770464 120.71492743864655,61.064539340208285 126.7932019084692,63.57290826563258 146.45820754300803,61.90066266921349 150.56998144742101,42.878769431845285 137.16202306188643,32.63613570865709 128.40215691458434,39.11617545702029 121.25124577526003,49.56780770246405 120.71492743864655,61.064539340208285 124.82670134492218,63.15484699921217" stroke="#4dd2ff" stroke-linecap="round" stroke-linejoin="round" stroke-width="0.5"><title>2023-03-30 5.2km</title></polyline><polyline fill="none" points="187.88338762207422,60.684855956205865 188.20000000001164,58.05815048774821 186.13448115403298,57.37061671777337 182.32005583989667,56.84174265713955 182.0939041414531,56.630192562995944 182.289902280143,53.91527585446602 183.25481619354105,53.70372204591695 183.99357840855373,46.65177475976816 183.66188925079769,46.49310251325369 183.34527687297668,46.75755617347022 182.30497906001983,46.68703523845761 182.56128431827528,46.63414451762219 182.32005583989667,46.40495119993284 178.73178222426213,47.30409240820154 177.2693345741718,47.26883206005732 176.3948813401512,46.47547225432936 175.2641228478169,44.306936180975754 173.30414146120893,42.66729261042201 172.76137738476973,42.54387792535999 172.48999534663744,42.08547972346423 169.565100046515,41.46840322963544 167.13773848296842,40.32239796416252 166.56482084683375,38.92955018450448 166.4291298277676,37.41327227684087 165.63006049318938,36.3730271274253 164.36361098184716,36.16145104805764 160.54918566771084,36.86670360127755 159.8255002326332,36.6903907428059 158.24243834341178,35.47382693453983 157.48859934852226,35.31514404380869 155.79999999998836,35.509089778614 157.80521172634326,35.36803835752653 159.55411819450092,36.49644638301106 160.54918566771084,36.84907232380647 164.3033038622234,36.19671374661266 165.56975337362383,36.39065845528967 166.3838994880789,37.44853471046372 166.54974406701513,38.98244335086201 167.13773848296842,40.34002887408133 169.27864122850588,41.41551085242827 172.36938110744813,42.01495681126835 172.80660772451665,42.596769944473635 173.30414146120893,42.68492327223066 174.64597487199353,43.68986791331554 175.50535132619552,44.71243694133591" stroke="#4dd2ff" stroke-linecap="round" stroke-linejoin="round" stroke-width="0.5"><title>2023-03-28 5.0km</title></polyline><polyline fill="none" points="15.053651685360819,92.00602974105277 15.349438202218153,89.07940414582845 15.17879213480046,88.58719224134256 14.89438202243764,88.41425246615108 13.597471910063177,88.74682874577411 13.506460674107075,88.49407085349958 11.799999999988358,88.0949784102122 11.891011235944461,87.68258155483636 13.745365168550052,88.16149390537612 18.068398876406718,88.17479700019612 22.095646067347843,89.3986757024104 24.30266853928333,89.77115816056903 33.005617977527436,89.61152295646025 35.80421348317759,90.18354816664942 36.771207865094766,89.7977640082172 37.22626404493349,87.38991199829616 37.55617977527436,86.9775128305846 39.706320224679075,87.23027377122344 39.85421348310774,87.04402891686914 41.66306179773528,87.11054496795259 44.20000000001164,86.19262035543215 44.06348314607749,85.5939702589385 42.243258426955435,86.29904674088175 40.85533707862487,86.52520251085662 39.3650280899019,86.4985959708356 37.63581460673595,86.17931705092633 37.20351123588625,86.29904674088175 36.30477528087795,87.04402891686914 36.07724719098769,87.66927840792778 36.13412921340205,88.30782787089265 35.62219101120718,88.33443402815465 35.25814606738277,88.74682874577411 35.24676966294646,89.1326161282268 34.89410112350015,89.30555491548148 34.07500000001164,89.01288913616736 33.767837078659795,88.26791862447135 33.17626404488692,87.98855354476109 32.357162921340205,88.16149390537612 31.822471910039894,88.90646504756296 30.900983146042563,89.05279814620008 30.309410112327896,89.05279814620008 29.990870786539745,88.83994994645764 27.39705056179082,88.8798590113438 27.15814606740605,88.26791862447135 24.723595505580306,88.65370747615088" stroke="#4dd2ff" stroke-linecap="round" stroke-linejoin="round" stroke-width="0.5"><title>2023-03-26 5.6km</title></polyline><polyline fill="none" points="80.20000000001164,100.6014291352185 79.2779446640634,100.61640431388514 76.90877470362466,99.83769292305806 76.58861660078401,100.0772968842357 75.37201581028057,100.04734641122923 72.65707509883214,100.5115780300257 71.41486166010145,100.5115780300257 70.72332015814027,100.00242068988155 69.77565217396477,97.980748472517 68.07241106725996,96.60299975090311 67.61138339922763,96.4831948804349 67.38086956524057,96.06387703538348 64.9476679841755,95.59963082932518 62.860237154120114,94.56630316223891 62.34798418969149,93.39818454133638 62.23272727266885,92.14019986015046 61.63083003956126,91.2566086967563 60.4014229249442,91.04694218718214 57.27667984185973,91.61603627626027 56.559525691729505,91.48125104089559 54.164743083005305,89.69907863759727 54.31841897236882,88.99518923723372 53.396363636420574,86.95838316512527 53.140237154089846,86.80861685579293 53.12743083003443,86.19457333035825 52.71762845851481,85.715317995855 52.627984189777635,85.13122336246306 52.435889328073245,84.86164041084703 51.73154150194023,84.62201068938884 51.30893280636519,83.94804992219724 51.18086956522893,83.67846471664961 51.65470355731668,83.43883299158188 49.15747035574168,79.63462500026799 47.79999999998836,76.95364533354586 49.003794466436375,79.39498642702529 52.30782608699519,84.54712631818256 52.205375494027976,84.7867561664898 53.08901185769355,86.10471307879197 53.07620553357992,86.88350003027881 53.42197628458962,87.0632194873906 54.331225296482444,89.08504765348334 54.1135177865508,89.63917329303513 54.54893280635588,89.81888925068779 54.88189723325195,90.31310695763386 56.53391304350225,91.43632260062441 57.13581027666805,91.57110787869897 60.388616600830574,91.04694218718214 61.59241106722038,91.31651335672359 62.19430830038618,92.0353672986821 62.283952569181565,93.24842504653498 62.847430830064695,94.56630316223891 64.64031620556489,95.50977654905 67.36806324112695,96.07885269408871 67.71383399207843,96.5730485427921 68.00837944663363,96.5730485427921 69.77565217396477,97.980748472517 70.7361264822539,99.85266818253149 71.42766798421508,100.5265532181802 72.41375494078966,100.61640431388514 74.79573122528382,100.03237117239041 75.44885375490412,100.40675166851724 75.82023715419928,100.0772968842357 76.57581027672859,100.04734641122923 76.76790513831656,99.79276713520812 79.02181818184908,100.64635466645996 79.84142292494653,100.57147877318494" stroke="#4dd2ff" stroke-linecap="round" stroke-linejoin="round" stroke-width="0.5"><title>2023-03-18 7.0km</title></polyline><polyline fill="none" points="83.79999999998836,89.97253348428058 85.91375041817082,89.9091557559077 89.98949481430463,91.10065143984684 91.7238541317638,91.40486120509013 100.20053529611323,91.29078263362317 102.85627300100168,91.8992004263564 103.87520910002058,91.4302119839922 104.2437604549923,89.23734977432468 104.53643358987756,88.84440490703855 107.86423553031636,88.95848580772144 109.42515891604125,88.65426983122597 110.99692204751773,88.03315981404012 110.83432586153504,87.47542562630406 112.90471729676938,86.29656982237066 116.04824355972232,85.70079957364942 116.20000000001164,85.80220748479042 114.21632653067354,85.91629128217755 112.87219805951463,86.2712179572336 110.06470391439507,87.83034768253128 108.72057544329436,88.2232958755485 107.05125460017007,88.36272879554599 104.65567079291213,87.99513256554201 104.27627969218884,88.08386279328988 103.37658079626272,88.93313450584537 103.18146537302528,89.55423985762172 103.3332218133146,89.9091557559077 103.2248243559734,90.64433534377895 102.92131147545297,90.92319538676384 101.8806958849309,91.01192344614537 100.55824690527515,89.78240019860823 99.61518902645912,89.8838046551682 99.10572097694967,89.47818631405971 98.68297089327825,89.4021327221999 98.28190030111,89.54156427035923 97.7941117430455,90.12463989551179 97.51227835397003,90.14999094530503 96.98113081295742,90.59363344805024 96.10311140847625,90.64433534377895 95.9188357309904,90.02323564280232 92.82950819673715,90.352799150387" stroke="#4dd2ff" stroke-linecap="round" stroke-linejoin="round" stroke-width="0.5"><title>2023-03-14 5.6km</title></polyline><polyline fill="none" points="149.37557603686582,94.87472785817226 148.28064516128507,94.72923174458265 146.2027649769443,94.04539794905577 144.70967741933418,94.45278870472976 144.39861751155695,94.1908947860502 141.82304147467948,94.80197982062236 141.02672811062075,94.75833097960276 140.20552995393518,94.07449732875102 139.07327188941417,91.89202676413697 137.77926267281873,90.45157721826399 136.90829493082128,90.11692516393668 134.1087557603605,89.73862186107726 132.60322580643697,88.92381121257495 132.00599078339292,87.6433847246808 131.81935483869165,86.26109274695045 131.32165898615494,85.66452033775568 130.33870967745315,85.47536269195552 126.82995391706936,85.99918322751182 125.12534562213114,84.87878687385819 122.79861751146382,84.95154016102606 122.59953917050734,83.7583813911915 122.56221198150888,84.98064146505203 120.6087557603023,85.11159725717152 119.79999999998836,82.725272141819 120.4594470045995,84.87878687385819 120.78294930869015,85.16979979141615 124.66497695847647,84.84968554825173 125.20000000001164,84.98064146505203 126.38202764972812,85.83912716447958 127.07880184333771,86.0137337694614 130.4506912442157,85.53356507222634 131.37142857146682,85.78092491350253 131.8566820276319,86.40659782002331 131.9935483870795,87.6433847246808 132.50368663592963,88.86561026716663 134.14608294924255,89.79682243695424 136.8460829492542,90.32062651139859 137.21935483871493,90.82987855991814 137.64239631337114,90.91717872170557 139.25990783405723,92.1975747281831 140.24285714287544,94.05994763967465 140.84009216586128,94.75833097960276 142.3953917050967,94.86017825370072 143.09216589858988,94.51098728564102 144.9211981567205,94.17634510925564 145.92903225804912,94.27819281433767 146.0658986174967,94.07449732875102 148.55437788018025,94.87472785817226 152.19999999995343,94.72923174458265" stroke="#4dd2ff" stroke-linecap="round" stroke-linejoin="round" stroke-width="0.5"><title>2023-03-12 6.0km</title></polyline><polyline fill="none" points="186.80520179367159,94.61071544428705 182.91139013448264,93.64229561215325 182.75156950671226,93.89714350257418 181.83623318385798,93.59132598554424 181.25506726454478,94.15199098856829 181.13883408071706,93.84617395685927 177.91336322872667,94.50877678957477 176.86726457398618,94.38984827732202 176.0826905829599,93.57433610637963 174.46995515696472,90.7370010764862 173.3076233183965,89.54768405774666 171.9854708519997,89.07195478386711 168.86170403589495,88.6471953127766 167.11820627795532,87.64475850619783 166.56609865475912,86.26852151086496 166.47892376681557,84.7903278961021 165.8541704036179,83.95777607662603 164.41578475339338,83.70291241176892 160.68179372197483,84.31458452784864 160.18780269060517,84.22963020662428 159.75192825112026,83.70291241176892 158.48789237672463,82.98929199800477 157.92125560541172,82.8873459657334 155.79999999998836,83.0742469754623 158.34260089683812,82.9553099944169 160.1442152466625,84.1276849618007 164.50295964127872,83.65193963027559 165.75246636767406,83.92379427803098 166.46439461881528,84.94324510799197 166.56609865475912,86.183568223365 167.08914798207115,87.50883438959136 168.99246636766475,88.56224328365352 172.18887892377097,89.20787757738435 172.5666367712547,89.70059673926153 173.07515695074107,89.76855788435205 175.00753363227705,91.3656365138886 176.12627802690258,93.59132598554424 176.9689686098718,94.3558686862234 178.1603587443824,94.47479722363641 179.4970403587795,94.0330622120673 179.7295067263767,94.32188908786338 180.65937219728949,93.86316380718199 182.8387443945976,93.67627535424253 185.7591031389311,94.71265403425787 188.20000000001164,94.52576656984456" stroke="#4dd2ff" stroke-linecap="round" stroke-linejoin="round" stroke-width="0.5"><title>2023-03-05 5.0km</title></polyline><polyline fill="none" points="41.549582637730055,129.4841899539606 41.72988313867245,130.07440227494226 43.586978297214955,129.7160592884611 44.00166944914963,130.9807963665953 43.92954924877267,131.61316189767967 39.11552587652113,132.94112298599794 35.996327212196775,134.3955464126193 32.98530884808861,136.46123101958074 30.875792988343164,133.1519096470729 29.54156928230077,132.0347378043516 16.992654424044304,129.21016221120954 16.848414023406804,128.85181767161703 17.551585976732895,126.89145085198106 17.353255425812677,126.49094343192701 17.587646076921374,125.4580521624448 11.800000000046566,122.54906432390271 17.569616026827134,125.39481374768366 16.235392320668325,129.16800406349648 15.748580968356691,131.6342407142365 16.5058430719655,129.80037534319854 16.992654424044304,129.5052689955628 27.738564273924567,131.6553195284796 30.31686143577099,132.83572957184515 32.588647746364586,136.65093567609438 37.31252086814493,133.76318970444845 39.38597662781831,132.8778869441885 44.20000000006985,131.54992543479602 43.586978297214955,128.78858033311553" stroke="#4dd2ff" stroke-linecap="round" stroke-linejoin="round" stroke-width="0.5"><title>2023-02-22 5.0km</title></polyline><polyline fill="none" points="47.79999999998836,133.35449598304695 48.00345368916169,129.72643906070152 48.283202511724085,129.22088271165558 51.18241758242948,129.36957594424894 54.50125588697847,130.6037237039418 55.63296703295782,130.67806960843154 56.14160125592025,131.02006026281742 56.59937205648748,130.87136877622106 58.77378335950198,131.1984898391529 59.320565149129834,131.10927507928864 60.1216640502098,131.46613377890026 60.83375196228735,131.34718097970472 62.35965463105822,131.54047922730388 63.37692307686666,130.96058368703234 63.4150706435903,131.25796631422418 63.82197802193696,131.43639558856376 64.43233908945695,131.48100287173293 64.96640502352966,131.27283542908845 66.00910518044839,131.45126468451053 66.75934065930778,130.7375463037315 67.19167974882293,130.6632004306739 69.40423861844465,131.16875159210758 69.56954474089434,131.3620500850957 69.65855572995497,130.82676129952597 70.68854003131855,130.88623793199076 71.83296703291126,130.54424695199123 72.21444270008942,129.08705866783566 72.30345368915005,127.76368070770695 72.81208791205427,127.27298683678964 73.98194662475726,127.51089923056134 77.33893249597168,127.49602971773129 80.19999999995343,126.38081177340064 79.88210361055098,125.84550401695014 78.48335949762259,126.39568140417396 76.61412872839719,126.79716084105894 75.39340659335721,126.82690001299488 72.5450549449888,126.45515991166758 71.31161695445189,127.42168213007972 71.07001569849672,128.1651562369807 71.17174254311249,128.74506331028533 70.30706436414039,129.042450624911 70.09089481947012,129.72643906070152 69.68398744106526,129.90487027919153 68.93375196232228,129.7859161587112 68.05635792773683,129.23575204201916 66.86106750392355,129.22088271165558 66.36514913657447,129.53313831845298 64.7248037676327,129.63722336656065 64.38147566711996,129.39931457191415 60.52857142861467,129.4439225015958 59.80376766086556,129.3398373103264 59.44772370485589,129.012711921765 56.87912087904988,129.56287691145553 54.84458398737479,129.17627471120795 51.055259026703425,127.77855019220442 49.12244897952769,127.49602971773129 52.784615384589415,127.46629068742914" stroke="#4dd2ff" stroke-linecap="round" stroke-linejoin="round" stroke-width="0.5"><title>2023-02-10 5.9km</title></polyline><polyline fill="none" points="91.27042987401364,135.90904792657238 91.31263569253497,131.4508806985541 92.77577073377324,131.46733173508255 95.20963960047811,132.09246983280173 96.54615718621062,131.69764606344688 97.09483282675501,130.03608504850126 97.19331306981621,128.57192250876687 97.61537125485484,128.11128425222705 100.0492401215015,128.45676307257963 100.51350412500324,128.22644394429517 102.80668693000916,128.25934669779963 105.14207555359462,127.5190330602345 109.2360399478348,125.46258779623895 113.92088580114068,124.82097130754846 116.19999999995343,123.96547853756056 116.07338254444767,124.06418948200007 115.84828484582249,123.66934532824962 115.89049066428561,123.2909520734247 115.13078593136743,123.71870090233278 113.17524967429927,124.21225578116719 112.33113330439664,124.24515938403783 112.1341728180414,123.99838219267258 109.51741207117448,124.47548440931132 107.78697351273149,125.11710232363839 104.93104646104621,126.74581283137377 102.83482414245373,127.40387284429744 100.27433782018488,127.5848388595914 98.23438992613228,127.20645513285126 97.22145028226078,127.23935810210241 96.06782457657391,128.22644394429517 95.80052105942741,128.9832055134175 95.88493269647006,129.7399633997702 95.2659140251344,129.7399633997702 94.81571862782585,130.16769448919513 94.71723838464823,130.8092889174004 94.2529743812629,131.02315313856525 93.32444637425942,130.6776800197258 92.98679982626345,129.78931704707793 92.12861485022586,129.3451336576254 91.15788102470106,129.6248048285488 90.62327399040805,130.46381532344094 89.4696482848376,130.6776800197258 88.61146330862539,130.69413113800692 88.31602257926716,130.44736418075627 84.01102909242036,130.4144618901919 83.79999999998836,130.23349916771986 84.10950933559798,129.8715730910335 86.41676074679708,129.70706095953938 86.68406426400179,130.54607101061265 87.82362136337906,130.46381532344094 88.76621797651751,129.85512188573193 89.63847155880649,129.92092669657723 90.04646113759372,129.4273899365653 90.52479374728864,129.41093868429016 91.29856708634179,130.2499503330473 92.33964394259965,130.20059683192812 92.9586626139353,130.71058225455636 94.23890577501152,131.05605530034518 95.65983499778667,130.8586422252847 96.0256187581108,129.65770728614007 96.06782457657391,130.7434844824602 95.57542336086044,131.13831067430147 93.7746417716262,130.89154442187282 93.3385149804526,130.69413113800692 92.84611376462271,129.67415851235273 90.14494138077134,128.88449769145518 89.4696482848376,129.04901069316838 87.79548415105091,130.4144618901919 86.95136778114829,130.39801074234128 86.51524099003291,129.75641461726627 86.90916196262697,129.50964617203863 87.59852366481209,129.50964617203863 88.17533651751,130.01963386061834 89.58219713409198,129.92092669657723 90.2152844115626,129.47674368307344 90.80616587062832,129.9538290915516 91.32670429866994,129.6083535971411 92.24116369948024,129.4273899365653" stroke="#4dd2ff" stroke-linecap="round" stroke-linejoin="round" stroke-width="0.5"><title>2023-02-05 7.1km</title></polyline><polyline fill="none" points="120.1850594227435,134.6603028661557 120.47843803052092,132.01231827872834 120.68930390494643,131.93727317290904 122.21120543294819,132.18384974051878 122.75212224107236,132.09808404592331 124.18234295415459,132.7091630361174 124.79660441423766,132.77348692598753 125.08998302207328,131.4977221513982 124.86994906619657,131.05816922335362 124.23735144309467,131.0688900491732 123.93480475380784,130.76870649785997 122.22954159590881,130.91879838464956 121.21188455005176,130.74726478158846 120.73514431237709,130.3827549110065 119.86417657049606,130.2219413159837 119.79999999998836,130.87591501110728 119.86417657049606,130.2541040553915 120.1758913412923,130.23266223024257 120.34091680817073,130.36131311309146 120.3225806451519,130.8115899167533 120.49677419353975,131.09033169736358 122.6421052631922,130.91879838464956 125.04414261458442,131.8943902303654 126.63022071309388,132.26961536251474 127.60203735146206,132.10880476171587 128.22546689305454,132.35538091194758 128.87640067911707,132.30177745204128 129.63735144311795,132.45186706825916 131.48013582342537,132.16240832364565 132.89202037348878,132.34466022222477 133.68964346352732,132.26961536251474 133.92801358236466,132.04448044994206 134.83565365028335,132.0230390036013 135.1565365025308,132.30177745204128 135.9174872665899,132.54835313277727 136.79762308998033,132.48402909999277 137.0543293718365,132.29105675667233 137.04516129026888,131.2511439143418 137.21935483871493,130.76870649785997 137.93446519522695,130.10401118409936 140.5106960950652,130.33987131062167 141.87674023763975,130.15761580650724 142.97691001696512,129.78238285415864 145.80067911709193,128.36720607478492 148.89949066215195,128.02412993970938 151.69575551780872,126.75902665265312 152.1724957554834,125.89059915186226 151.93412563658785,124.53969713384868 152.20000000001164,125.83699227208854 152.0991511035245,126.16935446939897 151.9616298811161,126.49099426750035 150.82478777586948,127.17715575773764 150.64142614597222,127.47734994865459 149.917147708009,127.52023476046452 149.10118845500983,127.94908188033878 147.68930390488822,128.23855266023747 146.8916808149079,128.17422589171474 145.51646859082393,128.42081161595706 142.9585738539463,129.75021996500436 141.7758913412108,130.1468948843103 140.01561969442992,130.30770859839686 138.0353140916559,130.03968559976784 137.14601018675603,130.7258230607913 136.89847198640928,130.51140560327622 137.17351443122607,130.83303161939693 137.02682512730826,131.19753987035074 137.13684210524661,131.615650661377 136.97181663836818,131.79790354322904 137.03599320881767,132.16240832364565 136.83429541590158,132.41970502639742 135.98166383698117,132.54835313277727 134.9548387096729,132.16240832364565 134.8723259762046,131.99087682561367 133.9646859082859,132.00159755274944 133.57962648558896,132.23745326275093 132.81867572152987,132.30177745204128 132.36943972838344,132.30177745204128 132.1310696094879,132.1409669022978 130.18743633280974,132.19457044723094 129.14227504248265,132.0552011713953 128.00543293717783,132.2267325605717 127.50118845503312,132.06592189173534 126.7860780984629,132.25889466374792 125.42920203733956,131.99087682561367 122.5687606111751,130.96168174006016 121.9361629881314,130.86519416489318 120.48760611203033,131.07961087383592 120.30424448219128,130.70438133545395 120.44176570459967,130.3184295036117 121.20271646854235,130.790148209584 122.03701188456034,130.96168174006016 123.88896434631897,130.76870649785997 124.16400679119397,131.0688900491732 124.58573853987036,131.10105251974892" stroke="#4dd2ff" stroke-linecap="round" stroke-linejoin="round" stroke-width="0.5"><title>2022-12-15 10.0km</title></polyline><polyline fill="none" points="155.79999999998836,133.94364680218132 156.08611449453747,130.0557935158795 158.44409257004736,130.2173094680984 158.74993909866316,130.42497248377913 160.7527405603323,130.88644443614612 161.06845310598146,129.5481703944024 160.98952496954007,129.1328406284083 160.13118148600915,129.07515581362532 159.8352009744849,128.69443527053227 158.76967113272985,128.74058328590763 158.35529841657262,128.54445408556057 157.68440925702453,128.78673128178343 156.98392204631818,128.74058328590763 156.02691839222098,128.18680581209628 155.9282582217129,128.71750928064284 156.16504263097886,129.08669277902663 158.37503045075573,128.7521202867283 158.71047503052978,129.15591454583773 161.1769792935811,130.00964605701301 162.844336175418,130.35575152249658 163.7421437271987,130.15962522691552 164.5314250913798,130.41343565994612 166.43556638248265,130.43650930636795 167.48136418999638,130.37882518113474 167.91546894033672,130.18269892705575 169.48416565166553,130.41343565994612 170.26358099881327,130.35575152249658 170.62862362974556,130.07886723800038 171.54616321559297,130.07886723800038 171.78294762485893,130.3211410253498 172.60182704019826,130.49419340110762 172.82874543243088,130.7364662658365 173.06552984163864,130.45958294792945 173.54896467726212,130.56341427448933 173.87454323994461,130.43650930636795 174.0915956151439,128.74058328590763 174.9696711327997,127.96760145181179 177.0020706455689,128.22141698662017 178.67929354449734,128.1406575623405 180.12959805119317,127.75993375671533 182.99074299639324,126.26009977172362 186.8088915956905,125.74092166291666 187.95334957371233,125.25635319783032 188.0914738124702,125.77553361374885 188.20000000001164,125.74092166291666 187.134470158373,126.15626434775186 183.8589524969575,126.54853098632884 180.04080389771843,128.2791022530073 178.6102314250893,128.67136125546676 176.93300852621906,128.7751942846662 175.18672350794077,128.53291706281016 174.8907429963583,128.87902721497812 174.83154689404182,129.87120356328523 174.48623629723443,131.07103267039201 173.9732034105109,131.267157326889 173.52923264313722,131.38252460713557 171.3488428745768,130.85183410746686 169.3361753958743,130.88644443614612" stroke="#4dd2ff" stroke-linecap="round" stroke-linejoin="round" stroke-width="0.5"><title>2022-12-12 7.2km</title></polyline><polyline fill="none" points="12.324191063118633,174.02669836154382 12.586286594741978,170.36356176600384 12.498921417631209,170.0278909981571 11.812480739608873,169.94032457655703 11.799999999988358,169.50249163489207 15.3320493066567,169.56086944077106 19.25100154086249,170.75760901655303 22.05916795070516,171.3121921291313 31.706779661006294,171.16624942088674 32.792604006128386,171.2538150643668 34.62727272725897,171.8521788071812 35.20138674881309,171.66245399900072 35.96271186438389,171.28300359983405 36.32465331279673,169.95491898404725 36.38705701078288,168.72898337541847 36.64915254240623,168.32033575161768 37.28567026194651,168.21817365649622 39.09537750383606,168.5830379344552 39.48228043143172,168.37871405766055 41.30446841294179,168.43709233903792 42.61494607088389,168.08682228015095 44.20000000001164,167.32790076831589 43.97534668719163,166.77330163847364 40.74283513100818,167.75114597255015 39.25762711861171,167.79492988505808 36.486902927514166,167.4592528671783 35.40107858245028,168.42249777102552 35.18890600919258,169.006279287918 35.36363636364695,169.57546388836636 35.16394453000976,169.92573016758251 35.23882896761643,170.34896740179101 34.914329738065135,170.6992317171098 34.3277349768905,170.64085439300106 33.56640986126149,170.87436354128295 33.21694915252738,170.52409967059793 32.50554699532222,170.4073448494164 32.34329738060478,170.2030236745777 32.28089368256042,170.33437303599203 31.13266563945217,170.21761805425922 29.447765793534927,170.53869401628617 28.86117103236029,170.553288360461 28.474268104706425,170.2905899293837 25.90323574730428,170.3781561286596 24.40554699540371,170.1884292933537 22.882896764262114,170.4073448494164" stroke="#4dd2ff" stroke-linecap="round" stroke-linejoin="round" stroke-width="0.5"><title>2022-12-06 5.0km</title></polyline><polyline fill="none" points="47.79999999998836,174.35311033958715 48.0771769019193,171.25088394193153 48.225664527970366,171.40136710280058 50.30449129239423,171.42451833996165 53.0267644362757,172.32741276819434 53.12575618701521,172.5241964624438 52.97726856096415,172.5241964624438 53.10595783684403,172.31583724572556 52.8188817598857,172.32741276819434 52.57140238315333,172.07275099145045 52.78918423468713,172.14220426204702 53.03666361136129,170.4753136001964 52.878276810224634,170.57949501050462 52.89807516039582,170.91518999115215 53.264344637980685,171.21615702927375 54.75912007334409,171.5865768628355 55.66984417964704,171.41294272198138 56.481576535326894,171.66760603428702 57.74867094407091,171.70233280369575 60.49074243818177,171.45924518648826 61.252978918433655,171.66760603428702 62.37158570118481,171.55185005672683 62.648762603115756,171.33191336195887 63.62878093490144,171.33191336195887 63.72777268558275,171.52869884647953 64.93547204404604,171.87596648534236 65.87589367554756,171.71390839103697 66.10357470210874,169.9659808330689 67.0142988084117,169.2019772368585 69.62768102658447,169.46822151991364 70.89477543538669,169.35246321560408 72.30045829509618,168.9241564246986 74.95343721355312,167.51188972219825 75.85426214477047,167.2803688514905 78.23006416129647,167.08357572621753 79.52685609529726,166.73629287691438 80.03171402378939,166.4468896604085 80.19010082492605,167.01411924453714 80.19999999995343,166.88678224694013 78.18056828598492,167.55819383755443 75.3989000916481,167.9286260548979 73.95362053165445,168.65791081775387 71.27094408799894,169.8154956981307 69.24161319888663,169.90810195949598 69.02383134735283,170.03543544094282 67.19248395966133,169.8154956981307 62.37158570118481,172.13062872002774 57.788267644355074,172.2232330220795" stroke="#4dd2ff" stroke-linecap="round" stroke-linejoin="round" stroke-width="0.5"><title>2022-11-27 5.6km</title></polyline><polyline fill="none" points="83.79999999998836,172.31922666001628 85.08544102020096,172.50711826270708 85.44123273110017,172.3997516666641 86.02656748139998,172.69500958707795 86.41679064818891,172.6279055745763 88.47120085009374,173.2586818906202 88.81551540910732,171.66160385925468 88.63188097765669,171.3931854098846 88.70074388943613,171.94344261986407 89.2746014877921,172.30580582062976 91.0879914983525,172.65474718386395 91.94877789582824,172.3997516666641 92.85547290113755,172.72185118210473 96.1723698193091,172.69500958707795 96.8150903294445,172.48027662220557 98.57109458022751,172.69500958707795 99.51222104142653,172.64132637994044 99.93687566416338,172.31922666001628 101.07311370875686,172.30580582062976 101.1993623803719,172.56080152662616 102.51923485647421,172.9634252820906 103.41445270983968,172.84263828960684 103.79319872474298,172.45343497601425 103.91944739635801,171.79581287097972 103.7702444207971,171.25897597229778 103.95387885224773,170.70871579346567 105.00977683311794,169.84976830456435 107.66099893726641,170.1852953596317 109.46291179594118,170.05108464408113 111.33368756639538,169.42029237919633 114.01934112643357,167.95737909676245 116.19999999995343,167.5413181093827 114.19149840588216,167.87685127024452 111.27630180650158,169.44713466711255 109.41700318804942,170.03766356471897 107.69543039315613,170.14503215986042 105.30818278423976,169.7826627870745 104.88352816150291,169.86318940383353 103.91944739635801,170.7623998183917 103.74729011685122,171.25897597229778 103.89649309241213,171.79581287097972 103.68990435701562,172.1581764934017 103.7702444207971,172.5742223390771 103.46036131767323,172.85605907222634 102.17492029751884,172.90974218848714 100.8206163655268,172.26554329385544 99.89096705627162,172.27896413752023 99.44335812958889,172.6144847678297 98.364505844831,172.68158878741815 97.50371944735525,172.46685579983023 93.87693942611804,172.4131724961262" stroke="#4dd2ff" stroke-linecap="round" stroke-linejoin="round" stroke-width="0.5"><title>2022-11-23 5.3km</title></polyline><polyline fill="none" points="119.79999999998836,171.17987520723545 122.55827338126255,171.51301453910128 125.64028776984196,172.36100206710398 126.04172661865596,170.57416534470394 125.95107913669199,170.15016691594792 125.54964028776158,169.95331007562345 124.90215827338398,170.01388143991062 124.33237410068978,169.54445269606367 122.93381294963183,169.5898813514068 122.6230215827236,169.75645296457515 122.67482014390407,169.90788153554604 127.0776978416834,171.40701574488776 128.45035971229663,171.57358524341544 129.17553956829943,171.16473249193223 130.082014388463,171.31615957307804 131.18273381295148,171.11930433634552 131.40287769783754,171.43730112267076 132.0244604317122,171.5281572176027 135.5985611511278,171.43730112267076 136.4920863309526,171.72501189207833 138.00719424465206,171.64929858775577 138.49928057554644,171.30101687216666 139.7683453237405,171.28587416965456 140.06618705030996,171.61901325482177 141.58129496406764,171.99757945592864 142.8892086331034,171.6644412518508 142.86330935254227,171.05873343981511 143.0575539568672,170.75587857262872 142.91510791372275,169.99873860120715 143.16115107916994,169.4233095444506 144.28776978421956,168.5298756353004 148.21151079138508,168.90845000644913 150.36115107918158,168.46930364292348 151.87625899282284,167.81815310668026 152.20000000001164,168.40873162500793 150.94388489209814,168.96902181292535 148.6906474819989,169.54445269606367 147.09784172667423,169.45359534199815 146.83884892088827,169.62016711366596 144.80575539573329,169.2567375436629 144.40431654674467,169.3627379302343 144.08057553955587,169.7867386915459 143.92517985613085,171.57358524341544 143.53669064753922,172.67899609495362 142.65611510793678,172.98184689332265 139.18561151082395,172.3155742911622 129.42158273380483,172.5275704555097 125.78273381298641,171.8310104508273" stroke="#4dd2ff" stroke-linecap="round" stroke-linejoin="round" stroke-width="0.5"><title>2022-11-18 5.5km</title></polyline><polyline fill="none" points="155.79999999998836,173.9505111361941 156.15646365424618,170.22884603637794 156.99669941066531,170.4372618835332 157.81147347745718,170.3181671515049 160.02664047153667,170.57124333651154 162.19088408647804,171.31558241936727 162.53461689595133,169.7226919796376 162.47096267191228,169.02300543276942 161.45249508845154,168.9783444712666 160.9177996070939,168.5019599996158 159.56833005900262,168.56150814676948 159.3009823183529,168.90390950387518 159.41555992147187,169.02300543276942 162.8783497053082,170.1841854575323 165.0935166993877,170.64567742198415 165.9592141454341,170.3479408439598 166.9649508841103,170.69033785437932 170.65689587430097,170.6754510451574 171.3698231827002,170.4223750475212 173.3303732809727,170.69033785437932 174.32337917486439,170.63079060806194 174.9853831041837,170.3181671515049 176.01658153237076,170.3330539985327 176.32212180749048,170.63079060806194 177.88801571709337,170.95830015094543 179.1229076620657,170.6754510451574 179.32660117879277,169.70780506804294 179.1611001964775,169.0974403371947 179.3775245579891,168.5466211123712 180.48510805499973,167.53429907649115 184.71174852654804,167.86181582621066 186.40495088405441,167.5045247887174 188.0599607072072,166.8494888638088 188.20000000001164,167.44497619429603 185.0936738703167,168.51684703874344 182.02554027509177,168.57639517959615 181.14711198426085,168.2637671590055 180.61241650296142,168.4275247802143 180.3450687622535,168.78481347413617 180.21776031435002,170.3479408439598 179.87402750487672,171.56865681064664 178.83009823184693,171.92593752946414 176.4621611001785,171.33046916087915 165.97194499021862,171.4644497635163" stroke="#4dd2ff" stroke-linecap="round" stroke-linejoin="round" stroke-width="0.5"><title>2022-11-06 5.5km</title></polyline><polyline fill="none" points="11.800000000046566,221.17721267252637 12.547087378567085,217.1542904911912 13.077912621432915,206.14259692629275 13.530097087379545,204.09652141592233 13.648058252525516,204.3034288037161 16.046601941809058,204.23445969630848 22.790048543713056,205.75177500254358 23.261893203831278,202.53321478524595 23.084951456286944,203.4528082828765 23.812378640752286,203.98157278202416 27.311893203877844,204.69425333208346 34.52718446601648,203.26888989465078 34.999029126251116,203.26888989465078 35.09733009710908,204.55631534352142 36.7094660194125,204.32641850129585 38.341262136003934,204.4183772673714 38.950728155323304,204.80920158898516 41.54587378643919,204.7172429883649 42.37160194176249,204.1425008524675 42.3912621360505,203.2918797017046 44.08203883492388,202.7861033850204 44.20000000006985,201.61361739618587 43.57087378646247,201.22278732748237 42.509223301080056,202.64816418524424 42.705825242679566,203.19992045898107 42.27330097090453,203.38383890557452 41.565533980727196,204.55631534352142 39.40291262138635,204.83219123314484 38.341262136003934,204.4183772673714 32.20728155341931,204.4183772673714 31.715776699013077,204.78621194248262 30.22160194173921,204.78621194248262 28.66844660206698,204.25744940123695 27.154611650505103,204.69425333208346 24.52014563116245,204.21146998899349 18.405825242749415,202.21135614175 18.20922330103349,201.8435171082965 18.68106796115171,201.68258733538096 20.784708737861365,201.4296974514291 21.47281553398352,202.21135614175 22.141262135934085,202.16537629665982 21.453155339695513,202.1423863704258 20.74538834951818,201.47567745222477 19.62475728150457,201.47567745222477 18.484466019435786,201.636607378372 18.346844660118222,202.2343460606353 24.618446602020413,204.32641850129585 22.947330097085796,203.36084910828504 23.04563106794376,202.53321478524595" stroke="#4dd2ff" stroke-linecap="round" stroke-linejoin="round" stroke-width="0.5"><title>2022-11-02 5.0km</title></polyline><polyline fill="none" points="48.797690531180706,218.60073529528745 48.747806004597805,218.29451407067245 47.862355658144224,218.1778581871622 47.79999999998836,217.75497978217027 48.12424942263169,215.56765698303934 48.12424942263169,213.555289359545 48.32378752884688,213.13239677631645 48.21154734410811,211.58664043585304 48.485912240168545,208.3492455247324 48.747806004597805,207.12426546217466 48.959815242444165,207.28468013738166 51.44157043873565,207.1971812467673 54.63418013858609,208.1888320883154 54.94595842954004,206.10344042800716 54.78383371827658,206.58468745739083 55.008314087754115,206.93468424171442 57.56489607389085,207.51801024083397 61.54318706697086,206.6867699446011 62.890069284068886,206.65760352740472 63.65080831403611,207.036766469726 64.06235565821407,206.7888523562433 65.7459584295284,206.83260193807655 66.25727482675575,206.36593901595916 67.01801385683939,206.74510276051296 67.9782909930218,206.40968873203383 68.70161662809551,206.73051955887058 69.02586605073884,207.57634270498238 69.9237875288236,207.85342157258128 71.183371824387,207.59092581714503 71.39538106234977,206.49718812246283 71.24572748265928,205.9430243781826 71.48267898376798,205.35969171431498 72.25588914542459,204.58677213235933 73.01662817550823,204.42635431754752 75.2115473440499,204.77635658191866 76.65819861425553,204.77635658191866 78.26697459578281,204.47010464918276 79.96304849872831,203.79926470472128 80.19999999995343,204.30968669863068 78.82817551959306,204.95135738083627 76.99491916853003,205.41802509178524 75.09930715931114,205.53469177268562 72.76720554271014,205.2721916018345 72.41801385680446,205.68052498495672 71.95658198610181,208.3638285551715 70.97136258654064,208.72840381426795 67.44203233259032,208.13049988332205 57.96397228637943,208.3200794592558 55.12055427249288,207.72217375735636 54.7713625865872,209.93878676039458" stroke="#4dd2ff" stroke-linecap="round" stroke-linejoin="round" stroke-width="0.5"><title>2022-10-28 6.2km</title></polyline><polyline fill="none" points="83.79999999998836,214.7055856143852 84.00281690148404,211.59284676432435 84.21830985916313,211.0295818696468 84.4211267606006,211.23710077849682 85.96760563377757,211.0888730177976 87.18450704228599,211.22227800945984 89.74507042259211,212.09681869813357 90.2647887323983,211.97823722971953 90.55633802816737,210.3922004421911 90.44225352111971,209.8585765522148 90.06197183101904,209.6807014705555 89.32676056335913,209.7399931895343 88.90845070418436,209.3249506298307 87.55211267608684,209.39906546279963 87.3619718310074,209.57694090199948 87.51408450701274,209.8289307209052 91.40563380287495,211.1629869177268 92.67323943669908,211.3853283823264 98.03521126759006,210.59972029506753 98.08591549296398,211.34086011764884 99.86056338035269,211.22227800945984 101.02676056337077,211.5039103525196 104.00563380285166,211.1333413624816 104.14507042255718,211.41497388428252 105.61549295770237,211.7855421294953 106.80704225349473,211.66696039763337 107.06056338030612,211.45944212544418 107.03521126759006,210.83688546481426 107.23802816902753,210.5700746205839 107.08591549296398,209.84375363733852 107.32676056335913,209.295304685671 108.42957746481989,208.3614542336436 111.53521126753185,208.70238448507735 112.77746478869813,208.64309232705273 114.22253521124367,208.3614542336436 115.8830985915265,207.69441438560898 116.20000000001164,208.21322343072097 114.72957746475004,208.8506147704611 112.79014084511437,209.3545965677622 111.28169014083687,209.295304685671 111.01549295772566,209.4287113850005 109.0,209.08778290086775 108.5690140844672,209.2063668155606 108.30281690141419,209.6065867865691 108.22676056338241,210.89617669452855 107.83380281692371,212.36362663510954 106.78169014083687,212.68972453491006 105.86901408445556,212.60078881932714 105.716901408392,212.3339813338971 105.20985915500205,212.4080945752503 103.94225352117792,212.11164137462038 98.5295774647966,212.1857547335676" stroke="#4dd2ff" stroke-linecap="round" stroke-linejoin="round" stroke-width="0.5"><title>2022-10-20 5.2km</title></polyline><polyline fill="none" points="127.11755102034658,212.66911108900968 127.60244897950906,213.41653350980778 128.88081632647663,213.77735730614222 130.20326530607417,213.2876677387685 133.64163265295792,213.6484917258931 133.8840816327138,213.26189457635337 134.4571428571362,213.88044972115313 135.47102040820755,214.13818056805758 136.19836734700948,213.88044972115313 139.54857142851688,214.2154997689213 140.69469387747813,213.1330287235469 141.3779591836501,213.75158419551735 142.98693877551705,213.3649872095557 144.55183673463762,213.5969454747974 146.51346938777715,213.31344089841878 146.77795918355696,215.1948741897504 147.10857142857276,214.9113714727573 147.17469387757592,213.0299359921919 147.7918367346283,212.59179139738262 151.42857142852154,213.6742648473737 152.19999999995343,214.96291744585324 151.6710204082774,212.8752968134504 149.73142857139464,208.26184950242168 147.0204081631964,209.21547426562756 146.20489795913454,210.55569735332392 144.1330612244783,210.89075197321654 143.0751020408934,210.89075197321654 142.65632653061766,210.4783769909409 136.04408163262997,210.50415044779947 135.5151020407211,210.11754830884456 132.56163265311625,210.68456456936838 132.03265306120738,210.27218923802138 138.51265306118876,209.37011576739314 138.84326530620456,209.98868079291424 138.4244897958124,210.63301769104146 135.31673469394445,210.27218923802138 132.71591836726293,210.68456456936838 131.79020408156794,210.34950966582983 136.35265306115616,209.49898361053783 138.77714285708498,209.42166291279136 138.82122448983137,210.22064227257215 138.4685714285588,210.63301769104146 135.2506122449413,210.27218923802138 132.56163265311625,210.6587911315728 131.81224489805754,210.37528313629446 133.64163265295792,210.04022780749074 134.21469387749676,210.40105660408153 138.38040816329885,210.7618848662387 138.77714285708498,210.45260353131744 138.79918367334176,209.42166291279136 137.30040816322435,209.292795028814 130.07102040806785,210.78765829306212 126.7869387754472,210.1948687857075 120.10857142845634,207.95256499374227 119.80000000004657,207.54018503814586 120.28489795909263,207.23089961340884 122.62122448976152,207.20512581024377" stroke="#4dd2ff" stroke-linecap="round" stroke-linejoin="round" stroke-width="0.5"><title>2022-09-24 5.1km</title></polyline><polyline fill="none" points="185.25454545463435,216.9650297742919 186.5351778655313,216.14146742766025 188.00790513842367,210.60111401049653 182.0529644265771,207.0073480689316 177.12252964428626,212.8472084592795 177.12252964428626,216.590683372051 179.7478260868229,217.71372198563768 185.1905138338916,217.7885911631165 186.59920948604122,216.89016050973441 188.20000000018626,210.30163421214093 182.56521739135496,206.78273709199857 177.25059288553894,212.9220781516633 177.37865612632595,217.26450675388332 180.9003952567,217.41424519615248 181.9889328063,218.16293693240732 180.83636363619007,219.28597305191215 157.27272727247328,220.6336140440544 156.31225296435878,221.38230237556854 157.97707509878092,220.10953174100723 182.6932806323748,220.7084829127998 186.47114624478854,219.81005596468458 171.87193675874732,219.28597305191215 173.08853754936717,201.46692316554254 172.38418972329237,201.3171813505469 169.75889328075573,219.58544904959854 155.80000000004657,219.43571106658783 155.99209486157633,220.25926958123455 186.59920948604122,220.6336140440544 184.23003952531144,219.28597305191215 181.60474308300763,219.88492492074147 171.80790513847023,219.06136597052682 172.83241106709465,201.01769762445474 170.39920948608778,219.06136597052682 168.28616600786336,219.88492492074147 157.65691699599847,219.43571106658783 157.52885375497863,220.25926958123455 188.1359683794435,221.00795830861898 179.55573122529313,220.7084829127998 186.086956521729,220.6336140440544 186.086956521729,219.66031802940415 182.30909090908244,219.36084206326632" stroke="#4dd2ff" stroke-linecap="round" stroke-linejoin="round" stroke-width="0.5"><title>2022-09-22 5.0km</title></polyline><polyline fill="none" points="26.618757612770423,254.49197148894018 27.901339829550125,254.30738427008328 28.848477466613986,254.9303655075637 29.97320341062732,254.76885202425183 32.40024360548705,255.16109884771868 33.68282582226675,254.58426503976807 33.643361754133366,254.16894375342235 33.919610231532715,254.09972346226277 34.393179050064646,254.9072921601619 36.6820950062247,254.63041180052096 37.51084043853916,254.95343885259354 39.2472594397841,254.09972346226277 39.26699147396721,254.83807210318628 39.58270401961636,255.13802552466223 39.780024360632524,253.91513591143303 40.17466504278127,253.66132777403982 43.62777101120446,254.58426503976807 44.20000000006985,255.668711336868 43.17393422673922,252.27691455297463 41.9702801463427,249.71572692850896 40.23386114509776,250.3387212808302 39.70109622424934,249.96953965720604 37.51084043853916,249.64650522392185 34.84701583441347,251.74622048833407 31.019001218141057,251.81544152655988 30.52570036542602,250.77712364731997 27.151522533618845,251.26167260606599 25.967600487405434,251.53855724207824 27.34884287463501,252.16154638789885 33.03166869690176,252.11539910477586 33.919610231532715,251.74622048833407 35.53763702814467,251.74622048833407 36.543970767525025,252.11539910477586 38.59610231441911,251.88466254273953 38.97101096238475,250.91556631682033 38.30012180283666,250.31564744771458 37.15566382475663,250.20027824517456 35.41924482351169,251.14630390402453 34.27478684543166,250.31564744771458 32.7159561511362,250.7540498605522 30.762484774691984,250.7079022796388 30.7230207065586,251.86158887314377 29.12472594412975,251.5847046472045 26.677953715086915,251.97695719684998 25.434835566440597,251.5847046472045 24.586358099943027,251.9308098746842 23.185383678530343,251.88466254273953 15.095249695586972,249.43883997842204 15.568818514235318,248.70047305982735 14.266504263156094,248.33128866314655 13.496954933158122,248.88506502377277 11.800000000046566,248.58510300295893 12.11571254581213,248.86199103685794 15.075517661403865,249.2081005848886 17.759074299712665,248.74662106548203 18.607551766210236,249.5311356674938 19.67308160790708,249.3465442503366 20.284774665138684,249.5772834973468 19.890133983106352,253.03834291196836 19.337637028074823,253.03834291196836 20.56102314265445,253.56903383268218 19.83093788078986,253.66132777403982 19.653349573840387,254.37660449542454" stroke="#4dd2ff" stroke-linecap="round" stroke-linejoin="round" stroke-width="0.5"><title>2022-09-09 5.2km</title></polyline></svg>