<?xml version="1.0" encoding="utf-8" ?>
<svg baseProfile="full" height="300mm" version="1.1" viewBox="0,0,200,300" width="200mm" xmlns="http://www.w3.org/2000/svg" xmlns:ev="http://www.w3.org/2001/xml-events" xmlns:xlink="http://www.w3.org/1999/xlink"><defs /><rect fill="#222222" height="300" width="200" x="0" y="0" /><text fill="#FFFFFF" style="font-size:12px; font-family:Arial; font-weight:bold;" x="10" y="20">Over 5km Runs</text><text fill="#FFFFFF" style="font-size:4px; font-family:Arial" x="10" y="280">ATHLETE</text><text fill="#FFFFFF" style="font-size:9px; font-family:Arial" x="10" y="290">feng qijun</text><text fill="#FFFFFF" style="font-size:4px; font-family:Arial" x="120" y="280">STATISTICS</text><text fill="#FFFFFF" style="font-size:3px; font-family:Arial" x="120" y="285">Number: 25</text><text fill="#FFFFFF" style="font-size:3px; font-family:Arial" x="120" y="290">Weekly: 1.4</text><text fill="#FFFFFF" style="font-size:3px; font-family:Arial" x="141" y="285">Total: 146.2 km</text><text fill="#FFFFFF" style="font-size:3px; font-family:Arial" x="141" y="290">Avg: 5.8 km</text><text fill="#FFFFFF" style="font-size:3px; font-family:Arial" x="167" y="285">Min: 5.0 km</text><text fill="#FFFFFF" style="font-size:3px; font-family:Arial" x="167" y="290">Max: 10.0 km</text><polyline fill="none" points="11.987355435558129,55.251496898563346 11.799999999988358,55.09084770741174 11.799999999988358,54.65271259979636 12.59938319196226,44.66285494448675 12.811719352321234,43.976390817711945 13.76098689273931,44.23929237591801 14.298072474892251,44.07863037205243 15.559599074767902,44.1808698506793 18.0326908249408,45.02799404691905 18.43238242098596,44.91114963919972 20.106090979126748,45.53918716793123 20.218504240503535,45.93353485381522 20.79306090978207,46.09419469923887 21.592444101755973,45.78748028668633 23.366075558995362,46.05037839632132 23.765767154982314,45.845902132059564 24.477717810310423,46.29867059575918 25.364533538930118,46.16722183993261 26.67602158826776,46.38630303015816 27.462914417905267,46.00656207946304 27.42544333077967,45.72905841654574 27.700231302995235,45.71445294514706 27.9250578256906,46.254854357714066 28.649498843413312,46.313276005370426 29.336468774068635,46.10880013045971 30.03592906706035,46.28406518463453 30.910254433285445,45.8166912124434 30.960215882747434,46.240248941932805 31.172552043106407,46.38630303015816 31.747108712384943,46.254854357714066 32.13430994597729,45.53918716793123 33.857979953696486,46.16722183993261 33.845489591301885,45.74366388638737 34.89468003081856,45.78748028668633 36.05628373159561,45.33471014664974 36.51842713949736,42.53042329890013 36.85566692362772,42.209095126992906 37.30531996907666,42.0630366197729 39.091441788710654,42.442788417072734 39.478643022303004,42.2821243226208 41.1398612181074,42.38436513165652 42.176561295229476,42.16527759103337 44.199999999953434,41.3035298914474 43.91272166534327,40.748503101436654 42.25150346948067,41.39116549640312 40.40292983799009,41.69788967575005 36.605859676143155,41.34734770088107 35.45674633764429,42.34054765132896 35.25690053967992,43.070837174207554 35.45674633764429,43.509009033674374 35.18195836542873,44.5167990331538 33.857979953696486,44.750488417150336 33.19599074788857,44.61903818733117 32.37162683112547,44.064024726088974 31.122590593644418,44.034813429476344 30.62297609867528,44.35613735222432 29.523824209696613,44.472982229606714 28.624518118682317,44.253898003385984 25.751734772522468,44.283109253592556 25.539398612105288,43.71348875890544 25.664302235876676,43.62585462804418 27.21310717036249,43.55282614317548 27.937548188085202,44.12244730076054 27.825134926708415,44.23929237591801 25.127216653781943,44.253898003385984 25.16468774090754,43.85954552005569 24.952351580490358,43.72809444196173 21.3051657670876,44.38534858080675 19.256746337690856,43.976390817711945 15.709483423270285,42.60345232459076 15.234849653032143,42.618058125081006 15.059984579798765,42.4281825980288 15.584579799498897,42.17988343788602 16.13415574404644,42.442788417072734 17.50809560518246,42.36975930641347 17.882806476438418,42.807933390984545 18.182575173443183,42.807933390984545" stroke="#4dd2ff" stroke-linecap="round" stroke-linejoin="round" stroke-width="0.5"><title>2023-04-07 7.0km</title></polyline><polyline fill="none" points="47.79999999998836,51.769363679064554 47.91444270015927,48.94424695034104 48.219623234006576,47.50192862097174 51.09340659348527,47.78444574799505 54.04348508641124,48.61712450321647 54.29780219780514,48.06696230711532 57.52762951335171,48.78068582195556 67.30612244899385,48.61712450321647 70.68854003137676,49.30110693343158 71.85839874407975,48.94424695034104 72.31616954470519,46.19342083748779 72.68492935638642,45.73246633040253 74.96106750390027,45.97037852280482 75.40612244897056,45.80681393384293 77.02103610668564,45.910900512491935 80.20000000001164,44.81055278099666 80.00926216639346,44.230636320920894 76.66499215067597,45.22690158436308 75.17723704862874,45.25664073742519 72.46875981159974,44.87003125697083 71.32433281000704,45.910900512491935 71.0318681318895,48.12643940511043 69.83657770801801,48.349478298419854 68.97189952904591,48.20078574218496 67.94191522768233,47.59114461718127 66.81020408164477,47.62088326997764 66.37786499218782,47.933138744629105 65.2843014128739,48.00748518394539 64.57221350085456,48.00748518394539 64.22888540028362,47.78444574799505 61.5712715855916,47.87366156486678 61.30423861858435,47.75470712977403 61.04992150707403,47.189672188367695 56.94270015700022,47.94800803565886 54.76828885404393,47.56140595805482 50.90266875986708,46.13394292150042 48.09246467822231,46.282637664247886 48.01616954477504,45.25664073742519 49.275039246538654,45.94063952079159 51.207849293597974,46.04472600038571" stroke="#4dd2ff" stroke-linecap="round" stroke-linejoin="round" stroke-width="0.5"><title>2023-04-04 6.0km</title></polyline><polyline fill="none" points="87.5752918953076,61.064539340208285 108.31293420121074,62.31872420106083 115.28507256228477,41.62457223632373 98.12288582604378,33.68130484689027 85.78756411094218,47.68651797750499 85.25124577526003,59.81035368423909 92.40215691458434,63.57290826563258 110.99452587775886,60.22841565834824 114.39120867010206,43.923933154321276 100.44693194702268,33.05420342972502 85.25124577526003,49.776839783997275 86.32388244569302,62.31872420106083 110.6369803212583,61.90066266921349 114.74875422660261,42.46070378879085 100.80447750445455,32.63613570865709 92.40215691458434,38.907142248004675 85.25124577526003,49.149743474205025 85.07247299607843,60.85550845309626 105.27379696629941,64.19999999995343 111.53084421437234,61.48260104947258 114.56998144742101,42.46070378879085 100.26815916784108,32.63613570865709 85.78756411094218,48.52264696487691 85.07247299607843,61.2735702060163 102.41343251056969,63.36387764336541 110.27943476475775,61.064539340208285 114.74875422660261,41.41553929250222 99.19552249740809,32.218067898531444 85.60879133176059,48.73167915700469 85.78756411094218,61.69163187034428 96.69270359911025,63.36387764336541 111.53084421437234,60.64647754316684 114.74875422660261,42.251670933677815 99.19552249740809,31.79999999993015 85.43001855444163,48.73167915700469 85.96633688919246,61.90066266921349 107.24029752984643,62.94581633317284 111.17329865694046,60.85550845309626 114.56998144742101,41.2065063273767 100.08938639052212,32.218067898531444 86.14510966744274,47.68651797750499 84.71492743864655,60.85550845309626 110.27943476475775,61.69163187034428 113.85489033348858,41.833605157444254 100.44693194702268,32.63613570865709 91.68706580065191,38.907142248004675 85.78756411094218,48.73167915700469 85.60879133176059,61.90066266921349 104.91625140886754,63.36387764336541 110.6369803212583,60.85550845309626 114.03366311173886,41.2065063273767 99.73184083309025,32.42710181418806 88.46915578749031,43.29683498770464 84.71492743864655,61.064539340208285 90.7932019084692,63.57290826563258 110.45820754300803,61.90066266921349 114.56998144742101,42.878769431845285 101.16202306188643,32.63613570865709 92.40215691458434,39.11617545702029 85.25124577526003,49.56780770246405 84.71492743864655,61.064539340208285 88.82670134492218,63.15484699921217" stroke="#4dd2ff" stroke-linecap="round" stroke-linejoin="round" stroke-width="0.5"><title>2023-03-30 5.2km</title></polyline><polyline fill="none" points="151.88338762207422,60.684855956205865 152.20000000001164,58.05815048774821 150.13448115403298,57.37061671777337 146.32005583989667,56.84174265713955 146.0939041414531,56.630192562995944 146.289902280143,53.91527585446602 147.25481619354105,53.70372204591695 147.99357840855373,46.65177475976816 147.66188925079769,46.49310251325369 147.34527687297668,46.75755617347022 146.30497906001983,46.68703523845761 146.56128431827528,46.63414451762219 146.32005583989667,46.40495119993284 142.73178222426213,47.30409240820154 141.2693345741718,47.26883206005732 140.3948813401512,46.47547225432936 139.2641228478169,44.306936180975754 137.30414146120893,42.66729261042201 136.76137738476973,42.54387792535999 136.48999534663744,42.08547972346423 133.565100046515,41.46840322963544 131.13773848296842,40.32239796416252 130.56482084683375,38.92955018450448 130.4291298277676,37.41327227684087 129.63006049318938,36.3730271274253 128.36361098184716,36.16145104805764 124.54918566771084,36.86670360127755 123.8255002326332,36.6903907428059 122.24243834341178,35.47382693453983 121.48859934852226,35.31514404380869 119.79999999998836,35.509089778614 121.80521172634326,35.36803835752653 123.55411819450092,36.49644638301106 124.54918566771084,36.84907232380647 128.3033038622234,36.19671374661266 129.56975337362383,36.39065845528967 130.3838994880789,37.44853471046372 130.54974406701513,38.98244335086201 131.13773848296842,40.34002887408133 133.27864122850588,41.41551085242827 136.36938110744813,42.01495681126835 136.80660772451665,42.596769944473635 137.30414146120893,42.68492327223066 138.64597487199353,43.68986791331554 139.50535132619552,44.71243694133591" stroke="#4dd2ff" stroke-linecap="round" stroke-linejoin="round" stroke-width="0.5"><title>2023-03-28 5.0km</title></polyline><polyline fill="none" points="159.05365168536082,51.20602974105714 159.34943820221815,48.279404145832814 159.17879213480046,47.78719224134693 158.89438202243764,47.61425246615545 157.59747191006318,47.946828745778475 157.50646067410707,47.694070853503945 155.79999999998836,47.29497841021657 155.89101123594446,46.882581554840726 157.74536516855005,47.361493905380485 162.06839887640672,47.37479700020049 166.09564606734784,48.598675702414766 168.30266853928333,48.971158160573395 177.00561797752744,48.811522956464614 179.8042134831776,49.38354816665378 180.77120786509477,48.997764008221566 181.2262640449335,46.58991199830052 181.55617977527436,46.17751283058897 183.70632022467908,46.4302737712278 183.85421348310774,46.2440289168735 185.66306179773528,46.31054496795696 188.20000000001164,45.39262035543652 188.0634831460775,44.79397025894286 186.24325842695544,45.499046740886115 184.85533707862487,45.72520251086098 183.3650280899019,45.69859597083996 181.63581460673595,45.379317050930695 181.20351123588625,45.499046740886115 180.30477528087795,46.2440289168735 180.0772471909877,46.86927840793214 180.13412921340205,47.50782787089702 179.62219101120718,47.53443402815901 179.25814606738277,47.946828745778475 179.24676966294646,48.332616128231166 178.89410112350015,48.505554915485845 178.07500000001164,48.212889136171725 177.7678370786598,47.467918624475715 177.17626404488692,47.188553544765455 176.3571629213402,47.361493905380485 175.8224719100399,48.106465047567326 174.90098314604256,48.25279814620444 174.3094101123279,48.25279814620444 173.99087078653974,48.039949946462 171.39705056179082,48.07985901134816 171.15814606740605,47.467918624475715 168.7235955055803,47.85370747615525" stroke="#4dd2ff" stroke-linecap="round" stroke-linejoin="round" stroke-width="0.5"><title>2023-03-26 5.6km</title></polyline><polyline fill="none" points="44.20000000001164,110.80142913521559 43.2779446640634,110.81640431388223 40.90877470362466,110.03769292305515 40.58861660078401,110.27729688423278 39.37201581028057,110.24734641122632 36.65707509883214,110.71157803002279 35.41486166010145,110.71157803002279 34.72332015814027,110.20242068987864 33.77565217396477,108.1807484725141 32.072411067259964,106.8029997509002 31.611383399227634,106.68319488043198 31.380869565240573,106.26387703538057 28.947667984175496,105.79963082932227 26.860237154120114,104.766303162236 26.347984189691488,103.59818454133347 26.232727272668853,102.34019986014755 25.63083003956126,101.45660869675339 24.4014229249442,101.24694218717923 21.276679841859732,101.81603627625736 20.559525691729505,101.68125104089268 18.164743083005305,99.89907863759436 18.318418972368818,99.1951892372308 17.396363636420574,97.15838316512236 17.140237154089846,97.00861685579002 17.127430830034427,96.39457333035534 16.71762845851481,95.91531799585209 16.627984189777635,95.33122336246015 16.435889328073245,95.06164041084412 15.731541501940228,94.82201068938593 15.308932806365192,94.14804992219433 15.180869565228932,93.8784647166467 15.65470355731668,93.63883299157897 13.15747035574168,89.83462500026508 11.799999999988358,87.15364533354295 13.003794466436375,89.59498642702238 16.307826086995192,94.74712631817965 16.205375494027976,94.98675616648688 17.08901185769355,96.30471307878906 17.076205533579923,97.0835000302759 17.42197628458962,97.26321948738769 18.331225296482444,99.28504765348043 18.1135177865508,99.83917329303222 18.54893280635588,100.01888925068488 18.881897233251948,100.51310695763095 20.533913043502253,101.6363226006215 21.135810276668053,101.77110787869606 24.388616600830574,101.24694218717923 25.592411067220382,101.51651335672068 26.194308300386183,102.2353672986792 26.283952569181565,103.44842504653207 26.847430830064695,104.766303162236 28.640316205564886,105.70977654904709 31.368063241126947,106.2788526940858 31.713833992078435,106.77304854278918 32.008379446633626,106.77304854278918 33.77565217396477,108.1807484725141 34.736126482253894,110.05266818252858 35.42766798421508,110.72655321817729 36.41375494078966,110.81640431388223 38.79573122528382,110.2323711723875 39.44885375490412,110.60675166851433 39.820237154199276,110.27729688423278 40.57581027672859,110.24734641122632 40.767905138316564,109.99276713520521 43.021818181849085,110.84635466645705 43.84142292494653,110.77147877318203" stroke="#4dd2ff" stroke-linecap="round" stroke-linejoin="round" stroke-width="0.5"><title>2023-03-18 7.0km</title></polyline><polyline fill="none" points="47.79999999998836,100.17253348427766 49.91375041817082,100.1091557559048 53.989494814304635,101.30065143984393 55.7238541317638,101.60486120508722 64.20053529611323,101.49078263362026 66.85627300100168,102.09920042635349 67.87520910002058,101.63021198398928 68.2437604549923,99.43734977432177 68.53643358987756,99.04440490703564 71.86423553031636,99.15848580771853 73.42515891604125,98.85426983122306 74.99692204751773,98.23315981403721 74.83432586153504,97.67542562630115 76.90471729676938,96.49656982236775 80.04824355972232,95.90079957364651 80.20000000001164,96.0022074847875 78.21632653067354,96.11629128217464 76.87219805951463,96.47121795723069 74.06470391439507,98.03034768252837 72.72057544329436,98.42329587554559 71.05125460017007,98.56272879554308 68.65567079291213,98.1951325655391 68.27627969218884,98.28386279328697 67.37658079626272,99.13313450584246 67.18146537302528,99.75423985761881 67.3332218133146,100.1091557559048 67.2248243559734,100.84433534377604 66.92131147545297,101.12319538676093 65.8806958849309,101.21192344614246 64.55824690527515,99.98240019860532 63.61518902645912,100.0838046551653 63.10572097694967,99.6781863140568 62.68297089327825,99.60213272219698 62.28190030111,99.74156427035632 61.794111743045505,100.32463989550888 61.51227835397003,100.34999094530212 60.98113081295742,100.79363344804733 60.10311140847625,100.84433534377604 59.918835730990395,100.22323564279941 56.82950819673715,100.55279915038409" stroke="#4dd2ff" stroke-linecap="round" stroke-linejoin="round" stroke-width="0.5"><title>2023-03-14 5.6km</title></polyline><polyline fill="none" points="113.37557603686582,105.0747278581839 112.28064516128507,104.92923174459429 110.20276497694431,104.24539794906741 108.70967741933418,104.6527887047414 108.39861751155695,104.39089478606184 105.82304147467948,105.001979820634 105.02672811062075,104.9583309796144 104.20552995393518,104.27449732876266 103.07327188941417,102.09202676414861 101.77926267281873,100.65157721827563 100.90829493082128,100.31692516394833 98.10875576036051,99.9386218610889 96.60322580643697,99.12381121258659 96.00599078339292,97.84338472469244 95.81935483869165,96.4610927469621 95.32165898615494,95.86452033776732 94.33870967745315,95.67536269196717 90.82995391706936,96.19918322752346 89.12534562213114,95.07878687386983 86.79861751146382,95.1515401610377 86.59953917050734,93.95838139120315 86.56221198150888,95.18064146506367 84.6087557603023,95.31159725718317 83.79999999998836,92.92527214183065 84.4594470045995,95.07878687386983 84.78294930869015,95.3697997914278 88.66497695847647,95.04968554826337 89.20000000001164,95.18064146506367 90.38202764972812,96.03912716449122 91.07880184333771,96.21373376947304 94.4506912442157,95.73356507223798 95.37142857146682,95.98092491351417 95.8566820276319,96.60659782003495 95.9935483870795,97.84338472469244 96.50368663592963,99.06561026717827 98.14608294924255,99.99682243696589 100.8460829492542,100.52062651141023 101.21935483871493,101.02987855992978 101.64239631337114,101.11717872171721 103.25990783405723,102.39757472819474 104.24285714287544,104.25994763968629 104.84009216586128,104.9583309796144 106.3953917050967,105.06017825371237 107.09216589858988,104.71098728565266 108.9211981567205,104.37634510926728 109.92903225804912,104.47819281434931 110.06589861749671,104.27449732876266 112.55437788018025,105.0747278581839 116.19999999995343,104.92923174459429" stroke="#4dd2ff" stroke-linecap="round" stroke-linejoin="round" stroke-width="0.5"><title>2023-03-12 6.0km</title></polyline><polyline fill="none" points="150.80520179367159,104.8107154442987 146.91139013448264,103.84229561216489 146.75156950671226,104.09714350258582 145.83623318385798,103.79132598555589 145.25506726454478,104.35199098857993 145.13883408071706,104.04617395687092 141.91336322872667,104.70877678958641 140.86726457398618,104.58984827733366 140.0826905829599,103.77433610639127 138.46995515696472,100.93700107649784 137.3076233183965,99.7476840577583 135.9854708519997,99.27195478387875 132.86170403589495,98.84719531278824 131.11820627795532,97.84475850620947 130.56609865475912,96.4685215108766 130.47892376681557,94.99032789611374 129.8541704036179,94.15777607663767 128.41578475339338,93.90291241178056 124.68179372197483,94.51458452786028 124.18780269060517,94.42963020663592 123.75192825112026,93.90291241178056 122.48789237672463,93.18929199801642 121.92125560541172,93.08734596574504 119.79999999998836,93.27424697547394 122.34260089683812,93.15530999442853 124.1442152466625,94.32768496181234 128.50295964127872,93.85193963028723 129.75246636767406,94.12379427804262 130.46439461881528,95.14324510800361 130.56609865475912,96.38356822337664 131.08914798207115,97.708834389603 132.99246636766475,98.76224328366516 136.18887892377097,99.407877577396 136.5666367712547,99.90059673927317 137.07515695074107,99.96855788436369 139.00753363227705,101.56563651390024 140.12627802690258,103.79132598555589 140.9689686098718,104.55586868623504 142.1603587443824,104.67479722364806 143.4970403587795,104.23306221207895 143.7295067263767,104.52188908787502 144.65937219728949,104.06316380719363 146.8387443945976,103.87627535425418 149.7591031389311,104.91265403426951 152.20000000001164,104.7257665698562" stroke="#4dd2ff" stroke-linecap="round" stroke-linejoin="round" stroke-width="0.5"><title>2023-03-05 5.0km</title></polyline><polyline fill="none" points="185.54958263773005,98.88418995396933 185.72988313867245,99.47440227495099 187.58697829721496,99.11605928846984 188.00166944914963,100.38079636660405 187.92954924877267,101.0131618976884 183.11552587652113,102.34112298600667 179.99632721219677,103.79554641262803 176.9853088480886,105.86123101958947 174.87579298834316,102.55190964708163 173.54156928230077,101.43473780436034 160.9926544240443,98.61016221121827 160.8484140234068,98.25181767162576 161.5515859767329,96.2914508519898 161.35325542581268,95.89094343193574 161.58764607692137,94.85805216245353 155.80000000004657,91.94906432391144 161.56961602682713,94.79481374769239 160.23539232066832,98.56800406350521 159.7485809683567,101.03424071424524 160.5058430719655,99.20037534320727 160.9926544240443,98.90526899557153 171.73856427392457,101.05531952848833 174.316861435771,102.23572957185388 176.5886477463646,106.05093567610311 181.31252086814493,103.16318970445718 183.3859766278183,102.27788694419723 188.20000000006985,100.94992543480475 187.58697829721496,98.18858033312426" stroke="#4dd2ff" stroke-linecap="round" stroke-linejoin="round" stroke-width="0.5"><title>2023-02-22 5.0km</title></polyline><polyline fill="none" points="11.799999999988358,153.75449598304112 12.003453689161688,150.1264390606957 12.283202511724085,149.62088271164976 15.18241758242948,149.76957594424312 18.50125588697847,151.00372370393598 19.632967032957822,151.07806960842572 20.14160125592025,151.4200602628116 20.599372056487482,151.27136877621524 22.773783359501977,151.59848983914708 23.320565149129834,151.50927507928282 24.1216640502098,151.86613377889444 24.83375196228735,151.7471809796989 26.35965463105822,151.94047922729806 27.37692307686666,151.36058368702652 27.415070643590298,151.65796631421836 27.821978021936957,151.83639558855793 28.432339089456946,151.8810028717271 28.96640502352966,151.67283542908262 30.009105180448387,151.8512646845047 30.75934065930778,151.13754630372568 31.191679748822935,151.06320043066808 33.40423861844465,151.56875159210176 33.569544740894344,151.76205008508987 33.65855572995497,151.22676129952015 34.68854003131855,151.28623793198494 35.832967032911256,150.9442469519854 36.21444270008942,149.48705866782984 36.30345368915005,148.16368070770113 36.81208791205427,147.67298683678382 37.981946624757256,147.91089923055551 41.338932495971676,147.89602971772547 44.199999999953434,146.78081177339482 43.882103610550985,146.24550401694432 42.48335949762259,146.79568140416814 40.61412872839719,147.19716084105312 39.39340659335721,147.22690001298906 36.545054944988806,146.85515991166176 35.31161695445189,147.8216821300739 35.07001569849672,148.56515623697487 35.17174254311249,149.1450633102795 34.30706436414039,149.44245062490518 34.09089481947012,150.1264390606957 33.683987441065256,150.3048702791857 32.933751962322276,150.18591615870537 32.056357927736826,149.63575204201334 30.86106750392355,149.62088271164976 30.365149136574473,149.93313831844716 28.724803767632693,150.03722336655483 28.381475667119958,149.79931457190833 24.52857142861467,149.84392250159 23.80376766086556,149.73983731032058 23.44772370485589,149.41271192175918 20.87912087904988,149.9628769114497 18.84458398737479,149.57627471120213 15.055259026703425,148.1785501921986 13.12244897952769,147.89602971772547 16.784615384589415,147.86629068742332" stroke="#4dd2ff" stroke-linecap="round" stroke-linejoin="round" stroke-width="0.5"><title>2023-02-10 5.9km</title></polyline><polyline fill="none" points="55.270429874013644,156.30904792658112 55.31263569253497,151.85088069856283 56.77577073377324,151.86733173509128 59.20963960047811,152.49246983281046 60.54615718621062,152.0976460634556 61.09483282675501,150.43608504851 61.19331306981621,148.9719225087756 61.615371254854836,148.51128425223578 64.0492401215015,148.85676307258836 64.51350412500324,148.6264439443039 66.80668693000916,148.65934669780836 69.14207555359462,147.91903306024324 73.2360399478348,145.86258779624768 77.92088580114068,145.2209713075572 80.19999999995343,144.3654785375693 80.07338254444767,144.4641894820088 79.84828484582249,144.06934532825835 79.89049066428561,143.69095207343344 79.13078593136743,144.11870090234152 77.17524967429927,144.61225578117592 76.33113330439664,144.64515938404656 76.1341728180414,144.3983821926813 73.51741207117448,144.87548440932005 71.78697351273149,145.51710232364712 68.93104646104621,147.1458128313825 66.83482414245373,147.80387284430617 64.27433782018488,147.98483885960013 62.23438992613228,147.60645513286 61.221450282260776,147.63935810211115 60.06782457657391,148.6264439443039 59.80052105942741,149.38320551342622 59.88493269647006,150.13996339977894 59.26591402513441,150.13996339977894 58.815718627825845,150.56769448920386 58.717238384648226,151.20928891740914 58.2529743812629,151.42315313857398 57.32444637425942,151.07768001973454 56.98679982626345,150.18931704708666 56.12861485022586,149.74513365763414 55.157881024701055,150.02480482855754 54.62327399040805,150.86381532344967 53.469648284837604,151.07768001973454 52.61146330862539,151.09413113801565 52.316022579267155,150.847364180765 48.01102909242036,150.81446189020062 47.79999999998836,150.6334991677286 48.10950933559798,150.27157309104223 50.41676074679708,150.1070609595481 50.68406426400179,150.94607101062138 51.82362136337906,150.86381532344967 52.76621797651751,150.25512188574066 53.638471558806486,150.32092669658596 54.046461137593724,149.82738993657404 54.52479374728864,149.8109386842989 55.29856708634179,150.64995033305604 56.33964394259965,150.60059683193685 56.9586626139353,151.1105822545651 58.23890577501152,151.4560553003539 59.659834997786675,151.25864222529344 60.025618758110795,150.0577072861488 60.06782457657391,151.14348448246892 59.57542336086044,151.5383106743102 57.77464177162619,151.29154442188155 57.3385149804526,151.09413113801565 56.846113764622714,150.07415851236146 54.14494138077134,149.2844976914639 53.469648284837604,149.44901069317712 51.795484151050914,150.81446189020062 50.95136778114829,150.79801074235002 50.51524099003291,150.156414617275 50.90916196262697,149.90964617204736 51.59852366481209,149.90964617204736 52.175336517510004,150.41963386062707 53.582197134091984,150.32092669658596 54.21528441156261,149.87674368308217 54.80616587062832,150.35382909156033 55.32670429866994,150.00835359714983 56.24116369948024,149.82738993657404" stroke="#4dd2ff" stroke-linecap="round" stroke-linejoin="round" stroke-width="0.5"><title>2023-02-05 7.1km</title></polyline><polyline fill="none" points="84.1850594227435,155.06030286615714 84.47843803052092,152.4123182787298 84.68930390494643,152.3372731729105 86.21120543294819,152.58384974052024 86.75212224107236,152.49808404592477 88.18234295415459,153.10916303611884 88.79660441423766,153.17348692598898 89.08998302207328,151.89772215139965 88.86994906619657,151.45816922335507 88.23735144309467,151.46889004917466 87.93480475380784,151.16870649786142 86.22954159590881,151.31879838465102 85.21188455005176,151.1472647815899 84.73514431237709,150.78275491100794 83.86417657049606,150.62194131598517 83.79999999998836,151.27591501110874 83.86417657049606,150.65410405539296 84.1758913412923,150.63266223024402 84.34091680817073,150.7613131130929 84.3225806451519,151.21158991675475 84.49677419353975,151.49033169736504 86.6421052631922,151.31879838465102 89.04414261458442,152.29439023036684 90.63022071309388,152.6696153625162 91.60203735146206,152.50880476171733 92.22546689305454,152.75538091194903 92.87640067911707,152.70177745204273 93.63735144311795,152.85186706826062 95.48013582342537,152.5624083236471 96.89202037348878,152.74466022222623 97.68964346352732,152.6696153625162 97.92801358236466,152.4444804499435 98.83565365028335,152.42303900360275 99.1565365025308,152.70177745204273 99.91748726658989,152.94835313277872 100.79762308998033,152.88402909999422 101.0543293718365,152.6910567566738 101.04516129026888,151.65114391434327 101.21935483871493,151.16870649786142 101.93446519522695,150.50401118410082 104.51069609506521,150.73987131062313 105.87674023763975,150.5576158065087 106.97691001696512,150.1823828541601 109.80067911709193,148.76720607478637 112.89949066215195,148.42412993971084 115.69575551780872,147.15902665265457 116.1724957554834,146.29059915186372 115.93412563658785,144.93969713385013 116.20000000001164,146.23699227209 116.09915110352449,146.56935446940042 115.9616298811161,146.8909942675018 114.82478777586948,147.5771557577391 114.64142614597222,147.87734994865605 113.917147708009,147.92023476046597 113.10118845500983,148.34908188034024 111.68930390488822,148.63855266023893 110.89168081490789,148.5742258917162 109.51646859082393,148.82081161595852 106.95857385394629,150.15021996500582 105.77589134121081,150.54689488431177 104.01561969442992,150.7077085983983 102.03531409165589,150.4396855997693 101.14601018675603,151.12582306079275 100.89847198640928,150.91140560327767 101.17351443122607,151.2330316193984 101.02682512730826,151.5975398703522 101.13684210524661,152.01565066137846 100.97181663836818,152.1979035432305 101.03599320881767,152.5624083236471 100.83429541590158,152.81970502639888 99.98166383698117,152.94835313277872 98.95483870967291,152.5624083236471 98.87232597620459,152.39087682561512 97.9646859082859,152.4015975527509 97.57962648558896,152.6374532627524 96.81867572152987,152.70177745204273 96.36943972838344,152.70177745204273 96.1310696094879,152.54096690229926 94.18743633280974,152.5945704472324 93.14227504248265,152.45520117139677 92.00543293717783,152.62673256057315 91.50118845503312,152.4659218917368 90.7860780984629,152.65889466374938 89.42920203733956,152.39087682561512 86.5687606111751,151.3616817400616 85.9361629881314,151.26519416489464 84.48760611203033,151.47961087383737 84.30424448219128,151.1043813354554 84.44176570459967,150.71842950361315 85.20271646854235,151.19014820958546 86.03701188456034,151.3616817400616 87.88896434631897,151.16870649786142 88.16400679119397,151.46889004917466 88.58573853987036,151.50105251975037" stroke="#4dd2ff" stroke-linecap="round" stroke-linejoin="round" stroke-width="0.5"><title>2022-12-15 10.0km</title></polyline><polyline fill="none" points="119.79999999998836,154.3436468021755 120.08611449453747,150.45579351587367 122.44409257004736,150.61730946809257 122.74993909866316,150.8249724837733 124.75274056033231,151.2864444361403 125.06845310598146,149.94817039439658 124.98952496954007,149.53284062840248 124.13118148600915,149.4751558136195 123.8352009744849,149.09443527052645 122.76967113272985,149.1405832859018 122.35529841657262,148.94445408555475 121.68440925702453,149.1867312817776 120.98392204631818,149.1405832859018 120.02691839222098,148.58680581209046 119.9282582217129,149.11750928063702 120.16504263097886,149.4866927790208 122.37503045075573,149.1521202867225 122.71047503052978,149.5559145458319 125.1769792935811,150.4096460570072 126.844336175418,150.75575152249075 127.74214372719871,150.5596252269097 128.5314250913798,150.8134356599403 130.43556638248265,150.83650930636213 131.48136418999638,150.77882518112892 131.91546894033672,150.58269892704993 133.48416565166553,150.8134356599403 134.26358099881327,150.75575152249075 134.62862362974556,150.47886723799456 135.54616321559297,150.47886723799456 135.78294762485893,150.72114102534397 136.60182704019826,150.8941934011018 136.82874543243088,151.13646626583068 137.06552984163864,150.85958294792363 137.54896467726212,150.9634142744835 137.87454323994461,150.83650930636213 138.0915956151439,149.1405832859018 138.9696711327997,148.36760145180597 141.0020706455689,148.62141698661435 142.67929354449734,148.54065756233467 144.12959805119317,148.1599337567095 146.99074299639324,146.6600997717178 150.8088915956905,146.14092166291084 151.95334957371233,145.6563531978245 152.0914738124702,146.17553361374303 152.20000000001164,146.14092166291084 151.134470158373,146.55626434774604 147.8589524969575,146.94853098632302 144.04080389771843,148.67910225300147 142.6102314250893,149.07136125546094 140.93300852621906,149.1751942846604 139.18672350794077,148.93291706280434 138.8907429963583,149.2790272149723 138.83154689404182,150.2712035632794 138.48623629723443,151.4710326703862 137.9732034105109,151.66715732688317 137.52923264313722,151.78252460712974 135.3488428745768,151.25183410746104 133.3361753958743,151.2864444361403" stroke="#4dd2ff" stroke-linecap="round" stroke-linejoin="round" stroke-width="0.5"><title>2022-12-12 7.2km</title></polyline><polyline fill="none" points="156.32419106311863,153.6266983615351 156.58628659474198,149.9635617659951 156.4989214176312,149.62789099814836 155.81248073960887,149.5403245765483 155.79999999998836,149.10249163488334 159.3320493066567,149.16086944076233 163.2510015408625,150.3576090165443 166.05916795070516,150.91219212912256 175.7067796610063,150.766249420878 176.79260400612839,150.85381506435806 178.62727272725897,151.45217880717246 179.2013867488131,151.262453998992 179.9627118643839,150.88300359982532 180.32465331279673,149.55491898403852 180.38705701078288,148.32898337540973 180.64915254240623,147.92033575160895 181.2856702619465,147.8181736564875 183.09537750383606,148.18303793444647 183.48228043143172,147.9787140576518 185.3044684129418,148.0370923390292 186.6149460708839,147.68682228014222 188.20000000001164,146.92790076830715 187.97534668719163,146.3733016384649 184.74283513100818,147.35114597254142 183.2576271186117,147.39492988504935 180.48690292751417,147.05925286716956 179.40107858245028,148.0224977710168 179.18890600919258,148.60627928790927 179.36363636364695,149.17546388835763 179.16394453000976,149.52573016757378 179.23882896761643,149.94896740178228 178.91432973806513,150.29923171710107 178.3277349768905,150.24085439299233 177.5664098612615,150.47436354127422 177.21694915252738,150.1240996705892 176.50554699532222,150.00734484940767 176.34329738060478,149.80302367456898 176.28089368256042,149.9343730359833 175.13266563945217,149.8176180542505 173.44776579353493,150.13869401627744 172.8611710323603,150.15328836045228 172.47426810470643,149.89058992937498 169.90323574730428,149.97815612865088 168.4055469954037,149.78842929334496 166.8828967642621,150.00734484940767" stroke="#4dd2ff" stroke-linecap="round" stroke-linejoin="round" stroke-width="0.5"><title>2022-12-06 5.0km</title></polyline><polyline fill="none" points="11.799999999988358,204.9531103395857 12.077176901919302,201.85088394193008 12.225664527970366,202.00136710279912 14.304491292394232,202.0245183399602 17.0267644362757,202.92741276819288 17.125756187015213,203.12419646244234 16.97726856096415,203.12419646244234 17.105957836844027,202.9158372457241 16.8188817598857,202.92741276819288 16.571402383153327,202.672750991449 16.789184234687127,202.74220426204556 17.03666361136129,201.07531360019493 16.878276810224634,201.17949501050316 16.89807516039582,201.5151899911507 17.264344637980685,201.8161570292723 18.759120073344093,202.18657686283404 19.669844179647043,202.01294272197993 20.481576535326894,202.26760603428556 21.74867094407091,202.3023328036943 24.49074243818177,202.0592451864868 25.252978918433655,202.26760603428556 26.371585701184813,202.15185005672538 26.648762603115756,201.9319133619574 27.628780934901442,201.9319133619574 27.72777268558275,202.12869884647807 28.935472044046037,202.4759664853409 29.87589367554756,202.3139083910355 30.103574702108745,200.56598083306744 31.014298808411695,199.80197723685706 33.62768102658447,200.06822151991219 34.89477543538669,199.95246321560262 36.30045829509618,199.52415642469714 38.953437213553116,198.1118897221968 39.85426214477047,197.88036885148904 42.23006416129647,197.68357572621608 43.52685609529726,197.33629287691292 44.03171402378939,197.04688966040703 44.19010082492605,197.6141192445357 44.199999999953434,197.48678224693867 42.18056828598492,198.15819383755297 39.3989000916481,198.52862605489645 37.95362053165445,199.25791081775242 35.27094408799894,200.41549569812923 33.241613198886625,200.50810195949452 33.023831347352825,200.63543544094136 31.19248395966133,200.41549569812923 26.371585701184813,202.7306287200263 21.788267644355074,202.82323302207806" stroke="#4dd2ff" stroke-linecap="round" stroke-linejoin="round" stroke-width="0.5"><title>2022-11-27 5.6km</title></polyline><polyline fill="none" points="47.79999999998836,202.91922666001483 49.08544102020096,203.10711826270563 49.44123273110017,202.99975166666263 50.02656748139998,203.2950095870765 50.41679064818891,203.22790557457483 52.47120085009374,203.85868189061875 52.81551540910732,202.26160385925323 52.63188097765669,201.99318540988315 52.700743889436126,202.54344261986262 53.2746014877921,202.9058058206283 55.087991498352494,203.2547471838625 55.94877789582824,202.99975166666263 56.855472901137546,203.32185118210327 60.1723698193091,203.2950095870765 60.8150903294445,203.0802766222041 62.57109458022751,203.2950095870765 63.51222104142653,203.24132637993898 63.93687566416338,202.91922666001483 65.07311370875686,202.9058058206283 65.1993623803719,203.1608015266247 66.51923485647421,203.56342528208916 67.41445270983968,203.44263828960538 67.79319872474298,203.0534349760128 67.91944739635801,202.39581287097826 67.7702444207971,201.85897597229632 67.95387885224773,201.30871579346422 69.00977683311794,200.4497683045629 71.66099893726641,200.78529535963025 73.46291179594118,200.65108464407967 75.33368756639538,200.02029237919487 78.01934112643357,198.557379096761 80.19999999995343,198.14131810938125 78.19149840588216,198.47685127024306 75.27630180650158,200.0471346671111 73.41700318804942,200.6376635647175 71.69543039315613,200.74503215985897 69.30818278423976,200.38266278707306 68.88352816150291,200.46318940383208 67.91944739635801,201.36239981839026 67.74729011685122,201.85897597229632 67.89649309241213,202.39581287097826 67.68990435701562,202.75817649340024 67.7702444207971,203.17422233907564 67.46036131767323,203.4560590722249 66.17492029751884,203.5097421884857 64.8206163655268,202.865543293854 63.89096705627162,202.87896413751878 63.44335812958889,203.21448476782825 62.364505844831,203.2815887874167 61.50371944735525,203.06685579982877 57.87693942611804,203.01317249612475" stroke="#4dd2ff" stroke-linecap="round" stroke-linejoin="round" stroke-width="0.5"><title>2022-11-23 5.3km</title></polyline><polyline fill="none" points="83.79999999998836,201.77987520722672 86.55827338126255,202.11301453909255 89.64028776984196,202.96100206709525 90.04172661865596,201.1741653446952 89.95107913669199,200.7501669159392 89.54964028776158,200.55331007561472 88.90215827338398,200.6138814399019 88.33237410068978,200.14445269605494 86.93381294963183,200.18988135139807 86.6230215827236,200.35645296456642 86.67482014390407,200.5078815355373 91.0776978416834,202.00701574487903 92.45035971229663,202.1735852434067 93.17553956829943,201.7647324919235 94.082014388463,201.9161595730693 95.18273381295148,201.7193043363368 95.40287769783754,202.03730112266203 96.02446043171221,202.12815721759398 99.5985611511278,202.03730112266203 100.49208633095259,202.3250118920696 102.00719424465206,202.24929858774703 102.49928057554644,201.90101687215792 103.7683453237405,201.88587416964583 104.06618705030996,202.21901325481304 105.58129496406764,202.5975794559199 106.88920863310341,202.26444125184207 106.86330935254227,201.65873343980638 107.0575539568672,201.35587857261999 106.91510791372275,200.59873860119842 107.16115107916994,200.02330954444187 108.28776978421956,199.12987563529168 112.21151079138508,199.5084500064404 114.36115107918158,199.06930364291475 115.87625899282284,198.41815310667153 116.20000000001164,199.0087316249992 114.94388489209814,199.56902181291662 112.6906474819989,200.14445269605494 111.09784172667423,200.05359534198942 110.83884892088827,200.22016711365723 108.80575539573329,199.85673754365416 108.40431654674467,199.96273793022556 108.08057553955587,200.38673869153718 107.92517985613085,202.1735852434067 107.53669064753922,203.2789960949449 106.65611510793678,203.58184689331392 103.18561151082395,202.91557429115346 93.42158273380483,203.12757045550097 89.78273381298641,202.43101045081858" stroke="#4dd2ff" stroke-linecap="round" stroke-linejoin="round" stroke-width="0.5"><title>2022-11-18 5.5km</title></polyline><polyline fill="none" points="119.79999999998836,204.55051113619993 120.15646365424618,200.82884603638377 120.99669941066531,201.03726188353903 121.81147347745718,200.91816715151072 124.02664047153667,201.17124333651736 126.19088408647804,201.9155824193731 126.53461689595133,200.32269197964342 126.47096267191228,199.62300543277524 125.45249508845154,199.57834447127243 124.91779960709391,199.1019599996216 123.56833005900262,199.1615081467753 123.30098231835291,199.503909503881 123.41555992147187,199.62300543277524 126.87834970530821,200.78418545753811 129.0935166993877,201.24567742198997 129.9592141454341,200.94794084396563 130.9649508841103,201.29033785438514 134.65689587430097,201.2754510451632 135.3698231827002,201.02237504752702 137.3303732809727,201.29033785438514 138.32337917486439,201.23079060806776 138.9853831041837,200.91816715151072 140.01658153237076,200.93305399853853 140.32212180749048,201.23079060806776 141.88801571709337,201.55830015095125 143.1229076620657,201.2754510451632 143.32660117879277,200.30780506804876 143.1611001964775,199.69744033720053 143.3775245579891,199.14662111237703 144.48510805499973,198.13429907649697 148.71174852654804,198.46181582621648 150.40495088405441,198.1045247887232 152.0599607072072,197.44948886381462 152.20000000001164,198.04497619430185 149.0936738703167,199.11684703874926 146.02554027509177,199.17639517960197 145.14711198426085,198.86376715901133 144.61241650296142,199.02752478022012 144.3450687622535,199.384813474142 144.21776031435002,200.94794084396563 143.87402750487672,202.16865681065246 142.83009823184693,202.52593752946996 140.4621611001785,201.93046916088497 129.97194499021862,202.06444976352213" stroke="#4dd2ff" stroke-linecap="round" stroke-linejoin="round" stroke-width="0.5"><title>2022-11-06 5.5km</title></polyline><polyline fill="none" points="155.80000000004657,210.97721267252928 156.54708737856708,206.95429049119412 157.07791262143292,195.94259692629566 157.53009708737954,193.89652141592524 157.64805825252552,194.103428803719 160.04660194180906,194.0344596963114 166.79004854371306,195.5517750025465 167.26189320383128,192.33321478524886 167.08495145628694,193.2528082828794 167.81237864075229,193.78157278202707 171.31189320387784,194.49425333208637 178.52718446601648,193.0688898946537 178.99902912625112,193.0688898946537 179.09733009710908,194.35631534352433 180.7094660194125,194.12641850129876 182.34126213600393,194.2183772673743 182.9507281553233,194.60920158898807 185.5458737864392,194.5172429883678 186.3716019417625,193.9425008524704 186.3912621360505,193.0918797017075 188.08203883492388,192.5861033850233 188.20000000006985,191.41361739618878 187.57087378646247,191.02278732748528 186.50922330108006,192.44816418524715 186.70582524267957,192.99992045898398 186.27330097090453,193.18383890557743 185.5655339807272,194.35631534352433 183.40291262138635,194.63219123314775 182.34126213600393,194.2183772673743 176.2072815534193,194.2183772673743 175.71577669901308,194.58621194248553 174.2216019417392,194.58621194248553 172.66844660206698,194.05744940123986 171.1546116505051,194.49425333208637 168.52014563116245,194.0114699889964 162.40582524274942,192.0113561417529 162.2092233010335,191.64351710829942 162.6810679611517,191.48258733538387 164.78470873786137,191.229697451432 165.47281553398352,192.0113561417529 166.14126213593408,191.96537629666273 165.4531553396955,191.94238637042872 164.74538834951818,191.27567745222768 163.62475728150457,191.27567745222768 162.48446601943579,191.4366073783749 162.34684466011822,192.0343460606382 168.6184466020204,194.12641850129876 166.9473300970858,193.16084910828795 167.04563106794376,192.33321478524886" stroke="#4dd2ff" stroke-linecap="round" stroke-linejoin="round" stroke-width="0.5"><title>2022-11-02 5.0km</title></polyline><polyline fill="none" points="12.797690531180706,259.40073529529036 12.747806004597805,259.09451407067536 11.862355658144224,258.9778581871651 11.799999999988358,258.5549797821732 12.124249422631692,256.36765698304225 12.124249422631692,254.3552893595479 12.323787528846879,253.93239677631937 12.211547344108112,252.38664043585595 12.485912240168545,249.1492455247353 12.747806004597805,247.92426546217757 12.959815242444165,248.08468013738457 15.441570438735653,247.9971812467702 18.63418013858609,248.9888320883183 18.945958429540042,246.90344042801007 18.783833718276583,247.38468745739374 19.008314087754115,247.73468424171733 21.56489607389085,248.31801024083688 25.54318706697086,247.48676994460402 26.890069284068886,247.45760352740763 27.650808314036112,247.8367664697289 28.062355658214074,247.5888523562462 29.7459584295284,247.63260193807946 30.257274826755747,247.16593901596207 31.01801385683939,247.54510276051587 31.9782909930218,247.20968873203674 32.70161662809551,247.5305195588735 33.02586605073884,248.3763427049853 33.923787528823595,248.6534215725842 35.183371824386995,248.39092581714795 35.39538106234977,247.29718812246574 35.24572748265928,246.7430243781855 35.48267898376798,246.1596917143179 36.25588914542459,245.38677213236224 37.01662817550823,245.22635431755043 39.211547344049904,245.57635658192157 40.658198614255525,245.57635658192157 42.26697459578281,245.27010464918567 43.96304849872831,244.5992647047242 44.199999999953434,245.1096866986336 42.82817551959306,245.75135738083918 40.99491916853003,246.21802509178815 39.09930715931114,246.33469177268853 36.767205542710144,246.0721916018374 36.418013856804464,246.48052498495963 35.95658198610181,249.1638285551744 34.971362586540636,249.52840381427086 31.442032332590315,248.93049988332496 21.96397228637943,249.1200794592587 19.120554272492882,248.52217375735927 18.771362586587202,250.7387867603975" stroke="#4dd2ff" stroke-linecap="round" stroke-linejoin="round" stroke-width="0.5"><title>2022-10-28 6.2km</title></polyline><polyline fill="none" points="47.79999999998836,255.5055856143881 48.00281690148404,252.39284676432726 48.21830985916313,251.8295818696497 48.4211267606006,252.03710077849973 49.967605633777566,251.8888730178005 51.184507042285986,252.02227800946275 53.74507042259211,252.89681869813649 54.2647887323983,252.77823722972244 54.556338028167374,251.192200442194 54.44225352111971,250.6585765522177 54.06197183101904,250.48070147055842 53.32676056335913,250.5399931895372 52.90845070418436,250.12495062983362 51.552112676086836,250.19906546280254 51.361971831007395,250.3769409020024 51.51408450701274,250.6289307209081 55.405633802874945,251.96298691772972 56.67323943669908,252.18532838232932 62.03521126759006,251.39972029507044 62.08591549296398,252.14086011765175 63.86056338035269,252.02227800946275 65.02676056337077,252.3039103525225 68.00563380285166,251.9333413624845 68.14507042255718,252.21497388428543 69.61549295770237,252.5855421294982 70.80704225349473,252.46696039763629 71.06056338030612,252.2594421254471 71.03521126759006,251.63688546481717 71.23802816902753,251.37007462058682 71.08591549296398,250.64375363734143 71.32676056335913,250.0953046856739 72.42957746481989,249.1614542336465 75.53521126753185,249.50238448508026 76.77746478869813,249.44309232705564 78.22253521124367,249.1614542336465 79.8830985915265,248.4944143856119 80.20000000001164,249.01322343072388 78.72957746475004,249.65061477046402 76.79014084511437,250.1545965677651 75.28169014083687,250.0953046856739 75.01549295772566,250.2287113850034 73.0,249.88778290087066 72.5690140844672,250.00636681556352 72.30281690141419,250.406586786572 72.22676056338241,251.69617669453146 71.83380281692371,253.16362663511245 70.78169014083687,253.48972453491297 69.86901408445556,253.40078881933005 69.716901408392,253.1339813339 69.20985915500205,253.2080945752532 67.94225352117792,252.9116413746233 62.5295774647966,252.9857547335705" stroke="#4dd2ff" stroke-linecap="round" stroke-linejoin="round" stroke-width="0.5"><title>2022-10-20 5.2km</title></polyline><polyline fill="none" points="91.11755102034658,253.46911108901259 91.60244897950906,254.2165335098107 92.88081632647663,254.57735730614513 94.20326530607417,254.08766773877142 97.64163265295792,254.44849172589602 97.88408163271379,254.06189457635628 98.4571428571362,254.68044972115604 99.47102040820755,254.9381805680605 100.19836734700948,254.68044972115604 103.54857142851688,255.0154997689242 104.69469387747813,253.9330287235498 105.37795918365009,254.55158419552026 106.98693877551705,254.1649872095586 108.55183673463762,254.3969454748003 110.51346938777715,254.1134408984217 110.77795918355696,255.99487418975332 111.10857142857276,255.71137147276022 111.17469387757592,253.8299359921948 111.7918367346283,253.39179139738553 115.42857142852154,254.47426484737662 116.19999999995343,255.76291744585615 115.6710204082774,253.67529681345331 113.73142857139464,249.0618495024246 111.02040816319641,250.01547426563047 110.20489795913454,251.35569735332683 108.1330612244783,251.69075197321945 107.0751020408934,251.69075197321945 106.65632653061766,251.2783769909438 100.04408163262997,251.30415044780239 99.5151020407211,250.91754830884747 96.56163265311625,251.4845645693713 96.03265306120738,251.0721892380243 102.51265306118876,250.17011576739606 102.84326530620456,250.78868079291715 102.4244897958124,251.43301769104437 99.31673469394445,251.0721892380243 96.71591836726293,251.4845645693713 95.79020408156794,251.14950966583274 100.35265306115616,250.29898361054074 102.77714285708498,250.22166291279427 102.82122448983137,251.02064227257506 102.46857142855879,251.43301769104437 99.2506122449413,251.0721892380243 96.56163265311625,251.4587911315757 95.81224489805754,251.17528313629737 97.64163265295792,250.84022780749365 98.21469387749676,251.20105660408444 102.38040816329885,251.5618848662416 102.77714285708498,251.25260353132035 102.79918367334176,250.22166291279427 101.30040816322435,250.0927950288169 94.07102040806785,251.58765829306503 90.7869387754472,250.99486878571042 84.10857142845634,248.75256499374518 83.80000000004657,248.34018503814877 84.28489795909263,248.03089961341175 86.62122448976152,248.00512581024668" stroke="#4dd2ff" stroke-linecap="round" stroke-linejoin="round" stroke-width="0.5"><title>2022-09-24 5.1km</title></polyline><polyline fill="none" points="149.25454545463435,257.76502977428026 150.5351778655313,256.9414674276486 152.00790513842367,251.4011140104849 146.0529644265771,247.80734806891996 141.12252964428626,253.64720845926786 141.12252964428626,257.39068337203935 143.7478260868229,258.51372198562603 149.1905138338916,258.58859116310487 150.59920948604122,257.6901605097228 152.20000000018626,251.10163421212928 146.56521739135496,247.58273709198693 141.25059288553894,253.72207815165166 141.37865612632595,258.0645067538717 144.9003952567,258.21424519614084 145.9889328063,258.9629369323957 144.83636363619007,260.0859730519005 121.27272727247328,261.43361404404277 120.31225296435878,262.1823023755569 121.97707509878092,260.9095317409956 146.6932806323748,261.50848291278817 150.47114624478854,260.61005596467294 135.87193675874732,260.0859730519005 137.08853754936717,242.2669231655309 136.38418972329237,242.11718135053525 133.75889328075573,260.3854490495869 119.80000000004657,260.2357110665762 119.99209486157633,261.0592695812229 150.59920948604122,261.43361404404277 148.23003952531144,260.0859730519005 145.60474308300763,260.6849249207298 135.80790513847023,259.8613659705152 136.83241106709465,241.8176976244431 134.39920948608778,259.8613659705152 132.28616600786336,260.6849249207298 121.65691699599847,260.2357110665762 121.52885375497863,261.0592695812229 152.1359683794435,261.80795830860734 143.55573122529313,261.50848291278817 150.086956521729,261.43361404404277 150.086956521729,260.4603180293925 146.30909090908244,260.1608420632547" stroke="#4dd2ff" stroke-linecap="round" stroke-linejoin="round" stroke-width="0.5"><title>2022-09-22 5.0km</title></polyline><polyline fill="none" points="170.61875761277042,254.49197148894018 171.90133982955012,254.30738427008328 172.84847746661399,254.9303655075637 173.97320341062732,254.76885202425183 176.40024360548705,255.16109884771868 177.68282582226675,254.58426503976807 177.64336175413337,254.16894375342235 177.91961023153272,254.09972346226277 178.39317905006465,254.9072921601619 180.6820950062247,254.63041180052096 181.51084043853916,254.95343885259354 183.2472594397841,254.09972346226277 183.2669914739672,254.83807210318628 183.58270401961636,255.13802552466223 183.78002436063252,253.91513591143303 184.17466504278127,253.66132777403982 187.62777101120446,254.58426503976807 188.20000000006985,255.668711336868 187.17393422673922,252.27691455297463 185.9702801463427,249.71572692850896 184.23386114509776,250.3387212808302 183.70109622424934,249.96953965720604 181.51084043853916,249.64650522392185 178.84701583441347,251.74622048833407 175.01900121814106,251.81544152655988 174.52570036542602,250.77712364731997 171.15152253361885,251.26167260606599 169.96760048740543,251.53855724207824 171.348842874635,252.16154638789885 177.03166869690176,252.11539910477586 177.91961023153272,251.74622048833407 179.53763702814467,251.74622048833407 180.54397076752502,252.11539910477586 182.5961023144191,251.88466254273953 182.97101096238475,250.91556631682033 182.30012180283666,250.31564744771458 181.15566382475663,250.20027824517456 179.4192448235117,251.14630390402453 178.27478684543166,250.31564744771458 176.7159561511362,250.7540498605522 174.76248477469198,250.7079022796388 174.7230207065586,251.86158887314377 173.12472594412975,251.5847046472045 170.67795371508691,251.97695719684998 169.4348355664406,251.5847046472045 168.58635809994303,251.9308098746842 167.18538367853034,251.88466254273953 159.09524969558697,249.43883997842204 159.56881851423532,248.70047305982735 158.2665042631561,248.33128866314655 157.49695493315812,248.88506502377277 155.80000000004657,248.58510300295893 156.11571254581213,248.86199103685794 159.07551766140386,249.2081005848886 161.75907429971267,248.74662106548203 162.60755176621024,249.5311356674938 163.67308160790708,249.3465442503366 164.28477466513868,249.5772834973468 163.89013398310635,253.03834291196836 163.33763702807482,253.03834291196836 164.56102314265445,253.56903383268218 163.83093788078986,253.66132777403982 163.6533495738404,254.37660449542454" stroke="#4dd2ff" stroke-linecap="round" stroke-linejoin="round" stroke-width="0.5"><title>2022-09-09 5.2km</title></polyline></svg>