<?xml version="1.0" encoding="utf-8" ?>
<svg baseProfile="full" height="300mm" version="1.1" viewBox="0,0,200,300" width="200mm" xmlns="http://www.w3.org/2000/svg" xmlns:ev="http://www.w3.org/2001/xml-events" xmlns:xlink="http://www.w3.org/1999/xlink"><defs /><rect fill="#222222" height="300" width="200" x="0" y="0" /><text fill="#FFFFFF" style="font-size:12px; font-family:Arial; font-weight:bold;" x="10" y="20">Over 5km Runs</text><text fill="#FFFFFF" style="font-size:4px; font-family:Arial" x="10" y="280">ATHLETE</text><text fill="#FFFFFF" style="font-size:9px; font-family:Arial" x="10" y="290">feng qijun</text><text fill="#FFFFFF" style="font-size:4px; font-family:Arial" x="120" y="280">STATISTICS</text><text fill="#FFFFFF" style="font-size:3px; font-family:Arial" x="120" y="285">Number: 17</text><text fill="#FFFFFF" style="font-size:3px; font-family:Arial" x="120" y="290">Weekly: 1.3</text><text fill="#FFFFFF" style="font-size:3px; font-family:Arial" x="141" y="285">Total: 98.9 km</text><text fill="#FFFFFF" style="font-size:3px; font-family:Arial" x="141" y="290">Avg: 5.8 km</text><text fill="#FFFFFF" style="font-size:3px; font-family:Arial" x="167" y="285">Min: 5.0 km</text><text fill="#FFFFFF" style="font-size:3px; font-family:Arial" x="167" y="290">Max: 10.0 km</text><polyline fill="none" points="51.00650224206038,59.76339430536609 46.13923766813241,58.55286951518792 45.93946188339032,58.871429378225 44.79529147979338,58.48915748191939 44.068834080710076,59.189988735699444 43.923542600823566,58.80771744607773 39.891704035922885,59.6359709869721 38.58408071740996,59.48731034665252 37.60336322861258,58.4679201329709 35.58744394616224,54.92125134561502 34.134529147995636,53.43460507217969 32.48183856497053,52.83994347983389 28.577130044810474,52.30899414097075 26.397757847444154,51.055948132736376 25.70762331841979,49.335651888584835 25.598654708475806,47.48790987012035 24.81771300442051,46.44722009576799 23.019730941741727,46.12864051471115 18.35224215243943,46.893230659814435 17.734753363300115,46.787037758287624 17.189910313813016,46.12864051471115 15.609865470905788,45.23661499751324 14.901569506735541,45.109182457163115 12.25,45.342808719331515 15.428251121076755,45.19413749303203 17.680269058328122,46.659606202243594 23.128699551569298,46.06492453784449 24.69058295956347,46.404742847546004 25.580493273446336,47.6790563849936 25.70762331841979,49.22946027919534 26.36143497750163,50.88604298699647 28.740582959610038,52.20280410457053 32.73609865468461,53.00984697173408 33.20829596405383,53.62574592408782 33.84394618833903,53.71069735544734 36.25941704038996,55.70704564236803 37.65784753358457,58.48915748191939 38.711210762267,59.4448358577647 40.20044843049254,59.59349652954552 41.8713004484307,59.04132776509505 42.16188340797089,59.40236135982559 43.324215246597305,58.828954758966574 46.04843049321789,58.59534419279953 49.69887892366387,59.89081754282233 52.75,59.657208212302066" stroke="#4dd2ff" stroke-linecap="round" stroke-linejoin="round" stroke-width="0.5"><title>2023-03-05 5.0km</title></polyline><polyline fill="none" points="94.43697829719167,52.35523744246166 94.66235392319504,53.09300284369965 96.9837228715187,52.645074110580026 97.50208681134973,54.225995458255056 97.41193656087853,55.01645237211778 91.39440734568052,56.676403732504696 87.49540901510045,58.49443301578867 83.73163606016897,61.07653877447592 81.09474123537075,56.93988705886295 79.42696160275955,55.54342225546134 63.74081803008448,52.01270276401192 63.560517529258505,51.564772089535836 64.43948247085791,49.11431356499088 64.19156928220764,48.613679289934225 64.48455759615172,47.322565203066915 57.25,43.686330404889304 64.46202003350481,47.243517184615484 62.7942404007772,51.96000507938152 62.18572621047497,55.04280089279928 63.13230383989867,52.75046917902364 63.74081803008448,52.38158624446078 77.1732053423766,55.069149410614045 80.39607679471374,56.544661964828265 83.23580968286842,61.31366959512525 89.14065108518116,57.703987130575115 91.73247078468557,56.597358680242905 97.75,54.93740679349867 96.9837228715187,51.48572541640897" stroke="#4dd2ff" stroke-linecap="round" stroke-linejoin="round" stroke-width="0.5"><title>2023-02-22 5.0km</title></polyline><polyline fill="none" points="102.25,57.19311997880868 102.50431711145211,52.658048825891456 102.8540031396551,52.026103389580385 106.4780219780514,52.21196993031481 110.62656985875219,53.7546546299418 112.04120879119728,53.847587010546704 112.67700156988576,54.27507532852178 113.2492150706239,54.0892109702836 115.96722919936292,54.49811229894112 116.65070643642684,54.38659384912171 117.65208006283501,54.83266722362896 118.54218995285919,54.68397622463817 120.44956828886643,54.925599034133484 121.72115384612698,54.2007296087977 121.76883830456063,54.572457892791135 122.27747252740664,54.795494485719246 123.04042386187939,54.85125358967343 123.70800627942663,54.59104428636783 125.01138147560414,54.81408085564908 125.94917582412018,53.921932879675296 126.48959968605777,53.82900053834601 129.25529827311402,54.46093949014903 129.4619309261907,54.70256260638416 129.57319466251647,54.033451624418376 130.8606750391773,54.10779741499573 132.29120879113907,53.68030868998903 132.76805337512633,51.85882333481277 132.8793171114521,50.20460088465188 133.51510989008239,49.59123354598705 134.97743328096112,49.88862403821258 139.17366562003735,49.870037147178664 142.75,48.476014716754435 142.35262951324694,47.80688002120587 140.60419937205734,48.49460175521381 138.2676609104965,48.996451051323675 136.74175824172562,49.03362501625088 133.18131868127966,48.56894988959539 131.6395211930503,49.777102662599646 131.33751962316455,50.70644529623678 131.46467817894882,51.43132913786394 130.38383045519004,51.80306328115694 130.11361852433765,52.658048825891456 129.60498430137523,52.88108784900396 128.6671899529174,52.73239519838535 127.57044740970014,52.044690052527585 126.07633437990444,52.026103389580385 125.45643642079085,52.41642289808078 123.40600470959907,52.546529208208085 122.97684458392905,52.24914321491087 118.16071428573923,52.30490312699112 117.25470957614016,52.17479663791892 116.80965463106986,51.765889902206254 113.59890109888511,52.45359613932669 111.05572998424759,51.97034338902449 106.31907378335018,50.22318774026644 103.90306122443872,49.870037147178664 108.48076923075132,49.83286335930461" stroke="#4dd2ff" stroke-linecap="round" stroke-linejoin="round" stroke-width="0.5"><title>2023-02-10 5.9km</title></polyline><polyline fill="none" points="156.58803734264802,60.386309908222756 156.64079461572692,54.81360087321082 158.4697134172311,54.834164668864105 161.51204950071406,55.61558729101671 163.18269648274872,55.12205757931224 163.86854103347287,53.04510631064477 163.99164133728482,51.214903135973145 164.51921406865586,50.63910531530564 167.56155015190598,51.07095384072454 168.1418801563559,50.78305493037624 171.00835866259877,50.82418337225681 173.92759444203693,49.89879132529313 179.0450499348808,47.32823474530596 184.9011072514113,46.52621413444285 187.75,45.45684817196161 187.5917281806469,45.58023685251828 187.310356057249,45.08668166032294 187.36311333044432,44.613690091791796 186.41348241420928,45.14837612792326 183.96906209294684,45.765319726473535 182.913916630554,45.806449230061844 182.66771602258086,45.49797774084436 179.39676508901175,46.09435551163915 177.23371689103078,46.89637790454435 173.66380807640962,48.93226603922085 171.0435301780235,49.7548410553718 167.84292227530386,49.981048574496526 165.2929874076508,49.508068916082266 164.02681285282597,49.54919762763893 162.58478072076105,50.78305493037624 162.25065132440068,51.729006891779136 162.35616587055847,52.67495424972731 161.5823925314471,52.67495424972731 161.01964828488417,53.209618111504824 160.8965479808394,54.01161114675051 160.31621797662228,54.2789414232102 159.15555796783883,53.84710002466454 158.73349978285842,52.73664630885469 157.66076856281143,52.181417072046315 156.44735128094908,52.53100603570056 155.7790924879955,53.57976915431209 154.337060356047,53.84710002466454 153.2643291358836,53.86766392251593 152.8950282240985,53.559205225959886 147.5137863656273,53.51807736275077 147.25,53.29187395966437 147.63688666955568,52.839466363802785 150.5209509335691,52.63382619943877 150.8550803300459,53.68258876327309 152.27952670434024,53.57976915431209 153.45777247066144,52.81890235717583 154.54808944859542,52.901158370717894 155.05807642207947,52.28423742071027 155.65599218418356,52.26367335538089 156.62320885795634,53.3124379163055 157.92455492832232,53.25074603992107 158.69832826743368,53.888227818199084 160.2986322188517,54.320069125446025 162.074793747277,54.07330278160225 162.53202344768215,52.572134107686 162.58478072076105,53.92935560308979 161.9692792011192,54.422888342887745 159.7183022145182,54.114430527348304 159.1731437256094,53.86766392251593 158.55764220585115,52.59269814044819 155.18117672600783,51.605622114337166 154.337060356047,51.81126336645684 152.2443551887991,53.51807736275077 151.18920972652268,53.49751342793752 150.6440512376139,52.69551827160467 151.13645245332737,52.387057715051924 151.99815458105877,52.387057715051924 152.71917064697482,53.02454232577293 154.47774641774595,52.901158370717894 155.26910551451147,52.345929603863624 156.0077073383145,52.942286364457686 156.65838037338108,52.510441996433656 157.80145462439395,52.28423742071027" stroke="#4dd2ff" stroke-linecap="round" stroke-linejoin="round" stroke-width="0.5"><title>2023-02-05 7.1km</title></polyline><polyline fill="none" points="12.731324278458487,107.57537858269643 13.098047538194805,104.26539784840861 13.361629881197587,104.17159146613267 15.264006791228894,104.47981217564666 15.940152801340446,104.37260505739687 17.727928692707792,105.13645379514492 18.495755517855287,105.21685865747713 18.862478777591605,103.62215268924774 18.587436332774814,103.07271152918838 17.796689303882886,103.08611256146105 17.41850594233256,102.71088312231586 15.28692699491512,102.89849798080832 14.014855687622912,102.68408097698557 13.418930390558671,102.22844363875629 12.330220713105518,102.02742664497782 12.25,102.84489376388228 12.330220713105518,102.06763006923575 12.719864176644478,102.04082778780139 12.926146010286175,102.20164139135886 12.903225806483533,102.76448739593616 13.12096774193924,103.1129146217063 15.802631578990258,102.89849798080832 18.805178268288728,104.11798778795492 20.787775891367346,104.58701920314343 22.002546689356677,104.38600595214666 22.78183361631818,104.69422613993083 23.595500848954543,104.62722181505524 24.546689303941093,104.81483383532031 26.85016977932537,104.45301040454797 28.615025466890074,104.6808252777846 29.6120543294237,104.58701920314343 29.910016977984924,104.30560056242393 31.044567062868737,104.27879875449435 31.445670628221706,104.62722181505524 32.39685908326646,104.93544141596794 33.497028862533625,104.85503637498914 33.817911714781076,104.61382094583678 33.80645161290886,103.31392989292362 34.02419354842277,102.71088312231586 34.91808149404824,101.88001398011693 38.13837011886062,102.17483913827164 39.84592529706424,101.94701975813223 41.22113752126461,101.47797856769466 44.75084889639402,99.70900759347569 48.624363327689935,99.28016242463491 52.11969439731911,97.69878331581276 52.71561969438335,96.61324893982237 52.41765704576392,94.92462141730357 52.75,96.5462403401034 52.62393887946382,96.96169308674143 52.452037351438776,97.3637428343718 51.030984719865955,98.22144469717023 50.80178268253803,98.59668743581278 49.89643463498214,98.65029345058429 48.87648556876229,99.18635235042166 47.11162988113938,99.54819082529139 46.11460101866396,99.46778236463433 44.39558573852992,99.77601451993542 41.198217317520175,101.43777495625545 39.71986417652806,101.93361860538425 37.519524618051946,102.13463574799243 35.044142614584416,101.79960699970252 33.93251273344504,102.65727882598003 33.623089983069804,102.38925700409891 33.96689303900348,102.79128952424071 33.783531409164425,103.24692483793478 33.92105263163103,103.76956332671398 33.71477079798933,103.99737942903448 33.79499151109485,104.45301040454797 33.54286926990608,104.77463128299132 32.477079796255566,104.93544141596794 31.19354838714935,104.45301040454797 31.090407470299397,104.23859603201709 29.955857385415584,104.25199694093317 29.474533107015304,104.54681657843321 28.523344651970547,104.62722181505524 27.96179966046475,104.62722181505524 27.663837011845317,104.42620862786862 25.23429541598307,104.4932130590314 23.92784380313242,104.31900146423868 22.50679117150139,104.53341570071643 21.87648556876229,104.332402364671 20.982597623136826,104.57361832968309 19.286502546747215,104.23859603201709 15.710950764012523,102.95210217506974 14.920203735178802,102.83149270610738 13.109507640067022,103.09951359229308 12.8803056027391,102.6304766693138 13.052207130764145,102.14803687951644 14.003395585692488,102.73768526197091 15.04626485571498,102.95210217506974 17.361205432971474,102.71088312231586 17.705008489021566,103.08611256146105 18.232173174910713,103.12631564968615" stroke="#4dd2ff" stroke-linecap="round" stroke-linejoin="round" stroke-width="0.5"><title>2022-12-15 10.0km</title></polyline><polyline fill="none" points="57.25,106.67955850272847 57.60764311812818,101.81974189485481 60.555115712515544,102.02163683512481 60.9374238732853,102.28121560471482 63.440925700357184,102.85805554519175 63.83556638244772,101.18521299299027 63.73690621193964,100.6660507855122 62.66397685749689,100.59394476703892 62.294001218047924,100.11804408815806 60.96208891592687,100.17572910738818 60.444123020686675,99.9305676069489 59.60551157122245,100.23341410222929 58.729902557854075,100.17572910738818 57.53364799026167,99.48350726511853 57.410322777112015,100.14688660080719 57.70630328863626,100.60836597377784 60.468788063386455,100.19015035840857 60.88809378811857,100.69489318229898 63.971224116918165,101.76205757126445 66.05542021925794,102.19468940311344 67.17767965898383,101.94953153363895 68.16428136418108,102.26679457492719 70.54445797810331,102.29563663295994 71.85170523746638,102.22353147641115 72.39433617534814,101.97837365882879 74.35520706453826,102.26679457492719 75.32947624847293,102.19468940311344 75.7857795371674,101.84858404748957 76.93270401947666,101.84858404748957 77.22868453105912,102.15142628167814 78.25228380021872,102.36774175138271 78.53593179048039,102.67058283228835 78.83191230206285,102.32447868490999 79.43620584654855,102.45426784310257 79.84317904990166,102.29563663295994 80.11449451890076,100.17572910738818 81.21208891598508,99.20950181476655 83.75258830690291,99.52677123327157 85.84911693056347,99.42582195292925 87.66199756396236,98.9499171958887 91.238428745477,97.07512471465452 96.01111449458404,96.42615207863855 97.44168696715496,95.82044149728608 97.61434226552956,96.46941701718606 97.75,96.42615207863855 96.41808769793715,96.94533043468255 92.32369062118232,97.43566373291833 87.55100487207528,99.5988778162573 85.76278928137617,100.08920156933891 83.66626065777382,100.21899285582185 81.48340438492596,99.9161463285127 81.11342874541879,100.34878401872993 81.03943361755228,101.58900445410109 80.60779537149938,103.08879083799548 79.96650426310953,103.33394665861852 79.41154080384877,103.47815575891582 76.68605359317735,102.81479263433721 74.17021924484288,102.85805554519175" stroke="#4dd2ff" stroke-linecap="round" stroke-linejoin="round" stroke-width="0.5"><title>2022-12-12 7.2km</title></polyline><polyline fill="none" points="102.90523882891284,105.78337295191886 103.23285824345658,101.20445220750116 103.12365177203901,100.7848637477 102.26560092455475,100.67540572069993 102.25,100.12811454362236 106.66506163327722,100.20108680096746 111.56375192606356,101.69701127069129 115.0739599383669,102.39024016141775 127.13347457622876,102.20781177611207 128.49075500766048,102.31726883046213 130.78409090905916,103.06522350896557 131.50173343607457,102.82806749874726 132.45338983047986,102.3537544997962 132.9058166409959,100.69364873005543 132.9838212634786,99.16122921925853 133.31144067802234,98.65041968951118 134.10708782746224,98.52271707062027 136.36922187980963,98.97879741806537 136.85285053926054,98.72339257206477 139.13058551616268,98.7963654237974 140.7686825885903,98.35852785018506 142.75,97.40987596039486 142.4691833590041,96.71662704808114 138.42854391376022,97.93893246568041 136.57203389832284,97.99366235632624 133.10862865945091,97.57406608398014 131.7513482280774,98.77812221378554 131.48613251151983,99.5078491098975 131.7045454545878,100.21932986045431 131.45493066246854,100.65716270948178 131.54853620950598,101.18620925223513 131.14291217259597,101.62403964638361 130.40966872108402,101.55106799124042 129.45801232662052,101.84295442661096 129.02118644065922,101.40512458824378 128.13193374418188,101.25918106175959 127.92912172578508,101.00377959322941 127.85111710324418,101.16796629499004 126.41583204932977,101.02202256782039 124.30970724188956,101.42336752035771 123.57646379043581,101.44161045056535 123.09283513092669,101.11323741172964 119.879044684174,101.22269516081724 118.00693374424009,100.98553661668848 116.1036209553713,101.25918106175959" stroke="#4dd2ff" stroke-linecap="round" stroke-linejoin="round" stroke-width="0.5"><title>2022-12-06 5.0km</title></polyline><polyline fill="none" points="147.25,106.19138792448211 147.59647112741368,102.31360492741806 147.78208065999206,102.50170887850982 150.38061411550734,102.5306479249557 153.78345554537373,103.65926596024656 153.90719523379812,103.90524557804747 153.72158570121974,103.90524557804747 153.88244729605503,103.64479655715695 153.52360219985712,103.65926596024656 153.21425297897076,103.34093873931852 153.4864802933298,103.42775532756059 153.79582951421617,101.34414200024912 153.59784601279534,101.47436876312713 153.62259395053843,101.89398748894746 154.08043079747586,102.27019628659764 155.94890009169467,102.73322107855347 157.0873052245588,102.51617840248218 158.10197066911496,102.8345075428515 159.6858386801323,102.87791600462515 163.11342804768356,102.57405648310669 164.06622364808572,102.8345075428515 165.46448212646646,102.68981257091218 165.81095325388014,102.41489170244313 167.03597616864135,102.41489170244313 167.15971585700754,102.66087355811032 168.66934005502844,103.09495810668159 169.8448670944199,102.89238548879803 170.1294683776796,100.70747604133794 171.26787351054372,99.75247154607496 174.5346012832597,100.08527689988841 176.1184692942188,99.94057901950146 177.87557286891388,99.40519553086779 181.1917965169414,97.63986215274781 182.3178276810213,97.35046106435766 185.28758020163514,97.10446965777373 186.90857011912158,96.6703660961357 187.53964252973674,96.30861207551789 187.73762603115756,97.01764905567688 187.75,96.85847780868062 185.22571035748115,97.69774229695031 181.74862511456013,98.16078256862238 179.9420256645535,99.07238852219598 176.58868010999868,100.51936962266336 174.05201649863739,100.63512744937907 173.77978918422014,100.79429430118762 171.49060494959122,100.51936962266336 165.46448212646646,103.41328590003832 159.73533455544384,103.52904127759393" stroke="#4dd2ff" stroke-linecap="round" stroke-linejoin="round" stroke-width="0.5"><title>2022-11-27 5.6km</title></polyline><polyline fill="none" points="12.25,152.3990333250258 13.856801275280304,152.6338978283893 14.301540913933422,152.49968958333193 15.033209351764526,152.86876198384562 15.520988310337998,152.78488196822582 18.08900106267538,153.57335236326617 18.519394261413254,151.57700482406653 18.289851222129073,151.24148176236486 18.375929861853365,151.92930327483919 19.093251859769225,152.3822572757781 21.359989373013377,152.81843397983175 22.435972369858064,152.49968958333193 23.56934112648014,152.90231397762545 27.71546227420913,152.86876198384562 28.518862911849283,152.6003457777697 30.713868225342594,152.86876198384562 31.890276301826816,152.80165797493828 32.421094580262434,152.3990333250258 33.84139213600429,152.3822572757781 33.99920297553763,152.7010019082809 35.64904357068008,153.2042816026078 36.7680658873287,153.0532978620031 37.24149840592872,152.56679372000508 37.399309245462064,151.74476608872646 37.212805526098236,151.07371996536676 37.44234856532421,150.3858947418339 38.762221041484736,149.3122103807109 42.07624867162667,149.73161919953418 44.32863974495558,149.56385580511414 46.66710945800878,148.7753654739936 50.02417640807107,146.94672387096216 52.75,146.42664763673383 50.23937300744001,146.84606408781838 46.59537725819973,148.80891833390342 44.271253985119984,149.54707945589325 42.11928799148882,149.68129019983462 39.135228480328806,149.2283284838486 38.604410201951396,149.32898675478646 37.399309245462064,150.45299977298419 37.184112646151334,151.07371996536676 37.37061636557337,151.74476608872646 37.112380446342286,152.1977206167503 37.212805526098236,152.7177779238409 36.8254516471643,153.0700738402811 35.2186503719422,153.13717773561075 33.525770456995815,152.33192911732476 32.36370882036863,152.34870517191302 31.804197662102524,152.76810595979623 30.455632306053303,152.8519859842636 29.379649309208617,152.58356974978233 24.846174282662105,152.51646562016685" stroke="#4dd2ff" stroke-linecap="round" stroke-linejoin="round" stroke-width="0.5"><title>2022-11-23 5.3km</title></polyline><polyline fill="none" points="57.25,150.9748440090334 60.69784172659274,151.39126817387296 64.55035971227335,152.45125258386543 65.05215827329084,150.21770668087993 64.93884892086498,149.68770864493854 64.43705035967287,149.4416375945293 63.62769784167176,149.51735179987736 62.91546762583312,148.9305658700614 61.167266187025234,148.98735168925487 60.77877697837539,149.19556620570074 60.84352517983643,149.3848519194289 66.34712230210425,151.2587696811097 68.06294964032713,151.46698155427293 68.96942446037428,150.95591561490437 70.10251798556419,151.14519946633663 71.47841726616025,150.89913042043918 71.75359712226782,151.29662640334573 72.53057553956751,151.41019652198884 76.99820143886609,151.29662640334573 78.11510791367618,151.65626486510155 80.00899280578597,151.5616232346947 80.62410071934573,151.12627109020832 82.21043165464653,151.10734271207184 82.58273381291656,151.5237665685272 84.47661870502634,151.99697431990353 86.11151079135016,151.58055156479531 86.07913669064874,150.82341679975798 86.32194244605489,150.44484821577498 86.14388489210978,149.49842325151258 86.45143884891877,148.77913693056325 87.85971223021625,147.66234454412188 92.7643884891877,148.13556250804686 95.45143884891877,147.58662955365435 97.34532374102855,146.77269138334668 97.75,147.51091453124536 96.17985611507902,148.21127726616396 93.36330935248407,148.9305658700614 91.37230215827003,148.8169941774977 91.04856115108123,149.0252088920679 88.50719424459385,148.5709219295677 88.00539568340173,148.70342241278559 87.60071942443028,149.23342336442147 87.40647482016357,151.46698155427293 86.92086330935126,152.8487451186811 85.82014388492098,153.22730861665332 81.48201438848628,152.39446786395274 69.27697841724148,152.65946306938713 64.72841726616025,151.78876306352322" stroke="#4dd2ff" stroke-linecap="round" stroke-linejoin="round" stroke-width="0.5"><title>2022-11-18 5.5km</title></polyline><polyline fill="none" points="102.25,154.43813892024627 102.69557956780773,149.78605754548335 103.74587426328799,150.04657735441288 104.76434184680693,149.8977089393884 107.53330058942083,150.2140541706467 110.23860510805389,151.14447802421637 110.66827111988096,149.15336497455428 110.58870333986124,148.27875679096906 109.31561886047712,148.22293058907962 108.64724950882373,147.62744999951974 106.96041257370962,147.70188518347277 106.62622789788293,148.12988687984762 106.76944990182528,148.27875679096906 111.0979371315916,149.73023182191537 113.86689587420551,150.30709677748382 114.9490176817053,149.93492605494976 116.20618860510876,150.3629223179887 120.821119842818,150.3443138064613 121.71227897831704,150.0279688094015 124.16296660120133,150.3629223179887 125.40422396856593,150.28848826009198 126.23172888014233,149.8977089393884 127.5207269154489,149.91631749816588 127.90265225933399,150.28848826009198 129.86001964629395,150.69787518867815 131.40363457752392,150.3443138064613 131.6582514734473,149.13475633505732 131.4513752455823,148.3718004215043 131.72190569742816,147.68327639046765 133.1063850686769,146.41787384562485 138.38968565815594,146.82726978276332 140.50618860503891,146.3806559858931 142.5749508839799,145.56186107975373 142.75,146.30622024287004 138.86709233780857,147.64605879843293 135.03192534379195,147.72049397449882 133.9338899803115,147.32970894876053 133.26552062865812,147.53440597528243 132.93133595277322,147.9810168426775 132.7722003928502,149.93492605494976 132.34253438108135,151.46082101331558 131.0376227897941,151.90742191184836 128.07770137517946,151.16308645110985 114.96493123768596,151.33056220439903" stroke="#4dd2ff" stroke-linecap="round" stroke-linejoin="round" stroke-width="0.5"><title>2022-11-06 5.5km</title></polyline><polyline fill="none" points="147.25,162.47151584064704 148.18385922326706,157.44286311397445 148.84739077673294,143.67824615785503 149.41262135922443,141.12065176988835 149.5600728156278,141.37928600463783 152.5582524271449,141.29307462036377 160.98756067967042,143.18971875315765 161.5773665048182,139.1665184815356 161.35618932032958,140.316010353592 162.26547330094036,140.97696597751928 166.63986650493462,141.86781666509341 175.6589805824915,140.08611236829893 176.2487864077557,140.08611236829893 176.37166262138635,141.6953941794054 178.38683252432384,141.40802312662709 180.4265776699176,141.5229715841997 181.18841019412503,142.01150198624237 184.4323422331363,141.89655373545247 185.46450242726132,141.17812606555526 185.48907767003402,140.1148496271344 187.60254854371306,139.48262923126458 187.75,138.01702174523962 186.9635922331363,137.52848415932385 185.63652912632097,139.31020523156621 185.88228155346587,139.99990057371906 185.34162621363066,140.22979863197543 184.456917475909,141.6953941794054 181.75364077673294,142.04023904140922 180.4265776699176,141.5229715841997 172.75910194183234,141.5229715841997 172.14472087379545,141.98276492810692 170.27700242726132,141.98276492810692 168.33555825252552,141.32181175152073 166.44326456310228,141.86781666509341 163.15018203889485,141.26433748623822 155.50728155346587,138.76419517718023 155.26152912620455,138.30439638535609 155.85133495146874,138.10323416921892 158.4808859223267,137.78712181426818 159.3410194175085,138.76419517718023 160.1765776699176,138.7067203708284 159.3164441747358,138.67798296301044 158.43173543689772,137.8445968152664 157.03094660188071,137.8445968152664 155.60558252432384,138.045759222965 155.43355582514778,138.79293257577228 163.2730582524091,141.40802312662709 161.18416262138635,140.20106138533447 161.307038835017,139.1665184815356" stroke="#4dd2ff" stroke-linecap="round" stroke-linejoin="round" stroke-width="0.5"><title>2022-11-02 5.0km</title></polyline><polyline fill="none" points="13.497113163990434,208.00091911910567 13.43475750577636,207.61814258834056 12.327944572723936,207.47232273394184 12.25,206.94372472769464 12.655311778304167,204.20957122879918 12.655311778304167,201.69411169941304 12.904734411102254,201.1654959703883 12.764434180164244,199.23330054480175 13.107390300254337,195.18655690590094 13.43475750577636,193.6553318277147 13.69976905308431,193.8558501717198 16.80196304846322,193.7464765584591 20.79272517323261,194.9860401103797 21.182448036968708,192.37930053500168 20.979792147874832,192.9808593217167 21.260392609750852,193.41835530212848 24.456120092363562,194.14751280102064 29.42898383375723,193.10846243074047 31.112586605129763,193.07200440924498 32.06351039255969,193.54595808715385 32.577944572782144,193.2360654452932 34.68244803696871,193.2907524225884 35.32159353350289,192.70742376994167 36.272517321049236,193.18137845062301 37.47286374133546,192.762110915035 38.37702078517759,193.16314944857731 38.78233256348176,194.22042838121706 39.904734411102254,194.56677696573024 41.479214780556504,194.23865727141674 41.74422632792266,192.87148515306762 41.557159353396855,192.17878047272097 41.85334872978274,191.44961464288644 42.819861431838945,190.48346516543825 43.77078521938529,190.28294289692712 46.514434180106036,190.72044572739105 48.32274826784851,190.72044572739105 50.33371824474307,190.33763081146753 52.4538106234977,189.49908088089433 52.75,190.13710837326653 51.03521939954953,190.9391967260308 48.74364896072075,191.52253136472427 46.37413394916803,191.66836471584975 43.459006928431336,191.34023950228584 43.022517321049236,191.85065623118135 42.44572748267092,195.20478569394618 41.21420323319035,195.6605047678313 36.80254041572334,194.913124854138 24.954965358017944,195.15009932406247 21.400692840630654,194.40271719668817 20.964203233248554,197.17348345048958" stroke="#4dd2ff" stroke-linecap="round" stroke-linejoin="round" stroke-width="0.5"><title>2022-10-28 6.2km</title></polyline><polyline fill="none" points="57.25,203.13198201797786 57.50352112681139,199.2410584554018 57.772887323924806,198.53697733704757 58.0264084507362,198.79637597310648 59.95950704225106,198.61109127223608 61.48063380282838,198.77784751181025 64.68133802822558,199.8710233726597 65.33098591543967,199.72279653714213 65.69542253518011,197.74025055272796 65.55281690135598,197.07322069024667 65.07746478874469,196.8508768381871 64.15845070418436,196.92499148689967 63.635563380259555,196.40618828727747 61.94014084507944,196.49883182847407 61.70246478874469,196.72117612748116 61.892605633765925,197.03616340110602 66.75704225356458,198.70373364714033 68.34154929581564,198.98166047790437 75.04401408450212,197.99965036881622 75.10739436623408,198.92607514704287 77.3257042253972,198.77784751181025 78.78345070424257,199.12988794063858 82.50704225350637,198.6666767030838 82.68133802816737,199.01871735534223 84.51936619711341,199.48192766186548 86.00880281685386,199.33370049702353 86.325704225339,199.07430265679432 86.29401408450212,198.29610683101055 86.54753521125531,197.96259327571897 86.35739436623408,197.0546920466586 86.65845070418436,196.36913085707056 88.03697183099575,195.20181779203995 91.91901408444392,195.62798060632485 93.4718309858581,195.55386540880136 95.27816901402548,195.20181779203995 97.35387323936448,194.3680179820076 97.75,195.0165292883903 95.91197183093755,195.8132684630691 93.48767605633475,196.44324570968456 91.60211267601699,196.36913085707056 91.26936619717162,196.53588923123607 88.74999999994179,196.10972862606286 88.21126760559855,196.25795851943258 87.87852112675318,196.75823348319682 87.78345070418436,198.37022086814977 87.29225352109643,200.20453329387237 85.97711267601699,200.61215566862666 84.83626760559855,200.50098602414073 84.6461267604609,200.16747666735318 84.01232394372346,200.26011821904103 82.42781690141419,199.8895517182682 75.66197183099575,199.98219341694494" stroke="#4dd2ff" stroke-linecap="round" stroke-linejoin="round" stroke-width="0.5"><title>2022-10-20 5.2km</title></polyline><polyline fill="none" points="111.39693877543323,200.58638886126573 112.00306122447364,201.52066688725608 113.60102040809579,201.97169663268141 115.25408163259272,201.35958467345336 119.5520408161683,201.81061465735547 119.85510204092134,201.3273682204308 120.57142857136205,202.10056215143413 121.83877551020123,202.42272571008652 122.74795918364543,202.10056215143413 126.93571428558789,202.51937471114798 128.36836734681856,201.16628590441542 129.2224489795044,201.93948024438578 131.2336734693963,201.45623401194462 133.18979591829702,201.7461818434822 135.64183673472144,201.39180112301256 135.9724489795044,203.74359273718437 136.38571428565774,203.38921434094664 136.4683673469117,201.03741999022895 137.2397959183436,200.48973924672464 141.78571428568102,201.8428310592135 142.75,203.45364680732018 142.08877551031765,200.84412101679482 139.664285714156,195.07731187800528 136.2755102039082,196.26934283203445 135.25612244894728,197.9446216916549 132.66632653062697,198.36343996651703 131.34387755102944,198.36343996651703 130.82040816324297,197.84797123866156 122.55510204075836,197.88018805976026 121.89387755095959,197.39693538605934 118.202040816308,198.10570571169956 117.54081632650923,197.59023654751945 125.64081632648595,196.46264470924507 126.0540816327557,197.23585099112825 125.53061224485282,198.0412721137982 121.64591836731415,197.59023654751945 118.39489795907866,198.10570571169956 117.23775510198902,197.68688708229456 122.9408163264161,196.6237295131723 125.97142857138533,196.52707864099648 126.0265306122601,197.52580284071155 125.58571428561118,198.0412721137982 121.56326530617662,197.59023654751945 118.202040816308,198.073488914466 117.26530612248462,197.7191039203608 119.5520408161683,197.30028475934523 120.26836734684184,197.7513207551092 125.47551020409446,198.20235608279472 125.97142857138533,197.8157544141286 125.99897959176451,196.52707864099648 124.12551020400133,196.36599378602114 115.08877551008482,198.23457286632038 110.98367346927989,197.49358598212712 102.63571428554133,194.69070624216693 102.25,194.17523129767505 102.856122448924,193.7886245167465 105.7765306122601,193.75640726281563" stroke="#4dd2ff" stroke-linecap="round" stroke-linejoin="round" stroke-width="0.5"><title>2022-09-24 5.1km</title></polyline><polyline fill="none" points="184.06818181835115,205.95628721790854 185.66897233203053,204.92683428461896 187.50988142285496,198.00139251316432 180.06620553322136,193.50918508623727 173.9031620551832,200.80901057412848 173.9031620551832,205.4883542151074 177.18478260887787,206.89215248206165 183.98814229248092,206.98573895398295 185.74901185790077,205.86270063719712 187.75,197.62704276520526 180.7065217392519,193.22842136502732 174.06324110692367,200.90259768959368 174.22332015819848,206.33063344238326 178.62549407081679,206.5178064952488 179.98616600828245,207.45367116556736 178.5454545454122,208.8574663149775 149.09090909082443,210.54201755509712 147.8903162055649,211.47787796944613 149.97134387353435,209.88691467628814 180.86660079052672,210.63560364104342 185.5889328061603,209.5125699559576 167.33992094825953,208.8574663149775 168.86067193653435,186.58365395694273 167.98023715429008,186.39647668821272 164.69861660106108,209.23181131202728 147.25,209.0446388332639 147.49011857714504,210.07408697658684 185.74901185790077,210.54201755509712 182.78754940675572,208.8574663149775 179.50592885399237,209.60615615092684 167.25988142332062,208.57670746324584 168.54051383398473,186.02212203061208 165.4990118574351,208.57670746324584 162.857707509771,209.60615615092684 149.5711462451145,209.0446388332639 149.4110671938397,210.07408697658684 187.66996047412977,211.0099478858756 176.94466403173283,210.63560364104342 185.10869565233588,210.54201755509712 185.10869565233588,209.32539753679885 180.38636363623664,208.95105257915566" stroke="#4dd2ff" stroke-linecap="round" stroke-linejoin="round" stroke-width="0.5"><title>2022-09-22 5.0km</title></polyline><polyline fill="none" points="30.77344701590482,250.61496436118614 32.37667478690855,250.38423033760046 33.56059683323838,251.16295688445098 34.96650426322594,250.9610650303075 38.000304506742395,251.45137355965562 39.603532277746126,250.7303312997101 39.55420219246298,250.2111796917743 39.89951278932858,250.12465432781028 40.491473812493496,251.13411520019872 43.352618757635355,250.78801475063665 44.388550548115745,251.19179856573464 46.559074299642816,250.12465432781028 46.58373934228439,251.04759012896102 46.97838002431672,251.42253190581687 47.22503045073245,249.89391988929128 47.71833130333107,249.57665971753886 52.034713763860054,250.7303312997101 52.75,252.08588917108136 51.4674177832203,247.84614319121465 49.96285018278286,244.64465866063256 47.79232643125579,245.4234016010305 47.12637028028257,244.96192457151483 44.388550548115745,244.5581315298914 41.058769793016836,247.1827756104176 36.27375152264722,247.26930190820713 35.657125456724316,245.9714045591536 31.439403166878037,246.57709075757884 29.95950060908217,246.92319655261235 31.68605359317735,247.70193298486993 38.789585870923474,247.64424888096983 39.89951278932858,247.1827756104176 41.92204628512263,247.1827756104176 43.17996345937718,247.64424888096983 45.74512789293658,247.35582817840623 46.21376370289363,246.14445789600722 45.37515225331299,245.39455930964323 43.94457978080027,245.25034780646092 41.7740560292732,246.43287988004158 40.343483556760475,245.39455930964323 38.39494518889114,245.94256232568296 35.95310596830677,245.88487784954486 35.90377588314004,247.32698609141516 33.905907429987565,246.98088080898742 30.84744214382954,247.4711964960734 29.29354445799254,246.98088080898742 28.232947624870576,247.41351234336616 26.481729598133825,247.35582817840623 16.369062119396403,244.29854997302755 16.961023142677732,243.37559132478782 15.333130328799598,242.91411082891864 14.371193666360341,243.60633127970505 12.25,243.23137875369866 12.644640682148747,243.57748879608698 16.34439707675483,244.01012573111802 19.698842874611728,243.433276331838 20.759439707617275,244.41391958435997 22.091352009796537,244.1831803129171 22.855968331336044,244.47160437167622 22.36266747873742,248.79792863994953 21.672046285006218,248.79792863994953 23.201278928201646,249.46129229085636 22.28867235092912,249.57665971753886 22.066686967154965,250.47075561928796" stroke="#4dd2ff" stroke-linecap="round" stroke-linejoin="round" stroke-width="0.5"><title>2022-09-09 5.2km</title></polyline></svg>