<?xml version="1.0" encoding="utf-8" ?>
<svg baseProfile="full" height="300mm" version="1.1" viewBox="0,0,200,300" width="200mm" xmlns="http://www.w3.org/2000/svg" xmlns:ev="http://www.w3.org/2001/xml-events" xmlns:xlink="http://www.w3.org/1999/xlink"><defs /><rect fill="#222222" height="300" width="200" x="0" y="0" /><text fill="#FFFFFF" style="font-size:12px; font-family:Arial; font-weight:bold;" x="10" y="20">Over 5km Runs</text><text fill="#FFFFFF" style="font-size:4px; font-family:Arial" x="10" y="280">ATHLETE</text><text fill="#FFFFFF" style="font-size:9px; font-family:Arial" x="10" y="290">fengde</text><text fill="#FFFFFF" style="font-size:4px; font-family:Arial" x="120" y="280">STATISTICS</text><text fill="#FFFFFF" style="font-size:3px; font-family:Arial" x="120" y="285">Number: 34</text><text fill="#FFFFFF" style="font-size:3px; font-family:Arial" x="120" y="290">Weekly: 1.5</text><text fill="#FFFFFF" style="font-size:3px; font-family:Arial" x="141" y="285">Total: 201.7 km</text><text fill="#FFFFFF" style="font-size:3px; font-family:Arial" x="141" y="290">Avg: 5.9 km</text><text fill="#FFFFFF" style="font-size:3px; font-family:Arial" x="167" y="285">Min: 5.0 km</text><text fill="#FFFFFF" style="font-size:3px; font-family:Arial" x="167" y="290">Max: 10.0 km</text><polyline fill="none" points="11.714285714260768,46.81881848072226 14.743286788347177,46.864035325241275 19.628356605768204,48.34111102031602 21.394199785077944,48.672697337009595 31.95059076254256,48.53704848255438 34.812030075117946,49.215291463406174 36.12674543494359,48.732985675291275 36.62943071965128,45.80897188167728 36.96455424273154,45.522596170252655 39.36197636940051,45.839116659917636 39.55531686352333,45.613030667605926 41.772287862491794,45.58288584157708 42.53276047256077,45.35679944262665 42.57142857136205,45.070422822303954 41.20515574642923,45.65824789479666 39.56820622982923,45.64317548731924 39.310418904351536,45.80897188167728 36.925886143930256,45.55274100907263 36.5649838882382,45.92955095639627 36.075187969894614,48.763129834929714 34.940923737885896,49.155003329215106 31.731471535924356,48.476760061326786 22.077336197602563,48.702841509351856 19.460794844198972,48.25067825458245 14.640171858132817,46.81881848072226 12.191192266356666,46.89417988022615" stroke="#4dd2ff" stroke-linecap="round" stroke-linejoin="round" stroke-width="0.5"><title>2023-05-17 5.0km</title></polyline><polyline fill="none" points="51.29614181438228,49.944305893513956 52.26874585269252,50.48302860783588 52.801118589472026,50.255568219028646 54.35728505073348,50.48302860783588 54.79751635226421,50.195710146042984 54.83846810122486,49.83656104293914 57.049862546264194,49.74078775628004 61.513603185187094,49.68092941098439 63.85809081437765,50.1717669079153 64.69760166842025,49.89641930592916 65.06616740924073,47.72953001334099 65.39378140110057,47.262625782161194 66.3970992511604,47.442204560589744 67.41065503843129,47.334457327720884 68.8644421272329,47.47812028207409 71.69011280691484,46.484447782575444 73.99364868708653,45.299212547055504 76.26647075550864,45.143574674810225 78.44715138879837,44.50904882639588 79.0,44.25763193999592 78.8054791923496,44.353409867340815 78.6928618826787,43.80268567788153 78.42667551425984,44.03015903758933 77.39264385256683,44.31749315408524 73.41008626413532,44.880187018730794 70.76869845483452,46.29289545422944 69.2022940563038,46.78374764647742 67.56422409706283,46.903467370364524 65.82377476536203,46.61613982021663 65.12759503273992,46.664027795923175 64.25737036688952,47.43023265091324 64.03213574748952,49.23797667164763 62.63977628212888,49.46543910569744 62.701203905569855,49.33375038380473 62.28144847857766,49.09431595139904 61.98454829840921,48.447840453503886 61.42146174993832,48.19643231808732 60.71504407998873,48.36403780375986 60.25433690397767,49.02248552290985 59.5172054223367,49.14220287841454 58.90292918763589,49.15417460700701 58.60602900746744,48.962626797634584 56.30249312729575,49.01051378037664 56.08749644522322,48.48375585582835 55.964641198224854,48.48375585582835 52.83183240116341,49.118259417431545 50.77400701493025,48.72319158002938 48.173570954590105,47.78938939078944 48.14285714284051,47.58586737814039 48.63427813060116,47.49009218667925" stroke="#4dd2ff" stroke-linecap="round" stroke-linejoin="round" stroke-width="0.5"><title>2023-05-14 6.3km</title></polyline><polyline fill="none" points="85.00307858490851,53.71809102273255 85.3763975155307,51.41276362625649 84.57142857142026,51.11265880387509 85.02641101804329,51.01717075939814 85.15473940043012,50.78527092846343 85.38806373206899,48.60266385416617 85.23640291648917,48.46624968560354 85.64472049690085,48.479891108960146 85.86637861188501,44.005426865202026 86.04137186065782,43.63709514873335 88.74793410743587,43.82808209602081 91.6528220361215,44.87850525001704 91.90947880089516,44.81029621406924 92.2011342155165,44.25098075837013 94.45271401567152,44.755728959309636 95.72433162294328,44.8375798327761 104.17067242774647,44.67387803392194 106.71390764240641,45.24683342073695 107.74053470155923,44.87850525001704 108.17218471504748,42.30017859759391 108.45217391301412,41.98641045995464 110.68042128003435,42.15011567050533 112.72200918174349,42.05462098964199 115.42857142852154,41.113312493864214 115.18358088034438,40.56762326297758 113.63197407504776,41.20880787183705 112.38368890085258,41.46800925556454 110.83208209561417,41.522577901545446 108.3121793140308,41.20880787183705 107.2505536051467,42.05462098964199 107.02889549010433,42.69579820461513 107.18055630568415,43.21419447315566 106.97056440723827,44.100920101467636 105.8622738320264,44.373757529625436 104.67231974069728,44.04635254656023 104.25233594380552,43.705304805218475 103.2373751012492,43.705304805218475 102.77072643802967,43.991784968515276 101.68576829589438,44.08727821489447 100.64747502020327,43.89629165145743 98.8742100999225,43.97814307041699 96.96095058065839,43.78715634539549 95.64266810688423,43.97814307041699 94.86103159596678,43.773514425658504 93.81107210367918,43.97814307041699 92.18946799892001,43.63709514873335 91.6761544693145,43.173268527694745 91.64115581952501,42.53209368682292 91.1628409397672,42.50480958035041 91.79281663516304,42.641230055101914" stroke="#4dd2ff" stroke-linecap="round" stroke-linejoin="round" stroke-width="0.5"><title>2023-05-12 6.0km</title></polyline><polyline fill="none" points="129.0613212326425,62.40643830474437 129.3757439783658,62.39374673635757 128.54089737776667,61.9368493759539 128.77942497789627,62.000307447124214 128.94205743260682,61.77185823319451 128.86616228707135,62.3556720230481 129.0613212326425,62.22875622437277 129.79858836042695,62.57142857142753 130.4274338518153,62.546045468290686 130.61175063374685,61.65763346244057 130.52501332457177,60.210776916268514 130.95869987033075,59.60156891919178 130.92617337941192,59.28427185734472 133.5825034721056,57.27893493792362 134.3848235817277,56.49202138320106 135.3280918187229,55.17202571852249 136.0328324555303,53.07777190674824 136.2713600557763,48.571828644533525 136.4882033285685,48.34335375500086 136.47736116492888,47.28982500077109 136.9435742016649,45.79202113972133 138.3422133116983,43.443731521947484 140.78170013154158,41.146171056010644 141.7358105321764,39.648290159821045 142.79834256926551,34.74831125217315 144.31624547939282,31.714285714282596 142.84171122382395,34.583282556595805 141.98518029600382,38.68354336631455 141.5189672592678,40.029109117509506 140.54317253135378,41.41274111108214 138.90600582119077,42.809050728006696 137.9085267659393,44.002247831216664 137.03031151078176,45.5000741324111 136.57494063774357,47.02326806014753 136.45567683770787,47.68331273091462 136.58578280138317,48.40681904594385 137.8760002750205,48.330660692787205 139.415587512427,48.495670396543574 140.2287497856887,48.31796762923477 141.30212398641743,48.50836344125128 142.0936019323999,48.40681904594385 142.4297090053442,48.584521681092156 142.57065713271732,49.168399907139246 142.41886684170458,49.752275279672176 140.25043411296792,51.77043122082978 139.84927405818598,52.46852754170686 139.68664160347544,53.49662560568686 140.05527516733855,54.98164052514039 136.2713600557763,59.96963245545339 134.6341933455551,61.79724150076072 134.37398141808808,61.79724150076072 130.98038419760996,59.53810957419046 130.546697651851,60.29961948967684 130.69848794286372,61.53071692248341" stroke="#4dd2ff" stroke-linecap="round" stroke-linejoin="round" stroke-width="0.5"><title>2023-05-09 7.6km</title></polyline><polyline fill="none" points="171.65087968937587,62.57142857143481 171.8838132667006,60.31471338921983 171.50113667559344,59.08907199050009 169.35482014261652,58.40815657352505 165.2951206539874,57.863422425012686 165.19529197801603,56.91013378335629 165.47813989321003,54.711714611563366 167.15858927171212,54.75062491380959 166.6261696666479,54.63389398234722 166.45978854014538,53.155295771415695 166.06047383625992,53.52494643854152 165.46150178060634,53.11638513165235 165.51141611859202,41.34553869225783 165.72771158313844,40.781297378387535 165.19529197801603,41.0536899529543 164.4964912463911,40.664557579977554 165.62788290716708,38.62159911202616 165.69443535781465,37.24015718999726 166.3433217514539,36.909387865889585 166.6261696666479,40.547817707498325 166.1103881742456,42.12379973278439 166.24349307554075,43.64139928855002 166.44315042742528,43.97215650381986 167.70764698949642,43.83596242839121 168.5728288476821,43.11607778268808 168.09032358054537,40.255967702149064 168.872314875538,39.08856304861547 168.8057624248322,38.524314809328644 168.24006659450242,38.641055966421845 167.09203682112275,38.076806353987195 167.4747134122881,37.49309803634242 168.20679036923684,37.51255501015112 169.18843901605578,37.998978685354814 169.55447749455925,37.78495242682402 169.6875823957962,38.01843560556881 170.80233594385209,35.2360751076194 170.68586915533524,33.56274712178856 170.2200020008604,32.18126719261636 169.83732540969504,31.714285714289872 168.97214355150936,32.16180965467356 168.6061050730059,32.92065210767032 169.1052484527463,32.33692742178391 168.95550543878926,33.11522659113689 169.28826769196894,33.6211192845949 169.6709442831343,33.71840618143324 170.2200020008604,33.19305632688338 170.55276425404008,33.29034345026594 170.7856978311902,34.243754534982145 170.68586915533524,35.76141912509047 169.55447749455925,37.97952176305989 166.57625532872044,40.68401421816088 166.1436643996276,42.065430269023636 166.3932360894396,44.030525362395565 166.9922081452096,44.41965061292285 169.0886103400262,44.22508809057763 170.2532782261842,44.41965061292285 171.21828876034124,45.10061782012053 172.51606154767796,45.08116164918465 174.3462539400789,46.07342374214204 176.14317010715604,46.326352438903996 179.15466849826043,46.07342374214204 179.65381187800085,46.598736800355255 181.1512420172803,46.657104825237184 181.21779446786968,48.27194616981433 180.88503221480642,49.5949381502287 180.55226996156853,49.51711535600771 180.23614582110895,50.198063688978436 180.48571751092095,51.384853328883764 179.88674545520917,54.400431897185626" stroke="#4dd2ff" stroke-linecap="round" stroke-linejoin="round" stroke-width="0.5"><title>2023-05-06 6.0km</title></polyline><polyline fill="none" points="19.76324803492753,96.84438306329685 19.414433424186427,96.64022617753653 19.80684986122651,96.30847049828299 20.657085474871565,96.85714285714494 21.005900085554458,96.81886347156251 21.158506477775518,95.93843423685757 21.02770099870395,94.63691833263874 21.474619718734175,93.88407426531194 21.420117435860448,93.64163195125002 24.079828842484858,91.63827410540398 25.736698243417777,89.64764341087721 26.55423248722218,87.3634816531412 26.804942988674156,82.74398267272773 27.033852576976642,82.47599523550161 26.96844983746996,81.83792750219436 27.382667187717743,80.28102800689521 28.51631467253901,78.2008766936051 31.339532928017434,75.36772922270757 32.418678129906766,73.5299762056602 33.35611739620799,69.01204714726919 34.8712808614946,66.00000000000728 33.323416026483756,69.08862363218941 32.4731804128387,73.27473050675326 32.06986351922387,74.25742347110645 31.08882242650725,75.6484945682605 28.527215129113756,78.13706780158827 27.43716947064968,80.1023661181971 26.96844983746996,81.82516611296887 27.110155773058068,82.27181392964121 26.79404253215762,82.87159552786761 26.630535683361813,86.98065699718427 25.84570280922344,89.48175603072013 25.28977952344576,90.36223258354585 24.286937517579645,91.44686874116451 21.48552017530892,93.62887181591941 21.104004194843583,93.48851023768657" stroke="#4dd2ff" stroke-linecap="round" stroke-linejoin="round" stroke-width="0.5"><title>2023-05-04 6.1km</title></polyline><polyline fill="none" points="49.0803772371728,87.24150390348223 49.392883935244754,83.76332909309713 49.48547851247713,83.5197179759707 49.740113599807955,83.49265004540212 49.49705283460207,83.38437826601148 49.43918122386094,82.85655202933413 49.7516879219329,78.80981187299767 50.017897331446875,78.64739822525007 50.9901403922122,78.83688079426065 52.47165362763917,78.80981187299767 54.474011359969154,79.54067073651822 55.34208552131895,79.66248014118173 55.63144357519923,78.01127611959237 55.434680098551326,77.53756611396966 54.56660593714332,77.56463530438486 54.138356017530896,77.10445828811498 52.85360625869362,77.17213148256997 52.36748472834006,76.95557713432936 51.76561997644603,77.18566611714778 50.97856607014546,77.18566611714778 49.508627156785224,76.4277243748802 48.81416782765882,76.56307144388848 48.14285714284051,76.27884243354492 48.154431464965455,76.84729982275167 48.8836137605831,76.96911179182644 49.010931304248516,76.45479380014876 49.566498767526355,76.49539792726864 50.8396742042969,77.18566611714778 51.86978887580335,77.37515085110499 52.5526738827466,77.19920075028494 52.95777515799273,77.61877366807312 56.0481191726285,78.71507060354634 57.49490944162244,79.02636308263754 57.91158503910992,79.08050082776754 58.5250241131871,78.79627741023432 59.40467259672005,79.02636308263754 60.50423320115078,78.79627741023432 61.04822634224547,78.91808752360521 61.51119922834914,78.72860507488076 62.032043725193944,78.9586908689962 64.48580002144445,78.87748416537943 65.27285392774502,79.12110412161564 66.45343478728319,79.02636308263754 66.89325902902056,78.71507060354634 67.9465223448351,78.71507060354634 68.30532633152325,79.03989752108464 69.63637337903492,79.35118920984678 70.66648805059958,79.148172976973 70.84010288288118,78.14662151335506 70.68963669490768,77.76765405006881 70.90954881574726,77.13152757017815 71.93966348731192,76.2382382376527 75.72446683101589,76.52246733823267 77.33329761016648,76.21116876656015 78.74536491266917,75.61563895364816 79.0,76.11642557266168 77.86571642913623,76.65781430700736 75.8749330189894,77.14506220906333 74.26610223989701,77.22627001233923 72.09012967528543,77.0232504075102 71.77762297715526,77.42928929495974 71.67345407779794,78.79627741023432 71.37252170179272,79.87902990764997 70.23823813098716,80.27152542503609 67.81920480116969,79.68954888204462 59.19633479800541,79.865495557955 57.193977065675426,79.567739503138" stroke="#4dd2ff" stroke-linecap="round" stroke-linejoin="round" stroke-width="0.5"><title>2023-04-26 7.0km</title></polyline><polyline fill="none" points="84.57142857142026,84.72183218687132 85.00360144057777,83.8290459986165 84.80192076822277,83.20577720225265 84.84513805515599,81.06643061437353 85.00360144057777,80.57791437052947 85.33493397349957,80.40946014584915 89.33973589434754,80.78005920494616 91.67346938775154,81.75708895364369 92.35054021602264,81.68970778414223 93.50300120038446,82.02661334660661 94.05042016803054,82.41405386234692 94.5546218486852,82.2961372834543 95.43337334925309,82.59935116706765 97.70948379347101,82.44774429741665 98.7322929171496,83.08786120961304 99.5102040815982,82.7846482561581 100.44657863141038,83.08786120961304 101.26770708279219,82.91940964006062 101.93037214881042,82.48143472534139 102.50660264102044,82.98679028925835 104.04801920772297,82.75095789236366 104.72509003599407,82.90256447333377 106.72749099641806,82.02661334660661 107.57743097242201,82.11083962590783 109.04681872751098,82.7004223332915 109.49339735892136,82.1445301250933 110.51620648254175,82.2961372834543 111.88475390151143,81.79077952772786 112.18727490992751,80.96535841104924 112.40336134447716,78.792290521611 112.6770708283293,78.35430425521918 113.35414165665861,78.13531067025906 114.36254501796793,78.4385324769828 115.42857142857974,78.4385324769828 113.1668667466729,78.1521563413553 112.66266506601823,78.32061295409221 112.36014405760216,78.7080624870141 111.88475390151143,81.82447009466705 110.4009603841696,82.32982774349512 107.11644657864235,81.55494535954494 95.70708283310523,81.75708895364369 94.05042016803054,81.48756410447822 88.17286914761644,79.71879596143845 85.59423769504065,79.80302346138342 88.08643457380822,79.95463284905418 88.25930372142466,79.78617796498293 88.69147659058217,79.97147832762857" stroke="#4dd2ff" stroke-linecap="round" stroke-linejoin="round" stroke-width="0.5"><title>2023-04-20 5.0km</title></polyline><polyline fill="none" points="128.06313866289565,95.84838700481487 128.22077872755472,96.7218224603057 128.07364800054347,96.36506792900764 128.17874137696344,96.54959627202334 129.3347685179324,96.85714285714494 130.09144082845887,96.47578497011273 130.48028632131172,95.55313972769363 130.5958890353795,95.50393177500519 130.80607578833587,95.83608504994481 131.26848664472345,95.79917917754938 131.57325743645197,95.2086836199378 131.44714538467815,93.60940970179217 131.8885375657701,92.85897355963971 131.7729348516441,92.67443933730101 134.9782828335301,90.11553448320774 136.03972593566868,88.70073108765791 136.77537957084132,86.36319195954275 136.95403831079602,82.53690767056105 137.03811301197857,82.05707531785447 137.2377904272289,81.93404106098751 137.1116783755133,81.4542062102555 137.43746784247924,80.08851152154239 138.64604167174548,77.82462178241258 139.53933537157718,76.76648422556173 141.13675469363807,75.33921359790838 142.08259508170886,73.99805533648032 142.4609312369721,73.08753536941367 143.4172809626907,68.54713297286071 144.79400419420563,66.0 143.33320626144996,69.00241170645313 142.53449660044862,72.87836085201707 142.12463243230013,74.01035961133312 140.84249323955737,75.72064109174244 138.81419107399415,77.57854414371104 137.55307055660523,79.85474234771391 137.1852437389898,81.3680817958084 137.24829976487672,82.05707531785447 137.01709433668293,82.3646603880843 136.77537957084132,86.80609773285687 136.07125394861214,88.76224463812105 134.46332528890343,90.73066100381402 131.8990469034179,92.68674162792013 131.94108425400918,92.89588036884379 131.63631346228067,93.40027224921505" stroke="#4dd2ff" stroke-linecap="round" stroke-linejoin="round" stroke-width="0.5"><title>2023-04-17 6.5km</title></polyline><polyline fill="none" points="157.6070051767747,88.33475895100855 157.42857142857974,88.18175972135214 157.42857142857974,87.76448819028155 158.1898887542775,78.25033804237319 158.3921136689023,77.59656268353865 159.2961779931211,77.84694511991984 159.80768807133427,77.6939336876676 161.00914197601378,77.79130461970635 163.36446745233843,78.59808956850611 163.7451261152164,78.4868091801909 165.3391342658433,79.08494015994074 165.44619451480685,79.46050938458939 165.99339134263573,79.61351876117988 166.75470866833348,79.32140979684482 168.44388148473809,79.57178894887329 168.82454014761606,79.37704964958539 169.50258839078015,79.80825771024683 170.34717479901155,79.68306841899175 171.5962110364926,79.89171717157296 172.3456327789463,79.53005912329536 172.3099460293306,79.26576992053015 172.571648860001,79.25185994776257 172.78576935781166,79.76652795972768 173.47571318421979,79.82216762415192 174.1299702610122,79.62742869567592 174.79612292104866,79.79434779488656 175.62881374597782,79.34922972614004 175.67639607877936,79.75261803994363 175.8786209934624,79.89171717157296 176.42581782134948,79.76652795972768 176.79458090098342,79.08494015994074 178.43617138447007,79.68306841899175 178.42427580128424,79.27967989179888 179.42350479128072,79.32140979684482 180.52979403012432,78.89020013966365 180.96993060904788,76.21945076085103 181.29111135588028,75.91342393046943 181.7193523515598,75.77432059026614 183.42042075115023,76.13598896864278 183.78918383078417,75.98297554535384 185.37129639822524,76.08034774442785 186.3586298050359,75.87169294383784 188.28571428573923,75.05098084898782 188.01211587176658,74.52238390613638 186.4300033042673,75.13444332990912 184.66945698863128,75.42656159595936 181.05319969158154,75.09271209606959 179.95880603586556,76.03861681079434 179.76847670448478,76.73413064210035 179.95880603586556,77.15143717493629 179.69710320519516,78.11123717443843 178.43617138447007,78.33379849253106 177.80570547416573,78.20860779746727 177.02059698203811,77.68002354865894 175.83103866066085,77.65220326615963 175.35521533206338,77.95822604974092 174.30840400926536,78.06950688533834 173.45192201784812,77.86085524132068 170.7159378786455,77.88867547961127 170.51371296396246,77.34617977039306 170.63266879611183,77.26271869338234 172.10772111470578,77.19316775540938 172.7976649410557,77.73566409596242 172.69060469215037,77.84694511991984 170.12115871789865,77.86085524132068 170.15684546751436,77.48528144767624 169.95462055288954,77.36008994471922 166.48111025441904,77.98604626744054 164.53023460734403,77.59656268353865 161.15188897459302,76.28900221390359 160.69985681242542,76.30291250009032 160.5333186474163,76.12207866479002 161.03293314238545,75.88560327417508 161.55633880384266,76.13598896864278 162.8648529573693,76.06643743468157 163.2217204537592,76.48374608665472 163.50721445091767,76.48374608665472" stroke="#4dd2ff" stroke-linecap="round" stroke-linejoin="round" stroke-width="0.5"><title>2023-04-07 7.0km</title></polyline><polyline fill="none" points="11.714285714260768,119.30415588483447 11.823278762050904,116.6135685241461 12.113926889491268,115.23993201997655 14.850863422383554,115.50899595048395 17.660461987077724,116.30202333640773 17.902668759808876,115.77805934012576 20.978694774617907,116.45779602091352 30.291545189509634,116.30202333640773 33.51289526798064,116.95343517471338 34.627046422916465,116.6135685241461 35.0630186140188,113.993734130956 35.4142184345983,113.55472983849177 37.581969051330816,113.78131287888391 38.0058309037704,113.6255370798608 39.543843911145814,113.72466715476185 42.571428571420256,112.67671693429293 42.38977349177003,112.12441554374527 39.20475442922907,113.07323960417125 37.78784480819013,113.10156260708754 35.20834267773898,112.7333631018846 34.118412200012244,113.72466715476185 33.83987441129284,115.83470419535297 32.70150257903151,116.0471221889893 31.877999551477842,115.90551023067383 30.89706212154124,115.32489963542321 29.81924198247725,115.35322216189525 29.407490468700416,115.65060832822928 28.366001345566474,115.721414460917 27.687822381732985,115.721414460917 27.360843238362577,115.50899595048395 24.82978246244602,115.59396339512023 24.57546535099391,115.4806734569429 24.33325857820455,114.94254494132474 20.42161919712089,115.6647695577849 18.350751289515756,115.29657710292668 14.669208342733327,113.93708849667746 11.992823503096588,114.07870253738656 11.920161471236497,113.10156260708754 13.119084996695165,113.7529900198133 14.959856470115483,113.85212000038882" stroke="#4dd2ff" stroke-linecap="round" stroke-linejoin="round" stroke-width="0.5"><title>2023-04-04 6.0km</title></polyline><polyline fill="none" points="51.73837323207408,128.1567041336093 71.48850876186043,129.35116590571124 78.12864053435624,109.64244974881876 61.78370078559965,102.07743318739813 50.03577534202486,115.41573140711989 49.52499597519636,126.96224160399288 56.33538753632456,130.54562691960018 74.04240559693426,127.36039586504921 77.27734158933163,111.8323172897799 63.99707804340869,101.48019374255091 49.52499597519636,117.40651408000849 50.546554708853364,129.35116590571124 73.70188601873815,128.95301206584554 77.61786116659641,110.4387655131286 64.3375976216048,101.08203400822822 56.33538753632456,107.05442118854262 49.52499597519636,116.80927949922625 49.354736185632646,127.95762709807605 68.59409234765917,131.1428571428405 74.55318496469408,128.55485814227723 77.4476013770327,110.4387655131286 63.826818253844976,101.08203400822822 50.03577534202486,116.2120447284542 49.354736185632646,128.35578114853706 65.86993572302163,130.34655013645533 73.36136644147336,128.1567041336093 77.61786116659641,109.44337075483054 62.805259520187974,100.68387418903876 49.86551555246115,116.41112300672103 50.03577534202486,128.75393511459697 60.42162247374654,130.34655013645533 74.55318496469408,127.75855004112236 77.61786116659641,110.23968660342507 62.805259520187974,100.28571428568102 49.69525576476008,116.41112300672103 50.206035130657256,128.95301206584554 70.4669500272721,129.94839650776703 74.21266538649797,127.95762709807605 77.4476013770327,109.2442917402368 63.656558466143906,100.68387418903876 50.37629492022097,115.41573140711989 49.01421660743654,127.95762709807605 73.36136644147336,128.75393511459697 76.7665622215718,109.84152872127015 63.99707804340869,101.08203400822822 55.654348379932344,107.05442118854262 50.03577534202486,116.41112300672103 49.86551555246115,128.95301206584554 68.25357276946306,130.34655013645533 73.70188601873815,127.95762709807605 76.9368220102042,109.2442917402368 63.316038887016475,100.88295410876162 52.58967217709869,111.23508094064891 49.01421660743654,128.1567041336093 54.803049434907734,130.54562691960018 73.53162623010576,128.95301206584554 77.4476013770327,110.83692326839082 64.67811719980091,101.08203400822822 56.33538753632456,107.2535004352685 49.52499597519636,117.20743590709753 49.01421660743654,128.1567041336093 52.93019175622612,130.14747333258856" stroke="#4dd2ff" stroke-linecap="round" stroke-linejoin="round" stroke-width="0.5"><title>2023-03-30 5.2km</title></polyline><polyline fill="none" points="115.12703583057737,127.79510091067641 115.42857142852154,125.29347665500245 113.46141062286915,124.63868258835282 109.82862460939214,124.13499300679541 109.61324203945696,123.93351672666904 109.79990693344735,121.34788176615257 110.71887256525224,121.14640194848471 111.42245562718017,114.4302616759669 111.1065611912054,114.27914525072265 110.80502559326123,114.5310058795003 109.81426577141974,114.46384308424604 110.05836601735791,114.41347096917161 109.82862460939214,114.19519161897188 106.4112211659085,115.05151657923125 105.01841388014145,115.01793529528368 104.18560127628734,114.26235452792025 103.10868842649506,112.19708207710937 101.24203948682407,110.6355167718284 100.72512131882831,110.51797897652432 100.46666223491775,110.08140926044143 97.68104766332544,109.49371736156172 95.3692747456953,108.40228377538733 94.82363890175475,107.07576208046521 94.69440935971215,105.63168788270559 93.93339094589464,104.64097821660107 92.72724855411798,104.43947718861455 89.09446254064096,105.11114628691575 88.40523831674363,104.9432292788697 86.8975603270228,103.7845970805065 86.17961842712248,103.63347051790333 84.57142857142026,103.81818074152397 86.48115402506664,103.68384605478786 88.14677923283307,104.7585203647759 89.09446254064096,105.09435459409724 92.66981320211198,104.47306071105413 93.87595559394686,104.6577699574118 94.65133284579497,105.66527115281497 94.80928006378235,107.12613652463187 95.3692747456953,108.41907511815953 97.40822974138428,109.44334366897237 100.35179153084755,110.01424458215479 100.76819783280371,110.56835232806043 101.24203948682407,110.6523078783066 102.51997606852092,111.60939801267523 103.33842983446084,112.58327327745792" stroke="#4dd2ff" stroke-linecap="round" stroke-linejoin="round" stroke-width="0.5"><title>2023-03-28 5.0km</title></polyline><polyline fill="none" points="124.09871589083923,118.76764737243502 124.38041733542923,115.98038490079489 124.21789727121359,115.51161165843223 123.94703049754025,115.34690711063013 122.71187800960615,115.66364642455301 122.62520064204,115.42292462239129 121.0,115.04283658116037 121.08667736756615,114.65007767127827 122.85272873193026,115.10618467179302 126.9699036917882,115.11885428590176 130.80537720699795,116.28445304992056 132.9073033707682,116.63919824816548 141.19582664524205,116.4871647204418 143.8611556982505,117.03195063491148 144.78210272867,116.66453715068928 145.21548956661718,114.37134476029314 145.52969502401538,113.9785836481824 147.5774478330277,114.21930835355306 147.7182985553518,114.04193230178498 149.44101123593282,114.10528092186723 151.8571428571595,113.23106700517383 151.72712680575205,112.66092405614472 149.99357945419615,113.33242546751717 148.6717495986377,113.54781191510847 147.25240770465462,113.52247235317918 145.60553772066487,113.21839719136915 145.19382022466743,113.33242546751717 144.33788121986436,114.04193230178498 144.12118780094897,114.63740800756204 144.17536115564872,115.2455503532401 143.68780096306,115.27088955062936 143.34109149273718,115.66364642455301 143.3302568218205,116.0310629792657 142.99438202241436,116.19576658617734 142.21428571426077,115.91703727254207 141.9217495986959,115.20754154712631 141.3583467094577,114.94147956644156 140.5782504012459,115.10618467179302 140.06902086670743,115.81568099768629 139.19141252007103,115.95504585353046 138.6280096307746,115.95504585353046 138.32463884429308,115.75233328234754 135.85433386836667,115.79034191557002 135.6268057784764,115.20754154712631 133.30818619579077,115.57495950110024" stroke="#4dd2ff" stroke-linecap="round" stroke-linejoin="round" stroke-width="0.5"><title>2023-03-26 5.6km</title></polyline><polyline fill="none" points="188.28571428573923,126.95374203355459 187.407566346752,126.96800410846481 185.1512140034465,126.22637421244872 184.84630152460886,126.45456846118032 183.68763410503743,126.42604420118732 181.10197628464084,126.86816955241375 179.91891586675774,126.86816955241375 179.2603049125173,126.38325779989827 178.3577639752184,124.45785568811698 176.7356295878999,123.14571404848539 176.29655561828986,123.03161417185038 176.07701863360126,122.63226384323207 173.7596837944584,122.19012459936494 171.77165443252306,121.20600301165541 171.2837944664061,120.09350908700435 171.1740259740036,118.89542843824893 170.600790513854,118.05391304453951 169.42992659518495,117.85423065446957 166.45398080180166,118.3962250250188 165.77097684924956,118.26785813420429 163.49023150763242,116.57055108343775 163.63658949750243,115.90018022592994 162.7584415585152,113.96036491917039 162.5145115753403,113.81773033886566 162.50231507624267,113.23292698130535 162.11202710331418,112.77649332939473 162.02665160928154,112.22021272616985 161.84370412200224,111.9634670579544 161.17289666854776,111.7352482756105 160.77041219652165,111.09338087828655 160.6484472050215,110.83663306347444 161.09971767361276,110.60841237293789 158.72140033880714,106.98535714313039 157.42857142857974,104.43204317480559 158.57504234899534,106.7571299304982 161.7217391304439,111.66392982685647 161.62416713719722,111.89214872999582 162.46572557877516,113.14734578932985 162.45352907961933,113.88904764789913 162.78283455676865,114.06020903562603 163.64878599660005,115.9857596699876 163.44144551100908,116.51349837431917 163.85612648224924,116.68465642922092 164.17323546024272,117.15533995965961 165.7465838509961,118.22506914346013 166.3198193111457,118.35343607496179 169.41773009602912,117.85423065446957 170.5642010163865,118.11096510165953 171.1374364765943,118.79558790351439 171.22281197062694,119.95088099670829 171.75945793342544,121.20600301165541 173.4669678148348,122.10454909433611 176.06482213444542,122.64652637531981 176.39412761153653,123.1171890883852 176.67464709206251,123.1171890883852 178.3577639752184,124.45785568811698 179.27250141167315,126.24063636432402 179.93111236591358,126.8824316363607 180.8702428007382,126.96800410846481 183.1387916431413,126.41178206894256 183.76081309991423,126.7683349223953 184.11451157543343,126.45456846118032 184.83410502545303,126.42604420118732 185.01705251273233,126.18358774781518 187.1636363636935,126.99652825377416 187.9442123094923,126.92521787923761" stroke="#4dd2ff" stroke-linecap="round" stroke-linejoin="round" stroke-width="0.5"><title>2023-03-18 7.0km</title></polyline><polyline fill="none" points="11.714285714260768,151.11669855644868 13.727381350588985,151.0563388151495 17.609042680240236,152.19109660937102 19.26081345876446,152.48082019532012 27.333843139058445,152.37217393677565 29.863117143744603,152.95161945367 30.833532476157416,152.50496379427204 31.184533766587265,150.41652359458385 31.463270085514523,150.04229038765334 34.632605266873725,150.15093886449176 36.11919896758627,149.86120936306543 37.61611623567296,149.2696760133622 37.46126272517722,148.73850059646793 39.43306409212528,147.615780783206 42.42689862824045,147.04838054632273 42.57142857136205,147.14495950932178 40.68221574340714,147.25361074492685 39.40209339000285,147.5916361497366 36.72828944219509,149.07652160240104 35.4481670887908,149.45075797670142 33.85833771439502,149.58355123384536 31.576829326571897,149.23345958622667 31.215504468709696,149.3179645650307 30.35864837729605,150.12679476746416 30.172824164677877,150.7183236739147 30.317354107857682,151.0563388151495 30.214118434174452,151.75650985120592 29.925058547989465,152.02209084452625 28.933996080828365,152.10659375822434 27.67452086211415,150.93561923676316 26.776370501320343,151.03219490967604 26.291162835084833,150.64589172766864 25.888543707842473,150.57345973542397 25.506571715290193,150.70625168604602 25.04201118380297,151.26156180524413 24.773598432308063,151.28570566218696 24.267743631324265,151.70822233146464 23.431534674717113,151.75650985120592 23.256034029473085,151.16498632646835 20.313817330170423,151.4788563336915" stroke="#4dd2ff" stroke-linecap="round" stroke-linejoin="round" stroke-width="0.5"><title>2023-03-14 5.6km</title></polyline><polyline fill="none" points="76.3100724160904,155.7854551030323 75.2672811060329,155.6468873758131 73.28834759711754,154.9956170943624 71.86635944701266,155.38360829024168 71.57011191576021,155.134185510542 69.11718235682929,155.71617125775083 68.35878867679276,155.6746009329654 67.57669519423507,155.02333078930678 66.49835418042494,152.94478739443002 65.26596445031464,151.57293068408035 64.43647136271466,151.25421444185486 61.77024358132621,150.89392558200052 60.33640552998986,150.11791544056905 59.76761026994791,148.89846164257324 59.5898617511848,147.5819930923608 59.115865701111034,147.01382889311935 58.17972350231139,146.83367875426484 54.83805134962313,147.33255545479187 53.21461487823399,146.265511308462 50.998683344281744,146.3348001533741 50.80908492428716,145.19845846782846 50.77353522053454,146.3625156810158 48.913100724166725,146.4872354830295 48.14285714284051,144.21454489698226 48.77090190915624,146.265511308462 49.078999341640156,146.54266646802716 52.776168531912845,146.23779576025845 53.28571428573923,146.3625156810158 54.41145490453346,147.18012110904965 55.075049374601804,147.346413113788 58.286372613569256,146.8891095926083 59.163265306153335,147.12469039382995 59.62541145493742,147.72056935241562 59.75576036865823,148.89846164257324 60.241606319963466,150.0624859687523 61.80579328502063,150.9493547018792 64.37722185649909,151.44821572514775 64.73271889402531,151.9332176761236 65.13561553659383,152.01636068735388 66.67610269912984,153.23578545544297 67.6122448979877,155.00947394256946 68.18104015802965,155.6746009329654 69.6622778144083,155.77159833688347 70.32587228441844,155.4390355101641 72.06780776835512,155.12032867550442 73.02764976961771,155.21732648985926 73.15799868333852,155.02333078930678 75.52797893353272,155.7854551030323 79.0,155.6468873758131" stroke="#4dd2ff" stroke-linecap="round" stroke-linejoin="round" stroke-width="0.5"><title>2023-03-12 6.0km</title></polyline><polyline fill="none" points="114.1001921845018,155.53401470884273 110.39180012809811,154.61171010680846 110.2395900064148,154.8544223834033 109.3678411275032,154.5631676052726 108.81434977578465,155.09713427482347 108.70365150546422,154.80587995891983 105.63177450356307,155.4369302757841 104.6354900704464,155.32366502602235 103.88827674568165,154.54698676797852 102.35233824473107,151.8447629299917 101.24535554135218,150.7120800549892 99.98616271623177,150.2590045560646 97.01114670088282,149.85447172645945 95.35067264572717,148.89977000589715 94.82485586166149,147.58906810558983 94.74183215887751,146.18126466295507 94.14682895579608,145.3883581682021 92.77693786041345,145.1456308683555 89.22075592575129,145.72817574080545 88.75028827681672,145.6472668634524 88.33516976295505,145.1456308683555 87.13132607308216,144.46599237906048 86.59167200513184,144.36890091974055 84.57142857142026,144.5469018813892 86.99295323510887,144.43362856611202 88.70877642539563,145.55017615409452 92.85996156313922,145.0970853621693 94.04996796924388,145.35599455051124 94.72799487505108,146.32690010285296 94.82485586166149,147.50816021273204 95.32299807813251,148.77031846628233 97.13568225497147,149.77356503205374 100.17988468933618,150.3884548356 100.53965406789212,150.85771118025878 101.02395900071133,150.9224360803346 102.86431774502853,152.4434633465571 103.92978859704453,154.5631676052726 104.7323510569986,155.2913035106758 105.86700832803035,155.40456878440455 107.14003843697719,154.9838687734009 107.36143497755984,155.25894198844617 108.24702114029787,154.8220607687399 110.32261370919878,154.6440717659425 113.10390775138512,155.6310990802449 115.42857142857974,155.4531110188982" stroke="#4dd2ff" stroke-linecap="round" stroke-linejoin="round" stroke-width="0.5"><title>2023-03-05 5.0km</title></polyline><polyline fill="none" points="149.33293584542116,149.88970471805078 149.50465060811257,150.4518116904219 151.2733126639505,150.1105326556717 151.66825661819894,151.3150441586622 151.59957071306417,151.9172970454092 147.01478654902894,153.18202189142175 144.04412115435116,154.56718705962703 141.1764846171718,156.53450573292503 139.16742189362412,153.38277109245246 137.8967326497077,152.31879790889798 125.94538516574539,149.6287259154342 125.80801335559227,149.28744540154003 126.47770093014697,147.42042938283703 126.28881469118642,147.03899374468892 126.51204388274346,146.05528777375002 121.0,143.28482316560985 126.4948724064161,145.99506071208452 125.22418316244148,149.58857529856323 124.76055330311647,151.93737210879044 125.4817553065368,150.19083366019186 125.94538516574539,149.90977999576717 136.1795850226772,151.95744716997433 138.63510612928076,153.08164721127832 140.79871213930892,156.7151768343756 145.29763892199844,153.9649425756652 147.27235869312426,153.1217970896978 151.85714285710128,151.85707184264902 151.2733126639505,149.22721936486778" stroke="#4dd2ff" stroke-linecap="round" stroke-linejoin="round" stroke-width="0.5"><title>2023-02-22 5.0km</title></polyline><polyline fill="none" points="157.42857142857974,153.57571046003432 157.62233684683451,150.12041815304838 157.88876429689117,149.6389359158493 160.64992150710896,149.78054851831985 163.81071989238262,150.95592733708327 164.8885400313884,151.02673296039575 165.37295357708354,151.3524383455224 165.80892576812766,151.21082740591373 167.8797936757328,151.522371275365 168.40053823729977,151.43740483740112 169.1634895716561,151.7772702656075 169.8416685355478,151.66398188541643 171.29490917245857,151.84807545455988 172.26373626373243,151.295793987636 172.30006727966247,151.57901553733973 172.687598116172,151.7489481795783 173.26889437093632,151.79143130639568 173.77752859384054,151.59317659911176 174.7705763623817,151.76310922333505 175.48508634220343,151.08337743212178 175.89683785603847,151.01257183872804 178.00403677951545,151.49404913533363 178.16147118184017,151.67814293818083 178.246243552363,151.1683440947818 179.2271809822414,151.22498850664124 180.31711145996815,150.89928281139873 180.68042161915218,149.51148444555292 180.76519398967503,148.25112448351865 181.24960753531195,147.783796987409 182.36375869030599,148.0103802195663 185.5608880914515,147.99621877878963 188.28571428568102,146.93410645084805 187.98295581963612,146.42428953995113 186.65081856917823,146.9482680039655 184.87059878895525,147.3306293724163 183.70800627942663,147.35895239331876 180.99529042385984,147.00491420157778 179.82058757566847,147.92541155243816 179.59049114148365,148.6334821304481 179.68737385061104,149.18577458120126 178.86387082299916,149.4690005951561 178.65799506619805,150.12041815304838 178.2704642296303,150.29035264684353 177.55595424986677,150.17706300827558 176.72034088359214,149.65309718286153 175.58196905138902,149.6389359158493 175.10966584441485,149.93632220804284 173.54743215971394,150.03545082527853 173.22045301634353,149.80887102086854 169.55102040822385,149.85135476340656 168.8607311056112,149.75222600983398 168.52164162369445,149.44067802072095 166.07535321818432,149.96464467757323 164.13769903563662,149.5964521059068 160.52881812065607,148.2652858973306 158.68804664723575,147.99621877878963 162.17582417582162,147.96789589278342" stroke="#4dd2ff" stroke-linecap="round" stroke-linejoin="round" stroke-width="0.5"><title>2023-02-10 5.9km</title></polyline><polyline fill="none" points="18.828980832418893,190.29433135864383 18.869176850072108,186.0484578081523 20.262638794083614,186.06412546198408 22.58060914336238,186.6594950788567 23.853483034472447,186.28347244138422 24.376031263556797,184.70103337953333 24.46982197125908,183.3065928654978 24.8717821475002,182.86788976403477 27.189752496720757,183.19691721198615 27.631908690498676,182.9775656612328 29.81589231430553,183.00890161695133 32.040071955823805,182.3038410097506 35.93908566463506,180.34532171070168 40.40084362012567,179.73425838814 42.571428571420256,178.91950336910668 42.450840518577024,179.0135137923935 42.236461757915094,178.63747174119635 42.27665777556831,178.27709721279098 41.55312945845071,178.68447704984283 39.69071397557855,179.15452931540494 38.886793623212725,179.1858660800499 38.699212207691744,178.95084018350462 36.20705911540426,179.40522324695485 34.55902239313582,180.01628792726842 31.839091867674142,181.56744079178316 29.842689659446478,182.19416461361106 27.40413125732448,182.36651319960947 25.461323739145882,182.0061477455747 24.496619316458236,182.03748390676628 23.39792816818226,182.9775656612328 23.14335338998353,183.69829096515605 23.223745425231755,184.41901276168937 22.634203833527863,184.41901276168937 22.205446312204003,184.82637570399675 22.111655604443513,185.43741801657598 21.6694994107238,185.64109822720638 20.785187023109756,185.31207620927307 20.46361888217507,184.46601623531024 19.64629985735519,184.04298443584412 18.721791452146135,184.30933793196164 18.21264189563226,185.1083955461363 17.1139507474727,185.31207620927307 16.296631722536404,185.3277439409576 16.01525959931314,185.09272779119783 11.915265802352224,185.06139227637323 11.714285714260768,184.88904682641441 12.009056510112714,184.5443553248042 14.206438806490041,184.38767710432876 14.46101358474698,185.1867342958285 15.546306060394272,185.1083955461363 16.444017120520584,184.52868751023198 17.274734817969147,184.59135875864013 17.663296321523376,184.12132374911744 18.118851187929977,184.10565588981262 18.855778177501634,184.90471460290428 19.84727994533023,184.8577112685016 20.436821537092328,185.3434116710123 21.656100738153327,185.67243361938745 23.009366664569825,185.4844211669406 23.357732150587253,184.34067360585323 23.39792816818226,185.3747471261595 22.92897462937981,185.75077207076538 21.213944544433616,185.51575659225637 20.79858569568023,185.3277439409576 20.32963215681957,184.35634144034702 17.757087029283866,183.60428351568407 17.1139507474727,183.7609625649202 15.519508715311531,185.06139227637323 14.715588363003917,185.0457245165162 14.30022951430874,184.43468058788858 14.675392345408909,184.19966302099056 15.33192729979055,184.19966302099056 15.881272873841226,184.68536558153573 17.221140127745457,184.59135875864013 17.824080391961616,184.16832731722388 18.38682463869918,184.62269437291252 18.882575522584375,184.2936700925202 19.753489237627946,184.12132374911744" stroke="#4dd2ff" stroke-linecap="round" stroke-linejoin="round" stroke-width="0.5"><title>2023-02-05 7.1km</title></polyline><polyline fill="none" points="48.50958040263504,189.1050503487204 48.78898860048503,186.583160265458 48.98981324280612,186.51168873610004 50.43924326944398,186.74652356239676 50.95440213434631,186.6648419484918 52.31651709921425,187.24682193915942 52.90152801357908,187.30808278665063 53.18093621148728,186.0930687156142 52.97138006304158,185.67444687938405 52.36890613625292,185.68465718968946 52.080766432220116,185.39876809319685 50.4567062818096,185.54171274728287 49.48750909528462,185.3783474110387 49.03347077372018,185.03119515333674 48.203977686178405,184.87803934855765 48.14285714284051,185.50087143915152 48.203977686178405,184.90867052894464 48.500848896452226,184.88824974308955 48.65801600780105,185.01077439342043 48.64055299537722,185.43960944452556 48.80645161290886,185.70507780701155 50.849624060152564,185.54171274728287 53.13727868057322,186.47084783844184 54.647829250548966,186.82820510715828 55.573368906159885,186.67505215401616 56.16711132670753,186.90988658280548 56.787048265803605,186.85883566861594 57.51176327915164,187.00177816025098 59.266796022304334,186.72610316537612 60.611447974748444,186.89967640212126 61.37108901288593,186.82820510715828 61.598108173697256,186.61379090471019 62.46252728597028,186.5933704796189 62.768130002426915,186.85883566861594 63.49284501577495,187.0936696502613 64.33106960949954,187.03240866665874 64.57555178267648,186.8486254825475 64.56682027643546,185.85823229937523 64.73271889402531,185.39876809319685 65.41377637640107,184.76572493723506 67.86732961435337,184.99035362916038 69.16832403582521,184.81677695857798 70.2161047780537,184.45941224205308 72.90540868294192,183.11162483312364 75.85665777348913,182.78488565686712 78.51976715982892,181.58002538348228 78.97380548139336,180.75295157320215 78.74678632058203,179.46637822270714 79.0,180.7018974019884 78.90395343193086,181.01843282799382 78.77298083918868,181.32475644523947 77.69027407222893,181.97824357880017 77.51564394857269,182.26414280824247 76.8258549599559,182.30498548616015 76.048750909511,182.7134113146094 74.70409895706689,182.98909777164954 73.94445791898761,182.92783418258477 72.63473199121654,183.1626777294805 70.19864176568808,184.42878091905732 69.07227746781427,184.80656655648636 67.3958282803651,184.95972247466852 65.50982294441201,184.70446247596556 64.6628668445046,185.35792672455864 64.42711617751047,185.15371962216886 64.68906136305304,185.46003011371067 64.54935726412805,185.80718082890235 64.6541353383218,186.20538158226555 64.49696822697297,186.37895575545554 64.55808877031086,186.72610316537612 64.36599563423079,186.97114764418802 63.55396555905463,187.0936696502613 62.57603686634684,186.72610316537612 62.49745331070153,186.5627398339202 61.6330341983703,186.5729500502348 61.26631093863398,186.79757453595084 60.54159592528595,186.85883566861594 60.11375212226994,186.85883566861594 59.88673296140041,186.70568276409176 58.03565365023678,186.75673375926272 57.04026194522157,186.62400111561146 55.95755517826183,186.7873643434068 55.477322338090744,186.634211325465 54.79626485571498,186.81799491785932 53.50400194036774,186.5627398339202 50.77977201063186,185.58255403814837 50.177298083901405,185.4906611094193 48.79772010666784,185.69486749888893 48.623089983011596,185.33750603376393 48.754062575811986,184.9699328605857 49.47877758910181,185.4191887710258 50.27334465191234,185.58255403814837 52.03710890124785,185.39876809319685 52.29905408684863,185.68465718968946 52.700703371316195,185.71528811405005" stroke="#4dd2ff" stroke-linecap="round" stroke-linejoin="round" stroke-width="0.5"><title>2022-12-15 10.0km</title></polyline><polyline fill="none" points="84.57142857142026,188.4225207639829 84.84391856618458,184.71980334846012 87.08961197145982,184.87362806485908 87.38089437963208,185.07140236550185 89.288324343157,185.51089946299908 89.58900295803323,184.23635275656852 89.51383330434328,183.8408005984893 88.69636331999209,183.7858626796442 88.41447711852379,183.42327168622433 87.39968679304002,183.46722217705246 87.00504611100769,183.2804324624376 86.36610405426472,183.51117264931963 85.69897337740986,183.46722217705246 84.78754132590257,182.9398150591369 84.69357925874647,183.44524693394487 84.91908821993275,183.7968502657386 87.02383852447383,183.4782097968855 87.34330955281621,183.86277575793792 89.69236123195151,184.67585338763456 91.28032016701763,185.00547764047224 92.13537497824291,184.81869069230015 92.8870715155499,185.06041491423093 94.70053941186052,185.08238981559407 95.69653732381994,185.02745255346235 96.10997041931842,184.84066564482055 97.60396728728665,185.06041491423093 98.34626761788968,185.00547764047224 98.69392726640217,184.74177832190617 99.56777449103538,184.74177832190617 99.79328345222166,184.97251526224136 100.57316860969877,185.1373270486729 100.78928136418108,185.36806311031978 101.01479032536736,185.10436471231515 101.47520445450209,185.20325168998534 101.78527927608229,185.08238981559407 101.99199582391884,183.46722217705246 102.82825822167797,182.7310490017262 104.76387680525659,182.97277808249783 106.36123194708489,182.89586434508965 107.74247433443088,182.5332702444939 110.46737428224878,181.10485692544898 114.10370628157398,180.61040158373362 115.19366626063129,180.14890780745918 115.32521315466147,180.6433653464337 115.42857142857974,180.61040158373362 114.41378110315418,181.005966045479 111.29424047330394,181.3795533203156 107.65790847397875,183.02771643143205 106.2954585000989,183.40129643378168 104.6981033582706,183.50018503301544 103.03497476945631,183.26944482172257 102.75308856792981,183.59907353807648 102.69671132764779,184.5440033936029 102.36784409254324,185.68669778132607 101.8792413432966,185.87348316847056 101.45641204103595,185.98335676870192 99.37985035672318,185.47793724521034 97.4630241865525,185.51089946299908" stroke="#4dd2ff" stroke-linecap="round" stroke-linejoin="round" stroke-width="0.5"><title>2022-12-12 7.2km</title></polyline><polyline fill="none" points="121.49922958394745,187.73971272527706 121.74884437600849,184.25101120570616 121.66563944536028,183.93132476015307 121.01188641873887,183.84792816815025 121.0,183.4309444141836 124.36385648255236,183.4865423245501 128.09619194368133,184.62629430147354 130.7706361435703,185.15446869441075 139.95883777242852,185.01547563893837 140.9929561963654,185.09887148987036 142.7402597402688,185.66874172112148 143.2870349989389,185.48805142761557 144.01210653752787,185.12667009508004 144.35681267885957,183.8618276038469 144.41624477220466,182.69426988133637 144.6658595642075,182.30508166819345 145.27206691616448,182.20778443475137 146.99559762276476,182.55527422328305 147.36407660139957,182.36068005490233 149.0994937266223,182.41627841812442 150.34756768657826,182.08268788584974 151.8571428571595,181.35990549362032 151.64318732119864,180.83171584615775 148.5646048866911,181.76299616432516 147.15012106538052,181.80469512862328 144.51133612147532,181.48500273063837 143.47721769759664,182.40237882954534 143.27514858025825,182.9583612265851 143.44155844161287,183.50044179843098 143.25137574289693,183.8340287310275 143.32269425486447,184.23711181122053 143.01364736963296,184.57069687343028 142.4549856922822,184.51509942190023 141.72991415363504,184.7374890869396 141.397094430984,184.4039044481906 140.71956856705947,184.29270938038826 140.5650451244437,184.09811778531002 140.5056130310404,184.2232124152215 139.41206251381664,184.1120171945222 137.80739599384833,184.4178038250393 137.24873431655578,184.43170320043282 136.88025533786276,184.18151421846414 134.43165309273172,184.26491059872205 133.0052828527987,184.08421837461356 131.55513977556257,184.29270938038826" stroke="#4dd2ff" stroke-linecap="round" stroke-linejoin="round" stroke-width="0.5"><title>2022-12-06 5.0km</title></polyline><polyline fill="none" points="157.42857142857974,188.05058127579832 157.69254943041597,185.09607994469843 157.83396621712018,185.23939724076627 159.81380123092094,185.2614460380646 162.40644232026534,186.1213454935205 162.50072017812636,186.3087585356625 162.35930339142215,186.3087585356625 162.48186460649595,186.11032118640287 162.20845881896093,186.1213454935205 161.9727641744539,185.87881046804978 162.18017546163173,185.94495644004928 162.41587010608055,184.35744152400002 162.26502553356113,184.4566619147663 162.28388110519154,184.7763714201501 162.63270917901536,185.0630066945523 164.05630483175628,185.41578748841857 164.92366112349555,185.25042163998296 165.696739557432,185.49295812789205 166.9034961372381,185.52603124162124 169.51499279827112,185.29451922523003 170.24093230330618,185.49295812789205 171.30627209640807,185.38271433974296 171.57025009818608,185.17325082091702 172.50360089039896,185.17325082091702 172.59787874820177,185.36066556807782 173.74806861334946,185.69139665270632 174.64370826241793,185.53705561051174 174.86054733535275,183.8723626981664 175.72790362709202,183.14474022558716 178.21683907293482,183.39830620944122 179.42359565274091,183.28806020534103 180.76234123349423,182.8801489759062 183.28898782242322,181.53513306876266 184.1469163284055,181.31463700142194 186.40958491555648,181.12721497735765 187.64462485269178,180.79646940658859 188.12544192746282,180.5208472956292 188.27628649992403,181.06106594717858 188.28571428568102,180.93979261614004 186.36244598665508,181.5792322262496 183.71323818253586,181.93202481419576 182.33678145875456,182.62658173119416 179.78185151243815,183.72904352203477 177.8491554275388,183.81723996142682 177.64174414036097,183.9385099437568 175.89760377112543,183.72904352203477 171.30627209640807,185.93393211431976 166.9412072803243,186.0221266876979" stroke="#4dd2ff" stroke-linecap="round" stroke-linejoin="round" stroke-width="0.5"><title>2022-11-27 5.6km</title></polyline><polyline fill="none" points="11.714285714260768,220.39926348572772 12.93851525732316,220.57820786924276 13.277364505862352,220.47595396825636 13.834826172736939,220.75715198769467 14.206467284006067,220.69324340436287 16.16304842865793,221.2939827529699 16.490967056306545,219.77295605642576 16.31607712159166,219.5173194379895 16.381660847109742,220.04137392368284 16.92819189315196,220.3864817339272 18.655229998461436,220.71880684178177 19.475026567466557,220.47595396825636 20.3385456201504,220.78271541152935 23.497495066025294,220.75715198769467 24.109609837585595,220.55264440210885 25.781994838325772,220.75715198769467 26.67830575373955,220.70602512375626 27.082738727796823,220.39926348572772 28.16487019881606,220.3864817339272 28.285107028961647,220.62933478725608 29.542128434753977,221.0127859829372 30.394716866547242,220.89775075200305 30.755427356867585,220.52708092953253 30.87566418701317,219.90077416283748 30.733566115086433,219.38950092599407 30.90845604974311,218.86544361281994 31.914073174411897,218.04739838530077 34.43904660694534,218.36694796154916 36.15515409136424,218.23912823246064 37.93684530130122,217.6383736944772 40.494610596622806,216.24512294930173 42.571428571420256,215.84887438988517 40.658569910388906,216.16842978118802 37.882192196673714,217.66393777820485 36.11143160768552,218.22634625210776 34.471838469675276,218.32860205700854 32.19826931832358,217.9834883686417 31.793836344324518,218.06018038460024 30.87566418701317,218.91657125560596 30.711704873247072,219.38950092599407 30.85380294517381,219.90077416283748 30.657051768619567,220.24588237467106 30.733566115086433,220.64211651340156 30.438439350225963,220.9105324497359 29.21420980716357,220.9616592271268 27.924396538641304,220.34813647034025 27.039016244059894,220.3609182262153 26.61272202822147,220.68046168365254 25.58524366177153,220.74437027372915 24.7654470927082,220.53986266649736 21.311370882031042,220.48873571059812" stroke="#4dd2ff" stroke-linecap="round" stroke-linejoin="round" stroke-width="0.5"><title>2022-11-23 5.3km</title></polyline><polyline fill="none" points="48.14285714284051,219.31416686401644 50.76978417264763,219.63144241817645 53.7050359712448,220.43904958770145 54.08735868445365,218.73730032828462 54.00102774921106,218.33349230089516 53.618705035944004,218.1460095958173 53.00205549842212,218.20369660943106 52.459403905435465,217.75662161527725 51.12744090438355,217.7998870013398 50.83144912641728,217.95852663290862 50.88078108942136,218.10274431954895 55.073997944477014,219.5304911856074 56.381294964055996,219.68912880324933 57.07194244599668,219.2997452303971 57.93525179853896,219.44396149815293 58.983556012331974,219.25648032032768 59.19321685505565,219.55933440254012 59.7852004111046,219.64586401675479 63.1891058581532,219.55933440254012 64.04008221998811,219.8333446591132 65.48304213775555,219.76123675024428 65.95169578620698,219.42953987824148 67.16032887977781,219.4151182568021 67.4439876669785,219.73239357600687 68.88694758480415,220.0929328151542 70.13257965055527,219.77565833507106 70.10791366908234,219.1987937521917 70.29290853033308,218.91036054534197 70.15724563208641,218.18927485829045 70.39157245634124,217.64124718517996 71.46454265160719,216.79035774788645 75.20143884891877,217.15090476803016 77.24871531350072,216.7326701361162 78.69167523126816,216.11252676826552 79.0,216.67498249998607 77.80369989719475,217.20859220277634 75.65775950666284,217.75662161527725 74.14080164441839,217.67009080189746 73.894141829398,217.82873058442783 71.95786228158977,217.48260718442907 71.57553956832271,217.58355993354053 71.26721479959087,217.9873701824108 71.11921891057864,219.68912880324933 70.74922918807715,220.74190104279842 69.91058581706602,221.03033037458954 66.60534429602558,220.39578503918892 57.306269270251505,220.59768614808854 53.84069886949146,219.93429566743725" stroke="#4dd2ff" stroke-linecap="round" stroke-linejoin="round" stroke-width="0.5"><title>2022-11-18 5.5km</title></polyline><polyline fill="none" points="84.57142857142026,221.95286774875422 84.91091776592657,218.40842479655112 85.71114229579689,218.60691607954504 86.48711759754224,218.49349252523098 88.59680044907145,218.7345174633374 90.6579848441761,219.44341182796052 90.98534942464903,217.9263733139378 90.92472635419108,217.2600051740592 89.9547572270385,217.21747092499572 89.44552343524992,216.7637714281882 88.16031434183242,216.82048394929734 87.90569744596723,217.14658047987905 88.01481897279155,217.2600051740592 91.31271400500555,218.36589091192582 93.42239685653476,218.80540706854663 94.24687061464647,218.52184842280985 95.20471512770746,218.84794081369182 98.72085321357008,218.83376290014712 99.3998316025245,218.59273814049084 101.26702217228012,218.84794081369182 102.21274207124952,218.7912291505345 102.84322200389579,218.49349252523098 103.82531574508175,218.50767047477711 104.11630648327991,218.7912291505345 105.60763401619624,219.10314300088794 106.78372158284765,218.83376290014712 106.97771540831309,217.91219530289527 106.82009542518063,217.33089555922197 107.02621386467945,216.80630582128651 108.08105529041495,215.84218959666032 112.10642716806615,216.15411031067197 113.71900084189838,215.81383313209517 115.29520067345584,215.1899893940863 115.42857142852154,215.7571201850369 112.47016559069743,216.7779495607101 109.54813359526452,216.83466207579477 108.71153522306122,216.53692110380507 108.20230143133085,216.69288074305223 107.94768453546567,217.03315568964172 107.82643839454977,218.52184842280985 107.49907381413504,219.6844350577594 106.50485545885749,220.02470240900584 104.2496772382292,219.45758967702568 94.25899522867985,219.5851902509603" stroke="#4dd2ff" stroke-linecap="round" stroke-linejoin="round" stroke-width="0.5"><title>2022-11-06 5.5km</title></polyline><polyline fill="none" points="121.0,228.0735358785896 121.71151178900618,224.24218142016616 122.21705963928252,213.7548542154982 122.64771151170135,211.80621087228064 122.76005547842942,212.00326552733895 125.04438280162867,211.93758066312876 131.4667128988076,213.38264285953483 131.91608876548707,210.31734741450055 131.74757281539496,211.19315074558835 132.4403606101405,211.6967359828559 135.77323162276298,212.37547936386545 142.64493758662138,211.01799037583987 143.09431345341727,211.01799037583987 143.18793342576828,212.24410985095892 144.72330097085796,212.02516047740937 146.27739251032472,212.11274025462626 146.85783633834217,212.48495389426535 149.32940360612702,212.3973742746166 150.11581137299072,211.85000081185717 150.13453536760062,211.03988543017476 151.7447988904314,210.55819370000972 151.8571428571595,209.44154037730186 151.25797503464855,209.0693212642509 150.2468793343287,210.42682303355832 150.43411927868146,210.95230519901088 150.02219140075613,211.12746562434768 149.3481276006205,212.24410985095892 147.288488210761,212.50684879344772 146.27739251032472,212.11274025462626 140.43550624127965,212.11274025462626 139.96740637999028,212.46305899282743 138.54438280162867,212.46305899282743 137.06518723990303,211.95947562019865 135.62343966704793,212.37547936386545 133.11442441050895,211.91568570377422 127.29126213584095,210.01081537308346 127.10402219137177,209.66049248407944 127.55339805816766,209.50722603368922 129.55686546454672,209.26637852514978 130.2122052704217,210.01081537308346 130.84882108168676,209.96702504441782 130.1934812759282,209.945129876578 129.51941747567616,209.31016900209943 128.45214979187585,209.31016900209943 127.36615811369848,209.4634355984308 127.23509015247691,210.03271053390927 133.20804438274354,212.02516047740937 131.61650485428981,211.1055705792969 131.7101248265244,210.31734741450055" stroke="#4dd2ff" stroke-linecap="round" stroke-linejoin="round" stroke-width="0.5"><title>2022-11-02 5.0km</title></polyline><polyline fill="none" points="158.37875288684154,225.61974790027307 158.331243813911,225.3281086387433 157.48795776971383,225.21700779729872 157.42857142857974,224.81426645920146 157.73738040251192,222.73110188861028 157.73738040251192,220.8145612947992 157.92741669417592,220.4118064536451 157.82052128011128,218.93965755795944 158.0818211811711,215.85642430926964 158.331243813911,214.6897766306356 158.53315737377852,214.84255251179275 160.89673375122948,214.75922023502062 163.93731441767886,215.70364960790903 164.2342461234075,213.71756231239124 164.07984163647052,214.1758928165509 164.2936324645416,214.50922308734152 166.72847245133016,215.06477165792603 170.51732101623202,214.27311423294304 171.80006598483305,214.2453366927657 172.52457934670383,214.60644425688952 172.91652919829357,214.37033557737595 174.51996040908853,214.41200184579066 175.00692840648117,213.967560967576 175.73144176841015,214.328669295719 176.64599142194493,214.00922736384382 177.3348729792051,214.31478053225146 177.64368195313727,215.12032638570236 178.49884526559617,215.3842110215046 179.69844935659785,215.1342150639539 179.9003629165236,214.09256011662364 179.75783569779014,213.5647851220856 179.98350379412295,213.0092302041012 180.71989442425547,212.27311631652992 181.44440778618446,212.1203374452889 183.53480699437205,212.45367293516756 184.9125701088342,212.45367293516756 186.44473771029152,212.16200442779518 188.06004618929,211.52310924259655 188.28571428573923,212.0092254272604 186.9792147806147,212.62034036270052 185.2332563510281,213.0647858017037 183.4279115803074,213.17589692637557 181.2068624216481,212.92589676365606 180.87429891125066,213.3147856999567 180.43483998678857,215.87031290968298 179.4965357967303,216.21752744216064 176.13526888820343,215.64809512697684 167.10854503465816,215.82864710406284 164.40052787854802,215.2592131022393 164.06796436820878,217.37027310514532" stroke="#4dd2ff" stroke-linecap="round" stroke-linejoin="round" stroke-width="0.5"><title>2022-10-28 6.2km</title></polyline><polyline fill="none" points="11.714285714260768,256.1957958232233 11.907444668060634,253.23128263268154 12.112676056334749,252.6948398758541 12.305835010076407,252.89247693188372 13.778672032174654,252.7513076359901 14.93762575450819,252.87836000899551 17.37625754531473,253.71125590297743 17.871227364172228,253.5983211711573 18.148893360164948,252.08780994494737 18.04024144867435,251.57959671638673 17.678068410488777,251.4101918767119 16.97786720318254,251.4666601804929 16.579476861166768,251.07138155221764 15.287726358161308,251.1419671074109 15.106639839010313,251.3113722876151 15.251509054272901,251.55136259132996 18.957746478903573,252.82189230258518 20.16498993965797,253.03364607840194 25.271629778668284,252.28544790005253 25.319919517089147,252.99129535013344 27.010060362226795,252.87836000899551 28.12072434608126,253.14658128810697 30.957746478845365,252.79365844045242 31.09054325951729,253.06187988979218 32.490945674013346,253.41480202808452 33.62575452710735,253.30186704536027 33.867203219328076,253.10423059565073 33.84305835008854,252.51131949029514 34.0362173038302,252.25721392435662 33.89134808856761,251.5654796546005 34.12072434608126,251.04314731968043 35.1710261569242,250.15376593678957 38.128772635769565,250.47846141434275 39.311871227342635,250.421992692427 40.68812877259916,250.15376593678957 42.269617706188,249.518489891052 42.571428571420256,250.01259374353685 41.1710261569242,250.6196331147221 39.32394366199151,251.09961577881768 37.88732394366525,251.04314731968043 37.633802816912066,251.170201319037 35.71428571426077,250.8455075246311 35.303822937596124,250.95844458624197 35.05030181084294,251.33960646338528 34.97786720318254,252.56778732810926 34.603621730348095,253.96535870010848 33.60160965792602,254.2759281284816 32.73239436617587,254.1912274469796 32.58752515085507,253.9371250799013 32.104627766646445,254.00770911927975 30.89738430583384,253.72537273772468 25.742454728344455,253.79595688910922" stroke="#4dd2ff" stroke-linecap="round" stroke-linejoin="round" stroke-width="0.5"><title>2022-10-20 5.2km</title></polyline><polyline fill="none" points="55.1119533526944,254.25629627525632 55.57376093289349,254.96812715219858 56.79125364427455,255.3117688630009 58.05072886287235,254.84539784645312 61.325364431366324,255.18903973895067 61.556268221582286,254.82085197747801 62.10204081633128,255.40995211538393 63.06763848394621,255.6554100648209 63.76034985424485,255.40995211538393 66.95102040807251,255.72904739898513 68.0425655975705,254.6981225938507 68.69329446053598,255.2872230433568 70.2256559766829,254.9190354376624 71.71603498538025,255.139948071228 73.58425655972678,254.8699437127798 73.83615160337649,256.6617849426257 74.15102040814236,256.39178235500003 74.21399416902568,254.59993904018484 74.80174927110784,254.18265847369912 78.2653061223682,255.21358556892665 79.0,256.44087375796516 78.49620991258416,254.45266363184783 76.64897959178779,250.0589042880165 74.06705539347604,250.96711834821326 73.29037900874391,252.2435212888813 71.3172011661809,252.5626209268812 70.3096209912328,252.5626209268812 69.91078717203345,252.1698828485096 63.61341107869521,252.19442899791466 63.109620991162956,251.82623648461595 60.29679300298449,252.3662519708305 59.793002915452234,251.97351356002036 65.96443148690742,251.1143959689507 66.27930029155686,251.70350551705633 65.8804664722411,252.31715970576624 62.920699708512984,251.97351356002036 60.443731778417714,252.3662519708305 59.56209912535269,252.0471520627034 63.90728862967808,251.23712724812503 66.21632653055713,251.16348848838243 66.25830903789029,251.9244212119811 65.92244897957426,252.31715970576624 62.857725947513245,251.97351356002036 60.29679300298449,252.34170583960076 59.58309037901927,252.0716982250451 61.325364431366324,251.75259791189455 61.87113702611532,252.09624438484025 65.83848396502435,252.4398903488036 66.21632653055713,252.14533669649973 66.2373177842237,251.16348848838243 64.80991253640968,251.04075717029627 57.924781340989284,252.46443646958505 54.79708454804495,251.89987503401062 48.43673469382338,249.76434761309065 48.14285714284051,249.37160479824524 48.60466472292319,249.07704725087387 50.829737609252334,249.0525007716642" stroke="#4dd2ff" stroke-linecap="round" stroke-linejoin="round" stroke-width="0.5"><title>2022-09-24 5.1km</title></polyline><polyline fill="none" points="112.62337662326172,258.34764740406536 113.84302653861232,257.5633023120463 115.2456239410676,252.286775248067 109.5742518347688,248.86414101801347 104.87859966093674,254.42591281834757 104.87859966093674,257.99112702097045 107.37888198741712,259.0606876053498 112.56239412724972,259.13199158391217 113.90400903415866,258.2763433425571 115.42857142840512,252.00155639246805 110.062111801235,248.65022580185905 105.00056465272792,254.49721728725126 105.12252964405343,258.63286357506877 108.47656691097654,258.775471615314 109.51326933922246,259.48851136420853 108.4155844154302,260.55806957324967 85.97402597381733,261.84153718478046 85.05928853736259,262.5545736909844 86.64483342738822,261.3424111818895 110.18407679256052,261.9128408692777 113.78204404260032,261.0571961568203 99.87803500820883,260.55806957324967 101.03670242778026,243.58754587190924 100.3658949744422,243.44493461947422 97.86561264819466,260.8432848090888 84.57142857136205,260.7006772062159 84.75437605846673,261.48501864873106 113.90400903415866,261.84153718478046 111.64765669079497,260.55806957324967 109.14737436454743,261.1284999244381 99.81705251266249,260.34415806713514 100.7927724448964,243.15971202327637 98.47543760552071,260.34415806713514 96.46301524550654,261.1284999244381 86.33992094849236,260.7006772062159 86.21795595693402,261.48501864873106 115.36758893262595,262.1980555320042 107.1959345000796,261.9128408692777 113.41614906815812,261.84153718478046 113.41614906815812,260.9145885994076 109.81818181788549,260.6293733935454" stroke="#4dd2ff" stroke-linecap="round" stroke-linejoin="round" stroke-width="0.5"><title>2022-09-22 5.0km</title></polyline><polyline fill="none" points="135.11310248833615,255.23044903708796 136.33460936148185,255.05465168580122 137.23664520634338,255.64796715007105 138.30781277199276,255.4941447850142 140.61927962419577,255.86771318830142 141.84078649745788,255.31834765692474 141.8032016705256,254.9228035746928 142.06629545858596,254.85687948786654 142.51731338107493,255.6259925334889 144.69723333918955,255.36229695288057 145.48651470337063,255.6699417643831 147.14024708548095,254.85687948786654 147.1590394990053,255.56006866969983 147.45971811388154,255.84573859491502 147.64764224819373,254.68108182042488 148.02349051693454,254.43935978479567 151.31216286774725,255.31834765692474 151.8571428571595,256.3511536541628 150.8799373586662,253.12087100282952 149.73360013926867,250.68164469381736 148.07986775715835,251.2749726484035 147.572472594562,250.92337110210792 145.48651470337063,250.61571926086617 142.94953888992313,252.615448084136 139.3038106840104,252.68137288243452 138.83400034799706,251.6924987117236 135.62049765104894,252.15397391053557 134.49295284505934,252.41767356389028 135.80842178536113,253.01099655989674 141.22063685406465,252.9670467664546 142.06629545858596,252.615448084136 143.60727336013224,252.615448084136 144.56568644521758,252.9670467664546 146.52009744220413,252.74729765974917 146.877153297537,251.8243488731532 146.23821124073584,251.25299756924505 145.1482512615621,251.14312213826634 143.4945188795682,252.0440989562194 142.40455890039448,251.25299756924505 140.91995823918842,251.67052367671567 139.05950930924155,251.6265735996567 139.02192448242567,252.72532273632532 137.49973899440374,252.46162347352947 135.16947972867638,252.8351973303361 133.98555768234655,252.46162347352947 133.17748390475754,252.79124749969924 131.8432225509314,252.74729765974917 124.1383330434328,250.4179428366042 124.58935096580535,249.71473624744976 123.3490516791353,249.36313206014165 122.61614755529445,249.89053811787744 121.0,249.6048600028298 121.30067861499265,249.86856289225398 124.11954062990844,250.19819103322516 126.67530885688029,249.75868672902288 127.48338263446931,250.50584349285054 128.49817295989487,250.3300421431777 129.0807377762394,250.54979380698933 128.70488950773142,253.84604086853506 128.1787019314943,253.84604086853506 129.34383156441618,254.3514607930265 128.6485122673912,254.43935978479567 128.47938054648694,255.1205757099233" stroke="#4dd2ff" stroke-linecap="round" stroke-linejoin="round" stroke-width="0.5"><title>2022-09-09 5.2km</title></polyline></svg>