<?xml version="1.0" encoding="utf-8" ?>
<svg baseProfile="full" height="300mm" version="1.1" viewBox="0,0,200,300" width="200mm" xmlns="http://www.w3.org/2000/svg" xmlns:ev="http://www.w3.org/2001/xml-events" xmlns:xlink="http://www.w3.org/1999/xlink"><defs /><rect fill="#222222" height="300" width="200" x="0" y="0" /><text fill="#FFFFFF" style="font-size:12px; font-family:Arial; font-weight:bold;" x="10" y="20">Over 5km Runs</text><text fill="#FFFFFF" style="font-size:4px; font-family:Arial" x="10" y="280">ATHLETE</text><text fill="#FFFFFF" style="font-size:9px; font-family:Arial" x="10" y="290">fengde</text><text fill="#FFFFFF" style="font-size:4px; font-family:Arial" x="120" y="280">STATISTICS</text><text fill="#FFFFFF" style="font-size:3px; font-family:Arial" x="120" y="285">Number: 32</text><text fill="#FFFFFF" style="font-size:3px; font-family:Arial" x="120" y="290">Weekly: 1.5</text><text fill="#FFFFFF" style="font-size:3px; font-family:Arial" x="141" y="285">Total: 190.4 km</text><text fill="#FFFFFF" style="font-size:3px; font-family:Arial" x="141" y="290">Avg: 5.9 km</text><text fill="#FFFFFF" style="font-size:3px; font-family:Arial" x="167" y="285">Min: 5.0 km</text><text fill="#FFFFFF" style="font-size:3px; font-family:Arial" x="167" y="290">Max: 10.0 km</text><polyline fill="none" points="12.14593572774902,53.71809102273255 12.51925465837121,51.41276362625649 11.714285714260768,51.11265880387509 12.169268160883803,51.01717075939814 12.297596543270629,50.78527092846343 12.530920874909498,48.60266385416617 12.379260059329681,48.46624968560354 12.787577639741357,48.479891108960146 13.009235754725523,44.005426865202026 13.18422900349833,43.63709514873335 15.89079125027638,43.82808209602081 18.79567917896202,44.87850525001704 19.05233594373567,44.81029621406924 19.343991358357016,44.25098075837013 21.59557115851203,44.755728959309636 22.867188765783794,44.8375798327761 31.31352957058698,44.67387803392194 33.856764785246924,45.24683342073695 34.88339184439974,44.87850525001704 35.31504185788799,42.30017859759391 35.59503105585463,41.98641045995464 37.823278422874864,42.15011567050533 39.864866324584,42.05462098964199 42.57142857136205,41.113312493864214 42.32643802318489,40.56762326297758 40.77483121788828,41.20880787183705 39.52654604369309,41.46800925556454 37.97493923845468,41.522577901545446 35.45503645687131,41.20880787183705 34.39341074798722,42.05462098964199 34.171752632944845,42.69579820461513 34.32341344852466,43.21419447315566 34.11342155007878,44.100920101467636 33.005130974866915,44.373757529625436 31.815176883537788,44.04635254656023 31.39519308664603,43.705304805218475 30.38023224408971,43.705304805218475 29.91358358087018,43.991784968515276 28.82862543873489,44.08727821489447 27.790332163043786,43.89629165145743 26.017067242763005,43.97814307041699 24.103807723498903,43.78715634539549 22.785525249724742,43.97814307041699 22.00388873880729,43.773514425658504 20.953929246519692,43.97814307041699 19.33232514176052,43.63709514873335 18.81901161215501,43.173268527694745 18.784012962365523,42.53209368682292 18.305698082607705,42.50480958035041 18.935673778003547,42.641230055101914" stroke="#4dd2ff" stroke-linecap="round" stroke-linejoin="round" stroke-width="0.5"><title>2023-05-12 6.0km</title></polyline><polyline fill="none" points="56.204178375483025,62.40643830474437 56.5186011212063,62.39374673635757 55.68375452060718,61.9368493759539 55.92228212073678,62.000307447124214 56.08491457544733,61.77185823319451 56.00901942991186,62.3556720230481 56.204178375483025,62.22875622437277 56.94144550326746,62.57142857142753 57.57029099465581,62.546045468290686 57.75460777658736,61.65763346244057 57.667870467412286,60.210776916268514 58.10155701317126,59.60156891919178 58.06903052225243,59.28427185734472 60.72536061494611,57.27893493792362 61.5276807245682,56.49202138320106 62.47094896156341,55.17202571852249 63.17568959837081,53.07777190674824 63.414217198616825,48.571828644533525 63.631060471409,48.34335375500086 63.62021830776939,47.28982500077109 64.0864313445054,45.79202113972133 65.4850704545388,43.443731521947484 67.9245572743821,41.146171056010644 68.87866767501691,39.648290159821045 69.94119971210603,34.74831125217315 71.45910262223333,31.714285714282596 69.98456836666446,34.583282556595805 69.12803743884433,38.68354336631455 68.66182440210832,40.029109117509506 67.68602967419429,41.41274111108214 66.04886296403129,42.809050728006696 65.05138390877983,44.002247831216664 64.17316865362227,45.5000741324111 63.71779778058408,47.02326806014753 63.59853398054838,47.68331273091462 63.72863994422369,48.40681904594385 65.018857417861,48.330660692787205 66.55844465526752,48.495670396543574 67.37160692852922,48.31796762923477 68.44498112925794,48.50836344125128 69.23645907524042,48.40681904594385 69.5725661481847,48.584521681092156 69.71351427555783,49.168399907139246 69.5617239845451,49.752275279672176 67.39329125580844,51.77043122082978 66.9921312010265,52.46852754170686 66.82949874631595,53.49662560568686 67.19813231017906,54.98164052514039 63.414217198616825,59.96963245545339 61.777050488395616,61.79724150076072 61.51683856092859,61.79724150076072 58.12324134045048,59.53810957419046 57.6895547946915,60.29961948967684 57.84134508570423,61.53071692248341" stroke="#4dd2ff" stroke-linecap="round" stroke-linejoin="round" stroke-width="0.5"><title>2023-05-09 7.6km</title></polyline><polyline fill="none" points="98.79373683227459,62.57142857143481 99.02667040959932,60.31471338921983 98.64399381849216,59.08907199050009 96.49767728551524,58.40815657352505 92.43797779688612,57.863422425012686 92.33814912091475,56.91013378335629 92.62099703610875,54.711714611563366 94.30144641461084,54.75062491380959 93.76902680954663,54.63389398234722 93.6026456830441,53.155295771415695 93.20333097915864,53.52494643854152 92.60435892350506,53.11638513165235 92.65427326149074,41.34553869225783 92.87056872603716,40.781297378387535 92.33814912091475,41.0536899529543 91.63934838928981,40.664557579977554 92.7707400500658,38.62159911202616 92.83729250071337,37.24015718999726 93.48617889435263,36.909387865889585 93.76902680954663,40.547817707498325 93.25324531714432,42.12379973278439 93.38635021843947,43.64139928855002 93.586007570324,43.97215650381986 94.85050413239514,43.83596242839121 95.71568599058082,43.11607778268808 95.2331807234441,40.255967702149064 96.01517201843672,39.08856304861547 95.94861956773093,38.524314809328644 95.38292373740114,38.641055966421845 94.23489396402147,38.076806353987195 94.61757055518683,37.49309803634242 95.34964751213556,37.51255501015112 96.3312961589545,37.998978685354814 96.69733463745797,37.78495242682402 96.83043953869492,38.01843560556881 97.9451930867508,35.2360751076194 97.82872629823396,33.56274712178856 97.36285914375912,32.18126719261636 96.98018255259376,31.714285714289872 96.11500069440808,32.16180965467356 95.74896221590461,32.92065210767032 96.24810559564503,32.33692742178391 96.09836258168798,33.11522659113689 96.43112483486766,33.6211192845949 96.81380142603302,33.71840618143324 97.36285914375912,33.19305632688338 97.6956213969388,33.29034345026594 97.92855497408891,34.243754534982145 97.82872629823396,35.76141912509047 96.69733463745797,37.97952176305989 93.71911247161916,40.68401421816088 93.28652154252632,42.065430269023636 93.53609323233832,44.030525362395565 94.13506528810831,44.41965061292285 96.23146748292493,44.22508809057763 97.39613536908291,44.41965061292285 98.36114590323996,45.10061782012053 99.65891869057668,45.08116164918465 101.48911108297762,46.07342374214204 103.28602725005476,46.326352438903996 106.29752564115915,46.07342374214204 106.79666902089957,46.598736800355255 108.29409916017903,46.657104825237184 108.3606516107684,48.27194616981433 108.02788935770513,49.5949381502287 107.69512710446725,49.51711535600771 107.37900296400767,50.198063688978436 107.62857465381967,51.384853328883764 107.02960259810789,54.400431897185626" stroke="#4dd2ff" stroke-linecap="round" stroke-linejoin="round" stroke-width="0.5"><title>2023-05-06 6.0km</title></polyline><polyline fill="none" points="129.04896232066676,62.55866877757944 128.70014770992566,62.35451189181913 129.09256414696574,62.02275621256558 129.9427997606108,62.57142857142753 130.2916143712937,62.533149185845105 130.44422076351475,61.65271995114017 130.31341528444318,60.35120404692134 130.7603340044734,59.598359979594534 130.70583172159968,59.355917665532616 133.3655431282241,57.352559819686576 135.022412529157,55.361929125159804 135.8399467729614,53.0777673674238 136.0906572744134,48.45826838701032 136.31956686271587,48.19028094978421 136.2541641232092,47.55221321647696 136.66838147345698,45.99531372117781 137.80202895827824,43.91516240788769 140.62524721375667,41.08201493699016 141.704392415646,39.2442619199428 142.64183168194722,34.72633286155178 144.15699514723383,31.714285714289872 142.609130312223,34.802909346472006 141.75889469857793,38.989016221035854 141.3555778049631,39.971709185389045 140.37453671224648,41.3627802825431 137.812929414853,43.85135351587087 136.7228837563889,45.81665183247969 136.2541641232092,47.53945182725147 136.3958700587973,47.98609964392381 136.07975681789685,48.58588124215021 135.91624996910105,52.694942711466865 135.13141709496267,55.19604174500273 134.575493809185,56.07651829782844 133.57265180331888,57.161154455447104 130.77123446104815,59.34315753020201 130.38971848058281,59.202795951969165" stroke="#4dd2ff" stroke-linecap="round" stroke-linejoin="round" stroke-width="0.5"><title>2023-05-04 6.1km</title></polyline><polyline fill="none" points="158.36609152291203,52.9557896177721 158.678598220984,49.477614807387 158.77119279821636,49.23400369026058 159.0258278855472,49.20693575969199 158.7827671203413,49.09866398030135 158.72489550960017,48.570837743624 159.03740220767213,44.52409758728754 159.3036116171861,44.361683939539944 160.27585467795143,44.55116650855052 161.7573679133784,44.52409758728754 163.7597256457084,45.254956450808095 164.62779980705818,45.376765855471604 164.91715786093846,43.72556183388224 164.72039438429056,43.25185182825953 163.85232022288255,43.27892101867474 163.42407030327013,42.818744002404856 162.13932054443285,42.88641719685984 161.6531990140793,42.66986284861923 161.05133426218526,42.89995183143765 160.2642803558847,42.89995183143765 158.79434144252446,42.14201008917007 158.09988211339805,42.27735715817835 157.42857142857974,41.993128147834796 157.4401457507047,42.56158553704154 158.16932804632233,42.68339750611631 158.29664558998775,42.169079514438636 158.8522130532656,42.20968364155851 160.12538849003613,42.89995183143765 161.15550316154258,43.08943656539486 161.83838816848584,42.91348646457482 162.24348944373196,43.33305938236299 165.33383345836774,44.42935631783621 166.78062372736167,44.74064879692742 167.19729932484915,44.79478654205741 167.81073839892633,44.5105631245242 168.69038688245928,44.74064879692742 169.78994748689001,44.5105631245242 170.3339406279847,44.63237323789508 170.79691351408837,44.44289078917063 171.31775801093318,44.67297658328607 173.77151430718368,44.5917698796693 174.55856821348425,44.83538983590552 175.73914907302242,44.74064879692742 176.1789733147598,44.42935631783621 177.23223663057433,44.42935631783621 177.59104061726248,44.75418323537451 178.92208766477415,45.06547492413665 179.95220233633881,44.86245869126287 180.12581716862042,43.86090722764493 179.9753509806469,43.481939764358685 180.1952631014865,42.84581328446802 181.22537777305115,41.95252395194257 185.01018111675512,42.236753052522545 186.61901189590571,41.92545448085002 188.0310791984084,41.32992466793803 188.28571428573923,41.830711286951555 187.15143071487546,42.37210002129723 185.16064730472863,42.8593479233532 183.55181652563624,42.9405557266291 181.37584396102466,42.737536121800076 181.0633372628945,43.143575009249616 180.95916836353717,44.5105631245242 180.65823598753195,45.59331562193984 179.5239524167264,45.98581113932596 177.10491908690892,45.40383459633449 168.48204908374464,45.57978127224487 166.47969135141466,45.28202521742787" stroke="#4dd2ff" stroke-linecap="round" stroke-linejoin="round" stroke-width="0.5"><title>2023-04-26 7.0km</title></polyline><polyline fill="none" points="11.714285714260768,84.72183218687132 12.14645858341828,83.8290459986165 11.944777911063284,83.20577720225265 11.987995197996497,81.06643061437353 12.14645858341828,80.57791437052947 12.477791116340086,80.40946014584915 16.482593037188053,80.78005920494616 18.81632653059205,81.75708895364369 19.49339735886315,81.68970778414223 20.645858343224972,82.02661334660661 21.193277310871053,82.41405386234692 21.697478991525713,82.2961372834543 22.5762304920936,82.59935116706765 24.85234093631152,82.44774429741665 25.87515005999012,83.08786120961304 26.653061224438716,82.7846482561581 27.589435774250887,83.08786120961304 28.410564225632697,82.91940964006062 29.073229291650932,82.48143472534139 29.649459783860948,82.98679028925835 31.190876350563485,82.75095789236366 31.867947178834584,82.90256447333377 33.87034813925857,82.02661334660661 34.72028811526252,82.11083962590783 36.18967587035149,82.7004223332915 36.63625450176187,82.1445301250933 37.65906362538226,82.2961372834543 39.02761104435194,81.79077952772786 39.33013205276802,80.96535841104924 39.546218487317674,78.792290521611 39.81992797116982,78.35430425521918 40.496998799499124,78.13531067025906 41.505402160808444,78.4385324769828 42.571428571420256,78.4385324769828 40.30972388951341,78.1521563413553 39.80552220885875,78.32061295409221 39.50300120044267,78.7080624870141 39.02761104435194,81.82447009466705 37.543817527010106,82.32982774349512 34.259303721482866,81.55494535954494 22.849939975945745,81.75708895364369 21.193277310871053,81.48756410447822 15.31572629045695,79.71879596143845 12.737094837881159,79.80302346138342 15.229291716648731,79.95463284905418 15.40216086426517,79.78617796498293 15.834333733422682,79.97147832762857" stroke="#4dd2ff" stroke-linecap="round" stroke-linejoin="round" stroke-width="0.5"><title>2023-04-20 5.0km</title></polyline><polyline fill="none" points="55.20599580579437,95.84838700481487 55.363635870453436,96.7218224603057 55.21650514344219,96.36506792900764 55.321598519862164,96.54959627202334 56.47762566083111,96.85714285714494 57.23429797135759,96.47578497011273 57.62314346421044,95.55313972769363 57.738746178278234,95.50393177500519 57.948932931234594,95.83608504994481 58.41134378762217,95.79917917754938 58.71611457935069,95.2086836199378 58.59000252757687,93.60940970179217 59.03139470866881,92.85897355963971 58.915791994542815,92.67443933730101 62.12113997642882,90.11553448320774 63.182583078567404,88.70073108765791 63.91823671374004,86.36319195954275 64.09689545369474,82.53690767056105 64.18097015487729,82.05707531785447 64.38064757012762,81.93404106098751 64.25453551841201,81.4542062102555 64.58032498537796,80.08851152154239 65.7888988146442,77.82462178241258 66.6821925144759,76.76648422556173 68.27961183653679,75.33921359790838 69.22545222460758,73.99805533648032 69.60378837987082,73.08753536941367 70.56013810558943,68.54713297286071 71.93686133710435,66.0 70.47606340434868,69.00241170645313 69.67735374334734,72.87836085201707 69.26748957519885,74.01035961133312 67.98535038245609,75.72064109174244 65.95704821689287,77.57854414371104 64.69592769950395,79.85474234771391 64.32810088188853,81.3680817958084 64.39115690777544,82.05707531785447 64.15995147958165,82.3646603880843 63.91823671374004,86.80609773285687 63.21411109151086,88.76224463812105 61.606182431802154,90.73066100381402 59.04190404631663,92.68674162792013 59.0839413969079,92.89588036884379 58.77917060517939,93.40027224921505" stroke="#4dd2ff" stroke-linecap="round" stroke-linejoin="round" stroke-width="0.5"><title>2023-04-17 6.5km</title></polyline><polyline fill="none" points="84.7498623196152,88.33475895100855 84.57142857142026,88.18175972135214 84.57142857142026,87.76448819028155 85.332745897118,78.25033804237319 85.53497081174282,77.59656268353865 86.4390351359616,77.84694511991984 86.95054521417478,77.6939336876676 88.15199911885429,77.79130461970635 90.50732459517894,78.59808956850611 90.88798325805692,78.4868091801909 92.48199140868383,79.08494015994074 92.58905165764736,79.46050938458939 93.13624848547624,79.61351876117988 93.89756581117399,79.32140979684482 95.5867386275786,79.57178894887329 95.96739729045657,79.37704964958539 96.64544553362066,79.80825771024683 97.49003194185207,79.68306841899175 98.73906817933312,79.89171717157296 99.48848992178682,79.53005912329536 99.45280317217112,79.26576992053015 99.71450600284152,79.25185994776257 99.92862650065217,79.76652795972768 100.6185703270603,79.82216762415192 101.27282740385272,79.62742869567592 101.93898006388918,79.79434779488656 102.77167088881833,79.34922972614004 102.81925322161987,79.75261803994363 103.0214781363029,79.89171717157296 103.56867496419,79.76652795972768 103.93743804382393,79.08494015994074 105.57902852731058,79.68306841899175 105.56713294412475,79.27967989179888 106.56636193412123,79.32140979684482 107.67265117296483,78.89020013966365 108.11278775188839,76.21945076085103 108.43396849872079,75.91342393046943 108.8622094944003,75.77432059026614 110.56327789399074,76.13598896864278 110.93204097362468,75.98297554535384 112.51415354106575,76.08034774442785 113.5014869478764,75.87169294383784 115.42857142857974,75.05098084898782 115.1549730146071,74.52238390613638 113.57286044710781,75.13444332990912 111.8123141314718,75.42656159595936 108.19605683442205,75.09271209606959 107.10166317870608,76.03861681079434 106.9113338473253,76.73413064210035 107.10166317870608,77.15143717493629 106.83996034803567,78.11123717443843 105.57902852731058,78.33379849253106 104.94856261700625,78.20860779746727 104.16345412487863,77.68002354865894 102.97389580350136,77.65220326615963 102.49807247490389,77.95822604974092 101.45126115210587,78.06950688533834 100.59477916068863,77.86085524132068 97.858795021486,77.88867547961127 97.65657010680297,77.34617977039306 97.77552593895234,77.26271869338234 99.2505782575463,77.19316775540938 99.94052208389621,77.73566409596242 99.83346183499089,77.84694511991984 97.26401586073916,77.86085524132068 97.29970261035487,77.48528144767624 97.09747769573005,77.36008994471922 93.62396739725955,77.98604626744054 91.67309175018454,77.59656268353865 88.29474611743353,76.28900221390359 87.84271395526594,76.30291250009032 87.67617579025682,76.12207866479002 88.17579028522596,75.88560327417508 88.69919594668318,76.13598896864278 90.0077101002098,76.06643743468157 90.3645775965997,76.48374608665472 90.65007159375818,76.48374608665472" stroke="#4dd2ff" stroke-linecap="round" stroke-linejoin="round" stroke-width="0.5"><title>2023-04-07 7.0km</title></polyline><polyline fill="none" points="121.0,85.01844159910979 121.10899304779014,82.32785423842142 121.3996411752305,80.95421773425187 124.13657770812279,81.22328166475927 126.94617627281696,82.01630905068305 127.18838304554811,81.49234505440108 130.26440906035714,82.17208173518884 139.57725947524887,82.01630905068305 142.79860955371987,82.6677208889887 143.9127607086557,82.32785423842142 144.34873289975803,79.70801984523132 144.69993272033753,79.26901555276709 146.86768333707005,79.49559859315923 147.29154518950963,79.33982279413613 148.82955819688505,79.43895286903717 151.8571428571595,78.39100264856825 151.67548777750926,77.83870125802059 148.4904687149683,78.78752531844657 147.07355909392936,78.81584832136286 144.49405696347822,78.44764881615993 143.40412648575148,79.43895286903717 143.12558869703207,81.54898990962829 141.98721686477074,81.76140790326463 141.16371383721707,81.61979594494915 140.18277640728047,81.03918534969853 139.10495626821648,81.06750787617057 138.69320475443965,81.3648940425046 137.6517156313057,81.43570017519232 136.97353666747222,81.43570017519232 136.6465575241018,81.22328166475927 134.11549674818525,81.30824910939555 133.86117963673314,81.19495917121822 133.61897286394378,80.65683065560006 129.70733348286012,81.37905527206021 127.63646557525499,81.010862817202 123.95492262847256,79.65137421095278 121.27853778883582,79.79298825166188 121.20587575697573,78.81584832136286 122.4047992824344,79.46727573408862 124.24557075585471,79.56640571466414" stroke="#4dd2ff" stroke-linecap="round" stroke-linejoin="round" stroke-width="0.5"><title>2023-04-04 6.0km</title></polyline><polyline fill="none" points="161.0240875184536,93.87098984792829 180.77422304823995,95.06545162003022 187.41435482073575,75.35673546313774 171.06941507197917,67.7917189017171 159.32148962840438,81.13001712143887 158.81071026157588,92.67652731831186 165.62110182270408,96.25991263391916 183.32811988331378,93.07468157936819 186.56305587571114,77.54660300409887 173.2827923297882,67.19447945686989 158.81071026157588,83.12079979432747 159.83226899523288,95.06545162003022 182.98760030511767,94.66729778016452 186.90357545297593,76.15305122744758 173.62331190798432,66.7963197225472 165.62110182270408,72.7687069028616 158.81071026157588,82.52356521354523 158.64045047201216,93.67191281239502 177.8798066340387,96.85714285715949 183.8388992510736,94.2691438565962 186.7333156634122,76.15305122744758 173.1125325402245,66.7963197225472 159.32148962840438,81.92633044277318 158.64045047201216,94.07006686285604 175.15565000940114,96.06083585077431 182.64708072785288,93.87098984792829 186.90357545297593,75.15765646914952 172.0909738065675,66.39815990335774 159.15122983884066,82.12540872104 159.32148962840438,94.46822082891595 169.70733676012605,96.06083585077431 183.8388992510736,93.47283575544134 186.90357545297593,75.95397231774405 172.0909738065675,66.0 158.9809700511396,82.12540872104 159.49174941703677,94.66729778016452 179.75266431365162,95.662682222086 183.4983796728775,93.67191281239502 186.7333156634122,74.95857745455578 172.94227275252342,66.39815990335774 159.6620092066005,81.13001712143887 158.29993089381605,93.67191281239502 182.64708072785288,94.46822082891595 186.05227650795132,75.55581443558913 173.2827923297882,66.7963197225472 164.94006266631186,72.7687069028616 159.32148962840438,82.12540872104 159.15122983884066,94.66729778016452 177.53928705584258,96.06083585077431 182.98760030511767,93.67191281239502 186.2225362965837,74.95857745455578 172.601753173396,66.5972398230806 161.8753864634782,76.94936665496789 158.29993089381605,93.87098984792829 164.08876372128725,96.25991263391916 182.81734051648527,94.66729778016452 186.7333156634122,76.5512089827098 173.96383148618042,66.7963197225472 165.62110182270408,72.96778614958748 158.81071026157588,82.92172162141651 158.29993089381605,93.87098984792829 162.21590604260564,95.86175904690754" stroke="#4dd2ff" stroke-linecap="round" stroke-linejoin="round" stroke-width="0.5"><title>2023-03-30 5.2km</title></polyline><polyline fill="none" points="42.26989297341788,127.79510091067641 42.57142857136205,125.29347665500245 40.604267765709665,124.63868258835282 36.97148175223265,124.13499300679541 36.756099182297476,123.93351672666904 36.94276407628786,121.34788176615257 37.86172970809275,121.14640194848471 38.56531277002068,114.4302616759669 38.24941833404591,114.27914525072265 37.94788273610175,114.5310058795003 36.95712291426025,114.46384308424604 37.201223160198424,114.41347096917161 36.97148175223265,114.19519161897188 33.55407830874901,115.05151657923125 32.161271022981964,115.01793529528368 31.328458419127855,114.26235452792025 30.251545569335576,112.19708207710937 28.38489662966458,110.6355167718284 27.867978461668827,110.51797897652432 27.60951937775826,110.08140926044143 24.823904806165956,109.49371736156172 22.512131888535805,108.40228377538733 21.96649604459526,107.07576208046521 21.837266502552666,105.63168788270559 21.076248088735156,104.64097821660107 19.87010569695849,104.43947718861455 16.237319683481473,105.11114628691575 15.548095459584147,104.9432292788697 14.040417469863314,103.7845970805065 13.32247556996299,103.63347051790333 11.714285714260768,103.81818074152397 13.624011167907156,103.68384605478786 15.289636375673581,104.7585203647759 16.237319683481473,105.09435459409724 19.812670344952494,104.47306071105413 21.018812736787368,104.6577699574118 21.79418998863548,105.66527115281497 21.952137206622865,107.12613652463187 22.512131888535805,108.41907511815953 24.551086884224787,109.44334366897237 27.49464867368806,110.01424458215479 27.91105497564422,110.56835232806043 28.38489662966458,110.6523078783066 29.66283321136143,111.60939801267523 30.48128697730135,112.58327327745792" stroke="#4dd2ff" stroke-linecap="round" stroke-linejoin="round" stroke-width="0.5"><title>2023-03-28 5.0km</title></polyline><polyline fill="none" points="51.24157303367974,118.76764737243502 51.52327447826974,115.98038490079489 51.3607544140541,115.51161165843223 51.089887640380766,115.34690711063013 49.854735152446665,115.66364642455301 49.76805778488051,115.42292462239129 48.14285714284051,115.04283658116037 48.229534510406666,114.65007767127827 49.99558587477077,115.10618467179302 54.112760834628716,115.11885428590176 57.94823434983846,116.28445304992056 60.050160513608716,116.63919824816548 68.33868378808256,116.4871647204418 71.00401284109103,117.03195063491148 71.92495987151051,116.66453715068928 72.35834670945769,114.37134476029314 72.6725521668559,113.9785836481824 74.7203049758682,114.21930835355306 74.8611556981923,114.04193230178498 76.58386837877333,114.10528092186723 79.0,113.23106700517383 78.86998394859256,112.66092405614472 77.13643659703666,113.33242546751717 75.8146067414782,113.54781191510847 74.39526484749513,113.52247235317918 72.74839486350538,113.21839719136915 72.33667736750795,113.33242546751717 71.48073836270487,114.04193230178498 71.26404494378949,114.63740800756204 71.31821829848923,115.2455503532401 70.83065810590051,115.27088955062936 70.48394863557769,115.66364642455301 70.47311396466102,116.0310629792657 70.13723916525487,116.19576658617734 69.35714285710128,115.91703727254207 69.06460674153641,115.20754154712631 68.5012038522982,114.94147956644156 67.72110754408641,115.10618467179302 67.21187800954795,115.81568099768629 66.33426966291154,115.95504585353046 65.77086677361513,115.95504585353046 65.46749598713359,115.75233328234754 62.99719101120718,115.79034191557002 62.76966292131692,115.20754154712631 60.45104333863128,115.57495950110024" stroke="#4dd2ff" stroke-linecap="round" stroke-linejoin="round" stroke-width="0.5"><title>2023-03-26 5.6km</title></polyline><polyline fill="none" points="115.42857142857974,126.95374203355459 114.5504234895925,126.96800410846481 112.29407114628702,126.22637421244872 111.98915866744937,126.45456846118032 110.83049124787794,126.42604420118732 108.24483342748135,126.86816955241375 107.06177300959826,126.86816955241375 106.40316205535783,126.38325779989827 105.50062111805892,124.45785568811698 103.8784867307404,123.14571404848539 103.43941276113037,123.03161417185038 103.21987577644177,122.63226384323207 100.90254093729891,122.19012459936494 98.91451157536358,121.20600301165541 98.42665160924662,120.09350908700435 98.31688311684411,118.89542843824893 97.74364765669452,118.05391304453951 96.57278373802546,117.85423065446957 93.59683794464217,118.3962250250188 92.91383399209008,118.26785813420429 90.63308865047293,116.57055108343775 90.77944664034294,115.90018022592994 89.9012987013557,113.96036491917039 89.6573687181808,113.81773033886566 89.64517221908318,113.23292698130535 89.25488424615469,112.77649332939473 89.16950875212206,112.22021272616985 88.98656126484275,111.9634670579544 88.31575381138828,111.7352482756105 87.91326933936216,111.09338087828655 87.79130434786202,110.83663306347444 88.24257481645327,110.60841237293789 85.86425748164766,106.98535714313039 84.57142857142026,104.43204317480559 85.71789949183585,106.7571299304982 88.8645962732844,111.66392982685647 88.76702428003773,111.89214872999582 89.60858272161568,113.14734578932985 89.59638622245984,113.88904764789913 89.92569169960916,114.06020903562603 90.79164313944057,115.9857596699876 90.58430265384959,116.51349837431917 90.99898362508975,116.68465642922092 91.31609260308323,117.15533995965961 92.88944099383662,118.22506914346013 93.4626764539862,118.35343607496179 96.56058723886963,117.85423065446957 97.70705815922702,118.11096510165953 98.28029361943481,118.79558790351439 98.36566911346745,119.95088099670829 98.90231507626595,121.20600301165541 100.6098249576753,122.10454909433611 103.20767927728593,122.64652637531981 103.53698475437704,123.1171890883852 103.81750423490303,123.1171890883852 105.50062111805892,124.45785568811698 106.41535855451366,126.24063636432402 107.07396950875409,126.8824316363607 108.01309994357871,126.96800410846481 110.28164878598182,126.41178206894256 110.90367024275474,126.7683349223953 111.25736871827394,126.45456846118032 111.97696216829354,126.42604420118732 112.15990965557285,126.18358774781518 114.30649350653403,126.99652825377416 115.0870694523328,126.92521787923761" stroke="#4dd2ff" stroke-linecap="round" stroke-linejoin="round" stroke-width="0.5"><title>2023-03-18 7.0km</title></polyline><polyline fill="none" points="121.0,116.83098427073855 123.01309563632822,116.77062452943937 126.89475696597947,117.90538232366089 128.5465277445037,118.19510590960999 136.61955742479768,118.08645965106552 139.14883142948383,118.66590516795986 140.11924676189665,118.21924950856192 140.4702480523265,116.13080930887372 140.74898437125375,115.75657610194321 143.91831955261296,115.86522457878164 145.4049132533255,115.5754950773553 146.9018305214122,114.98396172765206 146.74697701091645,114.4527863107578 148.7187783778645,113.33006649749586 151.71261291397968,112.7626662606126 151.85714285710128,112.85924522361165 149.96793002914637,112.96789645921672 148.68780767574208,113.30592186402646 146.01400372793432,114.79080731669092 144.73388137453003,115.1650436909913 143.14405200013425,115.29783694813523 140.86254361231113,114.94774530051654 140.50121875444893,115.03225027932058 139.64436266303528,115.84108048175403 139.4585384504171,116.43260938820458 139.6030683935969,116.77062452943937 139.49983271991368,117.47079556549579 139.2107728337287,117.73637655881612 138.2197103665676,117.8208794725142 136.96023514785338,116.64990495105303 136.06208478705958,116.74648062396591 135.57687712082407,116.36017744195851 135.1742579935817,116.28774544971384 134.79228600102942,116.42053740033589 134.3277254695422,116.975847519534 134.0593127180473,116.99999137647683 133.5534579170635,117.42250804575451 132.71724896045635,117.47079556549579 132.54174831521232,116.87927204075822 129.59953161590965,117.19314204798138" stroke="#4dd2ff" stroke-linecap="round" stroke-linejoin="round" stroke-width="0.5"><title>2023-03-14 5.6km</title></polyline><polyline fill="none" points="185.59578670182964,121.49974081730761 184.55299539177213,121.36117309008841 182.57406188285677,120.70990280863771 181.1520737327519,121.097894004517 180.85582620149944,120.84847122481733 178.40289664256852,121.43045697202615 177.644502962532,121.38888664724072 176.8624094799743,120.7376165035821 175.78406846616417,118.65907310870534 174.55167873605387,117.28721639835567 173.7221856484539,116.96850015613018 171.05595786706544,116.60821129627584 169.6221198157291,115.83220115484437 169.05332455568714,114.61274735684856 168.87557603692403,113.29627880663611 168.40157998685027,112.72811460739467 167.46543778805062,112.54796446854016 164.12376563536236,113.04684116906719 162.50032916397322,111.97979702273733 160.28439763002098,112.04908586764941 160.0947992100264,110.91274418210378 160.05924950627377,112.07680139529111 158.19881500990596,112.20152119730483 157.42857142857974,109.92883061125758 158.05661619489547,111.97979702273733 158.3647136273794,112.25695218230248 162.06188281765208,111.95208147453377 162.57142857147846,112.07680139529111 163.6971691902727,112.89440682332497 164.36076366034104,113.06069882806332 167.5720868993085,112.60339530688361 168.44897959189257,112.83897610810527 168.91112574067665,113.43485506669094 169.04147465439746,114.61274735684856 169.5273206057027,115.77677168302762 171.09150757075986,116.66364041615452 173.66293614223832,117.16250143942307 174.01843317976454,117.64750339039892 174.42132982233306,117.7306464016292 175.96181698486907,118.95007116971829 176.89795918372693,120.72375965684478 177.46675444376888,121.38888664724072 178.94799210014753,121.48588405115879 179.61158657015767,121.15332122443942 181.35352205409436,120.83461438977974 182.31336405535694,120.93161220413458 182.44371296907775,120.7376165035821 184.81369321927195,121.49974081730761 188.28571428573923,121.36117309008841" stroke="#4dd2ff" stroke-linecap="round" stroke-linejoin="round" stroke-width="0.5"><title>2023-03-12 6.0km</title></polyline><polyline fill="none" points="41.243049327342305,155.53401470884273 37.534657270938624,154.61171010680846 37.38244714925531,154.8544223834033 36.51069827034371,154.5631676052726 35.95720691862516,155.09713427482347 35.846508648304734,154.80587995891983 32.77463164640358,155.4369302757841 31.778347213286906,155.32366502602235 31.031133888522163,154.54698676797852 29.495195387571584,151.8447629299917 28.388212684192695,150.7120800549892 27.129019859072287,150.2590045560646 24.15400384372333,149.85447172645945 22.493529788567685,148.89977000589715 21.967713004502002,147.58906810558983 21.884689301718026,146.18126466295507 21.289686098636594,145.3883581682021 19.919795003253967,145.1456308683555 16.363613068591803,145.72817574080545 15.89314541965723,145.6472668634524 15.47802690579556,145.1456308683555 14.274183215922676,144.46599237906048 13.734529147972353,144.36890091974055 11.714285714260768,144.5469018813892 14.135810377949383,144.43362856611202 15.851633568236139,145.55017615409452 20.002818705979735,145.0970853621693 21.192825112084392,145.35599455051124 21.870852017891593,146.32690010285296 21.967713004502002,147.50816021273204 22.465855220973026,148.77031846628233 24.278539397811983,149.77356503205374 27.32274183217669,150.3884548356 27.682511210732628,150.85771118025878 28.16681614355184,150.9224360803346 30.00717488786904,152.4434633465571 31.072645739885047,154.5631676052726 31.875208199839108,155.2913035106758 33.009865470870864,155.40456878440455 34.282895579817705,154.9838687734009 34.50429212040035,155.25894198844617 35.38987828313839,154.8220607687399 37.46547085203929,154.6440717659425 40.246764894225635,155.6310990802449 42.571428571420256,155.4531110188982" stroke="#4dd2ff" stroke-linecap="round" stroke-linejoin="round" stroke-width="0.5"><title>2023-03-05 5.0km</title></polyline><polyline fill="none" points="76.47579298826167,149.88970471805078 76.64750775095308,150.4518116904219 78.416169806791,150.1105326556717 78.81111376103945,151.3150441586622 78.74242785590468,151.9172970454092 74.15764369186945,153.18202189142175 71.18697829719167,154.56718705962703 68.31934176001232,156.53450573292503 66.31027903646464,153.38277109245246 65.03958979254821,152.31879790889798 53.088242308585905,149.6287259154342 52.95087049843278,149.28744540154003 53.62055807298748,147.42042938283703 53.43167183402693,147.03899374468892 53.65490102558397,146.05528777375002 48.14285714284051,143.28482316560985 53.63772954925662,145.99506071208452 52.36704030528199,149.58857529856323 51.90341044595698,151.93737210879044 52.62461244937731,150.19083366019186 53.088242308585905,149.90977999576717 63.322442165517714,151.95744716997433 65.77796327212127,153.08164721127832 67.94156928214943,156.7151768343756 72.44049606483895,153.9649425756652 74.41521583596477,153.1217970896978 78.99999999994179,151.85707184264902 78.416169806791,149.22721936486778" stroke="#4dd2ff" stroke-linecap="round" stroke-linejoin="round" stroke-width="0.5"><title>2023-02-22 5.0km</title></polyline><polyline fill="none" points="84.57142857142026,153.57571046003432 84.76519398967503,150.12041815304838 85.03162143973168,149.6389359158493 87.79277864994947,149.78054851831985 90.95357703522313,150.95592733708327 92.03139717422891,151.02673296039575 92.51581071992405,151.3524383455224 92.95178291096818,151.21082740591373 95.02265081857331,151.522371275365 95.54339538014028,151.43740483740112 96.30634671449661,151.7772702656075 96.98452567838831,151.66398188541643 98.43776631529909,151.84807545455988 99.40659340657294,151.295793987636 99.44292442250298,151.57901553733973 99.83045525901252,151.7489481795783 100.41175151377684,151.79143130639568 100.92038573668106,151.59317659911176 101.9134335052222,151.76310922333505 102.62794348504394,151.08337743212178 103.03969499887899,151.01257183872804 105.14689392235596,151.49404913533363 105.30432832468068,151.67814293818083 105.38910069520352,151.1683440947818 106.37003812508192,151.22498850664124 107.45996860280866,150.89928281139873 107.8232787619927,149.51148444555292 107.90805113251554,148.25112448351865 108.39246467815246,147.783796987409 109.5066158331465,148.0103802195663 112.703745234292,147.99621877878963 115.42857142852154,146.93410645084805 115.12581296247663,146.42428953995113 113.79367571201874,146.9482680039655 112.01345593179576,147.3306293724163 110.85086342226714,147.35895239331876 108.13814756670035,147.00491420157778 106.96344471850898,147.92541155243816 106.73334828432417,148.6334821304481 106.83023099345155,149.18577458120126 106.00672796583967,149.4690005951561 105.80085220903857,150.12041815304838 105.41332137247082,150.29035264684353 104.69881139270728,150.17706300827558 103.86319802643266,149.65309718286153 102.72482619422954,149.6389359158493 102.25252298725536,149.93632220804284 100.69028930255445,150.03545082527853 100.36331015918404,149.80887102086854 96.69387755106436,149.85135476340656 96.0035882484517,149.75222600983398 95.66449876653496,149.44067802072095 93.21821036102483,149.96464467757323 91.28055617847713,149.5964521059068 87.67167526349658,148.2652858973306 85.83090379007626,147.99621877878963 89.31868131866213,147.96789589278342" stroke="#4dd2ff" stroke-linecap="round" stroke-linejoin="round" stroke-width="0.5"><title>2023-02-10 5.9km</title></polyline><polyline fill="none" points="128.11469511815812,156.0086170729337 128.15489113581134,151.76274352244218 129.54835307982285,151.77841117627395 131.8663234291016,152.37378079314658 133.13919732021168,151.9977581556741 133.66174554929603,150.4153190938232 133.7555362569983,149.02087857978768 134.15749643323943,148.58217547832464 136.47546678246,148.91120292627602 136.9176229762379,148.69185137552267 139.10160660004476,148.7231873312412 141.32578624156304,148.01812672404048 145.2247999503743,146.05960742499155 149.6865579058649,145.44854410242988 151.8571428571595,144.63378908339655 151.73655480431626,144.72779950668337 151.52217604365433,144.35175745548622 151.56237206130754,143.99138292708085 150.83884374418994,144.3987627641327 148.97642826131778,144.86881502969482 148.17250790895196,144.90015179433976 147.98492649343098,144.6651258977945 145.4927734011435,145.11950896124472 143.84473667887505,145.7305736415583 141.12480615341337,147.28172650607303 139.1284039451857,147.90845032790094 136.6898455430637,148.08079891389934 134.74703802488511,147.72043345986458 133.78233360219747,147.75176962105616 132.6836424539215,148.69185137552267 132.42906767572276,149.41257667944592 132.509459710971,150.13329847597925 131.9199181192671,150.13329847597925 131.49116059794324,150.54066141828662 131.39736989018274,151.15170373086585 130.95521369646303,151.35538394149626 130.070901308849,151.02636192356294 129.7493331679143,150.1803019496001 128.93201414309442,149.757270150134 128.00750573788537,150.0236236462515 127.49835618137149,150.82268126042618 126.39966503321193,151.02636192356294 125.58234600827564,151.04202965524746 125.30097388505237,150.8070135054877 121.20098008809146,150.7756779906631 121.0,150.6033325407043 121.29477079585195,150.25864103909407 123.49215309222927,150.10196281861863 123.74672787048621,150.90102001011837 124.8320203461335,150.82268126042618 125.72973140625982,150.24297322452185 126.56044910370838,150.30564447293 126.94901060726261,149.8356094634073 127.40456547366921,149.8199416041025 128.14149246324087,150.61900031719415 129.13299423106946,150.57199698279146 129.72253582283156,151.05769738530216 130.94181502389256,151.38671933367732 132.29508095030906,151.19870688123046 132.64344643632649,150.0549593201431 132.6836424539215,151.08903284044936 132.21468891511904,151.46505778505525 130.49965883017285,151.23004230654624 130.08429998141946,151.04202965524746 129.6153464425588,150.0706271546369 127.0428013150231,149.31856922997395 126.39966503321193,149.47524827921006 124.80522300105076,150.7756779906631 124.00130264874315,150.76001023080607 123.58594380004797,150.14896630217845 123.96110663114814,149.91394873528043 124.61764158552978,149.91394873528043 125.16698715958046,150.3996512958256 126.50685441348469,150.30564447293 127.10979467770085,149.88261303151376 127.67253892443841,150.3369800872024 128.1682898083236,150.00795580681006 129.03920352336718,149.8356094634073" stroke="#4dd2ff" stroke-linecap="round" stroke-linejoin="round" stroke-width="0.5"><title>2023-02-05 7.1km</title></polyline><polyline fill="none" points="157.79529468837427,154.819336063003 158.07470288622426,152.2974459797406 158.27552752854535,152.22597445038264 159.7249575551832,152.46080927667936 160.24011642008554,152.3791276627744 161.60223138495348,152.961107653442 162.1872422993183,153.02236850093323 162.4666504972265,151.8073544298968 162.2570943487808,151.38873259366665 161.65462042199215,151.39894290397206 161.36648071795935,151.11305380747945 159.74242056754883,151.25599846156547 158.77322338102385,151.0926331253213 158.31918505945941,150.74548086761934 157.48969197191764,150.59232506284025 157.42857142857974,151.21515715343412 157.48969197191764,150.62295624322724 157.78656318219146,150.60253545737214 157.94373029354028,150.72506010770303 157.92626728111645,151.15389515880815 158.0921658986481,151.41936352129414 160.1353383458918,151.25599846156547 162.42299296631245,152.18513355272444 163.9335435362882,152.54249082144088 164.85908319189912,152.38933786829875 165.45282561244676,152.62417229708808 166.07276255154284,152.57312138289853 166.79747756489087,152.71606387453357 168.55251030804357,152.4403888796587 169.89716226048768,152.61396211640385 170.65680329862516,152.54249082144088 170.8838224594365,152.32807661899278 171.7482415717095,152.3076561939015 172.05384428816615,152.57312138289853 172.77855930151418,152.8079553645439 173.61678389523877,152.74669438094134 173.86126606841572,152.5629111968301 173.8525345621747,151.57251801365783 174.01843317976454,151.11305380747945 174.6994906621403,150.48001065151766 177.1530439000926,150.70463934344298 178.45403832156444,150.53106267286057 179.50181906379294,150.17369795633567 182.19112296868116,148.82591054740624 185.14237205922836,148.4991713711497 187.80548144556815,147.29431109776488 188.2595197671326,146.46723728748475 188.03250060632126,145.18066393698973 188.28571428573923,146.416183116271 188.1896677176701,146.73271854227642 188.0586951249279,147.03904215952207 186.97598835796816,147.69252929308277 186.80135823431192,147.97842852252506 186.11156924569514,148.01927120044274 185.33446519525023,148.427697028892 183.98981324280612,148.70338348593214 183.23017220472684,148.64211989686737 181.92044627695577,148.8769634437631 179.4843560514273,150.1430666333399 178.3579917535535,150.52085227076896 176.68154256610433,150.67400818895112 174.79553723015124,150.41874819024815 173.94858113024384,151.07221243884123 173.7128304632497,150.86800533645146 173.97477564879227,151.17431582799327 173.83507154986728,151.52146654318494 173.93984962406103,151.91966729654814 173.7826825127122,152.09324146973813 173.8438030560501,152.4403888796587 173.65170991997002,152.68543335847062 172.83967984479386,152.8079553645439 171.86175115208607,152.4403888796587 171.78316759644076,152.2770255482028 170.91874848410953,152.2872357645174 170.5520252243732,152.51186025023344 169.82731021102518,152.57312138289853 169.39946640800918,152.57312138289853 169.17244724713964,152.41996847837436 167.321367935976,152.4710194735453 166.3259762309608,152.33828682989406 165.24326946400106,152.5016500576894 164.76303662382998,152.3484970397476 164.0819791414542,152.53228063214192 162.78971622610698,152.2770255482028 160.0654862963711,151.29683975243097 159.46301236964064,151.2049468237019 158.08343439240707,151.40915321317152 157.90880426875083,151.05179174804653 158.03977686155122,150.68421857486828 158.76449187484104,151.1334744853084 159.55905893765157,151.29683975243097 161.32282318698708,151.11305380747945 161.58476837258786,151.39894290397206 161.98641765705543,151.42957382833265" stroke="#4dd2ff" stroke-linecap="round" stroke-linejoin="round" stroke-width="0.5"><title>2022-12-15 10.0km</title></polyline><polyline fill="none" points="11.714285714260768,188.4225207639829 11.986775709025096,184.71980334846012 14.23246911430033,184.87362806485908 14.523751522472594,185.07140236550185 16.431181485997513,185.51089946299908 16.731860100873746,184.23635275656852 16.65669044718379,183.8408005984893 15.8392204628326,183.7858626796442 15.557334261364304,183.42327168622433 14.54254393588053,183.46722217705246 14.147903253848199,183.2804324624376 13.508961197105236,183.51117264931963 12.841830520250369,183.46722217705246 11.930398468743078,182.9398150591369 11.83643640158698,183.44524693394487 12.061945362773258,183.7968502657386 14.166695667314343,183.4782097968855 14.48616669565672,183.86277575793792 16.83521837479202,184.67585338763456 18.423177309858147,185.00547764047224 19.27823212108342,184.81869069230015 20.029928658390418,185.06041491423093 21.84339655470103,185.08238981559407 22.83939446666045,185.02745255346235 23.252827562158927,184.84066564482055 24.746824430127162,185.06041491423093 25.489124760730192,185.00547764047224 25.836784409242682,184.74177832190617 26.71063163387589,184.74177832190617 26.93614059506217,184.97251526224136 27.71602575253928,185.1373270486729 27.93213850702159,185.36806311031978 28.15764746820787,185.10436471231515 28.618061597342603,185.20325168998534 28.928136418922804,185.08238981559407 29.134852966759354,183.46722217705246 29.971115364518482,182.7310490017262 31.9067339480971,182.97277808249783 33.5040890899254,182.89586434508965 34.88533147727139,182.5332702444939 37.610231425089296,181.10485692544898 41.24656342441449,180.61040158373362 42.3365234034718,180.14890780745918 42.46807029750198,180.6433653464337 42.571428571420256,180.61040158373362 41.55663824599469,181.005966045479 38.437097616144456,181.3795533203156 34.80076561681926,183.02771643143205 33.438315642939415,183.40129643378168 31.840960501111113,183.50018503301544 30.177831912296824,183.26944482172257 29.89594571077032,183.59907353807648 29.839568470488302,184.5440033936029 29.51070123538375,185.68669778132607 29.02209848613711,185.87348316847056 28.59926918387646,185.98335676870192 26.522707499563694,185.47793724521034 24.605881329393014,185.51089946299908" stroke="#4dd2ff" stroke-linecap="round" stroke-linejoin="round" stroke-width="0.5"><title>2022-12-12 7.2km</title></polyline><polyline fill="none" points="48.642086726787966,187.73971272527706 48.891701518849004,184.25101120570616 48.808496588200796,183.93132476015307 48.15474356157938,183.84792816815025 48.14285714284051,183.4309444141836 51.50671362539288,183.4865423245501 55.239049086521845,184.62629430147354 57.91349328641081,185.15446869441075 67.10169491526904,185.01547563893837 68.13581333920592,185.09887148987036 69.88311688310932,185.66874172112148 70.42989214177942,185.48805142761557 71.15496368036838,185.12667009508004 71.49966982170008,183.8618276038469 71.55910191504518,182.69426988133637 71.808716707048,182.30508166819345 72.41492405900499,182.20778443475137 74.13845476560527,182.55527422328305 74.50693374424009,182.36068005490233 76.24235086946283,182.41627841812442 77.49042482941877,182.08268788584974 79.0,181.35990549362032 78.78604446403915,180.83171584615775 75.7074620295316,181.76299616432516 74.29297820822103,181.80469512862328 71.65419326431584,181.48500273063837 70.62007484043716,182.40237882954534 70.41800572309876,182.9583612265851 70.58441558445338,183.50044179843098 70.39423288573744,183.8340287310275 70.46555139770498,184.23711181122053 70.15650451247348,184.57069687343028 69.59784283512272,184.51509942190023 68.87277129647555,184.7374890869396 68.53995157382451,184.4039044481906 67.86242570989998,184.29270938038826 67.70790226728423,184.09811778531002 67.64847017388092,184.2232124152215 66.55491965665715,184.1120171945222 64.95025313668884,184.4178038250393 64.3915914593963,184.43170320043282 64.02311248070328,184.18151421846414 61.574510235572234,184.26491059872205 60.14813999563921,184.08421837461356 58.69799691840308,184.29270938038826" stroke="#4dd2ff" stroke-linecap="round" stroke-linejoin="round" stroke-width="0.5"><title>2022-12-06 5.0km</title></polyline><polyline fill="none" points="84.57142857142026,188.05058127579832 84.83540657325648,185.09607994469843 84.97682335996069,185.23939724076627 86.95665837376146,185.2614460380646 89.54929946310585,186.1213454935205 89.64357732096687,186.3087585356625 89.50216053426266,186.3087585356625 89.62472174933646,186.11032118640287 89.35131596180145,186.1213454935205 89.11562131729443,185.87881046804978 89.32303260447225,185.94495644004928 89.55872724892106,184.35744152400002 89.40788267640164,184.4566619147663 89.42673824803205,184.7763714201501 89.77556632185588,185.0630066945523 91.19916197459679,185.41578748841857 92.06651826633606,185.25042163998296 92.83959670027252,185.49295812789205 94.04635328007862,185.52603124162124 96.65784994111164,185.29451922523003 97.3837894461467,185.49295812789205 98.44912923924858,185.38271433974296 98.71310724102659,185.17325082091702 99.64645803323947,185.17325082091702 99.74073589104228,185.36066556807782 100.89092575618997,185.69139665270632 101.78656540525844,185.53705561051174 102.00340447819326,183.8723626981664 102.87076076993253,183.14474022558716 105.35969621577533,183.39830620944122 106.56645279558143,183.28806020534103 107.90519837633474,182.8801489759062 110.43184496526374,181.53513306876266 111.28977347124601,181.31463700142194 113.55244205839699,181.12721497735765 114.78748199553229,180.79646940658859 115.26829907030333,180.5208472956292 115.41914364276454,181.06106594717858 115.42857142852154,180.93979261614004 113.50530312949559,181.5792322262496 110.85609532537637,181.93202481419576 109.47963860159507,182.62658173119416 106.92470865527866,183.72904352203477 104.9920125703793,183.81723996142682 104.78460128320148,183.9385099437568 103.04046091396594,183.72904352203477 98.44912923924858,185.93393211431976 94.08406442316482,186.0221266876979" stroke="#4dd2ff" stroke-linecap="round" stroke-linejoin="round" stroke-width="0.5"><title>2022-11-27 5.6km</title></polyline><polyline fill="none" points="121.0,186.1135492000103 122.22422954306239,186.29249358352536 122.56307879160158,186.19023968253896 123.12054045847617,186.47143770197727 123.4921815697453,186.40752911864547 125.44876271439716,187.0082684672525 125.77668134204578,185.48724177070835 125.6017914073309,185.2316051522721 125.66737513284897,185.75565963796544 126.2139061788912,186.1007674482098 127.94094428420067,186.43309255606437 128.7607408532058,186.19023968253896 129.62425990588963,186.49700112581195 132.78320935176453,186.47143770197727 133.39532412332483,186.26693011639145 135.067709124065,186.47143770197727 135.96402003947878,186.42031083803886 136.36845301353605,186.1135492000103 137.4505844845553,186.1007674482098 137.57082131470088,186.34362050153868 138.8278427204932,186.7270716972198 139.68043115228647,186.61203646628564 140.04114164260682,186.24136664381513 140.1613784727524,185.61505987712007 140.01928040082566,185.10378664027667 140.19417033548234,184.57972932710254 141.19978746015113,183.76168409958336 143.72476089268457,184.08123367583175 145.44086837710347,183.95341394674324 147.22255958704045,183.3526594087598 149.78032488236204,181.95940866358433 151.8571428571595,181.56316010416776 149.94428419612814,181.88271549547062 147.16790648241295,183.37822349248745 145.39714589342475,183.94063196639036 143.7575527554145,184.04288777129113 141.48398360406281,183.6977740829243 141.07955063006375,183.77446609888284 140.1613784727524,184.63085696988855 139.9974191589863,185.10378664027667 140.13951723091304,185.61505987712007 139.9427660543588,185.96016808895365 140.01928040082566,186.35640222768416 139.7241536359652,186.6248181640185 138.4999240929028,186.6759449414094 137.21011082438054,186.06242218462285 136.32473052979913,186.0752039404979 135.8984363139607,186.39474739793513 134.87095794751076,186.45865598801174 134.05116137844743,186.25414838077995 130.59708516777027,186.20302142488072" stroke="#4dd2ff" stroke-linecap="round" stroke-linejoin="round" stroke-width="0.5"><title>2022-11-23 5.3km</title></polyline><polyline fill="none" points="157.42857142857974,185.02845257830631 160.05549845838686,185.34572813246632 162.99075025698403,186.15333530199132 163.37307297019288,184.4515860425745 163.2867420349503,184.04777801518503 162.90441932168324,183.86029531010718 162.28776978416136,183.91798232372093 161.7451181911747,183.47090732956713 160.41315519012278,183.51417271562968 160.11716341215651,183.6728123471985 160.1664953751606,183.81703003383882 164.35971223021625,185.24477689989726 165.66700924979523,185.4034145175392 166.35765673173591,185.01403094468697 167.2209660842782,185.1582472124428 168.2692702980712,184.97076603461755 168.47893114079488,185.27362011683 169.07091469684383,185.36014973104466 172.47482014389243,185.27362011683 173.32579650572734,185.54763037340308 174.76875642349478,185.47552246453415 175.23741007194621,185.14382559253136 176.44604316551704,185.12940397109196 176.72970195271773,185.44667929029674 178.17266187054338,185.80721852944407 179.4182939362945,185.48994404936093 179.39362795482157,184.91307946648158 179.5786228160723,184.62464625963185 179.44295991782565,183.90356057258032 179.67728674208047,183.35553289946984 180.75025693734642,182.50464346217632 184.487153134658,182.86519048232003 186.53442959923996,182.44695585040608 187.9773895170074,181.8268124825554 188.28571428573923,182.38926821427594 187.08941418293398,182.92287791706622 184.94347379240207,183.47090732956713 183.42651593015762,183.38437651618733 183.17985611513723,183.5430162987177 181.243576567329,183.19689289871894 180.86125385406194,183.2978456478304 180.5529290853301,183.7016558967007 180.40493319631787,185.4034145175392 180.03494347381638,186.4561867570883 179.19630010280525,186.7446160888794 175.8910585817648,186.1100707534788 166.59198355599074,186.3119718623784 163.1264131552307,185.64858138172713" stroke="#4dd2ff" stroke-linecap="round" stroke-linejoin="round" stroke-width="0.5"><title>2022-11-18 5.5km</title></polyline><polyline fill="none" points="11.714285714260768,221.95286774875422 12.053774908767082,218.40842479655112 12.853999438637402,218.60691607954504 13.62997474038275,218.49349252523098 15.739657591911964,218.7345174633374 17.80084198701661,219.44341182796052 18.128206567489542,217.9263733139378 18.067583497031592,217.2600051740592 17.09761436987901,217.21747092499572 16.588380578090437,216.7637714281882 15.30317148467293,216.82048394929734 15.048554588807747,217.14658047987905 15.157676115632057,217.2600051740592 18.455571147846058,218.36589091192582 20.565253999375273,218.80540706854663 21.38972775748698,218.52184842280985 22.34757227054797,218.84794081369182 25.863710356410593,218.83376290014712 26.542688745365012,218.59273814049084 28.409879315120634,218.84794081369182 29.355599214090034,218.7912291505345 29.9860791467363,218.49349252523098 30.968172887922265,218.50767047477711 31.259163626120426,218.7912291505345 32.750491159036756,219.10314300088794 33.92657872568816,218.83376290014712 34.1205725511536,217.91219530289527 33.96295256802114,217.33089555922197 34.16907100751996,216.80630582128651 35.223912433255464,215.84218959666032 39.24928431090666,216.15411031067197 40.86185798473889,215.81383313209517 42.43805781629635,215.1899893940863 42.57142857136205,215.7571201850369 39.613022733537946,216.7779495607101 36.69099073810503,216.83466207579477 35.85439236590173,216.53692110380507 35.345158574171364,216.69288074305223 35.09054167830618,217.03315568964172 34.96929553739028,218.52184842280985 34.64193095697556,219.6844350577594 33.647712601698004,220.02470240900584 31.39253438106971,219.45758967702568 21.401852371520363,219.5851902509603" stroke="#4dd2ff" stroke-linecap="round" stroke-linejoin="round" stroke-width="0.5"><title>2022-11-06 5.5km</title></polyline><polyline fill="none" points="48.14285714284051,228.0735358785896 48.85436893184669,224.24218142016616 49.35991678212304,213.7548542154982 49.79056865454186,211.80621087228064 49.902912621269934,212.00326552733895 52.187239944469184,211.93758066312876 58.60957004164811,213.38264285953483 59.05894590832759,210.31734741450055 58.89042995823547,211.19315074558835 59.583217752981,211.6967359828559 62.91608876560349,212.37547936386545 69.7877947294619,211.01799037583987 70.23717059625778,211.01799037583987 70.33079056860879,212.24410985095892 71.86615811369848,212.02516047740937 73.42024965316523,212.11274025462626 74.00069348118268,212.48495389426535 76.47226074896753,212.3973742746166 77.25866851583123,211.85000081185717 77.27739251044113,211.03988543017476 78.88765603327192,210.55819370000972 79.0,209.44154037730186 78.40083217748906,209.0693212642509 77.38973647716921,210.42682303355832 77.57697642152198,210.95230519901088 77.16504854359664,211.12746562434768 76.49098474346101,212.24410985095892 74.4313453536015,212.50684879344772 73.42024965316523,212.11274025462626 67.57836338412017,212.11274025462626 67.11026352283079,212.46305899282743 65.68723994446918,212.46305899282743 64.20804438274354,211.95947562019865 62.766296809888445,212.37547936386545 60.25728155334946,211.91568570377422 54.434119278681464,210.01081537308346 54.24687933421228,209.66049248407944 54.69625520100817,209.50722603368922 56.69972260738723,209.26637852514978 57.3550624132622,210.01081537308346 57.99167822452728,209.96702504441782 57.33633841876872,209.945129876578 56.662274618516676,209.31016900209943 55.595006934716366,209.31016900209943 54.50901525653899,209.4634355984308 54.377947295317426,210.03271053390927 60.35090152558405,212.02516047740937 58.75936199713033,211.1055705792969 58.85298196936492,210.31734741450055" stroke="#4dd2ff" stroke-linecap="round" stroke-linejoin="round" stroke-width="0.5"><title>2022-11-02 5.0km</title></polyline><polyline fill="none" points="85.52161002968205,225.61974790027307 85.4741009567515,225.3281086387433 84.63081491255434,225.21700779729872 84.57142857142026,224.81426645920146 84.88023754535243,222.73110188861028 84.88023754535243,220.8145612947992 85.07027383701643,220.4118064536451 84.96337842295179,218.93965755795944 85.22467832401162,215.85642430926964 85.4741009567515,214.6897766306356 85.67601451661903,214.84255251179275 88.03959089406999,214.75922023502062 91.08017156051937,215.70364960790903 91.37710326624801,213.71756231239124 91.22269877931103,214.1758928165509 91.4364896073821,214.50922308734152 93.87132959417067,215.06477165792603 97.66017815907253,214.27311423294304 98.94292312767357,214.2453366927657 99.66743648954434,214.60644425688952 100.05938634113409,214.37033557737595 101.66281755192904,214.41200184579066 102.14978554932168,213.967560967576 102.87429891125066,214.328669295719 103.78884856478544,214.00922736384382 104.47773012204561,214.31478053225146 104.78653909597779,215.12032638570236 105.64170240843669,215.3842110215046 106.84130649943836,215.1342150639539 107.0432200593641,214.09256011662364 106.90069284063065,213.5647851220856 107.12636093696347,213.0092302041012 107.86275156709598,212.27311631652992 108.58726492902497,212.1203374452889 110.67766413721256,212.45367293516756 112.0554272516747,212.45367293516756 113.58759485313203,212.16200442779518 115.20290333213052,211.52310924259655 115.42857142857974,212.0092254272604 114.12207192345522,212.62034036270052 112.37611349386862,213.0647858017037 110.57076872314792,213.17589692637557 108.34971956448862,212.92589676365606 108.01715605409117,213.3147856999567 107.57769712962909,215.87031290968298 106.63939293957083,216.21752744216064 103.27812603104394,215.64809512697684 94.25140217749868,215.82864710406284 91.54338502138853,215.2592131022393 91.21082151104929,217.37027310514532" stroke="#4dd2ff" stroke-linecap="round" stroke-linejoin="round" stroke-width="0.5"><title>2022-10-28 6.2km</title></polyline><polyline fill="none" points="121.0,221.91008153751318 121.19315895379987,218.9455683469714 121.39839034207398,218.40912559014396 121.59154929581564,218.6067626461736 123.06438631791389,218.46559335027996 124.22334004024742,218.5926457232854 126.66197183105396,219.4255416172673 127.15694164991146,219.31260688544717 127.43460764590418,217.80209565923724 127.32595573441358,217.2938824306766 126.96378269622801,217.12447759100178 126.26358148892177,217.18094589478278 125.865191146906,216.78566726650752 124.57344064390054,216.85625282170076 124.39235412474955,217.02565800190496 124.53722334001213,217.26564830561983 128.2434607646428,218.53617801687506 129.4507042253972,218.74793179269182 134.55734406440752,217.9997336143424 134.60563380282838,218.7055810644233 136.29577464796603,218.5926457232854 137.4064386318205,218.86086700239684 140.2434607645846,218.5079441547423 140.37625754525652,218.77616560408205 141.77665995975258,219.1290877423744 142.91146881284658,219.01615275965014 143.1529175050673,218.8185163099406 143.12877263582777,218.225605204585 143.32193158956943,217.9714996386465 143.17706237430684,217.27976536889037 143.4064386318205,216.7574330339703 144.45674044266343,215.86805165107944 147.4144869215088,216.19274712863262 148.59758551308187,216.13627840671688 149.9738430583384,215.86805165107944 151.55533199192723,215.23277560534189 151.8571428571595,215.72687945782673 150.45674044266343,216.33391882901196 148.60965794773074,216.81390149310755 147.17303822940448,216.7574330339703 146.9195171026513,216.88448703332688 145.0,216.55979323892097 144.58953722333536,216.67273030053184 144.33601609658217,217.05389217767515 144.26358148892177,218.28207304239913 143.88933601608733,219.67964441439835 142.88732394366525,219.99021384277148 142.0181086519151,219.90551316126948 141.8732394365943,219.65141079419118 141.39034205238568,219.72199483356962 140.18309859157307,219.43965845201456 135.0281690140837,219.5102426033991" stroke="#4dd2ff" stroke-linecap="round" stroke-linejoin="round" stroke-width="0.5"><title>2022-10-20 5.2km</title></polyline><polyline fill="none" points="164.39766763837542,219.97058198953164 164.85947521857452,220.6824128664739 166.07696792995557,221.02605457727623 167.33644314855337,220.55968356072844 170.61107871704735,220.903325453226 170.8419825072633,220.53513769175333 171.3877551020123,221.12423782965925 172.35335276962724,221.36969577909622 173.04606413992587,221.12423782965925 176.23673469375353,221.44333311326045 177.32827988325153,220.41240830812603 177.979008746217,221.0015087576321 179.51137026236393,220.6333211519377 181.00174927106127,220.8542337855033 182.8699708454078,220.5842294270551 183.12186588905752,222.376070656901 183.43673469382338,222.10606806927535 183.4997084547067,220.31422475446016 184.08746355678886,219.89694418797444 187.55102040804923,220.92787128320197 188.28571428568102,222.15515947224048 187.7819241982652,220.16694934612315 185.93469387746882,215.7731900022918 183.35276967915706,216.68140406248858 182.57609329442494,217.95780700315663 180.60291545186192,218.27690664115653 179.59533527691383,218.27690664115653 179.19650145771448,217.8841685627849 172.89912536437623,217.90871471218998 172.39533527684398,217.54052219889127 169.5825072886655,218.0805376851058 169.07871720113326,217.68779927429568 175.25014577258844,216.82868168322602 175.5650145772379,217.41779123133165 175.16618075792212,218.03144542004156 172.206413994194,217.68779927429568 169.72944606409874,218.0805376851058 168.8478134110337,217.7614377769787 173.1930029153591,216.95141296240035 175.50204081623815,216.87777420265775 175.5440233235713,217.63870692625642 175.20816326525528,218.03144542004156 172.14344023319427,217.68779927429568 169.5825072886655,218.05599155387608 168.8688046647003,217.78598393932043 170.61107871704735,217.46688362616987 171.15685131179634,217.81053009911557 175.12419825070538,218.15417606307892 175.50204081623815,217.85962241077505 175.52303206990473,216.87777420265775 174.0956268220907,216.7550428845716 167.2104956266703,218.17872218386037 164.08279883372597,217.61416074828594 157.7224489795044,215.47863332736597 157.42857142852154,215.08589051252056 157.8903790086042,214.7913329651492 160.11545189493336,214.76678648593952" stroke="#4dd2ff" stroke-linecap="round" stroke-linejoin="round" stroke-width="0.5"><title>2022-09-24 5.1km</title></polyline><polyline fill="none" points="39.76623376621865,258.34764740406536 40.98588368156925,257.5633023120463 42.388481084024534,252.286775248067 36.71710897772573,248.86414101801347 32.02145680389367,254.42591281834757 32.02145680389367,257.99112702097045 34.521739130374044,259.0606876053498 39.705251270206645,259.13199158391217 41.04686617711559,258.2763433425571 42.57142857136205,252.00155639246805 37.20496894419193,248.65022580185905 32.143421795684844,254.49721728725126 32.26538678701036,258.63286357506877 35.61942405393347,258.775471615314 36.65612648217939,259.48851136420853 35.55844155838713,260.55806957324967 13.116883116774261,261.84153718478046 12.202145680319518,262.5545736909844 13.787690570345148,261.3424111818895 37.326933935517445,261.9128408692777 40.924901185557246,261.0571961568203 27.020892151165754,260.55806957324967 28.179559570737183,243.58754587190924 27.508752117399126,243.44493461947422 25.008469791151583,260.8432848090888 11.714285714318976,260.7006772062159 11.89723320142366,261.48501864873106 41.04686617711559,261.84153718478046 38.7905138337519,260.55806957324967 36.29023150750436,261.1284999244381 26.959909655619413,260.34415806713514 27.935629587853327,243.15971202327637 25.618294748477638,260.34415806713514 23.605872388463467,261.1284999244381 13.48277809144929,260.7006772062159 13.360813099890947,261.48501864873106 42.51044607558288,262.1980555320042 34.33879164303653,261.9128408692777 40.55900621111505,261.84153718478046 40.55900621111505,260.9145885994076 36.961038960842416,260.6293733935454" stroke="#4dd2ff" stroke-linecap="round" stroke-linejoin="round" stroke-width="0.5"><title>2022-09-22 5.0km</title></polyline><polyline fill="none" points="62.255959631176665,255.23044903708796 63.477466504322365,255.05465168580122 64.3795023491839,255.64796715007105 65.45066991483327,255.4941447850142 67.76213676703628,255.86771318830142 68.9836436402984,255.31834765692474 68.94605881336611,254.9228035746928 69.20915260142647,254.85687948786654 69.66017052391544,255.6259925334889 71.84009048203006,255.36229695288057 72.62937184621114,255.6699417643831 74.28310422832146,254.85687948786654 74.30189664184581,255.56006866969983 74.60257525672205,255.84573859491502 74.79049939103425,254.68108182042488 75.16634765977506,254.43935978479567 78.45502001058776,255.31834765692474 79.0,256.3511536541628 78.02279450150672,253.12087100282952 76.87645728210919,250.68164469381736 75.22272489999887,251.2749726484035 74.7153297374025,250.92337110210792 72.62937184621114,250.61571926086617 70.09239603276365,252.615448084136 66.4466678268509,252.68137288243452 65.97685749083757,251.6924987117236 62.76335479388945,252.15397391053557 61.63580998789985,252.41767356389028 62.951278928201646,253.01099655989674 68.36349399690516,252.9670467664546 69.20915260142647,252.615448084136 70.75013050297275,252.615448084136 71.70854358805809,252.9670467664546 73.66295458504464,252.74729765974917 74.02001044037752,251.8243488731532 73.38106838357635,251.25299756924505 72.29110840440262,251.14312213826634 70.63737602240872,252.0440989562194 69.54741604323499,251.25299756924505 68.06281538202893,251.67052367671567 66.20236645208206,251.6265735996567 66.16478162526619,252.72532273632532 64.64259613724425,252.46162347352947 62.31233687151689,252.8351973303361 61.128414825187065,252.46162347352947 60.32034104759805,252.79124749969924 58.9860796937719,252.74729765974917 51.28119018627331,250.4179428366042 51.732208108645864,249.71473624744976 50.49190882197581,249.36313206014165 49.75900469813496,249.89053811787744 48.14285714284051,249.6048600028298 48.44353575783316,249.86856289225398 51.262397772748955,250.19819103322516 53.818165999720804,249.75868672902288 54.62623977730982,250.50584349285054 55.641030102735385,250.3300421431777 56.223594919079915,250.54979380698933 55.847746650571935,253.84604086853506 55.3215590743348,253.84604086853506 56.48668870725669,254.3514607930265 55.79136941023171,254.43935978479567 55.62223768932745,255.1205757099233" stroke="#4dd2ff" stroke-linecap="round" stroke-linejoin="round" stroke-width="0.5"><title>2022-09-09 5.2km</title></polyline></svg>