<?xml version="1.0" encoding="utf-8" ?>
<svg baseProfile="full" height="300mm" version="1.1" viewBox="0,0,200,300" width="200mm" xmlns="http://www.w3.org/2000/svg" xmlns:ev="http://www.w3.org/2001/xml-events" xmlns:xlink="http://www.w3.org/1999/xlink"><defs /><rect fill="#222222" height="300" width="200" x="0" y="0" /><text fill="#FFFFFF" style="font-size:12px; font-family:Arial; font-weight:bold;" x="10" y="20">Over 5km Runs</text><text fill="#FFFFFF" style="font-size:4px; font-family:Arial" x="10" y="280">ATHLETE</text><text fill="#FFFFFF" style="font-size:9px; font-family:Arial" x="10" y="290">feng qijun</text><text fill="#FFFFFF" style="font-size:4px; font-family:Arial" x="120" y="280">STATISTICS</text><text fill="#FFFFFF" style="font-size:3px; font-family:Arial" x="120" y="285">Number: 2</text><text fill="#FFFFFF" style="font-size:3px; font-family:Arial" x="120" y="290">Weekly: 1.0</text><text fill="#FFFFFF" style="font-size:3px; font-family:Arial" x="141" y="285">Total: 20.3 km</text><text fill="#FFFFFF" style="font-size:3px; font-family:Arial" x="141" y="290">Avg: 10.2 km</text><text fill="#FFFFFF" style="font-size:3px; font-family:Arial" x="167" y="285">Min: 10.1 km</text><text fill="#FFFFFF" style="font-size:3px; font-family:Arial" x="167" y="290">Max: 10.2 km</text><polyline fill="none" points="46.0,105.82922065904131 46.852183061419055,106.26104316682904 48.95423461322207,107.15790340077365 50.94266175699886,107.62294103202294 55.31720147293527,107.75580880016787 55.91372961609159,108.51979737592046 56.595476065180264,108.55301422835328 57.87375065754168,108.35371306099114 59.606522882706486,108.42014679752174 61.25407680158969,108.15441176731838 61.79379274067469,107.82224266315461 62.81641241442412,107.78902573339292 63.66859547607601,108.71909843775211 64.29352972120978,108.88518255931558 66.3103629668476,108.55301422835328 67.21935823257081,108.42014679752174 68.44082062074449,108.48658051990787 68.2135718044592,108.45336366046104 67.9011046817759,109.2837840927532 68.15675960015506,109.8484687320888 68.75328774331138,110.18063569272636 69.3498158864677,109.94811885725358 70.20199894788675,109.31700086430646 71.53708574431948,109.35021763236728 72.90057864284609,109.54951816718676 73.29826407146174,110.11420232872479 74.91741188848391,110.47958565672161 75.51394003152382,110.74531871921499 76.16728037875146,110.74531871921499 76.76380852179136,110.97783496434567 77.67280378751457,110.64566884713713 78.72382956347428,110.74531871921499 79.5476065230323,110.18063569272636 79.63282482919749,109.48308466962771 79.43398211465683,108.78553209695383 79.88847974757664,107.95511034698575 79.5476065230323,107.09146939727361 79.63282482919749,106.42712858869345 80.03051025781315,105.8956549296854 80.20094687002711,105.26452879118733 80.65544450294692,104.6998359078134 81.4224092583172,104.06870736560086 82.27459231985267,103.43757755483966 84.34823776956182,103.27149055173504 89.26249342446681,104.10192468896275 91.96107311942615,104.0354900387756 95.19936875323765,103.43757755483966 98.06838506052736,102.37461921639624 99.82956338766962,101.47774531919276 101.33508679643273,100.68052192640607 104.0052603892982,99.05285121389898 106.5049973699497,98.15596782765351 110.45344555506017,97.5248261312081 112.12940557603724,97.55804414683371 113.15202524990309,97.5248261312081 114.7995791687863,97.22586383201997 116.07785376126412,96.9933374025859 117.44134665979072,96.59472026574076 118.35034192539752,96.29575708098128 119.23093108902685,95.76426627181354 119.91267753811553,95.5317387598916 120.45239347720053,95.1995563012315 121.44660704897251,94.70128195421421 122.3556023145793,94.2362251834129 122.98053655971307,94.0036965397303 124.23040504998062,93.37254649589886 125.45186743827071,92.6085210609599 125.70752235653345,91.97736821215949 126.30405049968977,91.14690200440236 126.53129931620788,90.58218372822739 126.16201998956967,88.92124173443881 126.07680168340448,88.29008147271816 125.87795896898024,87.32672915290459 125.73592845874373,86.72878484695684 125.65071015269496,86.06440094899153 125.02577590744477,85.16748045632266 124.82693319313694,84.17089912557276 124.45765386638232,83.70582675523474 123.91793792741373,82.87533866576268 123.91793792741373,81.9784090614412 123.29300368216354,81.28079537520534 122.9521304576192,79.95200311255758 122.29879011050798,78.45710509363562 120.90689111000393,77.62660311802756 120.50920568127185,77.09508070070297 119.62861651764251,76.66321807375061 119.23093108902685,76.26457512151683 119.7138348238077,75.46728769846959 123.06575486587826,77.29440171265742 124.74171488685533,77.2611815528071 126.38926880585495,77.39406217110809 127.66754339821637,77.7927036890178 128.49132035765797,78.15812463560724 128.860599684529,78.75608526685392 129.88321935827844,80.05166272731731 132.6386112573091,83.14109509336413 133.77485533931758,84.37021564479801 136.35981062601786,87.0609762686654 137.2972119936021,87.89145328509039 138.80273540248163,88.62227124231867 139.76854287227616,88.3897384404845 140.30825881112833,88.02432940391009 141.1604418727802,87.0609762686654 142.09784324036445,86.09762017722824 142.80799579177983,85.43323494348442 143.91583377169445,83.77226570737548 144.76801683322992,82.41026437602704 145.53498158871662,81.31401510967407 147.01209889538586,79.45370456387172 148.37559179379605,78.09168449512799 149.51183587592095,76.92897976055974 151.47185691748746,74.07202983504976 152.15360336669255,72.47744182572933 152.66491320368368,70.94928738192539 153.06259863241576,69.95266091034864 153.0057864281116,69.5540094358148 151.89794844819698,72.84286895993864 150.93214097851887,74.90254121512407 149.96633350872435,76.56355738313869 149.65386638615746,77.09508070070297 148.60284061031416,77.89236398931826 147.4381904260954,79.02184518199647 145.0236717517255,81.77909102351987 144.3419253025204,82.8421190965455 143.09205681225285,84.73562893472263 142.32509205688257,85.76542773615802 141.18884797487408,86.89488060178701 139.91057338251267,88.32330046544666 138.60389268805739,88.62227124231867 137.41083640197758,87.92467232010677 135.53603366645984,86.09762017722824 134.17254076804966,84.73562893472263 132.35455023671966,82.80889952366124 131.07627564447466,81.38045456813416 129.54234613361768,79.48692449176451 128.80378748022486,78.72286526169046 128.43450815370306,78.12490456708474 127.55391899007373,77.75948358184542 126.55970541818533,77.46050245931838 123.32140978437383,77.29440171265742 122.38400841667317,76.92897976055974 121.53182535502128,76.39745616188156 119.62861651764251,75.50050804813509 119.62861651764251,76.0652534555702 120.70804839557968,77.32762186904438 121.36138874280732,77.56016286517843 122.12835349829402,78.29100487424876 122.46922672283836,78.92218524016789 123.12256706994958,80.48352069256362 123.23619147820864,81.11469664992183 123.86112572334241,82.0116287220444 124.03156233567279,82.64280160702765 124.11678064183798,83.27397322290926 124.40084166242741,83.77226570737548 124.85533929511439,84.3037768190552 124.91215149930213,84.90172574404278 125.56549184641335,86.13083940205979 125.79274066281505,87.02775714237941 125.82114676490892,87.9911103794293 126.10520778549835,88.98767958287499 126.44608100992627,90.61540247852099 126.24723829573486,91.1801206949458 125.7643345608376,91.64518199273152 125.62230405048467,92.24311693475465 125.16780641768128,92.67495812909328 124.74171488685533,93.17323569217115 123.60547080496326,93.80438613670412 122.69647553924005,94.1365700715105 120.82167280383874,95.09990149503574 120.22514466068242,95.29921107570408 119.45817990542855,95.83070267218864 118.94687006843742,96.129666299792 117.83903208840638,96.39541150751757 115.50973172031809,96.92690124831279 112.58390320895705,97.49160811194452 112.0157811678946,97.22586383201997 111.41925302473828,97.5248261312081 109.97054182016291,97.59126215899596 107.6412414519582,97.82378814558615 104.37453971593641,98.68745458801277 103.52235665440094,99.2853761180304 100.62493424525019,101.01269858601154 99.54550236731302,101.61061568773584 99.48869016312528,102.17531412729295 99.7159389796434,103.07218603198999 98.80694371392019,103.43757755483966 96.33561283524614,104.53374957235064 94.4039978957735,105.13165996887255 93.38137822202407,105.33096318138996 91.08048395579681,105.43061474018032 90.08627038402483,105.33096318138996 88.6659652814269,105.62991776279523 87.98421883222181,105.59670060116332 87.35928458708804,105.43061474018032 85.65491846390069,105.36418037110707 85.08679642295465,105.0984427545045 83.35402419778984,104.96557386175846 82.72908995265607,105.29774598803488 82.30299842194654,105.92887205973966 82.04734350345097,108.88518255931558 81.8769068911206,109.8484687320888 81.30878485017456,111.47608348139329 80.85428721725475,112.40614526442369 78.80904786963947,113.07047342287842 77.75802209356334,113.10368979393388 75.05944239872042,112.40614526442369" stroke="red" stroke-linecap="round" stroke-linejoin="round" stroke-width="0.5"><title>2023-05-21 10.1km</title><desc>9118737705</desc></polyline><polyline fill="none" points="47.52628603728954,226.33103609090904 47.7399660826195,224.51061035040766 47.70944036182482,223.83241001455463 47.80101752409246,223.1185134515399 48.04522328998428,221.33376543640043 47.89259468624368,220.5841684550105 48.38100621814374,218.58523503004108 49.41888072353322,218.58523503004108 50.48728094971739,218.76371171014034 51.677784058847465,218.83510235571885 52.68513284344226,218.72801638167584 54.82193329569418,219.08496949641267 55.524024872807786,218.87079767292016 56.43979649525136,219.370531716384 57.17241379304323,219.4419222336437 58.14923685695976,219.90596022742102 58.94290559645742,220.2272169261414 60.07235726399813,220.54847331912606 60.71339739963878,220.86972940622945 62.11758055386599,220.83403430046747 62.97230073495302,220.83403430046747 63.43018654594198,218.69232104939874 63.55228942912072,216.55059420425096 63.55228942912072,215.8723778692074 63.00282645551488,215.4083343281818 61.59864330117125,215.51542135566706 60.59129451669287,215.15846446473734 59.88920293946285,214.40885376441292 59.12605992087629,214.44454954986577 57.29451667610556,214.40885376441292 56.25664217071608,214.65872418289655 55.27981910679955,214.97998587760958 54.18089315993711,214.9442901489092 52.318824194488116,214.55163688326138 50.48728094971739,214.19467897267896 49.235726399114355,213.12380297496566 47.06840022606775,212.4812757448817 46.061051441472955,212.8025395128643 46.03052572067827,213.65924139862182 46.12210288294591,214.76581144842203 46.152628603740595,212.98101925180526 47.03787450538948,212.55266771977767 47.923120407154784,213.08810704978532 47.83154324477073,214.19467897267896 48.10627473134082,214.83720293993247 51.58620689646341,215.44403000775492 53.75353306951001,215.15846446473734 55.58507631428074,214.9442901489092 56.56189937808085,215.6582040064386 58.454494064324535,216.3007251866802 61.78179762570653,217.40728657360887 65.7501413228456,218.83510235571885 67.73431317135692,219.15636007406283 69.62690785748418,219.51331273571122 70.3289994347142,219.370531716384 72.0689655172173,218.90649298627977 73.50367439212278,219.4419222336437 75.24364047497511,219.6917889249744 77.38044092711061,219.62039846062544 78.87620124372188,220.04874102017493 81.86772187671158,219.6917889249744 82.90559638210107,219.6917889249744 83.63821368000936,219.58470322279027 84.27925381576642,219.19205535729998 86.11079706053715,219.1206647871586 87.78971170145087,219.58470322279027 89.71283210848924,219.6560936946189 91.23911814577878,219.2991411839903 91.94120972312521,219.47761748658377 92.67382702091709,219.19205535729998 96.18428490671795,218.62093037355226 96.58111927646678,219.19205535729998 98.87054833234288,219.9416554312338 99.75579423399176,220.3343024245114 101.58733747876249,219.90596022742102 102.71678914641961,220.12013139386545 103.54098360647913,219.47761748658377 103.41888072353322,218.33536751929205 103.81571509316564,217.37159110154607 103.63256076874677,216.69337641680613 103.69361221010331,215.33694295751047 104.09044657996856,214.40885376441292 105.09779536456335,213.33797844633227 106.50197851879057,212.1957076943072 107.60090446576942,212.01722753999638 112.72922555124387,212.87393141968641 115.90390050865244,212.98101925180526 118.83436970051844,212.55266771977767 123.26059920853004,211.16052148488234 124.84793668729253,210.19672457277193 126.16054267948493,209.66128065431258 128.87733182578813,208.16203316152678 130.28151498013176,207.34101385448594 134.06670435261913,206.19872279919218 134.7077444883762,205.9845427957771 136.35613340861164,205.87745274312329 138.27925381565,205.91314943114412 139.28660260036122,205.55618238105671 141.11814584501553,205.59187910312903 142.27812323335093,205.34200196978054 144.01808931597043,204.94933752925135 145.42227247031406,204.52097580011468 148.7801017522579,202.84322045795852 149.32956472574733,202.52194720652187 150.30638778966386,202.02218820739654 151.34426229505334,201.55812561674975 152.534765404067,200.73709023889387 153.02317693608347,200.13023671880364 153.29790842276998,199.52338210720336 153.8778971170541,198.55955195092247 153.8778971170541,197.84560191174387 153.63369135092944,196.63188337761676 153.2673827020917,194.77559952635784 153.08422837755643,193.66896390912007 153.29790842276998,194.70420378958806 153.2673827020917,195.45385827156133 153.66421707172412,196.13211565313395 153.8778971170541,197.238743190479 153.81684567546472,198.77373666811036 153.3894855849212,199.3805926281202 152.29055963817518,200.98697078277473 150.97795364598278,201.7009141742019 150.27586206886917,201.8437026711763 149.72639909549616,202.34346193468082 148.8106274730526,203.45006909800577 147.83380440913606,203.27158431720454 147.16223855281714,203.55715992115438 146.03278688516002,203.80703837648616 144.3538722441299,204.69945992011344 143.3159977387404,205.16351818974363 142.15602035052143,205.27060846905806 140.35500282631256,205.59187910312903 139.62238552852068,205.73466595326317 138.98134539288003,206.02023947247653 138.18767665338237,205.73466595326317 133.51724137936253,206.12732947981567 130.6478236290859,206.98404831514927 129.2436404748587,207.697979016084 126.58790276991203,209.3043175697967 125.30582249851432,209.91115458868444 123.19954776694067,211.05343307508156 119.2617297907127,212.33849174983334 115.8428490672959,212.87393141968641 112.36291690217331,212.76684355380712 107.90616167313419,211.91013940202538 106.83776144695003,212.01722753999638 105.86093838314991,212.44557975174394 104.1514980213251,214.12328734519542 103.26625211979263,213.83772068435792 103.23572639911436,213.87341653023032 103.96834369690623,214.65872418289655 103.54098360647913,215.5511170240643 103.47993216500618,216.22933400486363 103.7546636518091,216.8718540975533 103.26625211979263,217.87132736548665 103.47993216500618,218.65662571339635 103.35782928194385,219.4419222336437 102.80836630857084,219.90596022742102 102.13680045225192,219.90596022742102 101.46523459570017,219.79887459316524 100.0,220.3343024245114 99.02317693608347,219.72748415142996 96.5505935556721,219.04927420188324 96.30638778966386,218.47814897669014 95.20746184280142,218.5138443315518 93.25381571508478,218.5138443315518 92.6433013001224,218.9778836016776 92.00226116448175,219.33483645206434 89.86546071222983,219.47761748658377 87.97286602598615,219.51331273571122 87.54550593544263,219.0135789036285 86.84341435832903,219.04927420188324 84.61503674392588,218.9778836016776 83.88241944590118,219.19205535729998 80.67721876758151,219.15636007406283 78.90672696428373,219.04927420188324 78.23516110796481,219.08496949641267 77.19728660257533,218.72801638167584 73.07631430181209,219.2277506366372 71.7637083097361,218.76371171014034 70.08479366858955,219.370531716384 69.35217637079768,219.40622697689105 66.57433578290511,218.87079767292016 64.8343697002856,218.5138443315518 61.62916902208235,217.3358956258453 58.729225551127456,216.3007251866802 57.32504239678383,215.8009865966451 55.95138496323489,215.4083343281818 55.340870548272505,215.05137732380535 53.90616167336702,214.87289868004154 53.204070096137,214.73011569704977 51.799886941793375,215.15846446473734 49.540983606595546,215.47972568360274 48.22837761451956,215.15846446473734 47.862068965449,214.55163688326138 47.923120407154784,213.08810704978532 49.20520067831967,213.44506613115664 50.76201243640389,214.51594110924634 53.57037874497473,215.08707304118434 55.005087620113045,215.12276875483803 55.70717919722665,214.76581144842203 56.40927077445667,214.694419941894 59.00395703781396,214.51594110924634 60.04183154320344,214.55163688326138 60.40814019215759,215.12276875483803 60.988128886325285,215.58681268859073" stroke="red" stroke-linecap="round" stroke-linejoin="round" stroke-width="0.5"><title>2022-12-15 10.2km</title><desc>9094149050</desc></polyline></svg>