<?xml version="1.0" encoding="utf-8" ?>
<svg baseProfile="full" height="300mm" version="1.1" viewBox="0,0,200,300" width="200mm" xmlns="http://www.w3.org/2000/svg" xmlns:ev="http://www.w3.org/2001/xml-events" xmlns:xlink="http://www.w3.org/1999/xlink"><defs /><rect fill="#222222" height="300" width="200" x="0" y="0" /><text fill="#FFFFFF" style="font-size:12px; font-family:Arial; font-weight:bold;" x="10" y="20">Over 5km Runs</text><text fill="#FFFFFF" style="font-size:4px; font-family:Arial" x="10" y="280">ATHLETE</text><text fill="#FFFFFF" style="font-size:9px; font-family:Arial" x="10" y="290">fengde</text><text fill="#FFFFFF" style="font-size:4px; font-family:Arial" x="120" y="280">STATISTICS</text><text fill="#FFFFFF" style="font-size:3px; font-family:Arial" x="120" y="285">Number: 44</text><text fill="#FFFFFF" style="font-size:3px; font-family:Arial" x="120" y="290">Weekly: 1.5</text><text fill="#FFFFFF" style="font-size:3px; font-family:Arial" x="141" y="285">Total: 267.3 km</text><text fill="#FFFFFF" style="font-size:3px; font-family:Arial" x="141" y="290">Avg: 6.1 km</text><text fill="#FFFFFF" style="font-size:3px; font-family:Arial" x="167" y="285">Min: 5.0 km</text><text fill="#FFFFFF" style="font-size:3px; font-family:Arial" x="167" y="290">Max: 10.0 km</text><polyline fill="none" points="15.888253953075036,58.156631751247915 14.886022999533452,57.226671682772576 15.093802587478422,57.51281392603414 14.849356013466604,57.77034142530465 15.081580258789472,57.92771909919975 15.362693818926346,57.8847979336424 16.82937326305546,58.5 18.0149391470477,57.727420209601405 18.210496406361926,57.06929318991024 18.74827886914136,57.11221461529203 19.200505031156354,56.33962686636369 19.1393933876534,54.408138109371066 19.64050886442419,53.7643023696437 23.270540488767438,56.26809073956974 23.69832199328812,56.196554574766196 23.99165788211394,55.86748772750434 23.820545280294027,55.466883524204604 24.85944321990246,54.69428633931966 25.103889793914277,54.33660095691448 25.103889793914277,53.77860986397718 25.678339242876973,53.19200135100982 26.35056732146768,51.97585361350502 26.87612745561637,51.68969960902177 27.145018687064294,50.90277296229033 28.318362242425792,49.72952833445743 28.709476760879625,49.58644902218657 29.051701964519452,48.7995100881526 29.650596070860047,48.35596066300059 29.28392620984232,46.939454331295565 29.601706756046042,45.708941790348035 30.01726593193598,44.95059706737811 32.14395112596685,43.004636355428374 32.730622903618496,41.96010172984097 32.66951126011554,38.110993247741135 32.950624820252415,35.406535238653305 33.378406324773096,34.462108535459265 34.857308097649366,32.501686506628175 35.150643986533396,31.57154928331147 34.05063440342201,31.5 33.85507714416599,31.857746036315802 34.01396741729695,32.515996259855456 33.45174029702321,33.11700452325749 33.58618591277627,33.66077159297129 33.158404408197384,33.78955820892588 32.58395495917648,34.977251194708515 31.789503593579866,35.76427089658682 31.801725922327023,36.451120695783175 30.87282894103555,37.16658551141154 30.310601820761804,38.912303709061234 31.056163871544413,39.2127939027996 30.87282894103555,40.58645482179418 32.59617728792364,40.58645482179418 32.8039568758104,41.65961766592227 32.59617728792364,42.360746105608996 31.691724964010064,43.4625119936245 30.8606066123466,43.64852352695016 30.89727359841345,44.13501401501708 29.601706756046042,45.55154984050023 29.30837086722022,47.239926616151934 29.71170771442121,48.29872837277071 29.039479635772295,48.7995100881526 28.709476760879625,49.58644902218657 27.621689506457187,50.330459786287975 26.925016770488583,51.53231464744022 26.362789650214836,51.93293055155664 25.07944513653638,53.79291735676816 24.896110206027515,54.622749338828726 23.89387925254414,55.42396157463372 23.857212266419083,55.69580035767285" stroke="#4dd2ff" stroke-linecap="round" stroke-linejoin="round" stroke-width="0.5"><title>2023-07-06 6.0km</title></polyline><polyline fill="none" points="44.40263691684231,47.273529981976026 46.721095334680285,47.54036814050778 52.63590263691731,47.380265330080874 53.73123732249951,47.52969462773035 54.41582150099566,47.84989952030446 55.13691683567595,47.82855255906907 55.848884381353855,47.52969462773035 56.11359026370337,46.473011272231815 56.150101419887505,45.61911764774413 56.42393509129761,45.26688442224986 58.158215010131244,45.4803592511671 58.34077079105191,45.373621893159 59.73732251516776,45.40564311242633 62.12880324543221,44.509045131650055 64.06389452330768,43.51637378711166 66.14503042591969,43.3028948025094 67.91582150099566,42.85458746448421 68.5,42.587736912682885 68.36308316426584,42.55571479904029 68.22616632853169,42.1927968006421 68.31744421907933,42.15010047968826 67.42292089248076,42.55571479904029 66.56490872206632,42.72649928768806 63.644016227161046,43.07874138250918 61.20689655171009,44.40230674605846 59.855983772780746,44.818585811291996 58.240365111560095,44.91464996703871 56.798174442199524,44.65847868176206 56.21399594319519,44.70117394114641 55.44726166327018,45.39496937381773 55.292089249473065,45.90730755391269 55.401622718025465,46.195496636937605 55.3286004056572,46.803893109005 55.01825557806296,47.081406070894445 53.95030425960431,47.081406070894445 53.30223123729229,46.82524028702028 53.119675456371624,46.60109469262534 52.1977687626495,46.63311552229425 51.202839756559115,46.921302532195114 50.58215010142885,46.921302532195114 50.43610547663411,46.76119873941934 48.32758620689856,46.81456669858744 48.13590263691731,46.312906768129324 45.22413793101441,46.89995537449431 43.64503042597789,46.57974746718537 41.5,45.789896950787806" stroke="#4dd2ff" stroke-linecap="round" stroke-linejoin="round" stroke-width="0.5"><title>2023-07-01 6.0km</title></polyline><polyline fill="none" points="85.45773955772165,46.44289783833665 85.72309582302114,47.00142594514182 88.31031941028778,47.63752480941184 89.02678132674191,47.5134081744618 89.72997542988742,47.24965997649997 90.0351351351128,46.380839028483024 90.26068796060281,44.348398493326386 90.67199017194798,43.882950132130645 93.07346437341766,44.14670438483881 93.35208845202578,43.976039922534255 95.67395577387651,43.882950132130645 98.5,42.92101883768919 98.22137592139188,42.362475190573605 94.98402948398143,43.37095522857271 93.16633906628704,43.417500293653575 90.49950859945966,43.04513935929572 89.27886977879098,43.99155488189717 89.00024570024107,44.689726352647995 89.14619164617034,45.1241424792679 88.92063882062212,46.3187801924214 87.3019656019751,46.70664748713898 85.8557739557582,45.884367604448926 84.74127764126752,45.86885284536402 84.10442260437412,46.22569188903435 82.2734643734293,46.33429490387789 81.72948402946349,46.101574059270206 78.83710073702969,46.132603526551975 78.37272727268282,45.54304252550355 74.40565110562602,46.256721330064465 73.45036855037324,46.16363298727083 72.07051597046666,45.83782332230476 71.5,45.294805605502916 71.76535626529949,43.80537526161061 72.49508599506225,43.86743516130082 72.40221130219288,44.937964296826976 72.04398034396581,45.18620182087761 71.8184275184176,46.41186843668402 72.22972972970456,46.59804474799603 75.81203931197524,47.14105763947009 85.08624078618595,46.92385272415413 88.41646191640757,47.622010235791095 89.46461916458793,47.29620381059067" stroke="#4dd2ff" stroke-linecap="round" stroke-linejoin="round" stroke-width="0.5"><title>2023-06-25 5.0km</title></polyline><polyline fill="none" points="105.0640940615558,57.18305231854902 105.45541589544155,57.55523448936583 105.24752617120976,58.01330344271264 105.77336488547735,57.79858381464146 106.5926949752029,58.5 106.98401680903044,58.47137083944108 107.52208433067426,57.82721311812929 107.87671974266414,57.85584241557808 108.09683827421395,57.16873759914597 108.73273625422735,57.082849250829895 109.13628689543111,56.32416646373167 108.9650835931534,54.7495281820884 109.46646469278494,53.86199668061454 111.61873477912741,55.23623652430251 112.26686156645883,54.7495281820884 113.0372764269705,55.021512472318136 113.88106413127389,55.021512472318136 115.71538522763876,52.401851493821596 116.81597788538784,51.70040357331163 117.07278283889173,51.013267376765725 117.61085036047734,50.36907401079952 118.60138375248061,49.6676155103778 118.91933274251642,48.923206578037934 119.62860356649617,48.379212834945065 119.27396815444808,46.73290260236536 119.56745952984784,45.616263345771586 119.89763732725987,45.01499222127313 122.23333952325629,42.86757344743819 122.69803420105018,41.693636717114714 122.58797493524617,38.25766556158487 122.88146631058771,35.136582486884436 124.66687217768049,32.473582886115764 124.9359059385024,31.772031220578356 124.67910098505672,31.5 124.01874539034907,31.5 123.78639805142302,31.81498346834269 124.01874539034907,32.44494819579995 123.4073050248553,33.03195813143975 123.44399144680938,33.704868813671055 123.07712722755969,33.862358062469866 122.612432549824,34.85024096936104 121.74418723088456,35.89538456524315 121.82978888205253,36.42511178499262 120.8147978754132,37.1839066066168 120.30118796840543,38.71580011135666 120.27673035382759,38.987816763299634 120.98600117774913,39.188249734346755 120.83925549004925,40.53400624735514 122.57574612786993,40.67717104284384 122.75917823752388,41.665003986199736 122.49014447676018,42.55261581632658 119.82426448340993,45.229732216583216 119.26173934718827,46.57542839583766 119.67751879565185,48.27900322167261 118.99270558642456,48.837312975141685 118.72367182560265,49.51014473299438 117.57416393852327,50.36907401079952 116.91380834381562,51.457043237707694 116.0577918322524,52.215753421754926 115.44635146681685,53.47548920002009 115.00611440365901,53.8763117511844 114.87159752327716,54.592063342177426 113.84437770931982,55.42233042595035 113.92997936048778,55.95198089367477 113.39191183890216,56.352796080405824 112.32800560304895,55.679998481035" stroke="#4dd2ff" stroke-linecap="round" stroke-linejoin="round" stroke-width="0.5"><title>2023-06-21 5.9km</title></polyline><polyline fill="none" points="135.34899277432123,57.088740186198265 135.45749878929928,57.21575418319844 135.1922618636745,57.25809215515619 135.50572368490975,57.58268282581412 135.97591641667532,57.6532459101727 135.83124173001852,58.34476215408358 136.4461091485573,58.5 137.20565125369467,58.27419943692803 138.146036717284,56.94761338054377 138.67651056853356,56.87704992145882 139.08642218093155,56.312540900253225 139.0502535092528,54.39319229043031 139.5566149126971,53.54641203158826 141.5941167504643,54.91537076032546 142.32954640785465,54.44964411582623 143.89685551385628,54.74601580570743 145.63295175437815,52.14921280705312 146.70595568075078,51.40121122470009 147.62222869653488,50.04632971271349 148.65906395128695,49.29831629208638 148.85196353361243,48.64909368324152 149.5391682954505,48.2256859249901 149.15336913091596,46.7014068227727 149.40654983260902,45.37470522179501 151.91424440219998,43.10234510540613 152.50499937287532,42.0861217926431 152.6255616118433,37.188380977502675 152.38443713402376,36.70847735108691 152.43266202951781,36.03096339745389 152.95107965689385,34.56300464287051 154.47016386734322,32.64334179244179 154.8077381363255,31.71173070410441 154.61483855405822,31.5 153.83118400111562,31.627038462960627 153.71062176214764,31.895230374619132 153.8914651205414,32.43161257338943 153.32482259755488,33.01033830587403 153.4092161648441,33.631407018663594 152.96313588082558,33.89959488325985 152.40854958177079,34.98645594854315 151.62489502882818,35.847469440312125 151.7213448199327,36.39795055129798 150.76890313246986,37.146036609628936 150.21431683341507,38.71276923165715 150.19020438560983,38.98094683732779 150.91357781912666,39.22089476243127 150.6603971174336,40.519428955347394 152.4206058057025,40.505314521476976 152.66173028358025,41.62035017639573 152.14331265620422,42.83417581953108 149.82851766882231,45.02185682102572 149.50299962377176,45.642869379604235 149.27393136976752,46.89899954473367 149.63561808661325,48.09866333437094 148.9604695486487,48.60675296813133 148.58672660792945,49.39711075880041 147.62222869653488,50.07455655175727 146.88679903920274,51.274191669828724 145.71734532160917,52.092760004336014 145.1748152464279,53.108906783571 144.5478916040738,53.64520333985274 143.99330530501902,54.717789958944195 142.24515284068184,54.49198296916438 141.71467898937408,54.95770946521952 139.72540204715915,53.588751172690536 139.1346470764256,54.19561071268981 139.23109686758835,56.08673662036017 138.86941015080083,56.862937225188944 138.290711403999,56.94761338054377 137.69995643326547,56.53834479652869 137.00069544749567,56.66535931956605" stroke="#4dd2ff" stroke-linecap="round" stroke-linejoin="round" stroke-width="0.5"><title>2023-06-15 6.6km</title></polyline><polyline fill="none" points="175.6819159577426,41.70439563605032 175.697239911824,41.90148336359562 175.33712699034368,42.34940831192944 175.39076082970132,42.922748790129845 175.82749352173414,44.64274694559572 175.97307108572568,46.28208768815966 176.34084598429035,46.60457721554121 176.486423548311,47.76015460976487 176.88484635506757,48.906758463563165 176.66264902052353,49.58754716107069 176.8771843779832,50.09813509498781 176.80056460745982,50.5728895365537 176.94614217148046,51.03868376225728 177.122367643693,51.14617437386187 177.28326916182414,52.49875291790522 177.41352277170517,52.722687680063245 177.32157904707128,54.44248693171539 177.55910033572582,55.31133057650004 177.96518511950853,55.347158989192394 178.14141059172107,57.165431045687 177.7276638308831,57.88198074747925 177.98050907358993,58.14172851849435 177.98817105067428,58.5 177.94986116542714,57.38039659226342 178.14141059172107,57.21917248344835 178.00349500478478,55.347158989192394 177.5744242898072,55.30237347094953 177.30625509293168,54.03941211324127 177.45183265692322,53.83339535460982 177.45949463400757,52.71373030093673 177.32924102409743,52.57041210614989 177.1836634601059,50.92223544586159 177.59741022097296,50.13396571165504 177.2602832306584,47.69744926407293 176.4404516859795,44.88461888587335 176.5170714564738,44.821911412102054 175.8658034070104,41.85669073849567 174.9540281376976,41.22959150059614 175.1072676787444,40.69207417348662 175.0459718623315,40.047048879067006 174.24912624878925,39.43785381360067 174.11121066185297,39.187007513290155 173.85070344206179,37.34147261079488 173.65915401570965,37.018947820834 173.42163272708422,35.75571390246478 171.85858940824983,32.07341391714726 172.02715290343622,32.0644543545568 171.87391336238943,31.5 172.12675860512536,31.98381824851822 172.21870232975925,32.709540439071134 172.12675860512536,32.93352751365455 172.70906886117882,34.02657593906042 173.52123842877336,36.07824350237934 173.4676045893866,36.33805812027276 173.82771751092514,37.33251360544091 174.12653461596346,39.267636762248 175.05363383935764,40.06496631469781 175.09960570171825,40.701032823562855 174.93104220653186,41.25646727743879 175.75087375121075,41.76710541728971 175.32946501328843,42.34044983615604 175.42907071494847,42.68087124905287 175.75087375121075,42.74358030749136 175.79684561351314,43.12879207674996 175.6359440954111,43.352751602535136 175.42907071494847,43.06608330340532 175.34478896736982,42.34044983615604 175.70490188887925,41.92835892727453 175.7125638659054,41.65960290678777 174.83909848186886,41.21167431130743" stroke="#4dd2ff" stroke-linecap="round" stroke-linejoin="round" stroke-width="0.5"><title>2023-06-04 8.0km</title></polyline><polyline fill="none" points="38.322912111878395,85.41701730866043 36.70550940092653,85.45843329277704 36.00896370789269,85.92781352766906 35.13533012679545,85.80356598277285 34.78115435061045,86.03825569055334 33.36445124621969,85.78976069269993 32.90402273723157,85.29276927738101 31.747048535151407,83.09770121812471 30.57826847396791,81.8413877899875 29.633799737668596,81.51005036463903 27.426104066427797,81.30296404658293 25.67883690423332,80.4055862036912 25.12396152166184,79.14924685511505 24.98229121119948,77.9343137818505 24.46283340617083,77.31303681587451 23.518364669871517,77.10594383649004 20.236335811147,77.64438489923486 19.57520769565599,77.32684300282563 18.005028421524912,75.98763606759894 17.615435067738872,75.90479807379597 17.78071709664073,75.26970504040946 16.67096633143956,73.11588825476065 16.588325317017734,72.45316824398469 16.28137297765352,72.19084064305935 16.033449934388045,71.44527510770422 15.27787494531367,71.1415249643178 14.900087450805586,70.38214651160524 15.336904241354205,70.20265641325386 12.775032794044819,66.28142647961795 11.606252732803114,63.809886488175835 11.5,63.906539769945084 12.822256230865605,66.40569261698693 15.891779623983894,71.10010443540523 15.785526891122572,71.29340012438479 16.600131176179275,72.56362181292207 16.63554875383852,73.26776111642539 16.95430695230607,73.47486018830386 17.75710537820123,75.29731784528121 17.615435067738872,75.94621707723127 18.04044599912595,76.04286136760493 18.241145605570637,76.41563153115567 20.28355924790958,77.63057874588412 23.34127678180812,77.11975004532724 24.47463926539058,77.34064918832155 25.041320507240016,78.113793243494 25.112155662442092,79.23208278906532 25.572584171372,80.36416861576436 27.50874508090783,81.35818709689192 29.433100131165702,81.49624462035717 30.613686051568948,81.88280490897887 32.030389156076126,83.55328441786696 33.35264538694173,85.77595540114271 34.56864888500422,85.94161880317552 34.69851333624683,86.19011351182417 35.46589418448275,85.72073422042013 36.78815041540656,85.44462796625157 38.34652383031789,85.44462796625157 38.5,85.25135324071744" stroke="#4dd2ff" stroke-linecap="round" stroke-linejoin="round" stroke-width="0.5"><title>2023-06-01 6.5km</title></polyline><polyline fill="none" points="68.5,87.61819431673212 66.87768240342848,87.9042607909796 66.10515021457104,87.70853116021317 65.59012875537155,87.19662162251188 63.82618025748525,84.14018224155006 63.09227467805613,83.53792043462454 62.062231759598944,83.08622240681143 59.718884120171424,82.8152029018529 57.78755364805693,81.85157381526369 57.169527897029184,80.67714204335061 57.015021459257696,79.2467312803492 56.37124463520013,78.55410616514564 55.28969957079971,78.34330654786027 51.68454935622867,78.87030500557739 49.62446351937251,77.56033380668669 49.341201716742944,76.82252862706082 49.0836909871432,76.65689836704405 49.135193133028224,76.3406946080213 48.23390557937091,74.29288182372693 47.87339055794291,74.08207589338417 47.886266094399616,73.35931033238012 47.47424892708659,72.90757999231573 47.306866952741984,72.18480846498278 47.036480686743744,72.01917280622001 47.10085836908547,71.71801656890602 45.002145922742784,68.1944412306766 43.869098712457344,66.71872990473639 42.15665236057248,63.36067667452153 41.70600858371472,62.96914961337461 41.5,62.09573920900584 41.65450643771328,62.878797061610385 42.1952789700008,63.39079409613623 43.77896995708579,66.68861318766722 47.10085836908547,71.6577852449409 46.959227467828896,71.97399941121694 47.860515021428,73.34425267750339 47.87339055794291,74.12724861902825 48.246781115885824,74.35311203218589 49.12231759657152,76.3406946080213 49.019313304743264,76.61172644450562 49.379828326171264,76.83758591384685 49.61158798279939,77.50010495581955 51.25965665234253,78.6444487626577 52.032188841258176,78.91547621112841 55.263948497886304,78.35836367376032 56.30686695280019,78.47882062340796 56.924892703827936,79.14133202377707 57.14377682405757,80.73736954946071 57.68454935628688,81.89674407450366 59.487124463543296,82.8152029018529 62.190987124457024,83.1313922740519 63.19527896994259,83.55297701086965 64.41845493559958,84.95323163794819 66.01502145919949,87.63325046132377 66.3755364806857,87.88920467509888 67.40557939914288,87.88920467509888" stroke="#4dd2ff" stroke-linecap="round" stroke-linejoin="round" stroke-width="0.5"><title>2023-05-26 6.2km</title></polyline><polyline fill="none" points="71.5,78.76113778724539 72.5322496748704,79.23739935003687 74.11222366709262,79.38520406845782 74.25968790636398,79.57406524348335 75.95903771129088,79.40162679755304 76.23992197657935,79.67260132631054 77.3564369310916,79.56585389761312 77.18790637192433,79.68902399462968 77.42665799739189,79.98463143000117 77.78478543562233,79.77934860821551 78.12184655395686,79.78755993150116 78.3886866059911,79.79577125392825 78.55019505851669,79.96820882424072 79.0979193757812,80.13243472552858 79.89843953188392,80.13243472552858 80.12314694406814,79.90251836641983 80.10208062417223,79.1470741058074 80.21443433032255,78.83504063509463 80.7762028608704,78.31771922245389 81.28179453834309,78.27666181977838 82.50364109230577,78.49016007643513 83.80975292588118,78.35877660338883 84.6804941482842,78.05495147014153 86.52028608584078,77.08598769493983 89.28699609884643,76.69182947761874 91.44278283487074,75.64894287267816 91.70962288687588,75.1398120377853 91.4989596879168,74.02299721694726 91.06358907671529,73.23464766665711 90.6703511053347,72.14244182665425 89.92600780233624,71.69077326447587 90.03133940181579,71.40334644697577 90.8529258777562,71.86322884393303 91.59726918075467,71.8714410048342 92.19414824448177,72.07674474464875 94.37802340701455,74.48286408960121 94.75019505852833,74.65531346432545 95.05916775032529,74.56498288724106 95.73328998702345,73.86697033744713 96.50572171653039,72.70086477819859 97.67841352405958,71.49368070434139 98.5,69.27635490677494 97.98738621588564,70.7545791453158 97.48179453835473,71.75647067325917 96.5267880364263,72.63516816894844 95.72626788038178,73.83412253339338 95.01703511056257,74.58140663636732 94.69401820545318,74.65531346432545 94.09011703511351,74.23650717529381 92.1871261378401,72.06853260547359 91.56918075421709,71.86322884393303 90.8318595578603,71.83859235602722 90.06644993499503,71.37049760004447 90.01027308194898,71.5511660860866 90.6703511053347,72.18350247469061 91.47087126137922,74.03942108074989 91.68855656695087,75.14802385194344 91.27425227567437,75.78854267943825 89.65916775033111,76.57686628717056 88.43029908972676,76.85606231143174 88.12834850454237,76.7821575792259 87.04694408320938,76.92996697326453 86.2394018205814,77.15168053653179 85.0456436930981,77.86608659868944 85.08777633288992,78.2356043954278 83.76762028608937,78.73650348899537 83.20585175551241,78.83504063509463 82.37724317298853,78.79398350609699 82.26488946683821,78.88430916121433 80.958777633321,78.73650348899537 80.7762028608704,78.93357765609107 80.67087126139086,79.91072967670334 80.41807542263996,80.53478671524499 79.74395318594179,80.72364509322506 78.50806241872488,80.40340670302976" stroke="#4dd2ff" stroke-linecap="round" stroke-linejoin="round" stroke-width="0.5"><title>2023-05-21 9.9km</title></polyline><polyline fill="none" points="128.5,78.62927641313581 127.81932773115113,78.97040065689362 126.49039615847869,79.0083033105766 124.88595438183984,78.55347093744786 124.61044417775702,79.0083033105766 123.63805522210896,78.97040065689362 121.56362545024604,77.87122021231335 120.33193277317332,77.98492884694133 119.18127250904217,77.22686991936644 115.61584633856546,77.47323942270305 114.5462184874923,77.32162746074027 113.91416566632688,77.8333173180581 109.95978391362587,79.36837812034355 109.29531812726054,78.91354666140978 109.00360144063598,77.54904535558308 105.956782713125,73.87242065853206 105.45438175275922,73.51233480090741 101.87274909968255,73.07644042580796 105.79471788718365,73.70185376358859 109.1008403362357,77.79541441582842 109.2791116447188,79.04620595621236 109.92737094842596,79.36837812034355 113.73589435772737,77.96597741283767 113.99519807926845,77.53009387537895 112.6338535414543,77.41638495202642 111.4021608644398,76.86679080491012 110.67286914773285,77.1321123278467 110.25150060030865,78.06073456327431 110.89975990401581,78.38290849972691 110.49459783919156,78.72403321265301 110.67286914773285,79.06515727605438 110.23529411770869,79.3494268325885 109.70048019220121,79.23571906406141 109.3115246098605,79.02725463436218 109.24669867951889,78.06073456327431 108.85774309729459,77.37848196148116 108.06362545024604,76.71517832971585 107.10744297725614,75.12323959208152 105.64885954384226,73.53128670626029 102.4561824729899,73.11434432661918 105.58403361350065,73.53128670626029 108.93877551023616,77.49219090890256 109.39255702286027,78.66717913896719 108.85774309729459,78.38290849972691 107.156062425056,75.16114305978408 105.69747899158392,73.58814241003711 101.5,73.05748847240466 101.80792316934094,70.631621879671 105.82713085232535,70.74533511018672 106.60504201689037,71.18123515821935" stroke="#4dd2ff" stroke-linecap="round" stroke-linejoin="round" stroke-width="0.5"><title>2023-05-19 5.4km</title></polyline><polyline fill="none" points="131.5,74.7164661706338 134.15037593984744,74.75603090957884 138.4248120301054,76.04847214277834 139.9699248120305,76.33861016987794 149.20676691731205,76.21991742223327 151.7105263157864,76.81338003047858 152.86090225563385,76.39136246587441 153.30075187975308,73.8328503964658 153.59398496244103,73.58227164897107 155.6917293232982,73.8592270774243 155.86090225563385,73.661401834157 157.80075187975308,73.63502511137631 158.46616541355615,73.43719951230014 158.5,73.18661996951414 157.30451127822744,73.70096690794162 155.87218045117334,73.6877785514007 155.64661654137308,73.8328503964658 153.56015037599718,73.60864838293492 153.24436090228846,73.93835708684492 152.81578947370872,76.41773860555986 151.82330827071564,76.76062791306322 149.01503759401385,76.16716505365912 140.5676691729459,76.36498632068106 138.2781954887323,75.96934347275965 134.06015037593897,74.7164661706338 131.91729323309846,74.78240739519242" stroke="#4dd2ff" stroke-linecap="round" stroke-linejoin="round" stroke-width="0.5"><title>2023-05-17 5.0km</title></polyline><polyline fill="none" points="164.25912408763543,77.45126765682653 165.11015262111323,77.92265003185457 165.57597876578802,77.72362219164643 166.93762441939907,77.92265003185457 167.3228268082603,77.67124637778761 167.3586595886154,77.35699091257266 169.29362972796662,77.27318928674504 173.19940278702416,77.22081323460588 175.25082946254406,77.6502960444268 175.98540145991137,77.4093668926871 176.30789648310747,75.51333876167337 176.59455872600665,75.10479755939014 177.47246184473624,75.26192899051966 178.35932315862738,75.16765016175486 179.63138686132152,75.29335524681665 182.10384870605776,74.42389180975442 184.11944260122254,73.38681097867811 186.10816191107733,73.2506278404544 188.01625746523496,72.69541772310185 188.5,72.47542794749461 188.32979429332772,72.55923363391776 188.23125414730748,72.07734996814543 187.99834107497009,72.27638915788702 187.0935633709887,72.52780650982459 183.6088254810893,73.02016364139126 181.2976111479802,74.25628352245258 179.92700729926582,74.68577919066593 178.49369608494453,74.79053394906805 176.97080291970633,74.53912234269228 176.36164565366926,74.58102432142914 175.60019907105016,75.25145356955181 175.40311877906788,76.83322958769713 174.18480424687732,77.03225921748526 174.2385534173809,76.91703158582823 173.87126741878456,76.70752645747416 173.61147976113716,76.14186039681226 173.11877903121058,75.92187827832822 172.50066357001197,76.06853307828715 172.0975447910023,76.64467483254703 171.4525547445519,76.74942751861818 170.91506303916685,76.75990278113022 170.65527538151946,76.59229844793299 168.63968148641288,76.6341995578332 168.45155938953394,76.17328637385071 168.34406104846857,76.17328637385071 165.6028533510398,76.72847699025442 163.80225613806397,76.3827926325248 161.52687458531,75.56571571694076 161.5,75.38763395587011 161.92999336431967,75.30383066334616" stroke="#4dd2ff" stroke-linecap="round" stroke-linejoin="round" stroke-width="0.5"><title>2023-05-14 6.3km</title></polyline><polyline fill="none" points="11.8776937618386,110.75332964488916 12.204347826133016,108.73616817298898 11.5,108.4735764533907 11.898109640809707,108.39002441448247 12.010396975441836,108.18711206242006 12.21455576561857,106.27733087239903 12.081852552015334,106.15796847490856 12.43913043482462,106.16990472034377 12.633081285457592,102.25474850706087 12.786200378090143,101.93245825514168 15.154442344093695,102.09957183402003 17.696219281700905,103.0186920937631 17.920793950848747,102.95900918731786 18.175992438627873,102.46960816358478 20.146124763705302,102.91126283940685 21.25879017013358,102.98288235368818 28.649338374321815,102.83964327967988 30.87466918717837,103.34097924314847 31.77296786388615,103.0186920937631 32.15066162572475,100.76265627289831 32.395652173960116,100.48810915247304 34.34536862006644,100.63135121169762 36.131758034054656,100.54779336594947 38.5,99.72414843213483 38.28563327033771,99.24667035511811 36.92797731567407,99.80770688786288 35.83572778827511,100.03450809862261 34.478071833669674,100.08225566385227 32.273156899842434,99.80770688786288 31.344234404561576,100.54779336594947 31.150283553870395,101.1088234290437 31.28298676747363,101.56242016401666 31.09924385638442,102.33830508879328 30.12948960304493,102.5770378384259 29.088279773190152,102.29055847824202 28.720793950837106,101.9921417045698 27.832703213673085,101.9921417045698 27.424385633319616,102.24281184745632 26.475047258951236,102.32636843804357 25.5665406427579,102.15925519503071 24.014933837461285,102.23087518662214 22.340831758105196,102.06376180223015 21.18733459356008,102.23087518662214 20.503402646514587,102.05182512245665 19.584688090719283,102.23087518662214 18.16578449908411,101.93245825514168 17.71663516073022,101.52660996173654 17.686011342157144,100.96558197597915 17.267485822318122,100.9417083828157 17.818714555818588,101.06107629822509" stroke="#4dd2ff" stroke-linecap="round" stroke-linejoin="round" stroke-width="0.5"><title>2023-05-12 6.0km</title></polyline><polyline fill="none" points="48.55365607858403,118.35563351665041 48.82877598103369,118.3445283943147 48.098285205545835,117.94474320396694 48.30699685565196,118.00026901623642 48.449300253530964,117.80037595404428 48.38289200118743,118.31121302016254 48.55365607858403,118.20016169633163 49.198764815344475,118.5 49.749004620302,118.47778978475253 49.91028180450667,117.70042927964096 49.834386659029406,116.43442980173131 50.21386238653213,115.9013728042919 50.18540170695633,115.623737875183 52.50969053810695,113.8690680706859 53.211720634019,113.18051871030184 54.03708034142619,112.02552250371082 54.65372839861084,110.19305041840562 54.86244004877517,106.25035006396502 55.05217791249743,106.05043453563121 55.0426910193637,105.12859687567834 55.450627426442225,103.81801849725889 56.674436647736,101.76326508170314 58.80898761510616,99.7528996740075 59.643834215647075,98.44225388984341 60.573549748107325,94.15477234565333 61.90171479451237,91.5 60.61149732087506,94.0103722370186 59.86203275900334,97.5981004455316 59.45409635186661,98.77547047781991 58.60027596494183,99.98614847219869 57.16775509354193,101.20791938700859 56.29496092023328,102.2519668523164 55.526522571919486,103.56256486586062 55.128073058032896,104.89535955263273 55.023717232979834,105.47289863955666 55.13755995122483,106.10596666519996 56.26650024065748,106.03932810619153 57.61363907332998,106.18371159697563 58.32515606249217,106.02822167558043 59.264358488086145,106.19481801109214 59.95690169086447,106.10596666519996 60.250995379698,106.26145647095836 60.37432499113493,106.77234991874866 60.24150848650606,107.28324086971406 58.34412984887604,109.04912731822697 57.99311480089091,109.65996159899805 57.85081140307011,110.55954740497691 58.17336577142123,111.85893545950239 54.86244004877517,116.22342839852354 53.42991917737527,117.82258631316654 53.20223374082707,117.82258631316654 50.232836172915995,115.84584587741847 49.853360445355065,116.51216705346451 49.98617694998393,117.58937730717298" stroke="#4dd2ff" stroke-linecap="round" stroke-linejoin="round" stroke-width="0.5"><title>2023-05-09 7.6km</title></polyline><polyline fill="none" points="83.94451972824754,118.5 84.14833660831209,116.5253742155619 83.81349459115881,115.45293799169303 81.9354676247458,114.8571370018326 78.38323057221714,114.38049462188792 78.29588048078585,113.54636706043675 78.54337240656605,111.62275028511067 80.01376561279176,111.65679679957975 79.54789845831692,111.55465723454836 79.4023149725981,110.26088379997236 79.05291460675653,110.58432813371473 78.52881405805238,110.22683699020126 78.57248910376802,99.92734635573288 78.76174763520248,99.43363520609273 78.29588048078585,99.67197870883683 77.6844298405922,99.33148788248945 78.67439754377119,97.54389922301925 78.73263093811693,96.33513754123123 79.30040653253673,96.04571438264975 79.54789845831692,99.2293404940574 79.09658965247218,100.60832476618816 79.21305644110544,101.93622437746671 79.38775662396802,102.22563694084238 80.49419111578027,102.1064671248314 81.25122524169274,101.4765680598357 80.82903313299175,98.9739717393677 81.51327551610302,97.95249266753672 81.45504212175729,97.45877545815893 80.9600582701969,97.56092397061002 79.95553221844602,97.0672055597388 80.29037423571572,96.55646078179416 80.93094157305313,96.57348563388223 81.78988413908519,96.99910634967091 82.11016780772479,96.8118333734601 82.22663459635805,97.01613115487271 83.20204395084875,94.58156571917061 83.10013551090378,93.11740373156499 82.69250175071647,91.90860879354295 82.35765973350499,91.5 81.60062560753431,91.89158344782481 81.28034193889471,92.55557059420971 81.71709239616757,92.04481149405183 81.58606725896243,92.72582326723204 81.87723423045827,93.16847937401326 82.21207624772796,93.25360540873953 82.69250175071647,92.79392428601568 82.98366872227052,92.87905051896814 83.18748560227687,93.71328521810938 83.10013551090378,95.0412417344487 82.11016780772479,96.98208154267923 79.50422341265948,99.34851244089077 79.12570634967415,100.55725148538477 79.34408157825237,102.27670969208702 79.86818212707294,102.61719428631477 81.70253404753748,102.4469520792627 82.72161844791844,102.61719428631477 83.56600266532041,103.21304059261456 84.70155385421822,103.19601644303475 86.30297219753265,104.06424577436701 87.87527384376153,104.28555838404282 90.5103349359706,104.06424577436701 90.94708539324347,104.52389470030903 92.25733676512027,104.57496672208072 92.3155701594078,105.98795289857662 92.02440318791196,107.14557088144647 91.73323621635791,107.07747593650129 91.45662759343395,107.67330572784704 91.67500282207038,108.71174666276784 91.15090227330802,111.35037791002833" stroke="#4dd2ff" stroke-linecap="round" stroke-linejoin="round" stroke-width="0.5"><title>2023-05-06 6.0km</title></polyline><polyline fill="none" points="108.54284203052521,118.48883518038201 108.2376292461413,118.31019790533901 108.58099362859502,118.01991168599488 109.32494979049079,118.5 109.6301625748747,118.4665055376172 109.76369316806085,117.69612995725038 109.64923837390961,116.55730354105617 110.0402922538924,115.89856498214795 109.99260275636334,115.68642795733467 112.31985023716697,113.93348984222393 113.7696109630051,112.19168798450846 114.48495342634851,110.19304644649674 114.70432511513354,106.15098483863403 114.90462100482546,105.91649583106482 114.84739360777894,105.3581865644228 115.20983378926758,103.99589950602967 116.20177533844253,102.17576710690628 118.67209131200798,99.69676306987094 119.61634336365387,98.08872917995177 120.43660272168927,94.13554125385417 121.7623707538005,91.5 120.4079890231369,94.202545678163 119.66403286124114,97.86538919340092 119.31113057932816,98.7252455372145 118.45271962322295,99.94243274722248 116.21131323801819,102.11993432638701 115.25752328679664,103.83957035341882 114.84739360777894,105.34702034883958 114.97138630144764,105.73783718843333 114.6947872156743,106.26264608688507 114.55171872297069,109.85807487252896 113.86498995806323,112.04653652687557 113.37855708302232,112.81695351059898 112.50107032788219,113.76601014851622 110.04983015340986,115.67526283892221 109.71600367053179,115.55244645797211" stroke="#4dd2ff" stroke-linecap="round" stroke-linejoin="round" stroke-width="0.5"><title>2023-05-04 6.1km</title></polyline><polyline fill="none" points="132.3203300824971,110.08631591555604 132.59377344336826,107.04291295647272 132.6747936984175,106.8297532289871 132.8975993998465,106.80606878973776 132.6849212302477,106.71133098277642 132.63428357086377,106.24948302568373 132.90772693173494,102.7085853888857 133.1406601650524,102.56647344709927 133.99137284321478,102.73227069498535 135.2876969242352,102.7085853888857 137.0397599400021,103.34808689445344 137.79932483116863,103.45467012354493 138.05251312826294,102.00986660464696 137.88034508621786,101.59537034973619 137.12078019505134,101.61905589134403 136.74606151535409,101.21640100210789 135.62190547637874,101.27561504726327 135.19654913729755,101.08612999255274 134.66991747939028,101.28745785251522 133.98124531138455,101.28745785251522 132.69504876219435,100.62425882802927 132.08739684917964,100.74268751341151 131.5,100.4939871293609 131.51012753188843,100.99138734491862 132.14816204051021,101.09797281785723 132.25956489122473,100.64794457514654 132.74568642157828,100.68347318637097 133.8597149287816,101.28745785251522 134.76106526632793,101.45325699471869 135.3585896474542,101.29930065650842 135.7130532632582,101.66642695957125 138.41710427607177,102.62568677810486 139.6830457614269,102.89806769731513 140.04763690923573,102.94543822430569 140.58439609903144,102.69674273396959 141.3540885221446,102.89806769731513 142.3162040510215,102.69674273396959 142.79219804948661,102.80332658316911 143.19729932479095,102.63752944052976 143.65303825959563,102.83885451038077 145.80007501877844,102.7677986447161 146.48874718678417,102.98096610642096 147.52175543888006,102.89806769731513 147.90660165040754,102.62568677810486 148.82820705173071,102.62568677810486 149.1421605400974,102.90991033095634 150.30682670668466,103.18229055862321 151.2081770442892,103.00465135485865 151.3600900224992,102.12829382420023 151.22843210800784,101.79669729382294 151.42085521377157,101.24008662391861 152.3222055513761,100.45845845794975 155.63390847714618,100.70715892095905 157.04163540888112,100.4347726707565 158.27719429857098,99.91368408445123 158.5,100.35187237609352 157.50750187551603,100.8255875186369 155.76556639163755,101.25192943293223 154.3578394599026,101.32298626079864 152.45386346586747,101.14534410658234 152.1804201050545,101.50062813310069 152.08927231805865,102.69674273396959 151.82595648913411,103.64415116920281 150.83345836465014,103.98758474692295 148.7168042010744,103.47835527179996 141.17179294826929,103.6323086132179 139.41972993250238,103.37177206525666" stroke="#4dd2ff" stroke-linecap="round" stroke-linejoin="round" stroke-width="0.5"><title>2023-04-26 7.0km</title></polyline><polyline fill="none" points="161.5,107.8816031635215 161.878151260491,107.10041524880216 161.70168067223858,106.5550550519838 161.73949579824694,104.68312678759685 161.878151260491,104.25567507422238 162.16806722682668,104.10827762763074 165.67226890753955,104.4325518043479 167.71428571426077,105.2874528344546 168.30672268901253,105.22849431114446 169.31512605038006,105.52328667828988 169.79411764704855,105.86229712955537 170.23529411759228,105.75912012303888 171.00420168059645,106.02443227119511 172.99579831928713,105.89177626025048 173.89075630251318,106.45187855842232 174.57142857142026,106.18656722415471 175.39075630245497,106.45187855842232 176.1092436974286,106.30448343507305 176.6890756302164,105.92125538468827 177.19327731087105,106.36344150311197 178.54201680672122,106.15708815582911 179.13445378147298,106.2897439141816 180.88655462185852,105.52328667828988 181.63025210087653,105.59698467268026 182.91596638655756,106.11286954164098 183.30672268907074,105.62646385945845 184.20168067223858,105.75912012303888 185.3991596638225,105.31693208677461 185.66386554623023,104.594688609679 185.85294117644662,102.6932542064169 186.09243697475176,102.31001622333133 186.68487394956173,102.11839683649305 187.5672268907074,102.38371591737086 188.5,102.38371591737086 186.5210084033315,102.13313679870043 186.07983193278778,102.28053633484524 185.81512605038006,102.61955467615917 185.3991596638225,105.3464113328373 184.1008403361193,105.78859927556186 181.22689075628296,105.11057718961092 171.2436974789598,105.2874528344546 169.79411764704855,105.05161859143118 164.65126050414983,103.50394646626955 162.39495798316784,103.57764552872686 164.57563025207492,103.71030374293332 164.72689075628296,103.5629057193728 165.10504201677395,103.72504353668774" stroke="#4dd2ff" stroke-linecap="round" stroke-linejoin="round" stroke-width="0.5"><title>2023-04-20 5.0km</title></polyline><polyline fill="none" points="17.680246330040973,147.61733862921392 17.818181386683136,148.3815946527684 17.68944200052647,148.06943443788623 17.781398704915773,148.23089673802315 18.792922453256324,148.5 19.455010724952444,148.16631184885046 19.795250531169586,147.35899726173375 19.89640290598618,147.31594030313136 20.080316314881202,147.60657441870717 20.484925814147573,147.57428178036207 20.751600256946404,147.0575981674483 20.641252211644314,145.65823348906997 21.027470370114315,145.00160186468565 20.926317995239515,144.8401344201411 23.730997479346115,142.60109267281223 24.65976019378286,141.36313970170158 25.303457124507986,139.31779296459717 25.459783522004727,135.96979421174183 25.533348885539453,135.5499409031254 25.708066623832565,135.4422859283659 25.597718578588683,135.02243043397175 25.88278436224209,133.82744758134504 26.940286462777294,131.84654405961192 27.721918450144585,130.9206736973647 29.119660356955137,129.67181189817347 29.94727069651708,128.4982984194212 30.27831483236514,127.7015934482406 31.115120842354372,123.72874135125312 32.31975366995903,121.5 31.041555478819646,124.12711024314922 30.342684525472578,127.51856574551493 29.98405337834265,128.5090646599201 28.86218158470001,130.0055609552728 27.08741718978854,131.63122612574807 25.983936737058684,133.62289955424785 25.66208827169612,134.94707157133962 25.71726229431806,135.5499409031254 25.514957544626668,135.81907783957286 25.303457124507986,139.70533551624976 24.687347205064725,141.41696405835683 23.280409627826884,143.13932837834 21.036666040541604,144.8508989244292 21.073448722308967,145.03389532274014 20.806774279568344,145.4752382180668" stroke="#4dd2ff" stroke-linecap="round" stroke-linejoin="round" stroke-width="0.5"><title>2023-04-17 6.5km</title></polyline><polyline fill="none" points="41.656129529641476,141.04291408213612 41.5,140.9090397561813 41.5,140.54392716650182 42.16615265997825,132.21904578707472 42.3430994602968,131.64699234809086 43.13415574398823,131.86607697993895 43.58172706241021,131.73219197671278 44.63299922895385,131.8173915422376 46.6939090208034,132.5233283724374 47.02698535082163,132.42595803266886 48.42174248263473,132.94932263994997 48.51542020041961,133.27794571151753 48.99421742482809,133.41182891603967 49.660370084806345,133.15623357223376 51.1383962991531,133.37531533026777 51.47147262917133,133.2049184433854 52.06476484192535,133.58222549646598 52.803777949127834,133.47268486661778 53.8966846569092,133.6552525251318 54.55242868157802,133.33880173288344 54.521202775649726,133.10754868046206 54.750192752457224,133.09537745429407 54.9375481880852,133.54571196476172 55.541249036206864,133.59439667114202 56.11372397840023,133.42400010871643 56.69660755590303,133.5700543205312 57.42521202773787,133.18057601037435 57.46684656891739,133.53354078494885 57.64379336923594,133.6552525251318 58.12259059364442,133.54571196476172 58.445258288353216,132.94932263994997 59.88164996140404,133.47268486661778 59.871241326094605,133.11971990532766 60.7455666923197,133.15623357223376 61.71356977632968,132.7789251222057 62.098689282895066,130.4420194157501 62.37972243636614,130.17424593916076 62.754433307563886,130.0525305164847 64.24286815722007,130.3689903475606 64.56553585192887,130.23510360217915 65.94988434843253,130.320304276378 66.8138010793482,130.13773132586357 68.5,129.41960824286798 68.26060138782486,128.95708591787115 66.87625289120479,129.49263791366684 65.33577486500144,129.74824139646807 62.171549730119295,129.45612308407 61.21395528136054,130.28378970943595 61.04741711640963,130.89236431183963 61.21395528136054,131.25750752806925 60.984965304494835,132.09733252763544 59.88164996140404,132.29207368096831 59.32999228988774,132.18253182278568 58.643022359290626,131.72002060507657 57.60215882805642,131.69567785789695 57.185813415562734,131.96344779351784 56.269853508099914,132.0608185246747 55.520431765588,131.8782483361574 53.126445643778425,131.90259104466531 52.94949884345988,131.4279072990903 53.053585196554195,131.3548788567059 54.34425597533118,131.29402178597957 54.94795682345284,131.76870608396712 54.85427910560975,131.86607697993895 52.60601387813222,131.8782483361574 52.63723978406051,131.54962126672035 52.460292983741965,131.44007870163477 49.420971472573,131.98779048401047 47.71395528141875,131.64699234809086 44.75790285272524,130.50287693716382 44.36237471085042,130.5150484375772 44.216653816460166,130.3568188316931 44.65381649957271,130.14990286490502 45.11179645336233,130.3689903475606 46.256746337690856,130.30813275534456 46.569005397032015,130.67327782582288 46.81881264451658,130.67327782582288" stroke="#4dd2ff" stroke-linecap="round" stroke-linejoin="round" stroke-width="0.5"><title>2023-04-07 7.0km</title></polyline><polyline fill="none" points="71.5,138.1411363992229 71.5953689168091,135.78687245862238 71.84968602831941,134.58494051747402 74.24450549454195,134.82037145666254 76.70290423865663,135.5142704193495 76.91483516484732,135.05580192259367 79.60635792778339,135.65057151829387 87.7551020408282,135.5142704193495 90.57378335949033,136.08425577785965 91.54866562003735,135.78687245862238 91.93014128727373,133.4945173645756 92.23744113027351,133.11038860866392 94.13422291987808,133.30864876900887 94.5051020408282,133.1723449448691 95.85086342220893,133.2590837604148 98.5,132.3421273175045 98.34105180529878,131.85886360076984 95.55416012555361,132.68908465364075 94.31436420715181,132.71386728118523 92.05729984299978,132.39169271413994 91.10361067496706,133.2590837604148 90.8598901098594,135.10536617092293 89.86381475668168,135.29123191535473 89.14324960752856,135.16732145182323 88.28492935636314,134.6592871809844 87.34183673467487,134.6840693916456 86.98155416012742,134.94428228718607 86.07025117735611,135.00623765328783 85.47684458398726,135.00623765328783 85.19073783355998,134.82037145666254 82.97605965461116,134.89471797071747 82.75353218213422,134.79558927481412 82.54160125588533,134.3247268236446 79.11891679750988,134.95667336304905 77.30690737831173,134.6345049650481 74.08555729989894,133.44495243458368 71.74372056516586,133.56886472020415 71.68014128733194,132.71386728118523 72.72919937211554,133.2838662673239 74.33987441135105,133.37060500032385" stroke="#4dd2ff" stroke-linecap="round" stroke-linejoin="round" stroke-width="0.5"><title>2023-04-04 6.0km</title></polyline><polyline fill="none" points="104.64607657957822,145.88711611693725 121.92744516767561,146.9322701675119 127.73756046872586,129.68714353023097 113.43573818914592,123.06775403907523 103.15630342531949,134.73876498127356 102.70937147922814,144.84196140361018 108.66846409626305,147.97742355475202 124.16210489813238,145.19034638197627 126.9926738915965,131.60327762854286 115.372443289496,122.54516952473205 102.70937147922814,136.48069981997833 103.60323537141085,146.9322701675119 123.8641502680257,146.5838855577167 127.2906285226345,130.38391982403118 115.67039792053401,122.19677975727245 108.66846409626305,127.4226185400039 102.70937147922814,135.95811956189573 102.56039416324347,145.71292371093296 119.39483080524951,148.5 124.60903684515506,146.23550087457988 127.14165120664984,130.38391982403118 115.22346597351134,122.19677975727245 103.15630342531949,135.43553913745563 102.56039416324347,146.06130850501359 117.01119375880808,147.80323136947118 123.56619563698769,145.88711611693725 127.2906285226345,129.51294941047672 114.32960208132863,121.84838991542347 103.00732611026615,135.60973263089545 103.15630342531949,146.40969322540332 112.2439196659252,147.80323136947118 124.60903684515506,145.53873128595296 127.2906285226345,130.20972577808425 114.32960208132863,121.5 102.8583487952128,135.60973263089545 103.30528074130416,146.5838855577167 121.0335812754929,147.4548469443107 124.31108221411705,145.71292371093296 127.14165120664984,129.33875527279451 115.074488658458,121.84838991542347 103.4542580563575,134.73876498127356 102.26243953220546,145.71292371093296 123.56619563698769,146.40969322540332 126.54574194550514,129.86133763124235 115.372443289496,122.19677975727245 108.07255483418703,127.4226185400039 103.15630342531949,135.60973263089545 103.00732611026615,146.5838855577167 119.0968761742115,147.80323136947118 123.8641502680257,145.71292371093296 126.69471926055849,129.33875527279451 114.77653402741998,122.02258484519552 105.39096315670758,131.0806958230678 102.26243953220546,145.88711611693725 107.32766825705767,147.97742355475202 123.71517295297235,146.5838855577167 127.14165120664984,130.73230785992928 115.96835255157202,122.19677975727245 108.66846409626305,127.59681288083084 102.70937147922814,136.30650641873945 102.26243953220546,145.88711611693725 105.6889177877456,147.62903916602954" stroke="#4dd2ff" stroke-linecap="round" stroke-linejoin="round" stroke-width="0.5"><title>2023-03-30 5.2km</title></polyline><polyline fill="none" points="158.23615635174792,145.57071329683822 158.5,143.3817920731235 156.77873429498868,142.80884726480872 153.60004653321812,142.3681188809569 153.41158678452484,142.19182713582995 153.57491856679553,139.92939654539805 154.37901349464664,139.75310170493321 154.99464867380448,133.87647896647104 154.7182410423411,133.74425209438778 154.45439739414724,133.96463014456094 153.58748255000683,133.90586269872438 153.8010702652391,133.86178709802334 153.60004653321812,133.67079266661312 150.60981852019904,134.4200770068419 149.39111214515287,134.39069338337868 148.66240111680236,133.72956021194113 147.72010237321956,131.9224468174798 146.08678455097834,130.55607717535167 145.63448115397478,130.45323160446424 145.4083294555312,130.0712331028917 142.97091670543887,129.55700269137742 140.94811540248338,128.60199830347847 140.47068403905723,127.44129182041797 140.35760818980634,126.17772689736739 139.69171707768692,125.31085593953321 138.63634248485323,125.13454254005046 135.45765472308267,125.7222530010622 134.85458352719434,125.57532561900734 133.53536528616678,124.56152244545228 132.90716612373944,124.42928670317633 131.5,124.5909081488353 133.1710097719333,124.47336529794848 134.62843182875076,125.41370531918074 135.45765472308267,125.707560269846 138.58608655189164,125.16392812218692 139.64146114472533,125.32554871273169 140.31991624011425,126.20711225872219 140.45812005584594,127.48536945905653 140.94811540248338,128.6166907283914 142.7322010237258,129.51292571035447 145.3078175895498,130.0124640094 145.67217310372507,130.4973082870565 146.08678455097834,130.57076939352555 147.2049790599849,131.40822326109628 147.92112610518234,132.26036411778477" stroke="#4dd2ff" stroke-linecap="round" stroke-linejoin="round" stroke-width="0.5"><title>2023-03-28 5.0km</title></polyline><polyline fill="none" points="164.21137640450615,137.67169145087973 164.45786516851513,135.2328367881928 164.31566011236282,134.82266020112002 164.0786516853259,134.67854372179863 162.99789325840538,134.95569062147842 162.9220505617559,134.74505904458783 161.5,134.4124820085126 161.57584269659128,134.06881796236848 163.12113764043897,134.46791158781707 166.72366573032923,134.47899750016222 170.0797050561523,135.49889641867776 171.91889044939307,135.8092984671457 179.1713483146159,135.67626913038112 181.50351123599103,136.15295680554846 182.30933988757897,135.8314700068513 182.6885533707682,133.82492666524922 182.96348314604256,133.48126069215505 184.75526685389923,133.69189480935165 184.87851123593282,133.53669076406368 186.38588483142667,133.59212080662837 188.5,132.82718362952437 188.38623595505487,132.32830854912027 186.86938202247256,132.91587228407298 185.71278089884436,133.10433542571263 184.47085674159462,133.08216330903088 183.0298455056036,132.8160975424471 182.66959269659128,132.91587228407298 181.92064606735948,133.53669076406368 181.73103932582308,134.05773200661497 181.77844101120718,134.58985655908327 181.35182584263384,134.6120283568016 181.0484550561523,134.95569062147842 181.03897471912205,135.2771801068593 180.74508426961256,135.42129576290608 180.0625,135.17740761347522 179.80653089884436,134.5565988537346 179.3135533707682,134.32379462063545 178.63096910109743,134.46791158781707 178.18539325840538,135.0887208729764 177.41748595505487,135.2106651218346 176.9245084269205,135.2106651218346 176.6590589887346,135.03329162205046 174.49754213483538,135.06654917612468 174.2984550561523,134.5565988537346 172.26966292131692,134.8780895634627" stroke="#4dd2ff" stroke-linecap="round" stroke-linejoin="round" stroke-width="0.5"><title>2023-03-26 5.6km</title></polyline><polyline fill="none" points="38.5,174.83452427935117 37.73162055335706,174.8470035949067 35.757312253001146,174.198077435889 35.490513833996374,174.3977474035346 34.47667984192958,174.37278867603163 32.214229249046184,174.75964835836203 31.179051383398473,174.75964835836203 30.602766798459925,174.3353505749037 29.813043478294276,172.65062372710236 28.3936758893542,171.50249979241926 28.009486166003626,171.40266240036726 27.817391304357443,171.05323086282442 25.78972332016565,170.6663590244425 24.05019762844313,169.80525263519667 23.623320158047136,168.83182045112335 23.527272727224045,167.78349988345872 23.025691699585877,167.04717391396116 22.001185770786833,166.87245182265906 19.397233201540075,167.346696896886 18.799604743078817,167.23437586741784 16.803952569141984,165.74923219800257 16.932015810278244,165.16265769769234 16.163636363635305,163.46531930426863 15.950197628408205,163.3405140465038 15.939525691675954,162.82881110863673 15.5980237153708,162.42943166321493 15.523320158128627,161.94268613539316 15.363241106737405,161.71803367571556 14.77628458495019,161.51834224115737 14.424110671912786,160.95670826850255 14.317391304357443,160.7320539305365 14.71225296438206,160.53236082632066 12.631225296470802,157.36218750022817 11.5,155.1280377779549 12.503162055334542,157.16248868918774 15.256521739123855,161.45593859849032 15.171146245033015,161.65563013874635 15.907509881420992,162.75392756566725 15.896837944630533,163.40291669190628 16.184980237158015,163.55268290616368 16.942687747010496,165.23753971124097 16.76126482215477,165.69931107752927 17.124110671924427,165.8490743755683 17.40158102766145,166.26092246470216 18.778260869614314,167.19693550052034 19.279841897194274,167.30925656558975 21.990513833996374,166.87245182265906 22.993675889330916,167.09709446394118 23.495256916969083,167.69613941557327 23.569960474269465,168.70702087211976 24.039525691710878,169.80525263519667 25.533596837951336,170.5914804575441 27.806719367625192,171.06571057840483 28.09486166003626,171.4775404523316 28.34031620551832,171.4775404523316 29.813043478294276,172.65062372710236 30.613438735192176,174.21055681878352 31.189723320130724,174.77212768181926 32.01146245060954,174.8470035949067 33.996442687755916,174.36030931032292 34.5407114624395,174.6722930570977 34.850197628489695,174.3977474035346 35.47984189726412,174.37278867603163 35.63992094859714,174.1606392793401 37.51818181818817,174.8719622220524 38.20118577074027,174.80956564432563" stroke="#4dd2ff" stroke-linecap="round" stroke-linejoin="round" stroke-width="0.5"><title>2023-03-18 7.0km</title></polyline><polyline fill="none" points="41.5,165.97711123689805 43.26145868183812,165.92429646325763 46.65791234525386,166.91720953320328 48.10321177652804,167.17071767090965 55.16711274674162,167.07565219468233 57.38022750086384,167.58266702196124 58.229340916732326,167.19184331998986 58.536467045836616,165.36445814526815 58.78036132489797,165.03700408920122 61.55352960858727,165.13207150643575 62.85429909673985,164.8785581926859 64.16410170629388,164.36096651169646 64.02860488463193,163.89618802191399 65.75393108068965,162.91380818530888 68.3735362997977,162.41733297803876 68.5,162.50183957065747 66.84693877556128,162.59690940181463 65.7268317163107,162.8926816310268 63.38725326198619,164.1919564021082 62.2671462027356,164.51941322961648 60.876045500161126,164.63560732961923 58.87972566077951,164.32927713794925 58.563566410157364,164.4032189944046 57.81381733022863,165.11094542153296 57.65122114418773,165.62853321467992 57.77768484444823,165.92429646325763 57.68735362996813,166.53694611981336 57.434426229505334,166.76932948896865 56.56724657077575,166.84326953845448 55.46520575444447,165.8186668321723 54.679324188735336,165.90317054597108 54.25476748077199,165.5651552617128 53.90247574442765,165.50177726850234 53.5682502509444,165.61797022529936 53.16175978590036,166.10386657959316 52.92689862829866,166.12499245441722 52.484275677474216,166.49469454003702 51.75259284040658,166.53694611981336 51.59902977582533,166.01936303566617 49.02459016395733,166.29399929198553" stroke="#4dd2ff" stroke-linecap="round" stroke-linejoin="round" stroke-width="0.5"><title>2023-03-14 5.6km</title></polyline><polyline fill="none" points="96.14631336409366,170.06227321514598 95.23387096775696,169.941026453831 93.50230414746329,169.37116495756345 92.25806451612152,169.71065725394874 91.99884792632656,169.49241232172062 89.8525345622329,170.00164985052834 89.18894009216456,169.9652758163429 88.50460829492658,169.39541444063798 87.56105990783544,167.576688970119 86.48271889402531,166.37631434855575 85.75691244238988,166.0974376366139 83.42396313365316,165.78218488424318 82.16935483872658,165.10317601048882 81.67165898618987,164.03615393724613 81.51612903224304,162.8842439558066 81.10138248850126,162.38710028147761 80.2822580645443,162.22946890997264 77.35829493089113,162.66598602294107 75.93778801843291,161.73232239489153 73.99884792621015,161.7929501342005 73.83294930873672,160.7986511593408 73.80184331798228,161.81720122088882 72.17396313365316,161.92633104764536 71.5,159.93772678485402 72.04953917051898,161.73232239489153 72.31912442395696,161.9748331595183 75.55414746538736,161.70807129020977 76.0,161.81720122088882 76.9850230414304,162.53260597040935 77.56566820282023,162.6781114745536 80.37557603686582,162.2779708935268 81.14285714289872,162.48410409459757 81.54723502305569,163.00549818336003 81.66129032260505,164.03615393724613 82.08640552993165,165.05467522265099 83.4550691244076,165.83068536414066 85.7050691244076,166.2671887595061 86.01612903230125,166.69156546660815 86.36866359447595,166.76431560142373 87.71658986172406,167.83131227349804 88.53571428573923,169.383289699741 89.03341013827594,169.9652758163429 90.32949308759999,170.05014854476758 90.91013824887341,169.75915607137722 92.43433179729618,169.48028759106091 93.27419354842277,169.56516067862685 93.38824884791393,169.39541444063798 95.46198156685568,170.06227321514598 98.5,169.941026453831" stroke="#4dd2ff" stroke-linecap="round" stroke-linejoin="round" stroke-width="0.5"><title>2023-03-12 6.0km</title></polyline><polyline fill="none" points="127.3376681614318,169.8422628702392 124.09282511210768,169.03524634345376 123.95964125561295,169.24761958548333 123.19686098652892,168.99277165462263 122.71255605382612,169.459992490476 122.61569506727392,169.20514496405667 119.92780269059585,169.75731399131473 119.05605381168425,169.6582068977732 118.402242152486,168.9786134219903 117.05829596414696,166.6141675637482 116.08968609868316,165.62307004812465 114.98789237672463,165.22662898656563 112.38475336326519,164.87266276065202 110.93183856498217,164.03729875516728 110.47174887894653,162.89043459239474 110.39910313906148,161.65860658008023 109.87847533635795,160.9648133971932 108.67982062784722,160.75242700980743 105.56816143501783,161.26215377321932 105.15650224220008,161.19135850552993 104.79327354260022,160.75242700980743 103.739910313976,160.15774333167064 103.26771300449036,160.07278830478026 101.5,160.228539146221 103.61883408069843,160.12942499534984 105.12017937225755,161.10640413482906 108.75246636773227,160.70994969189633 109.79372197308112,160.93649523169734 110.3869955156697,161.78603759000544 110.47174887894653,162.81964018613508 110.90762331837323,163.9240286580025 112.49372197309276,164.80186940304702 115.15739910316188,165.3398979811609 115.47219730936922,165.75049728273007 115.89596412563697,165.80713157029822 117.50627802690724,167.1380304282502 118.43856502242852,168.99277165462263 119.14080717490287,169.62989057184313 120.13363228703383,169.72899768636853 121.24753363232594,169.36088517673488 121.44125560537213,169.60157423988858 122.21614349778974,169.21930317264923 124.0322869955562,169.0635627951997 126.46591928246198,169.92721169521974 128.5,169.77147214153956" stroke="#4dd2ff" stroke-linecap="round" stroke-linejoin="round" stroke-width="0.5"><title>2023-03-05 5.0km</title></polyline><polyline fill="none" points="156.29131886479445,164.90349162828352 156.44156928214943,165.3953352291137 157.98914858099306,165.09671607370547 158.33472454093862,166.15066363882215 158.27462437393842,166.6776349147258 154.26293823041487,167.78426915498858 151.66360601008637,168.99628867718275 149.15442404005444,170.71769251630758 147.39649415691383,167.95992470589408 146.28464106854517,167.028948170293 135.82721202005632,164.6751351760031 135.70701168617234,164.37651472634752 136.29298831394408,162.74287570998422 136.1277128548245,162.40911952660827 136.32303839741508,161.5483768020349 131.5,159.1242202699068 136.30801335565047,161.49567812307214 135.1961602671654,164.64000338624464 134.79048414027784,166.69520059518982 135.42153589322697,165.16697945266787 135.82721202005632,164.92105749629263 144.78213689487893,166.712766273733 146.9307178631425,167.69644130986126 148.82387312193168,170.87577973007865 152.76043405680684,168.4693247536925 154.48831385647645,167.73157245348557 158.5,166.6249378623179 157.98914858099306,164.32381694426294" stroke="#4dd2ff" stroke-linecap="round" stroke-linejoin="round" stroke-width="0.5"><title>2023-02-22 5.0km</title></polyline><polyline fill="none" points="161.5,168.12874665253912 161.66954474098748,165.10536588393006 161.90266875980888,164.6840689263845 164.31868131872034,164.80797995354078 167.0843799058348,165.83643641995877 168.02747252746485,165.89839134037175 168.45133437996265,166.18338355235028 168.8328100470826,166.05947398018907 170.64481946628075,166.33207486596802 171.1004709576373,166.2577292327478 171.76805337524274,166.55511148242658 172.3614599686116,166.4559841497612 173.63304552593036,166.61706602275808 174.48076923075132,166.13381973920332 174.5125588697265,166.3816385951941 174.85164835164323,166.53032965715101 175.36028257460566,166.56750239311077 175.80533751961775,166.3940295242428 176.67425431706943,166.54272057043272 177.29945054941345,165.9479552531193 177.6597331240191,165.88600035889976 179.50353218207601,166.3072929934351 179.64128728414653,166.46837507092278 179.7154631083249,166.02230108295043 180.57378335949033,166.0718649433329 181.52747252746485,165.78687245999754 181.84536891675089,164.57254888987518 181.91954474098748,163.46973392309883 182.34340659336885,163.06082236400107 183.3182888540323,163.25908269214415 186.1157770800055,163.2466914314573 188.5,162.31734314450296 188.23508634214522,161.87125334746815 187.06946624803822,162.32973450348072 185.5117739403504,162.66430070088973 184.49450549448375,162.68908334416483 182.1208791208919,162.37929992639693 181.09301412873901,163.18473510839976 180.89167974877637,163.80429686416028 180.9764521192992,164.2875527585711 180.2558869701461,164.53537552077614 180.07574568293057,165.10536588393006 179.73665620095562,165.25405856600264 179.1114599686116,165.15493013225932 178.38029827317223,164.6964600350184 177.3842229199363,164.6840689263845 176.97095761384116,164.94428193205385 175.6040031397133,165.03101947213872 175.31789638928603,164.83276214326906 172.1071428571595,164.86993541799893 171.50313971744617,164.78319775861746 171.20643642073264,164.51059326813993 169.065934065904,164.9690640928893 167.37048665620387,164.646895592683 164.212715855625,163.4821251601752 162.60204081633128,163.2466914314573 165.6538461538148,163.22190890619822" stroke="#4dd2ff" stroke-linecap="round" stroke-linejoin="round" stroke-width="0.5"><title>2023-02-10 5.9km</title></polyline><polyline fill="none" points="17.725358228373807,200.25753993881517 17.760529743798543,196.54240058214054 18.979808944801334,196.5561097792379 21.008033000398427,197.07705819400144 22.12179765518522,196.748038386213 22.57902735559037,195.36340420709166 22.66109422489535,194.14326875731058 23.0128093790845,193.75940354353224 25.041033434623387,194.04730256048788 25.427920104179066,193.85536995358416 27.33890577504644,193.88278891483787 29.285062961338554,193.2658608835336 32.6966999565484,191.5521564968658 36.60073816758813,191.01747608963342 38.5,190.3045654479647 38.39448545372579,190.38682456834067 38.206904038146604,190.05778777354863 38.24207555357134,189.74246006119938 37.608988276158925,190.0989174186252 35.97937472863123,190.5102131509775 35.275944420311134,190.53763282003638 35.11181068170117,190.3319851605629 32.931176726007834,190.72957034109277 31.48914459394291,191.2642519363726 29.109205384214874,192.6215106928139 27.362353452015668,193.16989403692423 25.228614850144368,193.32069904965465 23.5286582717672,193.00537927738333 22.684541901864577,193.03279841842595 21.723187147115823,193.85536995358416 21.500434216228314,194.48600459452427 21.570777247019578,195.11663616649457 21.054928354278672,195.11663616649457 20.679765523178503,195.47307874100807 20.597698653873522,196.00774076450034 20.21081198437605,196.1859609488165 19.437038645264693,195.8980666831194 19.155666521866806,195.15776420589827 18.44051237514941,194.78761138136906 17.631567520613316,195.0206706904719 17.186061658663675,195.71984610287473 16.224706904031336,195.8980666831194 15.509552757197525,195.9117759483488 15.263352149398997,195.70613681730174 11.675857577065472,195.67871824183385 11.5,195.52791597311443 11.757924446312245,195.22631090920186 13.680633955693338,195.08921746628766 13.903386886639055,195.78839250885358 14.853017802815884,195.71984610287473 15.63851498044096,195.2126015714457 16.365392965672072,195.26743891381193 16.705384281347506,194.8561582804832 17.1039947894169,194.8424489035824 17.748805905284826,195.5416252775467 18.616369952156674,195.50049735994253 19.132218844955787,195.92548521213757 20.199088145862333,196.21337941696402 21.383195831498597,196.04886852107302 21.688015631749295,195.04808940512885 21.723187147115823,195.9529037353932 21.312852800707333,196.28192556192516 19.812201476364862,196.07628701823705 19.448762483720202,195.9117759483488 19.038428137195297,195.06179876030365 16.787451150652487,194.40374807621993 16.224706904031336,194.54084224431426 14.829570125904866,195.67871824183385 14.12613981764298,195.6650089519535 13.76270082499832,195.1303455143934 14.090968302218243,194.92470514337765 14.665436387353111,194.92470514337765 15.146113764611073,195.34969488385832 16.318497611791827,195.26743891381193 16.84607034298824,194.8972864025709 17.338471558818128,195.29485757630027 17.772253582254052,195.00696133096062 18.5343030829099,194.8561582804832" stroke="#4dd2ff" stroke-linecap="round" stroke-linejoin="round" stroke-width="0.5"><title>2023-02-05 7.1km</title></polyline><polyline fill="none" points="41.82088285230566,199.21691905512853 42.0653650254535,197.01026523227483 42.24108658745536,196.94772764408845 43.509337860770756,197.15320811709535 43.9601018675603,197.08173670493125 45.151952461805195,197.59096919676085 45.66383701187442,197.64457243831566 45.90831918505137,196.58143512616516 45.724957555154106,196.2151410194565 45.197792869235855,196.22407504096918 44.9456706281926,195.97392208154633 43.52461799659068,196.09899865386978 42.67657045839587,195.95605398465705 42.27928692699061,195.652295759166 41.553480475384276,195.51828442998521 41.5,196.06326250925486 41.553480475384276,195.54508671282383 41.813242784381146,195.52721852519608 41.950764006818645,195.63442759423924 41.935483870940516,196.0096582639526 42.080645161273424,196.2419430811351 43.86842105264077,196.09899865386978 45.87011884548701,196.9119918586366 47.1918505942449,197.22467946875986 48.00169779287535,197.0906706347596 48.521222410869086,197.2961507599539 49.06366723260726,197.2514812100344 49.69779286926496,197.37655589021597 51.233446519530844,197.13534026969864 52.41001697789761,197.28721685185155 53.07470288625336,197.22467946875986 53.27334465197055,197.03706704161596 54.02971137521672,197.0191991696629 54.297113752109,197.2514812100344 54.931239388824906,197.45696094397135 55.664685908326646,197.40335758332367 55.87860780983465,197.24254729722452 55.870967741910135,196.37595326194423 56.01612903227215,195.97392208154633 56.61205432933639,195.42000932007795 58.75891341257375,195.61655942551442 59.89728353137616,195.46467983875482 60.81409168080427,195.15198571179644 63.16723259759601,193.97267172898137 65.74957555177389,193.68677494975418 68.0797962648503,192.632522210537 68.47707979622646,191.90883262654825 68.27843803050928,190.78308094487147 68.5,191.86416022673802 68.41595925294678,192.14112872449186 68.30135823428282,192.40916188957635 67.35398981321487,192.98096313144197 67.20118845498655,193.23112495720852 66.59762308996869,193.26686230038467 65.91765704582212,193.62423490027868 64.74108658742625,193.86546055019426 64.0764006790996,193.81185490975622 62.93039049234358,194.0173430132927 60.798811544984346,195.12518330416788 59.81324278435204,195.45574573692284 58.34634974534856,195.58975716532586 56.69609507636051,195.36640466647077 55.95500848896336,195.93818588398426 55.748726655350765,195.75950466939685 55.977928692649584,196.02752634949138 55.855687606090214,196.331283225285 55.947368421038846,196.67970888447599 55.80984719863045,196.83158628601814 55.86332767404383,197.13534026969864 55.695246179937385,197.34975418866088 54.984719864150975,197.45696094397135 54.12903225806076,197.13534026969864 54.06027164685656,196.99239735467563 53.303904923581285,197.00133129394817 52.98302207130473,197.19787771895062 52.34889643461793,197.2514812100344 51.9745331069571,197.2514812100344 51.77589134123991,197.11747241857665 50.15619694397901,197.1621420393567 49.28522920203977,197.04600097615912 48.33786078097182,197.18894380047277 47.917657045822125,197.05493490977824 47.32173174872878,197.21574555311963 46.19100169779267,196.99239735467563 43.80730050933198,196.13473478337983 43.28013582344283,196.05432847073826 42.07300509334891,196.23300906152872 41.9202037351497,195.92031777954253 42.034804753842764,195.5986912530061 42.66893039047136,195.99179017464485 43.36417657043785,196.13473478337983 44.90747028859914,195.97392208154633 45.13667232598527,196.22407504096918 45.48811544990167,196.25087709978834" stroke="#4dd2ff" stroke-linecap="round" stroke-linejoin="round" stroke-width="0.5"><title>2022-12-15 10.0km</title></polyline><polyline fill="none" points="71.5,198.61970566848322 71.73842874544789,195.37982792990078 73.70341047504917,195.51442455674987 73.9582825821999,195.6874770698123 75.62728380024782,196.07203703012055 75.89037758830818,194.95680866199837 75.8246041412931,194.61070052367722 75.10931790500763,194.56262984468776 74.86266747870832,194.24536272544356 73.97472594396095,194.28381940491818 73.62941534712445,194.12037840463017 73.07034104751074,194.32227606815286 72.48660170525545,194.28381940491818 71.68909866016475,193.8223381767457 71.60688185141771,194.26459106719994 71.80420219246298,194.57224398251856 73.6458587089437,194.29343357226753 73.92539585873601,194.62992878819932 75.98081607796485,195.34137171418115 77.37028014616226,195.6297929354114 78.11845310599892,195.46635435576172 78.77618757612072,195.67786304995388 80.3629719853925,195.6970910886448 81.23447015834972,195.64902098428138 81.59622411691817,195.48558243921434 82.90347137636854,195.67786304995388 83.55298416566802,195.6297929354114 83.857186358131,195.399056031667 84.6218026796414,195.399056031667 84.81912302071578,195.60095085445937 85.50152253347915,195.74516116758605 85.690621193673,195.947055221528 85.88794153471827,195.71631912327575 86.29080389768933,195.8028452287399 86.56211936660111,195.6970910886448 86.74299634594354,194.28381940491818 87.47472594399005,193.6396678765086 89.16839220462134,193.85118082218105 90.56607795372838,193.78388130194799 91.77466504264157,193.4666114639258 94.15895249697496,192.2167498097624 97.34074299639906,191.78410138576146 98.29445797810331,191.38029433152406 98.40956151037244,191.81294467812404 98.5,191.78410138576146 97.61205846531084,192.13022028979321 94.88246041414095,192.4571091552716 91.70066991474596,193.89925187750487 90.50852618759382,194.22613437955442 89.11084043851588,194.3126619038885 87.65560292327427,194.1107642190036 87.40895249694586,194.3991893458151 87.35962241172092,195.22600296940072 87.07186358098988,196.22586055866122 86.64433617540635,196.38929777240992 86.27436053592828,196.48543717261055 84.45736906214734,196.04319508955814 82.78014616324799,196.07203703012055" stroke="#4dd2ff" stroke-linecap="round" stroke-linejoin="round" stroke-width="0.5"><title>2022-12-12 7.2km</title></polyline><polyline fill="none" points="101.9368258859613,198.02224863461743 102.15523882897105,194.96963480499835 102.08243451471208,194.68990916513576 101.51040061633103,194.61693714713329 101.5,194.25207636241248 104.44337442220422,194.30072453397588 107.70916795072844,195.29800751378934 110.04930662561674,195.7601601076094 118.08898305083858,195.6385411840747 118.99383667181246,195.71151255363657 120.5227272727061,196.21014900597947 121.00115562404972,196.05204499916726 121.63559322035871,195.73583633319504 121.93721109401667,194.62909915336786 121.9892141756718,193.60748614617478 122.20762711868156,193.26694645967655 122.73805855162209,193.1818113804111 124.24614791985368,193.4858649453745 124.5685670261737,193.31559504804318 126.08705701079452,193.3642436158625 127.17912172572687,193.0723519001258 128.5,192.43991730692505 128.31278890604153,191.97775136538985 125.61902927584015,192.7926216437845 124.38135593221523,192.82910823755083 122.0724191062618,192.54937738931767 121.16756548540434,193.35208147585945 120.99075500766048,193.83856607326743 121.13636363635305,194.3128865736362 120.96995377499843,194.60477513964724 121.03235747298459,194.95747283482342 120.76194144837791,195.2493597642533 120.27311248076148,195.2007119941627 119.63867488439428,195.39530295107397 119.34745762712555,195.10341639216495 118.75462249614066,195.00612070783973 118.61941448383732,194.8358530621481 118.56741140218219,194.94531086332427 117.61055469955318,194.84801504520874 116.20647149457363,195.11557834690757 115.7176425269572,195.12774030038418 115.39522342057899,194.90882494115795 113.2526964560966,194.98179677388543 112.00462249614066,194.82369107779232 110.73574730358087,195.00612070783973" stroke="#4dd2ff" stroke-linecap="round" stroke-linejoin="round" stroke-width="0.5"><title>2022-12-06 5.0km</title></polyline><polyline fill="none" points="131.5,198.29425861632626 131.73098075162852,195.7090699516193 131.8547204400238,195.8344725856732 133.5870760770631,195.85376528331108 135.85563703026855,196.6061773068359 135.93813015587511,196.7701637187056 135.81439046750893,196.7701637187056 135.92163153071306,196.59653103810706 135.68240146661992,196.6061773068359 135.47616865264717,196.3939591595481 135.65765352893504,196.45183688504767 135.86388634284958,195.06276133350184 135.73189734190237,195.1495791754278 135.74839596706443,195.42932499263406 136.05362053166027,195.68013085773418 137.29926672781585,195.98881405236898 138.0582034830877,195.84411893499055 138.7346471127821,196.05633836190827 139.790559120127,196.08527733641677 142.0756186984945,195.88270432208083 142.71081576540018,196.05633836190827 143.64298808434978,195.95987504727964 143.8739688359492,195.77659446830512 144.69065077914274,195.77659446830512 144.7731439047202,195.94058237207355 145.77956003672443,196.22997207112348 146.56324472965207,196.09492365919868 146.75297891846276,194.63831736089924 147.51191567373462,194.00164769739058 149.6897341888398,194.2235179332638 150.74564619618468,194.1270526796725 151.91704857931472,193.77013035392156 154.1278643446567,192.59324143517006 154.87855178737664,192.4003073762433 156.8583868011192,192.23631310518977 157.93904674611986,191.94691073076683 158.35976168652996,191.70574138368102 158.49175068744808,192.17843270378216 158.5,192.07231853912526 156.81714023835957,192.6318281979693 154.49908340975526,192.9405217124222 153.29468377641751,193.54825901480217 151.05912007339066,194.51291308178043 149.368010999111,194.59008496625756 149.18652612282312,194.69619620079175 147.66040329975658,194.51291308178043 143.64298808434978,196.44219060002797 139.8235563703056,196.51936085173656" stroke="#4dd2ff" stroke-linecap="round" stroke-linejoin="round" stroke-width="0.5"><title>2022-11-27 5.6km</title></polyline><polyline fill="none" points="161.5,196.59935555000993 162.57120085012866,196.7559318855856 162.86769394262228,196.66645972222614 163.35547290113755,196.91250798923284 163.68065887351986,196.8565879788148 165.39266737509752,197.3822349088441 165.6795961742173,196.05133654937526 165.52656748139998,195.8276545082408 165.58395324117737,196.28620218321885 166.0621679064934,196.5881715171854 167.57332624861738,196.8789559865545 168.29064824653324,196.66645972222614 169.04622741765343,196.93487598508364 171.81030818278668,196.91250798923284 172.3459086078219,196.7335638518416 173.80924548354233,196.91250798923284 174.593517534493,196.8677719832849 174.94739638682222,196.59935555000993 175.89426142396405,196.5881715171854 175.9994686503196,196.80066793884907 177.09936238039518,197.13618773507187 177.84537725819973,197.0355319080045 178.1609989372664,196.71119581333915 178.26620616362197,196.16317739248188 178.14187035069335,195.71581331024208 178.29489904351067,195.2572631612129 179.17481402761769,194.54147358713817 181.38416578108445,194.8210794663537 182.88575982995098,194.70923720340215 184.44473963865312,194.18357698266482 186.68278427200858,192.96448258063901 188.5,192.6177650911486 186.82624867156846,192.89737605854316 184.39691817207495,194.20594555592834 182.84750265668845,194.69805297059793 181.41285866091494,194.78752679988247 179.42348565353313,194.4855523225633 179.06960680126213,194.5526578365243 178.26620616362197,195.30199984865612 178.12274176406208,195.71581331024208 178.2470775770489,196.16317739248188 178.0749202974839,196.46514707783354 178.14187035069335,196.81185194922728 177.88363443140406,197.04671589351346 176.8124335812754,197.09145182373322 175.68384697131114,196.554619411545 174.90913921355968,196.56580344793474 174.5361317746574,196.84540397319506 173.63708820403554,196.90132398950664 172.91976620611968,196.72237983319064 169.89744952175533,196.6776437467779" stroke="#4dd2ff" stroke-linecap="round" stroke-linejoin="round" stroke-width="0.5"><title>2022-11-23 5.3km</title></polyline><polyline fill="none" points="11.5,225.64989600601984 13.79856115108123,225.92751211590803 16.3669064748683,226.63416838923877 16.70143884891877,225.14513778725086 16.62589928059606,224.79180576328508 16.291366906487383,224.6277583963456 15.75179856113391,224.67823453324672 15.27697841724148,224.28704391336942 14.111510791350156,224.32490112616506 13.852517985622399,224.4637108038005 13.895683453243691,224.58990127961442 17.564748201402836,225.8391797873992 18.708633093570825,225.97798770284135 19.312949640268926,225.63727707659564 20.068345323728863,225.7634663108838 20.985611510812305,225.59942028028308 21.16906474821735,225.86441760222078 21.687050359731074,225.9401310146568 24.665467625891324,225.86441760222078 25.410071942489594,226.10417657672951 26.67266187054338,226.0410821564583 27.08273381291656,225.75084739346494 28.140287769783754,225.73822847470728 28.388489208591636,226.0158443790133 29.65107913670363,226.33131621326174 30.741007194272242,226.05370104319445 30.719424460432492,225.54894453316228 30.881294964055996,225.29656547717605 30.762589928111993,224.66561550099868 30.967625899298582,224.18609128703247 31.906474820163567,223.44156302940246 35.1762589928112,223.7570416720264 36.96762589929858,223.39108636909805 38.23021582735237,222.8484609222287 38.5,223.34060968748963 37.45323741005268,223.80751817743294 35.57553956832271,224.28704391336942 34.24820143886609,224.21132945166028 34.032374100759625,224.35013926137617 32.3381294964347,224.04728128637362 32.00359712226782,224.13561494184978 31.733812949620187,224.48894890960946 31.604316546814516,225.97798770284135 31.280575539567508,226.8991634124468 30.54676258994732,227.15153907776403 27.654676259029657,226.59631190929213 19.517985611513723,226.77297537958657 16.485611510812305,226.19250870901305" stroke="#4dd2ff" stroke-linecap="round" stroke-linejoin="round" stroke-width="0.5"><title>2022-11-18 5.5km</title></polyline><polyline fill="none" points="41.5,227.95875928016176 41.79705304518575,224.85737169697677 42.49724950885866,225.03105156960373 43.176227897871286,224.93180595957529 45.022200392966624,225.14270278041658 46.82573673868319,225.76298534946545 47.1121807465679,224.43557664969558 47.0591355599463,223.85250452729815 46.21041257365141,223.81528705937671 45.764833005843684,223.41829999967013 44.640275049139746,223.46792345563154 44.41748526523588,223.7532579198887 44.51296660123626,223.85250452729815 47.398624754394405,224.82015454793145 49.24459724948974,225.20473118498194 49.966011787822936,224.9566173699568 50.80412573675858,225.24194821198034 53.88074656185927,225.22954253762873 54.474852652230766,225.0186458729222 56.108644400781486,225.24194821198034 56.936149312357884,225.19232550671586 57.48781925346702,224.93180595957529 58.34715127694653,224.94421166543907 58.601768172869924,225.19232550671586 59.90667976421537,225.4652501257733 60.93575638503535,225.22954253762873 61.1055009822594,224.42317089002609 60.967583497054875,223.9145336143265 61.14793713163817,223.45551759363298 62.07092337909853,222.61191589706868 65.59312377206516,222.8848465218398 67.00412573671201,222.58710399059055 68.38330058928113,222.04124071983097 68.5,222.53748016190366 65.91139489191119,223.43070586561953 63.3546168958419,223.4803293163277 62.62259332020767,223.21980596583307 62.17701375245815,223.35627065017616 61.95422396855429,223.65401122844196 61.848133595252875,224.9566173699568 61.561689587368164,225.97388067553402 60.69174852652941,226.2716146078892 58.718467583472375,225.775390967392 49.97662082512397,225.8870414695848" stroke="#4dd2ff" stroke-linecap="round" stroke-linejoin="round" stroke-width="0.5"><title>2022-11-06 5.5km</title></polyline><polyline fill="none" points="71.5,233.31434389376955 72.12257281545317,229.9619087426545 72.56492718443042,220.78549743857002 72.94174757279688,219.0804345132492 73.04004854371306,219.25285733642522 75.03883495141054,219.19538308023766 80.65837378642755,220.45981250210025 81.0515776698594,217.77767898769525 80.90412621351425,218.5440069023898 81.51031553390203,218.984643985008 84.4265776699176,219.5785444433859 90.43932038830826,218.39074157885625 90.83252427179832,218.39074157885625 90.9144417475909,219.46359611958906 92.25788834947161,219.27201541773684 93.61771844659233,219.3486477227998 94.12560679606395,219.67433465748036 96.28822815534659,219.5977024902968 96.97633495146874,219.11875071037502 96.99271844665054,218.40989975140837 98.40169902914204,217.98841948750487 98.5,217.01134783015004 97.9757281554048,216.6856561062159 97.0910194175085,217.87347015435807 97.25485436891904,218.33326704913634 96.89441747573437,218.4865324213024 96.30461165052839,219.46359611958906 94.50242718443042,219.6934926942631 93.61771844659233,219.3486477227998 88.50606796116335,219.3486477227998 88.0964805824915,219.6551766187331 86.85133495146874,219.6551766187331 85.5570388349588,219.21454116767563 84.29550970869604,219.5785444433859 82.10012135922443,219.17622499080608 77.00485436891904,217.50946345145348 76.8410194174503,217.20293092356587 77.23422330094036,217.06882277947443 78.98725728149293,216.85808120950242 79.56067961163353,217.50946345145348 80.11771844653413,217.47114691387105 79.54429611645173,217.4519886420021 78.95449029124575,216.89639787684428 78.02063106792048,216.89639787684428 77.07038834947161,217.03050614862877 76.95570388343185,217.52862171718152 82.1820388349588,219.27201541773684 80.7894417475909,218.4673742568848 80.87135922326706,217.77767898769525" stroke="#4dd2ff" stroke-linecap="round" stroke-linejoin="round" stroke-width="0.5"><title>2022-11-02 5.0km</title></polyline><polyline fill="none" points="102.33140877593542,231.16727941273712 102.28983833716484,230.91209505889128 101.55196304846322,230.81488182262547 101.5,230.462483151794 101.77020785218338,228.63971415253036 101.77020785218338,226.96274113294203 101.9364896073821,226.61033064693038 101.8429561200901,225.3222003632036 102.07159353350289,222.6243712705982 102.28983833716484,221.60355455180252 102.466512701998,221.73723344780592 104.53464203228941,221.66431770563213 107.195150115469,222.49069340692222 107.45496535795974,220.7528670233296 107.31986143189715,221.15390621448023 107.50692840648117,221.44557020141656 109.63741339487024,221.93167520068528 112.95265588915208,221.23897495382698 114.07505773671437,221.2146696061609 114.70900692837313,221.53063872476923 115.05196304846322,221.32404363020032 116.45496535795974,221.3605016150541 116.88106235564919,220.97161584662535 117.51501154736616,221.28758563374868 118.31524249416543,221.00807394335425 118.91801385674626,221.27543296571093 119.18822170898784,221.98028558748047 119.9364896073821,222.21118464381289 120.98614318697946,221.99243818094692 121.16281755192904,221.08099010204023 121.0381062355591,220.61918698181398 121.23556581983576,220.13307642858854 121.87990762118716,219.48897677696368 122.51385681290412,219.3552952646205 124.34295612003189,219.6469638182607 125.54849884519354,219.6469638182607 126.88914549647598,219.3917538743117 128.30254041560693,218.83272058726288 128.5,219.2580722488492 127.35681293299422,219.79279781735386 125.82909930712776,220.18168757648527 124.24942263273988,220.27890981056407 122.30600461893482,220.06015966818813 122.01501154730795,220.40043748745666 121.63048498838907,222.63652379596897 120.80946882208809,222.9403365118851 117.8683602771489,222.442083236092 109.9699769053259,222.60006621604407 107.60046189371496,222.1018114644612 107.3094688221463,223.94898896698578" stroke="#4dd2ff" stroke-linecap="round" stroke-linejoin="round" stroke-width="0.5"><title>2022-10-28 6.2km</title></polyline><polyline fill="none" points="131.5,227.92132134532585 131.66901408456033,225.3273723036109 131.848591549322,224.8579848913796 132.01760563382413,225.03091731540917 133.30633802816737,224.90739418150042 134.32042253523832,225.01856500787835 136.4542253521504,225.74734891511616 136.88732394366525,225.64853102476627 137.13028169010067,224.32683370183076 137.03521126759006,223.88214712684567 136.71830985916313,223.733917892132 136.10563380282838,223.7833276579404 135.75704225350637,223.43745885819226 134.6267605634057,223.49922121899726 134.46830985916313,223.64745075166138 134.59507042251062,223.857442267421 137.83802816906245,224.96915576477477 138.89436619722983,225.15444031860534 143.36267605633475,224.49976691255142 143.40492957748938,225.11738343136676 144.88380281691207,225.01856500787835 145.85563380282838,225.25325862710451 148.33802816900425,224.94445113540132 148.45422535209218,225.17914490357362 149.67957746476168,225.48795177457941 150.6725352111971,225.38913366469205 150.88380281691207,225.2162017712035 150.86267605633475,224.69740455401188 151.03169014083687,224.4750621838175 150.90492957748938,223.86979469778453 151.10563380282838,223.41275390471856 152.0246478873305,222.63454519469815 154.61267605627654,222.91865373755718 155.6478873239248,222.86924360587727 156.852112676017,222.63454519469815 158.23591549292905,222.07867865467415 158.5,222.51101952559839 157.2746478872723,223.0421789753891 155.65845070424257,223.46216380647093 154.401408450678,223.41275390471856 154.17957746476168,223.52392615416466 152.5,223.23981908405403 152.14084507041844,223.3386390129599 151.91901408450212,223.67215565547667 151.85563380277017,224.7468139121047 151.5281690140837,225.96968886259128 150.651408450678,226.24143711243232 149.89084507036023,226.1673240161108 149.76408450701274,225.94498444491182 149.34154929581564,226.00674547937524 148.28521126764826,225.75970114552183 143.7746478873305,225.82146227797057" stroke="#4dd2ff" stroke-linecap="round" stroke-linejoin="round" stroke-width="0.5"><title>2022-10-20 5.2km</title></polyline><polyline fill="none" points="167.59795918362215,226.22425924085837 168.00204081623815,226.84711125817557 169.06734693865292,227.1477977551258 170.1693877549842,226.73972311565012 173.03469387744553,227.04040977158002 173.23673469386995,226.7182454802969 173.71428571420256,227.2337081009755 174.5591836734675,227.4484838067292 175.16530612239148,227.2337081009755 177.9571428570198,227.51291647410835 178.91224489791784,226.61085726962483 179.48163265292533,227.1263201629481 180.82244897959754,226.80415600797278 182.1265306121204,226.99745456234086 183.7612244897755,226.7612007486896 183.98163265292533,228.32906182479928 184.25714285706636,228.09280956063594 184.31224489794113,226.5249466601672 184.82653061219025,226.15982616449764 187.85714285704307,227.06188737282355 188.5,228.13576453822316 188.0591836734675,226.39608067787776 186.44285714277066,222.55154125203262 184.18367346923333,223.34622855469934 183.50408163259272,224.46308112777479 181.77755102037918,224.74229331102106 180.89591836731415,224.74229331102106 180.5469387754565,224.39864749246044 175.0367346938001,224.4201253731735 174.5959183672676,224.0979569240444 172.13469387753867,224.57047047448577 171.69387755100615,224.22682436501782 177.09387755102944,223.4750964728446 177.36938775505405,223.99056732743338 177.0204081631964,224.52751474254183 174.4306122448761,224.22682436501782 172.26326530601364,224.57047047448577 171.49183673469815,224.29125805487274 175.29387755086645,223.58248634211486 177.31428571417928,223.51805242734554 177.3510204080958,224.18386856048892 177.05714285711292,224.52751474254183 174.37551020400133,224.22682436501782 172.13469387753867,224.54899260964885 171.5102040816564,224.31273594692175 173.03469387744553,224.03352317291137 173.51224489789456,224.3342138367443 176.9836734692799,224.63490405520133 177.31428571417928,224.37716960943362 177.33265306113753,223.51805242734554 176.0836734692566,223.4106625240238 170.05918367335107,224.65638191089965 167.32244897948112,224.1623906547611 161.75714285706636,222.29380416145432 161.5,221.9501541984646 161.904081632616,221.69241634452192 163.8510204080958,221.67093817521527" stroke="#4dd2ff" stroke-linecap="round" stroke-linejoin="round" stroke-width="0.5"><title>2022-09-24 5.1km</title></polyline><polyline fill="none" points="36.04545454541221,259.8041914785863 37.11264822119847,259.1178895230405 38.339920948725194,254.50092834205134 33.37747035548091,251.50612339074723 29.26877470361069,256.37267371604685 29.26877470361069,259.4922361433273 31.45652173901908,260.42810165468836 35.992094861576334,260.4904926359304 37.16600790503435,259.7418004247593 38.5,254.25136184343137 33.80434782616794,251.31894757662667 29.375494071282446,256.4350651263376 29.482213438721374,260.0537556281779 32.41699604713358,260.1785376634216 33.32411067187786,260.80244744365336 32.36363636353053,261.73831087659346 12.727272727061063,262.861345036712 11.92687747022137,263.48525197961135 13.314229249022901,262.4246097841533 33.91106719360687,262.923735760618 37.05928853736259,262.17504663724685 24.893280632328242,261.73831087659346 25.90711462451145,246.88910263794241 25.320158102782443,246.7643177920836 23.13241106714122,261.98787420796 11.5,261.86309255548986 11.660079051274806,262.54939131764695 37.16600790503435,262.861345036712 35.19169960450381,261.73831087659346 33.00395256909542,262.2374374339124 24.839920948725194,261.55113830877235 25.693675889167935,246.51474802038865 23.66600790503435,261.55113830877235 21.905138339847326,262.2374374339124 13.047430829843506,261.86309255548986 12.940711462404579,262.54939131764695 38.44664031616412,263.1732985905255 31.296442687511444,262.923735760618 36.73913043481298,262.861345036712 36.73913043481298,262.05026502447436 33.590909090824425,261.8007017194177" stroke="#4dd2ff" stroke-linecap="round" stroke-linejoin="round" stroke-width="0.5"><title>2022-09-22 5.0km</title></polyline><polyline fill="none" points="53.84896467725048,257.0766429074574 54.91778319119476,256.9228202250815 55.707064555434044,257.44197125631035 56.64433617546456,257.3073766868911 58.666869671142194,257.63424903976556 59.73568818520289,257.1535541998164 59.702801461622585,256.8074531278544 59.933008526219055,256.7497695518832 60.3276492083678,257.42274346679915 62.235079171776306,257.1920098337723 62.925700365391094,257.46119904382795 64.37271619972307,256.7497695518832 64.38915956154233,257.3650600859837 64.65225334954448,257.6150212705543 64.81668696715496,256.5959465928754 65.14555420225952,256.3844398117071 68.02314250922063,257.1535541998164 68.5,258.0572594473924 67.64494518883293,255.23076212748128 66.64190012181643,253.09643910708837 65.19488428748446,253.6156010673585 64.75091352016898,253.30794971434807 62.925700365391094,253.03875435327063 60.705846528639086,254.78851707362628 57.51583434839267,254.84620127212838 57.10475030448288,253.98093637276907 54.292935444565956,254.38472717172408 53.30633373942692,254.61546436839853 54.45736906211823,255.13462198991328 59.193057247262914,255.0961659206514 59.933008526219055,254.78851707362628 61.28136419004295,254.78851707362628 62.11997563956538,255.0961659206514 63.83008526189951,254.90388545228052 64.14250913524302,254.09630526401452 63.58343483554199,253.59637287308578 62.629719853866845,253.5002318709885 61.18270401953487,254.28858658669924 60.22898903780151,253.59637287308578 58.929963459202554,253.96170821713167 57.30207064555725,253.92325189970143 57.26918392209336,254.88465739428648 55.937271620030515,254.65392053933465 53.898294762533624,254.98079766404408 52.862362971995026,254.65392053933465 52.15529841656098,254.9423415622441 50.98781973205041,254.90388545228052 44.246041412930936,252.86569998202322 44.64068209507968,252.25039421652036 43.55542021919973,251.94274055262213 42.91412911086809,252.4042208531464 41.5,252.15425250247063 41.76309378806036,252.3849925307295 44.22959805111168,252.67341715407383 46.465895249682944,252.28885088789684 47.17295980505878,252.94261305624968 48.06090133980615,252.78878687528777 48.57064555416582,252.98106958111748 48.24177831917768,255.86528575996635 47.78136419004295,255.86528575996635 48.8008526188205,256.3075281939091 48.19244823389454,256.3844398117071 48.04445797810331,256.98050374619197" stroke="#4dd2ff" stroke-linecap="round" stroke-linejoin="round" stroke-width="0.5"><title>2022-09-09 5.2km</title></polyline></svg>