<?xml version="1.0" encoding="utf-8" ?>
<svg baseProfile="full" height="300mm" version="1.1" viewBox="0,0,200,300" width="200mm" xmlns="http://www.w3.org/2000/svg" xmlns:ev="http://www.w3.org/2001/xml-events" xmlns:xlink="http://www.w3.org/1999/xlink"><defs /><rect fill="#222222" height="300" width="200" x="0" y="0" /><text fill="#FFFFFF" style="font-size:12px; font-family:Arial; font-weight:bold;" x="10" y="20">Over 5km Runs</text><text fill="#FFFFFF" style="font-size:4px; font-family:Arial" x="10" y="280">ATHLETE</text><text fill="#FFFFFF" style="font-size:9px; font-family:Arial" x="10" y="290">fengde</text><text fill="#FFFFFF" style="font-size:4px; font-family:Arial" x="120" y="280">STATISTICS</text><text fill="#FFFFFF" style="font-size:3px; font-family:Arial" x="120" y="285">Number: 40</text><text fill="#FFFFFF" style="font-size:3px; font-family:Arial" x="120" y="290">Weekly: 1.5</text><text fill="#FFFFFF" style="font-size:3px; font-family:Arial" x="141" y="285">Total: 244.3 km</text><text fill="#FFFFFF" style="font-size:3px; font-family:Arial" x="141" y="290">Avg: 6.1 km</text><text fill="#FFFFFF" style="font-size:3px; font-family:Arial" x="167" y="285">Min: 5.0 km</text><text fill="#FFFFFF" style="font-size:3px; font-family:Arial" x="167" y="290">Max: 10.0 km</text><polyline fill="none" points="15.348992774321232,57.088740186198265 15.45749878929928,57.21575418319844 15.192261863674503,57.25809215515619 15.505723684909754,57.58268282581412 15.975916416675318,57.6532459101727 15.831241730018519,58.34476215408358 16.446109148557298,58.5 17.20565125369467,58.27419943692803 18.146036717284005,56.94761338054377 18.67651056853356,56.87704992145882 19.08642218093155,56.312540900253225 19.050253509252798,54.39319229043031 19.556614912697114,53.54641203158826 21.59411675046431,54.91537076032546 22.32954640785465,54.44964411582623 23.89685551385628,54.74601580570743 25.632951754378155,52.14921280705312 26.705955680750776,51.40121122470009 27.622228696534876,50.04632971271349 28.659063951286953,49.29831629208638 28.851963533612434,48.64909368324152 29.53916829545051,48.2256859249901 29.153369130915962,46.7014068227727 29.406549832609016,45.37470522179501 31.914244402199984,43.10234510540613 32.50499937287532,42.0861217926431 32.625561611843295,37.188380977502675 32.384437134023756,36.70847735108691 32.432662029517815,36.03096339745389 32.95107965689385,34.56300464287051 34.47016386734322,32.64334179244179 34.8077381363255,31.71173070410441 34.614838554058224,31.5 33.831184001115616,31.627038462960627 33.71062176214764,31.895230374619132 33.8914651205414,32.43161257338943 33.324822597554885,33.01033830587403 33.40921616484411,33.631407018663594 32.963135880825575,33.89959488325985 32.408549581770785,34.98645594854315 31.624895028828178,35.847469440312125 31.72134481993271,36.39795055129798 30.76890313246986,37.146036609628936 30.21431683341507,38.71276923165715 30.19020438560983,38.98094683732779 30.913577819126658,39.22089476243127 30.660397117433604,40.519428955347394 32.42060580570251,40.505314521476976 32.661730283580255,41.62035017639573 32.143312656204216,42.83417581953108 29.828517668822315,45.02185682102572 29.502999623771757,45.642869379604235 29.273931369767524,46.89899954473367 29.63561808661325,48.09866333437094 28.96046954864869,48.60675296813133 28.58672660792945,49.39711075880041 27.622228696534876,50.07455655175727 26.886799039202742,51.274191669828724 25.717345321609173,52.092760004336014 25.174815246427897,53.108906783571 24.54789160407381,53.64520333985274 23.99330530501902,54.717789958944195 22.24515284068184,54.49198296916438 21.71467898937408,54.95770946521952 19.72540204715915,53.588751172690536 19.13464707642561,54.19561071268981 19.23109686758835,56.08673662036017 18.86941015080083,56.862937225188944 18.290711403999012,56.94761338054377 17.69995643326547,56.53834479652869 17.000695447495673,56.66535931956605" stroke="#4dd2ff" stroke-linecap="round" stroke-linejoin="round" stroke-width="0.5"><title>2023-06-15 6.6km</title></polyline><polyline fill="none" points="63.1819159577426,41.70439563605032 63.197239911824,41.90148336359562 62.83712699034368,42.34940831192944 62.89076082970132,42.922748790129845 63.32749352173414,44.64274694559572 63.47307108572568,46.28208768815966 63.840845984290354,46.60457721554121 63.986423548310995,47.76015460976487 64.38484635506757,48.906758463563165 64.16264902052353,49.58754716107069 64.37718437798321,50.09813509498781 64.30056460745982,50.5728895365537 64.44614217148046,51.03868376225728 64.622367643693,51.14617437386187 64.78326916182414,52.49875291790522 64.91352277170517,52.722687680063245 64.82157904707128,54.44248693171539 65.05910033572582,55.31133057650004 65.46518511950853,55.347158989192394 65.64141059172107,57.165431045687 65.2276638308831,57.88198074747925 65.48050907358993,58.14172851849435 65.48817105067428,58.5 65.44986116542714,57.38039659226342 65.64141059172107,57.21917248344835 65.50349500478478,55.347158989192394 65.07442428980721,55.30237347094953 64.80625509293168,54.03941211324127 64.95183265692322,53.83339535460982 64.95949463400757,52.71373030093673 64.82924102409743,52.57041210614989 64.68366346010589,50.92223544586159 65.09741022097296,50.13396571165504 64.76028323065839,47.69744926407293 63.9404516859795,44.88461888587335 64.01707145647379,44.821911412102054 63.36580340701039,41.85669073849567 62.454028137697605,41.22959150059614 62.60726767874439,40.69207417348662 62.5459718623315,40.047048879067006 61.74912624878925,39.43785381360067 61.611210661852965,39.187007513290155 61.350703442061786,37.34147261079488 61.159154015709646,37.018947820834 60.921632727084216,35.75571390246478 59.35858940824983,32.07341391714726 59.52715290343622,32.0644543545568 59.37391336238943,31.5 59.62675860512536,31.98381824851822 59.71870232975925,32.709540439071134 59.62675860512536,32.93352751365455 60.20906886117882,34.02657593906042 61.02123842877336,36.07824350237934 60.96760458938661,36.33805812027276 61.32771751092514,37.33251360544091 61.626534615963465,39.267636762248 62.553633839357644,40.06496631469781 62.59960570171825,40.701032823562855 62.431042206531856,41.25646727743879 63.25087375121075,41.76710541728971 62.82946501328843,42.34044983615604 62.929070714948466,42.68087124905287 63.25087375121075,42.74358030749136 63.29684561351314,43.12879207674996 63.135944095411105,43.352751602535136 62.929070714948466,43.06608330340532 62.84478896736982,42.34044983615604 63.20490188887925,41.92835892727453 63.212563865905395,41.65960290678777 62.33909848186886,41.21167431130743" stroke="#4dd2ff" stroke-linecap="round" stroke-linejoin="round" stroke-width="0.5"><title>2023-06-04 8.0km</title></polyline><polyline fill="none" points="113.3229121118784,55.417017308660434 111.70550940092653,55.458433292777045 111.00896370789269,55.92781352766906 110.13533012679545,55.80356598277285 109.78115435061045,56.03825569055334 108.36445124621969,55.78976069269993 107.90402273723157,55.29276927738101 106.74704853515141,53.09770121812471 105.57826847396791,51.84138778998749 104.6337997376686,51.51005036463903 102.4261040664278,51.30296404658293 100.67883690423332,50.4055862036912 100.12396152166184,49.14924685511505 99.98229121119948,47.934313781850506 99.46283340617083,47.31303681587451 98.51836466987152,47.10594383649004 95.236335811147,47.644384899234865 94.57520769565599,47.326843002825626 93.00502842152491,45.98763606759894 92.61543506773887,45.90479807379597 92.78071709664073,45.26970504040946 91.67096633143956,43.11588825476065 91.58832531701773,42.45316824398469 91.28137297765352,42.190840643059346 91.03344993438805,41.44527510770422 90.27787494531367,41.141524964317796 89.90008745080559,40.38214651160524 90.3369042413542,40.20265641325386 87.77503279404482,36.28142647961795 86.60625273280311,33.809886488175835 86.5,33.906539769945084 87.8222562308656,36.405692616986926 90.8917796239839,41.10010443540523 90.78552689112257,41.29340012438479 91.60013117617927,42.563621812922065 91.63554875383852,43.26776111642539 91.95430695230607,43.474860188303865 92.75710537820123,45.29731784528121 92.61543506773887,45.94621707723127 93.04044599912595,46.04286136760493 93.24114560557064,46.41563153115567 95.28355924790958,47.63057874588412 98.34127678180812,47.11975004532724 99.47463926539058,47.34064918832155 100.04132050724002,48.113793243494 100.11215566244209,49.232082789065316 100.572584171372,50.364168615764356 102.50874508090783,51.358187096891925 104.4331001311657,51.496244620357174 105.61368605156895,51.88280490897887 107.03038915607613,53.55328441786696 108.35264538694173,55.77595540114271 109.56864888500422,55.941618803175515 109.69851333624683,56.190113511824165 110.46589418448275,55.72073422042013 111.78815041540656,55.44462796625157 113.34652383031789,55.44462796625157 113.5,55.251353240717435" stroke="#4dd2ff" stroke-linecap="round" stroke-linejoin="round" stroke-width="0.5"><title>2023-06-01 6.5km</title></polyline><polyline fill="none" points="151.0,57.618194316732115 149.37768240342848,57.904260790979606 148.60515021457104,57.70853116021317 148.09012875537155,57.196621622511884 146.32618025748525,54.140182241550065 145.59227467805613,53.53792043462454 144.56223175959894,53.08622240681143 142.21888412017142,52.8152029018529 140.28755364805693,51.85157381526369 139.66952789702918,50.677142043350614 139.5150214592577,49.246731280349195 138.87124463520013,48.55410616514564 137.7896995707997,48.343306547860266 134.18454935622867,48.87030500557739 132.1244635193725,47.560333806686685 131.84120171674294,46.82252862706082 131.5836909871432,46.65689836704405 131.63519313302822,46.340694608021295 130.7339055793709,44.29288182372693 130.3733905579429,44.08207589338417 130.38626609439962,43.35931033238012 129.9742489270866,42.90757999231573 129.80686695274198,42.18480846498278 129.53648068674374,42.01917280622001 129.60085836908547,41.71801656890602 127.50214592274278,38.1944412306766 126.36909871245734,36.71872990473639 124.65665236057248,33.36067667452153 124.20600858371472,32.96914961337461 124.0,32.09573920900584 124.15450643771328,32.878797061610385 124.6952789700008,33.39079409613623 126.27896995708579,36.688613187667215 129.60085836908547,41.6577852449409 129.4592274678289,41.97399941121694 130.360515021428,43.34425267750339 130.3733905579429,44.12724861902825 130.74678111588582,44.35311203218589 131.62231759657152,46.340694608021295 131.51931330474326,46.61172644450562 131.87982832617126,46.83758591384685 132.1115879827994,47.50010495581955 133.75965665234253,48.6444487626577 134.53218884125818,48.91547621112841 137.7639484978863,48.35836367376032 138.8068669528002,48.478820623407955 139.42489270382794,49.14133202377707 139.64377682405757,50.73736954946071 140.18454935628688,51.89674407450366 141.9871244635433,52.8152029018529 144.69098712445702,53.131392274051905 145.6952789699426,53.552977010869654 146.91845493559958,54.95323163794819 148.5150214591995,57.63325046132377 148.8755364806857,57.88920467509888 149.90557939914288,57.88920467509888" stroke="#4dd2ff" stroke-linecap="round" stroke-linejoin="round" stroke-width="0.5"><title>2023-05-26 6.2km</title></polyline><polyline fill="none" points="161.5,48.76113778724539 162.5322496748704,49.23739935003687 164.11222366709262,49.385204068457824 164.25968790636398,49.574065243483346 165.95903771129088,49.401626797553035 166.23992197657935,49.67260132631054 167.3564369310916,49.565853897613124 167.18790637192433,49.68902399462968 167.42665799739189,49.98463143000117 167.78478543562233,49.779348608215514 168.12184655395686,49.787559931501164 168.3886866059911,49.79577125392825 168.5501950585167,49.96820882424072 169.0979193757812,50.13243472552858 169.89843953188392,50.13243472552858 170.12314694406814,49.90251836641983 170.10208062417223,49.147074105807405 170.21443433032255,48.83504063509463 170.7762028608704,48.31771922245389 171.2817945383431,48.27666181977838 172.50364109230577,48.49016007643513 173.80975292588118,48.35877660338883 174.6804941482842,48.05495147014153 176.52028608584078,47.08598769493983 179.28699609884643,46.69182947761874 181.44278283487074,45.64894287267816 181.70962288687588,45.139812037785305 181.4989596879168,44.02299721694726 181.0635890767153,43.23464766665711 180.6703511053347,42.14244182665425 179.92600780233624,41.690773264475865 180.03133940181579,41.403346446975775 180.8529258777562,41.86322884393303 181.59726918075467,41.871441004834196 182.19414824448177,42.07674474464875 184.37802340701455,44.48286408960121 184.75019505852833,44.655313464325445 185.0591677503253,44.56498288724106 185.73328998702345,43.86697033744713 186.5057217165304,42.70086477819859 187.67841352405958,41.493680704341386 188.5,39.27635490677494 187.98738621588564,40.7545791453158 187.48179453835473,41.75647067325917 186.5267880364263,42.63516816894844 185.72626788038178,43.83412253339338 185.01703511056257,44.58140663636732 184.69401820545318,44.655313464325445 184.0901170351135,44.23650717529381 182.1871261378401,42.06853260547359 181.5691807542171,41.86322884393303 180.8318595578603,41.83859235602722 180.06644993499503,41.37049760004447 180.01027308194898,41.551166086086596 180.6703511053347,42.18350247469061 181.47087126137922,44.03942108074989 181.68855656695087,45.148023851943435 181.27425227567437,45.78854267943825 179.6591677503311,46.57686628717056 178.43029908972676,46.85606231143174 178.12834850454237,46.782157579225895 177.04694408320938,46.92996697326453 176.2394018205814,47.151680536531785 175.0456436930981,47.866086598689435 175.08777633288992,48.2356043954278 173.76762028608937,48.73650348899537 173.2058517555124,48.83504063509463 172.37724317298853,48.79398350609699 172.2648894668382,48.88430916121433 170.958777633321,48.73650348899537 170.7762028608704,48.933577656091074 170.67087126139086,49.91072967670334 170.41807542263996,50.53478671524499 169.7439531859418,50.72364509322506 168.50806241872488,50.40340670302976" stroke="#4dd2ff" stroke-linecap="round" stroke-linejoin="round" stroke-width="0.5"><title>2023-05-21 9.9km</title></polyline><polyline fill="none" points="38.5,78.62927641313581 37.819327731151134,78.97040065689362 36.49039615847869,79.0083033105766 34.88595438183984,78.55347093744786 34.61044417775702,79.0083033105766 33.63805522210896,78.97040065689362 31.563625450246036,77.87122021231335 30.33193277317332,77.98492884694133 29.181272509042174,77.22686991936644 25.61584633856546,77.47323942270305 24.546218487492297,77.32162746074027 23.91416566632688,77.8333173180581 19.95978391362587,79.36837812034355 19.295318127260543,78.91354666140978 19.003601440635975,77.54904535558308 15.956782713124994,73.87242065853206 15.454381752759218,73.51233480090741 11.87274909968255,73.07644042580796 15.794717887183651,73.70185376358859 19.100840336235706,77.79541441582842 19.279111644718796,79.04620595621236 19.92737094842596,79.36837812034355 23.735894357727375,77.96597741283767 23.995198079268448,77.53009387537895 22.6338535414543,77.41638495202642 21.402160864439793,76.86679080491012 20.672869147732854,77.1321123278467 20.251500600308646,78.06073456327431 20.89975990401581,78.38290849972691 20.494597839191556,78.72403321265301 20.672869147732854,79.06515727605438 20.23529411770869,79.3494268325885 19.700480192201212,79.23571906406141 19.3115246098605,79.02725463436218 19.246698679518886,78.06073456327431 18.857743097294588,77.37848196148116 18.063625450246036,76.71517832971585 17.10744297725614,75.12323959208152 15.648859543842264,73.53128670626029 12.456182472989894,73.11434432661918 15.584033613500651,73.53128670626029 18.938775510236155,77.49219090890256 19.392557022860274,78.66717913896719 18.857743097294588,78.38290849972691 17.156062425056007,75.16114305978408 15.697478991583921,73.58814241003711 11.5,73.05748847240466 11.807923169340938,70.631621879671 15.827130852325354,70.74533511018672 16.605042016890366,71.18123515821935" stroke="#4dd2ff" stroke-linecap="round" stroke-linejoin="round" stroke-width="0.5"><title>2023-05-19 5.4km</title></polyline><polyline fill="none" points="49.0,74.7164661706338 51.650375939847436,74.75603090957884 55.924812030105386,76.04847214277834 57.46992481203051,76.33861016987794 66.70676691731205,76.21991742223327 69.21052631578641,76.81338003047858 70.36090225563385,76.39136246587441 70.80075187975308,73.8328503964658 71.09398496244103,73.58227164897107 73.1917293232982,73.8592270774243 73.36090225563385,73.661401834157 75.30075187975308,73.63502511137631 75.96616541355615,73.43719951230014 76.0,73.18661996951414 74.80451127822744,73.70096690794162 73.37218045117334,73.6877785514007 73.14661654137308,73.8328503964658 71.06015037599718,73.60864838293492 70.74436090228846,73.93835708684492 70.31578947370872,76.41773860555986 69.32330827071564,76.76062791306322 66.51503759401385,76.16716505365912 58.0676691729459,76.36498632068106 55.77819548873231,75.96934347275965 51.560150375938974,74.7164661706338 49.41729323309846,74.78240739519242" stroke="#4dd2ff" stroke-linecap="round" stroke-linejoin="round" stroke-width="0.5"><title>2023-05-17 5.0km</title></polyline><polyline fill="none" points="89.25912408763543,77.45126765682653 90.11015262111323,77.92265003185457 90.57597876578802,77.72362219164643 91.93762441939907,77.92265003185457 92.32282680826029,77.67124637778761 92.35865958861541,77.35699091257266 94.29362972796662,77.27318928674504 98.19940278702416,77.22081323460588 100.25082946254406,77.6502960444268 100.98540145991137,77.4093668926871 101.30789648310747,75.51333876167337 101.59455872600665,75.10479755939014 102.47246184473624,75.26192899051966 103.35932315862738,75.16765016175486 104.63138686132152,75.29335524681665 107.10384870605776,74.42389180975442 109.11944260122254,73.38681097867811 111.10816191107733,73.2506278404544 113.01625746523496,72.69541772310185 113.5,72.47542794749461 113.32979429332772,72.55923363391776 113.23125414730748,72.07734996814543 112.99834107497009,72.27638915788702 112.0935633709887,72.52780650982459 108.6088254810893,73.02016364139126 106.2976111479802,74.25628352245258 104.92700729926582,74.68577919066593 103.49369608494453,74.79053394906805 101.97080291970633,74.53912234269228 101.36164565366926,74.58102432142914 100.60019907105016,75.25145356955181 100.40311877906788,76.83322958769713 99.18480424687732,77.03225921748526 99.2385534173809,76.91703158582823 98.87126741878456,76.70752645747416 98.61147976113716,76.14186039681226 98.11877903121058,75.92187827832822 97.50066357001197,76.06853307828715 97.09754479100229,76.64467483254703 96.45255474455189,76.74942751861818 95.91506303916685,76.75990278113022 95.65527538151946,76.59229844793299 93.63968148641288,76.6341995578332 93.45155938953394,76.17328637385071 93.34406104846857,76.17328637385071 90.60285335103981,76.72847699025442 88.80225613806397,76.3827926325248 86.52687458531,75.56571571694076 86.5,75.38763395587011 86.92999336431967,75.30383066334616" stroke="#4dd2ff" stroke-linecap="round" stroke-linejoin="round" stroke-width="0.5"><title>2023-05-14 6.3km</title></polyline><polyline fill="none" points="124.3776937618386,80.75332964488916 124.70434782613302,78.73616817298898 124.0,78.4735764533907 124.39810964080971,78.39002441448247 124.51039697544184,78.18711206242006 124.71455576561857,76.27733087239903 124.58185255201533,76.15796847490856 124.93913043482462,76.16990472034377 125.13308128545759,72.25474850706087 125.28620037809014,71.93245825514168 127.6544423440937,72.09957183402003 130.1962192817009,73.0186920937631 130.42079395084875,72.95900918731786 130.67599243862787,72.46960816358478 132.6461247637053,72.91126283940685 133.75879017013358,72.98288235368818 141.14933837432181,72.83964327967988 143.37466918717837,73.34097924314847 144.27296786388615,73.0186920937631 144.65066162572475,70.76265627289831 144.89565217396012,70.48810915247304 146.84536862006644,70.63135121169762 148.63175803405466,70.54779336594947 151.0,69.72414843213483 150.7856332703377,69.24667035511811 149.42797731567407,69.80770688786288 148.3357277882751,70.03450809862261 146.97807183366967,70.08225566385227 144.77315689984243,69.80770688786288 143.84423440456158,70.54779336594947 143.6502835538704,71.1088234290437 143.78298676747363,71.56242016401666 143.59924385638442,72.33830508879328 142.62948960304493,72.5770378384259 141.58827977319015,72.29055847824202 141.2207939508371,71.9921417045698 140.33270321367308,71.9921417045698 139.92438563331962,72.24281184745632 138.97504725895124,72.32636843804357 138.0665406427579,72.15925519503071 136.51493383746129,72.23087518662214 134.8408317581052,72.06376180223015 133.68733459356008,72.23087518662214 133.0034026465146,72.05182512245665 132.08468809071928,72.23087518662214 130.6657844990841,71.93245825514168 130.21663516073022,71.52660996173654 130.18601134215714,70.96558197597915 129.76748582231812,70.9417083828157 130.3187145558186,71.06107629822509" stroke="#4dd2ff" stroke-linecap="round" stroke-linejoin="round" stroke-width="0.5"><title>2023-05-12 6.0km</title></polyline><polyline fill="none" points="168.55365607858403,88.35563351665041 168.8287759810337,88.3445283943147 168.09828520554584,87.94474320396694 168.30699685565196,88.00026901623642 168.44930025353096,87.80037595404428 168.38289200118743,88.31121302016254 168.55365607858403,88.20016169633163 169.19876481534448,88.5 169.749004620302,88.47778978475253 169.91028180450667,87.70042927964096 169.8343866590294,86.43442980173131 170.21386238653213,85.9013728042919 170.18540170695633,85.623737875183 172.50969053810695,83.8690680706859 173.211720634019,83.18051871030184 174.0370803414262,82.02552250371082 174.65372839861084,80.19305041840562 174.86244004877517,76.25035006396502 175.05217791249743,76.05043453563121 175.0426910193637,75.12859687567834 175.45062742644222,73.81801849725889 176.674436647736,71.76326508170314 178.80898761510616,69.7528996740075 179.64383421564708,68.44225388984341 180.57354974810733,64.15477234565333 181.90171479451237,61.5 180.61149732087506,64.0103722370186 179.86203275900334,67.5981004455316 179.4540963518666,68.77547047781991 178.60027596494183,69.98614847219869 177.16775509354193,71.20791938700859 176.29496092023328,72.2519668523164 175.5265225719195,73.56256486586062 175.1280730580329,74.89535955263273 175.02371723297983,75.47289863955666 175.13755995122483,76.10596666519996 176.26650024065748,76.03932810619153 177.61363907332998,76.18371159697563 178.32515606249217,76.02822167558043 179.26435848808615,76.19481801109214 179.95690169086447,76.10596666519996 180.250995379698,76.26145647095836 180.37432499113493,76.77234991874866 180.24150848650606,77.28324086971406 178.34412984887604,79.04912731822697 177.9931148008909,79.65996159899805 177.8508114030701,80.55954740497691 178.17336577142123,81.85893545950239 174.86244004877517,86.22342839852354 173.42991917737527,87.82258631316654 173.20223374082707,87.82258631316654 170.232836172916,85.84584587741847 169.85336044535507,86.51216705346451 169.98617694998393,87.58937730717298" stroke="#4dd2ff" stroke-linecap="round" stroke-linejoin="round" stroke-width="0.5"><title>2023-05-09 7.6km</title></polyline><polyline fill="none" points="23.944519728247542,118.5 24.148336608312093,116.5253742155619 23.813494591158815,115.45293799169303 21.935467624745797,114.8571370018326 18.383230572217144,114.38049462188792 18.295880480785854,113.54636706043675 18.54337240656605,111.62275028511067 20.013765612791758,111.65679679957975 19.547898458316922,111.55465723454836 19.402314972598106,110.26088379997236 19.05291460675653,110.58432813371473 18.528814058052376,110.22683699020126 18.57248910376802,99.92734635573288 18.761747635202482,99.43363520609273 18.295880480785854,99.67197870883683 17.684429840592202,99.33148788248945 18.674397543771192,97.54389922301925 18.732630938116927,96.33513754123123 19.300406532536726,96.04571438264975 19.547898458316922,99.2293404940574 19.096589652472176,100.60832476618816 19.213056441105437,101.93622437746671 19.387756623968016,102.22563694084238 20.494191115780268,102.1064671248314 21.251225241692737,101.4765680598357 20.829033132991754,98.9739717393677 21.513275516103022,97.95249266753672 21.455042121757288,97.45877545815893 20.960058270196896,97.56092397061002 19.955532218446024,97.0672055597388 20.290374235715717,96.55646078179416 20.930941573053133,96.57348563388223 21.78988413908519,96.99910634967091 22.110167807724793,96.8118333734601 22.226634596358053,97.01613115487271 23.202043950848747,94.58156571917061 23.100135510903783,93.11740373156499 22.692501750716474,91.90860879354295 22.35765973350499,91.5 21.60062560753431,91.89158344782481 21.280341938894708,92.55557059420971 21.717092396167573,92.04481149405183 21.58606725896243,92.72582326723204 21.87723423045827,93.16847937401326 22.212076247727964,93.25360540873953 22.692501750716474,92.79392428601568 22.983668722270522,92.87905051896814 23.187485602276865,93.71328521810938 23.100135510903783,95.0412417344487 22.110167807724793,96.98208154267923 19.504223412659485,99.34851244089077 19.125706349674147,100.55725148538477 19.34408157825237,102.27670969208702 19.86818212707294,102.61719428631477 21.702534047537483,102.4469520792627 22.721618447918445,102.61719428631477 23.56600266532041,103.21304059261456 24.70155385421822,103.19601644303475 26.302972197532654,104.06424577436701 27.875273843761533,104.28555838404282 30.510334935970604,104.06424577436701 30.94708539324347,104.52389470030903 32.25733676512027,104.57496672208072 32.3155701594078,105.98795289857662 32.02440318791196,107.14557088144647 31.73323621635791,107.07747593650129 31.45662759343395,107.67330572784704 31.675002822070383,108.71174666276784 31.15090227330802,111.35037791002833" stroke="#4dd2ff" stroke-linecap="round" stroke-linejoin="round" stroke-width="0.5"><title>2023-05-06 6.0km</title></polyline><polyline fill="none" points="56.04284203052521,118.48883518038201 55.737629246141296,118.31019790533901 56.080993628595024,118.01991168599488 56.82494979049079,118.5 57.1301625748747,118.4665055376172 57.263693168060854,117.69612995725038 57.14923837390961,116.55730354105617 57.5402922538924,115.89856498214795 57.49260275636334,115.68642795733467 59.819850237166975,113.93348984222393 61.26961096300511,112.19168798450846 61.98495342634851,110.19304644649674 62.20432511513354,106.15098483863403 62.40462100482546,105.91649583106482 62.34739360777894,105.3581865644228 62.70983378926758,103.99589950602967 63.70177533844253,102.17576710690628 66.17209131200798,99.69676306987094 67.11634336365387,98.08872917995177 67.93660272168927,94.13554125385417 69.2623707538005,91.5 67.9079890231369,94.202545678163 67.16403286124114,97.86538919340092 66.81113057932816,98.7252455372145 65.95271962322295,99.94243274722248 63.71131323801819,102.11993432638701 62.75752328679664,103.83957035341882 62.34739360777894,105.34702034883958 62.47138630144764,105.73783718843333 62.194787215674296,106.26264608688507 62.05171872297069,109.85807487252896 61.364989958063234,112.04653652687557 60.878557083022315,112.81695351059898 60.00107032788219,113.76601014851622 57.54983015340986,115.67526283892221 57.21600367053179,115.55244645797211" stroke="#4dd2ff" stroke-linecap="round" stroke-linejoin="round" stroke-width="0.5"><title>2023-05-04 6.1km</title></polyline><polyline fill="none" points="87.3203300824971,110.08631591555604 87.59377344336826,107.04291295647272 87.67479369841749,106.8297532289871 87.89759939984651,106.80606878973776 87.68492123024771,106.71133098277642 87.63428357086377,106.24948302568373 87.90772693173494,102.7085853888857 88.1406601650524,102.56647344709927 88.99137284321478,102.73227069498535 90.2876969242352,102.7085853888857 92.03975994000211,103.34808689445344 92.79932483116863,103.45467012354493 93.05251312826294,102.00986660464696 92.88034508621786,101.59537034973619 92.12078019505134,101.61905589134403 91.74606151535409,101.21640100210789 90.62190547637874,101.27561504726327 90.19654913729755,101.08612999255274 89.66991747939028,101.28745785251522 88.98124531138455,101.28745785251522 87.69504876219435,100.62425882802927 87.08739684917964,100.74268751341151 86.5,100.4939871293609 86.51012753188843,100.99138734491862 87.14816204051021,101.09797281785723 87.25956489122473,100.64794457514654 87.74568642157828,100.68347318637097 88.85971492878161,101.28745785251522 89.76106526632793,101.45325699471869 90.35858964745421,101.29930065650842 90.71305326325819,101.66642695957125 93.41710427607177,102.62568677810486 94.68304576142691,102.89806769731513 95.04763690923573,102.94543822430569 95.58439609903144,102.69674273396959 96.3540885221446,102.89806769731513 97.31620405102149,102.69674273396959 97.79219804948661,102.80332658316911 98.19729932479095,102.63752944052976 98.65303825959563,102.83885451038077 100.80007501877844,102.7677986447161 101.48874718678417,102.98096610642096 102.52175543888006,102.89806769731513 102.90660165040754,102.62568677810486 103.82820705173071,102.62568677810486 104.1421605400974,102.90991033095634 105.30682670668466,103.18229055862321 106.20817704428919,103.00465135485865 106.36009002249921,102.12829382420023 106.22843210800784,101.79669729382294 106.42085521377157,101.24008662391861 107.3222055513761,100.45845845794975 110.63390847714618,100.70715892095905 112.04163540888112,100.4347726707565 113.27719429857098,99.91368408445123 113.5,100.35187237609352 112.50750187551603,100.8255875186369 110.76556639163755,101.25192943293223 109.3578394599026,101.32298626079864 107.45386346586747,101.14534410658234 107.18042010505451,101.50062813310069 107.08927231805865,102.69674273396959 106.82595648913411,103.64415116920281 105.83345836465014,103.98758474692295 103.71680420107441,103.47835527179996 96.17179294826929,103.6323086132179 94.41972993250238,103.37177206525666" stroke="#4dd2ff" stroke-linecap="round" stroke-linejoin="round" stroke-width="0.5"><title>2023-04-26 7.0km</title></polyline><polyline fill="none" points="124.0,107.8816031635215 124.378151260491,107.10041524880216 124.20168067223858,106.5550550519838 124.23949579824694,104.68312678759685 124.378151260491,104.25567507422238 124.66806722682668,104.10827762763074 128.17226890753955,104.4325518043479 130.21428571426077,105.2874528344546 130.80672268901253,105.22849431114446 131.81512605038006,105.52328667828988 132.29411764704855,105.86229712955537 132.73529411759228,105.75912012303888 133.50420168059645,106.02443227119511 135.49579831928713,105.89177626025048 136.39075630251318,106.45187855842232 137.07142857142026,106.18656722415471 137.89075630245497,106.45187855842232 138.6092436974286,106.30448343507305 139.1890756302164,105.92125538468827 139.69327731087105,106.36344150311197 141.04201680672122,106.15708815582911 141.63445378147298,106.2897439141816 143.38655462185852,105.52328667828988 144.13025210087653,105.59698467268026 145.41596638655756,106.11286954164098 145.80672268907074,105.62646385945845 146.70168067223858,105.75912012303888 147.8991596638225,105.31693208677461 148.16386554623023,104.594688609679 148.35294117644662,102.6932542064169 148.59243697475176,102.31001622333133 149.18487394956173,102.11839683649305 150.0672268907074,102.38371591737086 151.0,102.38371591737086 149.0210084033315,102.13313679870043 148.57983193278778,102.28053633484524 148.31512605038006,102.61955467615917 147.8991596638225,105.3464113328373 146.6008403361193,105.78859927556186 143.72689075628296,105.11057718961092 133.7436974789598,105.2874528344546 132.29411764704855,105.05161859143118 127.15126050414983,103.50394646626955 124.89495798316784,103.57764552872686 127.07563025207492,103.71030374293332 127.22689075628296,103.5629057193728 127.60504201677395,103.72504353668774" stroke="#4dd2ff" stroke-linecap="round" stroke-linejoin="round" stroke-width="0.5"><title>2023-04-20 5.0km</title></polyline><polyline fill="none" points="167.68024633004097,117.61733862921392 167.81818138668314,118.3815946527684 167.68944200052647,118.06943443788623 167.78139870491577,118.23089673802315 168.79292245325632,118.5 169.45501072495244,118.16631184885046 169.7952505311696,117.35899726173375 169.89640290598618,117.31594030313136 170.0803163148812,117.60657441870717 170.48492581414757,117.57428178036207 170.7516002569464,117.0575981674483 170.64125221164431,115.65823348906997 171.02747037011432,115.00160186468565 170.92631799523951,114.84013442014111 173.73099747934612,112.60109267281223 174.65976019378286,111.36313970170158 175.303457124508,109.31779296459717 175.45978352200473,105.96979421174183 175.53334888553945,105.54994090312539 175.70806662383256,105.44228592836589 175.59771857858868,105.02243043397175 175.8827843622421,103.82744758134504 176.9402864627773,101.84654405961192 177.72191845014459,100.92067369736469 179.11966035695514,99.67181189817347 179.94727069651708,98.49829841942119 180.27831483236514,97.7015934482406 181.11512084235437,93.72874135125312 182.31975366995903,91.5 181.04155547881965,94.12711024314922 180.34268452547258,97.51856574551493 179.98405337834265,98.50906465992011 178.8621815847,100.00556095527281 177.08741718978854,101.63122612574807 175.98393673705868,103.62289955424785 175.66208827169612,104.94707157133962 175.71726229431806,105.54994090312539 175.51495754462667,105.81907783957286 175.303457124508,109.70533551624976 174.68734720506473,111.41696405835683 173.28040962782688,113.13932837834 171.0366660405416,114.8508989244292 171.07344872230897,115.03389532274014 170.80677427956834,115.4752382180668" stroke="#4dd2ff" stroke-linecap="round" stroke-linejoin="round" stroke-width="0.5"><title>2023-04-17 6.5km</title></polyline><polyline fill="none" points="11.656129529641476,141.04291408213612 11.5,140.9090397561813 11.5,140.54392716650182 12.166152659978252,132.21904578707472 12.343099460296798,131.64699234809086 13.13415574398823,131.86607697993895 13.58172706241021,131.73219197671278 14.63299922895385,131.8173915422376 16.693909020803403,132.5233283724374 17.026985350821633,132.42595803266886 18.421742482634727,132.94932263994997 18.515420200419612,133.27794571151753 18.994217424828093,133.41182891603967 19.660370084806345,133.15623357223376 21.1383962991531,133.37531533026777 21.47147262917133,133.2049184433854 22.064764841925353,133.58222549646598 22.803777949127834,133.47268486661778 23.8966846569092,133.6552525251318 24.55242868157802,133.33880173288344 24.521202775649726,133.10754868046206 24.750192752457224,133.09537745429407 24.937548188085202,133.54571196476172 25.541249036206864,133.59439667114202 26.11372397840023,133.42400010871643 26.69660755590303,133.5700543205312 27.42521202773787,133.18057601037435 27.46684656891739,133.53354078494885 27.643793369235937,133.6552525251318 28.122590593644418,133.54571196476172 28.445258288353216,132.94932263994997 29.881649961404037,133.47268486661778 29.871241326094605,133.11971990532766 30.7455666923197,133.15623357223376 31.713569776329678,132.7789251222057 32.098689282895066,130.4420194157501 32.37972243636614,130.17424593916076 32.754433307563886,130.0525305164847 34.24286815722007,130.3689903475606 34.56553585192887,130.23510360217915 35.94988434843253,130.320304276378 36.813801079348195,130.13773132586357 38.5,129.41960824286798 38.26060138782486,128.95708591787115 36.876252891204786,129.49263791366684 35.33577486500144,129.74824139646807 32.171549730119295,129.45612308407 31.21395528136054,130.28378970943595 31.047417116409633,130.89236431183963 31.21395528136054,131.25750752806925 30.984965304494835,132.09733252763544 29.881649961404037,132.29207368096831 29.32999228988774,132.18253182278568 28.643022359290626,131.72002060507657 27.602158828056417,131.69567785789695 27.185813415562734,131.96344779351784 26.269853508099914,132.0608185246747 25.520431765588,131.8782483361574 23.126445643778425,131.90259104466531 22.949498843459878,131.4279072990903 23.053585196554195,131.3548788567059 24.34425597533118,131.29402178597957 24.94795682345284,131.76870608396712 24.85427910560975,131.86607697993895 22.606013878132217,131.8782483361574 22.63723978406051,131.54962126672035 22.460292983741965,131.44007870163477 19.420971472573,131.98779048401047 17.713955281418748,131.64699234809086 14.757902852725238,130.50287693716382 14.362374710850418,130.5150484375772 14.216653816460166,130.3568188316931 14.653816499572713,130.14990286490502 15.11179645336233,130.3689903475606 16.256746337690856,130.30813275534456 16.569005397032015,130.67327782582288 16.818812644516584,130.67327782582288" stroke="#4dd2ff" stroke-linecap="round" stroke-linejoin="round" stroke-width="0.5"><title>2023-04-07 7.0km</title></polyline><polyline fill="none" points="49.0,138.1411363992229 49.09536891680909,135.78687245862238 49.34968602831941,134.58494051747402 51.744505494541954,134.82037145666254 54.20290423865663,135.5142704193495 54.41483516484732,135.05580192259367 57.10635792778339,135.65057151829387 65.2551020408282,135.5142704193495 68.07378335949033,136.08425577785965 69.04866562003735,135.78687245862238 69.43014128727373,133.4945173645756 69.73744113027351,133.11038860866392 71.63422291987808,133.30864876900887 72.0051020408282,133.1723449448691 73.35086342220893,133.2590837604148 76.0,132.3421273175045 75.84105180529878,131.85886360076984 73.05416012555361,132.68908465364075 71.81436420715181,132.71386728118523 69.55729984299978,132.39169271413994 68.60361067496706,133.2590837604148 68.3598901098594,135.10536617092293 67.36381475668168,135.29123191535473 66.64324960752856,135.16732145182323 65.78492935636314,134.6592871809844 64.84183673467487,134.6840693916456 64.48155416012742,134.94428228718607 63.57025117735611,135.00623765328783 62.97684458398726,135.00623765328783 62.69073783355998,134.82037145666254 60.47605965461116,134.89471797071747 60.25353218213422,134.79558927481412 60.041601255885325,134.3247268236446 56.61891679750988,134.95667336304905 54.806907378311735,134.6345049650481 51.58555729989894,133.44495243458368 49.24372056516586,133.56886472020415 49.180141287331935,132.71386728118523 50.229199372115545,133.2838662673239 51.83987441135105,133.37060500032385" stroke="#4dd2ff" stroke-linecap="round" stroke-linejoin="round" stroke-width="0.5"><title>2023-04-04 6.0km</title></polyline><polyline fill="none" points="89.64607657957822,145.88711611693725 106.92744516767561,146.9322701675119 112.73756046872586,129.68714353023097 98.43573818914592,123.06775403907523 88.15630342531949,134.73876498127356 87.70937147922814,144.84196140361018 93.66846409626305,147.97742355475202 109.16210489813238,145.19034638197627 111.9926738915965,131.60327762854286 100.372443289496,122.54516952473205 87.70937147922814,136.48069981997833 88.60323537141085,146.9322701675119 108.8641502680257,146.5838855577167 112.2906285226345,130.38391982403118 100.67039792053401,122.19677975727245 93.66846409626305,127.4226185400039 87.70937147922814,135.95811956189573 87.56039416324347,145.71292371093296 104.39483080524951,148.5 109.60903684515506,146.23550087457988 112.14165120664984,130.38391982403118 100.22346597351134,122.19677975727245 88.15630342531949,135.43553913745563 87.56039416324347,146.06130850501359 102.01119375880808,147.80323136947118 108.56619563698769,145.88711611693725 112.2906285226345,129.51294941047672 99.32960208132863,121.84838991542347 88.00732611026615,135.60973263089545 88.15630342531949,146.40969322540332 97.2439196659252,147.80323136947118 109.60903684515506,145.53873128595296 112.2906285226345,130.20972577808425 99.32960208132863,121.5 87.8583487952128,135.60973263089545 88.30528074130416,146.5838855577167 106.0335812754929,147.4548469443107 109.31108221411705,145.71292371093296 112.14165120664984,129.33875527279451 100.074488658458,121.84838991542347 88.4542580563575,134.73876498127356 87.26243953220546,145.71292371093296 108.56619563698769,146.40969322540332 111.54574194550514,129.86133763124235 100.372443289496,122.19677975727245 93.07255483418703,127.4226185400039 88.15630342531949,135.60973263089545 88.00732611026615,146.5838855577167 104.0968761742115,147.80323136947118 108.8641502680257,145.71292371093296 111.69471926055849,129.33875527279451 99.77653402741998,122.02258484519552 90.39096315670758,131.0806958230678 87.26243953220546,145.88711611693725 92.32766825705767,147.97742355475202 108.71517295297235,146.5838855577167 112.14165120664984,130.73230785992928 100.96835255157202,122.19677975727245 93.66846409626305,127.59681288083084 87.70937147922814,136.30650641873945 87.26243953220546,145.88711611693725 90.6889177877456,147.62903916602954" stroke="#4dd2ff" stroke-linecap="round" stroke-linejoin="round" stroke-width="0.5"><title>2023-03-30 5.2km</title></polyline><polyline fill="none" points="150.73615635174792,145.57071329683822 151.0,143.3817920731235 149.27873429498868,142.80884726480872 146.10004653321812,142.3681188809569 145.91158678452484,142.19182713582995 146.07491856679553,139.92939654539805 146.87901349464664,139.75310170493321 147.49464867380448,133.87647896647104 147.2182410423411,133.74425209438778 146.95439739414724,133.96463014456094 146.08748255000683,133.90586269872438 146.3010702652391,133.86178709802334 146.10004653321812,133.67079266661312 143.10981852019904,134.4200770068419 141.89111214515287,134.39069338337868 141.16240111680236,133.72956021194113 140.22010237321956,131.9224468174798 138.58678455097834,130.55607717535167 138.13448115397478,130.45323160446424 137.9083294555312,130.0712331028917 135.47091670543887,129.55700269137742 133.44811540248338,128.60199830347847 132.97068403905723,127.44129182041797 132.85760818980634,126.17772689736739 132.19171707768692,125.31085593953321 131.13634248485323,125.13454254005046 127.95765472308267,125.7222530010622 127.35458352719434,125.57532561900734 126.03536528616678,124.56152244545228 125.40716612373944,124.42928670317633 124.0,124.5909081488353 125.67100977193331,124.47336529794848 127.12843182875076,125.41370531918074 127.95765472308267,125.707560269846 131.08608655189164,125.16392812218692 132.14146114472533,125.32554871273169 132.81991624011425,126.20711225872219 132.95812005584594,127.48536945905653 133.44811540248338,128.6166907283914 135.2322010237258,129.51292571035447 137.8078175895498,130.0124640094 138.17217310372507,130.4973082870565 138.58678455097834,130.57076939352555 139.7049790599849,131.40822326109628 140.42112610518234,132.26036411778477" stroke="#4dd2ff" stroke-linecap="round" stroke-linejoin="round" stroke-width="0.5"><title>2023-03-28 5.0km</title></polyline><polyline fill="none" points="164.21137640450615,137.67169145087973 164.45786516851513,135.2328367881928 164.31566011236282,134.82266020112002 164.0786516853259,134.67854372179863 162.99789325840538,134.95569062147842 162.9220505617559,134.74505904458783 161.5,134.4124820085126 161.57584269659128,134.06881796236848 163.12113764043897,134.46791158781707 166.72366573032923,134.47899750016222 170.0797050561523,135.49889641867776 171.91889044939307,135.8092984671457 179.1713483146159,135.67626913038112 181.50351123599103,136.15295680554846 182.30933988757897,135.8314700068513 182.6885533707682,133.82492666524922 182.96348314604256,133.48126069215505 184.75526685389923,133.69189480935165 184.87851123593282,133.53669076406368 186.38588483142667,133.59212080662837 188.5,132.82718362952437 188.38623595505487,132.32830854912027 186.86938202247256,132.91587228407298 185.71278089884436,133.10433542571263 184.47085674159462,133.08216330903088 183.0298455056036,132.8160975424471 182.66959269659128,132.91587228407298 181.92064606735948,133.53669076406368 181.73103932582308,134.05773200661497 181.77844101120718,134.58985655908327 181.35182584263384,134.6120283568016 181.0484550561523,134.95569062147842 181.03897471912205,135.2771801068593 180.74508426961256,135.42129576290608 180.0625,135.17740761347522 179.80653089884436,134.5565988537346 179.3135533707682,134.32379462063545 178.63096910109743,134.46791158781707 178.18539325840538,135.0887208729764 177.41748595505487,135.2106651218346 176.9245084269205,135.2106651218346 176.6590589887346,135.03329162205046 174.49754213483538,135.06654917612468 174.2984550561523,134.5565988537346 172.26966292131692,134.8780895634627" stroke="#4dd2ff" stroke-linecap="round" stroke-linejoin="round" stroke-width="0.5"><title>2023-03-26 5.6km</title></polyline><polyline fill="none" points="38.5,174.83452427935117 37.73162055335706,174.8470035949067 35.757312253001146,174.198077435889 35.490513833996374,174.3977474035346 34.47667984192958,174.37278867603163 32.214229249046184,174.75964835836203 31.179051383398473,174.75964835836203 30.602766798459925,174.3353505749037 29.813043478294276,172.65062372710236 28.3936758893542,171.50249979241926 28.009486166003626,171.40266240036726 27.817391304357443,171.05323086282442 25.78972332016565,170.6663590244425 24.05019762844313,169.80525263519667 23.623320158047136,168.83182045112335 23.527272727224045,167.78349988345872 23.025691699585877,167.04717391396116 22.001185770786833,166.87245182265906 19.397233201540075,167.346696896886 18.799604743078817,167.23437586741784 16.803952569141984,165.74923219800257 16.932015810278244,165.16265769769234 16.163636363635305,163.46531930426863 15.950197628408205,163.3405140465038 15.939525691675954,162.82881110863673 15.5980237153708,162.42943166321493 15.523320158128627,161.94268613539316 15.363241106737405,161.71803367571556 14.77628458495019,161.51834224115737 14.424110671912786,160.95670826850255 14.317391304357443,160.7320539305365 14.71225296438206,160.53236082632066 12.631225296470802,157.36218750022817 11.5,155.1280377779549 12.503162055334542,157.16248868918774 15.256521739123855,161.45593859849032 15.171146245033015,161.65563013874635 15.907509881420992,162.75392756566725 15.896837944630533,163.40291669190628 16.184980237158015,163.55268290616368 16.942687747010496,165.23753971124097 16.76126482215477,165.69931107752927 17.124110671924427,165.8490743755683 17.40158102766145,166.26092246470216 18.778260869614314,167.19693550052034 19.279841897194274,167.30925656558975 21.990513833996374,166.87245182265906 22.993675889330916,167.09709446394118 23.495256916969083,167.69613941557327 23.569960474269465,168.70702087211976 24.039525691710878,169.80525263519667 25.533596837951336,170.5914804575441 27.806719367625192,171.06571057840483 28.09486166003626,171.4775404523316 28.34031620551832,171.4775404523316 29.813043478294276,172.65062372710236 30.613438735192176,174.21055681878352 31.189723320130724,174.77212768181926 32.01146245060954,174.8470035949067 33.996442687755916,174.36030931032292 34.5407114624395,174.6722930570977 34.850197628489695,174.3977474035346 35.47984189726412,174.37278867603163 35.63992094859714,174.1606392793401 37.51818181818817,174.8719622220524 38.20118577074027,174.80956564432563" stroke="#4dd2ff" stroke-linecap="round" stroke-linejoin="round" stroke-width="0.5"><title>2023-03-18 7.0km</title></polyline><polyline fill="none" points="49.0,165.97711123689805 50.76145868183812,165.92429646325763 54.15791234525386,166.91720953320328 55.60321177652804,167.17071767090965 62.66711274674162,167.07565219468233 64.88022750086384,167.58266702196124 65.72934091673233,167.19184331998986 66.03646704583662,165.36445814526815 66.28036132489797,165.03700408920122 69.05352960858727,165.13207150643575 70.35429909673985,164.8785581926859 71.66410170629388,164.36096651169646 71.52860488463193,163.89618802191399 73.25393108068965,162.91380818530888 75.8735362997977,162.41733297803876 76.0,162.50183957065747 74.34693877556128,162.59690940181463 73.2268317163107,162.8926816310268 70.88725326198619,164.1919564021082 69.7671462027356,164.51941322961648 68.37604550016113,164.63560732961923 66.37972566077951,164.32927713794925 66.06356641015736,164.4032189944046 65.31381733022863,165.11094542153296 65.15122114418773,165.62853321467992 65.27768484444823,165.92429646325763 65.18735362996813,166.53694611981336 64.93442622950533,166.76932948896865 64.06724657077575,166.84326953845448 62.96520575444447,165.8186668321723 62.179324188735336,165.90317054597108 61.75476748077199,165.5651552617128 61.40247574442765,165.50177726850234 61.0682502509444,165.61797022529936 60.66175978590036,166.10386657959316 60.42689862829866,166.12499245441722 59.984275677474216,166.49469454003702 59.25259284040658,166.53694611981336 59.09902977582533,166.01936303566617 56.52459016395733,166.29399929198553" stroke="#4dd2ff" stroke-linecap="round" stroke-linejoin="round" stroke-width="0.5"><title>2023-03-14 5.6km</title></polyline><polyline fill="none" points="111.14631336409366,170.06227321514598 110.23387096775696,169.941026453831 108.50230414746329,169.37116495756345 107.25806451612152,169.71065725394874 106.99884792632656,169.49241232172062 104.8525345622329,170.00164985052834 104.18894009216456,169.9652758163429 103.50460829492658,169.39541444063798 102.56105990783544,167.576688970119 101.48271889402531,166.37631434855575 100.75691244238988,166.0974376366139 98.42396313365316,165.78218488424318 97.16935483872658,165.10317601048882 96.67165898618987,164.03615393724613 96.51612903224304,162.8842439558066 96.10138248850126,162.38710028147761 95.2822580645443,162.22946890997264 92.35829493089113,162.66598602294107 90.93778801843291,161.73232239489153 88.99884792621015,161.7929501342005 88.83294930873672,160.7986511593408 88.80184331798228,161.81720122088882 87.17396313365316,161.92633104764536 86.5,159.93772678485402 87.04953917051898,161.73232239489153 87.31912442395696,161.9748331595183 90.55414746538736,161.70807129020977 91.0,161.81720122088882 91.9850230414304,162.53260597040935 92.56566820282023,162.6781114745536 95.37557603686582,162.2779708935268 96.14285714289872,162.48410409459757 96.54723502305569,163.00549818336003 96.66129032260505,164.03615393724613 97.08640552993165,165.05467522265099 98.4550691244076,165.83068536414066 100.7050691244076,166.2671887595061 101.01612903230125,166.69156546660815 101.36866359447595,166.76431560142373 102.71658986172406,167.83131227349804 103.53571428573923,169.383289699741 104.03341013827594,169.9652758163429 105.32949308759999,170.05014854476758 105.91013824887341,169.75915607137722 107.43433179729618,169.48028759106091 108.27419354842277,169.56516067862685 108.38824884791393,169.39541444063798 110.46198156685568,170.06227321514598 113.5,169.941026453831" stroke="#4dd2ff" stroke-linecap="round" stroke-linejoin="round" stroke-width="0.5"><title>2023-03-12 6.0km</title></polyline><polyline fill="none" points="149.8376681614318,169.8422628702392 146.59282511210768,169.03524634345376 146.45964125561295,169.24761958548333 145.69686098652892,168.99277165462263 145.21255605382612,169.459992490476 145.11569506727392,169.20514496405667 142.42780269059585,169.75731399131473 141.55605381168425,169.6582068977732 140.902242152486,168.9786134219903 139.55829596414696,166.6141675637482 138.58968609868316,165.62307004812465 137.48789237672463,165.22662898656563 134.8847533632652,164.87266276065202 133.43183856498217,164.03729875516728 132.97174887894653,162.89043459239474 132.89910313906148,161.65860658008023 132.37847533635795,160.9648133971932 131.17982062784722,160.75242700980743 128.06816143501783,161.26215377321932 127.65650224220008,161.19135850552993 127.29327354260022,160.75242700980743 126.239910313976,160.15774333167064 125.76771300449036,160.07278830478026 124.0,160.228539146221 126.11883408069843,160.12942499534984 127.62017937225755,161.10640413482906 131.25246636773227,160.70994969189633 132.29372197308112,160.93649523169734 132.8869955156697,161.78603759000544 132.97174887894653,162.81964018613508 133.40762331837323,163.9240286580025 134.99372197309276,164.80186940304702 137.65739910316188,165.3398979811609 137.97219730936922,165.75049728273007 138.39596412563697,165.80713157029822 140.00627802690724,167.1380304282502 140.93856502242852,168.99277165462263 141.64080717490287,169.62989057184313 142.63363228703383,169.72899768636853 143.74753363232594,169.36088517673488 143.94125560537213,169.60157423988858 144.71614349778974,169.21930317264923 146.5322869955562,169.0635627951997 148.96591928246198,169.92721169521974 151.0,169.77147214153956" stroke="#4dd2ff" stroke-linecap="round" stroke-linejoin="round" stroke-width="0.5"><title>2023-03-05 5.0km</title></polyline><polyline fill="none" points="186.29131886479445,164.90349162828352 186.44156928214943,165.3953352291137 187.98914858099306,165.09671607370547 188.33472454093862,166.15066363882215 188.27462437393842,166.6776349147258 184.26293823041487,167.78426915498858 181.66360601008637,168.99628867718275 179.15442404005444,170.71769251630758 177.39649415691383,167.95992470589408 176.28464106854517,167.028948170293 165.82721202005632,164.6751351760031 165.70701168617234,164.37651472634752 166.29298831394408,162.74287570998422 166.1277128548245,162.40911952660827 166.32303839741508,161.5483768020349 161.5,159.1242202699068 166.30801335565047,161.49567812307214 165.1961602671654,164.64000338624464 164.79048414027784,166.69520059518982 165.42153589322697,165.16697945266787 165.82721202005632,164.92105749629263 174.78213689487893,166.712766273733 176.9307178631425,167.69644130986126 178.82387312193168,170.87577973007865 182.76043405680684,168.4693247536925 184.48831385647645,167.73157245348557 188.5,166.6249378623179 187.98914858099306,164.32381694426294" stroke="#4dd2ff" stroke-linecap="round" stroke-linejoin="round" stroke-width="0.5"><title>2023-02-22 5.0km</title></polyline><polyline fill="none" points="11.5,198.12874665253912 11.669544740987476,195.10536588393006 11.902668759808876,194.6840689263845 14.318681318720337,194.80797995354078 17.084379905834794,195.83643641995877 18.02747252746485,195.89839134037175 18.451334379962645,196.18338355235028 18.832810047082603,196.05947398018907 20.64481946628075,196.33207486596802 21.1004709576373,196.2577292327478 21.768053375242744,196.55511148242658 22.361459968611598,196.4559841497612 23.633045525930356,196.61706602275808 24.48076923075132,196.13381973920332 24.51255886972649,196.3816385951941 24.851648351643234,196.53032965715101 25.360282574605662,196.56750239311077 25.80533751961775,196.3940295242428 26.674254317069426,196.54272057043272 27.29945054941345,195.9479552531193 27.659733124019112,195.88600035889976 29.503532182076015,196.3072929934351 29.64128728414653,196.46837507092278 29.71546310832491,196.02230108295043 30.573783359490335,196.0718649433329 31.52747252746485,195.78687245999754 31.845368916750886,194.57254888987518 31.919544740987476,193.46973392309883 32.343406593368854,193.06082236400107 33.31828885403229,193.25908269214415 36.1157770800055,193.2466914314573 38.5,192.31734314450296 38.23508634214522,191.87125334746815 37.069466248038225,192.32973450348072 35.511773940350395,192.66430070088973 34.49450549448375,192.68908334416483 32.120879120891914,192.37929992639693 31.093014128739014,193.18473510839976 30.89167974877637,193.80429686416028 30.97645211929921,194.2875527585711 30.255886970146094,194.53537552077614 30.075745682930574,195.10536588393006 29.736656200955622,195.25405856600264 29.111459968611598,195.15493013225932 28.38029827317223,194.6964600350184 27.384222919936292,194.6840689263845 26.970957613841165,194.94428193205385 25.604003139713313,195.03101947213872 25.317896389286034,194.83276214326906 22.107142857159488,194.86993541799893 21.503139717446174,194.78319775861746 21.206436420732643,194.51059326813993 19.065934065904003,194.9690640928893 17.370486656203866,194.646895592683 14.212715855624992,193.4821251601752 12.602040816331282,193.2466914314573 15.653846153814811,193.22190890619822" stroke="#4dd2ff" stroke-linecap="round" stroke-linejoin="round" stroke-width="0.5"><title>2023-02-10 5.9km</title></polyline><polyline fill="none" points="55.22535822837381,200.25753993881517 55.26052974379854,196.54240058214054 56.479808944801334,196.5561097792379 58.50803300039843,197.07705819400144 59.62179765518522,196.748038386213 60.07902735559037,195.36340420709166 60.16109422489535,194.14326875731058 60.5128093790845,193.75940354353224 62.54103343462339,194.04730256048788 62.927920104179066,193.85536995358416 64.83890577504644,193.88278891483787 66.78506296133855,193.2658608835336 70.1966999565484,191.5521564968658 74.10073816758813,191.01747608963342 76.0,190.3045654479647 75.89448545372579,190.38682456834067 75.7069040381466,190.05778777354863 75.74207555357134,189.74246006119938 75.10898827615893,190.0989174186252 73.47937472863123,190.5102131509775 72.77594442031113,190.53763282003638 72.61181068170117,190.3319851605629 70.43117672600783,190.72957034109277 68.98914459394291,191.2642519363726 66.60920538421487,192.6215106928139 64.86235345201567,193.16989403692423 62.72861485014437,193.32069904965465 61.0286582717672,193.00537927738333 60.18454190186458,193.03279841842595 59.22318714711582,193.85536995358416 59.000434216228314,194.48600459452427 59.07077724701958,195.11663616649457 58.55492835427867,195.11663616649457 58.1797655231785,195.47307874100807 58.09769865387352,196.00774076450034 57.71081198437605,196.1859609488165 56.93703864526469,195.8980666831194 56.655666521866806,195.15776420589827 55.94051237514941,194.78761138136906 55.131567520613316,195.0206706904719 54.686061658663675,195.71984610287473 53.724706904031336,195.8980666831194 53.009552757197525,195.9117759483488 52.763352149399,195.70613681730174 49.17585757706547,195.67871824183385 49.0,195.52791597311443 49.257924446312245,195.22631090920186 51.18063395569334,195.08921746628766 51.403386886639055,195.78839250885358 52.353017802815884,195.71984610287473 53.13851498044096,195.2126015714457 53.86539296567207,195.26743891381193 54.205384281347506,194.8561582804832 54.6039947894169,194.8424489035824 55.248805905284826,195.5416252775467 56.116369952156674,195.50049735994253 56.63221884495579,195.92548521213757 57.69908814586233,196.21337941696402 58.8831958314986,196.04886852107302 59.188015631749295,195.04808940512885 59.22318714711582,195.9529037353932 58.81285280070733,196.28192556192516 57.31220147636486,196.07628701823705 56.9487624837202,195.9117759483488 56.5384281371953,195.06179876030365 54.28745115065249,194.40374807621993 53.724706904031336,194.54084224431426 52.329570125904866,195.67871824183385 51.62613981764298,195.6650089519535 51.26270082499832,195.1303455143934 51.59096830221824,194.92470514337765 52.16543638735311,194.92470514337765 52.64611376461107,195.34969488385832 53.81849761179183,195.26743891381193 54.34607034298824,194.8972864025709 54.83847155881813,195.29485757630027 55.27225358225405,195.00696133096062 56.0343030829099,194.8561582804832" stroke="#4dd2ff" stroke-linecap="round" stroke-linejoin="round" stroke-width="0.5"><title>2023-02-05 7.1km</title></polyline><polyline fill="none" points="86.82088285230566,199.21691905512853 87.0653650254535,197.01026523227483 87.24108658745536,196.94772764408845 88.50933786077076,197.15320811709535 88.9601018675603,197.08173670493125 90.1519524618052,197.59096919676085 90.66383701187442,197.64457243831566 90.90831918505137,196.58143512616516 90.7249575551541,196.2151410194565 90.19779286923585,196.22407504096918 89.9456706281926,195.97392208154633 88.52461799659068,196.09899865386978 87.67657045839587,195.95605398465705 87.27928692699061,195.652295759166 86.55348047538428,195.51828442998521 86.5,196.06326250925486 86.55348047538428,195.54508671282383 86.81324278438115,195.52721852519608 86.95076400681864,195.63442759423924 86.93548387094052,196.0096582639526 87.08064516127342,196.2419430811351 88.86842105264077,196.09899865386978 90.87011884548701,196.9119918586366 92.1918505942449,197.22467946875986 93.00169779287535,197.0906706347596 93.52122241086909,197.2961507599539 94.06366723260726,197.2514812100344 94.69779286926496,197.37655589021597 96.23344651953084,197.13534026969864 97.41001697789761,197.28721685185155 98.07470288625336,197.22467946875986 98.27334465197055,197.03706704161596 99.02971137521672,197.0191991696629 99.297113752109,197.2514812100344 99.9312393888249,197.45696094397135 100.66468590832665,197.40335758332367 100.87860780983465,197.24254729722452 100.87096774191014,196.37595326194423 101.01612903227215,195.97392208154633 101.61205432933639,195.42000932007795 103.75891341257375,195.61655942551442 104.89728353137616,195.46467983875482 105.81409168080427,195.15198571179644 108.16723259759601,193.97267172898137 110.74957555177389,193.68677494975418 113.0797962648503,192.632522210537 113.47707979622646,191.90883262654825 113.27843803050928,190.78308094487147 113.5,191.86416022673802 113.41595925294678,192.14112872449186 113.30135823428282,192.40916188957635 112.35398981321487,192.98096313144197 112.20118845498655,193.23112495720852 111.59762308996869,193.26686230038467 110.91765704582212,193.62423490027868 109.74108658742625,193.86546055019426 109.0764006790996,193.81185490975622 107.93039049234358,194.0173430132927 105.79881154498435,195.12518330416788 104.81324278435204,195.45574573692284 103.34634974534856,195.58975716532586 101.6960950763605,195.36640466647077 100.95500848896336,195.93818588398426 100.74872665535077,195.75950466939685 100.97792869264958,196.02752634949138 100.85568760609021,196.331283225285 100.94736842103885,196.67970888447599 100.80984719863045,196.83158628601814 100.86332767404383,197.13534026969864 100.69524617993739,197.34975418866088 99.98471986415097,197.45696094397135 99.12903225806076,197.13534026969864 99.06027164685656,196.99239735467563 98.30390492358129,197.00133129394817 97.98302207130473,197.19787771895062 97.34889643461793,197.2514812100344 96.9745331069571,197.2514812100344 96.77589134123991,197.11747241857665 95.15619694397901,197.1621420393567 94.28522920203977,197.04600097615912 93.33786078097182,197.18894380047277 92.91765704582212,197.05493490977824 92.32173174872878,197.21574555311963 91.19100169779267,196.99239735467563 88.80730050933198,196.13473478337983 88.28013582344283,196.05432847073826 87.07300509334891,196.23300906152872 86.9202037351497,195.92031777954253 87.03480475384276,195.5986912530061 87.66893039047136,195.99179017464485 88.36417657043785,196.13473478337983 89.90747028859914,195.97392208154633 90.13667232598527,196.22407504096918 90.48811544990167,196.25087709978834" stroke="#4dd2ff" stroke-linecap="round" stroke-linejoin="round" stroke-width="0.5"><title>2022-12-15 10.0km</title></polyline><polyline fill="none" points="124.0,198.61970566848322 124.23842874544789,195.37982792990078 126.20341047504917,195.51442455674987 126.4582825821999,195.6874770698123 128.12728380024782,196.07203703012055 128.39037758830818,194.95680866199837 128.3246041412931,194.61070052367722 127.60931790500763,194.56262984468776 127.36266747870832,194.24536272544356 126.47472594396095,194.28381940491818 126.12941534712445,194.12037840463017 125.57034104751074,194.32227606815286 124.98660170525545,194.28381940491818 124.18909866016475,193.8223381767457 124.10688185141771,194.26459106719994 124.30420219246298,194.57224398251856 126.1458587089437,194.29343357226753 126.42539585873601,194.62992878819932 128.48081607796485,195.34137171418115 129.87028014616226,195.6297929354114 130.61845310599892,195.46635435576172 131.27618757612072,195.67786304995388 132.8629719853925,195.6970910886448 133.73447015834972,195.64902098428138 134.09622411691817,195.48558243921434 135.40347137636854,195.67786304995388 136.05298416566802,195.6297929354114 136.357186358131,195.399056031667 137.1218026796414,195.399056031667 137.31912302071578,195.60095085445937 138.00152253347915,195.74516116758605 138.190621193673,195.947055221528 138.38794153471827,195.71631912327575 138.79080389768933,195.8028452287399 139.0621193666011,195.6970910886448 139.24299634594354,194.28381940491818 139.97472594399005,193.6396678765086 141.66839220462134,193.85118082218105 143.06607795372838,193.78388130194799 144.27466504264157,193.4666114639258 146.65895249697496,192.2167498097624 149.84074299639906,191.78410138576146 150.7944579781033,191.38029433152406 150.90956151037244,191.81294467812404 151.0,191.78410138576146 150.11205846531084,192.13022028979321 147.38246041414095,192.4571091552716 144.20066991474596,193.89925187750487 143.00852618759382,194.22613437955442 141.61084043851588,194.3126619038885 140.15560292327427,194.1107642190036 139.90895249694586,194.3991893458151 139.85962241172092,195.22600296940072 139.57186358098988,196.22586055866122 139.14433617540635,196.38929777240992 138.77436053592828,196.48543717261055 136.95736906214734,196.04319508955814 135.280146163248,196.07203703012055" stroke="#4dd2ff" stroke-linecap="round" stroke-linejoin="round" stroke-width="0.5"><title>2022-12-12 7.2km</title></polyline><polyline fill="none" points="161.9368258859613,198.02224863461743 162.15523882897105,194.96963480499835 162.08243451471208,194.68990916513576 161.51040061633103,194.61693714713329 161.5,194.25207636241248 164.44337442220422,194.30072453397588 167.70916795072844,195.29800751378934 170.04930662561674,195.7601601076094 178.08898305083858,195.6385411840747 178.99383667181246,195.71151255363657 180.5227272727061,196.21014900597947 181.00115562404972,196.05204499916726 181.63559322035871,195.73583633319504 181.93721109401667,194.62909915336786 181.9892141756718,193.60748614617478 182.20762711868156,193.26694645967655 182.7380585516221,193.1818113804111 184.24614791985368,193.4858649453745 184.5685670261737,193.31559504804318 186.08705701079452,193.3642436158625 187.17912172572687,193.0723519001258 188.5,192.43991730692505 188.31278890604153,191.97775136538985 185.61902927584015,192.7926216437845 184.38135593221523,192.82910823755083 182.0724191062618,192.54937738931767 181.16756548540434,193.35208147585945 180.99075500766048,193.83856607326743 181.13636363635305,194.3128865736362 180.96995377499843,194.60477513964724 181.0323574729846,194.95747283482342 180.7619414483779,195.2493597642533 180.27311248076148,195.2007119941627 179.63867488439428,195.39530295107397 179.34745762712555,195.10341639216495 178.75462249614066,195.00612070783973 178.61941448383732,194.8358530621481 178.5674114021822,194.94531086332427 177.61055469955318,194.84801504520874 176.20647149457363,195.11557834690757 175.7176425269572,195.12774030038418 175.395223420579,194.90882494115795 173.2526964560966,194.98179677388543 172.00462249614066,194.82369107779232 170.73574730358087,195.00612070783973" stroke="#4dd2ff" stroke-linecap="round" stroke-linejoin="round" stroke-width="0.5"><title>2022-12-06 5.0km</title></polyline><polyline fill="none" points="11.5,228.29425861632626 11.730980751628522,225.7090699516193 11.854720440023812,225.8344725856732 13.587076077063102,225.85376528331108 15.855637030268554,226.6061773068359 15.938130155875115,226.7701637187056 15.814390467508929,226.7701637187056 15.921631530713057,226.59653103810706 15.682401466619922,226.6061773068359 15.476168652647175,226.3939591595481 15.657653528935043,226.45183688504767 15.863886342849582,225.06276133350184 15.731897341902368,225.1495791754278 15.748395967064425,225.42932499263406 16.053620531660272,225.68013085773418 17.299266727815848,225.98881405236898 18.05820348308771,225.84411893499055 18.734647112782113,226.05633836190827 19.790559120127,226.08527733641677 22.07561869849451,225.88270432208083 22.710815765400184,226.05633836190827 23.64298808434978,225.95987504727964 23.8739688359492,225.77659446830512 24.690650779142743,225.77659446830512 24.7731439047202,225.94058237207355 25.779560036724433,226.22997207112348 26.56324472965207,226.09492365919868 26.75297891846276,224.63831736089924 27.51191567373462,224.00164769739058 29.689734188839793,224.2235179332638 30.74564619618468,224.1270526796725 31.917048579314724,223.77013035392156 34.1278643446567,222.59324143517006 34.87855178737664,222.4003073762433 36.858386801119195,222.23631310518977 37.93904674611986,221.94691073076683 38.359761686529964,221.70574138368102 38.491750687448075,222.17843270378216 38.5,222.07231853912526 36.81714023835957,222.6318281979693 34.49908340975526,222.9405217124222 33.294683776417514,223.54825901480217 31.05912007339066,224.51291308178043 29.368010999110993,224.59008496625756 29.186526122823125,224.69619620079175 27.66040329975658,224.51291308178043 23.64298808434978,226.44219060002797 19.823556370305596,226.51936085173656" stroke="#4dd2ff" stroke-linecap="round" stroke-linejoin="round" stroke-width="0.5"><title>2022-11-27 5.6km</title></polyline><polyline fill="none" points="49.0,226.59935555000993 50.07120085012866,226.7559318855856 50.36769394262228,226.66645972222614 50.855472901137546,226.91250798923284 51.18065887351986,226.8565879788148 52.89266737509752,227.3822349088441 53.179596174217295,226.05133654937526 53.02656748139998,225.8276545082408 53.08395324117737,226.28620218321885 53.562167906493414,226.5881715171854 55.07332624861738,226.8789559865545 55.79064824653324,226.66645972222614 56.54622741765343,226.93487598508364 59.310308182786684,226.91250798923284 59.84590860782191,226.7335638518416 61.30924548354233,226.91250798923284 62.093517534493,226.8677719832849 62.44739638682222,226.59935555000993 63.39426142396405,226.5881715171854 63.49946865031961,226.80066793884907 64.59936238039518,227.13618773507187 65.34537725819973,227.0355319080045 65.66099893726641,226.71119581333915 65.76620616362197,226.16317739248188 65.64187035069335,225.71581331024208 65.79489904351067,225.2572631612129 66.67481402761769,224.54147358713817 68.88416578108445,224.8210794663537 70.38575982995098,224.70923720340215 71.94473963865312,224.18357698266482 74.18278427200858,222.96448258063901 76.0,222.6177650911486 74.32624867156846,222.89737605854316 71.89691817207495,224.20594555592834 70.34750265668845,224.69805297059793 68.91285866091494,224.78752679988247 66.92348565353313,224.4855523225633 66.56960680126213,224.5526578365243 65.76620616362197,225.30199984865612 65.62274176406208,225.71581331024208 65.74707757704891,226.16317739248188 65.57492029748391,226.46514707783354 65.64187035069335,226.81185194922728 65.38363443140406,227.04671589351346 64.3124335812754,227.09145182373322 63.18384697131114,226.554619411545 62.40913921355968,226.56580344793474 62.036131774657406,226.84540397319506 61.137088204035535,226.90132398950664 60.419766206119675,226.72237983319064 57.397449521755334,226.6776437467779" stroke="#4dd2ff" stroke-linecap="round" stroke-linejoin="round" stroke-width="0.5"><title>2022-11-23 5.3km</title></polyline><polyline fill="none" points="86.5,225.64989600601984 88.79856115108123,225.92751211590803 91.3669064748683,226.63416838923877 91.70143884891877,225.14513778725086 91.62589928059606,224.79180576328508 91.29136690648738,224.6277583963456 90.75179856113391,224.67823453324672 90.27697841724148,224.28704391336942 89.11151079135016,224.32490112616506 88.8525179856224,224.4637108038005 88.89568345324369,224.58990127961442 92.56474820140284,225.8391797873992 93.70863309357082,225.97798770284135 94.31294964026893,225.63727707659564 95.06834532372886,225.7634663108838 95.9856115108123,225.59942028028308 96.16906474821735,225.86441760222078 96.68705035973107,225.9401310146568 99.66546762589132,225.86441760222078 100.4100719424896,226.10417657672951 101.67266187054338,226.0410821564583 102.08273381291656,225.75084739346494 103.14028776978375,225.73822847470728 103.38848920859164,226.0158443790133 104.65107913670363,226.33131621326174 105.74100719427224,226.05370104319445 105.71942446043249,225.54894453316228 105.881294964056,225.29656547717605 105.76258992811199,224.66561550099868 105.96762589929858,224.18609128703247 106.90647482016357,223.44156302940246 110.1762589928112,223.7570416720264 111.96762589929858,223.39108636909805 113.23021582735237,222.8484609222287 113.5,223.34060968748963 112.45323741005268,223.80751817743294 110.57553956832271,224.28704391336942 109.24820143886609,224.21132945166028 109.03237410075963,224.35013926137617 107.3381294964347,224.04728128637362 107.00359712226782,224.13561494184978 106.73381294962019,224.48894890960946 106.60431654681452,225.97798770284135 106.28057553956751,226.8991634124468 105.54676258994732,227.15153907776403 102.65467625902966,226.59631190929213 94.51798561151372,226.77297537958657 91.4856115108123,226.19250870901305" stroke="#4dd2ff" stroke-linecap="round" stroke-linejoin="round" stroke-width="0.5"><title>2022-11-18 5.5km</title></polyline><polyline fill="none" points="124.0,227.95875928016176 124.29705304518575,224.85737169697677 124.99724950885866,225.03105156960373 125.67622789787129,224.93180595957529 127.52220039296662,225.14270278041658 129.3257367386832,225.76298534946545 129.6121807465679,224.43557664969558 129.5591355599463,223.85250452729815 128.7104125736514,223.81528705937671 128.26483300584368,223.41829999967013 127.14027504913975,223.46792345563154 126.91748526523588,223.7532579198887 127.01296660123626,223.85250452729815 129.8986247543944,224.82015454793145 131.74459724948974,225.20473118498194 132.46601178782294,224.9566173699568 133.30412573675858,225.24194821198034 136.38074656185927,225.22954253762873 136.97485265223077,225.0186458729222 138.6086444007815,225.24194821198034 139.43614931235788,225.19232550671586 139.98781925346702,224.93180595957529 140.84715127694653,224.94421166543907 141.10176817286992,225.19232550671586 142.40667976421537,225.4652501257733 143.43575638503535,225.22954253762873 143.6055009822594,224.42317089002609 143.46758349705487,223.9145336143265 143.64793713163817,223.45551759363298 144.57092337909853,222.61191589706868 148.09312377206516,222.8848465218398 149.504125736712,222.58710399059055 150.88330058928113,222.04124071983097 151.0,222.53748016190366 148.4113948919112,223.43070586561953 145.8546168958419,223.4803293163277 145.12259332020767,223.21980596583307 144.67701375245815,223.35627065017616 144.4542239685543,223.65401122844196 144.34813359525288,224.9566173699568 144.06168958736816,225.97388067553402 143.1917485265294,226.2716146078892 141.21846758347237,225.775390967392 132.47662082512397,225.8870414695848" stroke="#4dd2ff" stroke-linecap="round" stroke-linejoin="round" stroke-width="0.5"><title>2022-11-06 5.5km</title></polyline><polyline fill="none" points="161.5,233.31434389376955 162.12257281545317,229.9619087426545 162.56492718443042,220.78549743857002 162.94174757279688,219.0804345132492 163.04004854371306,219.25285733642522 165.03883495141054,219.19538308023766 170.65837378642755,220.45981250210025 171.0515776698594,217.77767898769525 170.90412621351425,218.5440069023898 171.51031553390203,218.984643985008 174.4265776699176,219.5785444433859 180.43932038830826,218.39074157885625 180.83252427179832,218.39074157885625 180.9144417475909,219.46359611958906 182.2578883494716,219.27201541773684 183.61771844659233,219.3486477227998 184.12560679606395,219.67433465748036 186.2882281553466,219.5977024902968 186.97633495146874,219.11875071037502 186.99271844665054,218.40989975140837 188.40169902914204,217.98841948750487 188.5,217.01134783015004 187.9757281554048,216.6856561062159 187.0910194175085,217.87347015435807 187.25485436891904,218.33326704913634 186.89441747573437,218.4865324213024 186.3046116505284,219.46359611958906 184.50242718443042,219.6934926942631 183.61771844659233,219.3486477227998 178.50606796116335,219.3486477227998 178.0964805824915,219.6551766187331 176.85133495146874,219.6551766187331 175.5570388349588,219.21454116767563 174.29550970869604,219.5785444433859 172.10012135922443,219.17622499080608 167.00485436891904,217.50946345145348 166.8410194174503,217.20293092356587 167.23422330094036,217.06882277947443 168.98725728149293,216.85808120950242 169.56067961163353,217.50946345145348 170.11771844653413,217.47114691387105 169.54429611645173,217.4519886420021 168.95449029124575,216.89639787684428 168.02063106792048,216.89639787684428 167.0703883494716,217.03050614862877 166.95570388343185,217.52862171718152 172.1820388349588,219.27201541773684 170.7894417475909,218.4673742568848 170.87135922326706,217.77767898769525" stroke="#4dd2ff" stroke-linecap="round" stroke-linejoin="round" stroke-width="0.5"><title>2022-11-02 5.0km</title></polyline><polyline fill="none" points="12.331408775935415,261.1672794127371 12.289838337164838,260.9120950588913 11.551963048463222,260.81488182262547 11.5,260.462483151794 11.770207852183376,258.63971415253036 11.770207852183376,256.962741132942 11.9364896073821,256.6103306469304 11.842956120090093,255.3222003632036 12.071593533502892,252.6243712705982 12.289838337164838,251.60355455180252 12.466512701997999,251.73723344780592 14.534642032289412,251.66431770563213 17.195150115469005,252.49069340692222 17.454965357959736,250.7528670233296 17.319861431897152,251.15390621448023 17.506928406481165,251.44557020141656 19.637413394870237,251.93167520068528 22.952655889152084,251.23897495382698 24.07505773671437,251.2146696061609 24.709006928373128,251.53063872476923 25.05196304846322,251.32404363020032 26.454965357959736,251.3605016150541 26.881062355649192,250.97161584662535 27.515011547366157,251.28758563374868 28.31524249416543,251.00807394335425 28.918013856746256,251.27543296571093 29.18822170898784,251.98028558748047 29.9364896073821,252.21118464381289 30.98614318697946,251.99243818094692 31.162817551929038,251.08099010204023 31.0381062355591,250.61918698181398 31.235565819835756,250.13307642858854 31.879907621187158,249.48897677696368 32.51385681290412,249.3552952646205 34.342956120031886,249.6469638182607 35.548498845193535,249.6469638182607 36.889145496475976,249.3917538743117 38.30254041560693,248.83272058726288 38.5,249.2580722488492 37.35681293299422,249.79279781735386 35.82909930712776,250.18168757648527 34.24942263273988,250.27890981056407 32.30600461893482,250.06015966818813 32.01501154730795,250.40043748745666 31.63048498838907,252.63652379596897 30.809468822088093,252.9403365118851 27.868360277148895,252.442083236092 19.969976905325893,252.60006621604407 17.600461893714964,252.1018114644612 17.3094688221463,253.94898896698578" stroke="#4dd2ff" stroke-linecap="round" stroke-linejoin="round" stroke-width="0.5"><title>2022-10-28 6.2km</title></polyline><polyline fill="none" points="49.0,257.92132134532585 49.16901408456033,255.3273723036109 49.34859154932201,254.8579848913796 49.51760563382413,255.03091731540917 50.806338028167374,254.90739418150042 51.82042253523832,255.01856500787835 53.95422535215039,255.74734891511616 54.38732394366525,255.64853102476627 54.630281690100674,254.32683370183076 54.53521126759006,253.88214712684567 54.21830985916313,253.733917892132 53.60563380282838,253.7833276579404 53.25704225350637,253.43745885819226 52.126760563405696,253.49922121899726 51.96830985916313,253.64745075166138 52.09507042251062,253.857442267421 55.338028169062454,254.96915576477477 56.39436619722983,255.15444031860534 60.86267605633475,254.49976691255142 60.90492957748938,255.11738343136676 62.383802816912066,255.01856500787835 63.35563380282838,255.25325862710451 65.83802816900425,254.94445113540132 65.95422535209218,255.17914490357362 67.17957746476168,255.48795177457941 68.1725352111971,255.38913366469205 68.38380281691207,255.2162017712035 68.36267605633475,254.69740455401188 68.53169014083687,254.4750621838175 68.40492957748938,253.86979469778453 68.60563380282838,253.41275390471856 69.5246478873305,252.63454519469815 72.11267605627654,252.91865373755718 73.1478873239248,252.86924360587727 74.35211267601699,252.63454519469815 75.73591549292905,252.07867865467415 76.0,252.51101952559839 74.7746478872723,253.0421789753891 73.15845070424257,253.46216380647093 71.90140845067799,253.41275390471856 71.67957746476168,253.52392615416466 70.0,253.23981908405403 69.64084507041844,253.3386390129599 69.41901408450212,253.67215565547667 69.35563380277017,254.7468139121047 69.02816901408369,255.96968886259128 68.15140845067799,256.2414371124323 67.39084507036023,256.1673240161108 67.26408450701274,255.94498444491182 66.84154929581564,256.00674547937524 65.78521126764826,255.75970114552183 61.2746478873305,255.82146227797057" stroke="#4dd2ff" stroke-linecap="round" stroke-linejoin="round" stroke-width="0.5"><title>2022-10-20 5.2km</title></polyline><polyline fill="none" points="92.59795918362215,256.2242592408584 93.00204081623815,256.8471112581756 94.06734693865292,257.1477977551258 95.1693877549842,256.7397231156501 98.03469387744553,257.04040977158 98.23673469386995,256.7182454802969 98.71428571420256,257.2337081009755 99.55918367346749,257.4484838067292 100.16530612239148,257.2337081009755 102.95714285701979,257.51291647410835 103.91224489791784,256.61085726962483 104.48163265292533,257.1263201629481 105.82244897959754,256.8041560079728 107.1265306121204,256.99745456234086 108.76122448977549,256.7612007486896 108.98163265292533,258.3290618247993 109.25714285706636,258.09280956063594 109.31224489794113,256.5249466601672 109.82653061219025,256.15982616449764 112.85714285704307,257.06188737282355 113.5,258.13576453822316 113.05918367346749,256.39608067787776 111.44285714277066,252.55154125203262 109.18367346923333,253.34622855469934 108.50408163259272,254.46308112777479 106.77755102037918,254.74229331102106 105.89591836731415,254.74229331102106 105.54693877545651,254.39864749246044 100.0367346938001,254.4201253731735 99.59591836726759,254.0979569240444 97.13469387753867,254.57047047448577 96.69387755100615,254.22682436501782 102.09387755102944,253.4750964728446 102.36938775505405,253.99056732743338 102.02040816319641,254.52751474254183 99.4306122448761,254.22682436501782 97.26326530601364,254.57047047448577 96.49183673469815,254.29125805487274 100.29387755086645,253.58248634211486 102.31428571417928,253.51805242734554 102.35102040809579,254.18386856048892 102.05714285711292,254.52751474254183 99.37551020400133,254.22682436501782 97.13469387753867,254.54899260964885 96.51020408165641,254.31273594692175 98.03469387744553,254.03352317291137 98.51224489789456,254.3342138367443 101.98367346927989,254.63490405520133 102.31428571417928,254.37716960943362 102.33265306113753,253.51805242734554 101.08367346925661,253.4106625240238 95.05918367335107,254.65638191089965 92.32244897948112,254.1623906547611 86.75714285706636,252.29380416145432 86.5,251.9501541984646 86.904081632616,251.69241634452192 88.85102040809579,251.67093817521527" stroke="#4dd2ff" stroke-linecap="round" stroke-linejoin="round" stroke-width="0.5"><title>2022-09-24 5.1km</title></polyline><polyline fill="none" points="148.5454545454122,259.8041914785863 149.61264822119847,259.1178895230405 150.8399209487252,254.50092834205134 145.8774703554809,251.50612339074723 141.7687747036107,256.37267371604685 141.7687747036107,259.4922361433273 143.95652173901908,260.42810165468836 148.49209486157633,260.4904926359304 149.66600790503435,259.7418004247593 151.0,254.25136184343137 146.30434782616794,251.31894757662667 141.87549407128245,256.4350651263376 141.98221343872137,260.0537556281779 144.91699604713358,260.1785376634216 145.82411067187786,260.80244744365336 144.86363636353053,261.73831087659346 125.22727272706106,262.861345036712 124.42687747022137,263.48525197961135 125.8142292490229,262.4246097841533 146.41106719360687,262.923735760618 149.5592885373626,262.17504663724685 137.39328063232824,261.73831087659346 138.40711462451145,246.88910263794241 137.82015810278244,246.7643177920836 135.63241106714122,261.98787420796 124.0,261.86309255548986 124.1600790512748,262.54939131764695 149.66600790503435,262.861345036712 147.6916996045038,261.73831087659346 145.50395256909542,262.2374374339124 137.3399209487252,261.55113830877235 138.19367588916793,246.51474802038865 136.16600790503435,261.55113830877235 134.40513833984733,262.2374374339124 125.5474308298435,261.86309255548986 125.44071146240458,262.54939131764695 150.94664031616412,263.1732985905255 143.79644268751144,262.923735760618 149.23913043481298,262.861345036712 149.23913043481298,262.05026502447436 146.09090909082443,261.8007017194177" stroke="#4dd2ff" stroke-linecap="round" stroke-linejoin="round" stroke-width="0.5"><title>2022-09-22 5.0km</title></polyline><polyline fill="none" points="173.84896467725048,257.0766429074574 174.91778319119476,256.9228202250815 175.70706455543404,257.44197125631035 176.64433617546456,257.3073766868911 178.6668696711422,257.63424903976556 179.7356881852029,257.1535541998164 179.70280146162258,256.8074531278544 179.93300852621906,256.7497695518832 180.3276492083678,257.42274346679915 182.2350791717763,257.1920098337723 182.9257003653911,257.46119904382795 184.37271619972307,256.7497695518832 184.38915956154233,257.3650600859837 184.65225334954448,257.6150212705543 184.81668696715496,256.5959465928754 185.14555420225952,256.3844398117071 188.02314250922063,257.1535541998164 188.5,258.0572594473924 187.64494518883293,255.23076212748128 186.64190012181643,253.09643910708837 185.19488428748446,253.6156010673585 184.75091352016898,253.30794971434807 182.9257003653911,253.03875435327063 180.70584652863909,254.78851707362628 177.51583434839267,254.84620127212838 177.10475030448288,253.98093637276907 174.29293544456596,254.38472717172408 173.30633373942692,254.61546436839853 174.45736906211823,255.13462198991328 179.1930572472629,255.0961659206514 179.93300852621906,254.78851707362628 181.28136419004295,254.78851707362628 182.11997563956538,255.0961659206514 183.8300852618995,254.90388545228052 184.14250913524302,254.09630526401452 183.583434835542,253.59637287308578 182.62971985386685,253.5002318709885 181.18270401953487,254.28858658669924 180.2289890378015,253.59637287308578 178.92996345920255,253.96170821713167 177.30207064555725,253.92325189970143 177.26918392209336,254.88465739428648 175.93727162003051,254.65392053933465 173.89829476253362,254.98079766404408 172.86236297199503,254.65392053933465 172.15529841656098,254.9423415622441 170.9878197320504,254.90388545228052 164.24604141293094,252.86569998202322 164.64068209507968,252.25039421652036 163.55542021919973,251.94274055262213 162.9141291108681,252.4042208531464 161.5,252.15425250247063 161.76309378806036,252.3849925307295 164.22959805111168,252.67341715407383 166.46589524968294,252.28885088789684 167.17295980505878,252.94261305624968 168.06090133980615,252.78878687528777 168.57064555416582,252.98106958111748 168.24177831917768,255.86528575996635 167.78136419004295,255.86528575996635 168.8008526188205,256.3075281939091 168.19244823389454,256.3844398117071 168.0444579781033,256.98050374619197" stroke="#4dd2ff" stroke-linecap="round" stroke-linejoin="round" stroke-width="0.5"><title>2022-09-09 5.2km</title></polyline></svg>