<?xml version="1.0" encoding="utf-8" ?>
<svg baseProfile="full" height="300mm" version="1.1" viewBox="0,0,200,300" width="200mm" xmlns="http://www.w3.org/2000/svg" xmlns:ev="http://www.w3.org/2001/xml-events" xmlns:xlink="http://www.w3.org/1999/xlink"><defs /><rect fill="#222222" height="300" width="200" x="0" y="0" /><text fill="#FFFFFF" style="font-size:12px; font-family:Arial; font-weight:bold;" x="10" y="20">Over 5km Runs</text><text fill="#FFFFFF" style="font-size:4px; font-family:Arial" x="10" y="280">ATHLETE</text><text fill="#FFFFFF" style="font-size:9px; font-family:Arial" x="10" y="290">feng qijun</text><text fill="#FFFFFF" style="font-size:4px; font-family:Arial" x="120" y="280">STATISTICS</text><text fill="#FFFFFF" style="font-size:3px; font-family:Arial" x="120" y="285">Number: 24</text><text fill="#FFFFFF" style="font-size:3px; font-family:Arial" x="120" y="290">Weekly: 1.3</text><text fill="#FFFFFF" style="font-size:3px; font-family:Arial" x="141" y="285">Total: 139.3 km</text><text fill="#FFFFFF" style="font-size:3px; font-family:Arial" x="141" y="290">Avg: 5.8 km</text><text fill="#FFFFFF" style="font-size:3px; font-family:Arial" x="167" y="285">Min: 5.0 km</text><text fill="#FFFFFF" style="font-size:3px; font-family:Arial" x="167" y="290">Max: 10.0 km</text><polyline fill="none" points="12.0,54.18818186564022 12.127158555726055,51.04916327817773 12.466248037701007,49.44658735663688 15.659340659389272,49.760495275550056 18.937205651542172,50.68569389247568 19.21978021977702,50.07440256346308 22.808477237063926,50.8674286910682 33.67346938775154,50.68569389247568 37.43171114596771,51.44567437049409 38.73155416006921,51.04916327817773 39.24018838297343,47.992689819438965 39.64992150705075,47.480518144890084 42.178963893209584,47.74486502535001 42.67346938769333,47.56312659315881 44.467817896278575,47.67877834722458 48.0,46.45616975668236 47.7880690737511,45.81181813435978 44.072213500738144,46.918779538202216 42.41915227624122,46.95182304158516 39.409733123960905,46.52225695220113 38.13814756664215,47.67877834722458 37.813186813145876,50.1404882279021 36.48508634220343,50.38830922047782 35.52433281001868,50.22309526910249 34.37990580848418,49.545716241322225 33.1224489795859,49.57875918886566 32.64207221346442,49.925709716262645 31.427001569827553,50.008316871055285 30.635792778688483,50.008316871055285 30.254317111393902,49.760495275550056 27.30141287285369,49.85962396097602 27.004709576140158,49.72745236642368 26.7221350078471,49.09963576486916 22.15855572995497,49.942231150736916 19.742543171101715,49.512673286750214 15.447409733140375,47.92660324611643 12.324960753554478,48.09181962694856 12.240188383089844,46.95182304158516 13.638932496134657,47.711821689779754 15.786499215115327,47.82747333377483" stroke="#4dd2ff" stroke-linecap="round" stroke-linejoin="round" stroke-width="0.5"><title>2023-04-04 6.0km</title></polyline><polyline fill="none" points="62.86143543757498,64.51615482242778 85.90326022263616,65.9096935566049 93.65008062403649,42.91619137348607 74.58098425064236,34.09033871861175 60.87507123313844,49.65168664162047 60.27916197106242,63.12261520465836 68.2246187934652,67.30323140625842 88.88280652929097,63.58712850930169 92.6568985208869,45.47103683790192 77.16325771808624,33.393559366231784 60.27916197106242,51.97426642663777 61.47098049335182,65.9096935566049 88.48553368914872,65.44518074346706 93.05417136196047,43.845226431963965 77.56053055915982,32.92903967620805 68.2246187934652,39.896824719849974 60.27916197106242,51.277492749039084 60.080525550059974,64.28389828116633 82.52644107211381,68.0 89.47871579229832,64.98066783254035 92.85553494095802,43.845226431963965 76.96462129615247,32.92903967620805 60.87507123313844,50.580718849785626 60.080525550059974,64.7484113399405 79.34825834352523,67.07097515906207 88.08826084807515,64.51615482242778 93.05417136196047,42.683932547224686 75.77280277386308,32.46451988723129 60.676434812135994,50.812976841116324 60.87507123313844,65.21292430046014 72.99189288634807,67.07097515906207 89.47871579229832,64.05164171452634 93.05417136196047,43.61296770395711 75.77280277386308,32.0 60.47779839206487,50.812976841116324 61.07370765320957,65.44518074346706 84.71144169941545,66.60646259225905 89.08144295122474,64.28389828116633 92.85553494095802,42.45167369698174 76.76598487701267,32.46451988723129 61.27234407328069,49.65168664162047 59.6832527089864,64.28389828116633 88.08826084807515,65.21292430046014 92.06098925881088,43.14845017483458 77.16325771808624,32.92903967620805 67.43007311038673,39.896824719849974 60.87507123313844,50.812976841116324 60.676434812135994,65.44518074346706 82.12916823104024,67.07097515906207 88.48553368914872,64.28389828116633 92.259625678882,42.45167369698174 76.3687120359391,32.69677979359403 63.854617540724576,44.7742610971909 59.6832527089864,64.51615482242778 66.43689100816846,67.30323140625842 88.2868972690776,65.44518074346706 92.85553494095802,44.30974381300621 77.95780340023339,32.92903967620805 68.2246187934652,40.129083841107786 60.27916197106242,51.74200855824165 59.6832527089864,64.51615482242778 64.25189038179815,66.83871888788417" stroke="#4dd2ff" stroke-linecap="round" stroke-linejoin="round" stroke-width="0.5"><title>2023-03-30 5.2km</title></polyline><polyline fill="none" points="140.98154180229176,64.0942843957746 141.33333333331393,61.17572276415012 139.03831239329884,60.41179635307344 134.80006204429083,59.82415850790858 134.54878237936646,59.58910284776357 134.7665580890025,56.572528727177996 135.83868465945125,56.33746893989155 136.65953156503383,48.50197195528017 136.2909880563966,48.32566945916915 135.93919652549084,48.61950685939519 134.78331006661756,48.541150264951284 135.06809368688846,48.48238279734505 134.80006204429083,48.22772355546476 130.81309136020718,49.226769342436455 129.1881495268317,49.18759117781883 128.21653482230613,48.30608028257848 126.96013649756787,45.896595756625175 124.78237940126564,44.074769567116164 124.1793082052609,43.937642139266245 123.87777260737494,43.42831080383621 120.62788894050755,42.74267025514564 117.9308205366251,41.46933107127552 117.29424538533203,39.92172242719971 117.14347758633085,38.236969196470454 116.25562277022982,37.081141252681846 114.84845664643217,36.84605672003818 110.61020629742416,37.62967066807323 109.80611136951484,37.43376749199524 108.04715371486964,36.08202992724546 107.20955483161379,35.905715604210855 105.33333333331393,36.12121086510888 107.56134636257775,35.96448706391675 109.50457577162888,37.218273758888245 110.61020629742416,37.61008035978011 114.78144873579731,36.88523749622982 116.18861485953676,37.100731616970734 117.09322165342746,38.27614967827685 117.27749340777518,39.98049261205597 117.9308205366251,41.48892097118369 120.30960136494832,42.68390094712959 123.74375678598881,43.34995201250422 124.2295641382807,43.99641104940383 124.78237940126564,44.09435919135285 126.273305413255,45.21096434810897 127.22816814016551,46.34715215701726" stroke="#4dd2ff" stroke-linecap="round" stroke-linejoin="round" stroke-width="0.5"><title>2023-03-28 5.0km</title></polyline><polyline fill="none" points="155.61516853928333,53.562255267839646 155.94382022460923,50.31044905092858 155.75421348307282,49.76354693483154 155.4382022470818,49.57139162905514 153.99719101114897,49.9409208286379 153.89606741565512,49.66007872611226 152.0,49.2166426780168 152.10112359543564,48.758423949810094 154.16151685389923,49.290548783756094 158.96488764038077,49.30533000022115 163.4396067414782,50.66519522489398 165.8918539325241,51.079064622856095 175.5617977527436,50.901692173836636 178.6713483146159,51.53727574071672 179.74578651675256,51.10862667579204 180.2514044943382,48.43323555366078 180.61797752801795,47.97501425619703 183.00702247180743,48.25585974579735 183.1713483145577,48.04892101875157 185.18117977521615,48.122827742176014 188.0,47.102911506037344 187.84831460670102,46.437744732160354 185.82584269659128,47.22116304542578 184.2837078651064,47.47244723427866 182.6278089887346,47.44288441204117 180.70646067411872,47.08813005659613 180.22612359537743,47.22116304542578 179.22752808983205,48.04892101875157 178.97471910103923,48.743642675486626 179.03792134823743,49.453142078767996 178.4691011235118,49.48270447572577 178.0646067415364,49.9409208286379 178.05196629208513,50.369573475807556 177.6601123594446,50.56172768387478 176.7499999999418,50.23654348462878 176.4087078651064,49.4087984716316 175.7514044943382,49.09839282750909 174.84129213477718,49.290548783756094 174.24719101114897,50.11829449729703 173.22331460670102,50.28088682911766 172.5660112358746,50.28088682911766 172.21207865164615,50.04438882939576 169.3300561797223,50.08873223482806 169.0646067414782,49.4087984716316 166.3595505616977,49.83745275127876" stroke="#4dd2ff" stroke-linecap="round" stroke-linejoin="round" stroke-width="0.5"><title>2023-03-26 5.6km</title></polyline><polyline fill="none" points="48.0,103.11269903912034 46.975494071200956,103.12933812654228 44.34308300400153,102.26410324784229 43.98735177866183,102.53032987136976 42.63557312259218,102.49705156803248 39.618972332100384,103.01286447780149 38.238735177903436,103.01286447780149 37.4703557312605,102.44713409985707 36.41739130439237,100.20083163611707 34.52490118588321,98.66999972320627 34.01264822133817,98.53688320047513 33.75652173918206,98.07097448375134 31.052964426926337,97.55514536591363 28.733596837962978,96.40700351359555 28.16442687745439,95.10909393482143 28.03636363631813,93.7113331779401 27.36758893285878,92.72956521861488 26.001581027754582,92.49660243019753 22.52964426879771,93.12892919583828 21.732806324143894,92.97916782321408 19.07193675893359,90.99897626398888 19.24268774705706,90.2168769302516 18.218181818258017,87.95375907234848 17.93359683791641,87.78735206199053 17.919367588940077,87.10508147817745 17.464031620533206,86.57257555093383 17.364426877524238,85.9235815138527 17.150988142297138,85.62404490093468 16.368379446619656,85.35778965486679 15.898814229294658,84.60894435799855 15.756521739182062,84.30940524071048 16.283003952528816,84.04314776841784 13.508300395333208,79.81625000029453 12.0,76.8373837039253 13.337549407151528,79.54998491890728 17.008695652184542,85.27458479798224 16.894861660082825,85.54084018498543 17.876679841894656,87.00523675420845 17.862450592860114,87.87055558919383 18.246640316268895,88.07024387487036 19.256916996091604,90.31671961497341 19.015019762853626,90.93241477002448 19.498814229271375,91.13209916741471 19.868774703587405,91.68122995292651 21.704347826133016,92.92924733401742 22.373122529650573,93.07900875410996 25.987351778661832,92.49660243019753 27.32490118581336,92.79612595192157 27.993675889330916,93.59485255408799 28.0932806324563,94.94269449614512 28.719367588986643,96.40700351359555 30.711462450621184,97.45530727671576 33.74229249020573,98.08761410453008 34.126482213439886,98.63672060309909 34.453754940710496,98.63672060309909 36.41739130439237,100.20083163611707 37.48458498029504,102.28074242503499 38.25296442693798,103.02950357574446 39.348616600909736,103.12933812654228 41.99525691702729,102.48041241375904 42.72094861662481,102.89639074278239 43.13359683804447,102.53032987136976 43.9731225296855,102.49705156803248 44.18656126485439,102.21418570577225 46.690909090975765,103.16261629606015 47.6015810277313,103.07942085909599" stroke="#4dd2ff" stroke-linecap="round" stroke-linejoin="round" stroke-width="0.5"><title>2023-03-18 7.0km</title></polyline><polyline fill="none" points="58.66666666668607,91.30281498254044 61.01527824241202,91.23239528434351 65.54388312698575,92.55627937760437 67.47094903531251,92.89429022787954 76.88948366232216,92.767536259591 79.84030333446572,93.44355602929136 80.97245455556549,92.92245775999618 81.38195606111549,90.48594419368601 81.70714843319729,90.04933878559677 85.40470614476362,90.17609534191433 87.139065462281,89.83807759024785 88.88546894170577,89.14795534893346 88.70480651280377,88.52825069589016 91.00524144090014,87.21841091374517 94.49804839969147,86.5564439707232 94.66666666668607,86.66911942754814 92.4625850340235,86.7958792024292 90.96910895506153,87.19024217470724 87.84967101598158,88.92260853614425 86.3561949369614,89.35921763950319 84.50139400019543,89.51414310616383 81.83963421435328,89.10570285060385 81.41808854689589,89.20429199254431 80.4184231069521,90.14792722871061 80.2016281922115,90.83804428623989 80.3702464592061,91.23239528434351 80.2498048399575,92.04926149308449 79.91256830602651,92.35910598529154 78.75632876099553,92.45769271794416 77.28694100584835,91.0915557762346 76.23909891827498,91.2042273946281 75.67302330769598,90.75354034896009 75.20330099249259,90.66903635799827 74.7576670012204,90.823960300404 74.21567971451441,91.47182210611936 73.90253150439821,91.49998993922782 73.31236756994622,91.99292605338269 72.33679045387544,92.04926149308449 72.13203970110044,91.35915071422642 68.6994535519625,91.72533238932374" stroke="#4dd2ff" stroke-linecap="round" stroke-linejoin="round" stroke-width="0.5"><title>2023-03-14 5.6km</title></polyline><polyline fill="none" points="138.1950844854582,96.74969762019464 136.97849462367594,96.58803527176497 134.6697388633038,95.82821994341793 133.01075268816203,96.28087633859832 132.6651305683772,95.98988309562264 129.80337941629114,96.66886646737112 128.91858678957215,96.62036775512388 128.00614439323545,95.8605525875173 126.74807987711392,93.43558529349684 125.31029185868101,91.83508579806949 124.3425499231671,91.46325018214702 121.23195084487088,91.04291317898605 119.55913978494937,90.1375680139754 118.89554531493923,88.71487191632332 118.68817204301013,87.17899194106576 118.1351766512962,86.51613370863197 117.04301075270632,86.30595854662533 113.14439324120758,86.88798136392143 111.25038402457722,85.64309652651718 108.665130568319,85.72393351225764 108.44393241166836,84.39820154578774 108.4024577572709,85.75626829451357 106.23195084481267,85.90177473019867 105.33333333331393,83.25030237980536 106.06605222733924,85.64309652651718 106.42549923190381,85.96644421269593 110.73886328720255,85.6107617202797 111.33333333337214,85.75626829451357 112.64669738861267,86.71014129387913 113.42089093703544,86.90414863273327 117.16743471578229,86.37062785803573 118.19047619053163,86.64547212612524 118.72964669740759,87.34066424447519 118.88172043010127,88.71487191632332 119.44854070659494,90.07290029685828 121.27342549921013,91.10758048550633 124.27342549921013,91.68958501266025 124.68817204306833,92.25542062213935 125.15821812598733,92.35242080189346 126.95545314898482,93.77508303133072 128.0476190476329,95.84438626631163 128.71121351764305,96.62036775512388 130.43932411679998,96.73353139300889 131.21351766510634,96.34554142849811 133.24577572970884,95.97371678808122 134.36559139785822,96.0868809048261 134.5176651305519,95.8605525875173 137.2826420891215,96.74969762019464 141.33333333331393,96.58803527176497" stroke="#4dd2ff" stroke-linecap="round" stroke-linejoin="round" stroke-width="0.5"><title>2023-03-12 6.0km</title></polyline><polyline fill="none" points="186.450224215223,96.45635049366683 182.12376681610476,95.38032845794805 181.94618834077846,95.66349278064445 180.92914798203856,95.32369553949684 180.28340807172935,95.94665665396315 180.15426008967916,95.60685995208041 176.57040358748054,96.34308532175783 175.40807174885413,96.21094253036426 174.53632286994252,95.30481789598707 172.74439461884322,92.15222341833578 171.4529147982248,90.8307600641565 169.9838565022219,90.30217198208265 166.5130044843536,89.83021701419784 164.57578475330956,88.71639834021335 163.96233183861477,87.18724612318329 163.86547085206257,85.54480877345486 163.17130044841906,84.61975119625276 161.57309417042416,84.33656934641476 157.42421524669044,85.0162050309591 156.87533632293344,84.92181134071143 156.39103139011422,84.33656934641476 154.98654708522372,83.54365777557541 154.3569506726344,83.43038440636883 152.0,83.6380521949759 154.82511210761731,83.50589999380463 156.82690582965733,84.8085388464533 161.66995515691815,84.27993292252359 163.05829596408876,84.58199364226311 163.84932735422626,85.71471678666421 163.96233183861477,87.09285358151828 164.54349775781156,88.56537154399848 166.65829596412368,89.73582587073906 170.2098654708243,90.45319730820484 170.6295964125311,91.00066304364009 171.1946188341244,91.0761754270643 173.34170403587632,92.85070723766694 174.58475336321862,95.32369553949684 175.52107623318443,96.17318742912903 176.84484304935904,96.30533024849137 178.33004484308185,95.81451356897014 178.58834080712404,96.13543231986114 179.62152466364205,95.62573756353231 182.04304932733066,95.41808372693777 185.28789237659657,96.56961559363117 188.0,96.36196285538608" stroke="#4dd2ff" stroke-linecap="round" stroke-linejoin="round" stroke-width="0.5"><title>2023-03-05 5.0km</title></polyline><polyline fill="none" points="45.05509181972593,129.87132217107865 45.255425709532574,130.52711363884737 47.31886477465741,130.12895476496487 47.77963272132911,131.53421818513016 47.699499165290035,132.23684655298712 42.35058430721983,133.7123588733375 38.88480801344849,135.32838490292488 35.53923205344472,137.62359002177254 33.19532554259058,133.9465662745497 31.71285475802142,132.7052642270719 17.769616026780568,129.5668469013617 17.609348914935254,129.1686863018258 18.390651085297577,126.99050094667473 18.17028380651027,126.54549270216376 18.430717863258906,125.3978357360611 12.0,122.16562702656665 18.410684474161826,125.3275708307774 16.928213689592667,129.52000451501226 16.38731218711473,132.2602674602822 17.22871452430263,130.22263927024323 17.769616026780568,129.89474332841928 29.709515859838575,132.28368836500158 32.57429048418999,133.5952550798538 35.098497495870106,137.8343729734479 40.34724540903699,134.62576633828576 42.65108514204621,133.64209660467168 48.0,132.1665838164481 47.31886477465741,129.09842259237485" stroke="#4dd2ff" stroke-linecap="round" stroke-linejoin="round" stroke-width="0.5"><title>2023-02-22 5.0km</title></polyline><polyline fill="none" points="58.66666666668607,134.1716622033855 58.89272632129723,130.14048784524493 59.20355834637303,129.57875856851751 62.42490842496045,129.7439732713974 66.11250654113246,131.11524855994503 67.36996336997254,131.19785512049566 67.93511250661686,131.5778447364719 68.44374672946287,131.41263197358057 70.85975928837433,131.7760998212907 71.46729461016366,131.67697231033526 72.35740450030426,132.07348197656393 73.14861329144333,131.9413121996913 74.84406070120167,132.1560880303441 75.9743589743739,131.51175965227594 76.01674515963532,131.84218479359697 76.46886446885765,132.04043954286317 77.14704343280755,132.09000319082406 77.7404500261764,131.85870603231888 78.89900575613137,132.0569607605721 79.73260073259007,131.2639403374924 80.21297749871155,131.18133381186635 82.67137624276802,131.74305732458015 82.85504971217597,131.95783342789218 82.95395081111928,131.36306811060058 84.09837781265378,131.42915325777722 85.36996336991433,131.04916327999672 85.79382522235392,129.43006518649054 85.89272632135544,127.95964523080329 86.45787545782514,127.41442981865839 87.75771847198484,127.67877692285401 91.48770277336007,127.66225524194306 94.66666666668607,126.42312419267546 94.31344845623244,125.82833779662906 92.75928833073704,126.43964600464096 90.68236525380053,126.88573426785297 89.32600732601713,126.91877779221977 86.16117216116982,126.50573323520075 84.79068550496595,127.57964681120939 84.52223966509337,128.40572915221856 84.63526949239895,129.05007034476148 83.6745159602142,129.3805006943585 83.43432757724077,130.14048784524493 82.98220826790202,130.3387447546702 82.14861329150153,130.20657350968395 81.1737310308963,129.5952800466912 79.84563055995386,129.57875856851751 79.29461015178822,129.92570924274332 77.47200418630382,130.04135929618496 77.09052851906745,129.77701619103027 72.80952380958479,129.8265805573319 72.00418628990883,129.71093034482328 71.60858189431019,129.34745769086294 68.75457875459688,129.95875212385727 66.49398220825242,129.52919412357733 62.28362114081392,127.97616688023845 60.13605442177504,127.66225524194306 64.20512820512522,127.62921187494067" stroke="#4dd2ff" stroke-linecap="round" stroke-linejoin="round" stroke-width="0.5"><title>2023-02-10 5.9km</title></polyline><polyline fill="none" points="113.63381097116508,137.01005325175356 113.68070632504532,132.05653410952073 115.30641192640178,132.07481303898385 118.01071066723671,132.7694109253498 119.49573020689422,132.33071784827916 120.10536980745383,130.48453894279373 120.21479229978286,128.8576916764141 120.68374583875993,128.34587139137147 123.38804457947845,128.72973674732202 123.90389347221935,128.47382660477888 126.45187436667038,128.51038521977898 129.04675061505986,127.68781451137329 133.59559994208394,125.40287532914954 138.80098422348965,124.68996811950637 141.33333333331393,123.73942059729598 141.192647271615,123.84909942446393 140.9425387175288,123.41038369806483 140.98943407146726,122.98994674826099 140.14531770150643,123.46522322481906 137.97249963815557,124.01361753464153 137.03459256037604,124.05017709339154 136.81574757560156,123.77598021407903 133.9082356346189,124.30609378812369 131.98552612529602,125.01900258183014 128.81227384560043,126.82868092374702 126.4831379360403,127.55985871588928 123.63815313356463,127.7609320662159 121.37154436233686,127.34050570317777 120.24605586915277,127.37706455790612 118.96424952952657,128.47382660477888 118.66724562161835,129.31467279269418 118.76103632937884,130.15551488865458 118.0732378057437,130.15551488865458 117.57302069757134,130.63077165467257 117.4635982051841,131.34365435267682 116.9477493125014,131.58128126508382 115.91605152696138,131.1974222441495 115.540888695803,130.21035227453103 114.58734983357135,129.7168151751539 113.50875669415109,130.02756092061463 112.91474887821823,130.95979480382812 111.63294253865024,131.1974222441495 110.67940367624396,131.21570126446022 110.35113619914046,130.94151575640717 105.56781010271516,130.90495765577361 105.33333333331393,130.70388796414773 105.6772325951024,130.30174787894066 108.24084527423838,130.11895662172174 108.53784918220481,131.05119001179992 109.80402373708785,130.95979480382812 110.85135330725461,130.28346876193245 111.82052395422943,130.3565852184256 112.27384570846334,129.80821104063943 112.8053263858892,129.78993187144806 113.66507454036037,130.72216703671438 114.82182660291437,130.6673298132664 115.50962512660772,131.2339802828501 116.93211752781644,131.61783922261384 118.51092777529266,131.39849136142584 118.91735417564632,130.06411920682876 118.96424952952657,131.2705383138673 118.41713706759037,131.70923408256203 116.41626863513375,131.4350493576494 115.93168331158813,131.21570126446022 115.38457084959373,130.08239834706183 112.38326820085058,129.20499743496475 111.63294253865024,129.38778965908568 109.77276016783435,130.90495765577361 108.83485309017124,130.88667860260466 108.35026776668383,130.17379401919607 108.78795773629099,129.89960685782717 109.55391518311808,129.89960685782717 110.19481835281476,130.46625984513958 111.75799681566423,130.3565852184256 112.46142712392611,129.8630485367612 113.11796207842417,130.39314343506703 113.69633810967207,130.00928177460446 114.71240411052713,129.80821104063943" stroke="#4dd2ff" stroke-linecap="round" stroke-linejoin="round" stroke-width="0.5"><title>2023-02-05 7.1km</title></polyline><polyline fill="none" points="152.4278438030742,135.62255874017137 152.7538200339768,132.68035364303068 152.98811544995988,132.59697019212035 154.67911714775255,132.87094415612955 155.28013582347194,132.77564893991075 156.869269949093,133.4546255956884 157.55178268253803,133.52609658442816 157.87775891344063,132.10858016822021 157.63327674026368,131.62018802594685 156.93039049237268,131.63210005463043 156.5942275042762,131.2985627753951 154.6994906621403,131.46533153849305 153.5687606112333,131.27473864620697 153.03904923604568,130.869727678888 152.07130730058998,130.69104590664938 152.0,131.41768334567314 152.07130730058998,130.72678228376753 152.41765704588033,130.70295803360204 152.6010186757776,130.84590345898323 152.58064516133163,131.3462110186083 152.77419354842277,131.65592410817771 155.15789473691257,131.46533153849305 157.82682512735482,132.54932247818215 159.58913412567927,132.9662392916798 160.66893039055867,132.78756084635097 161.3616298811976,133.06153434660519 162.08488964347634,133.0019749467101 162.9303904924309,133.16874118694977 164.977928692766,132.8471203595982 166.5466893039411,133.04962246913783 167.43293718172936,132.9662392916798 167.69779286935227,132.71608938882127 168.7062818336417,132.6922655595481 169.06281833618414,133.0019749467101 169.90831918513868,133.2759479253 170.88624787778826,133.20447677776247 171.17147707979893,132.99006306297088 171.16129032260505,131.83460434926383 171.3548387097544,131.2985627753951 172.14940577250673,130.56001242677303 175.01188455015654,130.82207923401438 176.52971137518762,130.61957311833976 177.75212224113056,130.20264761572616 180.88964346348075,128.63022897197516 184.332767402404,128.24903326633648 187.43972835317254,126.8433629473875 187.96943972830195,125.87844350206433 187.70458404073725,124.37744125982863 188.0,125.81888030231494 187.8879456706345,126.18817163266067 187.7351443124353,126.54554918610665 186.47198641765863,127.30795084192505 186.2682512733736,127.64149994294712 185.4634974533692,127.68914973385108 184.55687606113497,128.16564653370733 182.98811544995988,128.48728073359234 182.1018675721716,128.41580654634163 180.57385398983024,128.68979068438784 177.7317487266846,130.1669110722287 176.41765704582212,130.60766098256136 174.46179966052296,130.786342887106 172.26146010187222,130.48853955529194 171.27334465197055,131.25091451198386 170.99830220715376,131.01267289253155 171.3039049236104,131.37003513265518 171.1409168081591,131.7750443003897 171.26315789477667,132.23961184597283 171.0797962648794,132.44211504803388 171.15110356541118,132.8471203595982 170.92699490662199,133.13300558488118 169.97962648561224,133.2759479253 168.83870967745315,132.8471203595982 168.74702886253363,132.65652980623418 167.73853989812778,132.66844172526908 167.31069609511178,132.9305036252772 166.46519524621544,133.0019749467101 165.96604414266767,133.0019749467101 165.70118845498655,132.82329655810463 163.54159592534415,132.88285605247074 162.3803056027973,132.72800130154792 161.11714770802064,132.9185917339637 160.55687606113497,132.73991321303765 159.76230899832444,132.95432740416436 158.25466893042903,132.65652980623418 155.0764006791287,131.5129797111731 154.37351443129592,131.40577129431767 152.7640067911707,131.64401208204072 152.56027164688567,131.22709037271852 152.7130730051431,130.79825500401057 153.55857385398122,131.32238689953374 154.4855687606614,131.5129797111731 156.5432937181904,131.2985627753951 156.84889643470524,131.63210005463043 157.31748726655496,131.6678361330487" stroke="#4dd2ff" stroke-linecap="round" stroke-linejoin="round" stroke-width="0.5"><title>2022-12-15 10.0km</title></polyline><polyline fill="none" points="12.0,174.8262742246443 12.317904993949924,170.50643723986286 14.93788063339889,170.68589940899983 15.277710109658074,170.91663609308307 17.5030450670165,171.42938270683226 17.853836784430314,169.94241154933115 17.76613885507686,169.48093403156236 16.812423873343505,169.41683979291702 16.48355663829716,168.99381696725322 15.299634591967333,169.0450925398909 14.8392204628326,168.827171206176 14.093788063386455,169.09636809086805 13.315468940360006,169.0450925398909 12.25213154690573,168.42978423566092 12.142509135243017,169.01945475627144 12.405602923303377,169.42965864335565 14.861144945258275,169.05791142969247 15.233861144981347,169.50657171759667 17.974421437305864,170.45516228557244 19.82704019488301,170.83972391387942 20.8246041413513,170.62180580767745 21.701583434827626,170.9038173999361 23.81729598052334,170.9294547848549 24.9792935444857,170.8653613123679 25.461632155929692,170.64744325228094 27.204628501844127,170.9038173999361 28.07064555422403,170.83972391387942 28.476248477527406,170.53207470888447 29.495736906246748,170.53207470888447 29.758830694307107,170.80126780593855 30.668696711363737,170.9935482234505 30.92082825821126,171.2627402953658 31.18392204627162,170.9550921643604 31.721071863605175,171.07046030498168 32.08282582217362,170.9294547848549 32.32399512792472,169.0450925398909 33.29963459196733,168.1862238353424 35.55785627284786,168.4682410962414 37.42143727163784,168.3785084025949 39.0328867235221,167.9554819519035 42.21193666267209,166.28899974634987 46.45432399521815,165.71213518101285 47.72594397078501,165.17372577536298 47.87941534718266,165.7505929041654 48.0,165.71213518101285 46.81607795372838,166.17362705305277 43.17661388556007,166.60947887369548 38.934226553014014,168.53233583666588 37.34470158343902,168.96817917274166 35.48112058470724,169.0835492051774 33.54080389771843,168.81435229200724 33.21193666261388,169.19891912775347 33.146163215627894,170.3013372925343 32.762484774691984,171.63448074487678 32.19244823389454,171.85239702987747 31.699147381237708,171.9805828968165 29.276492082863115,171.39092678607267 27.040194884350058,171.42938270683226" stroke="#4dd2ff" stroke-linecap="round" stroke-linejoin="round" stroke-width="0.5"><title>2022-12-12 7.2km</title></polyline><polyline fill="none" points="59.24910118128173,174.02966484615172 59.54031843866687,169.95951307333598 59.4432460195967,169.5865455535095 58.68053415516624,169.4892495295062 58.66666666668607,169.00276848321664 62.59116589627229,169.0676327119727 66.94555726763792,170.39734335172398 70.06574216746958,171.01354681015073 80.78531073447084,170.8513882454281 81.99178222910268,170.94868340485846 84.03030303033302,171.61353200797748 84.66820749873295,171.4027266655612 85.51412429381162,170.98111511093157 85.9162814586889,169.50546553783352 85.98561890085693,168.14331486157607 86.27683615824208,167.68926194623054 86.98407806886826,167.57574850720994 88.99486389319645,167.98115326049447 89.42475603491766,167.75412673072424 91.44940934772603,167.81899148781667 92.9054956343025,167.42980253350106 94.66666666668607,166.58655640923826 94.41705187474145,165.97033515384828 90.82537236780627,167.05682885838905 89.17514124297304,167.10547765006777 86.09655880840728,166.73250318576174 84.89008731383365,167.80277530114108 84.65434001025278,168.4514214310184 84.84848484850954,169.08384876484342 84.62660503335064,169.4730335195345 84.70980996399885,169.94329711310274 84.34925526450388,170.33247968567593 83.69748330768198,170.26761599222664 82.8515665125451,170.5270706014271 82.463276836148,170.13788852289144 81.67282999487361,170.00816094379115 81.49255264515523,169.78113741619745 81.42321520287078,169.92708115110872 80.1474062660709,169.7973533936165 78.27529532613698,170.15410446254828 77.62352336931508,170.17032040050253 77.19363122747745,169.87843325486756 74.33692860818701,169.97572903183755 72.67282999493182,169.76492143706128 70.98099640477449,170.00816094379115" stroke="#4dd2ff" stroke-linecap="round" stroke-linejoin="round" stroke-width="0.5"><title>2022-12-06 5.0km</title></polyline><polyline fill="none" points="105.33333333331393,174.39234482176835 105.64130766881863,170.94542660215666 105.80629391997354,171.1126301142358 108.11610143602593,171.13835371107416 111.1408493736526,172.14156974244543 111.25084020779468,172.36021829160745 111.08585395663977,172.36021829160745 111.22884204093134,172.12870805081184 110.90986862208229,172.14156974244543 110.6348915368435,171.8586122127308 110.87687137187459,171.93578251339204 111.15184845705517,170.0836817780073 110.97586312249769,170.1994389005631 110.99786128936103,170.5724333235121 111.40482737548882,170.90684114364558 113.06568897038233,171.31841873648955 114.07760464405874,171.12549191332073 114.97952948365128,171.40845114921103 116.38741216011113,171.44703644856054 119.43415826460114,171.17693909610534 120.28108768718084,171.40845114921103 121.52398411242757,171.27983339637285 121.83195844787406,171.0354592910735 122.92086770548485,171.0354592910735 123.03085853956873,171.2541098294314 124.37274671555497,171.63996276149555 125.41765963949729,171.45989821226976 125.67063855793094,169.51775648119656 126.68255423160736,168.66886359651835 129.5863122517476,168.96469057768263 130.99419492820743,168.83607023956574 132.55606477236142,168.3601738052239 135.50381912617013,166.79098858022917 136.50473571644397,166.53374316832924 139.1445157348062,166.31508414025302 140.58539566147374,165.9292143076891 141.14634891535388,165.60765517823893 141.32233424991136,166.23791027170955 141.33333333331393,166.09642471883126 139.08952031773515,166.84243759728997 135.99877787963487,167.25402894989384 134.3929117018124,168.0643453530647 131.412160097796,169.35055077570723 129.15734799875645,169.4534466216719 128.91536816372536,169.59492826772475 126.88053773291176,169.35055077570723 121.52398411242757,171.92292080003972 116.43140849366318,172.02581446897966" stroke="#4dd2ff" stroke-linecap="round" stroke-linejoin="round" stroke-width="0.5"><title>2022-11-27 5.6km</title></polyline><polyline fill="none" points="152.0,172.13247406667506 153.42826780024916,172.34124251411413 153.82359192351578,172.22194629629666 154.4739638682222,172.55001065231045 154.90754516475135,172.47545063841972 157.1902231668355,173.17631321179215 157.5727948990534,171.40178206581913 157.36875664192485,171.10353934431623 157.4452709882753,171.71493624428695 158.08289054204943,172.11756202290417 160.09776833152864,172.50527464873448 161.05419766210252,172.22194629629666 162.06163655687124,172.57983464677818 165.7470775770489,172.55001065231045 166.4612114771735,172.31141846912215 168.41232731140917,172.55001065231045 169.4580233793822,172.49036264437018 169.9298618491157,172.13247406667506 171.1923485653242,172.11756202290417 171.33262486715103,172.4008905851224 172.7991498406045,172.8482503134146 173.79383634432452,172.71404254400113 174.21466524974676,172.28159441777098 174.35494155151537,171.550903189971 174.18916046764934,170.95441774697974 174.3931987247779,170.34301754827902 175.56641870352905,169.388631449503 178.51222104148474,169.7614392884716 180.51434643997345,169.61231627120287 182.59298618492903,168.91143597688642 185.57704569608904,167.28597677417565 188.0,166.8236867881933 185.7683315621689,167.19650141138118 182.52922422951087,168.94126074123778 180.4633368756622,169.59740396078269 178.55047821463086,169.7167023998336 175.8979808713775,169.31406976340804 175.42614240176044,169.40354378202755 174.35494155151537,170.40266646486998 174.16365568543551,170.95441774697974 174.32943676941795,171.550903189971 174.09989373007556,171.95352943710168 174.18916046764934,172.41580259896 173.84484590857755,172.72895452467492 172.4165781083866,172.78860243163945 170.911795961787,172.07282588204544 169.87885228480445,172.0877379305748 169.38150903297355,172.46053863092675 168.18278427206678,172.53509865267552 167.2263549415511,172.29650644423964 163.19659936235985,172.23685832902265" stroke="#4dd2ff" stroke-linecap="round" stroke-linejoin="round" stroke-width="0.5"><title>2022-11-23 5.3km</title></polyline><polyline fill="none" points="12.0,210.8665280080313 15.064748201402836,211.23668282122526 18.489208633080125,212.1788911856711 18.93525179848075,210.19351704967266 18.834532374108676,209.72240768438496 18.388489208591636,209.50367786180868 17.669064748159144,209.57097937767685 17.035971222969238,209.04939188450226 15.482014388486277,209.09986816823948 15.136690647457726,209.2849477384152 15.194244604266714,209.45320170615742 20.086330935184378,211.11890638321347 21.611510791408364,211.3039836037933 22.417266186967026,210.8497027688136 23.42446043161908,211.01795508118812 24.6474820143776,210.799227040392 24.892086330917664,211.1525568029756 25.582733812974766,211.2535080195521 29.553956834541168,211.1525568029756 30.54676258994732,211.47223543564905 32.23021582735237,211.3881095419638 32.77697841724148,211.00112985796295 34.187050359731074,210.9843046329479 34.517985611455515,211.35445917202742 36.20143884891877,211.77508828435384 37.65467625897145,211.40493472426897 37.62589928053785,210.73192604423093 37.84172661870252,210.39542063625413 37.683453237463254,209.55415400135098 37.95683453237871,208.9147883827245 39.20863309351262,207.92208403922268 43.56834532372886,208.34272222938307 45.95683453237871,207.85478182547376 47.640287769783754,207.1312812296528 48.0,207.78747958333406 46.60431654675631,208.4100242365821 44.10071942443028,209.04939188450226 42.33093525178265,208.94843926889007 42.04316546762129,209.13351901517308 39.784172661893535,208.7297083818412 39.338129496376496,208.8474865891476 38.97841726616025,209.3185985461605 38.80575539567508,211.3039836037933 38.37410071946215,212.5322178832721 37.39568345324369,212.86871877036174 33.53956834535347,212.12841587906587 22.690647481940687,212.36396717278694 18.6474820143776,211.59001161203196" stroke="#4dd2ff" stroke-linecap="round" stroke-linejoin="round" stroke-width="0.5"><title>2022-11-18 5.5km</title></polyline><polyline fill="none" points="58.66666666668607,213.9450123735587 59.06273739365861,209.80982892931206 59.99633267853642,210.04140209281468 60.90163719718112,209.90907461277675 63.362933857308235,210.19027037390333 65.76764898496913,211.01731379929697 66.149574328796,209.2474355329323 66.07884741324233,208.4700060364121 64.94721676490735,208.42038274584047 64.35311067453586,207.8910666662414 62.85370006551966,207.95723127419478 62.55664702033391,208.33767722653283 62.68395546829561,208.4700060364121 66.53149967256468,209.7602060639183 68.9927963326918,210.2729749133141 69.95468238380272,209.94215649328544 71.07216764905024,210.32259761598834 75.1743287491845,210.30605671684316 75.96647020301316,210.02486116391083 78.14485920110019,210.32259761598834 79.24819908320205,210.25643400895933 79.9837590046227,209.90907461277675 81.12953503598692,209.92561555391876 81.46902423055144,210.25643400895933 83.20890635228716,210.62033350103593 84.58100851339987,210.30605671684316 84.80733464309014,209.23089452004933 84.62344466277864,208.55271148576867 84.86391617555637,207.94069012484397 86.09456450556172,206.8158878627728 90.79083169612568,207.17979536246276 92.67216764896875,206.78280532079225 94.51106745243305,206.0549876264413 94.66666666668607,206.7166402158764 91.21519318921492,207.9076078208309 87.80615586118074,207.97377242177026 86.83012442698237,207.62640795444895 86.23601833661087,207.80836086691124 85.93896529142512,208.20534830458928 85.79751146037597,209.94215649328544 85.4155861165491,211.29850756739324 84.25566470203921,211.69548614385712 81.62462344468804,211.0338546231942 69.96882776689017,211.1827219594561" stroke="#4dd2ff" stroke-linecap="round" stroke-linejoin="round" stroke-width="0.5"><title>2022-11-06 5.5km</title></polyline><polyline fill="none" points="105.33333333337214,221.08579185836425 106.16343042068183,216.61587832354417 106.75323624606244,204.38066325143154 107.25566343055107,202.10724601768015 107.38673139165621,202.33714311523363 110.05177993536927,202.26051077367447 117.54449838201981,203.94641666948155 118.06877022655681,200.37023865027004 117.87216828484088,201.39200920319126 118.68042071198579,201.97952531334886 122.56877022667322,202.77139259119576 130.58576051786076,201.1876554384944 131.11003236251418,201.1876554384944 131.21925566357095,202.61812815946178 133.0105177994119,202.36268722366367 134.82362459553406,202.46486363040458 135.50080906157382,202.89911287665018 138.384304207284,202.79693665372906 139.30177993536927,202.15833428050973 139.32362459565047,201.2131996685639 141.202265372267,200.65122598335438 141.33333333337214,199.34846377353824 140.634304207284,198.91420814163575 139.45469255675562,200.49796020583017 139.67313915863633,201.1110227321915 139.1925566344289,201.31537656174623 138.4061488674488,202.61812815946178 136.00323624606244,202.9246569257084 134.82362459553406,202.46486363040458 128.00809061492328,202.46486363040458 127.46197411010507,202.87356882498716 125.80177993536927,202.87356882498716 124.07605178002268,202.28605489025358 122.39401294500567,202.77139259119576 119.46682847908232,202.2349666544178 112.67313915863633,200.012617935281 112.45469255675562,199.60390789809753 112.97896440140903,199.42509703931864 115.31634304206818,199.1441082793608 116.08090614888351,200.012617935281 116.82362459553406,199.96152921850444 116.05906148860231,199.9359848560125 115.2726537217386,199.19519716913055 114.02750809071586,199.19519716913055 112.7605177994119,199.37400819819595 112.60760517802555,200.0381622895802 119.57605178002268,202.36268722366367 117.71925566357095,201.28983234253246 117.8284789645113,200.37023865027004" stroke="#4dd2ff" stroke-linecap="round" stroke-linejoin="round" stroke-width="0.5"><title>2022-11-02 5.0km</title></polyline><polyline fill="none" points="153.10854503465816,218.22303921698767 153.05311778292526,217.8827934118599 152.06928406463703,217.75317576350062 152.0,217.28331086906837 152.3602771362639,214.85295220337866 152.3602771362639,212.61698817726574 152.58198614325374,212.1471075292502 152.4572748268256,210.4296004842763 152.7621247113566,206.83249502746912 153.05311778292526,205.47140606907487 153.288683602761,205.64964459708426 156.0461893764441,205.55242360751436 159.59353348735021,206.6542578758963 159.9399538106518,204.33715603112068 159.75981524254894,204.87187495264516 160.00923787534703,205.26076026856026 162.84988452657126,205.90890026759007 167.27020785224158,204.98529993844568 168.7667436490301,204.95289280822908 169.61200923786964,205.37418496636383 170.06928406469524,205.0987248402671 171.9399538106518,205.1473354867485 172.508083140885,204.6288211288338 173.35334872984095,205.05011417834612 174.42032332561212,204.67743192447233 175.22401847573929,205.0339106209576 175.5842956120032,205.97371411665517 176.58198614319554,206.28157952509355 177.98152424936416,205.98991757461044 178.21709006931633,204.77465346940153 178.0508083141176,204.15891597575683 178.3140877598198,203.51076857146109 179.17321016162168,202.65196903595643 180.01847575057764,202.4737270195037 182.4572748267674,202.86261842436215 184.06466512696352,202.86261842436215 185.8521939953789,202.5223384990968 187.73672055423958,201.77696078302688 188.0,202.34409633179894 186.47575057740323,203.0570637564815 184.43879907618975,203.57558343531855 182.33256351033924,203.7052130807715 179.7413394919131,203.4135462242557 179.35334872984095,203.8672499832901 178.84064665128244,206.848698394635 177.7459584295284,207.2537820158468 173.82448036957067,206.58944431479904 163.29330254049273,206.8000882880733 160.13394919165876,206.13574861928646 159.7459584295866,208.5986519559956" stroke="#4dd2ff" stroke-linecap="round" stroke-linejoin="round" stroke-width="0.5"><title>2022-10-28 6.2km</title></polyline><polyline fill="none" points="12.0,253.89509512709628 12.225352112727705,250.43649640479998 12.464788732409943,249.81064652182977 12.69014084507944,250.04122308720252 14.408450704242568,249.8765255753242 15.760563380317762,250.0247533438378 18.605633802886587,250.99646522014518 19.183098591514863,250.864708033012 19.50704225350637,249.10244493576465 19.380281690100674,248.5095295024512 18.957746478903573,248.31189052283298 18.140845070418436,248.37777021057263 17.676056338008493,247.9166118109133 16.16901408456033,247.99896162531513 15.957746478903573,248.19660100221517 16.12676056334749,248.4765896898898 20.450704225397203,249.95887435301847 21.85915492963977,250.20592042480712 27.81690140842693,249.33302255006856 27.87323943665251,250.1565112418175 29.845070422568824,250.0247533438378 31.140845070418436,250.33767816946784 34.450704225338995,249.9259348471969 34.60563380282838,250.2388598714315 36.23943661968224,250.6506023661059 37.563380281673744,250.51884488624637 37.845070422568824,250.28826902825676 37.81690140842693,249.59653940534918 38.042253521154635,249.30008291175182 37.87323943665251,248.49305959703634 38.140845070418436,247.88367187295808 39.366197183087934,246.84606025958783 42.81690140836872,247.22487165007624 44.19718309858581,247.15899147449818 45.80281690141419,246.84606025958783 47.647887323924806,246.10490487290372 48.0,246.68135936745966 46.366197183087934,247.38957196717092 44.21126760565676,247.94955174195638 42.53521126759006,247.88367187295808 42.239436619740445,248.03190153888136 40.0,247.65309211207204 39.52112676057732,247.78485201727017 39.2253521126695,248.2295408739592 39.140845070418436,249.66241854947293 38.70422535209218,251.2929184834502 37.53521126759006,251.65524948322854 36.52112676051911,251.5564320214762 36.352112676016986,251.25997925987758 35.78873239440145,251.3423273058288 34.38028169015888,251.01293486068607 28.366197183087934,251.0952830372844" stroke="#4dd2ff" stroke-linecap="round" stroke-linejoin="round" stroke-width="0.5"><title>2022-10-20 5.2km</title></polyline><polyline fill="none" points="66.7972789114574,251.63234565447783 67.33605442161206,252.46281501092017 68.75646258494817,252.86373034017743 70.22585033997893,252.31963082085713 74.0462585032219,252.7205463621067 74.31564625853207,252.2909939737292 74.95238095230889,252.97827746797702 76.0789115645457,253.26464507562923 76.88707482989412,252.97827746797702 80.60952380939852,253.35055529882084 81.88299319718499,252.1478096928331 82.64217687060591,252.83509355058777 84.42993197275791,252.4055413439637 86.16870748286601,252.66327274977812 88.34829931962304,252.34826766492915 88.64217687060591,254.43874909973238 89.00952380942181,254.12374608084792 89.08299319725484,252.03326221357565 89.76870748284273,251.54643488599686 93.80952380935196,252.74918316374533 94.66666666662786,254.18101938429754 94.07891156466212,251.86144090385642 91.92380952369422,246.7353883360338 88.91156462568324,247.79497140625608 88.00544217682909,249.28410817036638 85.70340136042796,249.6563910813711 84.52789115638006,249.6563910813711 84.06258503394201,249.19819665662362 76.71564625832252,249.2268338309077 76.12789115635678,248.79727589871618 72.84625850338489,249.42729396597133 72.25850340130273,248.9690991533571 79.45850340125617,247.96679529713583 79.82585034007207,248.65408976990147 79.3605442175176,249.37001965672243 75.90748299320694,248.9690991533571 73.01768707472365,249.42729396597133 71.9891156462254,249.05501073983032 77.05850340123288,248.10998178948648 79.75238095223904,248.02406990312738 79.80136054416653,248.91182474730886 79.40952380944509,249.37001965672243 75.83401360537391,248.9690991533571 72.84625850338489,249.39865681287483 72.01360544213094,249.0836479292193 74.0462585032219,248.7113642305485 74.68299319711514,249.11228511566878 79.31156462570652,249.5132054069545 79.75238095223904,249.16955947925453 79.77687074814457,248.02406990312738 78.11156462575309,247.88088336537476 70.07891156442929,249.5418425478565 66.4299319726415,248.88318753970088 59.00952380930539,246.3917388819391 58.66666666662786,245.93353893130552 59.205442176782526,245.58988845936256 61.80136054416653,245.56125090029673" stroke="#4dd2ff" stroke-linecap="round" stroke-linejoin="round" stroke-width="0.5"><title>2022-09-24 5.1km</title></polyline><polyline fill="none" points="138.06060606054962,256.40558863815386 139.4835309619084,255.4905193640734 141.11989459814504,249.33457112277392 134.50329380715266,245.34149785438785 129.02503293799236,251.830231621454 129.02503293799236,255.9896481912001 131.94202898535877,257.237468872976 137.9894598154351,257.32065684796544 139.55467720655724,256.3224005663651 141.33333333348855,249.00181579124182 135.0724637680687,245.0919301022077 129.16732542822137,251.9134201685083 129.30961791845039,256.73834083764814 133.22266139648855,256.90471688465914 134.43214756250381,257.736596591596 133.15151515137404,258.9844145021634 106.96969696972519,260.4817933823215 105.90250329393893,261.31366930616787 107.75230566551909,259.8994797122432 135.2147562582977,260.56498101423495 139.41238471632823,259.5667288497207 123.19104084325954,258.9844145021634 124.54281949903816,239.18547018396202 123.76021080370992,239.0190903894836 120.84321475634351,259.3171656106715 105.33333333348855,259.1507900740253 105.54677206836641,260.06585509027354 139.55467720655724,260.4817933823215 136.9222661391832,258.9844145021634 134.00527009228244,259.6499165786081 123.11989459814504,258.73485107842134 124.2582345190458,238.68633069389034 121.55467720655724,258.73485107842134 119.20685112010688,259.6499165786081 107.39657443994656,259.1507900740253 107.25428195018321,260.06585509027354 141.26218708837405,260.8977314540534 131.72859025001526,260.56498101423495 138.98550724657252,260.4817933823215 138.98550724657252,259.4003533660434 134.78787878761068,259.06760229257634" stroke="#4dd2ff" stroke-linecap="round" stroke-linejoin="round" stroke-width="0.5"><title>2022-09-22 5.0km</title></polyline><polyline fill="none" points="168.46528623637278,252.76885720992868 169.8903775883373,252.56376030009415 170.94275274069514,253.25596167506592 172.19244823395275,253.0765022491687 174.88915956160054,253.51233205301105 176.31425091368146,252.87140559972613 176.27040194894653,252.4099375037913 176.5773447016254,252.33302606915822 177.10353227786254,253.23032462238916 179.64677222911268,252.92267977834854 180.56760048726574,253.28159872509423 182.4969549330417,252.33302606915822 182.51887941546738,253.15341344797343 182.86967113276478,253.4866950273863 183.08891595632304,252.1279287904763 183.5274056030903,251.84591974892828 187.36419001233298,252.87140559972613 188.0,254.07634592984687 186.85992691852152,250.30768283661746 185.52253349579405,247.4619188094366 183.59317905001808,248.15413475646346 183.00121802696958,247.743932952435 180.56760048726574,247.38500580433174 177.6077953715576,249.71802276480594 173.3544457979733,249.7949350294948 172.8063337393105,248.64124849700602 169.0572472595377,249.17963622894604 167.7417783192359,249.48728582452168 169.27649208286311,250.1794959865365 175.59074299642816,250.12822122751095 176.5773447016254,249.71802276480594 178.3751522534294,249.71802276480594 179.49330085283145,250.12822122751095 181.77344701590482,249.8718472696928 182.19001218036283,248.79507368533814 181.44457978080027,248.12849716409983 180.1729598052334,248.0003091612889 178.24360535945743,249.05144878223655 176.97198538377415,248.12849716409983 175.23995127901435,248.61561095615616 173.06942752748728,248.56433586624917 173.02557856286876,249.84620985902438 171.24969549337402,249.5385607190983 168.53105968341697,249.97439688538725 167.14981729607098,249.5385607190983 166.20706455549225,249.9231220829679 164.65042630943935,249.8718472696928 155.6613885506522,247.15426664268307 156.1875761267729,246.33385895534593 154.74056029238272,245.92365407015313 153.88550548115745,246.53896113751398 152.0,246.20567000328447 152.35079171753023,246.51332337428175 155.63946406822652,246.8978895387554 158.62119366636034,246.3851345171861 159.56394640682265,247.2568174083135 160.74786845315248,247.05171583370247 161.42752740567084,247.30809277480876 160.98903775902,251.1537143466121 160.3751522534294,251.1537143466121 161.73447015846614,251.74337092519272 160.9232643119758,251.84591974892828 160.72594397084322,252.64067166157474" stroke="#4dd2ff" stroke-linecap="round" stroke-linejoin="round" stroke-width="0.5"><title>2022-09-09 5.2km</title></polyline></svg>