<?xml version="1.0" encoding="utf-8" ?>
<svg baseProfile="full" height="300mm" version="1.1" viewBox="0,0,200,300" width="200mm" xmlns="http://www.w3.org/2000/svg" xmlns:ev="http://www.w3.org/2001/xml-events" xmlns:xlink="http://www.w3.org/1999/xlink"><defs /><rect fill="#222222" height="300" width="200" x="0" y="0" /><text fill="#FFFFFF" style="font-size:12px; font-family:Arial; font-weight:bold;" x="10" y="20">Over 5km Runs</text><text fill="#FFFFFF" style="font-size:4px; font-family:Arial" x="10" y="280">ATHLETE</text><text fill="#FFFFFF" style="font-size:9px; font-family:Arial" x="10" y="290">fengde</text><text fill="#FFFFFF" style="font-size:4px; font-family:Arial" x="120" y="280">STATISTICS</text><text fill="#FFFFFF" style="font-size:3px; font-family:Arial" x="120" y="285">Number: 37</text><text fill="#FFFFFF" style="font-size:3px; font-family:Arial" x="120" y="290">Weekly: 1.5</text><text fill="#FFFFFF" style="font-size:3px; font-family:Arial" x="141" y="285">Total: 223.2 km</text><text fill="#FFFFFF" style="font-size:3px; font-family:Arial" x="141" y="290">Avg: 6.0 km</text><text fill="#FFFFFF" style="font-size:3px; font-family:Arial" x="167" y="285">Min: 5.0 km</text><text fill="#FFFFFF" style="font-size:3px; font-family:Arial" x="167" y="290">Max: 10.0 km</text><polyline fill="none" points="38.5,57.618194316732115 36.87768240342848,57.904260790979606 36.10515021457104,57.70853116021317 35.59012875537155,57.196621622511884 33.82618025748525,54.140182241550065 33.09227467805613,53.53792043462454 32.062231759598944,53.08622240681143 29.718884120171424,52.8152029018529 27.787553648056928,51.85157381526369 27.169527897029184,50.677142043350614 27.015021459257696,49.246731280349195 26.371244635200128,48.55410616514564 25.289699570799712,48.343306547860266 21.684549356228672,48.87030500557739 19.62446351937251,47.560333806686685 19.341201716742944,46.82252862706082 19.0836909871432,46.65689836704405 19.135193133028224,46.340694608021295 18.233905579370912,44.29288182372693 17.873390557942912,44.08207589338417 17.886266094399616,43.35931033238012 17.47424892708659,42.90757999231573 17.306866952741984,42.18480846498278 17.036480686743744,42.01917280622001 17.100858369085472,41.71801656890602 15.002145922742784,38.1944412306766 13.869098712457344,36.71872990473639 12.15665236057248,33.36067667452153 11.70600858371472,32.96914961337461 11.5,32.09573920900584 11.65450643771328,32.878797061610385 12.1952789700008,33.39079409613623 13.778969957085792,36.688613187667215 17.100858369085472,41.6577852449409 16.959227467828896,41.97399941121694 17.860515021428,43.34425267750339 17.873390557942912,44.12724861902825 18.246781115885824,44.35311203218589 19.12231759657152,46.340694608021295 19.019313304743264,46.61172644450562 19.379828326171264,46.83758591384685 19.611587982799392,47.50010495581955 21.259656652342528,48.6444487626577 22.032188841258176,48.91547621112841 25.263948497886304,48.35836367376032 26.306866952800192,48.478820623407955 26.924892703827936,49.14133202377707 27.143776824057568,50.73736954946071 27.68454935628688,51.89674407450366 29.487124463543296,52.8152029018529 32.190987124457024,53.131392274051905 33.19527896994259,53.552977010869654 34.418454935599584,54.95323163794819 36.01502145919949,57.63325046132377 36.375536480685696,57.88920467509888 37.40557939914288,57.88920467509888" stroke="#4dd2ff" stroke-linecap="round" stroke-linejoin="round" stroke-width="0.5"><title>2023-05-26 6.2km</title></polyline><polyline fill="none" points="49.0,48.76113778724539 50.0322496748704,49.23739935003687 51.61222366709262,49.385204068457824 51.75968790636398,49.574065243483346 53.459037711290875,49.401626797553035 53.73992197657935,49.67260132631054 54.856436931091594,49.565853897613124 54.68790637192433,49.68902399462968 54.926657997391885,49.98463143000117 55.284785435622325,49.779348608215514 55.62184655395686,49.787559931501164 55.8886866059911,49.79577125392825 56.05019505851669,49.96820882424072 56.5979193757812,50.13243472552858 57.39843953188392,50.13243472552858 57.62314694406814,49.90251836641983 57.60208062417223,49.147074105807405 57.71443433032255,48.83504063509463 58.2762028608704,48.31771922245389 58.78179453834309,48.27666181977838 60.00364109230577,48.49016007643513 61.309752925881185,48.35877660338883 62.1804941482842,48.05495147014153 64.02028608584078,47.08598769493983 66.78699609884643,46.69182947761874 68.94278283487074,45.64894287267816 69.20962288687588,45.139812037785305 68.9989596879168,44.02299721694726 68.56358907671529,43.23464766665711 68.1703511053347,42.14244182665425 67.42600780233624,41.690773264475865 67.53133940181579,41.403346446975775 68.3529258777562,41.86322884393303 69.09726918075467,41.871441004834196 69.69414824448177,42.07674474464875 71.87802340701455,44.48286408960121 72.25019505852833,44.655313464325445 72.55916775032529,44.56498288724106 73.23328998702345,43.86697033744713 74.00572171653039,42.70086477819859 75.17841352405958,41.493680704341386 76.0,39.27635490677494 75.48738621588564,40.7545791453158 74.98179453835473,41.75647067325917 74.0267880364263,42.63516816894844 73.22626788038178,43.83412253339338 72.51703511056257,44.58140663636732 72.19401820545318,44.655313464325445 71.59011703511351,44.23650717529381 69.6871261378401,42.06853260547359 69.06918075421709,41.86322884393303 68.3318595578603,41.83859235602722 67.56644993499503,41.37049760004447 67.51027308194898,41.551166086086596 68.1703511053347,42.18350247469061 68.97087126137922,44.03942108074989 69.18855656695087,45.148023851943435 68.77425227567437,45.78854267943825 67.15916775033111,46.57686628717056 65.93029908972676,46.85606231143174 65.62834850454237,46.782157579225895 64.54694408320938,46.92996697326453 63.739401820581406,47.151680536531785 62.5456436930981,47.866086598689435 62.587776332889916,48.2356043954278 61.26762028608937,48.73650348899537 60.70585175551241,48.83504063509463 59.87724317298853,48.79398350609699 59.76488946683821,48.88430916121433 58.458777633321006,48.73650348899537 58.2762028608704,48.933577656091074 58.17087126139086,49.91072967670334 57.91807542263996,50.53478671524499 57.24395318594179,50.72364509322506 56.008062418724876,50.40340670302976" stroke="#4dd2ff" stroke-linecap="round" stroke-linejoin="round" stroke-width="0.5"><title>2023-05-21 9.9km</title></polyline><polyline fill="none" points="113.5,48.62927641313581 112.81932773115113,48.97040065689362 111.49039615847869,49.00830331057659 109.88595438183984,48.553470937447855 109.61044417775702,49.00830331057659 108.63805522210896,48.97040065689362 106.56362545024604,47.87122021231335 105.33193277317332,47.98492884694133 104.18127250904217,47.226869919366436 100.61584633856546,47.473239422703045 99.5462184874923,47.321627460740274 98.91416566632688,47.83331731805811 94.95978391362587,49.36837812034355 94.29531812726054,48.91354666140978 94.00360144063598,47.549045355583075 90.956782713125,43.872420658532064 90.45438175275922,43.51233480090741 86.87274909968255,43.07644042580796 90.79471788718365,43.70185376358859 94.1008403362357,47.79541441582842 94.2791116447188,49.04620595621236 94.92737094842596,49.36837812034355 98.73589435772737,47.965977412837674 98.99519807926845,47.53009387537895 97.6338535414543,47.41638495202642 96.4021608644398,46.866790804910124 95.67286914773285,47.1321123278467 95.25150060030865,48.06073456327431 95.89975990401581,48.38290849972691 95.49459783919156,48.72403321265301 95.67286914773285,49.06515727605438 95.23529411770869,49.349426832588506 94.70048019220121,49.23571906406141 94.3115246098605,49.02725463436218 94.24669867951889,48.06073456327431 93.85774309729459,47.37848196148116 93.06362545024604,46.715178329715854 92.10744297725614,45.12323959208152 90.64885954384226,43.53128670626029 87.4561824729899,43.114344326619175 90.58403361350065,43.53128670626029 93.93877551023616,47.49219090890256 94.39255702286027,48.667179138967185 93.85774309729459,48.38290849972691 92.156062425056,45.16114305978408 90.69747899158392,43.58814241003711 86.5,43.05748847240466 86.80792316934094,40.631621879671 90.82713085232535,40.745335110186716 91.60504201689037,41.18123515821935" stroke="#4dd2ff" stroke-linecap="round" stroke-linejoin="round" stroke-width="0.5"><title>2023-05-19 5.4km</title></polyline><polyline fill="none" points="124.0,44.716466170633794 126.65037593984744,44.75603090957884 130.9248120301054,46.04847214277834 132.4699248120305,46.33861016987794 141.70676691731205,46.219917422233266 144.2105263157864,46.813380030478584 145.36090225563385,46.39136246587441 145.80075187975308,43.8328503964658 146.09398496244103,43.58227164897107 148.1917293232982,43.85922707742429 148.36090225563385,43.661401834157004 150.30075187975308,43.63502511137631 150.96616541355615,43.43719951230014 151.0,43.18661996951414 149.80451127822744,43.70096690794162 148.37218045117334,43.6877785514007 148.14661654137308,43.8328503964658 146.06015037599718,43.608648382934916 145.74436090228846,43.93835708684492 145.31578947370872,46.41773860555986 144.32330827071564,46.76062791306322 141.51503759401385,46.16716505365912 133.0676691729459,46.364986320681055 130.7781954887323,45.96934347275965 126.56015037593897,44.716466170633794 124.41729323309846,44.78240739519242" stroke="#4dd2ff" stroke-linecap="round" stroke-linejoin="round" stroke-width="0.5"><title>2023-05-17 5.0km</title></polyline><polyline fill="none" points="164.25912408763543,47.45126765682653 165.11015262111323,47.92265003185457 165.57597876578802,47.72362219164643 166.93762441939907,47.92265003185457 167.3228268082603,47.67124637778761 167.3586595886154,47.356990912572655 169.29362972796662,47.27318928674504 173.19940278702416,47.220813234605885 175.25082946254406,47.650296044426796 175.98540145991137,47.4093668926871 176.30789648310747,45.51333876167337 176.59455872600665,45.104797559390136 177.47246184473624,45.261928990519664 178.35932315862738,45.167650161754864 179.63138686132152,45.293355246816645 182.10384870605776,44.42389180975442 184.11944260122254,43.38681097867811 186.10816191107733,43.2506278404544 188.01625746523496,42.695417723101855 188.5,42.47542794749461 188.32979429332772,42.559233633917756 188.23125414730748,42.07734996814543 187.99834107497009,42.276389157887024 187.0935633709887,42.527806509824586 183.6088254810893,43.020163641391264 181.2976111479802,44.25628352245258 179.92700729926582,44.685779190665926 178.49369608494453,44.79053394906805 176.97080291970633,44.53912234269228 176.36164565366926,44.58102432142914 175.60019907105016,45.25145356955181 175.40311877906788,46.83322958769713 174.18480424687732,47.03225921748526 174.2385534173809,46.91703158582823 173.87126741878456,46.70752645747416 173.61147976113716,46.14186039681226 173.11877903121058,45.92187827832822 172.50066357001197,46.068533078287146 172.0975447910023,46.644674832547025 171.4525547445519,46.74942751861818 170.91506303916685,46.75990278113022 170.65527538151946,46.59229844793299 168.63968148641288,46.6341995578332 168.45155938953394,46.173286373850715 168.34406104846857,46.173286373850715 165.6028533510398,46.72847699025442 163.80225613806397,46.3827926325248 161.52687458531,45.56571571694076 161.5,45.387633955870115 161.92999336431967,45.30383066334616" stroke="#4dd2ff" stroke-linecap="round" stroke-linejoin="round" stroke-width="0.5"><title>2023-05-14 6.3km</title></polyline><polyline fill="none" points="11.8776937618386,80.75332964488916 12.204347826133016,78.73616817298898 11.5,78.4735764533907 11.898109640809707,78.39002441448247 12.010396975441836,78.18711206242006 12.21455576561857,76.27733087239903 12.081852552015334,76.15796847490856 12.43913043482462,76.16990472034377 12.633081285457592,72.25474850706087 12.786200378090143,71.93245825514168 15.154442344093695,72.09957183402003 17.696219281700905,73.0186920937631 17.920793950848747,72.95900918731786 18.175992438627873,72.46960816358478 20.146124763705302,72.91126283940685 21.25879017013358,72.98288235368818 28.649338374321815,72.83964327967988 30.87466918717837,73.34097924314847 31.77296786388615,73.0186920937631 32.15066162572475,70.76265627289831 32.395652173960116,70.48810915247304 34.34536862006644,70.63135121169762 36.131758034054656,70.54779336594947 38.5,69.72414843213483 38.28563327033771,69.24667035511811 36.92797731567407,69.80770688786288 35.83572778827511,70.03450809862261 34.478071833669674,70.08225566385227 32.273156899842434,69.80770688786288 31.344234404561576,70.54779336594947 31.150283553870395,71.1088234290437 31.28298676747363,71.56242016401666 31.09924385638442,72.33830508879328 30.12948960304493,72.5770378384259 29.088279773190152,72.29055847824202 28.720793950837106,71.9921417045698 27.832703213673085,71.9921417045698 27.424385633319616,72.24281184745632 26.475047258951236,72.32636843804357 25.5665406427579,72.15925519503071 24.014933837461285,72.23087518662214 22.340831758105196,72.06376180223015 21.18733459356008,72.23087518662214 20.503402646514587,72.05182512245665 19.584688090719283,72.23087518662214 18.16578449908411,71.93245825514168 17.71663516073022,71.52660996173654 17.686011342157144,70.96558197597915 17.267485822318122,70.9417083828157 17.818714555818588,71.06107629822509" stroke="#4dd2ff" stroke-linecap="round" stroke-linejoin="round" stroke-width="0.5"><title>2023-05-12 6.0km</title></polyline><polyline fill="none" points="56.05365607858403,88.35563351665041 56.32877598103369,88.3445283943147 55.598285205545835,87.94474320396694 55.80699685565196,88.00026901623642 55.949300253530964,87.80037595404428 55.88289200118743,88.31121302016254 56.05365607858403,88.20016169633163 56.698764815344475,88.5 57.249004620302,88.47778978475253 57.41028180450667,87.70042927964096 57.334386659029406,86.43442980173131 57.71386238653213,85.9013728042919 57.68540170695633,85.623737875183 60.00969053810695,83.8690680706859 60.711720634019,83.18051871030184 61.53708034142619,82.02552250371082 62.15372839861084,80.19305041840562 62.36244004877517,76.25035006396502 62.55217791249743,76.05043453563121 62.5426910193637,75.12859687567834 62.950627426442225,73.81801849725889 64.174436647736,71.76326508170314 66.30898761510616,69.7528996740075 67.14383421564708,68.44225388984341 68.07354974810733,64.15477234565333 69.40171479451237,61.5 68.11149732087506,64.0103722370186 67.36203275900334,67.5981004455316 66.95409635186661,68.77547047781991 66.10027596494183,69.98614847219869 64.66775509354193,71.20791938700859 63.79496092023328,72.2519668523164 63.026522571919486,73.56256486586062 62.628073058032896,74.89535955263273 62.523717232979834,75.47289863955666 62.63755995122483,76.10596666519996 63.76650024065748,76.03932810619153 65.11363907332998,76.18371159697563 65.82515606249217,76.02822167558043 66.76435848808615,76.19481801109214 67.45690169086447,76.10596666519996 67.750995379698,76.26145647095836 67.87432499113493,76.77234991874866 67.74150848650606,77.28324086971406 65.84412984887604,79.04912731822697 65.49311480089091,79.65996159899805 65.35081140307011,80.55954740497691 65.67336577142123,81.85893545950239 62.36244004877517,86.22342839852354 60.92991917737527,87.82258631316654 60.70223374082707,87.82258631316654 57.732836172915995,85.84584587741847 57.353360445355065,86.51216705346451 57.48617694998393,87.58937730717298" stroke="#4dd2ff" stroke-linecap="round" stroke-linejoin="round" stroke-width="0.5"><title>2023-05-09 7.6km</title></polyline><polyline fill="none" points="98.94451972824754,88.5 99.14833660831209,86.5253742155619 98.81349459115881,85.45293799169303 96.9354676247458,84.8571370018326 93.38323057221714,84.38049462188792 93.29588048078585,83.54636706043675 93.54337240656605,81.62275028511067 95.01376561279176,81.65679679957975 94.54789845831692,81.55465723454836 94.4023149725981,80.26088379997236 94.05291460675653,80.58432813371473 93.52881405805238,80.22683699020126 93.57248910376802,69.92734635573288 93.76174763520248,69.43363520609273 93.29588048078585,69.67197870883683 92.6844298405922,69.33148788248945 93.67439754377119,67.54389922301925 93.73263093811693,66.33513754123123 94.30040653253673,66.04571438264975 94.54789845831692,69.2293404940574 94.09658965247218,70.60832476618816 94.21305644110544,71.93622437746671 94.38775662396802,72.22563694084238 95.49419111578027,72.1064671248314 96.25122524169274,71.4765680598357 95.82903313299175,68.9739717393677 96.51327551610302,67.95249266753672 96.45504212175729,67.45877545815893 95.9600582701969,67.56092397061002 94.95553221844602,67.0672055597388 95.29037423571572,66.55646078179416 95.93094157305313,66.57348563388223 96.78988413908519,66.99910634967091 97.11016780772479,66.8118333734601 97.22663459635805,67.01613115487271 98.20204395084875,64.58156571917061 98.10013551090378,63.11740373156499 97.69250175071647,61.90860879354295 97.35765973350499,61.5 96.60062560753431,61.891583447824814 96.28034193889471,62.55557059420971 96.71709239616757,62.04481149405183 96.58606725896243,62.725823267232045 96.87723423045827,63.16847937401326 97.21207624772796,63.25360540873953 97.69250175071647,62.79392428601568 97.98366872227052,62.87905051896814 98.18748560227687,63.71328521810938 98.10013551090378,65.0412417344487 97.11016780772479,66.98208154267923 94.50422341265948,69.34851244089077 94.12570634967415,70.55725148538477 94.34408157825237,72.27670969208702 94.86818212707294,72.61719428631477 96.70253404753748,72.4469520792627 97.72161844791844,72.61719428631477 98.56600266532041,73.21304059261456 99.70155385421822,73.19601644303475 101.30297219753265,74.06424577436701 102.87527384376153,74.28555838404282 105.5103349359706,74.06424577436701 105.94708539324347,74.52389470030903 107.25733676512027,74.57496672208072 107.3155701594078,75.98795289857662 107.02440318791196,77.14557088144647 106.73323621635791,77.07747593650129 106.45662759343395,77.67330572784704 106.67500282207038,78.71174666276784 106.15090227330802,81.35037791002833" stroke="#4dd2ff" stroke-linecap="round" stroke-linejoin="round" stroke-width="0.5"><title>2023-05-06 6.0km</title></polyline><polyline fill="none" points="131.0428420305252,88.48883518038201 130.7376292461413,88.31019790533901 131.08099362859502,88.01991168599488 131.8249497904908,88.5 132.1301625748747,88.4665055376172 132.26369316806085,87.69612995725038 132.1492383739096,86.55730354105617 132.5402922538924,85.89856498214795 132.49260275636334,85.68642795733467 134.81985023716697,83.93348984222393 136.2696109630051,82.19168798450846 136.9849534263485,80.19304644649674 137.20432511513354,76.15098483863403 137.40462100482546,75.91649583106482 137.34739360777894,75.3581865644228 137.70983378926758,73.99589950602967 138.70177533844253,72.17576710690628 141.17209131200798,69.69676306987094 142.11634336365387,68.08872917995177 142.93660272168927,64.13554125385417 144.2623707538005,61.5 142.9079890231369,64.202545678163 142.16403286124114,67.86538919340092 141.81113057932816,68.7252455372145 140.95271962322295,69.94243274722248 138.7113132380182,72.11993432638701 137.75752328679664,73.83957035341882 137.34739360777894,75.34702034883958 137.47138630144764,75.73783718843333 137.1947872156743,76.26264608688507 137.0517187229707,79.85807487252896 136.36498995806323,82.04653652687557 135.87855708302232,82.81695351059898 135.0010703278822,83.76601014851622 132.54983015340986,85.67526283892221 132.2160036705318,85.55244645797211" stroke="#4dd2ff" stroke-linecap="round" stroke-linejoin="round" stroke-width="0.5"><title>2023-05-04 6.1km</title></polyline><polyline fill="none" points="162.3203300824971,80.08631591555604 162.59377344336826,77.04291295647272 162.6747936984175,76.8297532289871 162.8975993998465,76.80606878973776 162.6849212302477,76.71133098277642 162.63428357086377,76.24948302568373 162.90772693173494,72.7085853888857 163.1406601650524,72.56647344709927 163.99137284321478,72.73227069498535 165.2876969242352,72.7085853888857 167.0397599400021,73.34808689445344 167.79932483116863,73.45467012354493 168.05251312826294,72.00986660464696 167.88034508621786,71.59537034973619 167.12078019505134,71.61905589134403 166.74606151535409,71.21640100210789 165.62190547637874,71.27561504726327 165.19654913729755,71.08612999255274 164.66991747939028,71.28745785251522 163.98124531138455,71.28745785251522 162.69504876219435,70.62425882802927 162.08739684917964,70.74268751341151 161.5,70.4939871293609 161.51012753188843,70.99138734491862 162.14816204051021,71.09797281785723 162.25956489122473,70.64794457514654 162.74568642157828,70.68347318637097 163.8597149287816,71.28745785251522 164.76106526632793,71.45325699471869 165.3585896474542,71.29930065650842 165.7130532632582,71.66642695957125 168.41710427607177,72.62568677810486 169.6830457614269,72.89806769731513 170.04763690923573,72.94543822430569 170.58439609903144,72.69674273396959 171.3540885221446,72.89806769731513 172.3162040510215,72.69674273396959 172.79219804948661,72.80332658316911 173.19729932479095,72.63752944052976 173.65303825959563,72.83885451038077 175.80007501877844,72.7677986447161 176.48874718678417,72.98096610642096 177.52175543888006,72.89806769731513 177.90660165040754,72.62568677810486 178.82820705173071,72.62568677810486 179.1421605400974,72.90991033095634 180.30682670668466,73.18229055862321 181.2081770442892,73.00465135485865 181.3600900224992,72.12829382420023 181.22843210800784,71.79669729382294 181.42085521377157,71.24008662391861 182.3222055513761,70.45845845794975 185.63390847714618,70.70715892095905 187.04163540888112,70.4347726707565 188.27719429857098,69.91368408445123 188.5,70.35187237609352 187.50750187551603,70.8255875186369 185.76556639163755,71.25192943293223 184.3578394599026,71.32298626079864 182.45386346586747,71.14534410658234 182.1804201050545,71.50062813310069 182.08927231805865,72.69674273396959 181.82595648913411,73.64415116920281 180.83345836465014,73.98758474692295 178.7168042010744,73.47835527179996 171.17179294826929,73.6323086132179 169.41972993250238,73.37177206525666" stroke="#4dd2ff" stroke-linecap="round" stroke-linejoin="round" stroke-width="0.5"><title>2023-04-26 7.0km</title></polyline><polyline fill="none" points="11.5,107.8816031635215 11.878151260490995,107.10041524880216 11.70168067223858,106.5550550519838 11.739495798246935,104.68312678759685 11.878151260490995,104.25567507422238 12.168067226826679,104.10827762763074 15.672268907539546,104.4325518043479 17.714285714260768,105.2874528344546 18.30672268901253,105.22849431114446 19.31512605038006,105.52328667828988 19.79411764704855,105.86229712955537 20.235294117592275,105.75912012303888 21.004201680596452,106.02443227119511 22.995798319287132,105.89177626025048 23.890756302513182,106.45187855842232 24.571428571420256,106.18656722415471 25.390756302454975,106.45187855842232 26.10924369742861,106.30448343507305 26.689075630216394,105.92125538468827 27.193277310871053,106.36344150311197 28.54201680672122,106.15708815582911 29.134453781472985,106.2897439141816 30.886554621858522,105.52328667828988 31.630252100876532,105.59698467268026 32.91596638655756,106.11286954164098 33.30672268907074,105.62646385945845 34.20168067223858,105.75912012303888 35.3991596638225,105.31693208677461 35.66386554623023,104.594688609679 35.85294117644662,102.6932542064169 36.09243697475176,102.31001622333133 36.684873949561734,102.11839683649305 37.56722689070739,102.38371591737086 38.5,102.38371591737086 36.52100840333151,102.13313679870043 36.07983193278778,102.28053633484524 35.81512605038006,102.61955467615917 35.3991596638225,105.3464113328373 34.10084033611929,105.78859927556186 31.226890756282955,105.11057718961092 21.243697478959803,105.2874528344546 19.79411764704855,105.05161859143118 14.651260504149832,103.50394646626955 12.394957983167842,103.57764552872686 14.575630252074916,103.71030374293332 14.726890756282955,103.5629057193728 15.10504201677395,103.72504353668774" stroke="#4dd2ff" stroke-linecap="round" stroke-linejoin="round" stroke-width="0.5"><title>2023-04-20 5.0km</title></polyline><polyline fill="none" points="55.18024633004097,117.61733862921392 55.318181386683136,118.3815946527684 55.18944200052647,118.06943443788623 55.28139870491577,118.23089673802315 56.292922453256324,118.5 56.955010724952444,118.16631184885046 57.295250531169586,117.35899726173375 57.39640290598618,117.31594030313136 57.5803163148812,117.60657441870717 57.98492581414757,117.57428178036207 58.2516002569464,117.0575981674483 58.141252211644314,115.65823348906997 58.527470370114315,115.00160186468565 58.426317995239515,114.84013442014111 61.230997479346115,112.60109267281223 62.15976019378286,111.36313970170158 62.803457124507986,109.31779296459717 62.95978352200473,105.96979421174183 63.03334888553945,105.54994090312539 63.208066623832565,105.44228592836589 63.09771857858868,105.02243043397175 63.38278436224209,103.82744758134504 64.4402864627773,101.84654405961192 65.22191845014459,100.92067369736469 66.61966035695514,99.67181189817347 67.44727069651708,98.49829841942119 67.77831483236514,97.7015934482406 68.61512084235437,93.72874135125312 69.81975366995903,91.5 68.54155547881965,94.12711024314922 67.84268452547258,97.51856574551493 67.48405337834265,98.50906465992011 66.36218158470001,100.00556095527281 64.58741718978854,101.63122612574807 63.483936737058684,103.62289955424785 63.16208827169612,104.94707157133962 63.21726229431806,105.54994090312539 63.01495754462667,105.81907783957286 62.803457124507986,109.70533551624976 62.187347205064725,111.41696405835683 60.780409627826884,113.13932837834 58.536666040541604,114.8508989244292 58.57344872230897,115.03389532274014 58.306774279568344,115.4752382180668" stroke="#4dd2ff" stroke-linecap="round" stroke-linejoin="round" stroke-width="0.5"><title>2023-04-17 6.5km</title></polyline><polyline fill="none" points="86.65612952964148,111.04291408213612 86.5,110.9090397561813 86.5,110.54392716650182 87.16615265997825,102.21904578707472 87.3430994602968,101.64699234809086 88.13415574398823,101.86607697993895 88.58172706241021,101.73219197671278 89.63299922895385,101.8173915422376 91.6939090208034,102.52332837243739 92.02698535082163,102.42595803266886 93.42174248263473,102.94932263994997 93.51542020041961,103.27794571151753 93.9942174248281,103.41182891603967 94.66037008480635,103.15623357223376 96.1383962991531,103.37531533026777 96.47147262917133,103.2049184433854 97.06476484192535,103.58222549646598 97.80377794912783,103.47268486661778 98.8966846569092,103.6552525251318 99.55242868157802,103.33880173288344 99.52120277564973,103.10754868046206 99.75019275245722,103.09537745429407 99.9375481880852,103.54571196476172 100.54124903620686,103.59439667114202 101.11372397840023,103.42400010871643 101.69660755590303,103.5700543205312 102.42521202773787,103.18057601037435 102.46684656891739,103.53354078494885 102.64379336923594,103.6552525251318 103.12259059364442,103.54571196476172 103.44525828835322,102.94932263994997 104.88164996140404,103.47268486661778 104.8712413260946,103.11971990532766 105.7455666923197,103.15623357223376 106.71356977632968,102.77892512220569 107.09868928289507,100.44201941575011 107.37972243636614,100.17424593916076 107.75443330756389,100.0525305164847 109.24286815722007,100.36899034756061 109.56553585192887,100.23510360217915 110.94988434843253,100.32030427637801 111.8138010793482,100.13773132586357 113.5,99.41960824286798 113.26060138782486,98.95708591787115 111.87625289120479,99.49263791366684 110.33577486500144,99.74824139646807 107.1715497301193,99.45612308406999 106.21395528136054,100.28378970943595 106.04741711640963,100.89236431183963 106.21395528136054,101.25750752806925 105.98496530449484,102.09733252763544 104.88164996140404,102.29207368096831 104.32999228988774,102.18253182278568 103.64302235929063,101.72002060507657 102.60215882805642,101.69567785789695 102.18581341556273,101.96344779351784 101.26985350809991,102.06081852467469 100.520431765588,101.87824833615741 98.12644564377842,101.90259104466531 97.94949884345988,101.4279072990903 98.0535851965542,101.35487885670591 99.34425597533118,101.29402178597957 99.94795682345284,101.76870608396712 99.85427910560975,101.86607697993895 97.60601387813222,101.87824833615741 97.63723978406051,101.54962126672035 97.46029298374197,101.44007870163477 94.420971472573,101.98779048401047 92.71395528141875,101.64699234809086 89.75790285272524,100.50287693716382 89.36237471085042,100.5150484375772 89.21665381646017,100.35681883169309 89.65381649957271,100.14990286490502 90.11179645336233,100.36899034756061 91.25674633769086,100.30813275534456 91.56900539703202,100.67327782582288 91.81881264451658,100.67327782582288" stroke="#4dd2ff" stroke-linecap="round" stroke-linejoin="round" stroke-width="0.5"><title>2023-04-07 7.0km</title></polyline><polyline fill="none" points="124.0,108.14113639922289 124.0953689168091,105.78687245862238 124.34968602831941,104.58494051747402 126.74450549454195,104.82037145666254 129.20290423865663,105.51427041934949 129.41483516484732,105.05580192259367 132.1063579277834,105.65057151829387 140.2551020408282,105.51427041934949 143.07378335949033,106.08425577785965 144.04866562003735,105.78687245862238 144.43014128727373,103.49451736457559 144.7374411302735,103.11038860866392 146.63422291987808,103.30864876900887 147.0051020408282,103.17234494486911 148.35086342220893,103.2590837604148 151.0,102.34212731750449 150.84105180529878,101.85886360076984 148.0541601255536,102.68908465364075 146.8143642071518,102.71386728118523 144.55729984299978,102.39169271413994 143.60361067496706,103.2590837604148 143.3598901098594,105.10536617092293 142.36381475668168,105.29123191535473 141.64324960752856,105.16732145182323 140.78492935636314,104.65928718098439 139.84183673467487,104.68406939164561 139.48155416012742,104.94428228718607 138.5702511773561,105.00623765328783 137.97684458398726,105.00623765328783 137.69073783355998,104.82037145666254 135.47605965461116,104.89471797071747 135.25353218213422,104.79558927481412 135.04160125588533,104.3247268236446 131.61891679750988,104.95667336304905 129.80690737831173,104.63450496504811 126.58555729989894,103.44495243458368 124.24372056516586,103.56886472020415 124.18014128733194,102.71386728118523 125.22919937211554,103.2838662673239 126.83987441135105,103.37060500032385" stroke="#4dd2ff" stroke-linecap="round" stroke-linejoin="round" stroke-width="0.5"><title>2023-04-04 6.0km</title></polyline><polyline fill="none" points="164.64607657957822,115.88711611693725 181.92744516767561,116.93227016751189 187.73756046872586,99.68714353023097 173.43573818914592,93.06775403907523 163.1563034253195,104.73876498127356 162.70937147922814,114.84196140361018 168.66846409626305,117.97742355475202 184.16210489813238,115.19034638197627 186.9926738915965,101.60327762854286 175.372443289496,92.54516952473205 162.70937147922814,106.48069981997833 163.60323537141085,116.93227016751189 183.8641502680257,116.58388555771671 187.2906285226345,100.38391982403118 175.67039792053401,92.19677975727245 168.66846409626305,97.4226185400039 162.70937147922814,105.95811956189573 162.56039416324347,115.71292371093296 179.3948308052495,118.5 184.60903684515506,116.23550087457988 187.14165120664984,100.38391982403118 175.22346597351134,92.19677975727245 163.1563034253195,105.43553913745563 162.56039416324347,116.06130850501359 177.01119375880808,117.80323136947118 183.5661956369877,115.88711611693725 187.2906285226345,99.51294941047672 174.32960208132863,91.84838991542347 163.00732611026615,105.60973263089545 163.1563034253195,116.40969322540332 172.2439196659252,117.80323136947118 184.60903684515506,115.53873128595296 187.2906285226345,100.20972577808425 174.32960208132863,91.5 162.8583487952128,105.60973263089545 163.30528074130416,116.58388555771671 181.0335812754929,117.4548469443107 184.31108221411705,115.71292371093296 187.14165120664984,99.33875527279451 175.074488658458,91.84838991542347 163.4542580563575,104.73876498127356 162.26243953220546,115.71292371093296 183.5661956369877,116.40969322540332 186.54574194550514,99.86133763124235 175.372443289496,92.19677975727245 168.07255483418703,97.4226185400039 163.1563034253195,105.60973263089545 163.00732611026615,116.58388555771671 179.0968761742115,117.80323136947118 183.8641502680257,115.71292371093296 186.6947192605585,99.33875527279451 174.77653402741998,92.02258484519552 165.39096315670758,101.0806958230678 162.26243953220546,115.88711611693725 167.32766825705767,117.97742355475202 183.71517295297235,116.58388555771671 187.14165120664984,100.73230785992928 175.96835255157202,92.19677975727245 168.66846409626305,97.59681288083084 162.70937147922814,106.30650641873945 162.26243953220546,115.88711611693725 165.6889177877456,117.62903916602954" stroke="#4dd2ff" stroke-linecap="round" stroke-linejoin="round" stroke-width="0.5"><title>2023-03-30 5.2km</title></polyline><polyline fill="none" points="38.23615635174792,145.57071329683822 38.5,143.3817920731235 36.77873429498868,142.80884726480872 33.60004653321812,142.3681188809569 33.41158678452484,142.19182713582995 33.57491856679553,139.92939654539805 34.37901349464664,139.75310170493321 34.99464867380448,133.87647896647104 34.718241042341106,133.74425209438778 34.454397394147236,133.96463014456094 33.587482550006825,133.90586269872438 33.801070265239105,133.86178709802334 33.60004653321812,133.67079266661312 30.609818520199042,134.4200770068419 29.391112145152874,134.39069338337868 28.662401116802357,133.72956021194113 27.72010237321956,131.9224468174798 26.086784550978336,130.55607717535167 25.634481153974775,130.45323160446424 25.408329455531202,130.0712331028917 22.970916705438867,129.55700269137742 20.94811540248338,128.60199830347847 20.470684039057232,127.44129182041797 20.357608189806342,126.17772689736739 19.691717077686917,125.31085593953321 18.63634248485323,125.13454254005046 15.457654723082669,125.7222530010622 14.854583527194336,125.57532561900734 13.53536528616678,124.56152244545228 12.907166123739444,124.42928670317633 11.5,124.5909081488353 13.171009771933313,124.47336529794848 14.628431828750763,125.41370531918074 15.457654723082669,125.707560269846 18.58608655189164,125.16392812218692 19.641461144725326,125.32554871273169 20.319916240114253,126.20711225872219 20.45812005584594,127.48536945905653 20.94811540248338,128.6166907283914 22.732201023725793,129.51292571035447 25.307817589549813,130.0124640094 25.672173103725072,130.4973082870565 26.086784550978336,130.57076939352555 27.204979059984908,131.40822326109628 27.92112610518234,132.26036411778477" stroke="#4dd2ff" stroke-linecap="round" stroke-linejoin="round" stroke-width="0.5"><title>2023-03-28 5.0km</title></polyline><polyline fill="none" points="51.711376404506154,137.67169145087973 51.95786516851513,135.2328367881928 51.81566011236282,134.82266020112002 51.578651685325895,134.67854372179863 50.497893258405384,134.95569062147842 50.422050561755896,134.74505904458783 49.0,134.4124820085126 49.07584269659128,134.06881796236848 50.621137640438974,134.46791158781707 54.22366573032923,134.47899750016222 57.57970505615231,135.49889641867776 59.418890449393075,135.8092984671457 66.6713483146159,135.67626913038112 69.00351123599103,136.15295680554846 69.80933988757897,135.8314700068513 70.1885533707682,133.82492666524922 70.46348314604256,133.48126069215505 72.25526685389923,133.69189480935165 72.37851123593282,133.53669076406368 73.88588483142667,133.59212080662837 76.0,132.82718362952437 75.88623595505487,132.32830854912027 74.36938202247256,132.91587228407298 73.21278089884436,133.10433542571263 71.97085674159462,133.08216330903088 70.52984550560359,132.8160975424471 70.16959269659128,132.91587228407298 69.42064606735948,133.53669076406368 69.23103932582308,134.05773200661497 69.27844101120718,134.58985655908327 68.85182584263384,134.6120283568016 68.5484550561523,134.95569062147842 68.53897471912205,135.2771801068593 68.24508426961256,135.42129576290608 67.5625,135.17740761347522 67.30653089884436,134.5565988537346 66.8135533707682,134.32379462063545 66.13096910109743,134.46791158781707 65.68539325840538,135.0887208729764 64.91748595505487,135.2106651218346 64.42450842692051,135.2106651218346 64.15905898873461,135.03329162205046 61.997542134835385,135.06654917612468 61.79845505615231,134.5565988537346 59.76966292131692,134.8780895634627" stroke="#4dd2ff" stroke-linecap="round" stroke-linejoin="round" stroke-width="0.5"><title>2023-03-26 5.6km</title></polyline><polyline fill="none" points="113.5,144.83452427935117 112.73162055335706,144.8470035949067 110.75731225300115,144.198077435889 110.49051383399637,144.3977474035346 109.47667984192958,144.37278867603163 107.21422924904618,144.75964835836203 106.17905138339847,144.75964835836203 105.60276679845992,144.3353505749037 104.81304347829428,142.65062372710236 103.3936758893542,141.50249979241926 103.00948616600363,141.40266240036726 102.81739130435744,141.05323086282442 100.78972332016565,140.6663590244425 99.05019762844313,139.80525263519667 98.62332015804714,138.83182045112335 98.52727272722404,137.78349988345872 98.02569169958588,137.04717391396116 97.00118577078683,136.87245182265906 94.39723320154008,137.346696896886 93.79960474307882,137.23437586741784 91.80395256914198,135.74923219800257 91.93201581027824,135.16265769769234 91.1636363636353,133.46531930426863 90.9501976284082,133.3405140465038 90.93952569167595,132.82881110863673 90.5980237153708,132.42943166321493 90.52332015812863,131.94268613539316 90.3632411067374,131.71803367571556 89.77628458495019,131.51834224115737 89.42411067191279,130.95670826850255 89.31739130435744,130.7320539305365 89.71225296438206,130.53236082632066 87.6312252964708,127.36218750022817 86.5,125.12803777795489 87.50316205533454,127.16248868918774 90.25652173912385,131.45593859849032 90.17114624503301,131.65563013874635 90.90750988142099,132.75392756566725 90.89683794463053,133.40291669190628 91.18498023715802,133.55268290616368 91.9426877470105,135.23753971124097 91.76126482215477,135.69931107752927 92.12411067192443,135.8490743755683 92.40158102766145,136.26092246470216 93.77826086961431,137.19693550052034 94.27984189719427,137.30925656558975 96.99051383399637,136.87245182265906 97.99367588933092,137.09709446394118 98.49525691696908,137.69613941557327 98.56996047426946,138.70702087211976 99.03952569171088,139.80525263519667 100.53359683795134,140.5914804575441 102.80671936762519,141.06571057840483 103.09486166003626,141.4775404523316 103.34031620551832,141.4775404523316 104.81304347829428,142.65062372710236 105.61343873519218,144.21055681878352 106.18972332013072,144.77212768181926 107.01146245060954,144.8470035949067 108.99644268775592,144.36030931032292 109.5407114624395,144.6722930570977 109.8501976284897,144.3977474035346 110.47984189726412,144.37278867603163 110.63992094859714,144.1606392793401 112.51818181818817,144.8719622220524 113.20118577074027,144.80956564432563" stroke="#4dd2ff" stroke-linecap="round" stroke-linejoin="round" stroke-width="0.5"><title>2023-03-18 7.0km</title></polyline><polyline fill="none" points="124.0,135.97711123689805 125.76145868183812,135.92429646325763 129.15791234525386,136.91720953320328 130.60321177652804,137.17071767090965 137.66711274674162,137.07565219468233 139.88022750086384,137.58266702196124 140.72934091673233,137.19184331998986 141.03646704583662,135.36445814526815 141.28036132489797,135.03700408920122 144.05352960858727,135.13207150643575 145.35429909673985,134.8785581926859 146.66410170629388,134.36096651169646 146.52860488463193,133.89618802191399 148.25393108068965,132.91380818530888 150.8735362997977,132.41733297803876 151.0,132.50183957065747 149.34693877556128,132.59690940181463 148.2268317163107,132.8926816310268 145.8872532619862,134.1919564021082 144.7671462027356,134.51941322961648 143.37604550016113,134.63560732961923 141.3797256607795,134.32927713794925 141.06356641015736,134.4032189944046 140.31381733022863,135.11094542153296 140.15122114418773,135.62853321467992 140.27768484444823,135.92429646325763 140.18735362996813,136.53694611981336 139.93442622950533,136.76932948896865 139.06724657077575,136.84326953845448 137.96520575444447,135.8186668321723 137.17932418873534,135.90317054597108 136.754767480772,135.5651552617128 136.40247574442765,135.50177726850234 136.0682502509444,135.61797022529936 135.66175978590036,136.10386657959316 135.42689862829866,136.12499245441722 134.98427567747422,136.49469454003702 134.25259284040658,136.53694611981336 134.09902977582533,136.01936303566617 131.52459016395733,136.29399929198553" stroke="#4dd2ff" stroke-linecap="round" stroke-linejoin="round" stroke-width="0.5"><title>2023-03-14 5.6km</title></polyline><polyline fill="none" points="186.14631336409366,140.06227321514598 185.23387096775696,139.941026453831 183.5023041474633,139.37116495756345 182.25806451612152,139.71065725394874 181.99884792632656,139.49241232172062 179.8525345622329,140.00164985052834 179.18894009216456,139.9652758163429 178.50460829492658,139.39541444063798 177.56105990783544,137.576688970119 176.4827188940253,136.37631434855575 175.75691244238988,136.0974376366139 173.42396313365316,135.78218488424318 172.16935483872658,135.10317601048882 171.67165898618987,134.03615393724613 171.51612903224304,132.8842439558066 171.10138248850126,132.38710028147761 170.2822580645443,132.22946890997264 167.35829493089113,132.66598602294107 165.9377880184329,131.73232239489153 163.99884792621015,131.7929501342005 163.83294930873672,130.7986511593408 163.80184331798228,131.81720122088882 162.17396313365316,131.92633104764536 161.5,129.93772678485402 162.04953917051898,131.73232239489153 162.31912442395696,131.9748331595183 165.55414746538736,131.70807129020977 166.0,131.81720122088882 166.9850230414304,132.53260597040935 167.56566820282023,132.6781114745536 170.37557603686582,132.2779708935268 171.14285714289872,132.48410409459757 171.5472350230557,133.00549818336003 171.66129032260505,134.03615393724613 172.08640552993165,135.05467522265099 173.4550691244076,135.83068536414066 175.7050691244076,136.2671887595061 176.01612903230125,136.69156546660815 176.36866359447595,136.76431560142373 177.71658986172406,137.83131227349804 178.53571428573923,139.383289699741 179.03341013827594,139.9652758163429 180.32949308759999,140.05014854476758 180.9101382488734,139.75915607137722 182.43433179729618,139.48028759106091 183.27419354842277,139.56516067862685 183.38824884791393,139.39541444063798 185.46198156685568,140.06227321514598 188.5,139.941026453831" stroke="#4dd2ff" stroke-linecap="round" stroke-linejoin="round" stroke-width="0.5"><title>2023-03-12 6.0km</title></polyline><polyline fill="none" points="37.33766816143179,169.8422628702392 34.092825112107676,169.03524634345376 33.95964125561295,169.24761958548333 33.19686098652892,168.99277165462263 32.71255605382612,169.459992490476 32.61569506727392,169.20514496405667 29.927802690595854,169.75731399131473 29.05605381168425,169.6582068977732 28.402242152485996,168.9786134219903 27.058295964146964,166.6141675637482 26.08968609868316,165.62307004812465 24.98789237672463,165.22662898656563 22.38475336326519,164.87266276065202 20.931838564982172,164.03729875516728 20.471748878946528,162.89043459239474 20.39910313906148,161.65860658008023 19.87847533635795,160.9648133971932 18.67982062784722,160.75242700980743 15.568161435017828,161.26215377321932 15.156502242200077,161.19135850552993 14.793273542600218,160.75242700980743 13.739910313975997,160.15774333167064 13.26771300449036,160.07278830478026 11.5,160.228539146221 13.618834080698434,160.12942499534984 15.120179372257553,161.10640413482906 18.752466367732268,160.70994969189633 19.79372197308112,160.93649523169734 20.386995515669696,161.78603759000544 20.471748878946528,162.81964018613508 20.907623318373226,163.9240286580025 22.49372197309276,164.80186940304702 25.15739910316188,165.3398979811609 25.47219730936922,165.75049728273007 25.895964125636965,165.80713157029822 27.50627802690724,167.1380304282502 28.43856502242852,168.99277165462263 29.140807174902875,169.62989057184313 30.133632287033834,169.72899768636853 31.24753363232594,169.36088517673488 31.441255605372135,169.60157423988858 32.216143497789744,169.21930317264923 34.032286995556206,169.0635627951997 36.46591928246198,169.92721169521974 38.5,169.77147214153956" stroke="#4dd2ff" stroke-linecap="round" stroke-linejoin="round" stroke-width="0.5"><title>2023-03-05 5.0km</title></polyline><polyline fill="none" points="73.79131886479445,164.90349162828352 73.94156928214943,165.3953352291137 75.48914858099306,165.09671607370547 75.83472454093862,166.15066363882215 75.77462437393842,166.6776349147258 71.76293823041487,167.78426915498858 69.16360601008637,168.99628867718275 66.65442404005444,170.71769251630758 64.89649415691383,167.95992470589408 63.78464106854517,167.028948170293 53.32721202005632,164.6751351760031 53.207011686172336,164.37651472634752 53.79298831394408,162.74287570998422 53.627712854824495,162.40911952660827 53.823038397415075,161.5483768020349 49.0,159.1242202699068 53.80801335565047,161.49567812307214 52.696160267165396,164.64000338624464 52.29048414027784,166.69520059518982 52.921535893226974,165.16697945266787 53.32721202005632,164.92105749629263 62.28213689487893,166.712766273733 64.43071786314249,167.69644130986126 66.32387312193168,170.87577973007865 70.26043405680684,168.4693247536925 71.98831385647645,167.73157245348557 76.0,166.6249378623179 75.48914858099306,164.32381694426294" stroke="#4dd2ff" stroke-linecap="round" stroke-linejoin="round" stroke-width="0.5"><title>2023-02-22 5.0km</title></polyline><polyline fill="none" points="86.5,168.12874665253912 86.66954474098748,165.10536588393006 86.90266875980888,164.6840689263845 89.31868131872034,164.80797995354078 92.0843799058348,165.83643641995877 93.02747252746485,165.89839134037175 93.45133437996265,166.18338355235028 93.8328100470826,166.05947398018907 95.64481946628075,166.33207486596802 96.1004709576373,166.2577292327478 96.76805337524274,166.55511148242658 97.3614599686116,166.4559841497612 98.63304552593036,166.61706602275808 99.48076923075132,166.13381973920332 99.51255886972649,166.3816385951941 99.85164835164323,166.53032965715101 100.36028257460566,166.56750239311077 100.80533751961775,166.3940295242428 101.67425431706943,166.54272057043272 102.29945054941345,165.9479552531193 102.65973312401911,165.88600035889976 104.50353218207601,166.3072929934351 104.64128728414653,166.46837507092278 104.71546310832491,166.02230108295043 105.57378335949033,166.0718649433329 106.52747252746485,165.78687245999754 106.84536891675089,164.57254888987518 106.91954474098748,163.46973392309883 107.34340659336885,163.06082236400107 108.31828885403229,163.25908269214415 111.1157770800055,163.2466914314573 113.5,162.31734314450296 113.23508634214522,161.87125334746815 112.06946624803822,162.32973450348072 110.5117739403504,162.66430070088973 109.49450549448375,162.68908334416483 107.12087912089191,162.37929992639693 106.09301412873901,163.18473510839976 105.89167974877637,163.80429686416028 105.97645211929921,164.2875527585711 105.2558869701461,164.53537552077614 105.07574568293057,165.10536588393006 104.73665620095562,165.25405856600264 104.1114599686116,165.15493013225932 103.38029827317223,164.6964600350184 102.38422291993629,164.6840689263845 101.97095761384116,164.94428193205385 100.60400313971331,165.03101947213872 100.31789638928603,164.83276214326906 97.10714285715949,164.86993541799893 96.50313971744617,164.78319775861746 96.20643642073264,164.51059326813993 94.065934065904,164.9690640928893 92.37048665620387,164.646895592683 89.21271585562499,163.4821251601752 87.60204081633128,163.2466914314573 90.65384615381481,163.22190890619822" stroke="#4dd2ff" stroke-linecap="round" stroke-linejoin="round" stroke-width="0.5"><title>2023-02-10 5.9km</title></polyline><polyline fill="none" points="130.2253582283738,170.25753993881517 130.26052974379854,166.54240058214054 131.47980894480133,166.5561097792379 133.50803300039843,167.07705819400144 134.62179765518522,166.748038386213 135.07902735559037,165.36340420709166 135.16109422489535,164.14326875731058 135.5128093790845,163.75940354353224 137.5410334346234,164.04730256048788 137.92792010417907,163.85536995358416 139.83890577504644,163.88278891483787 141.78506296133855,163.2658608835336 145.1966999565484,161.5521564968658 149.10073816758813,161.01747608963342 151.0,160.3045654479647 150.8944854537258,160.38682456834067 150.7069040381466,160.05778777354863 150.74207555357134,159.74246006119938 150.10898827615893,160.0989174186252 148.47937472863123,160.5102131509775 147.77594442031113,160.53763282003638 147.61181068170117,160.3319851605629 145.43117672600783,160.72957034109277 143.9891445939429,161.2642519363726 141.60920538421487,162.6215106928139 139.86235345201567,163.16989403692423 137.72861485014437,163.32069904965465 136.0286582717672,163.00537927738333 135.18454190186458,163.03279841842595 134.22318714711582,163.85536995358416 134.0004342162283,164.48600459452427 134.07077724701958,165.11663616649457 133.55492835427867,165.11663616649457 133.1797655231785,165.47307874100807 133.09769865387352,166.00774076450034 132.71081198437605,166.1859609488165 131.9370386452647,165.8980666831194 131.6556665218668,165.15776420589827 130.9405123751494,164.78761138136906 130.13156752061332,165.0206706904719 129.68606165866368,165.71984610287473 128.72470690403134,165.8980666831194 128.00955275719753,165.9117759483488 127.763352149399,165.70613681730174 124.17585757706547,165.67871824183385 124.0,165.52791597311443 124.25792444631224,165.22631090920186 126.18063395569334,165.08921746628766 126.40338688663905,165.78839250885358 127.35301780281588,165.71984610287473 128.13851498044096,165.2126015714457 128.86539296567207,165.26743891381193 129.2053842813475,164.8561582804832 129.6039947894169,164.8424489035824 130.24880590528483,165.5416252775467 131.11636995215667,165.50049735994253 131.6322188449558,165.92548521213757 132.69908814586233,166.21337941696402 133.8831958314986,166.04886852107302 134.1880156317493,165.04808940512885 134.22318714711582,165.9529037353932 133.81285280070733,166.28192556192516 132.31220147636486,166.07628701823705 131.9487624837202,165.9117759483488 131.5384281371953,165.06179876030365 129.2874511506525,164.40374807621993 128.72470690403134,164.54084224431426 127.32957012590487,165.67871824183385 126.62613981764298,165.6650089519535 126.26270082499832,165.1303455143934 126.59096830221824,164.92470514337765 127.16543638735311,164.92470514337765 127.64611376461107,165.34969488385832 128.81849761179183,165.26743891381193 129.34607034298824,164.8972864025709 129.83847155881813,165.29485757630027 130.27225358225405,165.00696133096062 131.0343030829099,164.8561582804832" stroke="#4dd2ff" stroke-linecap="round" stroke-linejoin="round" stroke-width="0.5"><title>2023-02-05 7.1km</title></polyline><polyline fill="none" points="161.82088285230566,169.21691905512853 162.0653650254535,167.01026523227483 162.24108658745536,166.94772764408845 163.50933786077076,167.15320811709535 163.9601018675603,167.08173670493125 165.1519524618052,167.59096919676085 165.66383701187442,167.64457243831566 165.90831918505137,166.58143512616516 165.7249575551541,166.2151410194565 165.19779286923585,166.22407504096918 164.9456706281926,165.97392208154633 163.52461799659068,166.09899865386978 162.67657045839587,165.95605398465705 162.2792869269906,165.652295759166 161.55348047538428,165.51828442998521 161.5,166.06326250925486 161.55348047538428,165.54508671282383 161.81324278438115,165.52721852519608 161.95076400681864,165.63442759423924 161.93548387094052,166.0096582639526 162.08064516127342,166.2419430811351 163.86842105264077,166.09899865386978 165.870118845487,166.9119918586366 167.1918505942449,167.22467946875986 168.00169779287535,167.0906706347596 168.5212224108691,167.2961507599539 169.06366723260726,167.2514812100344 169.69779286926496,167.37655589021597 171.23344651953084,167.13534026969864 172.4100169778976,167.28721685185155 173.07470288625336,167.22467946875986 173.27334465197055,167.03706704161596 174.02971137521672,167.0191991696629 174.297113752109,167.2514812100344 174.9312393888249,167.45696094397135 175.66468590832665,167.40335758332367 175.87860780983465,167.24254729722452 175.87096774191014,166.37595326194423 176.01612903227215,165.97392208154633 176.6120543293364,165.42000932007795 178.75891341257375,165.61655942551442 179.89728353137616,165.46467983875482 180.81409168080427,165.15198571179644 183.167232597596,163.97267172898137 185.7495755517739,163.68677494975418 188.0797962648503,162.632522210537 188.47707979622646,161.90883262654825 188.27843803050928,160.78308094487147 188.5,161.86416022673802 188.41595925294678,162.14112872449186 188.30135823428282,162.40916188957635 187.35398981321487,162.98096313144197 187.20118845498655,163.23112495720852 186.5976230899687,163.26686230038467 185.91765704582212,163.62423490027868 184.74108658742625,163.86546055019426 184.0764006790996,163.81185490975622 182.93039049234358,164.0173430132927 180.79881154498435,165.12518330416788 179.81324278435204,165.45574573692284 178.34634974534856,165.58975716532586 176.6960950763605,165.36640466647077 175.95500848896336,165.93818588398426 175.74872665535077,165.75950466939685 175.97792869264958,166.02752634949138 175.8556876060902,166.331283225285 175.94736842103885,166.67970888447599 175.80984719863045,166.83158628601814 175.86332767404383,167.13534026969864 175.69524617993739,167.34975418866088 174.98471986415097,167.45696094397135 174.12903225806076,167.13534026969864 174.06027164685656,166.99239735467563 173.30390492358129,167.00133129394817 172.98302207130473,167.19787771895062 172.34889643461793,167.2514812100344 171.9745331069571,167.2514812100344 171.7758913412399,167.11747241857665 170.156196943979,167.1621420393567 169.28522920203977,167.04600097615912 168.33786078097182,167.18894380047277 167.91765704582212,167.05493490977824 167.32173174872878,167.21574555311963 166.19100169779267,166.99239735467563 163.80730050933198,166.13473478337983 163.28013582344283,166.05432847073826 162.0730050933489,166.23300906152872 161.9202037351497,165.92031777954253 162.03480475384276,165.5986912530061 162.66893039047136,165.99179017464485 163.36417657043785,166.13473478337983 164.90747028859914,165.97392208154633 165.13667232598527,166.22407504096918 165.48811544990167,166.25087709978834" stroke="#4dd2ff" stroke-linecap="round" stroke-linejoin="round" stroke-width="0.5"><title>2022-12-15 10.0km</title></polyline><polyline fill="none" points="11.5,198.61970566848322 11.73842874544789,195.37982792990078 13.703410475049168,195.51442455674987 13.9582825821999,195.6874770698123 15.627283800247824,196.07203703012055 15.890377588308183,194.95680866199837 15.824604141293094,194.61070052367722 15.109317905007629,194.56262984468776 14.862667478708318,194.24536272544356 13.974725943960948,194.28381940491818 13.62941534712445,194.12037840463017 13.070341047510738,194.32227606815286 12.486601705255453,194.28381940491818 11.689098660164746,193.8223381767457 11.606881851417711,194.26459106719994 11.80420219246298,194.57224398251856 13.645858708943706,194.29343357226753 13.92539585873601,194.62992878819932 15.980816077964846,195.34137171418115 17.37028014616226,195.6297929354114 18.118453105998924,195.46635435576172 18.77618757612072,195.67786304995388 20.362971985392505,195.6970910886448 21.234470158349723,195.64902098428138 21.596224116918165,195.48558243921434 22.903471376368543,195.67786304995388 23.552984165668022,195.6297929354114 23.857186358131003,195.399056031667 24.621802679641405,195.399056031667 24.81912302071578,195.60095085445937 25.501522533479147,195.74516116758605 25.690621193672996,195.947055221528 25.887941534718266,195.71631912327575 26.29080389768933,195.8028452287399 26.56211936660111,195.6970910886448 26.74299634594354,194.28381940491818 27.47472594399005,193.6396678765086 29.16839220462134,193.85118082218105 30.56607795372838,193.78388130194799 31.774665042641573,193.4666114639258 34.15895249697496,192.2167498097624 37.34074299639906,191.78410138576146 38.29445797810331,191.38029433152406 38.40956151037244,191.81294467812404 38.5,191.78410138576146 37.61205846531084,192.13022028979321 34.88246041414095,192.4571091552716 31.70066991474596,193.89925187750487 30.508526187593816,194.22613437955442 29.11084043851588,194.3126619038885 27.655602923274273,194.1107642190036 27.408952496945858,194.3991893458151 27.35962241172092,195.22600296940072 27.071863580989884,196.22586055866122 26.64433617540635,196.38929777240992 26.27436053592828,196.48543717261055 24.457369062147336,196.04319508955814 22.78014616324799,196.07203703012055" stroke="#4dd2ff" stroke-linecap="round" stroke-linejoin="round" stroke-width="0.5"><title>2022-12-12 7.2km</title></polyline><polyline fill="none" points="49.4368258859613,198.02224863461743 49.65523882897105,194.96963480499835 49.58243451471208,194.68990916513576 49.010400616331026,194.61693714713329 49.0,194.25207636241248 51.943374422204215,194.30072453397588 55.20916795072844,195.29800751378934 57.54930662561674,195.7601601076094 65.58898305083858,195.6385411840747 66.49383667181246,195.71151255363657 68.0227272727061,196.21014900597947 68.50115562404972,196.05204499916726 69.13559322035871,195.73583633319504 69.43721109401667,194.62909915336786 69.4892141756718,193.60748614617478 69.70762711868156,193.26694645967655 70.23805855162209,193.1818113804111 71.74614791985368,193.4858649453745 72.0685670261737,193.31559504804318 73.58705701079452,193.3642436158625 74.67912172572687,193.0723519001258 76.0,192.43991730692505 75.81278890604153,191.97775136538985 73.11902927584015,192.7926216437845 71.88135593221523,192.82910823755083 69.5724191062618,192.54937738931767 68.66756548540434,193.35208147585945 68.49075500766048,193.83856607326743 68.63636363635305,194.3128865736362 68.46995377499843,194.60477513964724 68.53235747298459,194.95747283482342 68.26194144837791,195.2493597642533 67.77311248076148,195.2007119941627 67.13867488439428,195.39530295107397 66.84745762712555,195.10341639216495 66.25462249614066,195.00612070783973 66.11941448383732,194.8358530621481 66.06741140218219,194.94531086332427 65.11055469955318,194.84801504520874 63.706471494573634,195.11557834690757 63.217642526957206,195.12774030038418 62.895223420578986,194.90882494115795 60.7526964560966,194.98179677388543 59.504622496140655,194.82369107779232 58.235747303580865,195.00612070783973" stroke="#4dd2ff" stroke-linecap="round" stroke-linejoin="round" stroke-width="0.5"><title>2022-12-06 5.0km</title></polyline><polyline fill="none" points="86.5,198.29425861632626 86.73098075162852,195.7090699516193 86.85472044002381,195.8344725856732 88.5870760770631,195.85376528331108 90.85563703026855,196.6061773068359 90.93813015587511,196.7701637187056 90.81439046750893,196.7701637187056 90.92163153071306,196.59653103810706 90.68240146661992,196.6061773068359 90.47616865264717,196.3939591595481 90.65765352893504,196.45183688504767 90.86388634284958,195.06276133350184 90.73189734190237,195.1495791754278 90.74839596706443,195.42932499263406 91.05362053166027,195.68013085773418 92.29926672781585,195.98881405236898 93.05820348308771,195.84411893499055 93.73464711278211,196.05633836190827 94.790559120127,196.08527733641677 97.07561869849451,195.88270432208083 97.71081576540018,196.05633836190827 98.64298808434978,195.95987504727964 98.8739688359492,195.77659446830512 99.69065077914274,195.77659446830512 99.7731439047202,195.94058237207355 100.77956003672443,196.22997207112348 101.56324472965207,196.09492365919868 101.75297891846276,194.63831736089924 102.51191567373462,194.00164769739058 104.6897341888398,194.2235179332638 105.74564619618468,194.1270526796725 106.91704857931472,193.77013035392156 109.1278643446567,192.59324143517006 109.87855178737664,192.4003073762433 111.8583868011192,192.23631310518977 112.93904674611986,191.94691073076683 113.35976168652996,191.70574138368102 113.49175068744808,192.17843270378216 113.5,192.07231853912526 111.81714023835957,192.6318281979693 109.49908340975526,192.9405217124222 108.29468377641751,193.54825901480217 106.05912007339066,194.51291308178043 104.368010999111,194.59008496625756 104.18652612282312,194.69619620079175 102.66040329975658,194.51291308178043 98.64298808434978,196.44219060002797 94.8235563703056,196.51936085173656" stroke="#4dd2ff" stroke-linecap="round" stroke-linejoin="round" stroke-width="0.5"><title>2022-11-27 5.6km</title></polyline><polyline fill="none" points="124.0,196.59935555000993 125.07120085012866,196.7559318855856 125.36769394262228,196.66645972222614 125.85547290113755,196.91250798923284 126.18065887351986,196.8565879788148 127.89266737509752,197.3822349088441 128.1795961742173,196.05133654937526 128.02656748139998,195.8276545082408 128.08395324117737,196.28620218321885 128.5621679064934,196.5881715171854 130.07332624861738,196.8789559865545 130.79064824653324,196.66645972222614 131.54622741765343,196.93487598508364 134.31030818278668,196.91250798923284 134.8459086078219,196.7335638518416 136.30924548354233,196.91250798923284 137.093517534493,196.8677719832849 137.44739638682222,196.59935555000993 138.39426142396405,196.5881715171854 138.4994686503196,196.80066793884907 139.59936238039518,197.13618773507187 140.34537725819973,197.0355319080045 140.6609989372664,196.71119581333915 140.76620616362197,196.16317739248188 140.64187035069335,195.71581331024208 140.79489904351067,195.2572631612129 141.67481402761769,194.54147358713817 143.88416578108445,194.8210794663537 145.38575982995098,194.70923720340215 146.94473963865312,194.18357698266482 149.18278427200858,192.96448258063901 151.0,192.6177650911486 149.32624867156846,192.89737605854316 146.89691817207495,194.20594555592834 145.34750265668845,194.69805297059793 143.91285866091494,194.78752679988247 141.92348565353313,194.4855523225633 141.56960680126213,194.5526578365243 140.76620616362197,195.30199984865612 140.62274176406208,195.71581331024208 140.7470775770489,196.16317739248188 140.5749202974839,196.46514707783354 140.64187035069335,196.81185194922728 140.38363443140406,197.04671589351346 139.3124335812754,197.09145182373322 138.18384697131114,196.554619411545 137.40913921355968,196.56580344793474 137.0361317746574,196.84540397319506 136.13708820403554,196.90132398950664 135.41976620611968,196.72237983319064 132.39744952175533,196.6776437467779" stroke="#4dd2ff" stroke-linecap="round" stroke-linejoin="round" stroke-width="0.5"><title>2022-11-23 5.3km</title></polyline><polyline fill="none" points="161.5,195.64989600601984 163.79856115108123,195.92751211590803 166.3669064748683,196.63416838923877 166.70143884891877,195.14513778725086 166.62589928059606,194.79180576328508 166.29136690648738,194.6277583963456 165.7517985611339,194.67823453324672 165.27697841724148,194.28704391336942 164.11151079135016,194.32490112616506 163.8525179856224,194.4637108038005 163.8956834532437,194.58990127961442 167.56474820140284,195.8391797873992 168.70863309357082,195.97798770284135 169.31294964026893,195.63727707659564 170.06834532372886,195.7634663108838 170.9856115108123,195.59942028028308 171.16906474821735,195.86441760222078 171.68705035973107,195.9401310146568 174.66546762589132,195.86441760222078 175.4100719424896,196.10417657672951 176.67266187054338,196.0410821564583 177.08273381291656,195.75084739346494 178.14028776978375,195.73822847470728 178.38848920859164,196.0158443790133 179.65107913670363,196.33131621326174 180.74100719427224,196.05370104319445 180.7194244604325,195.54894453316228 180.881294964056,195.29656547717605 180.762589928112,194.66561550099868 180.96762589929858,194.18609128703247 181.90647482016357,193.44156302940246 185.1762589928112,193.7570416720264 186.96762589929858,193.39108636909805 188.23021582735237,192.8484609222287 188.5,193.34060968748963 187.45323741005268,193.80751817743294 185.5755395683227,194.28704391336942 184.2482014388661,194.21132945166028 184.03237410075963,194.35013926137617 182.3381294964347,194.04728128637362 182.00359712226782,194.13561494184978 181.7338129496202,194.48894890960946 181.60431654681452,195.97798770284135 181.2805755395675,196.8991634124468 180.54676258994732,197.15153907776403 177.65467625902966,196.59631190929213 169.51798561151372,196.77297537958657 166.4856115108123,196.19250870901305" stroke="#4dd2ff" stroke-linecap="round" stroke-linejoin="round" stroke-width="0.5"><title>2022-11-18 5.5km</title></polyline><polyline fill="none" points="11.5,227.95875928016176 11.797053045185748,224.85737169697677 12.497249508858658,225.03105156960373 13.176227897871286,224.93180595957529 15.022200392966624,225.14270278041658 16.82573673868319,225.76298534946545 17.1121807465679,224.43557664969558 17.0591355599463,223.85250452729815 16.21041257365141,223.81528705937671 15.764833005843684,223.41829999967013 14.640275049139746,223.46792345563154 14.417485265235882,223.7532579198887 14.512966601236258,223.85250452729815 17.398624754394405,224.82015454793145 19.244597249489743,225.20473118498194 19.966011787822936,224.9566173699568 20.80412573675858,225.24194821198034 23.88074656185927,225.22954253762873 24.474852652230766,225.0186458729222 26.108644400781486,225.24194821198034 26.936149312357884,225.19232550671586 27.487819253467023,224.93180595957529 28.347151276946533,224.94421166543907 28.601768172869924,225.19232550671586 29.90667976421537,225.4652501257733 30.935756385035347,225.22954253762873 31.1055009822594,224.42317089002609 30.967583497054875,223.9145336143265 31.147937131638173,223.45551759363298 32.07092337909853,222.61191589706868 35.593123772065155,222.8848465218398 37.00412573671201,222.58710399059055 38.383300589281134,222.04124071983097 38.5,222.53748016190366 35.911394891911186,223.43070586561953 33.3546168958419,223.4803293163277 32.62259332020767,223.21980596583307 32.17701375245815,223.35627065017616 31.954223968554288,223.65401122844196 31.848133595252875,224.9566173699568 31.561689587368164,225.97388067553402 30.69174852652941,226.2716146078892 28.718467583472375,225.775390967392 19.976620825123973,225.8870414695848" stroke="#4dd2ff" stroke-linecap="round" stroke-linejoin="round" stroke-width="0.5"><title>2022-11-06 5.5km</title></polyline><polyline fill="none" points="49.0,233.31434389376955 49.62257281545317,229.9619087426545 50.06492718443042,220.78549743857002 50.441747572796885,219.0804345132492 50.540048543713056,219.25285733642522 52.538834951410536,219.19538308023766 58.158373786427546,220.45981250210025 58.5515776698594,217.77767898769525 58.404126213514246,218.5440069023898 59.01031553390203,218.984643985008 61.926577669917606,219.5785444433859 67.93932038830826,218.39074157885625 68.33252427179832,218.39074157885625 68.4144417475909,219.46359611958906 69.75788834947161,219.27201541773684 71.11771844659233,219.3486477227998 71.62560679606395,219.67433465748036 73.78822815534659,219.5977024902968 74.47633495146874,219.11875071037502 74.49271844665054,218.40989975140837 75.90169902914204,217.98841948750487 76.0,217.01134783015004 75.4757281554048,216.6856561062159 74.5910194175085,217.87347015435807 74.75485436891904,218.33326704913634 74.39441747573437,218.4865324213024 73.80461165052839,219.46359611958906 72.00242718443042,219.6934926942631 71.11771844659233,219.3486477227998 66.00606796116335,219.3486477227998 65.5964805824915,219.6551766187331 64.35133495146874,219.6551766187331 63.0570388349588,219.21454116767563 61.795509708696045,219.5785444433859 59.60012135922443,219.17622499080608 54.50485436891904,217.50946345145348 54.3410194174503,217.20293092356587 54.73422330094036,217.06882277947443 56.48725728149293,216.85808120950242 57.06067961163353,217.50946345145348 57.61771844653413,217.47114691387105 57.04429611645173,217.4519886420021 56.45449029124575,216.89639787684428 55.520631067920476,216.89639787684428 54.570388349471614,217.03050614862877 54.45570388343185,217.52862171718152 59.6820388349588,219.27201541773684 58.2894417475909,218.4673742568848 58.37135922326706,217.77767898769525" stroke="#4dd2ff" stroke-linecap="round" stroke-linejoin="round" stroke-width="0.5"><title>2022-11-02 5.0km</title></polyline><polyline fill="none" points="87.33140877593542,231.16727941273712 87.28983833716484,230.91209505889128 86.55196304846322,230.81488182262547 86.5,230.462483151794 86.77020785218338,228.63971415253036 86.77020785218338,226.96274113294203 86.9364896073821,226.61033064693038 86.8429561200901,225.3222003632036 87.07159353350289,222.6243712705982 87.28983833716484,221.60355455180252 87.466512701998,221.73723344780592 89.53464203228941,221.66431770563213 92.195150115469,222.49069340692222 92.45496535795974,220.7528670233296 92.31986143189715,221.15390621448023 92.50692840648117,221.44557020141656 94.63741339487024,221.93167520068528 97.95265588915208,221.23897495382698 99.07505773671437,221.2146696061609 99.70900692837313,221.53063872476923 100.05196304846322,221.32404363020032 101.45496535795974,221.3605016150541 101.88106235564919,220.97161584662535 102.51501154736616,221.28758563374868 103.31524249416543,221.00807394335425 103.91801385674626,221.27543296571093 104.18822170898784,221.98028558748047 104.9364896073821,222.21118464381289 105.98614318697946,221.99243818094692 106.16281755192904,221.08099010204023 106.0381062355591,220.61918698181398 106.23556581983576,220.13307642858854 106.87990762118716,219.48897677696368 107.51385681290412,219.3552952646205 109.34295612003189,219.6469638182607 110.54849884519354,219.6469638182607 111.88914549647598,219.3917538743117 113.30254041560693,218.83272058726288 113.5,219.2580722488492 112.35681293299422,219.79279781735386 110.82909930712776,220.18168757648527 109.24942263273988,220.27890981056407 107.30600461893482,220.06015966818813 107.01501154730795,220.40043748745666 106.63048498838907,222.63652379596897 105.80946882208809,222.9403365118851 102.8683602771489,222.442083236092 94.9699769053259,222.60006621604407 92.60046189371496,222.1018114644612 92.3094688221463,223.94898896698578" stroke="#4dd2ff" stroke-linecap="round" stroke-linejoin="round" stroke-width="0.5"><title>2022-10-28 6.2km</title></polyline><polyline fill="none" points="124.0,227.92132134532585 124.16901408456033,225.3273723036109 124.34859154932201,224.8579848913796 124.51760563382413,225.03091731540917 125.80633802816737,224.90739418150042 126.82042253523832,225.01856500787835 128.9542253521504,225.74734891511616 129.38732394366525,225.64853102476627 129.63028169010067,224.32683370183076 129.53521126759006,223.88214712684567 129.21830985916313,223.733917892132 128.60563380282838,223.7833276579404 128.25704225350637,223.43745885819226 127.1267605634057,223.49922121899726 126.96830985916313,223.64745075166138 127.09507042251062,223.857442267421 130.33802816906245,224.96915576477477 131.39436619722983,225.15444031860534 135.86267605633475,224.49976691255142 135.90492957748938,225.11738343136676 137.38380281691207,225.01856500787835 138.35563380282838,225.25325862710451 140.83802816900425,224.94445113540132 140.95422535209218,225.17914490357362 142.17957746476168,225.48795177457941 143.1725352111971,225.38913366469205 143.38380281691207,225.2162017712035 143.36267605633475,224.69740455401188 143.53169014083687,224.4750621838175 143.40492957748938,223.86979469778453 143.60563380282838,223.41275390471856 144.5246478873305,222.63454519469815 147.11267605627654,222.91865373755718 148.1478873239248,222.86924360587727 149.352112676017,222.63454519469815 150.73591549292905,222.07867865467415 151.0,222.51101952559839 149.7746478872723,223.0421789753891 148.15845070424257,223.46216380647093 146.901408450678,223.41275390471856 146.67957746476168,223.52392615416466 145.0,223.23981908405403 144.64084507041844,223.3386390129599 144.41901408450212,223.67215565547667 144.35563380277017,224.7468139121047 144.0281690140837,225.96968886259128 143.151408450678,226.24143711243232 142.39084507036023,226.1673240161108 142.26408450701274,225.94498444491182 141.84154929581564,226.00674547937524 140.78521126764826,225.75970114552183 136.2746478873305,225.82146227797057" stroke="#4dd2ff" stroke-linecap="round" stroke-linejoin="round" stroke-width="0.5"><title>2022-10-20 5.2km</title></polyline><polyline fill="none" points="167.59795918362215,226.22425924085837 168.00204081623815,226.84711125817557 169.06734693865292,227.1477977551258 170.1693877549842,226.73972311565012 173.03469387744553,227.04040977158002 173.23673469386995,226.7182454802969 173.71428571420256,227.2337081009755 174.5591836734675,227.4484838067292 175.16530612239148,227.2337081009755 177.9571428570198,227.51291647410835 178.91224489791784,226.61085726962483 179.48163265292533,227.1263201629481 180.82244897959754,226.80415600797278 182.1265306121204,226.99745456234086 183.7612244897755,226.7612007486896 183.98163265292533,228.32906182479928 184.25714285706636,228.09280956063594 184.31224489794113,226.5249466601672 184.82653061219025,226.15982616449764 187.85714285704307,227.06188737282355 188.5,228.13576453822316 188.0591836734675,226.39608067787776 186.44285714277066,222.55154125203262 184.18367346923333,223.34622855469934 183.50408163259272,224.46308112777479 181.77755102037918,224.74229331102106 180.89591836731415,224.74229331102106 180.5469387754565,224.39864749246044 175.0367346938001,224.4201253731735 174.5959183672676,224.0979569240444 172.13469387753867,224.57047047448577 171.69387755100615,224.22682436501782 177.09387755102944,223.4750964728446 177.36938775505405,223.99056732743338 177.0204081631964,224.52751474254183 174.4306122448761,224.22682436501782 172.26326530601364,224.57047047448577 171.49183673469815,224.29125805487274 175.29387755086645,223.58248634211486 177.31428571417928,223.51805242734554 177.3510204080958,224.18386856048892 177.05714285711292,224.52751474254183 174.37551020400133,224.22682436501782 172.13469387753867,224.54899260964885 171.5102040816564,224.31273594692175 173.03469387744553,224.03352317291137 173.51224489789456,224.3342138367443 176.9836734692799,224.63490405520133 177.31428571417928,224.37716960943362 177.33265306113753,223.51805242734554 176.0836734692566,223.4106625240238 170.05918367335107,224.65638191089965 167.32244897948112,224.1623906547611 161.75714285706636,222.29380416145432 161.5,221.9501541984646 161.904081632616,221.69241634452192 163.8510204080958,221.67093817521527" stroke="#4dd2ff" stroke-linecap="round" stroke-linejoin="round" stroke-width="0.5"><title>2022-09-24 5.1km</title></polyline><polyline fill="none" points="36.04545454541221,259.8041914785863 37.11264822119847,259.1178895230405 38.339920948725194,254.50092834205134 33.37747035548091,251.50612339074723 29.26877470361069,256.37267371604685 29.26877470361069,259.4922361433273 31.45652173901908,260.42810165468836 35.992094861576334,260.4904926359304 37.16600790503435,259.7418004247593 38.5,254.25136184343137 33.80434782616794,251.31894757662667 29.375494071282446,256.4350651263376 29.482213438721374,260.0537556281779 32.41699604713358,260.1785376634216 33.32411067187786,260.80244744365336 32.36363636353053,261.73831087659346 12.727272727061063,262.861345036712 11.92687747022137,263.48525197961135 13.314229249022901,262.4246097841533 33.91106719360687,262.923735760618 37.05928853736259,262.17504663724685 24.893280632328242,261.73831087659346 25.90711462451145,246.88910263794241 25.320158102782443,246.7643177920836 23.13241106714122,261.98787420796 11.5,261.86309255548986 11.660079051274806,262.54939131764695 37.16600790503435,262.861345036712 35.19169960450381,261.73831087659346 33.00395256909542,262.2374374339124 24.839920948725194,261.55113830877235 25.693675889167935,246.51474802038865 23.66600790503435,261.55113830877235 21.905138339847326,262.2374374339124 13.047430829843506,261.86309255548986 12.940711462404579,262.54939131764695 38.44664031616412,263.1732985905255 31.296442687511444,262.923735760618 36.73913043481298,262.861345036712 36.73913043481298,262.05026502447436 33.590909090824425,261.8007017194177" stroke="#4dd2ff" stroke-linecap="round" stroke-linejoin="round" stroke-width="0.5"><title>2022-09-22 5.0km</title></polyline><polyline fill="none" points="61.34896467725048,257.0766429074574 62.41778319119476,256.9228202250815 63.207064555434044,257.44197125631035 64.14433617546456,257.3073766868911 66.1668696711422,257.63424903976556 67.23568818520289,257.1535541998164 67.20280146162258,256.8074531278544 67.43300852621906,256.7497695518832 67.8276492083678,257.42274346679915 69.7350791717763,257.1920098337723 70.4257003653911,257.46119904382795 71.87271619972307,256.7497695518832 71.88915956154233,257.3650600859837 72.15225334954448,257.6150212705543 72.31668696715496,256.5959465928754 72.64555420225952,256.3844398117071 75.52314250922063,257.1535541998164 76.0,258.0572594473924 75.14494518883293,255.23076212748128 74.14190012181643,253.09643910708837 72.69488428748446,253.6156010673585 72.25091352016898,253.30794971434807 70.4257003653911,253.03875435327063 68.20584652863909,254.78851707362628 65.01583434839267,254.84620127212838 64.60475030448288,253.98093637276907 61.792935444565956,254.38472717172408 60.80633373942692,254.61546436839853 61.95736906211823,255.13462198991328 66.69305724726291,255.0961659206514 67.43300852621906,254.78851707362628 68.78136419004295,254.78851707362628 69.61997563956538,255.0961659206514 71.33008526189951,254.90388545228052 71.64250913524302,254.09630526401452 71.083434835542,253.59637287308578 70.12971985386685,253.5002318709885 68.68270401953487,254.28858658669924 67.72898903780151,253.59637287308578 66.42996345920255,253.96170821713167 64.80207064555725,253.92325189970143 64.76918392209336,254.88465739428648 63.437271620030515,254.65392053933465 61.398294762533624,254.98079766404408 60.362362971995026,254.65392053933465 59.65529841656098,254.9423415622441 58.48781973205041,254.90388545228052 51.746041412930936,252.86569998202322 52.14068209507968,252.25039421652036 51.05542021919973,251.94274055262213 50.41412911086809,252.4042208531464 49.0,252.15425250247063 49.26309378806036,252.3849925307295 51.72959805111168,252.67341715407383 53.965895249682944,252.28885088789684 54.67295980505878,252.94261305624968 55.56090133980615,252.78878687528777 56.07064555416582,252.98106958111748 55.74177831917768,255.86528575996635 55.28136419004295,255.86528575996635 56.3008526188205,256.3075281939091 55.69244823389454,256.3844398117071 55.54445797810331,256.98050374619197" stroke="#4dd2ff" stroke-linecap="round" stroke-linejoin="round" stroke-width="0.5"><title>2022-09-09 5.2km</title></polyline></svg>