<?xml version="1.0" encoding="utf-8" ?>
<svg baseProfile="full" height="300mm" version="1.1" viewBox="0,0,200,300" width="200mm" xmlns="http://www.w3.org/2000/svg" xmlns:ev="http://www.w3.org/2001/xml-events" xmlns:xlink="http://www.w3.org/1999/xlink"><defs /><rect fill="#222222" height="300" width="200" x="0" y="0" /><text fill="#FFFFFF" style="font-size:12px; font-family:Arial; font-weight:bold;" x="10" y="20">Over 5km Runs</text><text fill="#FFFFFF" style="font-size:4px; font-family:Arial" x="10" y="280">ATHLETE</text><text fill="#FFFFFF" style="font-size:9px; font-family:Arial" x="10" y="290">feng qijun</text><text fill="#FFFFFF" style="font-size:4px; font-family:Arial" x="120" y="280">STATISTICS</text><text fill="#FFFFFF" style="font-size:3px; font-family:Arial" x="120" y="285">Number: 19</text><text fill="#FFFFFF" style="font-size:3px; font-family:Arial" x="120" y="290">Weekly: 1.3</text><text fill="#FFFFFF" style="font-size:3px; font-family:Arial" x="141" y="285">Total: 110.5 km</text><text fill="#FFFFFF" style="font-size:3px; font-family:Arial" x="141" y="290">Avg: 5.8 km</text><text fill="#FFFFFF" style="font-size:3px; font-family:Arial" x="167" y="285">Min: 5.0 km</text><text fill="#FFFFFF" style="font-size:3px; font-family:Arial" x="167" y="290">Max: 10.0 km</text><polyline fill="none" points="12.25,53.96566685533617 14.892188022728078,53.8864446948719 19.986868517939,55.37581429979764 22.15481766476296,55.756076506353565 32.750669120112434,55.61347829202714 36.070341251266655,56.3740005329455 37.34401137504028,55.78776497997751 37.80470056878403,53.04668721789494 38.17054198734695,52.55550613379455 42.33029441291001,52.69810725963907 44.28144864505157,52.31783728902519 46.24615255941171,51.541449767537415 46.0429073269479,50.8442820328637 48.63089662103448,49.37071227795968 52.56030444969656,48.6259994670545 52.75,48.752759355978924 50.27040816331282,48.895364102718304 48.590247574436944,49.33902244652563 45.08087989297928,51.28793460315501 43.400719304103404,51.77911984441744 41.31406825024169,51.953410994421574 38.31958849116927,51.493915706916596 37.84534961526515,51.60482849160326 36.72072599531384,52.66641813229944 36.47683171625249,53.44279982201988 36.66652726667235,53.8864446948719 36.5310304450104,54.80541917971277 36.151639344287105,55.15399423344934 34.85086985613452,55.264904307667166 33.1978086316376,53.728000248243916 32.018986283044796,53.854755818945705 31.382151221157983,53.347732892565546 30.853713616612367,53.25266590274987 30.3523753763875,53.42695533794176 29.74263967887964,54.15579986937519 29.390347942477092,54.1874886816222 28.726413516211323,54.74204181005189 27.62888926063897,54.80541917971277 27.3985446637962,54.029044553491985 23.5368852459942,54.44099893797829" stroke="#4dd2ff" stroke-linecap="round" stroke-linejoin="round" stroke-width="0.5"><title>2023-03-14 5.6km</title></polyline><polyline fill="none" points="94.21947004616959,60.09340982271533 92.85080645169364,59.91153968073195 90.25345622125315,59.05674743633426 88.38709677424049,59.56598588092311 87.99827188946074,59.238618482573656 84.77880184334936,60.00247477578523 83.78341013833415,59.94791372450709 82.75691244244808,59.09312166094605 81.34158986178227,56.36503345517849 79.72407834103797,54.56447152282635 78.63536866358481,54.146156454924494 75.13594470050884,53.67327732635022 73.25403225811897,52.65476401572232 72.5074884793139,51.05423090586555 72.27419354842277,49.326365933709894 71.65207373275189,48.580650422212784 70.42338709684554,48.344203364948044 66.03744239639491,48.99897903439705 63.90668202767847,47.59848359233001 60.99827188940253,47.689425201300764 60.74942396313418,46.197976739000296 60.70276497694431,47.72580183132959 58.260944700450636,47.88949657145713 57.25,44.90659017727012 58.07430875580758,47.59848359233001 58.47868663590634,47.96224973927019 63.33122119813925,47.56210693530738 64.00000000005821,47.72580183132959 65.4775345621747,48.79890895560675 66.34850230423035,49.01716721183038 70.56336405529873,48.41695634028292 71.71428571437718,48.72615614188544 72.32085253461264,49.50824727503641 72.49193548387848,51.05423090586555 73.12960829492658,52.5820128339692 75.1826036866405,53.74602804619644 78.5576036866405,54.40078313925187 79.02419354848098,55.03734819989768 79.55299539177213,55.14647340212832 81.5748847926734,56.74696841023979 82.80357142863795,59.074934549600584 83.5501152073848,59.94791372450709 85.49423963139998,60.07522281714773 86.36520737328101,59.63873410706583 88.65149769594427,59.22043138658046 89.91129032260505,59.347741017933004 90.0823732719291,59.09312166094605 93.19297235028353,60.09340982271533 97.75,59.91153968073195" stroke="#4dd2ff" stroke-linecap="round" stroke-linejoin="round" stroke-width="0.5"><title>2023-03-12 6.0km</title></polyline><polyline fill="none" points="141.00650224206038,59.76339430536609 136.1392376681324,58.55286951518792 135.93946188339032,58.871429378225 134.79529147979338,58.48915748191939 134.06883408071008,59.189988735699444 133.92354260082357,58.80771744607773 129.89170403592288,59.6359709869721 128.58408071740996,59.48731034665252 127.60336322861258,58.4679201329709 125.58744394616224,54.92125134561502 124.13452914799564,53.43460507217969 122.48183856497053,52.83994347983389 118.57713004481047,52.30899414097075 116.39775784744415,51.055948132736376 115.70762331841979,49.335651888584835 115.5986547084758,47.48790987012035 114.81771300442051,46.44722009576799 113.01973094174173,46.12864051471115 108.35224215243943,46.893230659814435 107.73475336330011,46.787037758287624 107.18991031381302,46.12864051471115 105.60986547090579,45.23661499751324 104.90156950673554,45.109182457163115 102.25,45.342808719331515 105.42825112107676,45.19413749303203 107.68026905832812,46.659606202243594 113.1286995515693,46.06492453784449 114.69058295956347,46.404742847546004 115.58049327344634,47.6790563849936 115.70762331841979,49.22946027919534 116.36143497750163,50.88604298699647 118.74058295961004,52.20280410457053 122.73609865468461,53.00984697173408 123.20829596405383,53.62574592408782 123.84394618833903,53.71069735544734 126.25941704038996,55.70704564236803 127.65784753358457,58.48915748191939 128.711210762267,59.4448358577647 130.20044843049254,59.59349652954552 131.8713004484307,59.04132776509505 132.1618834079709,59.40236135982559 133.3242152465973,58.828954758966574 136.0484304932179,58.59534419279953 139.69887892366387,59.89081754282233 142.75,59.657208212302066" stroke="#4dd2ff" stroke-linecap="round" stroke-linejoin="round" stroke-width="0.5"><title>2023-03-05 5.0km</title></polyline><polyline fill="none" points="184.43697829719167,52.35523744246166 184.66235392319504,53.09300284369965 186.9837228715187,52.645074110580026 187.50208681134973,54.225995458255056 187.41193656087853,55.01645237211778 181.39440734568052,56.676403732504696 177.49540901510045,58.49443301578867 173.73163606016897,61.07653877447592 171.09474123537075,56.93988705886295 169.42696160275955,55.54342225546134 153.74081803008448,52.01270276401192 153.5605175292585,51.564772089535836 154.4394824708579,49.11431356499088 154.19156928220764,48.613679289934225 154.48455759615172,47.322565203066915 147.25,43.686330404889304 154.4620200335048,47.243517184615484 152.7942404007772,51.96000507938152 152.18572621047497,55.04280089279928 153.13230383989867,52.75046917902364 153.74081803008448,52.38158624446078 167.1732053423766,55.069149410614045 170.39607679471374,56.544661964828265 173.23580968286842,61.31366959512525 179.14065108518116,57.703987130575115 181.73247078468557,56.597358680242905 187.75,54.93740679349867 186.9837228715187,51.48572541640897" stroke="#4dd2ff" stroke-linecap="round" stroke-linejoin="round" stroke-width="0.5"><title>2023-02-22 5.0km</title></polyline><polyline fill="none" points="12.25,105.94311997880868 12.50431711145211,101.40804882589146 12.854003139655106,100.77610338958038 16.4780219780514,100.96196993031481 20.62656985875219,102.5046546299418 22.041208791197278,102.5975870105467 22.67700156988576,103.02507532852178 23.249215070623904,102.8392109702836 25.96722919936292,103.24811229894112 26.650706436426844,103.13659384912171 27.65208006283501,103.58266722362896 28.54218995285919,103.43397622463817 30.44956828886643,103.67559903413348 31.72115384612698,102.9507296087977 31.76883830456063,103.32245789279114 32.277472527406644,103.54549448571925 33.04042386187939,103.60125358967343 33.70800627942663,103.34104428636783 35.01138147560414,103.56408085564908 35.949175824120175,102.6719328796753 36.48959968605777,102.57900053834601 39.25529827311402,103.21093949014903 39.46193092619069,103.45256260638416 39.57319466251647,102.78345162441838 40.860675039177295,102.85779741499573 42.29120879113907,102.43030868998903 42.76805337512633,100.60882333481277 42.87931711145211,98.95460088465188 43.515109890082385,98.34123354598705 44.97743328096112,98.63862403821258 49.173665620037355,98.62003714717866 52.75,97.22601471675443 52.35262951324694,96.55688002120587 50.60419937205734,97.24460175521381 48.26766091049649,97.74645105132367 46.74175824172562,97.78362501625088 43.18131868127966,97.31894988959539 41.639521193050314,98.52710266259965 41.33751962316455,99.45644529623678 41.464678178948816,100.18132913786394 40.383830455190036,100.55306328115694 40.11361852433765,101.40804882589146 39.604984301375225,101.63108784900396 38.6671899529174,101.48239519838535 37.57044740970014,100.79469005252759 36.07633437990444,100.77610338958038 35.45643642079085,101.16642289808078 33.406004709599074,101.29652920820809 32.97684458392905,100.99914321491087 28.160714285739232,101.05490312699112 27.254709576140158,100.92479663791892 26.80965463106986,100.51588990220625 23.598901098885108,101.20359613932669 21.05572998424759,100.72034338902449 16.319073783350177,98.97318774026644 13.903061224438716,98.62003714717866 18.48076923075132,98.58286335930461" stroke="#4dd2ff" stroke-linecap="round" stroke-linejoin="round" stroke-width="0.5"><title>2023-02-10 5.9km</title></polyline><polyline fill="none" points="66.58803734264802,109.13630990822276 66.64079461572692,103.56360087321082 68.4697134172311,103.5841646688641 71.51204950071406,104.36558729101671 73.18269648274872,103.87205757931224 73.86854103347287,101.79510631064477 73.99164133728482,99.96490313597315 74.51921406865586,99.38910531530564 77.56155015190598,99.82095384072454 78.14188015635591,99.53305493037624 81.00835866259877,99.57418337225681 83.92759444203693,98.64879132529313 89.04504993488081,96.07823474530596 94.9011072514113,95.27621413444285 97.75,94.20684817196161 97.5917281806469,94.33023685251828 97.31035605724901,93.83668166032294 97.36311333044432,93.3636900917918 96.41348241420928,93.89837612792326 93.96906209294684,94.51531972647354 92.91391663055401,94.55644923006184 92.66771602258086,94.24797774084436 89.39676508901175,94.84435551163915 87.23371689103078,95.64637790454435 83.66380807640962,97.68226603922085 81.0435301780235,98.5048410553718 77.84292227530386,98.73104857449653 75.2929874076508,98.25806891608227 74.02681285282597,98.29919762763893 72.58478072076105,99.53305493037624 72.25065132440068,100.47900689177914 72.35616587055847,101.4249542497273 71.58239253144711,101.4249542497273 71.01964828488417,101.95961811150482 70.89654798083939,102.76161114675051 70.31621797662228,103.0289414232102 69.15555796783883,102.59710002466454 68.73349978285842,101.48664630885469 67.66076856281143,100.93141707204632 66.44735128094908,101.28100603570056 65.77909248799551,102.32976915431209 64.337060356047,102.59710002466454 63.2643291358836,102.61766392251593 62.895028224098496,102.30920522595989 57.51378636562731,102.26807736275077 57.25,102.04187395966437 57.63688666955568,101.58946636380279 60.52095093356911,101.38382619943877 60.855080330045894,102.43258876327309 62.27952670434024,102.32976915431209 63.45777247066144,101.56890235717583 64.54808944859542,101.6511583707179 65.05807642207947,101.03423742071027 65.65599218418356,101.01367335538089 66.62320885795634,102.0624379163055 67.92455492832232,102.00074603992107 68.69832826743368,102.63822781819908 70.29863221885171,103.07006912544603 72.074793747277,102.82330278160225 72.53202344768215,101.322134107686 72.58478072076105,102.67935560308979 71.9692792011192,103.17288834288775 69.71830221451819,102.8644305273483 69.1731437256094,102.61766392251593 68.55764220585115,101.34269814044819 65.18117672600783,100.35562211433717 64.337060356047,100.56126336645684 62.24435518879909,102.26807736275077 61.18920972652268,102.24751342793752 60.644051237613894,101.44551827160467 61.136452453327365,101.13705771505192 61.99815458105877,101.13705771505192 62.71917064697482,101.77454232577293 64.47774641774595,101.6511583707179 65.26910551451147,101.09592960386362 66.0077073383145,101.69228636445769 66.65838037338108,101.26044199643366 67.80145462439395,101.03423742071027" stroke="#4dd2ff" stroke-linecap="round" stroke-linejoin="round" stroke-width="0.5"><title>2023-02-05 7.1km</title></polyline><polyline fill="none" points="102.73132427845849,107.57537858269643 103.0980475381948,104.26539784840861 103.36162988119759,104.17159146613267 105.2640067912289,104.47981217564666 105.94015280134045,104.37260505739687 107.72792869270779,105.13645379514492 108.49575551785529,105.21685865747713 108.8624787775916,103.62215268924774 108.58743633277481,103.07271152918838 107.79668930388289,103.08611256146105 107.41850594233256,102.71088312231586 105.28692699491512,102.89849798080832 104.01485568762291,102.68408097698557 103.41893039055867,102.22844363875629 102.33022071310552,102.02742664497782 102.25,102.84489376388228 102.33022071310552,102.06763006923575 102.71986417664448,102.04082778780139 102.92614601028617,102.20164139135886 102.90322580648353,102.76448739593616 103.12096774193924,103.1129146217063 105.80263157899026,102.89849798080832 108.80517826828873,104.11798778795492 110.78777589136735,104.58701920314343 112.00254668935668,104.38600595214666 112.78183361631818,104.69422613993083 113.59550084895454,104.62722181505524 114.5466893039411,104.81483383532031 116.85016977932537,104.45301040454797 118.61502546689007,104.6808252777846 119.6120543294237,104.58701920314343 119.91001697798492,104.30560056242393 121.04456706286874,104.27879875449435 121.4456706282217,104.62722181505524 122.39685908326646,104.93544141596794 123.49702886253363,104.85503637498914 123.81791171478108,104.61382094583678 123.80645161290886,103.31392989292362 124.02419354842277,102.71088312231586 124.91808149404824,101.88001398011693 128.13837011886062,102.17483913827164 129.84592529706424,101.94701975813223 131.2211375212646,101.47797856769466 134.75084889639402,99.70900759347569 138.62436332768993,99.28016242463491 142.1196943973191,97.69878331581276 142.71561969438335,96.61324893982237 142.41765704576392,94.92462141730357 142.75,96.5462403401034 142.62393887946382,96.96169308674143 142.45203735143878,97.3637428343718 141.03098471986596,98.22144469717023 140.80178268253803,98.59668743581278 139.89643463498214,98.65029345058429 138.8764855687623,99.18635235042166 137.11162988113938,99.54819082529139 136.11460101866396,99.46778236463433 134.39558573852992,99.77601451993542 131.19821731752018,101.43777495625545 129.71986417652806,101.93361860538425 127.51952461805195,102.13463574799243 125.04414261458442,101.79960699970252 123.93251273344504,102.65727882598003 123.6230899830698,102.38925700409891 123.96689303900348,102.79128952424071 123.78353140916442,103.24692483793478 123.92105263163103,103.76956332671398 123.71477079798933,103.99737942903448 123.79499151109485,104.45301040454797 123.54286926990608,104.77463128299132 122.47707979625557,104.93544141596794 121.19354838714935,104.45301040454797 121.0904074702994,104.23859603201709 119.95585738541558,104.25199694093317 119.4745331070153,104.54681657843321 118.52334465197055,104.62722181505524 117.96179966046475,104.62722181505524 117.66383701184532,104.42620862786862 115.23429541598307,104.4932130590314 113.92784380313242,104.31900146423868 112.50679117150139,104.53341570071643 111.87648556876229,104.332402364671 110.98259762313683,104.57361832968309 109.28650254674722,104.23859603201709 105.71095076401252,102.95210217506974 104.9202037351788,102.83149270610738 103.10950764006702,103.09951359229308 102.8803056027391,102.6304766693138 103.05220713076415,102.14803687951644 104.00339558569249,102.73768526197091 105.04626485571498,102.95210217506974 107.36120543297147,102.71088312231586 107.70500848902157,103.08611256146105 108.23217317491071,103.12631564968615" stroke="#4dd2ff" stroke-linecap="round" stroke-linejoin="round" stroke-width="0.5"><title>2022-12-15 10.0km</title></polyline><polyline fill="none" points="147.25,106.67955850272847 147.60764311812818,101.81974189485481 150.55511571251554,102.02163683512481 150.9374238732853,102.28121560471482 153.44092570035718,102.85805554519175 153.83556638244772,101.18521299299027 153.73690621193964,100.6660507855122 152.6639768574969,100.59394476703892 152.29400121804792,100.11804408815806 150.96208891592687,100.17572910738818 150.44412302068667,99.9305676069489 149.60551157122245,100.23341410222929 148.72990255785407,100.17572910738818 147.53364799026167,99.48350726511853 147.41032277711201,100.14688660080719 147.70630328863626,100.60836597377784 150.46878806338646,100.19015035840857 150.88809378811857,100.69489318229898 153.97122411691817,101.76205757126445 156.05542021925794,102.19468940311344 157.17767965898383,101.94953153363895 158.16428136418108,102.26679457492719 160.5444579781033,102.29563663295994 161.85170523746638,102.22353147641115 162.39433617534814,101.97837365882879 164.35520706453826,102.26679457492719 165.32947624847293,102.19468940311344 165.7857795371674,101.84858404748957 166.93270401947666,101.84858404748957 167.22868453105912,102.15142628167814 168.25228380021872,102.36774175138271 168.5359317904804,102.67058283228835 168.83191230206285,102.32447868490999 169.43620584654855,102.45426784310257 169.84317904990166,102.29563663295994 170.11449451890076,100.17572910738818 171.21208891598508,99.20950181476655 173.7525883069029,99.52677123327157 175.84911693056347,99.42582195292925 177.66199756396236,98.9499171958887 181.238428745477,97.07512471465452 186.01111449458404,96.42615207863855 187.44168696715496,95.82044149728608 187.61434226552956,96.46941701718606 187.75,96.42615207863855 186.41808769793715,96.94533043468255 182.32369062118232,97.43566373291833 177.55100487207528,99.5988778162573 175.76278928137617,100.08920156933891 173.66626065777382,100.21899285582185 171.48340438492596,99.9161463285127 171.1134287454188,100.34878401872993 171.03943361755228,101.58900445410109 170.60779537149938,103.08879083799548 169.96650426310953,103.33394665861852 169.41154080384877,103.47815575891582 166.68605359317735,102.81479263433721 164.17021924484288,102.85805554519175" stroke="#4dd2ff" stroke-linecap="round" stroke-linejoin="round" stroke-width="0.5"><title>2022-12-12 7.2km</title></polyline><polyline fill="none" points="12.905238828912843,154.53337295191886 13.232858243456576,149.95445220750116 13.123651772039011,149.5348637477 12.265600924554747,149.42540572069993 12.25,148.87811454362236 16.66506163327722,148.95108680096746 21.56375192606356,150.4470112706913 25.073959938366897,151.14024016141775 37.133474576228764,150.95781177611207 38.49075500766048,151.06726883046213 40.78409090905916,151.81522350896557 41.50173343607457,151.57806749874726 42.453389830479864,151.1037544997962 42.90581664099591,149.44364873005543 42.9838212634786,147.91122921925853 43.311440678022336,147.40041968951118 44.10708782746224,147.27271707062027 46.36922187980963,147.72879741806537 46.852850539260544,147.47339257206477 49.13058551616268,147.5463654237974 50.76868258859031,147.10852785018506 52.75,146.15987596039486 52.46918335900409,145.46662704808114 48.42854391376022,146.6889324656804 46.57203389832284,146.74366235632624 43.108628659450915,146.32406608398014 41.751348228077404,147.52812221378554 41.48613251151983,148.2578491098975 41.70454545458779,148.9693298604543 41.45493066246854,149.40716270948178 41.54853620950598,149.93620925223513 41.14291217259597,150.3740396463836 40.40966872108402,150.30106799124042 39.45801232662052,150.59295442661096 39.02118644065922,150.15512458824378 38.13193374418188,150.0091810617596 37.92912172578508,149.7537795932294 37.85111710324418,149.91796629499004 36.415832049329765,149.7720225678204 34.309707241889555,150.17336752035771 33.57646379043581,150.19161045056535 33.09283513092669,149.86323741172964 29.879044684174005,149.97269516081724 28.006933744240087,149.73553661668848 26.103620955371298,150.0091810617596" stroke="#4dd2ff" stroke-linecap="round" stroke-linejoin="round" stroke-width="0.5"><title>2022-12-06 5.0km</title></polyline><polyline fill="none" points="57.25,154.94138792448211 57.59647112741368,151.06360492741806 57.78208065999206,151.25170887850982 60.38061411550734,151.2806479249557 63.78345554537373,152.40926596024656 63.90719523379812,152.65524557804747 63.72158570121974,152.65524557804747 63.882447296055034,152.39479655715695 63.52360219985712,152.40926596024656 63.21425297897076,152.09093873931852 63.486480293329805,152.1777553275606 63.795829514216166,150.09414200024912 63.597846012795344,150.22436876312713 63.62259395053843,150.64398748894746 64.08043079747586,151.02019628659764 65.94890009169467,151.48322107855347 67.0873052245588,151.26617840248218 68.10197066911496,151.5845075428515 69.68583868013229,151.62791600462515 73.11342804768356,151.3240564831067 74.06622364808572,151.5845075428515 75.46448212646646,151.43981257091218 75.81095325388014,151.16489170244313 77.03597616864135,151.16489170244313 77.15971585700754,151.41087355811032 78.66934005502844,151.8449581066816 79.8448670944199,151.64238548879803 80.12946837767959,149.45747604133794 81.26787351054372,148.50247154607496 84.53460128325969,148.8352768998884 86.11846929421881,148.69057901950146 87.87557286891388,148.1551955308678 91.1917965169414,146.3898621527478 92.3178276810213,146.10046106435766 95.28758020163514,145.85446965777373 96.90857011912158,145.4203660961357 97.53964252973674,145.05861207551789 97.73762603115756,145.76764905567688 97.75,145.60847780868062 95.22571035748115,146.4477422969503 91.74862511456013,146.91078256862238 89.94202566455351,147.82238852219598 86.58868010999868,149.26936962266336 84.05201649863739,149.38512744937907 83.77978918422014,149.54429430118762 81.49060494959122,149.26936962266336 75.46448212646646,152.16328590003832 69.73533455544384,152.27904127759393" stroke="#4dd2ff" stroke-linecap="round" stroke-linejoin="round" stroke-width="0.5"><title>2022-11-27 5.6km</title></polyline><polyline fill="none" points="102.25,152.3990333250258 103.8568012752803,152.6338978283893 104.30154091393342,152.49968958333193 105.03320935176453,152.86876198384562 105.520988310338,152.78488196822582 108.08900106267538,153.57335236326617 108.51939426141325,151.57700482406653 108.28985122212907,151.24148176236486 108.37592986185336,151.92930327483919 109.09325185976923,152.3822572757781 111.35998937301338,152.81843397983175 112.43597236985806,152.49968958333193 113.56934112648014,152.90231397762545 117.71546227420913,152.86876198384562 118.51886291184928,152.6003457777697 120.7138682253426,152.86876198384562 121.89027630182682,152.80165797493828 122.42109458026243,152.3990333250258 123.84139213600429,152.3822572757781 123.99920297553763,152.7010019082809 125.64904357068008,153.2042816026078 126.7680658873287,153.0532978620031 127.24149840592872,152.56679372000508 127.39930924546206,151.74476608872646 127.21280552609824,151.07371996536676 127.44234856532421,150.3858947418339 128.76222104148474,149.3122103807109 132.07624867162667,149.73161919953418 134.32863974495558,149.56385580511414 136.66710945800878,148.7753654739936 140.02417640807107,146.94672387096216 142.75,146.42664763673383 140.23937300744,146.84606408781838 136.59537725819973,148.80891833390342 134.27125398511998,149.54707945589325 132.11928799148882,149.68129019983462 129.1352284803288,149.2283284838486 128.6044102019514,149.32898675478646 127.39930924546206,150.45299977298419 127.18411264615133,151.07371996536676 127.37061636557337,151.74476608872646 127.11238044634229,152.1977206167503 127.21280552609824,152.7177779238409 126.8254516471643,153.0700738402811 125.2186503719422,153.13717773561075 123.52577045699582,152.33192911732476 122.36370882036863,152.34870517191302 121.80419766210252,152.76810595979623 120.4556323060533,152.8519859842636 119.37964930920862,152.58356974978233 114.8461742826621,152.51646562016685" stroke="#4dd2ff" stroke-linecap="round" stroke-linejoin="round" stroke-width="0.5"><title>2022-11-23 5.3km</title></polyline><polyline fill="none" points="147.25,150.9748440090334 150.69784172659274,151.39126817387296 154.55035971227335,152.45125258386543 155.05215827329084,150.21770668087993 154.93884892086498,149.68770864493854 154.43705035967287,149.4416375945293 153.62769784167176,149.51735179987736 152.91546762583312,148.9305658700614 151.16726618702523,148.98735168925487 150.7787769783754,149.19556620570074 150.84352517983643,149.3848519194289 156.34712230210425,151.2587696811097 158.06294964032713,151.46698155427293 158.96942446037428,150.95591561490437 160.1025179855642,151.14519946633663 161.47841726616025,150.89913042043918 161.75359712226782,151.29662640334573 162.5305755395675,151.41019652198884 166.9982014388661,151.29662640334573 168.11510791367618,151.65626486510155 170.00899280578597,151.5616232346947 170.62410071934573,151.12627109020832 172.21043165464653,151.10734271207184 172.58273381291656,151.5237665685272 174.47661870502634,151.99697431990353 176.11151079135016,151.58055156479531 176.07913669064874,150.82341679975798 176.3219424460549,150.44484821577498 176.14388489210978,149.49842325151258 176.45143884891877,148.77913693056325 177.85971223021625,147.66234454412188 182.7643884891877,148.13556250804686 185.45143884891877,147.58662955365435 187.34532374102855,146.77269138334668 187.75,147.51091453124536 186.17985611507902,148.21127726616396 183.36330935248407,148.9305658700614 181.37230215827003,148.8169941774977 181.04856115108123,149.0252088920679 178.50719424459385,148.5709219295677 178.00539568340173,148.70342241278559 177.60071942443028,149.23342336442147 177.40647482016357,151.46698155427293 176.92086330935126,152.8487451186811 175.82014388492098,153.22730861665332 171.48201438848628,152.39446786395274 159.27697841724148,152.65946306938713 154.72841726616025,151.78876306352322" stroke="#4dd2ff" stroke-linecap="round" stroke-linejoin="round" stroke-width="0.5"><title>2022-11-18 5.5km</title></polyline><polyline fill="none" points="12.25,203.18813892024627 12.695579567807727,198.53605754548335 13.745874263287988,198.79657735441288 14.764341846806929,198.6477089393884 17.533300589420833,198.9640541706467 20.23860510805389,199.89447802421637 20.668271119880956,197.90336497455428 20.58870333986124,197.02875679096906 19.315618860477116,196.97293058907962 18.647249508823734,196.37744999951974 16.96041257370962,196.45188518347277 16.626227897882927,196.87988687984762 16.769449901825283,197.02875679096906 21.097937131591607,198.48023182191537 23.86689587420551,199.05709677748382 24.9490176817053,198.68492605494976 26.206188605108764,199.1129223179887 30.821119842818007,199.0943138064613 31.712278978317045,198.7779688094015 34.16296660120133,199.1129223179887 35.40422396856593,199.03848826009198 36.23172888014233,198.6477089393884 37.520726915448904,198.66631749816588 37.90265225933399,199.03848826009198 39.86001964629395,199.44787518867815 41.40363457752392,199.0943138064613 41.65825147344731,197.88475633505732 41.45137524558231,197.1218004215043 41.721905697428156,196.43327639046765 43.1063850686769,195.16787384562485 48.38968565815594,195.57726978276332 50.506188605038915,195.1306559858931 52.57495088397991,194.31186107975373 52.75,195.05622024287004 48.86709233780857,196.39605879843293 45.031925343791954,196.47049397449882 43.933889980311505,196.07970894876053 43.26552062865812,196.28440597528243 42.931335952773225,196.7310168426775 42.77220039285021,198.68492605494976 42.34253438108135,200.21082101331558 41.03762278979411,200.65742191184836 38.07770137517946,199.91308645110985 24.96493123768596,200.08056220439903" stroke="#4dd2ff" stroke-linecap="round" stroke-linejoin="round" stroke-width="0.5"><title>2022-11-06 5.5km</title></polyline><polyline fill="none" points="57.25,211.22151584064704 58.18385922326706,206.19286311397445 58.84739077673294,192.42824615785503 59.41262135922443,189.87065176988835 59.56007281562779,190.12928600463783 62.55825242714491,190.04307462036377 70.98756067967042,191.93971875315765 71.5773665048182,187.9165184815356 71.35618932032958,189.066010353592 72.26547330094036,189.72696597751928 76.63986650493462,190.61781666509341 85.6589805824915,188.83611236829893 86.24878640775569,188.83611236829893 86.37166262138635,190.4453941794054 88.38683252432384,190.15802312662709 90.4265776699176,190.2729715841997 91.18841019412503,190.76150198624237 94.4323422331363,190.64655373545247 95.46450242726132,189.92812606555526 95.48907767003402,188.8648496271344 97.60254854371306,188.23262923126458 97.75,186.76702174523962 96.9635922331363,186.27848415932385 95.63652912632097,188.06020523156621 95.88228155346587,188.74990057371906 95.34162621363066,188.97979863197543 94.456917475909,190.4453941794054 91.75364077673294,190.79023904140922 90.4265776699176,190.2729715841997 82.75910194183234,190.2729715841997 82.14472087379545,190.73276492810692 80.27700242726132,190.73276492810692 78.33555825252552,190.07181175152073 76.44326456310228,190.61781666509341 73.15018203889485,190.01433748623822 65.50728155346587,187.51419517718023 65.26152912620455,187.05439638535609 65.85133495146874,186.85323416921892 68.4808859223267,186.53712181426818 69.3410194175085,187.51419517718023 70.1765776699176,187.4567203708284 69.3164441747358,187.42798296301044 68.43173543689772,186.5945968152664 67.03094660188071,186.5945968152664 65.60558252432384,186.795759222965 65.43355582514778,187.54293257577228 73.2730582524091,190.15802312662709 71.18416262138635,188.95106138533447 71.30703883501701,187.9165184815356" stroke="#4dd2ff" stroke-linecap="round" stroke-linejoin="round" stroke-width="0.5"><title>2022-11-02 5.0km</title></polyline><polyline fill="none" points="103.49711316399043,208.00091911910567 103.43475750577636,207.61814258834056 102.32794457272394,207.47232273394184 102.25,206.94372472769464 102.65531177830417,204.20957122879918 102.65531177830417,201.69411169941304 102.90473441110225,201.1654959703883 102.76443418016424,199.23330054480175 103.10739030025434,195.18655690590094 103.43475750577636,193.6553318277147 103.69976905308431,193.8558501717198 106.80196304846322,193.7464765584591 110.79272517323261,194.9860401103797 111.18244803696871,192.37930053500168 110.97979214787483,192.9808593217167 111.26039260975085,193.41835530212848 114.45612009236356,194.14751280102064 119.42898383375723,193.10846243074047 121.11258660512976,193.07200440924498 122.06351039255969,193.54595808715385 122.57794457278214,193.2360654452932 124.68244803696871,193.2907524225884 125.32159353350289,192.70742376994167 126.27251732104924,193.18137845062301 127.47286374133546,192.762110915035 128.3770207851776,193.16314944857731 128.78233256348176,194.22042838121706 129.90473441110225,194.56677696573024 131.4792147805565,194.23865727141674 131.74422632792266,192.87148515306762 131.55715935339686,192.17878047272097 131.85334872978274,191.44961464288644 132.81986143183894,190.48346516543825 133.7707852193853,190.28294289692712 136.51443418010604,190.72044572739105 138.3227482678485,190.72044572739105 140.33371824474307,190.33763081146753 142.4538106234977,189.49908088089433 142.75,190.13710837326653 141.03521939954953,190.9391967260308 138.74364896072075,191.52253136472427 136.37413394916803,191.66836471584975 133.45900692843134,191.34023950228584 133.02251732104924,191.85065623118135 132.44572748267092,195.20478569394618 131.21420323319035,195.6605047678313 126.80254041572334,194.913124854138 114.95496535801794,195.15009932406247 111.40069284063065,194.40271719668817 110.96420323324855,197.17348345048958" stroke="#4dd2ff" stroke-linecap="round" stroke-linejoin="round" stroke-width="0.5"><title>2022-10-28 6.2km</title></polyline><polyline fill="none" points="147.25,203.13198201797786 147.5035211268114,199.2410584554018 147.7728873239248,198.53697733704757 148.0264084507362,198.79637597310648 149.95950704225106,198.61109127223608 151.48063380282838,198.77784751181025 154.68133802822558,199.8710233726597 155.33098591543967,199.72279653714213 155.6954225351801,197.74025055272796 155.55281690135598,197.07322069024667 155.0774647887447,196.8508768381871 154.15845070418436,196.92499148689967 153.63556338025955,196.40618828727747 151.94014084507944,196.49883182847407 151.7024647887447,196.72117612748116 151.89260563376592,197.03616340110602 156.75704225356458,198.70373364714033 158.34154929581564,198.98166047790437 165.04401408450212,197.99965036881622 165.10739436623408,198.92607514704287 167.3257042253972,198.77784751181025 168.78345070424257,199.12988794063858 172.50704225350637,198.6666767030838 172.68133802816737,199.01871735534223 174.5193661971134,199.48192766186548 176.00880281685386,199.33370049702353 176.325704225339,199.07430265679432 176.29401408450212,198.29610683101055 176.5475352112553,197.96259327571897 176.35739436623408,197.0546920466586 176.65845070418436,196.36913085707056 178.03697183099575,195.20181779203995 181.91901408444392,195.62798060632485 183.4718309858581,195.55386540880136 185.27816901402548,195.20181779203995 187.35387323936448,194.3680179820076 187.75,195.0165292883903 185.91197183093755,195.8132684630691 183.48767605633475,196.44324570968456 181.602112676017,196.36913085707056 181.26936619717162,196.53588923123607 178.7499999999418,196.10972862606286 178.21126760559855,196.25795851943258 177.87852112675318,196.75823348319682 177.78345070418436,198.37022086814977 177.29225352109643,200.20453329387237 175.977112676017,200.61215566862666 174.83626760559855,200.50098602414073 174.6461267604609,200.16747666735318 174.01232394372346,200.26011821904103 172.4278169014142,199.8895517182682 165.66197183099575,199.98219341694494" stroke="#4dd2ff" stroke-linecap="round" stroke-linejoin="round" stroke-width="0.5"><title>2022-10-20 5.2km</title></polyline><polyline fill="none" points="21.396938775433227,249.33638886126573 22.00306122447364,250.27066688725608 23.601020408095792,250.72169663268141 25.254081632592715,250.10958467345336 29.5520408161683,250.56061465735547 29.855102040921338,250.0773682204308 30.57142857136205,250.85056215143413 31.83877551020123,251.17272571008652 32.747959183645435,250.85056215143413 36.93571428558789,251.26937471114798 38.36836734681856,249.91628590441542 39.22244897950441,250.68948024438578 41.23367346939631,250.20623401194462 43.18979591829702,250.4961818434822 45.64183673472144,250.14180112301256 45.97244897950441,252.49359273718437 46.38571428565774,252.13921434094664 46.46836734691169,249.78741999022895 47.23979591834359,249.23973924672464 51.785714285681024,250.5928310592135 52.75,252.20364680732018 52.088775510317646,249.59412101679482 49.664285714155994,243.82731187800528 46.2755102039082,245.01934283203445 45.25612244894728,246.6946216916549 42.666326530626975,247.11343996651703 41.343877551029436,247.11343996651703 40.82040816324297,246.59797123866156 32.55510204075836,246.63018805976026 31.893877550959587,246.14693538605934 28.202040816308,246.85570571169956 27.54081632650923,246.34023654751945 35.64081632648595,245.21264470924507 36.0540816327557,245.98585099112825 35.53061224485282,246.7912721137982 31.645918367314152,246.34023654751945 28.394897959078662,246.85570571169956 27.237755101989023,246.43688708229456 32.9408163264161,245.3737295131723 35.97142857138533,245.27707864099648 36.0265306122601,246.27580284071155 35.585714285611175,246.7912721137982 31.563265306176618,246.34023654751945 28.202040816308,246.823488914466 27.265306122484617,246.4691039203608 29.5520408161683,246.05028475934523 30.268367346841842,246.5013207551092 35.47551020409446,246.95235608279472 35.97142857138533,246.5657544141286 35.99897959176451,245.27707864099648 34.12551020400133,245.11599378602114 25.088775510084815,246.98457286632038 20.983673469279893,246.24358598212712 12.635714285541326,243.44070624216693 12.25,242.92523129767505 12.856122448923998,242.5386245167465 15.776530612260103,242.50640726281563" stroke="#4dd2ff" stroke-linecap="round" stroke-linejoin="round" stroke-width="0.5"><title>2022-09-24 5.1km</title></polyline><polyline fill="none" points="94.06818181835115,254.70628721790854 95.66897233203053,253.67683428461896 97.50988142285496,246.75139251316432 90.06620553322136,242.25918508623727 83.9031620551832,249.55901057412848 83.9031620551832,254.2383542151074 87.18478260887787,255.64215248206165 93.98814229248092,255.73573895398295 95.74901185790077,254.61270063719712 97.75,246.37704276520526 90.70652173925191,241.97842136502732 84.06324110692367,249.65259768959368 84.22332015819848,255.08063344238326 88.62549407081679,255.2678064952488 89.98616600828245,256.20367116556736 88.54545454541221,257.6074663149775 59.090909090824425,259.2920175550971 57.890316205564886,260.2278779694461 59.97134387353435,258.63691467628814 90.86660079052672,259.3856036410434 95.5889328061603,258.2625699559576 77.33992094825953,257.6074663149775 78.86067193653435,235.33365395694273 77.98023715429008,235.14647668821272 74.69861660106108,257.9818113120273 57.25,257.7946388332639 57.49011857714504,258.82408697658684 95.74901185790077,259.2920175550971 92.78754940675572,257.6074663149775 89.50592885399237,258.35615615092684 77.25988142332062,257.32670746324584 78.54051383398473,234.77212203061208 75.49901185743511,257.32670746324584 72.85770750977099,258.35615615092684 59.571146245114505,257.7946388332639 59.4110671938397,258.82408697658684 97.66996047412977,259.7599478858756 86.94466403173283,259.3856036410434 95.10869565233588,259.2920175550971 95.10869565233588,258.07539753679885 90.38636363623664,257.70105257915566" stroke="#4dd2ff" stroke-linecap="round" stroke-linejoin="round" stroke-width="0.5"><title>2022-09-22 5.0km</title></polyline><polyline fill="none" points="120.77344701590482,250.61496436118614 122.37667478690855,250.38423033760046 123.56059683323838,251.16295688445098 124.96650426322594,250.9610650303075 128.0003045067424,251.45137355965562 129.60353227774613,250.7303312997101 129.55420219246298,250.2111796917743 129.89951278932858,250.12465432781028 130.4914738124935,251.13411520019872 133.35261875763535,250.78801475063665 134.38855054811575,251.19179856573464 136.55907429964282,250.12465432781028 136.5837393422844,251.04759012896102 136.97838002431672,251.42253190581687 137.22503045073245,249.89391988929128 137.71833130333107,249.57665971753886 142.03471376386005,250.7303312997101 142.75,252.08588917108136 141.4674177832203,247.84614319121465 139.96285018278286,244.64465866063256 137.7923264312558,245.4234016010305 137.12637028028257,244.96192457151483 134.38855054811575,244.5581315298914 131.05876979301684,247.1827756104176 126.27375152264722,247.26930190820713 125.65712545672432,245.9714045591536 121.43940316687804,246.57709075757884 119.95950060908217,246.92319655261235 121.68605359317735,247.70193298486993 128.78958587092347,247.64424888096983 129.89951278932858,247.1827756104176 131.92204628512263,247.1827756104176 133.17996345937718,247.64424888096983 135.74512789293658,247.35582817840623 136.21376370289363,246.14445789600722 135.375152253313,245.39455930964323 133.94457978080027,245.25034780646092 131.7740560292732,246.43287988004158 130.34348355676048,245.39455930964323 128.39494518889114,245.94256232568296 125.95310596830677,245.88487784954486 125.90377588314004,247.32698609141516 123.90590742998756,246.98088080898742 120.84744214382954,247.4711964960734 119.29354445799254,246.98088080898742 118.23294762487058,247.41351234336616 116.48172959813382,247.35582817840623 106.3690621193964,244.29854997302755 106.96102314267773,243.37559132478782 105.3331303287996,242.91411082891864 104.37119366636034,243.60633127970505 102.25,243.23137875369866 102.64464068214875,243.57748879608698 106.34439707675483,244.01012573111802 109.69884287461173,243.433276331838 110.75943970761728,244.41391958435997 112.09135200979654,244.1831803129171 112.85596833133604,244.47160437167622 112.36266747873742,248.79792863994953 111.67204628500622,248.79792863994953 113.20127892820165,249.46129229085636 112.28867235092912,249.57665971753886 112.06668696715496,250.47075561928796" stroke="#4dd2ff" stroke-linecap="round" stroke-linejoin="round" stroke-width="0.5"><title>2022-09-09 5.2km</title></polyline></svg>