<?xml version="1.0" encoding="utf-8" ?>
<svg baseProfile="full" height="300mm" version="1.1" viewBox="0,0,200,300" width="200mm" xmlns="http://www.w3.org/2000/svg" xmlns:ev="http://www.w3.org/2001/xml-events" xmlns:xlink="http://www.w3.org/1999/xlink"><defs /><rect fill="#222222" height="300" width="200" x="0" y="0" /><text fill="#FFFFFF" style="font-size:12px; font-family:Arial; font-weight:bold;" x="10" y="20">Over 5km Runs</text><text fill="#FFFFFF" style="font-size:4px; font-family:Arial" x="10" y="280">ATHLETE</text><text fill="#FFFFFF" style="font-size:9px; font-family:Arial" x="10" y="290">feng qijun</text><text fill="#FFFFFF" style="font-size:4px; font-family:Arial" x="120" y="280">STATISTICS</text><text fill="#FFFFFF" style="font-size:3px; font-family:Arial" x="120" y="285">Number: 20</text><text fill="#FFFFFF" style="font-size:3px; font-family:Arial" x="120" y="290">Weekly: 1.3</text><text fill="#FFFFFF" style="font-size:3px; font-family:Arial" x="141" y="285">Total: 117.5 km</text><text fill="#FFFFFF" style="font-size:3px; font-family:Arial" x="141" y="290">Avg: 5.9 km</text><text fill="#FFFFFF" style="font-size:3px; font-family:Arial" x="167" y="285">Min: 5.0 km</text><text fill="#FFFFFF" style="font-size:3px; font-family:Arial" x="167" y="290">Max: 10.0 km</text><polyline fill="none" points="52.75,67.25178641901584 51.597430830064695,67.27050539234187 48.63596837944351,66.2971161538153 48.23577075096546,66.59662110528734 46.71501976286527,66.5591830140329 43.32134387351107,67.13947253752849 41.76857707509771,67.13947253752849 40.90415019763168,66.5030258623301 39.719565217383206,63.97593559062807 37.5905138340313,62.25374968860706 37.014229248976335,62.10399360053998 36.72608695650706,61.57984629421844 33.684584980190266,60.9995385366492 31.075296442664694,59.70787895278772 30.434980237099808,58.24773067666683 30.290909090836067,56.67524982517352 29.538537549378816,55.570760870934464 28.001778656151146,55.308677733977675 24.095849802310113,56.02004534529988 23.19940711458912,55.851563801115844 20.205928853712976,53.623848296978395 20.398023715417366,52.743986546527594 19.245454545482062,50.197978956392035 18.925296442583203,50.01077106973389 18.90928853751393,49.243216662929626 18.397035573085304,48.64414749479329 18.28498023719294,47.914029203064274 18.0448616600479,47.577050513544236 17.16442687739618,47.27751336171059 16.636166007898282,46.435062402742915 16.47608695650706,46.098080895797466 17.06837944657309,45.79854123946279 13.9468379446771,41.04328125032771 12.25,37.69205666691414 13.754743082972709,40.743733033770695 17.88478260865668,47.18390789772093 17.756719367520418,47.48344520809769 18.86126482213149,49.13089134848269 18.8452569169458,50.10437503783032 19.277470355737023,50.32902435923461 20.414031620544847,52.85630956685054 20.141897233203053,53.54896661627572 20.68616600788664,53.773611563345185 21.102371541492175,54.391383697031415 23.167391304392368,55.795403250769596 23.91976284579141,55.96388484835916 27.985770750965457,55.308677733977675 29.490513833996374,55.64564169589721 30.242885375453625,56.544209123341716 30.354940711462405,58.060531308161444 31.05928853759542,59.70787895278772 33.3003952568979,60.88722068630159 36.71007905137958,61.5985658675927 37.14229249005439,62.21631067848648 37.51047430827748,62.21631067848648 39.719565217383206,63.97593559062807 40.92015810275916,66.31583522816072 41.78458498022519,67.15819152271433 43.01719367597252,67.27050539234187 45.99466403160477,66.54046396547346 46.81106719363015,67.00843958562473 47.27529644273454,66.59662110528734 48.21976284583798,66.5591830140329 48.45988142292481,66.24095891899196 51.27727272728225,67.30794333307131 52.301778656139504,67.21434846647026" stroke="#4dd2ff" stroke-linecap="round" stroke-linejoin="round" stroke-width="0.5"><title>2023-03-18 7.0km</title></polyline><polyline fill="none" points="57.25,53.96566685533617 59.89218802272808,53.8864446948719 64.986868517939,55.37581429979764 67.15481766476296,55.756076506353565 77.75066912011243,55.61347829202714 81.07034125126665,56.3740005329455 82.34401137504028,55.78776497997751 82.80470056878403,53.04668721789494 83.17054198734695,52.55550613379455 87.33029441291,52.69810725963907 89.28144864505157,52.31783728902519 91.24615255941171,51.541449767537415 91.0429073269479,50.8442820328637 93.63089662103448,49.37071227795968 97.56030444969656,48.6259994670545 97.75,48.752759355978924 95.27040816331282,48.895364102718304 93.59024757443694,49.33902244652563 90.08087989297928,51.28793460315501 88.4007193041034,51.77911984441744 86.31406825024169,51.953410994421574 83.31958849116927,51.493915706916596 82.84534961526515,51.60482849160326 81.72072599531384,52.66641813229944 81.47683171625249,53.44279982201988 81.66652726667235,53.8864446948719 81.5310304450104,54.80541917971277 81.1516393442871,55.15399423344934 79.85086985613452,55.264904307667166 78.1978086316376,53.728000248243916 77.0189862830448,53.854755818945705 76.38215122115798,53.347732892565546 75.85371361661237,53.25266590274987 75.3523753763875,53.42695533794176 74.74263967887964,54.15579986937519 74.39034794247709,54.1874886816222 73.72641351621132,54.74204181005189 72.62888926063897,54.80541917971277 72.3985446637962,54.029044553491985 68.5368852459942,54.44099893797829" stroke="#4dd2ff" stroke-linecap="round" stroke-linejoin="round" stroke-width="0.5"><title>2023-03-14 5.6km</title></polyline><polyline fill="none" points="139.2194700461696,60.09340982271533 137.85080645169364,59.91153968073195 135.25345622125315,59.05674743633426 133.3870967742405,59.56598588092311 132.99827188946074,59.238618482573656 129.77880184334936,60.00247477578523 128.78341013833415,59.94791372450709 127.75691244244808,59.09312166094605 126.34158986178227,56.36503345517849 124.72407834103797,54.56447152282635 123.63536866358481,54.146156454924494 120.13594470050884,53.67327732635022 118.25403225811897,52.65476401572232 117.5074884793139,51.05423090586555 117.27419354842277,49.326365933709894 116.65207373275189,48.580650422212784 115.42338709684554,48.344203364948044 111.03744239639491,48.99897903439705 108.90668202767847,47.59848359233001 105.99827188940253,47.689425201300764 105.74942396313418,46.197976739000296 105.70276497694431,47.72580183132959 103.26094470045064,47.88949657145713 102.25,44.90659017727012 103.07430875580758,47.59848359233001 103.47868663590634,47.96224973927019 108.33122119813925,47.56210693530738 109.00000000005821,47.72580183132959 110.4775345621747,48.79890895560675 111.34850230423035,49.01716721183038 115.56336405529873,48.41695634028292 116.71428571437718,48.72615614188544 117.32085253461264,49.50824727503641 117.49193548387848,51.05423090586555 118.12960829492658,52.5820128339692 120.1826036866405,53.74602804619644 123.5576036866405,54.40078313925187 124.02419354848098,55.03734819989768 124.55299539177213,55.14647340212832 126.5748847926734,56.74696841023979 127.80357142863795,59.074934549600584 128.5501152073848,59.94791372450709 130.49423963139998,60.07522281714773 131.365207373281,59.63873410706583 133.65149769594427,59.22043138658046 134.91129032260505,59.347741017933004 135.0823732719291,59.09312166094605 138.19297235028353,60.09340982271533 142.75,59.91153968073195" stroke="#4dd2ff" stroke-linecap="round" stroke-linejoin="round" stroke-width="0.5"><title>2023-03-12 6.0km</title></polyline><polyline fill="none" points="186.00650224206038,59.76339430536609 181.1392376681324,58.55286951518792 180.93946188339032,58.871429378225 179.79529147979338,58.48915748191939 179.06883408071008,59.189988735699444 178.92354260082357,58.80771744607773 174.89170403592288,59.6359709869721 173.58408071740996,59.48731034665252 172.60336322861258,58.4679201329709 170.58744394616224,54.92125134561502 169.13452914799564,53.43460507217969 167.48183856497053,52.83994347983389 163.57713004481047,52.30899414097075 161.39775784744415,51.055948132736376 160.7076233184198,49.335651888584835 160.5986547084758,47.48790987012035 159.8177130044205,46.44722009576799 158.01973094174173,46.12864051471115 153.35224215243943,46.893230659814435 152.73475336330011,46.787037758287624 152.18991031381302,46.12864051471115 150.6098654709058,45.23661499751324 149.90156950673554,45.109182457163115 147.25,45.342808719331515 150.42825112107676,45.19413749303203 152.68026905832812,46.659606202243594 158.1286995515693,46.06492453784449 159.69058295956347,46.404742847546004 160.58049327344634,47.6790563849936 160.7076233184198,49.22946027919534 161.36143497750163,50.88604298699647 163.74058295961004,52.20280410457053 167.7360986546846,53.00984697173408 168.20829596405383,53.62574592408782 168.84394618833903,53.71069735544734 171.25941704038996,55.70704564236803 172.65784753358457,58.48915748191939 173.711210762267,59.4448358577647 175.20044843049254,59.59349652954552 176.8713004484307,59.04132776509505 177.1618834079709,59.40236135982559 178.3242152465973,58.828954758966574 181.0484304932179,58.59534419279953 184.69887892366387,59.89081754282233 187.75,59.657208212302066" stroke="#4dd2ff" stroke-linecap="round" stroke-linejoin="round" stroke-width="0.5"><title>2023-03-05 5.0km</title></polyline><polyline fill="none" points="49.43697829719167,101.10523744246166 49.66235392319504,101.84300284369965 51.983722871518694,101.39507411058003 52.50208681134973,102.97599545825506 52.41193656087853,103.76645237211778 46.39440734568052,105.4264037325047 42.49540901510045,107.24443301578867 38.73163606016897,109.82653877447592 36.09474123537075,105.68988705886295 34.42696160275955,104.29342225546134 18.740818030084483,100.76270276401192 18.560517529258505,100.31477208953584 19.43948247085791,97.86431356499088 19.191569282207638,97.36367928993423 19.484557596151717,96.07256520306692 12.25,92.4363304048893 19.462020033504814,95.99351718461548 17.7942404007772,100.71000507938152 17.185726210474968,103.79280089279928 18.13230383989867,101.50046917902364 18.740818030084483,101.13158624446078 32.173205342376605,103.81914941061405 35.396076794713736,105.29466196482826 38.23580968286842,110.06366959512525 44.14065108518116,106.45398713057511 46.732470784685574,105.3473586802429 52.75,103.68740679349867 51.983722871518694,100.23572541640897" stroke="#4dd2ff" stroke-linecap="round" stroke-linejoin="round" stroke-width="0.5"><title>2023-02-22 5.0km</title></polyline><polyline fill="none" points="57.25,105.94311997880868 57.50431711145211,101.40804882589146 57.854003139655106,100.77610338958038 61.4780219780514,100.96196993031481 65.62656985875219,102.5046546299418 67.04120879119728,102.5975870105467 67.67700156988576,103.02507532852178 68.2492150706239,102.8392109702836 70.96722919936292,103.24811229894112 71.65070643642684,103.13659384912171 72.65208006283501,103.58266722362896 73.54218995285919,103.43397622463817 75.44956828886643,103.67559903413348 76.72115384612698,102.9507296087977 76.76883830456063,103.32245789279114 77.27747252740664,103.54549448571925 78.04042386187939,103.60125358967343 78.70800627942663,103.34104428636783 80.01138147560414,103.56408085564908 80.94917582412018,102.6719328796753 81.48959968605777,102.57900053834601 84.25529827311402,103.21093949014903 84.46193092619069,103.45256260638416 84.57319466251647,102.78345162441838 85.8606750391773,102.85779741499573 87.29120879113907,102.43030868998903 87.76805337512633,100.60882333481277 87.87931711145211,98.95460088465188 88.51510989008239,98.34123354598705 89.97743328096112,98.63862403821258 94.17366562003735,98.62003714717866 97.75,97.22601471675443 97.35262951324694,96.55688002120587 95.60419937205734,97.24460175521381 93.26766091049649,97.74645105132367 91.74175824172562,97.78362501625088 88.18131868127966,97.31894988959539 86.63952119305031,98.52710266259965 86.33751962316455,99.45644529623678 86.46467817894882,100.18132913786394 85.38383045519004,100.55306328115694 85.11361852433765,101.40804882589146 84.60498430137523,101.63108784900396 83.6671899529174,101.48239519838535 82.57044740970014,100.79469005252759 81.07633437990444,100.77610338958038 80.45643642079085,101.16642289808078 78.40600470959907,101.29652920820809 77.97684458392905,100.99914321491087 73.16071428573923,101.05490312699112 72.25470957614016,100.92479663791892 71.80965463106986,100.51588990220625 68.59890109888511,101.20359613932669 66.05572998424759,100.72034338902449 61.31907378335018,98.97318774026644 58.903061224438716,98.62003714717866 63.48076923075132,98.58286335930461" stroke="#4dd2ff" stroke-linecap="round" stroke-linejoin="round" stroke-width="0.5"><title>2023-02-10 5.9km</title></polyline><polyline fill="none" points="111.58803734264802,109.13630990822276 111.64079461572692,103.56360087321082 113.4697134172311,103.5841646688641 116.51204950071406,104.36558729101671 118.18269648274872,103.87205757931224 118.86854103347287,101.79510631064477 118.99164133728482,99.96490313597315 119.51921406865586,99.38910531530564 122.56155015190598,99.82095384072454 123.14188015635591,99.53305493037624 126.00835866259877,99.57418337225681 128.92759444203693,98.64879132529313 134.0450499348808,96.07823474530596 139.9011072514113,95.27621413444285 142.75,94.20684817196161 142.5917281806469,94.33023685251828 142.310356057249,93.83668166032294 142.36311333044432,93.3636900917918 141.41348241420928,93.89837612792326 138.96906209294684,94.51531972647354 137.913916630554,94.55644923006184 137.66771602258086,94.24797774084436 134.39676508901175,94.84435551163915 132.23371689103078,95.64637790454435 128.66380807640962,97.68226603922085 126.0435301780235,98.5048410553718 122.84292227530386,98.73104857449653 120.2929874076508,98.25806891608227 119.02681285282597,98.29919762763893 117.58478072076105,99.53305493037624 117.25065132440068,100.47900689177914 117.35616587055847,101.4249542497273 116.58239253144711,101.4249542497273 116.01964828488417,101.95961811150482 115.89654798083939,102.76161114675051 115.31621797662228,103.0289414232102 114.15555796783883,102.59710002466454 113.73349978285842,101.48664630885469 112.66076856281143,100.93141707204632 111.44735128094908,101.28100603570056 110.77909248799551,102.32976915431209 109.337060356047,102.59710002466454 108.2643291358836,102.61766392251593 107.8950282240985,102.30920522595989 102.51378636562731,102.26807736275077 102.25,102.04187395966437 102.63688666955568,101.58946636380279 105.52095093356911,101.38382619943877 105.8550803300459,102.43258876327309 107.27952670434024,102.32976915431209 108.45777247066144,101.56890235717583 109.54808944859542,101.6511583707179 110.05807642207947,101.03423742071027 110.65599218418356,101.01367335538089 111.62320885795634,102.0624379163055 112.92455492832232,102.00074603992107 113.69832826743368,102.63822781819908 115.29863221885171,103.07006912544603 117.074793747277,102.82330278160225 117.53202344768215,101.322134107686 117.58478072076105,102.67935560308979 116.9692792011192,103.17288834288775 114.71830221451819,102.8644305273483 114.1731437256094,102.61766392251593 113.55764220585115,101.34269814044819 110.18117672600783,100.35562211433717 109.337060356047,100.56126336645684 107.24435518879909,102.26807736275077 106.18920972652268,102.24751342793752 105.6440512376139,101.44551827160467 106.13645245332737,101.13705771505192 106.99815458105877,101.13705771505192 107.71917064697482,101.77454232577293 109.47774641774595,101.6511583707179 110.26910551451147,101.09592960386362 111.0077073383145,101.69228636445769 111.65838037338108,101.26044199643366 112.80145462439395,101.03423742071027" stroke="#4dd2ff" stroke-linecap="round" stroke-linejoin="round" stroke-width="0.5"><title>2023-02-05 7.1km</title></polyline><polyline fill="none" points="147.7313242784585,107.57537858269643 148.0980475381948,104.26539784840861 148.3616298811976,104.17159146613267 150.2640067912289,104.47981217564666 150.94015280134045,104.37260505739687 152.7279286927078,105.13645379514492 153.4957555178553,105.21685865747713 153.8624787775916,103.62215268924774 153.58743633277481,103.07271152918838 152.79668930388289,103.08611256146105 152.41850594233256,102.71088312231586 150.28692699491512,102.89849798080832 149.0148556876229,102.68408097698557 148.41893039055867,102.22844363875629 147.33022071310552,102.02742664497782 147.25,102.84489376388228 147.33022071310552,102.06763006923575 147.71986417664448,102.04082778780139 147.92614601028617,102.20164139135886 147.90322580648353,102.76448739593616 148.12096774193924,103.1129146217063 150.80263157899026,102.89849798080832 153.80517826828873,104.11798778795492 155.78777589136735,104.58701920314343 157.00254668935668,104.38600595214666 157.78183361631818,104.69422613993083 158.59550084895454,104.62722181505524 159.5466893039411,104.81483383532031 161.85016977932537,104.45301040454797 163.61502546689007,104.6808252777846 164.6120543294237,104.58701920314343 164.91001697798492,104.30560056242393 166.04456706286874,104.27879875449435 166.4456706282217,104.62722181505524 167.39685908326646,104.93544141596794 168.49702886253363,104.85503637498914 168.81791171478108,104.61382094583678 168.80645161290886,103.31392989292362 169.02419354842277,102.71088312231586 169.91808149404824,101.88001398011693 173.13837011886062,102.17483913827164 174.84592529706424,101.94701975813223 176.2211375212646,101.47797856769466 179.75084889639402,99.70900759347569 183.62436332768993,99.28016242463491 187.1196943973191,97.69878331581276 187.71561969438335,96.61324893982237 187.41765704576392,94.92462141730357 187.75,96.5462403401034 187.62393887946382,96.96169308674143 187.45203735143878,97.3637428343718 186.03098471986596,98.22144469717023 185.80178268253803,98.59668743581278 184.89643463498214,98.65029345058429 183.8764855687623,99.18635235042166 182.11162988113938,99.54819082529139 181.11460101866396,99.46778236463433 179.39558573852992,99.77601451993542 176.19821731752018,101.43777495625545 174.71986417652806,101.93361860538425 172.51952461805195,102.13463574799243 170.04414261458442,101.79960699970252 168.93251273344504,102.65727882598003 168.6230899830698,102.38925700409891 168.96689303900348,102.79128952424071 168.78353140916442,103.24692483793478 168.92105263163103,103.76956332671398 168.71477079798933,103.99737942903448 168.79499151109485,104.45301040454797 168.54286926990608,104.77463128299132 167.47707979625557,104.93544141596794 166.19354838714935,104.45301040454797 166.0904074702994,104.23859603201709 164.95585738541558,104.25199694093317 164.4745331070153,104.54681657843321 163.52334465197055,104.62722181505524 162.96179966046475,104.62722181505524 162.66383701184532,104.42620862786862 160.23429541598307,104.4932130590314 158.92784380313242,104.31900146423868 157.5067911715014,104.53341570071643 156.8764855687623,104.332402364671 155.98259762313683,104.57361832968309 154.28650254674722,104.23859603201709 150.71095076401252,102.95210217506974 149.9202037351788,102.83149270610738 148.10950764006702,103.09951359229308 147.8803056027391,102.6304766693138 148.05220713076415,102.14803687951644 149.0033955856925,102.73768526197091 150.04626485571498,102.95210217506974 152.36120543297147,102.71088312231586 152.70500848902157,103.08611256146105 153.2321731749107,103.12631564968615" stroke="#4dd2ff" stroke-linecap="round" stroke-linejoin="round" stroke-width="0.5"><title>2022-12-15 10.0km</title></polyline><polyline fill="none" points="12.25,155.42955850272847 12.60764311812818,150.56974189485481 15.555115712515544,150.7716368351248 15.937423873285297,151.03121560471482 18.440925700357184,151.60805554519175 18.835566382447723,149.93521299299027 18.73690621193964,149.4160507855122 17.66397685749689,149.34394476703892 17.294001218047924,148.86804408815806 15.96208891592687,148.92572910738818 15.444123020686675,148.6805676069489 14.60551157122245,148.9834141022293 13.729902557854075,148.92572910738818 12.53364799026167,148.23350726511853 12.410322777112015,148.8968866008072 12.706303288636263,149.35836597377784 15.468788063386455,148.94015035840857 15.888093788118567,149.44489318229898 18.971224116918165,150.51205757126445 21.05542021925794,150.94468940311344 22.177679658983834,150.69953153363895 23.16428136418108,151.0167945749272 25.54445797810331,151.04563663295994 26.851705237466376,150.97353147641115 27.394336175348144,150.7283736588288 29.355207064538263,151.0167945749272 30.32947624847293,150.94468940311344 30.7857795371674,150.59858404748957 31.93270401947666,150.59858404748957 32.228684531059116,150.90142628167814 33.25228380021872,151.1177417513827 33.53593179048039,151.42058283228835 33.83191230206285,151.07447868491 34.436205846548546,151.20426784310257 34.843179049901664,151.04563663295994 35.114494518900756,148.92572910738818 36.21208891598508,147.95950181476655 38.75258830690291,148.27677123327157 40.84911693056347,148.17582195292925 42.66199756396236,147.6999171958887 46.238428745476995,145.82512471465452 51.011114494584035,145.17615207863855 52.441686967154965,144.57044149728608 52.61434226552956,145.21941701718606 52.75,145.17615207863855 51.41808769793715,145.69533043468255 47.32369062118232,146.18566373291833 42.55100487207528,148.3488778162573 40.76278928137617,148.8392015693389 38.66626065777382,148.96899285582185 36.48340438492596,148.6661463285127 36.11342874541879,149.09878401872993 36.03943361755228,150.3390044541011 35.60779537149938,151.83879083799548 34.96650426310953,152.08394665861852 34.411540803848766,152.22815575891582 31.68605359317735,151.5647926343372 29.170219244842883,151.60805554519175" stroke="#4dd2ff" stroke-linecap="round" stroke-linejoin="round" stroke-width="0.5"><title>2022-12-12 7.2km</title></polyline><polyline fill="none" points="57.90523882891284,154.53337295191886 58.232858243456576,149.95445220750116 58.12365177203901,149.5348637477 57.26560092455475,149.42540572069993 57.25,148.87811454362236 61.66506163327722,148.95108680096746 66.56375192606356,150.4470112706913 70.0739599383669,151.14024016141775 82.13347457622876,150.95781177611207 83.49075500766048,151.06726883046213 85.78409090905916,151.81522350896557 86.50173343607457,151.57806749874726 87.45338983047986,151.1037544997962 87.90581664099591,149.44364873005543 87.9838212634786,147.91122921925853 88.31144067802234,147.40041968951118 89.10708782746224,147.27271707062027 91.36922187980963,147.72879741806537 91.85285053926054,147.47339257206477 94.13058551616268,147.5463654237974 95.76868258859031,147.10852785018506 97.75,146.15987596039486 97.46918335900409,145.46662704808114 93.42854391376022,146.6889324656804 91.57203389832284,146.74366235632624 88.10862865945091,146.32406608398014 86.7513482280774,147.52812221378554 86.48613251151983,148.2578491098975 86.70454545458779,148.9693298604543 86.45493066246854,149.40716270948178 86.54853620950598,149.93620925223513 86.14291217259597,150.3740396463836 85.40966872108402,150.30106799124042 84.45801232662052,150.59295442661096 84.02118644065922,150.15512458824378 83.13193374418188,150.0091810617596 82.92912172578508,149.7537795932294 82.85111710324418,149.91796629499004 81.41583204932977,149.7720225678204 79.30970724188956,150.17336752035771 78.57646379043581,150.19161045056535 78.09283513092669,149.86323741172964 74.879044684174,149.97269516081724 73.00693374424009,149.73553661668848 71.1036209553713,150.0091810617596" stroke="#4dd2ff" stroke-linecap="round" stroke-linejoin="round" stroke-width="0.5"><title>2022-12-06 5.0km</title></polyline><polyline fill="none" points="102.25,154.94138792448211 102.59647112741368,151.06360492741806 102.78208065999206,151.25170887850982 105.38061411550734,151.2806479249557 108.78345554537373,152.40926596024656 108.90719523379812,152.65524557804747 108.72158570121974,152.65524557804747 108.88244729605503,152.39479655715695 108.52360219985712,152.40926596024656 108.21425297897076,152.09093873931852 108.4864802933298,152.1777553275606 108.79582951421617,150.09414200024912 108.59784601279534,150.22436876312713 108.62259395053843,150.64398748894746 109.08043079747586,151.02019628659764 110.94890009169467,151.48322107855347 112.0873052245588,151.26617840248218 113.10197066911496,151.5845075428515 114.68583868013229,151.62791600462515 118.11342804768356,151.3240564831067 119.06622364808572,151.5845075428515 120.46448212646646,151.43981257091218 120.81095325388014,151.16489170244313 122.03597616864135,151.16489170244313 122.15971585700754,151.41087355811032 123.66934005502844,151.8449581066816 124.8448670944199,151.64238548879803 125.12946837767959,149.45747604133794 126.26787351054372,148.50247154607496 129.5346012832597,148.8352768998884 131.1184692942188,148.69057901950146 132.87557286891388,148.1551955308678 136.1917965169414,146.3898621527478 137.3178276810213,146.10046106435766 140.28758020163514,145.85446965777373 141.90857011912158,145.4203660961357 142.53964252973674,145.05861207551789 142.73762603115756,145.76764905567688 142.75,145.60847780868062 140.22571035748115,146.4477422969503 136.74862511456013,146.91078256862238 134.9420256645535,147.82238852219598 131.58868010999868,149.26936962266336 129.05201649863739,149.38512744937907 128.77978918422014,149.54429430118762 126.49060494959122,149.26936962266336 120.46448212646646,152.16328590003832 114.73533455544384,152.27904127759393" stroke="#4dd2ff" stroke-linecap="round" stroke-linejoin="round" stroke-width="0.5"><title>2022-11-27 5.6km</title></polyline><polyline fill="none" points="147.25,152.3990333250258 148.8568012752803,152.6338978283893 149.30154091393342,152.49968958333193 150.03320935176453,152.86876198384562 150.520988310338,152.78488196822582 153.08900106267538,153.57335236326617 153.51939426141325,151.57700482406653 153.28985122212907,151.24148176236486 153.37592986185336,151.92930327483919 154.09325185976923,152.3822572757781 156.35998937301338,152.81843397983175 157.43597236985806,152.49968958333193 158.56934112648014,152.90231397762545 162.71546227420913,152.86876198384562 163.51886291184928,152.6003457777697 165.7138682253426,152.86876198384562 166.89027630182682,152.80165797493828 167.42109458026243,152.3990333250258 168.8413921360043,152.3822572757781 168.99920297553763,152.7010019082809 170.64904357068008,153.2042816026078 171.7680658873287,153.0532978620031 172.24149840592872,152.56679372000508 172.39930924546206,151.74476608872646 172.21280552609824,151.07371996536676 172.4423485653242,150.3858947418339 173.76222104148474,149.3122103807109 177.07624867162667,149.73161919953418 179.32863974495558,149.56385580511414 181.66710945800878,148.7753654739936 185.02417640807107,146.94672387096216 187.75,146.42664763673383 185.23937300744,146.84606408781838 181.59537725819973,148.80891833390342 179.27125398511998,149.54707945589325 177.11928799148882,149.68129019983462 174.1352284803288,149.2283284838486 173.6044102019514,149.32898675478646 172.39930924546206,150.45299977298419 172.18411264615133,151.07371996536676 172.37061636557337,151.74476608872646 172.11238044634229,152.1977206167503 172.21280552609824,152.7177779238409 171.8254516471643,153.0700738402811 170.2186503719422,153.13717773561075 168.52577045699582,152.33192911732476 167.36370882036863,152.34870517191302 166.80419766210252,152.76810595979623 165.4556323060533,152.8519859842636 164.37964930920862,152.58356974978233 159.8461742826621,152.51646562016685" stroke="#4dd2ff" stroke-linecap="round" stroke-linejoin="round" stroke-width="0.5"><title>2022-11-23 5.3km</title></polyline><polyline fill="none" points="12.25,199.7248440090334 15.697841726592742,200.14126817387296 19.550359712273348,201.20125258386543 20.052158273290843,198.96770668087993 19.938848920864984,198.43770864493854 19.437050359672867,198.1916375945293 18.62769784167176,198.26735179987736 17.915467625833116,197.6805658700614 16.167266187025234,197.73735168925487 15.77877697837539,197.94556620570074 15.843525179836433,198.1348519194289 21.347122302104253,200.0087696811097 23.062949640327133,200.21698155427293 23.969424460374285,199.70591561490437 25.10251798556419,199.89519946633663 26.47841726616025,199.64913042043918 26.75359712226782,200.04662640334573 27.530575539567508,200.16019652198884 31.99820143886609,200.04662640334573 33.115107913676184,200.40626486510155 35.008992805785965,200.3116232346947 35.62410071934573,199.87627109020832 37.21043165464653,199.85734271207184 37.58273381291656,200.2737665685272 39.47661870502634,200.74697431990353 41.111510791350156,200.33055156479531 41.07913669064874,199.57341679975798 41.32194244605489,199.19484821577498 41.14388489210978,198.24842325151258 41.45143884891877,197.52913693056325 42.859712230216246,196.41234454412188 47.764388489187695,196.88556250804686 50.45143884891877,196.33662955365435 52.34532374102855,195.52269138334668 52.75,196.26091453124536 51.17985611507902,196.96127726616396 48.363309352484066,197.6805658700614 46.37230215827003,197.5669941774977 46.04856115108123,197.7752088920679 43.50719424459385,197.3209219295677 43.00539568340173,197.45342241278559 42.60071942443028,197.98342336442147 42.40647482016357,200.21698155427293 41.92086330935126,201.5987451186811 40.82014388492098,201.97730861665332 36.48201438848628,201.14446786395274 24.27697841724148,201.40946306938713 19.72841726616025,200.53876306352322" stroke="#4dd2ff" stroke-linecap="round" stroke-linejoin="round" stroke-width="0.5"><title>2022-11-18 5.5km</title></polyline><polyline fill="none" points="57.25,203.18813892024627 57.69557956780773,198.53605754548335 58.74587426328799,198.79657735441288 59.76434184680693,198.6477089393884 62.53330058942083,198.9640541706467 65.23860510805389,199.89447802421637 65.66827111988096,197.90336497455428 65.58870333986124,197.02875679096906 64.31561886047712,196.97293058907962 63.647249508823734,196.37744999951974 61.96041257370962,196.45188518347277 61.62622789788293,196.87988687984762 61.76944990182528,197.02875679096906 66.0979371315916,198.48023182191537 68.86689587420551,199.05709677748382 69.9490176817053,198.68492605494976 71.20618860510876,199.1129223179887 75.821119842818,199.0943138064613 76.71227897831704,198.7779688094015 79.16296660120133,199.1129223179887 80.40422396856593,199.03848826009198 81.23172888014233,198.6477089393884 82.5207269154489,198.66631749816588 82.90265225933399,199.03848826009198 84.86001964629395,199.44787518867815 86.40363457752392,199.0943138064613 86.65825147344731,197.88475633505732 86.45137524558231,197.1218004215043 86.72190569742816,196.43327639046765 88.1063850686769,195.16787384562485 93.38968565815594,195.57726978276332 95.50618860503891,195.1306559858931 97.57495088397991,194.31186107975373 97.75,195.05622024287004 93.86709233780857,196.39605879843293 90.03192534379195,196.47049397449882 88.9338899803115,196.07970894876053 88.26552062865812,196.28440597528243 87.93133595277322,196.7310168426775 87.77220039285021,198.68492605494976 87.34253438108135,200.21082101331558 86.03762278979411,200.65742191184836 83.07770137517946,199.91308645110985 69.96493123768596,200.08056220439903" stroke="#4dd2ff" stroke-linecap="round" stroke-linejoin="round" stroke-width="0.5"><title>2022-11-06 5.5km</title></polyline><polyline fill="none" points="102.25,211.22151584064704 103.18385922326706,206.19286311397445 103.84739077673294,192.42824615785503 104.41262135922443,189.87065176988835 104.56007281562779,190.12928600463783 107.55825242714491,190.04307462036377 115.98756067967042,191.93971875315765 116.5773665048182,187.9165184815356 116.35618932032958,189.066010353592 117.26547330094036,189.72696597751928 121.63986650493462,190.61781666509341 130.6589805824915,188.83611236829893 131.2487864077557,188.83611236829893 131.37166262138635,190.4453941794054 133.38683252432384,190.15802312662709 135.4265776699176,190.2729715841997 136.18841019412503,190.76150198624237 139.4323422331363,190.64655373545247 140.46450242726132,189.92812606555526 140.48907767003402,188.8648496271344 142.60254854371306,188.23262923126458 142.75,186.76702174523962 141.9635922331363,186.27848415932385 140.63652912632097,188.06020523156621 140.88228155346587,188.74990057371906 140.34162621363066,188.97979863197543 139.456917475909,190.4453941794054 136.75364077673294,190.79023904140922 135.4265776699176,190.2729715841997 127.75910194183234,190.2729715841997 127.14472087379545,190.73276492810692 125.27700242726132,190.73276492810692 123.33555825252552,190.07181175152073 121.44326456310228,190.61781666509341 118.15018203889485,190.01433748623822 110.50728155346587,187.51419517718023 110.26152912620455,187.05439638535609 110.85133495146874,186.85323416921892 113.4808859223267,186.53712181426818 114.3410194175085,187.51419517718023 115.1765776699176,187.4567203708284 114.3164441747358,187.42798296301044 113.43173543689772,186.5945968152664 112.03094660188071,186.5945968152664 110.60558252432384,186.795759222965 110.43355582514778,187.54293257577228 118.2730582524091,190.15802312662709 116.18416262138635,188.95106138533447 116.30703883501701,187.9165184815356" stroke="#4dd2ff" stroke-linecap="round" stroke-linejoin="round" stroke-width="0.5"><title>2022-11-02 5.0km</title></polyline><polyline fill="none" points="148.49711316399043,208.00091911910567 148.43475750577636,207.61814258834056 147.32794457272394,207.47232273394184 147.25,206.94372472769464 147.65531177830417,204.20957122879918 147.65531177830417,201.69411169941304 147.90473441110225,201.1654959703883 147.76443418016424,199.23330054480175 148.10739030025434,195.18655690590094 148.43475750577636,193.6553318277147 148.6997690530843,193.8558501717198 151.80196304846322,193.7464765584591 155.7927251732326,194.9860401103797 156.1824480369687,192.37930053500168 155.97979214787483,192.9808593217167 156.26039260975085,193.41835530212848 159.45612009236356,194.14751280102064 164.42898383375723,193.10846243074047 166.11258660512976,193.07200440924498 167.0635103925597,193.54595808715385 167.57794457278214,193.2360654452932 169.6824480369687,193.2907524225884 170.3215935335029,192.70742376994167 171.27251732104924,193.18137845062301 172.47286374133546,192.762110915035 173.3770207851776,193.16314944857731 173.78233256348176,194.22042838121706 174.90473441110225,194.56677696573024 176.4792147805565,194.23865727141674 176.74422632792266,192.87148515306762 176.55715935339686,192.17878047272097 176.85334872978274,191.44961464288644 177.81986143183894,190.48346516543825 178.7707852193853,190.28294289692712 181.51443418010604,190.72044572739105 183.3227482678485,190.72044572739105 185.33371824474307,190.33763081146753 187.4538106234977,189.49908088089433 187.75,190.13710837326653 186.03521939954953,190.9391967260308 183.74364896072075,191.52253136472427 181.37413394916803,191.66836471584975 178.45900692843134,191.34023950228584 178.02251732104924,191.85065623118135 177.44572748267092,195.20478569394618 176.21420323319035,195.6605047678313 171.80254041572334,194.913124854138 159.95496535801794,195.15009932406247 156.40069284063065,194.40271719668817 155.96420323324855,197.17348345048958" stroke="#4dd2ff" stroke-linecap="round" stroke-linejoin="round" stroke-width="0.5"><title>2022-10-28 6.2km</title></polyline><polyline fill="none" points="12.25,251.88198201797786 12.503521126811393,247.9910584554018 12.772887323924806,247.28697733704757 13.026408450736199,247.54637597310648 14.959507042251062,247.36109127223608 16.48063380282838,247.52784751181025 19.681338028225582,248.6210233726597 20.33098591543967,248.47279653714213 20.695422535180114,246.49025055272796 20.552816901355982,245.82322069024667 20.07746478874469,245.6008768381871 19.15845070418436,245.67499148689967 18.635563380259555,245.15618828727747 16.94014084507944,245.24883182847407 16.70246478874469,245.47117612748116 16.892605633765925,245.78616340110602 21.757042253564578,247.45373364714033 23.34154929581564,247.73166047790437 30.044014084502123,246.74965036881622 30.107394366234075,247.67607514704287 32.3257042253972,247.52784751181025 33.78345070424257,247.87988794063858 37.50704225350637,247.4166767030838 37.681338028167374,247.76871735534223 39.51936619711341,248.23192766186548 41.00880281685386,248.08370049702353 41.325704225338995,247.82430265679432 41.29401408450212,247.04610683101055 41.54753521125531,246.71259327571897 41.357394366234075,245.8046920466586 41.65845070418436,245.11913085707056 43.03697183099575,243.95181779203995 46.919014084443916,244.37798060632485 48.471830985858105,244.30386540880136 50.27816901402548,243.95181779203995 52.353873239364475,243.1180179820076 52.75,243.7665292883903 50.911971830937546,244.5632684630691 48.48767605633475,245.19324570968456 46.602112676016986,245.11913085707056 46.26936619717162,245.28588923123607 43.74999999994179,244.85972862606286 43.21126760559855,245.00795851943258 42.878521126753185,245.50823348319682 42.78345070418436,247.12022086814977 42.29225352109643,248.95453329387237 40.977112676016986,249.36215566862666 39.83626760559855,249.25098602414073 39.6461267604609,248.91747666735318 39.01232394372346,249.01011821904103 37.42781690141419,248.6395517182682 30.661971830995753,248.73219341694494" stroke="#4dd2ff" stroke-linecap="round" stroke-linejoin="round" stroke-width="0.5"><title>2022-10-20 5.2km</title></polyline><polyline fill="none" points="66.39693877543323,249.33638886126573 67.00306122447364,250.27066688725608 68.60102040809579,250.72169663268141 70.25408163259272,250.10958467345336 74.5520408161683,250.56061465735547 74.85510204092134,250.0773682204308 75.57142857136205,250.85056215143413 76.83877551020123,251.17272571008652 77.74795918364543,250.85056215143413 81.93571428558789,251.26937471114798 83.36836734681856,249.91628590441542 84.2224489795044,250.68948024438578 86.23367346939631,250.20623401194462 88.18979591829702,250.4961818434822 90.64183673472144,250.14180112301256 90.9724489795044,252.49359273718437 91.38571428565774,252.13921434094664 91.46836734691169,249.78741999022895 92.23979591834359,249.23973924672464 96.78571428568102,250.5928310592135 97.75,252.20364680732018 97.08877551031765,249.59412101679482 94.664285714156,243.82731187800528 91.2755102039082,245.01934283203445 90.25612244894728,246.6946216916549 87.66632653062697,247.11343996651703 86.34387755102944,247.11343996651703 85.82040816324297,246.59797123866156 77.55510204075836,246.63018805976026 76.89387755095959,246.14693538605934 73.202040816308,246.85570571169956 72.54081632650923,246.34023654751945 80.64081632648595,245.21264470924507 81.0540816327557,245.98585099112825 80.53061224485282,246.7912721137982 76.64591836731415,246.34023654751945 73.39489795907866,246.85570571169956 72.23775510198902,246.43688708229456 77.9408163264161,245.3737295131723 80.97142857138533,245.27707864099648 81.0265306122601,246.27580284071155 80.58571428561118,246.7912721137982 76.56326530617662,246.34023654751945 73.202040816308,246.823488914466 72.26530612248462,246.4691039203608 74.5520408161683,246.05028475934523 75.26836734684184,246.5013207551092 80.47551020409446,246.95235608279472 80.97142857138533,246.5657544141286 80.99897959176451,245.27707864099648 79.12551020400133,245.11599378602114 70.08877551008482,246.98457286632038 65.98367346927989,246.24358598212712 57.635714285541326,243.44070624216693 57.25,242.92523129767505 57.856122448924,242.5386245167465 60.7765306122601,242.50640726281563" stroke="#4dd2ff" stroke-linecap="round" stroke-linejoin="round" stroke-width="0.5"><title>2022-09-24 5.1km</title></polyline><polyline fill="none" points="139.06818181835115,254.70628721790854 140.66897233203053,253.67683428461896 142.50988142285496,246.75139251316432 135.06620553322136,242.25918508623727 128.9031620551832,249.55901057412848 128.9031620551832,254.2383542151074 132.18478260887787,255.64215248206165 138.98814229248092,255.73573895398295 140.74901185790077,254.61270063719712 142.75,246.37704276520526 135.7065217392519,241.97842136502732 129.06324110692367,249.65259768959368 129.22332015819848,255.08063344238326 133.62549407081679,255.2678064952488 134.98616600828245,256.20367116556736 133.5454545454122,257.6074663149775 104.09090909082443,259.2920175550971 102.89031620556489,260.2278779694461 104.97134387353435,258.63691467628814 135.86660079052672,259.3856036410434 140.5889328061603,258.2625699559576 122.33992094825953,257.6074663149775 123.86067193653435,235.33365395694273 122.98023715429008,235.14647668821272 119.69861660106108,257.9818113120273 102.25,257.7946388332639 102.49011857714504,258.82408697658684 140.74901185790077,259.2920175550971 137.78754940675572,257.6074663149775 134.50592885399237,258.35615615092684 122.25988142332062,257.32670746324584 123.54051383398473,234.77212203061208 120.49901185743511,257.32670746324584 117.85770750977099,258.35615615092684 104.5711462451145,257.7946388332639 104.4110671938397,258.82408697658684 142.66996047412977,259.7599478858756 131.94466403173283,259.3856036410434 140.10869565233588,259.2920175550971 140.10869565233588,258.07539753679885 135.38636363623664,257.70105257915566" stroke="#4dd2ff" stroke-linecap="round" stroke-linejoin="round" stroke-width="0.5"><title>2022-09-22 5.0km</title></polyline><polyline fill="none" points="165.77344701590482,250.61496436118614 167.37667478690855,250.38423033760046 168.56059683323838,251.16295688445098 169.96650426322594,250.9610650303075 173.0003045067424,251.45137355965562 174.60353227774613,250.7303312997101 174.55420219246298,250.2111796917743 174.89951278932858,250.12465432781028 175.4914738124935,251.13411520019872 178.35261875763535,250.78801475063665 179.38855054811575,251.19179856573464 181.55907429964282,250.12465432781028 181.5837393422844,251.04759012896102 181.97838002431672,251.42253190581687 182.22503045073245,249.89391988929128 182.71833130333107,249.57665971753886 187.03471376386005,250.7303312997101 187.75,252.08588917108136 186.4674177832203,247.84614319121465 184.96285018278286,244.64465866063256 182.7923264312558,245.4234016010305 182.12637028028257,244.96192457151483 179.38855054811575,244.5581315298914 176.05876979301684,247.1827756104176 171.27375152264722,247.26930190820713 170.65712545672432,245.9714045591536 166.43940316687804,246.57709075757884 164.95950060908217,246.92319655261235 166.68605359317735,247.70193298486993 173.78958587092347,247.64424888096983 174.89951278932858,247.1827756104176 176.92204628512263,247.1827756104176 178.17996345937718,247.64424888096983 180.74512789293658,247.35582817840623 181.21376370289363,246.14445789600722 180.375152253313,245.39455930964323 178.94457978080027,245.25034780646092 176.7740560292732,246.43287988004158 175.34348355676048,245.39455930964323 173.39494518889114,245.94256232568296 170.95310596830677,245.88487784954486 170.90377588314004,247.32698609141516 168.90590742998756,246.98088080898742 165.84744214382954,247.4711964960734 164.29354445799254,246.98088080898742 163.23294762487058,247.41351234336616 161.48172959813382,247.35582817840623 151.3690621193964,244.29854997302755 151.96102314267773,243.37559132478782 150.3331303287996,242.91411082891864 149.37119366636034,243.60633127970505 147.25,243.23137875369866 147.64464068214875,243.57748879608698 151.34439707675483,244.01012573111802 154.69884287461173,243.433276331838 155.75943970761728,244.41391958435997 157.09135200979654,244.1831803129171 157.85596833133604,244.47160437167622 157.36266747873742,248.79792863994953 156.67204628500622,248.79792863994953 158.20127892820165,249.46129229085636 157.28867235092912,249.57665971753886 157.06668696715496,250.47075561928796" stroke="#4dd2ff" stroke-linecap="round" stroke-linejoin="round" stroke-width="0.5"><title>2022-09-09 5.2km</title></polyline></svg>