<?xml version="1.0" encoding="utf-8" ?>
<svg baseProfile="full" height="300mm" version="1.1" viewBox="0,0,200,300" width="200mm" xmlns="http://www.w3.org/2000/svg" xmlns:ev="http://www.w3.org/2001/xml-events" xmlns:xlink="http://www.w3.org/1999/xlink"><defs /><rect fill="#222222" height="300" width="200" x="0" y="0" /><text fill="#FFFFFF" style="font-size:12px; font-family:Arial; font-weight:bold;" x="10" y="20">Over 5km Runs</text><text fill="#FFFFFF" style="font-size:4px; font-family:Arial" x="10" y="280">ATHLETE</text><text fill="#FFFFFF" style="font-size:9px; font-family:Arial" x="10" y="290">feng qijun</text><text fill="#FFFFFF" style="font-size:4px; font-family:Arial" x="120" y="280">STATISTICS</text><text fill="#FFFFFF" style="font-size:3px; font-family:Arial" x="120" y="285">Number: 15</text><text fill="#FFFFFF" style="font-size:3px; font-family:Arial" x="120" y="290">Weekly: 1.4</text><text fill="#FFFFFF" style="font-size:3px; font-family:Arial" x="141" y="285">Total: 88.8 km</text><text fill="#FFFFFF" style="font-size:3px; font-family:Arial" x="141" y="290">Avg: 5.9 km</text><text fill="#FFFFFF" style="font-size:3px; font-family:Arial" x="167" y="285">Min: 5.0 km</text><text fill="#FFFFFF" style="font-size:3px; font-family:Arial" x="167" y="290">Max: 10.0 km</text><polyline fill="none" points="12.400000000023283,59.00599464405968 12.671271585626528,54.16858541428519 13.044270015729126,53.49451028222393 16.90989010996418,53.69276792566234 21.335007849382237,55.338298271934036 22.84395604400197,55.43742614459188 23.522135007951874,55.893413683763356 24.132496075413655,55.69515836829669 27.031711146060843,56.13131978553429 27.76075353223132,56.01236677239649 28.82888540037675,56.4881783718738 29.77833594981348,56.32957463961793 31.81287284148857,56.58730563642166 33.16923076927196,55.81411158271658 33.22009419155074,56.210621752310544 33.76263736264082,56.44852745142998 34.57645211939234,56.508003828974324 35.288540031411685,56.230447238791385 36.67880690738093,56.46835291269235 37.67912087915465,55.516728404996684 38.25557299848879,55.4176005742338 41.20565149135655,56.09166878949327 41.426059654622804,56.34940011346771 41.54474097338971,55.635681732717785 42.91805337520782,55.71498390933266 44.44395604397869,55.25899593599024 44.95259026688291,53.316078223797376 45.07127158564981,51.551574276949395 45.7494505494833,50.89731578239298 47.30926216644002,51.214532307421905 51.78524332807865,51.19470629032003 55.600000000034925,49.70774903120764 55.17613814747892,48.99400535595487 53.311145996907726,49.727575205572066 50.8188383046072,50.26288112142356 49.19120879122056,50.302533350666636 45.39340659341542,49.80687988223508 43.748822605994064,51.09557617343671 43.42668759811204,52.086874982662266 43.56232339091366,52.860084413710865 42.40941915224539,53.25660083323601 42.121193092665635,54.16858541428519 41.57864992151735,54.406493705595494 40.57833594986005,54.24788821161201 39.40847723709885,53.514336056032334 37.814756671956275,53.49451028222393 37.15353218221571,53.91085109129199 34.96640502358787,54.04963115543069 34.50863422290422,53.732419429230504 29.37142857152503,53.7918966688012 28.405023547937162,53.65311641378503 27.930298273218796,53.216949229026795 24.505494505516253,53.95050254861417 21.79277864994947,53.43503294829861 16.740345368976705,51.5714002562745 14.163265306153335,51.19470629032003 19.04615384619683,51.15505424991716" stroke="#4dd2ff" stroke-linecap="round" stroke-linejoin="round" stroke-width="0.5"><title>2023-02-10 5.9km</title></polyline><polyline fill="none" points="88.36057316535152,62.41206390209845 88.41684759012423,56.46784093140741 90.36769431177527,56.489775646768976 93.61285280063748,57.32329311039939 95.39487624831963,56.796861417926266 96.12644376896787,54.58144673133211 96.25775075983256,52.62923001169111 96.82049500651192,52.01504566964286 100.06565349537414,52.47568409676023 100.68467216670979,52.16859192572883 103.74224924005102,52.21246226372023 106.85610073816497,51.225377413633396 112.314719930524,48.483450394967804 118.56118106818758,47.62796174339019 121.59999999997672,46.4873047167348 121.43117672600783,46.61891930933052 121.13104646105785,46.09246043766325 121.18732088571414,45.58793609790155 120.17438124178443,46.158267869774136 117.56699956580997,46.81634104155819 116.44151107256766,46.860212512052385 116.17889709072188,46.53117625688901 112.68988276156597,47.167312545730965 110.38263135030866,48.02280309818161 106.57472861476708,50.1944171084906 103.77976552327164,51.07183045905549 100.36578376032412,51.31311847944744 97.64585323480424,50.80860684379877 96.29526704305317,50.852477469466976 94.75709943543188,52.16859192572883 94.40069474594202,53.177607351215556 94.51324359525461,54.18661786636221 93.68788536684588,54.18661786636221 93.08762483706232,54.756925985595444 92.95631784619763,55.612385223197634 92.3372991749784,55.89753751808894 91.09926183242351,55.43690669296484 90.64906643505674,54.25242272943433 89.50481980026234,53.660178210178856 88.21050803305116,54.03307310472883 87.4976986538386,55.15175376458501 85.95953104645014,55.43690669296484 84.81528441153932,55.458841517334804 84.42136343906168,55.12981890767696 78.68137212330475,55.085949186919606 78.40000000002328,54.84466555697145 78.81267911416944,54.36209745472297 81.88901432906277,54.14274794605444 82.24541901866905,55.26142801415699 83.76482848450541,55.15175376458501 85.02162396872882,54.34016251430148 86.18462874507532,54.427902262090356 86.72861485020258,53.76985324875568 87.36639166309033,53.7479182457173 88.39808944845572,54.866600444045616 89.78619192354381,54.800795775896404 90.61155015195254,55.480776339405566 92.3185410334263,55.941407067133696 94.21311333042104,55.67818963370519 94.70082501077559,54.076943048188696 94.75709943543188,55.52464597662038 94.10056448110845,56.05108089906571 91.69952236220706,55.722059229156 91.1180199739756,55.458841517334804 90.46148501953576,54.09887801646255 86.85992184106726,53.04599692195188 85.95953104645014,53.26534759088827 83.72731220140122,55.085949186919606 82.60182370815892,55.06401432311395 82.02032132004388,54.20855282302364 82.54554928350262,53.87952822937223 83.46469821978826,53.87952822937223 84.23378202342428,54.55951181415003 86.10959617886692,54.427902262090356 86.95371254871134,53.83565824410471 87.74155449413229,54.471772122065886 88.43560573155992,54.01113812951371 89.65488493267912,53.76985324875568" stroke="#4dd2ff" stroke-linecap="round" stroke-linejoin="round" stroke-width="0.5"><title>2023-02-05 7.1km</title></polyline><polyline fill="none" points="144.91341256373562,60.747070488214376 145.30458404077217,57.21642437163973 145.58573853998678,57.11636423054733 147.61494057730306,57.445132987355464 148.33616298815468,57.33077872788999 150.2431239389116,58.145550714834826 151.06213921908056,58.23131590131379 151.45331069611711,56.53029620186135 151.1599320883397,55.944225631144946 150.3164685908705,55.958520065571065 149.91307300515473,55.558275330477045 147.6393887946033,55.75839784620621 146.28251273347996,55.529686375448364 145.64685908326646,55.043673214677256 144.4855687606614,54.829255087985075 144.40000000002328,55.7012200148165 144.4855687606614,54.87213874052395 144.9011884550564,54.843549640325364 145.12122241099132,55.0150841507857 145.09677419357467,55.61545322232996 145.3290322581306,55.9871089298249 148.18947368429508,55.75839784620621 151.39219015283743,57.05918697382731 153.50696095085004,57.559487150021596 154.8027164686937,57.345073015632806 155.63395585742546,57.67384121593204 156.5018675721949,57.60236993606668 157.51646859088214,57.80248942434264 159.97351443133084,57.41654443152947 161.8560271647293,57.65954696296831 162.91952461807523,57.559487150021596 163.23735144321108,57.25930726659135 164.4475382004166,57.230718671460636 164.8753820034326,57.60236993606668 165.88998302217806,57.93113751037163 167.06349745334592,57.84537213332078 167.405772495782,57.58807567556505 167.39354838710278,56.2015252191195 167.62580645165872,55.558275330477045 168.57928692700807,54.67201491212472 172.01426146016456,54.98649508082599 173.83565365022514,54.74348774201644 175.30254668934504,54.24317713888013 179.06757215620019,52.35627476638183 183.19932088290807,51.8988399196096 186.92767402384197,50.212035536867916 187.56332767399726,49.054132202480105 187.2455008488614,47.252929511800176 187.60000000003492,48.982656362786656 187.46553480473813,49.42580595919571 187.28217317489907,49.854659023330896 185.76638370123692,50.76954101031879 185.52190152805997,51.169799931536545 184.5561969440314,51.2269796806213 183.46825127338525,51.7987758404488 181.58573853992857,52.18473688031372 180.52224108664086,52.098967855621595 178.68862478778465,52.427748821268324 175.2780984720448,54.20029328667442 173.70118845498655,54.72919317908236 171.35415959259262,54.943611464535934 168.71375212224666,54.586247466359055 167.52801358239958,55.50109741438064 167.1979626485845,55.2152074710466 167.56468590832083,55.64404215919785 167.36910016980255,56.13005316046474 167.51578947372036,56.68753421517613 167.29575551784365,56.93053805764066 167.38132427848177,57.41654443152947 167.11239388794638,57.75960670186032 165.97555178269977,57.93113751037163 164.60645161295542,57.41654443152947 164.49643463501707,57.18783576748683 163.28624787775334,57.20213007033453 162.77283531415742,57.51660435034137 161.75823429547017,57.60236993606668 161.15925297117792,57.60236993606668 160.84142614604207,57.3879558697372 158.24991511041299,57.45942726297653 156.8563667233102,57.273601561857504 155.34057724958984,57.502310080759344 154.6682512733969,57.287895855653915 153.71477079804754,57.54519288499432 151.90560271654977,57.18783576748683 148.09168081497774,55.81557565341063 147.24821731756674,55.68692555319285 145.31680814939318,55.97281449845468 145.07232597627444,55.47250844727387 145.2556876061717,54.95790600482724 146.27028862480074,55.58686427943758 147.38268251274712,55.81557565341063 149.85195246181684,55.558275330477045 150.21867572161136,55.958520065571065 150.78098471992416,56.001403359667165" stroke="#4dd2ff" stroke-linecap="round" stroke-linejoin="round" stroke-width="0.5"><title>2022-12-15 10.0km</title></polyline><polyline fill="none" points="12.400000000023283,107.79152906956733 12.781485992716625,102.6077246878267 15.925456760101952,102.82307929078524 16.33325213158969,103.09996331168804 19.003654080443084,103.71525924818707 19.424604141328018,101.93089385918574 19.319366626092233,101.37712083786028 18.174908648012206,101.30020775148296 17.780267965979874,100.79258036069223 16.359561510325875,100.85411104786908 15.807064555410761,100.59260544739664 14.912545676052105,100.91564170902711 13.978562728443649,100.85411104786908 12.702557856333442,100.11574108278728 12.571010962303262,100.82334570751118 12.88672350795241,101.31559037201805 15.833373934321571,100.86949371562514 16.2806333740009,101.40788606110436 19.569305724755395,102.54619474266656 21.792448233871255,103.00766869664949 22.98952496959828,102.74616696921294 24.041900121839717,103.08458087990584 26.580755176662933,103.11534574181132 27.975152253347915,103.03843357483856 28.55395858711563,102.77693190272839 30.64555420220131,103.08458087990584 31.68477466510376,103.00766869664949 32.17149817303289,102.63848965064972 33.3948842874961,102.63848965064972 33.710596833203454,102.96152136712044 34.802436053636484,103.19225786812603 35.104993909888435,103.51528835443605 35.420706455537584,103.14611059722665 36.06528623634949,103.28455236596346 36.49939098657342,103.11534574181132 36.788794153544586,100.85411104786908 37.95956151041901,99.82346860240796 40.66942752740579,100.16188931548095 42.90572472597705,100.05421008310805 44.83946406823816,99.54657834226964 48.65432399517158,97.54679969561403 53.74518879421521,96.8545622172096 55.27113276498858,96.20847093041812 55.45529841660755,96.900711484981 55.600000000034925,96.8545622172096 54.17929354449734,97.40835246365168 49.811936662648804,97.93137464842584 44.721071863605175,100.23880300398741 42.813641900138464,100.76181500728126 40.577344701683614,100.90025904620416 38.24896467727376,100.57722275039123 37.854323995125014,101.03870295330125 37.77539585874183,102.36160475102952 37.3149817296071,103.96137689384341 36.630937880661804,104.22287643584423 36.03897685749689,104.37669947616814 33.13179049943574,103.66911214328138 30.448233861185145,103.71525924818707" stroke="#4dd2ff" stroke-linecap="round" stroke-linejoin="round" stroke-width="0.5"><title>2022-12-12 7.2km</title></polyline><polyline fill="none" points="79.09892141754972,106.83559781538497 79.44838212634204,101.95141568798863 79.33189522352768,101.50385466421722 78.41664098616457,101.38709943540744 78.40000000002328,100.80332217985415 83.10939907556167,100.88115925436432 88.33466872118879,102.47681202206877 92.07889060099842,103.21625617217796 104.94237288134173,103.02166589451372 106.39013867487665,103.1384200858156 108.8363636363647,103.93623840955843 109.60184899845626,103.68327199867053 110.61694915255066,103.17733813311497 111.09953775041504,101.4065586453944 111.18274268106325,99.77197783387965 111.53220338985557,99.22711433547374 112.38089368259534,99.09089820865483 114.79383667180082,99.57738391259045 115.30970724188956,99.30495207686909 117.73929121729452,99.3827897853771 119.48659476119792,98.91576304020418 121.60000000003492,97.9038676910859 121.30046224966645,97.16440218461503 116.99044684134424,98.46819463005522 115.01016949152108,98.5265731800755 111.3158705700771,98.07900382290245 109.86810477660038,99.36333036137512 109.58520801231498,100.14170571722207 109.81818181823473,100.90061851781502 109.55192604003241,101.36764022344141 109.6517719568219,101.93195653571456 109.21910631743958,102.39897562281112 108.43697996920673,102.32113919066614 107.42187981505413,102.63248472171836 106.95593220338924,102.16546622746682 106.00739599380177,102.00979313254356 105.79106317413971,101.73736489943985 105.7078582434915,101.91249738131592 104.17688751930837,101.75682407233398 101.9303543913411,102.18492535504629 101.14822804316645,102.20438448060304 100.6323574729613,101.85411990585271 97.20431432977784,101.97087483821088 95.20739599387161,101.7179057244648 93.17719568574103,102.00979313254356" stroke="#4dd2ff" stroke-linecap="round" stroke-linejoin="round" stroke-width="0.5"><title>2022-12-06 5.0km</title></polyline><polyline fill="none" points="144.40000000002328,107.2708137861191 144.76956920267548,103.13451192258799 144.9675527040381,103.33515613708005 147.73932172328932,103.36602445328026 151.3690192484646,104.56988369092869 151.50100824941183,104.83226194992312 151.3030247480492,104.83226194992312 151.47461044916417,104.55444966096547 151.09184234659187,104.56988369092869 150.76186984428205,104.23033465526532 151.0522456463077,104.32293901607045 151.38221814861754,102.10041813360294 151.1710357470438,102.23932668067573 151.19743354729144,102.68691998820577 151.68579285073793,103.08820937236305 153.678826764517,103.58210248377873 154.89312557294033,103.35059029597323 155.97543538047466,103.69014137904742 157.66489459219156,103.73644373826392 161.3209899176145,103.41232691532059 162.33730522467522,103.69014137904742 163.8287809350295,103.53580007563869 164.19835013756528,103.24255114927655 165.50504124665167,103.24255114927655 165.63703024754068,103.50493179530895 167.24729605880566,103.96795531379757 168.50119156745495,103.75187785470916 168.80476626957534,101.42130777743296 170.01906507799868,100.40263631581911 173.50357470219024,100.75762869321625 175.19303391390713,100.60328428747016 177.06727772689192,100.03220856626285 180.60458295146236,98.14918629627209 181.80568285979098,97.84049180198053 184.97341888182564,97.5781009682978 186.7024747938267,97.11505716921238 187.37561869848287,96.7291862138809 187.5868010999984,97.48549232604273 187.60000000003492,97.3157096625946 184.90742438141024,98.21092511674215 181.1985334556084,98.70483473986678 179.27149404230295,99.67721442367474 175.69459211744834,101.22066093084868 172.9888175986125,101.34413594599755 172.69844179658685,101.51391392125515 170.25664527964545,101.22066093084868 163.8287809350295,104.30750496004475 157.71769019251224,104.4309773627756" stroke="#4dd2ff" stroke-linecap="round" stroke-linejoin="round" stroke-width="0.5"><title>2022-11-27 5.6km</title></polyline><polyline fill="none" points="12.400000000023283,152.55896888001007 14.11392136028735,152.80949101693113 14.588310308230575,152.66633555555018 15.36875664186664,153.0600127827638 15.889054197643418,152.97054076609493 18.628267800202593,153.8115758541535 19.087353878829163,151.6821384789946 18.842507970286533,151.3242472131824 18.93432518595364,152.05792349315016 19.699468650389463,152.541074427485 22.117321997822728,153.00632957849302 23.265037194476463,152.66633555555018 24.473963868280407,153.095801576128 28.896493092470337,153.0600127827638 29.753453772631474,152.77370216294366 32.09479277371429,153.0600127827638 33.34962805529358,152.98843517326168 33.91583421896212,152.55896888001007 35.43081827840069,152.541074427485 35.599149840534665,152.88106870214688 37.3589798087487,153.41790037610917 38.55260361317778,153.25685105280718 39.05759829969611,152.737913301331 39.22592986183008,151.86108382797102 39.026992561121006,151.14530129639024 39.27183846972184,150.41162105793774 40.67970244423486,149.26635773941234 44.21466524974676,149.71372714616882 46.61721572797978,149.53477952544927 49.111583421879914,148.69372317225498 52.69245483528357,146.7431721290195 55.600000000034925,146.1884241458465 52.92199787456775,146.6358016936574 49.03506907541305,148.72951288949116 46.556004250771366,149.51688475294213 44.26057385758031,149.66004287981195 41.077577045653015,149.17688371609256 40.51137088210089,149.28425253843307 39.22592986183008,150.48319975784398 38.9963868225459,151.14530129639024 39.195324123313185,151.86108382797102 38.919872476079036,152.34423532453366 39.026992561121006,152.89896311875782 38.61381509032799,153.27474542961863 36.89989373006392,153.34632291797607 35.09415515413275,152.48739105847199 33.8546227417537,152.5052855167014 33.257810839568265,152.9526463571092 31.81934112648014,153.0421183832077 30.671625929826405,152.75580773309048 25.83591923484346,152.684229994833" stroke="#4dd2ff" stroke-linecap="round" stroke-linejoin="round" stroke-width="0.5"><title>2022-11-23 5.3km</title></polyline><polyline fill="none" points="78.40000000002328,151.03983360964048 82.0776978416834,151.48401938546158 86.18705035973107,152.61466942279367 86.72230215824675,150.23222045959847 86.60143884894205,149.66688922126195 86.06618705030996,149.40441343415296 85.2028776978259,149.48517525319767 84.44316546758637,148.8592702613969 82.57841726619517,148.91984180187865 82.1640287769842,149.1419372860837 82.23309352516662,149.34384204738308 88.10359712224454,151.34268765985325 89.93381294969004,151.56478032455198 90.90071942441864,151.01964332256466 92.10935251793126,151.22154609742574 93.57697841728805,150.95907244845876 93.87050359713612,151.38306816355907 94.69928057555808,151.5042096234538 99.46474820148433,151.38306816355907 100.65611510793678,151.7666825227643 102.6762589928694,151.66573145033908 103.33237410068978,151.2013558295439 105.024460431654,151.18116555953748 105.42158273374662,151.62535100642708 107.44172661873745,152.1301059412217 109.18561151082395,151.68592166912276 109.15107913670363,150.87831125306548 109.4100719424896,150.47450476349331 109.22014388494426,149.46498480161245 109.54820143885445,148.69774605926068 111.05035971221514,147.50650084705558 116.28201438847464,148.01126667525386 119.14820143888937,147.4257381905627 121.16834532376379,146.55753747557173 121.59999999997672,147.34497549998923 119.92517985613085,148.09202908389852 116.92086330935126,148.8592702613969 114.7971223021741,148.73812712266226 114.45179856120376,148.96022281820478 111.74100719427224,148.4756500582007 111.20575539564015,148.61698390696256 110.77410071942722,149.18231825537805 110.56690647487994,151.56478032455198 110.04892086336622,153.03866145992652 108.87482014391571,153.44246252442827 104.24748201441253,152.55409905487613 91.22877697838703,152.83676060734433 86.3769784172764,151.90801393442962" stroke="#4dd2ff" stroke-linecap="round" stroke-linejoin="round" stroke-width="0.5"><title>2022-11-18 5.5km</title></polyline><polyline fill="none" points="144.40000000002328,154.73401484826172 144.87528487236705,149.77179471516865 145.99559921422042,150.04968251136597 147.08196463662898,149.89088953532337 150.03552062879317,150.22832444867527 152.9211787819513,151.22077655914472 153.37948919460177,149.09692263951 153.29461689590244,148.16400724368577 151.9366601179354,148.10445929500565 151.22373280941974,147.46927999948093 149.42444007867016,147.5486775290192 149.06797642447054,148.00521267182194 149.2207465620013,148.16400724368577 153.8377996070776,149.71224727669323 156.7913555992418,150.32756989597692 157.94561886053998,149.93058779193962 159.28660117887193,150.3871171391802 164.20919449906796,150.36726806020306 165.15976424358087,150.02983339667844 167.77383104129694,150.3871171391802 169.09783889981918,150.30772081074247 169.98051080555888,149.89088953532337 171.35544204321923,149.91073866469378 171.76282907667337,150.30772081074247 173.85068762279116,150.74440020124894 175.4972102160682,150.36726806020306 175.7688015716849,149.07707342405047 175.54813359532272,148.2632537829195 175.83669941063272,147.52882814980694 177.3134774066857,146.17906543532445 182.94899803539738,146.61575443494075 185.20660117873922,146.13936638494488 187.41328094294295,145.26598515172373 187.60000000003492,146.05996825905459 183.45823182706954,147.48912938499416 179.3673870334169,147.5685269061214 178.1961493123672,147.15168954533874 177.48322200396797,147.37003304027894 177.12675834971014,147.84641796551296 176.95701375242788,149.93058779193962 176.49870333989384,151.55820908086025 175.10679764248198,152.0345833726169 171.94954813359072,151.24062554782722 157.9625933202915,151.4192663513386" stroke="#4dd2ff" stroke-linecap="round" stroke-linejoin="round" stroke-width="0.5"><title>2022-11-06 5.5km</title></polyline><polyline fill="none" points="12.400000000023283,211.30295023004874 13.396116504794918,205.93905398828792 14.103883495205082,191.25679590174695 14.706796116544865,188.52869522123365 14.864077670034021,188.8045717383211 18.062135922373272,188.7126129284443 27.05339805840049,190.73570000339532 27.682524271891452,186.4442863803415 27.446601941715926,187.67041104385862 28.41650485433638,188.3754303760652 33.082524271914735,189.3256711094582 42.702912621432915,187.42518652620493 43.33203883492388,187.42518652620493 43.46310679614544,189.14175379139488 45.61262135929428,188.83522466840805 47.7883495145943,188.95783635650878 48.600970873842016,189.4789354520035 52.06116504862439,189.3563239845098 53.16213592234999,188.5900011366466 53.188349514734,187.4558396023058 55.442718446603976,186.78147118006018 55.60000000009313,185.21815652828082 54.76116504869424,184.69704976998037 53.34563106810674,186.5975522470253 53.60776699031703,187.3332272786647 53.031067961244844,187.57845187411294 52.087378640891984,189.14175379139488 49.2038834951818,189.50958831087337 47.7883495145943,188.95783635650878 39.609708737931214,188.95783635650878 38.95436893205624,189.4482825899904 36.962135922396556,189.4482825899904 34.8912621360505,188.74326586833922 32.872815534006804,189.3256711094582 29.360194174805656,188.68195998534793 21.207766990410164,186.01514152236632 20.945631067967042,185.52468947775196 21.57475728157442,185.3101164471882 24.37961165048182,184.97292993526207 25.2970873786835,186.01514152236632 26.188349514617585,185.95383506224607 25.27087378629949,185.9231818272383 24.327184466063045,185.03423660297995 22.833009708789177,185.03423660297995 21.312621359247714,185.2488098378526 21.129126213490963,186.045794747537 29.491262136027217,188.83522466840805 27.263106796192005,187.5477988110506 27.39417475729715,186.4442863803415" stroke="#4dd2ff" stroke-linecap="round" stroke-linejoin="round" stroke-width="0.5"><title>2022-11-02 5.0km</title></polyline><polyline fill="none" points="79.73025404161308,207.8676470603823 79.66374133952195,207.45935209422896 78.48314087762265,207.30381091620075 78.40000000002328,206.73997304288787 78.83233256358653,203.82354264405149 78.83233256358653,201.14038581271598 79.09838337189285,200.57652903509734 78.94872979220236,198.51552058113157 79.31454965367448,194.19899403296586 79.66374133952195,192.56568728289858 79.9464203233365,192.7795735164982 83.25542725174455,192.66290832901723 87.51224018482026,193.98510945108137 87.92794457275886,191.2045872373419 87.71177829109365,191.8462499431771 88.01108545041643,192.31291232227522 91.41986143193208,193.09068032109644 96.72424942272482,191.982359926129 98.52009237883613,191.943471369872 99.53441108542029,192.44902195963368 100.08314087765757,192.11846980832343 102.32794457278214,192.1768025841011 103.00969976908527,191.5545853546064 104.02401847584406,192.0601370140066 105.30438799079275,191.61291830937262 106.26882217091043,192.04069274515496 106.70115473441547,193.1684569399804 107.89838337188121,193.53789543011226 109.57782909926027,193.1879010895209 109.86050808319123,191.7295841632731 109.66096997697605,190.990699170914 109.97690531180706,190.21292228574748 111.00785219395766,189.1823628431448 112.02217090071645,188.96847242339572 114.94872979214415,189.43514210922876 116.8775981523795,189.43514210922876 119.0226327944547,189.02680619890452 121.2840646650875,188.13235293963226 121.60000000003492,188.81291559815872 119.77090069284895,189.66847650776617 117.32655889145099,190.29070012237935 114.79907621245366,190.4462556969229 111.689607390319,190.09625546910684 111.2240184757975,190.64069997993647 110.60877598152729,194.21843807355617 109.29515011544572,194.7045384190278 104.58937644347316,193.90733317776176 91.95196304854471,194.16010594567342 88.16073903004872,193.36289834314084 87.69515011552721,196.3183823471918" stroke="#4dd2ff" stroke-linecap="round" stroke-linejoin="round" stroke-width="0.5"><title>2022-10-28 6.2km</title></polyline><polyline fill="none" points="144.40000000002328,202.67411415251263 144.67042253533145,198.52379568575998 144.95774647890357,197.7727758261899 145.22816901415354,198.04946770465176 147.29014084505616,197.85183069038612 148.91267605638131,198.02970401260245 152.32676056347555,199.19575826417713 153.0197183098644,199.0376496396202 153.40845070424257,196.9229339229205 153.25633802817902,196.21143540294725 152.74929577467265,195.97426862739667 151.76901408453705,196.0533242527017 151.21126760565676,195.4999341731018 149.4028169014491,195.59875395038398 149.14929577469593,195.8359212026553 149.352112676017,196.17190762785322 154.54084507049993,197.95064922362508 156.23098591557937,198.24710450976272 163.38028169015888,197.19962706007937 163.44788732397137,198.1878134901781 165.8140845071175,198.02970401260245 167.36901408457197,198.4052138033585 171.34084507043008,197.9111218166363 171.52676056337077,198.28663184570905 173.48732394364197,198.78072283932124 175.07605633797357,198.62261386349564 175.41408450709423,198.34592283391976 175.38028169015888,197.5158472864132 175.65070422535064,197.16009949409636 175.44788732402958,196.1916715164407 175.76901408453705,195.46040624754096 177.23943661974045,194.21527231151413 181.38028169010067,194.66984598008275 183.03661971830297,194.59078976938326 184.96338028169703,194.21527231151413 187.1774647887214,193.32588584747282 187.60000000003492,194.01763124094578 185.63943661970552,194.86748636061384 183.05352112679975,195.53946209033893 181.04225352115463,195.46040624754096 180.68732394371182,195.6382818466518 178.0,195.1837105344748 177.42535211268114,195.3418224207271 177.07042253523832,195.87544904874812 176.96901408449048,197.59490225935588 176.44507042254554,199.55150218014023 175.04225352115463,199.98629937987425 173.82535211264621,199.86771842576854 173.62253521120874,199.51197511184728 172.94647887331666,199.61079276699456 171.25633802823722,199.2155218328262 164.0394366197288,199.31433964474127" stroke="#4dd2ff" stroke-linecap="round" stroke-linejoin="round" stroke-width="0.5"><title>2022-10-20 5.2km</title></polyline><polyline fill="none" points="22.156734693795443,247.958814785321 22.80326530605089,248.9553780130518 24.50775510200765,249.4364764081547 26.2710204081377,248.78355698499945 30.855510203982703,249.26465563449892 31.17877551028505,248.74919276844594 31.94285714288708,249.57393296153168 33.29469387757126,249.91757409073762 34.26448979601264,249.57393296153168 38.731428571394645,250.0206663585559 40.25959183671512,248.57737163137062 41.17061224486679,249.40211226066458 43.31591836747248,248.8866496127157 45.40244897955563,249.19592729970464 48.01795918366406,248.81792119785678 48.37061224482022,251.3264989196614 48.81142857146915,250.94849529699422 48.89959183672909,248.43991465625004 49.72244897962082,247.8557218631613 54.57142857136205,249.29901979648275 55.60000000009313,251.01722326112213 54.89469387778081,248.23372908457532 52.30857142852619,242.08246600319399 48.69387755100615,243.3539656874782 47.60653061233461,245.14092980441637 44.844081632676534,245.58766929761623 43.43346938781906,245.58766929761623 42.87510204082355,245.03783598789596 34.05877551017329,245.07220059706015 33.35346938774455,244.5567310784245 29.415510204154998,245.3127527591423 28.710204081609845,244.7629189839936 37.350204081623815,243.56015435649897 37.79102040827274,244.38490772387013 37.23265306116082,245.24402358804946 33.088979591964744,244.7629189839936 29.621224489761516,245.3127527591423 28.38693877554033,244.86601288776728 34.47020408161916,243.73197814734885 37.702857142779976,243.6288838837063 37.76163265306968,244.69418969674734 37.291428571450524,245.24402358804946 33.00081632658839,244.7629189839936 29.415510204154998,245.27838817541488 28.41632653074339,244.90037751503405 30.855510203982703,244.4536370766291 31.619591836701147,244.93474213875015 37.17387755098753,245.41584648829303 37.702857142779976,245.0034713750647 37.73224489786662,243.6288838837063 35.733877551043406,243.45706003840314 26.094693877501413,245.45021105741034 21.715918367379345,244.6598250475945 12.811428571352735,241.6700866582978 12.400000000023283,241.1202467175026 13.04653061227873,240.70786615120596 16.161632653092965,240.6735010803095" stroke="#4dd2ff" stroke-linecap="round" stroke-linejoin="round" stroke-width="0.5"><title>2022-09-24 5.1km</title></polyline><polyline fill="none" points="117.6727272728458,253.68670636572642 119.38023715419695,252.5886232368648 121.34387351758778,245.20148534729378 113.40395256876945,240.40979742526542 106.83003952540457,248.19627794570988 106.83003952540457,253.1875778294052 110.33043478243053,254.68496264750138 117.58735177852213,254.78478821751196 119.46561264805496,253.58688067959156 121.60000000009313,244.8021789494669 114.08695652196184,240.11031612264924 107.00079051405191,248.2961042021634 107.17154150176793,254.08600900514284 111.86719367559999,254.28566026152112 113.31857707491145,255.2839159098803 111.78181818174198,256.7812974025728 80.3636363632977,258.5781520587043 79.08300395263359,259.5764031673898 81.30276679852977,257.8793756546802 114.25770750967786,258.6779772170121 119.29486165987328,257.4800746195833 99.82924901135266,256.7812974025728 101.45138339884579,233.02256422070786 100.51225296407938,232.82290846732212 97.01185770751908,257.1805987327825 78.39999999990687,256.98094808874885 78.65612648194656,258.0790261083166 119.46561264805496,258.5781520587043 116.3067193669267,256.7812974025728 112.8063241103664,257.57989989430644 99.74387351796031,256.48182129405905 101.10988142294809,232.4235968326102 97.86561264796183,256.48182129405905 95.04822134366259,257.57989989430644 80.87588932784274,256.98094808874885 80.70513833966106,258.0790261083166 121.51462450576946,259.0772777448292 110.07430829992518,258.6779772170121 118.7826086957939,258.5781520587043 118.7826086957939,257.2804240392288 113.74545454513282,256.88112275104504" stroke="#4dd2ff" stroke-linecap="round" stroke-linejoin="round" stroke-width="0.5"><title>2022-09-22 5.0km</title></polyline><polyline fill="none" points="164.15834348357748,249.32262865189114 165.8684531059116,249.07651236007223 167.13130328874104,249.90715401005582 168.63093788072,249.69180269897333 171.8669914738275,250.2147984635958 173.57710109627806,249.44568671964225 173.52448233857285,248.89192500454374 173.8928136419272,248.79963128297823 174.52423873334192,249.8763895468437 177.57612667477224,249.50721573398914 178.68112058460247,249.9379184700956 180.99634591955692,248.79963128297823 181.02265529846773,249.7840961375332 181.44360535929445,250.18403403283446 181.70669914747123,248.55351454854826 182.23288672359195,248.21510369869065 186.83702801470645,249.44568671964225 187.59999999997672,250.8916151158046 186.23191230208613,246.36921940391767 184.62704019492958,242.95430257130647 182.31181485997513,243.78496170774451 181.60146163217723,243.29271954289288 178.68112058460247,242.86200696518063 175.12935444584582,245.66162731774966 170.025334957405,245.75392203536467 169.36760048707947,244.36949819637812 164.86869671137538,245.01556347470614 163.29013398301322,245.38474298940855 165.13179049943574,246.21539518382633 172.70889159559738,246.15386547299568 173.8928136419272,245.66162731774966 176.0501827041153,245.66162731774966 177.3919610233279,246.15386547299568 180.12813641899265,245.8462167236139 180.6280146164354,244.5540884223883 179.7334957368439,243.75419659691397 178.20755176618695,243.60037099351757 175.8923264312325,244.86173853866057 174.36638246045914,243.75419659691397 172.28794153477065,244.3387331473641 169.68331303284504,244.2772030394699 169.63069427525625,245.81545183080016 167.49963459197897,245.4462728629005 164.23727161996067,245.96927626244724 162.57978075521532,245.4462728629005 161.4484774664743,245.90774649954983 159.58051157125738,245.8462167236139 148.7936662606662,242.58511997119058 149.42509135208093,241.60063074639766 147.68867235071957,241.1083848841663 146.66260657738894,241.84675336498185 144.40000000002328,241.44680400390644 144.82095006085,241.81598804911482 148.7673568817554,242.27746744648903 152.34543239953928,241.6621614205942 153.47673568804748,242.70818088995293 154.8974421437597,242.46205900041969 155.71303288673516,242.76971132974722 155.18684531061444,247.3844572158996 154.45018270402215,247.3844572158996 156.08136419008952,248.0920451102138 155.10791717423126,248.21510369869065 154.8711327649653,249.1688059938606" stroke="#4dd2ff" stroke-linecap="round" stroke-linejoin="round" stroke-width="0.5"><title>2022-09-09 5.2km</title></polyline></svg>