<?xml version="1.0" encoding="utf-8" ?>
<svg baseProfile="full" height="300mm" version="1.1" viewBox="0,0,200,300" width="200mm" xmlns="http://www.w3.org/2000/svg" xmlns:ev="http://www.w3.org/2001/xml-events" xmlns:xlink="http://www.w3.org/1999/xlink"><defs /><rect fill="#222222" height="300" width="200" x="0" y="0" /><text fill="#FFFFFF" style="font-size:12px; font-family:Arial; font-weight:bold;" x="10" y="20">Over 5km Runs</text><text fill="#FFFFFF" style="font-size:4px; font-family:Arial" x="10" y="280">ATHLETE</text><text fill="#FFFFFF" style="font-size:9px; font-family:Arial" x="10" y="290">fengde</text><text fill="#FFFFFF" style="font-size:4px; font-family:Arial" x="120" y="280">STATISTICS</text><text fill="#FFFFFF" style="font-size:3px; font-family:Arial" x="120" y="285">Number: 38</text><text fill="#FFFFFF" style="font-size:3px; font-family:Arial" x="120" y="290">Weekly: 1.5</text><text fill="#FFFFFF" style="font-size:3px; font-family:Arial" x="141" y="285">Total: 229.7 km</text><text fill="#FFFFFF" style="font-size:3px; font-family:Arial" x="141" y="290">Avg: 6.0 km</text><text fill="#FFFFFF" style="font-size:3px; font-family:Arial" x="167" y="285">Min: 5.0 km</text><text fill="#FFFFFF" style="font-size:3px; font-family:Arial" x="167" y="290">Max: 10.0 km</text><polyline fill="none" points="38.322912111878395,55.417017308660434 36.70550940092653,55.458433292777045 36.00896370789269,55.92781352766906 35.13533012679545,55.80356598277285 34.78115435061045,56.03825569055334 33.36445124621969,55.78976069269993 32.90402273723157,55.29276927738101 31.747048535151407,53.09770121812471 30.57826847396791,51.84138778998749 29.633799737668596,51.51005036463903 27.426104066427797,51.30296404658293 25.67883690423332,50.4055862036912 25.12396152166184,49.14924685511505 24.98229121119948,47.934313781850506 24.46283340617083,47.31303681587451 23.518364669871517,47.10594383649004 20.236335811147,47.644384899234865 19.57520769565599,47.326843002825626 18.005028421524912,45.98763606759894 17.615435067738872,45.90479807379597 17.78071709664073,45.26970504040946 16.67096633143956,43.11588825476065 16.588325317017734,42.45316824398469 16.28137297765352,42.190840643059346 16.033449934388045,41.44527510770422 15.27787494531367,41.141524964317796 14.900087450805586,40.38214651160524 15.336904241354205,40.20265641325386 12.775032794044819,36.28142647961795 11.606252732803114,33.809886488175835 11.5,33.906539769945084 12.822256230865605,36.405692616986926 15.891779623983894,41.10010443540523 15.785526891122572,41.29340012438479 16.600131176179275,42.563621812922065 16.63554875383852,43.26776111642539 16.95430695230607,43.474860188303865 17.75710537820123,45.29731784528121 17.615435067738872,45.94621707723127 18.04044599912595,46.04286136760493 18.241145605570637,46.41563153115567 20.28355924790958,47.63057874588412 23.34127678180812,47.11975004532724 24.47463926539058,47.34064918832155 25.041320507240016,48.113793243494 25.112155662442092,49.232082789065316 25.572584171372,50.364168615764356 27.50874508090783,51.358187096891925 29.433100131165702,51.496244620357174 30.613686051568948,51.88280490897887 32.030389156076126,53.55328441786696 33.35264538694173,55.77595540114271 34.56864888500422,55.941618803175515 34.69851333624683,56.190113511824165 35.46589418448275,55.72073422042013 36.78815041540656,55.44462796625157 38.34652383031789,55.44462796625157 38.5,55.251353240717435" stroke="#4dd2ff" stroke-linecap="round" stroke-linejoin="round" stroke-width="0.5"><title>2023-06-01 6.5km</title></polyline><polyline fill="none" points="76.0,57.618194316732115 74.37768240342848,57.904260790979606 73.60515021457104,57.70853116021317 73.09012875537155,57.196621622511884 71.32618025748525,54.140182241550065 70.59227467805613,53.53792043462454 69.56223175959894,53.08622240681143 67.21888412017142,52.8152029018529 65.28755364805693,51.85157381526369 64.66952789702918,50.677142043350614 64.5150214592577,49.246731280349195 63.87124463520013,48.55410616514564 62.78969957079971,48.343306547860266 59.18454935622867,48.87030500557739 57.12446351937251,47.560333806686685 56.841201716742944,46.82252862706082 56.5836909871432,46.65689836704405 56.635193133028224,46.340694608021295 55.73390557937091,44.29288182372693 55.37339055794291,44.08207589338417 55.386266094399616,43.35931033238012 54.97424892708659,42.90757999231573 54.806866952741984,42.18480846498278 54.536480686743744,42.01917280622001 54.60085836908547,41.71801656890602 52.502145922742784,38.1944412306766 51.369098712457344,36.71872990473639 49.65665236057248,33.36067667452153 49.20600858371472,32.96914961337461 49.0,32.09573920900584 49.15450643771328,32.878797061610385 49.6952789700008,33.39079409613623 51.27896995708579,36.688613187667215 54.60085836908547,41.6577852449409 54.459227467828896,41.97399941121694 55.360515021428,43.34425267750339 55.37339055794291,44.12724861902825 55.746781115885824,44.35311203218589 56.62231759657152,46.340694608021295 56.519313304743264,46.61172644450562 56.879828326171264,46.83758591384685 57.11158798279939,47.50010495581955 58.75965665234253,48.6444487626577 59.532188841258176,48.91547621112841 62.763948497886304,48.35836367376032 63.80686695280019,48.478820623407955 64.42489270382794,49.14133202377707 64.64377682405757,50.73736954946071 65.18454935628688,51.89674407450366 66.9871244635433,52.8152029018529 69.69098712445702,53.131392274051905 70.69527896994259,53.552977010869654 71.91845493559958,54.95323163794819 73.51502145919949,57.63325046132377 73.8755364806857,57.88920467509888 74.90557939914288,57.88920467509888" stroke="#4dd2ff" stroke-linecap="round" stroke-linejoin="round" stroke-width="0.5"><title>2023-05-26 6.2km</title></polyline><polyline fill="none" points="86.5,48.76113778724539 87.5322496748704,49.23739935003687 89.11222366709262,49.385204068457824 89.25968790636398,49.574065243483346 90.95903771129088,49.401626797553035 91.23992197657935,49.67260132631054 92.3564369310916,49.565853897613124 92.18790637192433,49.68902399462968 92.42665799739189,49.98463143000117 92.78478543562233,49.779348608215514 93.12184655395686,49.787559931501164 93.3886866059911,49.79577125392825 93.55019505851669,49.96820882424072 94.0979193757812,50.13243472552858 94.89843953188392,50.13243472552858 95.12314694406814,49.90251836641983 95.10208062417223,49.147074105807405 95.21443433032255,48.83504063509463 95.7762028608704,48.31771922245389 96.28179453834309,48.27666181977838 97.50364109230577,48.49016007643513 98.80975292588118,48.35877660338883 99.6804941482842,48.05495147014153 101.52028608584078,47.08598769493983 104.28699609884643,46.69182947761874 106.44278283487074,45.64894287267816 106.70962288687588,45.139812037785305 106.4989596879168,44.02299721694726 106.06358907671529,43.23464766665711 105.6703511053347,42.14244182665425 104.92600780233624,41.690773264475865 105.03133940181579,41.403346446975775 105.8529258777562,41.86322884393303 106.59726918075467,41.871441004834196 107.19414824448177,42.07674474464875 109.37802340701455,44.48286408960121 109.75019505852833,44.655313464325445 110.05916775032529,44.56498288724106 110.73328998702345,43.86697033744713 111.50572171653039,42.70086477819859 112.67841352405958,41.493680704341386 113.5,39.27635490677494 112.98738621588564,40.7545791453158 112.48179453835473,41.75647067325917 111.5267880364263,42.63516816894844 110.72626788038178,43.83412253339338 110.01703511056257,44.58140663636732 109.69401820545318,44.655313464325445 109.09011703511351,44.23650717529381 107.1871261378401,42.06853260547359 106.56918075421709,41.86322884393303 105.8318595578603,41.83859235602722 105.06644993499503,41.37049760004447 105.01027308194898,41.551166086086596 105.6703511053347,42.18350247469061 106.47087126137922,44.03942108074989 106.68855656695087,45.148023851943435 106.27425227567437,45.78854267943825 104.65916775033111,46.57686628717056 103.43029908972676,46.85606231143174 103.12834850454237,46.782157579225895 102.04694408320938,46.92996697326453 101.2394018205814,47.151680536531785 100.0456436930981,47.866086598689435 100.08777633288992,48.2356043954278 98.76762028608937,48.73650348899537 98.20585175551241,48.83504063509463 97.37724317298853,48.79398350609699 97.26488946683821,48.88430916121433 95.958777633321,48.73650348899537 95.7762028608704,48.933577656091074 95.67087126139086,49.91072967670334 95.41807542263996,50.53478671524499 94.74395318594179,50.72364509322506 93.50806241872488,50.40340670302976" stroke="#4dd2ff" stroke-linecap="round" stroke-linejoin="round" stroke-width="0.5"><title>2023-05-21 9.9km</title></polyline><polyline fill="none" points="151.0,48.62927641313581 150.31932773115113,48.97040065689362 148.9903961584787,49.00830331057659 147.38595438183984,48.553470937447855 147.11044417775702,49.00830331057659 146.13805522210896,48.97040065689362 144.06362545024604,47.87122021231335 142.83193277317332,47.98492884694133 141.68127250904217,47.226869919366436 138.11584633856546,47.473239422703045 137.0462184874923,47.321627460740274 136.41416566632688,47.83331731805811 132.45978391362587,49.36837812034355 131.79531812726054,48.91354666140978 131.50360144063598,47.549045355583075 128.456782713125,43.872420658532064 127.95438175275922,43.51233480090741 124.37274909968255,43.07644042580796 128.29471788718365,43.70185376358859 131.6008403362357,47.79541441582842 131.7791116447188,49.04620595621236 132.42737094842596,49.36837812034355 136.23589435772737,47.965977412837674 136.49519807926845,47.53009387537895 135.1338535414543,47.41638495202642 133.9021608644398,46.866790804910124 133.17286914773285,47.1321123278467 132.75150060030865,48.06073456327431 133.3997599040158,48.38290849972691 132.99459783919156,48.72403321265301 133.17286914773285,49.06515727605438 132.7352941177087,49.349426832588506 132.2004801922012,49.23571906406141 131.8115246098605,49.02725463436218 131.7466986795189,48.06073456327431 131.3577430972946,47.37848196148116 130.56362545024604,46.715178329715854 129.60744297725614,45.12323959208152 128.14885954384226,43.53128670626029 124.9561824729899,43.114344326619175 128.08403361350065,43.53128670626029 131.43877551023616,47.49219090890256 131.89255702286027,48.667179138967185 131.3577430972946,48.38290849972691 129.656062425056,45.16114305978408 128.19747899158392,43.58814241003711 124.0,43.05748847240466 124.30792316934094,40.631621879671 128.32713085232535,40.745335110186716 129.10504201689037,41.18123515821935" stroke="#4dd2ff" stroke-linecap="round" stroke-linejoin="round" stroke-width="0.5"><title>2023-05-19 5.4km</title></polyline><polyline fill="none" points="161.5,44.716466170633794 164.15037593984744,44.75603090957884 168.4248120301054,46.04847214277834 169.9699248120305,46.33861016987794 179.20676691731205,46.219917422233266 181.7105263157864,46.813380030478584 182.86090225563385,46.39136246587441 183.30075187975308,43.8328503964658 183.59398496244103,43.58227164897107 185.6917293232982,43.85922707742429 185.86090225563385,43.661401834157004 187.80075187975308,43.63502511137631 188.46616541355615,43.43719951230014 188.5,43.18661996951414 187.30451127822744,43.70096690794162 185.87218045117334,43.6877785514007 185.64661654137308,43.8328503964658 183.56015037599718,43.608648382934916 183.24436090228846,43.93835708684492 182.81578947370872,46.41773860555986 181.82330827071564,46.76062791306322 179.01503759401385,46.16716505365912 170.5676691729459,46.364986320681055 168.2781954887323,45.96934347275965 164.06015037593897,44.716466170633794 161.91729323309846,44.78240739519242" stroke="#4dd2ff" stroke-linecap="round" stroke-linejoin="round" stroke-width="0.5"><title>2023-05-17 5.0km</title></polyline><polyline fill="none" points="14.259124087635428,77.45126765682653 15.11015262111323,77.92265003185457 15.575978765788022,77.72362219164643 16.93762441939907,77.92265003185457 17.322826808260288,77.67124637778761 17.35865958861541,77.35699091257266 19.293629727966618,77.27318928674504 23.199402787024155,77.22081323460588 25.25082946254406,77.6502960444268 25.985401459911373,77.4093668926871 26.30789648310747,75.51333876167337 26.594558726006653,75.10479755939014 27.472461844736245,75.26192899051966 28.359323158627376,75.16765016175486 29.631386861321516,75.29335524681665 32.10384870605776,74.42389180975442 34.119442601222545,73.38681097867811 36.10816191107733,73.2506278404544 38.01625746523496,72.69541772310185 38.5,72.47542794749461 38.32979429332772,72.55923363391776 38.23125414730748,72.07734996814543 37.998341074970085,72.27638915788702 37.093563370988704,72.52780650982459 33.6088254810893,73.02016364139126 31.297611147980206,74.25628352245258 29.927007299265824,74.68577919066593 28.49369608494453,74.79053394906805 26.97080291970633,74.53912234269228 26.361645653669257,74.58102432142914 25.600199071050156,75.25145356955181 25.40311877906788,76.83322958769713 24.18480424687732,77.03225921748526 24.2385534173809,76.91703158582823 23.871267418784555,76.70752645747416 23.61147976113716,76.14186039681226 23.11877903121058,75.92187827832822 22.500663570011966,76.06853307828715 22.097544791002292,76.64467483254703 21.45255474455189,76.74942751861818 20.915063039166853,76.75990278113022 20.65527538151946,76.59229844793299 18.639681486412883,76.6341995578332 18.45155938953394,76.17328637385071 18.344061048468575,76.17328637385071 15.602853351039812,76.72847699025442 13.802256138063967,76.3827926325248 11.526874585309997,75.56571571694076 11.5,75.38763395587011 11.929993364319671,75.30383066334616" stroke="#4dd2ff" stroke-linecap="round" stroke-linejoin="round" stroke-width="0.5"><title>2023-05-14 6.3km</title></polyline><polyline fill="none" points="49.3776937618386,80.75332964488916 49.70434782613302,78.73616817298898 49.0,78.4735764533907 49.39810964080971,78.39002441448247 49.510396975441836,78.18711206242006 49.71455576561857,76.27733087239903 49.581852552015334,76.15796847490856 49.93913043482462,76.16990472034377 50.13308128545759,72.25474850706087 50.28620037809014,71.93245825514168 52.654442344093695,72.09957183402003 55.196219281700905,73.0186920937631 55.42079395084875,72.95900918731786 55.67599243862787,72.46960816358478 57.6461247637053,72.91126283940685 58.75879017013358,72.98288235368818 66.14933837432181,72.83964327967988 68.37466918717837,73.34097924314847 69.27296786388615,73.0186920937631 69.65066162572475,70.76265627289831 69.89565217396012,70.48810915247304 71.84536862006644,70.63135121169762 73.63175803405466,70.54779336594947 76.0,69.72414843213483 75.78563327033771,69.24667035511811 74.42797731567407,69.80770688786288 73.33572778827511,70.03450809862261 71.97807183366967,70.08225566385227 69.77315689984243,69.80770688786288 68.84423440456158,70.54779336594947 68.6502835538704,71.1088234290437 68.78298676747363,71.56242016401666 68.59924385638442,72.33830508879328 67.62948960304493,72.5770378384259 66.58827977319015,72.29055847824202 66.2207939508371,71.9921417045698 65.33270321367308,71.9921417045698 64.92438563331962,72.24281184745632 63.975047258951236,72.32636843804357 63.0665406427579,72.15925519503071 61.514933837461285,72.23087518662214 59.840831758105196,72.06376180223015 58.68733459356008,72.23087518662214 58.00340264651459,72.05182512245665 57.08468809071928,72.23087518662214 55.66578449908411,71.93245825514168 55.21663516073022,71.52660996173654 55.186011342157144,70.96558197597915 54.76748582231812,70.9417083828157 55.31871455581859,71.06107629822509" stroke="#4dd2ff" stroke-linecap="round" stroke-linejoin="round" stroke-width="0.5"><title>2023-05-12 6.0km</title></polyline><polyline fill="none" points="93.55365607858403,88.35563351665041 93.82877598103369,88.3445283943147 93.09828520554584,87.94474320396694 93.30699685565196,88.00026901623642 93.44930025353096,87.80037595404428 93.38289200118743,88.31121302016254 93.55365607858403,88.20016169633163 94.19876481534448,88.5 94.749004620302,88.47778978475253 94.91028180450667,87.70042927964096 94.8343866590294,86.43442980173131 95.21386238653213,85.9013728042919 95.18540170695633,85.623737875183 97.50969053810695,83.8690680706859 98.211720634019,83.18051871030184 99.03708034142619,82.02552250371082 99.65372839861084,80.19305041840562 99.86244004877517,76.25035006396502 100.05217791249743,76.05043453563121 100.0426910193637,75.12859687567834 100.45062742644222,73.81801849725889 101.674436647736,71.76326508170314 103.80898761510616,69.7528996740075 104.64383421564708,68.44225388984341 105.57354974810733,64.15477234565333 106.90171479451237,61.5 105.61149732087506,64.0103722370186 104.86203275900334,67.5981004455316 104.45409635186661,68.77547047781991 103.60027596494183,69.98614847219869 102.16775509354193,71.20791938700859 101.29496092023328,72.2519668523164 100.52652257191949,73.56256486586062 100.1280730580329,74.89535955263273 100.02371723297983,75.47289863955666 100.13755995122483,76.10596666519996 101.26650024065748,76.03932810619153 102.61363907332998,76.18371159697563 103.32515606249217,76.02822167558043 104.26435848808615,76.19481801109214 104.95690169086447,76.10596666519996 105.250995379698,76.26145647095836 105.37432499113493,76.77234991874866 105.24150848650606,77.28324086971406 103.34412984887604,79.04912731822697 102.99311480089091,79.65996159899805 102.85081140307011,80.55954740497691 103.17336577142123,81.85893545950239 99.86244004877517,86.22342839852354 98.42991917737527,87.82258631316654 98.20223374082707,87.82258631316654 95.232836172916,85.84584587741847 94.85336044535507,86.51216705346451 94.98617694998393,87.58937730717298" stroke="#4dd2ff" stroke-linecap="round" stroke-linejoin="round" stroke-width="0.5"><title>2023-05-09 7.6km</title></polyline><polyline fill="none" points="136.44451972824754,88.5 136.6483366083121,86.5253742155619 136.31349459115881,85.45293799169303 134.4354676247458,84.8571370018326 130.88323057221714,84.38049462188792 130.79588048078585,83.54636706043675 131.04337240656605,81.62275028511067 132.51376561279176,81.65679679957975 132.04789845831692,81.55465723454836 131.9023149725981,80.26088379997236 131.55291460675653,80.58432813371473 131.02881405805238,80.22683699020126 131.07248910376802,69.92734635573288 131.26174763520248,69.43363520609273 130.79588048078585,69.67197870883683 130.1844298405922,69.33148788248945 131.1743975437712,67.54389922301925 131.23263093811693,66.33513754123123 131.80040653253673,66.04571438264975 132.04789845831692,69.2293404940574 131.59658965247218,70.60832476618816 131.71305644110544,71.93622437746671 131.88775662396802,72.22563694084238 132.99419111578027,72.1064671248314 133.75122524169274,71.4765680598357 133.32903313299175,68.9739717393677 134.01327551610302,67.95249266753672 133.9550421217573,67.45877545815893 133.4600582701969,67.56092397061002 132.45553221844602,67.0672055597388 132.79037423571572,66.55646078179416 133.43094157305313,66.57348563388223 134.2898841390852,66.99910634967091 134.6101678077248,66.8118333734601 134.72663459635805,67.01613115487271 135.70204395084875,64.58156571917061 135.60013551090378,63.11740373156499 135.19250175071647,61.90860879354295 134.857659733505,61.5 134.1006256075343,61.891583447824814 133.7803419388947,62.55557059420971 134.21709239616757,62.04481149405183 134.08606725896243,62.725823267232045 134.37723423045827,63.16847937401326 134.71207624772796,63.25360540873953 135.19250175071647,62.79392428601568 135.48366872227052,62.87905051896814 135.68748560227687,63.71328521810938 135.60013551090378,65.0412417344487 134.6101678077248,66.98208154267923 132.00422341265948,69.34851244089077 131.62570634967415,70.55725148538477 131.84408157825237,72.27670969208702 132.36818212707294,72.61719428631477 134.20253404753748,72.4469520792627 135.22161844791844,72.61719428631477 136.0660026653204,73.21304059261456 137.20155385421822,73.19601644303475 138.80297219753265,74.06424577436701 140.37527384376153,74.28555838404282 143.0103349359706,74.06424577436701 143.44708539324347,74.52389470030903 144.75733676512027,74.57496672208072 144.8155701594078,75.98795289857662 144.52440318791196,77.14557088144647 144.2332362163579,77.07747593650129 143.95662759343395,77.67330572784704 144.17500282207038,78.71174666276784 143.65090227330802,81.35037791002833" stroke="#4dd2ff" stroke-linecap="round" stroke-linejoin="round" stroke-width="0.5"><title>2023-05-06 6.0km</title></polyline><polyline fill="none" points="168.5428420305252,88.48883518038201 168.2376292461413,88.31019790533901 168.58099362859502,88.01991168599488 169.3249497904908,88.5 169.6301625748747,88.4665055376172 169.76369316806085,87.69612995725038 169.6492383739096,86.55730354105617 170.0402922538924,85.89856498214795 169.99260275636334,85.68642795733467 172.31985023716697,83.93348984222393 173.7696109630051,82.19168798450846 174.4849534263485,80.19304644649674 174.70432511513354,76.15098483863403 174.90462100482546,75.91649583106482 174.84739360777894,75.3581865644228 175.20983378926758,73.99589950602967 176.20177533844253,72.17576710690628 178.67209131200798,69.69676306987094 179.61634336365387,68.08872917995177 180.43660272168927,64.13554125385417 181.7623707538005,61.5 180.4079890231369,64.202545678163 179.66403286124114,67.86538919340092 179.31113057932816,68.7252455372145 178.45271962322295,69.94243274722248 176.2113132380182,72.11993432638701 175.25752328679664,73.83957035341882 174.84739360777894,75.34702034883958 174.97138630144764,75.73783718843333 174.6947872156743,76.26264608688507 174.5517187229707,79.85807487252896 173.86498995806323,82.04653652687557 173.37855708302232,82.81695351059898 172.5010703278822,83.76601014851622 170.04983015340986,85.67526283892221 169.7160036705318,85.55244645797211" stroke="#4dd2ff" stroke-linecap="round" stroke-linejoin="round" stroke-width="0.5"><title>2023-05-04 6.1km</title></polyline><polyline fill="none" points="12.320330082497094,110.08631591555604 12.593773443368264,107.04291295647272 12.674793698417488,106.8297532289871 12.897599399846513,106.80606878973776 12.68492123024771,106.71133098277642 12.634283570863772,106.24948302568373 12.907726931734942,102.7085853888857 13.140660165052395,102.56647344709927 13.991372843214776,102.73227069498535 15.287696924235206,102.7085853888857 17.039759940002114,103.34808689445344 17.799324831168633,103.45467012354493 18.052513128262945,102.00986660464696 17.880345086217858,101.59537034973619 17.12078019505134,101.61905589134403 16.746061515354086,101.21640100210789 15.621905476378743,101.27561504726327 15.196549137297552,101.08612999255274 14.669917479390278,101.28745785251522 13.981245311384555,101.28745785251522 12.695048762194347,100.62425882802927 12.08739684917964,100.74268751341151 11.5,100.4939871293609 11.510127531888429,100.99138734491862 12.148162040510215,101.09797281785723 12.259564891224727,100.64794457514654 12.745686421578284,100.68347318637097 13.859714928781614,101.28745785251522 14.761065266327932,101.45325699471869 15.35858964745421,101.29930065650842 15.713053263258189,101.66642695957125 18.41710427607177,102.62568677810486 19.68304576142691,102.89806769731513 20.047636909235734,102.94543822430569 20.584396099031437,102.69674273396959 21.354088522144593,102.89806769731513 22.316204051021487,102.69674273396959 22.792198049486615,102.80332658316911 23.197299324790947,102.63752944052976 23.653038259595633,102.83885451038077 25.800075018778443,102.7677986447161 26.488747186784167,102.98096610642096 27.521755438880064,102.89806769731513 27.906601650407538,102.62568677810486 28.828207051730715,102.62568677810486 29.142160540097393,102.90991033095634 30.30682670668466,103.18229055862321 31.208177044289187,103.00465135485865 31.360090022499207,102.12829382420023 31.228432108007837,101.79669729382294 31.420855213771574,101.24008662391861 32.3222055513761,100.45845845794975 35.63390847714618,100.70715892095905 37.04163540888112,100.4347726707565 38.277194298570976,99.91368408445123 38.5,100.35187237609352 37.50750187551603,100.8255875186369 35.76556639163755,101.25192943293223 34.35783945990261,101.32298626079864 32.45386346586747,101.14534410658234 32.18042010505451,101.50062813310069 32.08927231805865,102.69674273396959 31.825956489134114,103.64415116920281 30.83345836465014,103.98758474692295 28.71680420107441,103.47835527179996 21.171792948269285,103.6323086132179 19.419729932502378,103.37177206525666" stroke="#4dd2ff" stroke-linecap="round" stroke-linejoin="round" stroke-width="0.5"><title>2023-04-26 7.0km</title></polyline><polyline fill="none" points="49.0,107.8816031635215 49.378151260490995,107.10041524880216 49.20168067223858,106.5550550519838 49.239495798246935,104.68312678759685 49.378151260490995,104.25567507422238 49.66806722682668,104.10827762763074 53.17226890753955,104.4325518043479 55.21428571426077,105.2874528344546 55.80672268901253,105.22849431114446 56.81512605038006,105.52328667828988 57.29411764704855,105.86229712955537 57.735294117592275,105.75912012303888 58.50420168059645,106.02443227119511 60.49579831928713,105.89177626025048 61.39075630251318,106.45187855842232 62.071428571420256,106.18656722415471 62.890756302454975,106.45187855842232 63.60924369742861,106.30448343507305 64.1890756302164,105.92125538468827 64.69327731087105,106.36344150311197 66.04201680672122,106.15708815582911 66.63445378147298,106.2897439141816 68.38655462185852,105.52328667828988 69.13025210087653,105.59698467268026 70.41596638655756,106.11286954164098 70.80672268907074,105.62646385945845 71.70168067223858,105.75912012303888 72.8991596638225,105.31693208677461 73.16386554623023,104.594688609679 73.35294117644662,102.6932542064169 73.59243697475176,102.31001622333133 74.18487394956173,102.11839683649305 75.06722689070739,102.38371591737086 76.0,102.38371591737086 74.0210084033315,102.13313679870043 73.57983193278778,102.28053633484524 73.31512605038006,102.61955467615917 72.8991596638225,105.3464113328373 71.60084033611929,105.78859927556186 68.72689075628296,105.11057718961092 58.7436974789598,105.2874528344546 57.29411764704855,105.05161859143118 52.15126050414983,103.50394646626955 49.89495798316784,103.57764552872686 52.075630252074916,103.71030374293332 52.226890756282955,103.5629057193728 52.60504201677395,103.72504353668774" stroke="#4dd2ff" stroke-linecap="round" stroke-linejoin="round" stroke-width="0.5"><title>2023-04-20 5.0km</title></polyline><polyline fill="none" points="92.68024633004097,117.61733862921392 92.81818138668314,118.3815946527684 92.68944200052647,118.06943443788623 92.78139870491577,118.23089673802315 93.79292245325632,118.5 94.45501072495244,118.16631184885046 94.79525053116959,117.35899726173375 94.89640290598618,117.31594030313136 95.0803163148812,117.60657441870717 95.48492581414757,117.57428178036207 95.7516002569464,117.0575981674483 95.64125221164431,115.65823348906997 96.02747037011432,115.00160186468565 95.92631799523951,114.84013442014111 98.73099747934612,112.60109267281223 99.65976019378286,111.36313970170158 100.30345712450799,109.31779296459717 100.45978352200473,105.96979421174183 100.53334888553945,105.54994090312539 100.70806662383256,105.44228592836589 100.59771857858868,105.02243043397175 100.88278436224209,103.82744758134504 101.9402864627773,101.84654405961192 102.72191845014459,100.92067369736469 104.11966035695514,99.67181189817347 104.94727069651708,98.49829841942119 105.27831483236514,97.7015934482406 106.11512084235437,93.72874135125312 107.31975366995903,91.5 106.04155547881965,94.12711024314922 105.34268452547258,97.51856574551493 104.98405337834265,98.50906465992011 103.86218158470001,100.00556095527281 102.08741718978854,101.63122612574807 100.98393673705868,103.62289955424785 100.66208827169612,104.94707157133962 100.71726229431806,105.54994090312539 100.51495754462667,105.81907783957286 100.30345712450799,109.70533551624976 99.68734720506473,111.41696405835683 98.28040962782688,113.13932837834 96.0366660405416,114.8508989244292 96.07344872230897,115.03389532274014 95.80677427956834,115.4752382180668" stroke="#4dd2ff" stroke-linecap="round" stroke-linejoin="round" stroke-width="0.5"><title>2023-04-17 6.5km</title></polyline><polyline fill="none" points="124.15612952964148,111.04291408213612 124.0,110.9090397561813 124.0,110.54392716650182 124.66615265997825,102.21904578707472 124.8430994602968,101.64699234809086 125.63415574398823,101.86607697993895 126.08172706241021,101.73219197671278 127.13299922895385,101.8173915422376 129.1939090208034,102.52332837243739 129.52698535082163,102.42595803266886 130.92174248263473,102.94932263994997 131.0154202004196,103.27794571151753 131.4942174248281,103.41182891603967 132.16037008480635,103.15623357223376 133.6383962991531,103.37531533026777 133.97147262917133,103.2049184433854 134.56476484192535,103.58222549646598 135.30377794912783,103.47268486661778 136.3966846569092,103.6552525251318 137.05242868157802,103.33880173288344 137.02120277564973,103.10754868046206 137.25019275245722,103.09537745429407 137.4375481880852,103.54571196476172 138.04124903620686,103.59439667114202 138.61372397840023,103.42400010871643 139.19660755590303,103.5700543205312 139.92521202773787,103.18057601037435 139.9668465689174,103.53354078494885 140.14379336923594,103.6552525251318 140.62259059364442,103.54571196476172 140.94525828835322,102.94932263994997 142.38164996140404,103.47268486661778 142.3712413260946,103.11971990532766 143.2455666923197,103.15623357223376 144.21356977632968,102.77892512220569 144.59868928289507,100.44201941575011 144.87972243636614,100.17424593916076 145.2544333075639,100.0525305164847 146.74286815722007,100.36899034756061 147.06553585192887,100.23510360217915 148.44988434843253,100.32030427637801 149.3138010793482,100.13773132586357 151.0,99.41960824286798 150.76060138782486,98.95708591787115 149.37625289120479,99.49263791366684 147.83577486500144,99.74824139646807 144.6715497301193,99.45612308406999 143.71395528136054,100.28378970943595 143.54741711640963,100.89236431183963 143.71395528136054,101.25750752806925 143.48496530449484,102.09733252763544 142.38164996140404,102.29207368096831 141.82999228988774,102.18253182278568 141.14302235929063,101.72002060507657 140.10215882805642,101.69567785789695 139.68581341556273,101.96344779351784 138.7698535080999,102.06081852467469 138.020431765588,101.87824833615741 135.62644564377842,101.90259104466531 135.44949884345988,101.4279072990903 135.5535851965542,101.35487885670591 136.84425597533118,101.29402178597957 137.44795682345284,101.76870608396712 137.35427910560975,101.86607697993895 135.10601387813222,101.87824833615741 135.1372397840605,101.54962126672035 134.96029298374197,101.44007870163477 131.920971472573,101.98779048401047 130.21395528141875,101.64699234809086 127.25790285272524,100.50287693716382 126.86237471085042,100.5150484375772 126.71665381646017,100.35681883169309 127.15381649957271,100.14990286490502 127.61179645336233,100.36899034756061 128.75674633769086,100.30813275534456 129.06900539703202,100.67327782582288 129.31881264451658,100.67327782582288" stroke="#4dd2ff" stroke-linecap="round" stroke-linejoin="round" stroke-width="0.5"><title>2023-04-07 7.0km</title></polyline><polyline fill="none" points="161.5,108.14113639922289 161.5953689168091,105.78687245862238 161.8496860283194,104.58494051747402 164.24450549454195,104.82037145666254 166.70290423865663,105.51427041934949 166.91483516484732,105.05580192259367 169.6063579277834,105.65057151829387 177.7551020408282,105.51427041934949 180.57378335949033,106.08425577785965 181.54866562003735,105.78687245862238 181.93014128727373,103.49451736457559 182.2374411302735,103.11038860866392 184.13422291987808,103.30864876900887 184.5051020408282,103.17234494486911 185.85086342220893,103.2590837604148 188.5,102.34212731750449 188.34105180529878,101.85886360076984 185.5541601255536,102.68908465364075 184.3143642071518,102.71386728118523 182.05729984299978,102.39169271413994 181.10361067496706,103.2590837604148 180.8598901098594,105.10536617092293 179.86381475668168,105.29123191535473 179.14324960752856,105.16732145182323 178.28492935636314,104.65928718098439 177.34183673467487,104.68406939164561 176.98155416012742,104.94428228718607 176.0702511773561,105.00623765328783 175.47684458398726,105.00623765328783 175.19073783355998,104.82037145666254 172.97605965461116,104.89471797071747 172.75353218213422,104.79558927481412 172.54160125588533,104.3247268236446 169.11891679750988,104.95667336304905 167.30690737831173,104.63450496504811 164.08555729989894,103.44495243458368 161.74372056516586,103.56886472020415 161.68014128733194,102.71386728118523 162.72919937211554,103.2838662673239 164.33987441135105,103.37060500032385" stroke="#4dd2ff" stroke-linecap="round" stroke-linejoin="round" stroke-width="0.5"><title>2023-04-04 6.0km</title></polyline><polyline fill="none" points="14.64607657957822,145.88711611693725 31.927445167675614,146.9322701675119 37.73756046872586,129.68714353023097 23.435738189145923,123.06775403907523 13.156303425319493,134.73876498127356 12.709371479228139,144.84196140361018 18.66846409626305,147.97742355475202 34.162104898132384,145.19034638197627 36.992673891596496,131.60327762854286 25.372443289496005,122.54516952473205 12.709371479228139,136.48069981997833 13.603235371410847,146.9322701675119 33.864150268025696,146.5838855577167 37.290628522634506,130.38391982403118 25.670397920534015,122.19677975727245 18.66846409626305,127.4226185400039 12.709371479228139,135.95811956189573 12.560394163243473,145.71292371093296 29.394830805249512,148.5 34.60903684515506,146.23550087457988 37.14165120664984,130.38391982403118 25.22346597351134,122.19677975727245 13.156303425319493,135.43553913745563 12.560394163243473,146.06130850501359 27.011193758808076,147.80323136947118 33.566195636987686,145.88711611693725 37.290628522634506,129.51294941047672 24.32960208132863,121.84838991542347 13.007326110266149,135.60973263089545 13.156303425319493,146.40969322540332 22.243919665925205,147.80323136947118 34.60903684515506,145.53873128595296 37.290628522634506,130.20972577808425 24.32960208132863,121.5 12.858348795212805,135.60973263089545 13.30528074130416,146.5838855577167 31.033581275492907,147.4548469443107 34.31108221411705,145.71292371093296 37.14165120664984,129.33875527279451 25.074488658457994,121.84838991542347 13.454258056357503,134.73876498127356 12.262439532205462,145.71292371093296 33.566195636987686,146.40969322540332 36.54574194550514,129.86133763124235 25.372443289496005,122.19677975727245 18.07255483418703,127.4226185400039 13.156303425319493,135.60973263089545 13.007326110266149,146.5838855577167 29.096876174211502,147.80323136947118 33.864150268025696,145.71292371093296 36.694719260558486,129.33875527279451 24.776534027419984,122.02258484519552 15.390963156707585,131.0806958230678 12.262439532205462,145.88711611693725 17.327668257057667,147.97742355475202 33.71517295297235,146.5838855577167 37.14165120664984,130.73230785992928 25.968352551572025,122.19677975727245 18.66846409626305,127.59681288083084 12.709371479228139,136.30650641873945 12.262439532205462,145.88711611693725 15.688917787745595,147.62903916602954" stroke="#4dd2ff" stroke-linecap="round" stroke-linejoin="round" stroke-width="0.5"><title>2023-03-30 5.2km</title></polyline><polyline fill="none" points="75.73615635174792,145.57071329683822 76.0,143.3817920731235 74.27873429498868,142.80884726480872 71.10004653321812,142.3681188809569 70.91158678452484,142.19182713582995 71.07491856679553,139.92939654539805 71.87901349464664,139.75310170493321 72.49464867380448,133.87647896647104 72.2182410423411,133.74425209438778 71.95439739414724,133.96463014456094 71.08748255000683,133.90586269872438 71.3010702652391,133.86178709802334 71.10004653321812,133.67079266661312 68.10981852019904,134.4200770068419 66.89111214515287,134.39069338337868 66.16240111680236,133.72956021194113 65.22010237321956,131.9224468174798 63.58678455097834,130.55607717535167 63.134481153974775,130.45323160446424 62.9083294555312,130.0712331028917 60.47091670543887,129.55700269137742 58.44811540248338,128.60199830347847 57.97068403905723,127.44129182041797 57.85760818980634,126.17772689736739 57.19171707768692,125.31085593953321 56.13634248485323,125.13454254005046 52.95765472308267,125.7222530010622 52.354583527194336,125.57532561900734 51.03536528616678,124.56152244545228 50.407166123739444,124.42928670317633 49.0,124.5909081488353 50.67100977193331,124.47336529794848 52.12843182875076,125.41370531918074 52.95765472308267,125.707560269846 56.08608655189164,125.16392812218692 57.14146114472533,125.32554871273169 57.81991624011425,126.20711225872219 57.95812005584594,127.48536945905653 58.44811540248338,128.6166907283914 60.23220102372579,129.51292571035447 62.80781758954981,130.0124640094 63.17217310372507,130.4973082870565 63.58678455097834,130.57076939352555 64.70497905998491,131.40822326109628 65.42112610518234,132.26036411778477" stroke="#4dd2ff" stroke-linecap="round" stroke-linejoin="round" stroke-width="0.5"><title>2023-03-28 5.0km</title></polyline><polyline fill="none" points="89.21137640450615,137.67169145087973 89.45786516851513,135.2328367881928 89.31566011236282,134.82266020112002 89.0786516853259,134.67854372179863 87.99789325840538,134.95569062147842 87.9220505617559,134.74505904458783 86.5,134.4124820085126 86.57584269659128,134.06881796236848 88.12113764043897,134.46791158781707 91.72366573032923,134.47899750016222 95.0797050561523,135.49889641867776 96.91889044939307,135.8092984671457 104.1713483146159,135.67626913038112 106.50351123599103,136.15295680554846 107.30933988757897,135.8314700068513 107.6885533707682,133.82492666524922 107.96348314604256,133.48126069215505 109.75526685389923,133.69189480935165 109.87851123593282,133.53669076406368 111.38588483142667,133.59212080662837 113.5,132.82718362952437 113.38623595505487,132.32830854912027 111.86938202247256,132.91587228407298 110.71278089884436,133.10433542571263 109.47085674159462,133.08216330903088 108.02984550560359,132.8160975424471 107.66959269659128,132.91587228407298 106.92064606735948,133.53669076406368 106.73103932582308,134.05773200661497 106.77844101120718,134.58985655908327 106.35182584263384,134.6120283568016 106.0484550561523,134.95569062147842 106.03897471912205,135.2771801068593 105.74508426961256,135.42129576290608 105.0625,135.17740761347522 104.80653089884436,134.5565988537346 104.3135533707682,134.32379462063545 103.63096910109743,134.46791158781707 103.18539325840538,135.0887208729764 102.41748595505487,135.2106651218346 101.92450842692051,135.2106651218346 101.65905898873461,135.03329162205046 99.49754213483538,135.06654917612468 99.2984550561523,134.5565988537346 97.26966292131692,134.8780895634627" stroke="#4dd2ff" stroke-linecap="round" stroke-linejoin="round" stroke-width="0.5"><title>2023-03-26 5.6km</title></polyline><polyline fill="none" points="151.0,144.83452427935117 150.23162055335706,144.8470035949067 148.25731225300115,144.198077435889 147.99051383399637,144.3977474035346 146.97667984192958,144.37278867603163 144.71422924904618,144.75964835836203 143.67905138339847,144.75964835836203 143.10276679845992,144.3353505749037 142.31304347829428,142.65062372710236 140.8936758893542,141.50249979241926 140.50948616600363,141.40266240036726 140.31739130435744,141.05323086282442 138.28972332016565,140.6663590244425 136.55019762844313,139.80525263519667 136.12332015804714,138.83182045112335 136.02727272722404,137.78349988345872 135.52569169958588,137.04717391396116 134.50118577078683,136.87245182265906 131.89723320154008,137.346696896886 131.29960474307882,137.23437586741784 129.30395256914198,135.74923219800257 129.43201581027824,135.16265769769234 128.6636363636353,133.46531930426863 128.4501976284082,133.3405140465038 128.43952569167595,132.82881110863673 128.0980237153708,132.42943166321493 128.02332015812863,131.94268613539316 127.8632411067374,131.71803367571556 127.27628458495019,131.51834224115737 126.92411067191279,130.95670826850255 126.81739130435744,130.7320539305365 127.21225296438206,130.53236082632066 125.1312252964708,127.36218750022817 124.0,125.12803777795489 125.00316205533454,127.16248868918774 127.75652173912385,131.45593859849032 127.67114624503301,131.65563013874635 128.407509881421,132.75392756566725 128.39683794463053,133.40291669190628 128.68498023715802,133.55268290616368 129.4426877470105,135.23753971124097 129.26126482215477,135.69931107752927 129.62411067192443,135.8490743755683 129.90158102766145,136.26092246470216 131.27826086961431,137.19693550052034 131.77984189719427,137.30925656558975 134.49051383399637,136.87245182265906 135.49367588933092,137.09709446394118 135.99525691696908,137.69613941557327 136.06996047426946,138.70702087211976 136.53952569171088,139.80525263519667 138.03359683795134,140.5914804575441 140.3067193676252,141.06571057840483 140.59486166003626,141.4775404523316 140.84031620551832,141.4775404523316 142.31304347829428,142.65062372710236 143.11343873519218,144.21055681878352 143.68972332013072,144.77212768181926 144.51146245060954,144.8470035949067 146.49644268775592,144.36030931032292 147.0407114624395,144.6722930570977 147.3501976284897,144.3977474035346 147.97984189726412,144.37278867603163 148.13992094859714,144.1606392793401 150.01818181818817,144.8719622220524 150.70118577074027,144.80956564432563" stroke="#4dd2ff" stroke-linecap="round" stroke-linejoin="round" stroke-width="0.5"><title>2023-03-18 7.0km</title></polyline><polyline fill="none" points="161.5,135.97711123689805 163.26145868183812,135.92429646325763 166.65791234525386,136.91720953320328 168.10321177652804,137.17071767090965 175.16711274674162,137.07565219468233 177.38022750086384,137.58266702196124 178.22934091673233,137.19184331998986 178.53646704583662,135.36445814526815 178.78036132489797,135.03700408920122 181.55352960858727,135.13207150643575 182.85429909673985,134.8785581926859 184.16410170629388,134.36096651169646 184.02860488463193,133.89618802191399 185.75393108068965,132.91380818530888 188.3735362997977,132.41733297803876 188.5,132.50183957065747 186.84693877556128,132.59690940181463 185.7268317163107,132.8926816310268 183.3872532619862,134.1919564021082 182.2671462027356,134.51941322961648 180.87604550016113,134.63560732961923 178.8797256607795,134.32927713794925 178.56356641015736,134.4032189944046 177.81381733022863,135.11094542153296 177.65122114418773,135.62853321467992 177.77768484444823,135.92429646325763 177.68735362996813,136.53694611981336 177.43442622950533,136.76932948896865 176.56724657077575,136.84326953845448 175.46520575444447,135.8186668321723 174.67932418873534,135.90317054597108 174.254767480772,135.5651552617128 173.90247574442765,135.50177726850234 173.5682502509444,135.61797022529936 173.16175978590036,136.10386657959316 172.92689862829866,136.12499245441722 172.48427567747422,136.49469454003702 171.75259284040658,136.53694611981336 171.59902977582533,136.01936303566617 169.02459016395733,136.29399929198553" stroke="#4dd2ff" stroke-linecap="round" stroke-linejoin="round" stroke-width="0.5"><title>2023-03-14 5.6km</title></polyline><polyline fill="none" points="36.14631336409366,170.06227321514598 35.23387096775696,169.941026453831 33.50230414746329,169.37116495756345 32.25806451612152,169.71065725394874 31.99884792632656,169.49241232172062 29.852534562232904,170.00164985052834 29.188940092164557,169.9652758163429 28.504608294926584,169.39541444063798 27.561059907835443,167.576688970119 26.48271889402531,166.37631434855575 25.756912442389876,166.0974376366139 23.42396313365316,165.78218488424318 22.169354838726576,165.10317601048882 21.67165898618987,164.03615393724613 21.516129032243043,162.8842439558066 21.101382488501258,162.38710028147761 20.282258064544294,162.22946890997264 17.358294930891134,162.66598602294107 15.937788018432911,161.73232239489153 13.998847926210146,161.7929501342005 13.832949308736715,160.7986511593408 13.801843317982275,161.81720122088882 12.17396313365316,161.92633104764536 11.5,159.93772678485402 12.049539170518983,161.73232239489153 12.319124423956964,161.9748331595183 15.55414746538736,161.70807129020977 16.0,161.81720122088882 16.985023041430395,162.53260597040935 17.565668202820234,162.6781114745536 20.375576036865823,162.2779708935268 21.14285714289872,162.48410409459757 21.54723502305569,163.00549818336003 21.661290322605055,164.03615393724613 22.086405529931653,165.05467522265099 23.4550691244076,165.83068536414066 25.7050691244076,166.2671887595061 26.01612903230125,166.69156546660815 26.368663594475947,166.76431560142373 27.71658986172406,167.83131227349804 28.535714285739232,169.383289699741 29.03341013827594,169.9652758163429 30.329493087599985,170.05014854476758 30.91013824887341,169.75915607137722 32.43433179729618,169.48028759106091 33.27419354842277,169.56516067862685 33.38824884791393,169.39541444063798 35.461981566855684,170.06227321514598 38.5,169.941026453831" stroke="#4dd2ff" stroke-linecap="round" stroke-linejoin="round" stroke-width="0.5"><title>2023-03-12 6.0km</title></polyline><polyline fill="none" points="74.8376681614318,169.8422628702392 71.59282511210768,169.03524634345376 71.45964125561295,169.24761958548333 70.69686098652892,168.99277165462263 70.21255605382612,169.459992490476 70.11569506727392,169.20514496405667 67.42780269059585,169.75731399131473 66.55605381168425,169.6582068977732 65.902242152486,168.9786134219903 64.55829596414696,166.6141675637482 63.58968609868316,165.62307004812465 62.48789237672463,165.22662898656563 59.88475336326519,164.87266276065202 58.43183856498217,164.03729875516728 57.97174887894653,162.89043459239474 57.89910313906148,161.65860658008023 57.37847533635795,160.9648133971932 56.17982062784722,160.75242700980743 53.06816143501783,161.26215377321932 52.65650224220008,161.19135850552993 52.29327354260022,160.75242700980743 51.239910313976,160.15774333167064 50.76771300449036,160.07278830478026 49.0,160.228539146221 51.118834080698434,160.12942499534984 52.62017937225755,161.10640413482906 56.25246636773227,160.70994969189633 57.29372197308112,160.93649523169734 57.886995515669696,161.78603759000544 57.97174887894653,162.81964018613508 58.407623318373226,163.9240286580025 59.99372197309276,164.80186940304702 62.65739910316188,165.3398979811609 62.97219730936922,165.75049728273007 63.395964125636965,165.80713157029822 65.00627802690724,167.1380304282502 65.93856502242852,168.99277165462263 66.64080717490287,169.62989057184313 67.63363228703383,169.72899768636853 68.74753363232594,169.36088517673488 68.94125560537213,169.60157423988858 69.71614349778974,169.21930317264923 71.5322869955562,169.0635627951997 73.96591928246198,169.92721169521974 76.0,169.77147214153956" stroke="#4dd2ff" stroke-linecap="round" stroke-linejoin="round" stroke-width="0.5"><title>2023-03-05 5.0km</title></polyline><polyline fill="none" points="111.29131886479445,164.90349162828352 111.44156928214943,165.3953352291137 112.98914858099306,165.09671607370547 113.33472454093862,166.15066363882215 113.27462437393842,166.6776349147258 109.26293823041487,167.78426915498858 106.66360601008637,168.99628867718275 104.15442404005444,170.71769251630758 102.39649415691383,167.95992470589408 101.28464106854517,167.028948170293 90.82721202005632,164.6751351760031 90.70701168617234,164.37651472634752 91.29298831394408,162.74287570998422 91.1277128548245,162.40911952660827 91.32303839741508,161.5483768020349 86.5,159.1242202699068 91.30801335565047,161.49567812307214 90.1961602671654,164.64000338624464 89.79048414027784,166.69520059518982 90.42153589322697,165.16697945266787 90.82721202005632,164.92105749629263 99.78213689487893,166.712766273733 101.93071786314249,167.69644130986126 103.82387312193168,170.87577973007865 107.76043405680684,168.4693247536925 109.48831385647645,167.73157245348557 113.5,166.6249378623179 112.98914858099306,164.32381694426294" stroke="#4dd2ff" stroke-linecap="round" stroke-linejoin="round" stroke-width="0.5"><title>2023-02-22 5.0km</title></polyline><polyline fill="none" points="124.0,168.12874665253912 124.16954474098748,165.10536588393006 124.40266875980888,164.6840689263845 126.81868131872034,164.80797995354078 129.5843799058348,165.83643641995877 130.52747252746485,165.89839134037175 130.95133437996265,166.18338355235028 131.3328100470826,166.05947398018907 133.14481946628075,166.33207486596802 133.6004709576373,166.2577292327478 134.26805337524274,166.55511148242658 134.8614599686116,166.4559841497612 136.13304552593036,166.61706602275808 136.98076923075132,166.13381973920332 137.0125588697265,166.3816385951941 137.35164835164323,166.53032965715101 137.86028257460566,166.56750239311077 138.30533751961775,166.3940295242428 139.17425431706943,166.54272057043272 139.79945054941345,165.9479552531193 140.1597331240191,165.88600035889976 142.00353218207601,166.3072929934351 142.14128728414653,166.46837507092278 142.2154631083249,166.02230108295043 143.07378335949033,166.0718649433329 144.02747252746485,165.78687245999754 144.34536891675089,164.57254888987518 144.41954474098748,163.46973392309883 144.84340659336885,163.06082236400107 145.8182888540323,163.25908269214415 148.6157770800055,163.2466914314573 151.0,162.31734314450296 150.73508634214522,161.87125334746815 149.56946624803822,162.32973450348072 148.0117739403504,162.66430070088973 146.99450549448375,162.68908334416483 144.6208791208919,162.37929992639693 143.59301412873901,163.18473510839976 143.39167974877637,163.80429686416028 143.4764521192992,164.2875527585711 142.7558869701461,164.53537552077614 142.57574568293057,165.10536588393006 142.23665620095562,165.25405856600264 141.6114599686116,165.15493013225932 140.88029827317223,164.6964600350184 139.8842229199363,164.6840689263845 139.47095761384116,164.94428193205385 138.1040031397133,165.03101947213872 137.81789638928603,164.83276214326906 134.6071428571595,164.86993541799893 134.00313971744617,164.78319775861746 133.70643642073264,164.51059326813993 131.565934065904,164.9690640928893 129.87048665620387,164.646895592683 126.71271585562499,163.4821251601752 125.10204081633128,163.2466914314573 128.1538461538148,163.22190890619822" stroke="#4dd2ff" stroke-linecap="round" stroke-linejoin="round" stroke-width="0.5"><title>2023-02-10 5.9km</title></polyline><polyline fill="none" points="167.7253582283738,170.25753993881517 167.76052974379854,166.54240058214054 168.97980894480133,166.5561097792379 171.00803300039843,167.07705819400144 172.12179765518522,166.748038386213 172.57902735559037,165.36340420709166 172.66109422489535,164.14326875731058 173.0128093790845,163.75940354353224 175.0410334346234,164.04730256048788 175.42792010417907,163.85536995358416 177.33890577504644,163.88278891483787 179.28506296133855,163.2658608835336 182.6966999565484,161.5521564968658 186.60073816758813,161.01747608963342 188.5,160.3045654479647 188.3944854537258,160.38682456834067 188.2069040381466,160.05778777354863 188.24207555357134,159.74246006119938 187.60898827615893,160.0989174186252 185.97937472863123,160.5102131509775 185.27594442031113,160.53763282003638 185.11181068170117,160.3319851605629 182.93117672600783,160.72957034109277 181.4891445939429,161.2642519363726 179.10920538421487,162.6215106928139 177.36235345201567,163.16989403692423 175.22861485014437,163.32069904965465 173.5286582717672,163.00537927738333 172.68454190186458,163.03279841842595 171.72318714711582,163.85536995358416 171.5004342162283,164.48600459452427 171.57077724701958,165.11663616649457 171.05492835427867,165.11663616649457 170.6797655231785,165.47307874100807 170.59769865387352,166.00774076450034 170.21081198437605,166.1859609488165 169.4370386452647,165.8980666831194 169.1556665218668,165.15776420589827 168.4405123751494,164.78761138136906 167.63156752061332,165.0206706904719 167.18606165866368,165.71984610287473 166.22470690403134,165.8980666831194 165.50955275719753,165.9117759483488 165.263352149399,165.70613681730174 161.67585757706547,165.67871824183385 161.5,165.52791597311443 161.75792444631224,165.22631090920186 163.68063395569334,165.08921746628766 163.90338688663905,165.78839250885358 164.85301780281588,165.71984610287473 165.63851498044096,165.2126015714457 166.36539296567207,165.26743891381193 166.7053842813475,164.8561582804832 167.1039947894169,164.8424489035824 167.74880590528483,165.5416252775467 168.61636995215667,165.50049735994253 169.1322188449558,165.92548521213757 170.19908814586233,166.21337941696402 171.3831958314986,166.04886852107302 171.6880156317493,165.04808940512885 171.72318714711582,165.9529037353932 171.31285280070733,166.28192556192516 169.81220147636486,166.07628701823705 169.4487624837202,165.9117759483488 169.0384281371953,165.06179876030365 166.7874511506525,164.40374807621993 166.22470690403134,164.54084224431426 164.82957012590487,165.67871824183385 164.12613981764298,165.6650089519535 163.76270082499832,165.1303455143934 164.09096830221824,164.92470514337765 164.6654363873531,164.92470514337765 165.14611376461107,165.34969488385832 166.31849761179183,165.26743891381193 166.84607034298824,164.8972864025709 167.33847155881813,165.29485757630027 167.77225358225405,165.00696133096062 168.5343030829099,164.8561582804832" stroke="#4dd2ff" stroke-linecap="round" stroke-linejoin="round" stroke-width="0.5"><title>2023-02-05 7.1km</title></polyline><polyline fill="none" points="11.820882852305658,199.21691905512853 12.065365025453502,197.01026523227483 12.241086587455356,196.94772764408845 13.509337860770756,197.15320811709535 13.960101867560297,197.08173670493125 15.151952461805195,197.59096919676085 15.66383701187442,197.64457243831566 15.908319185051369,196.58143512616516 15.724957555154106,196.2151410194565 15.197792869235855,196.22407504096918 14.945670628192602,195.97392208154633 13.524617996590678,196.09899865386978 12.676570458395872,195.95605398465705 12.279286926990608,195.652295759166 11.553480475384276,195.51828442998521 11.5,196.06326250925486 11.553480475384276,195.54508671282383 11.813242784381146,195.52721852519608 11.950764006818645,195.63442759423924 11.935483870940516,196.0096582639526 12.080645161273424,196.2419430811351 13.86842105264077,196.09899865386978 15.870118845487013,196.9119918586366 17.191850594244897,197.22467946875986 18.001697792875348,197.0906706347596 18.521222410869086,197.2961507599539 19.06366723260726,197.2514812100344 19.69779286926496,197.37655589021597 21.233446519530844,197.13534026969864 22.410016977897612,197.28721685185155 23.074702886253363,197.22467946875986 23.273344651970547,197.03706704161596 24.02971137521672,197.0191991696629 24.297113752109,197.2514812100344 24.931239388824906,197.45696094397135 25.664685908326646,197.40335758332367 25.878607809834648,197.24254729722452 25.870967741910135,196.37595326194423 26.016129032272147,195.97392208154633 26.612054329336388,195.42000932007795 28.758913412573747,195.61655942551442 29.89728353137616,195.46467983875482 30.814091680804268,195.15198571179644 33.16723259759601,193.97267172898137 35.74957555177389,193.68677494975418 38.0797962648503,192.632522210537 38.47707979622646,191.90883262654825 38.27843803050928,190.78308094487147 38.5,191.86416022673802 38.41595925294678,192.14112872449186 38.301358234282816,192.40916188957635 37.353989813214866,192.98096313144197 37.20118845498655,193.23112495720852 36.59762308996869,193.26686230038467 35.917657045822125,193.62423490027868 34.74108658742625,193.86546055019426 34.076400679099606,193.81185490975622 32.93039049234358,194.0173430132927 30.798811544984346,195.12518330416788 29.813242784352042,195.45574573692284 28.34634974534856,195.58975716532586 26.696095076360507,195.36640466647077 25.955008488963358,195.93818588398426 25.748726655350765,195.75950466939685 25.977928692649584,196.02752634949138 25.855687606090214,196.331283225285 25.947368421038846,196.67970888447599 25.80984719863045,196.83158628601814 25.86332767404383,197.13534026969864 25.695246179937385,197.34975418866088 24.984719864150975,197.45696094397135 24.12903225806076,197.13534026969864 24.060271646856563,196.99239735467563 23.303904923581285,197.00133129394817 22.98302207130473,197.19787771895062 22.348896434617927,197.2514812100344 21.974533106957097,197.2514812100344 21.775891341239912,197.11747241857665 20.156196943979012,197.1621420393567 19.285229202039773,197.04600097615912 18.337860780971823,197.18894380047277 17.917657045822125,197.05493490977824 17.32173174872878,197.21574555311963 16.19100169779267,196.99239735467563 13.80730050933198,196.13473478337983 13.280135823442833,196.05432847073826 12.073005093348911,196.23300906152872 11.920203735149698,195.92031777954253 12.034804753842764,195.5986912530061 12.66893039047136,195.99179017464485 13.364176570437849,196.13473478337983 14.907470288599143,195.97392208154633 15.136672325985273,196.22407504096918 15.48811544990167,196.25087709978834" stroke="#4dd2ff" stroke-linecap="round" stroke-linejoin="round" stroke-width="0.5"><title>2022-12-15 10.0km</title></polyline><polyline fill="none" points="49.0,198.61970566848322 49.23842874544789,195.37982792990078 51.20341047504917,195.51442455674987 51.4582825821999,195.6874770698123 53.127283800247824,196.07203703012055 53.39037758830818,194.95680866199837 53.324604141293094,194.61070052367722 52.60931790500763,194.56262984468776 52.36266747870832,194.24536272544356 51.47472594396095,194.28381940491818 51.12941534712445,194.12037840463017 50.57034104751074,194.32227606815286 49.98660170525545,194.28381940491818 49.189098660164746,193.8223381767457 49.10688185141771,194.26459106719994 49.30420219246298,194.57224398251856 51.145858708943706,194.29343357226753 51.42539585873601,194.62992878819932 53.480816077964846,195.34137171418115 54.87028014616226,195.6297929354114 55.618453105998924,195.46635435576172 56.27618757612072,195.67786304995388 57.862971985392505,195.6970910886448 58.73447015834972,195.64902098428138 59.096224116918165,195.48558243921434 60.40347137636854,195.67786304995388 61.05298416566802,195.6297929354114 61.357186358131,195.399056031667 62.121802679641405,195.399056031667 62.31912302071578,195.60095085445937 63.00152253347915,195.74516116758605 63.190621193672996,195.947055221528 63.387941534718266,195.71631912327575 63.79080389768933,195.8028452287399 64.06211936660111,195.6970910886448 64.24299634594354,194.28381940491818 64.97472594399005,193.6396678765086 66.66839220462134,193.85118082218105 68.06607795372838,193.78388130194799 69.27466504264157,193.4666114639258 71.65895249697496,192.2167498097624 74.84074299639906,191.78410138576146 75.79445797810331,191.38029433152406 75.90956151037244,191.81294467812404 76.0,191.78410138576146 75.11205846531084,192.13022028979321 72.38246041414095,192.4571091552716 69.20066991474596,193.89925187750487 68.00852618759382,194.22613437955442 66.61084043851588,194.3126619038885 65.15560292327427,194.1107642190036 64.90895249694586,194.3991893458151 64.85962241172092,195.22600296940072 64.57186358098988,196.22586055866122 64.14433617540635,196.38929777240992 63.77436053592828,196.48543717261055 61.957369062147336,196.04319508955814 60.28014616324799,196.07203703012055" stroke="#4dd2ff" stroke-linecap="round" stroke-linejoin="round" stroke-width="0.5"><title>2022-12-12 7.2km</title></polyline><polyline fill="none" points="86.9368258859613,198.02224863461743 87.15523882897105,194.96963480499835 87.08243451471208,194.68990916513576 86.51040061633103,194.61693714713329 86.5,194.25207636241248 89.44337442220422,194.30072453397588 92.70916795072844,195.29800751378934 95.04930662561674,195.7601601076094 103.08898305083858,195.6385411840747 103.99383667181246,195.71151255363657 105.5227272727061,196.21014900597947 106.00115562404972,196.05204499916726 106.63559322035871,195.73583633319504 106.93721109401667,194.62909915336786 106.9892141756718,193.60748614617478 107.20762711868156,193.26694645967655 107.73805855162209,193.1818113804111 109.24614791985368,193.4858649453745 109.5685670261737,193.31559504804318 111.08705701079452,193.3642436158625 112.17912172572687,193.0723519001258 113.5,192.43991730692505 113.31278890604153,191.97775136538985 110.61902927584015,192.7926216437845 109.38135593221523,192.82910823755083 107.0724191062618,192.54937738931767 106.16756548540434,193.35208147585945 105.99075500766048,193.83856607326743 106.13636363635305,194.3128865736362 105.96995377499843,194.60477513964724 106.03235747298459,194.95747283482342 105.76194144837791,195.2493597642533 105.27311248076148,195.2007119941627 104.63867488439428,195.39530295107397 104.34745762712555,195.10341639216495 103.75462249614066,195.00612070783973 103.61941448383732,194.8358530621481 103.56741140218219,194.94531086332427 102.61055469955318,194.84801504520874 101.20647149457363,195.11557834690757 100.7176425269572,195.12774030038418 100.39522342057899,194.90882494115795 98.2526964560966,194.98179677388543 97.00462249614066,194.82369107779232 95.73574730358087,195.00612070783973" stroke="#4dd2ff" stroke-linecap="round" stroke-linejoin="round" stroke-width="0.5"><title>2022-12-06 5.0km</title></polyline><polyline fill="none" points="124.0,198.29425861632626 124.23098075162852,195.7090699516193 124.35472044002381,195.8344725856732 126.0870760770631,195.85376528331108 128.35563703026855,196.6061773068359 128.43813015587511,196.7701637187056 128.31439046750893,196.7701637187056 128.42163153071306,196.59653103810706 128.18240146661992,196.6061773068359 127.97616865264717,196.3939591595481 128.15765352893504,196.45183688504767 128.36388634284958,195.06276133350184 128.23189734190237,195.1495791754278 128.24839596706443,195.42932499263406 128.55362053166027,195.68013085773418 129.79926672781585,195.98881405236898 130.5582034830877,195.84411893499055 131.2346471127821,196.05633836190827 132.290559120127,196.08527733641677 134.5756186984945,195.88270432208083 135.21081576540018,196.05633836190827 136.14298808434978,195.95987504727964 136.3739688359492,195.77659446830512 137.19065077914274,195.77659446830512 137.2731439047202,195.94058237207355 138.27956003672443,196.22997207112348 139.06324472965207,196.09492365919868 139.25297891846276,194.63831736089924 140.01191567373462,194.00164769739058 142.1897341888398,194.2235179332638 143.24564619618468,194.1270526796725 144.41704857931472,193.77013035392156 146.6278643446567,192.59324143517006 147.37855178737664,192.4003073762433 149.3583868011192,192.23631310518977 150.43904674611986,191.94691073076683 150.85976168652996,191.70574138368102 150.99175068744808,192.17843270378216 151.0,192.07231853912526 149.31714023835957,192.6318281979693 146.99908340975526,192.9405217124222 145.79468377641751,193.54825901480217 143.55912007339066,194.51291308178043 141.868010999111,194.59008496625756 141.68652612282312,194.69619620079175 140.16040329975658,194.51291308178043 136.14298808434978,196.44219060002797 132.3235563703056,196.51936085173656" stroke="#4dd2ff" stroke-linecap="round" stroke-linejoin="round" stroke-width="0.5"><title>2022-11-27 5.6km</title></polyline><polyline fill="none" points="161.5,196.59935555000993 162.57120085012866,196.7559318855856 162.86769394262228,196.66645972222614 163.35547290113755,196.91250798923284 163.68065887351986,196.8565879788148 165.39266737509752,197.3822349088441 165.6795961742173,196.05133654937526 165.52656748139998,195.8276545082408 165.58395324117737,196.28620218321885 166.0621679064934,196.5881715171854 167.57332624861738,196.8789559865545 168.29064824653324,196.66645972222614 169.04622741765343,196.93487598508364 171.81030818278668,196.91250798923284 172.3459086078219,196.7335638518416 173.80924548354233,196.91250798923284 174.593517534493,196.8677719832849 174.94739638682222,196.59935555000993 175.89426142396405,196.5881715171854 175.9994686503196,196.80066793884907 177.09936238039518,197.13618773507187 177.84537725819973,197.0355319080045 178.1609989372664,196.71119581333915 178.26620616362197,196.16317739248188 178.14187035069335,195.71581331024208 178.29489904351067,195.2572631612129 179.17481402761769,194.54147358713817 181.38416578108445,194.8210794663537 182.88575982995098,194.70923720340215 184.44473963865312,194.18357698266482 186.68278427200858,192.96448258063901 188.5,192.6177650911486 186.82624867156846,192.89737605854316 184.39691817207495,194.20594555592834 182.84750265668845,194.69805297059793 181.41285866091494,194.78752679988247 179.42348565353313,194.4855523225633 179.06960680126213,194.5526578365243 178.26620616362197,195.30199984865612 178.12274176406208,195.71581331024208 178.2470775770489,196.16317739248188 178.0749202974839,196.46514707783354 178.14187035069335,196.81185194922728 177.88363443140406,197.04671589351346 176.8124335812754,197.09145182373322 175.68384697131114,196.554619411545 174.90913921355968,196.56580344793474 174.5361317746574,196.84540397319506 173.63708820403554,196.90132398950664 172.91976620611968,196.72237983319064 169.89744952175533,196.6776437467779" stroke="#4dd2ff" stroke-linecap="round" stroke-linejoin="round" stroke-width="0.5"><title>2022-11-23 5.3km</title></polyline><polyline fill="none" points="11.5,225.64989600601984 13.79856115108123,225.92751211590803 16.3669064748683,226.63416838923877 16.70143884891877,225.14513778725086 16.62589928059606,224.79180576328508 16.291366906487383,224.6277583963456 15.75179856113391,224.67823453324672 15.27697841724148,224.28704391336942 14.111510791350156,224.32490112616506 13.852517985622399,224.4637108038005 13.895683453243691,224.58990127961442 17.564748201402836,225.8391797873992 18.708633093570825,225.97798770284135 19.312949640268926,225.63727707659564 20.068345323728863,225.7634663108838 20.985611510812305,225.59942028028308 21.16906474821735,225.86441760222078 21.687050359731074,225.9401310146568 24.665467625891324,225.86441760222078 25.410071942489594,226.10417657672951 26.67266187054338,226.0410821564583 27.08273381291656,225.75084739346494 28.140287769783754,225.73822847470728 28.388489208591636,226.0158443790133 29.65107913670363,226.33131621326174 30.741007194272242,226.05370104319445 30.719424460432492,225.54894453316228 30.881294964055996,225.29656547717605 30.762589928111993,224.66561550099868 30.967625899298582,224.18609128703247 31.906474820163567,223.44156302940246 35.1762589928112,223.7570416720264 36.96762589929858,223.39108636909805 38.23021582735237,222.8484609222287 38.5,223.34060968748963 37.45323741005268,223.80751817743294 35.57553956832271,224.28704391336942 34.24820143886609,224.21132945166028 34.032374100759625,224.35013926137617 32.3381294964347,224.04728128637362 32.00359712226782,224.13561494184978 31.733812949620187,224.48894890960946 31.604316546814516,225.97798770284135 31.280575539567508,226.8991634124468 30.54676258994732,227.15153907776403 27.654676259029657,226.59631190929213 19.517985611513723,226.77297537958657 16.485611510812305,226.19250870901305" stroke="#4dd2ff" stroke-linecap="round" stroke-linejoin="round" stroke-width="0.5"><title>2022-11-18 5.5km</title></polyline><polyline fill="none" points="49.0,227.95875928016176 49.29705304518575,224.85737169697677 49.99724950885866,225.03105156960373 50.676227897871286,224.93180595957529 52.522200392966624,225.14270278041658 54.32573673868319,225.76298534946545 54.6121807465679,224.43557664969558 54.5591355599463,223.85250452729815 53.71041257365141,223.81528705937671 53.264833005843684,223.41829999967013 52.140275049139746,223.46792345563154 51.91748526523588,223.7532579198887 52.01296660123626,223.85250452729815 54.898624754394405,224.82015454793145 56.74459724948974,225.20473118498194 57.466011787822936,224.9566173699568 58.30412573675858,225.24194821198034 61.38074656185927,225.22954253762873 61.974852652230766,225.0186458729222 63.608644400781486,225.24194821198034 64.43614931235788,225.19232550671586 64.98781925346702,224.93180595957529 65.84715127694653,224.94421166543907 66.10176817286992,225.19232550671586 67.40667976421537,225.4652501257733 68.43575638503535,225.22954253762873 68.6055009822594,224.42317089002609 68.46758349705487,223.9145336143265 68.64793713163817,223.45551759363298 69.57092337909853,222.61191589706868 73.09312377206516,222.8848465218398 74.50412573671201,222.58710399059055 75.88330058928113,222.04124071983097 76.0,222.53748016190366 73.41139489191119,223.43070586561953 70.8546168958419,223.4803293163277 70.12259332020767,223.21980596583307 69.67701375245815,223.35627065017616 69.45422396855429,223.65401122844196 69.34813359525288,224.9566173699568 69.06168958736816,225.97388067553402 68.19174852652941,226.2716146078892 66.21846758347237,225.775390967392 57.47662082512397,225.8870414695848" stroke="#4dd2ff" stroke-linecap="round" stroke-linejoin="round" stroke-width="0.5"><title>2022-11-06 5.5km</title></polyline><polyline fill="none" points="86.5,233.31434389376955 87.12257281545317,229.9619087426545 87.56492718443042,220.78549743857002 87.94174757279688,219.0804345132492 88.04004854371306,219.25285733642522 90.03883495141054,219.19538308023766 95.65837378642755,220.45981250210025 96.0515776698594,217.77767898769525 95.90412621351425,218.5440069023898 96.51031553390203,218.984643985008 99.4265776699176,219.5785444433859 105.43932038830826,218.39074157885625 105.83252427179832,218.39074157885625 105.9144417475909,219.46359611958906 107.25788834947161,219.27201541773684 108.61771844659233,219.3486477227998 109.12560679606395,219.67433465748036 111.28822815534659,219.5977024902968 111.97633495146874,219.11875071037502 111.99271844665054,218.40989975140837 113.40169902914204,217.98841948750487 113.5,217.01134783015004 112.9757281554048,216.6856561062159 112.0910194175085,217.87347015435807 112.25485436891904,218.33326704913634 111.89441747573437,218.4865324213024 111.30461165052839,219.46359611958906 109.50242718443042,219.6934926942631 108.61771844659233,219.3486477227998 103.50606796116335,219.3486477227998 103.0964805824915,219.6551766187331 101.85133495146874,219.6551766187331 100.5570388349588,219.21454116767563 99.29550970869604,219.5785444433859 97.10012135922443,219.17622499080608 92.00485436891904,217.50946345145348 91.8410194174503,217.20293092356587 92.23422330094036,217.06882277947443 93.98725728149293,216.85808120950242 94.56067961163353,217.50946345145348 95.11771844653413,217.47114691387105 94.54429611645173,217.4519886420021 93.95449029124575,216.89639787684428 93.02063106792048,216.89639787684428 92.07038834947161,217.03050614862877 91.95570388343185,217.52862171718152 97.1820388349588,219.27201541773684 95.7894417475909,218.4673742568848 95.87135922326706,217.77767898769525" stroke="#4dd2ff" stroke-linecap="round" stroke-linejoin="round" stroke-width="0.5"><title>2022-11-02 5.0km</title></polyline><polyline fill="none" points="124.83140877593542,231.16727941273712 124.78983833716484,230.91209505889128 124.05196304846322,230.81488182262547 124.0,230.462483151794 124.27020785218338,228.63971415253036 124.27020785218338,226.96274113294203 124.4364896073821,226.61033064693038 124.3429561200901,225.3222003632036 124.57159353350289,222.6243712705982 124.78983833716484,221.60355455180252 124.966512701998,221.73723344780592 127.03464203228941,221.66431770563213 129.695150115469,222.49069340692222 129.95496535795974,220.7528670233296 129.81986143189715,221.15390621448023 130.00692840648117,221.44557020141656 132.13741339487024,221.93167520068528 135.45265588915208,221.23897495382698 136.57505773671437,221.2146696061609 137.20900692837313,221.53063872476923 137.55196304846322,221.32404363020032 138.95496535795974,221.3605016150541 139.3810623556492,220.97161584662535 140.01501154736616,221.28758563374868 140.81524249416543,221.00807394335425 141.41801385674626,221.27543296571093 141.68822170898784,221.98028558748047 142.4364896073821,222.21118464381289 143.48614318697946,221.99243818094692 143.66281755192904,221.08099010204023 143.5381062355591,220.61918698181398 143.73556581983576,220.13307642858854 144.37990762118716,219.48897677696368 145.01385681290412,219.3552952646205 146.8429561200319,219.6469638182607 148.04849884519354,219.6469638182607 149.38914549647598,219.3917538743117 150.80254041560693,218.83272058726288 151.0,219.2580722488492 149.85681293299422,219.79279781735386 148.32909930712776,220.18168757648527 146.74942263273988,220.27890981056407 144.80600461893482,220.06015966818813 144.51501154730795,220.40043748745666 144.13048498838907,222.63652379596897 143.3094688220881,222.9403365118851 140.3683602771489,222.442083236092 132.4699769053259,222.60006621604407 130.10046189371496,222.1018114644612 129.8094688221463,223.94898896698578" stroke="#4dd2ff" stroke-linecap="round" stroke-linejoin="round" stroke-width="0.5"><title>2022-10-28 6.2km</title></polyline><polyline fill="none" points="161.5,227.92132134532585 161.66901408456033,225.3273723036109 161.848591549322,224.8579848913796 162.01760563382413,225.03091731540917 163.30633802816737,224.90739418150042 164.32042253523832,225.01856500787835 166.4542253521504,225.74734891511616 166.88732394366525,225.64853102476627 167.13028169010067,224.32683370183076 167.03521126759006,223.88214712684567 166.71830985916313,223.733917892132 166.10563380282838,223.7833276579404 165.75704225350637,223.43745885819226 164.6267605634057,223.49922121899726 164.46830985916313,223.64745075166138 164.59507042251062,223.857442267421 167.83802816906245,224.96915576477477 168.89436619722983,225.15444031860534 173.36267605633475,224.49976691255142 173.40492957748938,225.11738343136676 174.88380281691207,225.01856500787835 175.85563380282838,225.25325862710451 178.33802816900425,224.94445113540132 178.45422535209218,225.17914490357362 179.67957746476168,225.48795177457941 180.6725352111971,225.38913366469205 180.88380281691207,225.2162017712035 180.86267605633475,224.69740455401188 181.03169014083687,224.4750621838175 180.90492957748938,223.86979469778453 181.10563380282838,223.41275390471856 182.0246478873305,222.63454519469815 184.61267605627654,222.91865373755718 185.6478873239248,222.86924360587727 186.852112676017,222.63454519469815 188.23591549292905,222.07867865467415 188.5,222.51101952559839 187.2746478872723,223.0421789753891 185.65845070424257,223.46216380647093 184.401408450678,223.41275390471856 184.17957746476168,223.52392615416466 182.5,223.23981908405403 182.14084507041844,223.3386390129599 181.91901408450212,223.67215565547667 181.85563380277017,224.7468139121047 181.5281690140837,225.96968886259128 180.651408450678,226.24143711243232 179.89084507036023,226.1673240161108 179.76408450701274,225.94498444491182 179.34154929581564,226.00674547937524 178.28521126764826,225.75970114552183 173.7746478873305,225.82146227797057" stroke="#4dd2ff" stroke-linecap="round" stroke-linejoin="round" stroke-width="0.5"><title>2022-10-20 5.2km</title></polyline><polyline fill="none" points="17.59795918362215,256.2242592408584 18.00204081623815,256.8471112581756 19.067346938652918,257.1477977551258 20.1693877549842,256.7397231156501 23.034693877445534,257.04040977158 23.23673469386995,256.7182454802969 23.71428571420256,257.2337081009755 24.559183673467487,257.4484838067292 25.165306122391485,257.2337081009755 27.95714285701979,257.51291647410835 28.912244897917844,256.61085726962483 29.481632652925327,257.1263201629481 30.82244897959754,256.8041560079728 32.126530612120405,256.99745456234086 33.761224489775486,256.7612007486896 33.98163265292533,258.3290618247993 34.257142857066356,258.09280956063594 34.31224489794113,256.5249466601672 34.826530612190254,256.15982616449764 37.85714285704307,257.06188737282355 38.5,258.13576453822316 38.05918367346749,256.39608067787776 36.44285714277066,252.55154125203262 34.18367346923333,253.34622855469934 33.504081632592715,254.46308112777479 31.77755102037918,254.74229331102106 30.895918367314152,254.74229331102106 30.54693877545651,254.39864749246044 25.0367346938001,254.4201253731735 24.595918367267586,254.0979569240444 22.134693877538666,254.57047047448577 21.693877551006153,254.22682436501782 27.093877551029436,253.4750964728446 27.36938775505405,253.99056732743338 27.020408163196407,254.52751474254183 24.4306122448761,254.22682436501782 22.263265306013636,254.57047047448577 21.491836734698154,254.29125805487274 25.293877550866455,253.58248634211486 27.314285714179277,253.51805242734554 27.351020408095792,254.18386856048892 27.05714285711292,254.52751474254183 24.37551020400133,254.22682436501782 22.134693877538666,254.54899260964885 21.51020408165641,254.31273594692175 23.034693877445534,254.03352317291137 23.51224489789456,254.3342138367443 26.983673469279893,254.63490405520133 27.314285714179277,254.37716960943362 27.332653061137535,253.51805242734554 26.08367346925661,253.4106625240238 20.05918367335107,254.65638191089965 17.322448979481123,254.1623906547611 11.757142857066356,252.29380416145432 11.5,251.9501541984646 11.904081632615998,251.69241634452192 13.851020408095792,251.67093817521527" stroke="#4dd2ff" stroke-linecap="round" stroke-linejoin="round" stroke-width="0.5"><title>2022-09-24 5.1km</title></polyline><polyline fill="none" points="73.54545454541221,259.8041914785863 74.61264822119847,259.1178895230405 75.8399209487252,254.50092834205134 70.87747035548091,251.50612339074723 66.76877470361069,256.37267371604685 66.76877470361069,259.4922361433273 68.95652173901908,260.42810165468836 73.49209486157633,260.4904926359304 74.66600790503435,259.7418004247593 76.0,254.25136184343137 71.30434782616794,251.31894757662667 66.87549407128245,256.4350651263376 66.98221343872137,260.0537556281779 69.91699604713358,260.1785376634216 70.82411067187786,260.80244744365336 69.86363636353053,261.73831087659346 50.22727272706106,262.861345036712 49.42687747022137,263.48525197961135 50.8142292490229,262.4246097841533 71.41106719360687,262.923735760618 74.55928853736259,262.17504663724685 62.39328063232824,261.73831087659346 63.40711462451145,246.88910263794241 62.82015810278244,246.7643177920836 60.63241106714122,261.98787420796 49.0,261.86309255548986 49.160079051274806,262.54939131764695 74.66600790503435,262.861345036712 72.69169960450381,261.73831087659346 70.50395256909542,262.2374374339124 62.339920948725194,261.55113830877235 63.193675889167935,246.51474802038865 61.16600790503435,261.55113830877235 59.405138339847326,262.2374374339124 50.547430829843506,261.86309255548986 50.44071146240458,262.54939131764695 75.94664031616412,263.1732985905255 68.79644268751144,262.923735760618 74.23913043481298,262.861345036712 74.23913043481298,262.05026502447436 71.09090909082443,261.8007017194177" stroke="#4dd2ff" stroke-linecap="round" stroke-linejoin="round" stroke-width="0.5"><title>2022-09-22 5.0km</title></polyline><polyline fill="none" points="98.84896467725048,257.0766429074574 99.91778319119476,256.9228202250815 100.70706455543404,257.44197125631035 101.64433617546456,257.3073766868911 103.6668696711422,257.63424903976556 104.73568818520289,257.1535541998164 104.70280146162258,256.8074531278544 104.93300852621906,256.7497695518832 105.3276492083678,257.42274346679915 107.2350791717763,257.1920098337723 107.9257003653911,257.46119904382795 109.37271619972307,256.7497695518832 109.38915956154233,257.3650600859837 109.65225334954448,257.6150212705543 109.81668696715496,256.5959465928754 110.14555420225952,256.3844398117071 113.02314250922063,257.1535541998164 113.5,258.0572594473924 112.64494518883293,255.23076212748128 111.64190012181643,253.09643910708837 110.19488428748446,253.6156010673585 109.75091352016898,253.30794971434807 107.9257003653911,253.03875435327063 105.70584652863909,254.78851707362628 102.51583434839267,254.84620127212838 102.10475030448288,253.98093637276907 99.29293544456596,254.38472717172408 98.30633373942692,254.61546436839853 99.45736906211823,255.13462198991328 104.19305724726291,255.0961659206514 104.93300852621906,254.78851707362628 106.28136419004295,254.78851707362628 107.11997563956538,255.0961659206514 108.83008526189951,254.90388545228052 109.14250913524302,254.09630526401452 108.583434835542,253.59637287308578 107.62971985386685,253.5002318709885 106.18270401953487,254.28858658669924 105.22898903780151,253.59637287308578 103.92996345920255,253.96170821713167 102.30207064555725,253.92325189970143 102.26918392209336,254.88465739428648 100.93727162003051,254.65392053933465 98.89829476253362,254.98079766404408 97.86236297199503,254.65392053933465 97.15529841656098,254.9423415622441 95.98781973205041,254.90388545228052 89.24604141293094,252.86569998202322 89.64068209507968,252.25039421652036 88.55542021919973,251.94274055262213 87.91412911086809,252.4042208531464 86.5,252.15425250247063 86.76309378806036,252.3849925307295 89.22959805111168,252.67341715407383 91.46589524968294,252.28885088789684 92.17295980505878,252.94261305624968 93.06090133980615,252.78878687528777 93.57064555416582,252.98106958111748 93.24177831917768,255.86528575996635 92.78136419004295,255.86528575996635 93.8008526188205,256.3075281939091 93.19244823389454,256.3844398117071 93.04445797810331,256.98050374619197" stroke="#4dd2ff" stroke-linecap="round" stroke-linejoin="round" stroke-width="0.5"><title>2022-09-09 5.2km</title></polyline></svg>