<?xml version="1.0" encoding="utf-8" ?>
<svg baseProfile="full" height="300mm" version="1.1" viewBox="0,0,200,300" width="200mm" xmlns="http://www.w3.org/2000/svg" xmlns:ev="http://www.w3.org/2001/xml-events" xmlns:xlink="http://www.w3.org/1999/xlink"><defs /><rect fill="#222222" height="300" width="200" x="0" y="0" /><text fill="#FFFFFF" style="font-size:12px; font-family:Arial; font-weight:bold;" x="10" y="20">Over 5km Runs</text><text fill="#FFFFFF" style="font-size:4px; font-family:Arial" x="10" y="280">ATHLETE</text><text fill="#FFFFFF" style="font-size:9px; font-family:Arial" x="10" y="290">fengde</text><text fill="#FFFFFF" style="font-size:4px; font-family:Arial" x="120" y="280">STATISTICS</text><text fill="#FFFFFF" style="font-size:3px; font-family:Arial" x="120" y="285">Number: 43</text><text fill="#FFFFFF" style="font-size:3px; font-family:Arial" x="120" y="290">Weekly: 1.5</text><text fill="#FFFFFF" style="font-size:3px; font-family:Arial" x="141" y="285">Total: 261.3 km</text><text fill="#FFFFFF" style="font-size:3px; font-family:Arial" x="141" y="290">Avg: 6.1 km</text><text fill="#FFFFFF" style="font-size:3px; font-family:Arial" x="167" y="285">Min: 5.0 km</text><text fill="#FFFFFF" style="font-size:3px; font-family:Arial" x="167" y="290">Max: 10.0 km</text><polyline fill="none" points="14.402636916842312,47.273529981976026 16.721095334680285,47.54036814050778 22.635902636917308,47.380265330080874 23.73123732249951,47.52969462773035 24.415821500995662,47.84989952030446 25.136916835675947,47.82855255906907 25.848884381353855,47.52969462773035 26.113590263703372,46.473011272231815 26.150101419887505,45.61911764774413 26.423935091297608,45.26688442224986 28.158215010131244,45.4803592511671 28.34077079105191,45.373621893159 29.73732251516776,45.40564311242633 32.12880324543221,44.509045131650055 34.06389452330768,43.51637378711166 36.145030425919686,43.3028948025094 37.91582150099566,42.85458746448421 38.5,42.587736912682885 38.363083164265845,42.55571479904029 38.22616632853169,42.1927968006421 38.317444219079334,42.15010047968826 37.42292089248076,42.55571479904029 36.56490872206632,42.72649928768806 33.644016227161046,43.07874138250918 31.206896551710088,44.40230674605846 29.855983772780746,44.818585811291996 28.240365111560095,44.91464996703871 26.798174442199524,44.65847868176206 26.213995943195187,44.70117394114641 25.447261663270183,45.39496937381773 25.292089249473065,45.90730755391269 25.401622718025465,46.195496636937605 25.3286004056572,46.803893109005 25.018255578062963,47.081406070894445 23.95030425960431,47.081406070894445 23.30223123729229,46.82524028702028 23.119675456371624,46.60109469262534 22.197768762649503,46.63311552229425 21.202839756559115,46.921302532195114 20.58215010142885,46.921302532195114 20.43610547663411,46.76119873941934 18.32758620689856,46.81456669858744 18.135902636917308,46.312906768129324 15.224137931014411,46.89995537449431 13.645030425977893,46.57974746718537 11.5,45.789896950787806" stroke="#4dd2ff" stroke-linecap="round" stroke-linejoin="round" stroke-width="0.5"><title>2023-07-01 6.0km</title></polyline><polyline fill="none" points="55.45773955772165,46.44289783833665 55.72309582302114,47.00142594514182 58.310319410287775,47.63752480941184 59.02678132674191,47.5134081744618 59.72997542988742,47.24965997649997 60.035135135112796,46.380839028483024 60.26068796060281,44.348398493326386 60.67199017194798,43.882950132130645 63.073464373417664,44.14670438483881 63.35208845202578,43.976039922534255 65.67395577387651,43.882950132130645 68.5,42.92101883768919 68.22137592139188,42.362475190573605 64.98402948398143,43.37095522857271 63.16633906628704,43.417500293653575 60.49950859945966,43.04513935929572 59.27886977879098,43.99155488189717 59.00024570024107,44.689726352647995 59.14619164617034,45.1241424792679 58.920638820622116,46.3187801924214 57.3019656019751,46.70664748713898 55.855773955758195,45.884367604448926 54.741277641267516,45.86885284536402 54.10442260437412,46.22569188903435 52.273464373429306,46.33429490387789 51.72948402946349,46.101574059270206 48.83710073702969,46.132603526551975 48.37272727268282,45.54304252550355 44.40565110562602,46.256721330064465 43.45036855037324,46.16363298727083 42.07051597046666,45.83782332230476 41.5,45.294805605502916 41.76535626529949,43.80537526161061 42.495085995062254,43.86743516130082 42.40221130219288,44.937964296826976 42.04398034396581,45.18620182087761 41.81842751841759,46.41186843668402 42.22972972970456,46.59804474799603 45.81203931197524,47.14105763947009 55.086240786185954,46.92385272415413 58.41646191640757,47.622010235791095 59.46461916458793,47.29620381059067" stroke="#4dd2ff" stroke-linecap="round" stroke-linejoin="round" stroke-width="0.5"><title>2023-06-25 5.0km</title></polyline><polyline fill="none" points="75.0640940615558,57.18305231854902 75.45541589544155,57.55523448936583 75.24752617120976,58.01330344271264 75.77336488547735,57.79858381464146 76.5926949752029,58.5 76.98401680903044,58.47137083944108 77.52208433067426,57.82721311812929 77.87671974266414,57.85584241557808 78.09683827421395,57.16873759914597 78.73273625422735,57.082849250829895 79.13628689543111,56.32416646373167 78.9650835931534,54.7495281820884 79.46646469278494,53.86199668061454 81.61873477912741,55.23623652430251 82.26686156645883,54.7495281820884 83.0372764269705,55.021512472318136 83.88106413127389,55.021512472318136 85.71538522763876,52.401851493821596 86.81597788538784,51.70040357331163 87.07278283889173,51.013267376765725 87.61085036047734,50.36907401079952 88.60138375248061,49.6676155103778 88.91933274251642,48.923206578037934 89.62860356649617,48.379212834945065 89.27396815444808,46.73290260236536 89.56745952984784,45.616263345771586 89.89763732725987,45.01499222127313 92.23333952325629,42.86757344743819 92.69803420105018,41.693636717114714 92.58797493524617,38.25766556158487 92.88146631058771,35.136582486884436 94.66687217768049,32.473582886115764 94.9359059385024,31.772031220578356 94.67910098505672,31.5 94.01874539034907,31.5 93.78639805142302,31.81498346834269 94.01874539034907,32.44494819579995 93.4073050248553,33.03195813143975 93.44399144680938,33.704868813671055 93.07712722755969,33.862358062469866 92.612432549824,34.85024096936104 91.74418723088456,35.89538456524315 91.82978888205253,36.42511178499262 90.8147978754132,37.1839066066168 90.30118796840543,38.71580011135666 90.27673035382759,38.987816763299634 90.98600117774913,39.188249734346755 90.83925549004925,40.53400624735514 92.57574612786993,40.67717104284384 92.75917823752388,41.665003986199736 92.49014447676018,42.55261581632658 89.82426448340993,45.229732216583216 89.26173934718827,46.57542839583766 89.67751879565185,48.27900322167261 88.99270558642456,48.837312975141685 88.72367182560265,49.51014473299438 87.57416393852327,50.36907401079952 86.91380834381562,51.457043237707694 86.0577918322524,52.215753421754926 85.44635146681685,53.47548920002009 85.00611440365901,53.8763117511844 84.87159752327716,54.592063342177426 83.84437770931982,55.42233042595035 83.92997936048778,55.95198089367477 83.39191183890216,56.352796080405824 82.32800560304895,55.679998481035" stroke="#4dd2ff" stroke-linecap="round" stroke-linejoin="round" stroke-width="0.5"><title>2023-06-21 5.9km</title></polyline><polyline fill="none" points="105.34899277432123,57.088740186198265 105.45749878929928,57.21575418319844 105.1922618636745,57.25809215515619 105.50572368490975,57.58268282581412 105.97591641667532,57.6532459101727 105.83124173001852,58.34476215408358 106.4461091485573,58.5 107.20565125369467,58.27419943692803 108.146036717284,56.94761338054377 108.67651056853356,56.87704992145882 109.08642218093155,56.312540900253225 109.0502535092528,54.39319229043031 109.55661491269711,53.54641203158826 111.59411675046431,54.91537076032546 112.32954640785465,54.44964411582623 113.89685551385628,54.74601580570743 115.63295175437815,52.14921280705312 116.70595568075078,51.40121122470009 117.62222869653488,50.04632971271349 118.65906395128695,49.29831629208638 118.85196353361243,48.64909368324152 119.53916829545051,48.2256859249901 119.15336913091596,46.7014068227727 119.40654983260902,45.37470522179501 121.91424440219998,43.10234510540613 122.50499937287532,42.0861217926431 122.6255616118433,37.188380977502675 122.38443713402376,36.70847735108691 122.43266202951781,36.03096339745389 122.95107965689385,34.56300464287051 124.47016386734322,32.64334179244179 124.8077381363255,31.71173070410441 124.61483855405822,31.5 123.83118400111562,31.627038462960627 123.71062176214764,31.895230374619132 123.8914651205414,32.43161257338943 123.32482259755488,33.01033830587403 123.40921616484411,33.631407018663594 122.96313588082558,33.89959488325985 122.40854958177079,34.98645594854315 121.62489502882818,35.847469440312125 121.72134481993271,36.39795055129798 120.76890313246986,37.146036609628936 120.21431683341507,38.71276923165715 120.19020438560983,38.98094683732779 120.91357781912666,39.22089476243127 120.6603971174336,40.519428955347394 122.42060580570251,40.505314521476976 122.66173028358025,41.62035017639573 122.14331265620422,42.83417581953108 119.82851766882231,45.02185682102572 119.50299962377176,45.642869379604235 119.27393136976752,46.89899954473367 119.63561808661325,48.09866333437094 118.96046954864869,48.60675296813133 118.58672660792945,49.39711075880041 117.62222869653488,50.07455655175727 116.88679903920274,51.274191669828724 115.71734532160917,52.092760004336014 115.1748152464279,53.108906783571 114.54789160407381,53.64520333985274 113.99330530501902,54.717789958944195 112.24515284068184,54.49198296916438 111.71467898937408,54.95770946521952 109.72540204715915,53.588751172690536 109.13464707642561,54.19561071268981 109.23109686758835,56.08673662036017 108.86941015080083,56.862937225188944 108.29071140399901,56.94761338054377 107.69995643326547,56.53834479652869 107.00069544749567,56.66535931956605" stroke="#4dd2ff" stroke-linecap="round" stroke-linejoin="round" stroke-width="0.5"><title>2023-06-15 6.6km</title></polyline><polyline fill="none" points="145.6819159577426,41.70439563605032 145.697239911824,41.90148336359562 145.33712699034368,42.34940831192944 145.39076082970132,42.922748790129845 145.82749352173414,44.64274694559572 145.97307108572568,46.28208768815966 146.34084598429035,46.60457721554121 146.486423548311,47.76015460976487 146.88484635506757,48.906758463563165 146.66264902052353,49.58754716107069 146.8771843779832,50.09813509498781 146.80056460745982,50.5728895365537 146.94614217148046,51.03868376225728 147.122367643693,51.14617437386187 147.28326916182414,52.49875291790522 147.41352277170517,52.722687680063245 147.32157904707128,54.44248693171539 147.55910033572582,55.31133057650004 147.96518511950853,55.347158989192394 148.14141059172107,57.165431045687 147.7276638308831,57.88198074747925 147.98050907358993,58.14172851849435 147.98817105067428,58.5 147.94986116542714,57.38039659226342 148.14141059172107,57.21917248344835 148.00349500478478,55.347158989192394 147.5744242898072,55.30237347094953 147.30625509293168,54.03941211324127 147.45183265692322,53.83339535460982 147.45949463400757,52.71373030093673 147.32924102409743,52.57041210614989 147.1836634601059,50.92223544586159 147.59741022097296,50.13396571165504 147.2602832306584,47.69744926407293 146.4404516859795,44.88461888587335 146.5170714564738,44.821911412102054 145.8658034070104,41.85669073849567 144.9540281376976,41.22959150059614 145.1072676787444,40.69207417348662 145.0459718623315,40.047048879067006 144.24912624878925,39.43785381360067 144.11121066185297,39.187007513290155 143.85070344206179,37.34147261079488 143.65915401570965,37.018947820834 143.42163272708422,35.75571390246478 141.85858940824983,32.07341391714726 142.02715290343622,32.0644543545568 141.87391336238943,31.5 142.12675860512536,31.98381824851822 142.21870232975925,32.709540439071134 142.12675860512536,32.93352751365455 142.70906886117882,34.02657593906042 143.52123842877336,36.07824350237934 143.4676045893866,36.33805812027276 143.82771751092514,37.33251360544091 144.12653461596346,39.267636762248 145.05363383935764,40.06496631469781 145.09960570171825,40.701032823562855 144.93104220653186,41.25646727743879 145.75087375121075,41.76710541728971 145.32946501328843,42.34044983615604 145.42907071494847,42.68087124905287 145.75087375121075,42.74358030749136 145.79684561351314,43.12879207674996 145.6359440954111,43.352751602535136 145.42907071494847,43.06608330340532 145.34478896736982,42.34044983615604 145.70490188887925,41.92835892727453 145.7125638659054,41.65960290678777 144.83909848186886,41.21167431130743" stroke="#4dd2ff" stroke-linecap="round" stroke-linejoin="round" stroke-width="0.5"><title>2023-06-04 8.0km</title></polyline><polyline fill="none" points="188.3229121118784,55.417017308660434 186.70550940092653,55.458433292777045 186.0089637078927,55.92781352766906 185.13533012679545,55.80356598277285 184.78115435061045,56.03825569055334 183.3644512462197,55.78976069269993 182.90402273723157,55.29276927738101 181.7470485351514,53.09770121812471 180.5782684739679,51.84138778998749 179.6337997376686,51.51005036463903 177.4261040664278,51.30296404658293 175.67883690423332,50.4055862036912 175.12396152166184,49.14924685511505 174.98229121119948,47.934313781850506 174.46283340617083,47.31303681587451 173.51836466987152,47.10594383649004 170.236335811147,47.644384899234865 169.575207695656,47.326843002825626 168.0050284215249,45.98763606759894 167.61543506773887,45.90479807379597 167.78071709664073,45.26970504040946 166.67096633143956,43.11588825476065 166.58832531701773,42.45316824398469 166.28137297765352,42.190840643059346 166.03344993438805,41.44527510770422 165.27787494531367,41.141524964317796 164.9000874508056,40.38214651160524 165.3369042413542,40.20265641325386 162.77503279404482,36.28142647961795 161.6062527328031,33.809886488175835 161.5,33.906539769945084 162.8222562308656,36.405692616986926 165.8917796239839,41.10010443540523 165.78552689112257,41.29340012438479 166.60013117617927,42.563621812922065 166.63554875383852,43.26776111642539 166.95430695230607,43.474860188303865 167.75710537820123,45.29731784528121 167.61543506773887,45.94621707723127 168.04044599912595,46.04286136760493 168.24114560557064,46.41563153115567 170.28355924790958,47.63057874588412 173.34127678180812,47.11975004532724 174.47463926539058,47.34064918832155 175.04132050724002,48.113793243494 175.1121556624421,49.232082789065316 175.572584171372,50.364168615764356 177.50874508090783,51.358187096891925 179.4331001311657,51.496244620357174 180.61368605156895,51.88280490897887 182.03038915607613,53.55328441786696 183.35264538694173,55.77595540114271 184.56864888500422,55.941618803175515 184.69851333624683,56.190113511824165 185.46589418448275,55.72073422042013 186.78815041540656,55.44462796625157 188.3465238303179,55.44462796625157 188.5,55.251353240717435" stroke="#4dd2ff" stroke-linecap="round" stroke-linejoin="round" stroke-width="0.5"><title>2023-06-01 6.5km</title></polyline><polyline fill="none" points="38.5,87.61819431673212 36.87768240342848,87.9042607909796 36.10515021457104,87.70853116021317 35.59012875537155,87.19662162251188 33.82618025748525,84.14018224155006 33.09227467805613,83.53792043462454 32.062231759598944,83.08622240681143 29.718884120171424,82.8152029018529 27.787553648056928,81.85157381526369 27.169527897029184,80.67714204335061 27.015021459257696,79.2467312803492 26.371244635200128,78.55410616514564 25.289699570799712,78.34330654786027 21.684549356228672,78.87030500557739 19.62446351937251,77.56033380668669 19.341201716742944,76.82252862706082 19.0836909871432,76.65689836704405 19.135193133028224,76.3406946080213 18.233905579370912,74.29288182372693 17.873390557942912,74.08207589338417 17.886266094399616,73.35931033238012 17.47424892708659,72.90757999231573 17.306866952741984,72.18480846498278 17.036480686743744,72.01917280622001 17.100858369085472,71.71801656890602 15.002145922742784,68.1944412306766 13.869098712457344,66.71872990473639 12.15665236057248,63.36067667452153 11.70600858371472,62.96914961337461 11.5,62.09573920900584 11.65450643771328,62.878797061610385 12.1952789700008,63.39079409613623 13.778969957085792,66.68861318766722 17.100858369085472,71.6577852449409 16.959227467828896,71.97399941121694 17.860515021428,73.34425267750339 17.873390557942912,74.12724861902825 18.246781115885824,74.35311203218589 19.12231759657152,76.3406946080213 19.019313304743264,76.61172644450562 19.379828326171264,76.83758591384685 19.611587982799392,77.50010495581955 21.259656652342528,78.6444487626577 22.032188841258176,78.91547621112841 25.263948497886304,78.35836367376032 26.306866952800192,78.47882062340796 26.924892703827936,79.14133202377707 27.143776824057568,80.73736954946071 27.68454935628688,81.89674407450366 29.487124463543296,82.8152029018529 32.190987124457024,83.1313922740519 33.19527896994259,83.55297701086965 34.418454935599584,84.95323163794819 36.01502145919949,87.63325046132377 36.375536480685696,87.88920467509888 37.40557939914288,87.88920467509888" stroke="#4dd2ff" stroke-linecap="round" stroke-linejoin="round" stroke-width="0.5"><title>2023-05-26 6.2km</title></polyline><polyline fill="none" points="41.5,78.76113778724539 42.5322496748704,79.23739935003687 44.11222366709262,79.38520406845782 44.25968790636398,79.57406524348335 45.959037711290875,79.40162679755304 46.23992197657935,79.67260132631054 47.356436931091594,79.56585389761312 47.18790637192433,79.68902399462968 47.426657997391885,79.98463143000117 47.784785435622325,79.77934860821551 48.12184655395686,79.78755993150116 48.3886866059911,79.79577125392825 48.55019505851669,79.96820882424072 49.0979193757812,80.13243472552858 49.89843953188392,80.13243472552858 50.12314694406814,79.90251836641983 50.10208062417223,79.1470741058074 50.21443433032255,78.83504063509463 50.7762028608704,78.31771922245389 51.28179453834309,78.27666181977838 52.50364109230577,78.49016007643513 53.809752925881185,78.35877660338883 54.6804941482842,78.05495147014153 56.52028608584078,77.08598769493983 59.28699609884643,76.69182947761874 61.44278283487074,75.64894287267816 61.70962288687588,75.1398120377853 61.498959687916795,74.02299721694726 61.06358907671529,73.23464766665711 60.6703511053347,72.14244182665425 59.926007802336244,71.69077326447587 60.031339401815785,71.40334644697577 60.852925877756206,71.86322884393303 61.597269180754665,71.8714410048342 62.19414824448177,72.07674474464875 64.37802340701455,74.48286408960121 64.75019505852833,74.65531346432545 65.05916775032529,74.56498288724106 65.73328998702345,73.86697033744713 66.50572171653039,72.70086477819859 67.67841352405958,71.49368070434139 68.5,69.27635490677494 67.98738621588564,70.7545791453158 67.48179453835473,71.75647067325917 66.5267880364263,72.63516816894844 65.72626788038178,73.83412253339338 65.01703511056257,74.58140663636732 64.69401820545318,74.65531346432545 64.09011703511351,74.23650717529381 62.187126137840096,72.06853260547359 61.569180754217086,71.86322884393303 60.8318595578603,71.83859235602722 60.066449934995035,71.37049760004447 60.01027308194898,71.5511660860866 60.6703511053347,72.18350247469061 61.470871261379216,74.03942108074989 61.688556566950865,75.14802385194344 61.27425227567437,75.78854267943825 59.65916775033111,76.57686628717056 58.43029908972676,76.85606231143174 58.12834850454237,76.7821575792259 57.04694408320938,76.92996697326453 56.239401820581406,77.15168053653179 55.0456436930981,77.86608659868944 55.087776332889916,78.2356043954278 53.76762028608937,78.73650348899537 53.20585175551241,78.83504063509463 52.37724317298853,78.79398350609699 52.26488946683821,78.88430916121433 50.958777633321006,78.73650348899537 50.7762028608704,78.93357765609107 50.67087126139086,79.91072967670334 50.41807542263996,80.53478671524499 49.74395318594179,80.72364509322506 48.508062418724876,80.40340670302976" stroke="#4dd2ff" stroke-linecap="round" stroke-linejoin="round" stroke-width="0.5"><title>2023-05-21 9.9km</title></polyline><polyline fill="none" points="98.5,78.62927641313581 97.81932773115113,78.97040065689362 96.49039615847869,79.0083033105766 94.88595438183984,78.55347093744786 94.61044417775702,79.0083033105766 93.63805522210896,78.97040065689362 91.56362545024604,77.87122021231335 90.33193277317332,77.98492884694133 89.18127250904217,77.22686991936644 85.61584633856546,77.47323942270305 84.5462184874923,77.32162746074027 83.91416566632688,77.8333173180581 79.95978391362587,79.36837812034355 79.29531812726054,78.91354666140978 79.00360144063598,77.54904535558308 75.956782713125,73.87242065853206 75.45438175275922,73.51233480090741 71.87274909968255,73.07644042580796 75.79471788718365,73.70185376358859 79.1008403362357,77.79541441582842 79.2791116447188,79.04620595621236 79.92737094842596,79.36837812034355 83.73589435772737,77.96597741283767 83.99519807926845,77.53009387537895 82.6338535414543,77.41638495202642 81.4021608644398,76.86679080491012 80.67286914773285,77.1321123278467 80.25150060030865,78.06073456327431 80.89975990401581,78.38290849972691 80.49459783919156,78.72403321265301 80.67286914773285,79.06515727605438 80.23529411770869,79.3494268325885 79.70048019220121,79.23571906406141 79.3115246098605,79.02725463436218 79.24669867951889,78.06073456327431 78.85774309729459,77.37848196148116 78.06362545024604,76.71517832971585 77.10744297725614,75.12323959208152 75.64885954384226,73.53128670626029 72.4561824729899,73.11434432661918 75.58403361350065,73.53128670626029 78.93877551023616,77.49219090890256 79.39255702286027,78.66717913896719 78.85774309729459,78.38290849972691 77.156062425056,75.16114305978408 75.69747899158392,73.58814241003711 71.5,73.05748847240466 71.80792316934094,70.631621879671 75.82713085232535,70.74533511018672 76.60504201689037,71.18123515821935" stroke="#4dd2ff" stroke-linecap="round" stroke-linejoin="round" stroke-width="0.5"><title>2023-05-19 5.4km</title></polyline><polyline fill="none" points="101.5,74.7164661706338 104.15037593984744,74.75603090957884 108.42481203010539,76.04847214277834 109.96992481203051,76.33861016987794 119.20676691731205,76.21991742223327 121.71052631578641,76.81338003047858 122.86090225563385,76.39136246587441 123.30075187975308,73.8328503964658 123.59398496244103,73.58227164897107 125.6917293232982,73.8592270774243 125.86090225563385,73.661401834157 127.80075187975308,73.63502511137631 128.46616541355615,73.43719951230014 128.5,73.18661996951414 127.30451127822744,73.70096690794162 125.87218045117334,73.6877785514007 125.64661654137308,73.8328503964658 123.56015037599718,73.60864838293492 123.24436090228846,73.93835708684492 122.81578947370872,76.41773860555986 121.82330827071564,76.76062791306322 119.01503759401385,76.16716505365912 110.5676691729459,76.36498632068106 108.27819548873231,75.96934347275965 104.06015037593897,74.7164661706338 101.91729323309846,74.78240739519242" stroke="#4dd2ff" stroke-linecap="round" stroke-linejoin="round" stroke-width="0.5"><title>2023-05-17 5.0km</title></polyline><polyline fill="none" points="134.25912408763543,77.45126765682653 135.11015262111323,77.92265003185457 135.57597876578802,77.72362219164643 136.93762441939907,77.92265003185457 137.3228268082603,77.67124637778761 137.3586595886154,77.35699091257266 139.29362972796662,77.27318928674504 143.19940278702416,77.22081323460588 145.25082946254406,77.6502960444268 145.98540145991137,77.4093668926871 146.30789648310747,75.51333876167337 146.59455872600665,75.10479755939014 147.47246184473624,75.26192899051966 148.35932315862738,75.16765016175486 149.63138686132152,75.29335524681665 152.10384870605776,74.42389180975442 154.11944260122254,73.38681097867811 156.10816191107733,73.2506278404544 158.01625746523496,72.69541772310185 158.5,72.47542794749461 158.32979429332772,72.55923363391776 158.23125414730748,72.07734996814543 157.99834107497009,72.27638915788702 157.0935633709887,72.52780650982459 153.6088254810893,73.02016364139126 151.2976111479802,74.25628352245258 149.92700729926582,74.68577919066593 148.49369608494453,74.79053394906805 146.97080291970633,74.53912234269228 146.36164565366926,74.58102432142914 145.60019907105016,75.25145356955181 145.40311877906788,76.83322958769713 144.18480424687732,77.03225921748526 144.2385534173809,76.91703158582823 143.87126741878456,76.70752645747416 143.61147976113716,76.14186039681226 143.11877903121058,75.92187827832822 142.50066357001197,76.06853307828715 142.0975447910023,76.64467483254703 141.4525547445519,76.74942751861818 140.91506303916685,76.75990278113022 140.65527538151946,76.59229844793299 138.63968148641288,76.6341995578332 138.45155938953394,76.17328637385071 138.34406104846857,76.17328637385071 135.6028533510398,76.72847699025442 133.80225613806397,76.3827926325248 131.52687458531,75.56571571694076 131.5,75.38763395587011 131.92999336431967,75.30383066334616" stroke="#4dd2ff" stroke-linecap="round" stroke-linejoin="round" stroke-width="0.5"><title>2023-05-14 6.3km</title></polyline><polyline fill="none" points="161.8776937618386,80.75332964488916 162.20434782613302,78.73616817298898 161.5,78.4735764533907 161.8981096408097,78.39002441448247 162.01039697544184,78.18711206242006 162.21455576561857,76.27733087239903 162.08185255201533,76.15796847490856 162.43913043482462,76.16990472034377 162.6330812854576,72.25474850706087 162.78620037809014,71.93245825514168 165.1544423440937,72.09957183402003 167.6962192817009,73.0186920937631 167.92079395084875,72.95900918731786 168.17599243862787,72.46960816358478 170.1461247637053,72.91126283940685 171.25879017013358,72.98288235368818 178.64933837432181,72.83964327967988 180.87466918717837,73.34097924314847 181.77296786388615,73.0186920937631 182.15066162572475,70.76265627289831 182.39565217396012,70.48810915247304 184.34536862006644,70.63135121169762 186.13175803405466,70.54779336594947 188.5,69.72414843213483 188.2856332703377,69.24667035511811 186.92797731567407,69.80770688786288 185.8357277882751,70.03450809862261 184.47807183366967,70.08225566385227 182.27315689984243,69.80770688786288 181.34423440456158,70.54779336594947 181.1502835538704,71.1088234290437 181.28298676747363,71.56242016401666 181.09924385638442,72.33830508879328 180.12948960304493,72.5770378384259 179.08827977319015,72.29055847824202 178.7207939508371,71.9921417045698 177.83270321367308,71.9921417045698 177.42438563331962,72.24281184745632 176.47504725895124,72.32636843804357 175.5665406427579,72.15925519503071 174.01493383746129,72.23087518662214 172.3408317581052,72.06376180223015 171.18733459356008,72.23087518662214 170.5034026465146,72.05182512245665 169.58468809071928,72.23087518662214 168.1657844990841,71.93245825514168 167.71663516073022,71.52660996173654 167.68601134215714,70.96558197597915 167.26748582231812,70.9417083828157 167.8187145558186,71.06107629822509" stroke="#4dd2ff" stroke-linecap="round" stroke-linejoin="round" stroke-width="0.5"><title>2023-05-12 6.0km</title></polyline><polyline fill="none" points="18.553656078584027,118.35563351665041 18.828775981033687,118.3445283943147 18.098285205545835,117.94474320396694 18.30699685565196,118.00026901623642 18.449300253530964,117.80037595404428 18.38289200118743,118.31121302016254 18.553656078584027,118.20016169633163 19.198764815344475,118.5 19.749004620302003,118.47778978475253 19.910281804506667,117.70042927964096 19.834386659029406,116.43442980173131 20.213862386532128,115.9013728042919 20.185401706956327,115.623737875183 22.509690538106952,113.8690680706859 23.211720634019002,113.18051871030184 24.03708034142619,112.02552250371082 24.653728398610838,110.19305041840562 24.86244004877517,106.25035006396502 25.052177912497427,106.05043453563121 25.0426910193637,105.12859687567834 25.450627426442225,103.81801849725889 26.674436647736,101.76326508170314 28.80898761510616,99.7528996740075 29.643834215647075,98.44225388984341 30.573549748107325,94.15477234565333 31.901714794512372,91.5 30.61149732087506,94.0103722370186 29.86203275900334,97.5981004455316 29.45409635186661,98.77547047781991 28.60027596494183,99.98614847219869 27.167755093541928,101.20791938700859 26.29496092023328,102.2519668523164 25.526522571919486,103.56256486586062 25.128073058032896,104.89535955263273 25.023717232979834,105.47289863955666 25.13755995122483,106.10596666519996 26.26650024065748,106.03932810619153 27.613639073329978,106.18371159697563 28.32515606249217,106.02822167558043 29.264358488086145,106.19481801109214 29.95690169086447,106.10596666519996 30.250995379697997,106.26145647095836 30.374324991134927,106.77234991874866 30.241508486506063,107.28324086971406 28.344129848876037,109.04912731822697 27.993114800890908,109.65996159899805 27.85081140307011,110.55954740497691 28.17336577142123,111.85893545950239 24.86244004877517,116.22342839852354 23.429919177375268,117.82258631316654 23.20223374082707,117.82258631316654 20.232836172915995,115.84584587741847 19.853360445355065,116.51216705346451 19.98617694998393,117.58937730717298" stroke="#4dd2ff" stroke-linecap="round" stroke-linejoin="round" stroke-width="0.5"><title>2023-05-09 7.6km</title></polyline><polyline fill="none" points="53.94451972824754,118.5 54.14833660831209,116.5253742155619 53.813494591158815,115.45293799169303 51.9354676247458,114.8571370018326 48.383230572217144,114.38049462188792 48.295880480785854,113.54636706043675 48.54337240656605,111.62275028511067 50.01376561279176,111.65679679957975 49.54789845831692,111.55465723454836 49.402314972598106,110.26088379997236 49.05291460675653,110.58432813371473 48.528814058052376,110.22683699020126 48.57248910376802,99.92734635573288 48.76174763520248,99.43363520609273 48.295880480785854,99.67197870883683 47.6844298405922,99.33148788248945 48.67439754377119,97.54389922301925 48.73263093811693,96.33513754123123 49.300406532536726,96.04571438264975 49.54789845831692,99.2293404940574 49.096589652472176,100.60832476618816 49.21305644110544,101.93622437746671 49.387756623968016,102.22563694084238 50.49419111578027,102.1064671248314 51.25122524169274,101.4765680598357 50.82903313299175,98.9739717393677 51.51327551610302,97.95249266753672 51.45504212175729,97.45877545815893 50.960058270196896,97.56092397061002 49.955532218446024,97.0672055597388 50.29037423571572,96.55646078179416 50.93094157305313,96.57348563388223 51.78988413908519,96.99910634967091 52.11016780772479,96.8118333734601 52.22663459635805,97.01613115487271 53.20204395084875,94.58156571917061 53.10013551090378,93.11740373156499 52.692501750716474,91.90860879354295 52.35765973350499,91.5 51.60062560753431,91.89158344782481 51.28034193889471,92.55557059420971 51.71709239616757,92.04481149405183 51.58606725896243,92.72582326723204 51.87723423045827,93.16847937401326 52.212076247727964,93.25360540873953 52.692501750716474,92.79392428601568 52.98366872227052,92.87905051896814 53.187485602276865,93.71328521810938 53.10013551090378,95.0412417344487 52.11016780772479,96.98208154267923 49.504223412659485,99.34851244089077 49.12570634967415,100.55725148538477 49.34408157825237,102.27670969208702 49.86818212707294,102.61719428631477 51.70253404753748,102.4469520792627 52.721618447918445,102.61719428631477 53.56600266532041,103.21304059261456 54.70155385421822,103.19601644303475 56.302972197532654,104.06424577436701 57.87527384376153,104.28555838404282 60.510334935970604,104.06424577436701 60.94708539324347,104.52389470030903 62.25733676512027,104.57496672208072 62.3155701594078,105.98795289857662 62.02440318791196,107.14557088144647 61.73323621635791,107.07747593650129 61.45662759343395,107.67330572784704 61.67500282207038,108.71174666276784 61.15090227330802,111.35037791002833" stroke="#4dd2ff" stroke-linecap="round" stroke-linejoin="round" stroke-width="0.5"><title>2023-05-06 6.0km</title></polyline><polyline fill="none" points="78.54284203052521,118.48883518038201 78.2376292461413,118.31019790533901 78.58099362859502,118.01991168599488 79.32494979049079,118.5 79.6301625748747,118.4665055376172 79.76369316806085,117.69612995725038 79.64923837390961,116.55730354105617 80.0402922538924,115.89856498214795 79.99260275636334,115.68642795733467 82.31985023716697,113.93348984222393 83.7696109630051,112.19168798450846 84.48495342634851,110.19304644649674 84.70432511513354,106.15098483863403 84.90462100482546,105.91649583106482 84.84739360777894,105.3581865644228 85.20983378926758,103.99589950602967 86.20177533844253,102.17576710690628 88.67209131200798,99.69676306987094 89.61634336365387,98.08872917995177 90.43660272168927,94.13554125385417 91.7623707538005,91.5 90.4079890231369,94.202545678163 89.66403286124114,97.86538919340092 89.31113057932816,98.7252455372145 88.45271962322295,99.94243274722248 86.21131323801819,102.11993432638701 85.25752328679664,103.83957035341882 84.84739360777894,105.34702034883958 84.97138630144764,105.73783718843333 84.6947872156743,106.26264608688507 84.55171872297069,109.85807487252896 83.86498995806323,112.04653652687557 83.37855708302232,112.81695351059898 82.50107032788219,113.76601014851622 80.04983015340986,115.67526283892221 79.71600367053179,115.55244645797211" stroke="#4dd2ff" stroke-linecap="round" stroke-linejoin="round" stroke-width="0.5"><title>2023-05-04 6.1km</title></polyline><polyline fill="none" points="102.3203300824971,110.08631591555604 102.59377344336826,107.04291295647272 102.67479369841749,106.8297532289871 102.89759939984651,106.80606878973776 102.68492123024771,106.71133098277642 102.63428357086377,106.24948302568373 102.90772693173494,102.7085853888857 103.1406601650524,102.56647344709927 103.99137284321478,102.73227069498535 105.2876969242352,102.7085853888857 107.03975994000211,103.34808689445344 107.79932483116863,103.45467012354493 108.05251312826294,102.00986660464696 107.88034508621786,101.59537034973619 107.12078019505134,101.61905589134403 106.74606151535409,101.21640100210789 105.62190547637874,101.27561504726327 105.19654913729755,101.08612999255274 104.66991747939028,101.28745785251522 103.98124531138455,101.28745785251522 102.69504876219435,100.62425882802927 102.08739684917964,100.74268751341151 101.5,100.4939871293609 101.51012753188843,100.99138734491862 102.14816204051021,101.09797281785723 102.25956489122473,100.64794457514654 102.74568642157828,100.68347318637097 103.85971492878161,101.28745785251522 104.76106526632793,101.45325699471869 105.35858964745421,101.29930065650842 105.71305326325819,101.66642695957125 108.41710427607177,102.62568677810486 109.68304576142691,102.89806769731513 110.04763690923573,102.94543822430569 110.58439609903144,102.69674273396959 111.3540885221446,102.89806769731513 112.31620405102149,102.69674273396959 112.79219804948661,102.80332658316911 113.19729932479095,102.63752944052976 113.65303825959563,102.83885451038077 115.80007501877844,102.7677986447161 116.48874718678417,102.98096610642096 117.52175543888006,102.89806769731513 117.90660165040754,102.62568677810486 118.82820705173071,102.62568677810486 119.1421605400974,102.90991033095634 120.30682670668466,103.18229055862321 121.20817704428919,103.00465135485865 121.36009002249921,102.12829382420023 121.22843210800784,101.79669729382294 121.42085521377157,101.24008662391861 122.3222055513761,100.45845845794975 125.63390847714618,100.70715892095905 127.04163540888112,100.4347726707565 128.27719429857098,99.91368408445123 128.5,100.35187237609352 127.50750187551603,100.8255875186369 125.76556639163755,101.25192943293223 124.3578394599026,101.32298626079864 122.45386346586747,101.14534410658234 122.18042010505451,101.50062813310069 122.08927231805865,102.69674273396959 121.82595648913411,103.64415116920281 120.83345836465014,103.98758474692295 118.71680420107441,103.47835527179996 111.17179294826929,103.6323086132179 109.41972993250238,103.37177206525666" stroke="#4dd2ff" stroke-linecap="round" stroke-linejoin="round" stroke-width="0.5"><title>2023-04-26 7.0km</title></polyline><polyline fill="none" points="131.5,107.8816031635215 131.878151260491,107.10041524880216 131.70168067223858,106.5550550519838 131.73949579824694,104.68312678759685 131.878151260491,104.25567507422238 132.16806722682668,104.10827762763074 135.67226890753955,104.4325518043479 137.71428571426077,105.2874528344546 138.30672268901253,105.22849431114446 139.31512605038006,105.52328667828988 139.79411764704855,105.86229712955537 140.23529411759228,105.75912012303888 141.00420168059645,106.02443227119511 142.99579831928713,105.89177626025048 143.89075630251318,106.45187855842232 144.57142857142026,106.18656722415471 145.39075630245497,106.45187855842232 146.1092436974286,106.30448343507305 146.6890756302164,105.92125538468827 147.19327731087105,106.36344150311197 148.54201680672122,106.15708815582911 149.13445378147298,106.2897439141816 150.88655462185852,105.52328667828988 151.63025210087653,105.59698467268026 152.91596638655756,106.11286954164098 153.30672268907074,105.62646385945845 154.20168067223858,105.75912012303888 155.3991596638225,105.31693208677461 155.66386554623023,104.594688609679 155.85294117644662,102.6932542064169 156.09243697475176,102.31001622333133 156.68487394956173,102.11839683649305 157.5672268907074,102.38371591737086 158.5,102.38371591737086 156.5210084033315,102.13313679870043 156.07983193278778,102.28053633484524 155.81512605038006,102.61955467615917 155.3991596638225,105.3464113328373 154.1008403361193,105.78859927556186 151.22689075628296,105.11057718961092 141.2436974789598,105.2874528344546 139.79411764704855,105.05161859143118 134.65126050414983,103.50394646626955 132.39495798316784,103.57764552872686 134.57563025207492,103.71030374293332 134.72689075628296,103.5629057193728 135.10504201677395,103.72504353668774" stroke="#4dd2ff" stroke-linecap="round" stroke-linejoin="round" stroke-width="0.5"><title>2023-04-20 5.0km</title></polyline><polyline fill="none" points="167.68024633004097,117.61733862921392 167.81818138668314,118.3815946527684 167.68944200052647,118.06943443788623 167.78139870491577,118.23089673802315 168.79292245325632,118.5 169.45501072495244,118.16631184885046 169.7952505311696,117.35899726173375 169.89640290598618,117.31594030313136 170.0803163148812,117.60657441870717 170.48492581414757,117.57428178036207 170.7516002569464,117.0575981674483 170.64125221164431,115.65823348906997 171.02747037011432,115.00160186468565 170.92631799523951,114.84013442014111 173.73099747934612,112.60109267281223 174.65976019378286,111.36313970170158 175.303457124508,109.31779296459717 175.45978352200473,105.96979421174183 175.53334888553945,105.54994090312539 175.70806662383256,105.44228592836589 175.59771857858868,105.02243043397175 175.8827843622421,103.82744758134504 176.9402864627773,101.84654405961192 177.72191845014459,100.92067369736469 179.11966035695514,99.67181189817347 179.94727069651708,98.49829841942119 180.27831483236514,97.7015934482406 181.11512084235437,93.72874135125312 182.31975366995903,91.5 181.04155547881965,94.12711024314922 180.34268452547258,97.51856574551493 179.98405337834265,98.50906465992011 178.8621815847,100.00556095527281 177.08741718978854,101.63122612574807 175.98393673705868,103.62289955424785 175.66208827169612,104.94707157133962 175.71726229431806,105.54994090312539 175.51495754462667,105.81907783957286 175.303457124508,109.70533551624976 174.68734720506473,111.41696405835683 173.28040962782688,113.13932837834 171.0366660405416,114.8508989244292 171.07344872230897,115.03389532274014 170.80677427956834,115.4752382180668" stroke="#4dd2ff" stroke-linecap="round" stroke-linejoin="round" stroke-width="0.5"><title>2023-04-17 6.5km</title></polyline><polyline fill="none" points="11.656129529641476,141.04291408213612 11.5,140.9090397561813 11.5,140.54392716650182 12.166152659978252,132.21904578707472 12.343099460296798,131.64699234809086 13.13415574398823,131.86607697993895 13.58172706241021,131.73219197671278 14.63299922895385,131.8173915422376 16.693909020803403,132.5233283724374 17.026985350821633,132.42595803266886 18.421742482634727,132.94932263994997 18.515420200419612,133.27794571151753 18.994217424828093,133.41182891603967 19.660370084806345,133.15623357223376 21.1383962991531,133.37531533026777 21.47147262917133,133.2049184433854 22.064764841925353,133.58222549646598 22.803777949127834,133.47268486661778 23.8966846569092,133.6552525251318 24.55242868157802,133.33880173288344 24.521202775649726,133.10754868046206 24.750192752457224,133.09537745429407 24.937548188085202,133.54571196476172 25.541249036206864,133.59439667114202 26.11372397840023,133.42400010871643 26.69660755590303,133.5700543205312 27.42521202773787,133.18057601037435 27.46684656891739,133.53354078494885 27.643793369235937,133.6552525251318 28.122590593644418,133.54571196476172 28.445258288353216,132.94932263994997 29.881649961404037,133.47268486661778 29.871241326094605,133.11971990532766 30.7455666923197,133.15623357223376 31.713569776329678,132.7789251222057 32.098689282895066,130.4420194157501 32.37972243636614,130.17424593916076 32.754433307563886,130.0525305164847 34.24286815722007,130.3689903475606 34.56553585192887,130.23510360217915 35.94988434843253,130.320304276378 36.813801079348195,130.13773132586357 38.5,129.41960824286798 38.26060138782486,128.95708591787115 36.876252891204786,129.49263791366684 35.33577486500144,129.74824139646807 32.171549730119295,129.45612308407 31.21395528136054,130.28378970943595 31.047417116409633,130.89236431183963 31.21395528136054,131.25750752806925 30.984965304494835,132.09733252763544 29.881649961404037,132.29207368096831 29.32999228988774,132.18253182278568 28.643022359290626,131.72002060507657 27.602158828056417,131.69567785789695 27.185813415562734,131.96344779351784 26.269853508099914,132.0608185246747 25.520431765588,131.8782483361574 23.126445643778425,131.90259104466531 22.949498843459878,131.4279072990903 23.053585196554195,131.3548788567059 24.34425597533118,131.29402178597957 24.94795682345284,131.76870608396712 24.85427910560975,131.86607697993895 22.606013878132217,131.8782483361574 22.63723978406051,131.54962126672035 22.460292983741965,131.44007870163477 19.420971472573,131.98779048401047 17.713955281418748,131.64699234809086 14.757902852725238,130.50287693716382 14.362374710850418,130.5150484375772 14.216653816460166,130.3568188316931 14.653816499572713,130.14990286490502 15.11179645336233,130.3689903475606 16.256746337690856,130.30813275534456 16.569005397032015,130.67327782582288 16.818812644516584,130.67327782582288" stroke="#4dd2ff" stroke-linecap="round" stroke-linejoin="round" stroke-width="0.5"><title>2023-04-07 7.0km</title></polyline><polyline fill="none" points="41.5,138.1411363992229 41.59536891680909,135.78687245862238 41.84968602831941,134.58494051747402 44.244505494541954,134.82037145666254 46.70290423865663,135.5142704193495 46.91483516484732,135.05580192259367 49.60635792778339,135.65057151829387 57.755102040828206,135.5142704193495 60.573783359490335,136.08425577785965 61.548665620037355,135.78687245862238 61.93014128727373,133.4945173645756 62.23744113027351,133.11038860866392 64.13422291987808,133.30864876900887 64.5051020408282,133.1723449448691 65.85086342220893,133.2590837604148 68.5,132.3421273175045 68.34105180529878,131.85886360076984 65.55416012555361,132.68908465364075 64.31436420715181,132.71386728118523 62.05729984299978,132.39169271413994 61.10361067496706,133.2590837604148 60.85989010985941,135.10536617092293 59.86381475668168,135.29123191535473 59.14324960752856,135.16732145182323 58.284929356363136,134.6592871809844 57.34183673467487,134.6840693916456 56.981554160127416,134.94428228718607 56.07025117735611,135.00623765328783 55.47684458398726,135.00623765328783 55.19073783355998,134.82037145666254 52.97605965461116,134.89471797071747 52.75353218213422,134.79558927481412 52.541601255885325,134.3247268236446 49.11891679750988,134.95667336304905 47.306907378311735,134.6345049650481 44.08555729989894,133.44495243458368 41.74372056516586,133.56886472020415 41.680141287331935,132.71386728118523 42.729199372115545,133.2838662673239 44.33987441135105,133.37060500032385" stroke="#4dd2ff" stroke-linecap="round" stroke-linejoin="round" stroke-width="0.5"><title>2023-04-04 6.0km</title></polyline><polyline fill="none" points="74.64607657957822,145.88711611693725 91.92744516767561,146.9322701675119 97.73756046872586,129.68714353023097 83.43573818914592,123.06775403907523 73.15630342531949,134.73876498127356 72.70937147922814,144.84196140361018 78.66846409626305,147.97742355475202 94.16210489813238,145.19034638197627 96.9926738915965,131.60327762854286 85.372443289496,122.54516952473205 72.70937147922814,136.48069981997833 73.60323537141085,146.9322701675119 93.8641502680257,146.5838855577167 97.2906285226345,130.38391982403118 85.67039792053401,122.19677975727245 78.66846409626305,127.4226185400039 72.70937147922814,135.95811956189573 72.56039416324347,145.71292371093296 89.39483080524951,148.5 94.60903684515506,146.23550087457988 97.14165120664984,130.38391982403118 85.22346597351134,122.19677975727245 73.15630342531949,135.43553913745563 72.56039416324347,146.06130850501359 87.01119375880808,147.80323136947118 93.56619563698769,145.88711611693725 97.2906285226345,129.51294941047672 84.32960208132863,121.84838991542347 73.00732611026615,135.60973263089545 73.15630342531949,146.40969322540332 82.2439196659252,147.80323136947118 94.60903684515506,145.53873128595296 97.2906285226345,130.20972577808425 84.32960208132863,121.5 72.8583487952128,135.60973263089545 73.30528074130416,146.5838855577167 91.0335812754929,147.4548469443107 94.31108221411705,145.71292371093296 97.14165120664984,129.33875527279451 85.074488658458,121.84838991542347 73.4542580563575,134.73876498127356 72.26243953220546,145.71292371093296 93.56619563698769,146.40969322540332 96.54574194550514,129.86133763124235 85.372443289496,122.19677975727245 78.07255483418703,127.4226185400039 73.15630342531949,135.60973263089545 73.00732611026615,146.5838855577167 89.0968761742115,147.80323136947118 93.8641502680257,145.71292371093296 96.69471926055849,129.33875527279451 84.77653402741998,122.02258484519552 75.39096315670758,131.0806958230678 72.26243953220546,145.88711611693725 77.32766825705767,147.97742355475202 93.71517295297235,146.5838855577167 97.14165120664984,130.73230785992928 85.96835255157202,122.19677975727245 78.66846409626305,127.59681288083084 72.70937147922814,136.30650641873945 72.26243953220546,145.88711611693725 75.6889177877456,147.62903916602954" stroke="#4dd2ff" stroke-linecap="round" stroke-linejoin="round" stroke-width="0.5"><title>2023-03-30 5.2km</title></polyline><polyline fill="none" points="128.23615635174792,145.57071329683822 128.5,143.3817920731235 126.77873429498868,142.80884726480872 123.60004653321812,142.3681188809569 123.41158678452484,142.19182713582995 123.57491856679553,139.92939654539805 124.37901349464664,139.75310170493321 124.99464867380448,133.87647896647104 124.7182410423411,133.74425209438778 124.45439739414724,133.96463014456094 123.58748255000683,133.90586269872438 123.8010702652391,133.86178709802334 123.60004653321812,133.67079266661312 120.60981852019904,134.4200770068419 119.39111214515287,134.39069338337868 118.66240111680236,133.72956021194113 117.72010237321956,131.9224468174798 116.08678455097834,130.55607717535167 115.63448115397478,130.45323160446424 115.4083294555312,130.0712331028917 112.97091670543887,129.55700269137742 110.94811540248338,128.60199830347847 110.47068403905723,127.44129182041797 110.35760818980634,126.17772689736739 109.69171707768692,125.31085593953321 108.63634248485323,125.13454254005046 105.45765472308267,125.7222530010622 104.85458352719434,125.57532561900734 103.53536528616678,124.56152244545228 102.90716612373944,124.42928670317633 101.5,124.5909081488353 103.17100977193331,124.47336529794848 104.62843182875076,125.41370531918074 105.45765472308267,125.707560269846 108.58608655189164,125.16392812218692 109.64146114472533,125.32554871273169 110.31991624011425,126.20711225872219 110.45812005584594,127.48536945905653 110.94811540248338,128.6166907283914 112.73220102372579,129.51292571035447 115.30781758954981,130.0124640094 115.67217310372507,130.4973082870565 116.08678455097834,130.57076939352555 117.20497905998491,131.40822326109628 117.92112610518234,132.26036411778477" stroke="#4dd2ff" stroke-linecap="round" stroke-linejoin="round" stroke-width="0.5"><title>2023-03-28 5.0km</title></polyline><polyline fill="none" points="134.21137640450615,137.67169145087973 134.45786516851513,135.2328367881928 134.31566011236282,134.82266020112002 134.0786516853259,134.67854372179863 132.99789325840538,134.95569062147842 132.9220505617559,134.74505904458783 131.5,134.4124820085126 131.57584269659128,134.06881796236848 133.12113764043897,134.46791158781707 136.72366573032923,134.47899750016222 140.0797050561523,135.49889641867776 141.91889044939307,135.8092984671457 149.1713483146159,135.67626913038112 151.50351123599103,136.15295680554846 152.30933988757897,135.8314700068513 152.6885533707682,133.82492666524922 152.96348314604256,133.48126069215505 154.75526685389923,133.69189480935165 154.87851123593282,133.53669076406368 156.38588483142667,133.59212080662837 158.5,132.82718362952437 158.38623595505487,132.32830854912027 156.86938202247256,132.91587228407298 155.71278089884436,133.10433542571263 154.47085674159462,133.08216330903088 153.0298455056036,132.8160975424471 152.66959269659128,132.91587228407298 151.92064606735948,133.53669076406368 151.73103932582308,134.05773200661497 151.77844101120718,134.58985655908327 151.35182584263384,134.6120283568016 151.0484550561523,134.95569062147842 151.03897471912205,135.2771801068593 150.74508426961256,135.42129576290608 150.0625,135.17740761347522 149.80653089884436,134.5565988537346 149.3135533707682,134.32379462063545 148.63096910109743,134.46791158781707 148.18539325840538,135.0887208729764 147.41748595505487,135.2106651218346 146.9245084269205,135.2106651218346 146.6590589887346,135.03329162205046 144.49754213483538,135.06654917612468 144.2984550561523,134.5565988537346 142.26966292131692,134.8780895634627" stroke="#4dd2ff" stroke-linecap="round" stroke-linejoin="round" stroke-width="0.5"><title>2023-03-26 5.6km</title></polyline><polyline fill="none" points="188.5,144.83452427935117 187.73162055335706,144.8470035949067 185.75731225300115,144.198077435889 185.49051383399637,144.3977474035346 184.47667984192958,144.37278867603163 182.21422924904618,144.75964835836203 181.17905138339847,144.75964835836203 180.60276679845992,144.3353505749037 179.81304347829428,142.65062372710236 178.3936758893542,141.50249979241926 178.00948616600363,141.40266240036726 177.81739130435744,141.05323086282442 175.78972332016565,140.6663590244425 174.05019762844313,139.80525263519667 173.62332015804714,138.83182045112335 173.52727272722404,137.78349988345872 173.02569169958588,137.04717391396116 172.00118577078683,136.87245182265906 169.39723320154008,137.346696896886 168.79960474307882,137.23437586741784 166.80395256914198,135.74923219800257 166.93201581027824,135.16265769769234 166.1636363636353,133.46531930426863 165.9501976284082,133.3405140465038 165.93952569167595,132.82881110863673 165.5980237153708,132.42943166321493 165.52332015812863,131.94268613539316 165.3632411067374,131.71803367571556 164.7762845849502,131.51834224115737 164.42411067191279,130.95670826850255 164.31739130435744,130.7320539305365 164.71225296438206,130.53236082632066 162.6312252964708,127.36218750022817 161.5,125.12803777795489 162.50316205533454,127.16248868918774 165.25652173912385,131.45593859849032 165.17114624503301,131.65563013874635 165.907509881421,132.75392756566725 165.89683794463053,133.40291669190628 166.18498023715802,133.55268290616368 166.9426877470105,135.23753971124097 166.76126482215477,135.69931107752927 167.12411067192443,135.8490743755683 167.40158102766145,136.26092246470216 168.77826086961431,137.19693550052034 169.27984189719427,137.30925656558975 171.99051383399637,136.87245182265906 172.99367588933092,137.09709446394118 173.49525691696908,137.69613941557327 173.56996047426946,138.70702087211976 174.03952569171088,139.80525263519667 175.53359683795134,140.5914804575441 177.8067193676252,141.06571057840483 178.09486166003626,141.4775404523316 178.34031620551832,141.4775404523316 179.81304347829428,142.65062372710236 180.61343873519218,144.21055681878352 181.18972332013072,144.77212768181926 182.01146245060954,144.8470035949067 183.99644268775592,144.36030931032292 184.5407114624395,144.6722930570977 184.8501976284897,144.3977474035346 185.47984189726412,144.37278867603163 185.63992094859714,144.1606392793401 187.51818181818817,144.8719622220524 188.20118577074027,144.80956564432563" stroke="#4dd2ff" stroke-linecap="round" stroke-linejoin="round" stroke-width="0.5"><title>2023-03-18 7.0km</title></polyline><polyline fill="none" points="11.5,165.97711123689805 13.261458681838121,165.92429646325763 16.657912345253862,166.91720953320328 18.103211776528042,167.17071767090965 25.167112746741623,167.07565219468233 27.38022750086384,167.58266702196124 28.229340916732326,167.19184331998986 28.536467045836616,165.36445814526815 28.780361324897967,165.03700408920122 31.55352960858727,165.13207150643575 32.85429909673985,164.8785581926859 34.16410170629388,164.36096651169646 34.02860488463193,163.89618802191399 35.753931080689654,162.91380818530888 38.373536299797706,162.41733297803876 38.5,162.50183957065747 36.846938775561284,162.59690940181463 35.7268317163107,162.8926816310268 33.38725326198619,164.1919564021082 32.2671462027356,164.51941322961648 30.876045500161126,164.63560732961923 28.879725660779513,164.32927713794925 28.563566410157364,164.4032189944046 27.81381733022863,165.11094542153296 27.65122114418773,165.62853321467992 27.77768484444823,165.92429646325763 27.68735362996813,166.53694611981336 27.434426229505334,166.76932948896865 26.56724657077575,166.84326953845448 25.46520575444447,165.8186668321723 24.679324188735336,165.90317054597108 24.25476748077199,165.5651552617128 23.902475744427647,165.50177726850234 23.568250250944402,165.61797022529936 23.161759785900358,166.10386657959316 22.92689862829866,166.12499245441722 22.484275677474216,166.49469454003702 21.752592840406578,166.53694611981336 21.59902977582533,166.01936303566617 19.024590163957328,166.29399929198553" stroke="#4dd2ff" stroke-linecap="round" stroke-linejoin="round" stroke-width="0.5"><title>2023-03-14 5.6km</title></polyline><polyline fill="none" points="66.14631336409366,170.06227321514598 65.23387096775696,169.941026453831 63.50230414746329,169.37116495756345 62.25806451612152,169.71065725394874 61.99884792632656,169.49241232172062 59.852534562232904,170.00164985052834 59.18894009216456,169.9652758163429 58.504608294926584,169.39541444063798 57.56105990783544,167.576688970119 56.48271889402531,166.37631434855575 55.756912442389876,166.0974376366139 53.42396313365316,165.78218488424318 52.169354838726576,165.10317601048882 51.67165898618987,164.03615393724613 51.51612903224304,162.8842439558066 51.10138248850126,162.38710028147761 50.282258064544294,162.22946890997264 47.358294930891134,162.66598602294107 45.93778801843291,161.73232239489153 43.998847926210146,161.7929501342005 43.832949308736715,160.7986511593408 43.801843317982275,161.81720122088882 42.17396313365316,161.92633104764536 41.5,159.93772678485402 42.04953917051898,161.73232239489153 42.319124423956964,161.9748331595183 45.55414746538736,161.70807129020977 46.0,161.81720122088882 46.985023041430395,162.53260597040935 47.565668202820234,162.6781114745536 50.37557603686582,162.2779708935268 51.14285714289872,162.48410409459757 51.54723502305569,163.00549818336003 51.661290322605055,164.03615393724613 52.08640552993165,165.05467522265099 53.4550691244076,165.83068536414066 55.7050691244076,166.2671887595061 56.01612903230125,166.69156546660815 56.36866359447595,166.76431560142373 57.71658986172406,167.83131227349804 58.53571428573923,169.383289699741 59.03341013827594,169.9652758163429 60.329493087599985,170.05014854476758 60.91013824887341,169.75915607137722 62.43433179729618,169.48028759106091 63.27419354842277,169.56516067862685 63.38824884791393,169.39541444063798 65.46198156685568,170.06227321514598 68.5,169.941026453831" stroke="#4dd2ff" stroke-linecap="round" stroke-linejoin="round" stroke-width="0.5"><title>2023-03-12 6.0km</title></polyline><polyline fill="none" points="97.3376681614318,169.8422628702392 94.09282511210768,169.03524634345376 93.95964125561295,169.24761958548333 93.19686098652892,168.99277165462263 92.71255605382612,169.459992490476 92.61569506727392,169.20514496405667 89.92780269059585,169.75731399131473 89.05605381168425,169.6582068977732 88.402242152486,168.9786134219903 87.05829596414696,166.6141675637482 86.08968609868316,165.62307004812465 84.98789237672463,165.22662898656563 82.38475336326519,164.87266276065202 80.93183856498217,164.03729875516728 80.47174887894653,162.89043459239474 80.39910313906148,161.65860658008023 79.87847533635795,160.9648133971932 78.67982062784722,160.75242700980743 75.56816143501783,161.26215377321932 75.15650224220008,161.19135850552993 74.79327354260022,160.75242700980743 73.739910313976,160.15774333167064 73.26771300449036,160.07278830478026 71.5,160.228539146221 73.61883408069843,160.12942499534984 75.12017937225755,161.10640413482906 78.75246636773227,160.70994969189633 79.79372197308112,160.93649523169734 80.3869955156697,161.78603759000544 80.47174887894653,162.81964018613508 80.90762331837323,163.9240286580025 82.49372197309276,164.80186940304702 85.15739910316188,165.3398979811609 85.47219730936922,165.75049728273007 85.89596412563697,165.80713157029822 87.50627802690724,167.1380304282502 88.43856502242852,168.99277165462263 89.14080717490287,169.62989057184313 90.13363228703383,169.72899768636853 91.24753363232594,169.36088517673488 91.44125560537213,169.60157423988858 92.21614349778974,169.21930317264923 94.0322869955562,169.0635627951997 96.46591928246198,169.92721169521974 98.5,169.77147214153956" stroke="#4dd2ff" stroke-linecap="round" stroke-linejoin="round" stroke-width="0.5"><title>2023-03-05 5.0km</title></polyline><polyline fill="none" points="126.29131886479445,164.90349162828352 126.44156928214943,165.3953352291137 127.98914858099306,165.09671607370547 128.33472454093862,166.15066363882215 128.27462437393842,166.6776349147258 124.26293823041487,167.78426915498858 121.66360601008637,168.99628867718275 119.15442404005444,170.71769251630758 117.39649415691383,167.95992470589408 116.28464106854517,167.028948170293 105.82721202005632,164.6751351760031 105.70701168617234,164.37651472634752 106.29298831394408,162.74287570998422 106.1277128548245,162.40911952660827 106.32303839741508,161.5483768020349 101.5,159.1242202699068 106.30801335565047,161.49567812307214 105.1961602671654,164.64000338624464 104.79048414027784,166.69520059518982 105.42153589322697,165.16697945266787 105.82721202005632,164.92105749629263 114.78213689487893,166.712766273733 116.93071786314249,167.69644130986126 118.82387312193168,170.87577973007865 122.76043405680684,168.4693247536925 124.48831385647645,167.73157245348557 128.5,166.6249378623179 127.98914858099306,164.32381694426294" stroke="#4dd2ff" stroke-linecap="round" stroke-linejoin="round" stroke-width="0.5"><title>2023-02-22 5.0km</title></polyline><polyline fill="none" points="131.5,168.12874665253912 131.66954474098748,165.10536588393006 131.90266875980888,164.6840689263845 134.31868131872034,164.80797995354078 137.0843799058348,165.83643641995877 138.02747252746485,165.89839134037175 138.45133437996265,166.18338355235028 138.8328100470826,166.05947398018907 140.64481946628075,166.33207486596802 141.1004709576373,166.2577292327478 141.76805337524274,166.55511148242658 142.3614599686116,166.4559841497612 143.63304552593036,166.61706602275808 144.48076923075132,166.13381973920332 144.5125588697265,166.3816385951941 144.85164835164323,166.53032965715101 145.36028257460566,166.56750239311077 145.80533751961775,166.3940295242428 146.67425431706943,166.54272057043272 147.29945054941345,165.9479552531193 147.6597331240191,165.88600035889976 149.50353218207601,166.3072929934351 149.64128728414653,166.46837507092278 149.7154631083249,166.02230108295043 150.57378335949033,166.0718649433329 151.52747252746485,165.78687245999754 151.84536891675089,164.57254888987518 151.91954474098748,163.46973392309883 152.34340659336885,163.06082236400107 153.3182888540323,163.25908269214415 156.1157770800055,163.2466914314573 158.5,162.31734314450296 158.23508634214522,161.87125334746815 157.06946624803822,162.32973450348072 155.5117739403504,162.66430070088973 154.49450549448375,162.68908334416483 152.1208791208919,162.37929992639693 151.09301412873901,163.18473510839976 150.89167974877637,163.80429686416028 150.9764521192992,164.2875527585711 150.2558869701461,164.53537552077614 150.07574568293057,165.10536588393006 149.73665620095562,165.25405856600264 149.1114599686116,165.15493013225932 148.38029827317223,164.6964600350184 147.3842229199363,164.6840689263845 146.97095761384116,164.94428193205385 145.6040031397133,165.03101947213872 145.31789638928603,164.83276214326906 142.1071428571595,164.86993541799893 141.50313971744617,164.78319775861746 141.20643642073264,164.51059326813993 139.065934065904,164.9690640928893 137.37048665620387,164.646895592683 134.212715855625,163.4821251601752 132.60204081633128,163.2466914314573 135.6538461538148,163.22190890619822" stroke="#4dd2ff" stroke-linecap="round" stroke-linejoin="round" stroke-width="0.5"><title>2023-02-10 5.9km</title></polyline><polyline fill="none" points="167.7253582283738,170.25753993881517 167.76052974379854,166.54240058214054 168.97980894480133,166.5561097792379 171.00803300039843,167.07705819400144 172.12179765518522,166.748038386213 172.57902735559037,165.36340420709166 172.66109422489535,164.14326875731058 173.0128093790845,163.75940354353224 175.0410334346234,164.04730256048788 175.42792010417907,163.85536995358416 177.33890577504644,163.88278891483787 179.28506296133855,163.2658608835336 182.6966999565484,161.5521564968658 186.60073816758813,161.01747608963342 188.5,160.3045654479647 188.3944854537258,160.38682456834067 188.2069040381466,160.05778777354863 188.24207555357134,159.74246006119938 187.60898827615893,160.0989174186252 185.97937472863123,160.5102131509775 185.27594442031113,160.53763282003638 185.11181068170117,160.3319851605629 182.93117672600783,160.72957034109277 181.4891445939429,161.2642519363726 179.10920538421487,162.6215106928139 177.36235345201567,163.16989403692423 175.22861485014437,163.32069904965465 173.5286582717672,163.00537927738333 172.68454190186458,163.03279841842595 171.72318714711582,163.85536995358416 171.5004342162283,164.48600459452427 171.57077724701958,165.11663616649457 171.05492835427867,165.11663616649457 170.6797655231785,165.47307874100807 170.59769865387352,166.00774076450034 170.21081198437605,166.1859609488165 169.4370386452647,165.8980666831194 169.1556665218668,165.15776420589827 168.4405123751494,164.78761138136906 167.63156752061332,165.0206706904719 167.18606165866368,165.71984610287473 166.22470690403134,165.8980666831194 165.50955275719753,165.9117759483488 165.263352149399,165.70613681730174 161.67585757706547,165.67871824183385 161.5,165.52791597311443 161.75792444631224,165.22631090920186 163.68063395569334,165.08921746628766 163.90338688663905,165.78839250885358 164.85301780281588,165.71984610287473 165.63851498044096,165.2126015714457 166.36539296567207,165.26743891381193 166.7053842813475,164.8561582804832 167.1039947894169,164.8424489035824 167.74880590528483,165.5416252775467 168.61636995215667,165.50049735994253 169.1322188449558,165.92548521213757 170.19908814586233,166.21337941696402 171.3831958314986,166.04886852107302 171.6880156317493,165.04808940512885 171.72318714711582,165.9529037353932 171.31285280070733,166.28192556192516 169.81220147636486,166.07628701823705 169.4487624837202,165.9117759483488 169.0384281371953,165.06179876030365 166.7874511506525,164.40374807621993 166.22470690403134,164.54084224431426 164.82957012590487,165.67871824183385 164.12613981764298,165.6650089519535 163.76270082499832,165.1303455143934 164.09096830221824,164.92470514337765 164.6654363873531,164.92470514337765 165.14611376461107,165.34969488385832 166.31849761179183,165.26743891381193 166.84607034298824,164.8972864025709 167.33847155881813,165.29485757630027 167.77225358225405,165.00696133096062 168.5343030829099,164.8561582804832" stroke="#4dd2ff" stroke-linecap="round" stroke-linejoin="round" stroke-width="0.5"><title>2023-02-05 7.1km</title></polyline><polyline fill="none" points="11.820882852305658,199.21691905512853 12.065365025453502,197.01026523227483 12.241086587455356,196.94772764408845 13.509337860770756,197.15320811709535 13.960101867560297,197.08173670493125 15.151952461805195,197.59096919676085 15.66383701187442,197.64457243831566 15.908319185051369,196.58143512616516 15.724957555154106,196.2151410194565 15.197792869235855,196.22407504096918 14.945670628192602,195.97392208154633 13.524617996590678,196.09899865386978 12.676570458395872,195.95605398465705 12.279286926990608,195.652295759166 11.553480475384276,195.51828442998521 11.5,196.06326250925486 11.553480475384276,195.54508671282383 11.813242784381146,195.52721852519608 11.950764006818645,195.63442759423924 11.935483870940516,196.0096582639526 12.080645161273424,196.2419430811351 13.86842105264077,196.09899865386978 15.870118845487013,196.9119918586366 17.191850594244897,197.22467946875986 18.001697792875348,197.0906706347596 18.521222410869086,197.2961507599539 19.06366723260726,197.2514812100344 19.69779286926496,197.37655589021597 21.233446519530844,197.13534026969864 22.410016977897612,197.28721685185155 23.074702886253363,197.22467946875986 23.273344651970547,197.03706704161596 24.02971137521672,197.0191991696629 24.297113752109,197.2514812100344 24.931239388824906,197.45696094397135 25.664685908326646,197.40335758332367 25.878607809834648,197.24254729722452 25.870967741910135,196.37595326194423 26.016129032272147,195.97392208154633 26.612054329336388,195.42000932007795 28.758913412573747,195.61655942551442 29.89728353137616,195.46467983875482 30.814091680804268,195.15198571179644 33.16723259759601,193.97267172898137 35.74957555177389,193.68677494975418 38.0797962648503,192.632522210537 38.47707979622646,191.90883262654825 38.27843803050928,190.78308094487147 38.5,191.86416022673802 38.41595925294678,192.14112872449186 38.301358234282816,192.40916188957635 37.353989813214866,192.98096313144197 37.20118845498655,193.23112495720852 36.59762308996869,193.26686230038467 35.917657045822125,193.62423490027868 34.74108658742625,193.86546055019426 34.076400679099606,193.81185490975622 32.93039049234358,194.0173430132927 30.798811544984346,195.12518330416788 29.813242784352042,195.45574573692284 28.34634974534856,195.58975716532586 26.696095076360507,195.36640466647077 25.955008488963358,195.93818588398426 25.748726655350765,195.75950466939685 25.977928692649584,196.02752634949138 25.855687606090214,196.331283225285 25.947368421038846,196.67970888447599 25.80984719863045,196.83158628601814 25.86332767404383,197.13534026969864 25.695246179937385,197.34975418866088 24.984719864150975,197.45696094397135 24.12903225806076,197.13534026969864 24.060271646856563,196.99239735467563 23.303904923581285,197.00133129394817 22.98302207130473,197.19787771895062 22.348896434617927,197.2514812100344 21.974533106957097,197.2514812100344 21.775891341239912,197.11747241857665 20.156196943979012,197.1621420393567 19.285229202039773,197.04600097615912 18.337860780971823,197.18894380047277 17.917657045822125,197.05493490977824 17.32173174872878,197.21574555311963 16.19100169779267,196.99239735467563 13.80730050933198,196.13473478337983 13.280135823442833,196.05432847073826 12.073005093348911,196.23300906152872 11.920203735149698,195.92031777954253 12.034804753842764,195.5986912530061 12.66893039047136,195.99179017464485 13.364176570437849,196.13473478337983 14.907470288599143,195.97392208154633 15.136672325985273,196.22407504096918 15.48811544990167,196.25087709978834" stroke="#4dd2ff" stroke-linecap="round" stroke-linejoin="round" stroke-width="0.5"><title>2022-12-15 10.0km</title></polyline><polyline fill="none" points="41.5,198.61970566848322 41.73842874544789,195.37982792990078 43.70341047504917,195.51442455674987 43.9582825821999,195.6874770698123 45.627283800247824,196.07203703012055 45.89037758830818,194.95680866199837 45.824604141293094,194.61070052367722 45.10931790500763,194.56262984468776 44.86266747870832,194.24536272544356 43.97472594396095,194.28381940491818 43.62941534712445,194.12037840463017 43.07034104751074,194.32227606815286 42.48660170525545,194.28381940491818 41.689098660164746,193.8223381767457 41.60688185141771,194.26459106719994 41.80420219246298,194.57224398251856 43.645858708943706,194.29343357226753 43.92539585873601,194.62992878819932 45.980816077964846,195.34137171418115 47.37028014616226,195.6297929354114 48.118453105998924,195.46635435576172 48.77618757612072,195.67786304995388 50.362971985392505,195.6970910886448 51.23447015834972,195.64902098428138 51.596224116918165,195.48558243921434 52.90347137636854,195.67786304995388 53.55298416566802,195.6297929354114 53.857186358131,195.399056031667 54.621802679641405,195.399056031667 54.81912302071578,195.60095085445937 55.50152253347915,195.74516116758605 55.690621193672996,195.947055221528 55.887941534718266,195.71631912327575 56.29080389768933,195.8028452287399 56.56211936660111,195.6970910886448 56.74299634594354,194.28381940491818 57.47472594399005,193.6396678765086 59.16839220462134,193.85118082218105 60.56607795372838,193.78388130194799 61.77466504264157,193.4666114639258 64.15895249697496,192.2167498097624 67.34074299639906,191.78410138576146 68.29445797810331,191.38029433152406 68.40956151037244,191.81294467812404 68.5,191.78410138576146 67.61205846531084,192.13022028979321 64.88246041414095,192.4571091552716 61.70066991474596,193.89925187750487 60.508526187593816,194.22613437955442 59.11084043851588,194.3126619038885 57.65560292327427,194.1107642190036 57.40895249694586,194.3991893458151 57.35962241172092,195.22600296940072 57.071863580989884,196.22586055866122 56.64433617540635,196.38929777240992 56.27436053592828,196.48543717261055 54.457369062147336,196.04319508955814 52.78014616324799,196.07203703012055" stroke="#4dd2ff" stroke-linecap="round" stroke-linejoin="round" stroke-width="0.5"><title>2022-12-12 7.2km</title></polyline><polyline fill="none" points="71.9368258859613,198.02224863461743 72.15523882897105,194.96963480499835 72.08243451471208,194.68990916513576 71.51040061633103,194.61693714713329 71.5,194.25207636241248 74.44337442220422,194.30072453397588 77.70916795072844,195.29800751378934 80.04930662561674,195.7601601076094 88.08898305083858,195.6385411840747 88.99383667181246,195.71151255363657 90.5227272727061,196.21014900597947 91.00115562404972,196.05204499916726 91.63559322035871,195.73583633319504 91.93721109401667,194.62909915336786 91.9892141756718,193.60748614617478 92.20762711868156,193.26694645967655 92.73805855162209,193.1818113804111 94.24614791985368,193.4858649453745 94.5685670261737,193.31559504804318 96.08705701079452,193.3642436158625 97.17912172572687,193.0723519001258 98.5,192.43991730692505 98.31278890604153,191.97775136538985 95.61902927584015,192.7926216437845 94.38135593221523,192.82910823755083 92.0724191062618,192.54937738931767 91.16756548540434,193.35208147585945 90.99075500766048,193.83856607326743 91.13636363635305,194.3128865736362 90.96995377499843,194.60477513964724 91.03235747298459,194.95747283482342 90.76194144837791,195.2493597642533 90.27311248076148,195.2007119941627 89.63867488439428,195.39530295107397 89.34745762712555,195.10341639216495 88.75462249614066,195.00612070783973 88.61941448383732,194.8358530621481 88.56741140218219,194.94531086332427 87.61055469955318,194.84801504520874 86.20647149457363,195.11557834690757 85.7176425269572,195.12774030038418 85.39522342057899,194.90882494115795 83.2526964560966,194.98179677388543 82.00462249614066,194.82369107779232 80.73574730358087,195.00612070783973" stroke="#4dd2ff" stroke-linecap="round" stroke-linejoin="round" stroke-width="0.5"><title>2022-12-06 5.0km</title></polyline><polyline fill="none" points="101.5,198.29425861632626 101.73098075162852,195.7090699516193 101.85472044002381,195.8344725856732 103.5870760770631,195.85376528331108 105.85563703026855,196.6061773068359 105.93813015587511,196.7701637187056 105.81439046750893,196.7701637187056 105.92163153071306,196.59653103810706 105.68240146661992,196.6061773068359 105.47616865264717,196.3939591595481 105.65765352893504,196.45183688504767 105.86388634284958,195.06276133350184 105.73189734190237,195.1495791754278 105.74839596706443,195.42932499263406 106.05362053166027,195.68013085773418 107.29926672781585,195.98881405236898 108.05820348308771,195.84411893499055 108.73464711278211,196.05633836190827 109.790559120127,196.08527733641677 112.07561869849451,195.88270432208083 112.71081576540018,196.05633836190827 113.64298808434978,195.95987504727964 113.8739688359492,195.77659446830512 114.69065077914274,195.77659446830512 114.7731439047202,195.94058237207355 115.77956003672443,196.22997207112348 116.56324472965207,196.09492365919868 116.75297891846276,194.63831736089924 117.51191567373462,194.00164769739058 119.6897341888398,194.2235179332638 120.74564619618468,194.1270526796725 121.91704857931472,193.77013035392156 124.1278643446567,192.59324143517006 124.87855178737664,192.4003073762433 126.8583868011192,192.23631310518977 127.93904674611986,191.94691073076683 128.35976168652996,191.70574138368102 128.49175068744808,192.17843270378216 128.5,192.07231853912526 126.81714023835957,192.6318281979693 124.49908340975526,192.9405217124222 123.29468377641751,193.54825901480217 121.05912007339066,194.51291308178043 119.368010999111,194.59008496625756 119.18652612282312,194.69619620079175 117.66040329975658,194.51291308178043 113.64298808434978,196.44219060002797 109.8235563703056,196.51936085173656" stroke="#4dd2ff" stroke-linecap="round" stroke-linejoin="round" stroke-width="0.5"><title>2022-11-27 5.6km</title></polyline><polyline fill="none" points="131.5,196.59935555000993 132.57120085012866,196.7559318855856 132.86769394262228,196.66645972222614 133.35547290113755,196.91250798923284 133.68065887351986,196.8565879788148 135.39266737509752,197.3822349088441 135.6795961742173,196.05133654937526 135.52656748139998,195.8276545082408 135.58395324117737,196.28620218321885 136.0621679064934,196.5881715171854 137.57332624861738,196.8789559865545 138.29064824653324,196.66645972222614 139.04622741765343,196.93487598508364 141.81030818278668,196.91250798923284 142.3459086078219,196.7335638518416 143.80924548354233,196.91250798923284 144.593517534493,196.8677719832849 144.94739638682222,196.59935555000993 145.89426142396405,196.5881715171854 145.9994686503196,196.80066793884907 147.09936238039518,197.13618773507187 147.84537725819973,197.0355319080045 148.1609989372664,196.71119581333915 148.26620616362197,196.16317739248188 148.14187035069335,195.71581331024208 148.29489904351067,195.2572631612129 149.17481402761769,194.54147358713817 151.38416578108445,194.8210794663537 152.88575982995098,194.70923720340215 154.44473963865312,194.18357698266482 156.68278427200858,192.96448258063901 158.5,192.6177650911486 156.82624867156846,192.89737605854316 154.39691817207495,194.20594555592834 152.84750265668845,194.69805297059793 151.41285866091494,194.78752679988247 149.42348565353313,194.4855523225633 149.06960680126213,194.5526578365243 148.26620616362197,195.30199984865612 148.12274176406208,195.71581331024208 148.2470775770489,196.16317739248188 148.0749202974839,196.46514707783354 148.14187035069335,196.81185194922728 147.88363443140406,197.04671589351346 146.8124335812754,197.09145182373322 145.68384697131114,196.554619411545 144.90913921355968,196.56580344793474 144.5361317746574,196.84540397319506 143.63708820403554,196.90132398950664 142.91976620611968,196.72237983319064 139.89744952175533,196.6776437467779" stroke="#4dd2ff" stroke-linecap="round" stroke-linejoin="round" stroke-width="0.5"><title>2022-11-23 5.3km</title></polyline><polyline fill="none" points="161.5,195.64989600601984 163.79856115108123,195.92751211590803 166.3669064748683,196.63416838923877 166.70143884891877,195.14513778725086 166.62589928059606,194.79180576328508 166.29136690648738,194.6277583963456 165.7517985611339,194.67823453324672 165.27697841724148,194.28704391336942 164.11151079135016,194.32490112616506 163.8525179856224,194.4637108038005 163.8956834532437,194.58990127961442 167.56474820140284,195.8391797873992 168.70863309357082,195.97798770284135 169.31294964026893,195.63727707659564 170.06834532372886,195.7634663108838 170.9856115108123,195.59942028028308 171.16906474821735,195.86441760222078 171.68705035973107,195.9401310146568 174.66546762589132,195.86441760222078 175.4100719424896,196.10417657672951 176.67266187054338,196.0410821564583 177.08273381291656,195.75084739346494 178.14028776978375,195.73822847470728 178.38848920859164,196.0158443790133 179.65107913670363,196.33131621326174 180.74100719427224,196.05370104319445 180.7194244604325,195.54894453316228 180.881294964056,195.29656547717605 180.762589928112,194.66561550099868 180.96762589929858,194.18609128703247 181.90647482016357,193.44156302940246 185.1762589928112,193.7570416720264 186.96762589929858,193.39108636909805 188.23021582735237,192.8484609222287 188.5,193.34060968748963 187.45323741005268,193.80751817743294 185.5755395683227,194.28704391336942 184.2482014388661,194.21132945166028 184.03237410075963,194.35013926137617 182.3381294964347,194.04728128637362 182.00359712226782,194.13561494184978 181.7338129496202,194.48894890960946 181.60431654681452,195.97798770284135 181.2805755395675,196.8991634124468 180.54676258994732,197.15153907776403 177.65467625902966,196.59631190929213 169.51798561151372,196.77297537958657 166.4856115108123,196.19250870901305" stroke="#4dd2ff" stroke-linecap="round" stroke-linejoin="round" stroke-width="0.5"><title>2022-11-18 5.5km</title></polyline><polyline fill="none" points="11.5,227.95875928016176 11.797053045185748,224.85737169697677 12.497249508858658,225.03105156960373 13.176227897871286,224.93180595957529 15.022200392966624,225.14270278041658 16.82573673868319,225.76298534946545 17.1121807465679,224.43557664969558 17.0591355599463,223.85250452729815 16.21041257365141,223.81528705937671 15.764833005843684,223.41829999967013 14.640275049139746,223.46792345563154 14.417485265235882,223.7532579198887 14.512966601236258,223.85250452729815 17.398624754394405,224.82015454793145 19.244597249489743,225.20473118498194 19.966011787822936,224.9566173699568 20.80412573675858,225.24194821198034 23.88074656185927,225.22954253762873 24.474852652230766,225.0186458729222 26.108644400781486,225.24194821198034 26.936149312357884,225.19232550671586 27.487819253467023,224.93180595957529 28.347151276946533,224.94421166543907 28.601768172869924,225.19232550671586 29.90667976421537,225.4652501257733 30.935756385035347,225.22954253762873 31.1055009822594,224.42317089002609 30.967583497054875,223.9145336143265 31.147937131638173,223.45551759363298 32.07092337909853,222.61191589706868 35.593123772065155,222.8848465218398 37.00412573671201,222.58710399059055 38.383300589281134,222.04124071983097 38.5,222.53748016190366 35.911394891911186,223.43070586561953 33.3546168958419,223.4803293163277 32.62259332020767,223.21980596583307 32.17701375245815,223.35627065017616 31.954223968554288,223.65401122844196 31.848133595252875,224.9566173699568 31.561689587368164,225.97388067553402 30.69174852652941,226.2716146078892 28.718467583472375,225.775390967392 19.976620825123973,225.8870414695848" stroke="#4dd2ff" stroke-linecap="round" stroke-linejoin="round" stroke-width="0.5"><title>2022-11-06 5.5km</title></polyline><polyline fill="none" points="41.5,233.31434389376955 42.12257281545317,229.9619087426545 42.56492718443042,220.78549743857002 42.941747572796885,219.0804345132492 43.040048543713056,219.25285733642522 45.038834951410536,219.19538308023766 50.658373786427546,220.45981250210025 51.0515776698594,217.77767898769525 50.904126213514246,218.5440069023898 51.51031553390203,218.984643985008 54.426577669917606,219.5785444433859 60.43932038830826,218.39074157885625 60.83252427179832,218.39074157885625 60.9144417475909,219.46359611958906 62.257888349471614,219.27201541773684 63.617718446592335,219.3486477227998 64.12560679606395,219.67433465748036 66.28822815534659,219.5977024902968 66.97633495146874,219.11875071037502 66.99271844665054,218.40989975140837 68.40169902914204,217.98841948750487 68.5,217.01134783015004 67.9757281554048,216.6856561062159 67.0910194175085,217.87347015435807 67.25485436891904,218.33326704913634 66.89441747573437,218.4865324213024 66.30461165052839,219.46359611958906 64.50242718443042,219.6934926942631 63.617718446592335,219.3486477227998 58.50606796116335,219.3486477227998 58.096480582491495,219.6551766187331 56.85133495146874,219.6551766187331 55.5570388349588,219.21454116767563 54.295509708696045,219.5785444433859 52.10012135922443,219.17622499080608 47.00485436891904,217.50946345145348 46.8410194174503,217.20293092356587 47.23422330094036,217.06882277947443 48.98725728149293,216.85808120950242 49.56067961163353,217.50946345145348 50.11771844653413,217.47114691387105 49.54429611645173,217.4519886420021 48.95449029124575,216.89639787684428 48.020631067920476,216.89639787684428 47.070388349471614,217.03050614862877 46.95570388343185,217.52862171718152 52.1820388349588,219.27201541773684 50.7894417475909,218.4673742568848 50.87135922326706,217.77767898769525" stroke="#4dd2ff" stroke-linecap="round" stroke-linejoin="round" stroke-width="0.5"><title>2022-11-02 5.0km</title></polyline><polyline fill="none" points="72.33140877593542,231.16727941273712 72.28983833716484,230.91209505889128 71.55196304846322,230.81488182262547 71.5,230.462483151794 71.77020785218338,228.63971415253036 71.77020785218338,226.96274113294203 71.9364896073821,226.61033064693038 71.8429561200901,225.3222003632036 72.07159353350289,222.6243712705982 72.28983833716484,221.60355455180252 72.466512701998,221.73723344780592 74.53464203228941,221.66431770563213 77.195150115469,222.49069340692222 77.45496535795974,220.7528670233296 77.31986143189715,221.15390621448023 77.50692840648117,221.44557020141656 79.63741339487024,221.93167520068528 82.95265588915208,221.23897495382698 84.07505773671437,221.2146696061609 84.70900692837313,221.53063872476923 85.05196304846322,221.32404363020032 86.45496535795974,221.3605016150541 86.88106235564919,220.97161584662535 87.51501154736616,221.28758563374868 88.31524249416543,221.00807394335425 88.91801385674626,221.27543296571093 89.18822170898784,221.98028558748047 89.9364896073821,222.21118464381289 90.98614318697946,221.99243818094692 91.16281755192904,221.08099010204023 91.0381062355591,220.61918698181398 91.23556581983576,220.13307642858854 91.87990762118716,219.48897677696368 92.51385681290412,219.3552952646205 94.34295612003189,219.6469638182607 95.54849884519354,219.6469638182607 96.88914549647598,219.3917538743117 98.30254041560693,218.83272058726288 98.5,219.2580722488492 97.35681293299422,219.79279781735386 95.82909930712776,220.18168757648527 94.24942263273988,220.27890981056407 92.30600461893482,220.06015966818813 92.01501154730795,220.40043748745666 91.63048498838907,222.63652379596897 90.80946882208809,222.9403365118851 87.8683602771489,222.442083236092 79.9699769053259,222.60006621604407 77.60046189371496,222.1018114644612 77.3094688221463,223.94898896698578" stroke="#4dd2ff" stroke-linecap="round" stroke-linejoin="round" stroke-width="0.5"><title>2022-10-28 6.2km</title></polyline><polyline fill="none" points="101.5,227.92132134532585 101.66901408456033,225.3273723036109 101.84859154932201,224.8579848913796 102.01760563382413,225.03091731540917 103.30633802816737,224.90739418150042 104.32042253523832,225.01856500787835 106.45422535215039,225.74734891511616 106.88732394366525,225.64853102476627 107.13028169010067,224.32683370183076 107.03521126759006,223.88214712684567 106.71830985916313,223.733917892132 106.10563380282838,223.7833276579404 105.75704225350637,223.43745885819226 104.6267605634057,223.49922121899726 104.46830985916313,223.64745075166138 104.59507042251062,223.857442267421 107.83802816906245,224.96915576477477 108.89436619722983,225.15444031860534 113.36267605633475,224.49976691255142 113.40492957748938,225.11738343136676 114.88380281691207,225.01856500787835 115.85563380282838,225.25325862710451 118.33802816900425,224.94445113540132 118.45422535209218,225.17914490357362 119.67957746476168,225.48795177457941 120.6725352111971,225.38913366469205 120.88380281691207,225.2162017712035 120.86267605633475,224.69740455401188 121.03169014083687,224.4750621838175 120.90492957748938,223.86979469778453 121.10563380282838,223.41275390471856 122.0246478873305,222.63454519469815 124.61267605627654,222.91865373755718 125.6478873239248,222.86924360587727 126.85211267601699,222.63454519469815 128.23591549292905,222.07867865467415 128.5,222.51101952559839 127.2746478872723,223.0421789753891 125.65845070424257,223.46216380647093 124.40140845067799,223.41275390471856 124.17957746476168,223.52392615416466 122.5,223.23981908405403 122.14084507041844,223.3386390129599 121.91901408450212,223.67215565547667 121.85563380277017,224.7468139121047 121.52816901408369,225.96968886259128 120.65140845067799,226.24143711243232 119.89084507036023,226.1673240161108 119.76408450701274,225.94498444491182 119.34154929581564,226.00674547937524 118.28521126764826,225.75970114552183 113.7746478873305,225.82146227797057" stroke="#4dd2ff" stroke-linecap="round" stroke-linejoin="round" stroke-width="0.5"><title>2022-10-20 5.2km</title></polyline><polyline fill="none" points="137.59795918362215,226.22425924085837 138.00204081623815,226.84711125817557 139.06734693865292,227.1477977551258 140.1693877549842,226.73972311565012 143.03469387744553,227.04040977158002 143.23673469386995,226.7182454802969 143.71428571420256,227.2337081009755 144.5591836734675,227.4484838067292 145.16530612239148,227.2337081009755 147.9571428570198,227.51291647410835 148.91224489791784,226.61085726962483 149.48163265292533,227.1263201629481 150.82244897959754,226.80415600797278 152.1265306121204,226.99745456234086 153.7612244897755,226.7612007486896 153.98163265292533,228.32906182479928 154.25714285706636,228.09280956063594 154.31224489794113,226.5249466601672 154.82653061219025,226.15982616449764 157.85714285704307,227.06188737282355 158.5,228.13576453822316 158.0591836734675,226.39608067787776 156.44285714277066,222.55154125203262 154.18367346923333,223.34622855469934 153.50408163259272,224.46308112777479 151.77755102037918,224.74229331102106 150.89591836731415,224.74229331102106 150.5469387754565,224.39864749246044 145.0367346938001,224.4201253731735 144.5959183672676,224.0979569240444 142.13469387753867,224.57047047448577 141.69387755100615,224.22682436501782 147.09387755102944,223.4750964728446 147.36938775505405,223.99056732743338 147.0204081631964,224.52751474254183 144.4306122448761,224.22682436501782 142.26326530601364,224.57047047448577 141.49183673469815,224.29125805487274 145.29387755086645,223.58248634211486 147.31428571417928,223.51805242734554 147.3510204080958,224.18386856048892 147.05714285711292,224.52751474254183 144.37551020400133,224.22682436501782 142.13469387753867,224.54899260964885 141.5102040816564,224.31273594692175 143.03469387744553,224.03352317291137 143.51224489789456,224.3342138367443 146.9836734692799,224.63490405520133 147.31428571417928,224.37716960943362 147.33265306113753,223.51805242734554 146.0836734692566,223.4106625240238 140.05918367335107,224.65638191089965 137.32244897948112,224.1623906547611 131.75714285706636,222.29380416145432 131.5,221.9501541984646 131.904081632616,221.69241634452192 133.8510204080958,221.67093817521527" stroke="#4dd2ff" stroke-linecap="round" stroke-linejoin="round" stroke-width="0.5"><title>2022-09-24 5.1km</title></polyline><polyline fill="none" points="186.0454545454122,229.8041914785863 187.11264822119847,229.1178895230405 188.3399209487252,224.50092834205134 183.3774703554809,221.50612339074723 179.2687747036107,226.37267371604685 179.2687747036107,229.49223614332732 181.45652173901908,230.42810165468836 185.99209486157633,230.49049263593042 187.16600790503435,229.74180042475928 188.5,224.25136184343137 183.80434782616794,221.31894757662667 179.37549407128245,226.43506512633758 179.48221343872137,230.0537556281779 182.41699604713358,230.1785376634216 183.32411067187786,230.80244744365336 182.36363636353053,231.73831087659346 162.72727272706106,232.861345036712 161.92687747022137,233.48525197961135 163.3142292490229,232.4246097841533 183.91106719360687,232.923735760618 187.0592885373626,232.17504663724685 174.89328063232824,231.73831087659346 175.90711462451145,216.88910263794241 175.32015810278244,216.7643177920836 173.13241106714122,231.98787420795998 161.5,231.86309255548986 161.6600790512748,232.54939131764695 187.16600790503435,232.861345036712 185.1916996045038,231.73831087659346 183.00395256909542,232.23743743391242 174.8399209487252,231.55113830877235 175.69367588916793,216.51474802038865 173.66600790503435,231.55113830877235 171.90513833984733,232.23743743391242 163.0474308298435,231.86309255548986 162.94071146240458,232.54939131764695 188.44664031616412,233.17329859052552 181.29644268751144,232.923735760618 186.73913043481298,232.861345036712 186.73913043481298,232.05026502447436 183.59090909082443,231.8007017194177" stroke="#4dd2ff" stroke-linecap="round" stroke-linejoin="round" stroke-width="0.5"><title>2022-09-22 5.0km</title></polyline><polyline fill="none" points="23.84896467725048,257.0766429074574 24.917783191194758,256.9228202250815 25.707064555434044,257.44197125631035 26.64433617546456,257.3073766868911 28.666869671142194,257.63424903976556 29.73568818520289,257.1535541998164 29.702801461622585,256.8074531278544 29.933008526219055,256.7497695518832 30.327649208367802,257.42274346679915 32.235079171776306,257.1920098337723 32.925700365391094,257.46119904382795 34.37271619972307,256.7497695518832 34.38915956154233,257.3650600859837 34.65225334954448,257.6150212705543 34.816686967154965,256.5959465928754 35.14555420225952,256.3844398117071 38.023142509220634,257.1535541998164 38.5,258.0572594473924 37.644945188832935,255.23076212748128 36.641900121816434,253.09643910708837 35.194884287484456,253.6156010673585 34.75091352016898,253.30794971434807 32.925700365391094,253.03875435327063 30.705846528639086,254.78851707362628 27.515834348392673,254.84620127212838 27.104750304482877,253.98093637276907 24.292935444565956,254.38472717172408 23.30633373942692,254.61546436839853 24.457369062118232,255.13462198991328 29.193057247262914,255.0961659206514 29.933008526219055,254.78851707362628 31.28136419004295,254.78851707362628 32.11997563956538,255.0961659206514 33.83008526189951,254.90388545228052 34.14250913524302,254.09630526401452 33.58343483554199,253.59637287308578 32.629719853866845,253.5002318709885 31.182704019534867,254.28858658669924 30.22898903780151,253.59637287308578 28.929963459202554,253.96170821713167 27.30207064555725,253.92325189970143 27.26918392209336,254.88465739428648 25.937271620030515,254.65392053933465 23.898294762533624,254.98079766404408 22.862362971995026,254.65392053933465 22.15529841656098,254.9423415622441 20.98781973205041,254.90388545228052 14.246041412930936,252.86569998202322 14.640682095079683,252.25039421652036 13.555420219199732,251.94274055262213 12.914129110868089,252.4042208531464 11.5,252.15425250247063 11.76309378806036,252.3849925307295 14.22959805111168,252.67341715407383 16.465895249682944,252.28885088789684 17.17295980505878,252.94261305624968 18.06090133980615,252.78878687528777 18.57064555416582,252.98106958111748 18.241778319177683,255.86528575996635 17.78136419004295,255.86528575996635 18.8008526188205,256.3075281939091 18.192448233894538,256.3844398117071 18.04445797810331,256.98050374619197" stroke="#4dd2ff" stroke-linecap="round" stroke-linejoin="round" stroke-width="0.5"><title>2022-09-09 5.2km</title></polyline></svg>