<?xml version="1.0" encoding="utf-8" ?>
<svg baseProfile="full" height="300mm" version="1.1" viewBox="0,0,200,300" width="200mm" xmlns="http://www.w3.org/2000/svg" xmlns:ev="http://www.w3.org/2001/xml-events" xmlns:xlink="http://www.w3.org/1999/xlink"><defs /><rect fill="#222222" height="300" width="200" x="0" y="0" /><text fill="#FFFFFF" style="font-size:12px; font-family:Arial; font-weight:bold;" x="10" y="20">fengde's running</text><text fill="#FFFFFF" style="font-size:4px; font-family:Arial" x="10" y="280">ATHLETE</text><text fill="#FFFFFF" style="font-size:9px; font-family:Arial" x="10" y="290">fengde</text><text fill="#FFFFFF" style="font-size:4px; font-family:Arial" x="120" y="280">STATISTICS</text><text fill="#FFFFFF" style="font-size:3px; font-family:Arial" x="120" y="285">Number: 13</text><text fill="#FFFFFF" style="font-size:3px; font-family:Arial" x="120" y="290">Weekly: 1.3</text><text fill="#FFFFFF" style="font-size:3px; font-family:Arial" x="141" y="285">Total: 89.9 km</text><text fill="#FFFFFF" style="font-size:3px; font-family:Arial" x="141" y="290">Avg: 6.9 km</text><text fill="#FFFFFF" style="font-size:3px; font-family:Arial" x="167" y="285">Min: 6.0 km</text><text fill="#FFFFFF" style="font-size:3px; font-family:Arial" x="167" y="290">Max: 10.0 km</text><polyline fill="none" points="16.8145985401934,57.92202825090499 18.17624419380445,58.67624005097605 18.92156602529576,58.357795506643015 21.100199071050156,58.67624005097605 21.716522893228102,58.273994204442715 21.773855341773015,57.77118546012207 24.86980756476987,57.6371028588037 31.11904445925029,57.553301175357774 34.40132714010542,58.240473671088694 35.576642335858196,57.854987028287724 36.09263437293703,54.8213420186803 36.55129396158736,54.167676095006755 37.95593895157799,54.419086384848924 39.37491705385037,54.26824025879614 41.410218978184275,54.46936839490081 45.36615792970406,53.078226895595435 48.59110816195607,51.4188975658617 51.7730590577703,51.20100454473868 54.826011944387574,50.31266835695715 55.600000000034925,49.960684715988464 55.32767086930107,50.09477381427132 55.170006635715254,49.32375994902395 54.7973457199987,49.64222265261924 53.349701393570285,50.044490415704786 47.77412076975452,50.83226182620274 44.076177836803254,52.810053635927034 41.88321167882532,53.49724670505384 39.58991373592289,53.6648543185147 37.15328467154177,53.26259574832511 36.1786330458126,53.329638914292445 34.96031851368025,54.40232571128581 34.64499004650861,56.93316734029213 32.69568679499207,57.25161474796187 32.781685467867646,57.0672505373077 32.19402787002036,56.732042331961566 31.778367617807817,55.82697663488216 30.990046449936926,55.475005245316424 30.00106171204243,55.709652925259434 29.356071665592026,56.63147973208106 28.32408759125974,56.79908402977162 27.464100862678606,56.815844449811266 27.04844061046606,56.54767751667532 23.823490378214046,56.614719292512746 23.522495023265947,55.87725819814659 23.350497677573003,55.87725819814659 18.96456536167534,56.765563184409984 16.083609820867423,56.21246821204841 12.442999336461071,54.905145147116855 12.400000000023283,54.620214329406735 13.087989382911474,54.48612906136259" stroke="#4dd2ff" stroke-linecap="round" stroke-linejoin="round" stroke-width="0.5"><title>2023-05-14 6.3km</title></polyline><polyline fill="none" points="89.68584972567623,75.36901362668141 90.12604156963062,75.35124543090933 88.95725632883841,74.71158912638202 89.2911949690315,74.80043042599573 89.5188804055797,74.48060152647668 89.4126272018766,75.29794083228626 89.68584972567623,75.12025871414517 90.71802370453952,75.60000000000582 91.59840739244828,75.56446365563897 91.8564508871641,74.32068684743717 91.7350186543772,72.29508768278174 92.34217981842812,71.44219648688158 92.29664273111848,70.9979806002957 96.01550486090127,68.19050891313236 97.13875301438384,67.08882993648876 98.45932854618877,65.24083600594895 99.44596543768421,62.30888066945772 99.7799040779937,56.00056010237313 100.08348465996096,55.68069525704777 100.06830563087715,54.20575500112318 100.72100388223771,52.108829595614225 102.6790986363776,48.821224130733754 106.09438018413493,45.60463947842072 107.43013474502368,43.50760622379312 108.91767959692515,36.64763575306279 111.04274367116159,32.40000000000873 108.97839571337681,36.4165955792414 107.77925241435878,42.15696071284765 107.12655416299822,44.04075276454387 105.76044154388364,45.97783755551791 103.46840814966708,47.93267101922538 102.07193747232668,49.6031469637237 100.84243611502461,51.7001037854061 100.20491689280607,53.832575284235645 100.03794757270953,54.7566378233023 100.22009592188988,55.76954666431993 102.02640038501704,55.66292496993265 104.18182251736289,55.89393855516391 105.32024969998747,55.64515468092577 106.82297358097276,55.911708817773615 107.93104270537151,55.76954666431993 108.40159260749351,56.01833035355958 108.59891998581588,56.83575987002405 108.3864135784097,57.653185391565785 105.35060775815509,60.47860370919807 104.78898368141381,61.455938558399794 104.56129824486561,62.89527584797179 105.07738523429725,64.97429673522129 99.7799040779937,71.95748543765512 97.48787068371894,74.51613810106937 97.12357398524182,74.51613810106937 92.37253787659574,71.35335340388701 91.76537671254482,72.4194672855665 91.977883119951,74.14300369149714" stroke="#4dd2ff" stroke-linecap="round" stroke-linejoin="round" stroke-width="0.5"><title>2023-05-09 7.6km</title></polyline><polyline fill="none" points="155.66854724887526,75.58213628859085 155.18020679388428,75.29631664852786 155.72958980576368,74.83185869759473 156.9199196647969,75.60000000000582 157.40826011978788,75.54640886020206 157.62190906889737,74.3138079315977 157.4387813982321,72.49168566569278 158.06446760625113,71.43770397141634 157.9881644101697,71.09828473173548 161.71176037954865,68.29358374753792 164.0313775408431,65.50670077522227 165.1759254821809,62.30887431440351 165.52692018420203,55.84157574182609 165.84739360777894,55.466393329712446 165.7558297725045,54.57309850306774 166.33573406288633,52.393439209627104 167.9228405415779,49.481227371041314 171.87534609925933,45.51482091179059 173.38614938192768,42.94196668792574 174.69856435467955,36.616866006166674 176.81979320611572,32.40000000000873 174.65278243710054,36.72407308506081 173.4624525780091,42.58462270945893 172.8978089269367,43.96039285956067 171.52435139718,45.90789239553851 167.9381011808291,49.391894922198844 166.41203725890955,52.143312565473025 165.7558297725045,54.555232558152056 165.95421808230458,55.18053950149624 165.51165954506723,56.02023373900738 165.28274995676475,61.77291979607253 164.18398393294774,65.27445844300382 163.40569133282406,66.50712561696128 162.00171252462314,68.02561623763177 158.07972824544413,71.08042054229008 157.54560587281594,70.88391433274955" stroke="#4dd2ff" stroke-linecap="round" stroke-linejoin="round" stroke-width="0.5"><title>2023-05-04 6.1km</title></polyline><polyline fill="none" points="13.71252813207684,110.13810546488094 14.150037509389222,105.26866073034762 14.27966991753783,104.92760516637645 14.636159039800987,104.88971006356587 14.295873968512751,104.73812957243354 14.214853713463526,103.99917284111143 14.652363090775907,98.33373662222584 15.025056264072191,98.10635751536756 16.386196549166925,98.37163311196491 18.46031507878797,98.33373662222584 21.263615904026665,99.35693903113133 22.478919729939662,99.5274721977039 22.884021005302202,97.2157865674526 22.608552138030063,96.55259255960118 21.393248312117066,96.59048942614754 20.793698424648028,95.94624160337844 18.995048762240913,96.04098407563288 18.31447861972265,95.7378079880873 17.471867967105936,96.05993256405054 16.369992498250213,96.05993256405054 14.31207801954588,94.99881412483228 13.339834958780557,95.18830002144387 12.400000000023283,94.79037940700073 12.416204051056411,95.5862197518727 13.43705926486291,95.75675650856283 13.615303825994488,95.03671132022282 14.393098274595104,95.09355709822557 16.1755438860273,96.05993256405054 17.617704426171258,96.3252111915499 18.57374343596166,96.07888105044549 19.140885221306235,96.66628313530236 23.46736684179632,98.20109884496196 25.49287321837619,98.63690831568965 26.0762190548121,98.71270115891821 26.93503375852015,98.31478837435134 28.166541635466274,98.63690831568965 29.705926481692586,98.31478837435134 30.467516879260074,98.48532253307349 31.11567891977029,98.2200471048418 31.844861215387937,98.54216721661214 35.28012003004551,98.42847783154866 36.38199549890123,98.76954577027936 38.034808702243026,98.63690831568965 38.650562640686985,98.20109884496196 40.12513128283899,98.20109884496196 40.62745686422568,98.65585652952723 42.490922730765305,99.09166489378549 43.933083270909265,98.8074421677884 44.17614403605694,97.40527011871745 43.96549137291731,96.87471567012835 44.273368342081085,95.9841385983018 45.71552888228325,94.7335335327225 51.01425356348045,95.13145427354902 53.26661665429128,94.69563627321622 55.243510877829976,93.86189453511906 55.600000000034925,94.56299580175255 54.01200300088385,95.32094002982194 51.22490622662008,96.0030870927003 48.97254313592566,96.1167780172691 45.92618154542288,95.83255057054339 45.4886721681105,96.40100501294364 45.34283570898697,98.31478837435134 44.9215303825913,99.8306418707507 43.333533383440226,100.38013559508545 39.946886721707415,99.56536843489448 27.874868717219215,99.81169378114282 25.07156789203873,99.39483530441066" stroke="#4dd2ff" stroke-linecap="round" stroke-linejoin="round" stroke-width="0.5"><title>2023-04-26 7.0km</title></polyline><polyline fill="none" points="88.28839412808884,122.18774180673063 88.50909021863481,123.41055144442362 88.30310720083071,122.9110951006005 88.45023792778375,123.16943478083704 90.06867592514027,123.60000000000582 91.12801715981914,123.066098958152 91.67240084987134,121.7743956187478 91.83424464950804,121.70550448501308 92.12850610370515,122.17051906992856 92.77588130260119,122.11885084856476 93.20256041100947,121.29215706788818 93.0260035385727,119.05317358249158 93.64395259210141,118.00256298347085 93.4821087923483,117.7442150722054 97.96959596691886,114.16174827647046 99.45561631000601,112.18102352273127 100.48553139914293,108.90846874334966 100.73565363511443,103.55167073878692 100.85335821675835,102.87990544499189 101.13290659809718,102.70765748538543 100.95634972571861,102.03588869435771 101.41245497949421,100.1239161301346 103.10445834044367,96.95447049535869 104.35506952018477,95.47307791576895 106.59145657107001,93.47489903707174 107.91563311440405,91.59727747106808 108.44530373177258,90.32254951717914 109.78419334773207,83.96598616198753 111.71160587191116,80.40000000000873 109.66648876608815,84.60337638904457 108.54829524067463,90.02970519282098 107.97448540525511,91.61450345588673 106.1794905354036,94.00889752844523 103.3398675036151,96.60996180117945 101.57429877924733,99.79663928679656 101.05934123462066,101.9153145141172 101.14761967083905,102.87990544499189 100.82393207133282,103.3105245433253 100.48553139914293,109.5285368259938 99.4997555281152,112.26714249337965 97.24865540442988,115.02292540535564 93.65866566478508,117.76143827909254 93.71751795569435,118.05423251635511 93.29083884722786,118.76038114889525" stroke="#4dd2ff" stroke-linecap="round" stroke-linejoin="round" stroke-width="0.5"><title>2023-04-17 6.5km</title></polyline><polyline fill="none" points="144.64980724744964,111.6686625314178 144.40000000002328,111.45446360987262 144.40000000002328,110.8702834664 145.4658442559885,97.55047325933992 145.74895913648652,96.63518775696866 147.0146491904161,96.98572316790523 147.73076329985633,96.77150716273172 149.412798766396,96.9078264675918 152.710254433332,98.03732539591147 153.2431765613146,97.881532852276 155.4747879722272,98.71891622390831 155.6246723207296,99.24471313843969 156.39074787974823,99.45892626566638 157.45659213571344,99.04997371559148 159.82143407867989,99.40050452844298 160.3543562067207,99.12786950942245 161.30362374708056,99.73156079434557 162.4860447186511,99.55629578657681 164.23469545104308,99.84840404019633 165.28388589055976,99.34208277260768 165.23392444103956,98.97207788875676 165.60030840401305,98.9526039268676 165.9000771009596,99.6731391436333 166.86599845794262,99.75103467381268 167.78195836546365,99.47840017393173 168.7145720894332,99.71208691285574 169.8803392444388,99.0889216165815 169.94695451034931,99.65366525591526 170.23006939084735,99.84840404019633 170.996144949866,99.6731391436333 171.51241326134186,98.71891622390831 173.81063993828138,99.55629578657681 173.79398612183286,98.99155184853589 175.19290670775808,99.04997371559148 176.7417116421857,98.44628019553784 177.35790285264375,94.70723106518562 177.8075558982091,94.27879350265721 178.40709329216043,94.08404882637842 180.7885890516336,94.59038455608243 181.30485736310948,94.376165763475 183.51981495757354,94.51248684221355 184.90208172705024,94.22037012138753 187.60000000003492,93.07137318859168 187.2169622204965,92.3313374685822 185.00200462597422,93.18822066187568 182.5372397840256,93.5971862343431 177.47447956824908,93.1297969344887 175.9423284502118,94.45406353508588 175.6758673862787,95.42778289892885 175.9423284502118,96.01201204492827 175.5759444872965,97.35573204423417 173.81063993828138,97.66731788952893 172.92798766389024,97.49205091643671 171.82883577485336,96.75203296811378 170.16345412487863,96.71308457262057 169.49730146490037,97.14151646963728 168.03176561294822,97.29730963949987 166.83269082498737,97.00519733784313 163.00231303012697,97.04414567146159 162.71919814957073,96.28465167853574 162.88573631452164,96.16780617072072 164.95080956054153,96.0704348575673 165.91673091752455,96.82992973433284 165.76684656902216,96.98572316790523 162.1696222050232,97.00519733784313 162.21958365454338,96.47939402674092 161.93646877404535,96.30412592263019 157.073554356175,97.1804647744284 154.34232845023507,96.63518775696866 149.6126445644186,94.8046030994592 148.9797995373956,94.82407750010316 148.74664610641776,94.57091013072932 149.44610639935127,94.23984458383347 150.17887432541465,94.59038455608243 152.0107941402821,94.4930124085513 152.51040863530943,95.07724452130788 152.91010023129638,95.07724452130788" stroke="#4dd2ff" stroke-linecap="round" stroke-linejoin="round" stroke-width="0.5"><title>2023-04-07 7.0km</title></polyline><polyline fill="none" points="12.400000000023283,155.0258182387479 12.552590266917832,151.2589959337929 12.959497645322699,149.33590482798172 16.791208791313693,149.71259433066007 20.724646781920455,150.82283267097955 21.063736263778992,150.0892830761586 25.370172684488352,151.04091442926438 38.40816326532513,150.82283267097955 42.91805337520782,151.73480924459 44.47786499210633,151.2589959337929 45.08822605962632,147.5912277833413 45.57990580849582,146.97662177387974 48.614756671886425,147.29383803044038 49.20816326531349,147.07575191179058 51.361381475639064,147.21453401668987 55.600000000034925,145.7474037080101 55.34568288852461,144.97418176126666 50.8866562009207,146.3025354458223 48.90298273152439,146.3421876499051 45.29167974885786,145.82670834263263 43.76577708002878,147.21453401668987 43.37582417583326,150.16858587349998 41.78210361069068,150.46597106459376 40.62919937208062,150.2677143229521 39.2558869702043,149.45485948957503 37.74693877552636,149.49451102665626 37.17048665625043,149.91085165950062 35.71240188385127,150.00998024528963 34.76295133441454,150.00998024528963 34.30518053373089,149.71259433066007 30.761695447436068,149.8315487531654 30.405651491426397,149.6729428397084 30.066562009451445,148.919562917843 24.590266875980888,149.93067738087848 21.691051805391908,149.4152079440828 16.536891679861583,147.511923895363 12.789952904335223,147.71018355233537 12.688226059719454,146.3421876499051 14.366718995384872,147.25418602771242 16.943799058150034,147.39296800055308" stroke="#4dd2ff" stroke-linecap="round" stroke-linejoin="round" stroke-width="0.5"><title>2023-04-04 6.0km</title></polyline><polyline fill="none" points="121.59999999997672,165.73523884692986 120.37059288541786,165.75520575184783 117.21169960475527,164.71692389738746 116.78482213435927,165.03639584560005 115.16268774704076,164.99646188160114 111.54276679846225,165.61543737334432 109.8864822134492,165.61543737334432 108.96442687750096,164.93656091979938 107.70086956524756,162.24099796335213 105.42988142301328,160.40399966781843 104.81517786561744,160.24425984057598 104.50782608694863,159.68516938046378 101.2635573122534,159.0661744390818 98.48031620547408,157.688404216271 97.79731225292198,156.13091272173915 97.64363636355847,154.4535998134961 96.84110671939561,153.2754782622942 95.20189723325893,152.99592291620502 91.03557312249904,153.754715034971 90.07936758891447,153.5750013878569 86.88632411067374,151.19877151674882 87.09122529643355,150.26025231627864 85.8618181818747,147.54451088681526 85.52031620545313,147.34482247436245 85.50324110669317,146.52609777376347 84.9568379446282,145.88709066111187 84.83731225301744,145.10829781657958 84.58118577074492,144.7488538811158 83.6420553359203,144.42934758581396 83.07857707509538,143.5307332295779 82.90782608697191,143.17128628882347 83.5396047430113,142.85177732208103 80.20996047434164,137.77950000033889 78.40000000002328,134.2048604447191 80.00505928852363,137.459981902648 84.41043478262145,144.32950175754377 84.2738339920761,144.64900822193886 85.45201581023866,146.40628410501813 85.4349407114205,147.44466670700058 85.89596837945282,147.68429264985025 87.10830039525172,150.38006353795936 86.81802371540107,151.118897724009 87.39857707510237,151.35851900088892 87.84252964425832,152.01747594347398 90.04521739133634,153.51509680080926 90.8477470355574,153.69481050492323 95.18482213438256,152.99592291620502 96.78988142294111,153.3553511422797 97.59241106716217,154.3138230648765 97.71193675888935,155.93123339535668 98.46324110677233,157.688404216271 100.85375494073378,158.94636873203854 104.49075098818867,159.70513692541863 104.95177865610458,160.3640647236898 105.34450592880603,160.3640647236898 107.70086956524756,162.24099796335213 108.98150197631912,164.7368909100187 109.90355731226737,165.6354042908788 111.21833992103348,165.75520575184783 114.39430830039782,164.976494896473 115.26513833989156,165.4756688913185 115.76031620561844,165.03639584560005 116.76774703559931,164.99646188160114 117.02387351775542,164.65702284689178 120.02909090911271,165.79513955526636 121.12189723324263,165.69530503089481" stroke="#4dd2ff" stroke-linecap="round" stroke-linejoin="round" stroke-width="0.5"><title>2023-03-18 7.0km</title></polyline><polyline fill="none" points="183.83410138258478,158.09963714423066 182.3741935485159,157.90564232613542 179.60368663602276,156.99386393213354 177.61290322587593,157.5370516063267 177.19815668213414,157.18785971474426 173.76405529963085,158.0026397608599 172.70230414753314,157.94444130617194 171.60737327195238,157.03266310501203 170.09769585262984,154.1227023521933 168.37235023046378,152.2021029576863 167.21105990780052,151.75590021860262 163.47834101389162,151.25149581478036 161.47096774197416,150.16508161678212 160.67465437797364,148.45784629961418 160.42580645164708,146.6147903293022 159.76221198163694,145.81936045036127 158.45161290332908,145.56715025597077 153.77327188948402,146.2655776367028 151.5004608295858,144.7717158318701 148.39815668202937,144.86872021472664 148.1327188940486,143.27784185495693 148.08294930879492,144.90752195342793 145.47834101383341,145.08212967624422 144.40000000002328,141.9003628557548 145.27926267287694,144.7717158318701 145.71059907833114,145.1597330552322 150.8866359447129,144.732914064356 151.60000000009313,144.90752195342793 153.17603686638176,146.0521695526695 154.1050691244891,146.28497835928283 158.60092165903188,145.64475342966034 159.82857142866123,145.97456655134738 160.47557603690075,146.80879709339933 160.6580645161448,148.45784629961418 161.33824884792557,150.08748035626195 163.52811059908709,151.32909658263088 167.128110599122,152.0275020152185 167.62580645171693,152.7065047465585 168.18986175121972,152.82290496230416 170.34654377884,154.5300996376318 171.65714285720605,157.01326351957687 172.4534562212648,157.94444130617194 174.52718894020654,158.08023767166014 175.45622119819745,157.6146497142472 177.89493087568553,157.16846014569455 179.23870967747644,157.30425708580879 179.4211981567205,157.03266310501203 182.73917050700402,158.09963714423066 187.60000000003492,157.90564232613542" stroke="#4dd2ff" stroke-linecap="round" stroke-linejoin="round" stroke-width="0.5"><title>2023-03-12 6.0km</title></polyline><polyline fill="none" points="22.360573165351525,206.412063902113 22.416847590124235,200.46784093142196 24.367694311775267,200.48977564681263 27.612852800637484,201.32329311044305 29.394876248319633,200.79686141792627 30.126443768967874,198.5814467313612 30.25775075983256,196.6292300117202 30.82049500651192,196.01504566967196 34.065653495374136,196.47568409676023 34.68467216670979,196.16859192574339 37.742249240051024,196.21246226376388 40.85610073816497,195.2253774136625 46.31471993052401,192.4834503949969 52.56118106818758,191.6279617433902 55.59999999997672,190.4873047167348 55.431176726007834,190.61891930935963 55.13104646105785,190.0924604376778 55.18732088571414,189.58793609790155 54.17438124178443,190.15826786977414 51.566999565809965,190.8163410415582 50.441511072567664,190.86021251206694 50.178897090721875,190.531176256889 46.68988276156597,191.16731254576007 44.38263135030866,192.0228030981816 40.57472861476708,194.19441710850515 37.779765523271635,195.0718304590555 34.36578376032412,195.313118479462 31.645853234804235,194.80860684379877 30.295267043053173,194.85247746951063 28.757099435431883,196.16859192574339 28.40069474594202,197.17760735124466 28.513243595254607,198.18661786639132 27.687885366845876,198.18661786639132 27.08762483706232,198.75692598561 26.956317846197635,199.61238522319763 26.337299174978398,199.89753751811804 25.099261832423508,199.43690669299394 24.64906643505674,198.25242272943433 23.50481980026234,197.66017821020796 22.210508033051156,198.03307310472883 21.497698653838597,199.151753764585 19.959531046450138,199.43690669299394 18.815284411539324,199.45884151737846 18.42136343906168,199.12981890767696 12.681372123304754,199.0859491869196 12.400000000023283,198.84466555697145 12.812679114169441,198.36209745472297 15.889014329062775,198.14274794605444 16.245419018669054,199.26142801417154 17.764828484505415,199.151753764585 19.021623968728818,198.34016251430148 20.184628745075315,198.4279022621049 20.728614850202575,197.76985324877023 21.366391663090326,197.7479182457173 22.39808944845572,198.86660044404562 23.78619192354381,198.8007957758964 24.611550151952542,199.48077633942012 26.3185410334263,199.9414070671337 28.213113330421038,199.6781896337343 28.70082501077559,198.0769430481887 28.757099435431883,199.52464597662038 28.10056448110845,200.05108089908026 25.699522362207063,199.72205922917055 25.118019973975606,199.45884151737846 24.461485019535758,198.0988780165062 20.859921841067262,197.04599692195188 19.959531046450138,197.26534759091737 17.72731220140122,199.0859491869196 16.601823708158918,199.06401432311395 16.020321320043877,198.20855282302364 16.545549283502623,197.87952822940133 17.46469821978826,197.87952822940133 18.233782023424283,198.55951181416458 20.109596178866923,198.4279022621049 20.953712548711337,197.83565824411926 21.741554494132288,198.4717721220659 22.435605731559917,198.01113812952826 23.654884932679124,197.76985324877023" stroke="#4dd2ff" stroke-linecap="round" stroke-linejoin="round" stroke-width="0.5"><title>2023-02-05 7.1km</title></polyline><polyline fill="none" points="78.91341256373562,204.74707048821438 79.30458404077217,201.21642437162518 79.58573853998678,201.11636423056189 81.61494057730306,201.4451329873409 82.33616298815468,201.33077872787544 84.2431239389116,202.14555071482027 85.06213921908056,202.2313159013138 85.45331069611711,200.5302962018468 85.1599320883397,199.9442256311304 84.3164685908705,199.95852006557107 83.91307300515473,199.55827533047704 81.63938879460329,199.7583978462062 80.28251273347996,199.52968637546292 79.64685908326646,199.04367321467726 78.48556876066141,198.82925508797052 78.40000000002328,199.70122001480195 78.48556876066141,198.87213874052395 78.9011884550564,198.84354964032536 79.12122241099132,199.01508415077114 79.09677419357467,199.6154532223154 79.32903225813061,199.98710892981035 82.18947368429508,199.7583978462062 85.39219015283743,201.05918697381276 87.50696095085004,201.5594871500216 88.80271646869369,201.34507301561825 89.63395585742546,201.67384121593204 90.5018675721949,201.60236993606668 91.51646859088214,201.8024894243572 93.97351443133084,201.41654443152947 95.85602716472931,201.6595469629683 96.91952461807523,201.5594871500216 97.23735144321108,201.2593072665768 98.4475382004166,201.2307186714752 98.8753820034326,201.60236993606668 99.88998302217806,201.93113751037163 101.06349745334592,201.84537213330623 101.405772495782,201.5880756755796 101.39354838710278,200.2015252191195 101.62580645165872,199.55827533047704 102.57928692700807,198.67201491212472 106.01426146016456,198.986495080826 107.83565365022514,198.7434877420019 109.30254668934504,198.24317713888013 113.06757215620019,196.35627476638183 117.19932088290807,195.8988399196096 120.92767402384197,194.21203553685336 121.56332767399726,193.05413220249466 121.24550084886141,191.25292951180018 121.60000000003492,192.9826563627721 121.46553480473813,193.4258059591957 121.28217317489907,193.8546590233309 119.76638370123692,194.7695410103188 119.52190152805997,195.169799931522 118.5561969440314,195.22697968060675 117.46825127338525,195.79877584043425 115.58573853992857,196.18473688032827 114.52224108664086,196.0989678556216 112.68862478778465,196.42774882125377 109.2780984720448,198.20029328665987 107.70118845498655,198.72919317908236 105.35415959259262,198.94361146453593 102.71375212224666,198.58624746635905 101.52801358239958,199.50109741438064 101.19796264858451,199.21520747103204 101.56468590832083,199.6440421592124 101.36910016980255,200.13005316046474 101.51578947372036,200.68753421516158 101.29575551784365,200.9305380576261 101.38132427848177,201.41654443152947 101.11239388794638,201.75960670184577 99.97555178269977,201.93113751037163 98.60645161295542,201.41654443152947 98.49643463501707,201.18783576748683 97.28624787775334,201.20213007031998 96.77283531415742,201.51660435032682 95.75823429547017,201.60236993606668 95.15925297117792,201.60236993606668 94.84142614604207,201.38795586972265 92.24991511041299,201.45942726296198 90.8563667233102,201.2736015618575 89.34057724958984,201.50231008075934 88.66825127339689,201.28789585565391 87.71477079804754,201.54519288497977 85.90560271654977,201.18783576748683 82.09168081497774,199.81557565341063 81.24821731756674,199.6869255531783 79.31680814939318,199.97281449844013 79.07232597627444,199.47250844727387 79.2556876061717,198.95790600481268 80.27028862480074,199.58686427945213 81.38268251274712,199.81557565341063 83.85195246181684,199.55827533047704 84.21867572161136,199.95852006557107 84.78098471992416,200.00140335966717" stroke="#4dd2ff" stroke-linecap="round" stroke-linejoin="round" stroke-width="0.5"><title>2022-12-15 10.0km</title></polyline><polyline fill="none" points="144.40000000002328,203.79152906956733 144.78148599271663,198.6077246878267 147.92545676010195,198.8230792907998 148.3332521315897,199.0999633117026 151.00365408044308,199.71525924821617 151.42460414132802,197.9308938592003 151.31936662609223,197.37712083788938 150.1749086480122,197.30020775151206 149.78026796597987,196.79258036069223 148.35956151032588,196.85411104788363 147.80706455541076,196.5926054474112 146.9125456760521,196.91564170905622 145.97856272844365,196.85411104788363 144.70255785633344,196.11574108280183 144.57101096230326,196.82334570751118 144.8867235079524,197.31559037201805 147.83337393432157,196.8694937156397 148.2806333740009,197.40788606110436 151.5693057247554,198.54619474269566 153.79244823387126,199.0076686966495 154.98952496959828,198.74616696921294 156.04190012183972,199.08458087990584 158.58075517666293,199.11534574184043 159.97515225334791,199.03843357485312 160.55395858711563,198.7769319027284 162.6455542022013,199.08458087990584 163.68477466510376,199.0076686966495 164.1714981730329,198.63848965064972 165.3948842874961,198.63848965064972 165.71059683320345,198.961521367135 166.80243605363648,199.1922578681406 167.10499390988844,199.51528835443605 167.42070645553758,199.14611059725576 168.0652862363495,199.28455236599257 168.49939098657342,199.11534574184043 168.7887941535446,196.85411104788363 169.959561510419,195.8234686024225 172.6694275274058,196.1618893154955 174.90572472597705,196.05421008310805 176.83946406823816,195.54657834226964 180.65432399517158,193.54679969561403 185.7451887942152,192.8545622172096 187.27113276498858,192.20847093041812 187.45529841660755,192.90071148499555 187.60000000003492,192.8545622172096 186.17929354449734,193.40835246365168 181.8119366626488,193.93137464842584 176.72107186360518,196.23880300400197 174.81364190013846,196.76181500728126 172.57734470168361,196.90025904623326 170.24896467727376,196.57722275040578 169.85432399512501,197.0387029533158 169.77539585874183,198.36160475102952 169.3149817296071,199.9613768938725 168.6309378806618,200.22287643584423 168.0389768574969,200.3766994761827 165.13179049943574,199.66911214329593 162.44823386118514,199.71525924821617" stroke="#4dd2ff" stroke-linecap="round" stroke-linejoin="round" stroke-width="0.5"><title>2022-12-12 7.2km</title></polyline><polyline fill="none" points="13.73025404161308,255.8676470603823 13.663741339521948,255.4593520942144 12.483140877622645,255.3038109162153 12.400000000023283,254.73997304287332 12.832332563586533,251.82354264402238 12.832332563586533,249.14038581270142 13.09838337189285,248.57652903506823 12.948729792202357,246.51552058111702 13.314549653674476,242.19899403296586 13.663741339521948,240.56568728288403 13.946420323336497,240.77957351648365 17.25542725174455,240.66290832898812 21.512240184820257,241.98510945106682 21.92794457275886,239.20458723732736 21.71177829109365,239.8462499431771 22.01108545041643,240.31291232224612 25.419861431932077,241.0906803210819 30.724249422724824,239.982359926129 32.520092378836125,239.94347136984288 33.53441108542029,240.44902195961913 34.08314087765757,240.11846980829432 36.327944572782144,240.17680258408654 37.00969976908527,239.55458535457728 38.02401847584406,240.06013701399206 39.30438799079275,239.6129183093435 40.268822170910425,240.0406927451404 40.70115473441547,241.16845693996584 41.89838337188121,241.53789543008315 43.57782909926027,241.1879010895209 43.860508083191235,239.72958416325855 43.66096997697605,238.990699170914 43.97690531180706,238.21292228571838 45.00785219395766,237.18236284313025 46.022170900716446,236.96847242336662 48.94872979214415,237.4351421092142 50.877598152379505,237.4351421092142 53.022632794454694,237.02680619888997 55.2840646650875,236.1323529396177 55.600000000034925,236.81291559814417 53.770900692848954,237.66847650773707 51.326558891450986,238.29070012235024 48.799076212453656,238.4462556968938 45.689607390319,238.09625546907773 45.22401847579749,238.64069997992192 44.60877598152729,242.21843807352707 43.29515011544572,242.70453841901326 38.58937644347316,241.9073331777472 25.951963048544712,242.16010594564432 22.160739030048717,241.36289834311174 21.695150115527213,244.31838234717725" stroke="#4dd2ff" stroke-linecap="round" stroke-linejoin="round" stroke-width="0.5"><title>2022-10-28 6.2km</title></polyline></svg>