<?xml version="1.0" encoding="utf-8" ?>
<svg baseProfile="full" height="300mm" version="1.1" viewBox="0,0,200,300" width="200mm" xmlns="http://www.w3.org/2000/svg" xmlns:ev="http://www.w3.org/2001/xml-events" xmlns:xlink="http://www.w3.org/1999/xlink"><defs /><rect fill="#222222" height="300" width="200" x="0" y="0" /><text fill="#FFFFFF" style="font-size:12px; font-family:Arial; font-weight:bold;" x="10" y="20">Over 5km Runs</text><text fill="#FFFFFF" style="font-size:4px; font-family:Arial" x="10" y="280">ATHLETE</text><text fill="#FFFFFF" style="font-size:9px; font-family:Arial" x="10" y="290">fengde</text><text fill="#FFFFFF" style="font-size:4px; font-family:Arial" x="120" y="280">STATISTICS</text><text fill="#FFFFFF" style="font-size:3px; font-family:Arial" x="120" y="285">Number: 45</text><text fill="#FFFFFF" style="font-size:3px; font-family:Arial" x="120" y="290">Weekly: 1.5</text><text fill="#FFFFFF" style="font-size:3px; font-family:Arial" x="141" y="285">Total: 272.4 km</text><text fill="#FFFFFF" style="font-size:3px; font-family:Arial" x="141" y="290">Avg: 6.1 km</text><text fill="#FFFFFF" style="font-size:3px; font-family:Arial" x="167" y="285">Min: 5.0 km</text><text fill="#FFFFFF" style="font-size:3px; font-family:Arial" x="167" y="290">Max: 10.0 km</text><polyline fill="none" points="12.5643153526471,47.0175336719185 14.917012448131572,47.41054976218584 23.252282157656737,47.240242942898476 25.862655601638835,47.790464130557666 26.82614107884001,47.384348728330224 27.22946058085654,44.97382989604375 27.587966804974712,44.567705256762565 29.70539419085253,44.869023665021814 29.91825726139359,44.73801575152902 31.430705394188408,44.790418933538604 33.29045643151039,44.2401844161941 36.93153526971582,42.445354829011194 38.5,42.209535869442334 36.85311203316087,42.445354829011194 34.13070539414184,43.8471582640268 31.721991701226216,44.64631012958853 29.77261410781648,44.65941093688889 29.671784232370555,44.869023665021814 27.54315352701815,44.60700769940013 27.184647302841768,45.00003143993672 27.128630705352407,46.048088649746205 26.747717842285056,47.476052322665055 25.694605809112545,47.790464130557666 23.29709543567151,47.2009413359483 15.342738589155488,47.384348728330224 14.087966804974712,47.30574559341767 11.5,46.781723419058835" stroke="#4dd2ff" stroke-linecap="round" stroke-linejoin="round" stroke-width="0.5"><title>2023-07-10 5.0km</title></polyline><polyline fill="none" points="45.888253953075036,58.156631751247915 44.88602299953345,57.226671682772576 45.09380258747842,57.51281392603414 44.849356013466604,57.77034142530465 45.08158025878947,57.92771909919975 45.362693818926346,57.8847979336424 46.82937326305546,58.5 48.0149391470477,57.727420209601405 48.210496406361926,57.06929318991024 48.74827886914136,57.11221461529203 49.200505031156354,56.33962686636369 49.1393933876534,54.408138109371066 49.64050886442419,53.7643023696437 53.27054048876744,56.26809073956974 53.69832199328812,56.196554574766196 53.99165788211394,55.86748772750434 53.82054528029403,55.466883524204604 54.85944321990246,54.69428633931966 55.10388979391428,54.33660095691448 55.10388979391428,53.77860986397718 55.67833924287697,53.19200135100982 56.35056732146768,51.97585361350502 56.87612745561637,51.68969960902177 57.145018687064294,50.90277296229033 58.31836224242579,49.72952833445743 58.709476760879625,49.58644902218657 59.05170196451945,48.7995100881526 59.65059607086005,48.35596066300059 59.28392620984232,46.939454331295565 59.60170675604604,45.708941790348035 60.01726593193598,44.95059706737811 62.14395112596685,43.004636355428374 62.730622903618496,41.96010172984097 62.66951126011554,38.110993247741135 62.950624820252415,35.406535238653305 63.378406324773096,34.462108535459265 64.85730809764937,32.501686506628175 65.1506439865334,31.57154928331147 64.05063440342201,31.5 63.85507714416599,31.857746036315802 64.01396741729695,32.515996259855456 63.45174029702321,33.11700452325749 63.58618591277627,33.66077159297129 63.158404408197384,33.78955820892588 62.58395495917648,34.977251194708515 61.789503593579866,35.76427089658682 61.80172592232702,36.451120695783175 60.87282894103555,37.16658551141154 60.3106018207618,38.912303709061234 61.05616387154441,39.2127939027996 60.87282894103555,40.58645482179418 62.59617728792364,40.58645482179418 62.8039568758104,41.65961766592227 62.59617728792364,42.360746105608996 61.691724964010064,43.4625119936245 60.8606066123466,43.64852352695016 60.89727359841345,44.13501401501708 59.60170675604604,45.55154984050023 59.30837086722022,47.239926616151934 59.71170771442121,48.29872837277071 59.039479635772295,48.7995100881526 58.709476760879625,49.58644902218657 57.62168950645719,50.330459786287975 56.92501677048858,51.53231464744022 56.362789650214836,51.93293055155664 55.07944513653638,53.79291735676816 54.896110206027515,54.622749338828726 53.89387925254414,55.42396157463372 53.85721226641908,55.69580035767285" stroke="#4dd2ff" stroke-linecap="round" stroke-linejoin="round" stroke-width="0.5"><title>2023-07-06 6.0km</title></polyline><polyline fill="none" points="74.40263691684231,47.273529981976026 76.72109533468029,47.54036814050778 82.63590263691731,47.380265330080874 83.73123732249951,47.52969462773035 84.41582150099566,47.84989952030446 85.13691683567595,47.82855255906907 85.84888438135386,47.52969462773035 86.11359026370337,46.473011272231815 86.1501014198875,45.61911764774413 86.42393509129761,45.26688442224986 88.15821501013124,45.4803592511671 88.34077079105191,45.373621893159 89.73732251516776,45.40564311242633 92.12880324543221,44.509045131650055 94.06389452330768,43.51637378711166 96.14503042591969,43.3028948025094 97.91582150099566,42.85458746448421 98.5,42.587736912682885 98.36308316426584,42.55571479904029 98.22616632853169,42.1927968006421 98.31744421907933,42.15010047968826 97.42292089248076,42.55571479904029 96.56490872206632,42.72649928768806 93.64401622716105,43.07874138250918 91.20689655171009,44.40230674605846 89.85598377278075,44.818585811291996 88.2403651115601,44.91464996703871 86.79817444219952,44.65847868176206 86.21399594319519,44.70117394114641 85.44726166327018,45.39496937381773 85.29208924947307,45.90730755391269 85.40162271802546,46.195496636937605 85.3286004056572,46.803893109005 85.01825557806296,47.081406070894445 83.95030425960431,47.081406070894445 83.30223123729229,46.82524028702028 83.11967545637162,46.60109469262534 82.1977687626495,46.63311552229425 81.20283975655911,46.921302532195114 80.58215010142885,46.921302532195114 80.43610547663411,46.76119873941934 78.32758620689856,46.81456669858744 78.13590263691731,46.312906768129324 75.22413793101441,46.89995537449431 73.6450304259779,46.57974746718537 71.5,45.789896950787806" stroke="#4dd2ff" stroke-linecap="round" stroke-linejoin="round" stroke-width="0.5"><title>2023-07-01 6.0km</title></polyline><polyline fill="none" points="115.45773955772165,46.44289783833665 115.72309582302114,47.00142594514182 118.31031941028778,47.63752480941184 119.02678132674191,47.5134081744618 119.72997542988742,47.24965997649997 120.0351351351128,46.380839028483024 120.26068796060281,44.348398493326386 120.67199017194798,43.882950132130645 123.07346437341766,44.14670438483881 123.35208845202578,43.976039922534255 125.67395577387651,43.882950132130645 128.5,42.92101883768919 128.22137592139188,42.362475190573605 124.98402948398143,43.37095522857271 123.16633906628704,43.417500293653575 120.49950859945966,43.04513935929572 119.27886977879098,43.99155488189717 119.00024570024107,44.689726352647995 119.14619164617034,45.1241424792679 118.92063882062212,46.3187801924214 117.3019656019751,46.70664748713898 115.8557739557582,45.884367604448926 114.74127764126752,45.86885284536402 114.10442260437412,46.22569188903435 112.2734643734293,46.33429490387789 111.72948402946349,46.101574059270206 108.83710073702969,46.132603526551975 108.37272727268282,45.54304252550355 104.40565110562602,46.256721330064465 103.45036855037324,46.16363298727083 102.07051597046666,45.83782332230476 101.5,45.294805605502916 101.76535626529949,43.80537526161061 102.49508599506225,43.86743516130082 102.40221130219288,44.937964296826976 102.04398034396581,45.18620182087761 101.8184275184176,46.41186843668402 102.22972972970456,46.59804474799603 105.81203931197524,47.14105763947009 115.08624078618595,46.92385272415413 118.41646191640757,47.622010235791095 119.46461916458793,47.29620381059067" stroke="#4dd2ff" stroke-linecap="round" stroke-linejoin="round" stroke-width="0.5"><title>2023-06-25 5.0km</title></polyline><polyline fill="none" points="135.0640940615558,57.18305231854902 135.45541589544155,57.55523448936583 135.24752617120976,58.01330344271264 135.77336488547735,57.79858381464146 136.5926949752029,58.5 136.98401680903044,58.47137083944108 137.52208433067426,57.82721311812929 137.87671974266414,57.85584241557808 138.09683827421395,57.16873759914597 138.73273625422735,57.082849250829895 139.1362868954311,56.32416646373167 138.9650835931534,54.7495281820884 139.46646469278494,53.86199668061454 141.6187347791274,55.23623652430251 142.26686156645883,54.7495281820884 143.0372764269705,55.021512472318136 143.8810641312739,55.021512472318136 145.71538522763876,52.401851493821596 146.81597788538784,51.70040357331163 147.07278283889173,51.013267376765725 147.61085036047734,50.36907401079952 148.60138375248061,49.6676155103778 148.91933274251642,48.923206578037934 149.62860356649617,48.379212834945065 149.27396815444808,46.73290260236536 149.56745952984784,45.616263345771586 149.89763732725987,45.01499222127313 152.2333395232563,42.86757344743819 152.69803420105018,41.693636717114714 152.58797493524617,38.25766556158487 152.8814663105877,35.136582486884436 154.6668721776805,32.473582886115764 154.9359059385024,31.772031220578356 154.67910098505672,31.5 154.01874539034907,31.5 153.78639805142302,31.81498346834269 154.01874539034907,32.44494819579995 153.4073050248553,33.03195813143975 153.44399144680938,33.704868813671055 153.07712722755969,33.862358062469866 152.612432549824,34.85024096936104 151.74418723088456,35.89538456524315 151.82978888205253,36.42511178499262 150.8147978754132,37.1839066066168 150.30118796840543,38.71580011135666 150.2767303538276,38.987816763299634 150.98600117774913,39.188249734346755 150.83925549004925,40.53400624735514 152.57574612786993,40.67717104284384 152.75917823752388,41.665003986199736 152.49014447676018,42.55261581632658 149.82426448340993,45.229732216583216 149.26173934718827,46.57542839583766 149.67751879565185,48.27900322167261 148.99270558642456,48.837312975141685 148.72367182560265,49.51014473299438 147.57416393852327,50.36907401079952 146.91380834381562,51.457043237707694 146.0577918322524,52.215753421754926 145.44635146681685,53.47548920002009 145.006114403659,53.8763117511844 144.87159752327716,54.592063342177426 143.84437770931982,55.42233042595035 143.92997936048778,55.95198089367477 143.39191183890216,56.352796080405824 142.32800560304895,55.679998481035" stroke="#4dd2ff" stroke-linecap="round" stroke-linejoin="round" stroke-width="0.5"><title>2023-06-21 5.9km</title></polyline><polyline fill="none" points="165.34899277432123,57.088740186198265 165.45749878929928,57.21575418319844 165.1922618636745,57.25809215515619 165.50572368490975,57.58268282581412 165.97591641667532,57.6532459101727 165.83124173001852,58.34476215408358 166.4461091485573,58.5 167.20565125369467,58.27419943692803 168.146036717284,56.94761338054377 168.67651056853356,56.87704992145882 169.08642218093155,56.312540900253225 169.0502535092528,54.39319229043031 169.5566149126971,53.54641203158826 171.5941167504643,54.91537076032546 172.32954640785465,54.44964411582623 173.89685551385628,54.74601580570743 175.63295175437815,52.14921280705312 176.70595568075078,51.40121122470009 177.62222869653488,50.04632971271349 178.65906395128695,49.29831629208638 178.85196353361243,48.64909368324152 179.5391682954505,48.2256859249901 179.15336913091596,46.7014068227727 179.40654983260902,45.37470522179501 181.91424440219998,43.10234510540613 182.50499937287532,42.0861217926431 182.6255616118433,37.188380977502675 182.38443713402376,36.70847735108691 182.43266202951781,36.03096339745389 182.95107965689385,34.56300464287051 184.47016386734322,32.64334179244179 184.8077381363255,31.71173070410441 184.61483855405822,31.5 183.83118400111562,31.627038462960627 183.71062176214764,31.895230374619132 183.8914651205414,32.43161257338943 183.32482259755488,33.01033830587403 183.4092161648441,33.631407018663594 182.96313588082558,33.89959488325985 182.40854958177079,34.98645594854315 181.62489502882818,35.847469440312125 181.7213448199327,36.39795055129798 180.76890313246986,37.146036609628936 180.21431683341507,38.71276923165715 180.19020438560983,38.98094683732779 180.91357781912666,39.22089476243127 180.6603971174336,40.519428955347394 182.4206058057025,40.505314521476976 182.66173028358025,41.62035017639573 182.14331265620422,42.83417581953108 179.82851766882231,45.02185682102572 179.50299962377176,45.642869379604235 179.27393136976752,46.89899954473367 179.63561808661325,48.09866333437094 178.9604695486487,48.60675296813133 178.58672660792945,49.39711075880041 177.62222869653488,50.07455655175727 176.88679903920274,51.274191669828724 175.71734532160917,52.092760004336014 175.1748152464279,53.108906783571 174.5478916040738,53.64520333985274 173.99330530501902,54.717789958944195 172.24515284068184,54.49198296916438 171.71467898937408,54.95770946521952 169.72540204715915,53.588751172690536 169.1346470764256,54.19561071268981 169.23109686758835,56.08673662036017 168.86941015080083,56.862937225188944 168.290711403999,56.94761338054377 167.69995643326547,56.53834479652869 167.00069544749567,56.66535931956605" stroke="#4dd2ff" stroke-linecap="round" stroke-linejoin="round" stroke-width="0.5"><title>2023-06-15 6.6km</title></polyline><polyline fill="none" points="25.681915957742603,71.70439563605032 25.697239911824,71.90148336359562 25.337126990343677,72.34940831192944 25.39076082970132,72.92274879012984 25.82749352173414,74.64274694559572 25.973071085725678,76.28208768815966 26.340845984290354,76.60457721554121 26.486423548310995,77.76015460976487 26.884846355067566,78.90675846356316 26.66264902052353,79.58754716107069 26.877184377983212,80.09813509498781 26.80056460745982,80.5728895365537 26.94614217148046,81.03868376225728 27.122367643692996,81.14617437386187 27.283269161824137,82.49875291790522 27.413522771705175,82.72268768006325 27.321579047071282,84.4424869317154 27.559100335725816,85.31133057650004 27.965185119508533,85.3471589891924 28.14141059172107,87.165431045687 27.727663830883102,87.88198074747925 27.98050907358993,88.14172851849435 27.988171050674282,88.5 27.949861165427137,87.38039659226342 28.14141059172107,87.21917248344835 28.00349500478478,85.3471589891924 27.57442428980721,85.30237347094953 27.30625509293168,84.03941211324127 27.451832656923216,83.83339535460982 27.45949463400757,82.71373030093673 27.329241024097428,82.57041210614989 27.18366346010589,80.92223544586159 27.59741022097296,80.13396571165504 27.260283230658388,77.69744926407293 26.440451685979497,74.88461888587335 26.517071456473786,74.82191141210205 25.86580340701039,71.85669073849567 24.954028137697605,71.22959150059614 25.107267678744392,70.69207417348662 25.0459718623315,70.047048879067 24.249126248789253,69.43785381360067 24.111210661852965,69.18700751329015 23.850703442061786,67.34147261079488 23.659154015709646,67.018947820834 23.421632727084216,65.75571390246478 21.858589408249827,62.07341391714726 22.027152903436217,62.0644543545568 21.87391336238943,61.5 22.12675860512536,61.98381824851822 22.218702329759253,62.709540439071134 22.12675860512536,62.93352751365455 22.70906886117882,64.02657593906042 23.52123842877336,66.07824350237934 23.46760458938661,66.33805812027276 23.82771751092514,67.33251360544091 24.126534615963465,69.267636762248 25.053633839357644,70.06496631469781 25.099605701718247,70.70103282356285 24.931042206531856,71.25646727743879 25.750873751210747,71.76710541728971 25.329465013288427,72.34044983615604 25.429070714948466,72.68087124905287 25.750873751210747,72.74358030749136 25.796845613513142,73.12879207674996 25.635944095411105,73.35275160253514 25.429070714948466,73.06608330340532 25.344788967369823,72.34044983615604 25.70490188887925,71.92835892727453 25.712563865905395,71.65960290678777 24.83909848186886,71.21167431130743" stroke="#4dd2ff" stroke-linecap="round" stroke-linejoin="round" stroke-width="0.5"><title>2023-06-04 8.0km</title></polyline><polyline fill="none" points="68.3229121118784,85.41701730866043 66.70550940092653,85.45843329277704 66.00896370789269,85.92781352766906 65.13533012679545,85.80356598277285 64.78115435061045,86.03825569055334 63.36445124621969,85.78976069269993 62.90402273723157,85.29276927738101 61.74704853515141,83.09770121812471 60.57826847396791,81.8413877899875 59.633799737668596,81.51005036463903 57.4261040664278,81.30296404658293 55.67883690423332,80.4055862036912 55.12396152166184,79.14924685511505 54.98229121119948,77.9343137818505 54.46283340617083,77.31303681587451 53.51836466987152,77.10594383649004 50.236335811147,77.64438489923486 49.57520769565599,77.32684300282563 48.00502842152491,75.98763606759894 47.61543506773887,75.90479807379597 47.78071709664073,75.26970504040946 46.67096633143956,73.11588825476065 46.588325317017734,72.45316824398469 46.28137297765352,72.19084064305935 46.033449934388045,71.44527510770422 45.27787494531367,71.1415249643178 44.900087450805586,70.38214651160524 45.336904241354205,70.20265641325386 42.77503279404482,66.28142647961795 41.606252732803114,63.809886488175835 41.5,63.906539769945084 42.822256230865605,66.40569261698693 45.89177962398389,71.10010443540523 45.78552689112257,71.29340012438479 46.600131176179275,72.56362181292207 46.63554875383852,73.26776111642539 46.95430695230607,73.47486018830386 47.75710537820123,75.29731784528121 47.61543506773887,75.94621707723127 48.04044599912595,76.04286136760493 48.24114560557064,76.41563153115567 50.28355924790958,77.63057874588412 53.34127678180812,77.11975004532724 54.47463926539058,77.34064918832155 55.041320507240016,78.113793243494 55.11215566244209,79.23208278906532 55.572584171372,80.36416861576436 57.50874508090783,81.35818709689192 59.4331001311657,81.49624462035717 60.61368605156895,81.88280490897887 62.030389156076126,83.55328441786696 63.35264538694173,85.77595540114271 64.56864888500422,85.94161880317552 64.69851333624683,86.19011351182417 65.46589418448275,85.72073422042013 66.78815041540656,85.44462796625157 68.34652383031789,85.44462796625157 68.5,85.25135324071744" stroke="#4dd2ff" stroke-linecap="round" stroke-linejoin="round" stroke-width="0.5"><title>2023-06-01 6.5km</title></polyline><polyline fill="none" points="98.5,87.61819431673212 96.87768240342848,87.9042607909796 96.10515021457104,87.70853116021317 95.59012875537155,87.19662162251188 93.82618025748525,84.14018224155006 93.09227467805613,83.53792043462454 92.06223175959894,83.08622240681143 89.71888412017142,82.8152029018529 87.78755364805693,81.85157381526369 87.16952789702918,80.67714204335061 87.0150214592577,79.2467312803492 86.37124463520013,78.55410616514564 85.28969957079971,78.34330654786027 81.68454935622867,78.87030500557739 79.62446351937251,77.56033380668669 79.34120171674294,76.82252862706082 79.0836909871432,76.65689836704405 79.13519313302822,76.3406946080213 78.23390557937091,74.29288182372693 77.87339055794291,74.08207589338417 77.88626609439962,73.35931033238012 77.47424892708659,72.90757999231573 77.30686695274198,72.18480846498278 77.03648068674374,72.01917280622001 77.10085836908547,71.71801656890602 75.00214592274278,68.1944412306766 73.86909871245734,66.71872990473639 72.15665236057248,63.36067667452153 71.70600858371472,62.96914961337461 71.5,62.09573920900584 71.65450643771328,62.878797061610385 72.1952789700008,63.39079409613623 73.77896995708579,66.68861318766722 77.10085836908547,71.6577852449409 76.9592274678289,71.97399941121694 77.860515021428,73.34425267750339 77.87339055794291,74.12724861902825 78.24678111588582,74.35311203218589 79.12231759657152,76.3406946080213 79.01931330474326,76.61172644450562 79.37982832617126,76.83758591384685 79.61158798279939,77.50010495581955 81.25965665234253,78.6444487626577 82.03218884125818,78.91547621112841 85.2639484978863,78.35836367376032 86.30686695280019,78.47882062340796 86.92489270382794,79.14133202377707 87.14377682405757,80.73736954946071 87.68454935628688,81.89674407450366 89.4871244635433,82.8152029018529 92.19098712445702,83.1313922740519 93.19527896994259,83.55297701086965 94.41845493559958,84.95323163794819 96.01502145919949,87.63325046132377 96.3755364806857,87.88920467509888 97.40557939914288,87.88920467509888" stroke="#4dd2ff" stroke-linecap="round" stroke-linejoin="round" stroke-width="0.5"><title>2023-05-26 6.2km</title></polyline><polyline fill="none" points="101.5,78.76113778724539 102.5322496748704,79.23739935003687 104.11222366709262,79.38520406845782 104.25968790636398,79.57406524348335 105.95903771129088,79.40162679755304 106.23992197657935,79.67260132631054 107.3564369310916,79.56585389761312 107.18790637192433,79.68902399462968 107.42665799739189,79.98463143000117 107.78478543562233,79.77934860821551 108.12184655395686,79.78755993150116 108.3886866059911,79.79577125392825 108.55019505851669,79.96820882424072 109.0979193757812,80.13243472552858 109.89843953188392,80.13243472552858 110.12314694406814,79.90251836641983 110.10208062417223,79.1470741058074 110.21443433032255,78.83504063509463 110.7762028608704,78.31771922245389 111.28179453834309,78.27666181977838 112.50364109230577,78.49016007643513 113.80975292588118,78.35877660338883 114.6804941482842,78.05495147014153 116.52028608584078,77.08598769493983 119.28699609884643,76.69182947761874 121.44278283487074,75.64894287267816 121.70962288687588,75.1398120377853 121.4989596879168,74.02299721694726 121.06358907671529,73.23464766665711 120.6703511053347,72.14244182665425 119.92600780233624,71.69077326447587 120.03133940181579,71.40334644697577 120.8529258777562,71.86322884393303 121.59726918075467,71.8714410048342 122.19414824448177,72.07674474464875 124.37802340701455,74.48286408960121 124.75019505852833,74.65531346432545 125.05916775032529,74.56498288724106 125.73328998702345,73.86697033744713 126.50572171653039,72.70086477819859 127.67841352405958,71.49368070434139 128.5,69.27635490677494 127.98738621588564,70.7545791453158 127.48179453835473,71.75647067325917 126.5267880364263,72.63516816894844 125.72626788038178,73.83412253339338 125.01703511056257,74.58140663636732 124.69401820545318,74.65531346432545 124.09011703511351,74.23650717529381 122.1871261378401,72.06853260547359 121.56918075421709,71.86322884393303 120.8318595578603,71.83859235602722 120.06644993499503,71.37049760004447 120.01027308194898,71.5511660860866 120.6703511053347,72.18350247469061 121.47087126137922,74.03942108074989 121.68855656695087,75.14802385194344 121.27425227567437,75.78854267943825 119.65916775033111,76.57686628717056 118.43029908972676,76.85606231143174 118.12834850454237,76.7821575792259 117.04694408320938,76.92996697326453 116.2394018205814,77.15168053653179 115.0456436930981,77.86608659868944 115.08777633288992,78.2356043954278 113.76762028608937,78.73650348899537 113.20585175551241,78.83504063509463 112.37724317298853,78.79398350609699 112.26488946683821,78.88430916121433 110.958777633321,78.73650348899537 110.7762028608704,78.93357765609107 110.67087126139086,79.91072967670334 110.41807542263996,80.53478671524499 109.74395318594179,80.72364509322506 108.50806241872488,80.40340670302976" stroke="#4dd2ff" stroke-linecap="round" stroke-linejoin="round" stroke-width="0.5"><title>2023-05-21 9.9km</title></polyline><polyline fill="none" points="158.5,78.62927641313581 157.81932773115113,78.97040065689362 156.4903961584787,79.0083033105766 154.88595438183984,78.55347093744786 154.61044417775702,79.0083033105766 153.63805522210896,78.97040065689362 151.56362545024604,77.87122021231335 150.33193277317332,77.98492884694133 149.18127250904217,77.22686991936644 145.61584633856546,77.47323942270305 144.5462184874923,77.32162746074027 143.91416566632688,77.8333173180581 139.95978391362587,79.36837812034355 139.29531812726054,78.91354666140978 139.00360144063598,77.54904535558308 135.956782713125,73.87242065853206 135.45438175275922,73.51233480090741 131.87274909968255,73.07644042580796 135.79471788718365,73.70185376358859 139.1008403362357,77.79541441582842 139.2791116447188,79.04620595621236 139.92737094842596,79.36837812034355 143.73589435772737,77.96597741283767 143.99519807926845,77.53009387537895 142.6338535414543,77.41638495202642 141.4021608644398,76.86679080491012 140.67286914773285,77.1321123278467 140.25150060030865,78.06073456327431 140.8997599040158,78.38290849972691 140.49459783919156,78.72403321265301 140.67286914773285,79.06515727605438 140.2352941177087,79.3494268325885 139.7004801922012,79.23571906406141 139.3115246098605,79.02725463436218 139.2466986795189,78.06073456327431 138.8577430972946,77.37848196148116 138.06362545024604,76.71517832971585 137.10744297725614,75.12323959208152 135.64885954384226,73.53128670626029 132.4561824729899,73.11434432661918 135.58403361350065,73.53128670626029 138.93877551023616,77.49219090890256 139.39255702286027,78.66717913896719 138.8577430972946,78.38290849972691 137.156062425056,75.16114305978408 135.69747899158392,73.58814241003711 131.5,73.05748847240466 131.80792316934094,70.631621879671 135.82713085232535,70.74533511018672 136.60504201689037,71.18123515821935" stroke="#4dd2ff" stroke-linecap="round" stroke-linejoin="round" stroke-width="0.5"><title>2023-05-19 5.4km</title></polyline><polyline fill="none" points="161.5,74.7164661706338 164.15037593984744,74.75603090957884 168.4248120301054,76.04847214277834 169.9699248120305,76.33861016987794 179.20676691731205,76.21991742223327 181.7105263157864,76.81338003047858 182.86090225563385,76.39136246587441 183.30075187975308,73.8328503964658 183.59398496244103,73.58227164897107 185.6917293232982,73.8592270774243 185.86090225563385,73.661401834157 187.80075187975308,73.63502511137631 188.46616541355615,73.43719951230014 188.5,73.18661996951414 187.30451127822744,73.70096690794162 185.87218045117334,73.6877785514007 185.64661654137308,73.8328503964658 183.56015037599718,73.60864838293492 183.24436090228846,73.93835708684492 182.81578947370872,76.41773860555986 181.82330827071564,76.76062791306322 179.01503759401385,76.16716505365912 170.5676691729459,76.36498632068106 168.2781954887323,75.96934347275965 164.06015037593897,74.7164661706338 161.91729323309846,74.78240739519242" stroke="#4dd2ff" stroke-linecap="round" stroke-linejoin="round" stroke-width="0.5"><title>2023-05-17 5.0km</title></polyline><polyline fill="none" points="14.259124087635428,107.45126765682653 15.11015262111323,107.92265003185457 15.575978765788022,107.72362219164643 16.93762441939907,107.92265003185457 17.322826808260288,107.67124637778761 17.35865958861541,107.35699091257266 19.293629727966618,107.27318928674504 23.199402787024155,107.22081323460588 25.25082946254406,107.6502960444268 25.985401459911373,107.4093668926871 26.30789648310747,105.51333876167337 26.594558726006653,105.10479755939014 27.472461844736245,105.26192899051966 28.359323158627376,105.16765016175486 29.631386861321516,105.29335524681665 32.10384870605776,104.42389180975442 34.119442601222545,103.38681097867811 36.10816191107733,103.2506278404544 38.01625746523496,102.69541772310185 38.5,102.47542794749461 38.32979429332772,102.55923363391776 38.23125414730748,102.07734996814543 37.998341074970085,102.27638915788702 37.093563370988704,102.52780650982459 33.6088254810893,103.02016364139126 31.297611147980206,104.25628352245258 29.927007299265824,104.68577919066593 28.49369608494453,104.79053394906805 26.97080291970633,104.53912234269228 26.361645653669257,104.58102432142914 25.600199071050156,105.25145356955181 25.40311877906788,106.83322958769713 24.18480424687732,107.03225921748526 24.2385534173809,106.91703158582823 23.871267418784555,106.70752645747416 23.61147976113716,106.14186039681226 23.11877903121058,105.92187827832822 22.500663570011966,106.06853307828715 22.097544791002292,106.64467483254703 21.45255474455189,106.74942751861818 20.915063039166853,106.75990278113022 20.65527538151946,106.59229844793299 18.639681486412883,106.6341995578332 18.45155938953394,106.17328637385071 18.344061048468575,106.17328637385071 15.602853351039812,106.72847699025442 13.802256138063967,106.3827926325248 11.526874585309997,105.56571571694076 11.5,105.38763395587011 11.929993364319671,105.30383066334616" stroke="#4dd2ff" stroke-linecap="round" stroke-linejoin="round" stroke-width="0.5"><title>2023-05-14 6.3km</title></polyline><polyline fill="none" points="41.8776937618386,110.75332964488916 42.20434782613302,108.73616817298898 41.5,108.4735764533907 41.89810964080971,108.39002441448247 42.010396975441836,108.18711206242006 42.21455576561857,106.27733087239903 42.081852552015334,106.15796847490856 42.43913043482462,106.16990472034377 42.63308128545759,102.25474850706087 42.78620037809014,101.93245825514168 45.154442344093695,102.09957183402003 47.696219281700905,103.0186920937631 47.92079395084875,102.95900918731786 48.17599243862787,102.46960816358478 50.1461247637053,102.91126283940685 51.25879017013358,102.98288235368818 58.649338374321815,102.83964327967988 60.87466918717837,103.34097924314847 61.77296786388615,103.0186920937631 62.15066162572475,100.76265627289831 62.395652173960116,100.48810915247304 64.34536862006644,100.63135121169762 66.13175803405466,100.54779336594947 68.5,99.72414843213483 68.28563327033771,99.24667035511811 66.92797731567407,99.80770688786288 65.83572778827511,100.03450809862261 64.47807183366967,100.08225566385227 62.273156899842434,99.80770688786288 61.344234404561576,100.54779336594947 61.150283553870395,101.1088234290437 61.28298676747363,101.56242016401666 61.09924385638442,102.33830508879328 60.12948960304493,102.5770378384259 59.08827977319015,102.29055847824202 58.720793950837106,101.9921417045698 57.832703213673085,101.9921417045698 57.424385633319616,102.24281184745632 56.475047258951236,102.32636843804357 55.5665406427579,102.15925519503071 54.014933837461285,102.23087518662214 52.340831758105196,102.06376180223015 51.18733459356008,102.23087518662214 50.50340264651459,102.05182512245665 49.58468809071928,102.23087518662214 48.16578449908411,101.93245825514168 47.71663516073022,101.52660996173654 47.686011342157144,100.96558197597915 47.26748582231812,100.9417083828157 47.81871455581859,101.06107629822509" stroke="#4dd2ff" stroke-linecap="round" stroke-linejoin="round" stroke-width="0.5"><title>2023-05-12 6.0km</title></polyline><polyline fill="none" points="78.55365607858403,118.35563351665041 78.82877598103369,118.3445283943147 78.09828520554584,117.94474320396694 78.30699685565196,118.00026901623642 78.44930025353096,117.80037595404428 78.38289200118743,118.31121302016254 78.55365607858403,118.20016169633163 79.19876481534448,118.5 79.749004620302,118.47778978475253 79.91028180450667,117.70042927964096 79.8343866590294,116.43442980173131 80.21386238653213,115.9013728042919 80.18540170695633,115.623737875183 82.50969053810695,113.8690680706859 83.211720634019,113.18051871030184 84.03708034142619,112.02552250371082 84.65372839861084,110.19305041840562 84.86244004877517,106.25035006396502 85.05217791249743,106.05043453563121 85.0426910193637,105.12859687567834 85.45062742644222,103.81801849725889 86.674436647736,101.76326508170314 88.80898761510616,99.7528996740075 89.64383421564708,98.44225388984341 90.57354974810733,94.15477234565333 91.90171479451237,91.5 90.61149732087506,94.0103722370186 89.86203275900334,97.5981004455316 89.45409635186661,98.77547047781991 88.60027596494183,99.98614847219869 87.16775509354193,101.20791938700859 86.29496092023328,102.2519668523164 85.52652257191949,103.56256486586062 85.1280730580329,104.89535955263273 85.02371723297983,105.47289863955666 85.13755995122483,106.10596666519996 86.26650024065748,106.03932810619153 87.61363907332998,106.18371159697563 88.32515606249217,106.02822167558043 89.26435848808615,106.19481801109214 89.95690169086447,106.10596666519996 90.250995379698,106.26145647095836 90.37432499113493,106.77234991874866 90.24150848650606,107.28324086971406 88.34412984887604,109.04912731822697 87.99311480089091,109.65996159899805 87.85081140307011,110.55954740497691 88.17336577142123,111.85893545950239 84.86244004877517,116.22342839852354 83.42991917737527,117.82258631316654 83.20223374082707,117.82258631316654 80.232836172916,115.84584587741847 79.85336044535507,116.51216705346451 79.98617694998393,117.58937730717298" stroke="#4dd2ff" stroke-linecap="round" stroke-linejoin="round" stroke-width="0.5"><title>2023-05-09 7.6km</title></polyline><polyline fill="none" points="113.94451972824754,118.5 114.14833660831209,116.5253742155619 113.81349459115881,115.45293799169303 111.9354676247458,114.8571370018326 108.38323057221714,114.38049462188792 108.29588048078585,113.54636706043675 108.54337240656605,111.62275028511067 110.01376561279176,111.65679679957975 109.54789845831692,111.55465723454836 109.4023149725981,110.26088379997236 109.05291460675653,110.58432813371473 108.52881405805238,110.22683699020126 108.57248910376802,99.92734635573288 108.76174763520248,99.43363520609273 108.29588048078585,99.67197870883683 107.6844298405922,99.33148788248945 108.67439754377119,97.54389922301925 108.73263093811693,96.33513754123123 109.30040653253673,96.04571438264975 109.54789845831692,99.2293404940574 109.09658965247218,100.60832476618816 109.21305644110544,101.93622437746671 109.38775662396802,102.22563694084238 110.49419111578027,102.1064671248314 111.25122524169274,101.4765680598357 110.82903313299175,98.9739717393677 111.51327551610302,97.95249266753672 111.45504212175729,97.45877545815893 110.9600582701969,97.56092397061002 109.95553221844602,97.0672055597388 110.29037423571572,96.55646078179416 110.93094157305313,96.57348563388223 111.78988413908519,96.99910634967091 112.11016780772479,96.8118333734601 112.22663459635805,97.01613115487271 113.20204395084875,94.58156571917061 113.10013551090378,93.11740373156499 112.69250175071647,91.90860879354295 112.35765973350499,91.5 111.60062560753431,91.89158344782481 111.28034193889471,92.55557059420971 111.71709239616757,92.04481149405183 111.58606725896243,92.72582326723204 111.87723423045827,93.16847937401326 112.21207624772796,93.25360540873953 112.69250175071647,92.79392428601568 112.98366872227052,92.87905051896814 113.18748560227687,93.71328521810938 113.10013551090378,95.0412417344487 112.11016780772479,96.98208154267923 109.50422341265948,99.34851244089077 109.12570634967415,100.55725148538477 109.34408157825237,102.27670969208702 109.86818212707294,102.61719428631477 111.70253404753748,102.4469520792627 112.72161844791844,102.61719428631477 113.56600266532041,103.21304059261456 114.70155385421822,103.19601644303475 116.30297219753265,104.06424577436701 117.87527384376153,104.28555838404282 120.5103349359706,104.06424577436701 120.94708539324347,104.52389470030903 122.25733676512027,104.57496672208072 122.3155701594078,105.98795289857662 122.02440318791196,107.14557088144647 121.73323621635791,107.07747593650129 121.45662759343395,107.67330572784704 121.67500282207038,108.71174666276784 121.15090227330802,111.35037791002833" stroke="#4dd2ff" stroke-linecap="round" stroke-linejoin="round" stroke-width="0.5"><title>2023-05-06 6.0km</title></polyline><polyline fill="none" points="138.5428420305252,118.48883518038201 138.2376292461413,118.31019790533901 138.58099362859502,118.01991168599488 139.3249497904908,118.5 139.6301625748747,118.4665055376172 139.76369316806085,117.69612995725038 139.6492383739096,116.55730354105617 140.0402922538924,115.89856498214795 139.99260275636334,115.68642795733467 142.31985023716697,113.93348984222393 143.7696109630051,112.19168798450846 144.4849534263485,110.19304644649674 144.70432511513354,106.15098483863403 144.90462100482546,105.91649583106482 144.84739360777894,105.3581865644228 145.20983378926758,103.99589950602967 146.20177533844253,102.17576710690628 148.67209131200798,99.69676306987094 149.61634336365387,98.08872917995177 150.43660272168927,94.13554125385417 151.7623707538005,91.5 150.4079890231369,94.202545678163 149.66403286124114,97.86538919340092 149.31113057932816,98.7252455372145 148.45271962322295,99.94243274722248 146.2113132380182,102.11993432638701 145.25752328679664,103.83957035341882 144.84739360777894,105.34702034883958 144.97138630144764,105.73783718843333 144.6947872156743,106.26264608688507 144.5517187229707,109.85807487252896 143.86498995806323,112.04653652687557 143.37855708302232,112.81695351059898 142.5010703278822,113.76601014851622 140.04983015340986,115.67526283892221 139.7160036705318,115.55244645797211" stroke="#4dd2ff" stroke-linecap="round" stroke-linejoin="round" stroke-width="0.5"><title>2023-05-04 6.1km</title></polyline><polyline fill="none" points="162.3203300824971,110.08631591555604 162.59377344336826,107.04291295647272 162.6747936984175,106.8297532289871 162.8975993998465,106.80606878973776 162.6849212302477,106.71133098277642 162.63428357086377,106.24948302568373 162.90772693173494,102.7085853888857 163.1406601650524,102.56647344709927 163.99137284321478,102.73227069498535 165.2876969242352,102.7085853888857 167.0397599400021,103.34808689445344 167.79932483116863,103.45467012354493 168.05251312826294,102.00986660464696 167.88034508621786,101.59537034973619 167.12078019505134,101.61905589134403 166.74606151535409,101.21640100210789 165.62190547637874,101.27561504726327 165.19654913729755,101.08612999255274 164.66991747939028,101.28745785251522 163.98124531138455,101.28745785251522 162.69504876219435,100.62425882802927 162.08739684917964,100.74268751341151 161.5,100.4939871293609 161.51012753188843,100.99138734491862 162.14816204051021,101.09797281785723 162.25956489122473,100.64794457514654 162.74568642157828,100.68347318637097 163.8597149287816,101.28745785251522 164.76106526632793,101.45325699471869 165.3585896474542,101.29930065650842 165.7130532632582,101.66642695957125 168.41710427607177,102.62568677810486 169.6830457614269,102.89806769731513 170.04763690923573,102.94543822430569 170.58439609903144,102.69674273396959 171.3540885221446,102.89806769731513 172.3162040510215,102.69674273396959 172.79219804948661,102.80332658316911 173.19729932479095,102.63752944052976 173.65303825959563,102.83885451038077 175.80007501877844,102.7677986447161 176.48874718678417,102.98096610642096 177.52175543888006,102.89806769731513 177.90660165040754,102.62568677810486 178.82820705173071,102.62568677810486 179.1421605400974,102.90991033095634 180.30682670668466,103.18229055862321 181.2081770442892,103.00465135485865 181.3600900224992,102.12829382420023 181.22843210800784,101.79669729382294 181.42085521377157,101.24008662391861 182.3222055513761,100.45845845794975 185.63390847714618,100.70715892095905 187.04163540888112,100.4347726707565 188.27719429857098,99.91368408445123 188.5,100.35187237609352 187.50750187551603,100.8255875186369 185.76556639163755,101.25192943293223 184.3578394599026,101.32298626079864 182.45386346586747,101.14534410658234 182.1804201050545,101.50062813310069 182.08927231805865,102.69674273396959 181.82595648913411,103.64415116920281 180.83345836465014,103.98758474692295 178.7168042010744,103.47835527179996 171.17179294826929,103.6323086132179 169.41972993250238,103.37177206525666" stroke="#4dd2ff" stroke-linecap="round" stroke-linejoin="round" stroke-width="0.5"><title>2023-04-26 7.0km</title></polyline><polyline fill="none" points="11.5,137.8816031635215 11.878151260490995,137.10041524880216 11.70168067223858,136.5550550519838 11.739495798246935,134.68312678759685 11.878151260490995,134.25567507422238 12.168067226826679,134.10827762763074 15.672268907539546,134.4325518043479 17.714285714260768,135.2874528344546 18.30672268901253,135.22849431114446 19.31512605038006,135.52328667828988 19.79411764704855,135.86229712955537 20.235294117592275,135.75912012303888 21.004201680596452,136.0244322711951 22.995798319287132,135.89177626025048 23.890756302513182,136.45187855842232 24.571428571420256,136.18656722415471 25.390756302454975,136.45187855842232 26.10924369742861,136.30448343507305 26.689075630216394,135.92125538468827 27.193277310871053,136.36344150311197 28.54201680672122,136.15708815582911 29.134453781472985,136.2897439141816 30.886554621858522,135.52328667828988 31.630252100876532,135.59698467268026 32.91596638655756,136.11286954164098 33.30672268907074,135.62646385945845 34.20168067223858,135.75912012303888 35.3991596638225,135.3169320867746 35.66386554623023,134.594688609679 35.85294117644662,132.6932542064169 36.09243697475176,132.31001622333133 36.684873949561734,132.11839683649305 37.56722689070739,132.38371591737086 38.5,132.38371591737086 36.52100840333151,132.13313679870043 36.07983193278778,132.28053633484524 35.81512605038006,132.61955467615917 35.3991596638225,135.3464113328373 34.10084033611929,135.78859927556186 31.226890756282955,135.11057718961092 21.243697478959803,135.2874528344546 19.79411764704855,135.05161859143118 14.651260504149832,133.50394646626955 12.394957983167842,133.57764552872686 14.575630252074916,133.71030374293332 14.726890756282955,133.5629057193728 15.10504201677395,133.72504353668774" stroke="#4dd2ff" stroke-linecap="round" stroke-linejoin="round" stroke-width="0.5"><title>2023-04-20 5.0km</title></polyline><polyline fill="none" points="47.68024633004097,147.61733862921392 47.818181386683136,148.3815946527684 47.68944200052647,148.06943443788623 47.78139870491577,148.23089673802315 48.792922453256324,148.5 49.455010724952444,148.16631184885046 49.795250531169586,147.35899726173375 49.89640290598618,147.31594030313136 50.0803163148812,147.60657441870717 50.48492581414757,147.57428178036207 50.7516002569464,147.0575981674483 50.641252211644314,145.65823348906997 51.027470370114315,145.00160186468565 50.926317995239515,144.8401344201411 53.730997479346115,142.60109267281223 54.65976019378286,141.36313970170158 55.303457124507986,139.31779296459717 55.45978352200473,135.96979421174183 55.53334888553945,135.5499409031254 55.708066623832565,135.4422859283659 55.59771857858868,135.02243043397175 55.88278436224209,133.82744758134504 56.940286462777294,131.84654405961192 57.721918450144585,130.9206736973647 59.11966035695514,129.67181189817347 59.94727069651708,128.4982984194212 60.27831483236514,127.7015934482406 61.11512084235437,123.72874135125312 62.31975366995903,121.5 61.041555478819646,124.12711024314922 60.34268452547258,127.51856574551493 59.98405337834265,128.5090646599201 58.86218158470001,130.0055609552728 57.08741718978854,131.63122612574807 55.983936737058684,133.62289955424785 55.66208827169612,134.94707157133962 55.71726229431806,135.5499409031254 55.51495754462667,135.81907783957286 55.303457124507986,139.70533551624976 54.687347205064725,141.41696405835683 53.280409627826884,143.13932837834 51.036666040541604,144.8508989244292 51.07344872230897,145.03389532274014 50.806774279568344,145.4752382180668" stroke="#4dd2ff" stroke-linecap="round" stroke-linejoin="round" stroke-width="0.5"><title>2023-04-17 6.5km</title></polyline><polyline fill="none" points="71.65612952964148,141.04291408213612 71.5,140.9090397561813 71.5,140.54392716650182 72.16615265997825,132.21904578707472 72.3430994602968,131.64699234809086 73.13415574398823,131.86607697993895 73.58172706241021,131.73219197671278 74.63299922895385,131.8173915422376 76.6939090208034,132.5233283724374 77.02698535082163,132.42595803266886 78.42174248263473,132.94932263994997 78.51542020041961,133.27794571151753 78.9942174248281,133.41182891603967 79.66037008480635,133.15623357223376 81.1383962991531,133.37531533026777 81.47147262917133,133.2049184433854 82.06476484192535,133.58222549646598 82.80377794912783,133.47268486661778 83.8966846569092,133.6552525251318 84.55242868157802,133.33880173288344 84.52120277564973,133.10754868046206 84.75019275245722,133.09537745429407 84.9375481880852,133.54571196476172 85.54124903620686,133.59439667114202 86.11372397840023,133.42400010871643 86.69660755590303,133.5700543205312 87.42521202773787,133.18057601037435 87.46684656891739,133.53354078494885 87.64379336923594,133.6552525251318 88.12259059364442,133.54571196476172 88.44525828835322,132.94932263994997 89.88164996140404,133.47268486661778 89.8712413260946,133.11971990532766 90.7455666923197,133.15623357223376 91.71356977632968,132.7789251222057 92.09868928289507,130.4420194157501 92.37972243636614,130.17424593916076 92.75443330756389,130.0525305164847 94.24286815722007,130.3689903475606 94.56553585192887,130.23510360217915 95.94988434843253,130.320304276378 96.8138010793482,130.13773132586357 98.5,129.41960824286798 98.26060138782486,128.95708591787115 96.87625289120479,129.49263791366684 95.33577486500144,129.74824139646807 92.1715497301193,129.45612308407 91.21395528136054,130.28378970943595 91.04741711640963,130.89236431183963 91.21395528136054,131.25750752806925 90.98496530449484,132.09733252763544 89.88164996140404,132.29207368096831 89.32999228988774,132.18253182278568 88.64302235929063,131.72002060507657 87.60215882805642,131.69567785789695 87.18581341556273,131.96344779351784 86.26985350809991,132.0608185246747 85.520431765588,131.8782483361574 83.12644564377842,131.90259104466531 82.94949884345988,131.4279072990903 83.0535851965542,131.3548788567059 84.34425597533118,131.29402178597957 84.94795682345284,131.76870608396712 84.85427910560975,131.86607697993895 82.60601387813222,131.8782483361574 82.63723978406051,131.54962126672035 82.46029298374197,131.44007870163477 79.420971472573,131.98779048401047 77.71395528141875,131.64699234809086 74.75790285272524,130.50287693716382 74.36237471085042,130.5150484375772 74.21665381646017,130.3568188316931 74.65381649957271,130.14990286490502 75.11179645336233,130.3689903475606 76.25674633769086,130.30813275534456 76.56900539703202,130.67327782582288 76.81881264451658,130.67327782582288" stroke="#4dd2ff" stroke-linecap="round" stroke-linejoin="round" stroke-width="0.5"><title>2023-04-07 7.0km</title></polyline><polyline fill="none" points="101.5,138.1411363992229 101.5953689168091,135.78687245862238 101.84968602831941,134.58494051747402 104.24450549454195,134.82037145666254 106.70290423865663,135.5142704193495 106.91483516484732,135.05580192259367 109.60635792778339,135.65057151829387 117.7551020408282,135.5142704193495 120.57378335949033,136.08425577785965 121.54866562003735,135.78687245862238 121.93014128727373,133.4945173645756 122.23744113027351,133.11038860866392 124.13422291987808,133.30864876900887 124.5051020408282,133.1723449448691 125.85086342220893,133.2590837604148 128.5,132.3421273175045 128.34105180529878,131.85886360076984 125.55416012555361,132.68908465364075 124.31436420715181,132.71386728118523 122.05729984299978,132.39169271413994 121.10361067496706,133.2590837604148 120.8598901098594,135.10536617092293 119.86381475668168,135.29123191535473 119.14324960752856,135.16732145182323 118.28492935636314,134.6592871809844 117.34183673467487,134.6840693916456 116.98155416012742,134.94428228718607 116.07025117735611,135.00623765328783 115.47684458398726,135.00623765328783 115.19073783355998,134.82037145666254 112.97605965461116,134.89471797071747 112.75353218213422,134.79558927481412 112.54160125588533,134.3247268236446 109.11891679750988,134.95667336304905 107.30690737831173,134.6345049650481 104.08555729989894,133.44495243458368 101.74372056516586,133.56886472020415 101.68014128733194,132.71386728118523 102.72919937211554,133.2838662673239 104.33987441135105,133.37060500032385" stroke="#4dd2ff" stroke-linecap="round" stroke-linejoin="round" stroke-width="0.5"><title>2023-04-04 6.0km</title></polyline><polyline fill="none" points="134.64607657957822,145.88711611693725 151.92744516767561,146.9322701675119 157.73756046872586,129.68714353023097 143.43573818914592,123.06775403907523 133.1563034253195,134.73876498127356 132.70937147922814,144.84196140361018 138.66846409626305,147.97742355475202 154.16210489813238,145.19034638197627 156.9926738915965,131.60327762854286 145.372443289496,122.54516952473205 132.70937147922814,136.48069981997833 133.60323537141085,146.9322701675119 153.8641502680257,146.5838855577167 157.2906285226345,130.38391982403118 145.67039792053401,122.19677975727245 138.66846409626305,127.4226185400039 132.70937147922814,135.95811956189573 132.56039416324347,145.71292371093296 149.3948308052495,148.5 154.60903684515506,146.23550087457988 157.14165120664984,130.38391982403118 145.22346597351134,122.19677975727245 133.1563034253195,135.43553913745563 132.56039416324347,146.06130850501359 147.01119375880808,147.80323136947118 153.5661956369877,145.88711611693725 157.2906285226345,129.51294941047672 144.32960208132863,121.84838991542347 133.00732611026615,135.60973263089545 133.1563034253195,146.40969322540332 142.2439196659252,147.80323136947118 154.60903684515506,145.53873128595296 157.2906285226345,130.20972577808425 144.32960208132863,121.5 132.8583487952128,135.60973263089545 133.30528074130416,146.5838855577167 151.0335812754929,147.4548469443107 154.31108221411705,145.71292371093296 157.14165120664984,129.33875527279451 145.074488658458,121.84838991542347 133.4542580563575,134.73876498127356 132.26243953220546,145.71292371093296 153.5661956369877,146.40969322540332 156.54574194550514,129.86133763124235 145.372443289496,122.19677975727245 138.07255483418703,127.4226185400039 133.1563034253195,135.60973263089545 133.00732611026615,146.5838855577167 149.0968761742115,147.80323136947118 153.8641502680257,145.71292371093296 156.6947192605585,129.33875527279451 144.77653402741998,122.02258484519552 135.39096315670758,131.0806958230678 132.26243953220546,145.88711611693725 137.32766825705767,147.97742355475202 153.71517295297235,146.5838855577167 157.14165120664984,130.73230785992928 145.96835255157202,122.19677975727245 138.66846409626305,127.59681288083084 132.70937147922814,136.30650641873945 132.26243953220546,145.88711611693725 135.6889177877456,147.62903916602954" stroke="#4dd2ff" stroke-linecap="round" stroke-linejoin="round" stroke-width="0.5"><title>2023-03-30 5.2km</title></polyline><polyline fill="none" points="188.23615635174792,145.57071329683822 188.5,143.3817920731235 186.77873429498868,142.80884726480872 183.60004653321812,142.3681188809569 183.41158678452484,142.19182713582995 183.57491856679553,139.92939654539805 184.37901349464664,139.75310170493321 184.99464867380448,133.87647896647104 184.7182410423411,133.74425209438778 184.45439739414724,133.96463014456094 183.58748255000683,133.90586269872438 183.8010702652391,133.86178709802334 183.60004653321812,133.67079266661312 180.60981852019904,134.4200770068419 179.39111214515287,134.39069338337868 178.66240111680236,133.72956021194113 177.72010237321956,131.9224468174798 176.08678455097834,130.55607717535167 175.63448115397478,130.45323160446424 175.4083294555312,130.0712331028917 172.97091670543887,129.55700269137742 170.94811540248338,128.60199830347847 170.47068403905723,127.44129182041797 170.35760818980634,126.17772689736739 169.69171707768692,125.31085593953321 168.63634248485323,125.13454254005046 165.45765472308267,125.7222530010622 164.85458352719434,125.57532561900734 163.53536528616678,124.56152244545228 162.90716612373944,124.42928670317633 161.5,124.5909081488353 163.1710097719333,124.47336529794848 164.62843182875076,125.41370531918074 165.45765472308267,125.707560269846 168.58608655189164,125.16392812218692 169.64146114472533,125.32554871273169 170.31991624011425,126.20711225872219 170.45812005584594,127.48536945905653 170.94811540248338,128.6166907283914 172.7322010237258,129.51292571035447 175.3078175895498,130.0124640094 175.67217310372507,130.4973082870565 176.08678455097834,130.57076939352555 177.2049790599849,131.40822326109628 177.92112610518234,132.26036411778477" stroke="#4dd2ff" stroke-linecap="round" stroke-linejoin="round" stroke-width="0.5"><title>2023-03-28 5.0km</title></polyline><polyline fill="none" points="14.211376404506154,167.67169145087973 14.457865168515127,165.2328367881928 14.31566011236282,164.82266020112002 14.078651685325895,164.67854372179863 12.997893258405384,164.95569062147842 12.922050561755896,164.74505904458783 11.5,164.4124820085126 11.57584269659128,164.06881796236848 13.121137640438974,164.46791158781707 16.72366573032923,164.47899750016222 20.079705056152306,165.49889641867776 21.918890449393075,165.8092984671457 29.171348314615898,165.67626913038112 31.503511235991027,166.15295680554846 32.30933988757897,165.8314700068513 32.688553370768204,163.82492666524922 32.96348314604256,163.48126069215505 34.75526685389923,163.69189480935165 34.87851123593282,163.53669076406368 36.385884831426665,163.59212080662837 38.5,162.82718362952437 38.38623595505487,162.32830854912027 36.869382022472564,162.91587228407298 35.71278089884436,163.10433542571263 34.470856741594616,163.08216330903088 33.02984550560359,162.8160975424471 32.66959269659128,162.91587228407298 31.920646067359485,163.53669076406368 31.731039325823076,164.05773200661497 31.77844101120718,164.58985655908327 31.351825842633843,164.6120283568016 31.048455056152306,164.95569062147842 31.038974719122052,165.2771801068593 30.745084269612562,165.42129576290608 30.0625,165.17740761347522 29.806530898844358,164.5565988537346 29.313553370768204,164.32379462063545 28.630969101097435,164.46791158781707 28.185393258405384,165.0887208729764 27.41748595505487,165.2106651218346 26.92450842692051,165.2106651218346 26.659058988734614,165.03329162205046 24.497542134835385,165.06654917612468 24.298455056152306,164.5565988537346 22.26966292131692,164.8780895634627" stroke="#4dd2ff" stroke-linecap="round" stroke-linejoin="round" stroke-width="0.5"><title>2023-03-26 5.6km</title></polyline><polyline fill="none" points="68.5,174.83452427935117 67.73162055335706,174.8470035949067 65.75731225300115,174.198077435889 65.49051383399637,174.3977474035346 64.47667984192958,174.37278867603163 62.214229249046184,174.75964835836203 61.17905138339847,174.75964835836203 60.602766798459925,174.3353505749037 59.813043478294276,172.65062372710236 58.3936758893542,171.50249979241926 58.009486166003626,171.40266240036726 57.81739130435744,171.05323086282442 55.78972332016565,170.6663590244425 54.05019762844313,169.80525263519667 53.623320158047136,168.83182045112335 53.527272727224045,167.78349988345872 53.02569169958588,167.04717391396116 52.00118577078683,166.87245182265906 49.397233201540075,167.346696896886 48.79960474307882,167.23437586741784 46.803952569141984,165.74923219800257 46.932015810278244,165.16265769769234 46.163636363635305,163.46531930426863 45.950197628408205,163.3405140465038 45.939525691675954,162.82881110863673 45.5980237153708,162.42943166321493 45.52332015812863,161.94268613539316 45.363241106737405,161.71803367571556 44.77628458495019,161.51834224115737 44.424110671912786,160.95670826850255 44.31739130435744,160.7320539305365 44.71225296438206,160.53236082632066 42.6312252964708,157.36218750022817 41.5,155.1280377779549 42.50316205533454,157.16248868918774 45.256521739123855,161.45593859849032 45.171146245033015,161.65563013874635 45.90750988142099,162.75392756566725 45.89683794463053,163.40291669190628 46.184980237158015,163.55268290616368 46.942687747010496,165.23753971124097 46.76126482215477,165.69931107752927 47.12411067192443,165.8490743755683 47.40158102766145,166.26092246470216 48.778260869614314,167.19693550052034 49.279841897194274,167.30925656558975 51.990513833996374,166.87245182265906 52.993675889330916,167.09709446394118 53.49525691696908,167.69613941557327 53.569960474269465,168.70702087211976 54.03952569171088,169.80525263519667 55.533596837951336,170.5914804575441 57.80671936762519,171.06571057840483 58.09486166003626,171.4775404523316 58.34031620551832,171.4775404523316 59.813043478294276,172.65062372710236 60.613438735192176,174.21055681878352 61.189723320130724,174.77212768181926 62.01146245060954,174.8470035949067 63.996442687755916,174.36030931032292 64.5407114624395,174.6722930570977 64.8501976284897,174.3977474035346 65.47984189726412,174.37278867603163 65.63992094859714,174.1606392793401 67.51818181818817,174.8719622220524 68.20118577074027,174.80956564432563" stroke="#4dd2ff" stroke-linecap="round" stroke-linejoin="round" stroke-width="0.5"><title>2023-03-18 7.0km</title></polyline><polyline fill="none" points="71.5,165.97711123689805 73.26145868183812,165.92429646325763 76.65791234525386,166.91720953320328 78.10321177652804,167.17071767090965 85.16711274674162,167.07565219468233 87.38022750086384,167.58266702196124 88.22934091673233,167.19184331998986 88.53646704583662,165.36445814526815 88.78036132489797,165.03700408920122 91.55352960858727,165.13207150643575 92.85429909673985,164.8785581926859 94.16410170629388,164.36096651169646 94.02860488463193,163.89618802191399 95.75393108068965,162.91380818530888 98.3735362997977,162.41733297803876 98.5,162.50183957065747 96.84693877556128,162.59690940181463 95.7268317163107,162.8926816310268 93.38725326198619,164.1919564021082 92.2671462027356,164.51941322961648 90.87604550016113,164.63560732961923 88.87972566077951,164.32927713794925 88.56356641015736,164.4032189944046 87.81381733022863,165.11094542153296 87.65122114418773,165.62853321467992 87.77768484444823,165.92429646325763 87.68735362996813,166.53694611981336 87.43442622950533,166.76932948896865 86.56724657077575,166.84326953845448 85.46520575444447,165.8186668321723 84.67932418873534,165.90317054597108 84.25476748077199,165.5651552617128 83.90247574442765,165.50177726850234 83.5682502509444,165.61797022529936 83.16175978590036,166.10386657959316 82.92689862829866,166.12499245441722 82.48427567747422,166.49469454003702 81.75259284040658,166.53694611981336 81.59902977582533,166.01936303566617 79.02459016395733,166.29399929198553" stroke="#4dd2ff" stroke-linecap="round" stroke-linejoin="round" stroke-width="0.5"><title>2023-03-14 5.6km</title></polyline><polyline fill="none" points="126.14631336409366,170.06227321514598 125.23387096775696,169.941026453831 123.50230414746329,169.37116495756345 122.25806451612152,169.71065725394874 121.99884792632656,169.49241232172062 119.8525345622329,170.00164985052834 119.18894009216456,169.9652758163429 118.50460829492658,169.39541444063798 117.56105990783544,167.576688970119 116.48271889402531,166.37631434855575 115.75691244238988,166.0974376366139 113.42396313365316,165.78218488424318 112.16935483872658,165.10317601048882 111.67165898618987,164.03615393724613 111.51612903224304,162.8842439558066 111.10138248850126,162.38710028147761 110.2822580645443,162.22946890997264 107.35829493089113,162.66598602294107 105.93778801843291,161.73232239489153 103.99884792621015,161.7929501342005 103.83294930873672,160.7986511593408 103.80184331798228,161.81720122088882 102.17396313365316,161.92633104764536 101.5,159.93772678485402 102.04953917051898,161.73232239489153 102.31912442395696,161.9748331595183 105.55414746538736,161.70807129020977 106.0,161.81720122088882 106.9850230414304,162.53260597040935 107.56566820282023,162.6781114745536 110.37557603686582,162.2779708935268 111.14285714289872,162.48410409459757 111.54723502305569,163.00549818336003 111.66129032260505,164.03615393724613 112.08640552993165,165.05467522265099 113.4550691244076,165.83068536414066 115.7050691244076,166.2671887595061 116.01612903230125,166.69156546660815 116.36866359447595,166.76431560142373 117.71658986172406,167.83131227349804 118.53571428573923,169.383289699741 119.03341013827594,169.9652758163429 120.32949308759999,170.05014854476758 120.91013824887341,169.75915607137722 122.43433179729618,169.48028759106091 123.27419354842277,169.56516067862685 123.38824884791393,169.39541444063798 125.46198156685568,170.06227321514598 128.5,169.941026453831" stroke="#4dd2ff" stroke-linecap="round" stroke-linejoin="round" stroke-width="0.5"><title>2023-03-12 6.0km</title></polyline><polyline fill="none" points="157.3376681614318,169.8422628702392 154.09282511210768,169.03524634345376 153.95964125561295,169.24761958548333 153.19686098652892,168.99277165462263 152.71255605382612,169.459992490476 152.61569506727392,169.20514496405667 149.92780269059585,169.75731399131473 149.05605381168425,169.6582068977732 148.402242152486,168.9786134219903 147.05829596414696,166.6141675637482 146.08968609868316,165.62307004812465 144.98789237672463,165.22662898656563 142.3847533632652,164.87266276065202 140.93183856498217,164.03729875516728 140.47174887894653,162.89043459239474 140.39910313906148,161.65860658008023 139.87847533635795,160.9648133971932 138.67982062784722,160.75242700980743 135.56816143501783,161.26215377321932 135.15650224220008,161.19135850552993 134.79327354260022,160.75242700980743 133.739910313976,160.15774333167064 133.26771300449036,160.07278830478026 131.5,160.228539146221 133.61883408069843,160.12942499534984 135.12017937225755,161.10640413482906 138.75246636773227,160.70994969189633 139.79372197308112,160.93649523169734 140.3869955156697,161.78603759000544 140.47174887894653,162.81964018613508 140.90762331837323,163.9240286580025 142.49372197309276,164.80186940304702 145.15739910316188,165.3398979811609 145.47219730936922,165.75049728273007 145.89596412563697,165.80713157029822 147.50627802690724,167.1380304282502 148.43856502242852,168.99277165462263 149.14080717490287,169.62989057184313 150.13363228703383,169.72899768636853 151.24753363232594,169.36088517673488 151.44125560537213,169.60157423988858 152.21614349778974,169.21930317264923 154.0322869955562,169.0635627951997 156.46591928246198,169.92721169521974 158.5,169.77147214153956" stroke="#4dd2ff" stroke-linecap="round" stroke-linejoin="round" stroke-width="0.5"><title>2023-03-05 5.0km</title></polyline><polyline fill="none" points="186.29131886479445,164.90349162828352 186.44156928214943,165.3953352291137 187.98914858099306,165.09671607370547 188.33472454093862,166.15066363882215 188.27462437393842,166.6776349147258 184.26293823041487,167.78426915498858 181.66360601008637,168.99628867718275 179.15442404005444,170.71769251630758 177.39649415691383,167.95992470589408 176.28464106854517,167.028948170293 165.82721202005632,164.6751351760031 165.70701168617234,164.37651472634752 166.29298831394408,162.74287570998422 166.1277128548245,162.40911952660827 166.32303839741508,161.5483768020349 161.5,159.1242202699068 166.30801335565047,161.49567812307214 165.1961602671654,164.64000338624464 164.79048414027784,166.69520059518982 165.42153589322697,165.16697945266787 165.82721202005632,164.92105749629263 174.78213689487893,166.712766273733 176.9307178631425,167.69644130986126 178.82387312193168,170.87577973007865 182.76043405680684,168.4693247536925 184.48831385647645,167.73157245348557 188.5,166.6249378623179 187.98914858099306,164.32381694426294" stroke="#4dd2ff" stroke-linecap="round" stroke-linejoin="round" stroke-width="0.5"><title>2023-02-22 5.0km</title></polyline><polyline fill="none" points="11.5,198.12874665253912 11.669544740987476,195.10536588393006 11.902668759808876,194.6840689263845 14.318681318720337,194.80797995354078 17.084379905834794,195.83643641995877 18.02747252746485,195.89839134037175 18.451334379962645,196.18338355235028 18.832810047082603,196.05947398018907 20.64481946628075,196.33207486596802 21.1004709576373,196.2577292327478 21.768053375242744,196.55511148242658 22.361459968611598,196.4559841497612 23.633045525930356,196.61706602275808 24.48076923075132,196.13381973920332 24.51255886972649,196.3816385951941 24.851648351643234,196.53032965715101 25.360282574605662,196.56750239311077 25.80533751961775,196.3940295242428 26.674254317069426,196.54272057043272 27.29945054941345,195.9479552531193 27.659733124019112,195.88600035889976 29.503532182076015,196.3072929934351 29.64128728414653,196.46837507092278 29.71546310832491,196.02230108295043 30.573783359490335,196.0718649433329 31.52747252746485,195.78687245999754 31.845368916750886,194.57254888987518 31.919544740987476,193.46973392309883 32.343406593368854,193.06082236400107 33.31828885403229,193.25908269214415 36.1157770800055,193.2466914314573 38.5,192.31734314450296 38.23508634214522,191.87125334746815 37.069466248038225,192.32973450348072 35.511773940350395,192.66430070088973 34.49450549448375,192.68908334416483 32.120879120891914,192.37929992639693 31.093014128739014,193.18473510839976 30.89167974877637,193.80429686416028 30.97645211929921,194.2875527585711 30.255886970146094,194.53537552077614 30.075745682930574,195.10536588393006 29.736656200955622,195.25405856600264 29.111459968611598,195.15493013225932 28.38029827317223,194.6964600350184 27.384222919936292,194.6840689263845 26.970957613841165,194.94428193205385 25.604003139713313,195.03101947213872 25.317896389286034,194.83276214326906 22.107142857159488,194.86993541799893 21.503139717446174,194.78319775861746 21.206436420732643,194.51059326813993 19.065934065904003,194.9690640928893 17.370486656203866,194.646895592683 14.212715855624992,193.4821251601752 12.602040816331282,193.2466914314573 15.653846153814811,193.22190890619822" stroke="#4dd2ff" stroke-linecap="round" stroke-linejoin="round" stroke-width="0.5"><title>2023-02-10 5.9km</title></polyline><polyline fill="none" points="47.72535822837381,200.25753993881517 47.76052974379854,196.54240058214054 48.979808944801334,196.5561097792379 51.00803300039843,197.07705819400144 52.12179765518522,196.748038386213 52.57902735559037,195.36340420709166 52.66109422489535,194.14326875731058 53.0128093790845,193.75940354353224 55.04103343462339,194.04730256048788 55.427920104179066,193.85536995358416 57.33890577504644,193.88278891483787 59.285062961338554,193.2658608835336 62.6966999565484,191.5521564968658 66.60073816758813,191.01747608963342 68.5,190.3045654479647 68.39448545372579,190.38682456834067 68.2069040381466,190.05778777354863 68.24207555357134,189.74246006119938 67.60898827615893,190.0989174186252 65.97937472863123,190.5102131509775 65.27594442031113,190.53763282003638 65.11181068170117,190.3319851605629 62.931176726007834,190.72957034109277 61.48914459394291,191.2642519363726 59.109205384214874,192.6215106928139 57.36235345201567,193.16989403692423 55.22861485014437,193.32069904965465 53.5286582717672,193.00537927738333 52.68454190186458,193.03279841842595 51.72318714711582,193.85536995358416 51.500434216228314,194.48600459452427 51.57077724701958,195.11663616649457 51.05492835427867,195.11663616649457 50.6797655231785,195.47307874100807 50.59769865387352,196.00774076450034 50.21081198437605,196.1859609488165 49.43703864526469,195.8980666831194 49.155666521866806,195.15776420589827 48.44051237514941,194.78761138136906 47.631567520613316,195.0206706904719 47.186061658663675,195.71984610287473 46.224706904031336,195.8980666831194 45.509552757197525,195.9117759483488 45.263352149399,195.70613681730174 41.67585757706547,195.67871824183385 41.5,195.52791597311443 41.757924446312245,195.22631090920186 43.68063395569334,195.08921746628766 43.903386886639055,195.78839250885358 44.853017802815884,195.71984610287473 45.63851498044096,195.2126015714457 46.36539296567207,195.26743891381193 46.705384281347506,194.8561582804832 47.1039947894169,194.8424489035824 47.748805905284826,195.5416252775467 48.616369952156674,195.50049735994253 49.13221884495579,195.92548521213757 50.19908814586233,196.21337941696402 51.3831958314986,196.04886852107302 51.688015631749295,195.04808940512885 51.72318714711582,195.9529037353932 51.31285280070733,196.28192556192516 49.81220147636486,196.07628701823705 49.4487624837202,195.9117759483488 49.0384281371953,195.06179876030365 46.78745115065249,194.40374807621993 46.224706904031336,194.54084224431426 44.829570125904866,195.67871824183385 44.12613981764298,195.6650089519535 43.76270082499832,195.1303455143934 44.09096830221824,194.92470514337765 44.66543638735311,194.92470514337765 45.14611376461107,195.34969488385832 46.31849761179183,195.26743891381193 46.84607034298824,194.8972864025709 47.33847155881813,195.29485757630027 47.77225358225405,195.00696133096062 48.5343030829099,194.8561582804832" stroke="#4dd2ff" stroke-linecap="round" stroke-linejoin="round" stroke-width="0.5"><title>2023-02-05 7.1km</title></polyline><polyline fill="none" points="71.82088285230566,199.21691905512853 72.0653650254535,197.01026523227483 72.24108658745536,196.94772764408845 73.50933786077076,197.15320811709535 73.9601018675603,197.08173670493125 75.1519524618052,197.59096919676085 75.66383701187442,197.64457243831566 75.90831918505137,196.58143512616516 75.7249575551541,196.2151410194565 75.19779286923585,196.22407504096918 74.9456706281926,195.97392208154633 73.52461799659068,196.09899865386978 72.67657045839587,195.95605398465705 72.27928692699061,195.652295759166 71.55348047538428,195.51828442998521 71.5,196.06326250925486 71.55348047538428,195.54508671282383 71.81324278438115,195.52721852519608 71.95076400681864,195.63442759423924 71.93548387094052,196.0096582639526 72.08064516127342,196.2419430811351 73.86842105264077,196.09899865386978 75.87011884548701,196.9119918586366 77.1918505942449,197.22467946875986 78.00169779287535,197.0906706347596 78.52122241086909,197.2961507599539 79.06366723260726,197.2514812100344 79.69779286926496,197.37655589021597 81.23344651953084,197.13534026969864 82.41001697789761,197.28721685185155 83.07470288625336,197.22467946875986 83.27334465197055,197.03706704161596 84.02971137521672,197.0191991696629 84.297113752109,197.2514812100344 84.9312393888249,197.45696094397135 85.66468590832665,197.40335758332367 85.87860780983465,197.24254729722452 85.87096774191014,196.37595326194423 86.01612903227215,195.97392208154633 86.61205432933639,195.42000932007795 88.75891341257375,195.61655942551442 89.89728353137616,195.46467983875482 90.81409168080427,195.15198571179644 93.16723259759601,193.97267172898137 95.74957555177389,193.68677494975418 98.0797962648503,192.632522210537 98.47707979622646,191.90883262654825 98.27843803050928,190.78308094487147 98.5,191.86416022673802 98.41595925294678,192.14112872449186 98.30135823428282,192.40916188957635 97.35398981321487,192.98096313144197 97.20118845498655,193.23112495720852 96.59762308996869,193.26686230038467 95.91765704582212,193.62423490027868 94.74108658742625,193.86546055019426 94.0764006790996,193.81185490975622 92.93039049234358,194.0173430132927 90.79881154498435,195.12518330416788 89.81324278435204,195.45574573692284 88.34634974534856,195.58975716532586 86.6960950763605,195.36640466647077 85.95500848896336,195.93818588398426 85.74872665535077,195.75950466939685 85.97792869264958,196.02752634949138 85.85568760609021,196.331283225285 85.94736842103885,196.67970888447599 85.80984719863045,196.83158628601814 85.86332767404383,197.13534026969864 85.69524617993739,197.34975418866088 84.98471986415097,197.45696094397135 84.12903225806076,197.13534026969864 84.06027164685656,196.99239735467563 83.30390492358129,197.00133129394817 82.98302207130473,197.19787771895062 82.34889643461793,197.2514812100344 81.9745331069571,197.2514812100344 81.77589134123991,197.11747241857665 80.15619694397901,197.1621420393567 79.28522920203977,197.04600097615912 78.33786078097182,197.18894380047277 77.91765704582212,197.05493490977824 77.32173174872878,197.21574555311963 76.19100169779267,196.99239735467563 73.80730050933198,196.13473478337983 73.28013582344283,196.05432847073826 72.07300509334891,196.23300906152872 71.9202037351497,195.92031777954253 72.03480475384276,195.5986912530061 72.66893039047136,195.99179017464485 73.36417657043785,196.13473478337983 74.90747028859914,195.97392208154633 75.13667232598527,196.22407504096918 75.48811544990167,196.25087709978834" stroke="#4dd2ff" stroke-linecap="round" stroke-linejoin="round" stroke-width="0.5"><title>2022-12-15 10.0km</title></polyline><polyline fill="none" points="101.5,198.61970566848322 101.73842874544789,195.37982792990078 103.70341047504917,195.51442455674987 103.9582825821999,195.6874770698123 105.62728380024782,196.07203703012055 105.89037758830818,194.95680866199837 105.8246041412931,194.61070052367722 105.10931790500763,194.56262984468776 104.86266747870832,194.24536272544356 103.97472594396095,194.28381940491818 103.62941534712445,194.12037840463017 103.07034104751074,194.32227606815286 102.48660170525545,194.28381940491818 101.68909866016475,193.8223381767457 101.60688185141771,194.26459106719994 101.80420219246298,194.57224398251856 103.6458587089437,194.29343357226753 103.92539585873601,194.62992878819932 105.98081607796485,195.34137171418115 107.37028014616226,195.6297929354114 108.11845310599892,195.46635435576172 108.77618757612072,195.67786304995388 110.3629719853925,195.6970910886448 111.23447015834972,195.64902098428138 111.59622411691817,195.48558243921434 112.90347137636854,195.67786304995388 113.55298416566802,195.6297929354114 113.857186358131,195.399056031667 114.6218026796414,195.399056031667 114.81912302071578,195.60095085445937 115.50152253347915,195.74516116758605 115.690621193673,195.947055221528 115.88794153471827,195.71631912327575 116.29080389768933,195.8028452287399 116.56211936660111,195.6970910886448 116.74299634594354,194.28381940491818 117.47472594399005,193.6396678765086 119.16839220462134,193.85118082218105 120.56607795372838,193.78388130194799 121.77466504264157,193.4666114639258 124.15895249697496,192.2167498097624 127.34074299639906,191.78410138576146 128.2944579781033,191.38029433152406 128.40956151037244,191.81294467812404 128.5,191.78410138576146 127.61205846531084,192.13022028979321 124.88246041414095,192.4571091552716 121.70066991474596,193.89925187750487 120.50852618759382,194.22613437955442 119.11084043851588,194.3126619038885 117.65560292327427,194.1107642190036 117.40895249694586,194.3991893458151 117.35962241172092,195.22600296940072 117.07186358098988,196.22586055866122 116.64433617540635,196.38929777240992 116.27436053592828,196.48543717261055 114.45736906214734,196.04319508955814 112.78014616324799,196.07203703012055" stroke="#4dd2ff" stroke-linecap="round" stroke-linejoin="round" stroke-width="0.5"><title>2022-12-12 7.2km</title></polyline><polyline fill="none" points="131.9368258859613,198.02224863461743 132.15523882897105,194.96963480499835 132.08243451471208,194.68990916513576 131.51040061633103,194.61693714713329 131.5,194.25207636241248 134.44337442220422,194.30072453397588 137.70916795072844,195.29800751378934 140.04930662561674,195.7601601076094 148.08898305083858,195.6385411840747 148.99383667181246,195.71151255363657 150.5227272727061,196.21014900597947 151.00115562404972,196.05204499916726 151.63559322035871,195.73583633319504 151.93721109401667,194.62909915336786 151.9892141756718,193.60748614617478 152.20762711868156,193.26694645967655 152.7380585516221,193.1818113804111 154.24614791985368,193.4858649453745 154.5685670261737,193.31559504804318 156.08705701079452,193.3642436158625 157.17912172572687,193.0723519001258 158.5,192.43991730692505 158.31278890604153,191.97775136538985 155.61902927584015,192.7926216437845 154.38135593221523,192.82910823755083 152.0724191062618,192.54937738931767 151.16756548540434,193.35208147585945 150.99075500766048,193.83856607326743 151.13636363635305,194.3128865736362 150.96995377499843,194.60477513964724 151.0323574729846,194.95747283482342 150.7619414483779,195.2493597642533 150.27311248076148,195.2007119941627 149.63867488439428,195.39530295107397 149.34745762712555,195.10341639216495 148.75462249614066,195.00612070783973 148.61941448383732,194.8358530621481 148.5674114021822,194.94531086332427 147.61055469955318,194.84801504520874 146.20647149457363,195.11557834690757 145.7176425269572,195.12774030038418 145.395223420579,194.90882494115795 143.2526964560966,194.98179677388543 142.00462249614066,194.82369107779232 140.73574730358087,195.00612070783973" stroke="#4dd2ff" stroke-linecap="round" stroke-linejoin="round" stroke-width="0.5"><title>2022-12-06 5.0km</title></polyline><polyline fill="none" points="161.5,198.29425861632626 161.73098075162852,195.7090699516193 161.8547204400238,195.8344725856732 163.5870760770631,195.85376528331108 165.85563703026855,196.6061773068359 165.93813015587511,196.7701637187056 165.81439046750893,196.7701637187056 165.92163153071306,196.59653103810706 165.68240146661992,196.6061773068359 165.47616865264717,196.3939591595481 165.65765352893504,196.45183688504767 165.86388634284958,195.06276133350184 165.73189734190237,195.1495791754278 165.74839596706443,195.42932499263406 166.05362053166027,195.68013085773418 167.29926672781585,195.98881405236898 168.0582034830877,195.84411893499055 168.7346471127821,196.05633836190827 169.790559120127,196.08527733641677 172.0756186984945,195.88270432208083 172.71081576540018,196.05633836190827 173.64298808434978,195.95987504727964 173.8739688359492,195.77659446830512 174.69065077914274,195.77659446830512 174.7731439047202,195.94058237207355 175.77956003672443,196.22997207112348 176.56324472965207,196.09492365919868 176.75297891846276,194.63831736089924 177.51191567373462,194.00164769739058 179.6897341888398,194.2235179332638 180.74564619618468,194.1270526796725 181.91704857931472,193.77013035392156 184.1278643446567,192.59324143517006 184.87855178737664,192.4003073762433 186.8583868011192,192.23631310518977 187.93904674611986,191.94691073076683 188.35976168652996,191.70574138368102 188.49175068744808,192.17843270378216 188.5,192.07231853912526 186.81714023835957,192.6318281979693 184.49908340975526,192.9405217124222 183.29468377641751,193.54825901480217 181.05912007339066,194.51291308178043 179.368010999111,194.59008496625756 179.18652612282312,194.69619620079175 177.66040329975658,194.51291308178043 173.64298808434978,196.44219060002797 169.8235563703056,196.51936085173656" stroke="#4dd2ff" stroke-linecap="round" stroke-linejoin="round" stroke-width="0.5"><title>2022-11-27 5.6km</title></polyline><polyline fill="none" points="11.5,226.59935555000993 12.571200850128662,226.7559318855856 12.867693942622282,226.66645972222614 13.355472901137546,226.91250798923284 13.68065887351986,226.8565879788148 15.392667375097517,227.3822349088441 15.679596174217295,226.05133654937526 15.52656748139998,225.8276545082408 15.583953241177369,226.28620218321885 16.062167906493414,226.5881715171854 17.573326248617377,226.8789559865545 18.290648246533237,226.66645972222614 19.046227417653427,226.93487598508364 21.810308182786684,226.91250798923284 22.34590860782191,226.7335638518416 23.809245483542327,226.91250798923284 24.593517534493003,226.8677719832849 24.94739638682222,226.59935555000993 25.894261423964053,226.5881715171854 25.999468650319614,226.80066793884907 27.099362380395178,227.13618773507187 27.845377258199733,227.0355319080045 28.160998937266413,226.71119581333915 28.266206163621973,226.16317739248188 28.141870350693353,225.71581331024208 28.294899043510668,225.2572631612129 29.174814027617685,224.54147358713817 31.384165781084448,224.8210794663537 32.885759829950985,224.70923720340215 34.44473963865312,224.18357698266482 36.682784272008575,222.96448258063901 38.5,222.6177650911486 36.826248671568464,222.89737605854316 34.39691817207495,224.20594555592834 32.84750265668845,224.69805297059793 31.412858660914935,224.78752679988247 29.423485653533135,224.4855523225633 29.069606801262125,224.5526578365243 28.266206163621973,225.30199984865612 28.122741764062084,225.71581331024208 28.247077577048913,226.16317739248188 28.074920297483914,226.46514707783354 28.141870350693353,226.81185194922728 27.88363443140406,227.04671589351346 26.8124335812754,227.09145182373322 25.68384697131114,226.554619411545 24.909139213559683,226.56580344793474 24.536131774657406,226.84540397319506 23.637088204035535,226.90132398950664 22.919766206119675,226.72237983319064 19.897449521755334,226.6776437467779" stroke="#4dd2ff" stroke-linecap="round" stroke-linejoin="round" stroke-width="0.5"><title>2022-11-23 5.3km</title></polyline><polyline fill="none" points="41.5,225.64989600601984 43.79856115108123,225.92751211590803 46.3669064748683,226.63416838923877 46.70143884891877,225.14513778725086 46.62589928059606,224.79180576328508 46.29136690648738,224.6277583963456 45.75179856113391,224.67823453324672 45.27697841724148,224.28704391336942 44.111510791350156,224.32490112616506 43.8525179856224,224.4637108038005 43.89568345324369,224.58990127961442 47.564748201402836,225.8391797873992 48.708633093570825,225.97798770284135 49.312949640268926,225.63727707659564 50.06834532372886,225.7634663108838 50.985611510812305,225.59942028028308 51.16906474821735,225.86441760222078 51.687050359731074,225.9401310146568 54.665467625891324,225.86441760222078 55.410071942489594,226.10417657672951 56.67266187054338,226.0410821564583 57.08273381291656,225.75084739346494 58.140287769783754,225.73822847470728 58.388489208591636,226.0158443790133 59.65107913670363,226.33131621326174 60.74100719427224,226.05370104319445 60.71942446043249,225.54894453316228 60.881294964055996,225.29656547717605 60.76258992811199,224.66561550099868 60.96762589929858,224.18609128703247 61.90647482016357,223.44156302940246 65.1762589928112,223.7570416720264 66.96762589929858,223.39108636909805 68.23021582735237,222.8484609222287 68.5,223.34060968748963 67.45323741005268,223.80751817743294 65.57553956832271,224.28704391336942 64.24820143886609,224.21132945166028 64.03237410075963,224.35013926137617 62.3381294964347,224.04728128637362 62.00359712226782,224.13561494184978 61.73381294962019,224.48894890960946 61.604316546814516,225.97798770284135 61.28057553956751,226.8991634124468 60.54676258994732,227.15153907776403 57.65467625902966,226.59631190929213 49.51798561151372,226.77297537958657 46.485611510812305,226.19250870901305" stroke="#4dd2ff" stroke-linecap="round" stroke-linejoin="round" stroke-width="0.5"><title>2022-11-18 5.5km</title></polyline><polyline fill="none" points="71.5,227.95875928016176 71.79705304518575,224.85737169697677 72.49724950885866,225.03105156960373 73.17622789787129,224.93180595957529 75.02220039296662,225.14270278041658 76.82573673868319,225.76298534946545 77.1121807465679,224.43557664969558 77.0591355599463,223.85250452729815 76.21041257365141,223.81528705937671 75.76483300584368,223.41829999967013 74.64027504913975,223.46792345563154 74.41748526523588,223.7532579198887 74.51296660123626,223.85250452729815 77.3986247543944,224.82015454793145 79.24459724948974,225.20473118498194 79.96601178782294,224.9566173699568 80.80412573675858,225.24194821198034 83.88074656185927,225.22954253762873 84.47485265223077,225.0186458729222 86.10864440078149,225.24194821198034 86.93614931235788,225.19232550671586 87.48781925346702,224.93180595957529 88.34715127694653,224.94421166543907 88.60176817286992,225.19232550671586 89.90667976421537,225.4652501257733 90.93575638503535,225.22954253762873 91.1055009822594,224.42317089002609 90.96758349705487,223.9145336143265 91.14793713163817,223.45551759363298 92.07092337909853,222.61191589706868 95.59312377206516,222.8848465218398 97.00412573671201,222.58710399059055 98.38330058928113,222.04124071983097 98.5,222.53748016190366 95.91139489191119,223.43070586561953 93.3546168958419,223.4803293163277 92.62259332020767,223.21980596583307 92.17701375245815,223.35627065017616 91.95422396855429,223.65401122844196 91.84813359525288,224.9566173699568 91.56168958736816,225.97388067553402 90.69174852652941,226.2716146078892 88.71846758347237,225.775390967392 79.97662082512397,225.8870414695848" stroke="#4dd2ff" stroke-linecap="round" stroke-linejoin="round" stroke-width="0.5"><title>2022-11-06 5.5km</title></polyline><polyline fill="none" points="101.5,233.31434389376955 102.12257281545317,229.9619087426545 102.56492718443042,220.78549743857002 102.94174757279688,219.0804345132492 103.04004854371306,219.25285733642522 105.03883495141054,219.19538308023766 110.65837378642755,220.45981250210025 111.0515776698594,217.77767898769525 110.90412621351425,218.5440069023898 111.51031553390203,218.984643985008 114.4265776699176,219.5785444433859 120.43932038830826,218.39074157885625 120.83252427179832,218.39074157885625 120.9144417475909,219.46359611958906 122.25788834947161,219.27201541773684 123.61771844659233,219.3486477227998 124.12560679606395,219.67433465748036 126.28822815534659,219.5977024902968 126.97633495146874,219.11875071037502 126.99271844665054,218.40989975140837 128.40169902914204,217.98841948750487 128.5,217.01134783015004 127.9757281554048,216.6856561062159 127.0910194175085,217.87347015435807 127.25485436891904,218.33326704913634 126.89441747573437,218.4865324213024 126.30461165052839,219.46359611958906 124.50242718443042,219.6934926942631 123.61771844659233,219.3486477227998 118.50606796116335,219.3486477227998 118.0964805824915,219.6551766187331 116.85133495146874,219.6551766187331 115.5570388349588,219.21454116767563 114.29550970869604,219.5785444433859 112.10012135922443,219.17622499080608 107.00485436891904,217.50946345145348 106.8410194174503,217.20293092356587 107.23422330094036,217.06882277947443 108.98725728149293,216.85808120950242 109.56067961163353,217.50946345145348 110.11771844653413,217.47114691387105 109.54429611645173,217.4519886420021 108.95449029124575,216.89639787684428 108.02063106792048,216.89639787684428 107.07038834947161,217.03050614862877 106.95570388343185,217.52862171718152 112.1820388349588,219.27201541773684 110.7894417475909,218.4673742568848 110.87135922326706,217.77767898769525" stroke="#4dd2ff" stroke-linecap="round" stroke-linejoin="round" stroke-width="0.5"><title>2022-11-02 5.0km</title></polyline><polyline fill="none" points="132.33140877593542,231.16727941273712 132.28983833716484,230.91209505889128 131.55196304846322,230.81488182262547 131.5,230.462483151794 131.77020785218338,228.63971415253036 131.77020785218338,226.96274113294203 131.9364896073821,226.61033064693038 131.8429561200901,225.3222003632036 132.0715935335029,222.6243712705982 132.28983833716484,221.60355455180252 132.466512701998,221.73723344780592 134.5346420322894,221.66431770563213 137.195150115469,222.49069340692222 137.45496535795974,220.7528670233296 137.31986143189715,221.15390621448023 137.50692840648117,221.44557020141656 139.63741339487024,221.93167520068528 142.95265588915208,221.23897495382698 144.07505773671437,221.2146696061609 144.70900692837313,221.53063872476923 145.05196304846322,221.32404363020032 146.45496535795974,221.3605016150541 146.8810623556492,220.97161584662535 147.51501154736616,221.28758563374868 148.31524249416543,221.00807394335425 148.91801385674626,221.27543296571093 149.18822170898784,221.98028558748047 149.9364896073821,222.21118464381289 150.98614318697946,221.99243818094692 151.16281755192904,221.08099010204023 151.0381062355591,220.61918698181398 151.23556581983576,220.13307642858854 151.87990762118716,219.48897677696368 152.51385681290412,219.3552952646205 154.3429561200319,219.6469638182607 155.54849884519354,219.6469638182607 156.88914549647598,219.3917538743117 158.30254041560693,218.83272058726288 158.5,219.2580722488492 157.35681293299422,219.79279781735386 155.82909930712776,220.18168757648527 154.24942263273988,220.27890981056407 152.30600461893482,220.06015966818813 152.01501154730795,220.40043748745666 151.63048498838907,222.63652379596897 150.8094688220881,222.9403365118851 147.8683602771489,222.442083236092 139.9699769053259,222.60006621604407 137.60046189371496,222.1018114644612 137.3094688221463,223.94898896698578" stroke="#4dd2ff" stroke-linecap="round" stroke-linejoin="round" stroke-width="0.5"><title>2022-10-28 6.2km</title></polyline><polyline fill="none" points="161.5,227.92132134532585 161.66901408456033,225.3273723036109 161.848591549322,224.8579848913796 162.01760563382413,225.03091731540917 163.30633802816737,224.90739418150042 164.32042253523832,225.01856500787835 166.4542253521504,225.74734891511616 166.88732394366525,225.64853102476627 167.13028169010067,224.32683370183076 167.03521126759006,223.88214712684567 166.71830985916313,223.733917892132 166.10563380282838,223.7833276579404 165.75704225350637,223.43745885819226 164.6267605634057,223.49922121899726 164.46830985916313,223.64745075166138 164.59507042251062,223.857442267421 167.83802816906245,224.96915576477477 168.89436619722983,225.15444031860534 173.36267605633475,224.49976691255142 173.40492957748938,225.11738343136676 174.88380281691207,225.01856500787835 175.85563380282838,225.25325862710451 178.33802816900425,224.94445113540132 178.45422535209218,225.17914490357362 179.67957746476168,225.48795177457941 180.6725352111971,225.38913366469205 180.88380281691207,225.2162017712035 180.86267605633475,224.69740455401188 181.03169014083687,224.4750621838175 180.90492957748938,223.86979469778453 181.10563380282838,223.41275390471856 182.0246478873305,222.63454519469815 184.61267605627654,222.91865373755718 185.6478873239248,222.86924360587727 186.852112676017,222.63454519469815 188.23591549292905,222.07867865467415 188.5,222.51101952559839 187.2746478872723,223.0421789753891 185.65845070424257,223.46216380647093 184.401408450678,223.41275390471856 184.17957746476168,223.52392615416466 182.5,223.23981908405403 182.14084507041844,223.3386390129599 181.91901408450212,223.67215565547667 181.85563380277017,224.7468139121047 181.5281690140837,225.96968886259128 180.651408450678,226.24143711243232 179.89084507036023,226.1673240161108 179.76408450701274,225.94498444491182 179.34154929581564,226.00674547937524 178.28521126764826,225.75970114552183 173.7746478873305,225.82146227797057" stroke="#4dd2ff" stroke-linecap="round" stroke-linejoin="round" stroke-width="0.5"><title>2022-10-20 5.2km</title></polyline><polyline fill="none" points="17.59795918362215,256.2242592408584 18.00204081623815,256.8471112581756 19.067346938652918,257.1477977551258 20.1693877549842,256.7397231156501 23.034693877445534,257.04040977158 23.23673469386995,256.7182454802969 23.71428571420256,257.2337081009755 24.559183673467487,257.4484838067292 25.165306122391485,257.2337081009755 27.95714285701979,257.51291647410835 28.912244897917844,256.61085726962483 29.481632652925327,257.1263201629481 30.82244897959754,256.8041560079728 32.126530612120405,256.99745456234086 33.761224489775486,256.7612007486896 33.98163265292533,258.3290618247993 34.257142857066356,258.09280956063594 34.31224489794113,256.5249466601672 34.826530612190254,256.15982616449764 37.85714285704307,257.06188737282355 38.5,258.13576453822316 38.05918367346749,256.39608067787776 36.44285714277066,252.55154125203262 34.18367346923333,253.34622855469934 33.504081632592715,254.46308112777479 31.77755102037918,254.74229331102106 30.895918367314152,254.74229331102106 30.54693877545651,254.39864749246044 25.0367346938001,254.4201253731735 24.595918367267586,254.0979569240444 22.134693877538666,254.57047047448577 21.693877551006153,254.22682436501782 27.093877551029436,253.4750964728446 27.36938775505405,253.99056732743338 27.020408163196407,254.52751474254183 24.4306122448761,254.22682436501782 22.263265306013636,254.57047047448577 21.491836734698154,254.29125805487274 25.293877550866455,253.58248634211486 27.314285714179277,253.51805242734554 27.351020408095792,254.18386856048892 27.05714285711292,254.52751474254183 24.37551020400133,254.22682436501782 22.134693877538666,254.54899260964885 21.51020408165641,254.31273594692175 23.034693877445534,254.03352317291137 23.51224489789456,254.3342138367443 26.983673469279893,254.63490405520133 27.314285714179277,254.37716960943362 27.332653061137535,253.51805242734554 26.08367346925661,253.4106625240238 20.05918367335107,254.65638191089965 17.322448979481123,254.1623906547611 11.757142857066356,252.29380416145432 11.5,251.9501541984646 11.904081632615998,251.69241634452192 13.851020408095792,251.67093817521527" stroke="#4dd2ff" stroke-linecap="round" stroke-linejoin="round" stroke-width="0.5"><title>2022-09-24 5.1km</title></polyline><polyline fill="none" points="66.04545454541221,259.8041914785863 67.11264822119847,259.1178895230405 68.3399209487252,254.50092834205134 63.37747035548091,251.50612339074723 59.26877470361069,256.37267371604685 59.26877470361069,259.4922361433273 61.45652173901908,260.42810165468836 65.99209486157633,260.4904926359304 67.16600790503435,259.7418004247593 68.5,254.25136184343137 63.80434782616794,251.31894757662667 59.375494071282446,256.4350651263376 59.482213438721374,260.0537556281779 62.41699604713358,260.1785376634216 63.32411067187786,260.80244744365336 62.36363636353053,261.73831087659346 42.72727272706106,262.861345036712 41.92687747022137,263.48525197961135 43.3142292490229,262.4246097841533 63.91106719360687,262.923735760618 67.05928853736259,262.17504663724685 54.89328063232824,261.73831087659346 55.90711462451145,246.88910263794241 55.32015810278244,246.7643177920836 53.13241106714122,261.98787420796 41.5,261.86309255548986 41.660079051274806,262.54939131764695 67.16600790503435,262.861345036712 65.19169960450381,261.73831087659346 63.00395256909542,262.2374374339124 54.839920948725194,261.55113830877235 55.693675889167935,246.51474802038865 53.66600790503435,261.55113830877235 51.905138339847326,262.2374374339124 43.047430829843506,261.86309255548986 42.94071146240458,262.54939131764695 68.44664031616412,263.1732985905255 61.296442687511444,262.923735760618 66.73913043481298,262.861345036712 66.73913043481298,262.05026502447436 63.590909090824425,261.8007017194177" stroke="#4dd2ff" stroke-linecap="round" stroke-linejoin="round" stroke-width="0.5"><title>2022-09-22 5.0km</title></polyline><polyline fill="none" points="83.84896467725048,257.0766429074574 84.91778319119476,256.9228202250815 85.70706455543404,257.44197125631035 86.64433617546456,257.3073766868911 88.6668696711422,257.63424903976556 89.73568818520289,257.1535541998164 89.70280146162258,256.8074531278544 89.93300852621906,256.7497695518832 90.3276492083678,257.42274346679915 92.2350791717763,257.1920098337723 92.9257003653911,257.46119904382795 94.37271619972307,256.7497695518832 94.38915956154233,257.3650600859837 94.65225334954448,257.6150212705543 94.81668696715496,256.5959465928754 95.14555420225952,256.3844398117071 98.02314250922063,257.1535541998164 98.5,258.0572594473924 97.64494518883293,255.23076212748128 96.64190012181643,253.09643910708837 95.19488428748446,253.6156010673585 94.75091352016898,253.30794971434807 92.9257003653911,253.03875435327063 90.70584652863909,254.78851707362628 87.51583434839267,254.84620127212838 87.10475030448288,253.98093637276907 84.29293544456596,254.38472717172408 83.30633373942692,254.61546436839853 84.45736906211823,255.13462198991328 89.19305724726291,255.0961659206514 89.93300852621906,254.78851707362628 91.28136419004295,254.78851707362628 92.11997563956538,255.0961659206514 93.83008526189951,254.90388545228052 94.14250913524302,254.09630526401452 93.583434835542,253.59637287308578 92.62971985386685,253.5002318709885 91.18270401953487,254.28858658669924 90.22898903780151,253.59637287308578 88.92996345920255,253.96170821713167 87.30207064555725,253.92325189970143 87.26918392209336,254.88465739428648 85.93727162003051,254.65392053933465 83.89829476253362,254.98079766404408 82.86236297199503,254.65392053933465 82.15529841656098,254.9423415622441 80.98781973205041,254.90388545228052 74.24604141293094,252.86569998202322 74.64068209507968,252.25039421652036 73.55542021919973,251.94274055262213 72.91412911086809,252.4042208531464 71.5,252.15425250247063 71.76309378806036,252.3849925307295 74.22959805111168,252.67341715407383 76.46589524968294,252.28885088789684 77.17295980505878,252.94261305624968 78.06090133980615,252.78878687528777 78.57064555416582,252.98106958111748 78.24177831917768,255.86528575996635 77.78136419004295,255.86528575996635 78.8008526188205,256.3075281939091 78.19244823389454,256.3844398117071 78.04445797810331,256.98050374619197" stroke="#4dd2ff" stroke-linecap="round" stroke-linejoin="round" stroke-width="0.5"><title>2022-09-09 5.2km</title></polyline></svg>