<?xml version="1.0" encoding="utf-8" ?>
<svg baseProfile="full" height="300mm" version="1.1" viewBox="0,0,200,300" width="200mm" xmlns="http://www.w3.org/2000/svg" xmlns:ev="http://www.w3.org/2001/xml-events" xmlns:xlink="http://www.w3.org/1999/xlink"><defs /><rect fill="#222222" height="300" width="200" x="0" y="0" /><text fill="#FFFFFF" style="font-size:12px; font-family:Arial; font-weight:bold;" x="10" y="20">Over 5km Runs</text><text fill="#FFFFFF" style="font-size:4px; font-family:Arial" x="10" y="280">ATHLETE</text><text fill="#FFFFFF" style="font-size:9px; font-family:Arial" x="10" y="290">fengde</text><text fill="#FFFFFF" style="font-size:4px; font-family:Arial" x="120" y="280">STATISTICS</text><text fill="#FFFFFF" style="font-size:3px; font-family:Arial" x="120" y="285">Number: 46</text><text fill="#FFFFFF" style="font-size:3px; font-family:Arial" x="120" y="290">Weekly: 1.5</text><text fill="#FFFFFF" style="font-size:3px; font-family:Arial" x="141" y="285">Total: 277.8 km</text><text fill="#FFFFFF" style="font-size:3px; font-family:Arial" x="141" y="290">Avg: 6.0 km</text><text fill="#FFFFFF" style="font-size:3px; font-family:Arial" x="167" y="285">Min: 5.0 km</text><text fill="#FFFFFF" style="font-size:3px; font-family:Arial" x="167" y="290">Max: 10.0 km</text><polyline fill="none" points="11.5,47.66035672186263 13.235580264066812,47.77005879220087 19.380472550343256,47.60550564314326 21.594510076392908,48.088194139971165 22.466990965942387,47.73714818328881 22.80472550378181,45.68569961065805 22.992355802620295,45.43337960376084 24.746699096576776,45.64181791443116 27.392286309914198,45.24688181278907 30.957261987496167,43.60129853167018 34.287699791486375,43.09664775980491 37.11153578874655,41.911805860028835 38.5,42.350637771887705 36.83009034045972,41.97763076522824 34.175121612264775,43.129559841545415 30.910354412801098,43.579357244867424 29.12786657398101,44.5447694736431 26.79186935373582,45.40046825326135 24.99061848508427,45.499202273451374 24.71855455171317,45.64181791443116 23.011118832509965,45.43337960376084 22.78596247395035,45.696670031808026 22.43884642107878,47.78102899287478 21.753995830425993,48.00043276222277 20.778318276570644,47.97849240616779 19.64315496868221,47.58356520356756 17.78561501041986,47.58356520356756" stroke="#4dd2ff" stroke-linecap="round" stroke-linejoin="round" stroke-width="0.5"><title>2023-07-12 5.4km</title></polyline><polyline fill="none" points="42.5643153526471,47.0175336719185 44.91701244813157,47.41054976218584 53.25228215765674,47.240242942898476 55.862655601638835,47.790464130557666 56.82614107884001,47.384348728330224 57.22946058085654,44.97382989604375 57.58796680497471,44.567705256762565 59.70539419085253,44.869023665021814 59.91825726139359,44.73801575152902 61.43070539418841,44.790418933538604 63.29045643151039,44.2401844161941 66.93153526971582,42.445354829011194 68.5,42.209535869442334 66.85311203316087,42.445354829011194 64.13070539414184,43.8471582640268 61.721991701226216,44.64631012958853 59.77261410781648,44.65941093688889 59.671784232370555,44.869023665021814 57.54315352701815,44.60700769940013 57.18464730284177,45.00003143993672 57.12863070535241,46.048088649746205 56.747717842285056,47.476052322665055 55.694605809112545,47.790464130557666 53.29709543567151,47.2009413359483 45.34273858915549,47.384348728330224 44.08796680497471,47.30574559341767 41.5,46.781723419058835" stroke="#4dd2ff" stroke-linecap="round" stroke-linejoin="round" stroke-width="0.5"><title>2023-07-10 5.0km</title></polyline><polyline fill="none" points="75.88825395307504,58.156631751247915 74.88602299953345,57.226671682772576 75.09380258747842,57.51281392603414 74.8493560134666,57.77034142530465 75.08158025878947,57.92771909919975 75.36269381892635,57.8847979336424 76.82937326305546,58.5 78.0149391470477,57.727420209601405 78.21049640636193,57.06929318991024 78.74827886914136,57.11221461529203 79.20050503115635,56.33962686636369 79.1393933876534,54.408138109371066 79.64050886442419,53.7643023696437 83.27054048876744,56.26809073956974 83.69832199328812,56.196554574766196 83.99165788211394,55.86748772750434 83.82054528029403,55.466883524204604 84.85944321990246,54.69428633931966 85.10388979391428,54.33660095691448 85.10388979391428,53.77860986397718 85.67833924287697,53.19200135100982 86.35056732146768,51.97585361350502 86.87612745561637,51.68969960902177 87.1450186870643,50.90277296229033 88.31836224242579,49.72952833445743 88.70947676087962,49.58644902218657 89.05170196451945,48.7995100881526 89.65059607086005,48.35596066300059 89.28392620984232,46.939454331295565 89.60170675604604,45.708941790348035 90.01726593193598,44.95059706737811 92.14395112596685,43.004636355428374 92.7306229036185,41.96010172984097 92.66951126011554,38.110993247741135 92.95062482025241,35.406535238653305 93.3784063247731,34.462108535459265 94.85730809764937,32.501686506628175 95.1506439865334,31.57154928331147 94.05063440342201,31.5 93.85507714416599,31.857746036315802 94.01396741729695,32.515996259855456 93.4517402970232,33.11700452325749 93.58618591277627,33.66077159297129 93.15840440819738,33.78955820892588 92.58395495917648,34.977251194708515 91.78950359357987,35.76427089658682 91.80172592232702,36.451120695783175 90.87282894103555,37.16658551141154 90.3106018207618,38.912303709061234 91.05616387154441,39.2127939027996 90.87282894103555,40.58645482179418 92.59617728792364,40.58645482179418 92.8039568758104,41.65961766592227 92.59617728792364,42.360746105608996 91.69172496401006,43.4625119936245 90.8606066123466,43.64852352695016 90.89727359841345,44.13501401501708 89.60170675604604,45.55154984050023 89.30837086722022,47.239926616151934 89.71170771442121,48.29872837277071 89.0394796357723,48.7995100881526 88.70947676087962,49.58644902218657 87.62168950645719,50.330459786287975 86.92501677048858,51.53231464744022 86.36278965021484,51.93293055155664 85.07944513653638,53.79291735676816 84.89611020602752,54.622749338828726 83.89387925254414,55.42396157463372 83.85721226641908,55.69580035767285" stroke="#4dd2ff" stroke-linecap="round" stroke-linejoin="round" stroke-width="0.5"><title>2023-07-06 6.0km</title></polyline><polyline fill="none" points="104.40263691684231,47.273529981976026 106.72109533468029,47.54036814050778 112.63590263691731,47.380265330080874 113.73123732249951,47.52969462773035 114.41582150099566,47.84989952030446 115.13691683567595,47.82855255906907 115.84888438135386,47.52969462773035 116.11359026370337,46.473011272231815 116.1501014198875,45.61911764774413 116.42393509129761,45.26688442224986 118.15821501013124,45.4803592511671 118.34077079105191,45.373621893159 119.73732251516776,45.40564311242633 122.12880324543221,44.509045131650055 124.06389452330768,43.51637378711166 126.14503042591969,43.3028948025094 127.91582150099566,42.85458746448421 128.5,42.587736912682885 128.36308316426584,42.55571479904029 128.2261663285317,42.1927968006421 128.31744421907933,42.15010047968826 127.42292089248076,42.55571479904029 126.56490872206632,42.72649928768806 123.64401622716105,43.07874138250918 121.20689655171009,44.40230674605846 119.85598377278075,44.818585811291996 118.2403651115601,44.91464996703871 116.79817444219952,44.65847868176206 116.21399594319519,44.70117394114641 115.44726166327018,45.39496937381773 115.29208924947307,45.90730755391269 115.40162271802546,46.195496636937605 115.3286004056572,46.803893109005 115.01825557806296,47.081406070894445 113.95030425960431,47.081406070894445 113.30223123729229,46.82524028702028 113.11967545637162,46.60109469262534 112.1977687626495,46.63311552229425 111.20283975655911,46.921302532195114 110.58215010142885,46.921302532195114 110.43610547663411,46.76119873941934 108.32758620689856,46.81456669858744 108.13590263691731,46.312906768129324 105.22413793101441,46.89995537449431 103.6450304259779,46.57974746718537 101.5,45.789896950787806" stroke="#4dd2ff" stroke-linecap="round" stroke-linejoin="round" stroke-width="0.5"><title>2023-07-01 6.0km</title></polyline><polyline fill="none" points="145.45773955772165,46.44289783833665 145.72309582302114,47.00142594514182 148.31031941028778,47.63752480941184 149.0267813267419,47.5134081744618 149.72997542988742,47.24965997649997 150.0351351351128,46.380839028483024 150.2606879606028,44.348398493326386 150.67199017194798,43.882950132130645 153.07346437341766,44.14670438483881 153.35208845202578,43.976039922534255 155.67395577387651,43.882950132130645 158.5,42.92101883768919 158.22137592139188,42.362475190573605 154.98402948398143,43.37095522857271 153.16633906628704,43.417500293653575 150.49950859945966,43.04513935929572 149.27886977879098,43.99155488189717 149.00024570024107,44.689726352647995 149.14619164617034,45.1241424792679 148.92063882062212,46.3187801924214 147.3019656019751,46.70664748713898 145.8557739557582,45.884367604448926 144.74127764126752,45.86885284536402 144.10442260437412,46.22569188903435 142.2734643734293,46.33429490387789 141.7294840294635,46.101574059270206 138.8371007370297,46.132603526551975 138.37272727268282,45.54304252550355 134.40565110562602,46.256721330064465 133.45036855037324,46.16363298727083 132.07051597046666,45.83782332230476 131.5,45.294805605502916 131.7653562652995,43.80537526161061 132.49508599506225,43.86743516130082 132.40221130219288,44.937964296826976 132.0439803439658,45.18620182087761 131.8184275184176,46.41186843668402 132.22972972970456,46.59804474799603 135.81203931197524,47.14105763947009 145.08624078618595,46.92385272415413 148.41646191640757,47.622010235791095 149.46461916458793,47.29620381059067" stroke="#4dd2ff" stroke-linecap="round" stroke-linejoin="round" stroke-width="0.5"><title>2023-06-25 5.0km</title></polyline><polyline fill="none" points="165.0640940615558,57.18305231854902 165.45541589544155,57.55523448936583 165.24752617120976,58.01330344271264 165.77336488547735,57.79858381464146 166.5926949752029,58.5 166.98401680903044,58.47137083944108 167.52208433067426,57.82721311812929 167.87671974266414,57.85584241557808 168.09683827421395,57.16873759914597 168.73273625422735,57.082849250829895 169.1362868954311,56.32416646373167 168.9650835931534,54.7495281820884 169.46646469278494,53.86199668061454 171.6187347791274,55.23623652430251 172.26686156645883,54.7495281820884 173.0372764269705,55.021512472318136 173.8810641312739,55.021512472318136 175.71538522763876,52.401851493821596 176.81597788538784,51.70040357331163 177.07278283889173,51.013267376765725 177.61085036047734,50.36907401079952 178.60138375248061,49.6676155103778 178.91933274251642,48.923206578037934 179.62860356649617,48.379212834945065 179.27396815444808,46.73290260236536 179.56745952984784,45.616263345771586 179.89763732725987,45.01499222127313 182.2333395232563,42.86757344743819 182.69803420105018,41.693636717114714 182.58797493524617,38.25766556158487 182.8814663105877,35.136582486884436 184.6668721776805,32.473582886115764 184.9359059385024,31.772031220578356 184.67910098505672,31.5 184.01874539034907,31.5 183.78639805142302,31.81498346834269 184.01874539034907,32.44494819579995 183.4073050248553,33.03195813143975 183.44399144680938,33.704868813671055 183.07712722755969,33.862358062469866 182.612432549824,34.85024096936104 181.74418723088456,35.89538456524315 181.82978888205253,36.42511178499262 180.8147978754132,37.1839066066168 180.30118796840543,38.71580011135666 180.2767303538276,38.987816763299634 180.98600117774913,39.188249734346755 180.83925549004925,40.53400624735514 182.57574612786993,40.67717104284384 182.75917823752388,41.665003986199736 182.49014447676018,42.55261581632658 179.82426448340993,45.229732216583216 179.26173934718827,46.57542839583766 179.67751879565185,48.27900322167261 178.99270558642456,48.837312975141685 178.72367182560265,49.51014473299438 177.57416393852327,50.36907401079952 176.91380834381562,51.457043237707694 176.0577918322524,52.215753421754926 175.44635146681685,53.47548920002009 175.006114403659,53.8763117511844 174.87159752327716,54.592063342177426 173.84437770931982,55.42233042595035 173.92997936048778,55.95198089367477 173.39191183890216,56.352796080405824 172.32800560304895,55.679998481035" stroke="#4dd2ff" stroke-linecap="round" stroke-linejoin="round" stroke-width="0.5"><title>2023-06-21 5.9km</title></polyline><polyline fill="none" points="15.348992774321232,87.08874018619827 15.45749878929928,87.21575418319844 15.192261863674503,87.25809215515619 15.505723684909754,87.58268282581412 15.975916416675318,87.6532459101727 15.831241730018519,88.34476215408358 16.446109148557298,88.5 17.20565125369467,88.27419943692803 18.146036717284005,86.94761338054377 18.67651056853356,86.87704992145882 19.08642218093155,86.31254090025323 19.050253509252798,84.3931922904303 19.556614912697114,83.54641203158826 21.59411675046431,84.91537076032546 22.32954640785465,84.44964411582623 23.89685551385628,84.74601580570743 25.632951754378155,82.14921280705312 26.705955680750776,81.40121122470009 27.622228696534876,80.04632971271349 28.659063951286953,79.29831629208638 28.851963533612434,78.64909368324152 29.53916829545051,78.2256859249901 29.153369130915962,76.7014068227727 29.406549832609016,75.37470522179501 31.914244402199984,73.10234510540613 32.50499937287532,72.0861217926431 32.625561611843295,67.18838097750267 32.384437134023756,66.70847735108691 32.432662029517815,66.03096339745389 32.95107965689385,64.56300464287051 34.47016386734322,62.64334179244179 34.8077381363255,61.71173070410441 34.614838554058224,61.5 33.831184001115616,61.62703846296063 33.71062176214764,61.89523037461913 33.8914651205414,62.43161257338943 33.324822597554885,63.01033830587403 33.40921616484411,63.631407018663594 32.963135880825575,63.89959488325985 32.408549581770785,64.98645594854315 31.624895028828178,65.84746944031212 31.72134481993271,66.39795055129798 30.76890313246986,67.14603660962894 30.21431683341507,68.71276923165715 30.19020438560983,68.98094683732779 30.913577819126658,69.22089476243127 30.660397117433604,70.5194289553474 32.42060580570251,70.50531452147698 32.661730283580255,71.62035017639573 32.143312656204216,72.83417581953108 29.828517668822315,75.02185682102572 29.502999623771757,75.64286937960424 29.273931369767524,76.89899954473367 29.63561808661325,78.09866333437094 28.96046954864869,78.60675296813133 28.58672660792945,79.39711075880041 27.622228696534876,80.07455655175727 26.886799039202742,81.27419166982872 25.717345321609173,82.09276000433601 25.174815246427897,83.108906783571 24.54789160407381,83.64520333985274 23.99330530501902,84.7177899589442 22.24515284068184,84.49198296916438 21.71467898937408,84.95770946521952 19.72540204715915,83.58875117269054 19.13464707642561,84.19561071268981 19.23109686758835,86.08673662036017 18.86941015080083,86.86293722518894 18.290711403999012,86.94761338054377 17.69995643326547,86.53834479652869 17.000695447495673,86.66535931956605" stroke="#4dd2ff" stroke-linecap="round" stroke-linejoin="round" stroke-width="0.5"><title>2023-06-15 6.6km</title></polyline><polyline fill="none" points="55.6819159577426,71.70439563605032 55.697239911824,71.90148336359562 55.33712699034368,72.34940831192944 55.39076082970132,72.92274879012984 55.82749352173414,74.64274694559572 55.97307108572568,76.28208768815966 56.340845984290354,76.60457721554121 56.486423548310995,77.76015460976487 56.884846355067566,78.90675846356316 56.66264902052353,79.58754716107069 56.87718437798321,80.09813509498781 56.80056460745982,80.5728895365537 56.94614217148046,81.03868376225728 57.122367643692996,81.14617437386187 57.28326916182414,82.49875291790522 57.413522771705175,82.72268768006325 57.32157904707128,84.4424869317154 57.559100335725816,85.31133057650004 57.96518511950853,85.3471589891924 58.14141059172107,87.165431045687 57.7276638308831,87.88198074747925 57.98050907358993,88.14172851849435 57.98817105067428,88.5 57.94986116542714,87.38039659226342 58.14141059172107,87.21917248344835 58.00349500478478,85.3471589891924 57.57442428980721,85.30237347094953 57.30625509293168,84.03941211324127 57.451832656923216,83.83339535460982 57.45949463400757,82.71373030093673 57.32924102409743,82.57041210614989 57.18366346010589,80.92223544586159 57.59741022097296,80.13396571165504 57.26028323065839,77.69744926407293 56.4404516859795,74.88461888587335 56.517071456473786,74.82191141210205 55.86580340701039,71.85669073849567 54.954028137697605,71.22959150059614 55.10726767874439,70.69207417348662 55.0459718623315,70.047048879067 54.24912624878925,69.43785381360067 54.111210661852965,69.18700751329015 53.850703442061786,67.34147261079488 53.659154015709646,67.018947820834 53.421632727084216,65.75571390246478 51.85858940824983,62.07341391714726 52.02715290343622,62.0644543545568 51.87391336238943,61.5 52.12675860512536,61.98381824851822 52.21870232975925,62.709540439071134 52.12675860512536,62.93352751365455 52.70906886117882,64.02657593906042 53.52123842877336,66.07824350237934 53.46760458938661,66.33805812027276 53.82771751092514,67.33251360544091 54.126534615963465,69.267636762248 55.053633839357644,70.06496631469781 55.09960570171825,70.70103282356285 54.931042206531856,71.25646727743879 55.75087375121075,71.76710541728971 55.32946501328843,72.34044983615604 55.429070714948466,72.68087124905287 55.75087375121075,72.74358030749136 55.79684561351314,73.12879207674996 55.635944095411105,73.35275160253514 55.429070714948466,73.06608330340532 55.34478896736982,72.34044983615604 55.70490188887925,71.92835892727453 55.712563865905395,71.65960290678777 54.83909848186886,71.21167431130743" stroke="#4dd2ff" stroke-linecap="round" stroke-linejoin="round" stroke-width="0.5"><title>2023-06-04 8.0km</title></polyline><polyline fill="none" points="98.3229121118784,85.41701730866043 96.70550940092653,85.45843329277704 96.00896370789269,85.92781352766906 95.13533012679545,85.80356598277285 94.78115435061045,86.03825569055334 93.36445124621969,85.78976069269993 92.90402273723157,85.29276927738101 91.74704853515141,83.09770121812471 90.57826847396791,81.8413877899875 89.6337997376686,81.51005036463903 87.4261040664278,81.30296404658293 85.67883690423332,80.4055862036912 85.12396152166184,79.14924685511505 84.98229121119948,77.9343137818505 84.46283340617083,77.31303681587451 83.51836466987152,77.10594383649004 80.236335811147,77.64438489923486 79.57520769565599,77.32684300282563 78.00502842152491,75.98763606759894 77.61543506773887,75.90479807379597 77.78071709664073,75.26970504040946 76.67096633143956,73.11588825476065 76.58832531701773,72.45316824398469 76.28137297765352,72.19084064305935 76.03344993438805,71.44527510770422 75.27787494531367,71.1415249643178 74.90008745080559,70.38214651160524 75.3369042413542,70.20265641325386 72.77503279404482,66.28142647961795 71.60625273280311,63.809886488175835 71.5,63.906539769945084 72.8222562308656,66.40569261698693 75.8917796239839,71.10010443540523 75.78552689112257,71.29340012438479 76.60013117617927,72.56362181292207 76.63554875383852,73.26776111642539 76.95430695230607,73.47486018830386 77.75710537820123,75.29731784528121 77.61543506773887,75.94621707723127 78.04044599912595,76.04286136760493 78.24114560557064,76.41563153115567 80.28355924790958,77.63057874588412 83.34127678180812,77.11975004532724 84.47463926539058,77.34064918832155 85.04132050724002,78.113793243494 85.11215566244209,79.23208278906532 85.572584171372,80.36416861576436 87.50874508090783,81.35818709689192 89.4331001311657,81.49624462035717 90.61368605156895,81.88280490897887 92.03038915607613,83.55328441786696 93.35264538694173,85.77595540114271 94.56864888500422,85.94161880317552 94.69851333624683,86.19011351182417 95.46589418448275,85.72073422042013 96.78815041540656,85.44462796625157 98.34652383031789,85.44462796625157 98.5,85.25135324071744" stroke="#4dd2ff" stroke-linecap="round" stroke-linejoin="round" stroke-width="0.5"><title>2023-06-01 6.5km</title></polyline><polyline fill="none" points="128.5,87.61819431673212 126.87768240342848,87.9042607909796 126.10515021457104,87.70853116021317 125.59012875537155,87.19662162251188 123.82618025748525,84.14018224155006 123.09227467805613,83.53792043462454 122.06223175959894,83.08622240681143 119.71888412017142,82.8152029018529 117.78755364805693,81.85157381526369 117.16952789702918,80.67714204335061 117.0150214592577,79.2467312803492 116.37124463520013,78.55410616514564 115.28969957079971,78.34330654786027 111.68454935622867,78.87030500557739 109.62446351937251,77.56033380668669 109.34120171674294,76.82252862706082 109.0836909871432,76.65689836704405 109.13519313302822,76.3406946080213 108.23390557937091,74.29288182372693 107.87339055794291,74.08207589338417 107.88626609439962,73.35931033238012 107.47424892708659,72.90757999231573 107.30686695274198,72.18480846498278 107.03648068674374,72.01917280622001 107.10085836908547,71.71801656890602 105.00214592274278,68.1944412306766 103.86909871245734,66.71872990473639 102.15665236057248,63.36067667452153 101.70600858371472,62.96914961337461 101.5,62.09573920900584 101.65450643771328,62.878797061610385 102.1952789700008,63.39079409613623 103.77896995708579,66.68861318766722 107.10085836908547,71.6577852449409 106.9592274678289,71.97399941121694 107.860515021428,73.34425267750339 107.87339055794291,74.12724861902825 108.24678111588582,74.35311203218589 109.12231759657152,76.3406946080213 109.01931330474326,76.61172644450562 109.37982832617126,76.83758591384685 109.61158798279939,77.50010495581955 111.25965665234253,78.6444487626577 112.03218884125818,78.91547621112841 115.2639484978863,78.35836367376032 116.30686695280019,78.47882062340796 116.92489270382794,79.14133202377707 117.14377682405757,80.73736954946071 117.68454935628688,81.89674407450366 119.4871244635433,82.8152029018529 122.19098712445702,83.1313922740519 123.19527896994259,83.55297701086965 124.41845493559958,84.95323163794819 126.01502145919949,87.63325046132377 126.3755364806857,87.88920467509888 127.40557939914288,87.88920467509888" stroke="#4dd2ff" stroke-linecap="round" stroke-linejoin="round" stroke-width="0.5"><title>2023-05-26 6.2km</title></polyline><polyline fill="none" points="131.5,78.76113778724539 132.5322496748704,79.23739935003687 134.11222366709262,79.38520406845782 134.25968790636398,79.57406524348335 135.95903771129088,79.40162679755304 136.23992197657935,79.67260132631054 137.3564369310916,79.56585389761312 137.18790637192433,79.68902399462968 137.42665799739189,79.98463143000117 137.78478543562233,79.77934860821551 138.12184655395686,79.78755993150116 138.3886866059911,79.79577125392825 138.5501950585167,79.96820882424072 139.0979193757812,80.13243472552858 139.89843953188392,80.13243472552858 140.12314694406814,79.90251836641983 140.10208062417223,79.1470741058074 140.21443433032255,78.83504063509463 140.7762028608704,78.31771922245389 141.2817945383431,78.27666181977838 142.50364109230577,78.49016007643513 143.80975292588118,78.35877660338883 144.6804941482842,78.05495147014153 146.52028608584078,77.08598769493983 149.28699609884643,76.69182947761874 151.44278283487074,75.64894287267816 151.70962288687588,75.1398120377853 151.4989596879168,74.02299721694726 151.0635890767153,73.23464766665711 150.6703511053347,72.14244182665425 149.92600780233624,71.69077326447587 150.03133940181579,71.40334644697577 150.8529258777562,71.86322884393303 151.59726918075467,71.8714410048342 152.19414824448177,72.07674474464875 154.37802340701455,74.48286408960121 154.75019505852833,74.65531346432545 155.0591677503253,74.56498288724106 155.73328998702345,73.86697033744713 156.5057217165304,72.70086477819859 157.67841352405958,71.49368070434139 158.5,69.27635490677494 157.98738621588564,70.7545791453158 157.48179453835473,71.75647067325917 156.5267880364263,72.63516816894844 155.72626788038178,73.83412253339338 155.01703511056257,74.58140663636732 154.69401820545318,74.65531346432545 154.0901170351135,74.23650717529381 152.1871261378401,72.06853260547359 151.5691807542171,71.86322884393303 150.8318595578603,71.83859235602722 150.06644993499503,71.37049760004447 150.01027308194898,71.5511660860866 150.6703511053347,72.18350247469061 151.47087126137922,74.03942108074989 151.68855656695087,75.14802385194344 151.27425227567437,75.78854267943825 149.6591677503311,76.57686628717056 148.43029908972676,76.85606231143174 148.12834850454237,76.7821575792259 147.04694408320938,76.92996697326453 146.2394018205814,77.15168053653179 145.0456436930981,77.86608659868944 145.08777633288992,78.2356043954278 143.76762028608937,78.73650348899537 143.2058517555124,78.83504063509463 142.37724317298853,78.79398350609699 142.2648894668382,78.88430916121433 140.958777633321,78.73650348899537 140.7762028608704,78.93357765609107 140.67087126139086,79.91072967670334 140.41807542263996,80.53478671524499 139.7439531859418,80.72364509322506 138.50806241872488,80.40340670302976" stroke="#4dd2ff" stroke-linecap="round" stroke-linejoin="round" stroke-width="0.5"><title>2023-05-21 9.9km</title></polyline><polyline fill="none" points="188.5,78.62927641313581 187.81932773115113,78.97040065689362 186.4903961584787,79.0083033105766 184.88595438183984,78.55347093744786 184.61044417775702,79.0083033105766 183.63805522210896,78.97040065689362 181.56362545024604,77.87122021231335 180.33193277317332,77.98492884694133 179.18127250904217,77.22686991936644 175.61584633856546,77.47323942270305 174.5462184874923,77.32162746074027 173.91416566632688,77.8333173180581 169.95978391362587,79.36837812034355 169.29531812726054,78.91354666140978 169.00360144063598,77.54904535558308 165.956782713125,73.87242065853206 165.45438175275922,73.51233480090741 161.87274909968255,73.07644042580796 165.79471788718365,73.70185376358859 169.1008403362357,77.79541441582842 169.2791116447188,79.04620595621236 169.92737094842596,79.36837812034355 173.73589435772737,77.96597741283767 173.99519807926845,77.53009387537895 172.6338535414543,77.41638495202642 171.4021608644398,76.86679080491012 170.67286914773285,77.1321123278467 170.25150060030865,78.06073456327431 170.8997599040158,78.38290849972691 170.49459783919156,78.72403321265301 170.67286914773285,79.06515727605438 170.2352941177087,79.3494268325885 169.7004801922012,79.23571906406141 169.3115246098605,79.02725463436218 169.2466986795189,78.06073456327431 168.8577430972946,77.37848196148116 168.06362545024604,76.71517832971585 167.10744297725614,75.12323959208152 165.64885954384226,73.53128670626029 162.4561824729899,73.11434432661918 165.58403361350065,73.53128670626029 168.93877551023616,77.49219090890256 169.39255702286027,78.66717913896719 168.8577430972946,78.38290849972691 167.156062425056,75.16114305978408 165.69747899158392,73.58814241003711 161.5,73.05748847240466 161.80792316934094,70.631621879671 165.82713085232535,70.74533511018672 166.60504201689037,71.18123515821935" stroke="#4dd2ff" stroke-linecap="round" stroke-linejoin="round" stroke-width="0.5"><title>2023-05-19 5.4km</title></polyline><polyline fill="none" points="11.5,104.7164661706338 14.150375939847436,104.75603090957884 18.424812030105386,106.04847214277834 19.969924812030513,106.33861016987794 29.206766917312052,106.21991742223327 31.71052631578641,106.81338003047858 32.860902255633846,106.39136246587441 33.30075187975308,103.8328503964658 33.59398496244103,103.58227164897107 35.691729323298205,103.8592270774243 35.860902255633846,103.661401834157 37.80075187975308,103.63502511137631 38.466165413556155,103.43719951230014 38.5,103.18661996951414 37.30451127822744,103.70096690794162 35.872180451173335,103.6877785514007 35.64661654137308,103.8328503964658 33.56015037599718,103.60864838293492 33.24436090228846,103.93835708684492 32.81578947370872,106.41773860555986 31.823308270715643,106.76062791306322 29.015037594013847,106.16716505365912 20.567669172945898,106.36498632068106 18.278195488732308,105.96934347275965 14.060150375938974,104.7164661706338 11.917293233098462,104.78240739519242" stroke="#4dd2ff" stroke-linecap="round" stroke-linejoin="round" stroke-width="0.5"><title>2023-05-17 5.0km</title></polyline><polyline fill="none" points="44.25912408763543,107.45126765682653 45.11015262111323,107.92265003185457 45.57597876578802,107.72362219164643 46.93762441939907,107.92265003185457 47.32282680826029,107.67124637778761 47.35865958861541,107.35699091257266 49.29362972796662,107.27318928674504 53.199402787024155,107.22081323460588 55.25082946254406,107.6502960444268 55.98540145991137,107.4093668926871 56.30789648310747,105.51333876167337 56.59455872600665,105.10479755939014 57.472461844736245,105.26192899051966 58.359323158627376,105.16765016175486 59.631386861321516,105.29335524681665 62.10384870605776,104.42389180975442 64.11944260122254,103.38681097867811 66.10816191107733,103.2506278404544 68.01625746523496,102.69541772310185 68.5,102.47542794749461 68.32979429332772,102.55923363391776 68.23125414730748,102.07734996814543 67.99834107497009,102.27638915788702 67.0935633709887,102.52780650982459 63.6088254810893,103.02016364139126 61.297611147980206,104.25628352245258 59.927007299265824,104.68577919066593 58.49369608494453,104.79053394906805 56.97080291970633,104.53912234269228 56.36164565366926,104.58102432142914 55.600199071050156,105.25145356955181 55.40311877906788,106.83322958769713 54.18480424687732,107.03225921748526 54.2385534173809,106.91703158582823 53.871267418784555,106.70752645747416 53.61147976113716,106.14186039681226 53.11877903121058,105.92187827832822 52.500663570011966,106.06853307828715 52.09754479100229,106.64467483254703 51.45255474455189,106.74942751861818 50.91506303916685,106.75990278113022 50.65527538151946,106.59229844793299 48.63968148641288,106.6341995578332 48.45155938953394,106.17328637385071 48.344061048468575,106.17328637385071 45.60285335103981,106.72847699025442 43.80225613806397,106.3827926325248 41.52687458531,105.56571571694076 41.5,105.38763395587011 41.92999336431967,105.30383066334616" stroke="#4dd2ff" stroke-linecap="round" stroke-linejoin="round" stroke-width="0.5"><title>2023-05-14 6.3km</title></polyline><polyline fill="none" points="71.8776937618386,110.75332964488916 72.20434782613302,108.73616817298898 71.5,108.4735764533907 71.89810964080971,108.39002441448247 72.01039697544184,108.18711206242006 72.21455576561857,106.27733087239903 72.08185255201533,106.15796847490856 72.43913043482462,106.16990472034377 72.63308128545759,102.25474850706087 72.78620037809014,101.93245825514168 75.1544423440937,102.09957183402003 77.6962192817009,103.0186920937631 77.92079395084875,102.95900918731786 78.17599243862787,102.46960816358478 80.1461247637053,102.91126283940685 81.25879017013358,102.98288235368818 88.64933837432181,102.83964327967988 90.87466918717837,103.34097924314847 91.77296786388615,103.0186920937631 92.15066162572475,100.76265627289831 92.39565217396012,100.48810915247304 94.34536862006644,100.63135121169762 96.13175803405466,100.54779336594947 98.5,99.72414843213483 98.28563327033771,99.24667035511811 96.92797731567407,99.80770688786288 95.83572778827511,100.03450809862261 94.47807183366967,100.08225566385227 92.27315689984243,99.80770688786288 91.34423440456158,100.54779336594947 91.1502835538704,101.1088234290437 91.28298676747363,101.56242016401666 91.09924385638442,102.33830508879328 90.12948960304493,102.5770378384259 89.08827977319015,102.29055847824202 88.7207939508371,101.9921417045698 87.83270321367308,101.9921417045698 87.42438563331962,102.24281184745632 86.47504725895124,102.32636843804357 85.5665406427579,102.15925519503071 84.01493383746129,102.23087518662214 82.3408317581052,102.06376180223015 81.18733459356008,102.23087518662214 80.50340264651459,102.05182512245665 79.58468809071928,102.23087518662214 78.16578449908411,101.93245825514168 77.71663516073022,101.52660996173654 77.68601134215714,100.96558197597915 77.26748582231812,100.9417083828157 77.81871455581859,101.06107629822509" stroke="#4dd2ff" stroke-linecap="round" stroke-linejoin="round" stroke-width="0.5"><title>2023-05-12 6.0km</title></polyline><polyline fill="none" points="108.55365607858403,118.35563351665041 108.82877598103369,118.3445283943147 108.09828520554584,117.94474320396694 108.30699685565196,118.00026901623642 108.44930025353096,117.80037595404428 108.38289200118743,118.31121302016254 108.55365607858403,118.20016169633163 109.19876481534448,118.5 109.749004620302,118.47778978475253 109.91028180450667,117.70042927964096 109.8343866590294,116.43442980173131 110.21386238653213,115.9013728042919 110.18540170695633,115.623737875183 112.50969053810695,113.8690680706859 113.211720634019,113.18051871030184 114.03708034142619,112.02552250371082 114.65372839861084,110.19305041840562 114.86244004877517,106.25035006396502 115.05217791249743,106.05043453563121 115.0426910193637,105.12859687567834 115.45062742644222,103.81801849725889 116.674436647736,101.76326508170314 118.80898761510616,99.7528996740075 119.64383421564708,98.44225388984341 120.57354974810733,94.15477234565333 121.90171479451237,91.5 120.61149732087506,94.0103722370186 119.86203275900334,97.5981004455316 119.45409635186661,98.77547047781991 118.60027596494183,99.98614847219869 117.16775509354193,101.20791938700859 116.29496092023328,102.2519668523164 115.52652257191949,103.56256486586062 115.1280730580329,104.89535955263273 115.02371723297983,105.47289863955666 115.13755995122483,106.10596666519996 116.26650024065748,106.03932810619153 117.61363907332998,106.18371159697563 118.32515606249217,106.02822167558043 119.26435848808615,106.19481801109214 119.95690169086447,106.10596666519996 120.250995379698,106.26145647095836 120.37432499113493,106.77234991874866 120.24150848650606,107.28324086971406 118.34412984887604,109.04912731822697 117.99311480089091,109.65996159899805 117.85081140307011,110.55954740497691 118.17336577142123,111.85893545950239 114.86244004877517,116.22342839852354 113.42991917737527,117.82258631316654 113.20223374082707,117.82258631316654 110.232836172916,115.84584587741847 109.85336044535507,116.51216705346451 109.98617694998393,117.58937730717298" stroke="#4dd2ff" stroke-linecap="round" stroke-linejoin="round" stroke-width="0.5"><title>2023-05-09 7.6km</title></polyline><polyline fill="none" points="143.94451972824754,118.5 144.1483366083121,116.5253742155619 143.81349459115881,115.45293799169303 141.9354676247458,114.8571370018326 138.38323057221714,114.38049462188792 138.29588048078585,113.54636706043675 138.54337240656605,111.62275028511067 140.01376561279176,111.65679679957975 139.54789845831692,111.55465723454836 139.4023149725981,110.26088379997236 139.05291460675653,110.58432813371473 138.52881405805238,110.22683699020126 138.57248910376802,99.92734635573288 138.76174763520248,99.43363520609273 138.29588048078585,99.67197870883683 137.6844298405922,99.33148788248945 138.6743975437712,97.54389922301925 138.73263093811693,96.33513754123123 139.30040653253673,96.04571438264975 139.54789845831692,99.2293404940574 139.09658965247218,100.60832476618816 139.21305644110544,101.93622437746671 139.38775662396802,102.22563694084238 140.49419111578027,102.1064671248314 141.25122524169274,101.4765680598357 140.82903313299175,98.9739717393677 141.51327551610302,97.95249266753672 141.4550421217573,97.45877545815893 140.9600582701969,97.56092397061002 139.95553221844602,97.0672055597388 140.29037423571572,96.55646078179416 140.93094157305313,96.57348563388223 141.7898841390852,96.99910634967091 142.1101678077248,96.8118333734601 142.22663459635805,97.01613115487271 143.20204395084875,94.58156571917061 143.10013551090378,93.11740373156499 142.69250175071647,91.90860879354295 142.357659733505,91.5 141.6006256075343,91.89158344782481 141.2803419388947,92.55557059420971 141.71709239616757,92.04481149405183 141.58606725896243,92.72582326723204 141.87723423045827,93.16847937401326 142.21207624772796,93.25360540873953 142.69250175071647,92.79392428601568 142.98366872227052,92.87905051896814 143.18748560227687,93.71328521810938 143.10013551090378,95.0412417344487 142.1101678077248,96.98208154267923 139.50422341265948,99.34851244089077 139.12570634967415,100.55725148538477 139.34408157825237,102.27670969208702 139.86818212707294,102.61719428631477 141.70253404753748,102.4469520792627 142.72161844791844,102.61719428631477 143.5660026653204,103.21304059261456 144.70155385421822,103.19601644303475 146.30297219753265,104.06424577436701 147.87527384376153,104.28555838404282 150.5103349359706,104.06424577436701 150.94708539324347,104.52389470030903 152.25733676512027,104.57496672208072 152.3155701594078,105.98795289857662 152.02440318791196,107.14557088144647 151.7332362163579,107.07747593650129 151.45662759343395,107.67330572784704 151.67500282207038,108.71174666276784 151.15090227330802,111.35037791002833" stroke="#4dd2ff" stroke-linecap="round" stroke-linejoin="round" stroke-width="0.5"><title>2023-05-06 6.0km</title></polyline><polyline fill="none" points="168.5428420305252,118.48883518038201 168.2376292461413,118.31019790533901 168.58099362859502,118.01991168599488 169.3249497904908,118.5 169.6301625748747,118.4665055376172 169.76369316806085,117.69612995725038 169.6492383739096,116.55730354105617 170.0402922538924,115.89856498214795 169.99260275636334,115.68642795733467 172.31985023716697,113.93348984222393 173.7696109630051,112.19168798450846 174.4849534263485,110.19304644649674 174.70432511513354,106.15098483863403 174.90462100482546,105.91649583106482 174.84739360777894,105.3581865644228 175.20983378926758,103.99589950602967 176.20177533844253,102.17576710690628 178.67209131200798,99.69676306987094 179.61634336365387,98.08872917995177 180.43660272168927,94.13554125385417 181.7623707538005,91.5 180.4079890231369,94.202545678163 179.66403286124114,97.86538919340092 179.31113057932816,98.7252455372145 178.45271962322295,99.94243274722248 176.2113132380182,102.11993432638701 175.25752328679664,103.83957035341882 174.84739360777894,105.34702034883958 174.97138630144764,105.73783718843333 174.6947872156743,106.26264608688507 174.5517187229707,109.85807487252896 173.86498995806323,112.04653652687557 173.37855708302232,112.81695351059898 172.5010703278822,113.76601014851622 170.04983015340986,115.67526283892221 169.7160036705318,115.55244645797211" stroke="#4dd2ff" stroke-linecap="round" stroke-linejoin="round" stroke-width="0.5"><title>2023-05-04 6.1km</title></polyline><polyline fill="none" points="12.320330082497094,140.08631591555604 12.593773443368264,137.04291295647272 12.674793698417488,136.8297532289871 12.897599399846513,136.80606878973776 12.68492123024771,136.71133098277642 12.634283570863772,136.24948302568373 12.907726931734942,132.7085853888857 13.140660165052395,132.56647344709927 13.991372843214776,132.73227069498535 15.287696924235206,132.7085853888857 17.039759940002114,133.34808689445344 17.799324831168633,133.45467012354493 18.052513128262945,132.00986660464696 17.880345086217858,131.59537034973619 17.12078019505134,131.61905589134403 16.746061515354086,131.2164010021079 15.621905476378743,131.27561504726327 15.196549137297552,131.08612999255274 14.669917479390278,131.28745785251522 13.981245311384555,131.28745785251522 12.695048762194347,130.62425882802927 12.08739684917964,130.7426875134115 11.5,130.4939871293609 11.510127531888429,130.99138734491862 12.148162040510215,131.09797281785723 12.259564891224727,130.64794457514654 12.745686421578284,130.68347318637097 13.859714928781614,131.28745785251522 14.761065266327932,131.45325699471869 15.35858964745421,131.29930065650842 15.713053263258189,131.66642695957125 18.41710427607177,132.62568677810486 19.68304576142691,132.89806769731513 20.047636909235734,132.9454382243057 20.584396099031437,132.6967427339696 21.354088522144593,132.89806769731513 22.316204051021487,132.6967427339696 22.792198049486615,132.8033265831691 23.197299324790947,132.63752944052976 23.653038259595633,132.83885451038077 25.800075018778443,132.7677986447161 26.488747186784167,132.98096610642096 27.521755438880064,132.89806769731513 27.906601650407538,132.62568677810486 28.828207051730715,132.62568677810486 29.142160540097393,132.90991033095634 30.30682670668466,133.1822905586232 31.208177044289187,133.00465135485865 31.360090022499207,132.12829382420023 31.228432108007837,131.79669729382294 31.420855213771574,131.24008662391861 32.3222055513761,130.45845845794975 35.63390847714618,130.70715892095905 37.04163540888112,130.4347726707565 38.277194298570976,129.91368408445123 38.5,130.35187237609352 37.50750187551603,130.8255875186369 35.76556639163755,131.25192943293223 34.35783945990261,131.32298626079864 32.45386346586747,131.14534410658234 32.18042010505451,131.5006281331007 32.08927231805865,132.6967427339696 31.825956489134114,133.64415116920281 30.83345836465014,133.98758474692295 28.71680420107441,133.47835527179996 21.171792948269285,133.6323086132179 19.419729932502378,133.37177206525666" stroke="#4dd2ff" stroke-linecap="round" stroke-linejoin="round" stroke-width="0.5"><title>2023-04-26 7.0km</title></polyline><polyline fill="none" points="41.5,137.8816031635215 41.878151260490995,137.10041524880216 41.70168067223858,136.5550550519838 41.739495798246935,134.68312678759685 41.878151260490995,134.25567507422238 42.16806722682668,134.10827762763074 45.67226890753955,134.4325518043479 47.71428571426077,135.2874528344546 48.30672268901253,135.22849431114446 49.31512605038006,135.52328667828988 49.79411764704855,135.86229712955537 50.235294117592275,135.75912012303888 51.00420168059645,136.0244322711951 52.99579831928713,135.89177626025048 53.89075630251318,136.45187855842232 54.571428571420256,136.18656722415471 55.390756302454975,136.45187855842232 56.10924369742861,136.30448343507305 56.689075630216394,135.92125538468827 57.19327731087105,136.36344150311197 58.54201680672122,136.15708815582911 59.134453781472985,136.2897439141816 60.88655462185852,135.52328667828988 61.63025210087653,135.59698467268026 62.91596638655756,136.11286954164098 63.30672268907074,135.62646385945845 64.20168067223858,135.75912012303888 65.3991596638225,135.3169320867746 65.66386554623023,134.594688609679 65.85294117644662,132.6932542064169 66.09243697475176,132.31001622333133 66.68487394956173,132.11839683649305 67.56722689070739,132.38371591737086 68.5,132.38371591737086 66.5210084033315,132.13313679870043 66.07983193278778,132.28053633484524 65.81512605038006,132.61955467615917 65.3991596638225,135.3464113328373 64.10084033611929,135.78859927556186 61.226890756282955,135.11057718961092 51.2436974789598,135.2874528344546 49.79411764704855,135.05161859143118 44.65126050414983,133.50394646626955 42.39495798316784,133.57764552872686 44.575630252074916,133.71030374293332 44.726890756282955,133.5629057193728 45.10504201677395,133.72504353668774" stroke="#4dd2ff" stroke-linecap="round" stroke-linejoin="round" stroke-width="0.5"><title>2023-04-20 5.0km</title></polyline><polyline fill="none" points="77.68024633004097,147.61733862921392 77.81818138668314,148.3815946527684 77.68944200052647,148.06943443788623 77.78139870491577,148.23089673802315 78.79292245325632,148.5 79.45501072495244,148.16631184885046 79.79525053116959,147.35899726173375 79.89640290598618,147.31594030313136 80.0803163148812,147.60657441870717 80.48492581414757,147.57428178036207 80.7516002569464,147.0575981674483 80.64125221164431,145.65823348906997 81.02747037011432,145.00160186468565 80.92631799523951,144.8401344201411 83.73099747934612,142.60109267281223 84.65976019378286,141.36313970170158 85.30345712450799,139.31779296459717 85.45978352200473,135.96979421174183 85.53334888553945,135.5499409031254 85.70806662383256,135.4422859283659 85.59771857858868,135.02243043397175 85.88278436224209,133.82744758134504 86.9402864627773,131.84654405961192 87.72191845014459,130.9206736973647 89.11966035695514,129.67181189817347 89.94727069651708,128.4982984194212 90.27831483236514,127.7015934482406 91.11512084235437,123.72874135125312 92.31975366995903,121.5 91.04155547881965,124.12711024314922 90.34268452547258,127.51856574551493 89.98405337834265,128.5090646599201 88.86218158470001,130.0055609552728 87.08741718978854,131.63122612574807 85.98393673705868,133.62289955424785 85.66208827169612,134.94707157133962 85.71726229431806,135.5499409031254 85.51495754462667,135.81907783957286 85.30345712450799,139.70533551624976 84.68734720506473,141.41696405835683 83.28040962782688,143.13932837834 81.0366660405416,144.8508989244292 81.07344872230897,145.03389532274014 80.80677427956834,145.4752382180668" stroke="#4dd2ff" stroke-linecap="round" stroke-linejoin="round" stroke-width="0.5"><title>2023-04-17 6.5km</title></polyline><polyline fill="none" points="101.65612952964148,141.04291408213612 101.5,140.9090397561813 101.5,140.54392716650182 102.16615265997825,132.21904578707472 102.3430994602968,131.64699234809086 103.13415574398823,131.86607697993895 103.58172706241021,131.73219197671278 104.63299922895385,131.8173915422376 106.6939090208034,132.5233283724374 107.02698535082163,132.42595803266886 108.42174248263473,132.94932263994997 108.51542020041961,133.27794571151753 108.9942174248281,133.41182891603967 109.66037008480635,133.15623357223376 111.1383962991531,133.37531533026777 111.47147262917133,133.2049184433854 112.06476484192535,133.58222549646598 112.80377794912783,133.47268486661778 113.8966846569092,133.6552525251318 114.55242868157802,133.33880173288344 114.52120277564973,133.10754868046206 114.75019275245722,133.09537745429407 114.9375481880852,133.54571196476172 115.54124903620686,133.59439667114202 116.11372397840023,133.42400010871643 116.69660755590303,133.5700543205312 117.42521202773787,133.18057601037435 117.46684656891739,133.53354078494885 117.64379336923594,133.6552525251318 118.12259059364442,133.54571196476172 118.44525828835322,132.94932263994997 119.88164996140404,133.47268486661778 119.8712413260946,133.11971990532766 120.7455666923197,133.15623357223376 121.71356977632968,132.7789251222057 122.09868928289507,130.4420194157501 122.37972243636614,130.17424593916076 122.75443330756389,130.0525305164847 124.24286815722007,130.3689903475606 124.56553585192887,130.23510360217915 125.94988434843253,130.320304276378 126.8138010793482,130.13773132586357 128.5,129.41960824286798 128.26060138782486,128.95708591787115 126.87625289120479,129.49263791366684 125.33577486500144,129.74824139646807 122.1715497301193,129.45612308407 121.21395528136054,130.28378970943595 121.04741711640963,130.89236431183963 121.21395528136054,131.25750752806925 120.98496530449484,132.09733252763544 119.88164996140404,132.29207368096831 119.32999228988774,132.18253182278568 118.64302235929063,131.72002060507657 117.60215882805642,131.69567785789695 117.18581341556273,131.96344779351784 116.26985350809991,132.0608185246747 115.520431765588,131.8782483361574 113.12644564377842,131.90259104466531 112.94949884345988,131.4279072990903 113.0535851965542,131.3548788567059 114.34425597533118,131.29402178597957 114.94795682345284,131.76870608396712 114.85427910560975,131.86607697993895 112.60601387813222,131.8782483361574 112.63723978406051,131.54962126672035 112.46029298374197,131.44007870163477 109.420971472573,131.98779048401047 107.71395528141875,131.64699234809086 104.75790285272524,130.50287693716382 104.36237471085042,130.5150484375772 104.21665381646017,130.3568188316931 104.65381649957271,130.14990286490502 105.11179645336233,130.3689903475606 106.25674633769086,130.30813275534456 106.56900539703202,130.67327782582288 106.81881264451658,130.67327782582288" stroke="#4dd2ff" stroke-linecap="round" stroke-linejoin="round" stroke-width="0.5"><title>2023-04-07 7.0km</title></polyline><polyline fill="none" points="131.5,138.1411363992229 131.5953689168091,135.78687245862238 131.8496860283194,134.58494051747402 134.24450549454195,134.82037145666254 136.70290423865663,135.5142704193495 136.91483516484732,135.05580192259367 139.6063579277834,135.65057151829387 147.7551020408282,135.5142704193495 150.57378335949033,136.08425577785965 151.54866562003735,135.78687245862238 151.93014128727373,133.4945173645756 152.2374411302735,133.11038860866392 154.13422291987808,133.30864876900887 154.5051020408282,133.1723449448691 155.85086342220893,133.2590837604148 158.5,132.3421273175045 158.34105180529878,131.85886360076984 155.5541601255536,132.68908465364075 154.3143642071518,132.71386728118523 152.05729984299978,132.39169271413994 151.10361067496706,133.2590837604148 150.8598901098594,135.10536617092293 149.86381475668168,135.29123191535473 149.14324960752856,135.16732145182323 148.28492935636314,134.6592871809844 147.34183673467487,134.6840693916456 146.98155416012742,134.94428228718607 146.0702511773561,135.00623765328783 145.47684458398726,135.00623765328783 145.19073783355998,134.82037145666254 142.97605965461116,134.89471797071747 142.75353218213422,134.79558927481412 142.54160125588533,134.3247268236446 139.11891679750988,134.95667336304905 137.30690737831173,134.6345049650481 134.08555729989894,133.44495243458368 131.74372056516586,133.56886472020415 131.68014128733194,132.71386728118523 132.72919937211554,133.2838662673239 134.33987441135105,133.37060500032385" stroke="#4dd2ff" stroke-linecap="round" stroke-linejoin="round" stroke-width="0.5"><title>2023-04-04 6.0km</title></polyline><polyline fill="none" points="164.64607657957822,145.88711611693725 181.92744516767561,146.9322701675119 187.73756046872586,129.68714353023097 173.43573818914592,123.06775403907523 163.1563034253195,134.73876498127356 162.70937147922814,144.84196140361018 168.66846409626305,147.97742355475202 184.16210489813238,145.19034638197627 186.9926738915965,131.60327762854286 175.372443289496,122.54516952473205 162.70937147922814,136.48069981997833 163.60323537141085,146.9322701675119 183.8641502680257,146.5838855577167 187.2906285226345,130.38391982403118 175.67039792053401,122.19677975727245 168.66846409626305,127.4226185400039 162.70937147922814,135.95811956189573 162.56039416324347,145.71292371093296 179.3948308052495,148.5 184.60903684515506,146.23550087457988 187.14165120664984,130.38391982403118 175.22346597351134,122.19677975727245 163.1563034253195,135.43553913745563 162.56039416324347,146.06130850501359 177.01119375880808,147.80323136947118 183.5661956369877,145.88711611693725 187.2906285226345,129.51294941047672 174.32960208132863,121.84838991542347 163.00732611026615,135.60973263089545 163.1563034253195,146.40969322540332 172.2439196659252,147.80323136947118 184.60903684515506,145.53873128595296 187.2906285226345,130.20972577808425 174.32960208132863,121.5 162.8583487952128,135.60973263089545 163.30528074130416,146.5838855577167 181.0335812754929,147.4548469443107 184.31108221411705,145.71292371093296 187.14165120664984,129.33875527279451 175.074488658458,121.84838991542347 163.4542580563575,134.73876498127356 162.26243953220546,145.71292371093296 183.5661956369877,146.40969322540332 186.54574194550514,129.86133763124235 175.372443289496,122.19677975727245 168.07255483418703,127.4226185400039 163.1563034253195,135.60973263089545 163.00732611026615,146.5838855577167 179.0968761742115,147.80323136947118 183.8641502680257,145.71292371093296 186.6947192605585,129.33875527279451 174.77653402741998,122.02258484519552 165.39096315670758,131.0806958230678 162.26243953220546,145.88711611693725 167.32766825705767,147.97742355475202 183.71517295297235,146.5838855577167 187.14165120664984,130.73230785992928 175.96835255157202,122.19677975727245 168.66846409626305,127.59681288083084 162.70937147922814,136.30650641873945 162.26243953220546,145.88711611693725 165.6889177877456,147.62903916602954" stroke="#4dd2ff" stroke-linecap="round" stroke-linejoin="round" stroke-width="0.5"><title>2023-03-30 5.2km</title></polyline><polyline fill="none" points="38.23615635174792,175.57071329683822 38.5,173.3817920731235 36.77873429498868,172.80884726480872 33.60004653321812,172.3681188809569 33.41158678452484,172.19182713582995 33.57491856679553,169.92939654539805 34.37901349464664,169.75310170493321 34.99464867380448,163.87647896647104 34.718241042341106,163.74425209438778 34.454397394147236,163.96463014456094 33.587482550006825,163.90586269872438 33.801070265239105,163.86178709802334 33.60004653321812,163.67079266661312 30.609818520199042,164.4200770068419 29.391112145152874,164.39069338337868 28.662401116802357,163.72956021194113 27.72010237321956,161.9224468174798 26.086784550978336,160.55607717535167 25.634481153974775,160.45323160446424 25.408329455531202,160.0712331028917 22.970916705438867,159.55700269137742 20.94811540248338,158.60199830347847 20.470684039057232,157.44129182041797 20.357608189806342,156.1777268973674 19.691717077686917,155.3108559395332 18.63634248485323,155.13454254005046 15.457654723082669,155.7222530010622 14.854583527194336,155.57532561900734 13.53536528616678,154.56152244545228 12.907166123739444,154.42928670317633 11.5,154.5909081488353 13.171009771933313,154.47336529794848 14.628431828750763,155.41370531918074 15.457654723082669,155.707560269846 18.58608655189164,155.16392812218692 19.641461144725326,155.3255487127317 20.319916240114253,156.2071122587222 20.45812005584594,157.48536945905653 20.94811540248338,158.6166907283914 22.732201023725793,159.51292571035447 25.307817589549813,160.0124640094 25.672173103725072,160.4973082870565 26.086784550978336,160.57076939352555 27.204979059984908,161.40822326109628 27.92112610518234,162.26036411778477" stroke="#4dd2ff" stroke-linecap="round" stroke-linejoin="round" stroke-width="0.5"><title>2023-03-28 5.0km</title></polyline><polyline fill="none" points="44.211376404506154,167.67169145087973 44.45786516851513,165.2328367881928 44.31566011236282,164.82266020112002 44.078651685325895,164.67854372179863 42.997893258405384,164.95569062147842 42.922050561755896,164.74505904458783 41.5,164.4124820085126 41.57584269659128,164.06881796236848 43.121137640438974,164.46791158781707 46.72366573032923,164.47899750016222 50.07970505615231,165.49889641867776 51.918890449393075,165.8092984671457 59.1713483146159,165.67626913038112 61.50351123599103,166.15295680554846 62.30933988757897,165.8314700068513 62.688553370768204,163.82492666524922 62.96348314604256,163.48126069215505 64.75526685389923,163.69189480935165 64.87851123593282,163.53669076406368 66.38588483142667,163.59212080662837 68.5,162.82718362952437 68.38623595505487,162.32830854912027 66.86938202247256,162.91587228407298 65.71278089884436,163.10433542571263 64.47085674159462,163.08216330903088 63.02984550560359,162.8160975424471 62.66959269659128,162.91587228407298 61.920646067359485,163.53669076406368 61.731039325823076,164.05773200661497 61.77844101120718,164.58985655908327 61.35182584263384,164.6120283568016 61.04845505615231,164.95569062147842 61.03897471912205,165.2771801068593 60.74508426961256,165.42129576290608 60.0625,165.17740761347522 59.80653089884436,164.5565988537346 59.313553370768204,164.32379462063545 58.630969101097435,164.46791158781707 58.185393258405384,165.0887208729764 57.41748595505487,165.2106651218346 56.92450842692051,165.2106651218346 56.659058988734614,165.03329162205046 54.497542134835385,165.06654917612468 54.29845505615231,164.5565988537346 52.26966292131692,164.8780895634627" stroke="#4dd2ff" stroke-linecap="round" stroke-linejoin="round" stroke-width="0.5"><title>2023-03-26 5.6km</title></polyline><polyline fill="none" points="98.5,174.83452427935117 97.73162055335706,174.8470035949067 95.75731225300115,174.198077435889 95.49051383399637,174.3977474035346 94.47667984192958,174.37278867603163 92.21422924904618,174.75964835836203 91.17905138339847,174.75964835836203 90.60276679845992,174.3353505749037 89.81304347829428,172.65062372710236 88.3936758893542,171.50249979241926 88.00948616600363,171.40266240036726 87.81739130435744,171.05323086282442 85.78972332016565,170.6663590244425 84.05019762844313,169.80525263519667 83.62332015804714,168.83182045112335 83.52727272722404,167.78349988345872 83.02569169958588,167.04717391396116 82.00118577078683,166.87245182265906 79.39723320154008,167.346696896886 78.79960474307882,167.23437586741784 76.80395256914198,165.74923219800257 76.93201581027824,165.16265769769234 76.1636363636353,163.46531930426863 75.9501976284082,163.3405140465038 75.93952569167595,162.82881110863673 75.5980237153708,162.42943166321493 75.52332015812863,161.94268613539316 75.3632411067374,161.71803367571556 74.77628458495019,161.51834224115737 74.42411067191279,160.95670826850255 74.31739130435744,160.7320539305365 74.71225296438206,160.53236082632066 72.6312252964708,157.36218750022817 71.5,155.1280377779549 72.50316205533454,157.16248868918774 75.25652173912385,161.45593859849032 75.17114624503301,161.65563013874635 75.90750988142099,162.75392756566725 75.89683794463053,163.40291669190628 76.18498023715802,163.55268290616368 76.9426877470105,165.23753971124097 76.76126482215477,165.69931107752927 77.12411067192443,165.8490743755683 77.40158102766145,166.26092246470216 78.77826086961431,167.19693550052034 79.27984189719427,167.30925656558975 81.99051383399637,166.87245182265906 82.99367588933092,167.09709446394118 83.49525691696908,167.69613941557327 83.56996047426946,168.70702087211976 84.03952569171088,169.80525263519667 85.53359683795134,170.5914804575441 87.80671936762519,171.06571057840483 88.09486166003626,171.4775404523316 88.34031620551832,171.4775404523316 89.81304347829428,172.65062372710236 90.61343873519218,174.21055681878352 91.18972332013072,174.77212768181926 92.01146245060954,174.8470035949067 93.99644268775592,174.36030931032292 94.5407114624395,174.6722930570977 94.8501976284897,174.3977474035346 95.47984189726412,174.37278867603163 95.63992094859714,174.1606392793401 97.51818181818817,174.8719622220524 98.20118577074027,174.80956564432563" stroke="#4dd2ff" stroke-linecap="round" stroke-linejoin="round" stroke-width="0.5"><title>2023-03-18 7.0km</title></polyline><polyline fill="none" points="101.5,165.97711123689805 103.26145868183812,165.92429646325763 106.65791234525386,166.91720953320328 108.10321177652804,167.17071767090965 115.16711274674162,167.07565219468233 117.38022750086384,167.58266702196124 118.22934091673233,167.19184331998986 118.53646704583662,165.36445814526815 118.78036132489797,165.03700408920122 121.55352960858727,165.13207150643575 122.85429909673985,164.8785581926859 124.16410170629388,164.36096651169646 124.02860488463193,163.89618802191399 125.75393108068965,162.91380818530888 128.3735362997977,162.41733297803876 128.5,162.50183957065747 126.84693877556128,162.59690940181463 125.7268317163107,162.8926816310268 123.38725326198619,164.1919564021082 122.2671462027356,164.51941322961648 120.87604550016113,164.63560732961923 118.87972566077951,164.32927713794925 118.56356641015736,164.4032189944046 117.81381733022863,165.11094542153296 117.65122114418773,165.62853321467992 117.77768484444823,165.92429646325763 117.68735362996813,166.53694611981336 117.43442622950533,166.76932948896865 116.56724657077575,166.84326953845448 115.46520575444447,165.8186668321723 114.67932418873534,165.90317054597108 114.25476748077199,165.5651552617128 113.90247574442765,165.50177726850234 113.5682502509444,165.61797022529936 113.16175978590036,166.10386657959316 112.92689862829866,166.12499245441722 112.48427567747422,166.49469454003702 111.75259284040658,166.53694611981336 111.59902977582533,166.01936303566617 109.02459016395733,166.29399929198553" stroke="#4dd2ff" stroke-linecap="round" stroke-linejoin="round" stroke-width="0.5"><title>2023-03-14 5.6km</title></polyline><polyline fill="none" points="156.14631336409366,170.06227321514598 155.23387096775696,169.941026453831 153.5023041474633,169.37116495756345 152.25806451612152,169.71065725394874 151.99884792632656,169.49241232172062 149.8525345622329,170.00164985052834 149.18894009216456,169.9652758163429 148.50460829492658,169.39541444063798 147.56105990783544,167.576688970119 146.4827188940253,166.37631434855575 145.75691244238988,166.0974376366139 143.42396313365316,165.78218488424318 142.16935483872658,165.10317601048882 141.67165898618987,164.03615393724613 141.51612903224304,162.8842439558066 141.10138248850126,162.38710028147761 140.2822580645443,162.22946890997264 137.35829493089113,162.66598602294107 135.9377880184329,161.73232239489153 133.99884792621015,161.7929501342005 133.83294930873672,160.7986511593408 133.80184331798228,161.81720122088882 132.17396313365316,161.92633104764536 131.5,159.93772678485402 132.04953917051898,161.73232239489153 132.31912442395696,161.9748331595183 135.55414746538736,161.70807129020977 136.0,161.81720122088882 136.9850230414304,162.53260597040935 137.56566820282023,162.6781114745536 140.37557603686582,162.2779708935268 141.14285714289872,162.48410409459757 141.5472350230557,163.00549818336003 141.66129032260505,164.03615393724613 142.08640552993165,165.05467522265099 143.4550691244076,165.83068536414066 145.7050691244076,166.2671887595061 146.01612903230125,166.69156546660815 146.36866359447595,166.76431560142373 147.71658986172406,167.83131227349804 148.53571428573923,169.383289699741 149.03341013827594,169.9652758163429 150.32949308759999,170.05014854476758 150.9101382488734,169.75915607137722 152.43433179729618,169.48028759106091 153.27419354842277,169.56516067862685 153.38824884791393,169.39541444063798 155.46198156685568,170.06227321514598 158.5,169.941026453831" stroke="#4dd2ff" stroke-linecap="round" stroke-linejoin="round" stroke-width="0.5"><title>2023-03-12 6.0km</title></polyline><polyline fill="none" points="187.3376681614318,169.8422628702392 184.09282511210768,169.03524634345376 183.95964125561295,169.24761958548333 183.19686098652892,168.99277165462263 182.71255605382612,169.459992490476 182.61569506727392,169.20514496405667 179.92780269059585,169.75731399131473 179.05605381168425,169.6582068977732 178.402242152486,168.9786134219903 177.05829596414696,166.6141675637482 176.08968609868316,165.62307004812465 174.98789237672463,165.22662898656563 172.3847533632652,164.87266276065202 170.93183856498217,164.03729875516728 170.47174887894653,162.89043459239474 170.39910313906148,161.65860658008023 169.87847533635795,160.9648133971932 168.67982062784722,160.75242700980743 165.56816143501783,161.26215377321932 165.15650224220008,161.19135850552993 164.79327354260022,160.75242700980743 163.739910313976,160.15774333167064 163.26771300449036,160.07278830478026 161.5,160.228539146221 163.61883408069843,160.12942499534984 165.12017937225755,161.10640413482906 168.75246636773227,160.70994969189633 169.79372197308112,160.93649523169734 170.3869955156697,161.78603759000544 170.47174887894653,162.81964018613508 170.90762331837323,163.9240286580025 172.49372197309276,164.80186940304702 175.15739910316188,165.3398979811609 175.47219730936922,165.75049728273007 175.89596412563697,165.80713157029822 177.50627802690724,167.1380304282502 178.43856502242852,168.99277165462263 179.14080717490287,169.62989057184313 180.13363228703383,169.72899768636853 181.24753363232594,169.36088517673488 181.44125560537213,169.60157423988858 182.21614349778974,169.21930317264923 184.0322869955562,169.0635627951997 186.46591928246198,169.92721169521974 188.5,169.77147214153956" stroke="#4dd2ff" stroke-linecap="round" stroke-linejoin="round" stroke-width="0.5"><title>2023-03-05 5.0km</title></polyline><polyline fill="none" points="36.29131886479445,194.90349162828352 36.44156928214943,195.3953352291137 37.98914858099306,195.09671607370547 38.33472454093862,196.15066363882215 38.27462437393842,196.6776349147258 34.262938230414875,197.78426915498858 31.66360601008637,198.99628867718275 29.154424040054437,200.71769251630758 27.396494156913832,197.95992470589408 26.28464106854517,197.028948170293 15.827212020056322,194.6751351760031 15.707011686172336,194.37651472634752 16.29298831394408,192.74287570998422 16.127712854824495,192.40911952660827 16.323038397415075,191.5483768020349 11.5,189.1242202699068 16.308013355650473,191.49567812307214 15.196160267165396,194.64000338624464 14.79048414027784,196.69520059518982 15.421535893226974,195.16697945266787 15.827212020056322,194.92105749629263 24.78213689487893,196.712766273733 26.93071786314249,197.69644130986126 28.823873121931683,200.87577973007865 32.760434056806844,198.4693247536925 34.48831385647645,197.73157245348557 38.5,196.6249378623179 37.98914858099306,194.32381694426294" stroke="#4dd2ff" stroke-linecap="round" stroke-linejoin="round" stroke-width="0.5"><title>2023-02-22 5.0km</title></polyline><polyline fill="none" points="41.5,198.12874665253912 41.669544740987476,195.10536588393006 41.902668759808876,194.6840689263845 44.31868131872034,194.80797995354078 47.084379905834794,195.83643641995877 48.02747252746485,195.89839134037175 48.451334379962645,196.18338355235028 48.8328100470826,196.05947398018907 50.64481946628075,196.33207486596802 51.1004709576373,196.2577292327478 51.768053375242744,196.55511148242658 52.3614599686116,196.4559841497612 53.633045525930356,196.61706602275808 54.48076923075132,196.13381973920332 54.51255886972649,196.3816385951941 54.851648351643234,196.53032965715101 55.36028257460566,196.56750239311077 55.80533751961775,196.3940295242428 56.674254317069426,196.54272057043272 57.29945054941345,195.9479552531193 57.65973312401911,195.88600035889976 59.503532182076015,196.3072929934351 59.64128728414653,196.46837507092278 59.71546310832491,196.02230108295043 60.573783359490335,196.0718649433329 61.52747252746485,195.78687245999754 61.845368916750886,194.57254888987518 61.919544740987476,193.46973392309883 62.343406593368854,193.06082236400107 63.31828885403229,193.25908269214415 66.1157770800055,193.2466914314573 68.5,192.31734314450296 68.23508634214522,191.87125334746815 67.06946624803822,192.32973450348072 65.5117739403504,192.66430070088973 64.49450549448375,192.68908334416483 62.120879120891914,192.37929992639693 61.093014128739014,193.18473510839976 60.89167974877637,193.80429686416028 60.97645211929921,194.2875527585711 60.25588697014609,194.53537552077614 60.075745682930574,195.10536588393006 59.73665620095562,195.25405856600264 59.1114599686116,195.15493013225932 58.38029827317223,194.6964600350184 57.38422291993629,194.6840689263845 56.970957613841165,194.94428193205385 55.60400313971331,195.03101947213872 55.317896389286034,194.83276214326906 52.10714285715949,194.86993541799893 51.503139717446174,194.78319775861746 51.20643642073264,194.51059326813993 49.065934065904,194.9690640928893 47.370486656203866,194.646895592683 44.21271585562499,193.4821251601752 42.60204081633128,193.2466914314573 45.65384615381481,193.22190890619822" stroke="#4dd2ff" stroke-linecap="round" stroke-linejoin="round" stroke-width="0.5"><title>2023-02-10 5.9km</title></polyline><polyline fill="none" points="77.7253582283738,200.25753993881517 77.76052974379854,196.54240058214054 78.97980894480133,196.5561097792379 81.00803300039843,197.07705819400144 82.12179765518522,196.748038386213 82.57902735559037,195.36340420709166 82.66109422489535,194.14326875731058 83.0128093790845,193.75940354353224 85.04103343462339,194.04730256048788 85.42792010417907,193.85536995358416 87.33890577504644,193.88278891483787 89.28506296133855,193.2658608835336 92.6966999565484,191.5521564968658 96.60073816758813,191.01747608963342 98.5,190.3045654479647 98.39448545372579,190.38682456834067 98.2069040381466,190.05778777354863 98.24207555357134,189.74246006119938 97.60898827615893,190.0989174186252 95.97937472863123,190.5102131509775 95.27594442031113,190.53763282003638 95.11181068170117,190.3319851605629 92.93117672600783,190.72957034109277 91.48914459394291,191.2642519363726 89.10920538421487,192.6215106928139 87.36235345201567,193.16989403692423 85.22861485014437,193.32069904965465 83.5286582717672,193.00537927738333 82.68454190186458,193.03279841842595 81.72318714711582,193.85536995358416 81.50043421622831,194.48600459452427 81.57077724701958,195.11663616649457 81.05492835427867,195.11663616649457 80.6797655231785,195.47307874100807 80.59769865387352,196.00774076450034 80.21081198437605,196.1859609488165 79.43703864526469,195.8980666831194 79.1556665218668,195.15776420589827 78.44051237514941,194.78761138136906 77.63156752061332,195.0206706904719 77.18606165866368,195.71984610287473 76.22470690403134,195.8980666831194 75.50955275719753,195.9117759483488 75.263352149399,195.70613681730174 71.67585757706547,195.67871824183385 71.5,195.52791597311443 71.75792444631224,195.22631090920186 73.68063395569334,195.08921746628766 73.90338688663905,195.78839250885358 74.85301780281588,195.71984610287473 75.63851498044096,195.2126015714457 76.36539296567207,195.26743891381193 76.7053842813475,194.8561582804832 77.1039947894169,194.8424489035824 77.74880590528483,195.5416252775467 78.61636995215667,195.50049735994253 79.13221884495579,195.92548521213757 80.19908814586233,196.21337941696402 81.3831958314986,196.04886852107302 81.6880156317493,195.04808940512885 81.72318714711582,195.9529037353932 81.31285280070733,196.28192556192516 79.81220147636486,196.07628701823705 79.4487624837202,195.9117759483488 79.0384281371953,195.06179876030365 76.78745115065249,194.40374807621993 76.22470690403134,194.54084224431426 74.82957012590487,195.67871824183385 74.12613981764298,195.6650089519535 73.76270082499832,195.1303455143934 74.09096830221824,194.92470514337765 74.66543638735311,194.92470514337765 75.14611376461107,195.34969488385832 76.31849761179183,195.26743891381193 76.84607034298824,194.8972864025709 77.33847155881813,195.29485757630027 77.77225358225405,195.00696133096062 78.5343030829099,194.8561582804832" stroke="#4dd2ff" stroke-linecap="round" stroke-linejoin="round" stroke-width="0.5"><title>2023-02-05 7.1km</title></polyline><polyline fill="none" points="101.82088285230566,199.21691905512853 102.0653650254535,197.01026523227483 102.24108658745536,196.94772764408845 103.50933786077076,197.15320811709535 103.9601018675603,197.08173670493125 105.1519524618052,197.59096919676085 105.66383701187442,197.64457243831566 105.90831918505137,196.58143512616516 105.7249575551541,196.2151410194565 105.19779286923585,196.22407504096918 104.9456706281926,195.97392208154633 103.52461799659068,196.09899865386978 102.67657045839587,195.95605398465705 102.27928692699061,195.652295759166 101.55348047538428,195.51828442998521 101.5,196.06326250925486 101.55348047538428,195.54508671282383 101.81324278438115,195.52721852519608 101.95076400681864,195.63442759423924 101.93548387094052,196.0096582639526 102.08064516127342,196.2419430811351 103.86842105264077,196.09899865386978 105.87011884548701,196.9119918586366 107.1918505942449,197.22467946875986 108.00169779287535,197.0906706347596 108.52122241086909,197.2961507599539 109.06366723260726,197.2514812100344 109.69779286926496,197.37655589021597 111.23344651953084,197.13534026969864 112.41001697789761,197.28721685185155 113.07470288625336,197.22467946875986 113.27334465197055,197.03706704161596 114.02971137521672,197.0191991696629 114.297113752109,197.2514812100344 114.9312393888249,197.45696094397135 115.66468590832665,197.40335758332367 115.87860780983465,197.24254729722452 115.87096774191014,196.37595326194423 116.01612903227215,195.97392208154633 116.61205432933639,195.42000932007795 118.75891341257375,195.61655942551442 119.89728353137616,195.46467983875482 120.81409168080427,195.15198571179644 123.16723259759601,193.97267172898137 125.74957555177389,193.68677494975418 128.0797962648503,192.632522210537 128.47707979622646,191.90883262654825 128.27843803050928,190.78308094487147 128.5,191.86416022673802 128.41595925294678,192.14112872449186 128.30135823428282,192.40916188957635 127.35398981321487,192.98096313144197 127.20118845498655,193.23112495720852 126.59762308996869,193.26686230038467 125.91765704582212,193.62423490027868 124.74108658742625,193.86546055019426 124.0764006790996,193.81185490975622 122.93039049234358,194.0173430132927 120.79881154498435,195.12518330416788 119.81324278435204,195.45574573692284 118.34634974534856,195.58975716532586 116.6960950763605,195.36640466647077 115.95500848896336,195.93818588398426 115.74872665535077,195.75950466939685 115.97792869264958,196.02752634949138 115.85568760609021,196.331283225285 115.94736842103885,196.67970888447599 115.80984719863045,196.83158628601814 115.86332767404383,197.13534026969864 115.69524617993739,197.34975418866088 114.98471986415097,197.45696094397135 114.12903225806076,197.13534026969864 114.06027164685656,196.99239735467563 113.30390492358129,197.00133129394817 112.98302207130473,197.19787771895062 112.34889643461793,197.2514812100344 111.9745331069571,197.2514812100344 111.77589134123991,197.11747241857665 110.15619694397901,197.1621420393567 109.28522920203977,197.04600097615912 108.33786078097182,197.18894380047277 107.91765704582212,197.05493490977824 107.32173174872878,197.21574555311963 106.19100169779267,196.99239735467563 103.80730050933198,196.13473478337983 103.28013582344283,196.05432847073826 102.07300509334891,196.23300906152872 101.9202037351497,195.92031777954253 102.03480475384276,195.5986912530061 102.66893039047136,195.99179017464485 103.36417657043785,196.13473478337983 104.90747028859914,195.97392208154633 105.13667232598527,196.22407504096918 105.48811544990167,196.25087709978834" stroke="#4dd2ff" stroke-linecap="round" stroke-linejoin="round" stroke-width="0.5"><title>2022-12-15 10.0km</title></polyline><polyline fill="none" points="131.5,198.61970566848322 131.7384287454479,195.37982792990078 133.70341047504917,195.51442455674987 133.9582825821999,195.6874770698123 135.62728380024782,196.07203703012055 135.89037758830818,194.95680866199837 135.8246041412931,194.61070052367722 135.10931790500763,194.56262984468776 134.86266747870832,194.24536272544356 133.97472594396095,194.28381940491818 133.62941534712445,194.12037840463017 133.07034104751074,194.32227606815286 132.48660170525545,194.28381940491818 131.68909866016475,193.8223381767457 131.6068818514177,194.26459106719994 131.80420219246298,194.57224398251856 133.6458587089437,194.29343357226753 133.925395858736,194.62992878819932 135.98081607796485,195.34137171418115 137.37028014616226,195.6297929354114 138.11845310599892,195.46635435576172 138.77618757612072,195.67786304995388 140.3629719853925,195.6970910886448 141.23447015834972,195.64902098428138 141.59622411691817,195.48558243921434 142.90347137636854,195.67786304995388 143.55298416566802,195.6297929354114 143.857186358131,195.399056031667 144.6218026796414,195.399056031667 144.81912302071578,195.60095085445937 145.50152253347915,195.74516116758605 145.690621193673,195.947055221528 145.88794153471827,195.71631912327575 146.29080389768933,195.8028452287399 146.5621193666011,195.6970910886448 146.74299634594354,194.28381940491818 147.47472594399005,193.6396678765086 149.16839220462134,193.85118082218105 150.56607795372838,193.78388130194799 151.77466504264157,193.4666114639258 154.15895249697496,192.2167498097624 157.34074299639906,191.78410138576146 158.2944579781033,191.38029433152406 158.40956151037244,191.81294467812404 158.5,191.78410138576146 157.61205846531084,192.13022028979321 154.88246041414095,192.4571091552716 151.70066991474596,193.89925187750487 150.50852618759382,194.22613437955442 149.11084043851588,194.3126619038885 147.65560292327427,194.1107642190036 147.40895249694586,194.3991893458151 147.35962241172092,195.22600296940072 147.07186358098988,196.22586055866122 146.64433617540635,196.38929777240992 146.27436053592828,196.48543717261055 144.45736906214734,196.04319508955814 142.780146163248,196.07203703012055" stroke="#4dd2ff" stroke-linecap="round" stroke-linejoin="round" stroke-width="0.5"><title>2022-12-12 7.2km</title></polyline><polyline fill="none" points="161.9368258859613,198.02224863461743 162.15523882897105,194.96963480499835 162.08243451471208,194.68990916513576 161.51040061633103,194.61693714713329 161.5,194.25207636241248 164.44337442220422,194.30072453397588 167.70916795072844,195.29800751378934 170.04930662561674,195.7601601076094 178.08898305083858,195.6385411840747 178.99383667181246,195.71151255363657 180.5227272727061,196.21014900597947 181.00115562404972,196.05204499916726 181.63559322035871,195.73583633319504 181.93721109401667,194.62909915336786 181.9892141756718,193.60748614617478 182.20762711868156,193.26694645967655 182.7380585516221,193.1818113804111 184.24614791985368,193.4858649453745 184.5685670261737,193.31559504804318 186.08705701079452,193.3642436158625 187.17912172572687,193.0723519001258 188.5,192.43991730692505 188.31278890604153,191.97775136538985 185.61902927584015,192.7926216437845 184.38135593221523,192.82910823755083 182.0724191062618,192.54937738931767 181.16756548540434,193.35208147585945 180.99075500766048,193.83856607326743 181.13636363635305,194.3128865736362 180.96995377499843,194.60477513964724 181.0323574729846,194.95747283482342 180.7619414483779,195.2493597642533 180.27311248076148,195.2007119941627 179.63867488439428,195.39530295107397 179.34745762712555,195.10341639216495 178.75462249614066,195.00612070783973 178.61941448383732,194.8358530621481 178.5674114021822,194.94531086332427 177.61055469955318,194.84801504520874 176.20647149457363,195.11557834690757 175.7176425269572,195.12774030038418 175.395223420579,194.90882494115795 173.2526964560966,194.98179677388543 172.00462249614066,194.82369107779232 170.73574730358087,195.00612070783973" stroke="#4dd2ff" stroke-linecap="round" stroke-linejoin="round" stroke-width="0.5"><title>2022-12-06 5.0km</title></polyline><polyline fill="none" points="11.5,228.29425861632626 11.730980751628522,225.7090699516193 11.854720440023812,225.8344725856732 13.587076077063102,225.85376528331108 15.855637030268554,226.6061773068359 15.938130155875115,226.7701637187056 15.814390467508929,226.7701637187056 15.921631530713057,226.59653103810706 15.682401466619922,226.6061773068359 15.476168652647175,226.3939591595481 15.657653528935043,226.45183688504767 15.863886342849582,225.06276133350184 15.731897341902368,225.1495791754278 15.748395967064425,225.42932499263406 16.053620531660272,225.68013085773418 17.299266727815848,225.98881405236898 18.05820348308771,225.84411893499055 18.734647112782113,226.05633836190827 19.790559120127,226.08527733641677 22.07561869849451,225.88270432208083 22.710815765400184,226.05633836190827 23.64298808434978,225.95987504727964 23.8739688359492,225.77659446830512 24.690650779142743,225.77659446830512 24.7731439047202,225.94058237207355 25.779560036724433,226.22997207112348 26.56324472965207,226.09492365919868 26.75297891846276,224.63831736089924 27.51191567373462,224.00164769739058 29.689734188839793,224.2235179332638 30.74564619618468,224.1270526796725 31.917048579314724,223.77013035392156 34.1278643446567,222.59324143517006 34.87855178737664,222.4003073762433 36.858386801119195,222.23631310518977 37.93904674611986,221.94691073076683 38.359761686529964,221.70574138368102 38.491750687448075,222.17843270378216 38.5,222.07231853912526 36.81714023835957,222.6318281979693 34.49908340975526,222.9405217124222 33.294683776417514,223.54825901480217 31.05912007339066,224.51291308178043 29.368010999110993,224.59008496625756 29.186526122823125,224.69619620079175 27.66040329975658,224.51291308178043 23.64298808434978,226.44219060002797 19.823556370305596,226.51936085173656" stroke="#4dd2ff" stroke-linecap="round" stroke-linejoin="round" stroke-width="0.5"><title>2022-11-27 5.6km</title></polyline><polyline fill="none" points="41.5,226.59935555000993 42.57120085012866,226.7559318855856 42.86769394262228,226.66645972222614 43.355472901137546,226.91250798923284 43.68065887351986,226.8565879788148 45.39266737509752,227.3822349088441 45.679596174217295,226.05133654937526 45.52656748139998,225.8276545082408 45.58395324117737,226.28620218321885 46.062167906493414,226.5881715171854 47.57332624861738,226.8789559865545 48.29064824653324,226.66645972222614 49.04622741765343,226.93487598508364 51.810308182786684,226.91250798923284 52.34590860782191,226.7335638518416 53.80924548354233,226.91250798923284 54.593517534493,226.8677719832849 54.94739638682222,226.59935555000993 55.89426142396405,226.5881715171854 55.99946865031961,226.80066793884907 57.09936238039518,227.13618773507187 57.84537725819973,227.0355319080045 58.16099893726641,226.71119581333915 58.26620616362197,226.16317739248188 58.14187035069335,225.71581331024208 58.29489904351067,225.2572631612129 59.174814027617685,224.54147358713817 61.38416578108445,224.8210794663537 62.885759829950985,224.70923720340215 64.44473963865312,224.18357698266482 66.68278427200858,222.96448258063901 68.5,222.6177650911486 66.82624867156846,222.89737605854316 64.39691817207495,224.20594555592834 62.84750265668845,224.69805297059793 61.412858660914935,224.78752679988247 59.423485653533135,224.4855523225633 59.069606801262125,224.5526578365243 58.26620616362197,225.30199984865612 58.122741764062084,225.71581331024208 58.24707757704891,226.16317739248188 58.074920297483914,226.46514707783354 58.14187035069335,226.81185194922728 57.88363443140406,227.04671589351346 56.8124335812754,227.09145182373322 55.68384697131114,226.554619411545 54.90913921355968,226.56580344793474 54.536131774657406,226.84540397319506 53.637088204035535,226.90132398950664 52.919766206119675,226.72237983319064 49.897449521755334,226.6776437467779" stroke="#4dd2ff" stroke-linecap="round" stroke-linejoin="round" stroke-width="0.5"><title>2022-11-23 5.3km</title></polyline><polyline fill="none" points="71.5,225.64989600601984 73.79856115108123,225.92751211590803 76.3669064748683,226.63416838923877 76.70143884891877,225.14513778725086 76.62589928059606,224.79180576328508 76.29136690648738,224.6277583963456 75.75179856113391,224.67823453324672 75.27697841724148,224.28704391336942 74.11151079135016,224.32490112616506 73.8525179856224,224.4637108038005 73.89568345324369,224.58990127961442 77.56474820140284,225.8391797873992 78.70863309357082,225.97798770284135 79.31294964026893,225.63727707659564 80.06834532372886,225.7634663108838 80.9856115108123,225.59942028028308 81.16906474821735,225.86441760222078 81.68705035973107,225.9401310146568 84.66546762589132,225.86441760222078 85.4100719424896,226.10417657672951 86.67266187054338,226.0410821564583 87.08273381291656,225.75084739346494 88.14028776978375,225.73822847470728 88.38848920859164,226.0158443790133 89.65107913670363,226.33131621326174 90.74100719427224,226.05370104319445 90.71942446043249,225.54894453316228 90.881294964056,225.29656547717605 90.76258992811199,224.66561550099868 90.96762589929858,224.18609128703247 91.90647482016357,223.44156302940246 95.1762589928112,223.7570416720264 96.96762589929858,223.39108636909805 98.23021582735237,222.8484609222287 98.5,223.34060968748963 97.45323741005268,223.80751817743294 95.57553956832271,224.28704391336942 94.24820143886609,224.21132945166028 94.03237410075963,224.35013926137617 92.3381294964347,224.04728128637362 92.00359712226782,224.13561494184978 91.73381294962019,224.48894890960946 91.60431654681452,225.97798770284135 91.28057553956751,226.8991634124468 90.54676258994732,227.15153907776403 87.65467625902966,226.59631190929213 79.51798561151372,226.77297537958657 76.4856115108123,226.19250870901305" stroke="#4dd2ff" stroke-linecap="round" stroke-linejoin="round" stroke-width="0.5"><title>2022-11-18 5.5km</title></polyline><polyline fill="none" points="101.5,227.95875928016176 101.79705304518575,224.85737169697677 102.49724950885866,225.03105156960373 103.17622789787129,224.93180595957529 105.02220039296662,225.14270278041658 106.82573673868319,225.76298534946545 107.1121807465679,224.43557664969558 107.0591355599463,223.85250452729815 106.21041257365141,223.81528705937671 105.76483300584368,223.41829999967013 104.64027504913975,223.46792345563154 104.41748526523588,223.7532579198887 104.51296660123626,223.85250452729815 107.3986247543944,224.82015454793145 109.24459724948974,225.20473118498194 109.96601178782294,224.9566173699568 110.80412573675858,225.24194821198034 113.88074656185927,225.22954253762873 114.47485265223077,225.0186458729222 116.10864440078149,225.24194821198034 116.93614931235788,225.19232550671586 117.48781925346702,224.93180595957529 118.34715127694653,224.94421166543907 118.60176817286992,225.19232550671586 119.90667976421537,225.4652501257733 120.93575638503535,225.22954253762873 121.1055009822594,224.42317089002609 120.96758349705487,223.9145336143265 121.14793713163817,223.45551759363298 122.07092337909853,222.61191589706868 125.59312377206516,222.8848465218398 127.00412573671201,222.58710399059055 128.38330058928113,222.04124071983097 128.5,222.53748016190366 125.91139489191119,223.43070586561953 123.3546168958419,223.4803293163277 122.62259332020767,223.21980596583307 122.17701375245815,223.35627065017616 121.95422396855429,223.65401122844196 121.84813359525288,224.9566173699568 121.56168958736816,225.97388067553402 120.69174852652941,226.2716146078892 118.71846758347237,225.775390967392 109.97662082512397,225.8870414695848" stroke="#4dd2ff" stroke-linecap="round" stroke-linejoin="round" stroke-width="0.5"><title>2022-11-06 5.5km</title></polyline><polyline fill="none" points="131.5,233.31434389376955 132.12257281545317,229.9619087426545 132.56492718443042,220.78549743857002 132.94174757279688,219.0804345132492 133.04004854371306,219.25285733642522 135.03883495141054,219.19538308023766 140.65837378642755,220.45981250210025 141.0515776698594,217.77767898769525 140.90412621351425,218.5440069023898 141.51031553390203,218.984643985008 144.4265776699176,219.5785444433859 150.43932038830826,218.39074157885625 150.83252427179832,218.39074157885625 150.9144417475909,219.46359611958906 152.2578883494716,219.27201541773684 153.61771844659233,219.3486477227998 154.12560679606395,219.67433465748036 156.2882281553466,219.5977024902968 156.97633495146874,219.11875071037502 156.99271844665054,218.40989975140837 158.40169902914204,217.98841948750487 158.5,217.01134783015004 157.9757281554048,216.6856561062159 157.0910194175085,217.87347015435807 157.25485436891904,218.33326704913634 156.89441747573437,218.4865324213024 156.3046116505284,219.46359611958906 154.50242718443042,219.6934926942631 153.61771844659233,219.3486477227998 148.50606796116335,219.3486477227998 148.0964805824915,219.6551766187331 146.85133495146874,219.6551766187331 145.5570388349588,219.21454116767563 144.29550970869604,219.5785444433859 142.10012135922443,219.17622499080608 137.00485436891904,217.50946345145348 136.8410194174503,217.20293092356587 137.23422330094036,217.06882277947443 138.98725728149293,216.85808120950242 139.56067961163353,217.50946345145348 140.11771844653413,217.47114691387105 139.54429611645173,217.4519886420021 138.95449029124575,216.89639787684428 138.02063106792048,216.89639787684428 137.0703883494716,217.03050614862877 136.95570388343185,217.52862171718152 142.1820388349588,219.27201541773684 140.7894417475909,218.4673742568848 140.87135922326706,217.77767898769525" stroke="#4dd2ff" stroke-linecap="round" stroke-linejoin="round" stroke-width="0.5"><title>2022-11-02 5.0km</title></polyline><polyline fill="none" points="162.33140877593542,231.16727941273712 162.28983833716484,230.91209505889128 161.55196304846322,230.81488182262547 161.5,230.462483151794 161.77020785218338,228.63971415253036 161.77020785218338,226.96274113294203 161.9364896073821,226.61033064693038 161.8429561200901,225.3222003632036 162.0715935335029,222.6243712705982 162.28983833716484,221.60355455180252 162.466512701998,221.73723344780592 164.5346420322894,221.66431770563213 167.195150115469,222.49069340692222 167.45496535795974,220.7528670233296 167.31986143189715,221.15390621448023 167.50692840648117,221.44557020141656 169.63741339487024,221.93167520068528 172.95265588915208,221.23897495382698 174.07505773671437,221.2146696061609 174.70900692837313,221.53063872476923 175.05196304846322,221.32404363020032 176.45496535795974,221.3605016150541 176.8810623556492,220.97161584662535 177.51501154736616,221.28758563374868 178.31524249416543,221.00807394335425 178.91801385674626,221.27543296571093 179.18822170898784,221.98028558748047 179.9364896073821,222.21118464381289 180.98614318697946,221.99243818094692 181.16281755192904,221.08099010204023 181.0381062355591,220.61918698181398 181.23556581983576,220.13307642858854 181.87990762118716,219.48897677696368 182.51385681290412,219.3552952646205 184.3429561200319,219.6469638182607 185.54849884519354,219.6469638182607 186.88914549647598,219.3917538743117 188.30254041560693,218.83272058726288 188.5,219.2580722488492 187.35681293299422,219.79279781735386 185.82909930712776,220.18168757648527 184.24942263273988,220.27890981056407 182.30600461893482,220.06015966818813 182.01501154730795,220.40043748745666 181.63048498838907,222.63652379596897 180.8094688220881,222.9403365118851 177.8683602771489,222.442083236092 169.9699769053259,222.60006621604407 167.60046189371496,222.1018114644612 167.3094688221463,223.94898896698578" stroke="#4dd2ff" stroke-linecap="round" stroke-linejoin="round" stroke-width="0.5"><title>2022-10-28 6.2km</title></polyline><polyline fill="none" points="11.5,257.92132134532585 11.669014084560331,255.3273723036109 11.848591549322009,254.8579848913796 12.017605633824132,255.03091731540917 13.306338028167374,254.90739418150042 14.320422535238322,255.01856500787835 16.454225352150388,255.74734891511616 16.88732394366525,255.64853102476627 17.130281690100674,254.32683370183076 17.035211267590057,253.88214712684567 16.718309859163128,253.733917892132 16.10563380282838,253.7833276579404 15.75704225350637,253.43745885819226 14.626760563405696,253.49922121899726 14.468309859163128,253.64745075166138 14.595070422510616,253.857442267421 17.838028169062454,254.96915576477477 18.89436619722983,255.15444031860534 23.36267605633475,254.49976691255142 23.404929577489384,255.11738343136676 24.883802816912066,255.01856500787835 25.85563380282838,255.25325862710451 28.338028169004247,254.94445113540132 28.45422535209218,255.17914490357362 29.679577464761678,255.48795177457941 30.6725352111971,255.38913366469205 30.883802816912066,255.2162017712035 30.86267605633475,254.69740455401188 31.031690140836872,254.4750621838175 30.904929577489384,253.86979469778453 31.10563380282838,253.41275390471856 32.0246478873305,252.63454519469815 34.61267605627654,252.91865373755718 35.647887323924806,252.86924360587727 36.852112676016986,252.63454519469815 38.23591549292905,252.07867865467415 38.5,252.51101952559839 37.274647887272295,253.0421789753891 35.65845070424257,253.46216380647093 34.40140845067799,253.41275390471856 34.17957746476168,253.52392615416466 32.5,253.23981908405403 32.140845070418436,253.3386390129599 31.919014084502123,253.67215565547667 31.85563380277017,254.7468139121047 31.528169014083687,255.96968886259128 30.65140845067799,256.2414371124323 29.89084507036023,256.1673240161108 29.76408450701274,255.94498444491182 29.34154929581564,256.00674547937524 28.285211267648265,255.75970114552183 23.774647887330502,255.82146227797057" stroke="#4dd2ff" stroke-linecap="round" stroke-linejoin="round" stroke-width="0.5"><title>2022-10-20 5.2km</title></polyline><polyline fill="none" points="47.59795918362215,256.2242592408584 48.00204081623815,256.8471112581756 49.06734693865292,257.1477977551258 50.1693877549842,256.7397231156501 53.034693877445534,257.04040977158 53.23673469386995,256.7182454802969 53.71428571420256,257.2337081009755 54.55918367346749,257.4484838067292 55.165306122391485,257.2337081009755 57.95714285701979,257.51291647410835 58.912244897917844,256.61085726962483 59.48163265292533,257.1263201629481 60.82244897959754,256.8041560079728 62.126530612120405,256.99745456234086 63.761224489775486,256.7612007486896 63.98163265292533,258.3290618247993 64.25714285706636,258.09280956063594 64.31224489794113,256.5249466601672 64.82653061219025,256.15982616449764 67.85714285704307,257.06188737282355 68.5,258.13576453822316 68.05918367346749,256.39608067787776 66.44285714277066,252.55154125203262 64.18367346923333,253.34622855469934 63.504081632592715,254.46308112777479 61.77755102037918,254.74229331102106 60.89591836731415,254.74229331102106 60.54693877545651,254.39864749246044 55.0367346938001,254.4201253731735 54.595918367267586,254.0979569240444 52.134693877538666,254.57047047448577 51.69387755100615,254.22682436501782 57.093877551029436,253.4750964728446 57.36938775505405,253.99056732743338 57.02040816319641,254.52751474254183 54.4306122448761,254.22682436501782 52.263265306013636,254.57047047448577 51.491836734698154,254.29125805487274 55.293877550866455,253.58248634211486 57.31428571417928,253.51805242734554 57.35102040809579,254.18386856048892 57.05714285711292,254.52751474254183 54.37551020400133,254.22682436501782 52.134693877538666,254.54899260964885 51.51020408165641,254.31273594692175 53.034693877445534,254.03352317291137 53.51224489789456,254.3342138367443 56.98367346927989,254.63490405520133 57.31428571417928,254.37716960943362 57.332653061137535,253.51805242734554 56.08367346925661,253.4106625240238 50.05918367335107,254.65638191089965 47.32244897948112,254.1623906547611 41.757142857066356,252.29380416145432 41.5,251.9501541984646 41.904081632616,251.69241634452192 43.85102040809579,251.67093817521527" stroke="#4dd2ff" stroke-linecap="round" stroke-linejoin="round" stroke-width="0.5"><title>2022-09-24 5.1km</title></polyline><polyline fill="none" points="96.04545454541221,259.8041914785863 97.11264822119847,259.1178895230405 98.3399209487252,254.50092834205134 93.37747035548091,251.50612339074723 89.26877470361069,256.37267371604685 89.26877470361069,259.4922361433273 91.45652173901908,260.42810165468836 95.99209486157633,260.4904926359304 97.16600790503435,259.7418004247593 98.5,254.25136184343137 93.80434782616794,251.31894757662667 89.37549407128245,256.4350651263376 89.48221343872137,260.0537556281779 92.41699604713358,260.1785376634216 93.32411067187786,260.80244744365336 92.36363636353053,261.73831087659346 72.72727272706106,262.861345036712 71.92687747022137,263.48525197961135 73.3142292490229,262.4246097841533 93.91106719360687,262.923735760618 97.05928853736259,262.17504663724685 84.89328063232824,261.73831087659346 85.90711462451145,246.88910263794241 85.32015810278244,246.7643177920836 83.13241106714122,261.98787420796 71.5,261.86309255548986 71.6600790512748,262.54939131764695 97.16600790503435,262.861345036712 95.19169960450381,261.73831087659346 93.00395256909542,262.2374374339124 84.8399209487252,261.55113830877235 85.69367588916793,246.51474802038865 83.66600790503435,261.55113830877235 81.90513833984733,262.2374374339124 73.0474308298435,261.86309255548986 72.94071146240458,262.54939131764695 98.44664031616412,263.1732985905255 91.29644268751144,262.923735760618 96.73913043481298,262.861345036712 96.73913043481298,262.05026502447436 93.59090909082443,261.8007017194177" stroke="#4dd2ff" stroke-linecap="round" stroke-linejoin="round" stroke-width="0.5"><title>2022-09-22 5.0km</title></polyline><polyline fill="none" points="113.84896467725048,257.0766429074574 114.91778319119476,256.9228202250815 115.70706455543404,257.44197125631035 116.64433617546456,257.3073766868911 118.6668696711422,257.63424903976556 119.73568818520289,257.1535541998164 119.70280146162258,256.8074531278544 119.93300852621906,256.7497695518832 120.3276492083678,257.42274346679915 122.2350791717763,257.1920098337723 122.9257003653911,257.46119904382795 124.37271619972307,256.7497695518832 124.38915956154233,257.3650600859837 124.65225334954448,257.6150212705543 124.81668696715496,256.5959465928754 125.14555420225952,256.3844398117071 128.02314250922063,257.1535541998164 128.5,258.0572594473924 127.64494518883293,255.23076212748128 126.64190012181643,253.09643910708837 125.19488428748446,253.6156010673585 124.75091352016898,253.30794971434807 122.9257003653911,253.03875435327063 120.70584652863909,254.78851707362628 117.51583434839267,254.84620127212838 117.10475030448288,253.98093637276907 114.29293544456596,254.38472717172408 113.30633373942692,254.61546436839853 114.45736906211823,255.13462198991328 119.19305724726291,255.0961659206514 119.93300852621906,254.78851707362628 121.28136419004295,254.78851707362628 122.11997563956538,255.0961659206514 123.83008526189951,254.90388545228052 124.14250913524302,254.09630526401452 123.583434835542,253.59637287308578 122.62971985386685,253.5002318709885 121.18270401953487,254.28858658669924 120.22898903780151,253.59637287308578 118.92996345920255,253.96170821713167 117.30207064555725,253.92325189970143 117.26918392209336,254.88465739428648 115.93727162003051,254.65392053933465 113.89829476253362,254.98079766404408 112.86236297199503,254.65392053933465 112.15529841656098,254.9423415622441 110.98781973205041,254.90388545228052 104.24604141293094,252.86569998202322 104.64068209507968,252.25039421652036 103.55542021919973,251.94274055262213 102.91412911086809,252.4042208531464 101.5,252.15425250247063 101.76309378806036,252.3849925307295 104.22959805111168,252.67341715407383 106.46589524968294,252.28885088789684 107.17295980505878,252.94261305624968 108.06090133980615,252.78878687528777 108.57064555416582,252.98106958111748 108.24177831917768,255.86528575996635 107.78136419004295,255.86528575996635 108.8008526188205,256.3075281939091 108.19244823389454,256.3844398117071 108.04445797810331,256.98050374619197" stroke="#4dd2ff" stroke-linecap="round" stroke-linejoin="round" stroke-width="0.5"><title>2022-09-09 5.2km</title></polyline></svg>