<?xml version="1.0" encoding="utf-8" ?>
<svg baseProfile="full" height="300mm" version="1.1" viewBox="0,0,200,300" width="200mm" xmlns="http://www.w3.org/2000/svg" xmlns:ev="http://www.w3.org/2001/xml-events" xmlns:xlink="http://www.w3.org/1999/xlink"><defs /><rect fill="#222222" height="300" width="200" x="0" y="0" /><text fill="#FFFFFF" style="font-size:12px; font-family:Arial; font-weight:bold;" x="10" y="20">Over 5km Runs</text><text fill="#FFFFFF" style="font-size:4px; font-family:Arial" x="10" y="280">ATHLETE</text><text fill="#FFFFFF" style="font-size:9px; font-family:Arial" x="10" y="290">fengde</text><text fill="#FFFFFF" style="font-size:4px; font-family:Arial" x="120" y="280">STATISTICS</text><text fill="#FFFFFF" style="font-size:3px; font-family:Arial" x="120" y="285">Number: 36</text><text fill="#FFFFFF" style="font-size:3px; font-family:Arial" x="120" y="290">Weekly: 1.6</text><text fill="#FFFFFF" style="font-size:3px; font-family:Arial" x="141" y="285">Total: 217.0 km</text><text fill="#FFFFFF" style="font-size:3px; font-family:Arial" x="141" y="290">Avg: 6.0 km</text><text fill="#FFFFFF" style="font-size:3px; font-family:Arial" x="167" y="285">Min: 5.0 km</text><text fill="#FFFFFF" style="font-size:3px; font-family:Arial" x="167" y="290">Max: 10.0 km</text><polyline fill="none" points="11.5,48.76113778724539 12.5322496748704,49.23739935003687 14.112223667092621,49.385204068457824 14.259687906363979,49.574065243483346 15.959037711290875,49.401626797553035 16.239921976579353,49.67260132631054 17.356436931091594,49.565853897613124 17.187906371924328,49.68902399462968 17.426657997391885,49.98463143000117 17.784785435622325,49.779348608215514 18.121846553956857,49.787559931501164 18.388686605991097,49.79577125392825 18.550195058516692,49.96820882424072 19.097919375781203,50.13243472552858 19.898439531883923,50.13243472552858 20.12314694406814,49.90251836641983 20.10208062417223,49.147074105807405 20.214434330322547,48.83504063509463 20.7762028608704,48.31771922245389 21.281794538343092,48.27666181977838 22.50364109230577,48.49016007643513 23.809752925881185,48.35877660338883 24.680494148284197,48.05495147014153 26.52028608584078,47.08598769493983 29.28699609884643,46.69182947761874 31.44278283487074,45.64894287267816 31.709622886875877,45.139812037785305 31.498959687916795,44.02299721694726 31.06358907671529,43.23464766665711 30.670351105334703,42.14244182665425 29.926007802336244,41.690773264475865 30.031339401815785,41.403346446975775 30.852925877756206,41.86322884393303 31.597269180754665,41.871441004834196 32.19414824448177,42.07674474464875 34.37802340701455,44.48286408960121 34.750195058528334,44.655313464325445 35.05916775032529,44.56498288724106 35.733289987023454,43.86697033744713 36.50572171653039,42.70086477819859 37.67841352405958,41.493680704341386 38.5,39.27635490677494 37.987386215885635,40.7545791453158 37.481794538354734,41.75647067325917 36.5267880364263,42.63516816894844 35.72626788038178,43.83412253339338 35.017035110562574,44.58140663636732 34.694018205453176,44.655313464325445 34.09011703511351,44.23650717529381 32.187126137840096,42.06853260547359 31.569180754217086,41.86322884393303 30.831859557860298,41.83859235602722 30.066449934995035,41.37049760004447 30.01027308194898,41.551166086086596 30.670351105334703,42.18350247469061 31.470871261379216,44.03942108074989 31.688556566950865,45.148023851943435 31.27425227567437,45.78854267943825 29.659167750331108,46.57686628717056 28.43029908972676,46.85606231143174 28.128348504542373,46.782157579225895 27.046944083209382,46.92996697326453 26.239401820581406,47.151680536531785 25.0456436930981,47.866086598689435 25.087776332889916,48.2356043954278 23.767620286089368,48.73650348899537 23.205851755512413,48.83504063509463 22.37724317298853,48.79398350609699 22.264889466838213,48.88430916121433 20.958777633321006,48.73650348899537 20.7762028608704,48.933577656091074 20.670871261390857,49.91072967670334 20.41807542263996,50.53478671524499 19.74395318594179,50.72364509322506 18.508062418724876,50.40340670302976" stroke="#4dd2ff" stroke-linecap="round" stroke-linejoin="round" stroke-width="0.5"><title>2023-05-21 9.9km</title></polyline><polyline fill="none" points="76.0,48.62927641313581 75.31932773115113,48.97040065689362 73.99039615847869,49.00830331057659 72.38595438183984,48.553470937447855 72.11044417775702,49.00830331057659 71.13805522210896,48.97040065689362 69.06362545024604,47.87122021231335 67.83193277317332,47.98492884694133 66.68127250904217,47.226869919366436 63.11584633856546,47.473239422703045 62.0462184874923,47.321627460740274 61.41416566632688,47.83331731805811 57.45978391362587,49.36837812034355 56.79531812726054,48.91354666140978 56.503601440635975,47.549045355583075 53.456782713124994,43.872420658532064 52.95438175275922,43.51233480090741 49.37274909968255,43.07644042580796 53.29471788718365,43.70185376358859 56.600840336235706,47.79541441582842 56.779111644718796,49.04620595621236 57.42737094842596,49.36837812034355 61.235894357727375,47.965977412837674 61.49519807926845,47.53009387537895 60.1338535414543,47.41638495202642 58.90216086443979,46.866790804910124 58.172869147732854,47.1321123278467 57.751500600308646,48.06073456327431 58.39975990401581,48.38290849972691 57.994597839191556,48.72403321265301 58.172869147732854,49.06515727605438 57.73529411770869,49.349426832588506 57.20048019220121,49.23571906406141 56.8115246098605,49.02725463436218 56.746698679518886,48.06073456327431 56.35774309729459,47.37848196148116 55.563625450246036,46.715178329715854 54.60744297725614,45.12323959208152 53.14885954384226,43.53128670626029 49.956182472989894,43.114344326619175 53.08403361350065,43.53128670626029 56.438775510236155,47.49219090890256 56.892557022860274,48.667179138967185 56.35774309729459,48.38290849972691 54.65606242505601,45.16114305978408 53.19747899158392,43.58814241003711 49.0,43.05748847240466 49.30792316934094,40.631621879671 53.327130852325354,40.745335110186716 54.105042016890366,41.18123515821935" stroke="#4dd2ff" stroke-linecap="round" stroke-linejoin="round" stroke-width="0.5"><title>2023-05-19 5.4km</title></polyline><polyline fill="none" points="86.5,44.716466170633794 89.15037593984744,44.75603090957884 93.42481203010539,46.04847214277834 94.96992481203051,46.33861016987794 104.20676691731205,46.219917422233266 106.71052631578641,46.813380030478584 107.86090225563385,46.39136246587441 108.30075187975308,43.8328503964658 108.59398496244103,43.58227164897107 110.6917293232982,43.85922707742429 110.86090225563385,43.661401834157004 112.80075187975308,43.63502511137631 113.46616541355615,43.43719951230014 113.5,43.18661996951414 112.30451127822744,43.70096690794162 110.87218045117334,43.6877785514007 110.64661654137308,43.8328503964658 108.56015037599718,43.608648382934916 108.24436090228846,43.93835708684492 107.81578947370872,46.41773860555986 106.82330827071564,46.76062791306322 104.01503759401385,46.16716505365912 95.5676691729459,46.364986320681055 93.27819548873231,45.96934347275965 89.06015037593897,44.716466170633794 86.91729323309846,44.78240739519242" stroke="#4dd2ff" stroke-linecap="round" stroke-linejoin="round" stroke-width="0.5"><title>2023-05-17 5.0km</title></polyline><polyline fill="none" points="126.75912408763543,47.45126765682653 127.61015262111323,47.92265003185457 128.07597876578802,47.72362219164643 129.43762441939907,47.92265003185457 129.8228268082603,47.67124637778761 129.8586595886154,47.356990912572655 131.79362972796662,47.27318928674504 135.69940278702416,47.220813234605885 137.75082946254406,47.650296044426796 138.48540145991137,47.4093668926871 138.80789648310747,45.51333876167337 139.09455872600665,45.104797559390136 139.97246184473624,45.261928990519664 140.85932315862738,45.167650161754864 142.13138686132152,45.293355246816645 144.60384870605776,44.42389180975442 146.61944260122254,43.38681097867811 148.60816191107733,43.2506278404544 150.51625746523496,42.695417723101855 151.0,42.47542794749461 150.82979429332772,42.559233633917756 150.73125414730748,42.07734996814543 150.49834107497009,42.276389157887024 149.5935633709887,42.527806509824586 146.1088254810893,43.020163641391264 143.7976111479802,44.25628352245258 142.42700729926582,44.685779190665926 140.99369608494453,44.79053394906805 139.47080291970633,44.53912234269228 138.86164565366926,44.58102432142914 138.10019907105016,45.25145356955181 137.90311877906788,46.83322958769713 136.68480424687732,47.03225921748526 136.7385534173809,46.91703158582823 136.37126741878456,46.70752645747416 136.11147976113716,46.14186039681226 135.61877903121058,45.92187827832822 135.00066357001197,46.068533078287146 134.5975447910023,46.644674832547025 133.9525547445519,46.74942751861818 133.41506303916685,46.75990278113022 133.15527538151946,46.59229844793299 131.13968148641288,46.6341995578332 130.95155938953394,46.173286373850715 130.84406104846857,46.173286373850715 128.1028533510398,46.72847699025442 126.30225613806397,46.3827926325248 124.02687458531,45.56571571694076 124.0,45.387633955870115 124.42999336431967,45.30383066334616" stroke="#4dd2ff" stroke-linecap="round" stroke-linejoin="round" stroke-width="0.5"><title>2023-05-14 6.3km</title></polyline><polyline fill="none" points="161.8776937618386,50.75332964488916 162.20434782613302,48.73616817298898 161.5,48.473576453390706 161.8981096408097,48.39002441448247 162.01039697544184,48.187112062420056 162.21455576561857,46.277330872399034 162.08185255201533,46.15796847490856 162.43913043482462,46.169904720343766 162.6330812854576,42.25474850706087 162.78620037809014,41.93245825514168 165.1544423440937,42.099571834020026 167.6962192817009,43.01869209376309 167.92079395084875,42.95900918731786 168.17599243862787,42.46960816358478 170.1461247637053,42.911262839406845 171.25879017013358,42.98288235368818 178.64933837432181,42.839643279679876 180.87466918717837,43.34097924314847 181.77296786388615,43.01869209376309 182.15066162572475,40.76265627289831 182.39565217396012,40.488109152473044 184.34536862006644,40.63135121169762 186.13175803405466,40.547793365949474 188.5,39.724148432134825 188.2856332703377,39.24667035511811 186.92797731567407,39.80770688786288 185.8357277882751,40.03450809862261 184.47807183366967,40.082255663852266 182.27315689984243,39.80770688786288 181.34423440456158,40.547793365949474 181.1502835538704,41.108823429043696 181.28298676747363,41.56242016401666 181.09924385638442,42.33830508879328 180.12948960304493,42.577037838425895 179.08827977319015,42.29055847824202 178.7207939508371,41.9921417045698 177.83270321367308,41.9921417045698 177.42438563331962,42.24281184745632 176.47504725895124,42.32636843804357 175.5665406427579,42.15925519503071 174.01493383746129,42.23087518662214 172.3408317581052,42.06376180223015 171.18733459356008,42.23087518662214 170.5034026465146,42.05182512245665 169.58468809071928,42.23087518662214 168.1657844990841,41.93245825514168 167.71663516073022,41.52660996173654 167.68601134215714,40.96558197597915 167.26748582231812,40.941708382815705 167.8187145558186,41.06107629822509" stroke="#4dd2ff" stroke-linecap="round" stroke-linejoin="round" stroke-width="0.5"><title>2023-05-12 6.0km</title></polyline><polyline fill="none" points="18.553656078584027,88.35563351665041 18.828775981033687,88.3445283943147 18.098285205545835,87.94474320396694 18.30699685565196,88.00026901623642 18.449300253530964,87.80037595404428 18.38289200118743,88.31121302016254 18.553656078584027,88.20016169633163 19.198764815344475,88.5 19.749004620302003,88.47778978475253 19.910281804506667,87.70042927964096 19.834386659029406,86.43442980173131 20.213862386532128,85.9013728042919 20.185401706956327,85.623737875183 22.509690538106952,83.8690680706859 23.211720634019002,83.18051871030184 24.03708034142619,82.02552250371082 24.653728398610838,80.19305041840562 24.86244004877517,76.25035006396502 25.052177912497427,76.05043453563121 25.0426910193637,75.12859687567834 25.450627426442225,73.81801849725889 26.674436647736,71.76326508170314 28.80898761510616,69.7528996740075 29.643834215647075,68.44225388984341 30.573549748107325,64.15477234565333 31.901714794512372,61.5 30.61149732087506,64.0103722370186 29.86203275900334,67.5981004455316 29.45409635186661,68.77547047781991 28.60027596494183,69.98614847219869 27.167755093541928,71.20791938700859 26.29496092023328,72.2519668523164 25.526522571919486,73.56256486586062 25.128073058032896,74.89535955263273 25.023717232979834,75.47289863955666 25.13755995122483,76.10596666519996 26.26650024065748,76.03932810619153 27.613639073329978,76.18371159697563 28.32515606249217,76.02822167558043 29.264358488086145,76.19481801109214 29.95690169086447,76.10596666519996 30.250995379697997,76.26145647095836 30.374324991134927,76.77234991874866 30.241508486506063,77.28324086971406 28.344129848876037,79.04912731822697 27.993114800890908,79.65996159899805 27.85081140307011,80.55954740497691 28.17336577142123,81.85893545950239 24.86244004877517,86.22342839852354 23.429919177375268,87.82258631316654 23.20223374082707,87.82258631316654 20.232836172915995,85.84584587741847 19.853360445355065,86.51216705346451 19.98617694998393,87.58937730717298" stroke="#4dd2ff" stroke-linecap="round" stroke-linejoin="round" stroke-width="0.5"><title>2023-05-09 7.6km</title></polyline><polyline fill="none" points="61.44451972824754,88.5 61.64833660831209,86.5253742155619 61.313494591158815,85.45293799169303 59.4354676247458,84.8571370018326 55.883230572217144,84.38049462188792 55.795880480785854,83.54636706043675 56.04337240656605,81.62275028511067 57.51376561279176,81.65679679957975 57.04789845831692,81.55465723454836 56.902314972598106,80.26088379997236 56.55291460675653,80.58432813371473 56.028814058052376,80.22683699020126 56.07248910376802,69.92734635573288 56.26174763520248,69.43363520609273 55.795880480785854,69.67197870883683 55.1844298405922,69.33148788248945 56.17439754377119,67.54389922301925 56.23263093811693,66.33513754123123 56.800406532536726,66.04571438264975 57.04789845831692,69.2293404940574 56.596589652472176,70.60832476618816 56.71305644110544,71.93622437746671 56.887756623968016,72.22563694084238 57.99419111578027,72.1064671248314 58.75122524169274,71.4765680598357 58.32903313299175,68.9739717393677 59.01327551610302,67.95249266753672 58.95504212175729,67.45877545815893 58.460058270196896,67.56092397061002 57.455532218446024,67.0672055597388 57.79037423571572,66.55646078179416 58.43094157305313,66.57348563388223 59.28988413908519,66.99910634967091 59.61016780772479,66.8118333734601 59.72663459635805,67.01613115487271 60.70204395084875,64.58156571917061 60.60013551090378,63.11740373156499 60.192501750716474,61.90860879354295 59.85765973350499,61.5 59.10062560753431,61.891583447824814 58.78034193889471,62.55557059420971 59.21709239616757,62.04481149405183 59.08606725896243,62.725823267232045 59.37723423045827,63.16847937401326 59.712076247727964,63.25360540873953 60.192501750716474,62.79392428601568 60.48366872227052,62.87905051896814 60.687485602276865,63.71328521810938 60.60013551090378,65.0412417344487 59.61016780772479,66.98208154267923 57.004223412659485,69.34851244089077 56.62570634967415,70.55725148538477 56.84408157825237,72.27670969208702 57.36818212707294,72.61719428631477 59.20253404753748,72.4469520792627 60.221618447918445,72.61719428631477 61.06600266532041,73.21304059261456 62.20155385421822,73.19601644303475 63.802972197532654,74.06424577436701 65.37527384376153,74.28555838404282 68.0103349359706,74.06424577436701 68.44708539324347,74.52389470030903 69.75733676512027,74.57496672208072 69.8155701594078,75.98795289857662 69.52440318791196,77.14557088144647 69.23323621635791,77.07747593650129 68.95662759343395,77.67330572784704 69.17500282207038,78.71174666276784 68.65090227330802,81.35037791002833" stroke="#4dd2ff" stroke-linecap="round" stroke-linejoin="round" stroke-width="0.5"><title>2023-05-06 6.0km</title></polyline><polyline fill="none" points="93.54284203052521,88.48883518038201 93.2376292461413,88.31019790533901 93.58099362859502,88.01991168599488 94.32494979049079,88.5 94.6301625748747,88.4665055376172 94.76369316806085,87.69612995725038 94.64923837390961,86.55730354105617 95.0402922538924,85.89856498214795 94.99260275636334,85.68642795733467 97.31985023716697,83.93348984222393 98.7696109630051,82.19168798450846 99.48495342634851,80.19304644649674 99.70432511513354,76.15098483863403 99.90462100482546,75.91649583106482 99.84739360777894,75.3581865644228 100.20983378926758,73.99589950602967 101.20177533844253,72.17576710690628 103.67209131200798,69.69676306987094 104.61634336365387,68.08872917995177 105.43660272168927,64.13554125385417 106.7623707538005,61.5 105.4079890231369,64.202545678163 104.66403286124114,67.86538919340092 104.31113057932816,68.7252455372145 103.45271962322295,69.94243274722248 101.21131323801819,72.11993432638701 100.25752328679664,73.83957035341882 99.84739360777894,75.34702034883958 99.97138630144764,75.73783718843333 99.6947872156743,76.26264608688507 99.55171872297069,79.85807487252896 98.86498995806323,82.04653652687557 98.37855708302232,82.81695351059898 97.50107032788219,83.76601014851622 95.04983015340986,85.67526283892221 94.71600367053179,85.55244645797211" stroke="#4dd2ff" stroke-linecap="round" stroke-linejoin="round" stroke-width="0.5"><title>2023-05-04 6.1km</title></polyline><polyline fill="none" points="124.8203300824971,80.08631591555604 125.09377344336826,77.04291295647272 125.17479369841749,76.8297532289871 125.39759939984651,76.80606878973776 125.18492123024771,76.71133098277642 125.13428357086377,76.24948302568373 125.40772693173494,72.7085853888857 125.6406601650524,72.56647344709927 126.49137284321478,72.73227069498535 127.7876969242352,72.7085853888857 129.5397599400021,73.34808689445344 130.29932483116863,73.45467012354493 130.55251312826294,72.00986660464696 130.38034508621786,71.59537034973619 129.62078019505134,71.61905589134403 129.24606151535409,71.21640100210789 128.12190547637874,71.27561504726327 127.69654913729755,71.08612999255274 127.16991747939028,71.28745785251522 126.48124531138455,71.28745785251522 125.19504876219435,70.62425882802927 124.58739684917964,70.74268751341151 124.0,70.4939871293609 124.01012753188843,70.99138734491862 124.64816204051021,71.09797281785723 124.75956489122473,70.64794457514654 125.24568642157828,70.68347318637097 126.35971492878161,71.28745785251522 127.26106526632793,71.45325699471869 127.85858964745421,71.29930065650842 128.2130532632582,71.66642695957125 130.91710427607177,72.62568677810486 132.1830457614269,72.89806769731513 132.54763690923573,72.94543822430569 133.08439609903144,72.69674273396959 133.8540885221446,72.89806769731513 134.8162040510215,72.69674273396959 135.29219804948661,72.80332658316911 135.69729932479095,72.63752944052976 136.15303825959563,72.83885451038077 138.30007501877844,72.7677986447161 138.98874718678417,72.98096610642096 140.02175543888006,72.89806769731513 140.40660165040754,72.62568677810486 141.32820705173071,72.62568677810486 141.6421605400974,72.90991033095634 142.80682670668466,73.18229055862321 143.7081770442892,73.00465135485865 143.8600900224992,72.12829382420023 143.72843210800784,71.79669729382294 143.92085521377157,71.24008662391861 144.8222055513761,70.45845845794975 148.13390847714618,70.70715892095905 149.54163540888112,70.4347726707565 150.77719429857098,69.91368408445123 151.0,70.35187237609352 150.00750187551603,70.8255875186369 148.26556639163755,71.25192943293223 146.8578394599026,71.32298626079864 144.95386346586747,71.14534410658234 144.6804201050545,71.50062813310069 144.58927231805865,72.69674273396959 144.32595648913411,73.64415116920281 143.33345836465014,73.98758474692295 141.2168042010744,73.47835527179996 133.67179294826929,73.6323086132179 131.91972993250238,73.37177206525666" stroke="#4dd2ff" stroke-linecap="round" stroke-linejoin="round" stroke-width="0.5"><title>2023-04-26 7.0km</title></polyline><polyline fill="none" points="161.5,77.8816031635215 161.878151260491,77.10041524880216 161.70168067223858,76.5550550519838 161.73949579824694,74.68312678759685 161.878151260491,74.25567507422238 162.16806722682668,74.10827762763074 165.67226890753955,74.4325518043479 167.71428571426077,75.2874528344546 168.30672268901253,75.22849431114446 169.31512605038006,75.52328667828988 169.79411764704855,75.86229712955537 170.23529411759228,75.75912012303888 171.00420168059645,76.02443227119511 172.99579831928713,75.89177626025048 173.89075630251318,76.45187855842232 174.57142857142026,76.18656722415471 175.39075630245497,76.45187855842232 176.1092436974286,76.30448343507305 176.6890756302164,75.92125538468827 177.19327731087105,76.36344150311197 178.54201680672122,76.15708815582911 179.13445378147298,76.2897439141816 180.88655462185852,75.52328667828988 181.63025210087653,75.59698467268026 182.91596638655756,76.11286954164098 183.30672268907074,75.62646385945845 184.20168067223858,75.75912012303888 185.3991596638225,75.31693208677461 185.66386554623023,74.594688609679 185.85294117644662,72.6932542064169 186.09243697475176,72.31001622333133 186.68487394956173,72.11839683649305 187.5672268907074,72.38371591737086 188.5,72.38371591737086 186.5210084033315,72.13313679870043 186.07983193278778,72.28053633484524 185.81512605038006,72.61955467615917 185.3991596638225,75.3464113328373 184.1008403361193,75.78859927556186 181.22689075628296,75.11057718961092 171.2436974789598,75.2874528344546 169.79411764704855,75.05161859143118 164.65126050414983,73.50394646626955 162.39495798316784,73.57764552872686 164.57563025207492,73.71030374293332 164.72689075628296,73.5629057193728 165.10504201677395,73.72504353668774" stroke="#4dd2ff" stroke-linecap="round" stroke-linejoin="round" stroke-width="0.5"><title>2023-04-20 5.0km</title></polyline><polyline fill="none" points="17.680246330040973,117.61733862921392 17.818181386683136,118.3815946527684 17.68944200052647,118.06943443788623 17.781398704915773,118.23089673802315 18.792922453256324,118.5 19.455010724952444,118.16631184885046 19.795250531169586,117.35899726173375 19.89640290598618,117.31594030313136 20.080316314881202,117.60657441870717 20.484925814147573,117.57428178036207 20.751600256946404,117.0575981674483 20.641252211644314,115.65823348906997 21.027470370114315,115.00160186468565 20.926317995239515,114.84013442014111 23.730997479346115,112.60109267281223 24.65976019378286,111.36313970170158 25.303457124507986,109.31779296459717 25.459783522004727,105.96979421174183 25.533348885539453,105.54994090312539 25.708066623832565,105.44228592836589 25.597718578588683,105.02243043397175 25.88278436224209,103.82744758134504 26.940286462777294,101.84654405961192 27.721918450144585,100.92067369736469 29.119660356955137,99.67181189817347 29.94727069651708,98.49829841942119 30.27831483236514,97.7015934482406 31.115120842354372,93.72874135125312 32.31975366995903,91.5 31.041555478819646,94.12711024314922 30.342684525472578,97.51856574551493 29.98405337834265,98.50906465992011 28.86218158470001,100.00556095527281 27.08741718978854,101.63122612574807 25.983936737058684,103.62289955424785 25.66208827169612,104.94707157133962 25.71726229431806,105.54994090312539 25.514957544626668,105.81907783957286 25.303457124507986,109.70533551624976 24.687347205064725,111.41696405835683 23.280409627826884,113.13932837834 21.036666040541604,114.8508989244292 21.073448722308967,115.03389532274014 20.806774279568344,115.4752382180668" stroke="#4dd2ff" stroke-linecap="round" stroke-linejoin="round" stroke-width="0.5"><title>2023-04-17 6.5km</title></polyline><polyline fill="none" points="49.156129529641476,111.04291408213612 49.0,110.9090397561813 49.0,110.54392716650182 49.66615265997825,102.21904578707472 49.8430994602968,101.64699234809086 50.63415574398823,101.86607697993895 51.08172706241021,101.73219197671278 52.13299922895385,101.8173915422376 54.1939090208034,102.52332837243739 54.52698535082163,102.42595803266886 55.92174248263473,102.94932263994997 56.01542020041961,103.27794571151753 56.49421742482809,103.41182891603967 57.160370084806345,103.15623357223376 58.6383962991531,103.37531533026777 58.97147262917133,103.2049184433854 59.56476484192535,103.58222549646598 60.303777949127834,103.47268486661778 61.3966846569092,103.6552525251318 62.05242868157802,103.33880173288344 62.021202775649726,103.10754868046206 62.250192752457224,103.09537745429407 62.4375481880852,103.54571196476172 63.041249036206864,103.59439667114202 63.61372397840023,103.42400010871643 64.19660755590303,103.5700543205312 64.92521202773787,103.18057601037435 64.96684656891739,103.53354078494885 65.14379336923594,103.6552525251318 65.62259059364442,103.54571196476172 65.94525828835322,102.94932263994997 67.38164996140404,103.47268486661778 67.3712413260946,103.11971990532766 68.2455666923197,103.15623357223376 69.21356977632968,102.77892512220569 69.59868928289507,100.44201941575011 69.87972243636614,100.17424593916076 70.25443330756389,100.0525305164847 71.74286815722007,100.36899034756061 72.06553585192887,100.23510360217915 73.44988434843253,100.32030427637801 74.3138010793482,100.13773132586357 76.0,99.41960824286798 75.76060138782486,98.95708591787115 74.37625289120479,99.49263791366684 72.83577486500144,99.74824139646807 69.6715497301193,99.45612308406999 68.71395528136054,100.28378970943595 68.54741711640963,100.89236431183963 68.71395528136054,101.25750752806925 68.48496530449484,102.09733252763544 67.38164996140404,102.29207368096831 66.82999228988774,102.18253182278568 66.14302235929063,101.72002060507657 65.10215882805642,101.69567785789695 64.68581341556273,101.96344779351784 63.769853508099914,102.06081852467469 63.020431765588,101.87824833615741 60.626445643778425,101.90259104466531 60.44949884345988,101.4279072990903 60.553585196554195,101.35487885670591 61.84425597533118,101.29402178597957 62.44795682345284,101.76870608396712 62.35427910560975,101.86607697993895 60.10601387813222,101.87824833615741 60.13723978406051,101.54962126672035 59.960292983741965,101.44007870163477 56.920971472573,101.98779048401047 55.21395528141875,101.64699234809086 52.25790285272524,100.50287693716382 51.86237471085042,100.5150484375772 51.716653816460166,100.35681883169309 52.15381649957271,100.14990286490502 52.61179645336233,100.36899034756061 53.756746337690856,100.30813275534456 54.069005397032015,100.67327782582288 54.31881264451658,100.67327782582288" stroke="#4dd2ff" stroke-linecap="round" stroke-linejoin="round" stroke-width="0.5"><title>2023-04-07 7.0km</title></polyline><polyline fill="none" points="86.5,108.14113639922289 86.5953689168091,105.78687245862238 86.84968602831941,104.58494051747402 89.24450549454195,104.82037145666254 91.70290423865663,105.51427041934949 91.91483516484732,105.05580192259367 94.60635792778339,105.65057151829387 102.7551020408282,105.51427041934949 105.57378335949033,106.08425577785965 106.54866562003735,105.78687245862238 106.93014128727373,103.49451736457559 107.23744113027351,103.11038860866392 109.13422291987808,103.30864876900887 109.5051020408282,103.17234494486911 110.85086342220893,103.2590837604148 113.5,102.34212731750449 113.34105180529878,101.85886360076984 110.55416012555361,102.68908465364075 109.31436420715181,102.71386728118523 107.05729984299978,102.39169271413994 106.10361067496706,103.2590837604148 105.8598901098594,105.10536617092293 104.86381475668168,105.29123191535473 104.14324960752856,105.16732145182323 103.28492935636314,104.65928718098439 102.34183673467487,104.68406939164561 101.98155416012742,104.94428228718607 101.07025117735611,105.00623765328783 100.47684458398726,105.00623765328783 100.19073783355998,104.82037145666254 97.97605965461116,104.89471797071747 97.75353218213422,104.79558927481412 97.54160125588533,104.3247268236446 94.11891679750988,104.95667336304905 92.30690737831173,104.63450496504811 89.08555729989894,103.44495243458368 86.74372056516586,103.56886472020415 86.68014128733194,102.71386728118523 87.72919937211554,103.2838662673239 89.33987441135105,103.37060500032385" stroke="#4dd2ff" stroke-linecap="round" stroke-linejoin="round" stroke-width="0.5"><title>2023-04-04 6.0km</title></polyline><polyline fill="none" points="127.14607657957822,115.88711611693725 144.42744516767561,116.93227016751189 150.23756046872586,99.68714353023097 135.93573818914592,93.06775403907523 125.65630342531949,104.73876498127356 125.20937147922814,114.84196140361018 131.16846409626305,117.97742355475202 146.66210489813238,115.19034638197627 149.4926738915965,101.60327762854286 137.872443289496,92.54516952473205 125.20937147922814,106.48069981997833 126.10323537141085,116.93227016751189 146.3641502680257,116.58388555771671 149.7906285226345,100.38391982403118 138.17039792053401,92.19677975727245 131.16846409626305,97.4226185400039 125.20937147922814,105.95811956189573 125.06039416324347,115.71292371093296 141.8948308052495,118.5 147.10903684515506,116.23550087457988 149.64165120664984,100.38391982403118 137.72346597351134,92.19677975727245 125.65630342531949,105.43553913745563 125.06039416324347,116.06130850501359 139.51119375880808,117.80323136947118 146.0661956369877,115.88711611693725 149.7906285226345,99.51294941047672 136.82960208132863,91.84838991542347 125.50732611026615,105.60973263089545 125.65630342531949,116.40969322540332 134.7439196659252,117.80323136947118 147.10903684515506,115.53873128595296 149.7906285226345,100.20972577808425 136.82960208132863,91.5 125.3583487952128,105.60973263089545 125.80528074130416,116.58388555771671 143.5335812754929,117.4548469443107 146.81108221411705,115.71292371093296 149.64165120664984,99.33875527279451 137.574488658458,91.84838991542347 125.9542580563575,104.73876498127356 124.76243953220546,115.71292371093296 146.0661956369877,116.40969322540332 149.04574194550514,99.86133763124235 137.872443289496,92.19677975727245 130.57255483418703,97.4226185400039 125.65630342531949,105.60973263089545 125.50732611026615,116.58388555771671 141.5968761742115,117.80323136947118 146.3641502680257,115.71292371093296 149.1947192605585,99.33875527279451 137.27653402741998,92.02258484519552 127.89096315670758,101.0806958230678 124.76243953220546,115.88711611693725 129.82766825705767,117.97742355475202 146.21517295297235,116.58388555771671 149.64165120664984,100.73230785992928 138.46835255157202,92.19677975727245 131.16846409626305,97.59681288083084 125.20937147922814,106.30650641873945 124.76243953220546,115.88711611693725 128.1889177877456,117.62903916602954" stroke="#4dd2ff" stroke-linecap="round" stroke-linejoin="round" stroke-width="0.5"><title>2023-03-30 5.2km</title></polyline><polyline fill="none" points="188.23615635174792,115.57071329683822 188.5,113.3817920731235 186.77873429498868,112.80884726480872 183.60004653321812,112.3681188809569 183.41158678452484,112.19182713582995 183.57491856679553,109.92939654539805 184.37901349464664,109.75310170493321 184.99464867380448,103.87647896647104 184.7182410423411,103.74425209438778 184.45439739414724,103.96463014456094 183.58748255000683,103.90586269872438 183.8010702652391,103.86178709802334 183.60004653321812,103.67079266661312 180.60981852019904,104.4200770068419 179.39111214515287,104.39069338337868 178.66240111680236,103.72956021194113 177.72010237321956,101.9224468174798 176.08678455097834,100.55607717535167 175.63448115397478,100.45323160446424 175.4083294555312,100.07123310289171 172.97091670543887,99.55700269137742 170.94811540248338,98.60199830347847 170.47068403905723,97.44129182041797 170.35760818980634,96.17772689736739 169.69171707768692,95.31085593953321 168.63634248485323,95.13454254005046 165.45765472308267,95.7222530010622 164.85458352719434,95.57532561900734 163.53536528616678,94.56152244545228 162.90716612373944,94.42928670317633 161.5,94.5909081488353 163.1710097719333,94.47336529794848 164.62843182875076,95.41370531918074 165.45765472308267,95.707560269846 168.58608655189164,95.16392812218692 169.64146114472533,95.32554871273169 170.31991624011425,96.20711225872219 170.45812005584594,97.48536945905653 170.94811540248338,98.6166907283914 172.7322010237258,99.51292571035447 175.3078175895498,100.01246400939999 175.67217310372507,100.49730828705651 176.08678455097834,100.57076939352555 177.2049790599849,101.40822326109628 177.92112610518234,102.26036411778477" stroke="#4dd2ff" stroke-linecap="round" stroke-linejoin="round" stroke-width="0.5"><title>2023-03-28 5.0km</title></polyline><polyline fill="none" points="14.211376404506154,137.67169145087973 14.457865168515127,135.2328367881928 14.31566011236282,134.82266020112002 14.078651685325895,134.67854372179863 12.997893258405384,134.95569062147842 12.922050561755896,134.74505904458783 11.5,134.4124820085126 11.57584269659128,134.06881796236848 13.121137640438974,134.46791158781707 16.72366573032923,134.47899750016222 20.079705056152306,135.49889641867776 21.918890449393075,135.8092984671457 29.171348314615898,135.67626913038112 31.503511235991027,136.15295680554846 32.30933988757897,135.8314700068513 32.688553370768204,133.82492666524922 32.96348314604256,133.48126069215505 34.75526685389923,133.69189480935165 34.87851123593282,133.53669076406368 36.385884831426665,133.59212080662837 38.5,132.82718362952437 38.38623595505487,132.32830854912027 36.869382022472564,132.91587228407298 35.71278089884436,133.10433542571263 34.470856741594616,133.08216330903088 33.02984550560359,132.8160975424471 32.66959269659128,132.91587228407298 31.920646067359485,133.53669076406368 31.731039325823076,134.05773200661497 31.77844101120718,134.58985655908327 31.351825842633843,134.6120283568016 31.048455056152306,134.95569062147842 31.038974719122052,135.2771801068593 30.745084269612562,135.42129576290608 30.0625,135.17740761347522 29.806530898844358,134.5565988537346 29.313553370768204,134.32379462063545 28.630969101097435,134.46791158781707 28.185393258405384,135.0887208729764 27.41748595505487,135.2106651218346 26.92450842692051,135.2106651218346 26.659058988734614,135.03329162205046 24.497542134835385,135.06654917612468 24.298455056152306,134.5565988537346 22.26966292131692,134.8780895634627" stroke="#4dd2ff" stroke-linecap="round" stroke-linejoin="round" stroke-width="0.5"><title>2023-03-26 5.6km</title></polyline><polyline fill="none" points="76.0,144.83452427935117 75.23162055335706,144.8470035949067 73.25731225300115,144.198077435889 72.99051383399637,144.3977474035346 71.97667984192958,144.37278867603163 69.71422924904618,144.75964835836203 68.67905138339847,144.75964835836203 68.10276679845992,144.3353505749037 67.31304347829428,142.65062372710236 65.8936758893542,141.50249979241926 65.50948616600363,141.40266240036726 65.31739130435744,141.05323086282442 63.28972332016565,140.6663590244425 61.55019762844313,139.80525263519667 61.123320158047136,138.83182045112335 61.027272727224045,137.78349988345872 60.52569169958588,137.04717391396116 59.50118577078683,136.87245182265906 56.897233201540075,137.346696896886 56.29960474307882,137.23437586741784 54.303952569141984,135.74923219800257 54.432015810278244,135.16265769769234 53.663636363635305,133.46531930426863 53.450197628408205,133.3405140465038 53.439525691675954,132.82881110863673 53.0980237153708,132.42943166321493 53.02332015812863,131.94268613539316 52.863241106737405,131.71803367571556 52.27628458495019,131.51834224115737 51.924110671912786,130.95670826850255 51.81739130435744,130.7320539305365 52.21225296438206,130.53236082632066 50.1312252964708,127.36218750022817 49.0,125.12803777795489 50.00316205533454,127.16248868918774 52.756521739123855,131.45593859849032 52.671146245033015,131.65563013874635 53.40750988142099,132.75392756566725 53.39683794463053,133.40291669190628 53.684980237158015,133.55268290616368 54.442687747010496,135.23753971124097 54.26126482215477,135.69931107752927 54.62411067192443,135.8490743755683 54.90158102766145,136.26092246470216 56.278260869614314,137.19693550052034 56.779841897194274,137.30925656558975 59.490513833996374,136.87245182265906 60.493675889330916,137.09709446394118 60.99525691696908,137.69613941557327 61.069960474269465,138.70702087211976 61.53952569171088,139.80525263519667 63.033596837951336,140.5914804575441 65.30671936762519,141.06571057840483 65.59486166003626,141.4775404523316 65.84031620551832,141.4775404523316 67.31304347829428,142.65062372710236 68.11343873519218,144.21055681878352 68.68972332013072,144.77212768181926 69.51146245060954,144.8470035949067 71.49644268775592,144.36030931032292 72.0407114624395,144.6722930570977 72.3501976284897,144.3977474035346 72.97984189726412,144.37278867603163 73.13992094859714,144.1606392793401 75.01818181818817,144.8719622220524 75.70118577074027,144.80956564432563" stroke="#4dd2ff" stroke-linecap="round" stroke-linejoin="round" stroke-width="0.5"><title>2023-03-18 7.0km</title></polyline><polyline fill="none" points="86.5,135.97711123689805 88.26145868183812,135.92429646325763 91.65791234525386,136.91720953320328 93.10321177652804,137.17071767090965 100.16711274674162,137.07565219468233 102.38022750086384,137.58266702196124 103.22934091673233,137.19184331998986 103.53646704583662,135.36445814526815 103.78036132489797,135.03700408920122 106.55352960858727,135.13207150643575 107.85429909673985,134.8785581926859 109.16410170629388,134.36096651169646 109.02860488463193,133.89618802191399 110.75393108068965,132.91380818530888 113.3735362997977,132.41733297803876 113.5,132.50183957065747 111.84693877556128,132.59690940181463 110.7268317163107,132.8926816310268 108.38725326198619,134.1919564021082 107.2671462027356,134.51941322961648 105.87604550016113,134.63560732961923 103.87972566077951,134.32927713794925 103.56356641015736,134.4032189944046 102.81381733022863,135.11094542153296 102.65122114418773,135.62853321467992 102.77768484444823,135.92429646325763 102.68735362996813,136.53694611981336 102.43442622950533,136.76932948896865 101.56724657077575,136.84326953845448 100.46520575444447,135.8186668321723 99.67932418873534,135.90317054597108 99.25476748077199,135.5651552617128 98.90247574442765,135.50177726850234 98.5682502509444,135.61797022529936 98.16175978590036,136.10386657959316 97.92689862829866,136.12499245441722 97.48427567747422,136.49469454003702 96.75259284040658,136.53694611981336 96.59902977582533,136.01936303566617 94.02459016395733,136.29399929198553" stroke="#4dd2ff" stroke-linecap="round" stroke-linejoin="round" stroke-width="0.5"><title>2023-03-14 5.6km</title></polyline><polyline fill="none" points="148.64631336409366,140.06227321514598 147.73387096775696,139.941026453831 146.0023041474633,139.37116495756345 144.75806451612152,139.71065725394874 144.49884792632656,139.49241232172062 142.3525345622329,140.00164985052834 141.68894009216456,139.9652758163429 141.00460829492658,139.39541444063798 140.06105990783544,137.576688970119 138.9827188940253,136.37631434855575 138.25691244238988,136.0974376366139 135.92396313365316,135.78218488424318 134.66935483872658,135.10317601048882 134.17165898618987,134.03615393724613 134.01612903224304,132.8842439558066 133.60138248850126,132.38710028147761 132.7822580645443,132.22946890997264 129.85829493089113,132.66598602294107 128.4377880184329,131.73232239489153 126.49884792621015,131.7929501342005 126.33294930873672,130.7986511593408 126.30184331798228,131.81720122088882 124.67396313365316,131.92633104764536 124.0,129.93772678485402 124.54953917051898,131.73232239489153 124.81912442395696,131.9748331595183 128.05414746538736,131.70807129020977 128.5,131.81720122088882 129.4850230414304,132.53260597040935 130.06566820282023,132.6781114745536 132.87557603686582,132.2779708935268 133.64285714289872,132.48410409459757 134.0472350230557,133.00549818336003 134.16129032260505,134.03615393724613 134.58640552993165,135.05467522265099 135.9550691244076,135.83068536414066 138.2050691244076,136.2671887595061 138.51612903230125,136.69156546660815 138.86866359447595,136.76431560142373 140.21658986172406,137.83131227349804 141.03571428573923,139.383289699741 141.53341013827594,139.9652758163429 142.82949308759999,140.05014854476758 143.4101382488734,139.75915607137722 144.93433179729618,139.48028759106091 145.77419354842277,139.56516067862685 145.88824884791393,139.39541444063798 147.96198156685568,140.06227321514598 151.0,139.941026453831" stroke="#4dd2ff" stroke-linecap="round" stroke-linejoin="round" stroke-width="0.5"><title>2023-03-12 6.0km</title></polyline><polyline fill="none" points="187.3376681614318,139.8422628702392 184.09282511210768,139.03524634345376 183.95964125561295,139.24761958548333 183.19686098652892,138.99277165462263 182.71255605382612,139.459992490476 182.61569506727392,139.20514496405667 179.92780269059585,139.75731399131473 179.05605381168425,139.6582068977732 178.402242152486,138.9786134219903 177.05829596414696,136.6141675637482 176.08968609868316,135.62307004812465 174.98789237672463,135.22662898656563 172.3847533632652,134.87266276065202 170.93183856498217,134.03729875516728 170.47174887894653,132.89043459239474 170.39910313906148,131.65860658008023 169.87847533635795,130.9648133971932 168.67982062784722,130.75242700980743 165.56816143501783,131.26215377321932 165.15650224220008,131.19135850552993 164.79327354260022,130.75242700980743 163.739910313976,130.15774333167064 163.26771300449036,130.07278830478026 161.5,130.228539146221 163.61883408069843,130.12942499534984 165.12017937225755,131.10640413482906 168.75246636773227,130.70994969189633 169.79372197308112,130.93649523169734 170.3869955156697,131.78603759000544 170.47174887894653,132.81964018613508 170.90762331837323,133.9240286580025 172.49372197309276,134.80186940304702 175.15739910316188,135.3398979811609 175.47219730936922,135.75049728273007 175.89596412563697,135.80713157029822 177.50627802690724,137.1380304282502 178.43856502242852,138.99277165462263 179.14080717490287,139.62989057184313 180.13363228703383,139.72899768636853 181.24753363232594,139.36088517673488 181.44125560537213,139.60157423988858 182.21614349778974,139.21930317264923 184.0322869955562,139.0635627951997 186.46591928246198,139.92721169521974 188.5,139.77147214153956" stroke="#4dd2ff" stroke-linecap="round" stroke-linejoin="round" stroke-width="0.5"><title>2023-03-05 5.0km</title></polyline><polyline fill="none" points="36.29131886479445,164.90349162828352 36.44156928214943,165.3953352291137 37.98914858099306,165.09671607370547 38.33472454093862,166.15066363882215 38.27462437393842,166.6776349147258 34.262938230414875,167.78426915498858 31.66360601008637,168.99628867718275 29.154424040054437,170.71769251630758 27.396494156913832,167.95992470589408 26.28464106854517,167.028948170293 15.827212020056322,164.6751351760031 15.707011686172336,164.37651472634752 16.29298831394408,162.74287570998422 16.127712854824495,162.40911952660827 16.323038397415075,161.5483768020349 11.5,159.1242202699068 16.308013355650473,161.49567812307214 15.196160267165396,164.64000338624464 14.79048414027784,166.69520059518982 15.421535893226974,165.16697945266787 15.827212020056322,164.92105749629263 24.78213689487893,166.712766273733 26.93071786314249,167.69644130986126 28.823873121931683,170.87577973007865 32.760434056806844,168.4693247536925 34.48831385647645,167.73157245348557 38.5,166.6249378623179 37.98914858099306,164.32381694426294" stroke="#4dd2ff" stroke-linecap="round" stroke-linejoin="round" stroke-width="0.5"><title>2023-02-22 5.0km</title></polyline><polyline fill="none" points="49.0,168.12874665253912 49.169544740987476,165.10536588393006 49.402668759808876,164.6840689263845 51.81868131872034,164.80797995354078 54.584379905834794,165.83643641995877 55.52747252746485,165.89839134037175 55.951334379962645,166.18338355235028 56.3328100470826,166.05947398018907 58.14481946628075,166.33207486596802 58.6004709576373,166.2577292327478 59.268053375242744,166.55511148242658 59.8614599686116,166.4559841497612 61.133045525930356,166.61706602275808 61.98076923075132,166.13381973920332 62.01255886972649,166.3816385951941 62.351648351643234,166.53032965715101 62.86028257460566,166.56750239311077 63.30533751961775,166.3940295242428 64.17425431706943,166.54272057043272 64.79945054941345,165.9479552531193 65.15973312401911,165.88600035889976 67.00353218207601,166.3072929934351 67.14128728414653,166.46837507092278 67.21546310832491,166.02230108295043 68.07378335949033,166.0718649433329 69.02747252746485,165.78687245999754 69.34536891675089,164.57254888987518 69.41954474098748,163.46973392309883 69.84340659336885,163.06082236400107 70.81828885403229,163.25908269214415 73.6157770800055,163.2466914314573 76.0,162.31734314450296 75.73508634214522,161.87125334746815 74.56946624803822,162.32973450348072 73.0117739403504,162.66430070088973 71.99450549448375,162.68908334416483 69.62087912089191,162.37929992639693 68.59301412873901,163.18473510839976 68.39167974877637,163.80429686416028 68.47645211929921,164.2875527585711 67.7558869701461,164.53537552077614 67.57574568293057,165.10536588393006 67.23665620095562,165.25405856600264 66.6114599686116,165.15493013225932 65.88029827317223,164.6964600350184 64.88422291993629,164.6840689263845 64.47095761384116,164.94428193205385 63.10400313971331,165.03101947213872 62.817896389286034,164.83276214326906 59.60714285715949,164.86993541799893 59.003139717446174,164.78319775861746 58.70643642073264,164.51059326813993 56.565934065904,164.9690640928893 54.870486656203866,164.646895592683 51.71271585562499,163.4821251601752 50.10204081633128,163.2466914314573 53.15384615381481,163.22190890619822" stroke="#4dd2ff" stroke-linecap="round" stroke-linejoin="round" stroke-width="0.5"><title>2023-02-10 5.9km</title></polyline><polyline fill="none" points="92.7253582283738,170.25753993881517 92.76052974379854,166.54240058214054 93.97980894480133,166.5561097792379 96.00803300039843,167.07705819400144 97.12179765518522,166.748038386213 97.57902735559037,165.36340420709166 97.66109422489535,164.14326875731058 98.0128093790845,163.75940354353224 100.04103343462339,164.04730256048788 100.42792010417907,163.85536995358416 102.33890577504644,163.88278891483787 104.28506296133855,163.2658608835336 107.6966999565484,161.5521564968658 111.60073816758813,161.01747608963342 113.5,160.3045654479647 113.39448545372579,160.38682456834067 113.2069040381466,160.05778777354863 113.24207555357134,159.74246006119938 112.60898827615893,160.0989174186252 110.97937472863123,160.5102131509775 110.27594442031113,160.53763282003638 110.11181068170117,160.3319851605629 107.93117672600783,160.72957034109277 106.48914459394291,161.2642519363726 104.10920538421487,162.6215106928139 102.36235345201567,163.16989403692423 100.22861485014437,163.32069904965465 98.5286582717672,163.00537927738333 97.68454190186458,163.03279841842595 96.72318714711582,163.85536995358416 96.50043421622831,164.48600459452427 96.57077724701958,165.11663616649457 96.05492835427867,165.11663616649457 95.6797655231785,165.47307874100807 95.59769865387352,166.00774076450034 95.21081198437605,166.1859609488165 94.43703864526469,165.8980666831194 94.1556665218668,165.15776420589827 93.44051237514941,164.78761138136906 92.63156752061332,165.0206706904719 92.18606165866368,165.71984610287473 91.22470690403134,165.8980666831194 90.50955275719753,165.9117759483488 90.263352149399,165.70613681730174 86.67585757706547,165.67871824183385 86.5,165.52791597311443 86.75792444631224,165.22631090920186 88.68063395569334,165.08921746628766 88.90338688663905,165.78839250885358 89.85301780281588,165.71984610287473 90.63851498044096,165.2126015714457 91.36539296567207,165.26743891381193 91.7053842813475,164.8561582804832 92.1039947894169,164.8424489035824 92.74880590528483,165.5416252775467 93.61636995215667,165.50049735994253 94.13221884495579,165.92548521213757 95.19908814586233,166.21337941696402 96.3831958314986,166.04886852107302 96.6880156317493,165.04808940512885 96.72318714711582,165.9529037353932 96.31285280070733,166.28192556192516 94.81220147636486,166.07628701823705 94.4487624837202,165.9117759483488 94.0384281371953,165.06179876030365 91.78745115065249,164.40374807621993 91.22470690403134,164.54084224431426 89.82957012590487,165.67871824183385 89.12613981764298,165.6650089519535 88.76270082499832,165.1303455143934 89.09096830221824,164.92470514337765 89.66543638735311,164.92470514337765 90.14611376461107,165.34969488385832 91.31849761179183,165.26743891381193 91.84607034298824,164.8972864025709 92.33847155881813,165.29485757630027 92.77225358225405,165.00696133096062 93.5343030829099,164.8561582804832" stroke="#4dd2ff" stroke-linecap="round" stroke-linejoin="round" stroke-width="0.5"><title>2023-02-05 7.1km</title></polyline><polyline fill="none" points="124.32088285230566,169.21691905512853 124.5653650254535,167.01026523227483 124.74108658745536,166.94772764408845 126.00933786077076,167.15320811709535 126.4601018675603,167.08173670493125 127.6519524618052,167.59096919676085 128.16383701187442,167.64457243831566 128.40831918505137,166.58143512616516 128.2249575551541,166.2151410194565 127.69779286923585,166.22407504096918 127.4456706281926,165.97392208154633 126.02461799659068,166.09899865386978 125.17657045839587,165.95605398465705 124.77928692699061,165.652295759166 124.05348047538428,165.51828442998521 124.0,166.06326250925486 124.05348047538428,165.54508671282383 124.31324278438115,165.52721852519608 124.45076400681864,165.63442759423924 124.43548387094052,166.0096582639526 124.58064516127342,166.2419430811351 126.36842105264077,166.09899865386978 128.370118845487,166.9119918586366 129.6918505942449,167.22467946875986 130.50169779287535,167.0906706347596 131.0212224108691,167.2961507599539 131.56366723260726,167.2514812100344 132.19779286926496,167.37655589021597 133.73344651953084,167.13534026969864 134.9100169778976,167.28721685185155 135.57470288625336,167.22467946875986 135.77334465197055,167.03706704161596 136.52971137521672,167.0191991696629 136.797113752109,167.2514812100344 137.4312393888249,167.45696094397135 138.16468590832665,167.40335758332367 138.37860780983465,167.24254729722452 138.37096774191014,166.37595326194423 138.51612903227215,165.97392208154633 139.1120543293364,165.42000932007795 141.25891341257375,165.61655942551442 142.39728353137616,165.46467983875482 143.31409168080427,165.15198571179644 145.667232597596,163.97267172898137 148.2495755517739,163.68677494975418 150.5797962648503,162.632522210537 150.97707979622646,161.90883262654825 150.77843803050928,160.78308094487147 151.0,161.86416022673802 150.91595925294678,162.14112872449186 150.80135823428282,162.40916188957635 149.85398981321487,162.98096313144197 149.70118845498655,163.23112495720852 149.0976230899687,163.26686230038467 148.41765704582212,163.62423490027868 147.24108658742625,163.86546055019426 146.5764006790996,163.81185490975622 145.43039049234358,164.0173430132927 143.29881154498435,165.12518330416788 142.31324278435204,165.45574573692284 140.84634974534856,165.58975716532586 139.1960950763605,165.36640466647077 138.45500848896336,165.93818588398426 138.24872665535077,165.75950466939685 138.47792869264958,166.02752634949138 138.3556876060902,166.331283225285 138.44736842103885,166.67970888447599 138.30984719863045,166.83158628601814 138.36332767404383,167.13534026969864 138.19524617993739,167.34975418866088 137.48471986415097,167.45696094397135 136.62903225806076,167.13534026969864 136.56027164685656,166.99239735467563 135.80390492358129,167.00133129394817 135.48302207130473,167.19787771895062 134.84889643461793,167.2514812100344 134.4745331069571,167.2514812100344 134.2758913412399,167.11747241857665 132.656196943979,167.1621420393567 131.78522920203977,167.04600097615912 130.83786078097182,167.18894380047277 130.41765704582212,167.05493490977824 129.82173174872878,167.21574555311963 128.69100169779267,166.99239735467563 126.30730050933198,166.13473478337983 125.78013582344283,166.05432847073826 124.57300509334891,166.23300906152872 124.4202037351497,165.92031777954253 124.53480475384276,165.5986912530061 125.16893039047136,165.99179017464485 125.86417657043785,166.13473478337983 127.40747028859914,165.97392208154633 127.63667232598527,166.22407504096918 127.98811544990167,166.25087709978834" stroke="#4dd2ff" stroke-linecap="round" stroke-linejoin="round" stroke-width="0.5"><title>2022-12-15 10.0km</title></polyline><polyline fill="none" points="161.5,168.61970566848322 161.7384287454479,165.37982792990078 163.70341047504917,165.51442455674987 163.9582825821999,165.6874770698123 165.62728380024782,166.07203703012055 165.89037758830818,164.95680866199837 165.8246041412931,164.61070052367722 165.10931790500763,164.56262984468776 164.86266747870832,164.24536272544356 163.97472594396095,164.28381940491818 163.62941534712445,164.12037840463017 163.07034104751074,164.32227606815286 162.48660170525545,164.28381940491818 161.68909866016475,163.8223381767457 161.6068818514177,164.26459106719994 161.80420219246298,164.57224398251856 163.6458587089437,164.29343357226753 163.925395858736,164.62992878819932 165.98081607796485,165.34137171418115 167.37028014616226,165.6297929354114 168.11845310599892,165.46635435576172 168.77618757612072,165.67786304995388 170.3629719853925,165.6970910886448 171.23447015834972,165.64902098428138 171.59622411691817,165.48558243921434 172.90347137636854,165.67786304995388 173.55298416566802,165.6297929354114 173.857186358131,165.399056031667 174.6218026796414,165.399056031667 174.81912302071578,165.60095085445937 175.50152253347915,165.74516116758605 175.690621193673,165.947055221528 175.88794153471827,165.71631912327575 176.29080389768933,165.8028452287399 176.5621193666011,165.6970910886448 176.74299634594354,164.28381940491818 177.47472594399005,163.6396678765086 179.16839220462134,163.85118082218105 180.56607795372838,163.78388130194799 181.77466504264157,163.4666114639258 184.15895249697496,162.2167498097624 187.34074299639906,161.78410138576146 188.2944579781033,161.38029433152406 188.40956151037244,161.81294467812404 188.5,161.78410138576146 187.61205846531084,162.13022028979321 184.88246041414095,162.4571091552716 181.70066991474596,163.89925187750487 180.50852618759382,164.22613437955442 179.11084043851588,164.3126619038885 177.65560292327427,164.1107642190036 177.40895249694586,164.3991893458151 177.35962241172092,165.22600296940072 177.07186358098988,166.22586055866122 176.64433617540635,166.38929777240992 176.27436053592828,166.48543717261055 174.45736906214734,166.04319508955814 172.780146163248,166.07203703012055" stroke="#4dd2ff" stroke-linecap="round" stroke-linejoin="round" stroke-width="0.5"><title>2022-12-12 7.2km</title></polyline><polyline fill="none" points="11.936825885961298,198.02224863461743 12.15523882897105,194.96963480499835 12.082434514712077,194.68990916513576 11.510400616331026,194.61693714713329 11.5,194.25207636241248 14.443374422204215,194.30072453397588 17.709167950728443,195.29800751378934 20.049306625616737,195.7601601076094 28.08898305083858,195.6385411840747 28.99383667181246,195.71151255363657 30.522727272706106,196.21014900597947 31.001155624049716,196.05204499916726 31.635593220358714,195.73583633319504 31.937211094016675,194.62909915336786 31.989214175671805,193.60748614617478 32.20762711868156,193.26694645967655 32.73805855162209,193.1818113804111 34.246147919853684,193.4858649453745 34.568567026173696,193.31559504804318 36.087057010794524,193.3642436158625 37.17912172572687,193.0723519001258 38.5,192.43991730692505 38.31278890604153,191.97775136538985 35.61902927584015,192.7926216437845 34.38135593221523,192.82910823755083 32.072419106261805,192.54937738931767 31.16756548540434,193.35208147585945 30.990755007660482,193.83856607326743 31.136363636353053,194.3128865736362 30.96995377499843,194.60477513964724 31.032357472984586,194.95747283482342 30.76194144837791,195.2493597642533 30.273112480761483,195.2007119941627 29.638674884394277,195.39530295107397 29.34745762712555,195.10341639216495 28.754622496140655,195.00612070783973 28.619414483837318,194.8358530621481 28.567411402182188,194.94531086332427 27.610554699553177,194.84801504520874 26.206471494573634,195.11557834690757 25.717642526957206,195.12774030038418 25.395223420578986,194.90882494115795 23.2526964560966,194.98179677388543 22.004622496140655,194.82369107779232 20.735747303580865,195.00612070783973" stroke="#4dd2ff" stroke-linecap="round" stroke-linejoin="round" stroke-width="0.5"><title>2022-12-06 5.0km</title></polyline><polyline fill="none" points="49.0,198.29425861632626 49.23098075162852,195.7090699516193 49.35472044002381,195.8344725856732 51.0870760770631,195.85376528331108 53.355637030268554,196.6061773068359 53.438130155875115,196.7701637187056 53.31439046750893,196.7701637187056 53.42163153071306,196.59653103810706 53.18240146661992,196.6061773068359 52.976168652647175,196.3939591595481 53.15765352893504,196.45183688504767 53.36388634284958,195.06276133350184 53.23189734190237,195.1495791754278 53.248395967064425,195.42932499263406 53.55362053166027,195.68013085773418 54.79926672781585,195.98881405236898 55.55820348308771,195.84411893499055 56.23464711278211,196.05633836190827 57.290559120127,196.08527733641677 59.57561869849451,195.88270432208083 60.210815765400184,196.05633836190827 61.14298808434978,195.95987504727964 61.3739688359492,195.77659446830512 62.19065077914274,195.77659446830512 62.2731439047202,195.94058237207355 63.27956003672443,196.22997207112348 64.06324472965207,196.09492365919868 64.25297891846276,194.63831736089924 65.01191567373462,194.00164769739058 67.1897341888398,194.2235179332638 68.24564619618468,194.1270526796725 69.41704857931472,193.77013035392156 71.6278643446567,192.59324143517006 72.37855178737664,192.4003073762433 74.3583868011192,192.23631310518977 75.43904674611986,191.94691073076683 75.85976168652996,191.70574138368102 75.99175068744808,192.17843270378216 76.0,192.07231853912526 74.31714023835957,192.6318281979693 71.99908340975526,192.9405217124222 70.79468377641751,193.54825901480217 68.55912007339066,194.51291308178043 66.868010999111,194.59008496625756 66.68652612282312,194.69619620079175 65.16040329975658,194.51291308178043 61.14298808434978,196.44219060002797 57.323556370305596,196.51936085173656" stroke="#4dd2ff" stroke-linecap="round" stroke-linejoin="round" stroke-width="0.5"><title>2022-11-27 5.6km</title></polyline><polyline fill="none" points="86.5,196.59935555000993 87.57120085012866,196.7559318855856 87.86769394262228,196.66645972222614 88.35547290113755,196.91250798923284 88.68065887351986,196.8565879788148 90.39266737509752,197.3822349088441 90.6795961742173,196.05133654937526 90.52656748139998,195.8276545082408 90.58395324117737,196.28620218321885 91.06216790649341,196.5881715171854 92.57332624861738,196.8789559865545 93.29064824653324,196.66645972222614 94.04622741765343,196.93487598508364 96.81030818278668,196.91250798923284 97.34590860782191,196.7335638518416 98.80924548354233,196.91250798923284 99.593517534493,196.8677719832849 99.94739638682222,196.59935555000993 100.89426142396405,196.5881715171854 100.99946865031961,196.80066793884907 102.09936238039518,197.13618773507187 102.84537725819973,197.0355319080045 103.16099893726641,196.71119581333915 103.26620616362197,196.16317739248188 103.14187035069335,195.71581331024208 103.29489904351067,195.2572631612129 104.17481402761769,194.54147358713817 106.38416578108445,194.8210794663537 107.88575982995098,194.70923720340215 109.44473963865312,194.18357698266482 111.68278427200858,192.96448258063901 113.5,192.6177650911486 111.82624867156846,192.89737605854316 109.39691817207495,194.20594555592834 107.84750265668845,194.69805297059793 106.41285866091494,194.78752679988247 104.42348565353313,194.4855523225633 104.06960680126213,194.5526578365243 103.26620616362197,195.30199984865612 103.12274176406208,195.71581331024208 103.24707757704891,196.16317739248188 103.07492029748391,196.46514707783354 103.14187035069335,196.81185194922728 102.88363443140406,197.04671589351346 101.8124335812754,197.09145182373322 100.68384697131114,196.554619411545 99.90913921355968,196.56580344793474 99.5361317746574,196.84540397319506 98.63708820403554,196.90132398950664 97.91976620611968,196.72237983319064 94.89744952175533,196.6776437467779" stroke="#4dd2ff" stroke-linecap="round" stroke-linejoin="round" stroke-width="0.5"><title>2022-11-23 5.3km</title></polyline><polyline fill="none" points="124.0,195.64989600601984 126.29856115108123,195.92751211590803 128.8669064748683,196.63416838923877 129.20143884891877,195.14513778725086 129.12589928059606,194.79180576328508 128.79136690648738,194.6277583963456 128.2517985611339,194.67823453324672 127.77697841724148,194.28704391336942 126.61151079135016,194.32490112616506 126.3525179856224,194.4637108038005 126.39568345324369,194.58990127961442 130.06474820140284,195.8391797873992 131.20863309357082,195.97798770284135 131.81294964026893,195.63727707659564 132.56834532372886,195.7634663108838 133.4856115108123,195.59942028028308 133.66906474821735,195.86441760222078 134.18705035973107,195.9401310146568 137.16546762589132,195.86441760222078 137.9100719424896,196.10417657672951 139.17266187054338,196.0410821564583 139.58273381291656,195.75084739346494 140.64028776978375,195.73822847470728 140.88848920859164,196.0158443790133 142.15107913670363,196.33131621326174 143.24100719427224,196.05370104319445 143.2194244604325,195.54894453316228 143.381294964056,195.29656547717605 143.262589928112,194.66561550099868 143.46762589929858,194.18609128703247 144.40647482016357,193.44156302940246 147.6762589928112,193.7570416720264 149.46762589929858,193.39108636909805 150.73021582735237,192.8484609222287 151.0,193.34060968748963 149.95323741005268,193.80751817743294 148.0755395683227,194.28704391336942 146.7482014388661,194.21132945166028 146.53237410075963,194.35013926137617 144.8381294964347,194.04728128637362 144.50359712226782,194.13561494184978 144.2338129496202,194.48894890960946 144.10431654681452,195.97798770284135 143.7805755395675,196.8991634124468 143.04676258994732,197.15153907776403 140.15467625902966,196.59631190929213 132.01798561151372,196.77297537958657 128.9856115108123,196.19250870901305" stroke="#4dd2ff" stroke-linecap="round" stroke-linejoin="round" stroke-width="0.5"><title>2022-11-18 5.5km</title></polyline><polyline fill="none" points="161.5,197.95875928016176 161.79705304518575,194.85737169697677 162.49724950885866,195.03105156960373 163.17622789787129,194.93180595957529 165.02220039296662,195.14270278041658 166.8257367386832,195.76298534946545 167.1121807465679,194.43557664969558 167.0591355599463,193.85250452729815 166.2104125736514,193.81528705937671 165.76483300584368,193.41829999967013 164.64027504913975,193.46792345563154 164.41748526523588,193.7532579198887 164.51296660123626,193.85250452729815 167.3986247543944,194.82015454793145 169.24459724948974,195.20473118498194 169.96601178782294,194.9566173699568 170.80412573675858,195.24194821198034 173.88074656185927,195.22954253762873 174.47485265223077,195.0186458729222 176.1086444007815,195.24194821198034 176.93614931235788,195.19232550671586 177.48781925346702,194.93180595957529 178.34715127694653,194.94421166543907 178.60176817286992,195.19232550671586 179.90667976421537,195.4652501257733 180.93575638503535,195.22954253762873 181.1055009822594,194.42317089002609 180.96758349705487,193.9145336143265 181.14793713163817,193.45551759363298 182.07092337909853,192.61191589706868 185.59312377206516,192.8848465218398 187.004125736712,192.58710399059055 188.38330058928113,192.04124071983097 188.5,192.53748016190366 185.9113948919112,193.43070586561953 183.3546168958419,193.4803293163277 182.62259332020767,193.21980596583307 182.17701375245815,193.35627065017616 181.9542239685543,193.65401122844196 181.84813359525288,194.9566173699568 181.56168958736816,195.97388067553402 180.6917485265294,196.2716146078892 178.71846758347237,195.775390967392 169.97662082512397,195.8870414695848" stroke="#4dd2ff" stroke-linecap="round" stroke-linejoin="round" stroke-width="0.5"><title>2022-11-06 5.5km</title></polyline><polyline fill="none" points="11.5,233.31434389376955 12.122572815453168,229.9619087426545 12.564927184430417,220.78549743857002 12.941747572796885,219.0804345132492 13.040048543713056,219.25285733642522 15.038834951410536,219.19538308023766 20.658373786427546,220.45981250210025 21.051577669859398,217.77767898769525 20.904126213514246,218.5440069023898 21.51031553390203,218.984643985008 24.426577669917606,219.5785444433859 30.43932038830826,218.39074157885625 30.83252427179832,218.39074157885625 30.9144417475909,219.46359611958906 32.257888349471614,219.27201541773684 33.617718446592335,219.3486477227998 34.12560679606395,219.67433465748036 36.28822815534659,219.5977024902968 36.97633495146874,219.11875071037502 36.99271844665054,218.40989975140837 38.40169902914204,217.98841948750487 38.5,217.01134783015004 37.975728155404795,216.6856561062159 37.091019417508505,217.87347015435807 37.25485436891904,218.33326704913634 36.89441747573437,218.4865324213024 36.304611650528386,219.46359611958906 34.50242718443042,219.6934926942631 33.617718446592335,219.3486477227998 28.506067961163353,219.3486477227998 28.096480582491495,219.6551766187331 26.851334951468743,219.6551766187331 25.557038834958803,219.21454116767563 24.295509708696045,219.5785444433859 22.10012135922443,219.17622499080608 17.00485436891904,217.50946345145348 16.841019417450298,217.20293092356587 17.234223300940357,217.06882277947443 18.98725728149293,216.85808120950242 19.56067961163353,217.50946345145348 20.117718446534127,217.47114691387105 19.544296116451733,217.4519886420021 18.954490291245747,216.89639787684428 18.020631067920476,216.89639787684428 17.070388349471614,217.03050614862877 16.955703883431852,217.52862171718152 22.182038834958803,219.27201541773684 20.7894417475909,218.4673742568848 20.871359223267063,217.77767898769525" stroke="#4dd2ff" stroke-linecap="round" stroke-linejoin="round" stroke-width="0.5"><title>2022-11-02 5.0km</title></polyline><polyline fill="none" points="49.831408775935415,231.16727941273712 49.78983833716484,230.91209505889128 49.05196304846322,230.81488182262547 49.0,230.462483151794 49.270207852183376,228.63971415253036 49.270207852183376,226.96274113294203 49.4364896073821,226.61033064693038 49.34295612009009,225.3222003632036 49.57159353350289,222.6243712705982 49.78983833716484,221.60355455180252 49.966512701998,221.73723344780592 52.03464203228941,221.66431770563213 54.695150115469005,222.49069340692222 54.954965357959736,220.7528670233296 54.81986143189715,221.15390621448023 55.006928406481165,221.44557020141656 57.13741339487024,221.93167520068528 60.45265588915208,221.23897495382698 61.57505773671437,221.2146696061609 62.20900692837313,221.53063872476923 62.55196304846322,221.32404363020032 63.954965357959736,221.3605016150541 64.38106235564919,220.97161584662535 65.01501154736616,221.28758563374868 65.81524249416543,221.00807394335425 66.41801385674626,221.27543296571093 66.68822170898784,221.98028558748047 67.4364896073821,222.21118464381289 68.48614318697946,221.99243818094692 68.66281755192904,221.08099010204023 68.5381062355591,220.61918698181398 68.73556581983576,220.13307642858854 69.37990762118716,219.48897677696368 70.01385681290412,219.3552952646205 71.84295612003189,219.6469638182607 73.04849884519354,219.6469638182607 74.38914549647598,219.3917538743117 75.80254041560693,218.83272058726288 76.0,219.2580722488492 74.85681293299422,219.79279781735386 73.32909930712776,220.18168757648527 71.74942263273988,220.27890981056407 69.80600461893482,220.06015966818813 69.51501154730795,220.40043748745666 69.13048498838907,222.63652379596897 68.30946882208809,222.9403365118851 65.3683602771489,222.442083236092 57.46997690532589,222.60006621604407 55.100461893714964,222.1018114644612 54.8094688221463,223.94898896698578" stroke="#4dd2ff" stroke-linecap="round" stroke-linejoin="round" stroke-width="0.5"><title>2022-10-28 6.2km</title></polyline><polyline fill="none" points="86.5,227.92132134532585 86.66901408456033,225.3273723036109 86.84859154932201,224.8579848913796 87.01760563382413,225.03091731540917 88.30633802816737,224.90739418150042 89.32042253523832,225.01856500787835 91.45422535215039,225.74734891511616 91.88732394366525,225.64853102476627 92.13028169010067,224.32683370183076 92.03521126759006,223.88214712684567 91.71830985916313,223.733917892132 91.10563380282838,223.7833276579404 90.75704225350637,223.43745885819226 89.6267605634057,223.49922121899726 89.46830985916313,223.64745075166138 89.59507042251062,223.857442267421 92.83802816906245,224.96915576477477 93.89436619722983,225.15444031860534 98.36267605633475,224.49976691255142 98.40492957748938,225.11738343136676 99.88380281691207,225.01856500787835 100.85563380282838,225.25325862710451 103.33802816900425,224.94445113540132 103.45422535209218,225.17914490357362 104.67957746476168,225.48795177457941 105.6725352111971,225.38913366469205 105.88380281691207,225.2162017712035 105.86267605633475,224.69740455401188 106.03169014083687,224.4750621838175 105.90492957748938,223.86979469778453 106.10563380282838,223.41275390471856 107.0246478873305,222.63454519469815 109.61267605627654,222.91865373755718 110.6478873239248,222.86924360587727 111.85211267601699,222.63454519469815 113.23591549292905,222.07867865467415 113.5,222.51101952559839 112.2746478872723,223.0421789753891 110.65845070424257,223.46216380647093 109.40140845067799,223.41275390471856 109.17957746476168,223.52392615416466 107.5,223.23981908405403 107.14084507041844,223.3386390129599 106.91901408450212,223.67215565547667 106.85563380277017,224.7468139121047 106.52816901408369,225.96968886259128 105.65140845067799,226.24143711243232 104.89084507036023,226.1673240161108 104.76408450701274,225.94498444491182 104.34154929581564,226.00674547937524 103.28521126764826,225.75970114552183 98.7746478873305,225.82146227797057" stroke="#4dd2ff" stroke-linecap="round" stroke-linejoin="round" stroke-width="0.5"><title>2022-10-20 5.2km</title></polyline><polyline fill="none" points="130.09795918362215,226.22425924085837 130.50204081623815,226.84711125817557 131.56734693865292,227.1477977551258 132.6693877549842,226.73972311565012 135.53469387744553,227.04040977158002 135.73673469386995,226.7182454802969 136.21428571420256,227.2337081009755 137.0591836734675,227.4484838067292 137.66530612239148,227.2337081009755 140.4571428570198,227.51291647410835 141.41224489791784,226.61085726962483 141.98163265292533,227.1263201629481 143.32244897959754,226.80415600797278 144.6265306121204,226.99745456234086 146.2612244897755,226.7612007486896 146.48163265292533,228.32906182479928 146.75714285706636,228.09280956063594 146.81224489794113,226.5249466601672 147.32653061219025,226.15982616449764 150.35714285704307,227.06188737282355 151.0,228.13576453822316 150.5591836734675,226.39608067787776 148.94285714277066,222.55154125203262 146.68367346923333,223.34622855469934 146.00408163259272,224.46308112777479 144.27755102037918,224.74229331102106 143.39591836731415,224.74229331102106 143.0469387754565,224.39864749246044 137.5367346938001,224.4201253731735 137.0959183672676,224.0979569240444 134.63469387753867,224.57047047448577 134.19387755100615,224.22682436501782 139.59387755102944,223.4750964728446 139.86938775505405,223.99056732743338 139.5204081631964,224.52751474254183 136.9306122448761,224.22682436501782 134.76326530601364,224.57047047448577 133.99183673469815,224.29125805487274 137.79387755086645,223.58248634211486 139.81428571417928,223.51805242734554 139.8510204080958,224.18386856048892 139.55714285711292,224.52751474254183 136.87551020400133,224.22682436501782 134.63469387753867,224.54899260964885 134.0102040816564,224.31273594692175 135.53469387744553,224.03352317291137 136.01224489789456,224.3342138367443 139.4836734692799,224.63490405520133 139.81428571417928,224.37716960943362 139.83265306113753,223.51805242734554 138.5836734692566,223.4106625240238 132.55918367335107,224.65638191089965 129.82244897948112,224.1623906547611 124.25714285706636,222.29380416145432 124.0,221.9501541984646 124.404081632616,221.69241634452192 126.35102040809579,221.67093817521527" stroke="#4dd2ff" stroke-linecap="round" stroke-linejoin="round" stroke-width="0.5"><title>2022-09-24 5.1km</title></polyline><polyline fill="none" points="186.0454545454122,229.8041914785863 187.11264822119847,229.1178895230405 188.3399209487252,224.50092834205134 183.3774703554809,221.50612339074723 179.2687747036107,226.37267371604685 179.2687747036107,229.49223614332732 181.45652173901908,230.42810165468836 185.99209486157633,230.49049263593042 187.16600790503435,229.74180042475928 188.5,224.25136184343137 183.80434782616794,221.31894757662667 179.37549407128245,226.43506512633758 179.48221343872137,230.0537556281779 182.41699604713358,230.1785376634216 183.32411067187786,230.80244744365336 182.36363636353053,231.73831087659346 162.72727272706106,232.861345036712 161.92687747022137,233.48525197961135 163.3142292490229,232.4246097841533 183.91106719360687,232.923735760618 187.0592885373626,232.17504663724685 174.89328063232824,231.73831087659346 175.90711462451145,216.88910263794241 175.32015810278244,216.7643177920836 173.13241106714122,231.98787420795998 161.5,231.86309255548986 161.6600790512748,232.54939131764695 187.16600790503435,232.861345036712 185.1916996045038,231.73831087659346 183.00395256909542,232.23743743391242 174.8399209487252,231.55113830877235 175.69367588916793,216.51474802038865 173.66600790503435,231.55113830877235 171.90513833984733,232.23743743391242 163.0474308298435,231.86309255548986 162.94071146240458,232.54939131764695 188.44664031616412,233.17329859052552 181.29644268751144,232.923735760618 186.73913043481298,232.861345036712 186.73913043481298,232.05026502447436 183.59090909082443,231.8007017194177" stroke="#4dd2ff" stroke-linecap="round" stroke-linejoin="round" stroke-width="0.5"><title>2022-09-22 5.0km</title></polyline><polyline fill="none" points="23.84896467725048,257.0766429074574 24.917783191194758,256.9228202250815 25.707064555434044,257.44197125631035 26.64433617546456,257.3073766868911 28.666869671142194,257.63424903976556 29.73568818520289,257.1535541998164 29.702801461622585,256.8074531278544 29.933008526219055,256.7497695518832 30.327649208367802,257.42274346679915 32.235079171776306,257.1920098337723 32.925700365391094,257.46119904382795 34.37271619972307,256.7497695518832 34.38915956154233,257.3650600859837 34.65225334954448,257.6150212705543 34.816686967154965,256.5959465928754 35.14555420225952,256.3844398117071 38.023142509220634,257.1535541998164 38.5,258.0572594473924 37.644945188832935,255.23076212748128 36.641900121816434,253.09643910708837 35.194884287484456,253.6156010673585 34.75091352016898,253.30794971434807 32.925700365391094,253.03875435327063 30.705846528639086,254.78851707362628 27.515834348392673,254.84620127212838 27.104750304482877,253.98093637276907 24.292935444565956,254.38472717172408 23.30633373942692,254.61546436839853 24.457369062118232,255.13462198991328 29.193057247262914,255.0961659206514 29.933008526219055,254.78851707362628 31.28136419004295,254.78851707362628 32.11997563956538,255.0961659206514 33.83008526189951,254.90388545228052 34.14250913524302,254.09630526401452 33.58343483554199,253.59637287308578 32.629719853866845,253.5002318709885 31.182704019534867,254.28858658669924 30.22898903780151,253.59637287308578 28.929963459202554,253.96170821713167 27.30207064555725,253.92325189970143 27.26918392209336,254.88465739428648 25.937271620030515,254.65392053933465 23.898294762533624,254.98079766404408 22.862362971995026,254.65392053933465 22.15529841656098,254.9423415622441 20.98781973205041,254.90388545228052 14.246041412930936,252.86569998202322 14.640682095079683,252.25039421652036 13.555420219199732,251.94274055262213 12.914129110868089,252.4042208531464 11.5,252.15425250247063 11.76309378806036,252.3849925307295 14.22959805111168,252.67341715407383 16.465895249682944,252.28885088789684 17.17295980505878,252.94261305624968 18.06090133980615,252.78878687528777 18.57064555416582,252.98106958111748 18.241778319177683,255.86528575996635 17.78136419004295,255.86528575996635 18.8008526188205,256.3075281939091 18.192448233894538,256.3844398117071 18.04445797810331,256.98050374619197" stroke="#4dd2ff" stroke-linecap="round" stroke-linejoin="round" stroke-width="0.5"><title>2022-09-09 5.2km</title></polyline></svg>