<?xml version="1.0" encoding="utf-8" ?>
<svg baseProfile="full" height="300mm" version="1.1" viewBox="0,0,200,300" width="200mm" xmlns="http://www.w3.org/2000/svg" xmlns:ev="http://www.w3.org/2001/xml-events" xmlns:xlink="http://www.w3.org/1999/xlink"><defs /><rect fill="#222222" height="300" width="200" x="0" y="0" /><text fill="#FFFFFF" style="font-size:12px; font-family:Arial; font-weight:bold;" x="10" y="20">Over 5km Runs</text><text fill="#FFFFFF" style="font-size:4px; font-family:Arial" x="10" y="280">ATHLETE</text><text fill="#FFFFFF" style="font-size:9px; font-family:Arial" x="10" y="290">fengde</text><text fill="#FFFFFF" style="font-size:4px; font-family:Arial" x="120" y="280">STATISTICS</text><text fill="#FFFFFF" style="font-size:3px; font-family:Arial" x="120" y="285">Number: 35</text><text fill="#FFFFFF" style="font-size:3px; font-family:Arial" x="120" y="290">Weekly: 1.5</text><text fill="#FFFFFF" style="font-size:3px; font-family:Arial" x="141" y="285">Total: 207.1 km</text><text fill="#FFFFFF" style="font-size:3px; font-family:Arial" x="141" y="290">Avg: 5.9 km</text><text fill="#FFFFFF" style="font-size:3px; font-family:Arial" x="167" y="285">Min: 5.0 km</text><text fill="#FFFFFF" style="font-size:3px; font-family:Arial" x="167" y="290">Max: 10.0 km</text><polyline fill="none" points="42.571428571478464,51.29060161499365 41.79351740702987,51.68045789358439 40.27473846683279,51.72377521208546 38.44109072210267,51.2039667856443 38.12622191733681,51.72377521208546 37.01492025377229,51.68045789358439 34.644143371726386,50.424251671196544 33.236494597862475,50.55420439649606 31.92145429609809,49.68785133640631 27.846681529772468,49.969416483087116 26.624249699991196,49.796145669402904 25.90190361859277,50.38093407776614 21.38261018693447,52.13528928038431 20.62322071683593,51.615481898741564 20.289830217836425,50.056051834937534 16.80775167210959,45.85419503832236 16.233579145977274,45.44266834387963 12.140284685301594,44.94450334376597 16.622534728143364,45.65926144410332 20.40096038428601,50.33761647521169 20.604699022485875,51.76709252137516 21.345566798117943,52.13528928038431 25.698164980276488,50.53254561465292 25.99451209057588,50.03439300043101 24.43868976167869,49.90443994515226 23.031040987931192,49.27633234845416 22.19756474031601,49.579556946089724 21.716000686050393,50.64083950087661 22.45686846168246,51.009038285395945 21.993826101883315,51.398895100166555 22.19756474031601,51.78875117262942 21.69747899158392,52.11363066580088 21.086263076751493,51.98367893035174 20.641742411302403,51.745433867836255 20.567655633669347,50.64083950087661 20.12313496833667,49.86112224168028 19.215571943088435,49.1030609482259 18.122791973990388,47.28370239093783 16.45583947864361,45.46432766428916 12.807065683417022,44.98782208755438 16.38175270112697,45.46432766428916 20.21574344020337,49.991075324462145 20.734350883285515,51.33391901596042 20.12313496833667,51.009038285395945 18.178357057156973,47.32702063974284 16.511404561810195,45.529305611460586 11.714285714318976,44.92284396845207 12.066197907784954,42.150425005325815 16.659578116959892,42.28038298305182 17.548619447858073,42.77855446652393" stroke="#4dd2ff" stroke-linecap="round" stroke-linejoin="round" stroke-width="0.5"><title>2023-05-19 5.4km</title></polyline><polyline fill="none" points="48.14285714284051,46.81881848072226 51.17185821692692,46.864035325241275 56.05692803434795,48.34111102031602 57.82277121365769,48.672697337009595 68.3791621911223,48.53704848255438 71.24060150369769,49.215291463406174 72.55531686352333,48.732985675291275 73.05800214823103,45.80897188167728 73.39312567131128,45.522596170252655 75.79054779798025,45.839116659917636 75.98388829210307,45.613030667605926 78.20085929107154,45.58288584157708 78.96133190114051,45.35679944262665 78.99999999994179,45.070422822303954 77.63372717500897,45.65824789479666 75.99677765840897,45.64317548731924 75.73899033293128,45.80897188167728 73.35445757251,45.55274100907263 72.99355531681795,45.92955095639627 72.50375939847436,48.763129834929714 71.36949516646564,49.155003329215106 68.1600429645041,48.476760061326786 58.50590762618231,48.702841509351856 55.889366272778716,48.25067825458245 51.06874328671256,46.81881848072226 48.61976369493641,46.89417988022615" stroke="#4dd2ff" stroke-linecap="round" stroke-linejoin="round" stroke-width="0.5"><title>2023-05-17 5.0km</title></polyline><polyline fill="none" points="87.72471324296203,49.944305893513956 88.69731728127226,50.48302860783588 89.22969001805177,50.255568219028646 90.78585647931322,50.48302860783588 91.22608778084395,50.195710146042984 91.2670395298046,49.83656104293914 93.47843397484394,49.74078775628004 97.94217461376684,49.68092941098439 100.28666224295739,50.1717669079153 101.12617309699999,49.89641930592916 101.49473883782048,47.72953001334099 101.82235282968031,47.262625782161194 102.82567067974014,47.442204560589744 103.83922646701103,47.334457327720884 105.29301355581265,47.47812028207409 108.11868423549458,46.484447782575444 110.42222011566628,45.299212547055504 112.69504218408838,45.143574674810225 114.87572281737812,44.50904882639588 115.42857142857974,44.25763193999592 115.23405062092934,44.353409867340815 115.12143331125844,43.80268567788153 114.85524694283959,44.03015903758933 113.82121528114658,44.31749315408524 109.83865769271506,44.880187018730794 107.19726988341426,46.29289545422944 105.63086548488354,46.78374764647742 103.99279552564258,46.903467370364524 102.25234619394178,46.61613982021663 101.55616646131966,46.664027795923175 100.68594179546926,47.43023265091324 100.46070717606926,49.23797667164763 99.06834771070862,49.46543910569744 99.1297753341496,49.33375038380473 98.7100199071574,49.09431595139904 98.41311972698895,48.447840453503886 97.85003317851806,48.19643231808732 97.14361550856847,48.36403780375986 96.68290833255742,49.02248552290985 95.94577685091645,49.14220287841454 95.33150061621564,49.15417460700701 95.03460043604719,48.962626797634584 92.73106455587549,49.01051378037664 92.51606787380297,48.48375585582835 92.3932126268046,48.48375585582835 89.26040382974315,49.118259417431545 87.20257844350999,48.72319158002938 84.60214238316985,47.78938939078944 84.57142857142026,47.58586737814039 85.0628495591809,47.49009218667925" stroke="#4dd2ff" stroke-linecap="round" stroke-linejoin="round" stroke-width="0.5"><title>2023-05-14 6.3km</title></polyline><polyline fill="none" points="121.43165001348825,53.71809102273255 121.80496894411044,51.41276362625649 121.0,51.11265880387509 121.45498244662303,51.01717075939814 121.58331082900986,50.78527092846343 121.81663516064873,48.60266385416617 121.66497434506891,48.46624968560354 122.07329192548059,48.479891108960146 122.29495004046476,44.005426865202026 122.46994328923756,43.63709514873335 125.17650553601561,43.82808209602081 128.08139346470125,44.87850525001704 128.3380502294749,44.81029621406924 128.62970564409625,44.25098075837013 130.88128544425126,44.755728959309636 132.15290305152303,44.8375798327761 140.5992438563262,44.67387803392194 143.14247907098616,45.24683342073695 144.16910613013897,44.87850525001704 144.60075614362722,42.30017859759391 144.88074534159387,41.98641045995464 147.1089927086141,42.15011567050533 149.15058061032323,42.05462098964199 151.85714285710128,41.113312493864214 151.61215230892412,40.56762326297758 150.0605455036275,41.20880787183705 148.81226032943232,41.46800925556454 147.2606535241939,41.522577901545446 144.74075074261054,41.20880787183705 143.67912503372645,42.05462098964199 143.45746691868408,42.69579820461513 143.6091277342639,43.21419447315566 143.39913583581802,44.100920101467636 142.29084526060615,44.373757529625436 141.10089116927702,44.04635254656023 140.68090737238526,43.705304805218475 139.66594652982894,43.705304805218475 139.1992978666094,43.991784968515276 138.11433972447412,44.08727821489447 137.07604644878302,43.89629165145743 135.30278152850224,43.97814307041699 133.38952200923814,43.78715634539549 132.07123953546397,43.97814307041699 131.28960302454652,43.773514425658504 130.23964353225892,43.97814307041699 128.61803942749975,43.63709514873335 128.10472589789424,43.173268527694745 128.06972724810475,42.53209368682292 127.59141236834694,42.50480958035041 128.22138806374278,42.641230055101914" stroke="#4dd2ff" stroke-linecap="round" stroke-linejoin="round" stroke-width="0.5"><title>2023-05-12 6.0km</title></polyline><polyline fill="none" points="165.48989266122226,62.40643830474437 165.80431540694553,62.39374673635757 164.9694688063464,61.9368493759539 165.207996406476,62.000307447124214 165.37062886118656,61.77185823319451 165.2947337156511,62.3556720230481 165.48989266122226,62.22875622437277 166.2271597890067,62.57142857142753 166.85600528039504,62.546045468290686 167.0403220623266,61.65763346244057 166.95358475315152,60.210776916268514 167.3872712989105,59.60156891919178 167.35474480799166,59.28427185734472 170.01107490068534,57.27893493792362 170.81339501030743,56.49202138320106 171.75666324730264,55.17202571852249 172.46140388411004,53.07777190674824 172.69993148435606,48.571828644533525 172.91677475714823,48.34335375500086 172.90593259350862,47.28982500077109 173.37214563024463,45.79202113972133 174.77078474027803,43.443731521947484 177.21027156012133,41.146171056010644 178.16438196075615,39.648290159821045 179.22691399784526,34.74831125217315 180.74481690797256,31.714285714282596 179.2702826524037,34.583282556595805 178.41375172458356,38.68354336631455 177.94753868784755,40.029109117509506 176.97174395993352,41.41274111108214 175.33457724977052,42.809050728006696 174.33709819451906,44.002247831216664 173.4588829393615,45.5000741324111 173.0035120663233,47.02326806014753 172.8842482662876,47.68331273091462 173.01435422996292,48.40681904594385 174.30457170360023,48.330660692787205 175.84415894100675,48.495670396543574 176.65732121426845,48.31796762923477 177.73069541499717,48.50836344125128 178.52217336097965,48.40681904594385 178.85828043392394,48.584521681092156 178.99922856129706,49.168399907139246 178.84743827028433,49.752275279672176 176.67900554154767,51.77043122082978 176.27784548676573,52.46852754170686 176.11521303205518,53.49662560568686 176.4838465959183,54.98164052514039 172.69993148435606,59.96963245545339 171.06276477413485,61.79724150076072 170.80255284666782,61.79724150076072 167.4089556261897,59.53810957419046 166.97526908043073,60.29961948967684 167.12705937144347,61.53071692248341" stroke="#4dd2ff" stroke-linecap="round" stroke-linejoin="round" stroke-width="0.5"><title>2023-05-09 7.6km</title></polyline><polyline fill="none" points="25.936593975115102,96.85714285714494 26.16952755243983,94.60042767492996 25.786850961332675,93.37478627621022 23.64053442835575,92.69387085923518 19.58083493972663,92.14913671072281 19.481006263755262,91.19584806906641 19.76385417894926,88.9974288972735 21.44430355745135,89.03633919951972 20.911883952387143,88.91960826805735 20.745502825884614,87.44101005712582 20.34618812199915,87.81066072425165 19.747216066345572,87.40209941736248 19.797130404331256,75.63125297796796 20.013425868877675,75.06701166409766 19.481006263755262,75.33940423866443 18.78220553213032,74.95027186568768 19.91359719290631,72.90731339773629 19.980149643553887,71.52587147570739 20.629036037193146,71.19510215159971 20.911883952387143,74.83353199320845 20.39610245998483,76.40951401849452 20.529207361279987,77.92711357426015 20.728864713164512,78.25787078952999 21.993361275235657,78.12167671410134 22.858543133421335,77.40179206839821 22.376037866284605,74.54168198785919 23.158029161277227,73.3742773343256 23.091476710571442,72.81002909503877 22.525780880241655,72.92677025213197 21.37775110686198,72.36252063969732 21.760427698027343,71.77881232205254 22.492504654976074,71.79826929586125 23.474153301795013,72.28469297106494 23.840191780298483,72.07066671253415 23.97329668153543,72.30414989127894 25.088050229591317,69.52178939332953 24.971583441074472,67.84846140749869 24.505716286599636,66.46698147832649 24.123039695434272,66.0 23.257857837248594,66.44752394038369 22.891819358745124,67.20636639338045 23.39096273848554,66.62264170749404 23.24121972452849,67.40094087684702 23.573981977708172,67.90683357030503 23.956658568873536,68.00412046714337 24.505716286599636,67.47877061259351 24.838478539779317,67.57605773597606 25.071412116929423,68.52946882069227 24.971583441074472,70.0471334108006 23.840191780298483,72.26523604877002 20.861969614459667,74.96972850387101 20.429378685366828,76.35114455473376 20.67895037517883,78.3162396481057 21.27792243094882,78.70536489863298 23.37432462576544,78.51080237628776 24.538992511923425,78.70536489863298 25.50400304608047,79.38633210583066 26.801775833417196,79.36687593489478 28.631968225818127,80.35913802785217 30.42888439289527,80.61206672461412 33.44038278399967,80.35913802785217 33.939526163740084,80.88445108606538 35.43695630301954,80.94281911094731 35.50350875360891,82.55766045552446 35.17074650054565,83.88065243593883 34.83798424730776,83.80282964171784 34.52186010684818,84.48377797468856 34.77143179666018,85.67056761459389 34.1724597409484,88.68614618289575" stroke="#4dd2ff" stroke-linecap="round" stroke-linejoin="round" stroke-width="0.5"><title>2023-05-06 6.0km</title></polyline><polyline fill="none" points="56.19181946350727,96.84438306329685 55.84300485276617,96.64022617753653 56.235421289806254,96.30847049828299 57.08565690345131,96.85714285714494 57.4344715141342,96.81886347156251 57.58707790635526,95.93843423685757 57.45627242728369,94.63691833263874 57.90319114731392,93.88407426531194 57.84868886444019,93.64163195125002 60.5084002710646,91.63827410540398 62.16526967199752,89.64764341087721 62.982803915801924,87.3634816531412 63.2335144172539,82.74398267272773 63.462424005556386,82.47599523550161 63.397021266049705,81.83792750219436 63.81123861629749,80.28102800689521 64.94488610111875,78.2008766936051 67.76810435659718,75.36772922270757 68.84724955848651,73.5299762056602 69.78468882478774,69.01204714726919 71.29985229007434,66.00000000000728 69.7519874550635,69.08862363218941 68.90175184141845,73.27473050675326 68.49843494780362,74.25742347110645 67.517393855087,75.6484945682605 64.9557865576935,78.13706780158827 63.86574089922942,80.1023661181971 63.397021266049705,81.82516611296887 63.53872720163781,82.27181392964121 63.22261396073736,82.87159552786761 63.05910711194156,86.98065699718427 62.27427423780318,89.48175603072013 61.7183509520255,90.36223258354585 60.71550894615939,91.44686874116451 57.914091603888664,93.62887181591941 57.53257562342333,93.48851023768657" stroke="#4dd2ff" stroke-linecap="round" stroke-linejoin="round" stroke-width="0.5"><title>2023-05-04 6.1km</title></polyline><polyline fill="none" points="85.50894866575254,87.24150390348223 85.8214553638245,83.76332909309713 85.91404994105687,83.5197179759707 86.1686850283877,83.49265004540212 85.92562426318182,83.38437826601148 85.86775265244069,82.85655202933413 86.18025935051264,78.80981187299767 86.44646876002662,78.64739822525007 87.41871182079194,78.83688079426065 88.90022505621891,78.80981187299767 90.9025827885489,79.54067073651822 91.7706569498987,79.66248014118173 92.06001500377897,78.01127611959237 91.86325152713107,77.53756611396966 90.99517736572307,77.56463530438486 90.56692744611064,77.10445828811498 89.28217768727336,77.17213148256997 88.7960561569198,76.95557713432936 88.19419140502578,77.18566611714778 87.4071374987252,77.18566611714778 85.93719858536497,76.4277243748802 85.24273925623856,76.56307144388848 84.57142857142026,76.27884243354492 84.5830028935452,76.84729982275167 85.31218518916285,76.96911179182644 85.43950273282826,76.45479380014876 85.9950701961061,76.49539792726864 87.26824563287664,77.18566611714778 88.2983603043831,77.37515085110499 88.98124531132635,77.19920075028494 89.38634658657247,77.61877366807312 92.47669060120825,78.71507060354634 93.92348087020218,79.02636308263754 94.34015646768967,79.08050082776754 94.95359554176684,78.79627741023432 95.83324402529979,79.02636308263754 96.93280462973053,78.79627741023432 97.47679777082521,78.91808752360521 97.93977065692889,78.72860507488076 98.46061515377369,78.9586908689962 100.91437145002419,78.87748416537943 101.70142535632476,79.12110412161564 102.88200621586293,79.02636308263754 103.3218304576003,78.71507060354634 104.37509377341485,78.71507060354634 104.73389776010299,79.03989752108464 106.06494480761467,79.35118920984678 107.09505947917933,79.148172976973 107.26867431146093,78.14662151335506 107.11820812348742,77.76765405006881 107.338120244327,77.13152757017815 108.36823491589166,76.2382382376527 112.15303825959563,76.52246733823267 113.76186903874623,76.21116876656015 115.17393634124892,75.61563895364816 115.42857142857974,76.11642557266168 114.29428785771597,76.65781430700736 112.30350444756914,77.14506220906333 110.69467366847675,77.22627001233923 108.51870110386517,77.0232504075102 108.206194405735,77.42928929495974 108.10202550637769,78.79627741023432 107.80109313037246,79.87902990764997 106.6668095595669,80.27152542503609 104.24777622974943,79.68954888204462 95.62490622658515,79.865495557955 93.62254849425517,79.567739503138" stroke="#4dd2ff" stroke-linecap="round" stroke-linejoin="round" stroke-width="0.5"><title>2023-04-26 7.0km</title></polyline><polyline fill="none" points="121.0,84.72183218687132 121.43217286915751,83.8290459986165 121.23049219680252,83.20577720225265 121.27370948373573,81.06643061437353 121.43217286915751,80.57791437052947 121.76350540207932,80.40946014584915 125.76830732292728,80.78005920494616 128.10204081633128,81.75708895364369 128.77911164460238,81.68970778414223 129.9315726289642,82.02661334660661 130.47899159661029,82.41405386234692 130.98319327726495,82.2961372834543 131.86194477783283,82.59935116706765 134.13805522205075,82.44774429741665 135.16086434572935,83.08786120961304 135.93877551017795,82.7846482561581 136.87515005999012,83.08786120961304 137.69627851137193,82.91940964006062 138.35894357739016,82.48143472534139 138.93517406960018,82.98679028925835 140.47659063630272,82.75095789236366 141.15366146457382,82.90256447333377 143.1560624249978,82.02661334660661 144.00600240100175,82.11083962590783 145.47539015609073,82.7004223332915 145.9219687875011,82.1445301250933 146.9447779111215,82.2961372834543 148.31332533009117,81.79077952772786 148.61584633850725,80.96535841104924 148.8319327730569,78.792290521611 149.10564225690905,78.35430425521918 149.78271308523836,78.13531067025906 150.79111644654768,78.4385324769828 151.8571428571595,78.4385324769828 149.59543817525264,78.1521563413553 149.09123649459798,78.32061295409221 148.7887154861819,78.7080624870141 148.31332533009117,81.82447009466705 146.82953181274934,82.32982774349512 143.5450180072221,81.55494535954494 132.13565426168498,81.75708895364369 130.47899159661029,81.48756410447822 124.60144057619618,79.71879596143845 122.02280912362039,79.80302346138342 124.51500600238796,79.95463284905418 124.6878751500044,79.78617796498293 125.12004801916191,79.97147832762857" stroke="#4dd2ff" stroke-linecap="round" stroke-linejoin="round" stroke-width="0.5"><title>2023-04-20 5.0km</title></polyline><polyline fill="none" points="164.4917100914754,95.84838700481487 164.64935015613446,96.7218224603057 164.50221942912322,96.36506792900764 164.6073128055432,96.54959627202334 165.76333994651213,96.85714285714494 166.52001225703862,96.47578497011273 166.90885774989147,95.55313972769363 167.02446046395926,95.50393177500519 167.23464721691562,95.83608504994481 167.6970580733032,95.79917917754938 168.0018288650317,95.2086836199378 167.8757168132579,93.60940970179217 168.31710899434984,92.85897355963971 168.20150628022384,92.67443933730101 171.40685426210985,90.11553448320774 172.46829736424843,88.70073108765791 173.20395099942107,86.36319195954275 173.38260973937577,82.53690767056105 173.4666844405583,82.05707531785447 173.66636185580865,81.93404106098751 173.54024980409304,81.4542062102555 173.86603927105898,80.08851152154239 175.07461310032522,77.82462178241258 175.96790680015692,76.76648422556173 177.5653261222178,75.33921359790838 178.5111665102886,73.99805533648032 178.88950266555184,73.08753536941367 179.84585239127045,68.54713297286071 181.22257562278537,66.0 179.7617776900297,69.00241170645313 178.96306802902836,72.87836085201707 178.55320386087988,74.01035961133312 177.27106466813711,75.72064109174244 175.2427625025739,77.57854414371104 173.98164198518498,79.85474234771391 173.61381516756956,81.3680817958084 173.67687119345646,82.05707531785447 173.44566576526267,82.3646603880843 173.20395099942107,86.80609773285687 172.49982537719188,88.76224463812105 170.89189671748318,90.73066100381402 168.32761833199766,92.68674162792013 168.36965568258893,92.89588036884379 168.0648848908604,93.40027224921505" stroke="#4dd2ff" stroke-linecap="round" stroke-linejoin="round" stroke-width="0.5"><title>2023-04-17 6.5km</title></polyline><polyline fill="none" points="11.892719462455716,122.62047323671868 11.714285714260768,122.46747400706226 11.714285714260768,122.05020247599168 12.475603039958514,112.53605232808331 12.677827954583336,111.88227696924878 13.581892278802115,112.13265940562997 14.093402357015293,111.97964797337772 15.294856261694804,112.07701890541648 17.650181738019455,112.88380385421624 18.030840400897432,112.77252346590103 19.624848551524337,113.37065444565087 19.731908800487872,113.74622367029951 20.279105628316756,113.89923304689 21.040422954014502,113.60712408255495 22.72959577041911,113.85750323458342 23.110254433297087,113.66276393529552 23.78830267646117,114.09397199595696 24.63288908469258,113.96878270470188 25.88192532217363,114.17743145728309 26.631347064627334,113.81577340900549 26.595660315011628,113.55148420624027 26.85736314568203,113.5375742334727 27.071483643492684,114.05224224543781 27.76142746990081,114.10788190986204 28.415684546693228,113.91314298138604 29.081837206729688,114.08006208059669 29.914528031658847,113.63494401185017 29.962110364460386,114.03833232565376 30.164335279143415,114.17743145728309 30.711532107030507,114.05224224543781 31.080295186664443,113.37065444565087 32.721885670151096,113.96878270470188 32.70999008696526,113.565394177509 33.709219076961745,113.60712408255495 34.815508315805346,113.17591442537378 35.2556448947289,110.50516504656116 35.5768256415613,110.19913821617956 36.005066637240816,110.06003487597627 37.706135036831256,110.4217032543529 38.07489811646519,110.26868983106397 39.657010683906265,110.36606203013798 40.64434409071691,110.15740722954797 42.571428571420256,109.33669513469795 42.297830157447606,108.80809819184651 40.715717589948326,109.42015761561925 38.955171274312306,109.71227588166948 35.338913977262564,109.37842638177972 34.24452032154659,110.32433109650447 34.05419099016581,111.01984492781048 34.24452032154659,111.43715146064642 33.98281749087619,112.39695146014856 32.721885670151096,112.61951277824119 32.09141975984676,112.4943220831774 31.30631126771914,111.96573783436907 30.116752946341876,111.93791755186976 29.640929617744405,112.24394033545104 28.594118294946384,112.35522117104847 27.737636303529143,112.1465695270308 25.001652164326515,112.1743897653214 24.799427249643486,111.63189405610319 24.918383081792854,111.54843297909247 26.393435400386807,111.4788820411195 27.083379226736724,112.02137838167255 26.976318977831397,112.13265940562997 24.406873003579676,112.1465695270308 24.442559753195383,111.77099573338637 24.24033483857056,111.64580423042935 20.76682454010006,112.27176055315067 18.815948893025052,111.88227696924878 15.437603260274045,110.57471649961371 14.985571098106448,110.58862678580044 14.819032933097333,110.40779295050015 15.31864742806647,110.17131755988521 15.842053089523688,110.4217032543529 17.150567243050318,110.3521517203917 17.507434739440214,110.76946037236485 17.792928736598697,110.76946037236485" stroke="#4dd2ff" stroke-linecap="round" stroke-linejoin="round" stroke-width="0.5"><title>2023-04-07 7.0km</title></polyline><polyline fill="none" points="48.14285714284051,119.30415588483447 48.25185019063065,116.6135685241461 48.54249831807101,115.23993201997655 51.2794348509633,115.50899595048395 54.08903341565747,116.30202333640773 54.33124018838862,115.77805934012576 57.40726620319765,116.45779602091352 66.72011661808938,116.30202333640773 69.94146669656038,116.95343517471338 71.05561785149621,116.6135685241461 71.49159004259855,113.993734130956 71.84278986317804,113.55472983849177 74.01054047991056,113.78131287888391 74.43440233235015,113.6255370798608 75.97241533972556,113.72466715476185 79.0,112.67671693429293 78.81834492034977,112.12441554374527 75.63332585780881,113.07323960417125 74.21641623676987,113.10156260708754 71.63691410631873,112.7333631018846 70.54698362859199,113.72466715476185 70.26844583987258,115.83470419535297 69.13007400761126,116.0471221889893 68.30657098005759,115.90551023067383 67.32563355012098,115.32489963542321 66.247813411057,115.35322216189525 65.83606189728016,115.65060832822928 64.79457277414622,115.721414460917 64.11639381031273,115.721414460917 63.78941466694232,115.50899595048395 61.25835389102576,115.59396339512023 61.00403677957365,115.4806734569429 60.761830006784294,114.94254494132474 56.850190625700634,115.6647695577849 54.7793227180955,115.29657710292668 51.09777977131307,113.93708849667746 48.42139493167633,114.07870253738656 48.34873289981624,113.10156260708754 49.54765642527491,113.7529900198133 51.38842789869523,113.85212000038882" stroke="#4dd2ff" stroke-linecap="round" stroke-linejoin="round" stroke-width="0.5"><title>2023-04-04 6.0km</title></polyline><polyline fill="none" points="88.1669446611777,128.1567041336093 107.91708019096404,129.35116590571124 114.55721196345985,109.64244974881876 98.21227221470326,102.07743318739813 86.46434677112848,115.41573140711989 85.95356740429997,126.96224160399288 92.76395896542817,130.54562691960018 110.47097702603787,127.36039586504921 113.70591301843524,111.8323172897799 100.4256494725123,101.48019374255091 85.95356740429997,117.40651408000849 86.97512613795698,129.35116590571124 110.13045744784176,128.95301206584554 114.04643259570003,110.4387655131286 100.76616905070841,101.08203400822822 92.76395896542817,107.05442118854262 85.95356740429997,116.80927949922625 85.78330761473626,127.95762709807605 105.02266377676278,131.1428571428405 110.9817563937977,128.55485814227723 113.87617280613631,110.4387655131286 100.25538968294859,101.08203400822822 86.46434677112848,116.2120447284542 85.78330761473626,128.35578114853706 102.29850715212524,130.34655013645533 109.78993787057698,128.1567041336093 114.04643259570003,109.44337075483054 99.23383094929159,100.68387418903876 86.29408698156476,116.41112300672103 86.46434677112848,128.75393511459697 96.85019390285015,130.34655013645533 110.9817563937977,127.75855004112236 114.04643259570003,110.23968660342507 99.23383094929159,100.28571428568102 86.12382719386369,116.41112300672103 86.63460655976087,128.95301206584554 106.89552145637572,129.94839650776703 110.64123681560159,127.95762709807605 113.87617280613631,109.2442917402368 100.08512989524752,100.68387418903876 86.80486634932458,115.41573140711989 85.44278803654015,127.95762709807605 109.78993787057698,128.75393511459697 113.19513365067542,109.84152872127015 100.4256494725123,101.08203400822822 92.08291980903596,107.05442118854262 86.46434677112848,116.41112300672103 86.29408698156476,128.95301206584554 104.68214419856668,130.34655013645533 110.13045744784176,127.95762709807605 113.36539343930781,109.2442917402368 99.74461031612009,100.88295410876162 89.0182436062023,111.23508094064891 85.44278803654015,128.1567041336093 91.23162086401135,130.54562691960018 109.96019765920937,128.95301206584554 113.87617280613631,110.83692326839082 101.10668862890452,101.08203400822822 92.76395896542817,107.2535004352685 85.95356740429997,117.20743590709753 85.44278803654015,128.1567041336093 89.35876318532974,130.14747333258856" stroke="#4dd2ff" stroke-linecap="round" stroke-linejoin="round" stroke-width="0.5"><title>2023-03-30 5.2km</title></polyline><polyline fill="none" points="151.5556072591571,127.79510091067641 151.85714285710128,125.29347665500245 149.8899820514489,124.63868258835282 146.25719603797188,124.13499300679541 146.0418134680367,123.93351672666904 146.2284783620271,121.34788176615257 147.14744399383198,121.14640194848471 147.85102705575991,114.4302616759669 147.53513261978514,114.27914525072265 147.23359702184098,114.5310058795003 146.24283719999949,114.46384308424604 146.48693744593766,114.41347096917161 146.25719603797188,114.19519161897188 142.83979259448824,115.05151657923125 141.4469853087212,115.01793529528368 140.6141727048671,114.26235452792025 139.5372598550748,112.19708207710937 137.6706109154038,110.6355167718284 137.15369274740806,110.51797897652432 136.8952336634975,110.08140926044143 134.1096190919052,109.49371736156172 131.79784617427504,108.40228377538733 131.2522103303345,107.07576208046521 131.1229807882919,105.63168788270559 130.3619623744744,104.64097821660107 129.15581998269772,104.43947718861455 125.5230339692207,105.11114628691575 124.83380974532338,104.9432292788697 123.32613175560255,103.7845970805065 122.60818985570222,103.63347051790333 121.0,103.81818074152397 122.90972545364639,103.68384605478786 124.57535066141281,104.7585203647759 125.5230339692207,105.09435459409724 129.09838463069173,104.47306071105413 130.3045270225266,104.6577699574118 131.0799042743747,105.66527115281497 131.2378514923621,107.12613652463187 131.79784617427504,108.41907511815953 133.83680116996402,109.44334366897237 136.7803629594273,110.01424458215479 137.19676926138345,110.56835232806043 137.6706109154038,110.6523078783066 138.94854749710066,111.60939801267523 139.76700126304058,112.58327327745792" stroke="#4dd2ff" stroke-linecap="round" stroke-linejoin="round" stroke-width="0.5"><title>2023-03-28 5.0km</title></polyline><polyline fill="none" points="160.52728731941897,118.76764737243502 160.80898876400897,115.98038490079489 160.64646869979333,115.51161165843223 160.37560192612,115.34690711063013 159.1404494381859,115.66364642455301 159.05377207061974,115.42292462239129 157.42857142857974,115.04283658116037 157.5152487961459,114.65007767127827 159.28130016051,115.10618467179302 163.39847512036795,115.11885428590176 167.2339486355777,116.28445304992056 169.33587479934795,116.63919824816548 177.6243980738218,116.4871647204418 180.28972712683026,117.03195063491148 181.21067415724974,116.66453715068928 181.64406099519692,114.37134476029314 181.95826645259513,113.9785836481824 184.00601926160743,114.21930835355306 184.14686998393154,114.04193230178498 185.86958266451256,114.10528092186723 188.28571428573923,113.23106700517383 188.1556982343318,112.66092405614472 186.4221508827759,113.33242546751717 185.10032102721743,113.54781191510847 183.68097913323436,113.52247235317918 182.0341091492446,113.21839719136915 181.62239165324718,113.33242546751717 180.7664526484441,114.04193230178498 180.54975922952872,114.63740800756204 180.60393258422846,115.2455503532401 180.11637239163974,115.27088955062936 179.76966292131692,115.66364642455301 179.75882825040026,116.0310629792657 179.4229534509941,116.19576658617734 178.6428571428405,115.91703727254207 178.35032102727564,115.20754154712631 177.78691813803744,114.94147956644156 177.00682182982564,115.10618467179302 176.49759229528718,115.81568099768629 175.61998394865077,115.95504585353046 175.05658105935436,115.95504585353046 174.75321027287282,115.75233328234754 172.2829052969464,115.79034191557002 172.05537720705615,115.20754154712631 169.7367576243705,115.57495950110024" stroke="#4dd2ff" stroke-linecap="round" stroke-linejoin="round" stroke-width="0.5"><title>2023-03-26 5.6km</title></polyline><polyline fill="none" points="42.571428571420256,161.23945631926472 41.693280632433016,161.25371839417494 39.436928289127536,160.51208849815885 39.132015810289886,160.74028274689044 37.973348390718456,160.71175848689745 35.387690570321865,161.15388383812387 34.20463015243877,161.15388383812387 33.54601919819834,160.6689720856084 32.64347826089943,158.7435699738271 31.021343873580918,157.43142833419552 30.582269903970882,157.3173284575605 30.36273291928228,156.9179781289422 28.04539808013942,156.47583888507506 26.05736871820409,155.49171729736554 25.56950875208713,154.37922337271448 25.459740259684622,153.18114272395906 24.886504799535032,152.33962733024964 23.715640880865976,152.1399449401797 20.739695087482687,152.68193931072892 20.05669113493059,152.55357241991442 17.77594579331344,150.85626536914788 17.92230378318345,150.18589451164007 17.04415584419621,148.24607920488052 16.800225861021318,148.1034446245758 16.78802936192369,147.51864126701548 16.3977413889952,147.06220761510485 16.312365894962568,146.50592701187998 16.12941840768326,146.24918134366453 15.458610954228789,146.02096256132063 15.056126482202671,145.37909516399668 14.934161490702536,145.12234734918457 15.385431959293783,144.89412665864802 13.007114624488167,141.27107142884051 11.714285714260768,138.7177574605157 12.860756634676363,141.04284421620832 16.007453416124918,145.9496441125666 15.909881422878243,146.17786301570595 16.751439864456188,147.43306007503998 16.739243365300354,148.17476193360926 17.068548842449673,148.34592332133616 17.93450028228108,150.27147395569773 17.727159796690103,150.7992126600293 18.141840767930262,150.97037071493105 18.458949745923746,151.44105424536974 20.032298136677127,152.51078342917026 20.605533596826717,152.63915036067192 23.703444381710142,152.1399449401797 24.84991530206753,152.39667938736966 25.423150762275327,153.08130218922452 25.50852625630796,154.23659528241842 26.045172219106462,155.49171729736554 27.752682100515813,156.39026338004624 30.350536420126446,156.93224066102994 30.679841897217557,157.40290337409533 30.96036137774354,157.40290337409533 32.64347826089943,158.7435699738271 33.55821569735417,160.52635065003415 34.2168266515946,161.16814592207083 35.15595708641922,161.25371839417494 37.42450592882233,160.69749635465269 38.046527385595255,161.05404920810543 38.40022586111445,160.74028274689044 39.11981931113405,160.71175848689745 39.30276679841336,160.4693020335253 41.44935064937454,161.2822425394843 42.22992659517331,161.21093216494774" stroke="#4dd2ff" stroke-linecap="round" stroke-linejoin="round" stroke-width="0.5"><title>2023-03-18 7.0km</title></polyline><polyline fill="none" points="48.14285714284051,151.11669855644868 50.15595277916873,151.0563388151495 54.03761410881998,152.19109660937102 55.689384887344204,152.48082019532012 63.76241456763819,152.37217393677565 66.29168857232435,152.95161945367 67.26210390473716,152.50496379427204 67.61310519516701,150.41652359458385 67.89184151409427,150.04229038765334 71.06117669545347,150.15093886449176 72.54777039616602,149.86120936306543 74.0446876642527,149.2696760133622 73.88983415375696,148.73850059646793 75.86163552070502,147.615780783206 78.8554700568202,147.04838054632273 78.99999999994179,147.14495950932178 77.11078717198689,147.25361074492685 75.83066481858259,147.5916361497366 73.15686087077484,149.07652160240104 71.87673851737054,149.45075797670142 70.28690914297476,149.58355123384536 68.00540075515164,149.23345958622667 67.64407589728944,149.3179645650307 66.7872198058758,150.12679476746416 66.60139559325762,150.7183236739147 66.74592553643743,151.0563388151495 66.6426898627542,151.75650985120592 66.35362997656921,152.02209084452625 65.36256750940811,152.10659375822434 64.1030922906939,150.93561923676316 63.20494192990009,151.03219490967604 62.71973426366458,150.64589172766864 62.31711513642222,150.57345973542397 61.93514314386994,150.70625168604602 61.470582612382714,151.26156180524413 61.20216986088781,151.28570566218696 60.69631505990401,151.70822233146464 59.86010610329686,151.75650985120592 59.68460545805283,151.16498632646835 56.74238875875017,151.4788563336915" stroke="#4dd2ff" stroke-linecap="round" stroke-linejoin="round" stroke-width="0.5"><title>2023-03-14 5.6km</title></polyline><polyline fill="none" points="112.73864384467015,155.7854551030323 111.69585253461264,155.6468873758131 109.71691902569728,154.9956170943624 108.2949308755924,155.38360829024168 107.99868334433995,155.134185510542 105.54575378540903,155.71617125775083 104.7873601053725,155.6746009329654 104.00526662281482,155.02333078930678 102.92692560900468,152.94478739443002 101.69453587889438,151.57293068408035 100.8650427912944,151.25421444185486 98.19881500990596,150.89392558200052 96.7649769585696,150.11791544056905 96.19618169852765,148.89846164257324 96.01843317976454,147.5819930923608 95.54443712969078,147.01382889311935 94.60829493089113,146.83367875426484 91.26662277820287,147.33255545479187 89.64318630681373,146.265511308462 87.42725477286149,146.3348001533741 87.2376563528669,145.19845846782846 87.20210664911428,146.3625156810158 85.34167215274647,146.4872354830295 84.57142857142026,144.21454489698226 85.19947333773598,146.265511308462 85.5075707702199,146.54266646802716 89.20473996049259,146.23779576025845 89.71428571431898,146.3625156810158 90.8400263331132,147.18012110904965 91.50362080318155,147.346413113788 94.714944042149,146.8891095926083 95.59183673473308,147.12469039382995 96.05398288351716,147.72056935241562 96.18433179723797,148.89846164257324 96.67017774854321,150.0624859687523 98.23436471360037,150.9493547018792 100.80579328507883,151.44821572514775 101.16129032260505,151.9332176761236 101.56418696517358,152.01636068735388 103.10467412770959,153.23578545544297 104.04081632656744,155.00947394256946 104.60961158660939,155.6746009329654 106.09084924298804,155.77159833688347 106.75444371299818,155.4390355101641 108.49637919693487,155.12032867550442 109.45622119819745,155.21732648985926 109.58657011191826,155.02333078930678 111.95655036211247,155.7854551030323 115.42857142857974,155.6468873758131" stroke="#4dd2ff" stroke-linecap="round" stroke-linejoin="round" stroke-width="0.5"><title>2023-03-12 6.0km</title></polyline><polyline fill="none" points="150.52876361308154,155.53401470884273 146.82037155667786,154.61171010680846 146.66816143499454,154.8544223834033 145.79641255608294,154.5631676052726 145.2429212043644,155.09713427482347 145.13222293404397,154.80587995891983 142.0603459321428,155.4369302757841 141.06406149902614,155.32366502602235 140.3168481742614,154.54698676797852 138.78090967331082,151.8447629299917 137.67392696993193,150.7120800549892 136.41473414481152,150.2590045560646 133.43971812946256,149.85447172645945 131.77924407430692,148.89977000589715 131.25342729024123,147.58906810558983 131.17040358745726,146.18126466295507 130.57540038437583,145.3883581682021 129.2055092889932,145.1456308683555 125.64932735433104,145.72817574080545 125.17885970539646,145.6472668634524 124.76374119153479,145.1456308683555 123.55989750166191,144.46599237906048 123.02024343371158,144.36890091974055 121.0,144.5469018813892 123.42152466368861,144.43362856611202 125.13734785397537,145.55017615409452 129.28853299171897,145.0970853621693 130.47853939782362,145.35599455051124 131.15656630363083,146.32690010285296 131.25342729024123,147.50816021273204 131.75156950671226,148.77031846628233 133.56425368355121,149.77356503205374 136.60845611791592,150.3884548356 136.96822549647186,150.85771118025878 137.45253042929107,150.9224360803346 139.29288917360827,152.4434633465571 140.35836002562428,154.5631676052726 141.16092248557834,155.2913035106758 142.2955797566101,155.40456878440455 143.56860986555694,154.9838687734009 143.79000640613958,155.25894198844617 144.67559256887762,154.8220607687399 146.75118513777852,154.6440717659425 149.53247917996487,155.6310990802449 151.8571428571595,155.4531110188982" stroke="#4dd2ff" stroke-linecap="round" stroke-linejoin="round" stroke-width="0.5"><title>2023-03-05 5.0km</title></polyline><polyline fill="none" points="185.7615072740009,149.88970471805078 185.9332220366923,150.4518116904219 187.70188409253024,150.1105326556717 188.09682804677868,151.3150441586622 188.0281421416439,151.9172970454092 183.44335797760868,153.18202189142175 180.4726925829309,154.56718705962703 177.60505604575155,156.53450573292503 175.59599332220387,153.38277109245246 174.32530407828745,152.31879790889798 162.37395659432514,149.6287259154342 162.236584784172,149.28744540154003 162.9062723587267,147.42042938283703 162.71738611976616,147.03899374468892 162.9406153113232,146.05528777375002 157.42857142857974,143.28482316560985 162.92344383499585,145.99506071208452 161.65275459102122,149.58857529856323 161.1891247316962,151.93737210879044 161.91032673511654,150.19083366019186 162.37395659432514,149.90977999576717 172.60815645125695,151.95744716997433 175.0636775578605,153.08164721127832 177.22728356788866,156.7151768343756 181.72621035057819,153.9649425756652 183.700930121704,153.1217970896978 188.28571428568102,151.85707184264902 187.70188409253024,149.22721936486778" stroke="#4dd2ff" stroke-linecap="round" stroke-linejoin="round" stroke-width="0.5"><title>2023-02-22 5.0km</title></polyline><polyline fill="none" points="11.714285714260768,187.861424745759 11.908051132515538,184.40613243877306 12.174478582572192,183.92465020157397 14.93563579278998,184.06626280404453 18.096434178063646,185.24164162280795 19.174254317069426,185.31244724612043 19.65866786276456,185.63815263124707 20.09464005380869,185.4965416916384 22.165507961413823,185.80808556108968 22.686252522980794,185.7231191231258 23.449203857337125,186.0629845513322 24.12738282122882,185.9496961711411 25.5806234581396,186.13378974028456 26.54945054941345,185.58150827336067 26.585781565343495,185.8647298230644 26.973312401853036,186.03466246530297 27.554608656617347,186.07714559212036 28.063242879521567,185.87889088483644 29.056290648062713,186.04882350905973 29.770800627884455,185.36909171784646 30.182552141719498,185.29828612445272 32.28975106519647,185.7797634210583 32.447185467521194,185.9638572239055 32.531957838044036,185.45405838050647 33.51289526792243,185.51070279236592 34.60282574564917,185.18499709712341 34.96613590483321,183.7971987312776 35.05090827535605,182.53683876924333 35.535321820992976,182.06951127313368 36.64947297598701,182.29609450529097 39.84660237713251,182.2819330645143 42.57142857136205,181.21982073657273 42.26867010531714,180.7100038256758 40.93653285485925,181.23398228969018 39.15631307463627,181.61634365814098 37.99372056510765,181.64466667904344 35.281004709540866,181.29062848730246 34.10630186134949,182.21112583816284 33.87620542716468,182.91919641617278 33.97308813629206,183.47148886692594 33.149585108680185,183.75471488088078 32.94370935187908,184.40613243877306 32.55617851531133,184.5760669325682 31.841668535547797,184.46277729400026 31.006055169273168,183.9388114685862 29.867683337070048,183.92465020157397 29.395380130095873,184.22203649376752 27.83314644539496,184.3211651110032 27.50616730202455,184.09458530659322 23.836734693904873,184.13706904913124 23.146445391292218,184.03794029555866 22.807355909375474,183.72639230644563 20.361067503865343,184.2503589632979 18.42341332131764,183.88216639163147 14.814532406337094,182.5510001830553 12.973760932916775,182.2819330645143 16.46153846150264,182.2536101785081" stroke="#4dd2ff" stroke-linecap="round" stroke-linejoin="round" stroke-width="0.5"><title>2023-02-10 5.9km</title></polyline><polyline fill="none" points="55.25755226099864,190.29433135864383 55.29774827865185,186.0484578081523 56.69121022266336,186.06412546198408 59.009180571942125,186.6594950788567 60.28205446305219,186.28347244138422 60.80460269213654,184.70103337953333 60.898393399838824,183.3065928654978 61.30035357607994,182.86788976403477 63.6183239253005,183.19691721198615 64.06048011907842,182.9775656612328 66.24446374288527,183.00890161695133 68.46864338440355,182.3038410097506 72.3676570932148,180.34532171070168 76.82941504870541,179.73425838814 79.0,178.91950336910668 78.87941194715677,179.0135137923935 78.66503318649484,178.63747174119635 78.70522920414805,178.27709721279098 77.98170088703046,178.68447704984283 76.11928540415829,179.15452931540494 75.31536505179247,179.1858660800499 75.12778363627149,178.95084018350462 72.635630543984,179.40522324695485 70.98759382171556,180.01628792726842 68.26766329625389,181.56744079178316 66.27126108802622,182.19416461361106 63.83270268590422,182.36651319960947 61.889895167725626,182.0061477455747 60.92519074503798,182.03748390676628 59.826499596762005,182.9775656612328 59.571924818563275,183.69829096515605 59.6523168538115,184.41901276168937 59.06277526210761,184.41901276168937 58.63401774078375,184.82637570399675 58.54022703302326,185.43741801657598 58.098070839303546,185.64109822720638 57.2137584516895,185.31207620927307 56.89219031075481,184.46601623531024 56.07487128593493,184.04298443584412 55.15036288072588,184.30933793196164 54.641213324212,185.1083955461363 53.542522176052444,185.31207620927307 52.72520315111615,185.3277439409576 52.443831027892884,185.09272779119783 48.34383723093197,185.06139227637323 48.14285714284051,184.88904682641441 48.43762793869246,184.5443553248042 50.635010235069785,184.38767710432876 50.88958501332672,185.1867342958285 51.974877488974016,185.1083955461363 52.87258854910033,184.52868751023198 53.70330624654889,184.59135875864013 54.09186775010312,184.12132374911744 54.54742261650972,184.10565588981262 55.28434960608138,184.90471460290428 56.27585137390997,184.8577112685016 56.86539296567207,185.3434116710123 58.08467216673307,185.67243361938745 59.43793809314957,185.4844211669406 59.786303579167,184.34067360585323 59.826499596762005,185.3747471261595 59.35754605795955,185.75077207076538 57.64251597301336,185.51575659225637 57.227157124259975,185.3277439409576 56.758203585399315,184.35634144034702 54.18565845786361,183.60428351568407 53.542522176052444,183.7609625649202 51.948080143891275,185.06139227637323 51.14415979158366,185.0457245165162 50.72880094288848,184.43468058788858 51.10396377398865,184.19966302099056 51.760498728370294,184.19966302099056 52.30984430242097,184.68536558153573 53.6497115563252,184.59135875864013 54.25265182054136,184.16832731722388 54.815396067278925,184.62269437291252 55.31114695116412,184.2936700925202 56.18206066620769,184.12132374911744" stroke="#4dd2ff" stroke-linecap="round" stroke-linejoin="round" stroke-width="0.5"><title>2023-02-05 7.1km</title></polyline><polyline fill="none" points="84.93815183121478,189.1050503487204 85.21756002906477,186.583160265458 85.41838467138587,186.51168873610004 86.86781469802372,186.74652356239676 87.38297356292605,186.6648419484918 88.745088527794,187.24682193915942 89.33009944215883,187.30808278665063 89.60950764006702,186.0930687156142 89.39995149162132,185.67444687938405 88.79747756483266,185.68465718968946 88.50933786079986,185.39876809319685 86.88527771038935,185.54171274728287 85.91608052386437,185.3783474110387 85.46204220229993,185.03119515333674 84.63254911475815,184.87803934855765 84.57142857142026,185.50087143915152 84.63254911475815,184.90867052894464 84.92942032503197,184.88824974308955 85.0865874363808,185.01077439342043 85.06912442395696,185.43960944452556 85.2350230414886,185.70507780701155 87.27819548873231,185.54171274728287 89.56585010915296,186.47084783844184 91.07640067912871,186.82820510715828 92.00194033473963,186.67505215401616 92.59568275528727,186.90988658280548 93.21561969438335,186.85883566861594 93.94033470773138,187.00177816025098 95.69536745088408,186.72610316537612 97.04001940332819,186.89967640212126 97.79966044146568,186.82820510715828 98.026679602277,186.61379090471019 98.89109871455003,186.5933704796189 99.19670143100666,186.85883566861594 99.92141644435469,187.0936696502613 100.75964103807928,187.03240866665874 101.00412321125623,186.8486254825475 100.99539170501521,185.85823229937523 101.16129032260505,185.39876809319685 101.84234780498082,184.76572493723506 104.29590104293311,184.99035362916038 105.59689546440495,184.81677695857798 106.64467620663345,184.45941224205308 109.33398011152167,183.11162483312364 112.28522920206888,182.78488565686712 114.94833858840866,181.58002538348228 115.4023769099731,180.75295157320215 115.17535774916178,179.46637822270714 115.42857142857974,180.7018974019884 115.3325248605106,181.01843282799382 115.20155226776842,181.32475644523947 114.11884550080867,181.97824357880017 113.94421537715243,182.26414280824247 113.25442638853565,182.30498548616015 112.47732233809074,182.7134113146094 111.13267038564663,182.98909777164954 110.37302934756735,182.92783418258477 109.06330341979628,183.1626777294805 106.62721319426782,184.42878091905732 105.50084889639402,184.80656655648636 103.82439970894484,184.95972247466852 101.93839437299175,184.70446247596556 101.09143827308435,185.35792672455864 100.85568760609021,185.15371962216886 101.11763279163279,185.46003011371067 100.97792869270779,185.80718082890235 101.08270676690154,186.20538158226555 100.92553965555271,186.37895575545554 100.9866601988906,186.72610316537612 100.79456706281053,186.97114764418802 99.98253698763438,187.0936696502613 99.00460829492658,186.72610316537612 98.92602473928127,186.5627398339202 98.06160562695004,186.5729500502348 97.69488236721372,186.79757453595084 96.97016735386569,186.85883566861594 96.54232355084969,186.85883566861594 96.31530438998016,186.70568276409176 94.46422507881653,186.75673375926272 93.46883337380132,186.62400111561146 92.38612660684157,186.7873643434068 91.90589376667049,186.634211325465 91.22483628429472,186.81799491785932 89.93257336894749,186.5627398339202 87.2083434392116,185.58255403814837 86.60586951248115,185.4906611094193 85.22629153524758,185.69486749888893 85.05166141159134,185.33750603376393 85.18263400439173,184.9699328605857 85.90734901768155,185.4191887710258 86.70191608049208,185.58255403814837 88.46568032982759,185.39876809319685 88.72762551542837,185.68465718968946 89.12927479989594,185.71528811405005" stroke="#4dd2ff" stroke-linecap="round" stroke-linejoin="round" stroke-width="0.5"><title>2022-12-15 10.0km</title></polyline><polyline fill="none" points="121.0,188.4225207639829 121.27248999476433,184.71980334846012 123.51818340003956,184.87362806485908 123.80946580821183,185.07140236550185 125.71689577173674,185.51089946299908 126.01757438661298,184.23635275656852 125.94240473292302,183.8408005984893 125.12493474857183,183.7858626796442 124.84304854710354,183.42327168622433 123.82825822161976,183.46722217705246 123.43361753958743,183.2804324624376 122.79467548284447,183.51117264931963 122.1275448059896,183.46722217705246 121.21611275448231,182.9398150591369 121.12215068732621,183.44524693394487 121.34765964851249,183.7968502657386 123.45240995305358,183.4782097968855 123.77188098139595,183.86277575793792 126.12093266053125,184.67585338763456 127.70889159559738,185.00547764047224 128.56394640682265,184.81869069230015 129.31564294412965,185.06041491423093 131.12911084044026,185.08238981559407 132.12510875239968,185.02745255346235 132.53854184789816,184.84066564482055 134.0325387158664,185.06041491423093 134.77483904646942,185.00547764047224 135.1224986949819,184.74177832190617 135.99634591961512,184.74177832190617 136.2218548808014,184.97251526224136 137.0017400382785,185.1373270486729 137.21785279276082,185.36806311031978 137.4433617539471,185.10436471231515 137.90377588308183,185.20325168998534 138.21385070466204,185.08238981559407 138.42056725249859,183.46722217705246 139.2568296502577,182.7310490017262 141.19244823383633,182.97277808249783 142.78980337566463,182.89586434508965 144.17104576301062,182.5332702444939 146.89594571082853,181.10485692544898 150.53227771015372,180.61040158373362 151.62223768921103,180.14890780745918 151.7537845832412,180.6433653464337 151.8571428571595,180.61040158373362 150.84235253173392,181.005966045479 147.7228119018837,181.3795533203156 144.0864799025585,183.02771643143205 142.72402992867865,183.40129643378168 141.12667478685034,183.50018503301544 139.46354619803606,183.26944482172257 139.18165999650955,183.59907353807648 139.12528275622753,184.5440033936029 138.79641552112298,185.68669778132607 138.30781277187634,185.87348316847056 137.8849834696157,185.98335676870192 135.80842178530293,185.47793724521034 133.89159561513225,185.51089946299908" stroke="#4dd2ff" stroke-linecap="round" stroke-linejoin="round" stroke-width="0.5"><title>2022-12-12 7.2km</title></polyline><polyline fill="none" points="157.9278010125272,187.73971272527706 158.17741580458824,184.25101120570616 158.09421087394003,183.93132476015307 157.4404578473186,183.84792816815025 157.42857142857974,183.4309444141836 160.7924279111321,183.4865423245501 164.52476337226108,184.62629430147354 167.19920757215004,185.15446869441075 176.38740920100827,185.01547563893837 177.42152762494516,185.09887148987036 179.16883116884856,185.66874172112148 179.71560642751865,185.48805142761557 180.44067796610761,185.12667009508004 180.7853841074393,183.8618276038469 180.8448162007844,182.69426988133637 181.09443099278724,182.30508166819345 181.70063834474422,182.20778443475137 183.4241690513445,182.55527422328305 183.79264802997932,182.36068005490233 185.52806515520206,182.41627841812442 186.776139115158,182.08268788584974 188.28571428573923,181.35990549362032 188.07175874977838,180.83171584615775 184.99317631527083,181.76299616432516 183.57869249396026,181.80469512862328 180.93990755005507,181.48500273063837 179.9057891261764,182.40237882954534 179.703720008838,182.9583612265851 179.8701298701926,183.50044179843098 179.67994717147667,183.8340287310275 179.75126568344422,184.23711181122053 179.4422187982127,184.57069687343028 178.88355712086195,184.51509942190023 178.15848558221478,184.7374890869396 177.82566585956374,184.4039044481906 177.1481399956392,184.29270938038826 176.99361655302346,184.09811778531002 176.93418445962016,184.2232124152215 175.84063394239638,184.1120171945222 174.23596742242808,184.4178038250393 173.67730574513553,184.43170320043282 173.3088267664425,184.18151421846414 170.86022452131147,184.26491059872205 169.43385428137844,184.08421837461356 167.9837112041423,184.29270938038826" stroke="#4dd2ff" stroke-linecap="round" stroke-linejoin="round" stroke-width="0.5"><title>2022-12-06 5.0km</title></polyline><polyline fill="none" points="11.714285714260768,222.33629556151573 11.97826371609699,219.38179423041584 12.119680502801202,219.52511152648367 14.099515516601969,219.547160323782 16.692156605946366,220.4070597792379 16.78643446380738,220.5944728213799 16.64501767710317,220.5944728213799 16.76757889217697,220.39603547212027 16.49417310464196,220.4070597792379 16.25847846013494,220.16452475376718 16.465889747312758,220.2306707257667 16.70158439176157,218.64315580971743 16.550739819242153,218.7423762004837 16.569595390872564,219.0620857058675 16.91842346469639,219.34872098026972 18.342019117437303,219.70150177413598 19.209375409176573,219.53613592570036 19.982453843113035,219.77867241360946 21.189210422919132,219.81174552733864 23.800707083952148,219.58023351094744 24.526646588987205,219.77867241360946 25.59198638208909,219.66842862546036 25.855964383867104,219.45896510663442 26.78931517607998,219.45896510663442 26.88359303388279,219.64637985379522 28.033782899030484,219.97711093842372 28.929422548098955,219.82276989622915 29.146261621033773,218.1580769838838 30.013617912773043,217.43045451130456 32.50255335861584,217.68402049515862 33.70930993842194,217.57377449105843 35.04805551917525,217.1658632616236 37.57470210810425,215.82084735448007 38.43263061408652,215.60035128713935 40.6952992012375,215.41292926307506 41.9303391383728,215.082183692306 42.41115621314384,214.8065615813466 42.56200078560505,215.34678023289598 42.57142857136205,215.22550690185744 40.6481602723361,215.864946511967 37.998952468216885,216.21773909991316 36.62249574443558,216.91229601691157 34.067565798119176,218.01475780775218 32.134869713219814,218.10295424714423 31.927458426041994,218.2242242294742 30.183318056806456,218.01475780775218 25.59198638208909,220.21964640003716 21.22692156600533,220.3078409734153" stroke="#4dd2ff" stroke-linecap="round" stroke-linejoin="round" stroke-width="0.5"><title>2022-11-27 5.6km</title></polyline><polyline fill="none" points="48.14285714284051,220.39926348572772 49.367086685902905,220.57820786924276 49.705935934442095,220.47595396825636 50.26339760131668,220.75715198769467 50.63503871258581,220.69324340436287 52.591619857237674,221.2939827529699 52.91953848488629,219.77295605642576 52.744648550171405,219.5173194379895 52.810232275689486,220.04137392368284 53.356763321731705,220.3864817339272 55.08380142704118,220.71880684178177 55.9035979960463,220.47595396825636 56.76711704873014,220.78271541152935 59.92606649460504,220.75715198769467 60.53818126616534,220.55264440210885 62.210566266905516,220.75715198769467 63.106877182319295,220.70602512375626 63.51131015637657,220.39926348572772 64.5934416273958,220.3864817339272 64.71367845754139,220.62933478725608 65.97069986333372,221.0127859829372 66.82328829512699,220.89775075200305 67.18399878544733,220.52708092953253 67.30423561559292,219.90077416283748 67.16213754366618,219.38950092599407 67.33702747832285,218.86544361281994 68.34264460299164,218.04739838530077 70.86761803552508,218.36694796154916 72.58372551994398,218.23912823246064 74.36541672988096,217.6383736944772 76.92318202520255,216.24512294930173 79.0,215.84887438988517 77.08714133896865,216.16842978118802 74.31076362525346,217.66393777820485 72.54000303626526,218.22634625210776 70.90040989825502,218.32860205700854 68.62684074690333,217.9834883686417 68.22240777290426,218.06018038460024 67.30423561559292,218.91657125560596 67.14027630182682,219.38950092599407 67.28237437375356,219.90077416283748 67.08562319719931,220.24588237467106 67.16213754366618,220.64211651340156 66.8670107788057,220.9105324497359 65.64278123574331,220.9616592271268 64.35296796722105,220.34813647034025 63.46758767263964,220.3609182262153 63.04129345680121,220.68046168365254 62.01381509035127,220.74437027372915 61.194018521287944,220.53986266649736 57.739942310610786,220.48873571059812" stroke="#4dd2ff" stroke-linecap="round" stroke-linejoin="round" stroke-width="0.5"><title>2022-11-23 5.3km</title></polyline><polyline fill="none" points="84.57142857142026,219.31416686401644 87.19835560122738,219.63144241817645 90.13360739982454,220.43904958770145 90.51593011303339,218.73730032828462 90.4295991777908,218.33349230089516 90.04727646452375,218.1460095958173 89.43062692700187,218.20369660943106 88.88797533401521,217.75662161527725 87.55601233296329,217.7998870013398 87.26002055499703,217.95852663290862 87.3093525180011,218.10274431954895 91.50256937305676,219.5304911856074 92.80986639263574,219.68912880324933 93.50051387457643,219.2997452303971 94.3638232271187,219.44396149815293 95.41212744091172,219.25648032032768 95.6217882836354,219.55933440254012 96.21377183968434,219.64586401675479 99.61767728673294,219.55933440254012 100.46865364856785,219.8333446591132 101.91161356633529,219.76123675024428 102.38026721478673,219.42953987824148 103.58890030835755,219.4151182568021 103.87255909555824,219.73239357600687 105.31551901338389,220.0929328151542 106.56115107913502,219.77565833507106 106.53648509766208,219.1987937521917 106.72147995891282,218.91036054534197 106.58581706066616,218.18927485829045 106.82014388492098,217.64124718517996 107.89311408018693,216.79035774788645 111.63001027749851,217.15090476803016 113.67728674208047,216.7326701361162 115.12024665984791,216.11252676826552 115.42857142857974,216.67498249998607 114.23227132577449,217.20859220277634 112.08633093524259,217.75662161527725 110.56937307299813,217.67009080189746 110.32271325797774,217.82873058442783 108.38643371016951,217.48260718442907 108.00411099690245,217.58355993354053 107.69578622817062,217.9873701824108 107.54779033915838,219.68912880324933 107.1778006166569,220.74190104279842 106.33915724564577,221.03033037458954 103.03391572460532,220.39578503918892 93.73484069883125,220.59768614808854 90.2692702980712,219.93429566743725" stroke="#4dd2ff" stroke-linecap="round" stroke-linejoin="round" stroke-width="0.5"><title>2022-11-18 5.5km</title></polyline><polyline fill="none" points="121.0,221.95286774875422 121.33948919450631,218.40842479655112 122.13971372437663,218.60691607954504 122.91568902612198,218.49349252523098 125.0253718776512,218.7345174633374 127.08655627275584,219.44341182796052 127.41392085322877,217.9263733139378 127.35329778277082,217.2600051740592 126.38332865561824,217.21747092499572 125.87409486382967,216.7637714281882 124.58888577041216,216.82048394929734 124.33426887454698,217.14658047987905 124.44339040137129,217.2600051740592 127.74128543358529,218.36589091192582 129.8509682851145,218.80540706854663 130.6754420432262,218.52184842280985 131.6332865562872,218.84794081369182 135.14942464214982,218.83376290014712 135.82840303110424,218.59273814049084 137.69559360085987,218.84794081369182 138.64131349982927,218.7912291505345 139.27179343247553,218.49349252523098 140.2538871736615,218.50767047477711 140.54487791185966,218.7912291505345 142.036205444776,219.10314300088794 143.2122930114274,218.83376290014712 143.40628683689283,217.91219530289527 143.24866685376037,217.33089555922197 143.4547852932592,216.80630582128651 144.5096267189947,215.84218959666032 148.5349985966459,216.15411031067197 150.14757227047812,215.81383313209517 151.72377210203558,215.1899893940863 151.85714285710128,215.7571201850369 148.89873701927718,216.7779495607101 145.97670502384426,216.83466207579477 145.14010665164096,216.53692110380507 144.6308728599106,216.69288074305223 144.3762559640454,217.03315568964172 144.2550098231295,218.52184842280985 143.9276452427148,219.6844350577594 142.93342688743724,220.02470240900584 140.67824866680894,219.45758967702568 130.6875666572596,219.5851902509603" stroke="#4dd2ff" stroke-linecap="round" stroke-linejoin="round" stroke-width="0.5"><title>2022-11-06 5.5km</title></polyline><polyline fill="none" points="157.42857142852154,228.0735358785896 158.14008321752772,224.24218142016616 158.64563106780406,213.7548542154982 159.07628294022288,211.80621087228064 159.18862690695096,212.00326552733895 161.4729542301502,211.93758066312876 167.89528432732914,213.38264285953483 168.3446601940086,210.31734741450055 168.1761442439165,211.19315074558835 168.86893203866202,211.6967359828559 172.20180305128451,212.37547936386545 179.07350901514292,211.01799037583987 179.5228848819388,211.01799037583987 179.61650485428981,212.24410985095892 181.1518723993795,212.02516047740937 182.70596393884625,212.11274025462626 183.2864077668637,212.48495389426535 185.75797503464855,212.3973742746166 186.54438280151226,211.85000081185717 186.56310679612216,211.03988543017476 188.17337031895295,210.55819370000972 188.28571428568102,209.44154037730186 187.6865464631701,209.0693212642509 186.67545076285023,210.42682303355832 186.862690707203,210.95230519901088 186.45076282927766,211.12746562434768 185.77669902914204,212.24410985095892 183.71705963928252,212.50684879344772 182.70596393884625,212.11274025462626 176.8640776698012,212.11274025462626 176.39597780851182,212.46305899282743 174.9729542301502,212.46305899282743 173.49375866842456,211.95947562019865 172.05201109556947,212.37547936386545 169.54299583903048,211.91568570377422 163.7198335643625,210.01081537308346 163.5325936198933,209.66049248407944 163.9819694866892,209.50722603368922 165.98543689306825,209.26637852514978 166.64077669894323,210.01081537308346 167.2773925102083,209.96702504441782 166.62205270444974,209.945129876578 165.9479889041977,209.31016900209943 164.8807212203974,209.31016900209943 163.79472954222,209.4634355984308 163.66366158099845,210.03271053390927 169.63661581126507,212.02516047740937 168.04507628281135,211.1055705792969 168.13869625504594,210.31734741450055" stroke="#4dd2ff" stroke-linecap="round" stroke-linejoin="round" stroke-width="0.5"><title>2022-11-02 5.0km</title></polyline><polyline fill="none" points="12.664467172522563,259.9054621859832 12.616958099592011,259.6138229244534 11.773672055394854,259.50272208300885 11.714285714260768,259.0999807449116 12.023094688192941,257.0168161743204 12.023094688192941,255.10027558050933 12.213130979856942,254.69752073935524 12.106235565792304,253.22537184366956 12.367535466852132,250.14213859497977 12.616958099592011,248.97549091634573 12.818871659459546,249.12826679750287 15.1824480369105,249.04493452073075 18.223028703359887,249.98936389361916 18.519960409088526,248.00327659810137 18.365555922151543,248.46160710226104 18.579346750222612,248.79493737305165 21.014186737011187,249.35048594363616 24.80303530191304,248.55882851865317 26.08578027051408,248.53105097847583 26.810293632384855,248.89215854259965 27.2022434839746,248.65604986308608 28.80567469476955,248.69771613150078 29.29264269216219,248.25327525328612 30.017156054091174,248.61438358142914 30.93170570762595,248.29494164955395 31.620587264886126,248.6004948179616 31.9293962388183,249.40604067141248 32.7845595512772,249.66992530721473 33.98416364227887,249.41992934966402 34.186077202204615,248.37827440233377 34.043549983471166,247.85049940779572 34.26921807980398,247.29494448981131 35.005608709936496,246.55883060224005 35.73012207186548,246.40605173099902 37.82052128005307,246.7393872208777 39.19828439451521,246.7393872208777 40.730451995972544,246.4477187135053 42.34576047497103,245.80882352830668 42.571428571420256,246.29493971297052 41.264929066295736,246.90605464841065 39.51897063670913,247.35050008741382 37.71362586598843,247.4616112120857 35.492576707329135,247.21161104936618 35.160013196931686,247.60049998566683 34.7205542724696,250.1560271953931 33.78225008241134,250.50324172787077 30.42098317388445,249.93380941268697 21.394259320339188,250.11436138977297 18.686242164229043,249.54492738794943 18.3536786538898,251.65598739085544" stroke="#4dd2ff" stroke-linecap="round" stroke-linejoin="round" stroke-width="0.5"><title>2022-10-28 6.2km</title></polyline><polyline fill="none" points="48.14285714284051,256.1957958232233 48.33601609664038,253.23128263268154 48.54124748491449,252.6948398758541 48.73440643865615,252.89247693188372 50.2072434607544,252.7513076359901 51.366197183087934,252.87836000899551 53.80482897389447,253.71125590297743 54.29979879275197,253.5983211711573 54.57746478874469,252.08780994494737 54.468812877254095,251.57959671638673 54.10663983906852,251.4101918767119 53.406438631762285,251.4666601804929 53.00804828974651,251.07138155221764 51.71629778674105,251.1419671074109 51.53521126759006,251.3113722876151 51.680080482852645,251.55136259132996 55.38631790748332,252.82189230258518 56.593561368237715,253.03364607840194 61.70020120724803,252.28544790005253 61.74849094566889,252.99129535013344 63.43863179080654,252.87836000899551 64.549295774661,253.14658128810697 67.38631790742511,252.79365844045242 67.51911468809703,253.06187988979218 68.91951710259309,253.41480202808452 70.05432595568709,253.30186704536027 70.29577464790782,253.10423059565073 70.27162977866828,252.51131949029514 70.46478873240994,252.25721392435662 70.31991951714735,251.5654796546005 70.549295774661,251.04314731968043 71.59959758550394,250.15376593678957 74.55734406434931,250.47846141434275 75.74044265592238,250.421992692427 77.1167002011789,250.15376593678957 78.69818913476774,249.518489891052 79.0,250.01259374353685 77.59959758550394,250.6196331147221 75.75251509057125,251.09961577881768 74.315895372245,251.04314731968043 74.06237424549181,251.170201319037 72.14285714284051,250.8455075246311 71.73239436617587,250.95844458624197 71.47887323942268,251.33960646338528 71.40643863176228,252.56778732810926 71.03219315892784,253.96535870010848 70.03018108650576,254.2759281284816 69.16096579475561,254.1912274469796 69.01609657943482,253.9371250799013 68.53319919522619,254.00770911927975 67.32595573441358,253.72537273772468 62.1710261569242,253.79595688910922" stroke="#4dd2ff" stroke-linecap="round" stroke-linejoin="round" stroke-width="0.5"><title>2022-10-20 5.2km</title></polyline><polyline fill="none" points="91.54052478133235,254.25629627525632 92.00233236153144,254.96812715219858 93.2198250729125,255.3117688630009 94.4793002915103,254.84539784645312 97.75393586000428,255.18903973895067 97.98483965022024,254.82085197747801 98.53061224496923,255.40995211538393 99.49620991258416,255.6554100648209 100.1889212828828,255.40995211538393 103.37959183671046,255.72904739898513 104.47113702620845,254.6981225938507 105.12186588917393,255.2872230433568 106.65422740532085,254.9190354376624 108.1446064140182,255.139948071228 110.01282798836473,254.8699437127798 110.26472303201444,256.6617849426257 110.57959183678031,256.39178235500003 110.64256559766363,254.59993904018484 111.23032069974579,254.18265847369912 114.69387755100615,255.21358556892665 115.42857142863795,256.44087375796516 114.92478134122211,254.45266363184783 113.07755102042574,250.0589042880165 110.49562682211399,250.96711834821326 109.71895043738186,252.2435212888813 107.74577259481885,252.5626209268812 106.73819241987076,252.5626209268812 106.3393586006714,252.1698828485096 100.04198250733316,252.19442899791466 99.53819241980091,251.82623648461595 96.72536443162244,252.3662519708305 96.22157434409019,251.97351356002036 102.39300291554537,251.1143959689507 102.70787172019482,251.70350551705633 102.30903790087905,252.31715970576624 99.34927113715094,251.97351356002036 96.87230320705567,252.3662519708305 95.99067055399064,252.0471520627034 100.33586005831603,251.23712724812503 102.64489795919508,251.16348848838243 102.68688046652824,251.9244212119811 102.35102040821221,252.31715970576624 99.2862973761512,251.97351356002036 96.72536443162244,252.34170583960076 96.01166180765722,252.0716982250451 97.75393586000428,251.75259791189455 98.29970845475327,252.09624438484025 102.2670553936623,252.4398903488036 102.64489795919508,252.14533669649973 102.66588921286166,251.16348848838243 101.23848396504764,251.04075717029627 94.35335276962724,252.46443646958505 91.2256559766829,251.89987503401062 84.86530612246133,249.76434761309065 84.57142857147846,249.37160479824524 85.03323615156114,249.07704725087387 87.25830903789029,249.0525007716642" stroke="#4dd2ff" stroke-linecap="round" stroke-linejoin="round" stroke-width="0.5"><title>2022-09-24 5.1km</title></polyline><polyline fill="none" points="149.05194805189967,258.34764740406536 150.27159796725027,257.5633023120463 151.67419536970556,252.286775248067 146.00282326340675,248.86414101801347 141.3071710895747,254.42591281834757 141.3071710895747,257.99112702097045 143.80745341605507,259.0606876053498 148.99096555588767,259.13199158391217 150.3325804627966,258.2763433425571 151.85714285704307,252.00155639246805 146.49068322987296,248.65022580185905 141.42913608136587,254.49721728725126 141.55110107269138,258.63286357506877 144.9051383396145,258.775471615314 145.9418407678604,259.48851136420853 144.84415584406815,260.55806957324967 122.40259740245529,261.84153718478046 121.48785996600054,262.5545736909844 123.07340485602617,261.3424111818895 146.61264822119847,261.9128408692777 150.21061547123827,261.0571961568203 136.30660643684678,260.55806957324967 137.4652738564182,243.58754587190924 136.79446640308015,243.44493461947422 134.2941840768326,260.8432848090888 121.0,260.7006772062159 121.18294748710468,261.48501864873106 150.3325804627966,261.84153718478046 148.07622811943293,260.55806957324967 145.57594579318538,261.1284999244381 136.24562394130044,260.34415806713514 137.22134387353435,243.15971202327637 134.90400903415866,260.34415806713514 132.8915866741445,261.1284999244381 122.76849237713031,260.7006772062159 122.64652738557197,261.48501864873106 151.7961603612639,262.1980555320042 143.62450592871755,261.9128408692777 149.84472049679607,261.84153718478046 149.84472049679607,260.9145885994076 146.24675324652344,260.6293733935454" stroke="#4dd2ff" stroke-linecap="round" stroke-linejoin="round" stroke-width="0.5"><title>2022-09-22 5.0km</title></polyline><polyline fill="none" points="171.5416739168577,255.23044903708796 172.7631807900034,255.05465168580122 173.66521663486492,255.64796715007105 174.7363842005143,255.4941447850142 177.0478510527173,255.86771318830142 178.26935792597942,255.31834765692474 178.23177309904713,254.9228035746928 178.4948668871075,254.85687948786654 178.94588480959646,255.6259925334889 181.1258047677111,255.36229695288057 181.91508613189217,255.6699417643831 183.5688185140025,254.85687948786654 183.58761092752684,255.56006866969983 183.88828954240307,255.84573859491502 184.07621367671527,254.68108182042488 184.45206194545608,254.43935978479567 187.74073429626878,255.31834765692474 188.28571428568102,256.3511536541628 187.30850878718775,253.12087100282952 186.1621715677902,250.68164469381736 184.5084391856799,251.2749726484035 184.00104402308352,250.92337110210792 181.91508613189217,250.61571926086617 179.37811031844467,252.615448084136 175.73238211253192,252.68137288243452 175.2625717765186,251.6924987117236 172.04906907957047,252.15397391053557 170.92152427358087,252.41767356389028 172.23699321388267,253.01099655989674 177.6492082825862,252.9670467664546 178.4948668871075,252.615448084136 180.03584478865378,252.615448084136 180.99425787373912,252.9670467664546 182.94866887072567,252.74729765974917 183.30572472605854,251.8243488731532 182.66678266925737,251.25299756924505 181.57682269008365,251.14312213826634 179.92309030808974,252.0440989562194 178.833130328916,251.25299756924505 177.34852966770995,251.67052367671567 175.48808073776308,251.6265735996567 175.4504959109472,252.72532273632532 173.92831042292528,252.46162347352947 171.59805115719792,252.8351973303361 170.4141291108681,252.46162347352947 169.60605533327907,252.79124749969924 168.27179397945292,252.74729765974917 160.56690447195433,250.4179428366042 161.0179223943269,249.71473624744976 159.77762310765684,249.36313206014165 159.04471898381598,249.89053811787744 157.42857142852154,249.6048600028298 157.72925004351418,249.86856289225398 160.54811205842998,250.19819103322516 163.10388028540183,249.75868672902288 163.91195406299084,250.50584349285054 164.9267443884164,250.3300421431777 165.50930920476094,250.54979380698933 165.13346093625296,253.84604086853506 164.60727336001582,253.84604086853506 165.7724029929377,254.3514607930265 165.07708369591273,254.43935978479567 164.90795197500847,255.1205757099233" stroke="#4dd2ff" stroke-linecap="round" stroke-linejoin="round" stroke-width="0.5"><title>2022-09-09 5.2km</title></polyline></svg>