<?xml version="1.0" encoding="utf-8" ?>
<svg baseProfile="full" height="300mm" version="1.1" viewBox="0,0,200,300" width="200mm" xmlns="http://www.w3.org/2000/svg" xmlns:ev="http://www.w3.org/2001/xml-events" xmlns:xlink="http://www.w3.org/1999/xlink"><defs /><rect fill="#222222" height="300" width="200" x="0" y="0" /><text fill="#FFFFFF" style="font-size:12px; font-family:Arial; font-weight:bold;" x="10" y="20">Over 5km Runs</text><text fill="#FFFFFF" style="font-size:4px; font-family:Arial" x="10" y="280">ATHLETE</text><text fill="#FFFFFF" style="font-size:9px; font-family:Arial" x="10" y="290">fengde</text><text fill="#FFFFFF" style="font-size:4px; font-family:Arial" x="120" y="280">STATISTICS</text><text fill="#FFFFFF" style="font-size:3px; font-family:Arial" x="120" y="285">Number: 33</text><text fill="#FFFFFF" style="font-size:3px; font-family:Arial" x="120" y="290">Weekly: 1.5</text><text fill="#FFFFFF" style="font-size:3px; font-family:Arial" x="141" y="285">Total: 196.7 km</text><text fill="#FFFFFF" style="font-size:3px; font-family:Arial" x="141" y="290">Avg: 6.0 km</text><text fill="#FFFFFF" style="font-size:3px; font-family:Arial" x="167" y="285">Min: 5.0 km</text><text fill="#FFFFFF" style="font-size:3px; font-family:Arial" x="167" y="290">Max: 10.0 km</text><polyline fill="none" points="14.867570385802537,49.944305893513956 15.840174424112774,50.48302860783588 16.37254716089228,50.255568219028646 17.928713622153737,50.48302860783588 18.368944923684467,50.195710146042984 18.409896672645118,49.83656104293914 20.62129111768445,49.74078775628004 25.08503175660735,49.68092941098439 27.429519385797903,50.1717669079153 28.269030239840504,49.89641930592916 28.63759598066099,47.72953001334099 28.965209972520825,47.262625782161194 29.968527822580654,47.442204560589744 30.982083609851543,47.334457327720884 32.43587069865316,47.47812028207409 35.261541378335096,46.484447782575444 37.56507725850679,45.299212547055504 39.83789932692889,45.143574674810225 42.01857996021863,44.50904882639588 42.571428571420256,44.25763193999592 42.37690776376985,44.353409867340815 42.264290454098955,43.80268567788153 41.9981040856801,44.03015903758933 40.96407242398709,44.31749315408524 36.98151483555557,44.880187018730794 34.34012702625478,46.29289545422944 32.773722627724055,46.78374764647742 31.13565266848309,46.903467370364524 29.395203336782288,46.61613982021663 28.699023604160175,46.664027795923175 27.828798938309774,47.43023265091324 27.603564318909775,49.23797667164763 26.211204853549134,49.46543910569744 26.27263247699011,49.33375038380473 25.852877049997915,49.09431595139904 25.555976869829465,48.447840453503886 24.992890321358573,48.19643231808732 24.286472651408985,48.36403780375986 23.82576547539793,49.02248552290985 23.088633993756957,49.14220287841454 22.474357759056147,49.15417460700701 22.177457578887697,48.962626797634584 19.873921698716003,49.01051378037664 19.65892501664348,48.48375585582835 19.53606976964511,48.48375585582835 16.403260972583666,49.118259417431545 14.345435586350504,48.72319158002938 11.74499952601036,47.78938939078944 11.714285714260768,47.58586737814039 12.205706702021416,47.49009218667925" stroke="#4dd2ff" stroke-linecap="round" stroke-linejoin="round" stroke-width="0.5"><title>2023-05-14 6.3km</title></polyline><polyline fill="none" points="48.574507156328764,53.71809102273255 48.947826086950954,51.41276362625649 48.14285714284051,51.11265880387509 48.59783958946355,51.01717075939814 48.72616797185037,50.78527092846343 48.95949230348924,48.60266385416617 48.807831487909425,48.46624968560354 49.2161490683211,48.479891108960146 49.43780718330527,44.005426865202026 49.612800432078075,43.63709514873335 52.31936267885612,43.82808209602081 55.22425060754176,44.87850525001704 55.480907372315414,44.81029621406924 55.77256278693676,44.25098075837013 58.024142587091774,44.755728959309636 59.29576019436354,44.8375798327761 67.74210099916672,44.67387803392194 70.28533621382667,45.24683342073695 71.31196327297948,44.87850525001704 71.74361328646773,42.30017859759391 72.02360248443438,41.98641045995464 74.25184985145461,42.15011567050533 76.29343775316374,42.05462098964199 78.99999999994179,41.113312493864214 78.75500945176464,40.56762326297758 77.20340264646802,41.20880787183705 75.95511747227283,41.46800925556454 74.40351066703442,41.522577901545446 71.88360788545106,41.20880787183705 70.82198217656696,42.05462098964199 70.60032406152459,42.69579820461513 70.7519848771044,43.21419447315566 70.54199297865853,44.100920101467636 69.43370240344666,44.373757529625436 68.24374831211753,44.04635254656023 67.82376451522578,43.705304805218475 66.80880367266946,43.705304805218475 66.34215500944993,43.991784968515276 65.25719686731463,44.08727821489447 64.21890359162353,43.89629165145743 62.44563867134275,43.97814307041699 60.53237915207865,43.78715634539549 59.214096678304486,43.97814307041699 58.432460167387035,43.773514425658504 57.382500675099436,43.97814307041699 55.760896570340265,43.63709514873335 55.24758304073475,43.173268527694745 55.21258439094527,42.53209368682292 54.73426951118745,42.50480958035041 55.36424520658329,42.641230055101914" stroke="#4dd2ff" stroke-linecap="round" stroke-linejoin="round" stroke-width="0.5"><title>2023-05-12 6.0km</title></polyline><polyline fill="none" points="92.63274980406277,62.40643830474437 92.94717254978605,62.39374673635757 92.11232594918692,61.9368493759539 92.35085354931653,62.000307447124214 92.51348600402707,61.77185823319451 92.4375908584916,62.3556720230481 92.63274980406277,62.22875622437277 93.3700169318472,62.57142857142753 93.99886242323555,62.546045468290686 94.18317920516711,61.65763346244057 94.09644189599203,60.210776916268514 94.530128441751,59.60156891919178 94.49760195083218,59.28427185734472 97.15393204352586,57.27893493792362 97.95625215314794,56.49202138320106 98.89952039014315,55.17202571852249 99.60426102695055,53.07777190674824 99.84278862719657,48.571828644533525 100.05963189998874,48.34335375500086 100.04878973634914,47.28982500077109 100.51500277308514,45.79202113972133 101.91364188311854,43.443731521947484 104.35312870296184,41.146171056010644 105.30723910359666,39.648290159821045 106.36977114068577,34.74831125217315 107.88767405081308,31.714285714282596 106.4131397952442,34.583282556595805 105.55660886742407,38.68354336631455 105.09039583068807,40.029109117509506 104.11460110277403,41.41274111108214 102.47743439261103,42.809050728006696 101.47995533735957,44.002247831216664 100.60174008220201,45.5000741324111 100.14636920916382,47.02326806014753 100.02710540912813,47.68331273091462 100.15721137280343,48.40681904594385 101.44742884644074,48.330660692787205 102.98701608384727,48.495670396543574 103.80017835710896,48.31796762923477 104.87355255783768,48.50836344125128 105.66503050382016,48.40681904594385 106.00113757676445,48.584521681092156 106.14208570413757,49.168399907139246 105.99029541312484,49.752275279672176 103.82186268438818,51.77043122082978 103.42070262960624,52.46852754170686 103.25807017489569,53.49662560568686 103.6267037387588,54.98164052514039 99.84278862719657,59.96963245545339 98.20562191697536,61.79724150076072 97.94540998950833,61.79724150076072 94.55181276903022,59.53810957419046 94.11812622327125,60.29961948967684 94.26991651428398,61.53071692248341" stroke="#4dd2ff" stroke-linecap="round" stroke-linejoin="round" stroke-width="0.5"><title>2023-05-09 7.6km</title></polyline><polyline fill="none" points="135.22230826079613,62.57142857143481 135.45524183812086,60.31471338921983 135.0725652470137,59.08907199050009 132.92624871403677,58.40815657352505 128.86654922540765,57.863422425012686 128.7667205494363,56.91013378335629 129.04956846463028,54.711714611563366 130.73001784313237,54.75062491380959 130.19759823806817,54.63389398234722 130.03121711156564,53.155295771415695 129.63190240768017,53.52494643854152 129.0329303520266,53.11638513165235 129.08284469001228,41.34553869225783 129.2991401545587,40.781297378387535 128.7667205494363,41.0536899529543 128.06791981781134,40.664557579977554 129.19931147858733,38.62159911202616 129.2658639292349,37.24015718999726 129.91475032287417,36.909387865889585 130.19759823806817,40.547817707498325 129.68181674566586,42.12379973278439 129.814921646961,43.64139928855002 130.01457899884554,43.97215650381986 131.27907556091668,43.83596242839121 132.14425741910236,43.11607778268808 131.66175215196563,40.255967702149064 132.44374344695825,39.08856304861547 132.37719099625247,38.524314809328644 131.81149516592268,38.641055966421845 130.663465392543,38.076806353987195 131.04614198370837,37.49309803634242 131.7782189406571,37.51255501015112 132.75986758747604,37.998978685354814 133.1259060659795,37.78495242682402 133.25901096721645,38.01843560556881 134.37376451527234,35.2360751076194 134.2572977267555,33.56274712178856 133.79143057228066,32.18126719261636 133.4087539811153,31.714285714289872 132.54357212292962,32.16180965467356 132.17753364442615,32.92065210767032 132.67667702416657,32.33692742178391 132.52693401020952,33.11522659113689 132.8596962633892,33.6211192845949 133.24237285455456,33.71840618143324 133.79143057228066,33.19305632688338 134.12419282546034,33.29034345026594 134.35712640261045,34.243754534982145 134.2572977267555,35.76141912509047 133.1259060659795,37.97952176305989 130.1476839001407,40.68401421816088 129.71509297104785,42.065430269023636 129.96466466085985,44.030525362395565 130.56363671662984,44.41965061292285 132.66003891144646,44.22508809057763 133.82470679760445,44.41965061292285 134.7897173317615,45.10061782012053 136.08749011909822,45.08116164918465 137.91768251149915,46.07342374214204 139.7145986785763,46.326352438903996 142.7260970696807,46.07342374214204 143.2252404494211,46.598736800355255 144.72267058870057,46.657104825237184 144.78922303928994,48.27194616981433 144.45646078622667,49.5949381502287 144.12369853298878,49.51711535600771 143.8075743925292,50.198063688978436 144.0571460823412,51.384853328883764 143.45817402662942,54.400431897185626" stroke="#4dd2ff" stroke-linecap="round" stroke-linejoin="round" stroke-width="0.5"><title>2023-05-06 6.0km</title></polyline><polyline fill="none" points="165.4775337492465,62.55866877757944 165.1287191385054,62.35451189181913 165.5211355755455,62.02275621256558 166.37137118919054,62.57142857142753 166.72018579987343,62.533149185845105 166.8727921920945,61.65271995114017 166.74198671302292,60.35120404692134 167.18890543305315,59.598359979594534 167.13440315017942,59.355917665532616 169.79411455680383,57.352559819686576 171.45098395773675,55.361929125159804 172.26851820154116,53.0777673674238 172.51922870299313,48.45826838701032 172.74813829129562,48.19028094978421 172.68273555178894,47.55221321647696 173.09695290203672,45.99531372117781 174.230600386858,43.91516240788769 177.0538186423364,41.08201493699016 178.13296384422574,39.2442619199428 179.07040311052697,34.72633286155178 180.58556657581357,31.714285714289872 179.03770174080273,34.802909346472006 178.18746612715768,38.989016221035854 177.78414923354285,39.971709185389045 176.80310814082623,41.3627802825431 174.24150084343273,43.85135351587087 173.15145518496865,45.81665183247969 172.68273555178894,47.53945182725147 172.82444148737704,47.98609964392381 172.5083282464766,48.58588124215021 172.3448213976808,52.694942711466865 171.55998852354242,55.19604174500273 171.00406523776473,56.07651829782844 170.00122323189862,57.161154455447104 167.1998058896279,59.34315753020201 166.81828990916256,59.202795951969165" stroke="#4dd2ff" stroke-linecap="round" stroke-linejoin="round" stroke-width="0.5"><title>2023-05-04 6.1km</title></polyline><polyline fill="none" points="12.651805808593053,87.24150390348223 12.96431250666501,83.76332909309713 13.056907083897386,83.5197179759707 13.311542171228211,83.49265004540212 13.068481406022329,83.38437826601148 13.010609795281198,82.85655202933413 13.323116493353155,78.80981187299767 13.589325902867131,78.64739822525007 14.561568963632453,78.83688079426065 16.043082199059427,78.80981187299767 18.04543993138941,79.54067073651822 18.913514092739206,79.66248014118173 19.202872146619484,78.01127611959237 19.00610866997158,77.53756611396966 18.138034508563578,77.56463530438486 17.709784588951152,77.10445828811498 16.425034830113873,77.17213148256997 15.938913299760316,76.95557713432936 15.337048547866289,77.18566611714778 14.549994641565718,77.18566611714778 13.08005572820548,76.4277243748802 12.385596399079077,76.56307144388848 11.714285714260768,76.27884243354492 11.725860036385711,76.84729982275167 12.455042332003359,76.96911179182644 12.582359875668772,76.45479380014876 13.13792733894661,76.49539792726864 14.411102775717154,77.18566611714778 15.441217447223607,77.37515085110499 16.12410245416686,77.19920075028494 16.529203729412984,77.61877366807312 19.61954774404876,78.71507060354634 21.066338013042696,79.02636308263754 21.48301361053018,79.08050082776754 22.096452684607357,78.79627741023432 22.976101168140303,79.02636308263754 24.07566177257104,78.79627741023432 24.619654913665727,78.91808752360521 25.082627799769398,78.72860507488076 25.6034722966142,78.9586908689962 28.057228592864703,78.87748416537943 28.844282499165274,79.12110412161564 30.024863358703442,79.02636308263754 30.46468760044081,78.71507060354634 31.51795091625536,78.71507060354634 31.876754902943503,79.03989752108464 33.20780195045518,79.35118920984678 34.23791662201984,79.148172976973 34.41153145430144,78.14662151335506 34.26106526632793,77.76765405006881 34.48097738716751,77.13152757017815 35.511092058732174,76.2382382376527 39.295895402436145,76.52246733823267 40.90472618158674,76.21116876656015 42.31679348408943,75.61563895364816 42.571428571420256,76.11642557266168 41.437145000556484,76.65781430700736 39.44636159040965,77.14506220906333 37.837530811317265,77.22627001233923 35.66155824670568,77.0232504075102 35.34905154857552,77.42928929495974 35.2448826492182,78.79627741023432 34.94395027321298,79.87902990764997 33.80966670240741,80.27152542503609 31.390633372589946,79.68954888204462 22.767763369425666,79.865495557955 20.765405637095682,79.567739503138" stroke="#4dd2ff" stroke-linecap="round" stroke-linejoin="round" stroke-width="0.5"><title>2023-04-26 7.0km</title></polyline><polyline fill="none" points="48.14285714284051,84.72183218687132 48.575030011998024,83.8290459986165 48.37334933964303,83.20577720225265 48.41656662657624,81.06643061437353 48.575030011998024,80.57791437052947 48.90636254491983,80.40946014584915 52.9111644657678,80.78005920494616 55.244897959171794,81.75708895364369 55.92196878744289,81.68970778414223 57.074429771804716,82.02661334660661 57.6218487394508,82.41405386234692 58.12605042010546,82.2961372834543 59.004801920673344,82.59935116706765 61.280912364891265,82.44774429741665 62.30372148856986,83.08786120961304 63.08163265301846,82.7846482561581 64.01800720283063,83.08786120961304 64.83913565421244,82.91940964006062 65.50180072023068,82.48143472534139 66.07803121244069,82.98679028925835 67.61944777914323,82.75095789236366 68.29651860741433,82.90256447333377 70.29891956783831,82.02661334660661 71.14885954384226,82.11083962590783 72.61824729893124,82.7004223332915 73.06482593034161,82.1445301250933 74.087635053962,82.2961372834543 75.45618247293169,81.79077952772786 75.75870348134777,80.96535841104924 75.97478991589742,78.792290521611 76.24849939974956,78.35430425521918 76.92557022807887,78.13531067025906 77.93397358938819,78.4385324769828 79.0,78.4385324769828 76.73829531809315,78.1521563413553 76.23409363743849,78.32061295409221 75.93157262902241,78.7080624870141 75.45618247293169,81.82447009466705 73.97238895558985,82.32982774349512 70.68787515006261,81.55494535954494 59.27851140452549,81.75708895364369 57.6218487394508,81.48756410447822 51.744297719036695,79.71879596143845 49.1656662664609,79.80302346138342 51.657863145228475,79.95463284905418 51.830732292844914,79.78617796498293 52.262905162002426,79.97147832762857" stroke="#4dd2ff" stroke-linecap="round" stroke-linejoin="round" stroke-width="0.5"><title>2023-04-20 5.0km</title></polyline><polyline fill="none" points="91.63456723431591,95.84838700481487 91.79220729897497,96.7218224603057 91.64507657196373,96.36506792900764 91.7501699483837,96.54959627202334 92.90619708935264,96.85714285714494 93.66286939987913,96.47578497011273 94.05171489273198,95.55313972769363 94.16731760679977,95.50393177500519 94.37750435975613,95.83608504994481 94.83991521614371,95.79917917754938 95.14468600787222,95.2086836199378 95.01857395609841,93.60940970179217 95.45996613719035,92.85897355963971 95.34436342306435,92.67443933730101 98.54971140495036,90.11553448320774 99.61115450708894,88.70073108765791 100.34680814226158,86.36319195954275 100.52546688221628,82.53690767056105 100.60954158339882,82.05707531785447 100.80921899864916,81.93404106098751 100.68310694693355,81.4542062102555 101.00889641389949,80.08851152154239 102.21747024316574,77.82462178241258 103.11076394299744,76.76648422556173 104.70818326505832,75.33921359790838 105.65402365312912,73.99805533648032 106.03235980839236,73.08753536941367 106.98870953411097,68.54713297286071 108.36543276562588,66.0 106.90463483287022,69.00241170645313 106.10592517186888,72.87836085201707 105.69606100372039,74.01035961133312 104.41392181097763,75.72064109174244 102.38561964541441,77.57854414371104 101.12449912802549,79.85474234771391 100.75667231041007,81.3680817958084 100.81972833629698,82.05707531785447 100.58852290810319,82.3646603880843 100.34680814226158,86.80609773285687 99.6426825200324,88.76224463812105 98.03475386032369,90.73066100381402 95.47047547483817,92.68674162792013 95.51251282542944,92.89588036884379 95.20774203370092,93.40027224921505" stroke="#4dd2ff" stroke-linecap="round" stroke-linejoin="round" stroke-width="0.5"><title>2023-04-17 6.5km</title></polyline><polyline fill="none" points="121.17843374819495,88.33475895100855 121.0,88.18175972135214 121.0,87.76448819028155 121.76131732569775,78.25033804237319 121.96354224032257,77.59656268353865 122.86760656454135,77.84694511991984 123.37911664275452,77.6939336876676 124.58057054743404,77.79130461970635 126.93589602375869,78.59808956850611 127.31655468663666,78.4868091801909 128.91056283726357,79.08494015994074 129.0176230862271,79.46050938458939 129.564819914056,79.61351876117988 130.32613723975373,79.32140979684482 132.01531005615834,79.57178894887329 132.39596871903632,79.37704964958539 133.0740169622004,79.80825771024683 133.9186033704318,79.68306841899175 135.16763960791286,79.89171717157296 135.91706135036657,79.53005912329536 135.88137460075086,79.26576992053015 136.14307743142126,79.25185994776257 136.35719792923192,79.76652795972768 137.04714175564004,79.82216762415192 137.70139883243246,79.62742869567592 138.36755149246892,79.79434779488656 139.20024231739808,79.34922972614004 139.24782465019962,79.75261803994363 139.45004956488265,79.89171717157296 139.99724639276974,79.76652795972768 140.36600947240368,79.08494015994074 142.00759995589033,79.68306841899175 141.9957043727045,79.27967989179888 142.99493336270098,79.32140979684482 144.10122260154458,78.89020013966365 144.54135918046813,76.21945076085103 144.86253992730053,75.91342393046943 145.29078092298005,75.77432059026614 146.9918493225705,76.13598896864278 147.36061240220442,75.98297554535384 148.9427249696455,76.08034774442785 149.93005837645615,75.87169294383784 151.8571428571595,75.05098084898782 151.58354444318684,74.52238390613638 150.00143187568756,75.13444332990912 148.24088556005154,75.42656159595936 144.6246282630018,75.09271209606959 143.53023460728582,76.03861681079434 143.33990527590504,76.73413064210035 143.53023460728582,77.15143717493629 143.26853177661542,78.11123717443843 142.00759995589033,78.33379849253106 141.377134045586,78.20860779746727 140.59202555345837,77.68002354865894 139.4024672320811,77.65220326615963 138.92664390348364,77.95822604974092 137.87983258068562,78.06950688533834 137.02335058926838,77.86085524132068 134.28736645006575,77.88867547961127 134.08514153538272,77.34617977039306 134.20409736753209,77.26271869338234 135.67914968612604,77.19316775540938 136.36909351247596,77.73566409596242 136.26203326357063,77.84694511991984 133.6925872893189,77.86085524132068 133.72827403893461,77.48528144767624 133.5260491243098,77.36008994471922 130.0525388258393,77.98604626744054 128.10166317876428,77.59656268353865 124.72331754601328,76.28900221390359 124.27128538384568,76.30291250009032 124.10474721883656,76.12207866479002 124.6043617138057,75.88560327417508 125.12776737526292,76.13598896864278 126.43628152878955,76.06643743468157 126.79314902517945,76.48374608665472 127.07864302233793,76.48374608665472" stroke="#4dd2ff" stroke-linecap="round" stroke-linejoin="round" stroke-width="0.5"><title>2023-04-07 7.0km</title></polyline><polyline fill="none" points="157.42857142857974,85.01844159910979 157.53756447636988,82.32785423842142 157.82821260381024,80.95421773425187 160.56514913670253,81.22328166475927 163.3747477013967,82.01630905068305 163.61695447412785,81.49234505440108 166.69298048893688,82.17208173518884 176.0058309038286,82.01630905068305 179.22718098229961,82.6677208889887 180.34133213723544,82.32785423842142 180.77730432833778,79.70801984523132 181.12850414891727,79.26901555276709 183.2962547656498,79.49559859315923 183.72011661808938,79.33982279413613 185.2581296254648,79.43895286903717 188.28571428573923,78.39100264856825 188.104059206089,77.83870125802059 184.91904014354805,78.78752531844657 183.5021305225091,78.81584832136286 180.92262839205796,78.44764881615993 179.83269791433122,79.43895286903717 179.55416012561182,81.54898990962829 178.4157882933505,81.76140790326463 177.59228526579682,81.61979594494915 176.61134783586022,81.03918534969853 175.53352769679623,81.06750787617057 175.1217761830194,81.3648940425046 174.08028705988545,81.43570017519232 173.40210809605196,81.43570017519232 173.07512895268155,81.22328166475927 170.544068176765,81.30824910939555 170.28975106531288,81.19495917121822 170.04754429252353,80.65683065560006 166.13590491143987,81.37905527206021 164.06503700383473,81.010862817202 160.3834940570523,79.65137421095278 157.70710921741556,79.79298825166188 157.63444718555547,78.81584832136286 158.83337071101414,79.46727573408862 160.67414218443446,79.56640571466414" stroke="#4dd2ff" stroke-linecap="round" stroke-linejoin="round" stroke-width="0.5"><title>2023-04-04 6.0km</title></polyline><polyline fill="none" points="15.309801803901792,128.1567041336093 35.05993733368814,129.35116590571124 41.700069106183946,109.64244974881876 25.35512935742736,102.07743318739813 13.607203913852572,115.41573140711989 13.096424547024071,126.96224160399288 19.90681610815227,130.54562691960018 37.61383416876197,127.36039586504921 40.84877016115934,111.8323172897799 27.5685066152364,101.48019374255091 13.096424547024071,117.40651408000849 14.117983280681074,129.35116590571124 37.27331459056586,128.95301206584554 41.18928973842412,110.4387655131286 27.90902619343251,101.08203400822822 19.90681610815227,107.05442118854262 13.096424547024071,116.80927949922625 12.926164757460356,127.95762709807605 32.16552091948688,131.1428571428405 38.12461353652179,128.55485814227723 41.01902994886041,110.4387655131286 27.398246825672686,101.08203400822822 13.607203913852572,116.2120447284542 12.926164757460356,128.35578114853706 29.441364294849336,130.34655013645533 36.932795013301075,128.1567041336093 41.18928973842412,109.44337075483054 26.376688092015684,100.68387418903876 13.436944124288857,116.41112300672103 13.607203913852572,128.75393511459697 23.993051045574248,130.34655013645533 38.12461353652179,127.75855004112236 41.18928973842412,110.23968660342507 26.376688092015684,100.28571428568102 13.266684336587787,116.41112300672103 13.777463702484965,128.95301206584554 34.038378599099815,129.94839650776703 37.784093958325684,127.95762709807605 41.01902994886041,109.2442917402368 27.227987037971616,100.68387418903876 13.94772349204868,115.41573140711989 12.585645179264247,127.95762709807605 36.932795013301075,128.75393511459697 40.33799079339951,109.84152872127015 27.5685066152364,101.08203400822822 19.225776951760054,107.05442118854262 13.607203913852572,116.41112300672103 13.436944124288857,128.95301206584554 31.825001341290772,130.34655013645533 37.27331459056586,127.95762709807605 40.508250582031906,109.2442917402368 26.887467458844185,100.88295410876162 16.1611007489264,111.23508094064891 12.585645179264247,128.1567041336093 18.374478006735444,130.54562691960018 37.10305480193347,128.95301206584554 41.01902994886041,110.83692326839082 28.24954577162862,101.08203400822822 19.90681610815227,107.2535004352685 13.096424547024071,117.20743590709753 12.585645179264247,128.1567041336093 16.501620328053832,130.14747333258856" stroke="#4dd2ff" stroke-linecap="round" stroke-linejoin="round" stroke-width="0.5"><title>2023-03-30 5.2km</title></polyline><polyline fill="none" points="78.69846440199763,127.79510091067641 78.99999999994179,125.29347665500245 77.03283919428941,124.63868258835282 73.40005318081239,124.13499300679541 73.18467061087722,123.93351672666904 73.3713355048676,121.34788176615257 74.2903011366725,121.14640194848471 74.99388419860043,114.4302616759669 74.67798976262566,114.27914525072265 74.37645416468149,114.5310058795003 73.38569434284,114.46384308424604 73.62979458877817,114.41347096917161 73.40005318081239,114.19519161897188 69.98264973732876,115.05151657923125 68.58984245156171,115.01793529528368 67.7570298477076,114.26235452792025 66.68011699791532,112.19708207710937 64.81346805824433,110.6355167718284 64.29654989024857,110.51797897652432 64.038090806338,110.08140926044143 61.2524762347457,109.49371736156172 58.94070331711555,108.40228377538733 58.395067473175004,107.07576208046521 58.26583793113241,105.63168788270559 57.5048195173149,104.64097821660107 56.298677125538234,104.43947718861455 52.66589111206122,105.11114628691575 51.97666688816389,104.9432292788697 50.46898889844306,103.7845970805065 49.75104699854273,103.63347051790333 48.14285714284051,103.81818074152397 50.0525825964869,103.68384605478786 51.718207804253325,104.7585203647759 52.66589111206122,105.09435459409724 56.24124177353224,104.47306071105413 57.44738416536711,104.6577699574118 58.222761417215224,105.66527115281497 58.38070863520261,107.12613652463187 58.94070331711555,108.41907511815953 60.97965831280453,109.44334366897237 63.923220102267805,110.01424458215479 64.33962640422396,110.56835232806043 64.81346805824433,110.6523078783066 66.09140463994117,111.60939801267523 66.9098584058811,112.58327327745792" stroke="#4dd2ff" stroke-linecap="round" stroke-linejoin="round" stroke-width="0.5"><title>2023-03-28 5.0km</title></polyline><polyline fill="none" points="87.67014446225949,118.76764737243502 87.95184590684948,115.98038490079489 87.78932584263384,115.51161165843223 87.51845906896051,115.34690711063013 86.28330658102641,115.66364642455301 86.19662921346026,115.42292462239129 84.57142857142026,115.04283658116037 84.65810593898641,114.65007767127827 86.42415730335051,115.10618467179302 90.54133226320846,115.11885428590176 94.3768057784182,116.28445304992056 96.47873194218846,116.63919824816548 104.7672552166623,116.4871647204418 107.43258426967077,117.03195063491148 108.35353130009025,116.66453715068928 108.78691813803744,114.37134476029314 109.10112359543564,113.9785836481824 111.14887640444795,114.21930835355306 111.28972712677205,114.04193230178498 113.01243980735308,114.10528092186723 115.42857142857974,113.23106700517383 115.2985553771723,112.66092405614472 113.56500802561641,113.33242546751717 112.24317817005794,113.54781191510847 110.82383627607487,113.52247235317918 109.17696629208513,113.21839719136915 108.76524879608769,113.33242546751717 107.90930979128461,114.04193230178498 107.69261637236923,114.63740800756204 107.74678972706897,115.2455503532401 107.25922953448026,115.27088955062936 106.91252006415743,115.66364642455301 106.90168539324077,116.0310629792657 106.56581059383461,116.19576658617734 105.78571428568102,115.91703727254207 105.49317817011615,115.20754154712631 104.92977528087795,114.94147956644156 104.14967897266615,115.10618467179302 103.64044943812769,115.81568099768629 102.76284109149128,115.95504585353046 102.19943820219487,115.95504585353046 101.89606741571333,115.75233328234754 99.42576243978692,115.79034191557002 99.19823434989667,115.20754154712631 96.87961476721102,115.57495950110024" stroke="#4dd2ff" stroke-linecap="round" stroke-linejoin="round" stroke-width="0.5"><title>2023-03-26 5.6km</title></polyline><polyline fill="none" points="151.8571428571595,126.95374203355459 150.97899491817225,126.96800410846481 148.72264257486677,126.22637421244872 148.41773009602912,126.45456846118032 147.2590626764577,126.42604420118732 144.6734048560611,126.86816955241375 143.490344438178,126.86816955241375 142.83173348393757,126.38325779989827 141.92919254663866,124.45785568811698 140.30705815932015,123.14571404848539 139.8679841897101,123.03161417185038 139.6484472050215,122.63226384323207 137.33111236587865,122.19012459936494 135.34308300394332,121.20600301165541 134.85522303782636,120.09350908700435 134.74545454542385,118.89542843824893 134.17221908527426,118.05391304453951 133.0013551666052,117.85423065446957 130.02540937322192,118.3962250250188 129.34240542066982,118.26785813420429 127.06166007905267,116.57055108343775 127.20801806892268,115.90018022592994 126.32987012993544,113.96036491917039 126.08594014676055,113.81773033886566 126.07374364766292,113.23292698130535 125.68345567473443,112.77649332939473 125.5980801807018,112.22021272616985 125.41513269342249,111.9634670579544 124.74432523996802,111.7352482756105 124.3418407679419,111.09338087828655 124.21987577644177,110.83663306347444 124.67114624503301,110.60841237293789 122.2928289102274,106.98535714313039 121.0,104.43204317480559 122.1464709204156,106.7571299304982 125.29316770186415,111.66392982685647 125.19559570861747,111.89214872999582 126.03715415019542,113.14734578932985 126.02495765103959,113.88904764789913 126.3542631281889,114.06020903562603 127.22021456802031,115.9857596699876 127.01287408242933,116.51349837431917 127.4275550536695,116.68465642922092 127.74466403166298,117.15533995965961 129.31801242241636,118.22506914346013 129.89124788256595,118.35343607496179 132.98915866744937,117.85423065446957 134.13562958780676,118.11096510165953 134.70886504801456,118.79558790351439 134.7942405420472,119.95088099670829 135.3308865048457,121.20600301165541 137.03839638625504,122.10454909433611 139.63625070586568,122.64652637531981 139.9655561829568,123.1171890883852 140.24607566348277,123.1171890883852 141.92919254663866,124.45785568811698 142.8439299830934,126.24063636432402 143.50254093733383,126.8824316363607 144.44167137215845,126.96800410846481 146.71022021456156,126.41178206894256 147.3322416713345,126.7683349223953 147.68594014685368,126.45456846118032 148.40553359687328,126.42604420118732 148.5884810841526,126.18358774781518 150.73506493511377,126.99652825377416 151.51564088091254,126.92521787923761" stroke="#4dd2ff" stroke-linecap="round" stroke-linejoin="round" stroke-width="0.5"><title>2023-03-18 7.0km</title></polyline><polyline fill="none" points="157.42857142857974,116.83098427073855 159.44166706490796,116.77062452943937 163.3233283945592,117.90538232366089 164.97509917308344,118.19510590960999 173.04812885337742,118.08645965106552 175.57740285806358,118.66590516795986 176.5478181904764,118.21924950856192 176.89881948090624,116.13080930887372 177.1775557998335,115.75657610194321 180.3468909811927,115.86522457878164 181.83348468190525,115.5754950773553 183.33040194999194,114.98396172765206 183.1755484394962,114.4527863107578 185.14734980644425,113.33006649749586 188.14118434255943,112.7626662606126 188.28571428568102,112.85924522361165 186.39650145772612,112.96789645921672 185.11637910432182,113.30592186402646 182.44257515651407,114.79080731669092 181.16245280310977,115.1650436909913 179.572623428714,115.29783694813523 177.29111504089087,114.94774530051654 176.92979018302867,115.03225027932058 176.07293409161502,115.84108048175403 175.88710987899685,116.43260938820458 176.03163982217666,116.77062452943937 175.92840414849343,117.47079556549579 175.63934426230844,117.73637655881612 174.64828179514734,117.8208794725142 173.38880657643313,116.64990495105303 172.49065621563932,116.74648062396591 172.0054485494038,116.36017744195851 171.60282942216145,116.28774544971384 171.22085742960917,116.42053740033589 170.75629689812195,116.975847519534 170.48788414662704,116.99999137647683 169.98202934564324,117.42250804575451 169.1458203890361,117.47079556549579 168.97031974379206,116.87927204075822 166.0281030444894,117.19314204798138" stroke="#4dd2ff" stroke-linecap="round" stroke-linejoin="round" stroke-width="0.5"><title>2023-03-14 5.6km</title></polyline><polyline fill="none" points="39.88150098751066,155.7854551030323 38.83870967745315,155.6468873758131 36.85977616853779,154.9956170943624 35.43778801843291,155.38360829024168 35.141540487180464,155.134185510542 32.688610928249545,155.71617125775083 31.93021724821301,155.6746009329654 31.148123765655328,155.02333078930678 30.069782751845196,152.94478739443002 28.837393021734897,151.57293068408035 28.00789993413491,151.25421444185486 25.34167215274647,150.89392558200052 23.907834101410117,150.11791544056905 23.339038841368165,148.89846164257324 23.161290322605055,147.5819930923608 22.68729427253129,147.01382889311935 21.751152073731646,146.83367875426484 18.409479921043385,147.33255545479187 16.786043449654244,146.265511308462 14.570111915702,146.3348001533741 14.380513495707419,145.19845846782846 14.344963791954797,146.3625156810158 12.48452929558698,146.4872354830295 11.714285714260768,144.21454489698226 12.342330480576493,146.265511308462 12.650427913060412,146.54266646802716 16.3475971033331,146.23779576025845 16.857142857159488,146.3625156810158 17.982883475953713,147.18012110904965 18.64647794602206,147.346413113788 21.857801184989512,146.8891095926083 22.73469387757359,147.12469039382995 23.196840026357677,147.72056935241562 23.327188940078486,148.89846164257324 23.813034891383722,150.0624859687523 25.377221856440883,150.9493547018792 27.948650427919347,151.44821572514775 28.304147465445567,151.9332176761236 28.707044108014088,152.01636068735388 30.2475312705501,153.23578545544297 31.18367346940795,155.00947394256946 31.7524687294499,155.6746009329654 33.233706385828555,155.77159833688347 33.897300855838694,155.4390355101641 35.63923633977538,155.12032867550442 36.599078341037966,155.21732648985926 36.729427254758775,155.02333078930678 39.09940750495298,155.7854551030323 42.571428571420256,155.6468873758131" stroke="#4dd2ff" stroke-linecap="round" stroke-linejoin="round" stroke-width="0.5"><title>2023-03-12 6.0km</title></polyline><polyline fill="none" points="77.67162075592205,155.53401470884273 73.96322869951837,154.61171010680846 73.81101857783506,154.8544223834033 72.93926969892345,154.5631676052726 72.3857783472049,155.09713427482347 72.27508007688448,154.80587995891983 69.20320307498332,155.4369302757841 68.20691864186665,155.32366502602235 67.4597053171019,154.54698676797852 65.92376681615133,151.8447629299917 64.81678411277244,150.7120800549892 63.55759128765203,150.2590045560646 60.582575272303075,149.85447172645945 58.92210121714743,148.89977000589715 58.396284433081746,147.58906810558983 58.31326073029777,146.18126466295507 57.71825752721634,145.3883581682021 56.34836643183371,145.1456308683555 52.79218449717155,145.72817574080545 52.321716848236974,145.6472668634524 51.9065983343753,145.1456308683555 50.70275464450242,144.46599237906048 50.1631005765521,144.36890091974055 48.14285714284051,144.5469018813892 50.56438180652913,144.43362856611202 52.28020499681588,145.55017615409452 56.43139013455948,145.0970853621693 57.621396540664136,145.35599455051124 58.29942344647134,146.32690010285296 58.396284433081746,147.50816021273204 58.89442664955277,148.77031846628233 60.70711082639173,149.77356503205374 63.75131326075643,150.3884548356 64.11108263931237,150.85771118025878 64.59538757213159,150.9224360803346 66.43574631644879,152.4434633465571 67.50121716846479,154.5631676052726 68.30377962841885,155.2913035106758 69.43843689945061,155.40456878440455 70.71146700839745,154.9838687734009 70.9328635489801,155.25894198844617 71.81844971171813,154.8220607687399 73.89404228061903,154.6440717659425 76.67533632280538,155.6310990802449 79.0,155.4531110188982" stroke="#4dd2ff" stroke-linecap="round" stroke-linejoin="round" stroke-width="0.5"><title>2023-03-05 5.0km</title></polyline><polyline fill="none" points="112.90436441684142,149.88970471805078 113.07607917953283,150.4518116904219 114.84474123537075,150.1105326556717 115.2396851896192,151.3150441586622 115.17099928448442,151.9172970454092 110.5862151204492,153.18202189142175 107.61554972577142,154.56718705962703 104.74791318859207,156.53450573292503 102.73885046504438,153.38277109245246 101.46816122112796,152.31879790889798 89.51681373716565,149.6287259154342 89.37944192701252,149.28744540154003 90.04912950156722,147.42042938283703 89.86024326260667,147.03899374468892 90.08347245416371,146.05528777375002 84.57142857142026,143.28482316560985 90.06630097783636,145.99506071208452 88.79561173386173,149.58857529856323 88.33198187453672,151.93737210879044 89.05318387795705,150.19083366019186 89.51681373716565,149.90977999576717 99.75101359409746,151.95744716997433 102.20653470070101,153.08164721127832 104.37014071072917,156.7151768343756 108.8690674934187,153.9649425756652 110.84378726454452,153.1217970896978 115.42857142852154,151.85707184264902 114.84474123537075,149.22721936486778" stroke="#4dd2ff" stroke-linecap="round" stroke-linejoin="round" stroke-width="0.5"><title>2023-02-22 5.0km</title></polyline><polyline fill="none" points="121.0,153.57571046003432 121.19376541825477,150.12041815304838 121.46019286831142,149.6389359158493 124.22135007852921,149.78054851831985 127.38214846380288,150.95592733708327 128.45996860280866,151.02673296039575 128.9443821485038,151.3524383455224 129.38035433954792,151.21082740591373 131.45122224715305,151.522371275365 131.97196680872003,151.43740483740112 132.73491814307636,151.7772702656075 133.41309710696805,151.66398188541643 134.86633774387883,151.84807545455988 135.83516483515268,151.295793987636 135.87149585108273,151.57901553733973 136.25902668759227,151.7489481795783 136.84032294235658,151.79143130639568 137.3489571652608,151.59317659911176 138.34200493380195,151.76310922333505 139.0565149136237,151.08337743212178 139.46826642745873,151.01257183872804 141.5754653509357,151.49404913533363 141.73289975326043,151.67814293818083 141.81767212378327,151.1683440947818 142.79860955366166,151.22498850664124 143.8885400313884,150.89928281139873 144.25185019057244,149.51148444555292 144.33662256109528,148.25112448351865 144.8210361067322,147.783796987409 145.93518726172624,148.0103802195663 149.13231666287174,147.99621877878963 151.85714285710128,146.93410645084805 151.55438439105637,146.42428953995113 150.22224714059848,146.9482680039655 148.4420273603755,147.3306293724163 147.27943485084688,147.35895239331876 144.5667189952801,147.00491420157778 143.39201614708873,147.92541155243816 143.1619197129039,148.6334821304481 143.2588024220313,149.18577458120126 142.43529939441942,149.4690005951561 142.2294236376183,150.12041815304838 141.84189280105056,150.29035264684353 141.12738282128703,150.17706300827558 140.2917694550124,149.65309718286153 139.15339762280928,149.6389359158493 138.6810944158351,149.93632220804284 137.1188607311342,150.03545082527853 136.79188158776378,149.80887102086854 133.1224489796441,149.85135476340656 132.43215967703145,149.75222600983398 132.0930701951147,149.44067802072095 129.64678178960457,149.96464467757323 127.70912760705687,149.5964521059068 124.10024669207633,148.2652858973306 122.25947521865601,147.99621877878963 125.74725274724187,147.96789589278342" stroke="#4dd2ff" stroke-linecap="round" stroke-linejoin="round" stroke-width="0.5"><title>2023-02-10 5.9km</title></polyline><polyline fill="none" points="164.54326654673787,156.0086170729337 164.58346256439108,151.76274352244218 165.9769245084026,151.77841117627395 168.29489485768136,152.37378079314658 169.56776874879142,151.9977581556741 170.09031697787577,150.4153190938232 170.18410768557806,149.02087857978768 170.58606786181917,148.58217547832464 172.90403821103973,148.91120292627602 173.34619440481765,148.69185137552267 175.5301780286245,148.7231873312412 177.75435767014278,148.01812672404048 181.65337137895403,146.05960742499155 186.11512933444465,145.44854410242988 188.28571428573923,144.63378908339655 188.165126232896,144.72779950668337 187.95074747223407,144.35175745548622 187.9909434898873,143.99138292708085 187.2674151727697,144.3987627641327 185.40499968989752,144.86881502969482 184.6010793375317,144.90015179433976 184.41349792201072,144.6651258977945 181.92134482972324,145.11950896124472 180.2733081074548,145.7305736415583 177.55337758199312,147.28172650607303 175.55697537376545,147.90845032790094 173.11841697164346,148.08079891389934 171.17560945346486,147.72043345986458 170.2109050307772,147.75176962105616 169.11221388250124,148.69185137552267 168.8576391043025,149.41257667944592 168.93803113955073,150.13329847597925 168.34848954784684,150.13329847597925 167.91973202652298,150.54066141828662 167.8259413187625,151.15170373086585 167.38378512504278,151.35538394149626 166.49947273742873,151.02636192356294 166.17790459649405,150.1803019496001 165.36058557167416,149.757270150134 164.4360771664651,150.0236236462515 163.92692760995124,150.82268126042618 162.82823646179168,151.02636192356294 162.01091743685538,151.04202965524746 161.72954531363212,150.8070135054877 157.6295515166712,150.7756779906631 157.42857142857974,150.6033325407043 157.7233422244317,150.25864103909407 159.92072452080902,150.10196281861863 160.17529929906595,150.90102001011837 161.26059177471325,150.82268126042618 162.15830283483956,150.24297322452185 162.98902053228812,150.30564447293 163.37758203584235,149.8356094634073 163.83313690224895,149.8199416041025 164.5700638918206,150.61900031719415 165.5615656596492,150.57199698279146 166.1511072514113,151.05769738530216 167.3703864524723,151.38671933367732 168.7236523788888,151.19870688123046 169.07201786490623,150.0549593201431 169.11221388250124,151.08903284044936 168.64326034369878,151.46505778505525 166.9282302587526,151.23004230654624 166.5128714099992,151.04202965524746 166.04391787113855,150.0706271546369 163.47137274360284,149.31856922997395 162.82823646179168,149.47524827921006 161.2337944296305,150.7756779906631 160.4298740773229,150.76001023080607 160.01451522862772,150.14896630217845 160.38967805972788,149.91394873528043 161.04621301410953,149.91394873528043 161.5955585881602,150.3996512958256 162.93542584206443,150.30564447293 163.5383661062806,149.88261303151376 164.10111035301816,150.3369800872024 164.59686123690335,150.00795580681006 165.46777495194692,149.8356094634073" stroke="#4dd2ff" stroke-linecap="round" stroke-linejoin="round" stroke-width="0.5"><title>2023-02-05 7.1km</title></polyline><polyline fill="none" points="12.081008974055294,189.1050503487204 12.360417171905283,186.583160265458 12.561241814226378,186.51168873610004 14.010671840864234,186.74652356239676 14.525830705766566,186.6648419484918 15.887945670634508,187.24682193915942 16.472956584999338,187.30808278665063 16.752364782907534,186.0930687156142 16.542808634461835,185.67444687938405 15.940334707673173,185.68465718968946 15.652195003640372,185.39876809319685 14.028134853229858,185.54171274728287 13.058937666704878,185.3783474110387 12.604899345140439,185.03119515333674 11.77540625759866,184.87803934855765 11.714285714260768,185.50087143915152 11.77540625759866,184.90867052894464 12.072277467872482,184.88824974308955 12.229444579221308,185.01077439342043 12.211981566797476,185.43960944452556 12.377880184329115,185.70507780701155 14.42105263157282,185.54171274728287 16.708707251993474,186.47084783844184 18.219257821969222,186.82820510715828 19.14479747758014,186.67505215401616 19.738539898127783,186.90988658280548 20.35847683722386,186.85883566861594 21.083191850571893,187.00177816025098 22.83822459372459,186.72610316537612 24.1828765461687,186.89967640212126 24.942517584306188,186.82820510715828 25.16953674511751,186.61379090471019 26.033955857390538,186.5933704796189 26.33955857384717,186.85883566861594 27.064273587195203,187.0936696502613 27.902498180919793,187.03240866665874 28.14698035409674,186.8486254825475 28.13824884785572,185.85823229937523 28.304147465445567,185.39876809319685 28.98520494782133,184.76572493723506 31.438758185773622,184.99035362916038 32.739752607245464,184.81677695857798 33.78753334947396,184.45941224205308 36.47683725436218,183.11162483312364 39.42808634490939,182.78488565686712 42.09119573124917,181.58002538348228 42.54523405281361,180.75295157320215 42.31821489200229,179.46637822270714 42.571428571420256,180.7018974019884 42.475382003351115,181.01843282799382 42.34440941060893,181.32475644523947 41.26170264364919,181.97824357880017 41.087072519992944,182.26414280824247 40.39728353137616,182.30498548616015 39.620179480931256,182.7134113146094 38.275527528487146,182.98909777164954 37.515886490407865,182.92783418258477 36.206160562636796,183.1626777294805 33.770070337108336,184.42878091905732 32.64370603923453,184.80656655648636 30.96725685178535,184.95972247466852 29.081251515832264,184.70446247596556 28.234295415924862,185.35792672455864 27.998544748930726,185.15371962216886 28.2604899344733,185.46003011371067 28.120785835548304,185.80718082890235 28.22556390974205,186.20538158226555 28.068396798393223,186.37895575545554 28.129517341731116,186.72610316537612 27.93742420565104,186.97114764418802 27.125394130474888,187.0936696502613 26.147465437767096,186.72610316537612 26.068881882121786,186.5627398339202 25.204462769790553,186.5729500502348 24.837739510054234,186.79757453595084 24.113024496706203,186.85883566861594 23.6851806936902,186.85883566861594 23.458161532820668,186.70568276409176 21.607082221657038,186.75673375926272 20.61169051664183,186.62400111561146 19.528983749682084,186.7873643434068 19.048750909511,186.634211325465 18.367693427135237,186.81799491785932 17.075430511788,186.5627398339202 14.351200582052115,185.58255403814837 13.748726655321661,185.4906611094193 12.369148678088095,185.69486749888893 12.194518554431852,185.33750603376393 12.325491147232242,184.9699328605857 13.050206160522066,185.4191887710258 13.844773223332595,185.58255403814837 15.608537472668104,185.39876809319685 15.870482658268884,185.68465718968946 16.27213194273645,185.71528811405005" stroke="#4dd2ff" stroke-linecap="round" stroke-linejoin="round" stroke-width="0.5"><title>2022-12-15 10.0km</title></polyline><polyline fill="none" points="48.14285714284051,188.4225207639829 48.41534713760484,184.71980334846012 50.66104054288007,184.87362806485908 50.95232295105234,185.07140236550185 52.85975291457726,185.51089946299908 53.16043152945349,184.23635275656852 53.085261875763535,183.8408005984893 52.267791891412344,183.7858626796442 51.98590568994405,183.42327168622433 50.971115364460275,183.46722217705246 50.57647468242794,183.2804324624376 49.93753262568498,183.51117264931963 49.27040194883011,183.46722217705246 48.35896989732282,182.9398150591369 48.265007830166724,183.44524693394487 48.490516791353,183.7968502657386 50.59526709589409,183.4782097968855 50.914738124236465,183.86277575793792 53.263789803371765,184.67585338763456 54.85174873843789,185.00547764047224 55.706803549663164,184.81869069230015 56.45850008697016,185.06041491423093 58.271967983280774,185.08238981559407 59.267965895240195,185.02745255346235 59.68139899073867,184.84066564482055 61.175395858706906,185.06041491423093 61.917696189309936,185.00547764047224 62.265355837822426,184.74177832190617 63.139203062455636,184.74177832190617 63.364712023641914,184.97251526224136 64.14459718111902,185.1373270486729 64.36070993560134,185.36806311031978 64.58621889678761,185.10436471231515 65.04663302592235,185.20325168998534 65.35670784750255,185.08238981559407 65.5634243953391,183.46722217705246 66.39968679309823,182.7310490017262 68.33530537667684,182.97277808249783 69.93266051850514,182.89586434508965 71.31390290585114,182.5332702444939 74.03880285366904,181.10485692544898 77.67513485299423,180.61040158373362 78.76509483205155,180.14890780745918 78.89664172608173,180.6433653464337 79.0,180.61040158373362 77.98520967457443,181.005966045479 74.8656690447242,181.3795533203156 71.229337045399,183.02771643143205 69.86688707151916,183.40129643378168 68.26953192969086,183.50018503301544 66.60640334087657,183.26944482172257 66.32451713935006,183.59907353807648 66.26813989906805,184.5440033936029 65.9392726639635,185.68669778132607 65.45066991471685,185.87348316847056 65.0278406124562,185.98335676870192 62.95127892814344,185.47793724521034 61.03445275797276,185.51089946299908" stroke="#4dd2ff" stroke-linecap="round" stroke-linejoin="round" stroke-width="0.5"><title>2022-12-12 7.2km</title></polyline><polyline fill="none" points="85.07065815536771,187.73971272527706 85.32027294742875,184.25101120570616 85.23706801678054,183.93132476015307 84.58331499015912,183.84792816815025 84.57142857142026,183.4309444141836 87.93528505397262,183.4865423245501 91.66762051510159,184.62629430147354 94.34206471499056,185.15446869441075 103.53026634384878,185.01547563893837 104.56438476778567,185.09887148987036 106.31168831168907,185.66874172112148 106.85846357035916,185.48805142761557 107.58353510894813,185.12667009508004 107.92824125027983,183.8618276038469 107.98767334362492,182.69426988133637 108.23728813562775,182.30508166819345 108.84349548758473,182.20778443475137 110.56702619418502,182.55527422328305 110.93550517281983,182.36068005490233 112.67092229804257,182.41627841812442 113.91899625799851,182.08268788584974 115.42857142857974,181.35990549362032 115.2146158926189,180.83171584615775 112.13603345811134,181.76299616432516 110.72154963680077,181.80469512862328 108.08276469289558,181.48500273063837 107.0486462690169,182.40237882954534 106.8465771516785,182.9583612265851 107.01298701303313,183.50044179843098 106.82280431431718,183.8340287310275 106.89412282628473,184.23711181122053 106.58507594105322,184.57069687343028 106.02641426370246,184.51509942190023 105.30134272505529,184.7374890869396 104.96852300240425,184.4039044481906 104.29099713847972,184.29270938038826 104.13647369586397,184.09811778531002 104.07704160246067,184.2232124152215 102.98349108523689,184.1120171945222 101.37882456526859,184.4178038250393 100.82016288797604,184.43170320043282 100.45168390928302,184.18151421846414 98.00308166415198,184.26491059872205 96.57671142421896,184.08421837461356 95.12656834698282,184.29270938038826" stroke="#4dd2ff" stroke-linecap="round" stroke-linejoin="round" stroke-width="0.5"><title>2022-12-06 5.0km</title></polyline><polyline fill="none" points="121.0,188.05058127579832 121.26397800183622,185.09607994469843 121.40539478854043,185.23939724076627 123.3852298023412,185.2614460380646 125.9778708916856,186.1213454935205 126.07214874954661,186.3087585356625 125.9307319628424,186.3087585356625 126.0532931779162,186.11032118640287 125.77988739038119,186.1213454935205 125.54419274587417,185.87881046804978 125.75160403305199,185.94495644004928 125.9872986775008,184.35744152400002 125.83645410498139,184.4566619147663 125.8553096766118,184.7763714201501 126.20413775043562,185.0630066945523 127.62773340317653,185.41578748841857 128.4950896949158,185.25042163998296 129.26816812885227,185.49295812789205 130.47492470865836,185.52603124162124 133.08642136969138,185.29451922523003 133.81236087472644,185.49295812789205 134.87770066782832,185.38271433974296 135.14167866960634,185.17325082091702 136.0750294618192,185.17325082091702 136.16930731962202,185.36066556807782 137.31949718476972,185.69139665270632 138.2151368338382,185.53705561051174 138.431975906773,183.8723626981664 139.29933219851227,183.14474022558716 141.78826764435507,183.39830620944122 142.99502422416117,183.28806020534103 144.33376980491448,182.8801489759062 146.86041639384348,181.53513306876266 147.71834489982575,181.31463700142194 149.98101348697674,181.12721497735765 151.21605342411203,180.79646940658859 151.69687049888307,180.5208472956292 151.84771507134428,181.06106594717858 151.85714285710128,180.93979261614004 149.93387455807533,181.5792322262496 147.28466675395612,181.93202481419576 145.9082100301748,182.62658173119416 143.3532800838584,183.72904352203477 141.42058399895905,183.81723996142682 141.21317271178123,183.9385099437568 139.4690323425457,183.72904352203477 134.87770066782832,185.93393211431976 130.51263585174456,186.0221266876979" stroke="#4dd2ff" stroke-linecap="round" stroke-linejoin="round" stroke-width="0.5"><title>2022-11-27 5.6km</title></polyline><polyline fill="none" points="157.42857142857974,186.1135492000103 158.65280097164214,186.29249358352536 158.99165022018133,186.19023968253896 159.54911188705591,186.47143770197727 159.92075299832504,186.40752911864547 161.8773341429769,187.0082684672525 162.20525277062552,185.48724177070835 162.03036283591064,185.2316051522721 162.09594656142872,185.75565963796544 162.64247760747094,186.1007674482098 164.3695157127804,186.43309255606437 165.18931228178553,186.19023968253896 166.05283133446937,186.49700112581195 169.21178078034427,186.47143770197727 169.82389555190457,186.26693011639145 171.49628055264475,186.47143770197727 172.39259146805853,186.42031083803886 172.7970244421158,186.1135492000103 173.87915591313504,186.1007674482098 173.99939274328062,186.34362050153868 175.25641414907295,186.7270716972198 176.10900258086622,186.61203646628564 176.46971307118656,186.24136664381513 176.58994990133215,185.61505987712007 176.4478518294054,185.10378664027667 176.62274176406208,184.57972932710254 177.62835888873087,183.76168409958336 180.15333232126432,184.08123367583175 181.86943980568321,183.95341394674324 183.6511310156202,183.3526594087598 186.20889631094178,181.95940866358433 188.28571428573923,181.56316010416776 186.37285562470788,181.88271549547062 183.5964779109927,183.37822349248745 181.8257173220045,183.94063196639036 180.18612418399425,184.04288777129113 177.91255503264256,183.6977740829243 177.5081220586435,183.77446609888284 176.58994990133215,184.63085696988855 176.42599058756605,185.10378664027667 176.5680886594928,185.61505987712007 176.37133748293854,185.96016808895365 176.4478518294054,186.35640222768416 176.15272506454494,186.6248181640185 174.92849552148255,186.6759449414094 173.63868225296028,186.06242218462285 172.75330195837887,186.0752039404979 172.32700774254045,186.39474739793513 171.2995293760905,186.45865598801174 170.47973280702718,186.25414838077995 167.02565659635002,186.20302142488072" stroke="#4dd2ff" stroke-linecap="round" stroke-linejoin="round" stroke-width="0.5"><title>2022-11-23 5.3km</title></polyline><polyline fill="none" points="11.714285714260768,219.31416686401644 14.341212744067889,219.63144241817645 17.276464542665053,220.43904958770145 17.658787255873904,218.73730032828462 17.572456320631318,218.33349230089516 17.19013360736426,218.1460095958173 16.57348406984238,218.20369660943106 16.03083247685572,217.75662161527725 14.698869475803804,217.7998870013398 14.402877697837539,217.95852663290862 14.452209660841618,218.10274431954895 18.64542651589727,219.5304911856074 19.952723535476252,219.68912880324933 20.64337101741694,219.2997452303971 21.506680369959213,219.44396149815293 22.55498458375223,219.25648032032768 22.76464542647591,219.55933440254012 23.356628982524853,219.64586401675479 26.760534429573454,219.55933440254012 27.611510791408364,219.8333446591132 29.054470709175803,219.76123675024428 29.52312435762724,219.42953987824148 30.731757451198064,219.4151182568021 31.015416238398757,219.73239357600687 32.4583761562244,220.0929328151542 33.70400822197553,219.77565833507106 33.67934224050259,219.1987937521917 33.864337101753335,218.91036054534197 33.72867420350667,218.18927485829045 33.96300102776149,217.64124718517996 35.035971223027445,216.79035774788645 38.772867420339026,217.15090476803016 40.82014388492098,216.7326701361162 42.26310380268842,216.11252676826552 42.571428571420256,216.67498249998607 41.375128468615,217.20859220277634 39.2291880780831,217.75662161527725 37.712230215838645,217.67009080189746 37.46557040081825,217.82873058442783 35.529290853010025,217.48260718442907 35.14696813974297,217.58355993354053 34.83864337101113,217.9873701824108 34.690647481998894,219.68912880324933 34.32065775949741,220.74190104279842 33.48201438848628,221.03033037458954 30.176772867445834,220.39578503918892 20.87769784167176,220.59768614808854 17.412127440911718,219.93429566743725" stroke="#4dd2ff" stroke-linecap="round" stroke-linejoin="round" stroke-width="0.5"><title>2022-11-18 5.5km</title></polyline><polyline fill="none" points="48.14285714284051,221.95286774875422 48.482346337346826,218.40842479655112 49.282570867217146,218.60691607954504 50.05854616896249,218.49349252523098 52.16822902049171,218.7345174633374 54.229413415596355,219.44341182796052 54.556777996069286,217.9263733139378 54.496154925611336,217.2600051740592 53.526185798458755,217.21747092499572 53.01695200667018,216.7637714281882 51.731742913252674,216.82048394929734 51.47712601738749,217.14658047987905 51.5862475442118,217.2600051740592 54.8841425764258,218.36589091192582 56.99382542795502,218.80540706854663 57.818299186066724,218.52184842280985 58.776143699127715,218.84794081369182 62.29228178499034,218.83376290014712 62.971260173944756,218.59273814049084 64.83845074370038,218.84794081369182 65.78417064266978,218.7912291505345 66.41465057531605,218.49349252523098 67.39674431650201,218.50767047477711 67.68773505470017,218.7912291505345 69.1790625876165,219.10314300088794 70.3551501542679,218.83376290014712 70.54914397973334,217.91219530289527 70.39152399660088,217.33089555922197 70.5976424360997,216.80630582128651 71.65248386183521,215.84218959666032 75.6778557394864,216.15411031067197 77.29042941331863,215.81383313209517 78.8666292448761,215.1899893940863 78.99999999994179,215.7571201850369 76.04159416211769,216.7779495607101 73.11956216668477,216.83466207579477 72.28296379448147,216.53692110380507 71.77373000275111,216.69288074305223 71.51911310688592,217.03315568964172 71.39786696597002,218.52184842280985 71.0705023855553,219.6844350577594 70.07628403027775,220.02470240900584 67.82110580964945,219.45758967702568 57.83042380010011,219.5851902509603" stroke="#4dd2ff" stroke-linecap="round" stroke-linejoin="round" stroke-width="0.5"><title>2022-11-06 5.5km</title></polyline><polyline fill="none" points="84.57142857147846,228.0735358785896 85.28294036048464,224.24218142016616 85.78848821076099,213.7548542154982 86.21914008317981,211.80621087228064 86.33148404990789,212.00326552733895 88.61581137310714,211.93758066312876 95.03814147028606,213.38264285953483 95.48751733696554,210.31734741450055 95.31900138687342,211.19315074558835 96.01178918161895,211.6967359828559 99.34466019424144,212.37547936386545 106.21636615809985,211.01799037583987 106.66574202489574,211.01799037583987 106.75936199724674,212.24410985095892 108.29472954233643,212.02516047740937 109.84882108180318,212.11274025462626 110.42926490982063,212.48495389426535 112.90083217760548,212.3973742746166 113.68723994446918,211.85000081185717 113.70596393907908,211.03988543017476 115.31622746190988,210.55819370000972 115.42857142863795,209.44154037730186 114.82940360612702,209.0693212642509 113.81830790580716,210.42682303355832 114.00554785015993,210.95230519901088 113.59361997223459,211.12746562434768 112.91955617209896,212.24410985095892 110.85991678223945,212.50684879344772 109.84882108180318,212.11274025462626 104.00693481275812,212.11274025462626 103.53883495146874,212.46305899282743 102.11581137310714,212.46305899282743 100.63661581138149,211.95947562019865 99.1948682385264,212.37547936386545 96.68585298198741,211.91568570377422 90.86269070731942,210.01081537308346 90.67545076285023,209.66049248407944 91.12482662964612,209.50722603368922 93.12829403602518,209.26637852514978 93.78363384190015,210.01081537308346 94.42024965316523,209.96702504441782 93.76490984740667,209.945129876578 93.09084604715463,209.31016900209943 92.02357836335432,209.31016900209943 90.93758668517694,209.4634355984308 90.80651872395538,210.03271053390927 96.779472954222,212.02516047740937 95.18793342576828,211.1055705792969 95.28155339800287,210.31734741450055" stroke="#4dd2ff" stroke-linecap="round" stroke-linejoin="round" stroke-width="0.5"><title>2022-11-02 5.0km</title></polyline><polyline fill="none" points="121.9501814582618,225.61974790027307 121.90267238533124,225.3281086387433 121.05938634113409,225.21700779729872 121.0,224.81426645920146 121.30880897393217,222.73110188861028 121.30880897393217,220.8145612947992 121.49884526559617,220.4118064536451 121.39194985153154,218.93965755795944 121.65324975259136,215.85642430926964 121.90267238533124,214.6897766306356 122.10458594519878,214.84255251179275 124.46816232264973,214.75922023502062 127.50874298909912,215.70364960790903 127.80567469482776,213.71756231239124 127.65127020789078,214.1758928165509 127.86506103596184,214.50922308734152 130.29990102275042,215.06477165792603 134.08874958765227,214.27311423294304 135.3714945562533,214.2453366927657 136.0960079181241,214.60644425688952 136.48795776971383,214.37033557737595 138.09138898050878,214.41200184579066 138.57835697790142,213.967560967576 139.3028703398304,214.328669295719 140.21741999336518,214.00922736384382 140.90630155062536,214.31478053225146 141.21511052455753,215.12032638570236 142.07027383701643,215.3842110215046 143.2698779280181,215.1342150639539 143.47179148794385,214.09256011662364 143.3292642692104,213.5647851220856 143.5549323655432,213.0092302041012 144.29132299567573,212.27311631652992 145.0158363576047,212.1203374452889 147.1062355657923,212.45367293516756 148.48399868025444,212.45367293516756 150.01616628171178,212.16200442779518 151.63147476071026,211.52310924259655 151.8571428571595,212.0092254272604 150.55064335203497,212.62034036270052 148.80468492244836,213.0647858017037 146.99934015172767,213.17589692637557 144.77829099306837,212.92589676365606 144.44572748267092,213.3147856999567 144.00626855820883,215.87031290968298 143.06796436815057,216.21752744216064 139.70669745962368,215.64809512697684 130.67997360607842,215.82864710406284 127.97195644996827,215.2592131022393 127.63939293962903,217.37027310514532" stroke="#4dd2ff" stroke-linecap="round" stroke-linejoin="round" stroke-width="0.5"><title>2022-10-28 6.2km</title></polyline><polyline fill="none" points="157.42857142857974,221.91008153751318 157.6217303823796,218.9455683469714 157.82696177065372,218.40912559014396 158.02012072439538,218.6067626461736 159.49295774649363,218.46559335027996 160.65191146882717,218.5926457232854 163.0905432596337,219.4255416172673 163.5855130784912,219.31260688544717 163.86317907448392,217.80209565923724 163.75452716299333,217.2938824306766 163.39235412480775,217.12447759100178 162.69215291750152,217.18094589478278 162.29376257548574,216.78566726650752 161.00201207248028,216.85625282170076 160.8209255533293,217.02565800190496 160.96579476859188,217.26564830561983 164.67203219322255,218.53617801687506 165.87927565397695,218.74793179269182 170.98591549298726,217.9997336143424 171.03420523140812,218.7055810644233 172.72434607654577,218.5926457232854 173.83501006040024,218.86086700239684 176.67203219316434,218.5079441547423 176.80482897383627,218.77616560408205 178.20523138833232,219.1290877423744 179.34004024142632,219.01615275965014 179.58148893364705,218.8185163099406 179.55734406440752,218.225605204585 179.75050301814917,217.9714996386465 179.6056338028866,217.27976536889037 179.83501006040024,216.7574330339703 180.88531187124318,215.86805165107944 183.84305835008854,216.19274712863262 185.0261569416616,216.13627840671688 186.40241448691813,215.86805165107944 187.98390342050698,215.23277560534189 188.28571428573923,215.72687945782673 186.88531187124318,216.33391882901196 185.03822937631048,216.81390149310755 183.60160965798423,216.7574330339703 183.34808853123104,216.88448703332688 181.42857142857974,216.55979323892097 181.0181086519151,216.67273030053184 180.76458752516191,217.05389217767515 180.69215291750152,218.28207304239913 180.31790744466707,219.67964441439835 179.315895372245,219.99021384277148 178.44668008049484,219.90551316126948 178.30181086517405,219.65141079419118 177.81891348096542,219.72199483356962 176.61167002015281,219.43965845201456 171.45674044266343,219.5102426033991" stroke="#4dd2ff" stroke-linecap="round" stroke-linejoin="round" stroke-width="0.5"><title>2022-10-20 5.2km</title></polyline><polyline fill="none" points="18.683381924172863,254.25629627525632 19.145189504371956,254.96812715219858 20.36268221575301,255.3117688630009 21.62215743435081,254.84539784645312 24.896793002844788,255.18903973895067 25.12769679306075,254.82085197747801 25.673469387809746,255.40995211538393 26.639067055424675,255.6554100648209 27.331778425723314,255.40995211538393 30.522448979550973,255.72904739898513 31.613994169048965,254.6981225938507 32.264723032014444,255.2872230433568 33.797084548161365,254.9190354376624 35.28746355685871,255.139948071228 37.155685131205246,254.8699437127798 37.40758017485496,256.6617849426257 37.72244897962082,256.39178235500003 37.785422740504146,254.59993904018484 38.3731778425863,254.18265847369912 41.836734693846665,255.21358556892665 42.571428571478464,256.44087375796516 42.06763848406263,254.45266363184783 40.22040816326626,250.0589042880165 37.6384839649545,250.96711834821326 36.861807580222376,252.2435212888813 34.88862973765936,252.5626209268812 33.88104956271127,252.5626209268812 33.482215743511915,252.1698828485096 27.18483965017367,252.19442899791466 26.68104956264142,251.82623648461595 23.86822157446295,252.3662519708305 23.364431486930698,251.97351356002036 29.53586005838588,251.1143959689507 29.85072886303533,251.70350551705633 29.45189504371956,252.31715970576624 26.492128279991448,251.97351356002036 24.015160349896178,252.3662519708305 23.133527696831152,252.0471520627034 27.47871720115654,251.23712724812503 29.78775510203559,251.16348848838243 29.82973760936875,251.9244212119811 29.49387755105272,252.31715970576624 26.42915451899171,251.97351356002036 23.86822157446295,252.34170583960076 23.15451895049773,252.0716982250451 24.896793002844788,251.75259791189455 25.442565597593784,252.09624438484025 29.409912536502816,252.4398903488036 29.78775510203559,252.14533669649973 29.80874635570217,251.16348848838243 28.381341107888147,251.04075717029627 21.496209912467748,252.46443646958505 18.368513119523413,251.89987503401062 12.008163265301846,249.76434761309065 11.714285714318976,249.37160479824524 12.176093294401653,249.07704725087387 14.401166180730797,249.0525007716642" stroke="#4dd2ff" stroke-linecap="round" stroke-linejoin="round" stroke-width="0.5"><title>2022-09-24 5.1km</title></polyline><polyline fill="none" points="76.1948051948566,258.34764740406536 77.4144551102072,257.5633023120463 78.81705251266249,252.286775248067 73.14568040636368,248.86414101801347 68.45002823253162,254.42591281834757 68.45002823253162,257.99112702097045 70.950310559012,259.0606876053498 76.1338226988446,259.13199158391217 77.47543760575354,258.2763433425571 79.0,252.00155639246805 73.63354037282988,248.65022580185905 68.5719932243228,254.49721728725126 68.69395821564831,258.63286357506877 72.04799548257142,258.775471615314 73.08469791081734,259.48851136420853 71.98701298702508,260.55806957324967 49.54545454541221,261.84153718478046 48.63071710895747,262.5545736909844 50.2162619989831,261.3424111818895 73.7555053641554,261.9128408692777 77.3534726141952,261.0571961568203 63.449463579803705,260.55806957324967 64.60813099937513,243.58754587190924 63.93732354603708,243.44493461947422 61.437041219789535,260.8432848090888 48.14285714295693,260.7006772062159 48.32580463006161,261.48501864873106 77.47543760575354,261.84153718478046 75.21908526238985,260.55806957324967 72.71880293614231,261.1284999244381 63.388481084257364,260.34415806713514 64.36420101649128,243.15971202327637 62.04686617711559,260.34415806713514 60.03444381710142,261.1284999244381 49.91134952008724,260.7006772062159 49.7893845285289,261.48501864873106 78.93901750422083,262.1980555320042 70.76736307167448,261.9128408692777 76.987577639753,261.84153718478046 76.987577639753,260.9145885994076 73.38961038948037,260.6293733935454" stroke="#4dd2ff" stroke-linecap="round" stroke-linejoin="round" stroke-width="0.5"><title>2022-09-22 5.0km</title></polyline><polyline fill="none" points="98.68453105981462,255.23044903708796 99.90603793296032,255.05465168580122 100.80807377782185,255.64796715007105 101.87924134347122,255.4941447850142 104.19070819567423,255.86771318830142 105.41221506893635,255.31834765692474 105.37463024200406,254.9228035746928 105.63772403006442,254.85687948786654 106.08874195255339,255.6259925334889 108.26866191066802,255.36229695288057 109.0579432748491,255.6699417643831 110.71167565695941,254.85687948786654 110.73046807048377,255.56006866969983 111.03114668536,255.84573859491502 111.2190708196722,254.68108182042488 111.59491908841301,254.43935978479567 114.88359143922571,255.31834765692474 115.42857142863795,256.3511536541628 114.45136593014468,253.12087100282952 113.30502871074714,250.68164469381736 111.65129632863682,251.2749726484035 111.14390116604045,250.92337110210792 109.0579432748491,250.61571926086617 106.5209674614016,252.615448084136 102.87523925548885,252.68137288243452 102.40542891947553,251.6924987117236 99.1919262225274,252.15397391053557 98.0643814165378,252.41767356389028 99.3798503568396,253.01099655989674 104.79206542554311,252.9670467664546 105.63772403006442,252.615448084136 107.1787019316107,252.615448084136 108.13711501669604,252.9670467664546 110.0915260136826,252.74729765974917 110.44858186901547,251.8243488731532 109.8096398122143,251.25299756924505 108.71967983304057,251.14312213826634 107.06594745104667,252.0440989562194 105.97598747187294,251.25299756924505 104.49138681066688,251.67052367671567 102.63093788072001,251.6265735996567 102.59335305390414,252.72532273632532 101.0711675658822,252.46162347352947 98.74090830015484,252.8351973303361 97.55698625382502,252.46162347352947 96.748912476236,252.79124749969924 95.41465112240985,252.74729765974917 87.70976161491126,250.4179428366042 88.16077953728382,249.71473624744976 86.92048025061376,249.36313206014165 86.18757612677291,249.89053811787744 84.57142857147846,249.6048600028298 84.87210718647111,249.86856289225398 87.6909692013869,250.19819103322516 90.24673742835876,249.75868672902288 91.05481120594777,250.50584349285054 92.06960153137334,250.3300421431777 92.65216634771787,250.54979380698933 92.27631807920989,253.84604086853506 91.75013050297275,253.84604086853506 92.91526013589464,254.3514607930265 92.21994083886966,254.43935978479567 92.0508091179654,255.1205757099233" stroke="#4dd2ff" stroke-linecap="round" stroke-linejoin="round" stroke-width="0.5"><title>2022-09-09 5.2km</title></polyline></svg>