<?xml version="1.0" encoding="utf-8" ?>
<svg baseProfile="full" height="300mm" version="1.1" viewBox="0,0,200,300" width="200mm" xmlns="http://www.w3.org/2000/svg" xmlns:ev="http://www.w3.org/2001/xml-events" xmlns:xlink="http://www.w3.org/1999/xlink"><defs /><rect fill="#222222" height="300" width="200" x="0" y="0" /><text fill="#FFFFFF" style="font-size:12px; font-family:Arial; font-weight:bold;" x="10" y="20">Over 5km Runs</text><text fill="#FFFFFF" style="font-size:4px; font-family:Arial" x="10" y="280">ATHLETE</text><text fill="#FFFFFF" style="font-size:9px; font-family:Arial" x="10" y="290">fengde</text><text fill="#FFFFFF" style="font-size:4px; font-family:Arial" x="120" y="280">STATISTICS</text><text fill="#FFFFFF" style="font-size:3px; font-family:Arial" x="120" y="285">Number: 39</text><text fill="#FFFFFF" style="font-size:3px; font-family:Arial" x="120" y="290">Weekly: 1.6</text><text fill="#FFFFFF" style="font-size:3px; font-family:Arial" x="141" y="285">Total: 237.7 km</text><text fill="#FFFFFF" style="font-size:3px; font-family:Arial" x="141" y="290">Avg: 6.1 km</text><text fill="#FFFFFF" style="font-size:3px; font-family:Arial" x="167" y="285">Min: 5.0 km</text><text fill="#FFFFFF" style="font-size:3px; font-family:Arial" x="167" y="290">Max: 10.0 km</text><polyline fill="none" points="25.681915957742603,41.70439563605032 25.697239911824,41.90148336359562 25.337126990343677,42.34940831192944 25.39076082970132,42.922748790129845 25.82749352173414,44.64274694559572 25.973071085725678,46.28208768815966 26.340845984290354,46.60457721554121 26.486423548310995,47.76015460976487 26.884846355067566,48.906758463563165 26.66264902052353,49.58754716107069 26.877184377983212,50.09813509498781 26.80056460745982,50.5728895365537 26.94614217148046,51.03868376225728 27.122367643692996,51.14617437386187 27.283269161824137,52.49875291790522 27.413522771705175,52.722687680063245 27.321579047071282,54.44248693171539 27.559100335725816,55.31133057650004 27.965185119508533,55.347158989192394 28.14141059172107,57.165431045687 27.727663830883102,57.88198074747925 27.98050907358993,58.14172851849435 27.988171050674282,58.5 27.949861165427137,57.38039659226342 28.14141059172107,57.21917248344835 28.00349500478478,55.347158989192394 27.57442428980721,55.30237347094953 27.30625509293168,54.03941211324127 27.451832656923216,53.83339535460982 27.45949463400757,52.71373030093673 27.329241024097428,52.57041210614989 27.18366346010589,50.92223544586159 27.59741022097296,50.13396571165504 27.260283230658388,47.69744926407293 26.440451685979497,44.88461888587335 26.517071456473786,44.821911412102054 25.86580340701039,41.85669073849567 24.954028137697605,41.22959150059614 25.107267678744392,40.69207417348662 25.0459718623315,40.047048879067006 24.249126248789253,39.43785381360067 24.111210661852965,39.187007513290155 23.850703442061786,37.34147261079488 23.659154015709646,37.018947820834 23.421632727084216,35.75571390246478 21.858589408249827,32.07341391714726 22.027152903436217,32.0644543545568 21.87391336238943,31.5 22.12675860512536,31.98381824851822 22.218702329759253,32.709540439071134 22.12675860512536,32.93352751365455 22.70906886117882,34.02657593906042 23.52123842877336,36.07824350237934 23.46760458938661,36.33805812027276 23.82771751092514,37.33251360544091 24.126534615963465,39.267636762248 25.053633839357644,40.06496631469781 25.099605701718247,40.701032823562855 24.931042206531856,41.25646727743879 25.750873751210747,41.76710541728971 25.329465013288427,42.34044983615604 25.429070714948466,42.68087124905287 25.750873751210747,42.74358030749136 25.796845613513142,43.12879207674996 25.635944095411105,43.352751602535136 25.429070714948466,43.06608330340532 25.344788967369823,42.34044983615604 25.70490188887925,41.92835892727453 25.712563865905395,41.65960290678777 24.83909848186886,41.21167431130743" stroke="#4dd2ff" stroke-linecap="round" stroke-linejoin="round" stroke-width="0.5"><title>2023-06-04 8.0km</title></polyline><polyline fill="none" points="75.8229121118784,55.417017308660434 74.20550940092653,55.458433292777045 73.50896370789269,55.92781352766906 72.63533012679545,55.80356598277285 72.28115435061045,56.03825569055334 70.86445124621969,55.78976069269993 70.40402273723157,55.29276927738101 69.24704853515141,53.09770121812471 68.07826847396791,51.84138778998749 67.1337997376686,51.51005036463903 64.9261040664278,51.30296404658293 63.17883690423332,50.4055862036912 62.62396152166184,49.14924685511505 62.48229121119948,47.934313781850506 61.96283340617083,47.31303681587451 61.01836466987152,47.10594383649004 57.736335811147,47.644384899234865 57.07520769565599,47.326843002825626 55.50502842152491,45.98763606759894 55.11543506773887,45.90479807379597 55.28071709664073,45.26970504040946 54.17096633143956,43.11588825476065 54.088325317017734,42.45316824398469 53.78137297765352,42.190840643059346 53.533449934388045,41.44527510770422 52.77787494531367,41.141524964317796 52.400087450805586,40.38214651160524 52.836904241354205,40.20265641325386 50.27503279404482,36.28142647961795 49.106252732803114,33.809886488175835 49.0,33.906539769945084 50.322256230865605,36.405692616986926 53.39177962398389,41.10010443540523 53.28552689112257,41.29340012438479 54.100131176179275,42.563621812922065 54.13554875383852,43.26776111642539 54.45430695230607,43.474860188303865 55.25710537820123,45.29731784528121 55.11543506773887,45.94621707723127 55.54044599912595,46.04286136760493 55.74114560557064,46.41563153115567 57.78355924790958,47.63057874588412 60.84127678180812,47.11975004532724 61.97463926539058,47.34064918832155 62.541320507240016,48.113793243494 62.61215566244209,49.232082789065316 63.072584171372,50.364168615764356 65.00874508090783,51.358187096891925 66.9331001311657,51.496244620357174 68.11368605156895,51.88280490897887 69.53038915607613,53.55328441786696 70.85264538694173,55.77595540114271 72.06864888500422,55.941618803175515 72.19851333624683,56.190113511824165 72.96589418448275,55.72073422042013 74.28815041540656,55.44462796625157 75.84652383031789,55.44462796625157 76.0,55.251353240717435" stroke="#4dd2ff" stroke-linecap="round" stroke-linejoin="round" stroke-width="0.5"><title>2023-06-01 6.5km</title></polyline><polyline fill="none" points="113.5,57.618194316732115 111.87768240342848,57.904260790979606 111.10515021457104,57.70853116021317 110.59012875537155,57.196621622511884 108.82618025748525,54.140182241550065 108.09227467805613,53.53792043462454 107.06223175959894,53.08622240681143 104.71888412017142,52.8152029018529 102.78755364805693,51.85157381526369 102.16952789702918,50.677142043350614 102.0150214592577,49.246731280349195 101.37124463520013,48.55410616514564 100.28969957079971,48.343306547860266 96.68454935622867,48.87030500557739 94.62446351937251,47.560333806686685 94.34120171674294,46.82252862706082 94.0836909871432,46.65689836704405 94.13519313302822,46.340694608021295 93.23390557937091,44.29288182372693 92.87339055794291,44.08207589338417 92.88626609439962,43.35931033238012 92.47424892708659,42.90757999231573 92.30686695274198,42.18480846498278 92.03648068674374,42.01917280622001 92.10085836908547,41.71801656890602 90.00214592274278,38.1944412306766 88.86909871245734,36.71872990473639 87.15665236057248,33.36067667452153 86.70600858371472,32.96914961337461 86.5,32.09573920900584 86.65450643771328,32.878797061610385 87.1952789700008,33.39079409613623 88.77896995708579,36.688613187667215 92.10085836908547,41.6577852449409 91.9592274678289,41.97399941121694 92.860515021428,43.34425267750339 92.87339055794291,44.12724861902825 93.24678111588582,44.35311203218589 94.12231759657152,46.340694608021295 94.01931330474326,46.61172644450562 94.37982832617126,46.83758591384685 94.61158798279939,47.50010495581955 96.25965665234253,48.6444487626577 97.03218884125818,48.91547621112841 100.2639484978863,48.35836367376032 101.30686695280019,48.478820623407955 101.92489270382794,49.14133202377707 102.14377682405757,50.73736954946071 102.68454935628688,51.89674407450366 104.4871244635433,52.8152029018529 107.19098712445702,53.131392274051905 108.19527896994259,53.552977010869654 109.41845493559958,54.95323163794819 111.01502145919949,57.63325046132377 111.3755364806857,57.88920467509888 112.40557939914288,57.88920467509888" stroke="#4dd2ff" stroke-linecap="round" stroke-linejoin="round" stroke-width="0.5"><title>2023-05-26 6.2km</title></polyline><polyline fill="none" points="124.0,48.76113778724539 125.0322496748704,49.23739935003687 126.61222366709262,49.385204068457824 126.75968790636398,49.574065243483346 128.45903771129088,49.401626797553035 128.73992197657935,49.67260132631054 129.8564369310916,49.565853897613124 129.68790637192433,49.68902399462968 129.92665799739189,49.98463143000117 130.28478543562233,49.779348608215514 130.62184655395686,49.787559931501164 130.8886866059911,49.79577125392825 131.0501950585167,49.96820882424072 131.5979193757812,50.13243472552858 132.39843953188392,50.13243472552858 132.62314694406814,49.90251836641983 132.60208062417223,49.147074105807405 132.71443433032255,48.83504063509463 133.2762028608704,48.31771922245389 133.7817945383431,48.27666181977838 135.00364109230577,48.49016007643513 136.30975292588118,48.35877660338883 137.1804941482842,48.05495147014153 139.02028608584078,47.08598769493983 141.78699609884643,46.69182947761874 143.94278283487074,45.64894287267816 144.20962288687588,45.139812037785305 143.9989596879168,44.02299721694726 143.5635890767153,43.23464766665711 143.1703511053347,42.14244182665425 142.42600780233624,41.690773264475865 142.53133940181579,41.403346446975775 143.3529258777562,41.86322884393303 144.09726918075467,41.871441004834196 144.69414824448177,42.07674474464875 146.87802340701455,44.48286408960121 147.25019505852833,44.655313464325445 147.5591677503253,44.56498288724106 148.23328998702345,43.86697033744713 149.0057217165304,42.70086477819859 150.17841352405958,41.493680704341386 151.0,39.27635490677494 150.48738621588564,40.7545791453158 149.98179453835473,41.75647067325917 149.0267880364263,42.63516816894844 148.22626788038178,43.83412253339338 147.51703511056257,44.58140663636732 147.19401820545318,44.655313464325445 146.5901170351135,44.23650717529381 144.6871261378401,42.06853260547359 144.0691807542171,41.86322884393303 143.3318595578603,41.83859235602722 142.56644993499503,41.37049760004447 142.51027308194898,41.551166086086596 143.1703511053347,42.18350247469061 143.97087126137922,44.03942108074989 144.18855656695087,45.148023851943435 143.77425227567437,45.78854267943825 142.1591677503311,46.57686628717056 140.93029908972676,46.85606231143174 140.62834850454237,46.782157579225895 139.54694408320938,46.92996697326453 138.7394018205814,47.151680536531785 137.5456436930981,47.866086598689435 137.58777633288992,48.2356043954278 136.26762028608937,48.73650348899537 135.7058517555124,48.83504063509463 134.87724317298853,48.79398350609699 134.7648894668382,48.88430916121433 133.458777633321,48.73650348899537 133.2762028608704,48.933577656091074 133.17087126139086,49.91072967670334 132.91807542263996,50.53478671524499 132.2439531859418,50.72364509322506 131.00806241872488,50.40340670302976" stroke="#4dd2ff" stroke-linecap="round" stroke-linejoin="round" stroke-width="0.5"><title>2023-05-21 9.9km</title></polyline><polyline fill="none" points="188.5,48.62927641313581 187.81932773115113,48.97040065689362 186.4903961584787,49.00830331057659 184.88595438183984,48.553470937447855 184.61044417775702,49.00830331057659 183.63805522210896,48.97040065689362 181.56362545024604,47.87122021231335 180.33193277317332,47.98492884694133 179.18127250904217,47.226869919366436 175.61584633856546,47.473239422703045 174.5462184874923,47.321627460740274 173.91416566632688,47.83331731805811 169.95978391362587,49.36837812034355 169.29531812726054,48.91354666140978 169.00360144063598,47.549045355583075 165.956782713125,43.872420658532064 165.45438175275922,43.51233480090741 161.87274909968255,43.07644042580796 165.79471788718365,43.70185376358859 169.1008403362357,47.79541441582842 169.2791116447188,49.04620595621236 169.92737094842596,49.36837812034355 173.73589435772737,47.965977412837674 173.99519807926845,47.53009387537895 172.6338535414543,47.41638495202642 171.4021608644398,46.866790804910124 170.67286914773285,47.1321123278467 170.25150060030865,48.06073456327431 170.8997599040158,48.38290849972691 170.49459783919156,48.72403321265301 170.67286914773285,49.06515727605438 170.2352941177087,49.349426832588506 169.7004801922012,49.23571906406141 169.3115246098605,49.02725463436218 169.2466986795189,48.06073456327431 168.8577430972946,47.37848196148116 168.06362545024604,46.715178329715854 167.10744297725614,45.12323959208152 165.64885954384226,43.53128670626029 162.4561824729899,43.114344326619175 165.58403361350065,43.53128670626029 168.93877551023616,47.49219090890256 169.39255702286027,48.667179138967185 168.8577430972946,48.38290849972691 167.156062425056,45.16114305978408 165.69747899158392,43.58814241003711 161.5,43.05748847240466 161.80792316934094,40.631621879671 165.82713085232535,40.745335110186716 166.60504201689037,41.18123515821935" stroke="#4dd2ff" stroke-linecap="round" stroke-linejoin="round" stroke-width="0.5"><title>2023-05-19 5.4km</title></polyline><polyline fill="none" points="11.5,74.7164661706338 14.150375939847436,74.75603090957884 18.424812030105386,76.04847214277834 19.969924812030513,76.33861016987794 29.206766917312052,76.21991742223327 31.71052631578641,76.81338003047858 32.860902255633846,76.39136246587441 33.30075187975308,73.8328503964658 33.59398496244103,73.58227164897107 35.691729323298205,73.8592270774243 35.860902255633846,73.661401834157 37.80075187975308,73.63502511137631 38.466165413556155,73.43719951230014 38.5,73.18661996951414 37.30451127822744,73.70096690794162 35.872180451173335,73.6877785514007 35.64661654137308,73.8328503964658 33.56015037599718,73.60864838293492 33.24436090228846,73.93835708684492 32.81578947370872,76.41773860555986 31.823308270715643,76.76062791306322 29.015037594013847,76.16716505365912 20.567669172945898,76.36498632068106 18.278195488732308,75.96934347275965 14.060150375938974,74.7164661706338 11.917293233098462,74.78240739519242" stroke="#4dd2ff" stroke-linecap="round" stroke-linejoin="round" stroke-width="0.5"><title>2023-05-17 5.0km</title></polyline><polyline fill="none" points="51.75912408763543,77.45126765682653 52.61015262111323,77.92265003185457 53.07597876578802,77.72362219164643 54.43762441939907,77.92265003185457 54.82282680826029,77.67124637778761 54.85865958861541,77.35699091257266 56.79362972796662,77.27318928674504 60.699402787024155,77.22081323460588 62.75082946254406,77.6502960444268 63.48540145991137,77.4093668926871 63.80789648310747,75.51333876167337 64.09455872600665,75.10479755939014 64.97246184473624,75.26192899051966 65.85932315862738,75.16765016175486 67.13138686132152,75.29335524681665 69.60384870605776,74.42389180975442 71.61944260122254,73.38681097867811 73.60816191107733,73.2506278404544 75.51625746523496,72.69541772310185 76.0,72.47542794749461 75.82979429332772,72.55923363391776 75.73125414730748,72.07734996814543 75.49834107497009,72.27638915788702 74.5935633709887,72.52780650982459 71.1088254810893,73.02016364139126 68.7976111479802,74.25628352245258 67.42700729926582,74.68577919066593 65.99369608494453,74.79053394906805 64.47080291970633,74.53912234269228 63.86164565366926,74.58102432142914 63.100199071050156,75.25145356955181 62.90311877906788,76.83322958769713 61.68480424687732,77.03225921748526 61.7385534173809,76.91703158582823 61.371267418784555,76.70752645747416 61.11147976113716,76.14186039681226 60.61877903121058,75.92187827832822 60.000663570011966,76.06853307828715 59.59754479100229,76.64467483254703 58.95255474455189,76.74942751861818 58.41506303916685,76.75990278113022 58.15527538151946,76.59229844793299 56.13968148641288,76.6341995578332 55.95155938953394,76.17328637385071 55.844061048468575,76.17328637385071 53.10285335103981,76.72847699025442 51.30225613806397,76.3827926325248 49.02687458531,75.56571571694076 49.0,75.38763395587011 49.42999336431967,75.30383066334616" stroke="#4dd2ff" stroke-linecap="round" stroke-linejoin="round" stroke-width="0.5"><title>2023-05-14 6.3km</title></polyline><polyline fill="none" points="86.8776937618386,80.75332964488916 87.20434782613302,78.73616817298898 86.5,78.4735764533907 86.89810964080971,78.39002441448247 87.01039697544184,78.18711206242006 87.21455576561857,76.27733087239903 87.08185255201533,76.15796847490856 87.43913043482462,76.16990472034377 87.63308128545759,72.25474850706087 87.78620037809014,71.93245825514168 90.1544423440937,72.09957183402003 92.6962192817009,73.0186920937631 92.92079395084875,72.95900918731786 93.17599243862787,72.46960816358478 95.1461247637053,72.91126283940685 96.25879017013358,72.98288235368818 103.64933837432181,72.83964327967988 105.87466918717837,73.34097924314847 106.77296786388615,73.0186920937631 107.15066162572475,70.76265627289831 107.39565217396012,70.48810915247304 109.34536862006644,70.63135121169762 111.13175803405466,70.54779336594947 113.5,69.72414843213483 113.28563327033771,69.24667035511811 111.92797731567407,69.80770688786288 110.83572778827511,70.03450809862261 109.47807183366967,70.08225566385227 107.27315689984243,69.80770688786288 106.34423440456158,70.54779336594947 106.1502835538704,71.1088234290437 106.28298676747363,71.56242016401666 106.09924385638442,72.33830508879328 105.12948960304493,72.5770378384259 104.08827977319015,72.29055847824202 103.7207939508371,71.9921417045698 102.83270321367308,71.9921417045698 102.42438563331962,72.24281184745632 101.47504725895124,72.32636843804357 100.5665406427579,72.15925519503071 99.01493383746129,72.23087518662214 97.3408317581052,72.06376180223015 96.18733459356008,72.23087518662214 95.50340264651459,72.05182512245665 94.58468809071928,72.23087518662214 93.16578449908411,71.93245825514168 92.71663516073022,71.52660996173654 92.68601134215714,70.96558197597915 92.26748582231812,70.9417083828157 92.81871455581859,71.06107629822509" stroke="#4dd2ff" stroke-linecap="round" stroke-linejoin="round" stroke-width="0.5"><title>2023-05-12 6.0km</title></polyline><polyline fill="none" points="131.05365607858403,88.35563351665041 131.3287759810337,88.3445283943147 130.59828520554584,87.94474320396694 130.80699685565196,88.00026901623642 130.94930025353096,87.80037595404428 130.88289200118743,88.31121302016254 131.05365607858403,88.20016169633163 131.69876481534448,88.5 132.249004620302,88.47778978475253 132.41028180450667,87.70042927964096 132.3343866590294,86.43442980173131 132.71386238653213,85.9013728042919 132.68540170695633,85.623737875183 135.00969053810695,83.8690680706859 135.711720634019,83.18051871030184 136.5370803414262,82.02552250371082 137.15372839861084,80.19305041840562 137.36244004877517,76.25035006396502 137.55217791249743,76.05043453563121 137.5426910193637,75.12859687567834 137.95062742644222,73.81801849725889 139.174436647736,71.76326508170314 141.30898761510616,69.7528996740075 142.14383421564708,68.44225388984341 143.07354974810733,64.15477234565333 144.40171479451237,61.5 143.11149732087506,64.0103722370186 142.36203275900334,67.5981004455316 141.9540963518666,68.77547047781991 141.10027596494183,69.98614847219869 139.66775509354193,71.20791938700859 138.79496092023328,72.2519668523164 138.0265225719195,73.56256486586062 137.6280730580329,74.89535955263273 137.52371723297983,75.47289863955666 137.63755995122483,76.10596666519996 138.76650024065748,76.03932810619153 140.11363907332998,76.18371159697563 140.82515606249217,76.02822167558043 141.76435848808615,76.19481801109214 142.45690169086447,76.10596666519996 142.750995379698,76.26145647095836 142.87432499113493,76.77234991874866 142.74150848650606,77.28324086971406 140.84412984887604,79.04912731822697 140.4931148008909,79.65996159899805 140.3508114030701,80.55954740497691 140.67336577142123,81.85893545950239 137.36244004877517,86.22342839852354 135.92991917737527,87.82258631316654 135.70223374082707,87.82258631316654 132.732836172916,85.84584587741847 132.35336044535507,86.51216705346451 132.48617694998393,87.58937730717298" stroke="#4dd2ff" stroke-linecap="round" stroke-linejoin="round" stroke-width="0.5"><title>2023-05-09 7.6km</title></polyline><polyline fill="none" points="173.94451972824754,88.5 174.1483366083121,86.5253742155619 173.81349459115881,85.45293799169303 171.9354676247458,84.8571370018326 168.38323057221714,84.38049462188792 168.29588048078585,83.54636706043675 168.54337240656605,81.62275028511067 170.01376561279176,81.65679679957975 169.54789845831692,81.55465723454836 169.4023149725981,80.26088379997236 169.05291460675653,80.58432813371473 168.52881405805238,80.22683699020126 168.57248910376802,69.92734635573288 168.76174763520248,69.43363520609273 168.29588048078585,69.67197870883683 167.6844298405922,69.33148788248945 168.6743975437712,67.54389922301925 168.73263093811693,66.33513754123123 169.30040653253673,66.04571438264975 169.54789845831692,69.2293404940574 169.09658965247218,70.60832476618816 169.21305644110544,71.93622437746671 169.38775662396802,72.22563694084238 170.49419111578027,72.1064671248314 171.25122524169274,71.4765680598357 170.82903313299175,68.9739717393677 171.51327551610302,67.95249266753672 171.4550421217573,67.45877545815893 170.9600582701969,67.56092397061002 169.95553221844602,67.0672055597388 170.29037423571572,66.55646078179416 170.93094157305313,66.57348563388223 171.7898841390852,66.99910634967091 172.1101678077248,66.8118333734601 172.22663459635805,67.01613115487271 173.20204395084875,64.58156571917061 173.10013551090378,63.11740373156499 172.69250175071647,61.90860879354295 172.357659733505,61.5 171.6006256075343,61.891583447824814 171.2803419388947,62.55557059420971 171.71709239616757,62.04481149405183 171.58606725896243,62.725823267232045 171.87723423045827,63.16847937401326 172.21207624772796,63.25360540873953 172.69250175071647,62.79392428601568 172.98366872227052,62.87905051896814 173.18748560227687,63.71328521810938 173.10013551090378,65.0412417344487 172.1101678077248,66.98208154267923 169.50422341265948,69.34851244089077 169.12570634967415,70.55725148538477 169.34408157825237,72.27670969208702 169.86818212707294,72.61719428631477 171.70253404753748,72.4469520792627 172.72161844791844,72.61719428631477 173.5660026653204,73.21304059261456 174.70155385421822,73.19601644303475 176.30297219753265,74.06424577436701 177.87527384376153,74.28555838404282 180.5103349359706,74.06424577436701 180.94708539324347,74.52389470030903 182.25733676512027,74.57496672208072 182.3155701594078,75.98795289857662 182.02440318791196,77.14557088144647 181.7332362163579,77.07747593650129 181.45662759343395,77.67330572784704 181.67500282207038,78.71174666276784 181.15090227330802,81.35037791002833" stroke="#4dd2ff" stroke-linecap="round" stroke-linejoin="round" stroke-width="0.5"><title>2023-05-06 6.0km</title></polyline><polyline fill="none" points="18.542842030525208,118.48883518038201 18.237629246141296,118.31019790533901 18.580993628595024,118.01991168599488 19.32494979049079,118.5 19.630162574874703,118.4665055376172 19.763693168060854,117.69612995725038 19.64923837390961,116.55730354105617 20.040292253892403,115.89856498214795 19.99260275636334,115.68642795733467 22.319850237166975,113.93348984222393 23.769610963005107,112.19168798450846 24.48495342634851,110.19304644649674 24.704325115133543,106.15098483863403 24.904621004825458,105.91649583106482 24.84739360777894,105.3581865644228 25.209833789267577,103.99589950602967 26.20177533844253,102.17576710690628 28.67209131200798,99.69676306987094 29.61634336365387,98.08872917995177 30.43660272168927,94.13554125385417 31.762370753800496,91.5 30.407989023136906,94.202545678163 29.66403286124114,97.86538919340092 29.311130579328164,98.7252455372145 28.452719623222947,99.94243274722248 26.211313238018192,102.11993432638701 25.25752328679664,103.83957035341882 24.84739360777894,105.34702034883958 24.971386301447637,105.73783718843333 24.694787215674296,106.26264608688507 24.55171872297069,109.85807487252896 23.864989958063234,112.04653652687557 23.378557083022315,112.81695351059898 22.50107032788219,113.76601014851622 20.049830153409857,115.67526283892221 19.71600367053179,115.55244645797211" stroke="#4dd2ff" stroke-linecap="round" stroke-linejoin="round" stroke-width="0.5"><title>2023-05-04 6.1km</title></polyline><polyline fill="none" points="49.820330082497094,110.08631591555604 50.09377344336826,107.04291295647272 50.17479369841749,106.8297532289871 50.39759939984651,106.80606878973776 50.18492123024771,106.71133098277642 50.13428357086377,106.24948302568373 50.40772693173494,102.7085853888857 50.640660165052395,102.56647344709927 51.491372843214776,102.73227069498535 52.787696924235206,102.7085853888857 54.539759940002114,103.34808689445344 55.29932483116863,103.45467012354493 55.552513128262945,102.00986660464696 55.38034508621786,101.59537034973619 54.62078019505134,101.61905589134403 54.246061515354086,101.21640100210789 53.12190547637874,101.27561504726327 52.69654913729755,101.08612999255274 52.16991747939028,101.28745785251522 51.481245311384555,101.28745785251522 50.19504876219435,100.62425882802927 49.58739684917964,100.74268751341151 49.0,100.4939871293609 49.01012753188843,100.99138734491862 49.648162040510215,101.09797281785723 49.75956489122473,100.64794457514654 50.245686421578284,100.68347318637097 51.359714928781614,101.28745785251522 52.26106526632793,101.45325699471869 52.85858964745421,101.29930065650842 53.21305326325819,101.66642695957125 55.91710427607177,102.62568677810486 57.18304576142691,102.89806769731513 57.547636909235734,102.94543822430569 58.08439609903144,102.69674273396959 58.85408852214459,102.89806769731513 59.81620405102149,102.69674273396959 60.292198049486615,102.80332658316911 60.69729932479095,102.63752944052976 61.15303825959563,102.83885451038077 63.30007501877844,102.7677986447161 63.98874718678417,102.98096610642096 65.02175543888006,102.89806769731513 65.40660165040754,102.62568677810486 66.32820705173071,102.62568677810486 66.6421605400974,102.90991033095634 67.80682670668466,103.18229055862321 68.70817704428919,103.00465135485865 68.86009002249921,102.12829382420023 68.72843210800784,101.79669729382294 68.92085521377157,101.24008662391861 69.8222055513761,100.45845845794975 73.13390847714618,100.70715892095905 74.54163540888112,100.4347726707565 75.77719429857098,99.91368408445123 76.0,100.35187237609352 75.00750187551603,100.8255875186369 73.26556639163755,101.25192943293223 71.8578394599026,101.32298626079864 69.95386346586747,101.14534410658234 69.68042010505451,101.50062813310069 69.58927231805865,102.69674273396959 69.32595648913411,103.64415116920281 68.33345836465014,103.98758474692295 66.21680420107441,103.47835527179996 58.671792948269285,103.6323086132179 56.91972993250238,103.37177206525666" stroke="#4dd2ff" stroke-linecap="round" stroke-linejoin="round" stroke-width="0.5"><title>2023-04-26 7.0km</title></polyline><polyline fill="none" points="86.5,107.8816031635215 86.878151260491,107.10041524880216 86.70168067223858,106.5550550519838 86.73949579824694,104.68312678759685 86.878151260491,104.25567507422238 87.16806722682668,104.10827762763074 90.67226890753955,104.4325518043479 92.71428571426077,105.2874528344546 93.30672268901253,105.22849431114446 94.31512605038006,105.52328667828988 94.79411764704855,105.86229712955537 95.23529411759228,105.75912012303888 96.00420168059645,106.02443227119511 97.99579831928713,105.89177626025048 98.89075630251318,106.45187855842232 99.57142857142026,106.18656722415471 100.39075630245497,106.45187855842232 101.10924369742861,106.30448343507305 101.6890756302164,105.92125538468827 102.19327731087105,106.36344150311197 103.54201680672122,106.15708815582911 104.13445378147298,106.2897439141816 105.88655462185852,105.52328667828988 106.63025210087653,105.59698467268026 107.91596638655756,106.11286954164098 108.30672268907074,105.62646385945845 109.20168067223858,105.75912012303888 110.3991596638225,105.31693208677461 110.66386554623023,104.594688609679 110.85294117644662,102.6932542064169 111.09243697475176,102.31001622333133 111.68487394956173,102.11839683649305 112.56722689070739,102.38371591737086 113.5,102.38371591737086 111.5210084033315,102.13313679870043 111.07983193278778,102.28053633484524 110.81512605038006,102.61955467615917 110.3991596638225,105.3464113328373 109.10084033611929,105.78859927556186 106.22689075628296,105.11057718961092 96.2436974789598,105.2874528344546 94.79411764704855,105.05161859143118 89.65126050414983,103.50394646626955 87.39495798316784,103.57764552872686 89.57563025207492,103.71030374293332 89.72689075628296,103.5629057193728 90.10504201677395,103.72504353668774" stroke="#4dd2ff" stroke-linecap="round" stroke-linejoin="round" stroke-width="0.5"><title>2023-04-20 5.0km</title></polyline><polyline fill="none" points="130.18024633004097,117.61733862921392 130.31818138668314,118.3815946527684 130.18944200052647,118.06943443788623 130.28139870491577,118.23089673802315 131.29292245325632,118.5 131.95501072495244,118.16631184885046 132.2952505311696,117.35899726173375 132.39640290598618,117.31594030313136 132.5803163148812,117.60657441870717 132.98492581414757,117.57428178036207 133.2516002569464,117.0575981674483 133.14125221164431,115.65823348906997 133.52747037011432,115.00160186468565 133.42631799523951,114.84013442014111 136.23099747934612,112.60109267281223 137.15976019378286,111.36313970170158 137.803457124508,109.31779296459717 137.95978352200473,105.96979421174183 138.03334888553945,105.54994090312539 138.20806662383256,105.44228592836589 138.09771857858868,105.02243043397175 138.3827843622421,103.82744758134504 139.4402864627773,101.84654405961192 140.22191845014459,100.92067369736469 141.61966035695514,99.67181189817347 142.44727069651708,98.49829841942119 142.77831483236514,97.7015934482406 143.61512084235437,93.72874135125312 144.81975366995903,91.5 143.54155547881965,94.12711024314922 142.84268452547258,97.51856574551493 142.48405337834265,98.50906465992011 141.3621815847,100.00556095527281 139.58741718978854,101.63122612574807 138.48393673705868,103.62289955424785 138.16208827169612,104.94707157133962 138.21726229431806,105.54994090312539 138.01495754462667,105.81907783957286 137.803457124508,109.70533551624976 137.18734720506473,111.41696405835683 135.78040962782688,113.13932837834 133.5366660405416,114.8508989244292 133.57344872230897,115.03389532274014 133.30677427956834,115.4752382180668" stroke="#4dd2ff" stroke-linecap="round" stroke-linejoin="round" stroke-width="0.5"><title>2023-04-17 6.5km</title></polyline><polyline fill="none" points="161.65612952964148,111.04291408213612 161.5,110.9090397561813 161.5,110.54392716650182 162.16615265997825,102.21904578707472 162.3430994602968,101.64699234809086 163.13415574398823,101.86607697993895 163.5817270624102,101.73219197671278 164.63299922895385,101.8173915422376 166.6939090208034,102.52332837243739 167.02698535082163,102.42595803266886 168.42174248263473,102.94932263994997 168.5154202004196,103.27794571151753 168.9942174248281,103.41182891603967 169.66037008480635,103.15623357223376 171.1383962991531,103.37531533026777 171.47147262917133,103.2049184433854 172.06476484192535,103.58222549646598 172.80377794912783,103.47268486661778 173.8966846569092,103.6552525251318 174.55242868157802,103.33880173288344 174.52120277564973,103.10754868046206 174.75019275245722,103.09537745429407 174.9375481880852,103.54571196476172 175.54124903620686,103.59439667114202 176.11372397840023,103.42400010871643 176.69660755590303,103.5700543205312 177.42521202773787,103.18057601037435 177.4668465689174,103.53354078494885 177.64379336923594,103.6552525251318 178.12259059364442,103.54571196476172 178.44525828835322,102.94932263994997 179.88164996140404,103.47268486661778 179.8712413260946,103.11971990532766 180.7455666923197,103.15623357223376 181.71356977632968,102.77892512220569 182.09868928289507,100.44201941575011 182.37972243636614,100.17424593916076 182.7544333075639,100.0525305164847 184.24286815722007,100.36899034756061 184.56553585192887,100.23510360217915 185.94988434843253,100.32030427637801 186.8138010793482,100.13773132586357 188.5,99.41960824286798 188.26060138782486,98.95708591787115 186.87625289120479,99.49263791366684 185.33577486500144,99.74824139646807 182.1715497301193,99.45612308406999 181.21395528136054,100.28378970943595 181.04741711640963,100.89236431183963 181.21395528136054,101.25750752806925 180.98496530449484,102.09733252763544 179.88164996140404,102.29207368096831 179.32999228988774,102.18253182278568 178.64302235929063,101.72002060507657 177.60215882805642,101.69567785789695 177.18581341556273,101.96344779351784 176.2698535080999,102.06081852467469 175.520431765588,101.87824833615741 173.12644564377842,101.90259104466531 172.94949884345988,101.4279072990903 173.0535851965542,101.35487885670591 174.34425597533118,101.29402178597957 174.94795682345284,101.76870608396712 174.85427910560975,101.86607697993895 172.60601387813222,101.87824833615741 172.6372397840605,101.54962126672035 172.46029298374197,101.44007870163477 169.420971472573,101.98779048401047 167.71395528141875,101.64699234809086 164.75790285272524,100.50287693716382 164.36237471085042,100.5150484375772 164.21665381646017,100.35681883169309 164.6538164995727,100.14990286490502 165.11179645336233,100.36899034756061 166.25674633769086,100.30813275534456 166.56900539703202,100.67327782582288 166.81881264451658,100.67327782582288" stroke="#4dd2ff" stroke-linecap="round" stroke-linejoin="round" stroke-width="0.5"><title>2023-04-07 7.0km</title></polyline><polyline fill="none" points="11.5,138.1411363992229 11.595368916809093,135.78687245862238 11.849686028319411,134.58494051747402 14.244505494541954,134.82037145666254 16.70290423865663,135.5142704193495 16.914835164847318,135.05580192259367 19.606357927783392,135.65057151829387 27.755102040828206,135.5142704193495 30.573783359490335,136.08425577785965 31.548665620037355,135.78687245862238 31.930141287273727,133.4945173645756 32.23744113027351,133.11038860866392 34.134222919878084,133.30864876900887 34.505102040828206,133.1723449448691 35.85086342220893,133.2590837604148 38.5,132.3421273175045 38.341051805298775,131.85886360076984 35.55416012555361,132.68908465364075 34.31436420715181,132.71386728118523 32.05729984299978,132.39169271413994 31.103610674967058,133.2590837604148 30.859890109859407,135.10536617092293 29.863814756681677,135.29123191535473 29.14324960752856,135.16732145182323 28.284929356363136,134.6592871809844 27.34183673467487,134.6840693916456 26.981554160127416,134.94428228718607 26.070251177356113,135.00623765328783 25.47684458398726,135.00623765328783 25.19073783355998,134.82037145666254 22.976059654611163,134.89471797071747 22.753532182134222,134.79558927481412 22.541601255885325,134.3247268236446 19.118916797509883,134.95667336304905 17.306907378311735,134.6345049650481 14.085557299898937,133.44495243458368 11.743720565165859,133.56886472020415 11.680141287331935,132.71386728118523 12.729199372115545,133.2838662673239 14.339874411351047,133.37060500032385" stroke="#4dd2ff" stroke-linecap="round" stroke-linejoin="round" stroke-width="0.5"><title>2023-04-04 6.0km</title></polyline><polyline fill="none" points="52.14607657957822,145.88711611693725 69.42744516767561,146.9322701675119 75.23756046872586,129.68714353023097 60.93573818914592,123.06775403907523 50.65630342531949,134.73876498127356 50.20937147922814,144.84196140361018 56.16846409626305,147.97742355475202 71.66210489813238,145.19034638197627 74.4926738915965,131.60327762854286 62.872443289496005,122.54516952473205 50.20937147922814,136.48069981997833 51.10323537141085,146.9322701675119 71.3641502680257,146.5838855577167 74.7906285226345,130.38391982403118 63.170397920534015,122.19677975727245 56.16846409626305,127.4226185400039 50.20937147922814,135.95811956189573 50.06039416324347,145.71292371093296 66.89483080524951,148.5 72.10903684515506,146.23550087457988 74.64165120664984,130.38391982403118 62.72346597351134,122.19677975727245 50.65630342531949,135.43553913745563 50.06039416324347,146.06130850501359 64.51119375880808,147.80323136947118 71.06619563698769,145.88711611693725 74.7906285226345,129.51294941047672 61.82960208132863,121.84838991542347 50.50732611026615,135.60973263089545 50.65630342531949,146.40969322540332 59.743919665925205,147.80323136947118 72.10903684515506,145.53873128595296 74.7906285226345,130.20972577808425 61.82960208132863,121.5 50.358348795212805,135.60973263089545 50.80528074130416,146.5838855577167 68.5335812754929,147.4548469443107 71.81108221411705,145.71292371093296 74.64165120664984,129.33875527279451 62.574488658457994,121.84838991542347 50.9542580563575,134.73876498127356 49.76243953220546,145.71292371093296 71.06619563698769,146.40969322540332 74.04574194550514,129.86133763124235 62.872443289496005,122.19677975727245 55.57255483418703,127.4226185400039 50.65630342531949,135.60973263089545 50.50732611026615,146.5838855577167 66.5968761742115,147.80323136947118 71.3641502680257,145.71292371093296 74.19471926055849,129.33875527279451 62.276534027419984,122.02258484519552 52.890963156707585,131.0806958230678 49.76243953220546,145.88711611693725 54.82766825705767,147.97742355475202 71.21517295297235,146.5838855577167 74.64165120664984,130.73230785992928 63.468352551572025,122.19677975727245 56.16846409626305,127.59681288083084 50.20937147922814,136.30650641873945 49.76243953220546,145.88711611693725 53.188917787745595,147.62903916602954" stroke="#4dd2ff" stroke-linecap="round" stroke-linejoin="round" stroke-width="0.5"><title>2023-03-30 5.2km</title></polyline><polyline fill="none" points="113.23615635174792,145.57071329683822 113.5,143.3817920731235 111.77873429498868,142.80884726480872 108.60004653321812,142.3681188809569 108.41158678452484,142.19182713582995 108.57491856679553,139.92939654539805 109.37901349464664,139.75310170493321 109.99464867380448,133.87647896647104 109.7182410423411,133.74425209438778 109.45439739414724,133.96463014456094 108.58748255000683,133.90586269872438 108.8010702652391,133.86178709802334 108.60004653321812,133.67079266661312 105.60981852019904,134.4200770068419 104.39111214515287,134.39069338337868 103.66240111680236,133.72956021194113 102.72010237321956,131.9224468174798 101.08678455097834,130.55607717535167 100.63448115397478,130.45323160446424 100.4083294555312,130.0712331028917 97.97091670543887,129.55700269137742 95.94811540248338,128.60199830347847 95.47068403905723,127.44129182041797 95.35760818980634,126.17772689736739 94.69171707768692,125.31085593953321 93.63634248485323,125.13454254005046 90.45765472308267,125.7222530010622 89.85458352719434,125.57532561900734 88.53536528616678,124.56152244545228 87.90716612373944,124.42928670317633 86.5,124.5909081488353 88.17100977193331,124.47336529794848 89.62843182875076,125.41370531918074 90.45765472308267,125.707560269846 93.58608655189164,125.16392812218692 94.64146114472533,125.32554871273169 95.31991624011425,126.20711225872219 95.45812005584594,127.48536945905653 95.94811540248338,128.6166907283914 97.73220102372579,129.51292571035447 100.30781758954981,130.0124640094 100.67217310372507,130.4973082870565 101.08678455097834,130.57076939352555 102.20497905998491,131.40822326109628 102.92112610518234,132.26036411778477" stroke="#4dd2ff" stroke-linecap="round" stroke-linejoin="round" stroke-width="0.5"><title>2023-03-28 5.0km</title></polyline><polyline fill="none" points="126.71137640450615,137.67169145087973 126.95786516851513,135.2328367881928 126.81566011236282,134.82266020112002 126.5786516853259,134.67854372179863 125.49789325840538,134.95569062147842 125.4220505617559,134.74505904458783 124.0,134.4124820085126 124.07584269659128,134.06881796236848 125.62113764043897,134.46791158781707 129.22366573032923,134.47899750016222 132.5797050561523,135.49889641867776 134.41889044939307,135.8092984671457 141.6713483146159,135.67626913038112 144.00351123599103,136.15295680554846 144.80933988757897,135.8314700068513 145.1885533707682,133.82492666524922 145.46348314604256,133.48126069215505 147.25526685389923,133.69189480935165 147.37851123593282,133.53669076406368 148.88588483142667,133.59212080662837 151.0,132.82718362952437 150.88623595505487,132.32830854912027 149.36938202247256,132.91587228407298 148.21278089884436,133.10433542571263 146.97085674159462,133.08216330903088 145.5298455056036,132.8160975424471 145.16959269659128,132.91587228407298 144.42064606735948,133.53669076406368 144.23103932582308,134.05773200661497 144.27844101120718,134.58985655908327 143.85182584263384,134.6120283568016 143.5484550561523,134.95569062147842 143.53897471912205,135.2771801068593 143.24508426961256,135.42129576290608 142.5625,135.17740761347522 142.30653089884436,134.5565988537346 141.8135533707682,134.32379462063545 141.13096910109743,134.46791158781707 140.68539325840538,135.0887208729764 139.91748595505487,135.2106651218346 139.4245084269205,135.2106651218346 139.1590589887346,135.03329162205046 136.99754213483538,135.06654917612468 136.7984550561523,134.5565988537346 134.76966292131692,134.8780895634627" stroke="#4dd2ff" stroke-linecap="round" stroke-linejoin="round" stroke-width="0.5"><title>2023-03-26 5.6km</title></polyline><polyline fill="none" points="188.5,144.83452427935117 187.73162055335706,144.8470035949067 185.75731225300115,144.198077435889 185.49051383399637,144.3977474035346 184.47667984192958,144.37278867603163 182.21422924904618,144.75964835836203 181.17905138339847,144.75964835836203 180.60276679845992,144.3353505749037 179.81304347829428,142.65062372710236 178.3936758893542,141.50249979241926 178.00948616600363,141.40266240036726 177.81739130435744,141.05323086282442 175.78972332016565,140.6663590244425 174.05019762844313,139.80525263519667 173.62332015804714,138.83182045112335 173.52727272722404,137.78349988345872 173.02569169958588,137.04717391396116 172.00118577078683,136.87245182265906 169.39723320154008,137.346696896886 168.79960474307882,137.23437586741784 166.80395256914198,135.74923219800257 166.93201581027824,135.16265769769234 166.1636363636353,133.46531930426863 165.9501976284082,133.3405140465038 165.93952569167595,132.82881110863673 165.5980237153708,132.42943166321493 165.52332015812863,131.94268613539316 165.3632411067374,131.71803367571556 164.7762845849502,131.51834224115737 164.42411067191279,130.95670826850255 164.31739130435744,130.7320539305365 164.71225296438206,130.53236082632066 162.6312252964708,127.36218750022817 161.5,125.12803777795489 162.50316205533454,127.16248868918774 165.25652173912385,131.45593859849032 165.17114624503301,131.65563013874635 165.907509881421,132.75392756566725 165.89683794463053,133.40291669190628 166.18498023715802,133.55268290616368 166.9426877470105,135.23753971124097 166.76126482215477,135.69931107752927 167.12411067192443,135.8490743755683 167.40158102766145,136.26092246470216 168.77826086961431,137.19693550052034 169.27984189719427,137.30925656558975 171.99051383399637,136.87245182265906 172.99367588933092,137.09709446394118 173.49525691696908,137.69613941557327 173.56996047426946,138.70702087211976 174.03952569171088,139.80525263519667 175.53359683795134,140.5914804575441 177.8067193676252,141.06571057840483 178.09486166003626,141.4775404523316 178.34031620551832,141.4775404523316 179.81304347829428,142.65062372710236 180.61343873519218,144.21055681878352 181.18972332013072,144.77212768181926 182.01146245060954,144.8470035949067 183.99644268775592,144.36030931032292 184.5407114624395,144.6722930570977 184.8501976284897,144.3977474035346 185.47984189726412,144.37278867603163 185.63992094859714,144.1606392793401 187.51818181818817,144.8719622220524 188.20118577074027,144.80956564432563" stroke="#4dd2ff" stroke-linecap="round" stroke-linejoin="round" stroke-width="0.5"><title>2023-03-18 7.0km</title></polyline><polyline fill="none" points="11.5,165.97711123689805 13.261458681838121,165.92429646325763 16.657912345253862,166.91720953320328 18.103211776528042,167.17071767090965 25.167112746741623,167.07565219468233 27.38022750086384,167.58266702196124 28.229340916732326,167.19184331998986 28.536467045836616,165.36445814526815 28.780361324897967,165.03700408920122 31.55352960858727,165.13207150643575 32.85429909673985,164.8785581926859 34.16410170629388,164.36096651169646 34.02860488463193,163.89618802191399 35.753931080689654,162.91380818530888 38.373536299797706,162.41733297803876 38.5,162.50183957065747 36.846938775561284,162.59690940181463 35.7268317163107,162.8926816310268 33.38725326198619,164.1919564021082 32.2671462027356,164.51941322961648 30.876045500161126,164.63560732961923 28.879725660779513,164.32927713794925 28.563566410157364,164.4032189944046 27.81381733022863,165.11094542153296 27.65122114418773,165.62853321467992 27.77768484444823,165.92429646325763 27.68735362996813,166.53694611981336 27.434426229505334,166.76932948896865 26.56724657077575,166.84326953845448 25.46520575444447,165.8186668321723 24.679324188735336,165.90317054597108 24.25476748077199,165.5651552617128 23.902475744427647,165.50177726850234 23.568250250944402,165.61797022529936 23.161759785900358,166.10386657959316 22.92689862829866,166.12499245441722 22.484275677474216,166.49469454003702 21.752592840406578,166.53694611981336 21.59902977582533,166.01936303566617 19.024590163957328,166.29399929198553" stroke="#4dd2ff" stroke-linecap="round" stroke-linejoin="round" stroke-width="0.5"><title>2023-03-14 5.6km</title></polyline><polyline fill="none" points="73.64631336409366,170.06227321514598 72.73387096775696,169.941026453831 71.00230414746329,169.37116495756345 69.75806451612152,169.71065725394874 69.49884792632656,169.49241232172062 67.3525345622329,170.00164985052834 66.68894009216456,169.9652758163429 66.00460829492658,169.39541444063798 65.06105990783544,167.576688970119 63.98271889402531,166.37631434855575 63.256912442389876,166.0974376366139 60.92396313365316,165.78218488424318 59.669354838726576,165.10317601048882 59.17165898618987,164.03615393724613 59.01612903224304,162.8842439558066 58.60138248850126,162.38710028147761 57.782258064544294,162.22946890997264 54.858294930891134,162.66598602294107 53.43778801843291,161.73232239489153 51.498847926210146,161.7929501342005 51.332949308736715,160.7986511593408 51.301843317982275,161.81720122088882 49.67396313365316,161.92633104764536 49.0,159.93772678485402 49.54953917051898,161.73232239489153 49.819124423956964,161.9748331595183 53.05414746538736,161.70807129020977 53.5,161.81720122088882 54.485023041430395,162.53260597040935 55.065668202820234,162.6781114745536 57.87557603686582,162.2779708935268 58.64285714289872,162.48410409459757 59.04723502305569,163.00549818336003 59.161290322605055,164.03615393724613 59.58640552993165,165.05467522265099 60.9550691244076,165.83068536414066 63.2050691244076,166.2671887595061 63.51612903230125,166.69156546660815 63.86866359447595,166.76431560142373 65.21658986172406,167.83131227349804 66.03571428573923,169.383289699741 66.53341013827594,169.9652758163429 67.82949308759999,170.05014854476758 68.41013824887341,169.75915607137722 69.93433179729618,169.48028759106091 70.77419354842277,169.56516067862685 70.88824884791393,169.39541444063798 72.96198156685568,170.06227321514598 76.0,169.941026453831" stroke="#4dd2ff" stroke-linecap="round" stroke-linejoin="round" stroke-width="0.5"><title>2023-03-12 6.0km</title></polyline><polyline fill="none" points="112.3376681614318,169.8422628702392 109.09282511210768,169.03524634345376 108.95964125561295,169.24761958548333 108.19686098652892,168.99277165462263 107.71255605382612,169.459992490476 107.61569506727392,169.20514496405667 104.92780269059585,169.75731399131473 104.05605381168425,169.6582068977732 103.402242152486,168.9786134219903 102.05829596414696,166.6141675637482 101.08968609868316,165.62307004812465 99.98789237672463,165.22662898656563 97.38475336326519,164.87266276065202 95.93183856498217,164.03729875516728 95.47174887894653,162.89043459239474 95.39910313906148,161.65860658008023 94.87847533635795,160.9648133971932 93.67982062784722,160.75242700980743 90.56816143501783,161.26215377321932 90.15650224220008,161.19135850552993 89.79327354260022,160.75242700980743 88.739910313976,160.15774333167064 88.26771300449036,160.07278830478026 86.5,160.228539146221 88.61883408069843,160.12942499534984 90.12017937225755,161.10640413482906 93.75246636773227,160.70994969189633 94.79372197308112,160.93649523169734 95.3869955156697,161.78603759000544 95.47174887894653,162.81964018613508 95.90762331837323,163.9240286580025 97.49372197309276,164.80186940304702 100.15739910316188,165.3398979811609 100.47219730936922,165.75049728273007 100.89596412563697,165.80713157029822 102.50627802690724,167.1380304282502 103.43856502242852,168.99277165462263 104.14080717490287,169.62989057184313 105.13363228703383,169.72899768636853 106.24753363232594,169.36088517673488 106.44125560537213,169.60157423988858 107.21614349778974,169.21930317264923 109.0322869955562,169.0635627951997 111.46591928246198,169.92721169521974 113.5,169.77147214153956" stroke="#4dd2ff" stroke-linecap="round" stroke-linejoin="round" stroke-width="0.5"><title>2023-03-05 5.0km</title></polyline><polyline fill="none" points="148.79131886479445,164.90349162828352 148.94156928214943,165.3953352291137 150.48914858099306,165.09671607370547 150.83472454093862,166.15066363882215 150.77462437393842,166.6776349147258 146.76293823041487,167.78426915498858 144.16360601008637,168.99628867718275 141.65442404005444,170.71769251630758 139.89649415691383,167.95992470589408 138.78464106854517,167.028948170293 128.32721202005632,164.6751351760031 128.20701168617234,164.37651472634752 128.79298831394408,162.74287570998422 128.6277128548245,162.40911952660827 128.82303839741508,161.5483768020349 124.0,159.1242202699068 128.80801335565047,161.49567812307214 127.6961602671654,164.64000338624464 127.29048414027784,166.69520059518982 127.92153589322697,165.16697945266787 128.32721202005632,164.92105749629263 137.28213689487893,166.712766273733 139.4307178631425,167.69644130986126 141.32387312193168,170.87577973007865 145.26043405680684,168.4693247536925 146.98831385647645,167.73157245348557 151.0,166.6249378623179 150.48914858099306,164.32381694426294" stroke="#4dd2ff" stroke-linecap="round" stroke-linejoin="round" stroke-width="0.5"><title>2023-02-22 5.0km</title></polyline><polyline fill="none" points="161.5,168.12874665253912 161.66954474098748,165.10536588393006 161.90266875980888,164.6840689263845 164.31868131872034,164.80797995354078 167.0843799058348,165.83643641995877 168.02747252746485,165.89839134037175 168.45133437996265,166.18338355235028 168.8328100470826,166.05947398018907 170.64481946628075,166.33207486596802 171.1004709576373,166.2577292327478 171.76805337524274,166.55511148242658 172.3614599686116,166.4559841497612 173.63304552593036,166.61706602275808 174.48076923075132,166.13381973920332 174.5125588697265,166.3816385951941 174.85164835164323,166.53032965715101 175.36028257460566,166.56750239311077 175.80533751961775,166.3940295242428 176.67425431706943,166.54272057043272 177.29945054941345,165.9479552531193 177.6597331240191,165.88600035889976 179.50353218207601,166.3072929934351 179.64128728414653,166.46837507092278 179.7154631083249,166.02230108295043 180.57378335949033,166.0718649433329 181.52747252746485,165.78687245999754 181.84536891675089,164.57254888987518 181.91954474098748,163.46973392309883 182.34340659336885,163.06082236400107 183.3182888540323,163.25908269214415 186.1157770800055,163.2466914314573 188.5,162.31734314450296 188.23508634214522,161.87125334746815 187.06946624803822,162.32973450348072 185.5117739403504,162.66430070088973 184.49450549448375,162.68908334416483 182.1208791208919,162.37929992639693 181.09301412873901,163.18473510839976 180.89167974877637,163.80429686416028 180.9764521192992,164.2875527585711 180.2558869701461,164.53537552077614 180.07574568293057,165.10536588393006 179.73665620095562,165.25405856600264 179.1114599686116,165.15493013225932 178.38029827317223,164.6964600350184 177.3842229199363,164.6840689263845 176.97095761384116,164.94428193205385 175.6040031397133,165.03101947213872 175.31789638928603,164.83276214326906 172.1071428571595,164.86993541799893 171.50313971744617,164.78319775861746 171.20643642073264,164.51059326813993 169.065934065904,164.9690640928893 167.37048665620387,164.646895592683 164.212715855625,163.4821251601752 162.60204081633128,163.2466914314573 165.6538461538148,163.22190890619822" stroke="#4dd2ff" stroke-linecap="round" stroke-linejoin="round" stroke-width="0.5"><title>2023-02-10 5.9km</title></polyline><polyline fill="none" points="17.725358228373807,200.25753993881517 17.760529743798543,196.54240058214054 18.979808944801334,196.5561097792379 21.008033000398427,197.07705819400144 22.12179765518522,196.748038386213 22.57902735559037,195.36340420709166 22.66109422489535,194.14326875731058 23.0128093790845,193.75940354353224 25.041033434623387,194.04730256048788 25.427920104179066,193.85536995358416 27.33890577504644,193.88278891483787 29.285062961338554,193.2658608835336 32.6966999565484,191.5521564968658 36.60073816758813,191.01747608963342 38.5,190.3045654479647 38.39448545372579,190.38682456834067 38.206904038146604,190.05778777354863 38.24207555357134,189.74246006119938 37.608988276158925,190.0989174186252 35.97937472863123,190.5102131509775 35.275944420311134,190.53763282003638 35.11181068170117,190.3319851605629 32.931176726007834,190.72957034109277 31.48914459394291,191.2642519363726 29.109205384214874,192.6215106928139 27.362353452015668,193.16989403692423 25.228614850144368,193.32069904965465 23.5286582717672,193.00537927738333 22.684541901864577,193.03279841842595 21.723187147115823,193.85536995358416 21.500434216228314,194.48600459452427 21.570777247019578,195.11663616649457 21.054928354278672,195.11663616649457 20.679765523178503,195.47307874100807 20.597698653873522,196.00774076450034 20.21081198437605,196.1859609488165 19.437038645264693,195.8980666831194 19.155666521866806,195.15776420589827 18.44051237514941,194.78761138136906 17.631567520613316,195.0206706904719 17.186061658663675,195.71984610287473 16.224706904031336,195.8980666831194 15.509552757197525,195.9117759483488 15.263352149398997,195.70613681730174 11.675857577065472,195.67871824183385 11.5,195.52791597311443 11.757924446312245,195.22631090920186 13.680633955693338,195.08921746628766 13.903386886639055,195.78839250885358 14.853017802815884,195.71984610287473 15.63851498044096,195.2126015714457 16.365392965672072,195.26743891381193 16.705384281347506,194.8561582804832 17.1039947894169,194.8424489035824 17.748805905284826,195.5416252775467 18.616369952156674,195.50049735994253 19.132218844955787,195.92548521213757 20.199088145862333,196.21337941696402 21.383195831498597,196.04886852107302 21.688015631749295,195.04808940512885 21.723187147115823,195.9529037353932 21.312852800707333,196.28192556192516 19.812201476364862,196.07628701823705 19.448762483720202,195.9117759483488 19.038428137195297,195.06179876030365 16.787451150652487,194.40374807621993 16.224706904031336,194.54084224431426 14.829570125904866,195.67871824183385 14.12613981764298,195.6650089519535 13.76270082499832,195.1303455143934 14.090968302218243,194.92470514337765 14.665436387353111,194.92470514337765 15.146113764611073,195.34969488385832 16.318497611791827,195.26743891381193 16.84607034298824,194.8972864025709 17.338471558818128,195.29485757630027 17.772253582254052,195.00696133096062 18.5343030829099,194.8561582804832" stroke="#4dd2ff" stroke-linecap="round" stroke-linejoin="round" stroke-width="0.5"><title>2023-02-05 7.1km</title></polyline><polyline fill="none" points="49.32088285230566,199.21691905512853 49.5653650254535,197.01026523227483 49.74108658745536,196.94772764408845 51.009337860770756,197.15320811709535 51.4601018675603,197.08173670493125 52.651952461805195,197.59096919676085 53.16383701187442,197.64457243831566 53.40831918505137,196.58143512616516 53.224957555154106,196.2151410194565 52.697792869235855,196.22407504096918 52.4456706281926,195.97392208154633 51.02461799659068,196.09899865386978 50.17657045839587,195.95605398465705 49.77928692699061,195.652295759166 49.053480475384276,195.51828442998521 49.0,196.06326250925486 49.053480475384276,195.54508671282383 49.313242784381146,195.52721852519608 49.450764006818645,195.63442759423924 49.435483870940516,196.0096582639526 49.580645161273424,196.2419430811351 51.36842105264077,196.09899865386978 53.37011884548701,196.9119918586366 54.6918505942449,197.22467946875986 55.50169779287535,197.0906706347596 56.021222410869086,197.2961507599539 56.56366723260726,197.2514812100344 57.19779286926496,197.37655589021597 58.733446519530844,197.13534026969864 59.91001697789761,197.28721685185155 60.57470288625336,197.22467946875986 60.77334465197055,197.03706704161596 61.52971137521672,197.0191991696629 61.797113752109,197.2514812100344 62.431239388824906,197.45696094397135 63.164685908326646,197.40335758332367 63.37860780983465,197.24254729722452 63.370967741910135,196.37595326194423 63.51612903227215,195.97392208154633 64.11205432933639,195.42000932007795 66.25891341257375,195.61655942551442 67.39728353137616,195.46467983875482 68.31409168080427,195.15198571179644 70.66723259759601,193.97267172898137 73.24957555177389,193.68677494975418 75.5797962648503,192.632522210537 75.97707979622646,191.90883262654825 75.77843803050928,190.78308094487147 76.0,191.86416022673802 75.91595925294678,192.14112872449186 75.80135823428282,192.40916188957635 74.85398981321487,192.98096313144197 74.70118845498655,193.23112495720852 74.09762308996869,193.26686230038467 73.41765704582212,193.62423490027868 72.24108658742625,193.86546055019426 71.5764006790996,193.81185490975622 70.43039049234358,194.0173430132927 68.29881154498435,195.12518330416788 67.31324278435204,195.45574573692284 65.84634974534856,195.58975716532586 64.1960950763605,195.36640466647077 63.45500848896336,195.93818588398426 63.248726655350765,195.75950466939685 63.477928692649584,196.02752634949138 63.355687606090214,196.331283225285 63.447368421038846,196.67970888447599 63.30984719863045,196.83158628601814 63.36332767404383,197.13534026969864 63.195246179937385,197.34975418866088 62.484719864150975,197.45696094397135 61.62903225806076,197.13534026969864 61.56027164685656,196.99239735467563 60.803904923581285,197.00133129394817 60.48302207130473,197.19787771895062 59.84889643461793,197.2514812100344 59.4745331069571,197.2514812100344 59.27589134123991,197.11747241857665 57.65619694397901,197.1621420393567 56.78522920203977,197.04600097615912 55.83786078097182,197.18894380047277 55.417657045822125,197.05493490977824 54.82173174872878,197.21574555311963 53.69100169779267,196.99239735467563 51.30730050933198,196.13473478337983 50.78013582344283,196.05432847073826 49.57300509334891,196.23300906152872 49.4202037351497,195.92031777954253 49.534804753842764,195.5986912530061 50.16893039047136,195.99179017464485 50.86417657043785,196.13473478337983 52.40747028859914,195.97392208154633 52.63667232598527,196.22407504096918 52.98811544990167,196.25087709978834" stroke="#4dd2ff" stroke-linecap="round" stroke-linejoin="round" stroke-width="0.5"><title>2022-12-15 10.0km</title></polyline><polyline fill="none" points="86.5,198.61970566848322 86.73842874544789,195.37982792990078 88.70341047504917,195.51442455674987 88.9582825821999,195.6874770698123 90.62728380024782,196.07203703012055 90.89037758830818,194.95680866199837 90.8246041412931,194.61070052367722 90.10931790500763,194.56262984468776 89.86266747870832,194.24536272544356 88.97472594396095,194.28381940491818 88.62941534712445,194.12037840463017 88.07034104751074,194.32227606815286 87.48660170525545,194.28381940491818 86.68909866016475,193.8223381767457 86.60688185141771,194.26459106719994 86.80420219246298,194.57224398251856 88.6458587089437,194.29343357226753 88.92539585873601,194.62992878819932 90.98081607796485,195.34137171418115 92.37028014616226,195.6297929354114 93.11845310599892,195.46635435576172 93.77618757612072,195.67786304995388 95.3629719853925,195.6970910886448 96.23447015834972,195.64902098428138 96.59622411691817,195.48558243921434 97.90347137636854,195.67786304995388 98.55298416566802,195.6297929354114 98.857186358131,195.399056031667 99.6218026796414,195.399056031667 99.81912302071578,195.60095085445937 100.50152253347915,195.74516116758605 100.690621193673,195.947055221528 100.88794153471827,195.71631912327575 101.29080389768933,195.8028452287399 101.56211936660111,195.6970910886448 101.74299634594354,194.28381940491818 102.47472594399005,193.6396678765086 104.16839220462134,193.85118082218105 105.56607795372838,193.78388130194799 106.77466504264157,193.4666114639258 109.15895249697496,192.2167498097624 112.34074299639906,191.78410138576146 113.29445797810331,191.38029433152406 113.40956151037244,191.81294467812404 113.5,191.78410138576146 112.61205846531084,192.13022028979321 109.88246041414095,192.4571091552716 106.70066991474596,193.89925187750487 105.50852618759382,194.22613437955442 104.11084043851588,194.3126619038885 102.65560292327427,194.1107642190036 102.40895249694586,194.3991893458151 102.35962241172092,195.22600296940072 102.07186358098988,196.22586055866122 101.64433617540635,196.38929777240992 101.27436053592828,196.48543717261055 99.45736906214734,196.04319508955814 97.78014616324799,196.07203703012055" stroke="#4dd2ff" stroke-linecap="round" stroke-linejoin="round" stroke-width="0.5"><title>2022-12-12 7.2km</title></polyline><polyline fill="none" points="124.4368258859613,198.02224863461743 124.65523882897105,194.96963480499835 124.58243451471208,194.68990916513576 124.01040061633103,194.61693714713329 124.0,194.25207636241248 126.94337442220422,194.30072453397588 130.20916795072844,195.29800751378934 132.54930662561674,195.7601601076094 140.58898305083858,195.6385411840747 141.49383667181246,195.71151255363657 143.0227272727061,196.21014900597947 143.50115562404972,196.05204499916726 144.13559322035871,195.73583633319504 144.43721109401667,194.62909915336786 144.4892141756718,193.60748614617478 144.70762711868156,193.26694645967655 145.2380585516221,193.1818113804111 146.74614791985368,193.4858649453745 147.0685670261737,193.31559504804318 148.58705701079452,193.3642436158625 149.67912172572687,193.0723519001258 151.0,192.43991730692505 150.81278890604153,191.97775136538985 148.11902927584015,192.7926216437845 146.88135593221523,192.82910823755083 144.5724191062618,192.54937738931767 143.66756548540434,193.35208147585945 143.49075500766048,193.83856607326743 143.63636363635305,194.3128865736362 143.46995377499843,194.60477513964724 143.5323574729846,194.95747283482342 143.2619414483779,195.2493597642533 142.77311248076148,195.2007119941627 142.13867488439428,195.39530295107397 141.84745762712555,195.10341639216495 141.25462249614066,195.00612070783973 141.11941448383732,194.8358530621481 141.0674114021822,194.94531086332427 140.11055469955318,194.84801504520874 138.70647149457363,195.11557834690757 138.2176425269572,195.12774030038418 137.895223420579,194.90882494115795 135.7526964560966,194.98179677388543 134.50462249614066,194.82369107779232 133.23574730358087,195.00612070783973" stroke="#4dd2ff" stroke-linecap="round" stroke-linejoin="round" stroke-width="0.5"><title>2022-12-06 5.0km</title></polyline><polyline fill="none" points="161.5,198.29425861632626 161.73098075162852,195.7090699516193 161.8547204400238,195.8344725856732 163.5870760770631,195.85376528331108 165.85563703026855,196.6061773068359 165.93813015587511,196.7701637187056 165.81439046750893,196.7701637187056 165.92163153071306,196.59653103810706 165.68240146661992,196.6061773068359 165.47616865264717,196.3939591595481 165.65765352893504,196.45183688504767 165.86388634284958,195.06276133350184 165.73189734190237,195.1495791754278 165.74839596706443,195.42932499263406 166.05362053166027,195.68013085773418 167.29926672781585,195.98881405236898 168.0582034830877,195.84411893499055 168.7346471127821,196.05633836190827 169.790559120127,196.08527733641677 172.0756186984945,195.88270432208083 172.71081576540018,196.05633836190827 173.64298808434978,195.95987504727964 173.8739688359492,195.77659446830512 174.69065077914274,195.77659446830512 174.7731439047202,195.94058237207355 175.77956003672443,196.22997207112348 176.56324472965207,196.09492365919868 176.75297891846276,194.63831736089924 177.51191567373462,194.00164769739058 179.6897341888398,194.2235179332638 180.74564619618468,194.1270526796725 181.91704857931472,193.77013035392156 184.1278643446567,192.59324143517006 184.87855178737664,192.4003073762433 186.8583868011192,192.23631310518977 187.93904674611986,191.94691073076683 188.35976168652996,191.70574138368102 188.49175068744808,192.17843270378216 188.5,192.07231853912526 186.81714023835957,192.6318281979693 184.49908340975526,192.9405217124222 183.29468377641751,193.54825901480217 181.05912007339066,194.51291308178043 179.368010999111,194.59008496625756 179.18652612282312,194.69619620079175 177.66040329975658,194.51291308178043 173.64298808434978,196.44219060002797 169.8235563703056,196.51936085173656" stroke="#4dd2ff" stroke-linecap="round" stroke-linejoin="round" stroke-width="0.5"><title>2022-11-27 5.6km</title></polyline><polyline fill="none" points="11.5,226.59935555000993 12.571200850128662,226.7559318855856 12.867693942622282,226.66645972222614 13.355472901137546,226.91250798923284 13.68065887351986,226.8565879788148 15.392667375097517,227.3822349088441 15.679596174217295,226.05133654937526 15.52656748139998,225.8276545082408 15.583953241177369,226.28620218321885 16.062167906493414,226.5881715171854 17.573326248617377,226.8789559865545 18.290648246533237,226.66645972222614 19.046227417653427,226.93487598508364 21.810308182786684,226.91250798923284 22.34590860782191,226.7335638518416 23.809245483542327,226.91250798923284 24.593517534493003,226.8677719832849 24.94739638682222,226.59935555000993 25.894261423964053,226.5881715171854 25.999468650319614,226.80066793884907 27.099362380395178,227.13618773507187 27.845377258199733,227.0355319080045 28.160998937266413,226.71119581333915 28.266206163621973,226.16317739248188 28.141870350693353,225.71581331024208 28.294899043510668,225.2572631612129 29.174814027617685,224.54147358713817 31.384165781084448,224.8210794663537 32.885759829950985,224.70923720340215 34.44473963865312,224.18357698266482 36.682784272008575,222.96448258063901 38.5,222.6177650911486 36.826248671568464,222.89737605854316 34.39691817207495,224.20594555592834 32.84750265668845,224.69805297059793 31.412858660914935,224.78752679988247 29.423485653533135,224.4855523225633 29.069606801262125,224.5526578365243 28.266206163621973,225.30199984865612 28.122741764062084,225.71581331024208 28.247077577048913,226.16317739248188 28.074920297483914,226.46514707783354 28.141870350693353,226.81185194922728 27.88363443140406,227.04671589351346 26.8124335812754,227.09145182373322 25.68384697131114,226.554619411545 24.909139213559683,226.56580344793474 24.536131774657406,226.84540397319506 23.637088204035535,226.90132398950664 22.919766206119675,226.72237983319064 19.897449521755334,226.6776437467779" stroke="#4dd2ff" stroke-linecap="round" stroke-linejoin="round" stroke-width="0.5"><title>2022-11-23 5.3km</title></polyline><polyline fill="none" points="49.0,225.64989600601984 51.29856115108123,225.92751211590803 53.8669064748683,226.63416838923877 54.20143884891877,225.14513778725086 54.12589928059606,224.79180576328508 53.79136690648738,224.6277583963456 53.25179856113391,224.67823453324672 52.77697841724148,224.28704391336942 51.611510791350156,224.32490112616506 51.3525179856224,224.4637108038005 51.39568345324369,224.58990127961442 55.064748201402836,225.8391797873992 56.208633093570825,225.97798770284135 56.812949640268926,225.63727707659564 57.56834532372886,225.7634663108838 58.485611510812305,225.59942028028308 58.66906474821735,225.86441760222078 59.187050359731074,225.9401310146568 62.165467625891324,225.86441760222078 62.910071942489594,226.10417657672951 64.17266187054338,226.0410821564583 64.58273381291656,225.75084739346494 65.64028776978375,225.73822847470728 65.88848920859164,226.0158443790133 67.15107913670363,226.33131621326174 68.24100719427224,226.05370104319445 68.21942446043249,225.54894453316228 68.381294964056,225.29656547717605 68.26258992811199,224.66561550099868 68.46762589929858,224.18609128703247 69.40647482016357,223.44156302940246 72.6762589928112,223.7570416720264 74.46762589929858,223.39108636909805 75.73021582735237,222.8484609222287 76.0,223.34060968748963 74.95323741005268,223.80751817743294 73.07553956832271,224.28704391336942 71.74820143886609,224.21132945166028 71.53237410075963,224.35013926137617 69.8381294964347,224.04728128637362 69.50359712226782,224.13561494184978 69.23381294962019,224.48894890960946 69.10431654681452,225.97798770284135 68.78057553956751,226.8991634124468 68.04676258994732,227.15153907776403 65.15467625902966,226.59631190929213 57.01798561151372,226.77297537958657 53.985611510812305,226.19250870901305" stroke="#4dd2ff" stroke-linecap="round" stroke-linejoin="round" stroke-width="0.5"><title>2022-11-18 5.5km</title></polyline><polyline fill="none" points="86.5,227.95875928016176 86.79705304518575,224.85737169697677 87.49724950885866,225.03105156960373 88.17622789787129,224.93180595957529 90.02220039296662,225.14270278041658 91.82573673868319,225.76298534946545 92.1121807465679,224.43557664969558 92.0591355599463,223.85250452729815 91.21041257365141,223.81528705937671 90.76483300584368,223.41829999967013 89.64027504913975,223.46792345563154 89.41748526523588,223.7532579198887 89.51296660123626,223.85250452729815 92.3986247543944,224.82015454793145 94.24459724948974,225.20473118498194 94.96601178782294,224.9566173699568 95.80412573675858,225.24194821198034 98.88074656185927,225.22954253762873 99.47485265223077,225.0186458729222 101.10864440078149,225.24194821198034 101.93614931235788,225.19232550671586 102.48781925346702,224.93180595957529 103.34715127694653,224.94421166543907 103.60176817286992,225.19232550671586 104.90667976421537,225.4652501257733 105.93575638503535,225.22954253762873 106.1055009822594,224.42317089002609 105.96758349705487,223.9145336143265 106.14793713163817,223.45551759363298 107.07092337909853,222.61191589706868 110.59312377206516,222.8848465218398 112.00412573671201,222.58710399059055 113.38330058928113,222.04124071983097 113.5,222.53748016190366 110.91139489191119,223.43070586561953 108.3546168958419,223.4803293163277 107.62259332020767,223.21980596583307 107.17701375245815,223.35627065017616 106.95422396855429,223.65401122844196 106.84813359525288,224.9566173699568 106.56168958736816,225.97388067553402 105.69174852652941,226.2716146078892 103.71846758347237,225.775390967392 94.97662082512397,225.8870414695848" stroke="#4dd2ff" stroke-linecap="round" stroke-linejoin="round" stroke-width="0.5"><title>2022-11-06 5.5km</title></polyline><polyline fill="none" points="124.0,233.31434389376955 124.62257281545317,229.9619087426545 125.06492718443042,220.78549743857002 125.44174757279688,219.0804345132492 125.54004854371306,219.25285733642522 127.53883495141054,219.19538308023766 133.15837378642755,220.45981250210025 133.5515776698594,217.77767898769525 133.40412621351425,218.5440069023898 134.01031553390203,218.984643985008 136.9265776699176,219.5785444433859 142.93932038830826,218.39074157885625 143.33252427179832,218.39074157885625 143.4144417475909,219.46359611958906 144.7578883494716,219.27201541773684 146.11771844659233,219.3486477227998 146.62560679606395,219.67433465748036 148.7882281553466,219.5977024902968 149.47633495146874,219.11875071037502 149.49271844665054,218.40989975140837 150.90169902914204,217.98841948750487 151.0,217.01134783015004 150.4757281554048,216.6856561062159 149.5910194175085,217.87347015435807 149.75485436891904,218.33326704913634 149.39441747573437,218.4865324213024 148.8046116505284,219.46359611958906 147.00242718443042,219.6934926942631 146.11771844659233,219.3486477227998 141.00606796116335,219.3486477227998 140.5964805824915,219.6551766187331 139.35133495146874,219.6551766187331 138.0570388349588,219.21454116767563 136.79550970869604,219.5785444433859 134.60012135922443,219.17622499080608 129.50485436891904,217.50946345145348 129.3410194174503,217.20293092356587 129.73422330094036,217.06882277947443 131.48725728149293,216.85808120950242 132.06067961163353,217.50946345145348 132.61771844653413,217.47114691387105 132.04429611645173,217.4519886420021 131.45449029124575,216.89639787684428 130.52063106792048,216.89639787684428 129.5703883494716,217.03050614862877 129.45570388343185,217.52862171718152 134.6820388349588,219.27201541773684 133.2894417475909,218.4673742568848 133.37135922326706,217.77767898769525" stroke="#4dd2ff" stroke-linecap="round" stroke-linejoin="round" stroke-width="0.5"><title>2022-11-02 5.0km</title></polyline><polyline fill="none" points="162.33140877593542,231.16727941273712 162.28983833716484,230.91209505889128 161.55196304846322,230.81488182262547 161.5,230.462483151794 161.77020785218338,228.63971415253036 161.77020785218338,226.96274113294203 161.9364896073821,226.61033064693038 161.8429561200901,225.3222003632036 162.0715935335029,222.6243712705982 162.28983833716484,221.60355455180252 162.466512701998,221.73723344780592 164.5346420322894,221.66431770563213 167.195150115469,222.49069340692222 167.45496535795974,220.7528670233296 167.31986143189715,221.15390621448023 167.50692840648117,221.44557020141656 169.63741339487024,221.93167520068528 172.95265588915208,221.23897495382698 174.07505773671437,221.2146696061609 174.70900692837313,221.53063872476923 175.05196304846322,221.32404363020032 176.45496535795974,221.3605016150541 176.8810623556492,220.97161584662535 177.51501154736616,221.28758563374868 178.31524249416543,221.00807394335425 178.91801385674626,221.27543296571093 179.18822170898784,221.98028558748047 179.9364896073821,222.21118464381289 180.98614318697946,221.99243818094692 181.16281755192904,221.08099010204023 181.0381062355591,220.61918698181398 181.23556581983576,220.13307642858854 181.87990762118716,219.48897677696368 182.51385681290412,219.3552952646205 184.3429561200319,219.6469638182607 185.54849884519354,219.6469638182607 186.88914549647598,219.3917538743117 188.30254041560693,218.83272058726288 188.5,219.2580722488492 187.35681293299422,219.79279781735386 185.82909930712776,220.18168757648527 184.24942263273988,220.27890981056407 182.30600461893482,220.06015966818813 182.01501154730795,220.40043748745666 181.63048498838907,222.63652379596897 180.8094688220881,222.9403365118851 177.8683602771489,222.442083236092 169.9699769053259,222.60006621604407 167.60046189371496,222.1018114644612 167.3094688221463,223.94898896698578" stroke="#4dd2ff" stroke-linecap="round" stroke-linejoin="round" stroke-width="0.5"><title>2022-10-28 6.2km</title></polyline><polyline fill="none" points="11.5,257.92132134532585 11.669014084560331,255.3273723036109 11.848591549322009,254.8579848913796 12.017605633824132,255.03091731540917 13.306338028167374,254.90739418150042 14.320422535238322,255.01856500787835 16.454225352150388,255.74734891511616 16.88732394366525,255.64853102476627 17.130281690100674,254.32683370183076 17.035211267590057,253.88214712684567 16.718309859163128,253.733917892132 16.10563380282838,253.7833276579404 15.75704225350637,253.43745885819226 14.626760563405696,253.49922121899726 14.468309859163128,253.64745075166138 14.595070422510616,253.857442267421 17.838028169062454,254.96915576477477 18.89436619722983,255.15444031860534 23.36267605633475,254.49976691255142 23.404929577489384,255.11738343136676 24.883802816912066,255.01856500787835 25.85563380282838,255.25325862710451 28.338028169004247,254.94445113540132 28.45422535209218,255.17914490357362 29.679577464761678,255.48795177457941 30.6725352111971,255.38913366469205 30.883802816912066,255.2162017712035 30.86267605633475,254.69740455401188 31.031690140836872,254.4750621838175 30.904929577489384,253.86979469778453 31.10563380282838,253.41275390471856 32.0246478873305,252.63454519469815 34.61267605627654,252.91865373755718 35.647887323924806,252.86924360587727 36.852112676016986,252.63454519469815 38.23591549292905,252.07867865467415 38.5,252.51101952559839 37.274647887272295,253.0421789753891 35.65845070424257,253.46216380647093 34.40140845067799,253.41275390471856 34.17957746476168,253.52392615416466 32.5,253.23981908405403 32.140845070418436,253.3386390129599 31.919014084502123,253.67215565547667 31.85563380277017,254.7468139121047 31.528169014083687,255.96968886259128 30.65140845067799,256.2414371124323 29.89084507036023,256.1673240161108 29.76408450701274,255.94498444491182 29.34154929581564,256.00674547937524 28.285211267648265,255.75970114552183 23.774647887330502,255.82146227797057" stroke="#4dd2ff" stroke-linecap="round" stroke-linejoin="round" stroke-width="0.5"><title>2022-10-20 5.2km</title></polyline><polyline fill="none" points="55.09795918362215,256.2242592408584 55.50204081623815,256.8471112581756 56.56734693865292,257.1477977551258 57.6693877549842,256.7397231156501 60.534693877445534,257.04040977158 60.73673469386995,256.7182454802969 61.21428571420256,257.2337081009755 62.05918367346749,257.4484838067292 62.665306122391485,257.2337081009755 65.45714285701979,257.51291647410835 66.41224489791784,256.61085726962483 66.98163265292533,257.1263201629481 68.32244897959754,256.8041560079728 69.6265306121204,256.99745456234086 71.26122448977549,256.7612007486896 71.48163265292533,258.3290618247993 71.75714285706636,258.09280956063594 71.81224489794113,256.5249466601672 72.32653061219025,256.15982616449764 75.35714285704307,257.06188737282355 76.0,258.13576453822316 75.55918367346749,256.39608067787776 73.94285714277066,252.55154125203262 71.68367346923333,253.34622855469934 71.00408163259272,254.46308112777479 69.27755102037918,254.74229331102106 68.39591836731415,254.74229331102106 68.04693877545651,254.39864749246044 62.5367346938001,254.4201253731735 62.095918367267586,254.0979569240444 59.634693877538666,254.57047047448577 59.19387755100615,254.22682436501782 64.59387755102944,253.4750964728446 64.86938775505405,253.99056732743338 64.52040816319641,254.52751474254183 61.9306122448761,254.22682436501782 59.763265306013636,254.57047047448577 58.991836734698154,254.29125805487274 62.793877550866455,253.58248634211486 64.81428571417928,253.51805242734554 64.85102040809579,254.18386856048892 64.55714285711292,254.52751474254183 61.87551020400133,254.22682436501782 59.634693877538666,254.54899260964885 59.01020408165641,254.31273594692175 60.534693877445534,254.03352317291137 61.01224489789456,254.3342138367443 64.48367346927989,254.63490405520133 64.81428571417928,254.37716960943362 64.83265306113753,253.51805242734554 63.58367346925661,253.4106625240238 57.55918367335107,254.65638191089965 54.82244897948112,254.1623906547611 49.257142857066356,252.29380416145432 49.0,251.9501541984646 49.404081632616,251.69241634452192 51.35102040809579,251.67093817521527" stroke="#4dd2ff" stroke-linecap="round" stroke-linejoin="round" stroke-width="0.5"><title>2022-09-24 5.1km</title></polyline><polyline fill="none" points="111.04545454541221,259.8041914785863 112.11264822119847,259.1178895230405 113.3399209487252,254.50092834205134 108.37747035548091,251.50612339074723 104.26877470361069,256.37267371604685 104.26877470361069,259.4922361433273 106.45652173901908,260.42810165468836 110.99209486157633,260.4904926359304 112.16600790503435,259.7418004247593 113.5,254.25136184343137 108.80434782616794,251.31894757662667 104.37549407128245,256.4350651263376 104.48221343872137,260.0537556281779 107.41699604713358,260.1785376634216 108.32411067187786,260.80244744365336 107.36363636353053,261.73831087659346 87.72727272706106,262.861345036712 86.92687747022137,263.48525197961135 88.3142292490229,262.4246097841533 108.91106719360687,262.923735760618 112.05928853736259,262.17504663724685 99.89328063232824,261.73831087659346 100.90711462451145,246.88910263794241 100.32015810278244,246.7643177920836 98.13241106714122,261.98787420796 86.5,261.86309255548986 86.6600790512748,262.54939131764695 112.16600790503435,262.861345036712 110.19169960450381,261.73831087659346 108.00395256909542,262.2374374339124 99.8399209487252,261.55113830877235 100.69367588916793,246.51474802038865 98.66600790503435,261.55113830877235 96.90513833984733,262.2374374339124 88.0474308298435,261.86309255548986 87.94071146240458,262.54939131764695 113.44664031616412,263.1732985905255 106.29644268751144,262.923735760618 111.73913043481298,262.861345036712 111.73913043481298,262.05026502447436 108.59090909082443,261.8007017194177" stroke="#4dd2ff" stroke-linecap="round" stroke-linejoin="round" stroke-width="0.5"><title>2022-09-22 5.0km</title></polyline><polyline fill="none" points="136.34896467725048,257.0766429074574 137.41778319119476,256.9228202250815 138.20706455543404,257.44197125631035 139.14433617546456,257.3073766868911 141.1668696711422,257.63424903976556 142.2356881852029,257.1535541998164 142.20280146162258,256.8074531278544 142.43300852621906,256.7497695518832 142.8276492083678,257.42274346679915 144.7350791717763,257.1920098337723 145.4257003653911,257.46119904382795 146.87271619972307,256.7497695518832 146.88915956154233,257.3650600859837 147.15225334954448,257.6150212705543 147.31668696715496,256.5959465928754 147.64555420225952,256.3844398117071 150.52314250922063,257.1535541998164 151.0,258.0572594473924 150.14494518883293,255.23076212748128 149.14190012181643,253.09643910708837 147.69488428748446,253.6156010673585 147.25091352016898,253.30794971434807 145.4257003653911,253.03875435327063 143.20584652863909,254.78851707362628 140.01583434839267,254.84620127212838 139.60475030448288,253.98093637276907 136.79293544456596,254.38472717172408 135.80633373942692,254.61546436839853 136.95736906211823,255.13462198991328 141.6930572472629,255.0961659206514 142.43300852621906,254.78851707362628 143.78136419004295,254.78851707362628 144.61997563956538,255.0961659206514 146.3300852618995,254.90388545228052 146.64250913524302,254.09630526401452 146.083434835542,253.59637287308578 145.12971985386685,253.5002318709885 143.68270401953487,254.28858658669924 142.7289890378015,253.59637287308578 141.42996345920255,253.96170821713167 139.80207064555725,253.92325189970143 139.76918392209336,254.88465739428648 138.43727162003051,254.65392053933465 136.39829476253362,254.98079766404408 135.36236297199503,254.65392053933465 134.65529841656098,254.9423415622441 133.4878197320504,254.90388545228052 126.74604141293094,252.86569998202322 127.14068209507968,252.25039421652036 126.05542021919973,251.94274055262213 125.41412911086809,252.4042208531464 124.0,252.15425250247063 124.26309378806036,252.3849925307295 126.72959805111168,252.67341715407383 128.96589524968294,252.28885088789684 129.67295980505878,252.94261305624968 130.56090133980615,252.78878687528777 131.07064555416582,252.98106958111748 130.74177831917768,255.86528575996635 130.28136419004295,255.86528575996635 131.3008526188205,256.3075281939091 130.69244823389454,256.3844398117071 130.5444579781033,256.98050374619197" stroke="#4dd2ff" stroke-linecap="round" stroke-linejoin="round" stroke-width="0.5"><title>2022-09-09 5.2km</title></polyline></svg>