<?xml version="1.0" encoding="utf-8" ?>
<svg baseProfile="full" height="300mm" version="1.1" viewBox="0,0,200,300" width="200mm" xmlns="http://www.w3.org/2000/svg" xmlns:ev="http://www.w3.org/2001/xml-events" xmlns:xlink="http://www.w3.org/1999/xlink"><defs /><rect fill="#222222" height="300" width="200" x="0" y="0" /><text fill="#FFFFFF" style="font-size:12px; font-family:Arial; font-weight:bold;" x="10" y="20">Over 5km Runs</text><text fill="#FFFFFF" style="font-size:4px; font-family:Arial" x="10" y="280">ATHLETE</text><text fill="#FFFFFF" style="font-size:9px; font-family:Arial" x="10" y="290">fengde</text><text fill="#FFFFFF" style="font-size:4px; font-family:Arial" x="120" y="280">STATISTICS</text><text fill="#FFFFFF" style="font-size:3px; font-family:Arial" x="120" y="285">Number: 42</text><text fill="#FFFFFF" style="font-size:3px; font-family:Arial" x="120" y="290">Weekly: 1.6</text><text fill="#FFFFFF" style="font-size:3px; font-family:Arial" x="141" y="285">Total: 255.3 km</text><text fill="#FFFFFF" style="font-size:3px; font-family:Arial" x="141" y="290">Avg: 6.1 km</text><text fill="#FFFFFF" style="font-size:3px; font-family:Arial" x="167" y="285">Min: 5.0 km</text><text fill="#FFFFFF" style="font-size:3px; font-family:Arial" x="167" y="290">Max: 10.0 km</text><polyline fill="none" points="25.457739557721652,46.44289783833665 25.72309582302114,47.00142594514182 28.310319410287775,47.63752480941184 29.02678132674191,47.5134081744618 29.729975429887418,47.24965997649997 30.035135135112796,46.380839028483024 30.26068796060281,44.348398493326386 30.671990171947982,43.882950132130645 33.073464373417664,44.14670438483881 33.35208845202578,43.976039922534255 35.673955773876514,43.882950132130645 38.5,42.92101883768919 38.22137592139188,42.362475190573605 34.98402948398143,43.37095522857271 33.16633906628704,43.417500293653575 30.49950859945966,43.04513935929572 29.278869778790977,43.99155488189717 29.000245700241067,44.689726352647995 29.146191646170337,45.1241424792679 28.920638820622116,46.3187801924214 27.3019656019751,46.70664748713898 25.855773955758195,45.884367604448926 24.741277641267516,45.86885284536402 24.104422604374122,46.22569188903435 22.273464373429306,46.33429490387789 21.729484029463492,46.101574059270206 18.837100737029687,46.132603526551975 18.372727272682823,45.54304252550355 14.40565110562602,46.256721330064465 13.450368550373241,46.16363298727083 12.070515970466658,45.83782332230476 11.5,45.294805605502916 11.765356265299488,43.80537526161061 12.495085995062254,43.86743516130082 12.402211302192882,44.937964296826976 12.043980343965814,45.18620182087761 11.818427518417593,46.41186843668402 12.229729729704559,46.59804474799603 15.81203931197524,47.14105763947009 25.086240786185954,46.92385272415413 28.41646191640757,47.622010235791095 29.46461916458793,47.29620381059067" stroke="#4dd2ff" stroke-linecap="round" stroke-linejoin="round" stroke-width="0.5"><title>2023-06-25 5.0km</title></polyline><polyline fill="none" points="45.06409406155581,57.18305231854902 45.45541589544155,57.55523448936583 45.247526171209756,58.01330344271264 45.77336488547735,57.79858381464146 46.5926949752029,58.5 46.984016809030436,58.47137083944108 47.52208433067426,57.82721311812929 47.876719742664136,57.85584241557808 48.09683827421395,57.16873759914597 48.73273625422735,57.082849250829895 49.13628689543111,56.32416646373167 48.965083593153395,54.7495281820884 49.46646469278494,53.86199668061454 51.61873477912741,55.23623652430251 52.26686156645883,54.7495281820884 53.03727642697049,55.021512472318136 53.88106413127389,55.021512472318136 55.71538522763876,52.401851493821596 56.81597788538784,51.70040357331163 57.072782838891726,51.013267376765725 57.61085036047734,50.36907401079952 58.601383752480615,49.6676155103778 58.91933274251642,48.923206578037934 59.62860356649617,48.379212834945065 59.273968154448085,46.73290260236536 59.56745952984784,45.616263345771586 59.89763732725987,45.01499222127313 62.23333952325629,42.86757344743819 62.69803420105018,41.693636717114714 62.587974935246166,38.25766556158487 62.88146631058771,35.136582486884436 64.66687217768049,32.473582886115764 64.9359059385024,31.772031220578356 64.67910098505672,31.5 64.01874539034907,31.5 63.78639805142302,31.81498346834269 64.01874539034907,32.44494819579995 63.407305024855305,33.03195813143975 63.44399144680938,33.704868813671055 63.077127227559686,33.862358062469866 62.61243254982401,34.85024096936104 61.74418723088456,35.89538456524315 61.829788882052526,36.42511178499262 60.814797875413205,37.1839066066168 60.30118796840543,38.71580011135666 60.27673035382759,38.987816763299634 60.98600117774913,39.188249734346755 60.839255490049254,40.53400624735514 62.575746127869934,40.67717104284384 62.759178237523884,41.665003986199736 62.49014447676018,42.55261581632658 59.824264483409934,45.229732216583216 59.26173934718827,46.57542839583766 59.67751879565185,48.27900322167261 58.99270558642456,48.837312975141685 58.72367182560265,49.51014473299438 57.57416393852327,50.36907401079952 56.91380834381562,51.457043237707694 56.057791832252406,52.215753421754926 55.44635146681685,53.47548920002009 55.00611440365901,53.8763117511844 54.87159752327716,54.592063342177426 53.844377709319815,55.42233042595035 53.92997936048778,55.95198089367477 53.39191183890216,56.352796080405824 52.32800560304895,55.679998481035" stroke="#4dd2ff" stroke-linecap="round" stroke-linejoin="round" stroke-width="0.5"><title>2023-06-21 5.9km</title></polyline><polyline fill="none" points="75.34899277432123,57.088740186198265 75.45749878929928,57.21575418319844 75.1922618636745,57.25809215515619 75.50572368490975,57.58268282581412 75.97591641667532,57.6532459101727 75.83124173001852,58.34476215408358 76.4461091485573,58.5 77.20565125369467,58.27419943692803 78.146036717284,56.94761338054377 78.67651056853356,56.87704992145882 79.08642218093155,56.312540900253225 79.0502535092528,54.39319229043031 79.55661491269711,53.54641203158826 81.59411675046431,54.91537076032546 82.32954640785465,54.44964411582623 83.89685551385628,54.74601580570743 85.63295175437815,52.14921280705312 86.70595568075078,51.40121122470009 87.62222869653488,50.04632971271349 88.65906395128695,49.29831629208638 88.85196353361243,48.64909368324152 89.53916829545051,48.2256859249901 89.15336913091596,46.7014068227727 89.40654983260902,45.37470522179501 91.91424440219998,43.10234510540613 92.50499937287532,42.0861217926431 92.6255616118433,37.188380977502675 92.38443713402376,36.70847735108691 92.43266202951781,36.03096339745389 92.95107965689385,34.56300464287051 94.47016386734322,32.64334179244179 94.8077381363255,31.71173070410441 94.61483855405822,31.5 93.83118400111562,31.627038462960627 93.71062176214764,31.895230374619132 93.8914651205414,32.43161257338943 93.32482259755488,33.01033830587403 93.40921616484411,33.631407018663594 92.96313588082558,33.89959488325985 92.40854958177079,34.98645594854315 91.62489502882818,35.847469440312125 91.72134481993271,36.39795055129798 90.76890313246986,37.146036609628936 90.21431683341507,38.71276923165715 90.19020438560983,38.98094683732779 90.91357781912666,39.22089476243127 90.6603971174336,40.519428955347394 92.42060580570251,40.505314521476976 92.66173028358025,41.62035017639573 92.14331265620422,42.83417581953108 89.82851766882231,45.02185682102572 89.50299962377176,45.642869379604235 89.27393136976752,46.89899954473367 89.63561808661325,48.09866333437094 88.96046954864869,48.60675296813133 88.58672660792945,49.39711075880041 87.62222869653488,50.07455655175727 86.88679903920274,51.274191669828724 85.71734532160917,52.092760004336014 85.1748152464279,53.108906783571 84.54789160407381,53.64520333985274 83.99330530501902,54.717789958944195 82.24515284068184,54.49198296916438 81.71467898937408,54.95770946521952 79.72540204715915,53.588751172690536 79.13464707642561,54.19561071268981 79.23109686758835,56.08673662036017 78.86941015080083,56.862937225188944 78.29071140399901,56.94761338054377 77.69995643326547,56.53834479652869 77.00069544749567,56.66535931956605" stroke="#4dd2ff" stroke-linecap="round" stroke-linejoin="round" stroke-width="0.5"><title>2023-06-15 6.6km</title></polyline><polyline fill="none" points="115.6819159577426,41.70439563605032 115.697239911824,41.90148336359562 115.33712699034368,42.34940831192944 115.39076082970132,42.922748790129845 115.82749352173414,44.64274694559572 115.97307108572568,46.28208768815966 116.34084598429035,46.60457721554121 116.486423548311,47.76015460976487 116.88484635506757,48.906758463563165 116.66264902052353,49.58754716107069 116.87718437798321,50.09813509498781 116.80056460745982,50.5728895365537 116.94614217148046,51.03868376225728 117.122367643693,51.14617437386187 117.28326916182414,52.49875291790522 117.41352277170517,52.722687680063245 117.32157904707128,54.44248693171539 117.55910033572582,55.31133057650004 117.96518511950853,55.347158989192394 118.14141059172107,57.165431045687 117.7276638308831,57.88198074747925 117.98050907358993,58.14172851849435 117.98817105067428,58.5 117.94986116542714,57.38039659226342 118.14141059172107,57.21917248344835 118.00349500478478,55.347158989192394 117.57442428980721,55.30237347094953 117.30625509293168,54.03941211324127 117.45183265692322,53.83339535460982 117.45949463400757,52.71373030093673 117.32924102409743,52.57041210614989 117.18366346010589,50.92223544586159 117.59741022097296,50.13396571165504 117.26028323065839,47.69744926407293 116.4404516859795,44.88461888587335 116.51707145647379,44.821911412102054 115.86580340701039,41.85669073849567 114.9540281376976,41.22959150059614 115.10726767874439,40.69207417348662 115.0459718623315,40.047048879067006 114.24912624878925,39.43785381360067 114.11121066185297,39.187007513290155 113.85070344206179,37.34147261079488 113.65915401570965,37.018947820834 113.42163272708422,35.75571390246478 111.85858940824983,32.07341391714726 112.02715290343622,32.0644543545568 111.87391336238943,31.5 112.12675860512536,31.98381824851822 112.21870232975925,32.709540439071134 112.12675860512536,32.93352751365455 112.70906886117882,34.02657593906042 113.52123842877336,36.07824350237934 113.46760458938661,36.33805812027276 113.82771751092514,37.33251360544091 114.12653461596346,39.267636762248 115.05363383935764,40.06496631469781 115.09960570171825,40.701032823562855 114.93104220653186,41.25646727743879 115.75087375121075,41.76710541728971 115.32946501328843,42.34044983615604 115.42907071494847,42.68087124905287 115.75087375121075,42.74358030749136 115.79684561351314,43.12879207674996 115.6359440954111,43.352751602535136 115.42907071494847,43.06608330340532 115.34478896736982,42.34044983615604 115.70490188887925,41.92835892727453 115.7125638659054,41.65960290678777 114.83909848186886,41.21167431130743" stroke="#4dd2ff" stroke-linecap="round" stroke-linejoin="round" stroke-width="0.5"><title>2023-06-04 8.0km</title></polyline><polyline fill="none" points="158.3229121118784,55.417017308660434 156.70550940092653,55.458433292777045 156.0089637078927,55.92781352766906 155.13533012679545,55.80356598277285 154.78115435061045,56.03825569055334 153.3644512462197,55.78976069269993 152.90402273723157,55.29276927738101 151.7470485351514,53.09770121812471 150.5782684739679,51.84138778998749 149.6337997376686,51.51005036463903 147.4261040664278,51.30296404658293 145.67883690423332,50.4055862036912 145.12396152166184,49.14924685511505 144.98229121119948,47.934313781850506 144.46283340617083,47.31303681587451 143.51836466987152,47.10594383649004 140.236335811147,47.644384899234865 139.575207695656,47.326843002825626 138.0050284215249,45.98763606759894 137.61543506773887,45.90479807379597 137.78071709664073,45.26970504040946 136.67096633143956,43.11588825476065 136.58832531701773,42.45316824398469 136.28137297765352,42.190840643059346 136.03344993438805,41.44527510770422 135.27787494531367,41.141524964317796 134.9000874508056,40.38214651160524 135.3369042413542,40.20265641325386 132.77503279404482,36.28142647961795 131.6062527328031,33.809886488175835 131.5,33.906539769945084 132.8222562308656,36.405692616986926 135.8917796239839,41.10010443540523 135.78552689112257,41.29340012438479 136.60013117617927,42.563621812922065 136.63554875383852,43.26776111642539 136.95430695230607,43.474860188303865 137.75710537820123,45.29731784528121 137.61543506773887,45.94621707723127 138.04044599912595,46.04286136760493 138.24114560557064,46.41563153115567 140.28355924790958,47.63057874588412 143.34127678180812,47.11975004532724 144.47463926539058,47.34064918832155 145.04132050724002,48.113793243494 145.1121556624421,49.232082789065316 145.572584171372,50.364168615764356 147.50874508090783,51.358187096891925 149.4331001311657,51.496244620357174 150.61368605156895,51.88280490897887 152.03038915607613,53.55328441786696 153.35264538694173,55.77595540114271 154.56864888500422,55.941618803175515 154.69851333624683,56.190113511824165 155.46589418448275,55.72073422042013 156.78815041540656,55.44462796625157 158.3465238303179,55.44462796625157 158.5,55.251353240717435" stroke="#4dd2ff" stroke-linecap="round" stroke-linejoin="round" stroke-width="0.5"><title>2023-06-01 6.5km</title></polyline><polyline fill="none" points="188.5,57.618194316732115 186.87768240342848,57.904260790979606 186.10515021457104,57.70853116021317 185.59012875537155,57.196621622511884 183.82618025748525,54.140182241550065 183.09227467805613,53.53792043462454 182.06223175959894,53.08622240681143 179.71888412017142,52.8152029018529 177.78755364805693,51.85157381526369 177.16952789702918,50.677142043350614 177.0150214592577,49.246731280349195 176.37124463520013,48.55410616514564 175.2896995707997,48.343306547860266 171.68454935622867,48.87030500557739 169.6244635193725,47.560333806686685 169.34120171674294,46.82252862706082 169.0836909871432,46.65689836704405 169.13519313302822,46.340694608021295 168.2339055793709,44.29288182372693 167.8733905579429,44.08207589338417 167.88626609439962,43.35931033238012 167.4742489270866,42.90757999231573 167.30686695274198,42.18480846498278 167.03648068674374,42.01917280622001 167.10085836908547,41.71801656890602 165.00214592274278,38.1944412306766 163.86909871245734,36.71872990473639 162.15665236057248,33.36067667452153 161.70600858371472,32.96914961337461 161.5,32.09573920900584 161.65450643771328,32.878797061610385 162.1952789700008,33.39079409613623 163.7789699570858,36.688613187667215 167.10085836908547,41.6577852449409 166.9592274678289,41.97399941121694 167.860515021428,43.34425267750339 167.8733905579429,44.12724861902825 168.24678111588582,44.35311203218589 169.12231759657152,46.340694608021295 169.01931330474326,46.61172644450562 169.37982832617126,46.83758591384685 169.6115879827994,47.50010495581955 171.25965665234253,48.6444487626577 172.03218884125818,48.91547621112841 175.2639484978863,48.35836367376032 176.3068669528002,48.478820623407955 176.92489270382794,49.14133202377707 177.14377682405757,50.73736954946071 177.68454935628688,51.89674407450366 179.4871244635433,52.8152029018529 182.19098712445702,53.131392274051905 183.1952789699426,53.552977010869654 184.41845493559958,54.95323163794819 186.0150214591995,57.63325046132377 186.3755364806857,57.88920467509888 187.40557939914288,57.88920467509888" stroke="#4dd2ff" stroke-linecap="round" stroke-linejoin="round" stroke-width="0.5"><title>2023-05-26 6.2km</title></polyline><polyline fill="none" points="11.5,83.76113778724539 12.5322496748704,84.23739935003687 14.112223667092621,84.38520406845782 14.259687906363979,84.57406524348335 15.959037711290875,84.40162679755304 16.239921976579353,84.67260132631054 17.356436931091594,84.56585389761312 17.187906371924328,84.68902399462968 17.426657997391885,84.98463143000117 17.784785435622325,84.77934860821551 18.121846553956857,84.78755993150116 18.388686605991097,84.79577125392825 18.550195058516692,84.96820882424072 19.097919375781203,85.13243472552858 19.898439531883923,85.13243472552858 20.12314694406814,84.90251836641983 20.10208062417223,84.1470741058074 20.214434330322547,83.83504063509463 20.7762028608704,83.31771922245389 21.281794538343092,83.27666181977838 22.50364109230577,83.49016007643513 23.809752925881185,83.35877660338883 24.680494148284197,83.05495147014153 26.52028608584078,82.08598769493983 29.28699609884643,81.69182947761874 31.44278283487074,80.64894287267816 31.709622886875877,80.1398120377853 31.498959687916795,79.02299721694726 31.06358907671529,78.23464766665711 30.670351105334703,77.14244182665425 29.926007802336244,76.69077326447587 30.031339401815785,76.40334644697577 30.852925877756206,76.86322884393303 31.597269180754665,76.8714410048342 32.19414824448177,77.07674474464875 34.37802340701455,79.48286408960121 34.750195058528334,79.65531346432545 35.05916775032529,79.56498288724106 35.733289987023454,78.86697033744713 36.50572171653039,77.70086477819859 37.67841352405958,76.49368070434139 38.5,74.27635490677494 37.987386215885635,75.7545791453158 37.481794538354734,76.75647067325917 36.5267880364263,77.63516816894844 35.72626788038178,78.83412253339338 35.017035110562574,79.58140663636732 34.694018205453176,79.65531346432545 34.09011703511351,79.23650717529381 32.187126137840096,77.06853260547359 31.569180754217086,76.86322884393303 30.831859557860298,76.83859235602722 30.066449934995035,76.37049760004447 30.01027308194898,76.5511660860866 30.670351105334703,77.18350247469061 31.470871261379216,79.03942108074989 31.688556566950865,80.14802385194344 31.27425227567437,80.78854267943825 29.659167750331108,81.57686628717056 28.43029908972676,81.85606231143174 28.128348504542373,81.7821575792259 27.046944083209382,81.92996697326453 26.239401820581406,82.15168053653179 25.0456436930981,82.86608659868944 25.087776332889916,83.2356043954278 23.767620286089368,83.73650348899537 23.205851755512413,83.83504063509463 22.37724317298853,83.79398350609699 22.264889466838213,83.88430916121433 20.958777633321006,83.73650348899537 20.7762028608704,83.93357765609107 20.670871261390857,84.91072967670334 20.41807542263996,85.53478671524499 19.74395318594179,85.72364509322506 18.508062418724876,85.40340670302976" stroke="#4dd2ff" stroke-linecap="round" stroke-linejoin="round" stroke-width="0.5"><title>2023-05-21 9.9km</title></polyline><polyline fill="none" points="68.5,83.62927641313581 67.81932773115113,83.97040065689362 66.49039615847869,84.0083033105766 64.88595438183984,83.55347093744786 64.61044417775702,84.0083033105766 63.63805522210896,83.97040065689362 61.563625450246036,82.87122021231335 60.33193277317332,82.98492884694133 59.181272509042174,82.22686991936644 55.61584633856546,82.47323942270305 54.5462184874923,82.32162746074027 53.91416566632688,82.8333173180581 49.95978391362587,84.36837812034355 49.29531812726054,83.91354666140978 49.003601440635975,82.54904535558308 45.956782713124994,78.87242065853206 45.45438175275922,78.51233480090741 41.87274909968255,78.07644042580796 45.79471788718365,78.70185376358859 49.100840336235706,82.79541441582842 49.279111644718796,84.04620595621236 49.92737094842596,84.36837812034355 53.735894357727375,82.96597741283767 53.99519807926845,82.53009387537895 52.6338535414543,82.41638495202642 51.40216086443979,81.86679080491012 50.672869147732854,82.1321123278467 50.251500600308646,83.06073456327431 50.89975990401581,83.38290849972691 50.494597839191556,83.72403321265301 50.672869147732854,84.06515727605438 50.23529411770869,84.3494268325885 49.70048019220121,84.23571906406141 49.3115246098605,84.02725463436218 49.246698679518886,83.06073456327431 48.85774309729459,82.37848196148116 48.063625450246036,81.71517832971585 47.10744297725614,80.12323959208152 45.64885954384226,78.53128670626029 42.456182472989894,78.11434432661918 45.58403361350065,78.53128670626029 48.938775510236155,82.49219090890256 49.392557022860274,83.66717913896719 48.85774309729459,83.38290849972691 47.15606242505601,80.16114305978408 45.69747899158392,78.58814241003711 41.5,78.05748847240466 41.80792316934094,75.631621879671 45.827130852325354,75.74533511018672 46.605042016890366,76.18123515821935" stroke="#4dd2ff" stroke-linecap="round" stroke-linejoin="round" stroke-width="0.5"><title>2023-05-19 5.4km</title></polyline><polyline fill="none" points="71.5,79.7164661706338 74.15037593984744,79.75603090957884 78.42481203010539,81.04847214277834 79.96992481203051,81.33861016987794 89.20676691731205,81.21991742223327 91.71052631578641,81.81338003047858 92.86090225563385,81.39136246587441 93.30075187975308,78.8328503964658 93.59398496244103,78.58227164897107 95.6917293232982,78.8592270774243 95.86090225563385,78.661401834157 97.80075187975308,78.63502511137631 98.46616541355615,78.43719951230014 98.5,78.18661996951414 97.30451127822744,78.70096690794162 95.87218045117334,78.6877785514007 95.64661654137308,78.8328503964658 93.56015037599718,78.60864838293492 93.24436090228846,78.93835708684492 92.81578947370872,81.41773860555986 91.82330827071564,81.76062791306322 89.01503759401385,81.16716505365912 80.5676691729459,81.36498632068106 78.27819548873231,80.96934347275965 74.06015037593897,79.7164661706338 71.91729323309846,79.78240739519242" stroke="#4dd2ff" stroke-linecap="round" stroke-linejoin="round" stroke-width="0.5"><title>2023-05-17 5.0km</title></polyline><polyline fill="none" points="104.25912408763543,82.45126765682653 105.11015262111323,82.92265003185457 105.57597876578802,82.72362219164643 106.93762441939907,82.92265003185457 107.32282680826029,82.67124637778761 107.35865958861541,82.35699091257266 109.29362972796662,82.27318928674504 113.19940278702416,82.22081323460588 115.25082946254406,82.6502960444268 115.98540145991137,82.4093668926871 116.30789648310747,80.51333876167337 116.59455872600665,80.10479755939014 117.47246184473624,80.26192899051966 118.35932315862738,80.16765016175486 119.63138686132152,80.29335524681665 122.10384870605776,79.42389180975442 124.11944260122254,78.38681097867811 126.10816191107733,78.2506278404544 128.01625746523496,77.69541772310185 128.5,77.47542794749461 128.32979429332772,77.55923363391776 128.23125414730748,77.07734996814543 127.99834107497009,77.27638915788702 127.0935633709887,77.52780650982459 123.6088254810893,78.02016364139126 121.2976111479802,79.25628352245258 119.92700729926582,79.68577919066593 118.49369608494453,79.79053394906805 116.97080291970633,79.53912234269228 116.36164565366926,79.58102432142914 115.60019907105016,80.25145356955181 115.40311877906788,81.83322958769713 114.18480424687732,82.03225921748526 114.2385534173809,81.91703158582823 113.87126741878456,81.70752645747416 113.61147976113716,81.14186039681226 113.11877903121058,80.92187827832822 112.50066357001197,81.06853307828715 112.09754479100229,81.64467483254703 111.45255474455189,81.74942751861818 110.91506303916685,81.75990278113022 110.65527538151946,81.59229844793299 108.63968148641288,81.6341995578332 108.45155938953394,81.17328637385071 108.34406104846857,81.17328637385071 105.60285335103981,81.72847699025442 103.80225613806397,81.3827926325248 101.52687458531,80.56571571694076 101.5,80.38763395587011 101.92999336431967,80.30383066334616" stroke="#4dd2ff" stroke-linecap="round" stroke-linejoin="round" stroke-width="0.5"><title>2023-05-14 6.3km</title></polyline><polyline fill="none" points="131.8776937618386,85.75332964488916 132.20434782613302,83.73616817298898 131.5,83.4735764533907 131.8981096408097,83.39002441448247 132.01039697544184,83.18711206242006 132.21455576561857,81.27733087239903 132.08185255201533,81.15796847490856 132.43913043482462,81.16990472034377 132.6330812854576,77.25474850706087 132.78620037809014,76.93245825514168 135.1544423440937,77.09957183402003 137.6962192817009,78.0186920937631 137.92079395084875,77.95900918731786 138.17599243862787,77.46960816358478 140.1461247637053,77.91126283940685 141.25879017013358,77.98288235368818 148.64933837432181,77.83964327967988 150.87466918717837,78.34097924314847 151.77296786388615,78.0186920937631 152.15066162572475,75.76265627289831 152.39565217396012,75.48810915247304 154.34536862006644,75.63135121169762 156.13175803405466,75.54779336594947 158.5,74.72414843213483 158.2856332703377,74.24667035511811 156.92797731567407,74.80770688786288 155.8357277882751,75.03450809862261 154.47807183366967,75.08225566385227 152.27315689984243,74.80770688786288 151.34423440456158,75.54779336594947 151.1502835538704,76.1088234290437 151.28298676747363,76.56242016401666 151.09924385638442,77.33830508879328 150.12948960304493,77.5770378384259 149.08827977319015,77.29055847824202 148.7207939508371,76.9921417045698 147.83270321367308,76.9921417045698 147.42438563331962,77.24281184745632 146.47504725895124,77.32636843804357 145.5665406427579,77.15925519503071 144.01493383746129,77.23087518662214 142.3408317581052,77.06376180223015 141.18733459356008,77.23087518662214 140.5034026465146,77.05182512245665 139.58468809071928,77.23087518662214 138.1657844990841,76.93245825514168 137.71663516073022,76.52660996173654 137.68601134215714,75.96558197597915 137.26748582231812,75.9417083828157 137.8187145558186,76.06107629822509" stroke="#4dd2ff" stroke-linecap="round" stroke-linejoin="round" stroke-width="0.5"><title>2023-05-12 6.0km</title></polyline><polyline fill="none" points="168.55365607858403,93.35563351665041 168.8287759810337,93.3445283943147 168.09828520554584,92.94474320396694 168.30699685565196,93.00026901623642 168.44930025353096,92.80037595404428 168.38289200118743,93.31121302016254 168.55365607858403,93.20016169633163 169.19876481534448,93.5 169.749004620302,93.47778978475253 169.91028180450667,92.70042927964096 169.8343866590294,91.43442980173131 170.21386238653213,90.9013728042919 170.18540170695633,90.623737875183 172.50969053810695,88.8690680706859 173.211720634019,88.18051871030184 174.0370803414262,87.02552250371082 174.65372839861084,85.19305041840562 174.86244004877517,81.25035006396502 175.05217791249743,81.05043453563121 175.0426910193637,80.12859687567834 175.45062742644222,78.81801849725889 176.674436647736,76.76326508170314 178.80898761510616,74.7528996740075 179.64383421564708,73.44225388984341 180.57354974810733,69.15477234565333 181.90171479451237,66.5 180.61149732087506,69.0103722370186 179.86203275900334,72.5981004455316 179.4540963518666,73.77547047781991 178.60027596494183,74.98614847219869 177.16775509354193,76.20791938700859 176.29496092023328,77.2519668523164 175.5265225719195,78.56256486586062 175.1280730580329,79.89535955263273 175.02371723297983,80.47289863955666 175.13755995122483,81.10596666519996 176.26650024065748,81.03932810619153 177.61363907332998,81.18371159697563 178.32515606249217,81.02822167558043 179.26435848808615,81.19481801109214 179.95690169086447,81.10596666519996 180.250995379698,81.26145647095836 180.37432499113493,81.77234991874866 180.24150848650606,82.28324086971406 178.34412984887604,84.04912731822697 177.9931148008909,84.65996159899805 177.8508114030701,85.55954740497691 178.17336577142123,86.85893545950239 174.86244004877517,91.22342839852354 173.42991917737527,92.82258631316654 173.20223374082707,92.82258631316654 170.232836172916,90.84584587741847 169.85336044535507,91.51216705346451 169.98617694998393,92.58937730717298" stroke="#4dd2ff" stroke-linecap="round" stroke-linejoin="round" stroke-width="0.5"><title>2023-05-09 7.6km</title></polyline><polyline fill="none" points="23.944519728247542,128.5 24.148336608312093,126.5253742155619 23.813494591158815,125.45293799169303 21.935467624745797,124.8571370018326 18.383230572217144,124.38049462188792 18.295880480785854,123.54636706043675 18.54337240656605,121.62275028511067 20.013765612791758,121.65679679957975 19.547898458316922,121.55465723454836 19.402314972598106,120.26088379997236 19.05291460675653,120.58432813371473 18.528814058052376,120.22683699020126 18.57248910376802,109.92734635573288 18.761747635202482,109.43363520609273 18.295880480785854,109.67197870883683 17.684429840592202,109.33148788248945 18.674397543771192,107.54389922301925 18.732630938116927,106.33513754123123 19.300406532536726,106.04571438264975 19.547898458316922,109.2293404940574 19.096589652472176,110.60832476618816 19.213056441105437,111.93622437746671 19.387756623968016,112.22563694084238 20.494191115780268,112.1064671248314 21.251225241692737,111.4765680598357 20.829033132991754,108.9739717393677 21.513275516103022,107.95249266753672 21.455042121757288,107.45877545815893 20.960058270196896,107.56092397061002 19.955532218446024,107.0672055597388 20.290374235715717,106.55646078179416 20.930941573053133,106.57348563388223 21.78988413908519,106.99910634967091 22.110167807724793,106.8118333734601 22.226634596358053,107.01613115487271 23.202043950848747,104.58156571917061 23.100135510903783,103.11740373156499 22.692501750716474,101.90860879354295 22.35765973350499,101.5 21.60062560753431,101.89158344782481 21.280341938894708,102.55557059420971 21.717092396167573,102.04481149405183 21.58606725896243,102.72582326723204 21.87723423045827,103.16847937401326 22.212076247727964,103.25360540873953 22.692501750716474,102.79392428601568 22.983668722270522,102.87905051896814 23.187485602276865,103.71328521810938 23.100135510903783,105.0412417344487 22.110167807724793,106.98208154267923 19.504223412659485,109.34851244089077 19.125706349674147,110.55725148538477 19.34408157825237,112.27670969208702 19.86818212707294,112.61719428631477 21.702534047537483,112.4469520792627 22.721618447918445,112.61719428631477 23.56600266532041,113.21304059261456 24.70155385421822,113.19601644303475 26.302972197532654,114.06424577436701 27.875273843761533,114.28555838404282 30.510334935970604,114.06424577436701 30.94708539324347,114.52389470030903 32.25733676512027,114.57496672208072 32.3155701594078,115.98795289857662 32.02440318791196,117.14557088144647 31.73323621635791,117.07747593650129 31.45662759343395,117.67330572784704 31.675002822070383,118.71174666276784 31.15090227330802,121.35037791002833" stroke="#4dd2ff" stroke-linecap="round" stroke-linejoin="round" stroke-width="0.5"><title>2023-05-06 6.0km</title></polyline><polyline fill="none" points="48.54284203052521,128.488835180382 48.237629246141296,128.310197905339 48.580993628595024,128.01991168599488 49.32494979049079,128.5 49.6301625748747,128.4665055376172 49.763693168060854,127.69612995725038 49.64923837390961,126.55730354105617 50.0402922538924,125.89856498214795 49.99260275636334,125.68642795733467 52.319850237166975,123.93348984222393 53.76961096300511,122.19168798450846 54.48495342634851,120.19304644649674 54.70432511513354,116.15098483863403 54.90462100482546,115.91649583106482 54.84739360777894,115.3581865644228 55.20983378926758,113.99589950602967 56.20177533844253,112.17576710690628 58.67209131200798,109.69676306987094 59.61634336365387,108.08872917995177 60.43660272168927,104.13554125385417 61.7623707538005,101.5 60.407989023136906,104.202545678163 59.66403286124114,107.86538919340092 59.311130579328164,108.7252455372145 58.45271962322295,109.94243274722248 56.21131323801819,112.11993432638701 55.25752328679664,113.83957035341882 54.84739360777894,115.34702034883958 54.97138630144764,115.73783718843333 54.694787215674296,116.26264608688507 54.55171872297069,119.85807487252896 53.864989958063234,122.04653652687557 53.378557083022315,122.81695351059898 52.50107032788219,123.76601014851622 50.04983015340986,125.67526283892221 49.71600367053179,125.55244645797211" stroke="#4dd2ff" stroke-linecap="round" stroke-linejoin="round" stroke-width="0.5"><title>2023-05-04 6.1km</title></polyline><polyline fill="none" points="72.3203300824971,120.08631591555604 72.59377344336826,117.04291295647272 72.67479369841749,116.8297532289871 72.89759939984651,116.80606878973776 72.68492123024771,116.71133098277642 72.63428357086377,116.24948302568373 72.90772693173494,112.7085853888857 73.1406601650524,112.56647344709927 73.99137284321478,112.73227069498535 75.2876969242352,112.7085853888857 77.03975994000211,113.34808689445344 77.79932483116863,113.45467012354493 78.05251312826294,112.00986660464696 77.88034508621786,111.59537034973619 77.12078019505134,111.61905589134403 76.74606151535409,111.21640100210789 75.62190547637874,111.27561504726327 75.19654913729755,111.08612999255274 74.66991747939028,111.28745785251522 73.98124531138455,111.28745785251522 72.69504876219435,110.62425882802927 72.08739684917964,110.74268751341151 71.5,110.4939871293609 71.51012753188843,110.99138734491862 72.14816204051021,111.09797281785723 72.25956489122473,110.64794457514654 72.74568642157828,110.68347318637097 73.85971492878161,111.28745785251522 74.76106526632793,111.45325699471869 75.35858964745421,111.29930065650842 75.71305326325819,111.66642695957125 78.41710427607177,112.62568677810486 79.68304576142691,112.89806769731513 80.04763690923573,112.94543822430569 80.58439609903144,112.69674273396959 81.3540885221446,112.89806769731513 82.31620405102149,112.69674273396959 82.79219804948661,112.80332658316911 83.19729932479095,112.63752944052976 83.65303825959563,112.83885451038077 85.80007501877844,112.7677986447161 86.48874718678417,112.98096610642096 87.52175543888006,112.89806769731513 87.90660165040754,112.62568677810486 88.82820705173071,112.62568677810486 89.1421605400974,112.90991033095634 90.30682670668466,113.18229055862321 91.20817704428919,113.00465135485865 91.36009002249921,112.12829382420023 91.22843210800784,111.79669729382294 91.42085521377157,111.24008662391861 92.3222055513761,110.45845845794975 95.63390847714618,110.70715892095905 97.04163540888112,110.4347726707565 98.27719429857098,109.91368408445123 98.5,110.35187237609352 97.50750187551603,110.8255875186369 95.76556639163755,111.25192943293223 94.3578394599026,111.32298626079864 92.45386346586747,111.14534410658234 92.18042010505451,111.50062813310069 92.08927231805865,112.69674273396959 91.82595648913411,113.64415116920281 90.83345836465014,113.98758474692295 88.71680420107441,113.47835527179996 81.17179294826929,113.6323086132179 79.41972993250238,113.37177206525666" stroke="#4dd2ff" stroke-linecap="round" stroke-linejoin="round" stroke-width="0.5"><title>2023-04-26 7.0km</title></polyline><polyline fill="none" points="101.5,117.8816031635215 101.878151260491,117.10041524880216 101.70168067223858,116.5550550519838 101.73949579824694,114.68312678759685 101.878151260491,114.25567507422238 102.16806722682668,114.10827762763074 105.67226890753955,114.4325518043479 107.71428571426077,115.2874528344546 108.30672268901253,115.22849431114446 109.31512605038006,115.52328667828988 109.79411764704855,115.86229712955537 110.23529411759228,115.75912012303888 111.00420168059645,116.02443227119511 112.99579831928713,115.89177626025048 113.89075630251318,116.45187855842232 114.57142857142026,116.18656722415471 115.39075630245497,116.45187855842232 116.10924369742861,116.30448343507305 116.6890756302164,115.92125538468827 117.19327731087105,116.36344150311197 118.54201680672122,116.15708815582911 119.13445378147298,116.2897439141816 120.88655462185852,115.52328667828988 121.63025210087653,115.59698467268026 122.91596638655756,116.11286954164098 123.30672268907074,115.62646385945845 124.20168067223858,115.75912012303888 125.3991596638225,115.31693208677461 125.66386554623023,114.594688609679 125.85294117644662,112.6932542064169 126.09243697475176,112.31001622333133 126.68487394956173,112.11839683649305 127.56722689070739,112.38371591737086 128.5,112.38371591737086 126.5210084033315,112.13313679870043 126.07983193278778,112.28053633484524 125.81512605038006,112.61955467615917 125.3991596638225,115.3464113328373 124.10084033611929,115.78859927556186 121.22689075628296,115.11057718961092 111.2436974789598,115.2874528344546 109.79411764704855,115.05161859143118 104.65126050414983,113.50394646626955 102.39495798316784,113.57764552872686 104.57563025207492,113.71030374293332 104.72689075628296,113.5629057193728 105.10504201677395,113.72504353668774" stroke="#4dd2ff" stroke-linecap="round" stroke-linejoin="round" stroke-width="0.5"><title>2023-04-20 5.0km</title></polyline><polyline fill="none" points="137.68024633004097,127.61733862921392 137.81818138668314,128.3815946527684 137.68944200052647,128.06943443788623 137.78139870491577,128.23089673802315 138.79292245325632,128.5 139.45501072495244,128.16631184885046 139.7952505311696,127.35899726173375 139.89640290598618,127.31594030313136 140.0803163148812,127.60657441870717 140.48492581414757,127.57428178036207 140.7516002569464,127.0575981674483 140.64125221164431,125.65823348906997 141.02747037011432,125.00160186468565 140.92631799523951,124.84013442014111 143.73099747934612,122.60109267281223 144.65976019378286,121.36313970170158 145.303457124508,119.31779296459717 145.45978352200473,115.96979421174183 145.53334888553945,115.54994090312539 145.70806662383256,115.44228592836589 145.59771857858868,115.02243043397175 145.8827843622421,113.82744758134504 146.9402864627773,111.84654405961192 147.72191845014459,110.92067369736469 149.11966035695514,109.67181189817347 149.94727069651708,108.49829841942119 150.27831483236514,107.7015934482406 151.11512084235437,103.72874135125312 152.31975366995903,101.5 151.04155547881965,104.12711024314922 150.34268452547258,107.51856574551493 149.98405337834265,108.50906465992011 148.8621815847,110.00556095527281 147.08741718978854,111.63122612574807 145.98393673705868,113.62289955424785 145.66208827169612,114.94707157133962 145.71726229431806,115.54994090312539 145.51495754462667,115.81907783957286 145.303457124508,119.70533551624976 144.68734720506473,121.41696405835683 143.28040962782688,123.13932837834 141.0366660405416,124.8508989244292 141.07344872230897,125.03389532274014 140.80677427956834,125.4752382180668" stroke="#4dd2ff" stroke-linecap="round" stroke-linejoin="round" stroke-width="0.5"><title>2023-04-17 6.5km</title></polyline><polyline fill="none" points="161.65612952964148,121.04291408213612 161.5,120.9090397561813 161.5,120.54392716650182 162.16615265997825,112.21904578707472 162.3430994602968,111.64699234809086 163.13415574398823,111.86607697993895 163.5817270624102,111.73219197671278 164.63299922895385,111.8173915422376 166.6939090208034,112.52332837243739 167.02698535082163,112.42595803266886 168.42174248263473,112.94932263994997 168.5154202004196,113.27794571151753 168.9942174248281,113.41182891603967 169.66037008480635,113.15623357223376 171.1383962991531,113.37531533026777 171.47147262917133,113.2049184433854 172.06476484192535,113.58222549646598 172.80377794912783,113.47268486661778 173.8966846569092,113.6552525251318 174.55242868157802,113.33880173288344 174.52120277564973,113.10754868046206 174.75019275245722,113.09537745429407 174.9375481880852,113.54571196476172 175.54124903620686,113.59439667114202 176.11372397840023,113.42400010871643 176.69660755590303,113.5700543205312 177.42521202773787,113.18057601037435 177.4668465689174,113.53354078494885 177.64379336923594,113.6552525251318 178.12259059364442,113.54571196476172 178.44525828835322,112.94932263994997 179.88164996140404,113.47268486661778 179.8712413260946,113.11971990532766 180.7455666923197,113.15623357223376 181.71356977632968,112.77892512220569 182.09868928289507,110.44201941575011 182.37972243636614,110.17424593916076 182.7544333075639,110.0525305164847 184.24286815722007,110.36899034756061 184.56553585192887,110.23510360217915 185.94988434843253,110.32030427637801 186.8138010793482,110.13773132586357 188.5,109.41960824286798 188.26060138782486,108.95708591787115 186.87625289120479,109.49263791366684 185.33577486500144,109.74824139646807 182.1715497301193,109.45612308406999 181.21395528136054,110.28378970943595 181.04741711640963,110.89236431183963 181.21395528136054,111.25750752806925 180.98496530449484,112.09733252763544 179.88164996140404,112.29207368096831 179.32999228988774,112.18253182278568 178.64302235929063,111.72002060507657 177.60215882805642,111.69567785789695 177.18581341556273,111.96344779351784 176.2698535080999,112.06081852467469 175.520431765588,111.87824833615741 173.12644564377842,111.90259104466531 172.94949884345988,111.4279072990903 173.0535851965542,111.35487885670591 174.34425597533118,111.29402178597957 174.94795682345284,111.76870608396712 174.85427910560975,111.86607697993895 172.60601387813222,111.87824833615741 172.6372397840605,111.54962126672035 172.46029298374197,111.44007870163477 169.420971472573,111.98779048401047 167.71395528141875,111.64699234809086 164.75790285272524,110.50287693716382 164.36237471085042,110.5150484375772 164.21665381646017,110.35681883169309 164.6538164995727,110.14990286490502 165.11179645336233,110.36899034756061 166.25674633769086,110.30813275534456 166.56900539703202,110.67327782582288 166.81881264451658,110.67327782582288" stroke="#4dd2ff" stroke-linecap="round" stroke-linejoin="round" stroke-width="0.5"><title>2023-04-07 7.0km</title></polyline><polyline fill="none" points="11.5,153.1411363992229 11.595368916809093,150.78687245862238 11.849686028319411,149.58494051747402 14.244505494541954,149.82037145666254 16.70290423865663,150.5142704193495 16.914835164847318,150.05580192259367 19.606357927783392,150.65057151829387 27.755102040828206,150.5142704193495 30.573783359490335,151.08425577785965 31.548665620037355,150.78687245862238 31.930141287273727,148.4945173645756 32.23744113027351,148.11038860866392 34.134222919878084,148.30864876900887 34.505102040828206,148.1723449448691 35.85086342220893,148.2590837604148 38.5,147.3421273175045 38.341051805298775,146.85886360076984 35.55416012555361,147.68908465364075 34.31436420715181,147.71386728118523 32.05729984299978,147.39169271413994 31.103610674967058,148.2590837604148 30.859890109859407,150.10536617092293 29.863814756681677,150.29123191535473 29.14324960752856,150.16732145182323 28.284929356363136,149.6592871809844 27.34183673467487,149.6840693916456 26.981554160127416,149.94428228718607 26.070251177356113,150.00623765328783 25.47684458398726,150.00623765328783 25.19073783355998,149.82037145666254 22.976059654611163,149.89471797071747 22.753532182134222,149.79558927481412 22.541601255885325,149.3247268236446 19.118916797509883,149.95667336304905 17.306907378311735,149.6345049650481 14.085557299898937,148.44495243458368 11.743720565165859,148.56886472020415 11.680141287331935,147.71386728118523 12.729199372115545,148.2838662673239 14.339874411351047,148.37060500032385" stroke="#4dd2ff" stroke-linecap="round" stroke-linejoin="round" stroke-width="0.5"><title>2023-04-04 6.0km</title></polyline><polyline fill="none" points="44.64607657957822,160.88711611693725 61.927445167675614,161.9322701675119 67.73756046872586,144.68714353023097 53.43573818914592,138.06775403907523 43.15630342531949,149.73876498127356 42.70937147922814,159.84196140361018 48.66846409626305,162.97742355475202 64.16210489813238,160.19034638197627 66.9926738915965,146.60327762854286 55.372443289496005,137.54516952473205 42.70937147922814,151.48069981997833 43.60323537141085,161.9322701675119 63.864150268025696,161.5838855577167 67.2906285226345,145.38391982403118 55.670397920534015,137.19677975727245 48.66846409626305,142.4226185400039 42.70937147922814,150.95811956189573 42.56039416324347,160.71292371093296 59.39483080524951,163.5 64.60903684515506,161.23550087457988 67.14165120664984,145.38391982403118 55.22346597351134,137.19677975727245 43.15630342531949,150.43553913745563 42.56039416324347,161.06130850501359 57.011193758808076,162.80323136947118 63.566195636987686,160.88711611693725 67.2906285226345,144.51294941047672 54.32960208132863,136.84838991542347 43.00732611026615,150.60973263089545 43.15630342531949,161.40969322540332 52.243919665925205,162.80323136947118 64.60903684515506,160.53873128595296 67.2906285226345,145.20972577808425 54.32960208132863,136.5 42.858348795212805,150.60973263089545 43.30528074130416,161.5838855577167 61.03358127549291,162.4548469443107 64.31108221411705,160.71292371093296 67.14165120664984,144.33875527279451 55.074488658457994,136.84838991542347 43.4542580563575,149.73876498127356 42.26243953220546,160.71292371093296 63.566195636987686,161.40969322540332 66.54574194550514,144.86133763124235 55.372443289496005,137.19677975727245 48.07255483418703,142.4226185400039 43.15630342531949,150.60973263089545 43.00732611026615,161.5838855577167 59.0968761742115,162.80323136947118 63.864150268025696,160.71292371093296 66.69471926055849,144.33875527279451 54.776534027419984,137.02258484519552 45.390963156707585,146.0806958230678 42.26243953220546,160.88711611693725 47.32766825705767,162.97742355475202 63.71517295297235,161.5838855577167 67.14165120664984,145.73230785992928 55.968352551572025,137.19677975727245 48.66846409626305,142.59681288083084 42.70937147922814,151.30650641873945 42.26243953220546,160.88711611693725 45.688917787745595,162.62903916602954" stroke="#4dd2ff" stroke-linecap="round" stroke-linejoin="round" stroke-width="0.5"><title>2023-03-30 5.2km</title></polyline><polyline fill="none" points="98.23615635174792,160.57071329683822 98.5,158.3817920731235 96.77873429498868,157.80884726480872 93.60004653321812,157.3681188809569 93.41158678452484,157.19182713582995 93.57491856679553,154.92939654539805 94.37901349464664,154.75310170493321 94.99464867380448,148.87647896647104 94.7182410423411,148.74425209438778 94.45439739414724,148.96463014456094 93.58748255000683,148.90586269872438 93.8010702652391,148.86178709802334 93.60004653321812,148.67079266661312 90.60981852019904,149.4200770068419 89.39111214515287,149.39069338337868 88.66240111680236,148.72956021194113 87.72010237321956,146.9224468174798 86.08678455097834,145.55607717535167 85.63448115397478,145.45323160446424 85.4083294555312,145.0712331028917 82.97091670543887,144.55700269137742 80.94811540248338,143.60199830347847 80.47068403905723,142.44129182041797 80.35760818980634,141.1777268973674 79.69171707768692,140.3108559395332 78.63634248485323,140.13454254005046 75.45765472308267,140.7222530010622 74.85458352719434,140.57532561900734 73.53536528616678,139.56152244545228 72.90716612373944,139.42928670317633 71.5,139.5909081488353 73.17100977193331,139.47336529794848 74.62843182875076,140.41370531918074 75.45765472308267,140.707560269846 78.58608655189164,140.16392812218692 79.64146114472533,140.3255487127317 80.31991624011425,141.2071122587222 80.45812005584594,142.48536945905653 80.94811540248338,143.6166907283914 82.73220102372579,144.51292571035447 85.30781758954981,145.0124640094 85.67217310372507,145.4973082870565 86.08678455097834,145.57076939352555 87.20497905998491,146.40822326109628 87.92112610518234,147.26036411778477" stroke="#4dd2ff" stroke-linecap="round" stroke-linejoin="round" stroke-width="0.5"><title>2023-03-28 5.0km</title></polyline><polyline fill="none" points="104.21137640450615,152.67169145087973 104.45786516851513,150.2328367881928 104.31566011236282,149.82266020112002 104.0786516853259,149.67854372179863 102.99789325840538,149.95569062147842 102.9220505617559,149.74505904458783 101.5,149.4124820085126 101.57584269659128,149.06881796236848 103.12113764043897,149.46791158781707 106.72366573032923,149.47899750016222 110.0797050561523,150.49889641867776 111.91889044939307,150.8092984671457 119.1713483146159,150.67626913038112 121.50351123599103,151.15295680554846 122.30933988757897,150.8314700068513 122.6885533707682,148.82492666524922 122.96348314604256,148.48126069215505 124.75526685389923,148.69189480935165 124.87851123593282,148.53669076406368 126.38588483142667,148.59212080662837 128.5,147.82718362952437 128.38623595505487,147.32830854912027 126.86938202247256,147.91587228407298 125.71278089884436,148.10433542571263 124.47085674159462,148.08216330903088 123.02984550560359,147.8160975424471 122.66959269659128,147.91587228407298 121.92064606735948,148.53669076406368 121.73103932582308,149.05773200661497 121.77844101120718,149.58985655908327 121.35182584263384,149.6120283568016 121.0484550561523,149.95569062147842 121.03897471912205,150.2771801068593 120.74508426961256,150.42129576290608 120.0625,150.17740761347522 119.80653089884436,149.5565988537346 119.3135533707682,149.32379462063545 118.63096910109743,149.46791158781707 118.18539325840538,150.0887208729764 117.41748595505487,150.2106651218346 116.92450842692051,150.2106651218346 116.65905898873461,150.03329162205046 114.49754213483538,150.06654917612468 114.2984550561523,149.5565988537346 112.26966292131692,149.8780895634627" stroke="#4dd2ff" stroke-linecap="round" stroke-linejoin="round" stroke-width="0.5"><title>2023-03-26 5.6km</title></polyline><polyline fill="none" points="158.5,159.83452427935117 157.73162055335706,159.8470035949067 155.75731225300115,159.198077435889 155.49051383399637,159.3977474035346 154.47667984192958,159.37278867603163 152.21422924904618,159.75964835836203 151.17905138339847,159.75964835836203 150.60276679845992,159.3353505749037 149.81304347829428,157.65062372710236 148.3936758893542,156.50249979241926 148.00948616600363,156.40266240036726 147.81739130435744,156.05323086282442 145.78972332016565,155.6663590244425 144.05019762844313,154.80525263519667 143.62332015804714,153.83182045112335 143.52727272722404,152.78349988345872 143.02569169958588,152.04717391396116 142.00118577078683,151.87245182265906 139.39723320154008,152.346696896886 138.79960474307882,152.23437586741784 136.80395256914198,150.74923219800257 136.93201581027824,150.16265769769234 136.1636363636353,148.46531930426863 135.9501976284082,148.3405140465038 135.93952569167595,147.82881110863673 135.5980237153708,147.42943166321493 135.52332015812863,146.94268613539316 135.3632411067374,146.71803367571556 134.7762845849502,146.51834224115737 134.42411067191279,145.95670826850255 134.31739130435744,145.7320539305365 134.71225296438206,145.53236082632066 132.6312252964708,142.36218750022817 131.5,140.1280377779549 132.50316205533454,142.16248868918774 135.25652173912385,146.45593859849032 135.17114624503301,146.65563013874635 135.907509881421,147.75392756566725 135.89683794463053,148.40291669190628 136.18498023715802,148.55268290616368 136.9426877470105,150.23753971124097 136.76126482215477,150.69931107752927 137.12411067192443,150.8490743755683 137.40158102766145,151.26092246470216 138.77826086961431,152.19693550052034 139.27984189719427,152.30925656558975 141.99051383399637,151.87245182265906 142.99367588933092,152.09709446394118 143.49525691696908,152.69613941557327 143.56996047426946,153.70702087211976 144.03952569171088,154.80525263519667 145.53359683795134,155.5914804575441 147.8067193676252,156.06571057840483 148.09486166003626,156.4775404523316 148.34031620551832,156.4775404523316 149.81304347829428,157.65062372710236 150.61343873519218,159.21055681878352 151.18972332013072,159.77212768181926 152.01146245060954,159.8470035949067 153.99644268775592,159.36030931032292 154.5407114624395,159.6722930570977 154.8501976284897,159.3977474035346 155.47984189726412,159.37278867603163 155.63992094859714,159.1606392793401 157.51818181818817,159.8719622220524 158.20118577074027,159.80956564432563" stroke="#4dd2ff" stroke-linecap="round" stroke-linejoin="round" stroke-width="0.5"><title>2023-03-18 7.0km</title></polyline><polyline fill="none" points="161.5,150.97711123689805 163.26145868183812,150.92429646325763 166.65791234525386,151.91720953320328 168.10321177652804,152.17071767090965 175.16711274674162,152.07565219468233 177.38022750086384,152.58266702196124 178.22934091673233,152.19184331998986 178.53646704583662,150.36445814526815 178.78036132489797,150.03700408920122 181.55352960858727,150.13207150643575 182.85429909673985,149.8785581926859 184.16410170629388,149.36096651169646 184.02860488463193,148.89618802191399 185.75393108068965,147.91380818530888 188.3735362997977,147.41733297803876 188.5,147.50183957065747 186.84693877556128,147.59690940181463 185.7268317163107,147.8926816310268 183.3872532619862,149.1919564021082 182.2671462027356,149.51941322961648 180.87604550016113,149.63560732961923 178.8797256607795,149.32927713794925 178.56356641015736,149.4032189944046 177.81381733022863,150.11094542153296 177.65122114418773,150.62853321467992 177.77768484444823,150.92429646325763 177.68735362996813,151.53694611981336 177.43442622950533,151.76932948896865 176.56724657077575,151.84326953845448 175.46520575444447,150.8186668321723 174.67932418873534,150.90317054597108 174.254767480772,150.5651552617128 173.90247574442765,150.50177726850234 173.5682502509444,150.61797022529936 173.16175978590036,151.10386657959316 172.92689862829866,151.12499245441722 172.48427567747422,151.49469454003702 171.75259284040658,151.53694611981336 171.59902977582533,151.01936303566617 169.02459016395733,151.29399929198553" stroke="#4dd2ff" stroke-linecap="round" stroke-linejoin="round" stroke-width="0.5"><title>2023-03-14 5.6km</title></polyline><polyline fill="none" points="36.14631336409366,190.06227321514598 35.23387096775696,189.941026453831 33.50230414746329,189.37116495756345 32.25806451612152,189.71065725394874 31.99884792632656,189.49241232172062 29.852534562232904,190.00164985052834 29.188940092164557,189.9652758163429 28.504608294926584,189.39541444063798 27.561059907835443,187.576688970119 26.48271889402531,186.37631434855575 25.756912442389876,186.0974376366139 23.42396313365316,185.78218488424318 22.169354838726576,185.10317601048882 21.67165898618987,184.03615393724613 21.516129032243043,182.8842439558066 21.101382488501258,182.38710028147761 20.282258064544294,182.22946890997264 17.358294930891134,182.66598602294107 15.937788018432911,181.73232239489153 13.998847926210146,181.7929501342005 13.832949308736715,180.7986511593408 13.801843317982275,181.81720122088882 12.17396313365316,181.92633104764536 11.5,179.93772678485402 12.049539170518983,181.73232239489153 12.319124423956964,181.9748331595183 15.55414746538736,181.70807129020977 16.0,181.81720122088882 16.985023041430395,182.53260597040935 17.565668202820234,182.6781114745536 20.375576036865823,182.2779708935268 21.14285714289872,182.48410409459757 21.54723502305569,183.00549818336003 21.661290322605055,184.03615393724613 22.086405529931653,185.05467522265099 23.4550691244076,185.83068536414066 25.7050691244076,186.2671887595061 26.01612903230125,186.69156546660815 26.368663594475947,186.76431560142373 27.71658986172406,187.83131227349804 28.535714285739232,189.383289699741 29.03341013827594,189.9652758163429 30.329493087599985,190.05014854476758 30.91013824887341,189.75915607137722 32.43433179729618,189.48028759106091 33.27419354842277,189.56516067862685 33.38824884791393,189.39541444063798 35.461981566855684,190.06227321514598 38.5,189.941026453831" stroke="#4dd2ff" stroke-linecap="round" stroke-linejoin="round" stroke-width="0.5"><title>2023-03-12 6.0km</title></polyline><polyline fill="none" points="67.3376681614318,189.8422628702392 64.09282511210768,189.03524634345376 63.95964125561295,189.24761958548333 63.19686098652892,188.99277165462263 62.71255605382612,189.459992490476 62.61569506727392,189.20514496405667 59.927802690595854,189.75731399131473 59.05605381168425,189.6582068977732 58.402242152486,188.9786134219903 57.058295964146964,186.6141675637482 56.08968609868316,185.62307004812465 54.98789237672463,185.22662898656563 52.38475336326519,184.87266276065202 50.93183856498217,184.03729875516728 50.47174887894653,182.89043459239474 50.39910313906148,181.65860658008023 49.87847533635795,180.9648133971932 48.67982062784722,180.75242700980743 45.56816143501783,181.26215377321932 45.15650224220008,181.19135850552993 44.79327354260022,180.75242700980743 43.739910313976,180.15774333167064 43.26771300449036,180.07278830478026 41.5,180.228539146221 43.618834080698434,180.12942499534984 45.12017937225755,181.10640413482906 48.75246636773227,180.70994969189633 49.79372197308112,180.93649523169734 50.386995515669696,181.78603759000544 50.47174887894653,182.81964018613508 50.907623318373226,183.9240286580025 52.49372197309276,184.80186940304702 55.15739910316188,185.3398979811609 55.47219730936922,185.75049728273007 55.895964125636965,185.80713157029822 57.50627802690724,187.1380304282502 58.43856502242852,188.99277165462263 59.140807174902875,189.62989057184313 60.133632287033834,189.72899768636853 61.24753363232594,189.36088517673488 61.441255605372135,189.60157423988858 62.216143497789744,189.21930317264923 64.0322869955562,189.0635627951997 66.46591928246198,189.92721169521974 68.5,189.77147214153956" stroke="#4dd2ff" stroke-linecap="round" stroke-linejoin="round" stroke-width="0.5"><title>2023-03-05 5.0km</title></polyline><polyline fill="none" points="96.29131886479445,184.90349162828352 96.44156928214943,185.3953352291137 97.98914858099306,185.09671607370547 98.33472454093862,186.15066363882215 98.27462437393842,186.6776349147258 94.26293823041487,187.78426915498858 91.66360601008637,188.99628867718275 89.15442404005444,190.71769251630758 87.39649415691383,187.95992470589408 86.28464106854517,187.028948170293 75.82721202005632,184.6751351760031 75.70701168617234,184.37651472634752 76.29298831394408,182.74287570998422 76.1277128548245,182.40911952660827 76.32303839741508,181.5483768020349 71.5,179.1242202699068 76.30801335565047,181.49567812307214 75.1961602671654,184.64000338624464 74.79048414027784,186.69520059518982 75.42153589322697,185.16697945266787 75.82721202005632,184.92105749629263 84.78213689487893,186.712766273733 86.93071786314249,187.69644130986126 88.82387312193168,190.87577973007865 92.76043405680684,188.4693247536925 94.48831385647645,187.73157245348557 98.5,186.6249378623179 97.98914858099306,184.32381694426294" stroke="#4dd2ff" stroke-linecap="round" stroke-linejoin="round" stroke-width="0.5"><title>2023-02-22 5.0km</title></polyline><polyline fill="none" points="101.5,188.12874665253912 101.66954474098748,185.10536588393006 101.90266875980888,184.6840689263845 104.31868131872034,184.80797995354078 107.0843799058348,185.83643641995877 108.02747252746485,185.89839134037175 108.45133437996265,186.18338355235028 108.8328100470826,186.05947398018907 110.64481946628075,186.33207486596802 111.1004709576373,186.2577292327478 111.76805337524274,186.55511148242658 112.3614599686116,186.4559841497612 113.63304552593036,186.61706602275808 114.48076923075132,186.13381973920332 114.51255886972649,186.3816385951941 114.85164835164323,186.53032965715101 115.36028257460566,186.56750239311077 115.80533751961775,186.3940295242428 116.67425431706943,186.54272057043272 117.29945054941345,185.9479552531193 117.65973312401911,185.88600035889976 119.50353218207601,186.3072929934351 119.64128728414653,186.46837507092278 119.71546310832491,186.02230108295043 120.57378335949033,186.0718649433329 121.52747252746485,185.78687245999754 121.84536891675089,184.57254888987518 121.91954474098748,183.46973392309883 122.34340659336885,183.06082236400107 123.31828885403229,183.25908269214415 126.1157770800055,183.2466914314573 128.5,182.31734314450296 128.23508634214522,181.87125334746815 127.06946624803822,182.32973450348072 125.5117739403504,182.66430070088973 124.49450549448375,182.68908334416483 122.12087912089191,182.37929992639693 121.09301412873901,183.18473510839976 120.89167974877637,183.80429686416028 120.97645211929921,184.2875527585711 120.2558869701461,184.53537552077614 120.07574568293057,185.10536588393006 119.73665620095562,185.25405856600264 119.1114599686116,185.15493013225932 118.38029827317223,184.6964600350184 117.38422291993629,184.6840689263845 116.97095761384116,184.94428193205385 115.60400313971331,185.03101947213872 115.31789638928603,184.83276214326906 112.10714285715949,184.86993541799893 111.50313971744617,184.78319775861746 111.20643642073264,184.51059326813993 109.065934065904,184.9690640928893 107.37048665620387,184.646895592683 104.21271585562499,183.4821251601752 102.60204081633128,183.2466914314573 105.65384615381481,183.22190890619822" stroke="#4dd2ff" stroke-linecap="round" stroke-linejoin="round" stroke-width="0.5"><title>2023-02-10 5.9km</title></polyline><polyline fill="none" points="137.7253582283738,190.25753993881517 137.76052974379854,186.54240058214054 138.97980894480133,186.5561097792379 141.00803300039843,187.07705819400144 142.12179765518522,186.748038386213 142.57902735559037,185.36340420709166 142.66109422489535,184.14326875731058 143.0128093790845,183.75940354353224 145.0410334346234,184.04730256048788 145.42792010417907,183.85536995358416 147.33890577504644,183.88278891483787 149.28506296133855,183.2658608835336 152.6966999565484,181.5521564968658 156.60073816758813,181.01747608963342 158.5,180.3045654479647 158.3944854537258,180.38682456834067 158.2069040381466,180.05778777354863 158.24207555357134,179.74246006119938 157.60898827615893,180.0989174186252 155.97937472863123,180.5102131509775 155.27594442031113,180.53763282003638 155.11181068170117,180.3319851605629 152.93117672600783,180.72957034109277 151.4891445939429,181.2642519363726 149.10920538421487,182.6215106928139 147.36235345201567,183.16989403692423 145.22861485014437,183.32069904965465 143.5286582717672,183.00537927738333 142.68454190186458,183.03279841842595 141.72318714711582,183.85536995358416 141.5004342162283,184.48600459452427 141.57077724701958,185.11663616649457 141.05492835427867,185.11663616649457 140.6797655231785,185.47307874100807 140.59769865387352,186.00774076450034 140.21081198437605,186.1859609488165 139.4370386452647,185.8980666831194 139.1556665218668,185.15776420589827 138.4405123751494,184.78761138136906 137.63156752061332,185.0206706904719 137.18606165866368,185.71984610287473 136.22470690403134,185.8980666831194 135.50955275719753,185.9117759483488 135.263352149399,185.70613681730174 131.67585757706547,185.67871824183385 131.5,185.52791597311443 131.75792444631224,185.22631090920186 133.68063395569334,185.08921746628766 133.90338688663905,185.78839250885358 134.85301780281588,185.71984610287473 135.63851498044096,185.2126015714457 136.36539296567207,185.26743891381193 136.7053842813475,184.8561582804832 137.1039947894169,184.8424489035824 137.74880590528483,185.5416252775467 138.61636995215667,185.50049735994253 139.1322188449558,185.92548521213757 140.19908814586233,186.21337941696402 141.3831958314986,186.04886852107302 141.6880156317493,185.04808940512885 141.72318714711582,185.9529037353932 141.31285280070733,186.28192556192516 139.81220147636486,186.07628701823705 139.4487624837202,185.9117759483488 139.0384281371953,185.06179876030365 136.7874511506525,184.40374807621993 136.22470690403134,184.54084224431426 134.82957012590487,185.67871824183385 134.12613981764298,185.6650089519535 133.76270082499832,185.1303455143934 134.09096830221824,184.92470514337765 134.6654363873531,184.92470514337765 135.14611376461107,185.34969488385832 136.31849761179183,185.26743891381193 136.84607034298824,184.8972864025709 137.33847155881813,185.29485757630027 137.77225358225405,185.00696133096062 138.5343030829099,184.8561582804832" stroke="#4dd2ff" stroke-linecap="round" stroke-linejoin="round" stroke-width="0.5"><title>2023-02-05 7.1km</title></polyline><polyline fill="none" points="161.82088285230566,189.21691905512853 162.0653650254535,187.01026523227483 162.24108658745536,186.94772764408845 163.50933786077076,187.15320811709535 163.9601018675603,187.08173670493125 165.1519524618052,187.59096919676085 165.66383701187442,187.64457243831566 165.90831918505137,186.58143512616516 165.7249575551541,186.2151410194565 165.19779286923585,186.22407504096918 164.9456706281926,185.97392208154633 163.52461799659068,186.09899865386978 162.67657045839587,185.95605398465705 162.2792869269906,185.652295759166 161.55348047538428,185.51828442998521 161.5,186.06326250925486 161.55348047538428,185.54508671282383 161.81324278438115,185.52721852519608 161.95076400681864,185.63442759423924 161.93548387094052,186.0096582639526 162.08064516127342,186.2419430811351 163.86842105264077,186.09899865386978 165.870118845487,186.9119918586366 167.1918505942449,187.22467946875986 168.00169779287535,187.0906706347596 168.5212224108691,187.2961507599539 169.06366723260726,187.2514812100344 169.69779286926496,187.37655589021597 171.23344651953084,187.13534026969864 172.4100169778976,187.28721685185155 173.07470288625336,187.22467946875986 173.27334465197055,187.03706704161596 174.02971137521672,187.0191991696629 174.297113752109,187.2514812100344 174.9312393888249,187.45696094397135 175.66468590832665,187.40335758332367 175.87860780983465,187.24254729722452 175.87096774191014,186.37595326194423 176.01612903227215,185.97392208154633 176.6120543293364,185.42000932007795 178.75891341257375,185.61655942551442 179.89728353137616,185.46467983875482 180.81409168080427,185.15198571179644 183.167232597596,183.97267172898137 185.7495755517739,183.68677494975418 188.0797962648503,182.632522210537 188.47707979622646,181.90883262654825 188.27843803050928,180.78308094487147 188.5,181.86416022673802 188.41595925294678,182.14112872449186 188.30135823428282,182.40916188957635 187.35398981321487,182.98096313144197 187.20118845498655,183.23112495720852 186.5976230899687,183.26686230038467 185.91765704582212,183.62423490027868 184.74108658742625,183.86546055019426 184.0764006790996,183.81185490975622 182.93039049234358,184.0173430132927 180.79881154498435,185.12518330416788 179.81324278435204,185.45574573692284 178.34634974534856,185.58975716532586 176.6960950763605,185.36640466647077 175.95500848896336,185.93818588398426 175.74872665535077,185.75950466939685 175.97792869264958,186.02752634949138 175.8556876060902,186.331283225285 175.94736842103885,186.67970888447599 175.80984719863045,186.83158628601814 175.86332767404383,187.13534026969864 175.69524617993739,187.34975418866088 174.98471986415097,187.45696094397135 174.12903225806076,187.13534026969864 174.06027164685656,186.99239735467563 173.30390492358129,187.00133129394817 172.98302207130473,187.19787771895062 172.34889643461793,187.2514812100344 171.9745331069571,187.2514812100344 171.7758913412399,187.11747241857665 170.156196943979,187.1621420393567 169.28522920203977,187.04600097615912 168.33786078097182,187.18894380047277 167.91765704582212,187.05493490977824 167.32173174872878,187.21574555311963 166.19100169779267,186.99239735467563 163.80730050933198,186.13473478337983 163.28013582344283,186.05432847073826 162.0730050933489,186.23300906152872 161.9202037351497,185.92031777954253 162.03480475384276,185.5986912530061 162.66893039047136,185.99179017464485 163.36417657043785,186.13473478337983 164.90747028859914,185.97392208154633 165.13667232598527,186.22407504096918 165.48811544990167,186.25087709978834" stroke="#4dd2ff" stroke-linecap="round" stroke-linejoin="round" stroke-width="0.5"><title>2022-12-15 10.0km</title></polyline><polyline fill="none" points="11.5,223.61970566848322 11.73842874544789,220.37982792990078 13.703410475049168,220.51442455674987 13.9582825821999,220.6874770698123 15.627283800247824,221.07203703012055 15.890377588308183,219.95680866199837 15.824604141293094,219.61070052367722 15.109317905007629,219.56262984468776 14.862667478708318,219.24536272544356 13.974725943960948,219.28381940491818 13.62941534712445,219.12037840463017 13.070341047510738,219.32227606815286 12.486601705255453,219.28381940491818 11.689098660164746,218.8223381767457 11.606881851417711,219.26459106719994 11.80420219246298,219.57224398251856 13.645858708943706,219.29343357226753 13.92539585873601,219.62992878819932 15.980816077964846,220.34137171418115 17.37028014616226,220.6297929354114 18.118453105998924,220.46635435576172 18.77618757612072,220.67786304995388 20.362971985392505,220.6970910886448 21.234470158349723,220.64902098428138 21.596224116918165,220.48558243921434 22.903471376368543,220.67786304995388 23.552984165668022,220.6297929354114 23.857186358131003,220.399056031667 24.621802679641405,220.399056031667 24.81912302071578,220.60095085445937 25.501522533479147,220.74516116758605 25.690621193672996,220.947055221528 25.887941534718266,220.71631912327575 26.29080389768933,220.8028452287399 26.56211936660111,220.6970910886448 26.74299634594354,219.28381940491818 27.47472594399005,218.6396678765086 29.16839220462134,218.85118082218105 30.56607795372838,218.78388130194799 31.774665042641573,218.4666114639258 34.15895249697496,217.2167498097624 37.34074299639906,216.78410138576146 38.29445797810331,216.38029433152406 38.40956151037244,216.81294467812404 38.5,216.78410138576146 37.61205846531084,217.13022028979321 34.88246041414095,217.4571091552716 31.70066991474596,218.89925187750487 30.508526187593816,219.22613437955442 29.11084043851588,219.3126619038885 27.655602923274273,219.1107642190036 27.408952496945858,219.3991893458151 27.35962241172092,220.22600296940072 27.071863580989884,221.22586055866122 26.64433617540635,221.38929777240992 26.27436053592828,221.48543717261055 24.457369062147336,221.04319508955814 22.78014616324799,221.07203703012055" stroke="#4dd2ff" stroke-linecap="round" stroke-linejoin="round" stroke-width="0.5"><title>2022-12-12 7.2km</title></polyline><polyline fill="none" points="41.9368258859613,223.02224863461743 42.15523882897105,219.96963480499835 42.08243451471208,219.68990916513576 41.510400616331026,219.61693714713329 41.5,219.25207636241248 44.443374422204215,219.30072453397588 47.70916795072844,220.29800751378934 50.04930662561674,220.7601601076094 58.08898305083858,220.6385411840747 58.99383667181246,220.71151255363657 60.522727272706106,221.21014900597947 61.001155624049716,221.05204499916726 61.635593220358714,220.73583633319504 61.937211094016675,219.62909915336786 61.989214175671805,218.60748614617478 62.20762711868156,218.26694645967655 62.73805855162209,218.1818113804111 64.24614791985368,218.4858649453745 64.5685670261737,218.31559504804318 66.08705701079452,218.3642436158625 67.17912172572687,218.0723519001258 68.5,217.43991730692505 68.31278890604153,216.97775136538985 65.61902927584015,217.7926216437845 64.38135593221523,217.82910823755083 62.072419106261805,217.54937738931767 61.16756548540434,218.35208147585945 60.99075500766048,218.83856607326743 61.13636363635305,219.3128865736362 60.96995377499843,219.60477513964724 61.032357472984586,219.95747283482342 60.76194144837791,220.2493597642533 60.27311248076148,220.2007119941627 59.63867488439428,220.39530295107397 59.34745762712555,220.10341639216495 58.754622496140655,220.00612070783973 58.61941448383732,219.8358530621481 58.56741140218219,219.94531086332427 57.61055469955318,219.84801504520874 56.206471494573634,220.11557834690757 55.717642526957206,220.12774030038418 55.395223420578986,219.90882494115795 53.2526964560966,219.98179677388543 52.004622496140655,219.82369107779232 50.735747303580865,220.00612070783973" stroke="#4dd2ff" stroke-linecap="round" stroke-linejoin="round" stroke-width="0.5"><title>2022-12-06 5.0km</title></polyline><polyline fill="none" points="71.5,223.29425861632626 71.73098075162852,220.7090699516193 71.85472044002381,220.8344725856732 73.5870760770631,220.85376528331108 75.85563703026855,221.6061773068359 75.93813015587511,221.7701637187056 75.81439046750893,221.7701637187056 75.92163153071306,221.59653103810706 75.68240146661992,221.6061773068359 75.47616865264717,221.3939591595481 75.65765352893504,221.45183688504767 75.86388634284958,220.06276133350184 75.73189734190237,220.1495791754278 75.74839596706443,220.42932499263406 76.05362053166027,220.68013085773418 77.29926672781585,220.98881405236898 78.05820348308771,220.84411893499055 78.73464711278211,221.05633836190827 79.790559120127,221.08527733641677 82.07561869849451,220.88270432208083 82.71081576540018,221.05633836190827 83.64298808434978,220.95987504727964 83.8739688359492,220.77659446830512 84.69065077914274,220.77659446830512 84.7731439047202,220.94058237207355 85.77956003672443,221.22997207112348 86.56324472965207,221.09492365919868 86.75297891846276,219.63831736089924 87.51191567373462,219.00164769739058 89.6897341888398,219.2235179332638 90.74564619618468,219.1270526796725 91.91704857931472,218.77013035392156 94.1278643446567,217.59324143517006 94.87855178737664,217.4003073762433 96.8583868011192,217.23631310518977 97.93904674611986,216.94691073076683 98.35976168652996,216.70574138368102 98.49175068744808,217.17843270378216 98.5,217.07231853912526 96.81714023835957,217.6318281979693 94.49908340975526,217.9405217124222 93.29468377641751,218.54825901480217 91.05912007339066,219.51291308178043 89.368010999111,219.59008496625756 89.18652612282312,219.69619620079175 87.66040329975658,219.51291308178043 83.64298808434978,221.44219060002797 79.8235563703056,221.51936085173656" stroke="#4dd2ff" stroke-linecap="round" stroke-linejoin="round" stroke-width="0.5"><title>2022-11-27 5.6km</title></polyline><polyline fill="none" points="101.5,221.59935555000993 102.57120085012866,221.7559318855856 102.86769394262228,221.66645972222614 103.35547290113755,221.91250798923284 103.68065887351986,221.8565879788148 105.39266737509752,222.3822349088441 105.6795961742173,221.05133654937526 105.52656748139998,220.8276545082408 105.58395324117737,221.28620218321885 106.06216790649341,221.5881715171854 107.57332624861738,221.8789559865545 108.29064824653324,221.66645972222614 109.04622741765343,221.93487598508364 111.81030818278668,221.91250798923284 112.34590860782191,221.7335638518416 113.80924548354233,221.91250798923284 114.593517534493,221.8677719832849 114.94739638682222,221.59935555000993 115.89426142396405,221.5881715171854 115.99946865031961,221.80066793884907 117.09936238039518,222.13618773507187 117.84537725819973,222.0355319080045 118.16099893726641,221.71119581333915 118.26620616362197,221.16317739248188 118.14187035069335,220.71581331024208 118.29489904351067,220.2572631612129 119.17481402761769,219.54147358713817 121.38416578108445,219.8210794663537 122.88575982995098,219.70923720340215 124.44473963865312,219.18357698266482 126.68278427200858,217.96448258063901 128.5,217.6177650911486 126.82624867156846,217.89737605854316 124.39691817207495,219.20594555592834 122.84750265668845,219.69805297059793 121.41285866091494,219.78752679988247 119.42348565353313,219.4855523225633 119.06960680126213,219.5526578365243 118.26620616362197,220.30199984865612 118.12274176406208,220.71581331024208 118.24707757704891,221.16317739248188 118.07492029748391,221.46514707783354 118.14187035069335,221.81185194922728 117.88363443140406,222.04671589351346 116.8124335812754,222.09145182373322 115.68384697131114,221.554619411545 114.90913921355968,221.56580344793474 114.5361317746574,221.84540397319506 113.63708820403554,221.90132398950664 112.91976620611968,221.72237983319064 109.89744952175533,221.6776437467779" stroke="#4dd2ff" stroke-linecap="round" stroke-linejoin="round" stroke-width="0.5"><title>2022-11-23 5.3km</title></polyline><polyline fill="none" points="131.5,220.64989600601984 133.79856115108123,220.92751211590803 136.3669064748683,221.63416838923877 136.70143884891877,220.14513778725086 136.62589928059606,219.79180576328508 136.29136690648738,219.6277583963456 135.7517985611339,219.67823453324672 135.27697841724148,219.28704391336942 134.11151079135016,219.32490112616506 133.8525179856224,219.4637108038005 133.8956834532437,219.58990127961442 137.56474820140284,220.8391797873992 138.70863309357082,220.97798770284135 139.31294964026893,220.63727707659564 140.06834532372886,220.7634663108838 140.9856115108123,220.59942028028308 141.16906474821735,220.86441760222078 141.68705035973107,220.9401310146568 144.66546762589132,220.86441760222078 145.4100719424896,221.10417657672951 146.67266187054338,221.0410821564583 147.08273381291656,220.75084739346494 148.14028776978375,220.73822847470728 148.38848920859164,221.0158443790133 149.65107913670363,221.33131621326174 150.74100719427224,221.05370104319445 150.7194244604325,220.54894453316228 150.881294964056,220.29656547717605 150.762589928112,219.66561550099868 150.96762589929858,219.18609128703247 151.90647482016357,218.44156302940246 155.1762589928112,218.7570416720264 156.96762589929858,218.39108636909805 158.23021582735237,217.8484609222287 158.5,218.34060968748963 157.45323741005268,218.80751817743294 155.5755395683227,219.28704391336942 154.2482014388661,219.21132945166028 154.03237410075963,219.35013926137617 152.3381294964347,219.04728128637362 152.00359712226782,219.13561494184978 151.7338129496202,219.48894890960946 151.60431654681452,220.97798770284135 151.2805755395675,221.8991634124468 150.54676258994732,222.15153907776403 147.65467625902966,221.59631190929213 139.51798561151372,221.77297537958657 136.4856115108123,221.19250870901305" stroke="#4dd2ff" stroke-linecap="round" stroke-linejoin="round" stroke-width="0.5"><title>2022-11-18 5.5km</title></polyline><polyline fill="none" points="161.5,222.95875928016176 161.79705304518575,219.85737169697677 162.49724950885866,220.03105156960373 163.17622789787129,219.93180595957529 165.02220039296662,220.14270278041658 166.8257367386832,220.76298534946545 167.1121807465679,219.43557664969558 167.0591355599463,218.85250452729815 166.2104125736514,218.81528705937671 165.76483300584368,218.41829999967013 164.64027504913975,218.46792345563154 164.41748526523588,218.7532579198887 164.51296660123626,218.85250452729815 167.3986247543944,219.82015454793145 169.24459724948974,220.20473118498194 169.96601178782294,219.9566173699568 170.80412573675858,220.24194821198034 173.88074656185927,220.22954253762873 174.47485265223077,220.0186458729222 176.1086444007815,220.24194821198034 176.93614931235788,220.19232550671586 177.48781925346702,219.93180595957529 178.34715127694653,219.94421166543907 178.60176817286992,220.19232550671586 179.90667976421537,220.4652501257733 180.93575638503535,220.22954253762873 181.1055009822594,219.42317089002609 180.96758349705487,218.9145336143265 181.14793713163817,218.45551759363298 182.07092337909853,217.61191589706868 185.59312377206516,217.8848465218398 187.004125736712,217.58710399059055 188.38330058928113,217.04124071983097 188.5,217.53748016190366 185.9113948919112,218.43070586561953 183.3546168958419,218.4803293163277 182.62259332020767,218.21980596583307 182.17701375245815,218.35627065017616 181.9542239685543,218.65401122844196 181.84813359525288,219.9566173699568 181.56168958736816,220.97388067553402 180.6917485265294,221.2716146078892 178.71846758347237,220.775390967392 169.97662082512397,220.8870414695848" stroke="#4dd2ff" stroke-linecap="round" stroke-linejoin="round" stroke-width="0.5"><title>2022-11-06 5.5km</title></polyline><polyline fill="none" points="11.5,263.31434389376955 12.122572815453168,259.9619087426545 12.564927184430417,250.78549743857002 12.941747572796885,249.0804345132492 13.040048543713056,249.25285733642522 15.038834951410536,249.19538308023766 20.658373786427546,250.45981250210025 21.051577669859398,247.77767898769525 20.904126213514246,248.5440069023898 21.51031553390203,248.984643985008 24.426577669917606,249.5785444433859 30.43932038830826,248.39074157885625 30.83252427179832,248.39074157885625 30.9144417475909,249.46359611958906 32.257888349471614,249.27201541773684 33.617718446592335,249.3486477227998 34.12560679606395,249.67433465748036 36.28822815534659,249.5977024902968 36.97633495146874,249.11875071037502 36.99271844665054,248.40989975140837 38.40169902914204,247.98841948750487 38.5,247.01134783015004 37.975728155404795,246.6856561062159 37.091019417508505,247.87347015435807 37.25485436891904,248.33326704913634 36.89441747573437,248.4865324213024 36.304611650528386,249.46359611958906 34.50242718443042,249.6934926942631 33.617718446592335,249.3486477227998 28.506067961163353,249.3486477227998 28.096480582491495,249.6551766187331 26.851334951468743,249.6551766187331 25.557038834958803,249.21454116767563 24.295509708696045,249.5785444433859 22.10012135922443,249.17622499080608 17.00485436891904,247.50946345145348 16.841019417450298,247.20293092356587 17.234223300940357,247.06882277947443 18.98725728149293,246.85808120950242 19.56067961163353,247.50946345145348 20.117718446534127,247.47114691387105 19.544296116451733,247.4519886420021 18.954490291245747,246.89639787684428 18.020631067920476,246.89639787684428 17.070388349471614,247.03050614862877 16.955703883431852,247.52862171718152 22.182038834958803,249.27201541773684 20.7894417475909,248.4673742568848 20.871359223267063,247.77767898769525" stroke="#4dd2ff" stroke-linecap="round" stroke-linejoin="round" stroke-width="0.5"><title>2022-11-02 5.0km</title></polyline><polyline fill="none" points="42.331408775935415,261.1672794127371 42.28983833716484,260.9120950588913 41.55196304846322,260.81488182262547 41.5,260.462483151794 41.770207852183376,258.63971415253036 41.770207852183376,256.962741132942 41.9364896073821,256.6103306469304 41.84295612009009,255.3222003632036 42.07159353350289,252.6243712705982 42.28983833716484,251.60355455180252 42.466512701998,251.73723344780592 44.53464203228941,251.66431770563213 47.195150115469005,252.49069340692222 47.454965357959736,250.7528670233296 47.31986143189715,251.15390621448023 47.506928406481165,251.44557020141656 49.63741339487024,251.93167520068528 52.95265588915208,251.23897495382698 54.07505773671437,251.2146696061609 54.70900692837313,251.53063872476923 55.05196304846322,251.32404363020032 56.454965357959736,251.3605016150541 56.88106235564919,250.97161584662535 57.51501154736616,251.28758563374868 58.31524249416543,251.00807394335425 58.918013856746256,251.27543296571093 59.18822170898784,251.98028558748047 59.9364896073821,252.21118464381289 60.98614318697946,251.99243818094692 61.16281755192904,251.08099010204023 61.0381062355591,250.61918698181398 61.235565819835756,250.13307642858854 61.87990762118716,249.48897677696368 62.51385681290412,249.3552952646205 64.34295612003189,249.6469638182607 65.54849884519354,249.6469638182607 66.88914549647598,249.3917538743117 68.30254041560693,248.83272058726288 68.5,249.2580722488492 67.35681293299422,249.79279781735386 65.82909930712776,250.18168757648527 64.24942263273988,250.27890981056407 62.30600461893482,250.06015966818813 62.01501154730795,250.40043748745666 61.63048498838907,252.63652379596897 60.80946882208809,252.9403365118851 57.868360277148895,252.442083236092 49.96997690532589,252.60006621604407 47.600461893714964,252.1018114644612 47.3094688221463,253.94898896698578" stroke="#4dd2ff" stroke-linecap="round" stroke-linejoin="round" stroke-width="0.5"><title>2022-10-28 6.2km</title></polyline><polyline fill="none" points="71.5,257.92132134532585 71.66901408456033,255.3273723036109 71.84859154932201,254.8579848913796 72.01760563382413,255.03091731540917 73.30633802816737,254.90739418150042 74.32042253523832,255.01856500787835 76.45422535215039,255.74734891511616 76.88732394366525,255.64853102476627 77.13028169010067,254.32683370183076 77.03521126759006,253.88214712684567 76.71830985916313,253.733917892132 76.10563380282838,253.7833276579404 75.75704225350637,253.43745885819226 74.6267605634057,253.49922121899726 74.46830985916313,253.64745075166138 74.59507042251062,253.857442267421 77.83802816906245,254.96915576477477 78.89436619722983,255.15444031860534 83.36267605633475,254.49976691255142 83.40492957748938,255.11738343136676 84.88380281691207,255.01856500787835 85.85563380282838,255.25325862710451 88.33802816900425,254.94445113540132 88.45422535209218,255.17914490357362 89.67957746476168,255.48795177457941 90.6725352111971,255.38913366469205 90.88380281691207,255.2162017712035 90.86267605633475,254.69740455401188 91.03169014083687,254.4750621838175 90.90492957748938,253.86979469778453 91.10563380282838,253.41275390471856 92.0246478873305,252.63454519469815 94.61267605627654,252.91865373755718 95.6478873239248,252.86924360587727 96.85211267601699,252.63454519469815 98.23591549292905,252.07867865467415 98.5,252.51101952559839 97.2746478872723,253.0421789753891 95.65845070424257,253.46216380647093 94.40140845067799,253.41275390471856 94.17957746476168,253.52392615416466 92.5,253.23981908405403 92.14084507041844,253.3386390129599 91.91901408450212,253.67215565547667 91.85563380277017,254.7468139121047 91.52816901408369,255.96968886259128 90.65140845067799,256.2414371124323 89.89084507036023,256.1673240161108 89.76408450701274,255.94498444491182 89.34154929581564,256.00674547937524 88.28521126764826,255.75970114552183 83.7746478873305,255.82146227797057" stroke="#4dd2ff" stroke-linecap="round" stroke-linejoin="round" stroke-width="0.5"><title>2022-10-20 5.2km</title></polyline><polyline fill="none" points="107.59795918362215,256.2242592408584 108.00204081623815,256.8471112581756 109.06734693865292,257.1477977551258 110.1693877549842,256.7397231156501 113.03469387744553,257.04040977158 113.23673469386995,256.7182454802969 113.71428571420256,257.2337081009755 114.55918367346749,257.4484838067292 115.16530612239148,257.2337081009755 117.95714285701979,257.51291647410835 118.91224489791784,256.61085726962483 119.48163265292533,257.1263201629481 120.82244897959754,256.8041560079728 122.1265306121204,256.99745456234086 123.76122448977549,256.7612007486896 123.98163265292533,258.3290618247993 124.25714285706636,258.09280956063594 124.31224489794113,256.5249466601672 124.82653061219025,256.15982616449764 127.85714285704307,257.06188737282355 128.5,258.13576453822316 128.0591836734675,256.39608067787776 126.44285714277066,252.55154125203262 124.18367346923333,253.34622855469934 123.50408163259272,254.46308112777479 121.77755102037918,254.74229331102106 120.89591836731415,254.74229331102106 120.54693877545651,254.39864749246044 115.0367346938001,254.4201253731735 114.59591836726759,254.0979569240444 112.13469387753867,254.57047047448577 111.69387755100615,254.22682436501782 117.09387755102944,253.4750964728446 117.36938775505405,253.99056732743338 117.02040816319641,254.52751474254183 114.4306122448761,254.22682436501782 112.26326530601364,254.57047047448577 111.49183673469815,254.29125805487274 115.29387755086645,253.58248634211486 117.31428571417928,253.51805242734554 117.35102040809579,254.18386856048892 117.05714285711292,254.52751474254183 114.37551020400133,254.22682436501782 112.13469387753867,254.54899260964885 111.51020408165641,254.31273594692175 113.03469387744553,254.03352317291137 113.51224489789456,254.3342138367443 116.98367346927989,254.63490405520133 117.31428571417928,254.37716960943362 117.33265306113753,253.51805242734554 116.08367346925661,253.4106625240238 110.05918367335107,254.65638191089965 107.32244897948112,254.1623906547611 101.75714285706636,252.29380416145432 101.5,251.9501541984646 101.904081632616,251.69241634452192 103.85102040809579,251.67093817521527" stroke="#4dd2ff" stroke-linecap="round" stroke-linejoin="round" stroke-width="0.5"><title>2022-09-24 5.1km</title></polyline><polyline fill="none" points="156.0454545454122,259.8041914785863 157.11264822119847,259.1178895230405 158.3399209487252,254.50092834205134 153.3774703554809,251.50612339074723 149.2687747036107,256.37267371604685 149.2687747036107,259.4922361433273 151.45652173901908,260.42810165468836 155.99209486157633,260.4904926359304 157.16600790503435,259.7418004247593 158.5,254.25136184343137 153.80434782616794,251.31894757662667 149.37549407128245,256.4350651263376 149.48221343872137,260.0537556281779 152.41699604713358,260.1785376634216 153.32411067187786,260.80244744365336 152.36363636353053,261.73831087659346 132.72727272706106,262.861345036712 131.92687747022137,263.48525197961135 133.3142292490229,262.4246097841533 153.91106719360687,262.923735760618 157.0592885373626,262.17504663724685 144.89328063232824,261.73831087659346 145.90711462451145,246.88910263794241 145.32015810278244,246.7643177920836 143.13241106714122,261.98787420796 131.5,261.86309255548986 131.6600790512748,262.54939131764695 157.16600790503435,262.861345036712 155.1916996045038,261.73831087659346 153.00395256909542,262.2374374339124 144.8399209487252,261.55113830877235 145.69367588916793,246.51474802038865 143.66600790503435,261.55113830877235 141.90513833984733,262.2374374339124 133.0474308298435,261.86309255548986 132.94071146240458,262.54939131764695 158.44664031616412,263.1732985905255 151.29644268751144,262.923735760618 156.73913043481298,262.861345036712 156.73913043481298,262.05026502447436 153.59090909082443,261.8007017194177" stroke="#4dd2ff" stroke-linecap="round" stroke-linejoin="round" stroke-width="0.5"><title>2022-09-22 5.0km</title></polyline><polyline fill="none" points="173.84896467725048,257.0766429074574 174.91778319119476,256.9228202250815 175.70706455543404,257.44197125631035 176.64433617546456,257.3073766868911 178.6668696711422,257.63424903976556 179.7356881852029,257.1535541998164 179.70280146162258,256.8074531278544 179.93300852621906,256.7497695518832 180.3276492083678,257.42274346679915 182.2350791717763,257.1920098337723 182.9257003653911,257.46119904382795 184.37271619972307,256.7497695518832 184.38915956154233,257.3650600859837 184.65225334954448,257.6150212705543 184.81668696715496,256.5959465928754 185.14555420225952,256.3844398117071 188.02314250922063,257.1535541998164 188.5,258.0572594473924 187.64494518883293,255.23076212748128 186.64190012181643,253.09643910708837 185.19488428748446,253.6156010673585 184.75091352016898,253.30794971434807 182.9257003653911,253.03875435327063 180.70584652863909,254.78851707362628 177.51583434839267,254.84620127212838 177.10475030448288,253.98093637276907 174.29293544456596,254.38472717172408 173.30633373942692,254.61546436839853 174.45736906211823,255.13462198991328 179.1930572472629,255.0961659206514 179.93300852621906,254.78851707362628 181.28136419004295,254.78851707362628 182.11997563956538,255.0961659206514 183.8300852618995,254.90388545228052 184.14250913524302,254.09630526401452 183.583434835542,253.59637287308578 182.62971985386685,253.5002318709885 181.18270401953487,254.28858658669924 180.2289890378015,253.59637287308578 178.92996345920255,253.96170821713167 177.30207064555725,253.92325189970143 177.26918392209336,254.88465739428648 175.93727162003051,254.65392053933465 173.89829476253362,254.98079766404408 172.86236297199503,254.65392053933465 172.15529841656098,254.9423415622441 170.9878197320504,254.90388545228052 164.24604141293094,252.86569998202322 164.64068209507968,252.25039421652036 163.55542021919973,251.94274055262213 162.9141291108681,252.4042208531464 161.5,252.15425250247063 161.76309378806036,252.3849925307295 164.22959805111168,252.67341715407383 166.46589524968294,252.28885088789684 167.17295980505878,252.94261305624968 168.06090133980615,252.78878687528777 168.57064555416582,252.98106958111748 168.24177831917768,255.86528575996635 167.78136419004295,255.86528575996635 168.8008526188205,256.3075281939091 168.19244823389454,256.3844398117071 168.0444579781033,256.98050374619197" stroke="#4dd2ff" stroke-linecap="round" stroke-linejoin="round" stroke-width="0.5"><title>2022-09-09 5.2km</title></polyline></svg>