<?xml version="1.0" encoding="utf-8" ?>
<svg baseProfile="full" height="200mm" version="1.1" viewBox="0,0,200,200" width="200mm" xmlns="http://www.w3.org/2000/svg" xmlns:ev="http://www.w3.org/2001/xml-events" xmlns:xlink="http://www.w3.org/1999/xlink"><defs /><rect fill="#1a1a1a" height="200" width="200" x="0" y="0" /><text alignment-baseline="middle" fill="#e1ed5e" style="dominant-baseline: central; font-size:9.0px; font-family:Arial;" text-anchor="middle" x="100.0" y="100.0">2024</text><line stroke="#e1ed5e" stroke-width="0.3" x1="100.0" x2="100.0" y1="15.0" y2="10.0" /><path d="M 100.0 14.0 a86.0,86.0 0 0,1 42.35913384403234,11.155469271406648" fill="none" id="id25" stroke="none" /><text fill="#e1ed5e" style="font-size:6.75px; font-family:Arial;" text-anchor="middle"><textPath startOffset="22.145653131862478" xlink:href="#id25">January</textPath></text><path d="M 100.36049292484886 79.00309439819443 l 0.9543579526145777 -55.58656622673624 a76.59475824195167,76.59475824195167 0 0,0 1.3144633848747491,0.03385591407175038 l -1.908434651560068 55.56199259531444" fill="#3cffa5" stroke="none" /><path d="M 101.08105385017728 79.02784411241856 l 3.2424194474892722 -62.902071061973096 a83.98558428528682,83.98558428528682 0 0,0 1.4391755640245512,0.08657722814352903 l -4.3217393636462855 62.83714185600488" fill="#4dd2ff" stroke="none" /><path d="M 102.15924093988457 79.11130261209362 l 4.599499032700798 -44.495980812216025 a65.73307165613504,65.73307165613504 0 0,0 1.1214190310426404,0.12565734148458718 l -5.3626539653442356 44.41046771022447" fill="#93ff23" stroke="none" /><path d="M 102.87502721639298 79.19773525538626 l 6.433172599298709 -46.54723224717972 a67.98968545931389,67.98968545931389 0 0,0 1.1547720895698905,0.16971173040589596 l -7.231269794476282 46.42993944347494" fill="#67ff28" stroke="none" /><path d="M 103.58742460773223 79.30868818359171 l 10.762273823196683 -62.07393544922487 a84.0,84.0 0 0,0 1.4186610657957854,0.2585273042745362 l -11.82626962254352 61.88003997101897" fill="#4dd2ff" stroke="none" /><path d="M 104.29559338865022 79.4440306129975 l 9.105557111959532 -43.57338702950602 a65.51461813317374,65.51461813317374 0 0,0 1.0988909889213987,0.2394981764290465 l -9.852210517500065 43.41065739494326" fill="#98ff23" stroke="none" /><path d="M 105.69591212413111 79.78721728523813 l 7.9469869648034175 -28.201053186212913 a50.2993857039762,50.2993857039762 0 0,0 0.829077559275582,0.24133239439930884 l -8.429924536460604 28.060477097511086" fill="#ff0000" stroke="none" /><line stroke="#e1ed5e" stroke-width="0.3" x1="143.13028292997686" x2="145.6673583964461" y1="26.7553504044142" y2="22.446841604673864" /><path d="M 143.63769802327073 25.89364864446614 a86.0,86.0 0 0,1 29.32050498858742,28.57503671076993" fill="none" id="id26" stroke="none" /><text fill="#e1ed5e" style="font-size:6.75px; font-family:Arial;" text-anchor="middle"><textPath startOffset="20.669276256404974" xlink:href="#id26">February</textPath></text><path d="M 110.96478420261332 82.08984904055464 l 23.233847560371785 -37.95074389843644 a65.497984616197,65.497984616197 0 0,0 0.9538872946482198,0.5952962210597696 l -23.881898983809716 37.54631188053513" fill="#98ff23" stroke="none" /><path d="M 112.16784306229584 82.88440491214696 l 29.643978070079548 -41.69796757264758 a72.16137151708236,72.16137151708236 0 0,0 1.0034519428784345,0.7264218226367708 l -30.35541102333195 41.182944978637735" fill="#32ff49" stroke="none" /><path d="M 115.16444852881244 85.47280134310134 l 40.19874750118354 -38.509490773676966 a76.66794571664937,76.66794571664937 0 0,0 0.9022874058711898,0.9581979572307865 l -40.85389074079099 37.81375135650168" fill="#3cffa6" stroke="none" /><path d="M 115.8921839302757 86.27271002978787 l 33.73519057242621 -29.139654135630614 a65.57782549768538,65.57782549768538 0 0,0 0.7285553905710437,0.8582364181662229 l -34.230440526504374 28.556250935014837" fill="#97ff23" stroke="none" /><path d="M 116.35404254752997 86.82634096563983 l 34.16637069071212 -27.52200971795677 a64.87256437787127,64.87256437787127 0 0,0 0.6911509705569701,0.8732466731778713 l -34.63378809191065 26.931443100864218" fill="#a5ff21" stroke="none" /><path d="M 117.21940702142032 87.97951657250589 l 36.53710061121924 -25.505733840863677 a65.55897417844508,65.55897417844508 0 0,0 0.6362662753060098,0.9283315107194837 l -36.96955662334057 24.874767595074143" fill="#97ff23" stroke="none" /><line stroke="#e1ed5e" stroke-width="0.3" x1="172.87174338648825" x2="177.1583165268699" y1="56.24261187166439" y2="53.66864786411523" /><path d="M 173.72905801456457 55.72781907015455 a86.0,86.0 0 0,1 12.242430191666344,42.057860355516425" fill="none" id="id27" stroke="none" /><text fill="#e1ed5e" style="font-size:6.75px; font-family:Arial;" text-anchor="middle"><textPath startOffset="22.145653131862474" xlink:href="#id27">March</textPath></text><line stroke="#e1ed5e" stroke-width="0.3" x1="184.99686870605535" x2="189.99668451229388" y1="99.2704041080226" y2="99.22748670261217" /><path d="M 185.99683186730306 99.26182062694052 a86.0,86.0 0 0,1 -10.086455211305974,41.156179273409016" fill="none" id="id28" stroke="none" /><text fill="#e1ed5e" style="font-size:6.75px; font-family:Arial;" text-anchor="middle"><textPath startOffset="21.40746469413373" xlink:href="#id28">April</textPath></text><line stroke="#e1ed5e" stroke-width="0.3" x1="174.33088141563837" x2="178.70328620479359" y1="141.23008692659167" y2="143.65538615756765" /><path d="M 175.20536237346943 141.71514677278685 a86.0,86.0 0 0,1 -30.301960400862466,31.631185727798858" fill="none" id="id29" stroke="none" /><text fill="#e1ed5e" style="font-size:6.75px; font-family:Arial;" text-anchor="middle"><textPath startOffset="22.145653131862474" xlink:href="#id29">May</textPath></text><line stroke="#e1ed5e" stroke-width="0.3" x1="143.1302829299769" x2="145.66735839644613" y1="173.24464959558577" y2="177.55315839532614" /><path d="M 143.63769802327073 174.10635135553383 a86.0,86.0 0 0,1 -40.68552437913181,11.842963189579606" fill="none" id="id30" stroke="none" /><text fill="#e1ed5e" style="font-size:6.75px; font-family:Arial;" text-anchor="middle"><textPath startOffset="21.407464694133747" xlink:href="#id30">June</textPath></text><line stroke="#e1ed5e" stroke-width="0.3" x1="101.45913802915013" x2="101.54496967792366" y1="184.9874750549273" y2="189.98673829345242" /><path d="M 101.47630435890484 185.9873277026323 a86.0,86.0 0 0,1 -42.54439059252881,-10.42667462771756" fill="none" id="id31" stroke="none" /><text fill="#e1ed5e" style="font-size:6.75px; font-family:Arial;" text-anchor="middle"><textPath startOffset="22.145653131862474" xlink:href="#id31">July</textPath></text><line stroke="#e1ed5e" stroke-width="0.3" x1="58.13341422392154" x2="55.67067388415222" y1="173.97424548756322" y2="178.32567169271397" /><path d="M 57.64086615596768 174.84453072859336 a86.0,86.0 0 0,1 -31.369924170532247,-30.572349798747897" fill="none" id="id32" stroke="none" /><text fill="#e1ed5e" style="font-size:6.75px; font-family:Arial;" text-anchor="middle"><textPath startOffset="22.145653131862474" xlink:href="#id32">August</textPath></text><line stroke="#e1ed5e" stroke-width="0.3" x1="26.387840678322732" x2="22.057713659400548" y1="142.50000000000003" y2="145.00000000000006" /><path d="M 25.521815274538298 143.00000000000003 a86.0,86.0 0 0,1 -11.493303480769221,-40.785679425670985" fill="none" id="id33" stroke="none" /><text fill="#e1ed5e" style="font-size:6.75px; font-family:Arial;" text-anchor="middle"><textPath startOffset="21.40746469413373" xlink:href="#id33">September</textPath></text><line stroke="#e1ed5e" stroke-width="0.3" x1="15.003131293944662" x2="10.003315487706104" y1="100.72959589197737" y2="100.7725132973878" /><path d="M 14.003168132696942 100.73817937305945 a86.0,86.0 0 0,1 10.791469493833604,-42.45332614584628" fill="none" id="id34" stroke="none" /><text fill="#e1ed5e" style="font-size:6.75px; font-family:Arial;" text-anchor="middle"><textPath startOffset="22.145653131862435" xlink:href="#id34">October</textPath></text><line stroke="#e1ed5e" stroke-width="0.3" x1="26.387840678322718" x2="22.05771365940052" y1="57.49999999999999" y2="54.99999999999999" /><path d="M 25.521815274538284 56.99999999999999 a86.0,86.0 0 0,1 29.574782752854787,-30.34633250058573" fill="none" id="id35" stroke="none" /><text fill="#e1ed5e" style="font-size:6.75px; font-family:Arial;" text-anchor="middle"><textPath startOffset="21.40746469413373" xlink:href="#id35">November</textPath></text><line stroke="#e1ed5e" stroke-width="0.3" x1="56.869717070023135" x2="54.33264160355391" y1="26.7553504044142" y2="22.446841604673864" /><path d="M 56.362301976729285 25.89364864446614 a86.0,86.0 0 0,1 42.16139366436587,-11.88097634709845" fill="none" id="id36" stroke="none" /><text fill="#e1ed5e" style="font-size:6.75px; font-family:Arial;" text-anchor="middle"><textPath startOffset="22.145653131862474" xlink:href="#id36">December</textPath></text></svg>