<?xml version="1.0" encoding="utf-8" ?>
<svg baseProfile="full" height="200mm" version="1.1" viewBox="0,0,200,200" width="200mm" xmlns="http://www.w3.org/2000/svg" xmlns:ev="http://www.w3.org/2001/xml-events" xmlns:xlink="http://www.w3.org/1999/xlink"><defs /><rect fill="#1a1a1a" height="200" width="200" x="0" y="0" /><text alignment-baseline="middle" fill="#e1ed5e" style="dominant-baseline: central; font-size:9.0px; font-family:Arial;" text-anchor="middle" x="100.0" y="100.0">2023</text><line stroke="#e1ed5e" stroke-width="0.3" x1="100.0" x2="100.0" y1="15.0" y2="10.0" /><path d="M 100.0 14.0 a86.0,86.0 0 0,1 42.46469731375804,11.215312516191453" fill="none" id="id13" stroke="none" /><text fill="#e1ed5e" style="font-size:6.75px; font-family:Arial;" text-anchor="middle"><textPath startOffset="22.20632615414155" xlink:href="#id13">January</textPath></text><path d="M 102.16513564639614 79.11191278185805 l 1.9088433667707567 -18.41551442619605 a39.51417982467221,39.51417982467221 0 0,0 0.675943289358405,0.07595010442924359 l -2.225553359638887 18.379928368296206" fill="#ffc912" stroke="none" /><path d="M 102.88285421437855 79.19881850522331 l 3.273970471224059 -23.62327364346158 a44.849065815673235,44.849065815673235 0 0,0 0.7637817683086447,0.11256157851017674 l -3.68012121996136 23.563417580790436" fill="#efff19" stroke="none" /><path d="M 105.01212808612495 79.60689891045804 l 6.20555401136247 -25.24885399889451 a47.0002601688027,47.0002601688027 0 0,0 0.7839892079344214,0.19985630535037058 l -6.639252107981917 25.138294697375272" fill="#d4ff1c" stroke="none" /><path d="M 106.74666289553966 80.11325718540242 l 9.107137899501744 -26.84457664309888 a49.347332429485334,49.347332429485334 0 0,0 0.8020539337931124,0.27982086875859863 l -9.56787383735813 26.683834921168074" fill="#b7ff1f" stroke="none" /><path d="M 110.36928655335952 81.73862282372117 l 14.128803626537405 -24.88227234786787 a49.613817800334274,49.613817800334274 0 0,0 0.7390173487054486,0.4280865486394347 l -14.555017707708181 24.635381641838386" fill="#b4ff20" stroke="none" /><line stroke="#e1ed5e" stroke-width="0.3" x1="143.23703022742887" x2="145.7803849466894" y1="26.81831364943548" y2="22.513508569990506" /><path d="M 143.74570117128098 25.957352633546492 a86.0,86.0 0 0,1 28.547481713284135,27.462654790039103" fill="none" id="id14" stroke="none" /><text fill="#e1ed5e" style="font-size:6.75px; font-family:Arial;" text-anchor="middle"><textPath startOffset="19.985693538727396" xlink:href="#id14">February</textPath></text><path d="M 111.90073688211348 82.69761687909136 l 25.47869356170991 -37.043262261138516 a65.95961637468682,65.95961637468682 0 0,0 0.9299327835025277,0.651477342932674 l -26.11255748479609 36.59920007544191" fill="#35ff67" stroke="none" /><path d="M 113.34407831869373 83.78471172551755 l 23.844473665097958 -28.97502585032173 a58.52480576088786,58.52480576088786 0 0,0 0.7723670865505571,0.6468352228977907 l -24.339698288607632 28.56028947003012" fill="#4fff2b" stroke="none" /><path d="M 113.89432698308785 84.25364557470407 l 12.19882217102133 -13.82484935829335 a39.43740009165353,39.43740009165353 0 0,0 0.5051536810683664,0.45353196255695843 l -12.434986839685687 13.612818386967092" fill="#ffc812" stroke="none" /><path d="M 115.19652480421416 85.50635884689758 l 22.71074743584892 -21.660309043989784 a52.38386587047657,52.38386587047657 0 0,0 0.6167144497475233,0.657867975819169 l -23.08022920756691 21.26617165129256" fill="#93ff23" stroke="none" /><path d="M 116.38621287248628 86.86637796730983 l 24.58989232856094 -19.708907371155433 a52.51355001416066,52.51355001416066 0 0,0 0.5592591035329435,0.7102022678356741 l -24.925505512687845 19.28271270936672" fill="#92ff23" stroke="none" /><line stroke="#e1ed5e" stroke-width="0.3" x1="172.23445277983987" x2="176.4835382374775" y1="55.19839476539836" y2="52.563006222186495" /><path d="M 173.08426987136738 54.67131705675599 a86.0,86.0 0 0,1 12.851231095245387,41.99856678651699" fill="none" id="id15" stroke="none" /><text fill="#e1ed5e" style="font-size:6.75px; font-family:Arial;" text-anchor="middle"><textPath startOffset="22.20632615414155" xlink:href="#id15">March</textPath></text><path d="M 118.21658344932153 89.55222093294921 l 27.22486213273885 -15.614308000459141 a52.38470539099961,52.38470539099961 0 0,0 0.4418833463410797,0.7860611664719847 l -27.48960312037236 15.143363324052363" fill="#93ff23" stroke="none" /><path d="M 118.56541770881063 90.18545643968196 l 28.08818039293674 -14.848718963415633 a52.771533369364704,52.771533369364704 0 0,0 0.41762528779355024,0.8067191285578345 l -28.339615113890407 14.363027112597454" fill="#8fff24" stroke="none" /><path d="M 119.34039704204932 91.81776055985345 l 20.360939536545686 -8.613994953265468 a43.10811542998978,43.10811542998978 0 0,0 0.2832373832640512,0.6858817897616156 l -20.506198606695936 8.262238593050549" fill="#fff917" stroke="none" /><path d="M 119.61058180528143 92.48833698450437 l 35.393088328140365 -13.557015046186024 a58.90070392969054,58.90070392969054 0 0,0 0.3545132719398654,0.9499193158891246 l -35.62120618858186 12.945772593267566" fill="#4bff2c" stroke="none" /><path d="M 119.85752413597 93.16781622104841 l 33.34842041492166 -11.47386428702714 a56.267076797595244,56.267076797595244 0 0,0 0.3072254903411389,0.918565111721497 l -33.54098319903457 10.898126072383329" fill="#67ff28" stroke="none" /><path d="M 120.28053869075195 94.5502522615342 l 42.45270276712107 -11.407809448492543 a64.95873165420772,64.95873165420772 0 0,0 0.28088052910736866,1.082347257029539 l -42.64277962809874 10.675365765914155" fill="#34ff5b" stroke="none" /><path d="M 120.67395015179393 96.31383870115 l 30.879275674176142 -5.505768858439039 a52.36627419513391,52.36627419513391 0 0,0 0.15058580084598658,0.8887659207664445 l -30.96947333654235 4.973417149356757" fill="#94ff23" stroke="none" /><path d="M 120.83666639777658 97.38593545837742 l 34.74027775729419 -4.358342477525707 a56.012598415504016,56.012598415504016 0 0,0 0.11178420128311944,0.9576987711324833 l -34.8101523115809 3.7596999680683716" fill="#6aff28" stroke="none" /><path d="M 120.91429891909075 98.10471618934814 l 31.4797261735981 -2.85273800529423 a52.60872148777244,52.60872148777244 0 0,0 0.07396665035823426,0.9025804850255722 l -31.524167307775826 2.3104436030608886" fill="#91ff24" stroke="none" /><path d="M 120.96714384426684 98.82574320788733 l 32.81724203829932 -1.837916964184677 a53.86866766036552,53.86866766036552 0 0,0 0.04388088252084721,0.926256075865466 l -32.84401652905366 1.2727497816962114" fill="#82ff25" stroke="none" /><line stroke="#e1ed5e" stroke-width="0.3" x1="184.98032266829074" x2="189.97916517819016" y1="98.17113171792111" y2="98.06355123074" /><path d="M 185.9800911702706 98.14961562048488 a86.0,86.0 0 0,1 -9.607161424134198,41.387399972396054" fill="none" id="id16" stroke="none" /><text fill="#e1ed5e" style="font-size:6.75px; font-family:Arial;" text-anchor="middle"><textPath startOffset="21.466115282336823" xlink:href="#id16">April</textPath></text><path d="M 120.9904718944345 100.63252640178507 l 37.90623495709609 1.1422656204784378 a58.923441554931436,58.923441554931436 0 0,0 -0.03927630984932492,1.0135470368515067 l -37.88095651439556 -1.7945899043439508" fill="#4bff2c" stroke="none" /><path d="M 120.92983693683757 101.71520430193887 l 43.84193449423707 3.5928552561957865 a64.98890575007462,64.98890575007462 0 0,0 -0.10096615655272784,1.1141531241852232 l -43.77359374140727 -4.34698976892958" fill="#34ff5b" stroke="none" /><path d="M 120.5718875245553 104.21870165774334 l 17.00592941994083 3.487426350631938 a38.35983231448654,38.35983231448654 0 0,0 -0.13821588506879978,0.645698600604003 l -16.94337949614759 -3.77963877065211" fill="#ffb911" stroke="none" /><path d="M 120.49622156327973 104.57218783832717 l 30.65588078879891 6.838550455898038 a52.40937438528366,52.40937438528366 0 0,0 -0.20399583819937464,0.8788087318957937 l -30.533624384668986 -7.365227845142397" fill="#93ff23" stroke="none" /><path d="M 120.32669344350535 105.2749913415812 l 39.47451515712224 10.244053035269612 a61.78207902350357,61.78207902350357 0 0,0 -0.2759950324190097,1.027080188303327 l -39.29233204836145 -10.922024156748488" fill="#30ff33" stroke="none" /><path d="M 120.02730092923936 106.31721596034902 l 30.130920632408657 9.504202957332346 a52.594338923463404,52.594338923463404 0 0,0 -0.27977120049660387,0.861047217944161 l -29.962857180895806 -10.021449075254301" fill="#91ff24" stroke="none" /><path d="M 119.26925614724726 108.34839909993367 l 40.34059094362663 17.477548201707616 a64.96393941429753,64.96393941429753 0 0,0 -0.4533830710544168,1.0222591355925177 l -40.03376678784094 -18.169355673792822" fill="#34ff5b" stroke="none" /><line stroke="#e1ed5e" stroke-width="0.3" x1="174.80103733775053" x2="179.2010983576182" y1="140.37084112569926" y2="142.7455964860345" /><path d="M 175.68104954172406 140.8457921977663 a86.0,86.0 0 0,1 -30.038265399797805,32.042727171017184" fill="none" id="id17" stroke="none" /><text fill="#e1ed5e" style="font-size:6.75px; font-family:Arial;" text-anchor="middle"><textPath startOffset="22.206326154141568" xlink:href="#id17">May</textPath></text><path d="M 117.94076556474637 110.91462005526583 l 32.79275865149378 19.950124199181342 a59.384534327485085,59.384534327485085 0 0,0 -0.5388025545827427,0.8687212764556318 l -32.44449145724307 -20.51164180700225" fill="#46ff2d" stroke="none" /><path d="M 117.55443506779139 111.5257021239791 l 31.85629556228548 20.915863826231057 a59.109013717874284,59.109013717874284 0 0,0 -0.5657489618822772,0.8457179361868475 l -31.49154349499248 -21.461118676623713" fill="#49ff2c" stroke="none" /><path d="M 116.93607887273984 112.41649034213515 l 38.62210655792685 28.315350718004385 a68.88972960098488,68.88972960098488 0 0,0 -0.7093632317445043,0.9503079714043436 l -38.12898205948725 -28.975971568918045" fill="#39ff8a" stroke="none" /><path d="M 116.27256486870786 113.27417163493432 l 29.126757057251947 23.759842131002554 a58.58853648071896,58.58853648071896 0 0,0 -0.6442060682752889,0.77598770877577 l -28.713454989083115 -24.257691096892092" fill="#4eff2b" stroke="none" /><path d="M 115.80600337817218 113.82643327865902 l 29.791168545091168 26.06007314605684 a60.58081777401602,60.58081777401602 0 0,0 -0.6933363539548287,0.7789707436764737 l -29.338173341488 -26.569018059474182" fill="#39ff2e" stroke="none" /><path d="M 115.07121518719521 114.62390073753431 l 22.550442771402746 21.88114445851889 a52.42144095997003,52.42144095997003 0 0,0 -0.6339483990420063,0.64218638124684 l -22.170453747305203 -22.266071333746392" fill="#93ff23" stroke="none" /><path d="M 114.55890576462653 115.13401014063108 l 23.69991928333177 24.636111021306682 a55.185145023688136,55.185145023688136 0 0,0 -0.690245717698539,0.6526704090493957 l -23.272337731242423 -25.040416067102" fill="#73ff27" stroke="none" /><path d="M 114.0293411484842 115.62618273729858 l 42.088023445452606 46.878548211895726 a84.0,84.0 0 0,0 -1.0842305883736492,0.9567074329108447 l -41.27485050417237 -47.59607878657886" fill="#4dd2ff" stroke="none" /><path d="M 113.20401910651253 116.32954008644616 l 16.94896985168482 20.96095744670241 a47.95606269683668,47.95606269683668 0 0,0 -0.6463621059579316,0.5135091484934499 l -16.585650253009536 -21.249600509200985" fill="#c8ff1d" stroke="none" /><path d="M 112.63410532772338 116.77436683061366 l 23.40173812866067 31.07060845715213 a59.89760991809219,59.89760991809219 0 0,0 -0.8289116989620791,0.6132090584121885 l -22.86344145928003 -31.468827464304088" fill="#40ff2d" stroke="none" /><path d="M 111.45004920935366 117.60387380957326 l 13.332879547077534 20.498630597434968 a45.45321110584406,45.45321110584406 0 0,0 -0.6595438371120595,0.42095208208152746 l -12.978053907918543 -20.725097108340304" fill="#e7ff1a" stroke="none" /><line stroke="#e1ed5e" stroke-width="0.3" x1="143.8653032363475" x2="146.44561519142675" y1="172.8068346515853" y2="177.08958963109032" /><path d="M 144.38136562736335 173.6633856474863 a86.0,86.0 0 0,1 -40.68145358897372,12.25698825130547" fill="none" id="id18" stroke="none" /><text fill="#e1ed5e" style="font-size:6.75px; font-family:Arial;" text-anchor="middle"><textPath startOffset="21.466115282336833" xlink:href="#id18">June</textPath></text><path d="M 110.8373102113329 117.98757091392108 l 21.299162424545006 35.351963452885734 a62.27245619007086,62.27245619007086 0 0,0 -0.9229137674441695,0.5452737214764365 l -20.687480786072452 -35.71335574665592" fill="#30ff39" stroke="none" /><path d="M 109.89434966115114 118.52300852407294 l 23.83940123659188 44.629252799502495 a71.59730483692901,71.59730483692901 0 0,0 -1.0920603854215287,0.5713143796912588 l -23.067649948643854 -45.032996598138475" fill="#3dffaa" stroke="none" /><path d="M 108.92500713936063 119.00905698771935 l 13.99751839608732 29.812819275451613 a53.935311056668986,53.935311056668986 0 0,0 -0.8437845638264345,0.3873401082332972 l -13.482265836493466 -30.049346454018984" fill="#82ff25" stroke="none" /><path d="M 106.2309692047433 120.05430185196036 l 12.402880116995808 39.91852527702521 a62.800958069033186,62.800958069033186 0 0,0 -1.0350944388962457,0.31186546343028243 l -11.713910703659316 -40.12610610956122" fill="#31ff40" stroke="none" /><path d="M 104.48393922423573 120.51570834832081 l 5.811990325540047 26.59204161322354 a48.21977054832725,48.21977054832725 0 0,0 -0.8124079308530658,0.17024798080461606 l -5.353390933257604 -26.688145574754696" fill="#c5ff1e" stroke="none" /><path d="M 104.13013068566511 120.58985236759428 l 7.4206329138855995 36.993922904502604 a58.730837847931824,58.730837847931824 0 0,0 -0.992921402826365,0.19029575002452886 l -6.78274389648753 -37.1161758528756" fill="#4dff2c" stroke="none" /><path d="M 102.70371172650421 120.8252237178851 l 4.09538023493329 31.544490770309878 a52.80922880591177,52.80922880591177 0 0,0 -0.9024659061069922,0.10927605315156494 l -3.551786905774918 -31.610312352186796" fill="#8fff24" stroke="none" /><path d="M 101.98527174616119 120.90594882070398 l 2.971264192662302 31.288964477886104 a52.429726518075455,52.429726518075455 0 0,0 -0.8991839964162786,0.07758537877973257 l -2.4322358785044815 -31.3354741089445" fill="#93ff23" stroke="none" /><path d="M 101.26447882468166 120.96189622390904 l 2.271955475551745 37.66333921475293 a58.7318022692852,58.7318022692852 0 0,0 -1.0096610182282015,0.052187941883286244 l -1.6233063889100638 -37.69686696339842" fill="#4dff2c" stroke="none" /><line stroke="#e1ed5e" stroke-width="0.3" x1="102.19456741930631" x2="102.32365962044197" y1="184.97166512339345" y2="189.96999836594603" /><path d="M 102.22038585953345 185.97133177190398 a86.0,86.0 0 0,1 -42.740103519485714,-10.115201625700543" fill="none" id="id19" stroke="none" /><text fill="#e1ed5e" style="font-size:6.75px; font-family:Arial;" text-anchor="middle"><textPath startOffset="22.20632615414155" xlink:href="#id19">July</textPath></text><path d="M 100.54218724476979 120.99299961872073 l 0.9683033580467842 37.49183003173187 a58.5043321567186,58.5043321567186 0 0,0 -1.006943997968892,0.01733545410060817 l -0.32279967018522443 -37.50294296311164" fill="#4fff2b" stroke="none" /><path d="M 99.81925306533755 120.99922214144158 l -0.1431430510211492 16.630393937304866 a37.63100996461135,37.63100996461135 0 0,0 -0.6476839957743442,-0.01115046735776016 l 0.42938673668816135 -16.625465992667944" fill="#ffaf10" stroke="none" /><path d="M 98.73552117531835 120.96189622390904 l -2.3029924498123737 38.177854618931235 a59.24725294093867,59.24725294093867 0 0,0 -1.0174650348596448,-0.07017034588112082 l 2.9598202454509486 -38.13255592853383" fill="#47ff2c" stroke="none" /><path d="M 97.2962882734958 120.8252237178851 l -4.064813161870246 31.309049199857597 a52.57181128538585,52.57181128538585 0 0,0 -0.8964029776580079,-0.1242332846608595 l 4.603144730715085 -31.23444134970413" fill="#91ff24" stroke="none" /><path d="M 96.58105272829116 120.7198165907248 l -5.531140883996578 33.52032527737331 a54.9736033734947,54.9736033734947 0 0,0 -0.9323288277789391,-0.16209731736710484 l 6.107318683247566 -33.420149381485196" fill="#76ff27" stroke="none" /><path d="M 95.16358092515715 120.4354850818985 l -2.5298709346877657 10.689549219144189 a31.984839983116917,31.984839983116917 0 0,0 -0.5346749054327247,-0.13141008317954433 l 2.713499124863701 -10.644417877650614" fill="#ff5f08" stroke="none" /><path d="M 94.46302465271185 120.25689768951611 l -8.247695605712915 30.17400576670898 a52.28090642570773,52.28090642570773 0 0,0 -0.8660427547020444,-0.24475233314605613 l 8.765869528519573 -30.027564640224405" fill="#95ff23" stroke="none" /><path d="M 93.76903079525671 120.05430185196036 l -9.323990093257274 30.009153576385398 a52.424291394242196,52.424291394242196 0 0,0 -0.8594554536081092,-0.2751704955366362 l 9.839166891956324 -29.844210234189052" fill="#93ff23" stroke="none" /><path d="M 93.42475214034765 119.94407469862007 l -1.4643586488835212 4.441699978812275 a25.676862725625046,25.676862725625046 0 0,0 -0.41856987019987685,-0.14200162584671486 l 1.5405982520206238 -4.415835366067437" fill="#ff0000" stroke="none" /><path d="M 93.08242187328487 119.8279376855182 l -10.307349780506028 29.5440810941389 a52.29048077602441,52.29048077602441 0 0,0 -0.8473060844451628,-0.30381381617550257 l 10.814375425580916 -29.362279736923437" fill="#95ff23" stroke="none" /><path d="M 92.40401165467489 119.57807347666478 l -9.804656745001044 25.270745746370867 a48.106122637976384,48.106122637976384 0 0,0 -0.7694206051162819,-0.30616833780734765 l 10.238198426159183 -25.098230564157454" fill="#c6ff1e" stroke="none" /><line stroke="#e1ed5e" stroke-width="0.3" x1="58.666819895761336" x2="56.23545636021788" y1="174.27360380694188" y2="178.64263932499728" /><path d="M 58.180547188652646 175.14741091055294 a86.0,86.0 0 0,1 -31.652253787137756,-30.449443065178592" fill="none" id="id20" stroke="none" /><text fill="#e1ed5e" style="font-size:6.75px; font-family:Arial;" text-anchor="middle"><textPath startOffset="22.20632615414155" xlink:href="#id20">August</textPath></text><path d="M 89.7882731507175 118.34994917583269 l -12.275789802197353 22.05896439340758 a46.2446613242752,46.2446613242752 0 0,0 -0.6922412528855746,-0.3930726497753568 l 12.653679822004134 -21.84438857783759" fill="#ddff1b" stroke="none" /><path d="M 89.4739219176387 118.17145234162733 l -15.493587842177208 26.746998347534813 a51.910405769356885,51.910405769356885 0 0,0 -0.7693421953989286,-0.4545409297942917 l 15.951697908604519 -26.47633884544677" fill="#99ff23" stroke="none" /><path d="M 88.54995079064634 117.60387380957326 l -16.66357962616137 25.619414169424275 a51.56189242082233,51.56189242082233 0 0,0 -0.7398525127258081,-0.4903339025102271 l 17.10210683762714 -25.32878224582273" fill="#9dff22" stroke="none" /><path d="M 87.65650970185807 116.9893568818739 l -18.946305462909674 26.077352298873112 a53.233380114617574,53.233380114617574 0 0,0 -0.7366866827013999,-0.5449831961712912 l 19.39237711602964 -25.747359153962055" fill="#8aff24" stroke="none" /><path d="M 84.43433777217949 114.09645910891817 l -20.119543409880624 18.22051107215872 a48.143747912783326,48.143747912783326 0 0,0 -0.5509963693142265,-0.6190502619969456 l 20.43019862884319 -17.87148664042091" fill="#c6ff1e" stroke="none" /><path d="M 83.72743513129214 113.27417163493432 l -24.25478236651229 19.78558061981956 a52.30117678475132,52.30117678475132 0 0,0 -0.5630647261659244,-0.7025098210514875 l 24.591765004733077 -19.36514296518981" fill="#94ff23" stroke="none" /><path d="M 83.28015986056508 112.70617746262583 l -21.569313113405087 16.391515581507832 a48.09090347778979,48.09090347778979 0 0,0 -0.4951960024536282,-0.6633959690607967 l 21.8482703825538 -16.01780673293773" fill="#c7ff1e" stroke="none" /><path d="M 82.85270091963577 112.12312394758628 l -17.735301719343603 12.538841247462257 a42.72011664115119,42.72011664115119 0 0,0 -0.41934695668260646,-0.6041005674752313 l 17.948509583188343 -12.231699417800012" fill="#fff417" stroke="none" /><path d="M 82.05923443525364 110.91462005526583 l -26.956607774357522 16.39958622580089 a52.55321110565501,52.55321110565501 0 0,0 -0.46351713048739884,-0.7768813721524149 l 27.23490578054315 -15.933142759762362" fill="#91ff23" stroke="none" /><line stroke="#e1ed5e" stroke-width="0.3" x1="26.63291911575756" x2="22.317208475507996" y1="142.92168965132927" y2="145.44649492493687" /><path d="M 25.769776987707644 143.4266507060508 a86.0,86.0 0 0,1 -11.730757126820373,-40.83630448921669" fill="none" id="id21" stroke="none" /><text fill="#e1ed5e" style="font-size:6.75px; font-family:Arial;" text-anchor="middle"><textPath startOffset="21.46611528233685" xlink:href="#id21">September</textPath></text><path d="M 81.87401531095188 110.60418214915194 l -29.4505848220484 17.229373808350644 a55.12020322607336,55.12020322607336 0 0,0 -0.472059929613552,-0.8230762773311204 l 29.742796747814328 -16.71987768516122" fill="#74ff27" stroke="none" /><path d="M 81.51974371655577 109.97397251340807 l -9.447656505726437 5.09899131586471 a31.735824415919758,31.735824415919758 0 0,0 -0.2553184730707173,-0.48296633177100307 l 9.53402748702204 -4.935609969007581" fill="#ff5b08" stroke="none" /><path d="M 81.18737489456691 109.33194174019688 l -34.266881119502585 16.997975372033494 a59.25114780508397,59.25114780508397 0 0,0 -0.44536193918440226,-0.9175775065688849 l 34.55439631530171 -16.405608909499325" fill="#47ff2c" stroke="none" /><path d="M 80.87730276802145 108.67885076344099 l -29.888244134611185 13.564802458504571 a53.82241616926413,53.82241616926413 0 0,0 -0.3756264252813797,-0.8469384265293217 l 30.117311644623843 -13.048315695482554" fill="#83ff25" stroke="none" /><path d="M 80.58989483394504 108.01547362559985 l -5.500774745075792 2.271564966408792 a26.951346922561264,26.951346922561264 0 0,0 -0.17338364340382018,-0.430323983839174 l 5.539061002737 -2.1765416147268124" fill="#ff1402" stroke="none" /><path d="M 80.32549172779594 107.34259656027581 l -36.21156340574602 13.514284434792325 a59.65117343720413,59.65117343720413 0 0,0 -0.3507367962887766,-0.9650770279266805 l 36.43882446304002 -12.888959609859528" fill="#43ff2d" stroke="none" /><path d="M 79.97269907076064 106.31721596034903 l -30.482896676582502 9.615226838771584 a52.96340997071867,52.96340997071867 0 0,0 -0.2667671815087576,-0.8718105842164467 l 30.64389063059739 -9.089089282003089" fill="#8dff24" stroke="none" /><path d="M 79.58551787078972 104.9243191809786 l -15.940828767025394 3.8451981471447323 a37.398035570470924,37.398035570470924 0 0,0 -0.14556639346853623,-0.627096213235986 l 16.004655726424485 -3.570233276560172" fill="#ffac0f" stroke="none" /><path d="M 79.35854240842038 103.8639653848113 l -14.964684667339062 2.801305251466472 a36.224621450295125,36.224621450295125 0 0,0 -0.10945624313987444,-0.6138887398070216 l 15.010687352818126 -2.5432977609262366" fill="#ff9c0e" stroke="none" /><path d="M 79.18660465613746 102.79330883721812 l -31.016731064541297 4.162670604810728 a52.29481478606698,52.29481478606698 0 0,0 -0.11205655902802976,-0.8932010288852635 l 31.083789132816175 -3.628151821638056" fill="#94ff23" stroke="none" /><path d="M 79.10278846688536 102.07522291339032 l -22.746116444660014 2.258830656032855 a43.85799923979933,43.85799923979933 0 0,0 -0.06813737769896076,-0.751890285111933 l 22.78162841863605 -1.8669589823723556" fill="#fcff18" stroke="none" /><line stroke="#e1ed5e" stroke-width="0.3" x1="15.007084014347285" x2="10.007500721073583" y1="101.09737516637583" y2="101.16192664675087" /><path d="M 14.007167355692545 101.11028546245083 a86.0,86.0 0 0,1 10.666146001902534,-42.60595125391555" fill="none" id="id22" stroke="none" /><text fill="#e1ed5e" style="font-size:6.75px; font-family:Arial;" text-anchor="middle"><textPath startOffset="22.20632615414155" xlink:href="#id22">October</textPath></text><path d="M 79.00486145842228 99.54816195383935 l -37.21452716125396 -0.800896798467603 a58.22314424544902,58.22314424544902 0 0,0 0.030188161157023802,-1.0017981012695896 l 37.195227305641296 1.4413650471621868" fill="#52ff2b" stroke="none" /><path d="M 79.05617556472873 98.46500227214037 l -31.514370438634085 -2.309725578904451 a52.59889834145012,52.59889834145012 0 0,0 0.07395283924081494,-0.9024119544108261 l 31.46994311557377 2.851851450523055" fill="#91ff24" stroke="none" /><path d="M 79.12142395522702 97.74499172005258 l -31.90015172218656 -3.4454028910232566 a53.08567407707049,53.08567407707049 0 0,0 0.10594294576840739,-0.9076544610770345 l 31.836118423414565 3.994001090425153" fill="#8bff24" stroke="none" /><path d="M 79.26566170972629 96.67025291283419 l -6.177522146219545 -0.9920541511530088 a27.256672542642203,27.256672542642203 0 0,0 0.07837998647633392,-0.46260311701997325 l 6.159530298222988 1.09824305648881" fill="#ff1802" stroke="none" /><path d="M 79.32604984820605 96.31383870115002 l -36.380250716144694 -6.486591640576022 a57.95400537534649,57.95400537534649 0 0,0 0.1835604149554838,-0.9805870766053577 l 36.26320457727935 7.111856794643953" fill="#55ff2b" stroke="none" /><path d="M 79.46518482838121 95.60439243477599 l -30.99576700916276 -6.634840723752961 a52.697928700719125,52.697928700719125 0 0,0 0.19750584676728647,-0.885379984053022 l 30.876966775393434 7.167398877355943" fill="#90ff24" stroke="none" /><path d="M 79.54389044137918 95.25157060432595 l -7.266929185059926 -1.6868554628990102 a28.46014350621943,28.46014350621943 0 0,0 0.11488031758083704,-0.4762530827227821 l 7.236816067218274 1.811693777281189" fill="#ff2b04" stroke="none" /><path d="M 79.62865764111835 94.90015583598534 l -30.654720546346013 -7.67422661323165 a52.60072223677493,52.60072223677493 0 0,0 0.22744469168429785,-0.8764371775885196 l 30.51807952279141 8.200760216369034" fill="#91ff24" stroke="none" /><path d="M 80.02781315780177 93.51064311812611 l -17.353308723644528 -5.638431799122419 a39.2463485884566,39.2463485884566 0 0,0 0.2142901208918483,-0.6407001861052132 l 17.253681308980905 5.936305088149954" fill="#ffc512" stroke="none" /><path d="M 80.14247586403 93.16781622104843 l -44.33516790133282 -15.253966853999447 a67.88593197988375,67.88593197988375 0 0,0 0.3896876169776101,-1.101699369094572 l 44.0660272035454 16.01486384952063" fill="#38ff7e" stroke="none" /><path d="M 80.38941819471856 92.48833698450439 l -37.43923542121001 -14.340773916569718 a61.09182142845287,61.09182142845287 0 0,0 0.38460632582463755,-0.9787811482063472 l 37.18683554550368 14.983104069671828" fill="#34ff2f" stroke="none" /><path d="M 80.803312248108 91.48605970444005 l -32.18667736516807 -14.275142302738288 a56.21025259172179,56.21025259172179 0 0,0 0.3998895952432378,-0.8811037157439408 l 31.93618545296148 14.827068027324302" fill="#68ff28" stroke="none" /><line stroke="#e1ed5e" stroke-width="0.3" x1="26.266209847984243" x2="21.928928074336255" y1="57.711370442889674" y2="55.22380399835377" /><path d="M 25.398753493254645 57.213857153982495 a86.0,86.0 0 0,1 29.58750427330803,-30.492523968695096" fill="none" id="id23" stroke="none" /><text fill="#e1ed5e" style="font-size:6.75px; font-family:Arial;" text-anchor="middle"><textPath startOffset="21.46611528233685" xlink:href="#id23">November</textPath></text><path d="M 82.54541684631803 88.32363383020206 l -4.645743782409351 -3.1078029797022584 a26.589398415969413,26.589398415969413 0 0,0 0.257759570956082,-0.3782303645175647 l 4.5915597457845285 3.187311367490239" fill="#ff0e01" stroke="none" /><path d="M 85.31137513191541 84.99185889309783 l -4.035369364409703 -4.12314926573712 a26.769277751570375,26.769277751570375 0 0,0 0.3320878766989106,-0.3194682742714687 l 3.9637982440983643 4.192000626770902" fill="#ff1101" stroke="none" /><path d="M 85.83668400450813 84.49514656593479 l -6.949332953450095 -7.6075679552767985 a31.30380117685031,31.30380117685031 0 0,0 0.40097040776443016,-0.3599951911189889 l 6.817351558089693 7.726062155165066" fill="#ff5507" stroke="none" /><path d="M 86.65592168130627 83.78471172551755 l -12.01736969783242 -14.603115276863749 a39.91211649297223,39.91211649297223 0 0,0 0.5342457286796306,-0.43198955829219865 l 11.76422057058829 14.80781093242008" fill="#ffce13" stroke="none" /><line stroke="#e1ed5e" stroke-width="0.3" x1="56.762969772571076" x2="54.21961505331055" y1="26.818313649435495" y2="22.513508569990535" /><path d="M 56.25429882871897 25.957352633546506 a86.0,86.0 0 0,1 42.265352541879196,-11.944610805530505" fill="none" id="id24" stroke="none" /><text fill="#e1ed5e" style="font-size:6.75px; font-family:Arial;" text-anchor="middle"><textPath startOffset="22.20632615414155" xlink:href="#id24">December</textPath></text></svg>