<?xml version="1.0" encoding="utf-8" ?>
<svg baseProfile="full" height="200mm" version="1.1" viewBox="0,0,200,200" width="200mm" xmlns="http://www.w3.org/2000/svg" xmlns:ev="http://www.w3.org/2001/xml-events" xmlns:xlink="http://www.w3.org/1999/xlink"><defs /><rect fill="#1a1a1a" height="200" width="200" x="0" y="0" /><rect fill="#1a1a1a" height="200" width="180" x="10" y="0" /><text alignment-baseline="middle" fill="#e1ed5e" style="dominant-baseline: central; font-size:9.0px; font-family:Arial;" text-anchor="middle" x="100.0" y="100.0">2024</text><line stroke="#e1ed5e" stroke-width="0.3" x1="100.0" x2="100.0" y1="15.0" y2="10.0" /><path d="M 100.0 14.0 a86.0,86.0 0 0,1 42.35913384403234,11.155469271406648" fill="none" id="id25" stroke="none" /><text fill="#e1ed5e" style="font-size:6.75px; font-family:Arial;" text-anchor="middle"><textPath startOffset="22.145653131862478" xlink:href="#id25">January</textPath></text><path d="M 100.36049292484886 79.00309439819443 l 0.3374194931974112 -19.652993882877382 a40.65589022341154,40.65589022341154 0 0,0 0.6977067400532871,0.01797045068758304 l -0.6747395473214398 19.644305714839753" fill="red" stroke="none" /><path d="M 101.08105385017728 79.02784411241856 l 1.1463785927575334 -22.239438441993144 a43.268965088057755,43.268965088057755 0 0,0 0.7414562602057567,0.044604167415662525 l -1.5279792050957526 22.21648229675279" fill="red" stroke="none" /><path d="M 102.15924093988457 79.11130261209362 l 1.6261829519250142 -15.73184490562219 a36.815669923455104,36.815669923455104 0 0,0 0.6280825139090148,0.0703779557382615 l -1.8960013674348257 15.701611189376957" fill="red" stroke="none" /><path d="M 102.87502721639298 79.19773525538626 l 2.2744902289125495 -16.457078260371034 a37.613510486029,37.613510486029 0 0,0 0.6388473752537495,0.09388856424470818 l -2.556662709773981 16.415608622827442" fill="red" stroke="none" /><path d="M 103.58742460773223 79.30868818359171 l 3.805072267827949 -21.946645682225483 a43.27406185823636,43.27406185823636 0 0,0 0.7308479371085516,0.13318483996689728 l -4.181254938487554 21.87809266832722" fill="red" stroke="none" /><path d="M 104.29559338865022 79.4440306129975 l 3.219329243896677 -15.40565584235065 a36.738434252287014,36.738434252287014 0 0,0 0.6162217761058288,0.13430266799991983 l -3.48331343662164 15.348121716217012" fill="red" stroke="none" /><path d="M 105.69591212413111 79.78721728523813 l 2.8097091942957033 -9.97066671646222 a31.358989358391934,31.358989358391934 0 0,0 0.5168857232494848,0.15045790086468033 l -2.980454929926793 9.920965121295025" fill="red" stroke="none" /><line stroke="#e1ed5e" stroke-width="0.3" x1="143.13028292997686" x2="145.6673583964461" y1="26.7553504044142" y2="22.446841604673864" /><path d="M 143.63769802327073 25.89364864446614 a86.0,86.0 0 0,1 29.32050498858742,28.57503671076993" fill="none" id="id26" stroke="none" /><text fill="#e1ed5e" style="font-size:6.75px; font-family:Arial;" text-anchor="middle"><textPath startOffset="20.669276256404974" xlink:href="#id26">February</textPath></text><path d="M 110.96478420261332 82.08984904055464 l 8.214478694675476 -13.417733605712053 a36.732553363619395,36.732553363619395 0 0,0 0.534958688559091,0.3338537870344109 l -8.44360151202428 13.274744021836097" fill="red" stroke="none" /><path d="M 112.16784306229584 82.88440491214696 l 10.480822242177045 -14.742589032950567 a39.088437363868316,39.088437363868316 0 0,0 0.5435507611932032,0.39348883366445936 l -10.732354013744215 14.560499427913033" fill="red" stroke="none" /><path d="M 115.16444852881244 85.47280134310134 l 14.212529975634704 -13.615282216223223 a40.681766133549075,40.681766133549075 0 0,0 0.4787743415815448,0.5084417593471802 l -14.44416015095251 13.369298996931548" fill="red" stroke="none" /><path d="M 115.8921839302757 86.27271002978787 l 11.927297168406565 -10.302515218169034 a36.76078162922397,36.76078162922397 0 0,0 0.4084042954202776,0.48109923308709635 l -12.102396027333954 10.096249202632386" fill="red" stroke="none" /><path d="M 116.35404254752997 86.82634096563983 l 12.07974371803739 -9.730586459059543 a36.51143194971685,36.51143194971685 0 0,0 0.38899204726180775,0.4914787443476842 l -12.245002195940756 9.52178777079718" fill="red" stroke="none" /><path d="M 117.21940702142032 87.97951657250589 l 12.917930779919088 -9.017718941446187 a36.754116622067336,36.754116622067336 0 0,0 0.35670791342208485,0.5204475060279705 l -13.070828430156498 8.794636700348168" fill="red" stroke="none" /><line stroke="#e1ed5e" stroke-width="0.3" x1="172.87174338648825" x2="177.1583165268699" y1="56.24261187166439" y2="53.66864786411523" /><path d="M 173.72905801456457 55.72781907015455 a86.0,86.0 0 0,1 12.242430191666344,42.057860355516425" fill="none" id="id27" stroke="none" /><text fill="#e1ed5e" style="font-size:6.75px; font-family:Arial;" text-anchor="middle"><textPath startOffset="22.145653131862474" xlink:href="#id27">March</textPath></text><path d="M 118.18653347947321 89.5 l 9.560577690864527 -5.519802103428966 a32.03960420685793,32.03960420685793 0 0,0 0.2709126050027966,0.4786766146954996 l -9.6539236608887 5.354868718634349" fill="red" stroke="none" /><path d="M 118.8641267826498 90.77261029715802 l 16.409641981034014 -8.02677819056977 a39.2676084386085,39.2676084386085 0 0,0 0.2909930649217084,0.6080635875256345 l -16.545014303915632 7.7439021009790325" fill="red" stroke="none" /><path d="M 119.31412917781788 91.75594674310238 l 18.054846513084556 -7.706540368898879 a40.630798431763026,40.630798431763026 0 0,0 0.2683067456349105,0.6438385158826213 l -18.18447910325595 7.395469343574979" fill="red" stroke="none" /><path d="M 119.58574465831526 92.42381321644754 l 14.661335823383082 -5.671319657850255 a36.720007467795135,36.720007467795135 0 0,0 0.22236467809562577,0.5898487271616526 l -14.756531185293149 5.418802650494444" fill="red" stroke="none" /><path d="M 119.83427380445688 93.10060997987247 l 18.55700038776313 -6.455088022938656 a40.64765697927687,40.64765697927687 0 0,0 0.22359033143010873,0.6610050854748432 l -18.665076140765603 6.135581262989651" fill="red" stroke="none" /><path d="M 120.16314734710363 94.1308016681162 l 32.301565325302434 -9.402514898138346 a54.64221171199203,54.64221171199203 0 0,0 0.2544284694085007,0.902876880213105 l -32.45821228678552 8.846630094022228" fill="red" stroke="none" /><path d="M 120.43855184770803 95.1765574152323 l 18.555722281452372 -4.3790999338104815 a40.0654490011824,40.0654490011824 0 0,0 0.15222798367188567,0.6707445840063174 l -18.628161126681924 4.059921015865138" fill="red" stroke="none" /><path d="M 120.592083275326 95.88100663000786 l 19.262164548390082 -3.852972378058735 a40.64373638683179,40.64373638683179 0 0,0 0.1309767779430247,0.6853258477161561 l -19.325467618615264 3.5217439653092644" fill="red" stroke="none" /><path d="M 120.77682067341334 96.94652285012252 l 31.85955876552626 -4.682257994371533 a53.20178604766942,53.20178604766942 0 0,0 0.12503808907185107,0.9047133248695385 l -31.93524137115332 4.134656361301909" fill="red" stroke="none" /><path d="M 120.86939407059847 97.66154086499901 l 18.795312153195663 -2.1060539300351135 a39.91293795506877,39.91293795506877 0 0,0 0.0704512913820049,0.6815523358614097 l -18.828695837059332 1.7830970718907726" fill="red" stroke="none" /><path d="M 120.96210409425399 98.7389718711861 l 15.06782497673098 -0.906442933889972 a36.095065032049284,36.095065032049284 0 0,0 0.03189843025983231,0.6188210253066183 l -15.081164996447386 0.6476501152066231" fill="red" stroke="none" /><path d="M 120.99303781780057 99.45929381324524 l 22.930997385846215 -0.5906211508117669 a43.93860227767752,43.93860227767752 0 0,0 0.012948430745448379,0.7541811761427365 l -22.93775724819033 0.19689305869996399" fill="red" stroke="none" /><line stroke="#e1ed5e" stroke-width="0.3" x1="184.99686870605535" x2="189.99668451229388" y1="99.2704041080226" y2="99.22748670261217" /><path d="M 185.99683186730306 99.26182062694052 a86.0,86.0 0 0,1 -10.086455211305974,41.156179273409016" fill="none" id="id28" stroke="none" /><text fill="#e1ed5e" style="font-size:6.75px; font-family:Arial;" text-anchor="middle"><textPath startOffset="21.40746469413373" xlink:href="#id28">April</textPath></text><path d="M 120.99303781780057 100.54070618675476 l 15.730864874473736 0.4051712779471451 a36.73608189681996,36.73608189681996 0 0,0 -0.02164859580869779,0.6302752462801912 l -15.721591591668194 -0.6751527887914469" fill="red" stroke="none" /><path d="M 120.93736805541906 101.62068470465957 l 18.781479749706428 1.4538053150068397 a39.83766258012322,39.83766258012322 0 0,0 -0.05863037288292291,0.6813738057395536 l -18.753755754125763 -1.7760001681220507" fill="red" stroke="none" /><path d="M 120.86939407059847 102.33845913500097 l 23.423229187931522 2.6246216866884495 a44.56981766133549,44.56981766133549 0 0,0 -0.09172450167191032,0.7596104552077481 l -23.37472259999995 -3.0263258188196063" fill="red" stroke="none" /><path d="M 120.77682067341334 103.0534771498775 l 19.953583277012683 2.932489602343292 a41.16791959673907,41.16791959673907 0 0,0 -0.10875879766661233,0.6983094993168708 l -19.9003029872078 -3.2745872835916137" fill="red" stroke="none" /><path d="M 120.592083275326 104.11899336999214 l 38.49434249222215 7.6999465953820225 a60.256892152591945,60.256892152591945 0 0,0 -0.21159434123531037,1.0125555208247157 l -38.356490440162474 -8.359618567492147" fill="red" stroke="none" /><path d="M 120.35273937422433 105.17358676015961 l 16.539181406593986 4.204195237590404 a38.06516273570229,38.06516273570229 0 0,0 -0.16641820733415527,0.631917039708938 l -16.4645737184551 -4.487492781672145" fill="red" stroke="none" /><path d="M 120.16314734710363 105.8691983318838 l 17.407136591413895 5.06696376743364 a39.12960358454166,39.12960358454166 0 0,0 -0.19326983240894405,0.6433324144830415 l -17.31759043900132 -5.365033785507404" fill="red" stroke="none" /><path d="M 119.94978838288452 106.5578916946017 l 13.950574528645015 4.585830941184906 a35.684971062293855,35.684971062293855 0 0,0 -0.19629211373634425,0.5803027554386376 l -13.869796993336305 -4.824635371097704" fill="red" stroke="none" /><path d="M 119.58574465831526 107.57618678355244 l 16.907193879728325 6.54006580057063 a39.12803534756363,39.12803534756363 0 0,0 -0.2477015650036871,0.6243697544476323 l -16.792433639758514 -6.829336572231826" fill="red" stroke="none" /><path d="M 119.31412917781788 108.2440532568976 l 18.056649437583076 7.707309930158775 a40.63275872798556,40.63275872798556 0 0,0 -0.27933303050002534,0.6391686389285824 l -17.921682525066085 -8.016140638863202" fill="red" stroke="none" /><path d="M 119.0197475246899 108.90220220490707 l 17.564829753991738 8.22122722511544 a40.39360258883565,40.39360258883565 0 0,0 -0.2993372575498583,0.6254997408780962 l -17.42111323848197 -8.52153946805864" fill="red" stroke="none" /><line stroke="#e1ed5e" stroke-width="0.3" x1="174.33088141563837" x2="178.70328620479359" y1="141.23008692659167" y2="143.65538615756765" /><path d="M 175.20536237346943 141.71514677278685 a86.0,86.0 0 0,1 -30.301960400862466,31.631185727798858" fill="none" id="id29" stroke="none" /><text fill="#e1ed5e" style="font-size:6.75px; font-family:Arial;" text-anchor="middle"><textPath startOffset="22.145653131862474" xlink:href="#id29">May</textPath></text><path d="M 117.423217284605 111.72311816256416 l 14.77530895610081 9.941487266752477 a38.80850706328957,38.80850706328957 0 0,0 -0.37664628754159746,0.5495381897338653 l -14.602472931743893 -10.193660191556384" fill="red" stroke="none" /><path d="M 117.01052211995028 112.31430620078461 l 14.533945077220572 10.521455410023789 a38.94259132491132,38.94259132491132 0 0,0 -0.3966543636462318,0.5381378239623722 l -14.351188693990512 -10.76939954325504" fill="red" stroke="none" /><path d="M 116.1254893667686 113.45245675266167 l 18.399856726333255 15.349814894688715 a44.96187690584355,44.96187690584355 0 0,0 -0.49951668176462943,0.5884293951019026 l -18.13364548106151 -15.663411072240175" fill="red" stroke="none" /><path d="M 115.6541949942343 113.99807769240083 l 17.586200689210056 15.725689098186455 a44.59177297902794,44.59177297902794 0 0,0 -0.5151460308690055,0.5662357282271187 l -17.313656957499173 -16.025262401971247" fill="red" stroke="none" /><path d="M 115.16444852881244 114.52719865689866 l 14.211680638172764 13.61446857014747 a40.68058995581555,40.68058995581555 0 0,0 -0.48741777951690934,0.500133580947081 l -13.975876057505047 -13.856424843162289" fill="red" stroke="none" /><path d="M 114.13192950727249 115.5334660781643 l 13.243769969691158 14.557223163711743 a40.68019789657104,40.68019789657104 0 0,0 -0.5205805662168903,0.4655063523702124 l -12.99192437665089 -14.782425045965343" fill="red" stroke="none" /><path d="M 113.59037401385872 116.0094264158162 l 15.599793991425903 18.376518096775666 a45.10497853008899,45.10497853008899 0 0,0 -0.5945817006764436,0.4960212017352731 l -15.282037956587565 -18.641601482422807" fill="red" stroke="none" /><path d="M 112.45986205192187 116.90419585922612 l 14.45472714004057 19.61061347619238 a45.36216939448627,45.36216939448627 0 0,0 -0.6307911844677523,0.4566441723256291 l -14.11595494519885 -19.85585841989109" fill="red" stroke="none" /><path d="M 111.8722381534696 117.32195027204791 l 10.860781682494434 15.846205053152298 a40.210902980894886,40.210902980894886 0 0,0 -0.572725254312235,0.38535511101726544 l -10.587160140085194 -16.030309838226685" fill="red" stroke="none" /><path d="M 110.96478420261333 117.91015095944535 l 10.270759558112859 16.77651386063075 a40.670788474702846,40.670788474702846 0 0,0 -0.5985718325005708,0.3594251870509417 l -9.981254969054852 -16.950353048217615" fill="red" stroke="none" /><line stroke="#e1ed5e" stroke-width="0.3" x1="143.1302829299769" x2="145.66735839644613" y1="173.24464959558577" y2="177.55315839532614" /><path d="M 143.63769802327073 174.10635135553383 a86.0,86.0 0 0,1 -40.68552437913181,11.842963189579606" fill="none" id="id30" stroke="none" /><text fill="#e1ed5e" style="font-size:6.75px; font-family:Arial;" text-anchor="middle"><textPath startOffset="21.407464694133747" xlink:href="#id30">June</textPath></text><path d="M 110.02825361518725 118.45085714620011 l 6.551659226022704 12.05431504712415 a34.719721202315014,34.719721202315014 0 0,0 -0.5261049333023505,0.2801212440052883 l -6.343765476933799 -12.165006758852009" fill="red" stroke="none" /><path d="M 109.3889696526874 118.78422872680471 l 8.778385715475471 17.562651838416446 a40.63432696496359,40.63432696496359 0 0,0 -0.6266195388446372,0.30651101675443587 l -8.475605927368765 -17.710756605268106" fill="red" stroke="none" /><path d="M 108.07796709384702 119.3841803445677 l 9.36343412077317 22.468833251350574 a45.34178231377186,45.34178231377186 0 0,0 -0.7210326631122992,0.29323770702942503 l -8.97634699647043 -22.62625821495929" fill="red" stroke="none" /><path d="M 107.06938296918513 119.77432235084164 l 7.962195577167218 22.27167811528237 a44.652150102682185,44.652150102682185 0 0,0 -0.723990446463932,0.25184145939734537 l -7.578699358658264 -22.405078007248306" fill="red" stroke="none" /><path d="M 106.0420521117495 120.11202640906438 l 5.489735829034409 18.273545135041445 a40.08034725247371,40.08034725247371 0 0,0 -0.6606386143672452,0.19230227239197442 l -5.175237202285556 -18.36509110173594" fill="red" stroke="none" /><path d="M 104.9986988182912 120.39639698878246 l 4.515720426027906 18.425680331567726 a39.970962723255965,39.970962723255965 0 0,0 -0.667834552554876,0.15760713598374174 l -4.198753719733151 -18.50048361119769" fill="red" stroke="none" /><path d="M 104.29559338865022 120.5559693870025 l 3.5747602582441367 17.10652191347882 a38.47604082394673,38.47604082394673 0 0,0 -0.6476864597199752,0.12955543146122123 l -3.280577312993203 -17.165366741602902" fill="red" stroke="none" /><path d="M 103.58742460773223 120.69131181640829 l 1.1991941801253148 6.9166333575105545 a28.019820772916795,28.019820772916795 0 0,0 -0.47463240996892175,0.078100582441569 l -1.0802842671033208 -6.936199938447794" fill="red" stroke="none" /><path d="M 102.875027216393 120.80226474461374 l 3.4001683193138357 24.60192416660115 a45.83577696185201,45.83577696185201 0 0,0 -0.7803479435585691,0.10103166440375486 l -2.9773425538644913 -24.6566674272053" fill="red" stroke="none" /><path d="M 101.44090949804482 120.95050786540614 l 1.348683757878092 19.609565844149664 a40.65589022341154,40.65589022341154 0 0,0 -0.6966786531417684,0.041910457767300534 l -1.0118607526038585 -19.62982827974166" fill="red" stroke="none" /><path d="M 101.08105385017728 120.97215588758144 l 1.0120020316557825 19.63256905560598 a40.65863463812309,40.65863463812309 0 0,0 -0.6973425145616547,0.029946888055443315 l -0.6748337564932982 -19.647048512087256" fill="red" stroke="none" /><line stroke="#e1ed5e" stroke-width="0.3" x1="101.45913802915013" x2="101.54496967792366" y1="184.9874750549273" y2="189.98673829345242" /><path d="M 101.47630435890484 185.9873277026323 a86.0,86.0 0 0,1 -42.54439059252881,-10.42667462771756" fill="none" id="id31" stroke="none" /><text fill="#e1ed5e" style="font-size:6.75px; font-family:Arial;" text-anchor="middle"><textPath startOffset="22.145653131862474" xlink:href="#id31">July</textPath></text><path d="M 99.27912038922189 120.98762331915562 l -0.5411374831694458 15.754627389693367 a36.76391810318004,36.76391810318004 0 0,0 -0.6305436304831393,-0.027078256555208513 l 0.8115068742534238 -15.74301656471233" fill="red" stroke="none" /><path d="M 97.84075906011543 120.88869738790638 l -1.2160494528450665 11.76417534514127 a32.82685916983011,32.82685916983011 0 0,0 -0.5600326239884151,-0.06275282363417141 l 1.417817978434281 -11.741566761000128" fill="red" stroke="none" /><path d="M 96.41257539226777 120.69131181640829 l -2.9465148707306903 16.99471476851825 a38.24825440288754,38.24825440288754 0 0,0 -0.6459679685241457,-0.1177168821902997 l 3.237817572805893 -16.941629712396583" fill="red" stroke="none" /><path d="M 95.35216902796893 120.47920084513623 l -4.17358965883535 18.389606115801165 a39.85726554234863,39.85726554234863 0 0,0 -0.6659349008886306,-0.1571588233629906 l 4.488656713463868 -18.315251148791944" fill="red" stroke="none" /><path d="M 94.30408787586889 120.21278271476187 l -5.337830698541642 18.94207805993255 a40.67980583732653,40.67980583732653 0 0,0 -0.6705194042309927,-0.19517842631714136 l 5.662210115154241 -18.84765593931289" fill="red" stroke="none" /><path d="M 93.95794788825049 120.11202640906438 l -5.654877983958826 18.823249659209786 a40.65432198643351,40.65432198643351 0 0,0 -0.6666522185848129,-0.206530561424757 l 5.977170835415273 -18.72340250997838" fill="red" stroke="none" /><path d="M 91.92203290615298 119.3841803445677 l -5.7849786499386004 13.881842812320725 a36.03900056008464,36.03900056008464 0 0,0 -0.5690127862684405,-0.24287772286623416 l 6.022426511377472 -13.780490439795088" fill="red" stroke="none" /><path d="M 90.93487009805054 118.94263497670748 l -6.8574895481440725 14.32951571263695 a36.88584852822204,36.88584852822204 0 0,0 -0.5688144758636424,-0.27823566380178993 l 7.102464273269784 -14.209686298737939" fill="red" stroke="none" /><path d="M 90.6110303473126 118.78422872680471 l -8.787851227229382 17.58158920261921 a40.65549816416703,40.65549816416703 0 0,0 -0.6215892261041648,-0.3173878878473709 l 9.08836767504713 -17.428143363099004" fill="red" stroke="none" /><line stroke="#e1ed5e" stroke-width="0.3" x1="58.13341422392154" x2="55.67067388415222" y1="173.97424548756322" y2="178.32567169271397" /><path d="M 57.64086615596768 174.84453072859336 a86.0,86.0 0 0,1 -31.369924170532247,-30.572349798747897" fill="none" id="id32" stroke="none" /><text fill="#e1ed5e" style="font-size:6.75px; font-family:Arial;" text-anchor="middle"><textPath startOffset="22.145653131862474" xlink:href="#id32">August</textPath></text><path d="M 89.65649057296885 118.27599006163327 l -7.891166268458536 13.94293467941841 a37.02110896757732,37.02110896757732 0 0,0 -0.5503937651351686,-0.3177699884610837 l 8.129352501454104 -13.805417793681157" fill="red" stroke="none" /><path d="M 89.03521579738668 117.91015095944536 l -10.251107695206928 16.744414019468753 a40.633150787230065,40.633150787230065 0 0,0 -0.5917654795729278,-0.36930542603913835 l 10.53703730356957 -16.565972796588067" fill="red" stroke="none" /><path d="M 88.4268655584334 117.5232005979908 l -10.853135530543256 16.43303047926459 a40.69352791088431,40.69352791088431 0 0,0 -0.5795992975511238,-0.3899802740871955 l 11.133631116191385 -16.244300531120274" fill="red" stroke="none" /><path d="M 84.83555147118756 114.52719865689866 l -13.30798557866745 12.74874914555066 a39.42913684734582,39.42913684734582 0 0,0 -0.4640324358398319,-0.4927863663144425 l 13.524873848243535 -12.518421319291727" fill="red" stroke="none" /><path d="M 84.3458050057657 113.99807769240083 l -6.094994771387573 5.450181908177594 a29.17639554421557,29.17639554421557 0 0,0 -0.33065044443291075,-0.376219509099746 l 6.187656279779077 -5.344750121266547" fill="red" stroke="none" /><path d="M 83.8745106332314 113.45245675266167 l -13.65914950637236 11.394948322702342 a38.78811998257515,38.78811998257515 0 0,0 -0.42214991417958136,-0.5149542546831883 l 13.852746239790573 -11.15879178632066" fill="red" stroke="none" /><path d="M 83.20337586046588 112.60449989151573 l -12.556858928732925 9.422901035956768 a36.69922832783621,36.69922832783621 0 0,0 -0.3738043248645736,-0.5071373578780415 l 12.71676527318133 -9.205957368809846" fill="red" stroke="none" /><path d="M 82.37810715431573 111.42229804090323 l -16.489064710169185 10.688012529903592 a40.65000933474391,40.65000933474391 0 0,0 -0.37452655435787496,-0.5888179506577825 l 16.67010895615295 -10.403380904567136" fill="red" stroke="none" /><line stroke="#e1ed5e" stroke-width="0.3" x1="26.387840678322732" x2="22.057713659400548" y1="142.50000000000003" y2="145.00000000000006" /><path d="M 25.521815274538298 143.00000000000003 a86.0,86.0 0 0,1 -11.493303480769221,-40.785679425670985" fill="none" id="id33" stroke="none" /><text fill="#e1ed5e" style="font-size:6.75px; font-family:Arial;" text-anchor="middle"><textPath startOffset="21.40746469413373" xlink:href="#id33">September</textPath></text><path d="M 81.81346652052679 110.50000000000001 l -17.036421131359408 9.835982326218195 a40.67196465243637,40.67196465243637 0 0,0 -0.34390399530012256,-0.6076454074509403 l 17.20275849168091 -9.542080148668132" fill="red" stroke="none" /><path d="M 81.4637452351635 109.86951160357371 l -16.69924028272796 8.891404862103114 a39.91881884373639,39.91881884373639 0 0,0 -0.3168640474905525,-0.607628591153862 l 16.84941239919346 -8.60343002784475" fill="red" stroke="none" /><path d="M 80.9802524753101 108.90220220490708 l -15.893426089817565 7.438925916163465 a38.548179724936205,38.548179724936205 0 0,0 -0.27537265763332297,-0.6017389537810682 l 16.018783212305944 -7.164997980167708" fill="red" stroke="none" /><path d="M 80.68587082218212 108.24405325689762 l -17.988859476438694 7.678374426786512 a40.55905159001804,40.55905159001804 0 0,0 -0.2678329631260412,-0.6427016103358054 l 18.118018284101222 -7.3684403070094255" fill="red" stroke="none" /><path d="M 80.16572619554312 106.89939002012753 l -16.82549753799699 5.852781450019691 a38.81438795195719,38.81438795195719 0 0,0 -0.21350607910461522,-0.6311927853287455 l 16.923489038673974 -5.563086990216784" fill="red" stroke="none" /><path d="M 79.56144815229197 104.8234425847677 l -10.654401232653626 2.51440968047577 a31.947078225154023,31.947078225154023 0 0,0 -0.12138237368261312,-0.5348331349965859 l 10.695994467893906 -2.3311422115401577" fill="red" stroke="none" /><path d="M 79.34024301695615 103.76489593502545 l -19.348610043513805 3.525961286040516 a40.667259941502266,40.667259941502266 0 0,0 -0.1192619345518174,-0.6878711458690903 l 19.406286795557858 -3.193297107250833" fill="red" stroke="none" /><path d="M 79.17382384314188 102.69636545807758 l -18.00170134830495 2.3306806461547196 a39.15195096147862,39.15195096147862 0 0,0 -0.0805745542580549,-0.6672728957094379 l 18.03905798882267 -2.021314073521882" fill="red" stroke="none" /><path d="M 79.0935383218832 101.97986365728391 l -39.23659779677086 3.7157466054911192 a60.41214761341714,60.41214761341714 0 0,0 -0.08891050608476418,-1.0332748526463842 l 39.294601925553366 -3.041650705469073" fill="red" stroke="none" /><path d="M 79.03789590574601 101.26102812881392 l -13.050015367359393 0.7850565184534617 a34.073607567365734,34.073607567365734 0 0,0 -0.030111999901466926,-0.5841647536030352 l 13.061568956717434 -0.5609199714736957" fill="red" stroke="none" /><line stroke="#e1ed5e" stroke-width="0.3" x1="15.003131293944662" x2="10.003315487706104" y1="100.72959589197737" y2="100.7725132973878" /><path d="M 14.003168132696942 100.73817937305945 a86.0,86.0 0 0,1 10.791469493833604,-42.45332614584628" fill="none" id="id34" stroke="none" /><text fill="#e1ed5e" style="font-size:6.75px; font-family:Arial;" text-anchor="middle"><textPath startOffset="22.145653131862435" xlink:href="#id34">October</textPath></text><path d="M 79.13060592940154 97.66154086499901 l -20.030800022967288 -2.2444929228241217 a41.15615781940382,41.15615781940382 0 0,0 0.08469920373916531,-0.701430910338171 l 19.989318732968453 2.588017510085729" fill="red" stroke="none" /><path d="M 79.22317932658666 96.9465228501225 l -21.682808491314933 -3.1866261597050545 a42.91571970875599,42.91571970875599 0 0,0 0.11337619491686315,-0.7279565019607749 l 21.6249108042598 3.5583708435972796" fill="red" stroke="none" /><path d="M 79.407916724674 95.88100663000787 l -23.860879467914316 -4.7728441564863715 a45.33354906963719,45.33354906963719 0 0,0 0.15919046118337823,-0.7617839843581244 l 23.77543129590657 5.181744592129905" fill="red" stroke="none" /><path d="M 79.73907114497095 94.47779374421319 l -18.980010464100932 -5.173086252348277 a40.67235671168088,40.67235671168088 0 0,0 0.18938116048326903,-0.6720469283401602 l 18.888410811543082 5.498141104591451" fill="red" stroke="none" /><path d="M 79.94057633289273 93.78553927170692 l -15.338362346139382 -4.751863863003912 a37.057570477316574,37.057570477316574 0 0,0 0.19346748913737744,-0.6060341541940089 l 15.254530141224746 5.014467050889312" fill="red" stroke="none" /><path d="M 80.05021161711548 93.44210830539832 l -21.075215177898826 -6.927841835939442 a43.18467235048852,43.18467235048852 0 0,0 0.23754567719534417,-0.7022615855273238 l 20.953184079131116 7.288605095940928" fill="red" stroke="none" /><path d="M 80.5471966667186 92.08871423366112 l -13.296158743570201 -5.407432009299256 a35.353681000684546,35.353681000684546 0 0,0 0.23345913596650827,-0.560216938505327 l 13.201373763067215 5.634881457245846" fill="red" stroke="none" /><path d="M 80.9802524753101 91.09779779509293 l -8.864795512238786 -4.149171909493529 a30.787759039143694,30.787759039143694 0 0,0 0.22815304321062782,-0.4767521109029587 l 8.792263211068253 4.300736522461575" fill="red" stroke="none" /><path d="M 81.29705330413844 90.45014215332179 l -9.089359738128795 -4.641091846540804 a31.205694193789284,31.205694193789284 0 0,0 0.24770178210191626,-0.4750008278846312 l 9.00834988705194 4.796438917529922" fill="red" stroke="none" /><path d="M 81.46374523516351 90.13048839642627 l -19.98337229564036 -10.640020179507715 a43.63946107411787,43.63946107411787 0 0,0 0.35774934115187035,-0.6582184935713962 l 19.79777760487314 10.981493506553731" fill="red" stroke="none" /><line stroke="#e1ed5e" stroke-width="0.3" x1="26.387840678322718" x2="22.05771365940052" y1="57.49999999999999" y2="54.99999999999999" /><path d="M 25.521815274538284 56.99999999999999 a86.0,86.0 0 0,1 29.574782752854787,-30.34633250058573" fill="none" id="id35" stroke="none" /><text fill="#e1ed5e" style="font-size:6.75px; font-family:Arial;" text-anchor="middle"><textPath startOffset="21.40746469413373" xlink:href="#id35">November</textPath></text><path d="M 81.99639281039701 89.18935116829357 l -13.55564399695106 -8.139774734881827 a36.81174933101002,36.81174933101002 0 0,0 0.329959548025421,-0.5389641242767983 l 13.413916484470246 8.371275975283169" fill="red" stroke="none" /><path d="M 82.37810715431573 88.57770195909679 l -20.65607376082767 -13.389017452165337 a45.615831725682995,45.615831725682995 0 0,0 0.43155956962846087,-0.6534361928278514 l 20.423189752278482 13.741633523332249" fill="red" stroke="none" /><path d="M 82.78059297857968 87.97951657250589 l -20.065018779798663 -14.006941436188539 a45.4703777459705,45.4703777459705 0 0,0 0.4522893035843804,-0.6362015472327031 l 19.82161437768431 14.349320210130761" fill="red" stroke="none" /><path d="M 83.64595745247003 86.82634096563983 l -16.37775585833697 -13.192760798969084 a42.0304499346568,42.0304499346568 0 0,0 0.4574377629236825,-0.5579996924270497 l 16.148871276174653 13.471962773094626" fill="red" stroke="none" /><path d="M 84.10781606972428 86.27271002978789 l -9.48605833503221 -8.193831257594532 a33.53491816541166,33.53491816541166 0 0,0 0.38004473782961856,-0.4324211477998227 l 9.344002533243998 8.355464683205655" fill="red" stroke="none" /><path d="M 84.83555147118756 85.47280134310135 l -14.240841224366081 -13.642403752081508 a40.72097205799988,40.72097205799988 0 0,0 0.48790162094105427,-0.5006300448723612 l 14.004552802274224 13.8848564890216" fill="red" stroke="none" /><path d="M 85.34317274990677 84.96080404539775 l -10.98482182701617 -11.271394904503444 a36.738826311531525,36.738826311531525 0 0,0 0.4554346345670236,-0.4362960775669798 l 10.789714706583846 11.458303112375992" fill="red" stroke="none" /><path d="M 85.86807049272753 84.46653392183569 l -10.762129625947198 -11.829465706535572 a36.99248864272823,36.99248864272823 0 0,0 0.47338930681616914,-0.42330763721833886 l 10.557475292307638 12.012468873637312" fill="red" stroke="none" /><path d="M 86.40962598614128 83.9905735841838 l -15.449081149975301 -18.198978748508914 a44.8720953388512,44.8720953388512 0 0,0 0.591511793796561,-0.4934601762310534 l 15.13439502201683 18.461501108651852" fill="red" stroke="none" /><path d="M 86.96720088162412 83.53348406188908 l -12.10373872942202 -15.292678486676104 a40.5029871180534,40.5029871180534 0 0,0 0.5488927307792757,-0.4268223074019669 l 11.839436054007498 15.498201845698876" fill="red" stroke="none" /><path d="M 88.12776184653039 82.6780497279521 l -12.950928034860208 -18.895791046034457 a43.90802165660588,43.90802165660588 0 0,0 0.6253834409432666,-0.42078588904282993 l 12.624648305819953 19.115326609134396" fill="red" stroke="none" /><path d="M 88.72937992617638 82.28071324371311 l -10.550083139239076 -16.586483017116215 a40.65745846038956,40.65745846038956 0 0,0 0.5921194871157087,-0.36952635292812397 l 10.263799523333669 16.765145166885873" fill="red" stroke="none" /><line stroke="#e1ed5e" stroke-width="0.3" x1="56.869717070023135" x2="54.33264160355391" y1="26.7553504044142" y2="22.446841604673864" /><path d="M 56.362301976729285 25.89364864446614 a86.0,86.0 0 0,1 42.16139366436587,-11.88097634709845" fill="none" id="id36" stroke="none" /><text fill="#e1ed5e" style="font-size:6.75px; font-family:Arial;" text-anchor="middle"><textPath startOffset="22.145653131862474" xlink:href="#id36">December</textPath></text><path d="M 89.34428304082924 81.90426304109057 l -19.931276863943467 -33.847665508298775 a60.28002364801792,60.28002364801792 0 0,0 0.8961846390697342,-0.5174124426105159 l 19.347299757013335 34.184824848185464" fill="red" stroke="none" /><path d="M 90.28995756902619 81.37971332152246 l -12.923740773163631 -24.782976991636236 a48.95029560022404,48.95029560022404 0 0,0 0.7484098764907304,-0.3821434155676664 l 12.49640367495932 25.001178358876736" fill="red" stroke="none" /><path d="M 90.61103034731259 81.2157712731953 l -11.452743360463687 -22.91315860955701 a46.615974858423044,46.615974858423044 0 0,0 0.7188621751694342,-0.3516315125183497 l 11.057720936032199 23.10638387217257" fill="red" stroke="none" /><path d="M 91.5904679813234 80.7573450057729 l -4.750713100126985 -10.870561282039661 a32.863320679569355,32.863320679569355 0 0,0 0.5188725928938775,-0.22147585583482904 l 4.563405432062677 10.950511787533895" fill="red" stroke="none" /><path d="M 92.93061703081487 80.22567764915836 l -8.466233916067923 -23.68156305630914 a46.14942435745846,46.14942435745846 0 0,0 0.7482672674838233,-0.26028619795023167 l 8.058460876539094 23.82340768682796" fill="red" stroke="none" /><path d="M 93.61358852112211 79.99465700312896 l -19.15923443663367 -60.01602899061309 a84.0,84.0 0 0,0 1.3774374685135353,-0.4267336487734319 l 18.126156335248517 60.33607922719316" fill="red" stroke="none" /><path d="M 94.6519064749342 79.69241777938228 l -5.7404556793193455 -21.797445228887455 a43.54066214450184,43.54066214450184 0 0,0 0.7244227087024333,-0.18414541971919385 l 5.3654276773915335 21.89277588044191" fill="red" stroke="none" /><path d="M 95.00130118170881 79.60360301121753 l -4.679969164347496 -19.095871233931103 a40.66098699359014,40.66098699359014 0 0,0 0.6793634730119367,-0.16032792981998387 l 4.351473537595654 19.173395307397318" fill="red" stroke="none" /><path d="M 96.05791012581881 79.37332000966035 l -4.427730618155864 -23.167757575060314 a44.587068268093844,44.587068268093844 0 0,0 0.7530230689276923,-0.1372258876768553 l 4.0293728156771325 23.24035163666853" fill="red" stroke="none" /><path d="M 97.84075906011542 79.11130261209362 l -2.020715737014018 -19.548591710067505 a40.65275374945547,40.65275374945547 0 0,0 0.6947757652514769,-0.06579598732495488 l 1.6848404083775252 19.580399452897645" fill="red" stroke="none" /><path d="M 98.1996594967304 79.07731436759882 l -1.6860504200419295 -19.594461622592707 a40.66686788225776,40.66686788225776 0 0,0 0.6960444382030163,-0.05387824160959736 l 1.3494369870636962 19.620517631197355" fill="red" stroke="none" /><path d="M 98.9189461498227 79.02784411241856 l -1.239299843480363 -24.042085881903986 a45.07400584977285,45.07400584977285 0 0,0 0.7730712273150535,-0.03319900482167445 l 0.8264028555644896 24.05981745515149" fill="red" stroke="none" /><path d="M 99.63950707515114 79.00309439819443 l -0.707399782407375 -41.2024908954119 a62.20856307175306,62.20856307175306 0 0,0 1.067892707256217,-0.009166574535601093 l 1.0093186972656842e-14 41.20856307175306" fill="red" stroke="none" /></svg>