<?xml version="1.0" encoding="utf-8" ?>
<svg baseProfile="full" height="200mm" version="1.1" viewBox="0,0,200,200" width="200mm" xmlns="http://www.w3.org/2000/svg" xmlns:ev="http://www.w3.org/2001/xml-events" xmlns:xlink="http://www.w3.org/1999/xlink"><defs /><rect fill="#1a1a1a" height="200" width="200" x="0" y="0" /><text alignment-baseline="middle" fill="#e1ed5e" style="dominant-baseline: central; font-size:9.0px; font-family:Arial;" text-anchor="middle" x="100.0" y="100.0">2024</text><line stroke="#e1ed5e" stroke-width="0.3" x1="100.0" x2="100.0" y1="15.0" y2="10.0" /><path d="M 100.0 14.0 a86.0,86.0 0 0,1 42.35913384403234,11.155469271406648" fill="none" id="id25" stroke="none" /><text fill="#e1ed5e" style="font-size:6.75px; font-family:Arial;" text-anchor="middle"><textPath startOffset="22.145653131862478" xlink:href="#id25">January</textPath></text><path d="M 100.36049292484886 79.00309439819443 l 0.5414954395475083 -31.53939465734112 a52.54404274443224,52.54404274443224 0 0,0 0.9017225442852973,0.02322517411072057 l -1.0828312979035468 31.52545176588035" fill="#c1ff1e" stroke="none" /><path d="M 101.08105385017728 79.02784411241856 l 1.8397241193469294 -35.69015642908097 a56.737541196444624,56.737541196444624 0 0,0 0.972253554555128,0.05848835952348091 l -2.4521220260345196 35.6533160917328" fill="#89ff24" stroke="none" /><path d="M 102.15924093988457 79.11130261209362 l 2.6097207484752865 -25.246680893682502 a46.38120443423549,46.38120443423549 0 0,0 0.7912723994905005,0.08866372279919499 l -3.0427290495665837 25.198161410376336" fill="#ffe515" stroke="none" /><path d="M 102.87502721639298 79.19773525538626 l 3.6501331757111513 -26.410545347638283 a47.66158993308699,47.66158993308699 0 0,0 0.8095091693311318,0.11896997091243859 l -4.102967450649965 26.343994303426964" fill="#fff817" stroke="none" /><path d="M 103.58742460773223 79.30868818359171 l 6.1064322652279355 -35.22027858460813 a56.74572056326775,56.74572056326775 0 0,0 0.95836838587661,0.1746466448373539 l -6.710135384655599 35.11026376583941" fill="#89ff24" stroke="none" /><path d="M 104.29559338865022 79.4440306129975 l 5.166423811063189 -24.72320820241013 a46.257255567761916,46.257255567761916 0 0,0 0.77588304357236,0.1691000981272858 l -5.590069271254683 24.630876646149126" fill="#ffe315" stroke="none" /><path d="M 105.69591212413111 79.78721728523813 l 4.509059926409434 -16.00106296482887 a37.62424847697993,37.62424847697993 0 0,0 0.6201550905701557,0.18051810862784232 l -4.7830750293611946 15.92130116189851" fill="#ff5b08" stroke="none" /><line stroke="#e1ed5e" stroke-width="0.3" x1="143.13028292997686" x2="145.6673583964461" y1="26.7553504044142" y2="22.446841604673864" /><path d="M 143.63769802327073 25.89364864446614 a86.0,86.0 0 0,1 29.32050498858742,28.57503671076993" fill="none" id="id26" stroke="none" /><text fill="#e1ed5e" style="font-size:6.75px; font-family:Arial;" text-anchor="middle"><textPath startOffset="20.669276256404974" xlink:href="#id26">February</textPath></text><path d="M 110.96478420261332 82.08984904055464 l 13.18270829369222 -21.532963278756313 a46.247817836812146,46.247817836812146 0 0,0 0.6735353171283863,0.4203358523447865 l -13.55040773961032 21.30349162956998" fill="#ffe315" stroke="none" /><path d="M 112.16784306229584 82.88440491214696 l 16.81976756312223 -23.659109474731114 a50.02857285528812,50.02857285528812 0 0,0 0.6956806332206463,0.5036191290911353 l -17.223429206716844 23.366889574266903" fill="#e4ff1a" stroke="none" /><path d="M 115.16444852881244 85.47280134310134 l 22.808463415407374 -21.849992003644356 a52.58556876061121,52.58556876061121 0 0,0 0.6188674547069443,0.6572157907094476 l -23.180186703850577 21.455234752990414" fill="#c1ff1e" stroke="none" /><path d="M 115.8921839302757 86.27271002978787 l 19.141090402389406 -16.53361800067495 a46.29311894537102,46.29311894537102 0 0,0 0.51430649153176,0.605851753819139 l -19.422091457428277 16.202599464406255" fill="#ffe315" stroke="none" /><path d="M 116.35404254752997 86.82634096563983 l 19.385738720178047 -15.615778868533686 a45.892959153100975,45.892959153100975 0 0,0 0.4889426457021144,0.6177630603485698 l -19.65094779652172 15.280695864270438" fill="#ffdd14" stroke="none" /><path d="M 117.21940702142032 87.97951657250589 l 20.73087283556575 -14.47175927994595 a46.28242285029462,46.28242285029462 0 0,0 0.44918251342585536,0.6553707110703758 l -20.97624508580693 14.113753833805525" fill="#ffe315" stroke="none" /><line stroke="#e1ed5e" stroke-width="0.3" x1="172.87174338648825" x2="177.1583165268699" y1="56.24261187166439" y2="53.66864786411523" /><path d="M 173.72905801456457 55.72781907015455 a86.0,86.0 0 0,1 12.242430191666344,42.057860355516425" fill="none" id="id27" stroke="none" /><text fill="#e1ed5e" style="font-size:6.75px; font-family:Arial;" text-anchor="middle"><textPath startOffset="22.145653131862474" xlink:href="#id27">March</textPath></text><path d="M 118.18653347947321 89.5 l 15.342946461050836 -8.858254269449718 a38.71650853889943,38.71650853889943 0 0,0 0.3273695304463588,0.5784305923561611 l -15.492749356518571 8.59356690699444" fill="#ff6d0a" stroke="none" /><path d="M 118.8641267826498 90.77261029715802 l 26.334418954682466 -12.881483945297674 a50.3161090582243,50.3161090582243 0 0,0 0.37286810610527904,0.7791509338315876 l -26.551666318747657 12.427520509400983" fill="#e0ff1b" stroke="none" /><path d="M 119.31412917781788 91.75594674310238 l 28.974665796340332 -12.36756188832878 a52.50377509237991,52.50377509237991 0 0,0 0.346710317599153,0.8319785467786097 l -29.182701958475967 11.868350832108893" fill="#c2ff1e" stroke="none" /><path d="M 119.58574465831526 92.42381321644754 l 23.52871320742462 -9.101411722959726 a46.22768401078598,46.22768401078598 0 0,0 0.27994014116637,0.7425744833333081 l -23.681484032405432 8.69616895943226" fill="#ffe215" stroke="none" /><path d="M 119.83427380445688 93.10060997987247 l 29.780529235090953 -10.35921396590445 a52.530829921102566,52.530829921102566 0 0,0 0.28895603203761705,0.8542471645971016 l -29.953970688700934 9.846465126833188" fill="#c1ff1e" stroke="none" /><path d="M 120.16314734710363 94.1308016681162 l 51.83799592652399 -15.089285119163591 a74.98948367122739,74.98948367122739 0 0,0 0.3491707043771963,1.2390836487866803 l -52.08938512297576 14.197193546473898" fill="#40ffc3" stroke="none" /><path d="M 120.43855184770803 95.1765574152323 l 29.778478112519544 -7.027639751962512 a51.5964945570758,51.5964945570758 0 0,0 0.19603999273112538,0.8637883797795124 l -29.894728966808334 6.515417038243973" fill="#ceff1d" stroke="none" /><path d="M 120.592083275326 95.88100663000786 l 30.912186370526328 -6.183303020376091 a52.524538100469385,52.524538100469385 0 0,0 0.16926334473456564,0.8856573435326739 l -31.01377600754305 5.651743111810102" fill="#c1ff1e" stroke="none" /><path d="M 120.77682067341334 96.94652285012252 l 51.128657725281286 -7.51415197358995 a72.67786877059822,72.67786877059822 0 0,0 0.17081196899569984,1.2359103177657378 l -51.250114210832194 6.635353347624127" fill="#3cffa6" stroke="none" /><path d="M 120.86939407059847 97.66154086499901 l 30.162975231169586 -3.3798242885982464 a51.351742734445224,51.351742734445224 0 0,0 0.09064220214585103,0.8768810817839234 l -30.216549825797102 2.8615386845313915" fill="#d2ff1c" stroke="none" /><path d="M 120.96210409425399 98.7389718711861 l 24.181052586746244 -1.4546720767679977 a45.22476780185758,45.22476780185758 0 0,0 0.03996665750466888,0.7753424784122172 l -24.202460833707487 1.03935780497905" fill="#ffd313" stroke="none" /><path d="M 120.99303781780057 99.45929381324524 l 36.79997972567291 -0.9478369392184443 a57.81218416059124,57.81218416059124 0 0,0 0.017036888386111202,0.9923133369166383 l -36.810828045657686 0.3159766863327396" fill="#7bff26" stroke="none" /><line stroke="#e1ed5e" stroke-width="0.3" x1="184.99686870605535" x2="189.99668451229388" y1="99.2704041080226" y2="99.22748670261217" /><path d="M 185.99683186730306 99.26182062694052 a86.0,86.0 0 0,1 -10.086455211305974,41.156179273409016" fill="none" id="id28" stroke="none" /><text fill="#e1ed5e" style="font-size:6.75px; font-family:Arial;" text-anchor="middle"><textPath startOffset="21.40746469413373" xlink:href="#id28">April</textPath></text><path d="M 120.99303781780057 100.54070618675476 l 25.24510812622776 0.6502244347680691 a46.253480475382005,46.253480475382005 0 0,0 -0.027257204684196845,0.793563774161255 l -25.230226234546716 -1.0834944734934349" fill="#ffe315" stroke="none" /><path d="M 120.93736805541906 101.62068470465957 l 30.140776799963305 2.333086747912205 a51.23093977828823,51.23093977828823 0 0,0 -0.07539822639700455,0.8762416805488733 l -30.096284950868558 -2.8501494758367354" fill="#d3ff1c" stroke="none" /><path d="M 120.86939407059847 102.33845913500097 l 37.58992008597539 4.212028950703755 a58.82516728253271,58.82516728253271 0 0,0 -0.12106195263701687,1.0025666345931756 l -37.512076047078715 -4.856689262220339" fill="#6fff28" stroke="none" /><path d="M 120.77682067341334 103.0534771498775 l 32.021784647789545 4.706099612509173 a53.36575451912514,53.36575451912514 0 0,0 -0.1409834491255509,0.9052148780884511 l -31.936279706525728 -5.255102672529075" fill="#b6ff1f" stroke="none" /><path d="M 120.592083275326 104.11899336999214 l 61.776249825978006 12.356980109976403 a84.0,84.0 0 0,0 -0.2949691567025421,1.4115341948583637 l -61.555022958451104 -13.415630756120176" fill="#4dd2ff" stroke="none" /><path d="M 120.35273937422433 105.17358676015961 l 26.542305604969403 6.746950291904541 a48.38640767002896,48.38640767002896 0 0,0 -0.21154196238949238,0.8032592874827343 l -26.42257416177518 -7.201590083760079" fill="#fcff18" stroke="none" /><path d="M 120.16314734710363 105.8691983318838 l 27.935212013125927 8.131533084878773 a50.09463697193648,50.09463697193648 0 0,0 -0.2474285759434039,0.8236092575325492 l -27.79150711717889 -8.609879946002046" fill="#e3ff1b" stroke="none" /><path d="M 119.94978838288452 106.5578916946017 l 22.388073714251146 7.3594045135224455 a44.56664336362728,44.56664336362728 0 0,0 -0.2451474771468649,0.7247349563326659 l -22.258440815531916 -7.742641144329272" fill="#ffc912" stroke="none" /><path d="M 119.58574465831526 107.57618678355244 l 27.132897079132572 10.495587471224352 a50.09212024368321,50.09212024368321 0 0,0 -0.31711013518816517,0.7993246923463846 l -26.948728268978282 -10.959813180784302" fill="#e3ff1b" stroke="none" /><path d="M 119.31412917781788 108.2440532568976 l 28.977559154351596 12.368796890814082 a52.5069210026965,52.5069210026965 0 0,0 -0.3609628739238641,0.8259536955463805 l -28.760962398410765 -12.864412656136306" fill="#c2ff1e" stroke="none" /><path d="M 119.0197475246899 108.90220220490707 l 28.188280167471614 13.193538428081496 a52.12311994407271,52.12311994407271 0 0,0 -0.38625898110195744,0.8071327123415956 l -27.957641928409746 -13.675483642488196" fill="#c7ff1e" stroke="none" /><line stroke="#e1ed5e" stroke-width="0.3" x1="174.33088141563837" x2="178.70328620479359" y1="141.23008692659167" y2="143.65538615756765" /><path d="M 175.20536237346943 141.71514677278685 a86.0,86.0 0 0,1 -30.301960400862466,31.631185727798858" fill="none" id="id29" stroke="none" /><text fill="#e1ed5e" style="font-size:6.75px; font-family:Arial;" text-anchor="middle"><textPath startOffset="22.145653131862474" xlink:href="#id29">May</textPath></text><path d="M 117.423217284605 111.72311816256416 l 23.711618857044233 15.954235382946722 a49.5793368620793,49.5793368620793 0 0,0 -0.48117989020867963,0.702055840049702 l -23.43424923002023 -16.358925958066468" fill="#ebff1a" stroke="none" /><path d="M 117.01052211995028 112.31430620078461 l 23.324274787362167 16.884976229269178 a49.79451712773395,49.79451712773395 0 0,0 -0.5071879356867035,0.6880978430224388 l -23.030984832091637 -17.282880381560496" fill="#e8ff1a" stroke="none" /><path d="M 116.1254893667686 113.45245675266167 l 29.528342927738844 24.633593882228396 a59.454349345850396,59.454349345850396 0 0,0 -0.6605249012159108,0.7780966727661028 l -29.101123463015817 -25.136857337444056" fill="#67ff28" stroke="none" /><path d="M 115.6541949942343 113.99807769240083 l 28.222576537992254 25.23680196931571 a58.860401478078494,58.860401478078494 0 0,0 -0.6799842251405646,0.7474217791330101 l -27.78519461200981 -25.71756132400639" fill="#6eff28" stroke="none" /><path d="M 115.16444852881244 114.52719865689866 l 22.807100386976742 21.848686253240754 a52.583681214421254,52.583681214421254 0 0,0 -0.6300356303631782,0.6464720598622654 l -22.428677955462756 -22.236981005170758" fill="#c1ff1e" stroke="none" /><path d="M 114.13192950727249 115.5334660781643 l 21.25378404503817 23.36163178045381 a52.583052032357934,52.583052032357934 0 0,0 -0.6729002417838397,0.6017115455119079 l -20.84961877643095 -23.723038855849104" fill="#c1ff1e" stroke="none" /><path d="M 113.59037401385872 116.0094264158162 l 25.03476377191879 29.49088877430222 a59.68400079896135,59.68400079896135 0 0,0 -0.7867649171930697,0.6563472761863965 l -24.524824520563822 -29.916298234400486" fill="#64ff29" stroke="none" /><path d="M 112.45986205192187 116.90419585922612 l 23.197144753152095 31.471381998295755 a60.09674423249775,60.09674423249775 0 0,0 -0.8356852633613364,0.6049716844637859 l -22.65347847941679 -31.86495445413262" fill="#5fff29" stroke="none" /><path d="M 111.8722381534696 117.32195027204791 l 17.429531694397593 25.430207629991447 a51.829921102566665,51.829921102566665 0 0,0 -0.7382153233055785,0.49670421502310647 l -16.990420082995012 -25.725661519071675" fill="#cbff1d" stroke="none" /><path d="M 110.96478420261333 117.91015095944535 l 16.482656081026217 26.923179988662287 a52.56795166283831,52.56795166283831 0 0,0 -0.7736681863740645,0.46456551662510076 l -16.018055138094716 -27.20215950582331" fill="#c1ff1e" stroke="none" /><line stroke="#e1ed5e" stroke-width="0.3" x1="143.1302829299769" x2="145.66735839644613" y1="173.24464959558577" y2="177.55315839532614" /><path d="M 143.63769802327073 174.10635135553383 a86.0,86.0 0 0,1 -40.68552437913181,11.842963189579606" fill="none" id="id30" stroke="none" /><text fill="#e1ed5e" style="font-size:6.75px; font-family:Arial;" text-anchor="middle"><textPath startOffset="21.407464694133747" xlink:href="#id30">June</textPath></text><path d="M 110.02825361518725 118.45085714620011 l 10.514192759708262 19.344930439652252 a43.01759712373914,43.01759712373914 0 0,0 -0.6518419296553319,0.3470691123987669 l -10.180562014266377 -19.522570019773585" fill="#ffb210" stroke="none" /><path d="M 109.3889696526874 118.78422872680471 l 14.087674029958592 28.18478501862718 a52.50943773094977,52.50943773094977 0 0,0 -0.8097449155323648,0.39608681502205295 l -13.601768865164159 -28.422465583746458" fill="#c2ff1e" stroke="none" /><path d="M 108.07796709384702 119.3841803445677 l 15.026567750594632 36.058292371512266 a60.06402676520523,60.06402676520523 0 0,0 -0.9551482752942019,0.3884504883751142 l -14.40536501410999 -36.31093011646667" fill="#5fff29" stroke="none" /><path d="M 107.06938296918513 119.77432235084164 l 12.777840879806254 35.74189509981748 a58.95729551582942,58.95729551582942 0 0,0 -0.9559342294750398,0.3325235472576976 l -12.162400878286192 -35.955977079643766" fill="#6dff28" stroke="none" /><path d="M 106.0420521117495 120.11202640906438 l 8.810003499126527 29.32563635024278 a51.62040347548187,51.62040347548187 0 0,0 -0.8508517057076075,0.24767053108585713 l -8.305291781037312 -29.472550575631157" fill="#ceff1d" stroke="none" /><path d="M 104.9986988182912 120.39639698878246 l 7.2468901953303115 29.569785004290594 a51.44486167981624,51.44486167981624 0 0,0 -0.8595403723212832,0.20284918746072955 l -6.738217669269149 -29.68983033539755" fill="#d0ff1d" stroke="none" /><path d="M 104.29559338865022 120.5559693870025 l 5.736824387269054 27.45278144688816 a49.0457904723859,49.0457904723859 0 0,0 -0.8256123477095543,0.1651455921642518 l -5.264715554028541 -27.547216435715274" fill="#f2ff19" stroke="none" /><path d="M 103.58742460773223 120.69131181640829 l 1.9244832997536887 11.099908261443833 a32.265504843703184,32.265504843703184 0 0,0 -0.546550759440728,0.08993471947901269 l -1.7336550372598885 -11.131308979418517" fill="#ff0000" stroke="none" /><path d="M 102.875027216393 120.80226474461374 l 5.456636844407673 39.4815059855302 a60.85679616498552,60.85679616498552 0 0,0 -1.0360787770311777,0.13414114070643435 l -4.77808024548572 -39.56935872243703" fill="#56ff2b" stroke="none" /><path d="M 101.44090949804482 120.95050786540614 l 2.1643862284373374 31.4697007439969 a52.54404274443224,52.54404274443224 0 0,0 -0.9003938353989099,0.05416545726246733 l -1.6238480409059624 -31.502218179084057" fill="#c1ff1e" stroke="none" /><path d="M 101.08105385017728 120.97215588758144 l 1.6240747674699665 31.50661661385525 a52.548447018875464,52.548447018875464 0 0,0 -0.901266520791956,0.03870426231396692 l -1.0829824860771808 -31.529853444595048" fill="#c1ff1e" stroke="none" /><line stroke="#e1ed5e" stroke-width="0.3" x1="101.45913802915013" x2="101.54496967792366" y1="184.9874750549273" y2="189.98673829345242" /><path d="M 101.47630435890484 185.9873277026323 a86.0,86.0 0 0,1 -42.54439059252881,-10.42667462771756" fill="none" id="id31" stroke="none" /><text fill="#e1ed5e" style="font-size:6.75px; font-family:Arial;" text-anchor="middle"><textPath startOffset="22.145653131862474" xlink:href="#id31">July</textPath></text><line stroke="#e1ed5e" stroke-width="0.3" x1="58.13341422392154" x2="55.67067388415222" y1="173.97424548756322" y2="178.32567169271397" /><path d="M 57.64086615596768 174.84453072859336 a86.0,86.0 0 0,1 -31.369924170532247,-30.572349798747897" fill="none" id="id32" stroke="none" /><text fill="#e1ed5e" style="font-size:6.75px; font-family:Arial;" text-anchor="middle"><textPath startOffset="22.145653131862474" xlink:href="#id32">August</textPath></text><line stroke="#e1ed5e" stroke-width="0.3" x1="26.387840678322732" x2="22.057713659400548" y1="142.50000000000003" y2="145.00000000000006" /><path d="M 25.521815274538298 143.00000000000003 a86.0,86.0 0 0,1 -11.493303480769221,-40.785679425670985" fill="none" id="id33" stroke="none" /><text fill="#e1ed5e" style="font-size:6.75px; font-family:Arial;" text-anchor="middle"><textPath startOffset="21.40746469413373" xlink:href="#id33">September</textPath></text><line stroke="#e1ed5e" stroke-width="0.3" x1="15.003131293944662" x2="10.003315487706104" y1="100.72959589197737" y2="100.7725132973878" /><path d="M 14.003168132696942 100.73817937305945 a86.0,86.0 0 0,1 10.791469493833604,-42.45332614584628" fill="none" id="id34" stroke="none" /><text fill="#e1ed5e" style="font-size:6.75px; font-family:Arial;" text-anchor="middle"><textPath startOffset="22.145653131862435" xlink:href="#id34">October</textPath></text><line stroke="#e1ed5e" stroke-width="0.3" x1="26.387840678322718" x2="22.05771365940052" y1="57.49999999999999" y2="54.99999999999999" /><path d="M 25.521815274538284 56.99999999999999 a86.0,86.0 0 0,1 29.574782752854787,-30.34633250058573" fill="none" id="id35" stroke="none" /><text fill="#e1ed5e" style="font-size:6.75px; font-family:Arial;" text-anchor="middle"><textPath startOffset="21.40746469413373" xlink:href="#id35">November</textPath></text><line stroke="#e1ed5e" stroke-width="0.3" x1="56.869717070023135" x2="54.33264160355391" y1="26.7553504044142" y2="22.446841604673864" /><path d="M 56.362301976729285 25.89364864446614 a86.0,86.0 0 0,1 42.16139366436587,-11.88097634709845" fill="none" id="id36" stroke="none" /><text fill="#e1ed5e" style="font-size:6.75px; font-family:Arial;" text-anchor="middle"><textPath startOffset="22.145653131862474" xlink:href="#id36">December</textPath></text></svg>