<?xml version="1.0" encoding="utf-8" ?>
<svg baseProfile="full" height="200mm" version="1.1" viewBox="0,0,200,200" width="200mm" xmlns="http://www.w3.org/2000/svg" xmlns:ev="http://www.w3.org/2001/xml-events" xmlns:xlink="http://www.w3.org/1999/xlink"><defs /><rect fill="#1a1a1a" height="200" width="200" x="0" y="0" /><text alignment-baseline="middle" fill="#e1ed5e" style="dominant-baseline: central; font-size:9.0px; font-family:Arial;" text-anchor="middle" x="100.0" y="100.0">2022</text><line stroke="#e1ed5e" stroke-width="0.3" x1="100.0" x2="100.0" y1="15.0" y2="10.0" /><path d="M 100.0 14.0 a86.0,86.0 0 0,1 42.46469731375804,11.215312516191453" fill="none" id="id1" stroke="none" /><text fill="#e1ed5e" style="font-size:6.75px; font-family:Arial;" text-anchor="middle"><textPath startOffset="22.20632615414155" xlink:href="#id1">January</textPath></text><line stroke="#e1ed5e" stroke-width="0.3" x1="143.23703022742887" x2="145.7803849466894" y1="26.818313649435467" y2="22.513508569990506" /><path d="M 143.74570117128098 25.957352633546478 a86.0,86.0 0 0,1 28.547481713284135,27.462654790039114" fill="none" id="id2" stroke="none" /><text fill="#e1ed5e" style="font-size:6.75px; font-family:Arial;" text-anchor="middle"><textPath startOffset="19.985693538727396" xlink:href="#id2">February</textPath></text><line stroke="#e1ed5e" stroke-width="0.3" x1="172.23445277983987" x2="176.4835382374775" y1="55.19839476539836" y2="52.563006222186495" /><path d="M 173.08426987136738 54.67131705675599 a86.0,86.0 0 0,1 12.851231095245387,41.99856678651699" fill="none" id="id3" stroke="none" /><text fill="#e1ed5e" style="font-size:6.75px; font-family:Arial;" text-anchor="middle"><textPath startOffset="22.20632615414155" xlink:href="#id3">March</textPath></text><line stroke="#e1ed5e" stroke-width="0.3" x1="184.98032266829074" x2="189.97916517819016" y1="98.17113171792111" y2="98.06355123074" /><path d="M 185.9800911702706 98.14961562048488 a86.0,86.0 0 0,1 -9.607161424134198,41.387399972396054" fill="none" id="id4" stroke="none" /><text fill="#e1ed5e" style="font-size:6.75px; font-family:Arial;" text-anchor="middle"><textPath startOffset="21.466115282336823" xlink:href="#id4">April</textPath></text><line stroke="#e1ed5e" stroke-width="0.3" x1="174.80103733775053" x2="179.2010983576182" y1="140.37084112569926" y2="142.7455964860345" /><path d="M 175.68104954172406 140.8457921977663 a86.0,86.0 0 0,1 -30.038265399797805,32.042727171017184" fill="none" id="id5" stroke="none" /><text fill="#e1ed5e" style="font-size:6.75px; font-family:Arial;" text-anchor="middle"><textPath startOffset="22.206326154141568" xlink:href="#id5">May</textPath></text><line stroke="#e1ed5e" stroke-width="0.3" x1="143.8653032363475" x2="146.44561519142675" y1="172.8068346515853" y2="177.08958963109032" /><path d="M 144.38136562736335 173.6633856474863 a86.0,86.0 0 0,1 -40.68145358897372,12.25698825130547" fill="none" id="id6" stroke="none" /><text fill="#e1ed5e" style="font-size:6.75px; font-family:Arial;" text-anchor="middle"><textPath startOffset="21.466115282336833" xlink:href="#id6">June</textPath></text><line stroke="#e1ed5e" stroke-width="0.3" x1="102.19456741930631" x2="102.32365962044197" y1="184.97166512339345" y2="189.96999836594603" /><path d="M 102.22038585953345 185.97133177190398 a86.0,86.0 0 0,1 -42.740103519485714,-10.115201625700543" fill="none" id="id7" stroke="none" /><text fill="#e1ed5e" style="font-size:6.75px; font-family:Arial;" text-anchor="middle"><textPath startOffset="22.20632615414155" xlink:href="#id7">July</textPath></text><line stroke="#e1ed5e" stroke-width="0.3" x1="58.666819895761336" x2="56.23545636021788" y1="174.27360380694188" y2="178.64263932499728" /><path d="M 58.180547188652646 175.14741091055294 a86.0,86.0 0 0,1 -31.652253787137756,-30.449443065178592" fill="none" id="id8" stroke="none" /><text fill="#e1ed5e" style="font-size:6.75px; font-family:Arial;" text-anchor="middle"><textPath startOffset="22.20632615414155" xlink:href="#id8">August</textPath></text><path d="M 85.18274418774928 114.88116024355367 l -14.387753336721424 14.449805393212879 a41.39128053801581,41.39128053801581 0 0,0 -0.5005573206469318,-0.5070619230817941 l 14.63435128242389 -14.20000297615042" fill="#ffbe11" stroke="none" /><path d="M 84.19399662182784 113.82643327865904 l -16.40766265580243 14.3527397496629 a42.79936999429495,42.79936999429495 0 0,0 -0.4802853392765267,-0.558680355090247 l 16.652290504649738 -14.068182295411125" fill="#ffd213" stroke="none" /><path d="M 83.50135304334701 112.99209946851258 l -14.995352983196872 11.808308768289033 a40.08655985393709,40.08655985393709 0 0,0 -0.4222320838509879,-0.5457918858350881 l 15.196391884265928 -11.548438888340693" fill="#ffaa0f" stroke="none" /><path d="M 82.85270091963577 112.12312394758628 l -18.67407600160242 13.202553761560903 a43.869817234523964,43.869817234523964 0 0,0 -0.43063258703275026,-0.620358359716699 l 18.898569495797304 -12.879154139657192" fill="#ffe115" stroke="none" /><path d="M 82.44556493220864 111.52570212397912 l -13.833778720569322 9.082833606811342 a37.54905737553345,37.54905737553345 0 0,0 -0.35009156280503445,-0.5433498799873737 l 13.988075146751402 -8.84336212690252" fill="#ff850c" stroke="none" /><path d="M 82.24976979558568 111.22182372390057 l -26.392636079037977 16.685615131592304 a52.224685611230086,52.224685611230086 0 0,0 -0.4738404424363544,-0.7639816672888372 l 26.675941161142287 -16.228837132938203" fill="#adff20" stroke="none" /><line stroke="#e1ed5e" stroke-width="0.3" x1="26.63291911575756" x2="22.317208475507996" y1="142.92168965132927" y2="145.44649492493687" /><path d="M 25.769776987707644 143.4266507060508 a86.0,86.0 0 0,1 -11.730757126820373,-40.83630448921669" fill="none" id="id9" stroke="none" /><text fill="#e1ed5e" style="font-size:6.75px; font-family:Arial;" text-anchor="middle"><textPath startOffset="21.46611528233685" xlink:href="#id9">September</textPath></text><path d="M 81.69416730710424 110.29060199501025 l -16.146128754710613 9.076527004390204 a39.52244088194419,39.52244088194419 0 0,0 -0.3282688593270894,-0.5959033318144162 l 16.29997402348922 -8.797253154177966" fill="#ffa20f" stroke="none" /><path d="M 81.35079622478065 109.6543875284942 l -17.54764763322174 9.084129944984422 a40.75958892075124,40.75958892075124 0 0,0 -0.31718982097114823,-0.6258456085821972 l 17.701416123979154 -8.78073012469954" fill="#ffb410" stroke="none" /><path d="M 81.02952815118164 109.00673069616217 l -22.961736617226446 10.90168867046109 a46.418264385015306,46.418264385015306 0 0,0 -0.3364780038875801,-0.7247436858853565 l 23.145989237953852 -10.504824917296908" fill="#faff18" stroke="none" /><path d="M 80.58989483394504 108.01547362559985 l -30.12799814727816 12.441466569895526 a53.59580283981703,53.59580283981703 0 0,0 -0.344792992877893,-0.8557479320553818 l 30.33769375441344 -11.92101926999734" fill="#9cff22" stroke="none" /><path d="M 80.32549172779594 107.34259656027581 l -16.546080448666192 6.175056154265606 a38.660806797031306,38.660806797031306 0 0,0 -0.2273176994951278,-0.6254806799434413 l 16.649922409166546 -5.8893276773160474" fill="#ff950d" stroke="none" /><path d="M 79.97269907076064 106.31721596034903 l -18.033571996355185 5.6883336022157165 a39.90943833427694,39.90943833427694 0 0,0 -0.20101667143257318,-0.6569341129884223 l 18.128815440293888 -5.377072516675246" fill="#ffa80f" stroke="none" /><path d="M 79.86692584326677 105.97154293290107 l -24.31032390956167 7.210530384408728 a46.35712122880449,46.35712122880449 0 0,0 -0.22032295387610396,-0.7669731060988246 l 24.430839500323877 -6.790999802805308" fill="#fbff18" stroke="none" /><path d="M 79.58551787078972 104.9243191809786 l -30.22382935851623 7.290500032807988 a52.09069397458154,52.09069397458154 0 0,0 -0.2027554212269969,-0.8734650480435205 l 30.344845345673782 -6.769166327415894" fill="#afff20" stroke="none" /><path d="M 79.4281124754447 104.21870165774334 l -14.63777226294228 3.0017855210239888 a35.942392483668456,35.942392483668456 0 0,0 -0.11907212638589128,-0.6071462071389201 l 14.687274322303837 -2.749375586817114" fill="#ff6c0a" stroke="none" /><path d="M 79.29508885075956 103.50808413554451 l -31.10141968988497 5.269590205944916 a52.54468081412388,52.54468081412388 0 0,0 -0.14341756771007264,-0.8930613310333942 l 31.187519011956333 -4.7334496452183075" fill="#a9ff21" stroke="none" /><path d="M 79.18660465613746 102.79330883721812 l -32.085093678210725 4.306052627821034 a53.37275591563255,53.37275591563255 0 0,0 -0.11436635540665827,-0.911612378651861 l 32.15446154286423 -3.753122494881764" fill="#9fff22" stroke="none" /><line stroke="#e1ed5e" stroke-width="0.3" x1="15.007084014347285" x2="10.007500721073583" y1="101.09737516637583" y2="101.16192664675087" /><path d="M 14.007167355692545 101.11028546245083 a86.0,86.0 0 0,1 10.666146001902526,-42.60595125391555" fill="none" id="id10" stroke="none" /><text fill="#e1ed5e" style="font-size:6.75px; font-family:Arial;" text-anchor="middle"><textPath startOffset="22.20632615414155" xlink:href="#id10">October</textPath></text><path d="M 79.00019446554 99.90962569577889 l -12.346118442396138 -0.053132485547646935 a33.34623277176866,33.34623277176866 0 0,0 0.007410791952230703,-0.5739740036795248 l 12.343374643326191 0.26564274728764364" fill="#ff4406" stroke="none" /><path d="M 79.00486145842228 99.54816195383935 l -22.005116906813974 -0.47357387087593433 a43.01021222736679,43.01021222736679 0 0,0 0.022300396774243825,-0.7400416020635308 l 21.99370481558409 0.8522856203644595" fill="#ffd513" stroke="none" /><path d="M 79.08570108090925 98.10471618934814 l -25.90467244086602 -2.347518627679014 a47.01082270855467,47.01082270855467 0 0,0 0.07996960529489183,-0.8052830119039491 l 25.860425709888897 2.7930771702873938" fill="#f2ff19" stroke="none" /><path d="M 79.26566170972629 96.67025291283419 l -8.072661395744133 -1.2963963639372102 a29.176093538039254,29.176093538039254 0 0,0 0.08389952270828765,-0.4951797323039957 l 8.049150011515623 1.4351618845570344" fill="#ff0000" stroke="none" /><path d="M 79.32604984820605 96.31383870115002 l -30.703784564169474 -5.4744788275910645 a52.18801540650951,52.18801540650951 0 0,0 0.165297526921189,-0.8830259984597079 l 30.605001313338423 6.0021829035133445" fill="#aeff20" stroke="none" /><path d="M 79.46518482838121 95.60439243477599 l -24.691975493534848 -5.285474126385891 a46.25133443036269,46.25133443036269 0 0,0 0.1733447442054981,-0.7770704987846456 l 24.59733636232731 5.709722794720496" fill="#fcff18" stroke="none" /><path d="M 80.02781315780177 93.51064311812611 l -31.33299418808086 -10.180706953658646 a53.9454597610442,53.9454597610442 0 0,0 0.29454916213939447,-0.8806645038717862 l 31.153107732169694 10.718544560452754" fill="#98ff23" stroke="none" /><path d="M 80.52162464483688 92.15188598940014 l -24.733447764215374 -9.965457302748064 a47.66559164087805,47.66559164087805 0 0,0 0.31318180610378576,-0.758394584838354 l 24.558244271225387 10.38972645803973" fill="#e9ff1a" stroke="none" /><path d="M 81.10775173730289 90.83032412892265 l -35.199072494183575 -17.08447196152495 a60.12612792821343,60.12612792821343 0 0,0 0.45993621007379293,-0.9272033338207928 l 34.89977627115637 17.687834883844705" fill="#4eff2b" stroke="none" /><line stroke="#e1ed5e" stroke-width="0.3" x1="26.266209847984243" x2="21.928928074336255" y1="57.71137044288968" y2="55.22380399835378" /><path d="M 25.398753493254645 57.2138571539825 a86.0,86.0 0 0,1 29.58750427330803,-30.4925239686951" fill="none" id="id11" stroke="none" /><text fill="#e1ed5e" style="font-size:6.75px; font-family:Arial;" text-anchor="middle"><textPath startOffset="21.46611528233685" xlink:href="#id11">November</textPath></text><path d="M 81.96595687620814 89.24020034530311 l -27.133535469475515 -16.188904704902495 a52.59603428624706,52.59603428624706 0 0,0 0.47056971024677585,-0.7734928756713686 l 26.850849960942522 16.653565353780937" fill="#a8ff21" stroke="none" /><path d="M 82.34701348167596 88.62581576622439 l -15.68180670257526 -10.104112319374396 a39.655083682992895,39.655083682992895 0 0,0 0.3746524775175727,-0.5706214266883013 l 15.505557589699766 10.372551810040367" fill="#ffa40f" stroke="none" /><path d="M 82.7489923806493 88.02491185347247 l -28.498201690097886 -19.78252428998037 a55.69143650604802,55.69143650604802 0 0,0 0.5534333325621819,-0.7827922007162056 l 28.153455737731825 20.27014299102836" fill="#82ff25" stroke="none" /><path d="M 85.57189188830299 84.74124197986013 l -23.887017011230114 -25.262231858509026 a55.7673688991253,55.7673688991253 0 0,0 0.7031790298091578,-0.6535282729884857 l 23.448630097626097 25.669664717572157" fill="#81ff25" stroke="none" /><path d="M 86.93701828274178 83.55741782278169 l -20.691409877942796 -26.044605637861178 a54.263432257792324,54.263432257792324 0 0,0 0.7363481732753656,-0.5747314290026075 l 20.240029149508008 26.396915456087008" fill="#94ff23" stroke="none" /><path d="M 88.09926311788651 82.69761687909137 l -19.949197949150182 -29.003974232034412 a56.202287142555015,56.202287142555015 0 0,0 0.8018067329297769,-0.5413834852623217 l 19.44698652181387 29.343069629595398" fill="#7cff26" stroke="none" /><line stroke="#e1ed5e" stroke-width="0.3" x1="56.76296977257108" x2="54.21961505331056" y1="26.818313649435495" y2="22.513508569990535" /><path d="M 56.25429882871898 25.957352633546506 a86.0,86.0 0 0,1 42.26535254187918,-11.944610805530505" fill="none" id="id12" stroke="none" /><text fill="#e1ed5e" style="font-size:6.75px; font-family:Arial;" text-anchor="middle"><textPath startOffset="22.20632615414155" xlink:href="#id12">December</textPath></text><path d="M 89.63071344664047 81.73862282372117 l -15.4923499407348 -27.283617263233907 a52.37528769035944,52.37528769035944 0 0,0 0.7878138909193317,-0.4384175773486092 l 15.020411960743422 27.5462502381427" fill="#abff21" stroke="none" /><path d="M 90.58718382345135 81.22770947309562 l -11.593090913326574 -23.12048452321725 a46.86419458465667,46.86419458465667 0 0,0 0.7242275091016924,-0.3553752934306588 l 11.193392137214456 23.316614976782738" fill="#f4ff19" stroke="none" /><path d="M 90.91171255644093 81.06846463323043 l -13.650244225936138 -28.434408895319017 a52.54116003976233,52.54116003976233 0 0,0 0.8186958270764079,-0.384388668324906 l 13.158770187560123 28.66516254628393" fill="#a9ff21" stroke="none" /><path d="M 92.91201910852362 80.23233633223022 l -15.244630676332658 -42.51573707139896 a66.16621152124794,66.16621152124794 0 0,0 1.0754151769122398,-0.3751912388941575 l 14.510533495357132 42.771849163465326" fill="#34ff5b" stroke="none" /><path d="M 93.94186890950719 79.89281104454417 l -18.17439327147842 -60.321566866367455 a84.0,84.0 0 0,0 1.3880391291063148,-0.4052066843252047 l 17.133363924648684 60.625471879611354" fill="#4dd2ff" stroke="none" /></svg>