<?xml version="1.0" encoding="utf-8" ?>
<svg baseProfile="full" height="200mm" version="1.1" viewBox="0,0,200,200" width="200mm" xmlns="http://www.w3.org/2000/svg" xmlns:ev="http://www.w3.org/2001/xml-events" xmlns:xlink="http://www.w3.org/1999/xlink"><defs /><rect fill="#1a1a1a" height="200" width="200" x="0" y="0" /><rect fill="#1a1a1a" height="200" width="180" x="10" y="0" /><text alignment-baseline="middle" fill="#e1ed5e" style="dominant-baseline: central; font-size:9.0px; font-family:Arial;" text-anchor="middle" x="100.0" y="100.0">2026</text><line stroke="#e1ed5e" stroke-width="0.3" x1="100.0" x2="100.0" y1="15.0" y2="10.0" /><path d="M 100.0 14.0 a86.0,86.0 0 0,1 42.46469731375804,11.215312516191453" fill="none" id="id49" stroke="none" /><text fill="#e1ed5e" style="font-size:6.75px; font-family:Arial;" text-anchor="middle"><textPath startOffset="22.20632615414155" xlink:href="#id49">January</textPath></text><path d="M 100.72285384407766 79.0124445844662 l 0.8607162847553776 -24.990294886520793 a46.0051128979277,46.0051128979277 0 0,0 0.7911984895262094,0.034070671289231726 l -1.2907556066709185 24.971776488707366" fill="red" stroke="none" /><path d="M 102.16513564639614 79.11191278185805 l 2.92023826021767 -28.172919132671094 a49.323862094574324,49.323862094574324 0 0,0 0.8437511226602686,0.09480526974262221 l -3.404756086387664 28.118477909457873" fill="red" stroke="none" /><path d="M 102.88285421437855 79.19881850522331 l 2.693049191052247 -19.431646844311516 a40.61737528385153,40.61737528385153 0 0,0 0.6917158730988447,0.10194093887442404 l -3.0271340445797477 19.382411421276124" fill="red" stroke="none" /><path d="M 103.59715602781102 79.31037775812273 l 10.791468083433088 -62.06886672563182 a84.0,84.0 0 0,0 1.4224195155883965,0.2599380745970459 l -11.858282720124386 61.87391316968404" fill="red" stroke="none" /><path d="M 104.66035177308747 79.52364482259891 l 5.842694978462101 -25.671259037372714 a47.32775389537126,47.32775389537126 0 0,0 0.7927991795075603,0.18762995147526595 l -6.283717844932186 25.56688317375658" fill="red" stroke="none" /><path d="M 105.36241919743992 79.69619591428918 l 5.242793113285608 -19.85086214164021 a41.53152715691455,41.53152715691455 0 0,0 0.6896252944466132,0.1885006437186787 l -5.583716296955933 19.75767495709524" fill="red" stroke="none" /><path d="M 106.0581310904928 79.89281104454417 l 4.789599849211708 -15.896881026602006 a37.60274354103886,37.60274354103886 0 0,0 0.618143671265437,0.1920602476313809 l -5.062528893187863 15.812080644088105" fill="red" stroke="none" /><path d="M 107.4271985657038 80.35727306442388 l 18.04494529774134 -47.7235030025555 a72.02110141533012,72.02110141533012 0 0,0 1.155824935820598,0.44844211828063235 l -18.863753398561606 47.40581818038432" fill="red" stroke="none" /><path d="M 109.41281617654863 81.2277094730956 l 10.110452668760722 -20.163610050024836 a43.556427541095985,43.556427541095985 0 0,0 0.6673249409260914,0.34182975378367053 l -10.45603809727557 19.986587770928665" fill="red" stroke="none" /><line stroke="#e1ed5e" stroke-width="0.3" x1="143.23703022742887" x2="145.7803849466894" y1="26.81831364943548" y2="22.513508569990506" /><path d="M 143.74570117128098 25.957352633546492 a86.0,86.0 0 0,1 28.547481713284135,27.462654790039103" fill="none" id="id50" stroke="none" /><text fill="#e1ed5e" style="font-size:6.75px; font-family:Arial;" text-anchor="middle"><textPath startOffset="19.985693538727396" xlink:href="#id50">February</textPath></text><path d="M 111.2981086023043 82.29822771554956 l 15.433707846467437 -24.18139101151688 a49.68691355203588,49.68691355203588 0 0,0 0.7169891996796567,0.46634971982375234 l -15.847664071931375 23.9121423675336" fill="red" stroke="none" /><path d="M 113.6212207817346 84.01681056812373 l 17.534508278633645 -20.575055048517797 a48.03316242734115,48.03316242734115 0 0,0 0.6246740252149579,0.5417111590263496 l -17.886076102495366 20.270178896071776" fill="red" stroke="none" /><line stroke="#e1ed5e" stroke-width="0.3" x1="172.23445277983987" x2="176.4835382374775" y1="55.19839476539836" y2="52.563006222186495" /><path d="M 173.08426987136738 54.67131705675599 a86.0,86.0 0 0,1 12.851231095245387,41.99856678651699" fill="none" id="id51" stroke="none" /><text fill="#e1ed5e" style="font-size:6.75px; font-family:Arial;" text-anchor="middle"><textPath startOffset="22.20632615414155" xlink:href="#id51">March</textPath></text><path d="M 118.03404312379186 89.2402003453031 l 23.652054886852035 -14.111720275786551 a48.541974321255665,48.541974321255665 0 0,0 0.42194608545023915,0.7212426358676342 l -23.8914606467726 13.702498227565021" fill="red" stroke="none" /><path d="M 118.3937258080291 89.86733742301442 l 17.62757231656083 -9.710606986277659 a41.12528742198546,41.12528742198546 0 0,0 0.33623232226988786,0.6229874283262866 l -17.792112738049184 9.405738574618914" fill="red" stroke="none" /><path d="M 119.04729006885535 91.15688171328212 l 24.88098000339603 -11.551535597143125 a48.43175423813537,48.43175423813537 0 0,0 0.34455199374181067,0.7591746461125863 l -25.076134314101186 11.121538942188476" fill="red" stroke="none" /><path d="M 119.34039704204932 91.81776055985345 l 20.761806704832086 -8.78358770503171 a43.54338108227767,43.54338108227767 0 0,0 0.2860972509049589,0.6928071860967401 l -20.909925642623243 8.424905948481666" fill="red" stroke="none" /><path d="M 119.97218684219823 93.5106431181261 l 17.15373501929643 -5.573586371729564 a39.03650437738328,39.03650437738328 0 0,0 0.20214313256661176,0.6408489708284403 l -17.247133635631247 5.277487234474705" fill="red" stroke="none" /><path d="M 120.37134235888165 94.90015583598534 l 21.900378617141588 -5.482629279540134 a43.576222168268615,43.576222168268615 0 0,0 0.1758968727817397,0.7292060961152556 l -21.991508290184147 5.1048379517654725" fill="red" stroke="none" /><path d="M 120.6074358757038 95.95851677861258 l 22.267650185745996 -4.367080657109826 a43.69184078607235,43.69184078607235 0 0,0 0.13838719813958508,0.7392699460622304 l -22.33952310779544 3.9831326335850323" fill="red" stroke="none" /><path d="M 120.78858239683441 97.02765380044208 l 30.53132838509648 -4.365361531660526 a51.84182864651024,51.84182864651024 0 0,0 0.11870297797534728,0.8844750627557746 l -30.601947362129664 3.8391681268400877" fill="red" stroke="none" /><path d="M 120.91429891909075 98.10471618934814 l 24.235932491831722 -2.196295016415359 a45.335244719290486,45.335244719290486 0 0,0 0.06374030959555126,0.7777932253495408 l -24.270147285246768 1.7787878738580494" fill="red" stroke="none" /><path d="M 120.94382443527127 98.46500227214037 l 30.714907154458757 -2.2511319668108714 a51.79729073537183,51.79729073537183 0 0,0 0.057518200358158814,0.8897811013826487 l -30.74910594582133 1.7220918011751871" fill="red" stroke="none" /><line stroke="#e1ed5e" stroke-width="0.3" x1="184.98032266829074" x2="189.97916517819016" y1="98.17113171792111" y2="98.06355123074" /><path d="M 185.9800911702706 98.14961562048488 a86.0,86.0 0 0,1 -9.607161424134198,41.387399972396054" fill="none" id="id52" stroke="none" /><text fill="#e1ed5e" style="font-size:6.75px; font-family:Arial;" text-anchor="middle"><textPath startOffset="21.466115282336823" xlink:href="#id52">April</textPath></text><path d="M 120.99513854157772 99.54816195383933 l 26.229455454859117 -0.5644861967027157 a47.23552892786243,47.23552892786243 0 0,0 0.010497517966536911,0.8130443351789721 l -26.23528597994337 0.11290560346328084" fill="red" stroke="none" /><line stroke="#e1ed5e" stroke-width="0.3" x1="174.80103733775053" x2="179.2010983576182" y1="140.37084112569926" y2="142.7455964860345" /><path d="M 175.68104954172406 140.8457921977663 a86.0,86.0 0 0,1 -30.038265399797805,32.042727171017184" fill="none" id="id53" stroke="none" /><text fill="#e1ed5e" style="font-size:6.75px; font-family:Arial;" text-anchor="middle"><textPath startOffset="22.206326154141568" xlink:href="#id53">May</textPath></text><line stroke="#e1ed5e" stroke-width="0.3" x1="143.8653032363475" x2="146.44561519142675" y1="172.8068346515853" y2="177.08958963109032" /><path d="M 144.38136562736335 173.6633856474863 a86.0,86.0 0 0,1 -40.68145358897372,12.25698825130547" fill="none" id="id54" stroke="none" /><text fill="#e1ed5e" style="font-size:6.75px; font-family:Arial;" text-anchor="middle"><textPath startOffset="21.466115282336833" xlink:href="#id54">June</textPath></text><line stroke="#e1ed5e" stroke-width="0.3" x1="102.19456741930631" x2="102.32365962044197" y1="184.97166512339345" y2="189.96999836594603" /><path d="M 102.22038585953345 185.97133177190398 a86.0,86.0 0 0,1 -42.740103519485714,-10.115201625700543" fill="none" id="id55" stroke="none" /><text fill="#e1ed5e" style="font-size:6.75px; font-family:Arial;" text-anchor="middle"><textPath startOffset="22.20632615414155" xlink:href="#id55">July</textPath></text><line stroke="#e1ed5e" stroke-width="0.3" x1="58.666819895761336" x2="56.23545636021788" y1="174.27360380694188" y2="178.64263932499728" /><path d="M 58.180547188652646 175.14741091055294 a86.0,86.0 0 0,1 -31.652253787137756,-30.449443065178592" fill="none" id="id56" stroke="none" /><text fill="#e1ed5e" style="font-size:6.75px; font-family:Arial;" text-anchor="middle"><textPath startOffset="22.20632615414155" xlink:href="#id56">August</textPath></text><line stroke="#e1ed5e" stroke-width="0.3" x1="26.63291911575756" x2="22.317208475507996" y1="142.92168965132927" y2="145.44649492493687" /><path d="M 25.769776987707644 143.4266507060508 a86.0,86.0 0 0,1 -11.730757126820373,-40.83630448921669" fill="none" id="id57" stroke="none" /><text fill="#e1ed5e" style="font-size:6.75px; font-family:Arial;" text-anchor="middle"><textPath startOffset="21.46611528233685" xlink:href="#id57">September</textPath></text><line stroke="#e1ed5e" stroke-width="0.3" x1="15.007084014347285" x2="10.007500721073583" y1="101.09737516637583" y2="101.16192664675087" /><path d="M 14.007167355692545 101.11028546245083 a86.0,86.0 0 0,1 10.666146001902534,-42.60595125391555" fill="none" id="id58" stroke="none" /><text fill="#e1ed5e" style="font-size:6.75px; font-family:Arial;" text-anchor="middle"><textPath startOffset="22.20632615414155" xlink:href="#id58">October</textPath></text><line stroke="#e1ed5e" stroke-width="0.3" x1="26.266209847984243" x2="21.928928074336255" y1="57.711370442889674" y2="55.22380399835377" /><path d="M 25.398753493254645 57.213857153982495 a86.0,86.0 0 0,1 29.58750427330803,-30.492523968695096" fill="none" id="id59" stroke="none" /><text fill="#e1ed5e" style="font-size:6.75px; font-family:Arial;" text-anchor="middle"><textPath startOffset="21.46611528233685" xlink:href="#id59">November</textPath></text><line stroke="#e1ed5e" stroke-width="0.3" x1="56.762969772571076" x2="54.21961505331055" y1="26.818313649435495" y2="22.513508569990535" /><path d="M 56.25429882871897 25.957352633546506 a86.0,86.0 0 0,1 42.265352541879196,-11.944610805530505" fill="none" id="id60" stroke="none" /><text fill="#e1ed5e" style="font-size:6.75px; font-family:Arial;" text-anchor="middle"><textPath startOffset="22.20632615414155" xlink:href="#id60">December</textPath></text></svg>