<?xml version="1.0" encoding="utf-8" ?>
<svg baseProfile="full" height="200mm" version="1.1" viewBox="0,0,200,200" width="200mm" xmlns="http://www.w3.org/2000/svg" xmlns:ev="http://www.w3.org/2001/xml-events" xmlns:xlink="http://www.w3.org/1999/xlink"><defs /><rect fill="#1a1a1a" height="200" width="200" x="0" y="0" /><rect fill="#1a1a1a" height="200" width="180" x="10" y="0" /><text alignment-baseline="middle" fill="#e1ed5e" style="dominant-baseline: central; font-size:9.0px; font-family:Arial;" text-anchor="middle" x="100.0" y="100.0">2025</text><line stroke="#e1ed5e" stroke-width="0.3" x1="100.0" x2="100.0" y1="15.0" y2="10.0" /><path d="M 100.0 14.0 a86.0,86.0 0 0,1 42.46469731375804,11.215312516191453" fill="none" id="id37" stroke="none" /><text fill="#e1ed5e" style="font-size:6.75px; font-family:Arial;" text-anchor="middle"><textPath startOffset="22.20632615414155" xlink:href="#id37">January</textPath></text><path d="M 100.72285384407766 79.0124445844662 l 0.8030783820428438 -23.31681872377317 a44.330644446414325,44.330644446414325 0 0,0 0.7624008879957858,0.03283058598996772 l -1.204320102427961 23.299540411259006" fill="red" stroke="none" /><path d="M 101.44485096284872 79.0497635885617 l 1.87813974995245 -27.23289307129964 a48.29758000177289,48.29758000177289 0 0,0 0.8289010315569594,0.06433867321339314 l -2.3466309708717503 27.19652913589778" fill="red" stroke="none" /><path d="M 102.16513564639614 79.11191278185805 l 2.902665564416585 -28.00338702822216 a49.153421682474956,49.153421682474956 0 0,0 0.8408355097510488,0.09447766666050465 l -3.3842677776773593 27.949273408091056" fill="red" stroke="none" /><path d="M 102.88285421437855 79.19881850522331 l 1.642672359722133 -11.852672161016264 a32.965960464497826,32.965960464497826 0 0,0 0.5614119072412849,0.08273752149573627 l -1.8464532473920736 11.822640155359558" fill="red" stroke="none" /><path d="M 105.01212808612495 79.60689891045804 l 6.317254072561618 -25.703333732971572 a47.468265224714116,47.468265224714116 0 0,0 0.7917957798932899,0.20184637436326158 l -6.758758741139933 25.590784362439443" fill="red" stroke="none" /><path d="M 105.71112130821622 79.79150937346287 l 7.613900267256251 -26.941369982962946 a48.99658718198741,48.99658718198741 0 0,0 0.8096330976341224,0.23635410280075034 l -8.0765235826138 26.80631755124349" fill="red" stroke="none" /><path d="M 106.40334571778207 80.00007090966166 l 6.416968649900391 -20.042478358857814 a42.0446768903466,42.0446768903466 0 0,0 0.6873647528439641,0.22661335199724233 l -6.761016224986772 19.929051282601336" fill="red" stroke="none" /><path d="M 108.09893153111575 80.62456947434976 l 9.004237147704433 -21.541233015929908 a44.3473982802943,44.3473982802943 0 0,0 0.7017790832516018,0.3004651790924948 l -9.37369998874635 21.383048308874624" fill="red" stroke="none" /><line stroke="#e1ed5e" stroke-width="0.3" x1="143.23703022742887" x2="145.7803849466894" y1="26.81831364943548" y2="22.513508569990506" /><path d="M 143.74570117128098 25.957352633546492 a86.0,86.0 0 0,1 28.547481713284135,27.462654790039103" fill="none" id="id38" stroke="none" /><text fill="#e1ed5e" style="font-size:6.75px; font-family:Arial;" text-anchor="middle"><textPath startOffset="19.985693538727396" xlink:href="#id38">February</textPath></text><path d="M 113.34407831869373 83.78471172551755 l 15.958540609615879 -19.39229748542783 a46.11446237035724,46.11446237035724 0 0,0 0.6085845563393764,0.5096720639793421 l -16.289982702914372 19.11472426405467" fill="red" stroke="none" /><path d="M 114.16331599549186 84.49514656593476 l 15.73865690014068 -17.22940931088408 a44.335763673433206,44.335763673433206 0 0,0 0.5590362231742826,0.5195632434719267 l -16.03290100710981 16.95594148133751" fill="red" stroke="none" /><path d="M 114.94478906791727 85.2469230424477 l 21.584893580431082 -21.30800205111595 a51.33048931832285,51.33048931832285 0 0,0 0.6153199296679857,0.6341412756716834 l -21.94847777380218 20.93329657989415" fill="red" stroke="none" /><path d="M 115.4437574822437 85.77008943001954 l 18.250219926938275 -16.815790958993848 a45.81615105043879,45.81615105043879 0 0,0 0.5294085911850129,0.5845861891429713 l -18.536972158739324 16.499151982581328" fill="red" stroke="none" /><path d="M 116.60985879189232 87.15038557335679 l 25.849009923806538 -19.99714837994399 a53.68114528853825,53.68114528853825 0 0,0 0.5591122871870613,0.7357262315325445 l -26.189398151217713 19.549237372530413" fill="red" stroke="none" /><path d="M 117.04232023915458 87.72973835380427 l 30.303710864042326 -21.818300321465458 a58.341038028543565,58.341038028543565 0 0,0 0.5797637325761332,0.8200346842457689 l -30.674787216422345 21.293439136887894" fill="red" stroke="none" /><path d="M 117.65298651832404 88.62581576622439 l 27.415646711675166 -17.66446806397396 a53.6136645687439,53.6136645687439 0 0,0 0.4931752599432046,0.7800848249352961 l -27.715649567864325 17.189935591324456" fill="red" stroke="none" /><line stroke="#e1ed5e" stroke-width="0.3" x1="172.23445277983987" x2="176.4835382374775" y1="55.19839476539836" y2="52.563006222186495" /><path d="M 173.08426987136738 54.67131705675599 a86.0,86.0 0 0,1 12.851231095245387,41.99856678651699" fill="none" id="id39" stroke="none" /><text fill="#e1ed5e" style="font-size:6.75px; font-family:Arial;" text-anchor="middle"><textPath startOffset="22.20632615414155" xlink:href="#id39">March</textPath></text><path d="M 117.84615892207809 88.93136811851018 l 7.7401643529826725 -4.800642552801993 a30.108035635138727,30.108035635138727 0 0,0 0.26937258287990296,0.44277769950287793 l -7.821652734148799 4.666697080092034" fill="red" stroke="none" /><path d="M 118.03404312379186 89.2402003453031 l 12.39171042230942 -7.3933682318396405 a35.42970481340306,35.42970481340306 0 0,0 0.3079690404789908,0.5264189198098118 l -12.517139137258738 7.178969899675933" fill="red" stroke="none" /><path d="M 118.3937258080291 89.86733742301442 l 20.826846749171857 -11.473010571889121 a44.777878734154775,44.777878734154775 0 0,0 0.36609519584914835,0.6783187976841774 l -21.02125004423947 11.112810790872485" fill="red" stroke="none" /><path d="M 118.89224826269711 90.83032412892265 l 25.14807606034848 -12.206048906837417 a48.95377182873859,48.95377182873859 0 0,0 0.3614229144088659,0.761248832079859 l -25.3544571685991 11.771357659117017" fill="red" stroke="none" /><path d="M 119.196687751892 91.48605970444005 l 21.30379692738888 -9.448466186081802 a44.305048311319915,44.305048311319915 0 0,0 0.30319271634312006,0.6998105916188908 l -21.46328035357468 9.080356449876309" fill="red" stroke="none" /><path d="M 119.47837535516314 92.15188598940014 l 22.476277066926443 -9.056011178484255 a45.23209378601187,45.23209378601187 0 0,0 0.28476069289841077,0.7246849030929001 l -22.628831309706552 8.66777727049557" fill="red" stroke="none" /><path d="M 119.7369772167798 92.82701384747503 l 27.543589426802978 -10.01013394195555 a50.306178530272135,50.306178530272135 0 0,0 0.288774039907429,0.8164030975487251 l -27.71181654752022 9.53453321798021" fill="red" stroke="none" /><path d="M 120.28053869075195 94.5502522615342 l 24.750221282710285 -6.650832333338643 a46.62824660934314,46.62824660934314 0 0,0 0.2016198014564037,0.7769233409047076 l -24.861037416036993 6.223812566885085" fill="red" stroke="none" /><line stroke="#e1ed5e" stroke-width="0.3" x1="184.98032266829074" x2="189.97916517819016" y1="98.17113171792111" y2="98.06355123074" /><path d="M 185.9800911702706 98.14961562048488 a86.0,86.0 0 0,1 -9.607161424134198,41.387399972396054" fill="none" id="id40" stroke="none" /><text fill="#e1ed5e" style="font-size:6.75px; font-family:Arial;" text-anchor="middle"><textPath startOffset="21.466115282336823" xlink:href="#id40">April</textPath></text><path d="M 120.76222939487914 103.15116336523771 l 52.28424813465787 7.9353813199640095 a73.8830112578672,73.8830112578672 0 0,0 -0.20165926608600593,1.2557324424163605 l -52.13990711421058 -8.834192992073575" fill="red" stroke="none" /><path d="M 120.49622156327973 104.57218783832717 l 28.85613996307061 6.43707386714579 a50.56539757113731,50.56539757113731 0 0,0 -0.19681842766482677,0.8478886351632474 l -28.74106096947523 -6.932831159657602" fill="red" stroke="none" /><path d="M 120.23288151984713 105.62410040840565 l 11.379538606776887 3.163151410888379 a32.81098750110806,32.81098750110806 0 0,0 -0.155941816364226,0.5428539204082187 l -11.323404153526562 -3.3585628068011797" fill="red" stroke="none" /><path d="M 118.64920377521936 109.65438752849418 l 24.831577662142198 12.854901291430634 a48.96168336140413,48.96168336140413 0 0,0 -0.3939025522379149,0.7451151827815146 l -24.60662260167939 -13.280431489298284" fill="red" stroke="none" /><line stroke="#e1ed5e" stroke-width="0.3" x1="174.80103733775053" x2="179.2010983576182" y1="140.37084112569926" y2="142.7455964860345" /><path d="M 175.68104954172406 140.8457921977663 a86.0,86.0 0 0,1 -30.038265399797805,32.042727171017184" fill="none" id="id41" stroke="none" /><text fill="#e1ed5e" style="font-size:6.75px; font-family:Arial;" text-anchor="middle"><textPath startOffset="22.206326154141568" xlink:href="#id41">May</textPath></text><path d="M 117.55443506779139 111.5257021239791 l 14.801683039165999 9.718329811478522 a38.70694087403599,38.70694087403599 0 0,0 -0.37047499593962213,0.5538098522222018 l -14.632204937815656 -9.97167657790653" fill="red" stroke="none" /><path d="M 116.93607887273984 112.41649034213515 l 18.84647337372037 13.817073974824346 a44.368805956918706,44.368805956918706 0 0,0 -0.4568692570654931,0.6120510303461777 l -18.60584284995979 -14.139437884679838" fill="red" stroke="none" /><path d="M 116.498646956653 112.99209946851258 l 11.997752886171694 9.447804980936343 a36.271119581597375,36.271119581597375 0 0,0 -0.39048811652931464,0.48719396566302475 l -11.833346857587525 -9.652926780177618" fill="red" stroke="none" /><path d="M 116.0416608686014 113.55231037782055 l 17.793573481855265 15.032360584847845 a44.29341370445882,44.29341370445882 0 0,0 -0.49705117695885914,0.5781828120335611 l -17.53217979532563 -15.336420496042935" fill="red" stroke="none" /><path d="M 115.56566222782051 114.09645910891815 l 17.263176274073167 15.633749138059772 a44.290156014537715,44.290156014537715 0 0,0 -0.5166206098186139,0.5606896381484745 l -16.99150925625883 -15.92859003100958" fill="red" stroke="none" /><path d="M 115.07121518719521 114.62390073753431 l 6.705962648003395 6.506929328255783 a30.34398546228171,30.34398546228171 0 0,0 -0.36695902768214184,0.37172755765164217 l -6.592962995265718 -6.62139737988809" fill="red" stroke="none" /><path d="M 114.55890576462653 115.13401014063108 l 16.159533623378245 16.79786583400203 a44.30877138551547,44.30877138551547 0 0,0 -0.5542060221497561,0.5240363857383558 l -15.86799176683768 -17.07353685648631" fill="red" stroke="none" /><path d="M 113.75828350139079 115.86535959552629 l 14.994041036873831 17.290372946307862 a43.88620246432053,43.88620246432053 0 0,0 -0.5749813999935259,0.49001162302956053 l -14.694194160303258 -17.545908959560368" fill="red" stroke="none" /><path d="M 113.20401910651253 116.32954008644616 l 16.22996453644884 20.071756513047077 a46.81253878202287,46.81253878202287 0 0,0 -0.6309494451966663,0.5012643986379395 l -15.882057598534821 -20.34815482569014" fill="red" stroke="none" /><path d="M 112.92097659922987 116.55440617244103 l 10.184675464972266 13.048646368703636 a37.55278787341548,37.55278787341548 0 0,0 -0.5129912383743243,0.39333980651683687 l -9.958555498104447 -13.222025517047845" fill="red" stroke="none" /><path d="M 112.34349029814194 116.9893568818739 l 17.416127566308415 23.971243106886515 a50.63008598528499,50.63008598528499 0 0,0 -0.7094786044824073,0.5061941464729124 l -17.00092163397712 -24.267481515203645" fill="red" stroke="none" /><path d="M 111.45004920935366 117.60387380957326 l 13.195570185134715 20.287524371049514 a45.20137842389859,45.20137842389859 0 0,0 -0.6558896465869113,0.41861980479633715 l -12.844398736500873 -20.511658604669663" fill="red" stroke="none" /><path d="M 111.1453310114006 117.79835938074945 l 3.1916489524270593 5.096853114042295 a27.013695594362204,27.013695594362204 0 0,0 -0.3962276252266911,0.24339536952575047 l -3.1034421272680595 -5.151036950396423" fill="red" stroke="none" /><line stroke="#e1ed5e" stroke-width="0.3" x1="143.8653032363475" x2="146.44561519142675" y1="172.8068346515853" y2="177.08958963109032" /><path d="M 144.38136562736335 173.6633856474863 a86.0,86.0 0 0,1 -40.68145358897372,12.25698825130547" fill="none" id="id42" stroke="none" /><text fill="#e1ed5e" style="font-size:6.75px; font-family:Arial;" text-anchor="middle"><textPath startOffset="21.466115282336833" xlink:href="#id42">June</textPath></text><path d="M 110.5260780823613 118.17145234162733 l 15.200576768037157 26.241165431643054 a51.3258354755784,51.3258354755784 0 0,0 -0.7683018890737017,0.43626186406364265 l -14.746626112042257 -26.498930461501327" fill="red" stroke="none" /><path d="M 109.2508944713604 118.85261126421891 l 8.081719505263234 16.469922627576757 a39.345913482847266,39.345913482847266 0 0,0 -0.6105873700008936,0.29311904293379787 l -7.797019467262107 -16.606595947010113" fill="red" stroke="none" /><path d="M 108.2653958097858 119.30500536409082 l 9.177952363379298 21.43641075199749 a44.31854445527879,44.31854445527879 0 0,0 -0.7038809261602867,0.29422228422143326 l -8.80759997772155 -21.591218079238896" fill="red" stroke="none" /><path d="M 106.91757812671514 119.82793768551818 l 9.232584493427426 26.463468378475593 a49.02776792837514,49.02776792837514 0 0,0 -0.7992232804005867,0.2711399298215946 l -8.775691480089613 -26.61847129519531" fill="red" stroke="none" /><path d="M 105.88484417918355 120.15858648285463 l 6.546178387867173 22.42399274237408 a44.35996365570428,44.35996365570428 0 0,0 -0.7348308923729518,0.20767055021198705 l -6.159216327389616 -22.533352085924587" fill="red" stroke="none" /><path d="M 104.83641907484287 120.43548508189849 l 5.474786950247619 23.132802455087653 a44.771828738587004,44.771828738587004 0 0,0 -0.7514841669135958,0.17103534976714052 l -5.075782633941162 -23.22361453843248" fill="red" stroke="none" /><path d="M 104.13013068566511 120.58985236759428 l 3.671023879546496 18.301077004686444 a39.665632479390126,39.665632479390126 0 0,0 -0.6705992437466646,0.12852194110370013 l -3.3554570212281267 -18.361556144138614" fill="red" stroke="none" /><path d="M 103.06178313531738 120.77559828337769 l 4.086086792146363 27.72596686076156 a49.025441007002925,49.025441007002925 0 0,0 -0.83593374900307,0.11585280056615713 l -3.608224451956462 -27.79219422682032" fill="red" stroke="none" /><path d="M 101.62511606390274 120.93702456842531 l 1.299509417024251 16.742103038349676 a37.79246077475401,37.79246077475401 0 0,0 -0.6490175579608501,0.044760050679594696 l -1.0111290982844705 -16.761991433545557" fill="red" stroke="none" /><line stroke="#e1ed5e" stroke-width="0.3" x1="102.19456741930631" x2="102.32365962044197" y1="184.97166512339345" y2="189.96999836594603" /><path d="M 102.22038585953345 185.97133177190398 a86.0,86.0 0 0,1 -42.740103519485714,-10.115201625700543" fill="none" id="id43" stroke="none" /><text fill="#e1ed5e" style="font-size:6.75px; font-family:Arial;" text-anchor="middle"><textPath startOffset="22.20632615414155" xlink:href="#id43">July</textPath></text><path d="M 96.22490169976321 120.6578951692458 l -1.3968800708947295 7.643933951797209 a28.770521230387377,28.770521230387377 0 0,0 -0.48640318011619627,-0.09322032711859214 l 1.528250865582621 -7.618756426330148" fill="red" stroke="none" /><path d="M 95.86986931433489 120.58985236759428 l -1.8388069646975418 9.166965119780361 a30.349570073575038,30.349570073575038 0 0,0 -0.5113303349513335,-0.10715424326077792 l 1.9963287610782618 -9.13395489579304" fill="red" stroke="none" /><path d="M 95.51606077576429 120.51570834832081 l -2.3240486343503433 10.633396570572806 a31.884407410690542,31.884407410690542 0 0,0 -0.5351719600389193,-0.12180339573454317 l 2.506740743782125 -10.591816441260576" fill="red" stroke="none" /><path d="M 94.46302465271185 120.25689768951611 l -3.1678949681087256 11.589671297984161 a33.01482581331442,33.01482581331442 0 0,0 -0.5468966138527298,-0.15455844587740347 l 3.3669227500660694 -11.533424058768237" fill="red" stroke="none" /><path d="M 93.76903079525671 120.05430185196036 l -6.91338764747535 22.250657665992545 a44.29992908430104,44.29992908430104 0 0,0 -0.7262628570338043,-0.2325264321971131 l 7.2953718496000945 -22.128358387135727" fill="red" stroke="none" /><path d="M 93.08242187328487 119.8279376855182 l -4.954245464077933 14.20041357554497 a36.039823597198826,36.039823597198826 0 0,0 -0.5839831908800934,-0.20939559512287534 l 5.197948215587753 -14.113030439382136" fill="red" stroke="none" /><path d="M 91.07499286063937 119.00905698771935 l -6.2283590731864695 13.265561664375547 a35.65495080223384,35.65495080223384 0 0,0 -0.5533093709296484,-0.2656221226013325 l 6.455781112116361 -13.15638526527465" fill="red" stroke="none" /><path d="M 90.10565033884886 118.52300852407294 l -7.738484802795538 14.48705825794659 a37.424341813669,37.424341813669 0 0,0 -0.5656015415471014,-0.30841105726634765 l 7.986709156211281 -14.351706548920475" fill="red" stroke="none" /><line stroke="#e1ed5e" stroke-width="0.3" x1="58.666819895761336" x2="56.23545636021788" y1="174.27360380694188" y2="178.64263932499728" /><path d="M 58.180547188652646 175.14741091055294 a86.0,86.0 0 0,1 -31.652253787137756,-30.449443065178592" fill="none" id="id44" stroke="none" /><text fill="#e1ed5e" style="font-size:6.75px; font-family:Arial;" text-anchor="middle"><textPath startOffset="22.20632615414155" xlink:href="#id44">August</textPath></text><path d="M 89.7882731507175 118.34994917583269 l -5.333298613975723 9.583663953258778 a31.967711195815973,31.967711195815973 0 0,0 -0.47852806824340377,-0.27172072596402924 l 5.4974754491403335 -9.490440061500115" fill="red" stroke="none" /><path d="M 89.1626897886671 117.98757091392108 l -10.635809828669395 17.653124233733603 a41.60954259374169,41.60954259374169 0 0,0 -0.6103145047702379,-0.37490501660627473 l 10.938103533371942 -17.46743075029895" fill="red" stroke="none" /><path d="M 88.54995079064634 117.60387380957326 l -8.96054400607008 13.776384979998683 a37.43411488343232,37.43411488343232 0 0,0 -0.5371355211739584,-0.3559841343293507 l 9.196354225984 -13.620102824578014" fill="red" stroke="none" /><path d="M 87.65650970185807 116.9893568818739 l -9.797871099611024 13.485612640611636 a37.66913394202642,37.66913394202642 0 0,0 -0.5212960226128129,-0.3856423351011835 l 10.028552092642402 -13.314960356770685" fill="red" stroke="none" /><path d="M 85.18274418774928 114.88116024355367 l -13.243718673426471 13.300836693178931 a39.76987855686552,39.76987855686552 0 0,0 -0.4809492142818533,-0.48719901485658007 l 13.470708512763858 -13.070897184341685" fill="red" stroke="none" /><path d="M 84.67929136418377 114.36230785411682 l -12.500277675845362 11.718311503080821 a38.13405283219572,38.13405283219572 0 0,0 -0.4448130104250946,-0.48275667117992765 l 12.700137094266186 -11.501403577099548" fill="red" stroke="none" /><path d="M 83.95833913139862 113.55231037782056 l -19.519534467518312 16.490486346844108 a46.55285435688325,46.55285435688325 0 0,0 -0.511868585113236,-0.616578685170937 l 19.800499052525083 -16.15204640455941" fill="red" stroke="none" /><path d="M 83.50135304334701 112.99209946851258 l -15.445635183867761 12.162890035188493 a40.65969328960198,40.65969328960198 0 0,0 -0.42826890331734324,-0.5535952887668056 l 15.652710904403172 -11.895216752308434" fill="red" stroke="none" /><path d="M 83.06392112726016 112.41649034213515 l -16.404621384844265 12.02685843174459 a41.34101586738764,41.34101586738764 0 0,0 -0.41581228356728206,-0.5775268939048952 l 16.609213460787156 -11.742697932388555" fill="red" stroke="none" /><path d="M 82.6465618267979 111.8261652097733 l -15.899370498951653 10.835235091473661 a40.240382058328166,40.240382058328166 0 0,0 -0.3851519919433201,-0.575749969846762 l 16.083525596305705 -10.559948207421078" fill="red" stroke="none" /><path d="M 82.05923443525364 110.91462005526583 l -18.601954580218692 11.316867487938179 a42.773934048399965,42.773934048399965 0 0,0 -0.3772643146374393,-0.632316691535184 l 18.79399977055436 -10.994988702516883" fill="red" stroke="none" /><line stroke="#e1ed5e" stroke-width="0.3" x1="26.63291911575756" x2="22.317208475507996" y1="142.92168965132927" y2="145.44649492493687" /><path d="M 25.769776987707644 143.4266507060508 a86.0,86.0 0 0,1 -11.730757126820373,-40.83630448921669" fill="none" id="id45" stroke="none" /><text fill="#e1ed5e" style="font-size:6.75px; font-family:Arial;" text-anchor="middle"><textPath startOffset="21.46611528233685" xlink:href="#id45">September</textPath></text><path d="M 81.69416730710424 110.29060199501025 l -15.772776684243128 8.86664758368049 a39.09414059037319,39.09414059037319 0 0,0 -0.3247114462466715,-0.5894455937529766 l 15.923064539941317 -8.59383147152969" fill="red" stroke="none" /><path d="M 81.18737489456691 109.33194174019688 l -22.418475529528706 11.120612161945015 a46.025108589664036,46.025108589664036 0 0,0 -0.3459482621348759,-0.7127558864883705 l 22.6065770482783 -10.73306731949136" fill="red" stroke="none" /><path d="M 80.87730276802145 108.67885076344099 l -16.931325292732 7.6842949328906585 a39.59349791685135,39.59349791685135 0 0,0 -0.27632286220895536,-0.6230351071760243 l 17.06108923967224 -7.391711489221938" fill="red" stroke="none" /><path d="M 80.58989483394504 108.01547362559985 l -6.254816488334479 2.5829492507279355 a27.76715273468664,27.76715273468664 0 0,0 -0.1786318925700948,-0.443349707864086 l 6.298350995161962 -2.474900175021044" fill="red" stroke="none" /><path d="M 80.45479744820244 107.68017299344265 l -19.262792480355046 7.569201608110574 a41.696569453062665,41.696569453062665 0 0,0 -0.2567430929336929,-0.6702751995837334 l 19.390229852882246 -7.236502841693683" fill="red" stroke="none" /><path d="M 79.97269907076064 106.31721596034903 l -15.808270643064612 4.986406304310606 a37.57605708713767,37.57605708713767 0 0,0 -0.18926384926668788,-0.6185252101365695 l 15.891761264837431 -4.713554121621988" fill="red" stroke="none" /><path d="M 79.67330655649465 105.27499134158121 l -24.007877266311958 6.230297370377453 a45.803120290754364,45.803120290754364 0 0,0 -0.19147598721479345,-0.7648513883190473 l 24.111564567821812 -5.816118142661014" fill="red" stroke="none" /><path d="M 79.50377843672027 104.57218783832718 l -16.496814798261603 3.680021498541901 a37.90229146352274,37.90229146352274 0 0,0 -0.13656730086351768,-0.6379969640388568 l 16.55771613784956 -3.39551071508688" fill="red" stroke="none" /><path d="M 79.35854240842038 103.8639653848113 l -18.87437243343158 3.5331769289668213 a40.20222054782377,40.20222054782377 0 0,0 -0.12147494855352324,-0.6812960224694472 l 18.932393824324294 -3.2077621557641605" fill="red" stroke="none" /><path d="M 79.1416061653843 102.43462659150553 l -21.897523108177786 2.5559154971367795 a43.04618384894955,43.04618384894955 0 0,0 -0.07956922791327685,-0.7367122287683979 l 21.938274637592116 -2.1786069464835993" fill="red" stroke="none" /><path d="M 79.07016306316243 101.71520430193888 l -20.72899881535786 1.6987455779175278 a41.79848860916586,41.79848860916586 0 0,0 -0.052593329127797205,-0.7175941903542117 l 20.75516870314999 -1.3416782510665555" fill="red" stroke="none" /><line stroke="#e1ed5e" stroke-width="0.3" x1="15.007084014347285" x2="10.007500721073583" y1="101.09737516637583" y2="101.16192664675087" /><path d="M 14.007167355692545 101.11028546245083 a86.0,86.0 0 0,1 10.666146001902534,-42.60595125391555" fill="none" id="id46" stroke="none" /><text fill="#e1ed5e" style="font-size:6.75px; font-family:Arial;" text-anchor="middle"><textPath startOffset="22.20632615414155" xlink:href="#id46">October</textPath></text><path d="M 79.12142395522702 97.74499172005258 l -17.143252394177907 -1.8515714870209201 a38.24295275241556,38.24295275241556 0 0,0 0.07632136428353162,-0.6538748405095843 l 17.108840676890786 2.1463900658553663" fill="red" stroke="none" /><path d="M 79.21141760316559 97.0276538004421 l -34.39947412478575 -4.918428021199129 a55.7493130041663,55.7493130041663 0 0,0 0.1440034131087472,-0.94880256910572 l 34.309714818237694 5.509829702696941" fill="red" stroke="none" /><path d="M 79.32604984820605 96.31383870115002 l -12.498109347371393 -2.2284104705107852 a33.69521762255119,33.69521762255119 0 0,0 0.10672442894588886,-0.5701261669505662 l 12.457899194515644 2.4432147149239243" fill="red" stroke="none" /><path d="M 79.54389044137918 95.25157060432595 l -20.361363372605588 -4.726436182667757 a41.90273468664125,41.90273468664125 0 0,0 0.16914178480002878,-0.7012018953687521 l 20.276988787544745 5.076223309695906" fill="red" stroke="none" /><path d="M 79.91906864156998 93.8553929516997 l -12.856086029910577 -3.9338612050870387 a34.444486304405636,34.444486304405636 0 0,0 0.17836423809644375,-0.5654633771891185 l 12.786466308045929 4.154574748702571" fill="red" stroke="none" /><path d="M 80.2630227832202 92.82701384747504 l -19.97142052384908 -7.25818960474004 a42.24944597110185,42.24944597110185 0 0,0 0.2542921956712224,-0.6813766582733859 l 19.84352373967623 7.600889400042767" fill="red" stroke="none" /><path d="M 80.52162464483688 92.15188598940014 l -19.086856729883163 -7.6903655971698806 a41.57789646307951,41.57789646307951 0 0,0 0.2731832388950454,-0.6615348816844853 l 18.951651804101918 8.017775049307676" fill="red" stroke="none" /><path d="M 80.65960295795068 91.81776055985345 l -21.47185246466503 -9.083983007557425 a44.314355996808786,44.314355996808786 0 0,0 0.30325641162286354,-0.6999576091064494 l 21.312305343199487 9.452239761250473" fill="red" stroke="none" /><path d="M 81.10775173730289 90.83032412892265 l -5.4264344857020035 -2.633812803940993 a27.031845581065507,27.031845581065507 0 0,0 0.20678072971370043,-0.4168573331716563 l 5.3802937430348905 2.726829725611611" fill="red" stroke="none" /><path d="M 81.6062741919709 89.86733742301443 l -25.679636966009614 -14.14629636169083 a50.31827852140768,50.31827852140768 0 0,0 0.42445231158983715,-0.7550533006566621 l 25.432327013127345 14.586233172282276" fill="red" stroke="none" /><line stroke="#e1ed5e" stroke-width="0.3" x1="26.266209847984243" x2="21.928928074336255" y1="57.711370442889674" y2="55.22380399835377" /><path d="M 25.398753493254645 57.213857153982495 a86.0,86.0 0 0,1 29.58750427330803,-30.492523968695096" fill="none" id="id47" stroke="none" /><text fill="#e1ed5e" style="font-size:6.75px; font-family:Arial;" text-anchor="middle"><textPath startOffset="21.46611528233685" xlink:href="#id47">November</textPath></text><path d="M 81.96595687620814 89.24020034530311 l -34.907887081100974 -20.827380126750736 a61.64898945128978,61.64898945128978 0 0,0 0.5515652937865244,-0.9066283186559714 l 34.544205989028235 21.42517621861378" fill="red" stroke="none" /><path d="M 82.34701348167596 88.62581576622439 l -12.54847078188463 -8.085239196050578 a35.927665987057885,35.927665987057885 0 0,0 0.3394366578842425,-0.5169853173682322 l 12.407437488642469 8.300042577396477" fill="red" stroke="none" /><path d="M 83.17141714833178 87.43820079747576 l -22.408523828236333 -16.726980473425918 a48.96307951422746,48.96307951422746 0 0,0 0.5099715966895999,-0.6710628430448806 l 22.117276291322625 17.110228092351825" fill="red" stroke="none" /><path d="M 83.39014120810768 87.1503855733568 l -43.645234616023956 -33.76455172816044 a76.18107880507047,76.18107880507047 0 0,0 0.8113136862239586,-1.0302859913096325 l 43.057566849206026 34.51083011342312" fill="red" stroke="none" /><path d="M 83.84228863543731 86.58626213691792 l -12.35353785296988 -10.255605803482222 a37.05575746830955,37.05575746830955 0 0,0 0.4116530917405643,-0.4872674185517968 l 12.175174147742192 10.466732171663136" fill="red" stroke="none" /><path d="M 84.5562425177563 85.77008943001954 l -22.09952274589926 -20.362546658412565 a51.05032798510771,51.05032798510771 0 0,0 0.6010147286687979,-0.6411206080037739 l 21.745740695260007 20.73993668329439" fill="red" stroke="none" /><path d="M 85.05521093208273 85.24692304244772 l -36.01831941989202 -35.5562755598946 a71.61193599858169,71.61193599858169 0 0,0 0.8735435373117265,-0.869792263751288 l 35.40094008241298 36.171003674296" fill="red" stroke="none" /><path d="M 85.57189188830299 84.74124197986013 l -9.256575876110906 -9.789492170087959 a34.472874745146704,34.472874745146704 0 0,0 0.4346735931162979,-0.40398173236208135 l 9.086694399199754 9.947378488524688" fill="red" stroke="none" /><path d="M 86.37877921826538 84.01681056812374 l -31.453416430617484 -36.90755191079341 a69.49211062849037,69.49211062849037 0 0,0 0.917105461975705,-0.7680494498635125 l 30.813453431682667 37.443502518050735" fill="red" stroke="none" /><path d="M 88.70189139769569 82.29822771554957 l -12.583304760792657 -19.715405764108347 a44.388817480719794,44.388817480719794 0 0,0 0.6476135011874647,-0.4055355150314155 l 12.24207210723295 19.929085620462693" fill="red" stroke="none" /><line stroke="#e1ed5e" stroke-width="0.3" x1="56.762969772571076" x2="54.21961505331055" y1="26.818313649435495" y2="22.513508569990535" /><path d="M 56.25429882871897 25.957352633546506 a86.0,86.0 0 0,1 42.265352541879196,-11.944610805530505" fill="none" id="id48" stroke="none" /><text fill="#e1ed5e" style="font-size:6.75px; font-family:Arial;" text-anchor="middle"><textPath startOffset="22.20632615414155" xlink:href="#id48">December</textPath></text><path d="M 89.3179101791058 81.91981866633112 l -21.29931631825935 -36.05057697268689 a62.8724847088024,62.8724847088024 0 0,0 0.9365104121398851,-0.5424872782758487 l 20.675609173654145 36.41186840835278" fill="red" stroke="none" /><path d="M 90.26544431104013 81.39251694778311 l -2.171528179351789 -4.150849313084286 a25.68455810655084,25.68455810655084 0 0,0 0.3935112953190349,-0.20157176952404127 l 2.0997563964439903 4.187613607920832" fill="red" stroke="none" /><path d="M 90.58718382345135 81.22770947309562 l -7.455115622145017 -14.867983581708977 a37.63236858434536,37.63236858434536 0 0,0 0.5815611855273451,-0.28536954804576875 l 7.198083169607247 14.994108289889576" fill="red" stroke="none" /><path d="M 90.91171255644093 81.06846463323043 l -25.542631457308843 -53.20707930921643 a80.02049906923145,80.02049906923145 0 0,0 1.2468786113396157,-0.5854262268407919 l 24.622974634669617 53.63887051869723" fill="red" stroke="none" /><path d="M 91.56875222667455 80.76684994638697 l -5.943390666202225 -13.55791308517367 a35.8034083857814,35.8034083857814 0 0,0 0.5665740063362782,-0.24257742122238657 l 5.7091329020756385 13.658210034358842" fill="red" stroke="none" /><path d="M 92.23578459929587 80.48803036053334 l -17.45933287628421 -43.876419628505495 a68.22254232780782,68.22254232780782 0 0,0 1.0948640614758762,-0.42479024611888344 l 16.701485649808657 44.170452578514926" fill="red" stroke="none" /><path d="M 92.91201910852362 80.23233633223022 l -5.891361832189371 -16.430413826863166 a38.45470259728747,38.45470259728747 0 0,0 0.6250134297546922,-0.21805491318101905 l 5.607666398371394 16.529389593216393" fill="red" stroke="none" /><path d="M 93.59665428221793 80.00007090966166 l -18.379889727386097 -57.40694122060994 a81.27750199450404,81.27750199450404 0 0,0 1.336103931335034,-0.4151339952864661 l 17.389000423340335 57.714815350778935" fill="red" stroke="none" /><path d="M 95.33964822691252 79.52364482259891 l -4.9701881200261955 -21.83769427704215 a43.39615282333126,43.39615282333126 0 0,0 0.7297936720621504,-0.1595046301204787 l 4.593551723810524 21.920012405258497" fill="red" stroke="none" /><path d="M 96.04723909329186 79.375362276772 l -10.74631687157923 -56.0719197458152 a78.09241202021096,78.09241202021096 0 0,0 1.3223829866300036,-0.24165703834730437 l 9.779538763846332 56.24859226551324" fill="red" stroke="none" /><path d="M 96.75951476605007 79.25152402106235 l -2.9323360862928167 -18.775430361846485 a40.003036078361845,40.003036078361845 0 0,0 0.6812536466025759,-0.10039907864940147 l 2.6087134592615917 18.823123924656855" fill="red" stroke="none" /><path d="M 97.83486435360386 79.11191278185805 l -2.179194345633669 -21.023718136387565 a42.13635759241202,42.13635759241202 0 0,0 0.72208649206903,-0.0685708131825866 l 1.8169827264744025 21.058114494085334" fill="red" stroke="none" /><path d="M 98.55514903715128 79.0497635885617 l -4.334552888546145 -62.8507092343149 a84.0,84.0 0 0,0 1.4433518046415081,-0.08706692247877434 l 3.2520390350650135 62.91600942617398" fill="red" stroke="none" /><path d="M 99.27714615592234 79.0124445844662 l -0.9534513328973131 -27.682792101257782 a48.69920663061785,48.69920663061785 0 0,0 0.8380283887355349,-0.02164380085646352 l 0.47679630896689923 27.695102694256608" fill="red" stroke="none" /></svg>