<?xml version="1.0" encoding="utf-8" ?>
<svg baseProfile="full" height="200mm" version="1.1" viewBox="0,0,200,200" width="200mm" xmlns="http://www.w3.org/2000/svg" xmlns:ev="http://www.w3.org/2001/xml-events" xmlns:xlink="http://www.w3.org/1999/xlink"><defs /><rect fill="#1a1a1a" height="200" width="200" x="0" y="0" /><text alignment-baseline="middle" fill="#e1ed5e" style="dominant-baseline: central; font-size:9.0px; font-family:Arial;" text-anchor="middle" x="100.0" y="100.0">2023</text><line stroke="#e1ed5e" stroke-width="0.3" x1="100.0" x2="100.0" y1="15.0" y2="10.0" /><path d="M 100.0 14.0 a86.0,86.0 0 0,1 42.46469731375804,11.215312516191453" fill="none" id="id13" stroke="none" /><text fill="#e1ed5e" style="font-size:6.75px; font-family:Arial;" text-anchor="middle"><textPath startOffset="22.20632615414155" xlink:href="#id13">January</textPath></text><path d="M 102.16513564639614 79.11191278185805 l 1.9154034744875026 -18.478802886840942 a39.57780736795384,39.57780736795384 0 0,0 0.6770317242212924,0.07607240276817553 l -2.23320190221852 18.443094530602163" fill="#ff950d" stroke="none" /><path d="M 102.88285421437855 79.19881850522331 l 3.30673060411808 -23.859653779065635 a45.087705281846425,45.087705281846425 0 0,0 0.7678458100037628,0.11316051261323432 l -3.7169453945504984 23.799198782291434" fill="#ffe715" stroke="none" /><path d="M 105.01212808612495 79.60689891045804 l 6.2000892037417845 -25.22661905750264 a46.977363515312916,46.977363515312916 0 0,0 0.7836072796393581,0.19975894332397073 l -6.633405372066168 25.1161571180098" fill="#fdff18" stroke="none" /><path d="M 106.74666289553966 80.11325718540242 l 9.121719811303382 -26.88755888991249 a49.39272081668886,49.39272081668886 0 0,0 0.8027916420483079,0.2800782406835551 l -9.583193457414964 26.72655979605673" fill="#dbff1b" stroke="none" /><path d="M 110.36928655335952 81.73862282372117 l 14.137146854447106 -24.89696562796411 a49.63071460275189,49.63071460275189 0 0,0 0.7392690332295969,0.4282323405609334 l -14.563612620142031 24.649929130013128" fill="#d8ff1c" stroke="none" /><line stroke="#e1ed5e" stroke-width="0.3" x1="143.23703022742887" x2="145.7803849466894" y1="26.81831364943548" y2="22.513508569990506" /><path d="M 143.74570117128098 25.957352633546492 a86.0,86.0 0 0,1 28.547481713284135,27.462654790039103" fill="none" id="id14" stroke="none" /><text fill="#e1ed5e" style="font-size:6.75px; font-family:Arial;" text-anchor="middle"><textPath startOffset="19.985693538727396" xlink:href="#id14">February</textPath></text><path d="M 111.90073688211348 82.69761687909136 l 25.54247814786857 -37.13599814445885 a66.07217043941411,66.07217043941411 0 0,0 0.9315196289158152,0.6525890295532916 l -26.177928916368035 36.690824272141626" fill="#33ff55" stroke="none" /><path d="M 113.34407831869373 83.78471172551755 l 23.952610710714566 -29.10643045736512 a58.69498446515757,58.69498446515757 0 0,0 0.7746129791819101,0.6487160933881344 l -24.450081226855595 28.689813206583167" fill="#65ff29" stroke="none" /><path d="M 113.89432698308785 84.25364557470407 l 12.254307147741274 -13.887730137605294 a39.521260541500226,39.521260541500226 0 0,0 0.5062278496199863,0.4544963616885313 l -12.491545984957252 13.674734767147465" fill="#ff940d" stroke="none" /><path d="M 115.19652480421416 85.50635884689758 l 22.69743411799124 -21.647611505962345 a52.365468264536176,52.365468264536176 0 0,0 0.6164978550148578,0.6576369276599925 l -23.06669929497656 21.253705161424296" fill="#b4ff20" stroke="none" /><path d="M 116.38621287248628 86.86637796730983 l 24.537377973813914 -19.66681688374964 a52.44624944518421,52.44624944518421 0 0,0 0.558542365550787,0.709292083384217 l -24.872274419958664 19.241532406412382" fill="#b3ff20" stroke="none" /><line stroke="#e1ed5e" stroke-width="0.3" x1="172.23445277983987" x2="176.4835382374775" y1="55.19839476539836" y2="52.563006222186495" /><path d="M 173.08426987136738 54.67131705675599 a86.0,86.0 0 0,1 12.851231095245387,41.99856678651699" fill="none" id="id15" stroke="none" /><text fill="#e1ed5e" style="font-size:6.75px; font-family:Arial;" text-anchor="middle"><textPath startOffset="22.20632615414155" xlink:href="#id15">March</textPath></text><path d="M 118.21658344932153 89.55222093294921 l 27.196855094999794 -15.598245090340225 a52.352418996893036,52.352418996893036 0 0,0 0.44161099929316533,0.7855766914630453 l -27.461323735585392 15.127784888942385" fill="#b4ff20" stroke="none" /><path d="M 118.56541770881063 90.18545643968196 l 28.14834851255357 -14.880526630777815 a52.839591655570345,52.839591655570345 0 0,0 0.41816388994415343,0.8077595364791784 l -28.40032183565784 14.393794372038293" fill="#aeff20" stroke="none" /><path d="M 119.34039704204932 91.81776055985345 l 20.614877415259674 -8.721427107943745 a43.38384376387039,43.38384376387039 0 0,0 0.28504902756817146,0.69026883014238 l -20.761948129714042 8.36528370734806" fill="#ffce13" stroke="none" /><path d="M 119.61058180528143 92.48833698450437 l 35.374483723383975 -13.549888713940803 a58.88078118064803,58.88078118064803 0 0,0 0.35439336031779844,0.9495980123582927 l -35.602481672203396 12.938967564553177" fill="#62ff29" stroke="none" /><path d="M 119.85752413597 93.16781622104841 l 33.359112820577735 -11.47754311828431 a56.278384376387045,56.278384376387045 0 0,0 0.3072872311785273,0.9187497089667663 l -33.55173734552803 10.90162030639523" fill="#82ff25" stroke="none" /><path d="M 120.28053869075195 94.5502522615342 l 42.51861894709742 -11.425522318857189 a65.02698624056814,65.02698624056814 0 0,0 0.2811756608601401,1.0834845200647862 l -42.70899093982787 10.691941373243553" fill="#32ff47" stroke="none" /><path d="M 120.67395015179393 96.31383870115 l 30.92313970182073 -5.5135898060532105 a52.41083000443852,52.41083000443852 0 0,0 0.15071392667371827,0.8895221266545041 l -31.01346549001467 4.980481891082868" fill="#b3ff20" stroke="none" /><path d="M 120.83666639777658 97.38593545837742 l 34.68955057073838 -4.351978496976211 a55.961473590767866,55.961473590767866 0 0,0 0.11168217159943157,0.9568246431111234 l -34.7593230953414 3.7542101155402348" fill="#86ff25" stroke="none" /><path d="M 120.91429891909075 98.10471618934814 l 31.4361190174006 -2.8487862621595728 a52.564935641367065,52.564935641367065 0 0,0 0.07390508846697146,0.9018292740216134 l -31.480498589687066 2.3072430709301903" fill="#b1ff20" stroke="none" /><path d="M 120.96714384426684 98.82574320788733 l 32.98843039927542 -1.847504302216976 a54.04012427873946,54.04012427873946 0 0,0 0.04402054938203124,0.9292042225602665 l -33.015344556890945 1.2793889730337098" fill="#9eff22" stroke="none" /><line stroke="#e1ed5e" stroke-width="0.3" x1="184.98032266829074" x2="189.97916517819016" y1="98.17113171792111" y2="98.06355123074" /><path d="M 185.9800911702706 98.14961562048488 a86.0,86.0 0 0,1 -9.607161424134198,41.387399972396054" fill="none" id="id16" stroke="none" /><text fill="#e1ed5e" style="font-size:6.75px; font-family:Arial;" text-anchor="middle"><textPath startOffset="21.466115282336823" xlink:href="#id16">April</textPath></text><path d="M 120.9904718944345 100.63252640178507 l 37.94123290851979 1.1433202479491882 a58.95845539280959,58.95845539280959 0 0,0 -0.03929964885175292,1.0141493127996473 l -37.91593112681683 -1.7962468077628417" fill="#62ff29" stroke="none" /><path d="M 120.92983693683757 101.71520430193887 l 44.00251263093089 3.606014666452337 a65.15002219263204,65.15002219263204 0 0,0 -0.1012164655520058,1.1169152631343429 l -43.933921569101805 -4.36291131813525" fill="#32ff49" stroke="none" /><path d="M 120.5718875245553 104.21870165774334 l 17.09119355013874 3.5049115681153906 a38.44687083888149,38.44687083888149 0 0,0 -0.13852949714576882,0.647163691820766 l -17.02833001426853 -3.798589079352326" fill="#ff840c" stroke="none" /><path d="M 120.49622156327973 104.57218783832717 l 30.643958778749372 6.835890957453965 a52.39715934309809,52.39715934309809 0 0,0 -0.20394829293102304,0.8786039081241103 l -30.521749919887796 -7.362363522926641" fill="#b3ff20" stroke="none" /><path d="M 120.32669344350535 105.2749913415812 l 39.55931216075722 10.266058752097576 a61.86968486462495,61.86968486462495 0 0,0 -0.276386388251357,1.0285365689434345 l -39.37673769616409 -10.945486254216558" fill="#40ff2d" stroke="none" /><path d="M 120.02730092923936 106.31721596034902 l 30.09458272198734 9.49274088221347 a52.55623612960497,52.55623612960497 0 0,0 -0.27956851586175063,0.8604234187802348 l -29.926721955109343 -10.0093632009715" fill="#b1ff20" stroke="none" /><path d="M 119.26925614724726 108.34839909993367 l 40.34655523702808 17.480132229927694 a64.97043941411451,64.97043941411451 0 0,0 -0.45342843452691317,1.02236141824739 l -40.03968571776989 -18.17204198466777" fill="#32ff46" stroke="none" /><line stroke="#e1ed5e" stroke-width="0.3" x1="174.80103733775053" x2="179.2010983576182" y1="140.37084112569926" y2="142.7455964860345" /><path d="M 175.68104954172406 140.8457921977663 a86.0,86.0 0 0,1 -30.038265399797805,32.042727171017184" fill="none" id="id17" stroke="none" /><text fill="#e1ed5e" style="font-size:6.75px; font-family:Arial;" text-anchor="middle"><textPath startOffset="22.206326154141568" xlink:href="#id17">May</textPath></text><path d="M 117.94076556474637 110.91462005526583 l 32.65383902611478 19.86560969372395 a59.221926320461606,59.221926320461606 0 0,0 -0.537327193858405,0.8663425252029178 l -32.30704719258841 -20.42474855029214" fill="#5eff29" stroke="none" /><path d="M 117.55443506779139 111.5257021239791 l 32.16832695112449 21.120734038641853 a59.48229027962716,59.48229027962716 0 0,0 -0.5693216966315767,0.851058689882034 l -31.800002149082193 -21.671329642729695" fill="#5bff2a" stroke="none" /><path d="M 116.93607887273984 112.41649034213515 l 38.41500594732571 28.163517300676705 a68.6329338659565,68.6329338659565 0 0,0 -0.7067189848654263,0.9467655705931693 l -37.9245256957652 -28.820595750779187" fill="#37ff77" stroke="none" /><path d="M 116.27256486870786 113.27417163493432 l 29.146164345842738 23.775673420157112 a58.613581890812256,58.613581890812256 0 0,0 -0.6444814532931389,0.7763194277699804 l -28.732586892656055 -24.27385410504086" fill="#66ff29" stroke="none" /><path d="M 115.80600337817218 113.82643327865902 l 29.82959282309345 26.093685103701546 a60.63186861961828,60.63186861961828 0 0,0 -0.6939206215242798,0.77962717448453 l -29.376013351920832 -26.603286447926944" fill="#4eff2b" stroke="none" /><path d="M 115.07121518719521 114.62390073753431 l 22.473257787493058 21.80625032894117 a52.3138925876609,52.3138925876609 0 0,0 -0.6326477839273434,0.640868865002391 l -22.09456937851018 -22.189859687924226" fill="#b4ff20" stroke="none" /><path d="M 114.55890576462653 115.13401014063108 l 23.711264189526386 24.647904072801733 a55.20150909897914,55.20150909897914 0 0,0 -0.6904503965643617,0.6528639456924417 l -23.28347795857122 -25.052402655240098" fill="#8fff24" stroke="none" /><path d="M 114.0293411484842 115.62618273729858 l 42.088023445452606 46.878548211895726 a84.0,84.0 0 0,0 -1.0842305883736492,0.9567074329108447 l -41.27485050417237 -47.59607878657886" fill="#4dd2ff" stroke="none" /><path d="M 113.20401910651253 116.32954008644616 l 17.039611814565006 21.07305525225891 a48.10022192632046,48.10022192632046 0 0,0 -0.6483051149941708,0.5150527923836429 l -16.67434920685348 -21.363241958647677" fill="#edff1a" stroke="none" /><path d="M 112.63410532772338 116.77436683061366 l 23.43188204559981 31.110630691202935 a59.947714158899245,59.947714158899245 0 0,0 -0.8296050820775217,0.6137220066645439 l -22.892891993103724 -31.509362646607247" fill="#56ff2b" stroke="none" /><path d="M 111.45004920935366 117.60387380957326 l 13.372112507612686 20.55894929771379 a45.52516644474035,45.52516644474035 0 0,0 -0.6605879371692776,0.42161847613792847 l -13.016242768396477 -20.78608220267553" fill="#ffed16" stroke="none" /><line stroke="#e1ed5e" stroke-width="0.3" x1="143.8653032363475" x2="146.44561519142675" y1="172.8068346515853" y2="177.08958963109032" /><path d="M 144.38136562736335 173.6633856474863 a86.0,86.0 0 0,1 -40.68145358897372,12.25698825130547" fill="none" id="id18" stroke="none" /><text fill="#e1ed5e" style="font-size:6.75px; font-family:Arial;" text-anchor="middle"><textPath startOffset="21.466115282336833" xlink:href="#id18">June</textPath></text><path d="M 110.8373102113329 117.98757091392108 l 21.31289573207894 35.374757747626056 a62.29906790945406,62.29906790945406 0 0,0 -0.9233081684955613,0.5455067405694793 l -20.700819692554997 -35.73638306048928" fill="#3bff2e" stroke="none" /><path d="M 109.89434966115114 118.52300852407294 l 23.974511339034866 44.88218964375676 a71.88406569019085,71.88406569019085 0 0,0 -1.0964342954262445,0.5736026026819728 l -23.198386141082125 -45.288221665383446" fill="#3cffa1" stroke="none" /><path d="M 108.92500713936063 119.00905698771935 l 16.195474561955628 34.494168361351946 a59.10696848646249,59.10696848646249 0 0,0 -0.9246919438556905,0.424480718148331 l -15.59931462233252 -34.76783614983435" fill="#60ff29" stroke="none" /><path d="M 106.2309692047433 120.05430185196036 l 12.457882149018959 40.09554867682371 a62.986329338659566,62.986329338659566 0 0,0 -1.038149754869459,0.3127860050698724 l -11.765857419709253 -40.30405005099931" fill="#33ff2f" stroke="none" /><path d="M 104.48393922423573 120.51570834832081 l 5.848160650588495 26.75753445388183 a48.389169995561474,48.389169995561474 0 0,0 -0.8152619770845236,0.17084607394178977 l -5.386707212074593 -26.854236508550162" fill="#e9ff1a" stroke="none" /><path d="M 104.13013068566511 120.58985236759428 l 7.470165354676124 37.24085592452138 a58.982689747003995,58.982689747003995 0 0,0 -0.9971792876121859,0.19111178377758264 l -6.828018452492233 -37.363924906647426" fill="#61ff29" stroke="none" /><path d="M 102.70371172650421 120.8252237178851 l 4.099449403101113 31.575833363756473 a52.84083444296494,52.84083444296494 0 0,0 -0.9030060202220099,0.10934145344906226 l -3.5553159598277233 -31.64172034593089" fill="#aeff20" stroke="none" /><path d="M 101.98527174616119 120.90594882070398 l 2.985573781776896 31.439651928233125 a52.581091877496675,52.581091877496675 0 0,0 -0.9017799532873569,0.07780936886178605 l -2.4439495107479976 -31.486385549373576" fill="#b1ff20" stroke="none" /><path d="M 101.26447882468166 120.96189622390904 l 2.2529387030790637 37.348088691529355 a58.415978695073235,58.415978695073235 0 0,0 -1.004231681153591,0.05190730717262685 l -1.6097189535119931 -37.38133580546418" fill="#68ff28" stroke="none" /><line stroke="#e1ed5e" stroke-width="0.3" x1="102.19456741930631" x2="102.32365962044197" y1="184.97166512339345" y2="189.96999836594603" /><path d="M 102.22038585953345 185.97133177190398 a86.0,86.0 0 0,1 -42.740103519485714,-10.115201625700543" fill="none" id="id19" stroke="none" /><text fill="#e1ed5e" style="font-size:6.75px; font-family:Arial;" text-anchor="middle"><textPath startOffset="22.20632615414155" xlink:href="#id19">July</textPath></text><path d="M 100.54218724476979 120.99299961872073 l 0.9657815582379673 37.394188224522885 a58.40665778961385,58.40665778961385 0 0,0 -1.0052628811338502,0.017306512149724698 l -0.3219589872114493 -37.405272213951775" fill="#68ff28" stroke="none" /><path d="M 99.81925306533755 120.99922214144158 l -0.14200360592462385 16.498012933197675 a37.49862405681314,37.49862405681314 0 0,0 -0.6454054432234668,-0.01111124000922714 l 0.4259687390407586 -16.493124215909287" fill="#ff750a" stroke="none" /><path d="M 98.73552117531835 120.96189622390904 l -2.313515451626444 38.35229966908546 a59.42201509098979,59.42201509098979 0 0,0 -1.0204662605413006,-0.07037732797577152 l 2.9733444729466743 -38.306793996593406" fill="#5cff2a" stroke="none" /><path d="M 97.2962882734958 120.8252237178851 l -4.063687925315993 31.30038211351546 a52.56307146027518,52.56307146027518 0 0,0 -0.8962539547299052,-0.1242126314409245 l 4.601870471232729 -31.225794916581933" fill="#b1ff20" stroke="none" /><path d="M 96.58105272829116 120.7198165907248 l -5.5247436161568295 33.481555970394474 a54.934309809143365,54.934309809143365 0 0,0 -0.9316624257142603,-0.161981454826171 l 6.10025501334314 -33.3814959370473" fill="#93ff23" stroke="none" /><path d="M 95.16358092515715 120.4354850818985 l -5.025181813701196 21.233070666246018 a42.81961828672881,42.81961828672881 0 0,0 -0.7157945880050335,-0.17592489453583404 l 5.38992968644944 -21.143424513396155" fill="#ffc612" stroke="none" /><path d="M 94.46302465271185 120.25689768951611 l -8.227557065091554 30.10032937637019 a52.204527296937414,52.204527296937414 0 0,0 -0.8647775204969722,-0.24439476532161983 l 8.74446575369314 -29.95424581771005" fill="#b6ff1f" stroke="none" /><path d="M 93.76903079525671 120.05430185196036 l -9.347099121280248 30.08352971406962 a52.50217487794053,52.50217487794053 0 0,0 -0.8607322927036947,-0.275579299093793 l 9.863552759074883 -29.918177568316118" fill="#b2ff20" stroke="none" /><path d="M 93.42475214034765 119.94407469862007 l -2.9087129901406312 8.822722791666518 a30.289835774522857,30.289835774522857 0 0,0 -0.4937679795228563,-0.16751290734283156 l 3.0601507026007133 -8.771346897425563" fill="#ff0000" stroke="none" /><path d="M 93.08242187328487 119.8279376855182 l -10.282720437802466 29.47348571185105 a52.21571238348868,52.21571238348868 0 0,0 -0.8460945500897786,-0.3033794030599895 l 10.78853454852197 -29.292118767751102" fill="#b6ff1f" stroke="none" /><path d="M 92.40401165467489 119.57807347666478 l -9.800049943616523 25.258872071491673 a48.093386595650244,48.093386595650244 0 0,0 -0.7692169018690442,-0.3060872800813159 l 10.233387921527425 -25.086437947004292" fill="#edff1a" stroke="none" /><line stroke="#e1ed5e" stroke-width="0.3" x1="58.666819895761336" x2="56.23545636021788" y1="174.27360380694188" y2="178.64263932499728" /><path d="M 58.180547188652646 175.14741091055294 a86.0,86.0 0 0,1 -31.652253787137756,-30.449443065178592" fill="none" id="id20" stroke="none" /><text fill="#e1ed5e" style="font-size:6.75px; font-family:Arial;" text-anchor="middle"><textPath startOffset="22.20632615414155" xlink:href="#id20">August</textPath></text><path d="M 89.7882731507175 118.34994917583269 l -12.259209054660156 22.029169640855397 a46.21056369285397,46.21056369285397 0 0,0 -0.6917308418149875,-0.3927828250485667 l 12.636588663396351 -21.814883650012195" fill="#fff717" stroke="none" /><path d="M 89.4739219176387 118.17145234162733 l -18.13899124966635 31.31382956115848 a57.188104749223264,57.188104749223264 0 0,0 -0.8475607425215547,-0.5007538261477037 l 18.675319863216288 -30.996957162717028" fill="#77ff27" stroke="none" /><path d="M 88.54995079064634 117.60387380957326 l -16.655171446468646 25.606487016748112 a51.546471371504666,51.546471371504666 0 0,0 -0.7396312388052656,-0.4901872542213897 l 17.093477384013873 -25.316001741435404" fill="#beff1e" stroke="none" /><path d="M 87.65650970185807 116.9893568818739 l -18.95042611714147 26.083023892858268 a53.240390590324004,53.240390590324004 0 0,0 -0.7367836993492477,-0.5450549667680286 l 19.39659478690928 -25.752958977350474" fill="#a8ff21" stroke="none" /><path d="M 84.43433777217949 114.09645910891817 l -20.122285882793975 18.222994690055245 a48.147447847314695,48.147447847314695 0 0,0 -0.5510387143866786,-0.6190978371347425 l 20.43298344682899 -17.87392268317964" fill="#ecff1a" stroke="none" /><path d="M 83.72743513129214 113.27417163493432 l -24.291118582529183 19.81522150138088 a52.348069241011984,52.348069241011984 0 0,0 -0.5635695616145096,-0.7031396808955962 l 24.628606056198553 -19.394153986907025" fill="#b4ff20" stroke="none" /><path d="M 83.28015986056508 112.70617746262583 l -21.58069024654982 16.400161589576534 a48.1051930758988,48.1051930758988 0 0,0 -0.4953431436247962,-0.6635930887050427 l 21.859794656869703 -16.026255621362182" fill="#edff1a" stroke="none" /><path d="M 82.85270091963577 112.12312394758628 l -17.599384994866508 12.442748254060593 a42.55366178428761,42.55366178428761 0 0,0 -0.4177130112924962,-0.6017467472753718 l 17.810958913321137 -12.13796024459821" fill="#ffc212" stroke="none" /><path d="M 82.05923443525364 110.91462005526583 l -27.03563745867253 16.44766549946805 a52.64571682201509,52.64571682201509 0 0,0 -0.46433302704821416,-0.7782488617186238 l 27.314751361418974 -15.979854543863318" fill="#b0ff20" stroke="none" /><line stroke="#e1ed5e" stroke-width="0.3" x1="26.63291911575756" x2="22.317208475507996" y1="142.92168965132927" y2="145.44649492493687" /><path d="M 25.769776987707644 143.4266507060508 a86.0,86.0 0 0,1 -11.730757126820373,-40.83630448921669" fill="none" id="id21" stroke="none" /><text fill="#e1ed5e" style="font-size:6.75px; font-family:Arial;" text-anchor="middle"><textPath startOffset="21.46611528233685" xlink:href="#id21">September</textPath></text><path d="M 81.87401531095188 110.60418214915194 l -29.518617941898306 17.269174989221078 a55.199023524189975,55.199023524189975 0 0,0 -0.4727349616744542,-0.8242532526279254 l 29.811504899725136 -16.758501890734845" fill="#8fff24" stroke="none" /><path d="M 81.51974371655577 109.97397251340807 l -18.76625048484212 10.128326341622673 a42.32498890368398,42.32498890368398 0 0,0 -0.34050955784223513,-0.6441157590601773 l 18.937812550909243 -9.803795567476369" fill="#ffbf11" stroke="none" /><path d="M 81.18737489456691 109.33194174019688 l -40.24994402273529 19.96585434309618 a65.92987128273413,65.92987128273413 0 0,0 -0.495562641609064,-1.0210058225205882 l 40.58765992095907 -19.270059564610307" fill="#33ff53" stroke="none" /><path d="M 80.87730276802145 108.67885076344099 l -28.908402985191643 13.120100803474978 a52.746382600976474,52.746382600976474 0 0,0 -0.36811679134990494,-0.8300061844993047 l 29.129960861272828 -12.620546282482977" fill="#afff20" stroke="none" /><path d="M 80.58989483394504 108.01547362559985 l -10.926404517799362 4.512098542784776 a32.8213936972925,32.8213936972925 0 0,0 -0.21114688023491743,-0.5240492407134447 l 11.002454012291668 -4.323349934228526" fill="#ff2a04" stroke="none" /><path d="M 80.32549172779594 107.34259656027581 l -39.3565847825362 14.688017613976198 a63.0080781180648,63.0080781180648 0 0,0 -0.3704747146794572,-1.019387302239199 l 39.60358375822088 -14.008382514730883" fill="#33ff2f" stroke="none" /><path d="M 79.97269907076064 106.31721596034903 l -30.474446604089493 9.612561430536719 a52.95454948956946,52.95454948956946 0 0,0 -0.26672255285693375,-0.8716647352000898 l 30.63539592945256 -9.08656972278458" fill="#acff20" stroke="none" /><path d="M 79.18660465613746 102.79330883721812 l -30.921087143935694 4.149834495937574 a52.19831335996449,52.19831335996449 0 0,0 -0.11184977719326124,-0.8915527742076964 l 30.987938430375802 -3.616963967442469" fill="#b6ff1f" stroke="none" /><path d="M 79.10278846688536 102.07522291339032 l -18.278490099685424 1.8151676082206742 a39.368397691966265,39.368397691966265 0 0,0 -0.06116237469643118,-0.6749217081966441 l 18.30702707065893 -1.500264511475464" fill="#ff920d" stroke="none" /><line stroke="#e1ed5e" stroke-width="0.3" x1="15.007084014347285" x2="10.007500721073583" y1="101.09737516637583" y2="101.16192664675087" /><path d="M 14.007167355692545 101.11028546245083 a86.0,86.0 0 0,1 10.666146001902534,-42.60595125391555" fill="none" id="id22" stroke="none" /><text fill="#e1ed5e" style="font-size:6.75px; font-family:Arial;" text-anchor="middle"><textPath startOffset="22.20632615414155" xlink:href="#id22">October</textPath></text><path d="M 79.00486145842228 99.54816195383935 l -42.65377191855725 -0.9179552174374253 a63.66364846870839,63.66364846870839 0 0,0 0.03300901221884291,-1.0954084150278753 l 42.63165121188276 1.652033779890295" fill="#30ff34" stroke="none" /><path d="M 79.05617556472873 98.46500227214037 l -31.0615601278364 -2.2765385742876956 a52.14487350199734,52.14487350199734 0 0,0 0.07331449077683336,-0.8946224862728827 l 31.01777115324007 2.8108749777683566" fill="#b7ff1f" stroke="none" /><path d="M 79.12142395522702 97.74499172005258 l -31.744455478874706 -3.428586786463634 a52.92907234798047,52.92907234798047 0 0,0 0.10563041609292215,-0.9049768976761333 l 31.680734709778193 3.974507422464629" fill="#acff20" stroke="none" /><path d="M 79.32604984820605 96.31383870115002 l -40.566089139392204 -7.232925818888594 a62.20585885486018,62.20585885486018 0 0,0 0.19702750810934996,-1.05252882673337 l 40.43557590737299 7.930132723084537" fill="#3cff2e" stroke="none" /><path d="M 79.46518482838121 95.60439243477599 l -30.464077332276375 -6.521029172660775 a52.15419440745673,52.15419440745673 0 0,0 0.19546799244065644,-0.8762446826898173 l 30.34731495283368 7.044452024900552" fill="#b7ff1f" stroke="none" /><path d="M 79.54389044137918 95.25157060432595 l -14.434586318817306 -3.3506671341511765 a35.818375499334216,35.818375499334216 0 0,0 0.14458206620405722,-0.5993860061159653 l 14.374771452352434 3.5986383719265382" fill="#ff5b08" stroke="none" /><path d="M 79.62865764111835 94.90015583598534 l -30.22457396705681 -7.566541980407123 a52.15730137594319,52.15730137594319 0 0,0 0.22552734688959558,-0.869048865960366 l 30.089850288296905 8.085687271916353" fill="#b6ff1f" stroke="none" /><path d="M 80.02781315780177 93.51064311812611 l -15.665711756561343 -5.090098305214178 a37.47190412782956,37.47190412782956 0 0,0 0.2046014254676967,-0.6117322199874303 l 15.575773037321873 5.35900362812393" fill="#ff750a" stroke="none" /><path d="M 80.14247586403 93.16781622104843 l -58.72997173884709 -20.206645979878335 a83.10892143808256,83.10892143808256 0 0,0 0.4770725922181155,-1.3487484614868022 l 58.37344606581917 21.21459206779175" fill="#4cdbff" stroke="none" /><path d="M 80.38941819471856 92.48833698450439 l -41.24053998820392 -15.79683061137072 a65.16245006657789,65.16245006657789 0 0,0 0.41023315258637255,-1.0439986270633457 l 40.96251328573585 16.50437824332983" fill="#32ff49" stroke="none" /><path d="M 80.803312248108 91.48605970444005 l -31.94676478337501 -14.168738457244764 a55.94780292942743,55.94780292942743 0 0,0 0.39802248231654597,-0.8769897799051725 l 31.698139984095114 14.716550245992007" fill="#86ff25" stroke="none" /><line stroke="#e1ed5e" stroke-width="0.3" x1="26.266209847984243" x2="21.928928074336255" y1="57.711370442889674" y2="55.22380399835377" /><path d="M 25.398753493254645 57.213857153982495 a86.0,86.0 0 0,1 29.58750427330803,-30.492523968695096" fill="none" id="id23" stroke="none" /><text fill="#e1ed5e" style="font-size:6.75px; font-family:Arial;" text-anchor="middle"><textPath startOffset="21.46611528233685" xlink:href="#id23">November</textPath></text><path d="M 82.54541684631803 88.32363383020206 l -9.228022997687106 -6.173150890835324 a32.10244118952508,32.10244118952508 0 0,0 0.31120341040454313,-0.4566526042847694 l 9.120395121613823 6.33108151839051" fill="#ff1e03" stroke="none" /><path d="M 85.31137513191541 84.99185889309783 l -8.01561236328498 -8.18997302244385 a32.45974256546826,32.45974256546826 0 0,0 0.40268127839673384,-0.38737907077369504 l 7.873447841275819 8.326735179979858" fill="#ff2403" stroke="none" /><path d="M 85.83668400450813 84.49514656593479 l -13.80373247354685 -15.11121046183773 a41.466844207723035,41.466844207723035 0 0,0 0.5311488319498635,-0.47687066568452396 l 13.541572654001016 15.346580136291532" fill="#ffb210" stroke="none" /><path d="M 86.65592168130627 83.78471172551755 l -12.017764986174354 -14.60359561835028 a39.912738570794495,39.912738570794495 0 0,0 0.5342540555349481,-0.43199629136343803 l 11.764607532074905 14.808298006977854" fill="#ff9a0e" stroke="none" /><path d="M 87.80319425747018 82.90503203632743 l -14.48747377176009 -20.305554194340708 a45.94398579671549,45.94398579671549 0 0,0 0.6477420722770502,-0.4537847160989015 l 14.13580055989938 20.55192375320355" fill="#fff316" stroke="none" /><path d="M 88.39885842347998 82.49532879139004 l -17.210333864146513 -25.96824059901347 a52.15357301375943,52.15357301375943 0 0,0 0.7525834450636123,-0.48950120713982026 l 16.760783393298613 26.260640730312826" fill="#b7ff1f" stroke="none" /><line stroke="#e1ed5e" stroke-width="0.3" x1="56.762969772571076" x2="54.21961505331055" y1="26.818313649435495" y2="22.513508569990535" /><path d="M 56.25429882871897 25.957352633546506 a86.0,86.0 0 0,1 42.265352541879196,-11.944610805530505" fill="none" id="id24" stroke="none" /><text fill="#e1ed5e" style="font-size:6.75px; font-family:Arial;" text-anchor="middle"><textPath startOffset="22.20632615414155" xlink:href="#id24">December</textPath></text><path d="M 89.3179101791058 81.91981866633112 l -15.827320124327136 -26.78884213406722 a52.1150466045273,52.1150466045273 0 0,0 0.7762741364580125,-0.4496680848649659 l 15.363849255403803 27.057314376322235" fill="#b7ff1f" stroke="none" /></svg>