<?xml version="1.0" encoding="utf-8" ?>
<svg baseProfile="full" height="200mm" version="1.1" viewBox="0,0,200,200" width="200mm" xmlns="http://www.w3.org/2000/svg" xmlns:ev="http://www.w3.org/2001/xml-events" xmlns:xlink="http://www.w3.org/1999/xlink"><defs /><rect fill="#1a1a1a" height="200" width="200" x="0" y="0" /><text alignment-baseline="middle" fill="#e1ed5e" style="dominant-baseline: central; font-size:9.0px; font-family:Arial;" text-anchor="middle" x="100.0" y="100.0">2025</text><line stroke="#e1ed5e" stroke-width="0.3" x1="100.0" x2="100.0" y1="15.0" y2="10.0" /><path d="M 100.0 14.0 a86.0,86.0 0 0,1 42.46469731375804,11.215312516191453" fill="none" id="id37" stroke="none" /><text fill="#e1ed5e" style="font-size:6.75px; font-family:Arial;" text-anchor="middle"><textPath startOffset="22.20632615414155" xlink:href="#id37">January</textPath></text><path d="M 100.72285384407766 79.0124445844662 l 0.9567143940044162 -27.777532796587444 a48.79400350250367,48.79400350250367 0 0,0 0.8391619852074413,0.036136080307158834 l -1.434717211601189 27.75694898975609" fill="red" stroke="none" /><path d="M 101.44485096284872 79.0497635885617 l 2.237444529587031 -32.44278687395366 a53.51984898753004,53.51984898753004 0 0,0 0.9185275542357999,0.07129541633995835 l -2.795562273185172 32.399466195425234" fill="red" stroke="none" /><path d="M 102.16513564639614 79.11191278185805 l 3.4579712124664668 -33.36068315352487 a54.539420766854704,54.539420766854704 0 0,0 0.9329702814641602,0.10483008178665729 l -4.031708197440352 33.296217118267606" fill="red" stroke="none" /><path d="M 102.88285421437855 79.19881850522331 l 1.9569301407188464 -14.12019339259805 a35.25515475258068,35.25515475258068 0 0,0 0.6003969971100452,0.08848291034379199 l -2.1996961182575476 14.08441599809329" fill="red" stroke="none" /><path d="M 105.01212808612495 79.60689891045804 l 7.525800764837781 -30.620609278113122 a52.53187894361673,52.53187894361673 0 0,0 0.8762595359344398,0.2233780664421292 l -8.051769189457247 30.486528215502126" fill="red" stroke="none" /><path d="M 105.71112130821622 79.79150937346287 l 9.070506868418624 -32.09549283512413 a54.35258243644012,54.35258243644012 0 0,0 0.898137037973265,0.2621908299235862 l -9.621634124115316 31.934603676281846" fill="red" stroke="none" /><path d="M 106.40334571778207 80.00007090966166 l 7.644591624566065 -23.876782100228805 a46.070710093018754,46.070710093018754 0 0,0 0.7531841031629987,0.24831295696005762 l -8.054458549971482 23.74165541900951" fill="red" stroke="none" /><path d="M 108.09893153111575 80.62456947434976 l 10.726827516294078 -25.66226180627515 a48.81396249328981,48.81396249328981 0 0,0 0.7724605991968839,0.3307273155024713 l -11.166971873281277 25.47381496280989" fill="red" stroke="none" /><line stroke="#e1ed5e" stroke-width="0.3" x1="143.23703022742887" x2="145.7803849466894" y1="26.81831364943548" y2="22.513508569990506" /><path d="M 143.74570117128098 25.957352633546492 a86.0,86.0 0 0,1 28.547481713284135,27.462654790039103" fill="none" id="id38" stroke="none" /><text fill="#e1ed5e" style="font-size:6.75px; font-family:Arial;" text-anchor="middle"><textPath startOffset="19.985693538727396" xlink:href="#id38">February</textPath></text><path d="M 113.34407831869373 83.78471172551755 l 19.011550864668898 -23.102215863326112 a50.9190816048155,50.9190816048155 0 0,0 0.6719923662732509,0.5627742812879686 l -19.406400767901264 22.771540424644325" fill="red" stroke="none" /><path d="M 114.16331599549186 84.49514656593476 l 18.74960145279843 -20.525548011871546 a48.800102083021656,48.800102083021656 0 0,0 0.6153277286471813,0.5718800629390959 l -19.10013706524046 20.19976336285781" fill="red" stroke="none" /><path d="M 114.94478906791727 85.2469230424477 l 25.71427502371773 -25.38441169082633 a57.1329807362298,57.1329807362298 0 0,0 0.6848768082128998,0.7058257532344571 l -26.147416095633737 24.93802174204176" fill="red" stroke="none" /><path d="M 115.4437574822437 85.77008943001954 l 21.741648745958376 -20.032800803471837 a50.56370068554029,50.56370068554029 0 0,0 0.5842668345396985,0.6451620316203482 l -22.083259221114112 19.65558598458194" fill="red" stroke="none" /><path d="M 116.60985879189232 87.15038557335679 l 30.79415461534536 -23.822780094600848 a59.93333802680559,59.93333802680559 0 0,0 0.6242315718639733,0.8214155769706107 l -31.199662127433445 23.289179741749205" fill="red" stroke="none" /><path d="M 117.04232023915458 87.72973835380427 l 36.101079326314874 -25.992334542935787 a65.4847095474026,65.4847095474026 0 0,0 0.6507539275405289,0.9204452805648982 l -36.543145873659284 25.367062762039094" fill="red" stroke="none" /><path d="M 117.65298651832404 88.62581576622439 l 32.66050290543144 -21.043837360241156 a59.85294764725036,59.85294764725036 0 0,0 0.5505684651802059,0.8708670926121816 l -33.01789896685761 20.478522619914767" fill="red" stroke="none" /><line stroke="#e1ed5e" stroke-width="0.3" x1="172.23445277983987" x2="176.4835382374775" y1="55.19839476539836" y2="52.563006222186495" /><path d="M 173.08426987136738 54.67131705675599 a86.0,86.0 0 0,1 12.851231095245387,41.99856678651699" fill="none" id="id39" stroke="none" /><text fill="#e1ed5e" style="font-size:6.75px; font-family:Arial;" text-anchor="middle"><textPath startOffset="22.20632615414155" xlink:href="#id39">March</textPath></text><path d="M 117.84615892207809 88.93136811851018 l 9.220926392790567 -5.719048020011014 a31.8504835743138,31.8504835743138 0 0,0 0.28496203240750884,0.46840265555650507 l -9.3180042234843 5.559477591247428" fill="red" stroke="none" /><path d="M 118.03404312379186 89.2402003453031 l 14.76235445063381 -8.80778510010821 a38.19023523096284,38.19023523096284 0 0,0 0.33196466529117774,0.5674352209099046 l -14.911778790395315 8.552370466844412" fill="red" stroke="none" /><path d="M 118.3937258080291 89.86733742301442 l 24.81120711526487 -13.66789917662804 a49.32679767321113,49.32679767321113 0 0,0 0.40328626914189647,0.7472282081505089 l -25.04280148362523 13.238789985145074" fill="red" stroke="none" /><path d="M 118.89224826269711 90.83032412892265 l 29.959125891611542 -14.541174241781832 a54.30157612665335,54.30157612665335 0 0,0 0.4009054495197957,0.8444091203252962 l -30.204989534973095 14.023322705815994" fill="red" stroke="none" /><path d="M 119.196687751892 91.48605970444005 l 25.37940208966135 -11.256041506800543 a48.76351059991376,48.76351059991376 0 0,0 0.33370330923297714,0.7702332466167455 l -25.56939610873701 10.817509115597193" fill="red" stroke="none" /><path d="M 119.47837535516314 92.15188598940014 l 26.77618807128182 -10.788506378021973 a49.86790809007947,49.86790809007947 0 0,0 0.3139456715911923,0.7989574905082286 l -26.957927292754714 10.32599988261796" fill="red" stroke="none" /><path d="M 119.7369772167798 92.82701384747503 l 32.81292219588652 -11.925161282289537 a55.9127102162224,55.9127102162224 0 0,0 0.3209573790542618,0.9073897311718796 l -33.013332655750595 11.358573924691042" fill="red" stroke="none" /><path d="M 120.28053869075195 94.5502522615342 l 29.48515796892678 -7.923195503319624 a51.53115732225673,51.53115732225673 0 0,0 0.22281990989663913,0.8586160067934362 l -29.617174210693726 7.414483070977337" fill="red" stroke="none" /><line stroke="#e1ed5e" stroke-width="0.3" x1="184.98032266829074" x2="189.97916517819016" y1="98.17113171792111" y2="98.06355123074" /><path d="M 185.9800911702706 98.14961562048488 a86.0,86.0 0 0,1 -9.607161424134198,41.387399972396054" fill="none" id="id40" stroke="none" /><text fill="#e1ed5e" style="font-size:6.75px; font-family:Arial;" text-anchor="middle"><textPath startOffset="21.466115282336823" xlink:href="#id40">April</textPath></text><path d="M 120.76222939487914 103.15116336523771 l 62.28668818463745 9.453490095713112 a84.0,84.0 0 0,0 -0.2292729825548463,1.4276830812271801 l -62.114733447721314 -10.524252406633499" fill="red" stroke="none" /><path d="M 120.49622156327973 104.57218783832717 l 34.376575282539356 7.668543148057869 a56.22152015699665,56.22152015699665 0 0,0 -0.21883405905509154,0.9427313989899024 l -34.23948065755371 -8.259143204396336" fill="red" stroke="none" /><path d="M 120.23288151984713 105.62410040840565 l 13.556545196171895 3.768290309987254 a35.070534087809,35.070534087809 0 0,0 -0.16668083477620865,0.5802378523271892 l -13.489671724509586 -4.001085637819025" fill="red" stroke="none" /><path d="M 118.64920377521936 109.65438752849418 l 29.582078544784654 15.314157838159234 a54.31100120563569,54.31100120563569 0 0,0 -0.4369384490231885,0.8265228809980963 l -29.31408758753657 -15.821095734243464" fill="red" stroke="none" /><line stroke="#e1ed5e" stroke-width="0.3" x1="174.80103733775053" x2="179.2010983576182" y1="140.37084112569926" y2="142.7455964860345" /><path d="M 175.68104954172406 140.8457921977663 a86.0,86.0 0 0,1 -30.038265399797805,32.042727171017184" fill="none" id="id41" stroke="none" /><text fill="#e1ed5e" style="font-size:6.75px; font-family:Arial;" text-anchor="middle"><textPath startOffset="22.206326154141568" xlink:href="#id41">May</textPath></text><path d="M 117.55443506779139 111.5257021239791 l 17.633376188061387 11.577532435467429 a42.094435595293625,42.094435595293625 0 0,0 -0.4028976587686869,0.6022773339869926 l -17.43147542388198 -11.879346683660229" fill="red" stroke="none" /><path d="M 116.93607887273984 112.41649034213515 l 22.451970761550555 16.460402683374735 a48.83946564818318,48.83946564818318 0 0,0 -0.5029040089072236,0.6737221033298053 l -22.16530548594824 -16.844437666213857" fill="red" stroke="none" /><path d="M 116.498646956653 112.99209946851258 l 14.293029346288797 11.255253807250664 a39.19262010155501,39.19262010155501 0 0,0 -0.4219404468857361,0.5264355837995351 l -14.097170987348207 -11.49961722462845" fill="red" stroke="none" /><path d="M 116.0416608686014 113.55231037782055 l 21.19764178879121 17.908184392667824 a48.749650189645614,48.749650189645614 0 0,0 -0.5470581058568712,0.6363521678498296 l -20.88624117336356 -18.270413659679182" fill="red" stroke="none" /><path d="M 115.56566222782051 114.09645910891815 l 20.565774894386607 18.624623906060986 a48.74576927477054,48.74576927477054 0 0,0 -0.5685929180412769,0.6170953140686378 l -20.24213556834961 -18.975870474930957" fill="red" stroke="none" /><path d="M 115.07121518719521 114.62390073753431 l 7.988872735785517 7.751762577989156 a32.13157269455176,32.13157269455176 0 0,0 -0.3885768627376659,0.39362631042974994 l -7.854255247992315 -7.888129382399571" fill="red" stroke="none" /><path d="M 114.55890576462653 115.13401014063108 l 19.250995623313294 20.01144644320332 a48.76794593119956,48.76794593119956 0 0,0 -0.609980563166321,0.57677469554084 l -18.903679225756164 -20.33985577549008" fill="red" stroke="none" /><path d="M 113.75828350139079 115.86535959552629 l 17.862533975550104 20.598174531056898 a48.26453583026058,48.26453583026058 0 0,0 -0.6323447649470844,0.5388979271146086 l -17.50532373402597 -20.902596848394456" fill="red" stroke="none" /><path d="M 113.20401910651253 116.32954008644616 l 19.33490059426533 23.911661424799217 a51.75070622090414,51.75070622090414 0 0,0 -0.697507125829166,0.5541418454935854 l -18.920435975718814 -24.240937184297927" fill="red" stroke="none" /><path d="M 112.92097659922987 116.55440617244103 l 12.133094145575894 15.544968065827257 a40.71948289669375,40.71948289669375 0 0,0 -0.5562499920791415,0.4265087742098023 l -11.863715425003258 -15.75151618186443" fill="red" stroke="none" /><path d="M 112.34349029814194 116.9893568818739 l 20.74798712439435 28.557154364185067 a56.29858403808753,56.29858403808753 0 0,0 -0.7889111792005786,0.5628671794686629 l -20.253348617344887 -28.91006580549795" fill="red" stroke="none" /><path d="M 111.45004920935366 117.60387380957326 l 15.719999710489532 24.16870758633245 a49.83131660697157,49.83131660697157 0 0,0 -0.7230718570526307,0.4614986701318326 l -15.30164605138997 -24.435720685288093" fill="red" stroke="none" /><path d="M 111.1453310114006 117.79835938074945 l 3.8022396837886503 6.071926286854464 a28.164168859398238,28.164168859398238 0 0,0 -0.4131023726339715,0.2537612176376757 l -3.69715811122237 -6.136475971320518" fill="red" stroke="none" /><line stroke="#e1ed5e" stroke-width="0.3" x1="143.8653032363475" x2="146.44561519142675" y1="172.8068346515853" y2="177.08958963109032" /><path d="M 144.38136562736335 173.6633856474863 a86.0,86.0 0 0,1 -40.68145358897372,12.25698825130547" fill="none" id="id42" stroke="none" /><text fill="#e1ed5e" style="font-size:6.75px; font-family:Arial;" text-anchor="middle"><textPath startOffset="21.466115282336833" xlink:href="#id42">June</textPath></text><path d="M 110.5260780823613 118.17145234162733 l 18.108581822557944 31.26133294740423 a57.12743657212254,57.12743657212254 0 0,0 -0.8551466728132242,0.48557459878057313 l -17.56778638282352 -31.568410711979432" fill="red" stroke="none" /><path d="M 109.2508944713604 118.85261126421891 l 9.627824072817706 19.620764794912752 a42.855649327220085,42.855649327220085 0 0,0 -0.6650530104935892,0.31926586024181375 l -9.288658394323884 -19.783584931654126" fill="red" stroke="none" /><path d="M 108.2653958097858 119.30500536409082 l 10.933775992320738 25.53738611423974 a48.77958867582481,48.77958867582481 0 0,0 -0.774732619874382,0.3238382979401676 l -10.492571912948895 -25.72180945519988" fill="red" stroke="none" /><path d="M 106.91757812671514 119.82793768551818 l 10.998859733037564 31.52616441817956 a54.38972833595874,54.38972833595874 0 0,0 -0.8866309631771634,0.300793361540989 l -10.454559036923174 -31.710820766618674" fill="red" stroke="none" /><path d="M 105.88484417918355 120.15858648285463 l 7.798520330558511 26.7139012920601 a48.8289317363794,48.8289317363794 0 0,0 -0.8088601640873451,0.22859196185688296 l -7.33752899836656 -26.8441820472555" fill="red" stroke="none" /><path d="M 104.83641907484287 120.43548508189849 l 6.522162215456081 27.55831258481362 a49.319590259871696,49.319590259871696 0 0,0 -0.8278172288954682,0.18840850615510132 l -6.046824837167751 -27.666497824546408" fill="red" stroke="none" /><path d="M 104.13013068566511 120.58985236759428 l 4.373323283042499 21.802235233412947 a43.236533401388684,43.236533401388684 0 0,0 -0.730969980530724,0.14009213649192967 l -3.99738568794007 -21.874284568253344" fill="red" stroke="none" /><path d="M 103.06178313531738 120.77559828337769 l 4.867791409418368 33.03019004932558 a54.38695625390512,54.38695625390512 0 0,0 -0.9273530498521918,0.1285226826492789 l -4.298509768379346 -33.10908729746747" fill="red" stroke="none" /><path d="M 101.62511606390274 120.93702456842531 l 1.5481170857181181 19.94501573053138 a41.00500734821751,41.00500734821751 0 0,0 -0.7041872687762304,0.04856487694628863 l -1.2045670561629573 -19.968708951993957" fill="red" stroke="none" /><line stroke="#e1ed5e" stroke-width="0.3" x1="102.19456741930631" x2="102.32365962044197" y1="184.97166512339345" y2="189.96999836594603" /><path d="M 102.22038585953345 185.97133177190398 a86.0,86.0 0 0,1 -42.740103519485714,-10.115201625700543" fill="none" id="id43" stroke="none" /><text fill="#e1ed5e" style="font-size:6.75px; font-family:Arial;" text-anchor="middle"><textPath startOffset="22.20632615414155" xlink:href="#id43">July</textPath></text><path d="M 96.22490169976321 120.6578951692458 l -1.6641156086450357 9.106286262993072 a30.257090809887973,30.257090809887973 0 0,0 -0.5115355774454938,-0.09803701088236168 l 1.8206188006622246 -9.076292053762243" fill="red" stroke="none" /><path d="M 95.86986931433489 120.58985236759428 l -2.190587033916518 10.920686791644217 a32.13822569148047,32.13822569148047 0 0,0 -0.5414656506740592,-0.11346939167066178 l 2.378244146019964 -10.881361419247014" fill="red" stroke="none" /><path d="M 95.51606077576429 120.51570834832081 l -2.76865973554579 12.66765957557736 a33.96669101405402,33.96669101405402 0 0,0 -0.5701225797263122,-0.1297580429859452 l 2.986302464664965 -12.61812479901373" fill="red" stroke="none" /><path d="M 94.46302465271185 120.25689768951611 l -3.77394135174478 13.806878133559023 a35.31336847570688,35.31336847570688 0 0,0 -0.5849723924731192,-0.16531904124419827 l 4.011044912322514 -13.739870298976303" fill="red" stroke="none" /><path d="M 93.76903079525671 120.05430185196036 l -8.235979976010782 26.507405679342646 a48.75741201939578,48.75741201939578 0 0,0 -0.7993398203278284,-0.25592336814941924 l 8.69104114142955 -26.36170946453352" fill="red" stroke="none" /><path d="M 93.08242187328487 119.8279376855182 l -5.902036529557067 16.91707854715333 a38.917075145424306,38.917075145424306 0 0,0 -0.6306056871186156,-0.22611276352504578 l 6.192361777305409 -16.812978242588326" fill="red" stroke="none" /><path d="M 91.07499286063937 119.00905698771935 l -7.419899364228691 15.803381180025577 a38.4585727737541,38.4585727737541 0 0,0 -0.5968172225598692,-0.2865085353516282 l 7.6908292547888015 -15.673318368174387" fill="red" stroke="none" /><path d="M 90.10565033884886 118.52300852407294 l -9.218925529767212 17.258560897756333 a40.56646396733343,40.56646396733343 0 0,0 -0.6130890603040189,-0.33430503879036516 l 9.51463740193987 -17.097315207206204" fill="red" stroke="none" /><line stroke="#e1ed5e" stroke-width="0.3" x1="58.666819895761336" x2="56.23545636021788" y1="174.27360380694188" y2="178.64263932499728" /><path d="M 58.180547188652646 175.14741091055294 a86.0,86.0 0 0,1 -31.652253787137756,-30.449443065178592" fill="none" id="id44" stroke="none" /><text fill="#e1ed5e" style="font-size:6.75px; font-family:Arial;" text-anchor="middle"><textPath startOffset="22.20632615414155" xlink:href="#id44">August</textPath></text><path d="M 89.7882731507175 118.34994917583269 l -6.353605906480701 11.417103805061446 a34.065931551573925,34.065931551573925 0 0,0 -0.5099365518673816,-0.2895552826767937 l 6.54919122526929 -11.306045356590019" fill="red" stroke="none" /><path d="M 89.1626897886671 117.98757091392108 l -12.670534511335907 21.030323354738368 a45.55233074899017,45.55233074899017 0 0,0 -0.6681459696310499,-0.4104298257408212 l 13.030659680899266 -20.80910506216917" fill="red" stroke="none" /><path d="M 88.54995079064634 117.60387380957326 l -10.674775489424016 16.411929523222852 a40.57810671195868,40.57810671195868 0 0,0 -0.5822481061687108,-0.38588229574980015 l 10.955698294332688 -16.225749206381735" fill="red" stroke="none" /><line stroke="#e1ed5e" stroke-width="0.3" x1="26.63291911575756" x2="22.317208475507996" y1="142.92168965132927" y2="145.44649492493687" /><path d="M 25.769776987707644 143.4266507060508 a86.0,86.0 0 0,1 -11.730757126820373,-40.83630448921669" fill="none" id="id45" stroke="none" /><text fill="#e1ed5e" style="font-size:6.75px; font-family:Arial;" text-anchor="middle"><textPath startOffset="21.46611528233685" xlink:href="#id45">September</textPath></text><line stroke="#e1ed5e" stroke-width="0.3" x1="15.007084014347285" x2="10.007500721073583" y1="101.09737516637583" y2="101.16192664675087" /><path d="M 14.007167355692545 101.11028546245083 a86.0,86.0 0 0,1 10.666146001902534,-42.60595125391555" fill="none" id="id46" stroke="none" /><text fill="#e1ed5e" style="font-size:6.75px; font-family:Arial;" text-anchor="middle"><textPath startOffset="22.20632615414155" xlink:href="#id46">October</textPath></text><line stroke="#e1ed5e" stroke-width="0.3" x1="26.266209847984243" x2="21.928928074336255" y1="57.711370442889674" y2="55.22380399835377" /><path d="M 25.398753493254645 57.213857153982495 a86.0,86.0 0 0,1 29.58750427330803,-30.492523968695096" fill="none" id="id47" stroke="none" /><text fill="#e1ed5e" style="font-size:6.75px; font-family:Arial;" text-anchor="middle"><textPath startOffset="21.46611528233685" xlink:href="#id47">November</textPath></text><line stroke="#e1ed5e" stroke-width="0.3" x1="56.762969772571076" x2="54.21961505331055" y1="26.818313649435495" y2="22.513508569990535" /><path d="M 56.25429882871897 25.957352633546506 a86.0,86.0 0 0,1 42.265352541879196,-11.944610805530505" fill="none" id="id48" stroke="none" /><text fill="#e1ed5e" style="font-size:6.75px; font-family:Arial;" text-anchor="middle"><textPath startOffset="22.20632615414155" xlink:href="#id48">December</textPath></text></svg>