<?xml version="1.0" encoding="utf-8" ?>
<svg baseProfile="full" height="200mm" version="1.1" viewBox="0,0,200,200" width="200mm" xmlns="http://www.w3.org/2000/svg" xmlns:ev="http://www.w3.org/2001/xml-events" xmlns:xlink="http://www.w3.org/1999/xlink"><defs /><rect fill="#1a1a1a" height="200" width="200" x="0" y="0" /><text alignment-baseline="middle" fill="#e1ed5e" style="dominant-baseline: central; font-size:9.0px; font-family:Arial;" text-anchor="middle" x="100.0" y="100.0">2022</text><line stroke="#e1ed5e" stroke-width="0.3" x1="100.0" x2="100.0" y1="15.0" y2="10.0" /><path d="M 100.0 14.0 a86.0,86.0 0 0,1 42.46469731375804,11.215312516191453" fill="none" id="id1" stroke="none" /><text fill="#e1ed5e" style="font-size:6.75px; font-family:Arial;" text-anchor="middle"><textPath startOffset="22.20632615414155" xlink:href="#id1">January</textPath></text><line stroke="#e1ed5e" stroke-width="0.3" x1="143.23703022742887" x2="145.7803849466894" y1="26.81831364943548" y2="22.513508569990506" /><path d="M 143.74570117128098 25.957352633546492 a86.0,86.0 0 0,1 28.547481713284135,27.462654790039103" fill="none" id="id2" stroke="none" /><text fill="#e1ed5e" style="font-size:6.75px; font-family:Arial;" text-anchor="middle"><textPath startOffset="19.985693538727396" xlink:href="#id2">February</textPath></text><line stroke="#e1ed5e" stroke-width="0.3" x1="172.23445277983987" x2="176.4835382374775" y1="55.19839476539836" y2="52.563006222186495" /><path d="M 173.08426987136738 54.67131705675599 a86.0,86.0 0 0,1 12.851231095245387,41.99856678651699" fill="none" id="id3" stroke="none" /><text fill="#e1ed5e" style="font-size:6.75px; font-family:Arial;" text-anchor="middle"><textPath startOffset="22.20632615414155" xlink:href="#id3">March</textPath></text><line stroke="#e1ed5e" stroke-width="0.3" x1="184.98032266829074" x2="189.97916517819016" y1="98.17113171792111" y2="98.06355123074" /><path d="M 185.9800911702706 98.14961562048488 a86.0,86.0 0 0,1 -9.607161424134198,41.387399972396054" fill="none" id="id4" stroke="none" /><text fill="#e1ed5e" style="font-size:6.75px; font-family:Arial;" text-anchor="middle"><textPath startOffset="21.466115282336823" xlink:href="#id4">April</textPath></text><line stroke="#e1ed5e" stroke-width="0.3" x1="174.80103733775053" x2="179.2010983576182" y1="140.37084112569926" y2="142.7455964860345" /><path d="M 175.68104954172406 140.8457921977663 a86.0,86.0 0 0,1 -30.038265399797805,32.042727171017184" fill="none" id="id5" stroke="none" /><text fill="#e1ed5e" style="font-size:6.75px; font-family:Arial;" text-anchor="middle"><textPath startOffset="22.206326154141568" xlink:href="#id5">May</textPath></text><line stroke="#e1ed5e" stroke-width="0.3" x1="143.8653032363475" x2="146.44561519142675" y1="172.8068346515853" y2="177.08958963109032" /><path d="M 144.38136562736335 173.6633856474863 a86.0,86.0 0 0,1 -40.68145358897372,12.25698825130547" fill="none" id="id6" stroke="none" /><text fill="#e1ed5e" style="font-size:6.75px; font-family:Arial;" text-anchor="middle"><textPath startOffset="21.466115282336833" xlink:href="#id6">June</textPath></text><line stroke="#e1ed5e" stroke-width="0.3" x1="102.19456741930631" x2="102.32365962044197" y1="184.97166512339345" y2="189.96999836594603" /><path d="M 102.22038585953345 185.97133177190398 a86.0,86.0 0 0,1 -42.740103519485714,-10.115201625700543" fill="none" id="id7" stroke="none" /><text fill="#e1ed5e" style="font-size:6.75px; font-family:Arial;" text-anchor="middle"><textPath startOffset="22.20632615414155" xlink:href="#id7">July</textPath></text><line stroke="#e1ed5e" stroke-width="0.3" x1="58.666819895761336" x2="56.23545636021788" y1="174.27360380694188" y2="178.64263932499728" /><path d="M 58.180547188652646 175.14741091055294 a86.0,86.0 0 0,1 -31.652253787137756,-30.449443065178592" fill="none" id="id8" stroke="none" /><text fill="#e1ed5e" style="font-size:6.75px; font-family:Arial;" text-anchor="middle"><textPath startOffset="22.20632615414155" xlink:href="#id8">August</textPath></text><path d="M 85.18274418774928 114.88116024355367 l -14.461997878066274 14.52437013927391 a41.49650483784553,41.49650483784553 0 0,0 -0.5018298300475853,-0.5083509683863381 l 14.709868333169393 -14.273278676906909" fill="#ffbf11" stroke="none" /><path d="M 84.19399662182784 113.82643327865904 l -16.47099896780176 14.408143716815307 a42.88351919508677,42.88351919508677 0 0,0 -0.4812296435374993,-0.5597787942818754 l 16.71657112091004 -14.122487823371902" fill="#ffd313" stroke="none" /><path d="M 83.50135304334701 112.99209946851258 l -14.915188697391953 11.745182235686928 a39.984524213903924,39.984524213903924 0 0,0 -0.42115734156641044,-0.5444026365555538 l 15.115152856176431 -11.486701605018121" fill="#ffa90f" stroke="none" /><path d="M 82.85270091963577 112.12312394758628 l -18.635059114402942 13.174968859859977 a43.82203392898127,43.82203392898127 0 0,0 -0.4301635390681138,-0.61968266114039 l 18.85908356063319 -12.852244936532575" fill="#ffe015" stroke="none" /><path d="M 82.44556493220864 111.52570212397912 l -13.861816671167126 9.10124246277903 a37.58259858379678,37.58259858379678 0 0,0 -0.3504042868742924,-0.5438352346875528 l 14.016425821418464 -8.86128562817003" fill="#ff850c" stroke="none" /><path d="M 82.24976979558568 111.22182372390057 l -26.430796545649486 16.70974045417148 a52.269832620007605,52.269832620007605 0 0,0 -0.47425006632137057,-0.7646421114185676 l 26.71451125163881 -16.25230201138765" fill="#adff20" stroke="none" /><line stroke="#e1ed5e" stroke-width="0.3" x1="26.63291911575756" x2="22.317208475507996" y1="142.92168965132927" y2="145.44649492493687" /><path d="M 25.769776987707644 143.4266507060508 a86.0,86.0 0 0,1 -11.730757126820373,-40.83630448921669" fill="none" id="id9" stroke="none" /><text fill="#e1ed5e" style="font-size:6.75px; font-family:Arial;" text-anchor="middle"><textPath startOffset="21.46611528233685" xlink:href="#id9">September</textPath></text><path d="M 81.69416730710424 110.29060199501025 l -16.114320186914192 9.058645855976163 a39.485950877095405,39.485950877095405 0 0,0 -0.32796577753352474,-0.5953531503230364 l 16.267862373899234 -8.779922187255304" fill="#ffa10e" stroke="none" /><path d="M 81.35079622478065 109.6543875284942 l -17.53092739273087 9.075474150173333 a40.74076103648656,40.74076103648656 0 0,0 -0.31704330297630806,-0.6255565146782117 l 17.684549365493446 -8.772363423792438" fill="#ffb410" stroke="none" /><path d="M 81.02952815118164 109.00673069616217 l -23.005026985118384 10.922241911753545 a46.46618610952356,46.46618610952356 0 0,0 -0.3368253802149594,-0.7254919035904802 l 23.18962698217317 -10.524629940884237" fill="#f9ff18" stroke="none" /><path d="M 80.58989483394504 108.01547362559985 l -30.266237732907115 12.498553110289988 a53.74536572334458,53.74536572334458 0 0,0 -0.34575516214306906,-0.8581359572646218 l 30.47689550930757 -11.97571778518256" fill="#9aff22" stroke="none" /><path d="M 80.32549172779594 107.34259656027581 l -17.26560884776646 6.4435867154953606 a39.42881055966933,39.42881055966933 0 0,0 -0.2318334057876277,-0.6379059642417203 l 17.373966514559314 -6.145432954247522" fill="#ffa00e" stroke="none" /><path d="M 79.97269907076064 106.31721596034903 l -18.039638269101676 5.690247087969457 a39.915799237732,39.915799237732 0 0,0 -0.2010487101605836,-0.6570388174053088 l 18.13491375176839 -5.3788812980121" fill="#ffa80f" stroke="none" /><path d="M 79.86692584326677 105.97154293290107 l -24.410693810699588 7.240300461702944 a46.46181303629934,46.46181303629934 0 0,0 -0.22082052593542248,-0.7687052197126341 l 24.531706973521114 -6.819037766485714" fill="#f9ff18" stroke="none" /><path d="M 79.58551787078972 104.9243191809786 l -30.138750705783053 7.269977619410769 a52.00317513888008,52.00317513888008 0 0,0 -0.20241476693648958,-0.8719975182757661 l 30.259426038650098 -6.7501114437864285" fill="#b0ff20" stroke="none" /><path d="M 79.4281124754447 104.21870165774334 l -14.615566340936782 2.9972317259546495 a35.91972444401683,35.91972444401683 0 0,0 -0.1189970303364687,-0.6067632940007909 l 14.664993304248918 -2.745204704885904" fill="#ff6b09" stroke="none" /><path d="M 79.29508885075956 103.50808413554451 l -31.199325005788623 5.286178544964168 a52.643981488208254,52.643981488208254 0 0,0 -0.14368860296860872,-0.8947490678470233 l 31.28569536311852 -4.7483502474239305" fill="#a8ff21" stroke="none" /><path d="M 79.18660465613746 102.79330883721812 l -32.277643145521985 4.331894164954031 a53.56703170517733,53.56703170517733 0 0,0 -0.11478264670758169,-0.9149306299128851 l 32.347427301476415 -3.775645780753737" fill="#9dff22" stroke="none" /><line stroke="#e1ed5e" stroke-width="0.3" x1="15.007084014347285" x2="10.007500721073583" y1="101.09737516637583" y2="101.16192664675087" /><path d="M 14.007167355692545 101.11028546245083 a86.0,86.0 0 0,1 10.666146001902534,-42.60595125391555" fill="none" id="id10" stroke="none" /><text fill="#e1ed5e" style="font-size:6.75px; font-family:Arial;" text-anchor="middle"><textPath startOffset="22.20632615414155" xlink:href="#id10">October</textPath></text><path d="M 79.00019446554 99.90962569577889 l -12.340534368414298 -0.05310845404887902 a33.340648646076346,33.340648646076346 0 0,0 0.00740955094866595,-0.5738778865858007 l 12.337791810347916 0.26552259869515166" fill="#ff4306" stroke="none" /><path d="M 79.00486145842228 99.54816195383935 l -21.999476256429276 -0.4734524779904408 a43.004570270880336,43.004570270880336 0 0,0 0.022297471472048944,-0.7399445255251743 l 21.98806709050158 0.8520671509406095" fill="#ffd413" stroke="none" /><path d="M 79.08570108090925 98.10471618934814 l -26.02310964338923 -2.358251577102254 a47.129745234363895,47.129745234363895 0 0,0 0.08017190312551255,-0.8073201234508075 l 25.97866061458149 2.8058472312574922" fill="#f0ff19" stroke="none" /><path d="M 79.26566170972629 96.67025291283419 l -8.106934424317998 -1.3019003021610653 a29.210805694751233,29.210805694751233 0 0,0 0.08399934187621406,-0.4957688706835373 l 8.083323220921562 1.4412549611604306" fill="#ff0000" stroke="none" /><path d="M 79.32604984820605 96.31383870115002 l -30.73568447013877 -5.480166574633 a52.220418407408545,52.220418407408545 0 0,0 0.16540015845204364,-0.8835742602013934 l 30.636798587776866 6.008418912296966" fill="#adff20" stroke="none" /><path d="M 79.46518482838121 95.60439243477599 l -24.818725923339738 -5.31260586063767 a46.380956197281805,46.380956197281805 0 0,0 0.1738305518542242,-0.7792482792165776 l 24.723600984483475 5.739032309404207" fill="#fbff18" stroke="none" /><path d="M 80.02781315780177 93.51064311812611 l -31.28403038277642 -10.16479764891272 a53.89397616941162,53.89397616941162 0 0,0 0.2942680550944926,-0.8798240295875095 l 31.104425033910157 10.701794781422551" fill="#98ff23" stroke="none" /><path d="M 80.52162464483688 92.15188598940014 l -24.67418953905305 -9.941581322402689 a47.60170424238005,47.60170424238005 0 0,0 0.31276204060503,-0.7573780893876033 l 24.499405811561818 10.364833982243603" fill="#eaff1a" stroke="none" /><path d="M 81.10775173730289 90.83032412892265 l -35.234785806479984 -17.101806028571232 a60.16582566814338,60.16582566814338 0 0,0 0.46023987885608464,-0.9278155115557759 l 34.935185914670484 17.70578112862597" fill="#4eff2c" stroke="none" /><line stroke="#e1ed5e" stroke-width="0.3" x1="26.266209847984243" x2="21.928928074336255" y1="57.711370442889674" y2="55.22380399835377" /><path d="M 25.398753493254645 57.213857153982495 a86.0,86.0 0 0,1 29.58750427330803,-30.492523968695096" fill="none" id="id11" stroke="none" /><text fill="#e1ed5e" style="font-size:6.75px; font-family:Arial;" text-anchor="middle"><textPath startOffset="21.46611528233685" xlink:href="#id11">November</textPath></text><path d="M 81.96595687620814 89.24020034530311 l -27.56974654395504 -16.449164910356238 a53.10398652420001,53.10398652420001 0 0,0 0.47511429123422916,-0.7809629718976285 l 27.282516454434596 16.92129565546094" fill="#a2ff22" stroke="none" /><path d="M 82.34701348167596 88.62581576622439 l -15.721207768426297 -10.12949924081863 a39.7019552070839,39.7019552070839 0 0,0 0.37509530933117063,-0.5712958899213598 l 15.544515823737205 10.398613194717656" fill="#ffa40f" stroke="none" /><path d="M 82.7489923806493 88.02491185347247 l -28.492606533006477 -19.778640313992316 a55.684625408313195,55.684625408313195 0 0,0 0.553365647317299,-0.7826964647373974 l 28.147928265885298 20.266163279061498" fill="#82ff25" stroke="none" /><path d="M 85.57189188830299 84.74124197986013 l -23.84464733986156 -25.21742289549041 a55.70570016945878,55.70570016945878 0 0,0 0.7024014396457253,-0.6528055876764065 l 23.40703801642098 25.624133069241466" fill="#82ff25" stroke="none" /><path d="M 86.93701828274178 83.55741782278169 l -20.721688951608254 -26.082718387903274 a54.3121087820911,54.3121087820911 0 0,0 0.73700870778742,-0.5752469866664908 l 20.269647688661408 26.43554376379299" fill="#93ff23" stroke="none" /><path d="M 88.09926311788651 82.69761687909137 l -18.444958724687286 -26.816973239997246 a53.54791170121589,53.54791170121589 0 0,0 0.7639382366674958,-0.5158145075447085 l 17.980615793613254 27.13049965984062" fill="#9dff22" stroke="none" /><line stroke="#e1ed5e" stroke-width="0.3" x1="56.762969772571076" x2="54.21961505331055" y1="26.818313649435495" y2="22.513508569990535" /><path d="M 56.25429882871897 25.957352633546506 a86.0,86.0 0 0,1 42.265352541879196,-11.944610805530505" fill="none" id="id12" stroke="none" /><text fill="#e1ed5e" style="font-size:6.75px; font-family:Arial;" text-anchor="middle"><textPath startOffset="22.20632615414155" xlink:href="#id12">December</textPath></text><path d="M 89.63071344664047 81.73862282372117 l -15.500889164834495 -27.298655712723644 a52.39258142654571,52.39258142654571 0 0,0 0.7880740182846263,-0.43856233794576166 l 15.028691057477824 27.56143344822959" fill="#abff21" stroke="none" /><path d="M 90.58718382345135 81.22770947309562 l -11.64285857464518 -23.219737815706388 a46.97522627465128,46.97522627465128 0 0,0 0.725943364991006,-0.356217256463666 l 11.241443942643748 23.416710232304883" fill="#f2ff19" stroke="none" /><path d="M 90.91171255644093 81.06846463323043 l -13.614083958246738 -28.359084540660877 a52.45760572590581,52.45760572590581 0 0,0 0.8173938845986095,-0.38377738887443696 l 13.123911862348521 28.58922691217532" fill="#aaff21" stroke="none" /><path d="M 92.91201910852362 80.23233633223022 l -15.241143166534771 -42.50601075839413 a66.1558788599616,66.1558788599616 0 0,0 1.0752472377101983,-0.3751326482041366 l 14.507213924761288 42.762064259770476" fill="#34ff5b" stroke="none" /><path d="M 93.94186890950719 79.89281104454417 l -18.17439327147842 -60.321566866367455 a84.0,84.0 0 0,0 1.3880391291063148,-0.4052066843252047 l 17.133363924648684 60.625471879611354" fill="#4dd2ff" stroke="none" /></svg>