<?xml version="1.0" encoding="utf-8" ?>
<svg baseProfile="full" height="200mm" version="1.1" viewBox="0,0,200,200" width="200mm" xmlns="http://www.w3.org/2000/svg" xmlns:ev="http://www.w3.org/2001/xml-events" xmlns:xlink="http://www.w3.org/1999/xlink"><defs /><rect fill="#1a1a1a" height="200" width="200" x="0" y="0" /><text alignment-baseline="middle" fill="#e1ed5e" style="dominant-baseline: central; font-size:9.0px; font-family:Arial;" text-anchor="middle" x="100.0" y="100.0">2025</text><line stroke="#e1ed5e" stroke-width="0.3" x1="100.0" x2="100.0" y1="15.0" y2="10.0" /><path d="M 100.0 14.0 a86.0,86.0 0 0,1 42.46469731375804,11.215312516191453" fill="none" id="id37" stroke="none" /><text fill="#e1ed5e" style="font-size:6.75px; font-family:Arial;" text-anchor="middle"><textPath startOffset="22.20632615414155" xlink:href="#id37">January</textPath></text><path d="M 100.72285384407766 79.0124445844662 l 0.8572265376704474 -24.888972522489343 a45.90373045473541,45.90373045473541 0 0,0 0.789454908631273,0.03399558902817593 l -1.285522278691052 24.870529206936972" fill="red" stroke="none" /><path d="M 101.44485096284872 79.0497635885617 l 2.0047747157849494 -29.069091087816492 a50.13813958256125,50.13813958256125 0 0,0 0.8604893996512099,0.06679053853239618 l -2.5048543047985006 29.03027528709563" fill="red" stroke="none" /><path d="M 102.16513564639614 79.11191278185805 l 3.0983799432759715 -29.89153617133196 a51.05168702344249,51.05168702344249 0 0,0 0.8733078962295727,0.0981263176389789 l -3.6124545430152692 29.83377390022238" fill="red" stroke="none" /><path d="M 102.88285421437855 79.19881850522331 l 1.7534307621001615 -12.651847373708563 a33.7727742250889,33.7727742250889 0 0,0 0.575151984755779,0.08476245175468775 l -1.9709517272845962 12.619790437792906" fill="red" stroke="none" /><path d="M 105.01212808612495 79.60689891045804 l 6.743199614502419 -27.436400076484393 a49.25290764147893,49.25290764147893 0 0,0 0.8215645596774989,0.2094350991597877 l -7.2144730628649425 27.316261981155737" fill="red" stroke="none" /><path d="M 105.71112130821622 79.79150937346287 l 8.127273140718126 -28.757911838998748 a50.88427784042075,50.88427784042075 0 0,0 0.8408258178430974,0.2454601131904575 l -8.62108917628465 28.61375339688959" fill="red" stroke="none" /><path d="M 106.40334571778207 80.00007090966166 l 6.8496375211858895 -21.393857329585007 a43.46362984048383,43.46362984048383 0 0,0 0.710562415806436,0.23426125675330917 l -7.2168827592347435 21.27278234857246" fill="red" stroke="none" /><path d="M 108.09893153111575 80.62456947434976 l 9.611354516673456 -22.993666631176723 a45.92161392829263,45.92161392829263 0 0,0 0.726690389374006,0.3111309003060931 l -10.005728663837777 22.82481620290784" fill="red" stroke="none" /><line stroke="#e1ed5e" stroke-width="0.3" x1="143.23703022742887" x2="145.7803849466894" y1="26.81831364943548" y2="22.513508569990506" /><path d="M 143.74570117128098 25.957352633546492 a86.0,86.0 0 0,1 28.547481713284135,27.462654790039103" fill="none" id="id38" stroke="none" /><text fill="#e1ed5e" style="font-size:6.75px; font-family:Arial;" text-anchor="middle"><textPath startOffset="19.985693538727396" xlink:href="#id38">February</textPath></text><path d="M 113.34407831869373 83.78471172551755 l 17.034557048161744 -20.699837528464023 a47.80782362542481,47.80782362542481 0 0,0 0.6309322853416348,0.5283876443324532 l -17.3883468704625 20.40354872673775" fill="red" stroke="none" /><path d="M 114.16331599549186 84.49514656593476 l 16.799847516466865 -18.391115014335163 a45.909194849433455,45.909194849433455 0 0,0 0.5788758503550573,0.5380020147357766 l -17.11393125061677 18.099208413524746" fill="red" stroke="none" /><path d="M 114.94478906791727 85.2469230424477 l 23.040271041626514 -22.744709895550958 a53.375545059572154,53.375545059572154 0 0,0 0.6398348636104417,0.6594060700229154 l -23.428370168940067 22.344739629977926" fill="red" stroke="none" /><path d="M 115.4437574822437 85.77008943001954 l 19.480754543407542 -17.949608138249303 a47.489398443475444,47.489398443475444 0 0,0 0.548743073125155,0.6059358070083363 l -19.786841257148733 17.61161954397142" fill="red" stroke="none" /><path d="M 116.60985879189232 87.15038557335679 l 27.59189859254807 -21.345470943217432 a55.88469575228077,55.88469575228077 0 0,0 0.5820632159180519,0.765926963464902 l -27.955237748690234 20.867359203871498" fill="red" stroke="none" /><path d="M 117.04232023915458 87.72973835380427 l 32.34696104814769 -23.28941540531475 a60.85878521695933,60.85878521695933 0 0,0 0.6047838308974011,0.8554238389545532 l -32.74305749884897 22.729165066028404" fill="red" stroke="none" /><path d="M 117.65298651832404 88.62581576622439 l 29.264167027959804 -18.855507926575903 a55.812665094897525,55.812665094897525 0 0,0 0.5134031750619429,0.812080528908817 l -29.584397799267702 18.34897974995288" fill="red" stroke="none" /><line stroke="#e1ed5e" stroke-width="0.3" x1="172.23445277983987" x2="176.4835382374775" y1="55.19839476539836" y2="52.563006222186495" /><path d="M 173.08426987136738 54.67131705675599 a86.0,86.0 0 0,1 12.851231095245387,41.99856678651699" fill="none" id="id39" stroke="none" /><text fill="#e1ed5e" style="font-size:6.75px; font-family:Arial;" text-anchor="middle"><textPath startOffset="22.20632615414155" xlink:href="#id39">March</textPath></text><path d="M 117.84615892207809 88.93136811851018 l 8.262050676086535 -5.124329438010357 a30.722151694120058,30.722151694120058 0 0,0 0.27486699742758475,0.4518090723602349 l -8.349033471800343 4.9813525924430415" fill="red" stroke="none" /><path d="M 118.03404312379186 89.2402003453031 l 13.22723068962452 -7.891871569224309 a36.40263836430875,36.40263836430875 0 0,0 0.3164261646266605,0.54087488639525 l -13.361116528721508 7.663017270475164" fill="red" stroke="none" /><path d="M 118.3937258080291 89.86733742301442 l 22.231112340455383 -12.246586820304001 a46.38111984608227,46.38111984608227 0 0,0 0.3792029822261928,0.7026055351130989 l -22.43862342190004 11.862100301858444" fill="red" stroke="none" /><path d="M 118.89224826269711 90.83032412892265 l 26.843703743398127 -13.029050808749298 a50.83857563021897,50.83857563021897 0 0,0 0.3753383137248394,0.7905582119085715 l -27.06400025096472 12.565050181200187" fill="red" stroke="none" /><path d="M 119.196687751892 91.48605970444005 l 22.740221238237268 -10.08553602748966 a45.87640848124522,45.87640848124522 0 0,0 0.31394600465747485,0.7246306636439748 l -22.91045795273742 9.692606219259082" fill="red" stroke="none" /><path d="M 119.47837535516314 92.15188598940014 l 23.991756720921348 -9.666619449884251 a46.865960684744636,46.865960684744636 0 0,0 0.2950467758816133,0.7508618623284466 l -24.154597046684664 9.25220858266002" fill="red" stroke="none" /><path d="M 119.7369772167798 92.82701384747503 l 29.400736375562193 -10.685074648444711 a52.28216935680999,52.28216935680999 0 0,0 0.3001168783115821,0.8484708291603125 l -29.580306334683584 10.177406192857784" fill="red" stroke="none" /><path d="M 120.28053869075195 94.5502522615342 l 26.419023312251575 -7.099269636958538 a48.35625014784617,48.35625014784617 0 0,0 0.20909166144865,0.8057154654183478 l -26.537311305570526 6.6434577459913395" fill="red" stroke="none" /><line stroke="#e1ed5e" stroke-width="0.3" x1="184.98032266829074" x2="189.97916517819016" y1="98.17113171792111" y2="98.06355123074" /><path d="M 185.9800911702706 98.14961562048488 a86.0,86.0 0 0,1 -9.607161424134198,41.387399972396054" fill="none" id="id40" stroke="none" /><text fill="#e1ed5e" style="font-size:6.75px; font-family:Arial;" text-anchor="middle"><textPath startOffset="21.466115282336823" xlink:href="#id40">April</textPath></text><path d="M 120.76222939487914 103.15116336523771 l 55.8095523492553 8.470430291877276 a77.44868752020564,77.44868752020564 0 0,0 -0.21139156646090296,1.3163354861410506 l -55.65547902843311 -9.429845007711531" fill="red" stroke="none" /><path d="M 120.49622156327973 104.57218783832717 l 30.801786605379185 6.871098347617978 a52.5588664337925,52.5588664337925 0 0,0 -0.2045777141728506,0.8813154383604189 l -30.678948325275783 -7.400282443326962" fill="red" stroke="none" /><path d="M 120.23288151984713 105.62410040840565 l 12.146812438607176 3.376429241172847 a33.607352094684636,33.607352094684636 0 0,0 -0.15972672351480463,0.5560296787325526 l -12.086893078206273 -3.5850163954099816" fill="red" stroke="none" /><path d="M 118.64920377521936 109.65438752849418 l 26.505865205916322 13.72165254668823 a50.84702060384321,50.84702060384321 0 0,0 -0.409070314059833,0.7738068720282976 l -26.265742383631597 -14.175874433802662" fill="red" stroke="none" /><line stroke="#e1ed5e" stroke-width="0.3" x1="174.80103733775053" x2="179.2010983576182" y1="140.37084112569926" y2="142.7455964860345" /><path d="M 175.68104954172406 140.8457921977663 a86.0,86.0 0 0,1 -30.038265399797805,32.042727171017184" fill="none" id="id41" stroke="none" /><text fill="#e1ed5e" style="font-size:6.75px; font-family:Arial;" text-anchor="middle"><textPath startOffset="22.206326154141568" xlink:href="#id41">May</textPath></text><path d="M 117.55443506779139 111.5257021239791 l 15.799697497874797 10.373595408011846 a39.90084449736243,39.90084449736243 0 0,0 -0.38190218264093173,0.5708919458796079 l -15.618792209823145 -10.644024268097262" fill="red" stroke="none" /><path d="M 116.93607887273984 112.41649034213515 l 20.117210821135888 14.748700436993255 a45.94446503339352,45.94446503339352 0 0,0 -0.4730939486282214,0.633786656095654 l -19.860355605812575 -15.092799972598224" fill="red" stroke="none" /><path d="M 116.498646956653 112.99209946851258 l 12.806710274377544 10.084830240096787 a37.30078614740461,37.30078614740461 0 0,0 -0.40157331496193405,0.5010244551348957 l -12.631219047360757 -10.303782528809933" fill="red" stroke="none" /><path d="M 116.0416608686014 113.55231037782055 l 18.993318373027428 16.04592864818936 a45.86398940238604,45.86398940238604 0 0,0 -0.5146758401732711,0.5986842770955714 l -18.71430002328338 -16.370490024446458" fill="red" stroke="none" /><path d="M 115.56566222782051 114.09645910891815 l 18.42715874006539 16.687866270707747 a45.86051206030547,45.86051206030547 0 0,0 -0.5349379600155875,0.5805695040666886 l -18.13717437205408 -17.00258702957577" fill="red" stroke="none" /><path d="M 115.07121518719521 114.62390073753431 l 7.158117153984873 6.945663865011644 a30.974010613384216,30.974010613384216 0 0,0 -0.37457811309039346,0.379445650944613 l -7.037498415838944 -7.067850009936922" fill="red" stroke="none" /><path d="M 114.55890576462653 115.13401014063108 l 17.249102164972356 17.93047439840817 a45.88038258648015,45.88038258648015 0 0,0 -0.5738634480908728,0.5426237089203448 l -16.937902882490675 -18.224732744074434" fill="red" stroke="none" /><path d="M 113.75828350139079 115.86535959552629 l 16.00502537626801 18.456189168099833 a45.42932164231476,45.42932164231476 0 0,0 -0.5951987980707765,0.5072413282780778 l -15.684961101620184 -18.728954886600857" fill="red" stroke="none" /><path d="M 113.20401910651253 116.32954008644616 l 17.324281934601938 21.42510958503883 a48.55296835697558,48.55296835697558 0 0,0 -0.6544073285606421,0.5199007598983842 l -16.952917113323945 -21.720144258942337" fill="red" stroke="none" /><path d="M 112.92097659922987 116.55440617244103 l 10.871384763124599 13.928461029515205 a38.66887187453182,38.66887187453182 0 0,0 -0.5282375448747201,0.40503002420547923 l -10.630018489756386 -14.113530395548056" fill="red" stroke="none" /><path d="M 112.34349029814194 116.9893568818739 l 18.59042288663788 25.587521955081897 a52.62791651224955,52.62791651224955 0 0,0 -0.7374741724669278,0.526168240901436 l -18.14722138632207 -25.903734457827554" fill="red" stroke="none" /><path d="M 111.45004920935366 117.60387380957326 l 14.085291293256297 21.655425750922287 a46.83317431655641,46.83317431655641 0 0,0 -0.6795676420077642,0.4337322217595047 l -13.710441849201603 -21.894672401505602" fill="red" stroke="none" /><path d="M 111.1453310114006 117.79835938074945 l 3.406848250589065 5.4405122160693695 a27.419173480732688,27.419173480732688 0 0,0 -0.40217503584429076,0.247048754885148 l -3.3126940148124655 -5.498349437782895" fill="red" stroke="none" /><line stroke="#e1ed5e" stroke-width="0.3" x1="143.8653032363475" x2="146.44561519142675" y1="172.8068346515853" y2="177.08958963109032" /><path d="M 144.38136562736335 173.6633856474863 a86.0,86.0 0 0,1 -40.68145358897372,12.25698825130547" fill="none" id="id42" stroke="none" /><text fill="#e1ed5e" style="font-size:6.75px; font-family:Arial;" text-anchor="middle"><textPath startOffset="21.466115282336833" xlink:href="#id42">June</textPath></text><path d="M 110.5260780823613 118.17145234162733 l 16.22548693231189 28.010495476398898 a53.37057742802848,53.37057742802848 0 0,0 -0.7989098487918272,0.4536418624102736 l -15.740928316598866 -28.285640504603798" fill="red" stroke="none" /><path d="M 109.2508944713604 118.85261126421891 l 8.62663543787302 17.580419378023517 a40.58290030830856,40.58290030830856 0 0,0 -0.6297834812517719,0.30233434287997907 l -8.322739288621015 -17.726307997403058" fill="red" stroke="none" /><path d="M 108.2653958097858 119.30500536409082 l 9.796782609626025 22.881776648342182 a45.89081461272187,45.89081461272187 0 0,0 -0.7288522104882719,0.30466028309576215 l -9.401458939640293 -23.047021974457916" fill="red" stroke="none" /><path d="M 106.91757812671514 119.82793768551818 l 9.855098351568412 28.247787364324505 a50.91756097176335,50.91756097176335 0 0,0 -0.8300296307451799,0.2815911164615857 l -9.367398987886006 -28.413241467684216" fill="red" stroke="none" /><path d="M 105.88484417918355 120.15858648285463 l 6.987559321582033 23.93594708700187 a45.935026533460544,45.935026533460544 0 0,0 -0.7609220963466123,0.21504418507293577 l -6.574506057130815 -24.052680065413327" fill="red" stroke="none" /><path d="M 104.83641907484287 120.43548508189849 l 5.843928521529721 24.69254882038563 a46.3746619250755,46.3746619250755 0 0,0 -0.7783873289193877,0.17715842185048317 l -5.418021043217472 -24.789483975813795" fill="red" stroke="none" /><path d="M 104.13013068566511 120.58985236759428 l 3.91854538776676 19.53504069734834 a40.924176595358816,40.924176595358816 0 0,0 -0.6918765732542412,0.13259979194429822 l -3.5817011999408144 -19.599597687641104" fill="red" stroke="none" /><path d="M 103.06178313531738 120.77559828337769 l 4.3615942251396635 29.595410743291833 a50.91507715599151,50.91507715599151 0 0,0 -0.8681539717655765,0.12031822984970207 l -3.851511662187257 -29.666103538634136" fill="red" stroke="none" /><path d="M 101.62511606390274 120.93702456842531 l 1.3871298034348165 17.87095175489447 a38.924704899030914,38.924704899030914 0 0,0 -0.6684618148705407,0.046101040478760194 l -1.0793052277853454 -17.892181139889516" fill="red" stroke="none" /><line stroke="#e1ed5e" stroke-width="0.3" x1="102.19456741930631" x2="102.32365962044197" y1="184.97166512339345" y2="189.96999836594603" /><path d="M 102.22038585953345 185.97133177190398 a86.0,86.0 0 0,1 -42.740103519485714,-10.115201625700543" fill="none" id="id43" stroke="none" /><text fill="#e1ed5e" style="font-size:6.75px; font-family:Arial;" text-anchor="middle"><textPath startOffset="22.20632615414155" xlink:href="#id43">July</textPath></text><path d="M 96.22490169976321 120.6578951692458 l -1.4910657458714354 8.159331868718048 a29.294454388468786,29.294454388468786 0 0,0 -0.49526095339803566,-0.09491794044973471 l 1.6312943138411662 -8.132456729919845" fill="red" stroke="none" /><path d="M 95.86986931433489 120.58985236759428 l -1.9627898883074222 9.785054542977162 a30.979971771236624,30.979971771236624 0 0,0 -0.5219513589209563,-0.1093799820998942 l 2.1309327086577654 -9.749818580150727" fill="red" stroke="none" /><path d="M 95.51606077576429 120.51570834832081 l -2.480749337485705 11.350361222128683 a32.61829665433958,32.61829665433958 0 0,0 -0.5474901110371859,-0.12460696679729207 l 2.6757595979157536 -11.305977521753704" fill="red" stroke="none" /><path d="M 94.46302465271185 120.25689768951611 l -3.381492636257516 12.371113482394177 a33.824934356297454,33.824934356297454 0 0,0 -0.560316209688729,-0.15835095770537655 l 3.593940014050859 -12.31107373135028" fill="red" stroke="none" /><path d="M 93.76903079525671 120.05430185196036 l -7.379527937912751 23.750924764516466 a45.87094408654718,45.87094408654718 0 0,0 -0.7520184252154832,-0.24077255179485058 l 7.787267708219175 -23.620379366061908" fill="red" stroke="none" /><path d="M 93.08242187328487 119.8279376855182 l -5.288289139520727 15.157886994651312 a37.05389485968412,37.05389485968412 0 0,0 -0.6004150296777727,-0.21528746789890132 l 5.548423729828226 -15.064611985712453" fill="red" stroke="none" /><path d="M 91.07499286063937 119.00905698771935 l -6.648310803852667 14.160001999904171 a36.64307173102247,36.64307173102247 0 0,0 -0.5686434706046982,-0.2729834222970592 l 6.891066942457607 -14.04346430110755" fill="red" stroke="none" /><path d="M 90.10565033884886 118.52300852407294 l -8.260257880982149 15.463858907395027 a38.53176524392647,38.53176524392647 0 0,0 -0.5823382527073824,-0.31753724665045824 l 8.525218945558171 -15.319381008984802" fill="red" stroke="none" /><line stroke="#e1ed5e" stroke-width="0.3" x1="58.666819895761336" x2="56.23545636021788" y1="174.27360380694188" y2="178.64263932499728" /><path d="M 58.180547188652646 175.14741091055294 a86.0,86.0 0 0,1 -31.652253787137756,-30.449443065178592" fill="none" id="id44" stroke="none" /><text fill="#e1ed5e" style="font-size:6.75px; font-family:Arial;" text-anchor="middle"><textPath startOffset="22.20632615414155" xlink:href="#id44">August</textPath></text><path d="M 89.7882731507175 118.34994917583269 l -5.692900229229556 10.229849604407372 a32.707217258971305,32.707217258971305 0 0,0 -0.4895978131396953,-0.2780064160187388 l 5.868146809290459 -10.130340022594" fill="red" stroke="none" /><path d="M 89.1626897886671 117.98757091392108 l -11.352937195942573 18.84339923016681 a42.99915629115052,42.99915629115052 0 0,0 -0.6306968820493278,-0.3874255374730848 l 11.67561327792421 -18.645185225865347" fill="red" stroke="none" /><path d="M 88.54995079064634 117.60387380957326 l -9.564715332553115 14.705267956508633 a38.54219727016819,38.54219727016819 0 0,0 -0.5530352001741549,-0.36652157458768436 l 9.816425231467232 -14.53844836082963" fill="red" stroke="none" /><path d="M 87.65650970185807 116.9893568818739 l -10.4584998264999 14.394890076445371 a38.79306266312362,38.79306266312362 0 0,0 -0.5368498596856267,-0.3971486919279233 l 10.70473465660409 -14.212731435777682" fill="red" stroke="none" /><path d="M 85.18274418774928 114.88116024355367 l -14.136686229087363 14.19765547369141 a41.03545154193706,41.03545154193706 0 0,0 -0.4962541725787757,-0.5027028568075762 l 14.378981026721672 -13.95221212290317" fill="red" stroke="none" /><path d="M 84.67929136418377 114.36230785411682 l -13.343118170764608 12.508427348743954 a39.28932905433642,39.28932905433642 0 0,0 -0.45828867996654643,-0.4973818489901157 l 13.556453258726883 -12.276894244952492" fill="red" stroke="none" /><path d="M 83.95833913139862 113.55231037782056 l -20.835653558455537 17.60236962131651 a48.275774516838695,48.275774516838695 0 0,0 -0.530812830675035,-0.6393982493320495 l 21.135562389024106 -17.2411101148707" fill="red" stroke="none" /><path d="M 83.50135304334701 112.99209946851258 l -16.487068593612623 12.982981918164471 a41.9852626930871,41.9852626930871 0 0,0 -0.44223113738187747,-0.5716433584233087 l 16.70810654821257 -12.69726056562791" fill="red" stroke="none" /><path d="M 83.06392112726016 112.41649034213515 l -17.51071515055975 12.837778282951 a42.712523951080655,42.712523951080655 0 0,0 -0.429607056052814,-0.5966866263624018 l 17.729101998988174 -12.53445805113746" fill="red" stroke="none" /><path d="M 82.6465618267979 111.8261652097733 l -16.971397348893973 11.565808855023787 a41.537679091002275,41.537679091002275 0 0,0 -0.39756878598748063,-0.5943113922100427 l 17.167969240292184 -11.271960548607925" fill="red" stroke="none" /><path d="M 82.05923443525364 110.91462005526583 l -19.85620516659989 12.079915673091735 a44.2420577033772,44.2420577033772 0 0,0 -0.3902131040537057,-0.6540196074098221 l 20.061199146351825 -11.736333971795801" fill="red" stroke="none" /><line stroke="#e1ed5e" stroke-width="0.3" x1="26.63291911575756" x2="22.317208475507996" y1="142.92168965132927" y2="145.44649492493687" /><path d="M 25.769776987707644 143.4266507060508 a86.0,86.0 0 0,1 -11.730757126820373,-40.83630448921669" fill="none" id="id45" stroke="none" /><text fill="#e1ed5e" style="font-size:6.75px; font-family:Arial;" text-anchor="middle"><textPath startOffset="21.46611528233685" xlink:href="#id45">September</textPath></text><path d="M 81.69416730710424 110.29060199501025 l -16.836267852322255 9.464487874232146 a40.314151441795914,40.314151441795914 0 0,0 -0.334844716399684,-0.607840422487977 l 16.996688978173456 -9.173276933346347" fill="red" stroke="none" /><path d="M 81.18737489456691 109.33194174019688 l -23.930057871987763 11.87042768616255 a47.712445099786315,47.712445099786315 0 0,0 -0.358631146569061,-0.7388863849690733 l 24.130842275171545 -11.456752345228193" fill="red" stroke="none" /><path d="M 80.87730276802145 108.67885076344099 l -18.072932460142372 8.202414218901238 a40.8471783064319,40.8471783064319 0 0,0 -0.28507229258945976,-0.6427627629018994 l 18.211445837463113 -7.890103119506644" fill="red" stroke="none" /><path d="M 80.58989483394504 108.01547362559985 l -6.676552129842968 2.7571065199733646 a28.223433027653147,28.223433027653147 0 0,0 -0.18156723898655422,-0.45063499694373077 l 6.723021983086911 -2.6417721551868287" fill="red" stroke="none" /><path d="M 80.45479744820244 107.68017299344265 l -20.56160055235824 8.079560641322376 a43.09205100101718,43.09205100101718 0 0,0 -0.2653356523085607,-0.6927076607031919 l 20.69763048426031 -7.724429413786026" fill="red" stroke="none" /><path d="M 79.97269907076064 106.31721596034903 l -16.874155017646462 5.322618448262789 a38.69371003225018,38.69371003225018 0 0,0 -0.19489326637252496,-0.6369224709543391 l 16.96327505652512 -5.031369004756402" fill="red" stroke="none" /><path d="M 79.67330655649465 105.27499134158121 l -25.62662619988159 6.650379792169567 a47.47548907515317,47.47548907515317 0 0,0 -0.19846718043366687,-0.7927777299833086 l 25.737304694610312 -6.208274222788867" fill="red" stroke="none" /><path d="M 79.50377843672027 104.57218783832718 l -17.609124773265233 3.928149677897306 a39.041941003461574,39.041941003461574 0 0,0 -0.14067361886145677,-0.6571803146615761 l 17.67413243085113 -3.6244555438195665" fill="red" stroke="none" /><path d="M 79.35854240842038 103.8639653848113 l -20.146990995643474 3.7714040042902726 a41.49694451234417,41.49694451234417 0 0,0 -0.12538708387435799,-0.703237354943217 l 20.20892452185702 -3.424047898613842" fill="red" stroke="none" /><path d="M 79.1416061653843 102.43462659150553 l -23.37397984718812 2.728249995492862 a44.532664148682,44.532664148682 0 0,0 -0.08231693001325971,-0.7621525376812386 l 23.417479078702435 -2.3255011359268414" fill="red" stroke="none" /><path d="M 79.07016306316243 101.71520430193888 l -22.12666693712101 1.813284758627132 a43.20084213182359,43.20084213182359 0 0,0 -0.054357853224835745,-0.7416697197373788 l 22.15460134901018 -1.4321419023929924" fill="red" stroke="none" /><line stroke="#e1ed5e" stroke-width="0.3" x1="15.007084014347285" x2="10.007500721073583" y1="101.09737516637583" y2="101.16192664675087" /><path d="M 14.007167355692545 101.11028546245083 a86.0,86.0 0 0,1 10.666146001902534,-42.60595125391555" fill="none" id="id46" stroke="none" /><text fill="#e1ed5e" style="font-size:6.75px; font-family:Arial;" text-anchor="middle"><textPath startOffset="22.20632615414155" xlink:href="#id46">October</textPath></text><path d="M 79.12142395522702 97.74499172005258 l -18.299148903609435 -1.9764150680170953 a39.40557163245835,39.40557163245835 0 0,0 0.07864159984800571,-0.6737532018820176 l 18.262416950757842 2.291112008223975" fill="red" stroke="none" /><path d="M 79.21141760316559 97.0276538004421 l -36.7188841849575 -5.25005667898667 a58.092311210288514,58.092311210288514 0 0,0 0.1500555009356242,-0.9886782661786636 l 36.623072790582576 5.881334057557425" fill="red" stroke="none" /><path d="M 79.32604984820605 96.31383870115002 l -13.340803641134833 -2.378662699505493 a34.551202087982276,34.551202087982276 0 0,0 0.10943562832981994,-0.5846095024705255 l 13.297882288895153 2.6079502794385907" fill="red" stroke="none" /><path d="M 79.54389044137918 95.25157060432595 l -21.734243401931572 -5.045119648324013 a43.31211707840184,43.31211707840184 0 0,0 0.17483080378627927,-0.7247865518784603 l 21.64417979788448 5.41849143186187" fill="red" stroke="none" /><path d="M 79.91906864156998 93.8553929516997 l -13.722917167039014 -4.199104714952908 a35.35099076651343,35.35099076651343 0 0,0 0.1830583994866284,-0.5803451515912793 l 13.648603283784183 4.434700032970602" fill="red" stroke="none" /><path d="M 80.2630227832202 92.82701384747504 l -21.318008367340564 -7.747578422917881 a43.682205628405384,43.682205628405384 0 0,0 0.26291573121708656,-0.7044834461841706 l 21.181488047621848 8.113385006131393" fill="red" stroke="none" /><path d="M 80.52162464483688 92.15188598940014 l -20.373802203402782 -8.208894202222671 a42.965376396653554,42.965376396653554 0 0,0 0.28229953130998797,-0.6836107068650966 l 20.229480985206596 8.55837947954108" fill="red" stroke="none" /><path d="M 80.65960295795068 91.81776055985345 l -22.919608044776776 -9.696477300282003 a45.886343744332564,45.886343744332564 0 0,0 0.3140139946387038,-0.7247875938946886 l 22.74930334029539 10.089564038763292" fill="red" stroke="none" /><path d="M 81.10775173730289 90.83032412892265 l -5.7923158561945725 -2.8113995859920697 a27.438547243753007,27.438547243753007 0 0,0 0.20989180351493592,-0.42312906811465045 l 5.743064039726224 2.9106882426056817" fill="red" stroke="none" /><path d="M 81.6062741919709 89.86733742301443 l -27.411105537431922 -15.100120887509254 a52.29508519882354,52.29508519882354 0 0,0 0.4411273686158524,-0.7847163664530796 l 27.14712052752364 15.569720763897118" fill="red" stroke="none" /><line stroke="#e1ed5e" stroke-width="0.3" x1="26.266209847984243" x2="21.928928074336255" y1="57.711370442889674" y2="55.22380399835377" /><path d="M 25.398753493254645 57.213857153982495 a86.0,86.0 0 0,1 29.58750427330803,-30.492523968695096" fill="none" id="id47" stroke="none" /><text fill="#e1ed5e" style="font-size:6.75px; font-family:Arial;" text-anchor="middle"><textPath startOffset="21.46611528233685" xlink:href="#id47">November</textPath></text><path d="M 81.96595687620814 89.24020034530311 l -37.26157726198974 -22.23168168141318 a64.38977771820124,64.38977771820124 0 0,0 0.5760867611958179,-0.9469351635911234 l 36.87337470250771 22.869784618211376" fill="red" stroke="none" /><path d="M 82.34701348167596 88.62581576622439 l -13.394560732727907 -8.630392446422585 a36.93417493948163,36.93417493948163 0 0,0 0.34894593229868276,-0.5314685946952425 l 13.244018165071305 8.859679105095495" fill="red" stroke="none" /><path d="M 83.17141714833178 87.43820079747576 l -23.919435169853646 -17.854809539812912 a50.84851089330631,50.84851089330631 0 0,0 0.5296091779115515,-0.6969035980415723 l 23.608550051717987 18.263897913735512" fill="red" stroke="none" /><path d="M 83.39014120810768 87.1503855733568 l -46.58804693576296 -36.0411516747584 a79.90170397647077,79.90170397647077 0 0,0 0.8509376213298174,-1.0806043650204624 l 45.96075523383917 36.83774843373191" fill="red" stroke="none" /><path d="M 83.84228863543731 86.58626213691792 l -13.186484306481088 -10.947097632324258 a38.13832882566767,38.13832882566767 0 0,0 0.4236793968745875,-0.5015027705385732 l 12.996094296119377 11.172459352491948" fill="red" stroke="none" /><path d="M 84.5562425177563 85.77008943001954 l -23.589599460324983 -21.735506471661836 a53.076493640643115,53.076493640643115 0 0,0 0.6248687458663935,-0.6665664103769177 l 23.211963392488133 22.138342298916804" fill="red" stroke="none" /><path d="M 85.05521093208273 85.24692304244772 l -38.44688132493532 -37.95368381493642 a75.0244833268938,75.0244833268938 0 0,0 0.915170797109262,-0.9112407628661533 l 37.78787472765874 38.60986042845268" fill="red" stroke="none" /><path d="M 85.57189188830299 84.74124197986013 l -9.880707371025979 -10.449555941438303 a35.38129331892983,35.38129331892983 0 0,0 0.4461279777140165,-0.4146273345017307 l 9.699371509517107 10.618087862014683" fill="red" stroke="none" /><path d="M 86.37877921826538 84.01681056812374 l -33.57418636539335 -39.39607097616267 a72.7617271587513,72.7617271587513 0 0,0 0.9602554418993108,-0.8041863171225422 l 32.89107338653493 39.96815845067903" fill="red" stroke="none" /><path d="M 88.70189139769569 82.29822771554957 l -13.431743418503427 -21.044731622514206 a45.965825849031305,45.965825849031305 0 0,0 0.6706213659779099,-0.4199430378524467 l 13.067502900153276 21.272819001689584" fill="red" stroke="none" /><line stroke="#e1ed5e" stroke-width="0.3" x1="56.762969772571076" x2="54.21961505331055" y1="26.818313649435495" y2="22.513508569990535" /><path d="M 56.25429882871897 25.957352633546506 a86.0,86.0 0 0,1 42.265352541879196,-11.944610805530505" fill="none" id="id48" stroke="none" /><text fill="#e1ed5e" style="font-size:6.75px; font-family:Arial;" text-anchor="middle"><textPath startOffset="22.20632615414155" xlink:href="#id48">December</textPath></text><path d="M 89.3179101791058 81.91981866633112 l -22.73543852071349 -38.48131386715584 a65.69576805103256,65.69576805103256 0 0,0 0.9785643290268291,-0.5668476213292791 l 22.069677459221342 38.86696564587516" fill="red" stroke="none" /><path d="M 90.26544431104013 81.39251694778311 l -2.317945077670183 -4.430723407092246 a26.000417911860023,26.000417911860023 0 0,0 0.39835056102143895,-0.20405062937491222 l 2.2413340290599804 4.469966561779663" fill="red" stroke="none" /><path d="M 90.58718382345135 81.22770947309562 l -7.9577823231248415 -15.870468403680054 a38.75381837392861,38.75381837392861 0 0,0 0.5988917893047203,-0.29387360005334084 l 7.683419266809696 16.005097163868225" fill="red" stroke="none" /><path d="M 90.91171255644093 81.06846463323043 l -27.264862330677197 -56.79460610030868 a84.0,84.0 0 0,0 1.3088871548015661,-0.6145400694399696 l 26.28319696457602 57.25551115238866" fill="red" stroke="none" /></svg>