<?xml version="1.0" encoding="utf-8" ?>
<svg baseProfile="full" height="200mm" version="1.1" viewBox="0,0,200,200" width="200mm" xmlns="http://www.w3.org/2000/svg" xmlns:ev="http://www.w3.org/2001/xml-events" xmlns:xlink="http://www.w3.org/1999/xlink"><defs /><rect fill="#1a1a1a" height="200" width="200" x="0" y="0" /><text alignment-baseline="middle" fill="#e1ed5e" style="dominant-baseline: central; font-size:9.0px; font-family:Arial;" text-anchor="middle" x="100.0" y="100.0">2024</text><line stroke="#e1ed5e" stroke-width="0.3" x1="100.0" x2="100.0" y1="15.0" y2="10.0" /><path d="M 100.0 14.0 a86.0,86.0 0 0,1 42.35913384403234,11.155469271406648" fill="none" id="id25" stroke="none" /><text fill="#e1ed5e" style="font-size:6.75px; font-family:Arial;" text-anchor="middle"><textPath startOffset="22.145653131862478" xlink:href="#id25">January</textPath></text><path d="M 100.36049292484886 79.00309439819443 l 0.6318677337096575 -36.80312772599105 a57.808551550536656,57.808551550536656 0 0,0 0.9920682053175529,0.025552157860789036 l -1.2635492530979517 36.786857850780216" fill="#bcff1f" stroke="none" /><path d="M 101.08105385017728 79.02784411241856 l 2.1467628811687356 -41.6466263823594 a62.701919379086114,62.701919379086114 0 0,0 1.0744590390809117,0.06463678767394508 l -2.86136627238211 41.603637616860766" fill="#70ff27" stroke="none" /><path d="M 102.15924093988457 79.11130261209362 l 3.045267262697741 -29.460198322838266 a50.61717302380869,50.61717302380869 0 0,0 0.863538850328157,0.0967613293489462 l -3.5505420146266946 29.403581232982347" fill="#ffc712" stroke="none" /><path d="M 102.87502721639298 79.19773525538626 l 4.259318193708791 -30.81830467269193 a52.11124707198546,52.11124707198546 0 0,0 0.885084454573924,0.13007693526524924 l -4.787727753890397 30.740646664127798" fill="#ffe115" stroke="none" /><path d="M 103.58742460773223 79.30868818359171 l 7.125558656053248 -41.09832878458918 a62.71146383246513,62.71146383246513 0 0,0 1.0591227633116527,0.19300744871092004 l -7.830016152915954 40.96995316194689" fill="#70ff27" stroke="none" /><path d="M 104.29559338865022 79.4440306129975 l 6.028668510316599 -28.849361224432474 a50.47253784568053,50.47253784568053 0 0,0 0.8465868932315145,0.18450967308112332 l -6.523017820167247 28.74162009321763" fill="#ffc412" stroke="none" /><path d="M 105.69591212413111 79.78721728523813 l 5.261594593007453 -18.671543016097544 a40.398734398489665,40.398734398489665 0 0,0 0.6658865440234316,0.19382986823074713 l -5.581341149412489 18.57846945356428" fill="#ff0000" stroke="none" /><line stroke="#e1ed5e" stroke-width="0.3" x1="143.13028292997686" x2="145.6673583964461" y1="26.7553504044142" y2="22.446841604673864" /><path d="M 143.63769802327073 25.89364864446614 a86.0,86.0 0 0,1 29.32050498858742,28.57503671076993" fill="none" id="id26" stroke="none" /><text fill="#e1ed5e" style="font-size:6.75px; font-family:Arial;" text-anchor="middle"><textPath startOffset="20.669276256404974" xlink:href="#id26">February</textPath></text><path d="M 110.96478420261332 82.08984904055464 l 15.38282209846755 -25.126683833885366 a50.46152501485858,50.46152501485858 0 0,0 0.734902117405666,0.4586332743867338 l -15.811888344662929 24.858914762657086" fill="#ffc412" stroke="none" /><path d="M 112.16784306229584 82.88440491214696 l 19.626884430484324 -27.60767089355227 a54.873265042128445,54.873265042128445 0 0,0 0.7630493054801818,0.5523888524831799 l -20.09791474633847 27.266681269696015" fill="#edff1a" stroke="none" /><path d="M 115.16444852881244 85.47280134310134 l 26.61505718263516 -25.496622724013907 a57.85700800615321,57.85700800615321 0 0,0 0.6809058098188222,0.7230983739654593 l -27.048818826190242 25.035982890103956" fill="#bbff1f" stroke="none" /><path d="M 115.8921839302757 86.27271002978787 l 22.335621927667855 -19.292978247125387 a50.5143866028039,50.5143866028039 0 0,0 0.5612038578827452,0.6610967334588496 l -22.663520349057713 18.906714731216987" fill="#ffc512" stroke="none" /><path d="M 116.35404254752997 86.82634096563983 l 22.62110056114659 -18.22195734836996 a50.047442575953575,50.047442575953575 0 0,0 0.5332044268942708,0.6736863749665465 l -22.93057141868242 17.830951029488734" fill="#ffbc11" stroke="none" /><path d="M 117.21940702142032 87.97951657250589 l 24.190729376000167 -16.887007851169315 a50.50190539453904,50.50190539453904 0 0,0 0.4901336490375504,0.7151196417673542 l -24.47705276185304 16.469253474331914" fill="#ffc512" stroke="none" /><line stroke="#e1ed5e" stroke-width="0.3" x1="172.87174338648825" x2="177.1583165268699" y1="56.24261187166439" y2="53.66864786411523" /><path d="M 173.72905801456457 55.72781907015455 a86.0,86.0 0 0,1 12.242430191666344,42.057860355516425" fill="none" id="id27" stroke="none" /><text fill="#e1ed5e" style="font-size:6.75px; font-family:Arial;" text-anchor="middle"><textPath startOffset="22.145653131862474" xlink:href="#id27">March</textPath></text><path d="M 118.18653347947321 89.5 l 17.90359087211155 -10.336643009474534 a41.673286018949064,41.673286018949064 0 0,0 0.3523707222326916,0.6226053026746831 l -18.07839495936562 10.027780936700733" fill="#ff1a02" stroke="none" /><path d="M 118.8641267826498 90.77261029715802 l 30.72947324793851 -15.031325239108444 a55.208789287836936,55.208789287836936 0 0,0 0.40912536933847843,0.8549146691679338 l -30.9829778752369 14.501598067875406" fill="#e7ff1a" stroke="none" /><path d="M 119.31412917781788 91.75594674310238 l 33.810361223036715 -14.431632717761083 a57.761563472363044,57.761563472363044 0 0,0 0.381430287275346,0.9152938346403143 l -34.05311735484854 13.84910637367949" fill="#bdff1f" stroke="none" /><path d="M 119.58574465831526 92.42381321644754 l 27.455512282621015 -10.620381962497609 a50.43803097577177,50.43803097577177 0 0,0 0.3054366623302361,0.8102070348894016 l -27.633779628765694 10.14750664741405" fill="#ffc312" stroke="none" /><path d="M 119.83427380445688 93.10060997987247 l 34.75071836648437 -12.088103746763307 a57.79313358738594,57.79313358738594 0 0,0 0.3179023553504229,0.9398218260468278 l -34.953106143407155 11.489780246242319" fill="#bcff1f" stroke="none" /><path d="M 120.16314734710363 94.1308016681162 l 60.48944204131091 -17.607594995651397 a84.0,84.0 0 0,0 0.3911260317016718,1.3879683043879474 l -60.782786565087164 16.56661876736044" fill="#4dd2ff" stroke="none" /><path d="M 120.43855184770803 95.1765574152323 l 34.74832492403572 -8.200510067289052 a56.7028633360137,56.7028633360137 0 0,0 0.2154415529901866,0.9492752341090487 l -34.88397733858358 7.602800499240976" fill="#ceff1d" stroke="none" /><path d="M 120.592083275326 95.88100663000786 l 36.07124219232017 -7.215258672519876 a57.78579170017131,57.78579170017131 0 0,0 0.18621803703626458,0.974371458026183 l -36.189786521638595 6.594984649460378" fill="#bcff1f" stroke="none" /><line stroke="#e1ed5e" stroke-width="0.3" x1="184.99686870605535" x2="189.99668451229388" y1="99.2704041080226" y2="99.22748670261217" /><path d="M 185.99683186730306 99.26182062694052 a86.0,86.0 0 0,1 -10.086455211305974,41.156179273409016" fill="none" id="id28" stroke="none" /><text fill="#e1ed5e" style="font-size:6.75px; font-family:Arial;" text-anchor="middle"><textPath startOffset="21.40746469413373" xlink:href="#id28">April</textPath></text><line stroke="#e1ed5e" stroke-width="0.3" x1="174.33088141563837" x2="178.70328620479359" y1="141.23008692659167" y2="143.65538615756765" /><path d="M 175.20536237346943 141.71514677278685 a86.0,86.0 0 0,1 -30.301960400862466,31.631185727798858" fill="none" id="id29" stroke="none" /><text fill="#e1ed5e" style="font-size:6.75px; font-family:Arial;" text-anchor="middle"><textPath startOffset="22.145653131862474" xlink:href="#id29">May</textPath></text><line stroke="#e1ed5e" stroke-width="0.3" x1="143.1302829299769" x2="145.66735839644613" y1="173.24464959558577" y2="177.55315839532614" /><path d="M 143.63769802327073 174.10635135553383 a86.0,86.0 0 0,1 -40.68552437913181,11.842963189579606" fill="none" id="id30" stroke="none" /><text fill="#e1ed5e" style="font-size:6.75px; font-family:Arial;" text-anchor="middle"><textPath startOffset="21.407464694133747" xlink:href="#id30">June</textPath></text><line stroke="#e1ed5e" stroke-width="0.3" x1="101.45913802915013" x2="101.54496967792366" y1="184.9874750549273" y2="189.98673829345242" /><path d="M 101.47630435890484 185.9873277026323 a86.0,86.0 0 0,1 -42.54439059252881,-10.42667462771756" fill="none" id="id31" stroke="none" /><text fill="#e1ed5e" style="font-size:6.75px; font-family:Arial;" text-anchor="middle"><textPath startOffset="22.145653131862474" xlink:href="#id31">July</textPath></text><line stroke="#e1ed5e" stroke-width="0.3" x1="58.13341422392154" x2="55.67067388415222" y1="173.97424548756322" y2="178.32567169271397" /><path d="M 57.64086615596768 174.84453072859336 a86.0,86.0 0 0,1 -31.369924170532247,-30.572349798747897" fill="none" id="id32" stroke="none" /><text fill="#e1ed5e" style="font-size:6.75px; font-family:Arial;" text-anchor="middle"><textPath startOffset="22.145653131862474" xlink:href="#id32">August</textPath></text><line stroke="#e1ed5e" stroke-width="0.3" x1="26.387840678322732" x2="22.057713659400548" y1="142.50000000000003" y2="145.00000000000006" /><path d="M 25.521815274538298 143.00000000000003 a86.0,86.0 0 0,1 -11.493303480769221,-40.785679425670985" fill="none" id="id33" stroke="none" /><text fill="#e1ed5e" style="font-size:6.75px; font-family:Arial;" text-anchor="middle"><textPath startOffset="21.40746469413373" xlink:href="#id33">September</textPath></text><line stroke="#e1ed5e" stroke-width="0.3" x1="15.003131293944662" x2="10.003315487706104" y1="100.72959589197737" y2="100.7725132973878" /><path d="M 14.003168132696942 100.73817937305945 a86.0,86.0 0 0,1 10.791469493833604,-42.45332614584628" fill="none" id="id34" stroke="none" /><text fill="#e1ed5e" style="font-size:6.75px; font-family:Arial;" text-anchor="middle"><textPath startOffset="22.145653131862435" xlink:href="#id34">October</textPath></text><line stroke="#e1ed5e" stroke-width="0.3" x1="26.387840678322718" x2="22.05771365940052" y1="57.49999999999999" y2="54.99999999999999" /><path d="M 25.521815274538284 56.99999999999999 a86.0,86.0 0 0,1 29.574782752854787,-30.34633250058573" fill="none" id="id35" stroke="none" /><text fill="#e1ed5e" style="font-size:6.75px; font-family:Arial;" text-anchor="middle"><textPath startOffset="21.40746469413373" xlink:href="#id35">November</textPath></text><line stroke="#e1ed5e" stroke-width="0.3" x1="56.869717070023135" x2="54.33264160355391" y1="26.7553504044142" y2="22.446841604673864" /><path d="M 56.362301976729285 25.89364864446614 a86.0,86.0 0 0,1 42.16139366436587,-11.88097634709845" fill="none" id="id36" stroke="none" /><text fill="#e1ed5e" style="font-size:6.75px; font-family:Arial;" text-anchor="middle"><textPath startOffset="22.145653131862474" xlink:href="#id36">December</textPath></text></svg>