<?xml version="1.0" encoding="utf-8" ?>
<svg baseProfile="full" height="200mm" version="1.1" viewBox="0,0,200,200" width="200mm" xmlns="http://www.w3.org/2000/svg" xmlns:ev="http://www.w3.org/2001/xml-events" xmlns:xlink="http://www.w3.org/1999/xlink"><defs /><rect fill="#1a1a1a" height="200" width="200" x="0" y="0" /><rect fill="#1a1a1a" height="200" width="180" x="10" y="0" /><text alignment-baseline="middle" fill="#e1ed5e" style="dominant-baseline: central; font-size:9.0px; font-family:Arial;" text-anchor="middle" x="100.0" y="100.0">2026</text><line stroke="#e1ed5e" stroke-width="0.3" x1="100.0" x2="100.0" y1="15.0" y2="10.0" /><path d="M 100.0 14.0 a86.0,86.0 0 0,1 42.46469731375804,11.215312516191453" fill="none" id="id49" stroke="none" /><text fill="#e1ed5e" style="font-size:6.75px; font-family:Arial;" text-anchor="middle"><textPath startOffset="22.20632615414155" xlink:href="#id49">January</textPath></text><path d="M 100.72285384407766 79.0124445844662 l 0.8607162847553776 -24.990294886520793 a46.0051128979277,46.0051128979277 0 0,0 0.7911984895262094,0.034070671289231726 l -1.2907556066709185 24.971776488707366" fill="red" stroke="none" /><path d="M 102.16513564639614 79.11191278185805 l 2.92023826021767 -28.172919132671094 a49.323862094574324,49.323862094574324 0 0,0 0.8437511226602686,0.09480526974262221 l -3.404756086387664 28.118477909457873" fill="red" stroke="none" /><path d="M 102.88285421437855 79.19881850522331 l 2.693049191052247 -19.431646844311516 a40.61737528385153,40.61737528385153 0 0,0 0.6917158730988447,0.10194093887442404 l -3.0271340445797477 19.382411421276124" fill="red" stroke="none" /><path d="M 103.59715602781102 79.31037775812273 l 10.791468083433088 -62.06886672563182 a84.0,84.0 0 0,0 1.4224195155883965,0.2599380745970459 l -11.858282720124386 61.87391316968404" fill="red" stroke="none" /><path d="M 104.66035177308747 79.52364482259891 l 5.842694978462101 -25.671259037372714 a47.32775389537126,47.32775389537126 0 0,0 0.7927991795075603,0.18762995147526595 l -6.283717844932186 25.56688317375658" fill="red" stroke="none" /><path d="M 105.36241919743992 79.69619591428918 l 5.242793113285608 -19.85086214164021 a41.53152715691455,41.53152715691455 0 0,0 0.6896252944466132,0.1885006437186787 l -5.583716296955933 19.75767495709524" fill="red" stroke="none" /><path d="M 106.0581310904928 79.89281104454417 l 4.789599849211708 -15.896881026602006 a37.60274354103886,37.60274354103886 0 0,0 0.618143671265437,0.1920602476313809 l -5.062528893187863 15.812080644088105" fill="red" stroke="none" /><path d="M 107.4271985657038 80.35727306442388 l 18.04494529774134 -47.7235030025555 a72.02110141533012,72.02110141533012 0 0,0 1.155824935820598,0.44844211828063235 l -18.863753398561606 47.40581818038432" fill="red" stroke="none" /><path d="M 109.41281617654863 81.2277094730956 l 10.110452668760722 -20.163610050024836 a43.556427541095985,43.556427541095985 0 0,0 0.6673249409260914,0.34182975378367053 l -10.45603809727557 19.986587770928665" fill="red" stroke="none" /><line stroke="#e1ed5e" stroke-width="0.3" x1="143.23703022742887" x2="145.7803849466894" y1="26.81831364943548" y2="22.513508569990506" /><path d="M 143.74570117128098 25.957352633546492 a86.0,86.0 0 0,1 28.547481713284135,27.462654790039103" fill="none" id="id50" stroke="none" /><text fill="#e1ed5e" style="font-size:6.75px; font-family:Arial;" text-anchor="middle"><textPath startOffset="19.985693538727396" xlink:href="#id50">February</textPath></text><path d="M 111.2981086023043 82.29822771554956 l 15.433707846467437 -24.18139101151688 a49.68691355203588,49.68691355203588 0 0,0 0.7169891996796567,0.46634971982375234 l -15.847664071931375 23.9121423675336" fill="red" stroke="none" /><path d="M 113.6212207817346 84.01681056812373 l 17.534508278633645 -20.575055048517797 a48.03316242734115,48.03316242734115 0 0,0 0.6246740252149579,0.5417111590263496 l -17.886076102495366 20.270178896071776" fill="red" stroke="none" /><line stroke="#e1ed5e" stroke-width="0.3" x1="172.23445277983987" x2="176.4835382374775" y1="55.19839476539836" y2="52.563006222186495" /><path d="M 173.08426987136738 54.67131705675599 a86.0,86.0 0 0,1 12.851231095245387,41.99856678651699" fill="none" id="id51" stroke="none" /><text fill="#e1ed5e" style="font-size:6.75px; font-family:Arial;" text-anchor="middle"><textPath startOffset="22.20632615414155" xlink:href="#id51">March</textPath></text><path d="M 118.03404312379186 89.2402003453031 l 23.652054886852035 -14.111720275786551 a48.541974321255665,48.541974321255665 0 0,0 0.42194608545023915,0.7212426358676342 l -23.8914606467726 13.702498227565021" fill="red" stroke="none" /><path d="M 118.3937258080291 89.86733742301442 l 17.62757231656083 -9.710606986277659 a41.12528742198546,41.12528742198546 0 0,0 0.33623232226988786,0.6229874283262866 l -17.792112738049184 9.405738574618914" fill="red" stroke="none" /><path d="M 119.04729006885535 91.15688171328212 l 24.88098000339603 -11.551535597143125 a48.43175423813537,48.43175423813537 0 0,0 0.34455199374181067,0.7591746461125863 l -25.076134314101186 11.121538942188476" fill="red" stroke="none" /><path d="M 119.34039704204932 91.81776055985345 l 20.761806704832086 -8.78358770503171 a43.54338108227767,43.54338108227767 0 0,0 0.2860972509049589,0.6928071860967401 l -20.909925642623243 8.424905948481666" fill="red" stroke="none" /><path d="M 119.97218684219823 93.5106431181261 l 17.15373501929643 -5.573586371729564 a39.03650437738328,39.03650437738328 0 0,0 0.20214313256661176,0.6408489708284403 l -17.247133635631247 5.277487234474705" fill="red" stroke="none" /><path d="M 120.37134235888165 94.90015583598534 l 21.900378617141588 -5.482629279540134 a43.576222168268615,43.576222168268615 0 0,0 0.1758968727817397,0.7292060961152556 l -21.991508290184147 5.1048379517654725" fill="red" stroke="none" /><path d="M 120.6074358757038 95.95851677861258 l 22.267650185745996 -4.367080657109826 a43.69184078607235,43.69184078607235 0 0,0 0.13838719813958508,0.7392699460622304 l -22.33952310779544 3.9831326335850323" fill="red" stroke="none" /><path d="M 120.78858239683441 97.02765380044208 l 30.53132838509648 -4.365361531660526 a51.84182864651024,51.84182864651024 0 0,0 0.11870297797534728,0.8844750627557746 l -30.601947362129664 3.8391681268400877" fill="red" stroke="none" /><path d="M 120.91429891909075 98.10471618934814 l 24.235932491831722 -2.196295016415359 a45.335244719290486,45.335244719290486 0 0,0 0.06374030959555126,0.7777932253495408 l -24.270147285246768 1.7787878738580494" fill="red" stroke="none" /><path d="M 120.94382443527127 98.46500227214037 l 30.714907154458757 -2.2511319668108714 a51.79729073537183,51.79729073537183 0 0,0 0.057518200358158814,0.8897811013826487 l -30.74910594582133 1.7220918011751871" fill="red" stroke="none" /><line stroke="#e1ed5e" stroke-width="0.3" x1="184.98032266829074" x2="189.97916517819016" y1="98.17113171792111" y2="98.06355123074" /><path d="M 185.9800911702706 98.14961562048488 a86.0,86.0 0 0,1 -9.607161424134198,41.387399972396054" fill="none" id="id52" stroke="none" /><text fill="#e1ed5e" style="font-size:6.75px; font-family:Arial;" text-anchor="middle"><textPath startOffset="21.466115282336823" xlink:href="#id52">April</textPath></text><path d="M 120.99513854157772 99.54816195383933 l 26.229455454859117 -0.5644861967027157 a47.23552892786243,47.23552892786243 0 0,0 0.010497517966536911,0.8130443351789721 l -26.23528597994337 0.11290560346328084" fill="red" stroke="none" /><path d="M 120.95626037817324 101.35467743843564 l 28.110881328775665 1.8171742488128815 a49.16955397820592,49.16955397820592 0 0,0 -0.06186803928780029,0.8441402416959682 l -28.075436730823526 -2.30078762700562" fill="red" stroke="none" /><path d="M 120.92983693683757 101.71520430193887 l 20.61717024014193 1.6895812039250735 a41.68628515117325,41.68628515117325 0 0,0 -0.06476342298885651,0.7146589760330351 l -20.585032220876 -2.044221568506679" fill="red" stroke="none" /><path d="M 120.8583938346157 102.4346265915055 l 28.24770900717804 3.2971198090935085 a49.43948071237807,49.43948071237807 0 0,0 -0.10593819122269406,0.84443161756099 l -28.1867693067085 -3.7828691809418933" fill="red" stroke="none" /><path d="M 120.70491114924044 103.5080841355445 l 31.916978782171146 5.407772393379845 a53.37186335137606,53.37186335137606 0 0,0 -0.16126831469673722,0.9044783526277939 l -31.81916402513522 -5.956369496740857" fill="red" stroke="none" /><path d="M 120.5718875245553 104.21870165774334 l 23.058206926097007 4.728574160616171 a44.538061097702055,44.538061097702055 0 0,0 -0.16047691458605293,0.749694719430286 l -22.97339597278651 -5.124782699462626" fill="red" stroke="none" /><path d="M 120.32669344350535 105.2749913415812 l 26.433352492204374 6.859733773861467 a48.30893757408704,48.30893757408704 0 0,0 -0.21580735065286205,0.8030994340842962 l -26.311357065209734 -7.313724141121312" fill="red" stroke="none" /><path d="M 120.13307415673323 105.97154293290107 l 25.991790397760916 7.709259453121671 a48.11099130236079,48.11099130236079 0 0,0 -0.24232642038000377,0.7919367627147 l -25.85523720487478 -8.155523188388429" fill="red" stroke="none" /><path d="M 119.9155931802556 106.66101706037122 l 18.190090873338615 6.0839014203771935 a40.180543852382925,40.180543852382925 0 0,0 -0.22502858927275393,0.6540384139743755 l -18.082671453122632 -6.396112537440869" fill="red" stroke="none" /><path d="M 119.26925614724726 108.34839909993367 l 28.824626508387052 12.48826027116358 a52.413623445064914,52.413623445064914 0 0,0 -0.3657944665434399,0.8247699551365508 l -28.605390957112338 -12.98257856279282" fill="red" stroke="none" /><path d="M 118.64920377521936 109.65438752849418 l 28.0029704297264 14.496679415170474 a52.532841085990945,52.532841085990945 0 0,0 -0.422632939871355,0.7994622488547104 l -27.74928498163015 -14.976556679111319" fill="red" stroke="none" /><line stroke="#e1ed5e" stroke-width="0.3" x1="174.80103733775053" x2="179.2010983576182" y1="140.37084112569926" y2="142.7455964860345" /><path d="M 175.68104954172406 140.8457921977663 a86.0,86.0 0 0,1 -30.038265399797805,32.042727171017184" fill="none" id="id53" stroke="none" /><text fill="#e1ed5e" style="font-size:6.75px; font-family:Arial;" text-anchor="middle"><textPath startOffset="22.206326154141568" xlink:href="#id53">May</textPath></text><path d="M 117.94076556474637 110.91462005526583 l 19.275836887888815 11.726837136314721 a43.56272583156001,43.56272583156001 0 0,0 -0.39524950777914414,0.6372680567230476 l -19.07112274044171 -12.056901524403044" fill="red" stroke="none" /><path d="M 117.35343817320211 111.8261652097733 l 17.274873213678188 11.772624108479384 a41.9049258058527,41.9049258058527 0 0,0 -0.41134492338364115,0.5925730416882194 l -17.06966738313241 -12.068238412354624" fill="red" stroke="none" /><path d="M 116.93607887273984 112.41649034213515 l 23.661868689430175 17.347425355468392 a50.3396863708422,50.3396863708422 0 0,0 -0.5183519055141551,0.6944170852939743 l -23.359755517220925 -17.75215532027168" fill="red" stroke="none" /><path d="M 116.27256486870786 113.27417163493432 l 21.517183777748688 17.55241370188133 a48.76826290006998,48.76826290006998 0 0,0 -0.5362279515175935,0.6459211112271719 l -21.211859826337548 -17.920196070222275" fill="red" stroke="none" /><path d="M 115.32070863581623 114.36230785411682 l 20.293664626626068 19.024176086374354 a48.81639983433068,48.81639983433068 0 0,0 -0.5799700925681195,0.6080963233677993 l -19.963187982678985 -19.37067952632466" fill="red" stroke="none" /><path d="M 114.81725581225074 114.88116024355365 l 18.08918201429754 18.167197734887502 a46.637191333780834,46.637191333780834 0 0,0 -0.573748600101975,0.5615337632727048 l -17.773783461819768 -18.47588160108278" fill="red" stroke="none" /><path d="M 114.0293411484842 115.62618273729858 l 20.415868154544842 22.739634252744718 a51.559755209300334,51.559755209300334 0 0,0 -0.6655079015116788,0.587233345807158 l -20.021417900126576 -23.087690740324163" fill="red" stroke="none" /><path d="M 113.20401910651253 116.32954008644616 l 17.706310715475624 21.89756832969303 a49.160556420400184,49.160556420400184 0 0,0 -0.6625965308876282,0.5264067575040744 l -17.326756691870646 -22.199109001202228" fill="red" stroke="none" /><path d="M 112.63410532772338 116.77436683061366 l 14.244697083607615 18.912757814918745 a44.67707336580071,44.67707336580071 0 0,0 -0.6182775713244831,0.45738696633669496 l -13.917034541864568 -19.155154729995207" fill="red" stroke="none" /><path d="M 112.04921762599082 117.19931262002967 l 12.951028919625477 18.48657747364463 a43.571723389365744,43.571723389365744 0 0,0 -0.6179779922208893,0.425050898073711 l -12.630894042781705 -18.706769161083436" fill="red" stroke="none" /><path d="M 111.1453310114006 117.79835938074945 l 15.56954305093807 24.863534544751232 a50.336087347719904,50.336087347719904 0 0,0 -0.738312471291518,0.4535318219487029 l -15.139251379714242 -25.127854833528314" fill="red" stroke="none" /><line stroke="#e1ed5e" stroke-width="0.3" x1="143.8653032363475" x2="146.44561519142675" y1="172.8068346515853" y2="177.08958963109032" /><path d="M 144.38136562736335 173.6633856474863 a86.0,86.0 0 0,1 -40.68145358897372,12.25698825130547" fill="none" id="id54" stroke="none" /><text fill="#e1ed5e" style="font-size:6.75px; font-family:Arial;" text-anchor="middle"><textPath startOffset="21.466115282336833" xlink:href="#id54">June</textPath></text><path d="M 110.21172684928248 118.3499491758327 l 11.567986633553936 20.78707841733366 a44.78909296048215,44.78909296048215 0 0,0 -0.6769064944167393,0.36910339219105204 l -11.20845732726855 -20.983122461284484" fill="red" stroke="none" /><path d="M 109.57404056367764 118.69057910512821 l 7.3369209581087205 14.323242171738663 a37.09303189134378,37.09303189134378 0 0,0 -0.5707842051374517,0.28620304974164507 l -7.089282845288508 -14.44741306238961" fill="red" stroke="none" /><path d="M 108.92500713936063 119.00905698771935 l 12.525015374796183 26.676587179583805 a50.47060083691569,50.47060083691569 0 0,0 -0.7895813165606891,0.36245805591498925 l -12.063966062468076 -26.88823230583287" fill="red" stroke="none" /><path d="M 108.2653958097858 119.30500536409082 l 12.46644179411237 29.117144689130395 a52.67365286565075,52.67365286565075 0 0,0 -0.8365793601532319,0.349690240392646 l -11.963390974461676 -29.327419972543016" fill="red" stroke="none" /><path d="M 107.59598834532513 119.57807347666477 l 9.402041187738943 24.233035233323903 a46.99304474499779,46.99304474499779 0 0,0 -0.7566546593061253,0.28610204778406484 l -8.983516307672542 -24.3912855312146" fill="red" stroke="none" /><path d="M 106.57524785965236 119.94407469862006 l 11.439657901982626 34.69882757178119 a57.53593310387181,57.53593310387181 0 0,0 -0.9432568408542201,0.3020010533722544 l -10.840679716037465 -34.89060147181315" fill="red" stroke="none" /><path d="M 105.88484417918355 120.15858648285463 l 9.57662388173182 32.80481094410988 a55.17407417986547,55.17407417986547 0 0,0 -0.9139686064695064,0.258296657573935 l -9.010524107157709 -32.96479639502234" fill="red" stroke="none" /><path d="M 104.48393922423573 120.51570834832081 l 5.708458909981361 26.118346449156533 a47.73489338608092,47.73489338608092 0 0,0 -0.8042387079882732,0.16853604072543266 l -5.258028740563709 -26.212738470608507" fill="red" stroke="none" /><path d="M 104.13013068566511 120.58985236759428 l 5.478163956989282 27.31017386722745 a48.85418957711478,48.85418957711478 0 0,0 -0.8259437839871066,0.1582940919639027 l -5.007252558430471 -27.40042515753982" fill="red" stroke="none" /><path d="M 103.41894727170886 120.7198165907248 l 4.943921096566962 29.961602276680413 a51.36675759436724,51.36675759436724 0 0,0 -0.8736363626391819,0.1364440326049864 l -4.427448870319263 -30.042264616632504" fill="red" stroke="none" /><path d="M 102.70371172650421 120.8252237178851 l 3.5431987913018306 27.29133686201284 a48.52038018252189,48.52038018252189 0 0,0 -0.8291730414584938,0.10040130794649761 l -3.0728983267919565 -27.34828369868469" fill="red" stroke="none" /><line stroke="#e1ed5e" stroke-width="0.3" x1="102.19456741930631" x2="102.32365962044197" y1="184.97166512339345" y2="189.96999836594603" /><path d="M 102.22038585953345 185.97133177190398 a86.0,86.0 0 0,1 -42.740103519485714,-10.115201625700543" fill="none" id="id55" stroke="none" /><text fill="#e1ed5e" style="font-size:6.75px; font-family:Arial;" text-anchor="middle"><textPath startOffset="22.20632615414155" xlink:href="#id55">July</textPath></text><path d="M 97.2962882734958 120.8252237178851 l -3.925129591325419 30.233142483252802 a51.48687499107385,51.48687499107385 0 0,0 -0.8779037077829204,-0.12166945442190351 l 4.44496189029517 -30.161098463338295" fill="red" stroke="none" /><path d="M 96.22490169976321 120.6578951692458 l -3.9109380032809202 21.401230076612585 a42.75564489638526,42.75564489638526 0 0,0 -0.7228399332423425,-0.13853399357943205 l 4.278745551094958 -21.330738884684685" fill="red" stroke="none" /><path d="M 94.46302465271185 120.25689768951611 l -5.350113599110629 19.573268256928863 a41.291292363501334,41.291292363501334 0 0,0 -0.6839977924734326,-0.1933046084222721 l 5.686242559688676 -19.47827485516807" fill="red" stroke="none" /><path d="M 94.11515582081647 120.15858648285463 l -7.173611522955948 24.573270570432193 a46.598951713106445,46.598951713106445 0 0,0 -0.768050635845558,-0.23140735616482963 l 7.595537133241752 -24.44614784516164" fill="red" stroke="none" /><path d="M 93.08242187328487 119.8279376855182 l -7.615520552002247 21.82845848386354 a44.11877490395464,44.11877490395464 0 0,0 -0.7148931480378987,-0.2563352482064812 l 7.990133260669872 -21.694135694617103" fill="red" stroke="none" /><path d="M 91.7346041902142 119.30500536409082 l -9.375550409153544 21.89792904118692 a44.82058441280223,44.82058441280223 0 0,0 -0.7066270880398204,-0.30976454954075067 l 9.751098171851106 -21.733299938351717" fill="red" stroke="none" /><path d="M 90.7491055286396 118.85261126421891 l -10.303955131809387 20.99866787858726 a44.39050114968795,44.39050114968795 0 0,0 -0.6830769991678852,-0.34250898782866884 l 10.663886038660031 -20.818191049849286" fill="red" stroke="none" /><path d="M 90.10565033884886 118.52300852407294 l -12.243054808582448 22.919971129631655 a46.98494694297263,46.98494694297263 0 0,0 -0.7100928735838936,-0.38719925214537265 l 12.635770494034983 -22.705831225726516" fill="red" stroke="none" /><line stroke="#e1ed5e" stroke-width="0.3" x1="58.666819895761336" x2="56.23545636021788" y1="174.27360380694188" y2="178.64263932499728" /><path d="M 58.180547188652646 175.14741091055294 a86.0,86.0 0 0,1 -31.652253787137756,-30.449443065178592" fill="none" id="id56" stroke="none" /><text fill="#e1ed5e" style="font-size:6.75px; font-family:Arial;" text-anchor="middle"><textPath startOffset="22.20632615414155" xlink:href="#id56">August</textPath></text><path d="M 89.4739219176387 118.17145234162733 l -14.854429531929918 25.643602126973217 a50.6352561447607,50.6352561447607 0 0,0 -0.7504437414741462,-0.4433753901033472 l 15.293641144432447 -25.38410816457612" fill="red" stroke="none" /><path d="M 88.54995079064634 117.60387380957326 l -10.888740223062715 16.740889521717676 a40.97052942772676,40.97052942772676 0 0,0 -0.5878789105996679,-0.38961408588825747 l 11.175293832402346 -16.5509774147381" fill="red" stroke="none" /><path d="M 87.95078237400918 117.19931262002967 l -15.020178618063238 21.440126295296427 a47.17794455790571,47.17794455790571 0 0,0 -0.6611038005548561,-0.4716800083013139 l 15.38700974646698 -21.178402025150895" fill="red" stroke="none" /><path d="M 87.07902340077011 116.55440617244103 l -20.994949223033494 26.89881173754211 a55.12233822248247,55.12233822248247 0 0,0 -0.7429507056082497,-0.590244973665477 l 21.4548574213591 -26.533432849871502" fill="red" stroke="none" /><path d="M 86.51685102203217 116.09983520530335 l -18.410480360138976 21.983417993308056 a49.67431697110784,49.67431697110784 0 0,0 -0.6508152155336184,-0.5546388458123286 l 18.78616105224965 -21.663254757272774" fill="red" stroke="none" /><path d="M 85.70375840098266 115.38237550388516 l -26.189018310178056 28.178686750297576 a59.469508276325,59.469508276325 0 0,0 -0.7438337509804435,-0.7033412393138254 l 26.67018789554932 -27.72371087423782" fill="red" stroke="none" /><path d="M 84.9287848128048 114.62390073753433 l -14.936472035947897 14.493156770015558 a41.81225096045359,41.81225096045359 0 0,0 -0.4967563184158125,-0.5208470138533896 l 15.183734905742668 -14.233902639579668" fill="red" stroke="none" /><path d="M 84.43433777217949 114.09645910891817 l -21.784568781643962 19.72837894985322 a50.390072694554334,50.390072694554334 0 0,0 -0.5767051446530022,-0.6479343436269164 l 22.120932775945302 -19.350470436485438" fill="red" stroke="none" /><path d="M 83.28015986056508 112.70617746262583 l -20.2693347587901 15.40360208870164 a46.45813993344663,46.45813993344663 0 0,0 -0.4783833014719517,-0.6408726086035136 l 20.531479326957136 -15.052416600588817" fill="red" stroke="none" /><path d="M 82.85270091963577 112.12312394758628 l -19.842000596106924 14.028275325887396 a45.3001542438481,45.3001542438481 0 0,0 -0.4446729857734409,-0.6405846012850847 l 20.0805344890425 -13.6846494624153" fill="red" stroke="none" /><path d="M 82.24976979558568 111.22182372390057 l -30.643540708656207 19.373067737633736 a57.25385966666191,57.25385966666191 0 0,0 -0.5194707039041768,-0.8375521777665177 l 30.972476052228338 -18.842719228501956" fill="red" stroke="none" /><line stroke="#e1ed5e" stroke-width="0.3" x1="26.63291911575756" x2="22.317208475507996" y1="142.92168965132927" y2="145.44649492493687" /><path d="M 25.769776987707644 143.4266507060508 a86.0,86.0 0 0,1 -11.730757126820373,-40.83630448921669" fill="none" id="id57" stroke="none" /><text fill="#e1ed5e" style="font-size:6.75px; font-family:Arial;" text-anchor="middle"><textPath startOffset="21.46611528233685" xlink:href="#id57">September</textPath></text><line stroke="#e1ed5e" stroke-width="0.3" x1="15.007084014347285" x2="10.007500721073583" y1="101.09737516637583" y2="101.16192664675087" /><path d="M 14.007167355692545 101.11028546245083 a86.0,86.0 0 0,1 10.666146001902534,-42.60595125391555" fill="none" id="id58" stroke="none" /><text fill="#e1ed5e" style="font-size:6.75px; font-family:Arial;" text-anchor="middle"><textPath startOffset="22.20632615414155" xlink:href="#id58">October</textPath></text><line stroke="#e1ed5e" stroke-width="0.3" x1="26.266209847984243" x2="21.928928074336255" y1="57.711370442889674" y2="55.22380399835377" /><path d="M 25.398753493254645 57.213857153982495 a86.0,86.0 0 0,1 29.58750427330803,-30.492523968695096" fill="none" id="id59" stroke="none" /><text fill="#e1ed5e" style="font-size:6.75px; font-family:Arial;" text-anchor="middle"><textPath startOffset="21.46611528233685" xlink:href="#id59">November</textPath></text><line stroke="#e1ed5e" stroke-width="0.3" x1="56.762969772571076" x2="54.21961505331055" y1="26.818313649435495" y2="22.513508569990535" /><path d="M 56.25429882871897 25.957352633546506 a86.0,86.0 0 0,1 42.265352541879196,-11.944610805530505" fill="none" id="id60" stroke="none" /><text fill="#e1ed5e" style="font-size:6.75px; font-family:Arial;" text-anchor="middle"><textPath startOffset="22.20632615414155" xlink:href="#id60">December</textPath></text></svg>