<?xml version="1.0" encoding="utf-8" ?>
<svg baseProfile="full" height="200mm" version="1.1" viewBox="0,0,200,200" width="200mm" xmlns="http://www.w3.org/2000/svg" xmlns:ev="http://www.w3.org/2001/xml-events" xmlns:xlink="http://www.w3.org/1999/xlink"><defs /><rect fill="#1a1a1a" height="200" width="200" x="0" y="0" /><text alignment-baseline="middle" fill="#e1ed5e" style="dominant-baseline: central; font-size:9.0px; font-family:Arial;" text-anchor="middle" x="100.0" y="100.0">2025</text><line stroke="#e1ed5e" stroke-width="0.3" x1="100.0" x2="100.0" y1="15.0" y2="10.0" /><path d="M 100.0 14.0 a86.0,86.0 0 0,1 42.46469731375804,11.215312516191453" fill="none" id="id37" stroke="none" /><text fill="#e1ed5e" style="font-size:6.75px; font-family:Arial;" text-anchor="middle"><textPath startOffset="22.20632615414155" xlink:href="#id37">January</textPath></text><path d="M 100.72285384407766 79.0124445844662 l 1.3549151480477066 -39.33901297748696 a60.36233907050363,60.36233907050363 0 0,0 1.0381148635112392,0.04470340975541693 l -2.031870843948277 39.30986184120735" fill="red" stroke="none" /><path d="M 101.44485096284872 79.0497635885617 l 3.168706883738962 -45.94602491179848 a67.05516158380797,67.05516158380797 0 0,0 1.150825623271326,0.08932621734367495 l -3.959122696372629 45.88467343226635" fill="red" stroke="none" /><path d="M 102.16513564639614 79.11191278185805 l 4.897237468826128 -47.245965187936875 a68.49909642683551,68.49909642683551 0 0,0 1.1717693436198724,0.13166193882831378 l -5.7097735159557255 47.15466729563796" fill="red" stroke="none" /><path d="M 102.88285421437855 79.19881850522331 l 2.771437649467261 -19.997257322445925 a41.18839188902875,41.18839188902875 0 0,0 0.7014403136084494,0.10337406862340108 l -3.115246943504366 19.946588769661556" fill="red" stroke="none" /><path d="M 105.01212808612495 79.60689891045804 l 10.658166660154434 -43.36542610142237 a65.65598165434898,65.65598165434898 0 0,0 1.095176513246548,0.27918487834881633 l -11.403052062086006 43.17553822690469" fill="red" stroke="none" /><path d="M 105.71112130821622 79.79150937346287 l 12.845805638034987 -45.45418120485138 a68.23449281503545,68.23449281503545 0 0,0 1.1275255474046584,0.3291556260737053 l -13.626321403163072 45.22632724985897" fill="red" stroke="none" /><path d="M 106.40334571778207 80.00007090966166 l 10.826400290069616 -33.81470369524409 a56.50556476438551,56.50556476438551 0 0,0 0.9237776677384348,0.3045549730623488 l -11.406860780050469 33.623334997922505" fill="red" stroke="none" /><path d="M 108.09893153111575 80.62456947434976 l 15.191515026222874 -36.343330331797844 a60.390605331704826,60.390605331704826 0 0,0 0.955656144219062,0.40916208729560777 l -15.81485492823225 36.076448716539446" fill="red" stroke="none" /><line stroke="#e1ed5e" stroke-width="0.3" x1="143.23703022742887" x2="145.7803849466894" y1="26.81831364943548" y2="22.513508569990506" /><path d="M 143.74570117128098 25.957352633546492 a86.0,86.0 0 0,1 28.547481713284135,27.462654790039103" fill="none" id="id38" stroke="none" /><text fill="#e1ed5e" style="font-size:6.75px; font-family:Arial;" text-anchor="middle"><textPath startOffset="19.985693538727396" xlink:href="#id38">February</textPath></text><path d="M 113.34407831869373 83.78471172551755 l 26.924480718433152 -32.717749856018244 a63.37191071450827,63.37191071450827 0 0,0 0.8363355915726535,0.7004070062180755 l -27.483673846964923 32.24944169240635" fill="red" stroke="none" /><path d="M 114.16331599549186 84.49514656593476 l 26.55350351939684 -29.068629151551026 a60.37097598364844,60.37097598364844 0 0,0 0.7612265946705119,0.7074771582749476 l -27.049937997862198 28.607247407201438" fill="red" stroke="none" /><path d="M 114.94478906791727 85.2469230424477 l 36.41699233234189 -35.94983428672144 a72.17214003514589,72.17214003514589 0 0,0 0.8651574672318938,0.8916208194708511 l -37.03041406327689 35.317649271700475" fill="red" stroke="none" /><path d="M 115.4437574822437 85.77008943001954 l 30.79089163290612 -28.370792199370804 a62.86861423034261,62.86861423034261 0 0,0 0.7264509070785634,0.8021652357736317 l -31.274686180600717 27.836574176327623" fill="red" stroke="none" /><path d="M 116.60985879189232 87.15038557335679 l 43.6112039508648 -33.7382251391475 a76.13805351645749,76.13805351645749 0 0,0 0.7930106746930139,1.0435090922295749 l -44.185490565781926 32.98253127103689" fill="red" stroke="none" /><path d="M 117.04232023915458 87.72973835380427 l 51.126960717463746 -36.81078493858721 a84.0,84.0 0 0,0 0.8347495207844684,1.1806939986728273 l -51.75302285805209 35.92526443958259" fill="red" stroke="none" /><path d="M 117.65298651832404 88.62581576622439 l 46.25435804744558 -29.80263931548142 a76.02420329773047,76.02420329773047 0 0,0 0.699322766405178,1.1061606737273784 l -46.76050841009671 29.002030994039835" fill="red" stroke="none" /><line stroke="#e1ed5e" stroke-width="0.3" x1="172.23445277983987" x2="176.4835382374775" y1="55.19839476539836" y2="52.563006222186495" /><path d="M 173.08426987136738 54.67131705675599 a86.0,86.0 0 0,1 12.851231095245387,41.99856678651699" fill="none" id="id39" stroke="none" /><text fill="#e1ed5e" style="font-size:6.75px; font-family:Arial;" text-anchor="middle"><textPath startOffset="22.20632615414155" xlink:href="#id39">March</textPath></text><path d="M 117.84615892207809 88.93136811851018 l 13.058832319154137 -8.099412785347303 a36.36663883245884,36.36663883245884 0 0,0 0.3253674717166542,0.5348185738858137 l -13.196315589157015 7.873426438254408" fill="red" stroke="none" /><path d="M 118.03404312379186 89.2402003453031 l 20.906696702130827 -12.473734614711367 a45.345102633448406,45.345102633448406 0 0,0 0.39415760932790905,0.6737431224076905 l -21.11831398592906 12.112012079949782" fill="red" stroke="none" /><path d="M 118.3937258080291 89.86733742301442 l 35.13805224682993 -19.35671058411673 a61.116891209791,61.116891209791 0 0,0 0.4996797724603484,0.92583073016361 l -35.46604011850874 18.74899887062066" fill="red" stroke="none" /><path d="M 118.89224826269711 90.83032412892265 l 42.42862211251036 -20.593457539743444 a68.16225681418797,68.16225681418797 0 0,0 0.5032380670616078,1.05994771093954 l -42.776818373413725 19.860067413163364" fill="red" stroke="none" /><path d="M 119.196687751892 91.48605970444005 l 35.942739604602465 -15.940996853599536 a60.31915450477959,60.31915450477959 0 0,0 0.4127820417510258,0.9527578641451554 l -36.21181235619618 15.319939844867777" fill="red" stroke="none" /><path d="M 119.47837535516314 92.15188598940014 l 37.92089159744216 -15.278865676106667 a61.88322095791218,61.88322095791218 0 0,0 0.389588617368187,0.9914605367401716 l -38.178273764692044 14.623856134470712" fill="red" stroke="none" /><path d="M 119.7369772167798 92.82701384747503 l 46.47021683120224 -16.8886156260878 a70.44397223226193,70.44397223226193 0 0,0 0.40437161086278567,1.1432129971758342 l -46.75404152287483 16.086205002485354" fill="red" stroke="none" /><path d="M 120.28053869075195 94.5502522615342 l 41.75738070320497 -11.220963827519958 a64.23874272467813,64.23874272467813 0 0,0 0.2777673083543181,1.0703507475053646 l -41.94434434342959 10.500516654465743" fill="red" stroke="none" /><line stroke="#e1ed5e" stroke-width="0.3" x1="184.98032266829074" x2="189.97916517819016" y1="98.17113171792111" y2="98.06355123074" /><path d="M 185.9800911702706 98.14961562048488 a86.0,86.0 0 0,1 -9.607161424134198,41.387399972396054" fill="none" id="id40" stroke="none" /><text fill="#e1ed5e" style="font-size:6.75px; font-family:Arial;" text-anchor="middle"><textPath startOffset="21.466115282336823" xlink:href="#id40">April</textPath></text><line stroke="#e1ed5e" stroke-width="0.3" x1="174.80103733775053" x2="179.2010983576182" y1="140.37084112569926" y2="142.7455964860345" /><path d="M 175.68104954172406 140.8457921977663 a86.0,86.0 0 0,1 -30.038265399797805,32.042727171017184" fill="none" id="id41" stroke="none" /><text fill="#e1ed5e" style="font-size:6.75px; font-family:Arial;" text-anchor="middle"><textPath startOffset="22.206326154141568" xlink:href="#id41">May</textPath></text><line stroke="#e1ed5e" stroke-width="0.3" x1="143.8653032363475" x2="146.44561519142675" y1="172.8068346515853" y2="177.08958963109032" /><path d="M 144.38136562736335 173.6633856474863 a86.0,86.0 0 0,1 -40.68145358897372,12.25698825130547" fill="none" id="id42" stroke="none" /><text fill="#e1ed5e" style="font-size:6.75px; font-family:Arial;" text-anchor="middle"><textPath startOffset="21.466115282336833" xlink:href="#id42">June</textPath></text><line stroke="#e1ed5e" stroke-width="0.3" x1="102.19456741930631" x2="102.32365962044197" y1="184.97166512339345" y2="189.96999836594603" /><path d="M 102.22038585953345 185.97133177190398 a86.0,86.0 0 0,1 -42.740103519485714,-10.115201625700543" fill="none" id="id43" stroke="none" /><text fill="#e1ed5e" style="font-size:6.75px; font-family:Arial;" text-anchor="middle"><textPath startOffset="22.20632615414155" xlink:href="#id43">July</textPath></text><line stroke="#e1ed5e" stroke-width="0.3" x1="58.666819895761336" x2="56.23545636021788" y1="174.27360380694188" y2="178.64263932499728" /><path d="M 58.180547188652646 175.14741091055294 a86.0,86.0 0 0,1 -31.652253787137756,-30.449443065178592" fill="none" id="id44" stroke="none" /><text fill="#e1ed5e" style="font-size:6.75px; font-family:Arial;" text-anchor="middle"><textPath startOffset="22.20632615414155" xlink:href="#id44">August</textPath></text><line stroke="#e1ed5e" stroke-width="0.3" x1="26.63291911575756" x2="22.317208475507996" y1="142.92168965132927" y2="145.44649492493687" /><path d="M 25.769776987707644 143.4266507060508 a86.0,86.0 0 0,1 -11.730757126820373,-40.83630448921669" fill="none" id="id45" stroke="none" /><text fill="#e1ed5e" style="font-size:6.75px; font-family:Arial;" text-anchor="middle"><textPath startOffset="21.46611528233685" xlink:href="#id45">September</textPath></text><line stroke="#e1ed5e" stroke-width="0.3" x1="15.007084014347285" x2="10.007500721073583" y1="101.09737516637583" y2="101.16192664675087" /><path d="M 14.007167355692545 101.11028546245083 a86.0,86.0 0 0,1 10.666146001902534,-42.60595125391555" fill="none" id="id46" stroke="none" /><text fill="#e1ed5e" style="font-size:6.75px; font-family:Arial;" text-anchor="middle"><textPath startOffset="22.20632615414155" xlink:href="#id46">October</textPath></text><line stroke="#e1ed5e" stroke-width="0.3" x1="26.266209847984243" x2="21.928928074336255" y1="57.711370442889674" y2="55.22380399835377" /><path d="M 25.398753493254645 57.213857153982495 a86.0,86.0 0 0,1 29.58750427330803,-30.492523968695096" fill="none" id="id47" stroke="none" /><text fill="#e1ed5e" style="font-size:6.75px; font-family:Arial;" text-anchor="middle"><textPath startOffset="21.46611528233685" xlink:href="#id47">November</textPath></text><line stroke="#e1ed5e" stroke-width="0.3" x1="56.762969772571076" x2="54.21961505331055" y1="26.818313649435495" y2="22.513508569990535" /><path d="M 56.25429882871897 25.957352633546506 a86.0,86.0 0 0,1 42.265352541879196,-11.944610805530505" fill="none" id="id48" stroke="none" /><text fill="#e1ed5e" style="font-size:6.75px; font-family:Arial;" text-anchor="middle"><textPath startOffset="22.20632615414155" xlink:href="#id48">December</textPath></text></svg>