<?xml version="1.0" encoding="utf-8" ?>
<svg baseProfile="full" height="200mm" version="1.1" viewBox="0,0,200,200" width="200mm" xmlns="http://www.w3.org/2000/svg" xmlns:ev="http://www.w3.org/2001/xml-events" xmlns:xlink="http://www.w3.org/1999/xlink"><defs /><rect fill="#1a1a1a" height="200" width="200" x="0" y="0" /><rect fill="#1a1a1a" height="200" width="180" x="10" y="0" /><text alignment-baseline="middle" fill="#e1ed5e" style="dominant-baseline: central; font-size:9.0px; font-family:Arial;" text-anchor="middle" x="100.0" y="100.0">2025</text><line stroke="#e1ed5e" stroke-width="0.3" x1="100.0" x2="100.0" y1="15.0" y2="10.0" /><path d="M 100.0 14.0 a86.0,86.0 0 0,1 42.46469731375804,11.215312516191453" fill="none" id="id37" stroke="none" /><text fill="#e1ed5e" style="font-size:6.75px; font-family:Arial;" text-anchor="middle"><textPath startOffset="22.20632615414155" xlink:href="#id37">January</textPath></text><path d="M 100.72285384407766 79.0124445844662 l 0.8393502782068206 -24.369947841097428 a45.38439801732524,45.38439801732524 0 0,0 0.7805234004975455,0.03361097950001119 l -1.2587145110936977 24.351889135073222" fill="red" stroke="none" /><path d="M 101.44485096284872 79.0497635885617 l 1.9629679454499087 -28.46289588523938 a49.53050447028304,49.53050447028304 0 0,0 0.8500609398534488,0.06598108934425019 l -2.4526190746656984 28.424889533706665" fill="red" stroke="none" /><path d="M 102.16513564639614 79.11191278185805 l 3.0337675667933004 -29.268190027829167 a50.42500115810441,50.42500115810441 0 0,0 0.8625875900738937,0.09692176633289208 l -3.5371218603769194 29.211632308025674" fill="red" stroke="none" /><path d="M 102.88285421437855 79.19881850522331 l 1.7168654180780456 -12.38801080728443 a33.506415898457405,33.506415898457405 0 0,0 0.5706158895212771,0.08409394923072898 l -1.9298502880279786 12.356622373892732" fill="red" stroke="none" /><path d="M 105.01212808612495 79.60689891045804 l 6.602579625938539 -26.864252359443398 a48.66373280214944,48.66373280214944 0 0,0 0.8117368116190442,0.20692978735574905 l -7.064025326242608 26.746619575918782" fill="red" stroke="none" /><path d="M 105.71112130821622 79.79150937346287 l 7.957790236245682 -28.158205844054756 a50.26108305924862,50.26108305924862 0 0,0 0.8305279756845052,0.2424538906789394 l -8.441308429653615 28.017053624457112" fill="red" stroke="none" /><path d="M 106.40334571778207 80.00007090966166 l 6.706797919074099 -20.947718382941115 a42.99518228563487,42.99518228563487 0 0,0 0.7029040304512842,0.2317364075098224 l -7.066384771767801 20.829168251172057" fill="red" stroke="none" /><path d="M 108.09893153111575 80.62456947434976 l 9.410923172581063 -22.514165901024253 a45.40190855607541,45.40190855607541 0 0,0 0.7184662685953674,0.30760976098802933 l -9.797073198966745 22.34883661207343" fill="red" stroke="none" /><line stroke="#e1ed5e" stroke-width="0.3" x1="143.23703022742887" x2="145.7803849466894" y1="26.81831364943548" y2="22.513508569990506" /><path d="M 143.74570117128098 25.957352633546492 a86.0,86.0 0 0,1 28.547481713284135,27.462654790039103" fill="none" id="id38" stroke="none" /><text fill="#e1ed5e" style="font-size:6.75px; font-family:Arial;" text-anchor="middle"><textPath startOffset="19.985693538727396" xlink:href="#id38">February</textPath></text><path d="M 113.34407831869373 83.78471172551755 l 16.679325206566613 -20.268171393256253 a47.24878399036457,47.24878399036457 0 0,0 0.6235544938464886,0.522208956129193 l -17.02573723737222 19.97806127973324" fill="red" stroke="none" /><path d="M 114.16331599549186 84.49514656593476 l 16.449510213599577 -18.007594055318787 a45.38974845972113,45.38974845972113 0 0,0 0.5723260737461501,0.5319147111982391 l -16.757044171140574 17.721774758045907" fill="red" stroke="none" /><path d="M 114.94478906791727 85.2469230424477 l 22.559798441732802 -22.27040080962051 a52.70039838791865,52.70039838791865 0 0,0 0.6317415995867708,0.6510652500285302 l -22.939804305022683 21.878771364041864" fill="red" stroke="none" /><path d="M 115.4437574822437 85.77008943001954 l 19.07451067733271 -17.57529418709497 a46.936999119840635,46.936999119840635 0 0,0 0.542360063182327,0.5988875280044251 l -19.374214381131075 17.244353871820994" fill="red" stroke="none" /><path d="M 116.60985879189232 87.15038557335679 l 27.01650817162751 -20.90034102692807 a55.15722425533885,55.15722425533885 0 0,0 0.5744862864331768,0.7559566124204973 l -27.3722703982848 20.432199638626543" fill="red" stroke="none" /><path d="M 117.04232023915458 87.72973835380427 l 31.672410456039422 -22.80374724847842 a60.02758604715801,60.02758604715801 0 0,0 0.5965237938894475,0.8437406023892405 l -32.06024686973275 22.255180145757386" fill="red" stroke="none" /><path d="M 117.65298651832404 88.62581576622439 l 28.653903789726 -18.46230270345025 a55.08669569648399,55.08669569648399 0 0,0 0.5067252105979706,0.8015175928434476 l -28.967456596569924 17.966337462892593" fill="red" stroke="none" /><line stroke="#e1ed5e" stroke-width="0.3" x1="172.23445277983987" x2="176.4835382374775" y1="55.19839476539836" y2="52.563006222186495" /><path d="M 173.08426987136738 54.67131705675599 a86.0,86.0 0 0,1 12.851231095245387,41.99856678651699" fill="none" id="id39" stroke="none" /><text fill="#e1ed5e" style="font-size:6.75px; font-family:Arial;" text-anchor="middle"><textPath startOffset="22.20632615414155" xlink:href="#id39">March</textPath></text><path d="M 117.84615892207809 88.93136811851018 l 8.089757174780889 -5.017468720818946 a30.51940982999027,30.51940982999027 0 0,0 0.27305309298491864,0.4488274903905516 l -8.174926066052032 4.8774734572213125" fill="red" stroke="none" /><path d="M 118.03404312379186 89.2402003453031 l 12.951395309591195 -7.727297635000972 a36.08143790244128,36.08143790244128 0 0,0 0.3136341628709668,0.536102450354103 l -13.08248914693249 7.5032157722929735" fill="red" stroke="none" /><path d="M 118.3937258080291 89.86733742301442 l 21.76751361258236 -11.991201395421426 a45.851832121184046,45.851832121184046 0 0,0 0.3748756291048542,0.6945876069902978 l -21.97069734090568 11.614732805098669" fill="red" stroke="none" /><path d="M 118.89224826269711 90.83032412892265 l 26.28391587870396 -12.757348192711625 a50.21633390466485,50.21633390466485 0 0,0 0.3707443384392712,0.7808821283473993 l -26.49961841098499 12.303023648723686" fill="red" stroke="none" /><path d="M 119.196687751892 91.48605970444005 l 22.266005756971698 -9.87521629176716 a45.35764580534581,45.35764580534581 0 0,0 0.310395956280636,0.7164366625319568 l -22.432692423095016 9.4904804846486" fill="red" stroke="none" /><path d="M 119.47837535516314 92.15188598940014 l 23.491442219113097 -9.465035632971778 a46.32656228285542,46.32656228285542 0 0,0 0.2916509688381249,0.742219903801149 l -23.650886737832924 9.059266724274845" fill="red" stroke="none" /><path d="M 119.7369772167798 92.82701384747503 l 28.78762517475929 -10.462252374039984 a51.6298235048872,51.6298235048872 0 0,0 0.2963721981832111,0.8378841141733583 l -28.963450453752312 9.96517063344001" fill="red" stroke="none" /><path d="M 120.28053869075195 94.5502522615342 l 25.86809156346456 -6.951224306517184 a47.78577384536989,47.78577384536989 0 0,0 0.20662493093217796,0.7962101464956752 l -25.98391282626704 6.504917734472658" fill="red" stroke="none" /><line stroke="#e1ed5e" stroke-width="0.3" x1="184.98032266829074" x2="189.97916517819016" y1="98.17113171792111" y2="98.06355123074" /><path d="M 185.9800911702706 98.14961562048488 a86.0,86.0 0 0,1 -9.607161424134198,41.387399972396054" fill="none" id="id40" stroke="none" /><text fill="#e1ed5e" style="font-size:6.75px; font-family:Arial;" text-anchor="middle"><textPath startOffset="21.466115282336823" xlink:href="#id40">April</textPath></text><path d="M 120.76222939487914 103.15116336523771 l 54.645722259422385 8.293791325382314 a76.27152916106915,76.27152916106915 0 0,0 -0.2081785830330626,1.2963282352688563 l -54.494861922028036 -9.233198790344375" fill="red" stroke="none" /><path d="M 120.49622156327973 104.57218783832717 l 30.159458463278774 6.727811210012659 a51.90075045166071,51.90075045166071 0 0,0 -0.20201609379515958,0.8702800448171601 l -30.039181803553063 -7.2459599121783835" fill="red" stroke="none" /><path d="M 120.23288151984713 105.62410040840565 l 11.893507668786773 3.306018535806902 a33.3444434150183,33.3444434150183 0 0,0 -0.15847718913112585,0.5516798856194559 l -11.834837842769549 -3.51025589693094" fill="red" stroke="none" /><path d="M 118.64920377521936 109.65438752849418 l 25.953122491001636 13.435506690937046 a50.22460277018576,50.22460277018576 0 0,0 -0.4040628887344748,0.7643347104102244 l -25.71800709404227 -13.880256416433404" fill="red" stroke="none" /><line stroke="#e1ed5e" stroke-width="0.3" x1="174.80103733775053" x2="179.2010983576182" y1="140.37084112569926" y2="142.7455964860345" /><path d="M 175.68104954172406 140.8457921977663 a86.0,86.0 0 0,1 -30.038265399797805,32.042727171017184" fill="none" id="id41" stroke="none" /><text fill="#e1ed5e" style="font-size:6.75px; font-family:Arial;" text-anchor="middle"><textPath startOffset="22.206326154141568" xlink:href="#id41">May</textPath></text><path d="M 117.55443506779139 111.5257021239791 l 15.470216923595828 10.157268597145427 a39.50669384351693,39.50669384351693 0 0,0 -0.3781296560969661,0.5652525305595023 l -15.29308416208814 -10.422058041910736" fill="red" stroke="none" /><path d="M 116.93607887273984 112.41649034213515 l 19.697694550325615 14.441136935191869 a45.4242831333673,45.4242831333673 0 0,0 -0.4677375926687066,0.626610941964703 l -19.446195690961815 -14.778060756665887" fill="red" stroke="none" /><path d="M 116.498646956653 112.99209946851258 l 12.539644258943152 9.874525222582378 a36.96085607078334,36.96085607078334 0 0,0 -0.39791369108203456,0.4964585116518256 l -12.367812655806263 -10.088911567812454" fill="red" stroke="none" /><path d="M 116.0416608686014 113.55231037782055 l 18.597239305953515 15.711313267954653 a45.34548570899152,45.34548570899152 0 0,0 -0.5088573030702408,0.5919160039275349 l -18.324039493312494 -16.029106371043714" fill="red" stroke="none" /><path d="M 115.56566222782051 114.09645910891815 l 18.04288613960434 16.33986417996501 a45.342080882012326,45.342080882012326 0 0,0 -0.5288907419522582,0.5740064431990173 l -17.75894898965636 -16.648021877965363" fill="red" stroke="none" /><path d="M 115.07121518719521 114.62390073753431 l 7.008844640953008 6.80082176792083 a30.766016584055215,30.766016584055215 0 0,0 -0.37206277815322325,0.3768976299331773 l -6.890741237744249 -6.920459891834672" fill="red" stroke="none" /><path d="M 114.55890576462653 115.13401014063108 l 16.889396285294847 17.55655945461406 a45.36153703617918,45.36153703617918 0 0,0 -0.5673738226837372,0.5364873630359037 l -16.584686628220304 -17.844681454395886" fill="red" stroke="none" /><path d="M 113.75828350139079 115.86535959552629 l 15.671262976511207 18.071311178700054 a44.91988233659146,44.91988233659146 0 0,0 -0.5885243056615812,0.5015531810469411 l -15.357873194272578 -18.33838874996994" fill="red" stroke="none" /><path d="M 113.20401910651253 116.32954008644616 l 16.963008286068405 20.97831891635559 a47.978389771621806,47.978389771621806 0 0,0 -0.6466630350640016,0.5137482247752901 l -16.599387758287055 -21.267201055136006" fill="red" stroke="none" /><path d="M 112.92097659922987 116.55440617244103 l 10.644677252082467 13.638002472353332 a38.30041228517163,38.30041228517163 0 0,0 -0.5232041891176475,0.40117066164425624 l -10.408344334471325 -13.81921247582496" fill="red" stroke="none" /><path d="M 112.34349029814194 116.9893568818739 l 18.202745640943647 25.053930003130294 a51.96836058739056,51.96836058739056 0 0,0 -0.7282318255887681,0.5195740718033984 l -17.768786487505995 -25.36354833677791" fill="red" stroke="none" /><path d="M 111.45004920935366 117.60387380957326 l 13.791562260481284 21.2038321610052 a46.294459628480105,46.294459628480105 0 0,0 -0.6717506815810279,0.42874306776847976 l -13.424529776853324 -21.438089657597487" fill="red" stroke="none" /><path d="M 111.1453310114006 117.79835938074945 l 3.3358031993634727 5.327057949646649 a27.28531060360402,27.28531060360402 0 0,0 -0.40021158105797955,0.2458426405891347 l -3.2436124183731843 -5.383689057064162" fill="red" stroke="none" /><line stroke="#e1ed5e" stroke-width="0.3" x1="143.8653032363475" x2="146.44561519142675" y1="172.8068346515853" y2="177.08958963109032" /><path d="M 144.38136562736335 173.6633856474863 a86.0,86.0 0 0,1 -40.68145358897372,12.25698825130547" fill="none" id="id42" stroke="none" /><text fill="#e1ed5e" style="font-size:6.75px; font-family:Arial;" text-anchor="middle"><textPath startOffset="21.466115282336833" xlink:href="#id42">June</textPath></text><path d="M 110.5260780823613 118.17145234162733 l 15.887127115414575 27.426375803434045 a52.69553434937694,52.69553434937694 0 0,0 -0.7888050571653786,0.4479040980059142 l -15.412673291327998 -27.69578306723459" fill="red" stroke="none" /><path d="M 109.2508944713604 118.85261126421891 l 8.446739031720435 17.21380434165872 a40.17452633529439,40.17452633529439 0 0,0 -0.6234461524649274,0.29929203994345754 l -8.149180211255276 -17.356650658101735" fill="red" stroke="none" /><path d="M 108.2653958097858 119.30500536409082 l 9.592484422224658 22.404609227153717 a45.371751517116785,45.371751517116785 0 0,0 -0.7206082887403722,0.30121432313653823 l -9.205404673986825 -22.56640859331023" fill="red" stroke="none" /><path d="M 106.91757812671514 119.82793768551818 l 9.64958407100151 27.6587193012075 a50.29367211747811,50.29367211747811 0 0,0 -0.8198593432163725,0.2781408027451933 l -9.17205499484791 -27.82072309085082" fill="red" stroke="none" /><path d="M 105.88484417918355 120.15858648285463 l 6.841843553391354 23.436796416984482 a45.41504146013804,45.41504146013804 0 0,0 -0.75230844872472,0.21260988221558844 l -6.437403936562029 -23.55109509253859" fill="red" stroke="none" /><path d="M 104.83641907484287 120.43548508189849 l 5.7220615727746695 24.177620280339447 a45.845508871079815,45.845508871079815 0 0,0 -0.7695056246612586,0.17513697487767946 l -5.3050357987205485 -24.27253398879481" fill="red" stroke="none" /><path d="M 104.13013068566511 120.58985236759428 l 3.8368296090391465 19.127664769524973 a40.50868578311021,40.50868578311021 0 0,0 -0.6848521592449002,0.13125354628116176 l -3.507009835222542 -19.190875514154605" fill="red" stroke="none" /><path d="M 103.06178313531738 120.77559828337769 l 4.2706392831058615 28.978239881062784 a50.291240098207254,50.291240098207254 0 0,0 -0.8575169139488779,0.11884403056139921 l -3.771193777970153 -29.047458477116784" fill="red" stroke="none" /><path d="M 101.62511606390274 120.93702456842531 l 1.3582031531431484 17.4982780725087 a38.55091027006995,38.55091027006995 0 0,0 -0.6620425642503432,0.04565833137241828 l -1.056797828113875 -17.519064748397405" fill="red" stroke="none" /><line stroke="#e1ed5e" stroke-width="0.3" x1="102.19456741930631" x2="102.32365962044197" y1="184.97166512339345" y2="189.96999836594603" /><path d="M 102.22038585953345 185.97133177190398 a86.0,86.0 0 0,1 -42.740103519485714,-10.115201625700543" fill="none" id="id43" stroke="none" /><text fill="#e1ed5e" style="font-size:6.75px; font-family:Arial;" text-anchor="middle"><textPath startOffset="22.20632615414155" xlink:href="#id43">July</textPath></text><path d="M 96.22490169976321 120.6578951692458 l -1.45997165699388 7.989180424350239 a29.121485153101403,29.121485153101403 0 0,0 -0.49233668291050275,-0.09435749705097662 l 1.5972759544760777 -7.962865728950795" fill="red" stroke="none" /><path d="M 95.86986931433489 120.58985236759428 l -1.9218586527774097 9.58100092798835 a30.771853430305278,30.771853430305278 0 0,0 -0.5184449757754963,-0.1086451854198383 l 2.0864950899822925 -9.546499761841972" fill="red" stroke="none" /><path d="M 95.51606077576429 120.51570834832081 l -2.4290167827031284 11.11366532752414 a32.37601334136286,32.37601334136286 0 0,0 -0.543423445038965,-0.1236814068560248 l 2.619960377134956 -11.070207187090428" fill="red" stroke="none" /><path d="M 94.46302465271185 120.25689768951611 l -3.3109763408750204 12.113131228291037 a33.557488303145405,33.557488303145405 0 0,0 -0.5558859170170607,-0.1570989127433657 l 3.518993425996695 -12.05434352220915" fill="red" stroke="none" /><path d="M 93.76903079525671 120.05430185196036 l -7.225638212921611 23.25563247603297 a45.352295362949924,45.352295362949924 0 0,0 -0.743515583075942,-0.23805021025267428 l 7.624875141088494 -23.127809419120588" fill="red" stroke="none" /><path d="M 93.08242187328487 119.8279376855182 l -5.178009272271567 14.841790479985436 a36.719113355260106,36.719113355260106 0 0,0 -0.594990286943561,-0.21334234815751482 l 5.4327191198448554 -14.750460590787963" fill="red" stroke="none" /><path d="M 91.07499286063937 119.00905698771935 l -6.509669588605789 13.864714979925008 a36.31685736786029,36.31685736786029 0 0,0 -0.5635811311537019,-0.2705531917227191 l 6.747363387759733 -13.750607511702727" fill="red" stroke="none" /><path d="M 90.10565033884886 118.52300852407294 l -8.088001765908782 15.141381776800428 a38.166164821420296,38.166164821420296 0 0,0 -0.5768128606085896,-0.31452436232496905 l 8.347437438386013 -14.999916762715692" fill="red" stroke="none" /><line stroke="#e1ed5e" stroke-width="0.3" x1="58.666819895761336" x2="56.23545636021788" y1="174.27360380694188" y2="178.64263932499728" /><path d="M 58.180547188652646 175.14741091055294 a86.0,86.0 0 0,1 -31.652253787137756,-30.449443065178592" fill="none" id="id44" stroke="none" /><text fill="#e1ed5e" style="font-size:6.75px; font-family:Arial;" text-anchor="middle"><textPath startOffset="22.20632615414155" xlink:href="#id44">August</textPath></text><path d="M 89.7882731507175 118.34994917583269 l -5.574182764095069 10.016520411054085 a32.46307963125955,32.46307963125955 0 0,0 -0.4859432910295944,-0.27593128298745523 l 5.745774822045871 -9.919085962271998" fill="red" stroke="none" /><path d="M 89.1626897886671 117.98757091392108 l -11.116187583010088 18.45044651695453 a42.54039468198452,42.54039468198452 0 0,0 -0.6239679240542968,-0.38329206188115245 l 11.432134706996694 -18.256365988244998" fill="red" stroke="none" /><path d="M 88.54995079064634 117.60387380957326 l -9.365256583358184 14.39861017828926 a38.1763793023579,38.1763793023579 0 0,0 -0.5477861425857372,-0.3630427854404431 l 9.611717424683883 -14.2352693717575" fill="red" stroke="none" /><path d="M 87.65650970185807 116.9893568818739 l -10.240402452838463 14.094704794435525 a38.42201324871451,38.42201324871451 0 0,0 -0.531714976993023,-0.3933500284696426 l 10.48150240025005 -13.916344817226117" fill="red" stroke="none" /><path d="M 85.18274418774928 114.88116024355367 l -13.841885426870249 13.90158324322523 a40.617640246444616,40.617640246444616 0 0,0 -0.4912014537479186,-0.4975844793081627 l 14.079127505673702 -13.661258269936404" fill="red" stroke="none" /><path d="M 84.67929136418377 114.36230785411682 l -13.064866119535976 12.247581606175455 a38.90793069903182,38.90793069903182 0 0,0 -0.4538398753419568,-0.49255355021970815 l 13.273752402873663 -12.020876801154403" fill="red" stroke="none" /><path d="M 83.95833913139862 113.55231037782056 l -20.401155170062914 17.235296843354647 a47.70697642099411,47.70697642099411 0 0,0 -0.5245586518377277,-0.6318646880304162 l 20.694809821794177 -16.88157089821047" fill="red" stroke="none" /><path d="M 83.50135304334701 112.99209946851258 l -16.143253857341197 12.712240004350896 a41.54764441562051,41.54764441562051 0 0,0 -0.4376217002563355,-0.5656850395801682 l 16.359682374815602 -12.432476970657476" fill="red" stroke="none" /><path d="M 83.06392112726016 112.41649034213515 l -17.145553698283987 12.57006438768803 a42.25973965812758,42.25973965812758 0 0,0 -0.4250529040353563,-0.5903613075275447 l 17.35938639469495 -12.273069474709347" fill="red" stroke="none" /><path d="M 82.6465618267979 111.8261652097733 l -16.61748261441364 11.32462010162731 a41.109394543012,41.109394543012 0 0,0 -0.39346955436145137,-0.5881835971201798 l 16.80995527418582 -11.036899590301308" fill="red" stroke="none" /><path d="M 82.05923443525364 110.91462005526583 l -19.442131803348957 11.828005941671426 a43.75737712512159,43.75737712512159 0 0,0 -0.3859382415646305,-0.6468546919885012 l 19.64285092061182 -11.491589155796815" fill="red" stroke="none" /><line stroke="#e1ed5e" stroke-width="0.3" x1="26.63291911575756" x2="22.317208475507996" y1="142.92168965132927" y2="145.44649492493687" /><path d="M 25.769776987707644 143.4266507060508 a86.0,86.0 0 0,1 -11.730757126820373,-40.83630448921669" fill="none" id="id45" stroke="none" /><text fill="#e1ed5e" style="font-size:6.75px; font-family:Arial;" text-anchor="middle"><textPath startOffset="21.46611528233685" xlink:href="#id45">September</textPath></text><path d="M 81.69416730710424 110.29060199501025 l -16.48517105433332 9.267119228378153 a39.91138185018761,39.91138185018761 0 0,0 -0.3314993583838713,-0.6017676259643551 l 16.64224682216871 -8.981981084015974" fill="red" stroke="none" /><path d="M 81.18737489456691 109.33194174019688 l -23.431030013305538 11.622886533460113 a47.155394450363644,47.155394450363644 0 0,0 -0.3544440689065836,-0.7302597648129323 l 23.62762733882684 -11.217837812681895" fill="red" stroke="none" /><path d="M 80.87730276802145 108.67885076344099 l -17.696046752889206 8.03136435242873 a40.43329318571362,40.43329318571362 0 0,0 -0.28218379000192007,-0.63624995210941 l 17.831671627622406 -7.725566063826624" fill="red" stroke="none" /><path d="M 80.58989483394504 108.01547362559985 l -6.537321981275884 2.699610923005683 a28.072798443507665,28.072798443507665 0 0,0 -0.18059817524748376,-0.44822986021569666 l 6.582822770780756 -2.586681694947181" fill="red" stroke="none" /><path d="M 80.45479744820244 107.68017299344265 l -20.13281715577758 7.911072714234995 a42.631352202714595,42.631352202714595 0 0,0 -0.26249893849880257,-0.6853018960796092 l 20.266010373869893 -7.563347251322227" fill="red" stroke="none" /><path d="M 79.97269907076064 106.31721596034903 l -16.52226813586064 5.211622691335333 a38.324732477880204,38.324732477880204 0 0,0 -0.19303479271545318,-0.6308488715124623 l 16.609529701082224 -4.926446847270823" fill="red" stroke="none" /><path d="M 79.67330655649465 105.27499134158121 l -25.092218783644345 6.511695431067593 a46.923379811923844,46.923379811923844 0 0,0 -0.196159135358218,-0.7835582372106733 l 25.20058923329762 -6.078809354459527" fill="red" stroke="none" /><path d="M 79.50377843672027 104.57218783832718 l -17.24191112606561 3.846233615143484 a38.665701579654424,38.665701579654424 0 0,0 -0.13931797516278388,-0.6508471986184021 l 17.305563139952834 -3.5488725971089177" fill="red" stroke="none" /><path d="M 79.35854240842038 103.8639653848113 l -19.72685370098131 3.692756653140753 a41.06950942696994,41.06950942696994 0 0,0 -0.12409554688216522,-0.6959937296021009 l 19.78749569020266 -3.3526441728054386" fill="red" stroke="none" /><path d="M 79.1416061653843 102.43462659150553 l -22.886548217293154 2.6713561609487204 a44.04192337981192,44.04192337981192 0 0,0 -0.08140981443196729,-0.7537537739987149 l 22.929140333226172 -2.2770060650652235" fill="red" stroke="none" /><path d="M 79.07016306316243 101.71520430193888 l -21.66524627192773 1.775471243293429 a42.73787464677815,42.73787464677815 0 0,0 -0.05377532016857773,-0.7337215190094067 l 21.692598150760645 -1.4022765877872616" fill="red" stroke="none" /><line stroke="#e1ed5e" stroke-width="0.3" x1="15.007084014347285" x2="10.007500721073583" y1="101.09737516637583" y2="101.16192664675087" /><path d="M 14.007167355692545 101.11028546245083 a86.0,86.0 0 0,1 10.666146001902534,-42.60595125391555" fill="none" id="id46" stroke="none" /><text fill="#e1ed5e" style="font-size:6.75px; font-family:Arial;" text-anchor="middle"><textPath startOffset="22.20632615414155" xlink:href="#id46">October</textPath></text><path d="M 79.12142395522702 97.74499172005258 l -17.917545769094453 -1.9351996984372999 a39.02174920090795,39.02174920090795 0 0,0 0.07787560639012088,-0.667190637719182 l 17.881579809700742 2.2433340744813437" fill="red" stroke="none" /><path d="M 79.21141760316559 97.0276538004421 l -35.95316325582137 -5.140574096182645 a57.318802983276974,57.318802983276974 0 0,0 0.14805748842650085,-0.9755138601355234 l 35.85934987395557 5.758687068710261" fill="red" stroke="none" /><path d="M 79.32604984820605 96.31383870115002 l -13.062599856181654 -2.3290590186530937 a34.26861073794413,34.26861073794413 0 0,0 0.10854056361186173,-0.5798280309568111 l 13.02057356865993 2.5535651270724773" fill="red" stroke="none" /><path d="M 79.54389044137918 95.25157060432595 l -21.28100618023474 -4.939910740415525 a42.846829110112566,42.846829110112566 0 0,0 0.17295265339845942,-0.7170004059933153 l 21.192820726575466 5.305496378068237" fill="red" stroke="none" /><path d="M 79.91906864156998 93.8553929516997 l -13.436744939400677 -4.111538264194829 a35.051720943160234,35.051720943160234 0 0,0 0.1815086874788513,-0.575432141029631 l 13.363980768153622 4.342220571650874" fill="red" stroke="none" /><path d="M 80.2630227832202 92.82701384747504 l -20.873451144627925 -7.586013520273535 a43.20919998147033,43.20919998147033 0 0,0 0.26006879105587655,-0.6968550619617242 l 20.739777765070418 7.9441917192646" fill="red" stroke="none" /><path d="M 80.52162464483688 92.15188598940014 l -19.94893507850206 -8.037709204768928 a42.507319219900864,42.507319219900864 0 0,0 0.27928991433103534,-0.6763226806298854 l 19.807623477284825 8.379906455852124" fill="red" stroke="none" /><path d="M 80.65960295795068 91.81776055985345 l -22.44165170277354 -9.494270839695679 a45.367373882429234,45.367373882429234 0 0,0 0.31046252842598143,-0.7165903202219691 l 22.27489846450488 9.879160304504248" fill="red" stroke="none" /><path d="M 81.10775173730289 90.83032412892265 l -5.671525217325642 -2.752771783134141 a27.30428035391671,27.30428035391671 0 0,0 0.2088647258271222,-0.421058542169148 l 5.623300478545107 2.8499899138022506" fill="red" stroke="none" /><path d="M 81.6062741919709 89.86733742301443 l -26.839485302594568 -14.785229004144554 a51.64247000509566,51.64247000509566 0 0,0 0.4356223307708355,-0.7749235183954244 l 26.5810053305313 15.245036032474763" fill="red" stroke="none" /><line stroke="#e1ed5e" stroke-width="0.3" x1="26.266209847984243" x2="21.928928074336255" y1="57.711370442889674" y2="55.22380399835377" /><path d="M 25.398753493254645 57.213857153982495 a86.0,86.0 0 0,1 29.58750427330803,-30.492523968695096" fill="none" id="id47" stroke="none" /><text fill="#e1ed5e" style="font-size:6.75px; font-family:Arial;" text-anchor="middle"><textPath startOffset="21.46611528233685" xlink:href="#id47">November</textPath></text><path d="M 81.96595687620814 89.24020034530311 l -36.48453922841526 -21.76807108073146 a63.48494464260897,63.48494464260897 0 0,0 0.5679913402390617,-0.9336284200858351 l 36.104432089889976 22.392867274024372" fill="red" stroke="none" /><path d="M 82.34701348167596 88.62581576622439 l -13.115235918880856 -8.45041769311591 a36.60189002640478,36.60189002640478 0 0,0 0.34580657778562335,-0.5266871423931199 l 12.967832705737314 8.674922899486697" fill="red" stroke="none" /><path d="M 83.17141714833178 87.43820079747576 l -23.420628832754353 -17.48247248072616 a50.22606198174827,50.22606198174827 0 0,0 0.5231261039620726,-0.6883726326614443 l 23.11622678856817 17.883029889268627" fill="red" stroke="none" /><path d="M 83.39014120810768 87.1503855733568 l -45.616518432701746 -35.2895639084058 a78.673391392968,78.673391392968 0 0,0 0.8378563309938426,-1.063992454719607 l 45.00230802111393 36.06954875707846" fill="red" stroke="none" /><path d="M 83.84228863543731 86.58626213691792 l -12.91149863522983 -10.718811235380821 a37.780932968916474,37.780932968916474 0 0,0 0.4197090797239337,-0.4968031673346933 l 12.725078942018772 10.939473352344631" fill="red" stroke="none" /><path d="M 84.5562425177563 85.77008943001954 l -23.097671385230885 -21.282242910413874 a52.40758326770742,52.40758326770742 0 0,0 0.6169936743015062,-0.658165833104982 l 22.727910388958925 21.676678160396907" fill="red" stroke="none" /><path d="M 85.05521093208273 85.24692304244772 l -37.64512543436344 -37.16221286803826 a73.89787835271227,73.89787835271227 0 0,0 0.901428137026465,-0.8975571181331549 l 36.99986149716966 37.80470583682152" fill="red" stroke="none" /><path d="M 85.57189188830299 84.74124197986013 l -9.674659050206804 -10.231645079979826 a35.08139157826469,35.08139157826469 0 0,0 0.4423464721633343,-0.4111128372157345 l 9.497104694248613 10.396662503270209" fill="red" stroke="none" /><path d="M 86.37877921826538 84.01681056812374 l -32.874043707212294 -38.57452106412753 a71.68230879696112,71.68230879696112 0 0,0 0.9460100769736874,-0.7922562336720961 l 32.20517609327949 39.134678455193445" fill="red" stroke="none" /><path d="M 88.70189139769569 82.29822771554957 l -13.151643211794317 -20.605873203771367 a45.445198499096676,45.445198499096676 0 0,0 0.6630256398459498,-0.41518659484544645 l 12.794998419576125 20.829204139939744" fill="red" stroke="none" /><line stroke="#e1ed5e" stroke-width="0.3" x1="56.762969772571076" x2="54.21961505331055" y1="26.818313649435495" y2="22.513508569990535" /><path d="M 56.25429882871897 25.957352633546506 a86.0,86.0 0 0,1 42.265352541879196,-11.944610805530505" fill="none" id="id48" stroke="none" /><text fill="#e1ed5e" style="font-size:6.75px; font-family:Arial;" text-anchor="middle"><textPath startOffset="22.20632615414155" xlink:href="#id48">December</textPath></text><path d="M 89.3179101791058 81.91981866633112 l -22.26132277632684 -37.67883993411598 a64.76370037522582,64.76370037522582 0 0,0 0.9646808140479813,-0.5588053933346457 l 21.609445229813538 38.05644948484067" fill="red" stroke="none" /><path d="M 90.26544431104013 81.39251694778311 l -2.2696075778262412 -4.338326872738577 a25.89614119609024,25.89614119609024 0 0,0 0.39675294484583823,-0.20323226831802063 l 2.194594145391639 4.376751666369103" fill="red" stroke="none" /><path d="M 90.58718382345135 81.22770947309562 l -7.79183391239338 -15.539512001228422 a38.383587344234954,38.383587344234954 0 0,0 0.5931703318294865,-0.2910661057182607 l 7.5231923135534675 15.671333267081513" fill="red" stroke="none" /><path d="M 90.91171255644093 81.06846463323043 l -26.696291793199713 -55.61023409341462 a82.68622318988281,82.68622318988281 0 0,0 1.2884158977653928,-0.6049285397718978 l 25.73509768413471 56.06152761582653" fill="red" stroke="none" /><path d="M 91.56875222667455 80.76684994638697 l -6.2118302779846495 -14.170270766094797 a36.472020197340996,36.472020197340996 0 0,0 0.5771545094179209,-0.24710744046802255 l 5.96699201077642 14.275097734525607" fill="red" stroke="none" /><path d="M 92.23578459929587 80.48803036053334 l -18.247902365068068 -45.85814516414236 a70.3553990827813,70.3553990827813 0 0,0 1.12909304400303,-0.43807055956026947 l 17.455826156065363 46.16545842759317" fill="red" stroke="none" /><path d="M 92.91201910852362 80.23233633223022 l -6.157451505899689 -17.17251108360063 a39.24306295455598,39.24306295455598 0 0,0 0.6378268381936846,-0.2225252597875136 l 5.860942663642719 17.275957196560352" fill="red" stroke="none" /><path d="M 93.59665428221793 80.00007090966166 l -19.21003715334623 -59.99978727101503 a84.0,84.0 0 0,0 1.380858509157085,-0.42903946046989905 l 18.17439327147842 60.321566866367455" fill="red" stroke="none" /><path d="M 95.33964822691252 79.52364482259891 l -5.194671995369018 -22.824017152852406 a44.40769907814888,44.40769907814888 0 0,0 0.7468048587166313,-0.16322261664065 l 4.801024412498866 22.910053267588925" fill="red" stroke="none" /><path d="M 96.04723909329186 79.375362276772 l -11.231685794995629 -58.60446811993713 a80.6710520220503,80.6710520220503 0 0,0 1.3660485564192093,-0.24963664212298373 l 10.221242117473526 58.78912024341085" fill="red" stroke="none" /><path d="M 96.75951476605007 79.25152402106235 l -3.064778189602008 -19.623442804650047 a40.86132857738454,40.86132857738454 0 0,0 0.6958704095319058,-0.10255320954948538 l 2.7265387996414536 19.6732904983605" fill="red" stroke="none" /></svg>