<?xml version="1.0" encoding="utf-8" ?>
<svg baseProfile="full" height="200mm" version="1.1" viewBox="0,0,200,200" width="200mm" xmlns="http://www.w3.org/2000/svg" xmlns:ev="http://www.w3.org/2001/xml-events" xmlns:xlink="http://www.w3.org/1999/xlink"><defs /><rect fill="#1a1a1a" height="200" width="200" x="0" y="0" /><text alignment-baseline="middle" fill="#e1ed5e" style="dominant-baseline: central; font-size:9.0px; font-family:Arial;" text-anchor="middle" x="100.0" y="100.0">2023</text><line stroke="#e1ed5e" stroke-width="0.3" x1="100.0" x2="100.0" y1="15.0" y2="10.0" /><path d="M 100.0 14.0 a86.0,86.0 0 0,1 42.46469731375804,11.215312516191453" fill="none" id="id13" stroke="none" /><text fill="#e1ed5e" style="font-size:6.75px; font-family:Arial;" text-anchor="middle"><textPath startOffset="22.20632615414155" xlink:href="#id13">January</textPath></text><path d="M 102.16513564639614 79.11191278185805 l 0.9543303440689915 -9.206876019529249 a30.256203997567987,30.256203997567987 0 0,0 0.5175731381585036,0.058155372664801315 l -1.1126701857372203 9.189084693393847" fill="#ff2e04" stroke="none" /><path d="M 102.88285421437855 79.19881850522331 l 1.625888300569598 -11.731567091287232 a32.84369786778195,32.84369786778195 0 0,0 0.5593297692832401,0.08243066848489199 l -1.827587050281494 11.70184193864137" fill="#ff5608" stroke="none" /><path d="M 105.01212808612495 79.60689891045804 l 3.11610747295119 -12.67866535128818 a34.05598257018359,34.05598257018359 0 0,0 0.5680718086396679,0.1448141526686978 l -3.333888170275883 12.623148202450613" fill="#ff6809" stroke="none" /><path d="M 106.74666289553966 80.11325718540242 l 4.561636005392496 -13.446067108677234 a35.19877613517253,35.19877613517253 0 0,0 0.5720940823753599,0.19959239197899092 l -4.79241209183113 13.365553863526037" fill="#ff790b" stroke="none" /><path d="M 110.36928655335952 81.73862282372117 l 7.0841800982697505 -12.475967762437685 a35.3469641135017,35.3469641135017 0 0,0 0.5265069462921005,0.30498680696426766 l -7.29788377702718 12.352176798083367" fill="#ff7b0b" stroke="none" /><line stroke="#e1ed5e" stroke-width="0.3" x1="143.23703022742887" x2="145.7803849466894" y1="26.81831364943548" y2="22.513508569990506" /><path d="M 143.74570117128098 25.957352633546492 a86.0,86.0 0 0,1 28.547481713284135,27.462654790039103" fill="none" id="id14" stroke="none" /><text fill="#e1ed5e" style="font-size:6.75px; font-family:Arial;" text-anchor="middle"><textPath startOffset="19.985693538727396" xlink:href="#id14">February</textPath></text><path d="M 111.90073688211348 82.69761687909136 l 12.75022218363006 -18.53744278889538 a43.498998886250504,43.498998886250504 0 0,0 0.613271382357344,0.42963579493347803 l -13.067424705571055 18.315222151197965" fill="#ffee16" stroke="none" /><path d="M 113.34407831869373 83.78471172551755 l 11.907773880118429 -14.46993801759809 a39.73964207270676,39.73964207270676 0 0,0 0.5244543944949065,0.4392154728885295 l -12.155085811572453 14.262821387315741" fill="#ffbb11" stroke="none" /><path d="M 113.89432698308785 84.25364557470407 l 6.091929387353043 -6.903945717118762 a30.207392145739103,30.207392145739103 0 0,0 0.3869265038372861,0.347386435509073 l -6.209866878786319 6.798060272840392" fill="#ff2e04" stroke="none" /><path d="M 115.19652480421416 85.50635884689758 l 11.400758760454234 -10.873440373768215 a36.75465029367414,36.75465029367414 0 0,0 0.4327119343878176,0.4615869216378026 l -11.586238016812516 10.675584035252358" fill="#ff900d" stroke="none" /><path d="M 116.38621287248628 86.86637796730983 l 12.363465723362616 -9.909372414989715 a36.844587288778506,36.844587288778506 0 0,0 0.39238769520641975,0.4982925253178236 l -12.532207499162999 9.695087495718854" fill="#ff910d" stroke="none" /><line stroke="#e1ed5e" stroke-width="0.3" x1="172.23445277983987" x2="176.4835382374775" y1="55.19839476539836" y2="52.563006222186495" /><path d="M 173.08426987136738 54.67131705675599 a86.0,86.0 0 0,1 12.851231095245387,41.99856678651699" fill="none" id="id15" stroke="none" /><text fill="#e1ed5e" style="font-size:6.75px; font-family:Arial;" text-anchor="middle"><textPath startOffset="22.20632615414155" xlink:href="#id15">March</textPath></text><path d="M 118.21658344932153 89.55222093294921 l 13.672965034083289 -7.8418721197104215 a36.762135996277784,36.762135996277784 0 0,0 0.3101014991194762,0.5516359648784201 l -13.805924174495198 7.6053526448972075" fill="#ff900d" stroke="none" /><path d="M 118.56541770881063 90.18545643968196 l 14.061241809066718 -7.433426622109204 a36.90516747976354,36.90516747976354 0 0,0 0.29206146203727346,0.56416978335974 l -14.187112704264107 7.190284116489119" fill="#ff920d" stroke="none" /><path d="M 119.34039704204932 91.81776055985345 l 10.085922631658033 -4.266997919825256 a31.951397471536897,31.951397471536897 0 0,0 0.20993332975006088,0.5083702097521196 l -10.15787764829429 4.092753139619833" fill="#ff4806" stroke="none" /><path d="M 119.61058180528143 92.48833698450437 l 17.766183367606175 -6.805182215094705 a40.02492513604318,40.02492513604318 0 0,0 0.24090318489342002,0.6455007659862328 l -17.880691141001222 6.498358312079139" fill="#ffbf11" stroke="none" /><path d="M 119.85752413597 93.16781622104841 l 16.72547113994682 -5.754568990334283 a38.687748559884916,38.687748559884916 0 0,0 0.21124009275017666,0.6315809901765267 l -16.822048526468766 5.465814897235442" fill="#ffac0f" stroke="none" /><path d="M 120.28053869075195 94.5502522615342 l 21.265002083381003 -5.714290866702773 a43.01938767803231,43.01938767803231 0 0,0 0.18601515246946837,0.7167922628211069 l -21.360213567720773 5.347402178332815" fill="#ffe815" stroke="none" /><path d="M 120.67395015179393 96.31383870115 l 15.469827978640366 -2.758267325597801 a36.71380336927329,36.71380336927329 0 0,0 0.10557515438014181,0.6231105374184227 l -15.51501499454073 2.4915709998635407" fill="#ff8f0d" stroke="none" /><path d="M 120.83666639777658 97.38593545837742 l 17.455007272995562 -2.1898184054514007 a38.591832864974066,38.591832864974066 0 0,0 0.07701762344359805,0.6598399637947465 l -17.49011524944275 1.8890347033318013" fill="#ffaa0f" stroke="none" /><path d="M 120.91429891909075 98.10471618934814 l 15.81556623537542 -1.4332293307158315 a36.88037410327512,36.88037410327512 0 0,0 0.051852956301396975,0.6327374055990972 l -15.83789367549631 1.1607780079089656" fill="#ff920d" stroke="none" /><path d="M 120.96714384426684 98.82574320788733 l 16.377342762416735 -0.9172067554057244 a37.403006559464814,37.403006559464814 0 0,0 0.03046811825958601,0.6431338213109443 l -16.390704488909815 0.6351618274717803" fill="#ff990e" stroke="none" /><line stroke="#e1ed5e" stroke-width="0.3" x1="184.98032266829074" x2="189.97916517819016" y1="98.17113171792111" y2="98.06355123074" /><path d="M 185.9800911702706 98.14961562048488 a86.0,86.0 0 0,1 -9.607161424134198,41.387399972396054" fill="none" id="id16" stroke="none" /><text fill="#e1ed5e" style="font-size:6.75px; font-family:Arial;" text-anchor="middle"><textPath startOffset="21.466115282336823" xlink:href="#id16">April</textPath></text><path d="M 120.9904718944345 100.63252640178507 l 18.999764707136986 0.5725384767626301 a40.00838918041037,40.00838918041037 0 0,0 -0.026668196027844943,0.6881876420134706 l -18.98709437825794 -0.8995033657901069" fill="#ffbe11" stroke="none" /><path d="M 120.92983693683757 101.71520430193887 l 21.9138302572927 1.7958427503614298 a42.98729195989044,42.98729195989044 0 0,0 -0.06678465500698376,0.7369631029265217 l -21.879671006008643 -2.172787241836522" fill="#ffe715" stroke="none" /><path d="M 120.5718875245553 104.21870165774334 l 8.488509016251191 1.7407487288603714 a29.665159632459563,29.665159632459563 0 0,0 -0.10688775333251903,0.4993439988041797 l -8.457287224194229 -1.88660654708072" fill="#ff2503" stroke="none" /><path d="M 120.49622156327973 104.57218783832717 l 15.386126215046792 3.432255010622888 a36.76430316770443,36.76430316770443 0 0,0 -0.14309968261360687,0.61646968743277 l -15.324765966502632 -3.696593355404223" fill="#ff900d" stroke="none" /><path d="M 120.32669344350535 105.2749913415812 l 19.761241000137666 5.128250468495747 a41.41581736627629,41.41581736627629 0 0,0 -0.1850141665241909,0.68850654059584 l -19.670038757271698 -5.467647942267135" fill="#ffd213" stroke="none" /><path d="M 120.02730092923936 106.31721596034902 l 15.135172707338215 4.77409087361565 a36.870267689944484,36.870267689944484 0 0,0 -0.1961283146700999,0.6036208852340985 l -15.050752141651868 -5.033910658827543" fill="#ff920d" stroke="none" /><path d="M 119.26925614724726 108.34839909993367 l 20.235849572573244 8.767175394167838 a43.053411806700446,43.053411806700446 0 0,0 -0.30046958728608697,0.6774795976756915 l -20.081938900555883 -9.114203328336217" fill="#ffe815" stroke="none" /><line stroke="#e1ed5e" stroke-width="0.3" x1="174.80103733775053" x2="179.2010983576182" y1="140.37084112569926" y2="142.7455964860345" /><path d="M 175.68104954172406 140.8457921977663 a86.0,86.0 0 0,1 -30.038265399797805,32.042727171017184" fill="none" id="id17" stroke="none" /><text fill="#e1ed5e" style="font-size:6.75px; font-family:Arial;" text-anchor="middle"><textPath startOffset="22.206326154141568" xlink:href="#id17">May</textPath></text><path d="M 117.94076556474637 110.91462005526583 l 16.52279548674404 10.05196987485532 a40.34023963299752,40.34023963299752 0 0,0 -0.366011528302567,0.5901271242314682 l -16.34731931877351 -10.334893330452061" fill="#ffc312" stroke="none" /><path d="M 117.55443506779139 111.5257021239791 l 15.82359607270313 10.389286477168746 a39.929433857797946,39.929433857797946 0 0,0 -0.3821758194345428,0.5713009957585288 l -15.642417147857866 -10.66012438713308" fill="#ffbd11" stroke="none" /><path d="M 116.93607887273984 112.41649034213515 l 19.48206078093463 14.283047531192286 a45.15690665317746,45.15690665317746 0 0,0 -0.464984394983384,0.6229225837440778 l -19.233315119256154 -14.61628299444568" fill="#faff18" stroke="none" /><path d="M 116.27256486870786 113.27417163493432 l 14.603028895233773 11.912265430141181 a39.84543765989979,39.84543765989979 0 0,0 -0.4381176638887291,0.5277409495464835 l -14.3958152314515 -12.161867636801436" fill="#ffbc11" stroke="none" /><path d="M 115.80600337817218 113.82643327865902 l 14.92669131584485 13.057247718590215 a40.831737987961304,40.831737987961304 0 0,0 -0.46731175613734593,0.5250297119582216 l -14.699720710059166 -13.312251600289304" fill="#ffca12" stroke="none" /><path d="M 115.07121518719521 114.62390073753431 l 11.352822119399402 11.015869769150187 a36.81884815167025,36.81884815167025 0 0,0 -0.4452615077511108,0.45104755655712414 l -11.161519986592756 -11.209657819687976" fill="#ff910d" stroke="none" /><path d="M 114.55890576462653 115.13401014063108 l 11.884484117513578 12.353943768742656 a38.142371171477066,38.142371171477066 0 0,0 -0.477077814195816,0.451106851017895 l -11.670070468926953 -12.556685256506473" fill="#ffa40f" stroke="none" /><path d="M 114.0293411484842 115.62618273729858 l 42.088023445452606 46.878548211895726 a84.0,84.0 0 0,0 -1.0842305883736492,0.9567074329108447 l -41.27485050417237 -47.59607878657886" fill="#4dd2ff" stroke="none" /><path d="M 113.20401910651253 116.32954008644616 l 8.457196960432155 10.459098526768438 a34.45053613876386,34.45053613876386 0 0,0 -0.46433172028320135,0.3688932010451804 l -8.275907747431603 -10.603125641818744" fill="#ff6e0a" stroke="none" /><path d="M 112.63410532772338 116.77436683061366 l 11.725324473339285 15.5677738012975 a40.4894539465182,40.4894539465182 0 0,0 -0.5603258979239794,0.4145157037838433 l -11.45561360499674 -15.767299453821114" fill="#ffc512" stroke="none" /><path d="M 111.45004920935366 117.60387380957326 l 6.6691527890464695 10.253486423379726 a33.23158136783951,33.23158136783951 0 0,0 -0.4822032185494694,0.30776490873392087 l -6.49166776845007 -10.366765760937456" fill="#ff5c08" stroke="none" /><line stroke="#e1ed5e" stroke-width="0.3" x1="143.8653032363475" x2="146.44561519142675" y1="172.8068346515853" y2="177.08958963109032" /><path d="M 144.38136562736335 173.6633856474863 a86.0,86.0 0 0,1 -40.68145358897372,12.25698825130547" fill="none" id="id18" stroke="none" /><text fill="#e1ed5e" style="font-size:6.75px; font-family:Arial;" text-anchor="middle"><textPath startOffset="21.466115282336833" xlink:href="#id18">June</textPath></text><path d="M 110.8373102113329 117.98757091392108 l 10.678809018771675 17.72449350951543 a41.69286428284528,41.69286428284528 0 0,0 -0.617912329222603,0.3650734956901203 l -10.37212881852069 -17.9056855774993" fill="#ffd614" stroke="none" /><path d="M 109.89434966115114 118.52300852407294 l 11.891509229534607 22.26184988060498 a46.238818353138065,46.238818353138065 0 0,0 -0.7052721035683316,0.3689650313688114 l -11.50654622343978 -22.46324433091851" fill="#ebff1a" stroke="none" /><path d="M 108.92500713936063 119.00905698771935 l 5.904570348692357 12.575935513966616 a34.89309558932435,34.89309558932435 0 0,0 -0.5458808870399879,0.2505871414732949 l -5.68722146588495 -12.675709725773986" fill="#ff750a" stroke="none" /><path d="M 106.2309692047433 120.05430185196036 l 6.194550952721392 19.937090131765647 a41.87726094170422,41.87726094170422 0 0,0 -0.6902270482771365,0.2079597476270876 l -5.85044893000401 -20.04076524849846" fill="#ffd814" stroke="none" /><path d="M 104.48393922423573 120.51570834832081 l 2.8974788267720957 13.257055366450262 a34.57000001992337,34.57000001992337 0 0,0 -0.5824362469254981,0.12205517846479381 l -2.6688511184172197 -13.304966525641596" fill="#ff700a" stroke="none" /><path d="M 104.13013068566511 120.58985236759428 l 3.6977385416262756 18.434257039444656 a39.80146544603753,39.80146544603753 0 0,0 -0.672895677183266,0.12896205803738245 l -3.379875249871305 -18.495176295830507" fill="#ffbb11" stroke="none" /><path d="M 102.70371172650421 120.8252237178851 l 2.052583382576621 15.809935549985463 a36.942620883566285,36.942620883566285 0 0,0 -0.6313187407486346,0.0764439075235801 l -1.780137218776606 -15.842924986234395" fill="#ff930d" stroke="none" /><path d="M 101.98527174616119 120.90594882070398 l 1.483405340722955 15.62103333887626 a36.69130886762379,36.69130886762379 0 0,0 -0.6292658751511842,0.05429570752075795 l -1.2142951478302293 -15.64425329867568" fill="#ff8f0d" stroke="none" /><path d="M 101.26447882468166 120.96189622390904 l 1.1495134170622028 19.056057314771728 a40.09069672588905,40.09069672588905 0 0,0 -0.6892009458886951,0.035623816568716646 l -0.8213244027600282 -19.073020938102644" fill="#ffc011" stroke="none" /><line stroke="#e1ed5e" stroke-width="0.3" x1="102.19456741930631" x2="102.32365962044197" y1="184.97166512339345" y2="189.96999836594603" /><path d="M 102.22038585953345 185.97133177190398 a86.0,86.0 0 0,1 -42.740103519485714,-10.115201625700543" fill="none" id="id19" stroke="none" /><text fill="#e1ed5e" style="font-size:6.75px; font-family:Arial;" text-anchor="middle"><textPath startOffset="22.20632615414155" xlink:href="#id19">July</textPath></text><path d="M 100.54218724476979 120.99299961872073 l 0.4870807169626377 18.859324715070333 a39.8656135954625,39.8656135954625 0 0,0 -0.6861447495506209,0.011812604113238426 l -0.1623762775193489 -18.86491479646273" fill="#ffbc11" stroke="none" /><path d="M 99.81925306533755 120.99922214144158 l -0.07239447736065134 8.410807711616044 a29.411119266906887,29.411119266906887 0 0,0 -0.5062078127825979,-0.0087148265658892 l 0.21716198003591708 -8.408315407770996" fill="#ff2103" stroke="none" /><path d="M 98.73552117531835 120.96189622390904 l -1.1500593040762492 19.065106756103084 a40.099762616967254,40.099762616967254 0 0,0 -0.6886413182668256,-0.0474927371803789 l 1.478063383122005 -19.04248567440642" fill="#ffc011" stroke="none" /><path d="M 97.2962882734958 120.8252237178851 l -2.0398900028890448 15.712165336860194 a36.84403013114775,36.84403013114775 0 0,0 -0.6282282750197581,-0.08706671448865543 l 2.310046869095634 -15.674724056878933" fill="#ff910d" stroke="none" /><path d="M 96.58105272829116 120.7198165907248 l -2.7782285541286975 16.836874486189295 a38.064550869057996,38.064550869057996 0 0,0 -0.6455585210699752,-0.1122386237034067 l 3.0676360466707226 -16.786557283964882" fill="#ffa30f" stroke="none" /><path d="M 94.46302465271185 120.25689768951611 l -4.148114133859002 15.175780700409291 a36.732487747792334,36.732487747792334 0 0,0 -0.6084803621636238,-0.17196262829349734 l 4.40872566412724 -15.102129278777271" fill="#ff900d" stroke="none" /><path d="M 93.76903079525671 120.05430185196036 l -4.6660934912969125 15.017767584648341 a36.72595853027846,36.72595853027846 0 0,0 -0.6020935049071511,-0.19277132678506007 l 4.923908341295005 -14.935223411203575" fill="#ff900d" stroke="none" /><path d="M 93.08242187328487 119.8279376855182 l -5.183727324952281 14.858180203405812 a36.73647190244171,36.73647190244171 0 0,0 -0.5952715618988841,-0.2134432033492101 l 5.438718447480892 -14.766749459016644" fill="#ff900d" stroke="none" /><path d="M 92.40401165467489 119.57807347666478 l -4.921341678097917 12.684378200352528 a34.6056258305953,34.6056258305953 0 0,0 -0.5534904936608777,-0.22024529016961883 l 5.138953247800653 -12.597786065776843" fill="#ff700a" stroke="none" /><line stroke="#e1ed5e" stroke-width="0.3" x1="58.666819895761336" x2="56.23545636021788" y1="174.27360380694188" y2="178.64263932499728" /><path d="M 58.180547188652646 175.14741091055294 a86.0,86.0 0 0,1 -31.652253787137756,-30.449443065178592" fill="none" id="id20" stroke="none" /><text fill="#e1ed5e" style="font-size:6.75px; font-family:Arial;" text-anchor="middle"><textPath startOffset="22.20632615414155" xlink:href="#id20">August</textPath></text><path d="M 89.7882731507175 118.34994917583269 l -6.167200206529148 11.082142326882378 a33.682595828169056,33.682595828169056 0 0,0 -0.5041983586609307,-0.2862969868165273 l 6.357047332111286 -10.974342174271218" fill="#ff6309" stroke="none" /><path d="M 89.4739219176387 118.17145234162733 l -6.427555229466613 11.096061858134066 a33.82326225994701,33.82326225994701 0 0,0 -0.501280281996604,-0.2961652263829522 l 6.617603382491598 -10.983778059457364" fill="#ff6509" stroke="none" /><path d="M 88.54995079064634 117.60387380957326 l -8.364398354717206 12.859841074670417 a36.34075201227685,36.34075201227685 0 0,0 -0.5214470499102696,-0.34558667104196855 l 8.584520103367437 -12.71395638253713" fill="#ff8a0c" stroke="none" /><path d="M 87.65650970185807 116.9893568818739 l -9.50326963055536 13.08012850485917 a37.16792798643862,37.16792798643862 0 0,0 -0.5143599281552158,-0.3805111782400523 l 9.72701452912914 -12.914607377879351" fill="#ff960d" stroke="none" /><path d="M 84.43433777217949 114.09645910891817 l -10.092584375486693 9.139971102422868 a34.6161422998382,34.6161422998382 0 0,0 -0.39617540290856806,-0.44510726499439063 l 10.248418628043598 -8.964889667687613" fill="#ff710a" stroke="none" /><path d="M 83.72743513129214 113.27417163493432 l -12.15014724882826 9.911353328252448 a36.67995545164813,36.67995545164813 0 0,0 -0.3948895673449188,-0.4926854523094911 l 12.31895472822804 -9.700740042364696" fill="#ff8f0d" stroke="none" /><path d="M 83.28015986056508 112.70617746262583 l -10.815542143680048 8.219229172411923 a34.58424381591947,34.58424381591947 0 0,0 -0.3561168130982269,-0.4770766669229397 l 10.955420223473359 -8.031839625979675" fill="#ff700a" stroke="none" /><path d="M 82.85270091963577 112.12312394758628 l -8.966938627427956 6.339616979982088 a31.981654328967778,31.981654328967778 0 0,0 -0.31393662908703013,-0.45224912870007317 l 9.07473616367712 -6.1843265890950025" fill="#ff4906" stroke="none" /><path d="M 82.05923443525364 110.91462005526583 l -13.483937667109858 8.203220534500765 a36.78319999709055,36.78319999709055 0 0,0 -0.3244262901179958,-0.5437571232031044 l 13.623144832926087 -7.9699013174115505" fill="#ff900d" stroke="none" /><line stroke="#e1ed5e" stroke-width="0.3" x1="26.63291911575756" x2="22.317208475507996" y1="142.92168965132927" y2="145.44649492493687" /><path d="M 25.769776987707644 143.4266507060508 a86.0,86.0 0 0,1 -11.730757126820373,-40.83630448921669" fill="none" id="id21" stroke="none" /><text fill="#e1ed5e" style="font-size:6.75px; font-family:Arial;" text-anchor="middle"><textPath startOffset="21.46611528233685" xlink:href="#id21">September</textPath></text><path d="M 81.87401531095188 110.60418214915194 l -14.740759886580426 8.623735787918719 a38.07802157668296,38.07802157668296 0 0,0 -0.3261074367158638,-0.5685958035917598 l 14.887019319448667 -8.368720138468651" fill="#ffa30f" stroke="none" /><path d="M 81.18737489456691 109.33194174019688 l -14.148424187732724 7.018279984614335 a36.793484762346104,36.793484762346104 0 0,0 -0.27655865464439494,-0.5697927425351411 l 14.267136098991838 -6.773698286113909" fill="#ff900d" stroke="none" /><path d="M 80.87730276802145 108.67885076344099 l -15.493333614314611 7.031661309889804 a38.01433652134141,38.01433652134141 0 0,0 -0.265301901201328,-0.5981857495525589 l 15.612076600247219 -6.76392722384455" fill="#ffa20f" stroke="none" /><path d="M 80.32549172779594 107.34259656027581 l -16.56763803889006 6.183101523717061 a38.68381674413838,38.68381674413838 0 0,0 -0.22745299331528385,-0.6258529504301271 l 16.671615293210568 -5.897000776280817" fill="#ffac0f" stroke="none" /><path d="M 79.97269907076064 106.31721596034903 l -15.297574051341735 4.82531716546327 a37.040556648807375,37.040556648807375 0 0,0 -0.18656662975780325,-0.6097105407214581 l 15.37836745360567 -4.561279652189764" fill="#ff940d" stroke="none" /><path d="M 79.58551787078972 104.9243191809786 l -16.105800174965715 3.8849920475381774 a37.56773860505291,37.56773860505291 0 0,0 -0.14622693775456475,-0.6299418207321468 l 16.170287678650833 -3.6071815694574565" fill="#ff9c0e" stroke="none" /><path d="M 79.35854240842038 103.8639653848113 l -15.119553974012788 2.8302959192767294 a36.382180839002004,36.382180839002004 0 0,0 -0.1099323242711275,-0.6165588556206747 l 15.166032740623104 -2.569618312922841" fill="#ff8b0c" stroke="none" /><path d="M 79.18660465613746 102.79330883721812 l -15.60974992390312 2.0949418241873317 a36.74970075695163,36.74970075695163 0 0,0 -0.07874671760441841,-0.6276888188937682 l 15.643498150754388 -1.825935251006155" fill="#ff900d" stroke="none" /><path d="M 79.10278846688536 102.07522291339032 l -13.684184228246345 1.3589244965296383 a34.751493510882895,34.751493510882895 0 0,0 -0.05398959551272148,-0.5957706876024559 l 13.705548420036143 -1.1231724203786162" fill="#ff730a" stroke="none" /><line stroke="#e1ed5e" stroke-width="0.3" x1="15.007084014347285" x2="10.007500721073583" y1="101.09737516637583" y2="101.16192664675087" /><path d="M 14.007167355692545 101.11028546245083 a86.0,86.0 0 0,1 10.666146001902534,-42.60595125391555" fill="none" id="id22" stroke="none" /><text fill="#e1ed5e" style="font-size:6.75px; font-family:Arial;" text-anchor="middle"><textPath startOffset="22.20632615414155" xlink:href="#id22">October</textPath></text><path d="M 79.00486145842228 99.54816195383935 l -15.903871281141587 -0.3422684785733003 a36.90755384836226,36.90755384836226 0 0,0 0.01913622491408101,-0.6350381424253722 l 15.895623361771861 0.6159767684236669" fill="#ff920d" stroke="none" /><path d="M 79.05617556472873 98.46500227214037 l -16.04108795069594 -1.1756703572842897 a37.0841133865364,37.0841133865364 0 0,0 0.05213940903970407,-0.6362328545646566 l 16.018474057836738 1.4516171290567246" fill="#ff950d" stroke="none" /><path d="M 79.12142395522702 97.74499172005258 l -16.08350780102879 -1.737112875137805 a37.177044981291345,37.177044981291345 0 0,0 0.07419413483502937,-0.635650037671949 l 16.051223313190174 2.013706651134616" fill="#ff960d" stroke="none" /><path d="M 79.26566170972629 96.67025291283419 l -6.241453234178564 -1.0023209053137019 a27.321422756916906,27.321422756916906 0 0,0 0.0785661838528204,-0.4637020644760256 l 6.223275188805521 1.1096087581055554" fill="#ff0000" stroke="none" /><path d="M 79.32604984820605 96.31383870115002 l -16.122858192246706 -2.8747024859179695 a37.37713255334522,37.37713255334522 0 0,0 0.11838632924337633,-0.6324245046567087 l 16.07098613909347 3.151805068037251" fill="#ff990e" stroke="none" /><path d="M 79.46518482838121 95.60439243477599 l -15.821026388947844 -3.386591147943876 a37.17942754250335,37.17942754250335 0 0,0 0.13934426836409777,-0.6246530324109854 l 15.760387733581709 3.6584223499048205" fill="#ff960d" stroke="none" /><line stroke="#e1ed5e" stroke-width="0.3" x1="26.266209847984243" x2="21.928928074336255" y1="57.711370442889674" y2="55.22380399835377" /><path d="M 25.398753493254645 57.213857153982495 a86.0,86.0 0 0,1 29.58750427330803,-30.492523968695096" fill="none" id="id23" stroke="none" /><text fill="#e1ed5e" style="font-size:6.75px; font-family:Arial;" text-anchor="middle"><textPath startOffset="21.46611528233685" xlink:href="#id23">November</textPath></text><line stroke="#e1ed5e" stroke-width="0.3" x1="56.762969772571076" x2="54.21961505331055" y1="26.818313649435495" y2="22.513508569990535" /><path d="M 56.25429882871897 25.957352633546506 a86.0,86.0 0 0,1 42.265352541879196,-11.944610805530505" fill="none" id="id24" stroke="none" /><text fill="#e1ed5e" style="font-size:6.75px; font-family:Arial;" text-anchor="middle"><textPath startOffset="22.20632615414155" xlink:href="#id24">December</textPath></text></svg>