<?xml version="1.0" encoding="utf-8" ?>
<svg baseProfile="full" height="200mm" version="1.1" viewBox="0,0,200,200" width="200mm" xmlns="http://www.w3.org/2000/svg" xmlns:ev="http://www.w3.org/2001/xml-events" xmlns:xlink="http://www.w3.org/1999/xlink"><defs /><rect fill="#1a1a1a" height="200" width="200" x="0" y="0" /><text alignment-baseline="middle" fill="#e1ed5e" style="dominant-baseline: central; font-size:9.0px; font-family:Arial;" text-anchor="middle" x="100.0" y="100.0">2024</text><line stroke="#e1ed5e" stroke-width="0.3" x1="100.0" x2="100.0" y1="15.0" y2="10.0" /><path d="M 100.0 14.0 a86.0,86.0 0 0,1 42.35913384403234,11.155469271406648" fill="none" id="id25" stroke="none" /><text fill="#e1ed5e" style="font-size:6.75px; font-family:Arial;" text-anchor="middle"><textPath startOffset="22.145653131862478" xlink:href="#id25">January</textPath></text><path d="M 100.36049292484886 79.00309439819443 l 0.5393623377224996 -31.415152169981553 a52.41978194695899,52.41978194695899 0 0,0 0.8995900710951872,0.023170249165746497 l -1.0785657228884282 31.40126420346576" fill="#c3ff1e" stroke="none" /><path d="M 101.08105385017728 79.02784411241856 l 1.8324769320395522 -35.54956293141951 a56.596761036945665,56.596761036945665 0 0,0 0.9698411481025854,0.058343235141829625 l -2.4424624322746 35.51286771845299" fill="#8bff24" stroke="none" /><path d="M 102.15924093988457 79.11130261209362 l 2.5994403293161015 -25.147227163961844 a46.28122077870401,46.28122077870401 0 0,0 0.7895666588141366,0.08847259099857384 l -3.0307428897310347 25.098898812456298" fill="#ffe415" stroke="none" /><path d="M 102.87502721639298 79.19773525538626 l 3.6357542813198336 -26.30650683066094 a47.55656248134811,47.55656248134811 0 0,0 0.8077253286045957,0.11870780775556691 l -4.086804715532112 26.24021794960649" fill="#fff617" stroke="none" /><path d="M 103.58742460773223 79.30868818359171 l 6.08237732245661 -35.08153606705541 a56.604908182957644,56.604908182957644 0 0,0 0.9559902306203245,0.17421326572913898 l -6.683702286627987 34.97195462739491" fill="#8bff24" stroke="none" /><path d="M 104.29559338865022 79.4440306129975 l 5.146071824222161 -24.625816577873643 a46.157760181445596,46.157760181445596 0 0,0 0.7742141857421883,0.16873637833062263 l -5.568048426583483 24.5338487414093" fill="#ffe215" stroke="none" /><path d="M 105.69591212413111 79.78721728523813 l 4.491297479571222 -15.938030307266922 a37.558760917573565,37.558760917573565 0 0,0 0.6190756685224377,0.1802039046014171 l -4.764233160475264 15.858582708362988" fill="#ff5b08" stroke="none" /><line stroke="#e1ed5e" stroke-width="0.3" x1="143.13028292997686" x2="145.6673583964461" y1="26.7553504044142" y2="22.446841604673864" /><path d="M 143.63769802327073 25.89364864446614 a86.0,86.0 0 0,1 29.32050498858742,28.57503671076993" fill="none" id="id26" stroke="none" /><text fill="#e1ed5e" style="font-size:6.75px; font-family:Arial;" text-anchor="middle"><textPath startOffset="20.669276256404974" xlink:href="#id26">February</textPath></text><path d="M 110.96478420261332 82.08984904055464 l 13.130777922601139 -21.448138920297925 a46.148359628354854,46.148359628354854 0 0,0 0.6720868462792173,0.41943189940646414 l -13.497028897670068 21.21957122404992" fill="#ffe215" stroke="none" /><path d="M 112.16784306229584 82.88440491214696 l 16.7535097994094 -23.56590963238194 a49.914221196506375,49.914221196506375 0 0,0 0.6940904972273365,0.5024679932597701 l -17.155581307010703 23.274840867749095" fill="#e6ff1a" stroke="none" /><path d="M 115.16444852881244 85.47280134310134 l 22.718614505548217 -21.763918780463854 a52.46114438055827,52.46114438055827 0 0,0 0.6174031328178459,0.655660731607733 l -23.088873472102325 21.370716588911623" fill="#c2ff1e" stroke="none" /><path d="M 115.8921839302757 86.27271002978787 l 19.065688299457364 -16.468487460036034 a46.19348228319042,46.19348228319042 0 0,0 0.5131995498669629,0.6045477793213732 l -19.34558241283144 16.13877289826511" fill="#ffe215" stroke="none" /><path d="M 116.35404254752997 86.82634096563983 l 19.30937287916984 -15.554263952671722 a45.79489883214293,45.79489883214293 0 0,0 0.4878979130535249,0.6164430747758 l -19.573537222864925 15.220500933981244" fill="#ffdc14" stroke="none" /><path d="M 117.21940702142032 87.97951657250589 l 20.649208135459467 -14.414750976871535 a46.182828323020914,46.182828323020914 0 0,0 0.4482159235775026,0.6539604275947416 l -20.893613795852296 14.058155814206744" fill="#ffe215" stroke="none" /><line stroke="#e1ed5e" stroke-width="0.3" x1="172.87174338648825" x2="177.1583165268699" y1="56.24261187166439" y2="53.66864786411523" /><path d="M 173.72905801456457 55.72781907015455 a86.0,86.0 0 0,1 12.242430191666344,42.057860355516425" fill="none" id="id27" stroke="none" /><text fill="#e1ed5e" style="font-size:6.75px; font-family:Arial;" text-anchor="middle"><textPath startOffset="22.145653131862474" xlink:href="#id27">March</textPath></text><path d="M 118.18653347947321 89.5 l 15.282506308268706 -8.823359130971093 a38.64671826194218,38.64671826194218 0 0,0 0.32677941498761953,0.5773879148843399 l -15.431719088277701 8.559714445987636" fill="#ff6d0a" stroke="none" /><path d="M 118.8641267826498 90.77261029715802 l 26.23068032083596 -12.830740181074114 a50.200624714004334,50.200624714004334 0 0,0 0.37201230804139696,0.7773626450245618 l -26.447071886837268 12.378565033984449" fill="#e1ff1b" stroke="none" /><path d="M 119.31412917781788 91.75594674310238 l 28.86052649252489 -12.31884260667251 a52.379672920438495,52.379672920438495 0 0,0 0.3458908050331928,0.8300120149533796 l -29.067743142094564 11.821598082277852" fill="#c3ff1e" stroke="none" /><path d="M 119.58574465831526 92.42381321644754 l 23.436027032403832 -9.065558719335868 a46.128305115094605,46.128305115094605 0 0,0 0.27933833420406773,0.7409781188668331 l -23.58819605042234 8.661912320274878" fill="#ffe115" stroke="none" /><path d="M 119.83427380445688 93.10060997987247 l 29.663215410039758 -10.318406127827751 a52.40662117263195,52.40662117263195 0 0,0 0.28827279769396913,0.8522273036628932 l -29.835973629306093 9.807677149690695" fill="#c3ff1e" stroke="none" /><path d="M 120.16314734710363 94.1308016681162 l 51.633791577530666 -15.029844209277707 a74.77680401090265,74.77680401090265 0 0,0 0.34818041209664297,1.2355694508400288 l -51.88419048170189 14.141266834534665" fill="#3fffc0" stroke="none" /><path d="M 120.43855184770803 95.1765574152323 l 29.661172367413215 -6.999955915524402 a51.47596641664842,51.47596641664842 0 0,0 0.19558204813670835,0.8617705914000626 l -29.77696527710759 6.489750990185313" fill="#d0ff1d" stroke="none" /><path d="M 120.592083275326 95.88100663000786 l 30.790414631844513 -6.158945262223285 a52.400354137238125,52.400354137238125 0 0,0 0.1688631547711868,0.8835633805400935 l -30.891604078897856 5.629479316649877" fill="#c3ff1e" stroke="none" /><path d="M 120.77682067341334 96.94652285012252 l 50.92724765764494 -7.484551629584005 a72.47429520721008,72.47429520721008 0 0,0 0.1703335179653379,1.232448484450153 l -51.04822569216549 6.609214836933766" fill="#3cffa3" stroke="none" /><path d="M 120.86939407059847 97.66154086499901 l 30.04415484448809 -3.366510216434975 a51.2321787398285,51.2321787398285 0 0,0 0.09043115684938546,0.8748394099854784 l -30.097518393819144 2.8502662841665654" fill="#d3ff1c" stroke="none" /><path d="M 120.96210409425399 98.7389718711861 l 24.08579666465294 -1.4489417170361858 a45.12933967331834,45.12933967331834 0 0,0 0.03988232443862973,0.7737064394608173 l -24.107120578548145 1.0352634841986377" fill="#ffd213" stroke="none" /><path d="M 120.99303781780057 99.45929381324524 l 36.65501432397219 -0.944103144698315 a57.66717068221157,57.66717068221157 0 0,0 0.016994153822774635,0.9898242628448285 l -36.665819909393626 0.3147319658844201" fill="#7dff26" stroke="none" /><line stroke="#e1ed5e" stroke-width="0.3" x1="184.99686870605535" x2="189.99668451229388" y1="99.2704041080226" y2="99.22748670261217" /><path d="M 185.99683186730306 99.26182062694052 a86.0,86.0 0 0,1 -10.086455211305974,41.156179273409016" fill="none" id="id28" stroke="none" /><text fill="#e1ed5e" style="font-size:6.75px; font-family:Arial;" text-anchor="middle"><textPath startOffset="21.40746469413373" xlink:href="#id28">April</textPath></text><path d="M 120.99303781780057 100.54070618675476 l 25.145660592077522 0.6476630190530485 a46.1539999602093,46.1539999602093 0 0,0 -0.02719858075500745,0.7918570024272236 l -25.130837324325668 -1.0792262860443826" fill="#ffe215" stroke="none" /><path d="M 120.93736805541906 101.62068470465957 l 30.022043859104357 2.323896067370123 a51.11185166026699,51.11185166026699 0 0,0 -0.07522296057282453,0.8742048260012127 l -29.977727275833793 -2.8389219407469932" fill="#d5ff1c" stroke="none" /><path d="M 120.86939407059847 102.33845913500097 l 37.44184288849368 4.195436591866452 a58.67616338061795,58.67616338061795 0 0,0 -0.12075530321892518,1.0000271375142054 l -37.364305499015096 -4.837557406304065" fill="#70ff27" stroke="none" /><path d="M 120.77682067341334 103.0534771498775 l 31.895641891482477 4.687560971296416 a53.238256769393,53.238256769393 0 0,0 -0.14064662127265246,0.9030522016488447 l -31.810473778071557 -5.234401354876711" fill="#b7ff1f" stroke="none" /><path d="M 120.592083275326 104.11899336999214 l 61.53289591822193 12.308302512901511 a83.75182539840439,83.75182539840439 0 0,0 -0.2940976822626892,1.407363874186369 l -61.31254052513488 -13.362782838373288" fill="#4dd5ff" stroke="none" /><path d="M 120.35273937422433 105.17358676015961 l 26.437748047525876 6.720372169671545 a48.27852495871714,48.27852495871714 0 0,0 -0.21107030678293376,0.801468334320619 l -26.318488259938214 -7.173221008364967" fill="#fdff18" stroke="none" /><path d="M 120.16314734710363 105.8691983318838 l 27.825167408175982 8.099500704185102 a49.98002506814157,49.98002506814157 0 0,0 -0.2468624822084992,0.8217249156010606 l -27.682028605963854 -8.575963223376885" fill="#e5ff1a" stroke="none" /><path d="M 119.94978838288452 106.5578916946017 l 22.2998808368777 7.330413762996664 a44.47380777112389,44.47380777112389 0 0,0 -0.24463681694062162,0.7232252801712798 l -22.170758598364714 -7.712140717642105" fill="#ffc812" stroke="none" /><path d="M 119.58574465831526 107.57618678355244 l 27.026013016866724 10.45424241980875 a49.977518253984044,49.977518253984044 0 0,0 -0.3163846427899687,0.7974959775762183 l -26.842569699110634 -10.916639414598533" fill="#e5ff1a" stroke="none" /><path d="M 119.31412917781788 108.2440532568976 l 28.86340845279057 12.320072744137972 a52.38280643813541,52.38280643813541 0 0,0 -0.3601096387871575,0.8240013265764862 l -28.647664931986448 -12.813736140490304" fill="#c3ff1e" stroke="none" /><path d="M 119.0197475246899 108.90220220490707 l 28.077238656356887 13.141565394065218 a52.000517279111875,52.000517279111875 0 0,0 -0.3853504326401814,0.8052341954911781 l -27.847508965756795 -13.621612091621499" fill="#c8ff1d" stroke="none" /><line stroke="#e1ed5e" stroke-width="0.3" x1="174.33088141563837" x2="178.70328620479359" y1="141.23008692659167" y2="143.65538615756765" /><path d="M 175.20536237346943 141.71514677278685 a86.0,86.0 0 0,1 -30.301960400862466,31.631185727798858" fill="none" id="id29" stroke="none" /><text fill="#e1ed5e" style="font-size:6.75px; font-family:Arial;" text-anchor="middle"><textPath startOffset="22.145653131862474" xlink:href="#id29">May</textPath></text><path d="M 117.423217284605 111.72311816256416 l 23.618212165567503 15.891387192312983 a49.466754869387024,49.466754869387024 0 0,0 -0.4800872537534192,0.700461650807641 l -23.341935174998763 -16.29448357819067" fill="#ecff1a" stroke="none" /><path d="M 117.01052211995028 112.31430620078461 l 23.232393952396137 16.818461590401718 a49.68108747985596,49.68108747985596 0 0,0 -0.506032584610493,0.6865303873959605 l -22.940259348201817 -17.214798287066554" fill="#e9ff1a" stroke="none" /><path d="M 116.1254893667686 113.45245675266167 l 29.412022535010745 24.53655527353649 a59.302866920000795,59.302866920000795 0 0,0 -0.658841964383347,0.776114177409027 l -28.986486007120284 -25.037836233395073" fill="#68ff28" stroke="none" /><path d="M 115.6541949942343 113.99807769240083 l 28.111399923891973 25.137387155438216 a58.711258778823385,58.711258778823385 0 0,0 -0.6782612555338057,0.745527933715332 l -27.675740967516287 -25.61625266471122" fill="#70ff27" stroke="none" /><path d="M 115.16444852881244 114.52719865689866 l 22.717256846467397 21.76261817377591 a52.45926426994012,52.45926426994012 0 0,0 -0.6285449186778477,0.6449424583485845 l -22.34032512663874 -22.149383324192232" fill="#c2ff1e" stroke="none" /><path d="M 114.13192950727249 115.5334660781643 l 21.1700594515814 23.269603785854798 a52.458637566400725,52.458637566400725 0 0,0 -0.6713081218708971,0.600287862068256 l -20.76748630288712 -23.629587177806442" fill="#c2ff1e" stroke="none" /><path d="M 113.59037401385872 116.0094264158162 l 24.936144842948377 29.374715923948845 a59.531613711875536,59.531613711875536 0 0,0 -0.7847561240098478,0.6546714694677476 l -24.428214384776634 -29.798449577328462" fill="#66ff29" stroke="none" /><path d="M 112.45986205192187 116.90419585922612 l 23.105764718909725 31.347407431802257 a59.942731233710674,59.942731233710674 0 0,0 -0.8335436100139518,0.6034212925998761 l -22.564240098521804 -31.739429495775212" fill="#60ff29" stroke="none" /><path d="M 111.8722381534696 117.32195027204791 l 17.360871899409414 25.33003093718086 a51.708473429759465,51.708473429759465 0 0,0 -0.736485539984692,0.49554033960703725 l -16.92349007132772 -25.62432095084502" fill="#ccff1d" stroke="none" /><path d="M 110.96478420261333 117.91015095944535 l 16.417726293627073 26.817122060608746 a52.443596681455546,52.443596681455546 0 0,0 -0.7718379934548111,0.4634665383628028 l -15.954955543614826 -27.095002599507474" fill="#c2ff1e" stroke="none" /><line stroke="#e1ed5e" stroke-width="0.3" x1="143.1302829299769" x2="145.66735839644613" y1="173.24464959558577" y2="177.55315839532614" /><path d="M 143.63769802327073 174.10635135553383 a86.0,86.0 0 0,1 -40.68552437913181,11.842963189579606" fill="none" id="id30" stroke="none" /><text fill="#e1ed5e" style="font-size:6.75px; font-family:Arial;" text-anchor="middle"><textPath startOffset="21.407464694133747" xlink:href="#id30">June</textPath></text><path d="M 110.02825361518725 118.45085714620011 l 10.472774416863182 19.26872535386248 a42.930863657163314,42.930863657163314 0 0,0 -0.6505276649358068,0.34636934046187445 l -10.14045793614082 -19.44566516204692" fill="#ffb110" stroke="none" /><path d="M 109.3889696526874 118.78422872680471 l 14.03217874599361 28.07375727588026 a52.38531325229294,52.38531325229294 0 0,0 -0.807830799330998,0.3951505248703784 l -13.548187697400543 -28.310501550847864" fill="#c3ff1e" stroke="none" /><path d="M 108.07796709384702 119.3841803445677 l 14.967373901946168 35.91624868351992 a59.91014264966277,59.91014264966277 0 0,0 -0.9527011841571038,0.3874552777131765 l -14.348618256598623 -36.16789121781238" fill="#61ff29" stroke="none" /><path d="M 107.06938296918513 119.77432235084164 l 12.72750539457454 35.6010977890767 a58.80777112388835,58.80777112388835 0 0,0 -0.9535098393610202,0.33168021852671054 l -12.1144897831685 -35.814336440172" fill="#6fff28" stroke="none" /><path d="M 106.0420521117495 120.11202640906438 l 8.775298433913008 29.21011447535771 a51.49978115114497,51.49978115114497 0 0,0 -0.8488635052384419,0.24709179490562716 l -8.272574916292958 -29.356449964565858" fill="#cfff1d" stroke="none" /><path d="M 104.9986988182912 120.39639698878246 l 7.218342670139308 29.45330135964444 a51.324930863657166,51.324930863657166 0 0,0 -0.8575365691229044,0.2023762953619854 l -6.711673947276524 -29.57287379865265" fill="#d2ff1c" stroke="none" /><path d="M 104.29559338865022 120.5559693870025 l 5.714225433193904 27.3446372707251 a48.935310267990374,48.935310267990374 0 0,0 -0.823752579112741,0.16477358635903186 l -5.243976368550204 -27.438700253746994" fill="#f3ff19" stroke="none" /><path d="M 103.58742460773223 120.69131181640829 l 1.916902222353788 11.056182621594127 a32.22112687264986,32.22112687264986 0 0,0 -0.5457990335991791,0.08981102327785107 l -1.7268256857015365 -11.08745964336765" fill="#ff0000" stroke="none" /><path d="M 102.875027216393 120.80226474461374 l 5.435141627345565 39.32597730269919 a60.699789109285156,60.699789109285156 0 0,0 -1.03340575300582,0.13379506423054646 l -4.75925805244897 -39.413483963130126" fill="#57ff2a" stroke="none" /><path d="M 101.44090949804482 120.95050786540614 l 2.1558601063747744 31.345732800433808 a52.41978194695899,52.41978194695899 0 0,0 -0.8982645044570398,0.0540373620005996 l -1.6174512497852693 -31.378122140259098" fill="#c3ff1e" stroke="none" /><path d="M 101.08105385017728 120.97215588758144 l 1.6176770832099925 31.382503248366845 a52.42416887173467,52.42416887173467 0 0,0 -0.8991350071195573,0.03861272594553526 l -1.0787163154896058 -31.405648542738213" fill="#c2ff1e" stroke="none" /><line stroke="#e1ed5e" stroke-width="0.3" x1="101.45913802915013" x2="101.54496967792366" y1="184.9874750549273" y2="189.98673829345242" /><path d="M 101.47630435890484 185.9873277026323 a86.0,86.0 0 0,1 -42.54439059252881,-10.42667462771756" fill="none" id="id31" stroke="none" /><text fill="#e1ed5e" style="font-size:6.75px; font-family:Arial;" text-anchor="middle"><textPath startOffset="22.145653131862474" xlink:href="#id31">July</textPath></text><path d="M 99.27912038922189 120.98762331915562 l -0.8650039011847505 25.183644780950466 a46.19849591150548,46.19849591150548 0 0,0 -0.7923575298243689,-0.0340272416352785 l 1.2971871916099582 -25.16508497088936" fill="#ffe215" stroke="none" /><path d="M 97.84075906011543 120.88869738790638 l -1.9438452398153092 18.804939380963642 a39.90513896902294,39.90513896902294 0 0,0 -0.6807894587729435,-0.07628387884643177 l 2.266370600189052 -18.768799741610238" fill="#ff810b" stroke="none" /><path d="M 96.41257539226777 120.69131181640829 l -4.709980249663916 27.165914451517004 a48.571195511608934,48.571195511608934 0 0,0 -0.8203102856127847,-0.14948786001199654 l 5.1756252688277575 -27.081058417573644" fill="#f9ff18" stroke="none" /><path d="M 95.35216902796893 120.47920084513623 l -6.671449398944076 29.39563701677266 a51.143186837236144,51.143186837236144 0 0,0 -0.8544999912599791,-0.2016596712545072 l 7.175081543943943 -29.276781201871927" fill="#d4ff1c" stroke="none" /><path d="M 94.30408787586889 120.21278271476187 l -8.532479308324776 30.27875896236358 a52.45801086286136,52.45801086286136 0 0,0 -0.8646578681217317,-0.25168930375144755 l 9.050997188828115 -30.127825964309615" fill="#c2ff1e" stroke="none" /><path d="M 93.95794788825049 120.11202640906438 l -9.039276836264683 30.08881272246404 a52.417275132801464,52.417275132801464 0 0,0 -0.8595418900630937,-0.26628827471642597 l 9.554459359199411 -29.929207859940966" fill="#c3ff1e" stroke="none" /><path d="M 91.92203290615298 119.3841803445677 l -9.247241701237824 22.190013742830878 a45.0397210671866,45.0397210671866 0 0,0 -0.7111234157136416,-0.3035363001560148 l 9.626800192121896 -22.02800279301546" fill="#ffd113" stroke="none" /><path d="M 90.93487009805054 118.94263497670748 l -10.96164171946831 22.905615262356328 a46.39340071225355,46.39340071225355 0 0,0 -0.7154298725019582,-0.3499526012888093 l 11.353231841232336 -22.714068910970298" fill="#ffe515" stroke="none" /><path d="M 90.6110303473126 118.78422872680471 l -14.047309290168608 28.104028499779968 a52.41915524341961,52.41915524341961 0 0,0 -0.8014458956872272,-0.4092239848659903 l 14.527682407569417 -27.85874656324114" fill="#c3ff1e" stroke="none" /><line stroke="#e1ed5e" stroke-width="0.3" x1="58.13341422392154" x2="55.67067388415222" y1="173.97424548756322" y2="178.32567169271397" /><path d="M 57.64086615596768 174.84453072859336 a86.0,86.0 0 0,1 -31.369924170532247,-30.572349798747897" fill="none" id="id32" stroke="none" /><text fill="#e1ed5e" style="font-size:6.75px; font-family:Arial;" text-anchor="middle"><textPath startOffset="22.145653131862474" xlink:href="#id32">August</textPath></text><path d="M 89.65649057296885 118.27599006163327 l -12.613965617637252 22.28766859952395 a46.60961343334063,46.60961343334063 0 0,0 -0.6929463040001923,-0.4000727351484703 l 12.994704389497844 -22.06784896709931" fill="#ffe915" stroke="none" /><path d="M 89.03521579738668 117.91015095944536 l -16.386312949314622 26.765810723478847 a52.383433141674786,52.383433141674786 0 0,0 -0.7628920434223787,-0.4761010583471343 l 16.843369121526713 -26.480573868290165" fill="#c3ff1e" stroke="none" /><path d="M 88.4268655584334 117.5232005979908 l -17.348649587201276 26.268066646569316 a52.47994548673975,52.47994548673975 0 0,0 -0.7474736426452693,-0.5029336254605185 l 17.797019517943554 -25.96638334705168" fill="#c2ff1e" stroke="none" /><path d="M 84.83555147118756 114.52719865689866 l -21.27270758446643 20.3787726578053 a50.45882657223007,50.45882657223007 0 0,0 -0.5938383154209907,-0.6306357121457938 l 21.619401733623675 -20.010595485715015" fill="#deff1b" stroke="none" /><path d="M 84.3458050057657 113.99807769240083 l -9.742799970298922 8.712071810527204 a34.06990231382926,34.06990231382926 0 0,0 -0.3861076096525196,-0.43931958298825424 l 9.890918643910034 -8.54353994972765" fill="#ff2003" stroke="none" /><path d="M 83.8745106332314 113.45245675266167 l -21.834040289865055 18.21473296435787 a49.43416628533912,49.43416628533912 0 0,0 -0.5380159972762256,-0.6562920364995105 l 22.14350310637991 -17.837238646159864" fill="#ecff1a" stroke="none" /><path d="M 83.20337586046588 112.60449989151573 l -20.072037694308868 15.062431286113965 a46.09508982750731,46.09508982750731 0 0,0 -0.46950698196217794,-0.6369763924584222 l 20.327646695854877 -14.715648584386663" fill="#ffe115" stroke="none" /><path d="M 82.37810715431573 111.42229804090323 l -26.357636912610534 17.084701802819254 a52.41038139386825,52.41038139386825 0 0,0 -0.48288007499300656,-0.7591676821376232 l 26.64703467922943 -16.629720446002956" fill="#c3ff1e" stroke="none" /><line stroke="#e1ed5e" stroke-width="0.3" x1="26.387840678322732" x2="22.057713659400548" y1="142.50000000000003" y2="145.00000000000006" /><path d="M 25.521815274538298 143.00000000000003 a86.0,86.0 0 0,1 -11.493303480769221,-40.785679425670985" fill="none" id="id33" stroke="none" /><text fill="#e1ed5e" style="font-size:6.75px; font-family:Arial;" text-anchor="middle"><textPath startOffset="21.40746469413373" xlink:href="#id33">September</textPath></text><path d="M 81.81346652052679 110.50000000000001 l -27.232581736049806 15.72273839603686 a52.44547679207369,52.44547679207369 0 0,0 -0.44345556351513926,-0.7835434896398458 l 27.49847066458632 -15.252938136297892" fill="#c2ff1e" stroke="none" /><path d="M 81.4637452351635 109.86951160357371 l -26.693600869740717 14.212838940088625 a51.24157929291924,51.24157929291924 0 0,0 -0.406740847671903,-0.7799792062019117 l 26.93364978638757 -13.75251349078221" fill="#d3ff1c" stroke="none" /><path d="M 80.9802524753101 108.90220220490708 l -25.40551338333153 11.891063062971844 a49.05062371923681,49.05062371923681 0 0,0 -0.35039788411593287,-0.7656826135432068 l 25.605895732302518 -11.453191467213948" fill="#f2ff19" stroke="none" /><path d="M 80.68587082218212 108.24405325689762 l -28.75504674680117 12.273819575436454 a52.26498617273143,52.26498617273143 0 0,0 -0.34513346751503776,-0.8281946806088557 l 28.961506058852695 -11.778392385386317" fill="#c5ff1e" stroke="none" /><path d="M 80.16572619554312 106.89939002012753 l -26.8954220736997 9.355623930163977 a49.47615542247777,49.47615542247777 0 0,0 -0.2721532017070263,-0.8045725823920136 l 27.052060696979094 -8.892549673297802" fill="#ecff1a" stroke="none" /><path d="M 79.56144815229197 104.8234425847677 l -17.030974415326494 4.019263589077965 a38.49881622664783,38.49881622664783 0 0,0 -0.14627558941780777,-0.6445172366324032 l 17.09746086630197 -3.7263120185065355" fill="#ff6a09" stroke="none" /><path d="M 79.34024301695615 103.76489593502545 l -30.92859705839518 5.636220669815278 a52.437956349601095,52.437956349601095 0 0,0 -0.15378100533925873,-0.8869679730849598 l 31.020792881226672 -5.104459663809725" fill="#c2ff1e" stroke="none" /><path d="M 79.17382384314188 102.69636545807758 l -28.775574375376753 3.7255742099616214 a50.015747169886396,50.015747169886396 0 0,0 -0.10293220223079708,-0.852426293595378 l 28.83528866386721 -3.231054239442844" fill="#e4ff1a" stroke="none" /><path d="M 79.0935383218832 101.97986365728391 l -62.7193850343504 5.9395909718517395 a84.0,84.0 0 0,0 -0.12362550920903681,-1.4367158104973519 l 62.812104166257186 -4.862054113978725" fill="#4dd2ff" stroke="none" /><path d="M 79.03789590574601 101.26102812881392 l -20.860344282881847 1.254906511253673 a41.89805622426039,41.89805622426039 0 0,0 -0.037026729922924995,-0.718308668734351 l 20.87881260226135 -0.8966260491425914" fill="#ffa10e" stroke="none" /><line stroke="#e1ed5e" stroke-width="0.3" x1="15.003131293944662" x2="10.003315487706104" y1="100.72959589197737" y2="100.7725132973878" /><path d="M 14.003168132696942 100.73817937305945 a86.0,86.0 0 0,1 10.791469493833604,-42.45332614584628" fill="none" id="id34" stroke="none" /><text fill="#e1ed5e" style="font-size:6.75px; font-family:Arial;" text-anchor="middle"><textPath startOffset="22.145653131862435" xlink:href="#id34">October</textPath></text><path d="M 79.13060592940154 97.66154086499901 l -32.019072236939834 -3.5878038295426866 a53.21945566321151,53.21945566321151 0 0,0 0.10952542115048007,-0.9070276044074399 l 31.952764729529683 4.1369251108735625" fill="#b8ff1f" stroke="none" /><path d="M 79.22317932658666 96.9465228501225 l -34.65979444590849 -5.093796207976098 a56.03210114796172,56.03210114796172 0 0,0 0.1480274935260278,-0.9504426961960158 l 34.567245460244195 5.688027086103564" fill="#92ff23" stroke="none" /><path d="M 79.407916724674 95.88100663000787 l -38.14142333027427 -7.629352878914859 a59.89698187533574,59.89698187533574 0 0,0 0.21033050277136514,-1.0065075962600956 l 38.00483511667854 8.282976926460364" fill="#61ff29" stroke="none" /><path d="M 79.73907114497095 94.47779374421319 l -30.339393604404616 -8.269136640171146 a52.44610349561307,52.44610349561307 0 0,0 0.24420281355302761,-0.8665896350066771 l 30.192972298777008 8.788734199080835" fill="#c2ff1e" stroke="none" /><path d="M 79.94057633289273 93.78553927170692 l -24.518248467074553 -7.595816049043017 a46.66789686250323,46.66789686250323 0 0,0 0.24364038745705663,-0.7632000435752359 l 24.384243363840238 8.015585126309645" fill="#ffe915" stroke="none" /><path d="M 80.05021161711548 93.44210830539832 l -33.68856143621115 -11.074099283937578 a56.462019775978355,56.462019775978355 0 0,0 0.31058030531404435,-0.9181754861573038 l 33.49349570932475 11.650776444569043" fill="#8dff24" stroke="none" /><path d="M 80.5471966667186 92.08871423366112 l -21.25380248397724 -8.643736442057751 a43.94424328034538,43.94424328034538 0 0,0 0.2901871821135916,-0.6963435981382446 l 21.102289457327167 9.007312549637259" fill="#ffc011" stroke="none" /><path d="M 80.9802524753101 91.09779779509293 l -14.170304109003144 -6.632417823612946 a36.645653860692754,36.645653860692754 0 0,0 0.27156304030216566,-0.5674623090070264 l 14.054361810741073 6.87469263468506" fill="#ff4c07" stroke="none" /><path d="M 81.29705330413844 90.45014215332179 l -14.529268212401924 -7.418747874387139 a37.31371983367487,37.31371983367487 0 0,0 0.29618552441920704,-0.5679747965990859 l 14.399774619007777 7.667068914090712" fill="#ff5708" stroke="none" /><path d="M 81.46374523516351 90.13048839642627 l -31.943259397433994 -17.00798641789283 a57.18899588166246,57.18899588166246 0 0,0 0.46882626627889307,-0.862587524950308 l 31.64658778153975 17.553828776317758" fill="#83ff25" stroke="none" /><line stroke="#e1ed5e" stroke-width="0.3" x1="26.387840678322718" x2="22.05771365940052" y1="57.49999999999999" y2="54.99999999999999" /><path d="M 25.521815274538284 56.99999999999999 a86.0,86.0 0 0,1 29.574782752854787,-30.34633250058573" fill="none" id="id35" stroke="none" /><text fill="#e1ed5e" style="font-size:6.75px; font-family:Arial;" text-anchor="middle"><textPath startOffset="21.40746469413373" xlink:href="#id35">November</textPath></text><path d="M 81.99639281039701 89.18935116829357 l -21.668587568092494 -13.011364245550018 a46.27495374331019,46.27495374331019 0 0,0 0.4147823208493242,-0.6775157490057868 l 21.442037282787776 13.381417110680347" fill="#ffe415" stroke="none" /><path d="M 82.37810715431573 88.57770195909679 l -33.018567262473375 -21.40223638052293 a60.34820842369139,60.34820842369139 0 0,0 0.5709387699383655,-0.8644740666683117 l 32.64630405361428 21.965890325530303" fill="#5cff2a" stroke="none" /><path d="M 82.78059297857968 87.97951657250589 l -32.073770643672745 -22.38998288384235 a60.11570141058034,60.11570141058034 0 0,0 0.59796487456908,-0.8411124812742437 l 31.684690670573694 22.937272591826112" fill="#5eff29" stroke="none" /><path d="M 83.64595745247003 86.82634096563983 l -26.179710610948074 -21.08852170370194 a54.617004556035255,54.617004556035255 0 0,0 0.5944233388066714,-0.7250998214612213 l 25.813840452902774 21.534823806861656" fill="#a5ff21" stroke="none" /><path d="M 84.10781606972428 86.27271002978789 l -15.163387719160472 -13.097773161001784 a41.03696556114836,41.03696556114836 0 0,0 0.4650639891555037,-0.5291574490399754 l 14.936312666046376 13.356142887853059" fill="#ff930d" stroke="none" /><path d="M 84.83555147118756 85.47280134310135 l -22.7638698082425 -21.80727233672858 a52.523814734496554,52.523814734496554 0 0,0 0.6293183352909187,-0.6457360519278857 l 22.386164671800778 22.194831080724196" fill="#c1ff1e" stroke="none" /><line stroke="#e1ed5e" stroke-width="0.3" x1="56.869717070023135" x2="54.33264160355391" y1="26.7553504044142" y2="22.446841604673864" /><path d="M 56.362301976729285 25.89364864446614 a86.0,86.0 0 0,1 42.16139366436587,-11.88097634709845" fill="none" id="id36" stroke="none" /><text fill="#e1ed5e" style="font-size:6.75px; font-family:Arial;" text-anchor="middle"><textPath startOffset="22.145653131862474" xlink:href="#id36">December</textPath></text></svg>