<?xml version="1.0" encoding="utf-8" ?>
<svg baseProfile="full" height="200mm" version="1.1" viewBox="0,0,200,200" width="200mm" xmlns="http://www.w3.org/2000/svg" xmlns:ev="http://www.w3.org/2001/xml-events" xmlns:xlink="http://www.w3.org/1999/xlink"><defs /><rect fill="#1a1a1a" height="200" width="200" x="0" y="0" /><text alignment-baseline="middle" fill="#e1ed5e" style="dominant-baseline: central; font-size:9.0px; font-family:Arial;" text-anchor="middle" x="100.0" y="100.0">2023</text><line stroke="#e1ed5e" stroke-width="0.3" x1="100.0" x2="100.0" y1="15.0" y2="10.0" /><path d="M 100.0 14.0 a86.0,86.0 0 0,1 42.46469731375804,11.215312516191453" fill="none" id="id13" stroke="none" /><text fill="#e1ed5e" style="font-size:6.75px; font-family:Arial;" text-anchor="middle"><textPath startOffset="22.20632615414155" xlink:href="#id13">January</textPath></text><path d="M 102.16513564639614 79.11191278185805 l 1.7306536188232162 -16.696433682824477 a37.78588870668758,37.78588870668758 0 0,0 0.6463785409960964,0.07262816047197317 l -2.017798863329038 16.664169568881903" fill="#ff850c" stroke="none" /><path d="M 102.88285421437855 79.19881850522331 l 2.9877805708907705 -21.558275687923945 a42.76433052901754,42.76433052901754 0 0,0 0.7282786251608813,0.10732933809727109 l -3.3584281764803077 21.503651865665706" fill="#ffcf13" stroke="none" /><path d="M 105.01212808612495 79.60689891045804 l 5.602060850575367 -22.79339060623935 a44.471722158847854,44.471722158847854 0 0,0 0.7418118560530291,0.1891043592378896 l -5.9935815953134215 22.693583250832592" fill="#ffe715" stroke="none" /><path d="M 106.74666289553966 80.11325718540242 l 8.241886167376599 -24.294124822238857 a46.65410665906174,46.65410665906174 0 0,0 0.7582802946232968,0.264549105570186 l -8.65884846606317 24.148654863496464" fill="#f9ff18" stroke="none" /><path d="M 110.36928655335952 81.73862282372117 l 12.773551207027305 -22.4955338317334 a46.869144802509624,46.869144802509624 0 0,0 0.6981343638466992,0.40440448499516723 l -13.158882303339333 22.272325189348184" fill="#f6ff19" stroke="none" /><line stroke="#e1ed5e" stroke-width="0.3" x1="143.23703022742887" x2="145.7803849466894" y1="26.81831364943548" y2="22.513508569990506" /><path d="M 143.74570117128098 25.957352633546492 a86.0,86.0 0 0,1 28.547481713284135,27.462654790039103" fill="none" id="id14" stroke="none" /><text fill="#e1ed5e" style="font-size:6.75px; font-family:Arial;" text-anchor="middle"><textPath startOffset="19.985693538727396" xlink:href="#id14">February</textPath></text><path d="M 111.90073688211348 82.69761687909136 l 23.07878357177434 -33.55405293629653 a61.72474333380864,61.72474333380864 0 0,0 0.870227353253922,0.6096498735208399 l -23.652942064611914 33.151818220011755" fill="#3dff2e" stroke="none" /><path d="M 113.34407831869373 83.78471172551755 l 21.642266477486423 -26.298975580350447 a55.05912234421788,55.05912234421788 0 0,0 0.7266295609212304,0.608531360524051 l -22.09175357536677 25.922543062432577" fill="#8bff24" stroke="none" /><path d="M 113.89432698308785 84.25364557470407 l 11.072320424334709 -12.548191929284119 a37.7347960929702,37.7347960929702 0 0,0 0.4833450254435594,0.4339519362067022 l -11.286676437374258 12.35574098430812" fill="#ff850c" stroke="none" /><path d="M 115.19652480421416 85.50635884689758 l 20.50815768975957 -19.559595505953165 a49.34011835163269,49.34011835163269 0 0,0 0.5808804568746885,0.6196427706753276 l -20.841805468604726 19.203683318399783" fill="#d4ff1c" stroke="none" /><path d="M 116.38621287248628 86.86637796730983 l 22.17063013221092 -17.76985802936472 a49.41310779980037,49.41310779980037 0 0,0 0.5262399964093295,0.6682713549315119 l -22.473224209214212 17.38559428048017" fill="#d3ff1c" stroke="none" /><line stroke="#e1ed5e" stroke-width="0.3" x1="172.23445277983987" x2="176.4835382374775" y1="55.19839476539836" y2="52.563006222186495" /><path d="M 173.08426987136738 54.67131705675599 a86.0,86.0 0 0,1 12.851231095245387,41.99856678651699" fill="none" id="id15" stroke="none" /><text fill="#e1ed5e" style="font-size:6.75px; font-family:Arial;" text-anchor="middle"><textPath startOffset="22.20632615414155" xlink:href="#id15">March</textPath></text><path d="M 118.21658344932153 89.55222093294921 l 24.573587924270583 -14.093719507380431 a49.32832774846713,49.32832774846713 0 0,0 0.41610172992682837,0.7401985476610987 l -24.812547295489846 13.668637449784539" fill="#d4ff1c" stroke="none" /><path d="M 118.56541770881063 90.18545643968196 l 25.43330523621528 -13.445228437022397 a49.76851026664765,49.76851026664765 0 0,0 0.39385985390432104,0.7608118746695226 l -25.66097452327972 13.005443840092529" fill="#cfff1d" stroke="none" /><path d="M 119.34039704204932 91.81776055985345 l 18.626473573596382 -7.880203615953202 a41.22481462997291,41.22481462997291 0 0,0 0.2708633514796606,0.6559170902963168 l -18.75935861196224 7.558411955203582" fill="#ffb911" stroke="none" /><path d="M 119.61058180528143 92.48833698450437 l 31.96244503328893 -12.242936931973553 a55.22699807500357,55.22699807500357 0 0,0 0.3324018641671441,0.8906717361585362 l -32.168451485957696 11.690942058785684" fill="#89ff24" stroke="none" /><path d="M 119.85752413597 93.16781622104841 l 30.141466324275218 -10.370479012612778 a52.8756149294168,52.8756149294168 0 0,0 0.2887076714899394,0.8631991903488824 l -30.315511289536925 9.850106719341582" fill="#a7ff21" stroke="none" /><path d="M 120.28053869075195 94.5502522615342 l 38.41749413545801 -10.32347586889826 a60.78037216597747,60.78037216597747 0 0,0 0.262813368712329,1.0127271179688895 l -38.589503836040635 9.66065232538052" fill="#48ff2c" stroke="none" /><path d="M 120.67395015179393 96.31383870115 l 27.940454501186142 -4.981777613777135 a49.3811047340653,49.3811047340653 0 0,0 0.14200157099833838,0.8381013102802348 l -28.022067933704705 4.5000905151810615" fill="#d4ff1c" stroke="none" /><path d="M 120.83666639777658 97.38593545837742 l 31.34357696968408 -3.9322092891409985 a52.58927170968202,52.58927170968202 0 0,0 0.10495227681672009,0.8991670144903338 l -31.40661959950439 3.392098536325812" fill="#aaff21" stroke="none" /><path d="M 120.91429891909075 98.10471618934814 l 28.403954500384643 -2.5740071580372903 a49.520346142877514,49.520346142877514 0 0,0 0.06962446577646432,0.8495948347777484 l -28.444053449980604 2.0846984060517735" fill="#d2ff1c" stroke="none" /><path d="M 120.96714384426684 98.82574320788733 l 29.80653800112771 -1.6693036475141532 a50.85324575787823,50.85324575787823 0 0,0 0.04142454973964516,0.8744067731114705 l -29.83085615910085 1.155985767779683" fill="#c0ff1e" stroke="none" /><line stroke="#e1ed5e" stroke-width="0.3" x1="184.98032266829074" x2="189.97916517819016" y1="98.17113171792111" y2="98.06355123074" /><path d="M 185.9800911702706 98.14961562048488 a86.0,86.0 0 0,1 -9.607161424134198,41.387399972396054" fill="none" id="id16" stroke="none" /><text fill="#e1ed5e" style="font-size:6.75px; font-family:Arial;" text-anchor="middle"><textPath startOffset="21.466115282336823" xlink:href="#id16">April</textPath></text><path d="M 120.9904718944345 100.63252640178507 l 34.28161894366069 1.0330415241188546 a55.29718023670327,55.29718023670327 0 0,0 -0.03685917060268784,0.9511714132126021 l -34.258757640206795 -1.622990184345463" fill="#88ff25" stroke="none" /><path d="M 120.92983693683757 101.71520430193887 l 39.7582591534198 3.2581972493785676 a60.8915407101098,60.8915407101098 0 0,0 -0.09460052852277309,1.0439089493139009 l -39.69628402861996 -3.9420875872410392" fill="#46ff2c" stroke="none" /><path d="M 120.5718875245553 104.21870165774334 l 15.442665924718524 3.1668460299923256 a36.764036432339935,36.764036432339935 0 0,0 -0.13246600747726653,0.618837086729174 l -15.385865878516816 -3.4321969361376685" fill="#ff760a" stroke="none" /><path d="M 120.49622156327973 104.57218783832717 l 27.68820191771982 6.17653647441778 a49.36875267360616,49.36875267360616 0 0,0 -0.1921606621073845,0.8278231030468364 l -27.57778068968188 -6.652228234813182" fill="#d4ff1c" stroke="none" /><path d="M 120.32669344350535 105.2749913415812 l 35.74362668810042 9.275848126527634 a57.92760765720805,57.92760765720805 0 0,0 -0.25877620510673727,0.9630025263133747 l -35.5786624066519 -9.889741586016557" fill="#69ff28" stroke="none" /><path d="M 120.02730092923936 106.31721596034902 l 27.191815817666182 8.577120475752288 a49.51248574076715,49.51248574076715 0 0,0 -0.2633775394614889,0.8105927172623558 l -27.040146027188445 -9.04391209299244" fill="#d2ff1c" stroke="none" /><path d="M 119.26925614724726 108.34839909993367 l 36.45493639229015 15.794089602623876 a60.729279552260095,60.729279552260095 0 0,0 -0.42382939696335853,0.9556234024592836 l -36.177665910595515 -16.419261341575847" fill="#48ff2c" stroke="none" /><line stroke="#e1ed5e" stroke-width="0.3" x1="174.80103733775053" x2="179.2010983576182" y1="140.37084112569926" y2="142.7455964860345" /><path d="M 175.68104954172406 140.8457921977663 a86.0,86.0 0 0,1 -30.038265399797805,32.042727171017184" fill="none" id="id17" stroke="none" /><text fill="#e1ed5e" style="font-size:6.75px; font-family:Arial;" text-anchor="middle"><textPath startOffset="22.206326154141568" xlink:href="#id17">May</textPath></text><path d="M 117.94076556474637 110.91462005526583 l 29.504219571355403 17.949476318963022 a55.53523812918865,55.53523812918865 0 0,0 -0.5038774575271641,0.8124108996090427 l -29.190877474160274 -18.454683549937336" fill="#85ff25" stroke="none" /><path d="M 117.55443506779139 111.5257021239791 l 29.065537465597433 19.08353789843598 a55.770488735206044,55.770488735206044 0 0,0 -0.533795002166799,0.7979511019823949 l -28.732739358019916 -19.581025914624185" fill="#83ff25" stroke="none" /><path d="M 116.93607887273984 112.41649034213515 l 34.709694299600905 25.447010921940574 a64.03850884072438,64.03850884072438 0 0,0 -0.6594098111644471,0.8833872012660343 l -34.266523221741366 -26.040711002715923" fill="#31ff3e" stroke="none" /><path d="M 116.27256486870786 113.27417163493432 l 26.334876944631986 21.482395637589377 a54.9855714387566,54.9855714387566 0 0,0 -0.604589923492773,0.7282675103265108 l -25.96119102124567 -21.93252440502966" fill="#8cff24" stroke="none" /><path d="M 115.80600337817218 113.82643327865902 l 26.95238546600358 23.576823971898452 a56.809184728361615,56.809184728361615 0 0,0 -0.6501707051502135,0.7304736796485873 l -26.542555911205028 -24.03727182128791" fill="#76ff27" stroke="none" /><path d="M 115.07121518719521 114.62390073753431 l 20.30560424198795 19.702932853269825 a49.293517396264086,49.293517396264086 0 0,0 -0.5961214698461577,0.6038679016818291 l -19.963442147086255 -20.04954124893232" fill="#d5ff1c" stroke="none" /><path d="M 114.55890576462653 115.13401014063108 l 21.42419898630341 22.27049545862152 a51.90260943961215,51.90260943961215 0 0,0 -0.6491883619712151,0.613848116538278 l -21.037674789941388 -22.635978211905723" fill="#b3ff20" stroke="none" /><path d="M 114.0293411484842 115.62618273729858 l 38.028431636043884 42.35688730271502 a77.92334771139312,77.92334771139312 0 0,0 -1.0057961563948596,0.887498166104596 l -37.29369312674244 -43.00520861059191" fill="#44ffeb" stroke="none" /><path d="M 113.20401910651253 116.32954008644616 l 15.396059495042003 19.040457959773544 a45.48627548837872,45.48627548837872 0 0,0 -0.6130737838657148,0.4870628921693476 l -15.066028218458937 -19.302654765948017" fill="#fff517" stroke="none" /><path d="M 112.63410532772338 116.77436683061366 l 21.171764590698853 28.109861085017197 a56.191020248110654,56.191020248110654 0 0,0 -0.7776169053150348,0.5752623963574279 l -20.684762714965256 -28.470133430114394" fill="#7dff26" stroke="none" /><path d="M 111.45004920935366 117.60387380957326 l 12.08230809375724 18.575939991343873 a43.15959646371026,43.15959646371026 0 0,0 -0.6262625932763554,0.399710417618029 l -11.760763698433953 -18.78116483778571" fill="#ffd513" stroke="none" /><line stroke="#e1ed5e" stroke-width="0.3" x1="143.8653032363475" x2="146.44561519142675" y1="172.8068346515853" y2="177.08958963109032" /><path d="M 144.38136562736335 173.6633856474863 a86.0,86.0 0 0,1 -40.68145358897372,12.25698825130547" fill="none" id="id18" stroke="none" /><text fill="#e1ed5e" style="font-size:6.75px; font-family:Arial;" text-anchor="middle"><textPath startOffset="21.466115282336833" xlink:href="#id18">June</textPath></text><path d="M 110.8373102113329 117.98757091392108 l 19.2571646745047 31.962692626578026 a58.315574647083984,58.315574647083984 0 0,0 -0.8642704976007264,0.5106262439817251 l -18.70412630587559 -32.289437442853504" fill="#64ff29" stroke="none" /><path d="M 109.89434966115114 118.52300852407294 l 21.662054685120932 40.553087097464335 a66.97605340082703,66.97605340082703 0 0,0 -1.0215732960550543,0.5344388659602982 l -20.960790486539384 -40.91995538236935" fill="#35ff65" stroke="none" /><path d="M 108.92500713936063 119.00905698771935 l 14.633343330813059 31.167040311882108 a55.4313685298731,55.4313685298731 0 0,0 -0.8671894571654286,0.3980841468277026 l -14.094685877880211 -31.414311529043886" fill="#87ff25" stroke="none" /><path d="M 106.2309692047433 120.05430185196036 l 11.256259639939106 36.22814061920516 a58.936546413802944,58.936546413802944 0 0,0 -0.9714006492324372,0.2926750470927006 l -10.630984016266423 -36.41653103540359" fill="#5dff2a" stroke="none" /><path d="M 104.48393922423573 120.51570834832081 l 5.284077495008507 24.17664186695075 a45.74735312990161,45.74735312990161 0 0,0 -0.7707525787792694,0.16151869677015007 l -4.867133454799859 -24.26401654444744" fill="#fff917" stroke="none" /><path d="M 104.13013068566511 120.58985236759428 l 6.7496320626322435 33.64879668034008 a55.31907707115357,55.31907707115357 0 0,0 -0.9352411377268279,0.17924118993801463 l -6.169423310333712 -33.759995068626566" fill="#88ff25" stroke="none" /><path d="M 102.70371172650421 120.8252237178851 l 3.7040378380632966 28.53019272765266 a49.76963318123485,49.76963318123485 0 0,0 -0.8505217387398705,0.10298633787732339 l -3.2123886762720457 -28.589724594255337" fill="#cfff1d" stroke="none" /><path d="M 101.98527174616119 120.90594882070398 l 2.6976008650492895 28.407146645015647 a49.534944032511056,49.534944032511056 0 0,0 -0.849537693507789,0.07330168686404004 l -2.2082188537999587 -28.44937258415835" fill="#d2ff1c" stroke="none" /><path d="M 101.26447882468166 120.96189622390904 l 2.0356319550448356 33.74568633244247 a54.80702801939256,54.80702801939256 0 0,0 -0.9421900499903549,0.04870046350625145 l -1.4544538366410011 -33.77572660271092" fill="#8eff24" stroke="none" /><line stroke="#e1ed5e" stroke-width="0.3" x1="102.19456741930631" x2="102.32365962044197" y1="184.97166512339345" y2="189.96999836594603" /><path d="M 102.22038585953345 185.97133177190398 a86.0,86.0 0 0,1 -42.740103519485714,-10.115201625700543" fill="none" id="id19" stroke="none" /><text fill="#e1ed5e" style="font-size:6.75px; font-family:Arial;" text-anchor="middle"><textPath startOffset="22.20632615414155" xlink:href="#id19">July</textPath></text><path d="M 100.54218724476979 120.99299961872073 l 0.8726272929020775 33.787339344282515 a54.798606159988594,54.798606159988594 0 0,0 -0.9431631049483731,0.01623740818575764 l -0.29090449806103647 -33.797354229747434" fill="#8eff24" stroke="none" /><path d="M 99.81925306533755 120.99922214144158 l -0.12830667676696836 14.906700424499553 a35.907252602309995,35.907252602309995 0 0,0 -0.6180156436038681,-0.010639699769563207 l 0.3848820102635044 -14.90228324745083" fill="#ff6909" stroke="none" /><path d="M 98.73552117531835 120.96189622390904 l -2.0903657855335362 34.65303634277618 a55.71602737772708,55.71602737772708 0 0,0 -0.9568225854223354,-0.06598808751714533 l 2.686551131734802 -34.61191991074275" fill="#83ff25" stroke="none" /><path d="M 97.2962882734958 120.8252237178851 l -3.6717257264024132 28.28131007217636 a49.518661770996715,49.518661770996715 0 0,0 -0.8443436658516003,-0.11701833841002127 l 4.157997983440844 -28.213917168273735" fill="#d2ff1c" stroke="none" /><path d="M 96.58105272829116 120.7198165907248 l -4.991855585377693 30.252099244781512 a51.66118280336518,51.66118280336518 0 0,0 -0.8761515900185216,-0.15233018449859634 l 5.511856146868265 -30.161690481761912" fill="#b6ff1f" stroke="none" /><path d="M 95.16358092515715 120.4354850818985 l -4.540478915782259 19.185039119290536 a40.715011407386285,40.715011407386285 0 0,0 -0.6806129055336032,-0.16727809295043836 l 4.870045106059073 -19.104039768026066" fill="#ffb110" stroke="none" /><path d="M 94.46302465271185 120.25689768951611 l -7.4339697084370755 27.197008179660028 a49.1947009125909,49.1947009125909 0 0,0 -0.8149191972336134,-0.23030430514606456 l 7.901020073775302 -27.06501508117544" fill="#d6ff1c" stroke="none" /><path d="M 93.76903079525671 120.05430185196036 l -8.44552656148401 27.18182892539701 a49.46363895622416,49.46363895622416 0 0,0 -0.8109178612741055,-0.25963029123793485 l 8.912165767849057 -27.03242578749937" fill="#d3ff1c" stroke="none" /><path d="M 93.42475214034765 119.94407469862007 l -2.628153665562241 7.971728844940735 a29.393786539284186,29.393786539284186 0 0,0 -0.4791610855228254,-0.16255745582983916 l 2.764984484022292 -7.925308402212773" fill="#ff0000" stroke="none" /><path d="M 93.08242187328487 119.8279376855182 l -9.290902712699657 26.630626594324998 a49.20480714387566,49.20480714387566 0 0,0 -0.7973063520975036,-0.285885691060901 l 9.747928625426887 -26.46675336222414" fill="#d6ff1c" stroke="none" /><path d="M 92.40401165467489 119.57807347666478 l -8.854788103642889 22.82253266227171 a45.480099458149155,45.480099458149155 0 0,0 -0.7274193746434481,-0.2894551813955989 l 9.246328554328196 -22.666730636470042" fill="#fff517" stroke="none" /><line stroke="#e1ed5e" stroke-width="0.3" x1="58.666819895761336" x2="56.23545636021788" y1="174.27360380694188" y2="178.64263932499728" /><path d="M 58.180547188652646 175.14741091055294 a86.0,86.0 0 0,1 -31.652253787137756,-30.449443065178592" fill="none" id="id20" stroke="none" /><text fill="#e1ed5e" style="font-size:6.75px; font-family:Arial;" text-anchor="middle"><textPath startOffset="22.20632615414155" xlink:href="#id20">August</textPath></text><path d="M 89.7882731507175 118.34994917583269 l -11.076749518810782 19.904350527931385 a43.77888385854841,43.77888385854841 0 0,0 -0.6553307677975214,-0.3721139130378728 l 11.417729053529511 -19.71073344909888" fill="#ffdd14" stroke="none" /><path d="M 89.4739219176387 118.17145234162733 l -16.389398508550396 28.293460448970237 a53.69758840724369,53.69758840724369 0 0,0 -0.7958292743156249,-0.4701899628907893 l 16.873995653894404 -28.007151913785698" fill="#9cff22" stroke="none" /><path d="M 88.54995079064634 117.60387380957326 l -15.048700245082559 23.136618478121054 a48.600117638671044,48.600117638671044 0 0,0 -0.6973545280355166,-0.46216855560177755 l 15.444729471858038 -22.87415190142796" fill="#deff1b" stroke="none" /><path d="M 87.65650970185807 116.9893568818739 l -17.122566589604915 23.567191085995972 a50.13065022101811,50.13065022101811 0 0,0 -0.6937485903294183,-0.5132186219393099 l 17.525700150352897 -23.268962515316893" fill="#caff1d" stroke="none" /><path d="M 84.43433777217949 114.09645910891817 l -18.181394858005373 16.4652994140458 a45.52894624269214,45.52894624269214 0 0,0 -0.5210704435365522,-0.5854281671431671 l 18.462124151190263 -16.149897077161768" fill="#fff617" stroke="none" /><path d="M 83.72743513129214 113.27417163493432 l -21.948123640825262 17.90394830954567 a49.32439754741195,49.32439754741195 0 0,0 -0.5310172754359519,-0.6625256987450318 l 22.253058828316075 -17.52349477722238" fill="#d5ff1c" stroke="none" /><path d="M 83.28015986056508 112.70617746262583 l -19.4991291231147 14.818287312484111 a45.49076714672751,45.49076714672751 0 0,0 -0.4684221840417712,-0.6275280639832411 l 19.751312573851553 -14.480446368991561" fill="#fff517" stroke="none" /><path d="M 82.85270091963577 112.12312394758628 l -15.901839866181922 11.242585481765413 a40.47470768572651,40.47470768572651 0 0,0 -0.39730569167683194,-0.5723484813191888 l 16.09300646502089 -10.96719573825921" fill="#ffae10" stroke="none" /><path d="M 82.05923443525364 110.91462005526583 l -24.427920502526685 14.86120924233182 a49.593335591045204,49.593335591045204 0 0,0 -0.4374111518751001,-0.7331262503851178 l 24.68011253010002 -14.43852089806059" fill="#d1ff1c" stroke="none" /><line stroke="#e1ed5e" stroke-width="0.3" x1="26.63291911575756" x2="22.317208475507996" y1="142.92168965132927" y2="145.44649492493687" /><path d="M 25.769776987707644 143.4266507060508 a86.0,86.0 0 0,1 -11.730757126820373,-40.83630448921669" fill="none" id="id21" stroke="none" /><text fill="#e1ed5e" style="font-size:6.75px; font-family:Arial;" text-anchor="middle"><textPath startOffset="21.46611528233685" xlink:href="#id21">September</textPath></text><path d="M 81.87401531095188 110.60418214915194 l -26.671405604229285 15.60348020000516 a51.900363610437765,51.900363610437765 0 0,0 -0.44448460925252536,-0.7749963819509995 l 26.936042209634188 -15.142063972195853" fill="#b3ff20" stroke="none" /><path d="M 81.51974371655577 109.97397251340807 l -16.956155580758224 9.151400667915075 a40.2680914016826,40.2680914016826 0 0,0 -0.32396157337549075,-0.6128132087198679 l 17.111169662358602 -8.858172444109082" fill="#ffab0f" stroke="none" /><path d="M 81.18737489456691 109.33194174019688 l -36.3676437931789 18.040051890906234 a61.596169613574794,61.596169613574794 0 0,0 -0.46298832278619934,-0.9538930775509553 l 36.672785372579824 -17.411369857389992" fill="#3fff2d" stroke="none" /><path d="M 80.87730276802145 108.67885076344099 l -26.120048808049827 11.854604127694198 a49.68429167260801,49.68429167260801 0 0,0 -0.3467464711158159,-0.7818217539712103 l 26.32023636389692 -11.403234037230291" fill="#d0ff1d" stroke="none" /><path d="M 80.58989483394504 108.01547362559985 l -9.872500374635397 4.076884988238223 a31.68116355340083,31.68116355340083 0 0,0 -0.20381154158802756,-0.5058435317586082 l 9.941214530480812 -3.90634208863681" fill="#ff2603" stroke="none" /><path d="M 80.32549172779594 107.34259656027581 l -35.56045333824177 13.27128783859419 a58.956197419078855,58.956197419078855 0 0,0 -0.34665047831631635,-0.9538332358702053 l 35.783628077563314 -12.657206805717868" fill="#5dff2a" stroke="none" /><path d="M 79.97269907076064 106.31721596034903 l -27.5350400056646 8.685383757262988 a49.87237986596321,49.87237986596321 0 0,0 -0.2511982181534862,-0.8209303111572286 l 27.68046499632422 -8.21012647355371" fill="#cdff1d" stroke="none" /><path d="M 79.18660465613746 102.79330883721812 l -27.93859992235777 3.749563046936324 a49.18908633965493,49.18908633965493 0 0,0 -0.10540164984814054,-0.8401548548979991 l 27.99900308145276 -3.268090437750916" fill="#d6ff1c" stroke="none" /><path d="M 79.10278846688536 102.07522291339032 l -16.515442025137308 1.6400859828127503 a37.59667759874519,37.59667759874519 0 0,0 -0.05840984691903331,-0.6445477935374986 l 16.541226468333416 -1.3555568007266856" fill="#ff830c" stroke="none" /><line stroke="#e1ed5e" stroke-width="0.3" x1="15.007084014347285" x2="10.007500721073583" y1="101.09737516637583" y2="101.16192664675087" /><path d="M 14.007167355692545 101.11028546245083 a86.0,86.0 0 0,1 10.666146001902534,-42.60595125391555" fill="none" id="id22" stroke="none" /><text fill="#e1ed5e" style="font-size:6.75px; font-family:Arial;" text-anchor="middle"><textPath startOffset="22.20632615414155" xlink:href="#id22">October</textPath></text><path d="M 79.00486145842228 99.54816195383935 l -38.53961095432525 -0.8294140321536198 a59.54853486382433,59.54853486382433 0 0,0 0.030875363919809128,-1.0246030154001535 l 38.51962389594979 1.492687194978768" fill="#56ff2b" stroke="none" /><path d="M 79.05617556472873 98.46500227214037 l -28.06552361293931 -2.056955505437741 a49.14080101240554,49.14080101240554 0 0,0 0.06909083406736448,-0.8430831762872205 l 28.025958295052448 2.53975259893274" fill="#d7ff1c" stroke="none" /><path d="M 79.12142395522702 97.74499172005258 l -28.682550430679736 -3.097883139754879 a49.84936011692571,49.84936011692571 0 0,0 0.09948424216653953,-0.8523202328800513 l 28.624975835509606 3.5911471109597923" fill="#ceff1d" stroke="none" /><path d="M 79.32604984820605 96.31383870115002 l -36.653295196396684 -6.53527541840172 a58.231356053044344,58.231356053044344 0 0,0 0.18443888064834962,-0.9852798754632939 l 36.53537059183847 7.165233371327586" fill="#65ff29" stroke="none" /><path d="M 79.46518482838121 95.60439243477599 l -27.525670899872022 -5.892044619547739 a49.1492228718095,49.1492228718095 0 0,0 0.18420570069044007,-0.8257580370870875 l 27.420170812179546 6.364980826184786" fill="#d7ff1c" stroke="none" /><path d="M 79.54389044137918 95.25157060432595 l -13.042301207875484 -3.027479211784516 a34.38907208042207,34.38907208042207 0 0,0 0.13881263532792265,-0.5754679904090394 l 12.988255772286747 3.2515324338529523" fill="#ff5107" stroke="none" /><path d="M 79.62865764111835 94.90015583598534 l -27.309268783420563 -6.836712700374092 a49.15203015827749,49.15203015827749 0 0,0 0.2125326016377559,-0.8189748116148257 l 27.1875398499125 7.3057839375377815" fill="#d7ff1c" stroke="none" /><path d="M 80.02781315780177 93.51064311812611 l -14.15467868992382 -4.599133900204437 a35.8831099386853,35.8831099386853 0 0,0 0.19592640445022225,-0.5857950113226983 l 14.073414991701826 4.842102014449457" fill="#ff6809" stroke="none" /><path d="M 80.14247586403 93.16781622104843 l -53.065184164614045 -18.257618018946644 a77.11821795237417,77.11821795237417 0 0,0 0.4426839803617306,-1.2515272249485263 l 52.7430471034425 19.168342870321784" fill="#43ffe2" stroke="none" /><path d="M 80.38941819471856 92.48833698450439 l -37.262692024668965 -14.273150502048166 a60.90276985598175,60.90276985598175 0 0,0 0.38341614309674754,-0.9757522629833031 l 37.01148233169053 14.912451769927234" fill="#46ff2c" stroke="none" /><path d="M 80.803312248108 91.48605970444005 l -28.865346032034036 -12.802095648151294 a52.57691964922287,52.57691964922287 0 0,0 0.374041427466568,-0.8241507043525255 l 28.640702287604118 13.29706836134589" fill="#aaff21" stroke="none" /><line stroke="#e1ed5e" stroke-width="0.3" x1="26.266209847984243" x2="21.928928074336255" y1="57.711370442889674" y2="55.22380399835377" /><path d="M 25.398753493254645 57.213857153982495 a86.0,86.0 0 0,1 29.58750427330803,-30.492523968695096" fill="none" id="id23" stroke="none" /><text fill="#e1ed5e" style="font-size:6.75px; font-family:Arial;" text-anchor="middle"><textPath startOffset="21.46611528233685" xlink:href="#id23">November</textPath></text><path d="M 82.54541684631803 88.32363383020206 l -8.337935901366276 -5.577720867205006 a31.0315574647084,31.0315574647084 0 0,0 0.3008221853337715,-0.44141943746930373 l 8.240689250363763 5.720418327944725" fill="#ff1b02" stroke="none" /><path d="M 85.31137513191541 84.99185889309783 l -7.2424680900795675 -7.4000108270396945 a31.354395408527022,31.354395408527022 0 0,0 0.3889688281106121,-0.3741877044628062 l 7.114016018356527 7.5235816182648145" fill="#ff2003" stroke="none" /><path d="M 85.83668400450813 84.49514656593479 l -12.472296242964383 -13.653661705702074 a39.4927188792243,39.4927188792243 0 0,0 0.5058622594510704,-0.454168131225185 l 12.235422995917341 13.866328845696538" fill="#ff9f0e" stroke="none" /><path d="M 86.65592168130627 83.78471172551755 l -10.858593889235054 -13.195008749522701 a38.08851418793669,38.08851418793669 0 0,0 0.5098358043788956,-0.41225176377078676 l 10.629854686291658 13.379966610557622" fill="#ff8a0c" stroke="none" /><path d="M 87.80319425747018 82.90503203632743 l -13.09008741221568 -18.346986061539578 a43.53801867959504,43.53801867959504 0 0,0 0.613821503583477,-0.4300211900083148 l 12.772334769048543 18.569592094311837" fill="#ffda14" stroke="none" /><path d="M 88.39885842347998 82.49532879139004 l -31.500746965761103 -47.530686081556425 a78.02160273777271,78.02160273777271 0 0,0 1.1258627776525747,-0.7322924684958272 l 30.67791716232424 48.06587747421178" fill="#45ffec" stroke="none" /><line stroke="#e1ed5e" stroke-width="0.3" x1="56.762969772571076" x2="54.21961505331055" y1="26.818313649435495" y2="22.513508569990535" /><path d="M 56.25429882871897 25.957352633546506 a86.0,86.0 0 0,1 42.265352541879196,-11.944610805530505" fill="none" id="id24" stroke="none" /><text fill="#e1ed5e" style="font-size:6.75px; font-family:Arial;" text-anchor="middle"><textPath startOffset="22.20632615414155" xlink:href="#id24">December</textPath></text><path d="M 89.3179101791058 81.91981866633112 l -28.741340845987168 -48.6467220348398 a77.50281619848853,77.50281619848853 0 0,0 1.1544349595250918,-0.6687232421775918 l 27.899709153996756 49.13424943440744" fill="#44ffe6" stroke="none" /><path d="M 89.94658935756843 81.56283822128135 l -23.103455859463587 -42.369914895408066 a69.2595002138885,69.2595002138885 0 0,0 1.0516064151510593,-0.5617317275372308 l 22.37070439778422 42.76132534944704" fill="#38ff83" stroke="none" /><path d="M 90.26544431104013 81.39251694778311 l -29.20366706687963 -55.822449156650684 a84.0,84.0 0 0,0 1.286958049644945,-0.6592298987499792 l 28.23844852964592 56.31687158071317" fill="#4dd2ff" stroke="none" /><path d="M 90.91171255644093 81.06846463323043 l -12.193473918776228 -25.399854941944337 a49.175049907314985,49.175049907314985 0 0,0 0.7662451328620301,-0.35976236410423007 l 11.754450574614589 25.605982288688573" fill="#d6ff1c" stroke="none" /><path d="M 92.91201910852362 80.23233633223022 l -10.591038323368178 -29.537337455377102 a52.37872522458292,52.37872522458292 0 0,0 0.8513238820654518,-0.297010186270028 l 10.08103243723944 29.71526849481934" fill="#adff20" stroke="none" /><path d="M 93.59665428221793 80.00007090966166 l -9.666137064336604 -30.19078843851401 a52.70044025381435,52.70044025381435 0 0,0 0.8663315638190966,-0.26917343396455545 l 9.145020127806779 30.352702007361092" fill="#a9ff21" stroke="none" /><path d="M 95.692805502759 79.44645832069477 l -5.7667379911861305 -27.518350919931756 a49.11609689148724,49.11609689148724 0 0,0 0.8289711702004686,-0.16628381818634067 l 5.292200411518525 27.61353869419531" fill="#d7ff1c" stroke="none" /><path d="M 97.11714578562143 79.19881850522333 l -3.8648302849596616 -27.886611748518476 a49.15315307286468,49.15315307286468 0 0,0 0.8390800678105106,-0.10893667456099948 l 3.3842354886412935 27.94900674624361" fill="#d7ff1c" stroke="none" /><path d="M 98.19473922651362 79.07773832637324 l -2.9092550900826617 -33.7171211849296 a54.842399828889214,54.842399828889214 0 0,0 0.9412256636783389,-0.07305722648422389 l 2.3284392370419886 33.762203673602286" fill="#8eff24" stroke="none" /></svg>
