<?xml version="1.0" encoding="utf-8" ?>
<svg baseProfile="full" height="200mm" version="1.1" viewBox="0,0,200,200" width="200mm" xmlns="http://www.w3.org/2000/svg" xmlns:ev="http://www.w3.org/2001/xml-events" xmlns:xlink="http://www.w3.org/1999/xlink"><defs /><rect fill="#1a1a1a" height="200" width="200" x="0" y="0" /><text alignment-baseline="middle" fill="#e1ed5e" style="dominant-baseline: central; font-size:9.0px; font-family:Arial;" text-anchor="middle" x="100.0" y="100.0">2022</text><line stroke="#e1ed5e" stroke-width="0.3" x1="100.0" x2="100.0" y1="15.0" y2="10.0" /><path d="M 100.0 14.0 a86.0,86.0 0 0,1 42.46469731375804,11.215312516191453" fill="none" id="id1" stroke="none" /><text fill="#e1ed5e" style="font-size:6.75px; font-family:Arial;" text-anchor="middle"><textPath startOffset="22.20632615414155" xlink:href="#id1">January</textPath></text><line stroke="#e1ed5e" stroke-width="0.3" x1="143.23703022742887" x2="145.7803849466894" y1="26.81831364943548" y2="22.513508569990506" /><path d="M 143.74570117128098 25.957352633546492 a86.0,86.0 0 0,1 28.547481713284135,27.462654790039103" fill="none" id="id2" stroke="none" /><text fill="#e1ed5e" style="font-size:6.75px; font-family:Arial;" text-anchor="middle"><textPath startOffset="19.985693538727396" xlink:href="#id2">February</textPath></text><line stroke="#e1ed5e" stroke-width="0.3" x1="172.23445277983987" x2="176.4835382374775" y1="55.19839476539836" y2="52.563006222186495" /><path d="M 173.08426987136738 54.67131705675599 a86.0,86.0 0 0,1 12.851231095245387,41.99856678651699" fill="none" id="id3" stroke="none" /><text fill="#e1ed5e" style="font-size:6.75px; font-family:Arial;" text-anchor="middle"><textPath startOffset="22.20632615414155" xlink:href="#id3">March</textPath></text><line stroke="#e1ed5e" stroke-width="0.3" x1="184.98032266829074" x2="189.97916517819016" y1="98.17113171792111" y2="98.06355123074" /><path d="M 185.9800911702706 98.14961562048488 a86.0,86.0 0 0,1 -9.607161424134198,41.387399972396054" fill="none" id="id4" stroke="none" /><text fill="#e1ed5e" style="font-size:6.75px; font-family:Arial;" text-anchor="middle"><textPath startOffset="21.466115282336823" xlink:href="#id4">April</textPath></text><line stroke="#e1ed5e" stroke-width="0.3" x1="174.80103733775053" x2="179.2010983576182" y1="140.37084112569926" y2="142.7455964860345" /><path d="M 175.68104954172406 140.8457921977663 a86.0,86.0 0 0,1 -30.038265399797805,32.042727171017184" fill="none" id="id5" stroke="none" /><text fill="#e1ed5e" style="font-size:6.75px; font-family:Arial;" text-anchor="middle"><textPath startOffset="22.206326154141568" xlink:href="#id5">May</textPath></text><line stroke="#e1ed5e" stroke-width="0.3" x1="143.8653032363475" x2="146.44561519142675" y1="172.8068346515853" y2="177.08958963109032" /><path d="M 144.38136562736335 173.6633856474863 a86.0,86.0 0 0,1 -40.68145358897372,12.25698825130547" fill="none" id="id6" stroke="none" /><text fill="#e1ed5e" style="font-size:6.75px; font-family:Arial;" text-anchor="middle"><textPath startOffset="21.466115282336833" xlink:href="#id6">June</textPath></text><line stroke="#e1ed5e" stroke-width="0.3" x1="102.19456741930631" x2="102.32365962044197" y1="184.97166512339345" y2="189.96999836594603" /><path d="M 102.22038585953345 185.97133177190398 a86.0,86.0 0 0,1 -42.740103519485714,-10.115201625700543" fill="none" id="id7" stroke="none" /><text fill="#e1ed5e" style="font-size:6.75px; font-family:Arial;" text-anchor="middle"><textPath startOffset="22.20632615414155" xlink:href="#id7">July</textPath></text><line stroke="#e1ed5e" stroke-width="0.3" x1="58.666819895761336" x2="56.23545636021788" y1="174.27360380694188" y2="178.64263932499728" /><path d="M 58.180547188652646 175.14741091055294 a86.0,86.0 0 0,1 -31.652253787137756,-30.449443065178592" fill="none" id="id8" stroke="none" /><text fill="#e1ed5e" style="font-size:6.75px; font-family:Arial;" text-anchor="middle"><textPath startOffset="22.20632615414155" xlink:href="#id8">August</textPath></text><path d="M 85.18274418774928 114.88116024355367 l -14.534947452234386 14.597634333173913 a41.599893824101926,41.599893824101926 0 0,0 -0.5030801444440527,-0.509617530268822 l 14.784068221733971 -14.345276308924426" fill="#ffc011" stroke="none" /><path d="M 84.19399662182784 113.82643327865904 l -16.53323057306241 14.462581332534695 a42.96620067244736,42.96620067244736 0 0,0 -0.4821574773212982,-0.5608580745875751 l 16.77973055995449 -14.175846158785589" fill="#ffd313" stroke="none" /><path d="M 83.50135304334701 112.99209946851258 l -14.8364226304592 11.683156750868537 a39.88426827110246,39.88426827110246 0 0,0 -0.4201013448482647,-0.5430376184475603 l 15.035330792525533 -11.426041138307724" fill="#ffa70f" stroke="none" /><path d="M 82.85270091963577 112.12312394758628 l -18.596722756537297 13.147865091743139 a43.77508405591931,43.77508405591931 0 0,0 -0.42970267219945446,-0.6190187480430108 l 18.820286335898885 -12.825805081513115" fill="#ffdf14" stroke="none" /><path d="M 82.44556493220864 111.52570212397912 l -13.889365586139292 9.119330232996745 a37.615554769067415,37.615554769067415 0 0,0 -0.3507115564360846,-0.5443121238710162 l 14.044282005952422 -8.878896509204282" fill="#ff850c" stroke="none" /><path d="M 82.24976979558568 111.22182372390057 l -26.468291420544553 16.73344498486075 a52.31419217837551,52.31419217837551 0 0,0 -0.47465254558031333,-0.7652910361361693 l 26.75240860579282 -16.27535761735932" fill="#adff20" stroke="none" /><line stroke="#e1ed5e" stroke-width="0.3" x1="26.63291911575756" x2="22.317208475507996" y1="142.92168965132927" y2="145.44649492493687" /><path d="M 25.769776987707644 143.4266507060508 a86.0,86.0 0 0,1 -11.730757126820373,-40.83630448921669" fill="none" id="id9" stroke="none" /><text fill="#e1ed5e" style="font-size:6.75px; font-family:Arial;" text-anchor="middle"><textPath startOffset="21.46611528233685" xlink:href="#id9">September</textPath></text><path d="M 81.69416730710424 110.29060199501025 l -16.083066421538128 9.041076589080408 a39.45009732790657,39.45009732790657 0 0,0 -0.3276679820676474,-0.5948125650519287 l 16.23631081305729 -8.762893505630657" fill="#ffa00e" stroke="none" /><path d="M 81.35079622478065 109.6543875284942 l -17.514498785297878 9.066969329022612 a40.722261546628914,40.722261546628914 0 0,0 -0.3168993405362694,-0.6252724631262951 l 17.66797679562041 -8.764142654193632" fill="#ffb310" stroke="none" /><path d="M 81.02952815118164 109.00673069616217 l -23.04756228597815 10.942436665103763 a46.513271987258896,46.513271987258896 0 0,0 -0.3371666976330401,-0.726227070944003 l 23.232503600451015 -10.544089526880931" fill="#f9ff18" stroke="none" /><path d="M 80.58989483394504 108.01547362559985 l -30.402066155066372 12.554643951947476 a53.892319943372854,53.892319943372854 0 0,0 -0.34670054933114836,-0.8604823307347955 l 30.61366931865491 -12.029462253369875" fill="#99ff23" stroke="none" /><path d="M 80.32549172779594 107.34259656027581 l -17.97258729177657 6.707433588787316 a40.18341886391789,40.18341886391789 0 0,0 -0.23627034950280323,-0.6501145277543835 l 18.085381902284595 -6.397071264026815" fill="#ffab0f" stroke="none" /><path d="M 79.97269907076064 106.31721596034903 l -18.045598734418437 5.6921271988622415 a39.92204919483277,39.92204919483277 0 0,0 -0.2010801900717382,-0.6571416955763775 l 18.140905696996306 -5.380658530733816" fill="#ffa70f" stroke="none" /><path d="M 79.86692584326677 105.97154293290107 l -24.50931306828646 7.269551291760303 a46.56467881790834,46.56467881790834 0 0,0 -0.22130941938385312,-0.7704071219434161 l 24.630815124556417 -6.8465866943122915" fill="#f8ff18" stroke="none" /><path d="M 79.58551787078972 104.9243191809786 l -30.055155987905362 7.249813156258182 a51.917182799504516,51.917182799504516 0 0,0 -0.20208005431006737,-0.8705555850413825 l 30.175496608145984 -6.7313889138682255" fill="#b2ff20" stroke="none" /><path d="M 79.4281124754447 104.21870165774334 l -14.593747732794448 2.992757357803946 a35.897451778446296,35.897451778446296 0 0,0 -0.11892324410615668,-0.6063870596020884 l 14.64310090987627 -2.741106571133903" fill="#ff6a09" stroke="none" /><path d="M 79.29508885075956 103.50808413554451 l -31.29552266523397 5.302477551540156 a52.741550168111836,52.741550168111836 0 0,0 -0.1439549108524829,-0.8964073672941186 l 31.382159330447745 -4.762990954552824" fill="#a7ff21" stroke="none" /><path d="M 79.18660465613746 102.79330883721812 l -32.466834180879204 4.357284976124184 a53.75791895239781,53.75791895239781 0 0,0 -0.11519167708991242,-0.918191004508644 l 32.53702736721596 -3.7977762173281313" fill="#9aff22" stroke="none" /><line stroke="#e1ed5e" stroke-width="0.3" x1="15.007084014347285" x2="10.007500721073583" y1="101.09737516637583" y2="101.16192664675087" /><path d="M 14.007167355692545 101.11028546245083 a86.0,86.0 0 0,1 10.666146001902534,-42.60595125391555" fill="none" id="id10" stroke="none" /><text fill="#e1ed5e" style="font-size:6.75px; font-family:Arial;" text-anchor="middle"><textPath startOffset="22.20632615414155" xlink:href="#id10">October</textPath></text><path d="M 79.00019446554 99.90962569577889 l -12.335047691391058 -0.053084841705533854 a33.33516191824456,33.33516191824456 0 0,0 0.007408331590583189,-0.573783445958511 l 12.33230635268276 0.26540454572451694" fill="#ff4206" stroke="none" /><path d="M 79.00486145842228 99.54816195383935 l -21.99393398980413 -0.4733332024296605 a42.99902672093435,42.99902672093435 0 0,0 0.022294597192734075,-0.7398491421878065 l 21.98252769815575 0.8518524920424614" fill="#ffd413" stroke="none" /><path d="M 79.08570108090925 98.10471618934814 l -26.13948107397833 -2.3687973233054223 a47.24659352327022,47.24659352327022 0 0,0 0.08037067249402909,-0.8093217038658038 l 26.094833275802074 2.8183945578756564" fill="#efff19" stroke="none" /><path d="M 79.26566170972629 96.67025291283419 l -8.140609665549569 -1.307308241147622 a29.24491240488409,29.24491240488409 0 0,0 0.08409742000643276,-0.4963477333599727 l 8.116900384022912 1.4472417628234227" fill="#ff0000" stroke="none" /><path d="M 79.32604984820605 96.31383870115002 l -30.767027980574827 -5.485755116459366 a52.252256237834004,52.252256237834004 0 0,0 0.16550099989218792,-0.8841129592069266 l 30.668041256772778 6.014546153128864" fill="#adff20" stroke="none" /><path d="M 79.46518482838121 95.60439243477599 l -24.9432655825848 -5.339264365414699 a46.508317112015575,46.508317112015575 0 0,0 0.1743078860859434,-0.7813880749815376 l 24.847663309496816 5.767830609946196" fill="#f9ff18" stroke="none" /><path d="M 80.02781315780177 93.51064311812611 l -31.23592060013236 -10.14916583295018 a53.84339055034508,53.84339055034508 0 0,0 0.2939918510955211,-0.8789982147864934 l 31.056591455265064 10.685337150658995" fill="#99ff23" stroke="none" /><path d="M 80.52162464483688 92.15188598940014 l -24.615964890974602 -9.918121784940515 a47.538931162626085,47.538931162626085 0 0,0 0.3123495966215342,-0.756379323566805 l 24.441593607466867 10.340375678960633" fill="#ebff1a" stroke="none" /><path d="M 81.10775173730289 90.83032412892265 l -35.269876210124 -17.118837756247405 a60.20483100336224,60.20483100336224 0 0,0 0.4605382510724801,-0.9284170117371098 l 34.96997794609811 17.723414356483477" fill="#4eff2c" stroke="none" /><line stroke="#e1ed5e" stroke-width="0.3" x1="26.266209847984243" x2="21.928928074336255" y1="57.711370442889674" y2="55.22380399835377" /><path d="M 25.398753493254645 57.213857153982495 a86.0,86.0 0 0,1 29.58750427330803,-30.492523968695096" fill="none" id="id11" stroke="none" /><text fill="#e1ed5e" style="font-size:6.75px; font-family:Arial;" text-anchor="middle"><textPath startOffset="21.46611528233685" xlink:href="#id11">November</textPath></text><path d="M 81.96595687620814 89.24020034530311 l -27.998349260791716 -16.70488567873664 a53.60307910104407,53.60307910104407 0 0,0 0.4795796060143063,-0.788302775320608 l 27.70665385649119 17.184356227264324" fill="#9cff22" stroke="none" /><path d="M 82.34701348167596 88.62581576622439 l -15.759921604131094 -10.154443365669426 a39.74800920191117,39.74800920191117 0 0,0 0.37553041730873915,-0.5719585892222392 l 15.582794551464433 10.424220018869331" fill="#ffa50f" stroke="none" /><path d="M 82.7489923806493 88.02491185347247 l -28.487108966184334 -19.77482408199363 a55.67793310918422,55.67793310918422 0 0,0 0.5532991426328839,-0.7826023985776485 l 28.14249720374757 20.262252980903064" fill="#83ff25" stroke="none" /><path d="M 85.57189188830299 84.74124197986013 l -23.803016676812245 -25.173395486715144 a55.64510706069722,55.64510706069722 0 0,0 0.7016374121458957,-0.6520955073820399 l 23.366171380871496 25.57939558017183" fill="#83ff25" stroke="none" /><path d="M 86.93701828274178 83.55741782278169 l -20.751439900164062 -26.120166378497398 a54.35993629446116,54.35993629446116 0 0,0 0.7376577213109046,-0.5757535520160524 l 20.298749623693734 26.47349831973667" fill="#93ff23" stroke="none" /><path d="M 88.09926311788651 82.69761687909137 l -16.966956316916356 -24.668117739182538 a50.93983365775969,50.93983365775969 0 0,0 0.7267302395988837,-0.49069150183106125 l 16.539821382910933 24.956521153312263" fill="#beff1f" stroke="none" /><line stroke="#e1ed5e" stroke-width="0.3" x1="56.762969772571076" x2="54.21961505331055" y1="26.818313649435495" y2="22.513508569990535" /><path d="M 56.25429882871897 25.957352633546506 a86.0,86.0 0 0,1 42.265352541879196,-11.944610805530505" fill="none" id="id12" stroke="none" /><text fill="#e1ed5e" style="font-size:6.75px; font-family:Arial;" text-anchor="middle"><textPath startOffset="22.20632615414155" xlink:href="#id12">December</textPath></text><path d="M 89.63071344664047 81.73862282372117 l -15.509279448490581 -27.313431862815676 a52.40957352680942,52.40957352680942 0 0,0 0.7883296085298347,-0.4387045736404985 l 15.0368257508887 27.57635183401636" fill="#abff21" stroke="none" /><path d="M 90.58718382345135 81.22770947309562 l -11.691758192513008 -23.317259940440586 a47.0843213590515,47.0843213590515 0 0,0 0.7276292930631867,-0.3570445340467798 l 11.288657632439394 23.515059634622197" fill="#f1ff19" stroke="none" /><path d="M 90.91171255644093 81.06846463323043 l -13.578554394968892 -28.285073987194377 a52.3755087595116,52.3755087595116 0 0,0 0.8161146504943052,-0.3831767713098095 l 13.089661533174977 28.514615741144194" fill="#acff21" stroke="none" /><path d="M 92.91201910852362 80.23233633223022 l -15.237716485595621 -42.496454090939885 a66.14572642010265,66.14572642010265 0 0,0 1.0750822276898875,-0.37507507944810686 l 14.50395225384245 42.75245002356021" fill="#34ff5b" stroke="none" /><path d="M 93.94186890950719 79.89281104454417 l -18.17439327147842 -60.321566866367455 a84.0,84.0 0 0,0 1.3880391291063148,-0.4052066843252047 l 17.133363924648684 60.625471879611354" fill="#4dd2ff" stroke="none" /></svg>