<?xml version="1.0" encoding="utf-8" ?>
<svg baseProfile="full" height="200mm" version="1.1" viewBox="0,0,200,200" width="200mm" xmlns="http://www.w3.org/2000/svg" xmlns:ev="http://www.w3.org/2001/xml-events" xmlns:xlink="http://www.w3.org/1999/xlink"><defs /><rect fill="#1a1a1a" height="200" width="200" x="0" y="0" /><text alignment-baseline="middle" fill="#e1ed5e" style="dominant-baseline: central; font-size:9.0px; font-family:Arial;" text-anchor="middle" x="100.0" y="100.0">2025</text><line stroke="#e1ed5e" stroke-width="0.3" x1="100.0" x2="100.0" y1="15.0" y2="10.0" /><path d="M 100.0 14.0 a86.0,86.0 0 0,1 42.46469731375804,11.215312516191453" fill="none" id="id37" stroke="none" /><text fill="#e1ed5e" style="font-size:6.75px; font-family:Arial;" text-anchor="middle"><textPath startOffset="22.20632615414155" xlink:href="#id37">January</textPath></text><path d="M 100.72285384407766 79.0124445844662 l 0.9168711298201402 -26.62071150850226 a47.636496276492565,47.636496276492565 0 0,0 0.8192551115765125,0.03527884845339001 l -1.3749670737859843 26.600984933524675" fill="red" stroke="none" /><path d="M 101.44485096284872 79.0497635885617 l 2.1442640631399166 -31.091676724055414 a52.1655295139621,52.1655295139621 0 0,0 0.895284219711442,0.0694912862358574 l -2.6791384722136997 31.050160175631095" fill="red" stroke="none" /><path d="M 102.16513564639614 79.11191278185805 l 3.313960772753894 -31.971346356060845 a53.1426402746034,53.1426402746034 0 0,0 0.9090764690496486,0.1021453335590102 l -3.8638039453132675 31.90956506903123" fill="red" stroke="none" /><path d="M 102.88285421437855 79.19881850522331 l 1.8754319579012118 -13.53214475530352 a34.66148552344165,34.66148552344165 0 0,0 0.590286781314563,0.086992927345719 l -2.1080877196444305 13.497857343796833" fill="red" stroke="none" /><path d="M 105.01212808612495 79.60689891045804 l 7.212381765446958 -29.345385415487996 a51.21870440495567,51.21870440495567 0 0,0 0.8543550898154821,0.21779413540356912 l -7.716445743947466 29.216888283915562" fill="red" stroke="none" /><path d="M 105.71112130821622 79.79150937346287 l 8.692757141113876 -30.75884606972751 a52.96358300090242,52.96358300090242 0 0,0 0.875184828844302,0.25549045068782683 l -9.220932187681607 30.604657290120983" fill="red" stroke="none" /><path d="M 106.40334571778207 80.00007090966166 l 7.326225468911586 -22.882411216868373 a45.02661696367577,45.02661696367577 0 0,0 0.7361148123781359,0.24268548015830277 l -7.719023103532139 22.75291201245083" fill="red" stroke="none" /><path d="M 108.09893153111575 80.62456947434976 l 10.280098769168216 -24.593532953525425 a47.65562405647249,47.65562405647249 0 0,0 0.7541303765049711,0.3228792707610803 l -10.701912903463501 24.412934154801555" fill="red" stroke="none" /><line stroke="#e1ed5e" stroke-width="0.3" x1="143.23703022742887" x2="145.7803849466894" y1="26.81831364943548" y2="22.513508569990506" /><path d="M 143.74570117128098 25.957352633546492 a86.0,86.0 0 0,1 28.547481713284135,27.462654790039103" fill="none" id="id38" stroke="none" /><text fill="#e1ed5e" style="font-size:6.75px; font-family:Arial;" text-anchor="middle"><textPath startOffset="19.985693538727396" xlink:href="#id38">February</textPath></text><path d="M 113.34407831869373 83.78471172551755 l 18.219797078585156 -22.140102514083004 a49.67307351713319,49.67307351713319 0 0,0 0.6555484733975777,0.549002993905635 l -18.59820308894185 21.823198362783547" fill="red" stroke="none" /><path d="M 114.16331599549186 84.49514656593476 l 17.968756794543726 -19.670742401033976 a47.64234087593088,47.64234087593088 0 0,0 0.6007293457859528,0.558312457058823 l -18.304694024124526 19.35852535790051" fill="red" stroke="none" /><path d="M 114.94478906791727 85.2469230424477 l 24.643380031964952 -24.327254165552016 a55.62818901755067,55.62818901755067 0 0,0 0.6668382438664638,0.6872354270408835 l -25.058482539534523 23.899454542961017" fill="red" stroke="none" /><path d="M 115.4437574822437 85.77008943001954 l 20.836197484625142 -19.19851611018643 a49.332492768046144,49.332492768046144 0 0,0 0.5700401473538013,0.6294525682972902 l -21.163581272594982 18.837010754619588" fill="red" stroke="none" /><path d="M 116.60985879189232 87.15038557335679 l 29.511703295118863 -22.830658175184304 a58.31192281417884,58.31192281417884 0 0,0 0.6073438329169206,0.7991932920747978 l -29.900323068259897 22.319280107228472" fill="red" stroke="none" /><path d="M 117.04232023915458 87.72973835380427 l 34.59761617163673 -24.909859502892125 a63.63210228470705,63.63210228470705 0 0,0 0.6323436534365178,0.8944052534582038 l -35.02127244487713 24.310627749102128" fill="red" stroke="none" /><path d="M 117.65298651832404 88.62581576622439 l 31.300325768129568 -20.167447105584696 a58.23488036703747,58.23488036703747 0 0,0 0.5356843725157062,0.8473240324395281 l -31.64283773689123 19.625675425430963" fill="red" stroke="none" /><line stroke="#e1ed5e" stroke-width="0.3" x1="172.23445277983987" x2="176.4835382374775" y1="55.19839476539836" y2="52.563006222186495" /><path d="M 173.08426987136738 54.67131705675599 a86.0,86.0 0 0,1 12.851231095245387,41.99856678651699" fill="none" id="id39" stroke="none" /><text fill="#e1ed5e" style="font-size:6.75px; font-family:Arial;" text-anchor="middle"><textPath startOffset="22.20632615414155" xlink:href="#id39">March</textPath></text><path d="M 117.84615892207809 88.93136811851018 l 8.836912303952655 -5.480872925571274 a31.398605055198992,31.398605055198992 0 0,0 0.2809191355105808,0.46175719606611876 l -8.92994723774946 5.327947956298074" fill="red" stroke="none" /><path d="M 118.03404312379186 89.2402003453031 l 14.14756241651729 -8.440976666137557 a37.47433183493435,37.47433183493435 0 0,0 0.3257417491502806,0.5567982400372068 l -14.290763840137899 8.196199013746455" fill="red" stroke="none" /><path d="M 118.3937258080291 89.86733742301442 l 23.777921229717993 -13.098686754246602 a48.1471017365123,48.1471017365123 0 0,0 0.3936413054411309,0.7293575552291124 l -23.99987063437759 12.68744821568503" fill="red" stroke="none" /><path d="M 118.89224826269711 90.83032412892265 l 28.71145012221786 -13.935593463970067 a52.91470089650927,52.91470089650927 0 0,0 0.3906662285389543,0.8228427096127333 l -28.947074544598575 13.439308338716794" fill="red" stroke="none" /><path d="M 119.196687751892 91.48605970444005 l 24.32245319390482 -10.787273148934108 a47.60727327930101,47.60727327930101 0 0,0 0.32579083091875527,0.7519701557449292 l -24.504534734666255 10.367003848602575" fill="red" stroke="none" /><path d="M 119.47837535516314 92.15188598940014 l 25.661068719197495 -10.339208957112367 a48.665677104857,48.665677104857 0 0,0 0.3063769720303119,0.7796959756833133 l -25.835239241109505 9.895963976533269" fill="red" stroke="none" /><path d="M 119.7369772167798 92.82701384747503 l 31.44639741492585 -11.42852680664249 a54.458737802666754,54.458737802666754 0 0,0 0.31261109833799233,0.8837936716647373 l -31.638461594073654 10.885535508551138" fill="red" stroke="none" /><path d="M 120.28053869075195 94.5502522615342 l 28.257221036198207 -7.593226629013156 a50.25965876985097,50.25965876985097 0 0,0 0.2173219702499704,0.8374302025840915 l -28.383739338318478 7.105700000880214" fill="red" stroke="none" /><line stroke="#e1ed5e" stroke-width="0.3" x1="184.98032266829074" x2="189.97916517819016" y1="98.17113171792111" y2="98.06355123074" /><path d="M 185.9800911702706 98.14961562048488 a86.0,86.0 0 0,1 -9.607161424134198,41.387399972396054" fill="none" id="id40" stroke="none" /><text fill="#e1ed5e" style="font-size:6.75px; font-family:Arial;" text-anchor="middle"><textPath startOffset="21.466115282336823" xlink:href="#id40">April</textPath></text><path d="M 120.76222939487914 103.15116336523771 l 59.692700900598844 9.059790674331564 a81.37630617941991,81.37630617941991 0 0,0 -0.22211176698871396,1.38309018506096 l -59.527907379248845 -10.085960089085729" fill="red" stroke="none" /><path d="M 120.49622156327973 104.57218783832717 l 32.94493070886468 7.349179508844993 a54.754687065133965,54.754687065133965 0 0,0 -0.21312462539779664,0.9181353082240375 l -32.81354551753633 -7.915183474417596" fill="red" stroke="none" /><path d="M 120.23288151984713 105.62410040840565 l 12.991970214273309 3.6113563417258985 a34.48455355862732,34.48455355862732 0 0,0 -0.16389582661174618,0.5705428735479489 l -12.927881750775462 -3.8344566907784294" fill="red" stroke="none" /><path d="M 118.64920377521936 109.65438752849418 l 28.350105264183604 14.676385436772465 a52.923733459277564,52.923733459277564 0 0,0 -0.42577771539615467,0.8054109790080318 l -28.093275040562556 -15.162211430866632" fill="red" stroke="none" /><line stroke="#e1ed5e" stroke-width="0.3" x1="174.80103733775053" x2="179.2010983576182" y1="140.37084112569926" y2="142.7455964860345" /><path d="M 175.68104954172406 140.8457921977663 a86.0,86.0 0 0,1 -30.038265399797805,32.042727171017184" fill="none" id="id41" stroke="none" /><text fill="#e1ed5e" style="font-size:6.75px; font-family:Arial;" text-anchor="middle"><textPath startOffset="22.206326154141568" xlink:href="#id41">May</textPath></text><path d="M 117.55443506779139 111.5257021239791 l 16.899017773131536 11.09537528771344 a41.215938129896855,41.215938129896855 0 0,0 -0.3944893129377677,0.5897079978291121 l -16.70552535478305 -11.384620199748358" fill="red" stroke="none" /><path d="M 116.93607887273984 112.41649034213515 l 21.516937476678738 15.774893845206007 a47.68006510866906,47.68006510866906 0 0,0 -0.49096556585686363,0.6577286079113677 l -21.242210644126782 -16.14293533262669" fill="red" stroke="none" /><path d="M 116.498646956653 112.99209946851258 l 13.697782794332804 10.786518253867428 a38.434971451704044,38.434971451704044 0 0,0 -0.4137837426625396,0.5162588411304887 l -13.51008113961541 -11.020704928576167" fill="red" stroke="none" /><path d="M 116.0416608686014 113.55231037782055 l 20.31484620510674 17.16238133347971 a47.59399009875939,47.59399009875939 0 0,0 -0.5340895364850877,0.6212667918261638 l -20.016414159050875 -17.509525224467403" fill="red" stroke="none" /><path d="M 115.56566222782051 114.09645910891815 l 19.709293997468464 17.848984054426694 a47.59027080820774,47.59027080820774 0 0,0 -0.5551146561393725,0.6024673227631759 l -19.39913293333337 -18.185602631991205" fill="red" stroke="none" /><path d="M 115.07121518719521 114.62390073753431 l 7.656168671812803 7.428933187918142 a31.667987956582976,31.667987956582976 0 0,0 -0.38297059177155424,0.38794718753984747 l -7.527157454985713 -7.559620869438654" fill="red" stroke="none" /><path d="M 114.55890576462653 115.13401014063108 l 18.44926993669581 19.178051072189003 a47.61152389707432,47.61152389707432 0 0,0 -0.5955162475146262,0.5630977822751002 l -18.116417854790377 -19.492783491210023" fill="red" stroke="none" /><path d="M 113.75828350139079 115.86535959552629 l 17.11863207060482 19.74034432101937 a47.12907877980281,47.12907877980281 0 0,0 -0.6174684109258972,0.5262199754821448 l -16.776298183101876 -20.03208868672446" fill="red" stroke="none" /><path d="M 113.20401910651253 116.32954008644616 l 18.52968060679384 22.915837959401614 a50.47006434963018,50.47006434963018 0 0,0 -0.6802463598207599,0.5404288490576554 l -18.132476754255727 -23.231400722464397" fill="red" stroke="none" /><path d="M 112.92097659922987 116.55440617244103 l 11.627800111698688 14.897583357010975 a39.89824662016851,39.89824662016851 0 0,0 -0.5450314637527575,0.41790688507171986 l -11.369639919452437 -15.095529583910066" fill="red" stroke="none" /><path d="M 112.34349029814194 116.9893568818739 l 19.883917829033262 27.3678650080158 a54.82854154894536,54.82854154894536 0 0,0 -0.7683114967503146,0.5481698529958913 l -19.409879004434064 -27.70607912285591" fill="red" stroke="none" /><path d="M 111.45004920935366 117.60387380957326 l 15.065325645411246 23.16217919354408 a48.63060950822714,48.63060950822714 0 0,0 -0.7056491283193516,0.45037866032637464 l -14.664394715044963 -23.418072282694265" fill="red" stroke="none" /><path d="M 111.1453310114006 117.79835938074945 l 3.6438918621581644 5.819055247523706 a27.865810358350693,27.865810358350693 0 0,0 -0.4087261524339876,0.2510729857606284 l -3.5431865097918678 -5.880916700112713" fill="red" stroke="none" /><line stroke="#e1ed5e" stroke-width="0.3" x1="143.8653032363475" x2="146.44561519142675" y1="172.8068346515853" y2="177.08958963109032" /><path d="M 144.38136562736335 173.6633856474863 a86.0,86.0 0 0,1 -40.68145358897372,12.25698825130547" fill="none" id="id42" stroke="none" /><text fill="#e1ed5e" style="font-size:6.75px; font-family:Arial;" text-anchor="middle"><textPath startOffset="21.466115282336833" xlink:href="#id42">June</textPath></text><path d="M 110.5260780823613 118.17145234162733 l 17.35443302529899 29.95942554935342 a55.62287574533402,55.62287574533402 0 0,0 -0.8326247418064132,0.47278605856861283 l -16.836159516571378 -30.253714773716663" fill="red" stroke="none" /><path d="M 109.2508944713604 118.85261126421891 l 9.226864350190976 18.803639725905327 a41.945450405242426,41.945450405242426 0 0,0 -0.6509281391472862,0.31248506362857015 l -8.901823543043458 -18.959679066033456" fill="red" stroke="none" /><path d="M 108.2653958097858 119.30500536409082 l 10.478428682691233 24.473857826276273 a47.62268176872929,47.62268176872929 0 0,0 -0.7563582640543403,0.31615781571718576 l -10.05559895913943 -24.650600685013433" fill="red" stroke="none" /><path d="M 106.91757812671514 119.82793768551818 l 10.540801950259823 30.213227866265765 a52.99918192475394,52.99918192475394 0 0,0 -0.8639630524956909,0.29310317550399567 l -10.019169164826906 -30.39019402866788" fill="red" stroke="none" /><path d="M 105.88484417918355 120.15858648285463 l 7.4737436702259 25.60137593105114 a47.66996989145744,47.66996989145744 0 0,0 -0.7896617496490436,0.22316629816884037 l -7.031950752472251 -25.7262310225585" fill="red" stroke="none" /><path d="M 104.83641907484287 120.43548508189849 l 6.25054068051143 26.410620927124896 a48.14019448263066,48.14019448263066 0 0,0 -0.8080213599731534,0.1839030308381984 l -5.794999171145415 -26.51430069154078" fill="red" stroke="none" /><path d="M 104.13013068566511 120.58985236759428 l 4.191192151723173 20.89426079124249 a42.31047220652605,42.31047220652605 0 0,0 -0.7153137083847879,0.13709157467291924 l -3.83091082876668 -20.96330956426388" fill="red" stroke="none" /><path d="M 103.06178313531738 120.77559828337769 l 4.665067691311007 31.65461694575414 a52.99652528864562,52.99652528864562 0 0,0 -0.903644784395624,0.12523693308720546 l -4.119494315728552 -31.730228444333946" fill="red" stroke="none" /><path d="M 101.62511606390274 120.93702456842531 l 1.483644304268387 19.114386928569992 a40.17188013932581,40.17188013932581 0 0,0 -0.6898798070364847,0.04757815061706657 l -1.154401736452972 -19.137093423703345" fill="red" stroke="none" /><line stroke="#e1ed5e" stroke-width="0.3" x1="102.19456741930631" x2="102.32365962044197" y1="184.97166512339345" y2="189.96999836594603" /><path d="M 102.22038585953345 185.97133177190398 a86.0,86.0 0 0,1 -42.740103519485714,-10.115201625700543" fill="none" id="id43" stroke="none" /><text fill="#e1ed5e" style="font-size:6.75px; font-family:Arial;" text-anchor="middle"><textPath startOffset="22.20632615414155" xlink:href="#id43">July</textPath></text><path d="M 96.22490169976321 120.6578951692458 l -1.594811960404832 8.727046469395482 a29.871570620134772,29.871570620134772 0 0,0 -0.5050178558931676,-0.09678787403455034 l 1.7447974308696947 -8.698301397012465" fill="red" stroke="none" /><path d="M 95.86986931433489 120.58985236759428 l -2.099357991625571 10.465884593997746 a31.67436388324295,31.67436388324295 0 0,0 -0.5336504950325716,-0.11183164982065301 l 2.2791999480875296 -10.428196963450553" fill="red" stroke="none" /><path d="M 95.51606077576429 120.51570834832081 l -2.6533563158721334 12.140103065265386 a33.42668106029299,33.42668106029299 0 0,0 -0.5610586450678334,-0.1276951209673132 l 2.8619351103328294 -12.092631210720386" fill="red" stroke="none" /><path d="M 94.46302465271185 120.25689768951611 l -3.6167720405732804 13.231877802757099 a34.717274881716435,34.717274881716435 0 0,0 -0.5750979933187488,-0.162528437410466 l 3.8440012019966434 -13.167660572008112" fill="red" stroke="none" /><path d="M 93.76903079525671 120.05430185196036 l -7.892984900304737 25.403480020922 a47.6014286798627,47.6014286798627 0 0,0 -0.7803883732215554,-0.2498557132529651 l 8.329094618617233 -25.263851461009327" fill="red" stroke="none" /><path d="M 93.08242187328487 119.8279376855182 l -5.656240707788228 16.21255101625755 a38.170901822536706,38.170901822536706 0 0,0 -0.6185148211110647,-0.22177740914714572 l 5.93447508952902 -16.112786066070445" fill="red" stroke="none" /><path d="M 91.07499286063937 119.00905698771935 l -7.110890727542138 15.145234615798522 a37.731494210220035,37.731494210220035 0 0,0 -0.5855340943110915,-0.2810919481176403 l 7.370537489853472 -15.02058839118132" fill="red" stroke="none" /><path d="M 90.10565033884886 118.52300852407294 l -8.834994768738035 16.539812015541283 a39.75160030698906,39.75160030698906 0 0,0 -0.6007738632930416,-0.3275898114587533 l 9.118391443899718 -16.385281552322763" fill="red" stroke="none" /><line stroke="#e1ed5e" stroke-width="0.3" x1="58.666819895761336" x2="56.23545636021788" y1="174.27360380694188" y2="178.64263932499728" /><path d="M 58.180547188652646 175.14741091055294 a86.0,86.0 0 0,1 -31.652253787137756,-30.449443065178592" fill="none" id="id44" stroke="none" /><text fill="#e1ed5e" style="font-size:6.75px; font-family:Arial;" text-anchor="middle"><textPath startOffset="22.20632615414155" xlink:href="#id44">August</textPath></text><path d="M 89.7882731507175 118.34994917583269 l -6.089004056397614 10.941627857406509 a33.52178863297096,33.52178863297096 0 0,0 -0.5017912186562419,-0.28493014989937 l 6.276444041975063 -10.835194541712506" fill="red" stroke="none" /><path d="M 89.1626897886671 117.98757091392108 l -12.142858271640055 20.154495903458557 a44.52982601141932,44.52982601141932 0 0,0 -0.6531482207101176,-0.40121698340410555 l 12.487985692282482 -19.942490453226075" fill="red" stroke="none" /><path d="M 88.54995079064634 117.60387380957326 l -10.230214497556053 15.728439395066093 a39.76275817864402,39.76275817864402 0 0,0 -0.5705488136719027,-0.37812864262583684 l 10.499438009967918 -15.550012731348938" fill="red" stroke="none" /><path d="M 87.65650970185807 116.9893568818739 l -11.186187233780124 15.396465867580416 a40.03107842558467,40.03107842558467 0 0,0 -0.5539825257537172,-0.40982302870089843 l 11.449554729952405 -15.201632890139752" fill="red" stroke="none" /><path d="M 85.18274418774928 114.88116024355367 l -15.120296567112439 15.185507964249426 a42.42948950417893,42.42948950417893 0 0,0 -0.5131126968425759,-0.5197804528808403 l 15.379449889010546 -14.922987017387921" fill="red" stroke="none" /><path d="M 84.67929136418377 114.36230785411682 l -14.271513182266645 13.37874577084664 a40.561874320027655,40.561874320027655 0 0,0 -0.47313222919602727,-0.5134915900421397 l 14.4996918194584 -13.131102926003155" fill="red" stroke="none" /><path d="M 83.95833913139862 113.55231037782056 l -22.28536842851025 18.827117235622374 a50.173583759941295,50.173583759941295 0 0,0 -0.5516800566593879,-0.66453416728988 l 22.606144485063172 -18.440721811218733" fill="red" stroke="none" /><path d="M 83.50135304334701 112.99209946851258 l -17.6342151631558 13.886319166099101 a43.44538715200175,43.44538715200175 0 0,0 -0.457610641016405,-0.5915234400488886 l 17.870632621390275 -13.58071773193696" fill="red" stroke="none" /><path d="M 83.06392112726016 112.41649034213515 l -18.7290855783382 13.731012470352184 a44.22325020451881,44.22325020451881 0 0,0 -0.4448020995249487,-0.6177912127491381 l 18.962667470238756 -13.406587652151908" fill="red" stroke="none" /><path d="M 82.6465618267979 111.8261652097733 l -18.152242818092816 12.370541235234354 a42.966661325281905,42.966661325281905 0 0,0 -0.41124597605954927,-0.6147569356222674 l 18.362491899563096 -12.056247385406266" fill="red" stroke="none" /><path d="M 82.05923443525364 110.91462005526583 l -21.23777142331063 12.920418867827438 a45.85920672002429,45.85920672002429 0 0,0 -0.4044762909455552,-0.6779255290575392 l 21.457028589954415 -12.552931244883787" fill="red" stroke="none" /><line stroke="#e1ed5e" stroke-width="0.3" x1="26.63291911575756" x2="22.317208475507996" y1="142.92168965132927" y2="145.44649492493687" /><path d="M 25.769776987707644 143.4266507060508 a86.0,86.0 0 0,1 -11.730757126820373,-40.83630448921669" fill="none" id="id45" stroke="none" /><text fill="#e1ed5e" style="font-size:6.75px; font-family:Arial;" text-anchor="middle"><textPath startOffset="21.46611528233685" xlink:href="#id45">September</textPath></text><path d="M 81.69416730710424 110.29060199501025 l -18.007711205095355 10.123013356537395 a41.658002378321854,41.658002378321854 0 0,0 -0.3460065880906743,-0.6281024617919202 l 18.179294202637546 -9.811540376347653" fill="red" stroke="none" /><path d="M 81.18737489456691 109.33194174019688 l -25.59507695290889 12.696355007437068 a49.57105869057358,49.57105869057358 0 0,0 -0.3726014371651273,-0.7676693214603608 l 25.809831646688735 -12.253896730011423" fill="red" stroke="none" /><path d="M 80.87730276802145 108.67885076344099 l -19.330421161394572 8.773126427670121 a42.22811648716802,42.22811648716802 0 0,0 -0.29470985458097626,-0.6644929209507091 l 19.478572100706828 -8.439085170226715" fill="red" stroke="none" /><path d="M 80.58989483394504 108.01547362559985 l -7.141097044461254 2.948942034473372 a28.726029130225772,28.726029130225772 0 0,0 -0.18480054467902982,-0.4586597965109852 l 7.190800203397671 -2.825582870119581" fill="red" stroke="none" /><path d="M 80.45479744820244 107.68017299344265 l -21.99224720758553 8.641724874489926 a44.62918420187061,44.62918420187061 0 0,0 -0.2748004197322315,-0.7174171818101648 l 22.13774190691127 -8.261884125846603" fill="red" stroke="none" /><path d="M 79.97269907076064 106.31721596034903 l -18.048234505004952 5.692958600561141 a39.92481298125174,39.92481298125174 0 0,0 -0.20109411076743525,-0.6571871892153615 l 18.143555388278518 -5.381444438793732" fill="red" stroke="none" /><path d="M 79.67330655649465 105.27499134158121 l -27.409690070043965 7.113103673096599 a49.31761560583954,49.31761560583954 0 0,0 -0.20616803124467448,-0.8235388009651742 l 27.528069415583698 -6.640237032734032" fill="red" stroke="none" /><path d="M 79.50377843672027 104.57218783832718 l -18.834342401348305 4.201464694576366 a40.297273363638666,40.297273363638666 0 0,0 -0.14519675837350993,-0.6783109166312091 l 18.903873198446256 -3.876639958528993" fill="red" stroke="none" /><path d="M 79.35854240842038 103.8639653848113 l -21.54878971298632 4.0338128819702685 a42.9230924931054,42.9230924931054 0 0,0 -0.1296963297376952,-0.7274058942304842 l 21.615032485063207 -3.6622882370065706" fill="red" stroke="none" /><path d="M 79.1416061653843 102.43462659150553 l -25.00030781725923 2.9180777144360777 a46.17003314469811,46.17003314469811 0 0,0 -0.08534354410939679,-0.7901752252812391 l 25.046833662869677 -2.4873061672700567" fill="red" stroke="none" /><path d="M 79.07016306316243 101.71520430193888 l -23.666208665125744 1.9394505096005903 a44.74554486341518,44.74554486341518 0 0,0 -0.056301489510990566,-0.7681890926357408 l 23.69608671330107 -1.531788280468089" fill="red" stroke="none" /><line stroke="#e1ed5e" stroke-width="0.3" x1="15.007084014347285" x2="10.007500721073583" y1="101.09737516637583" y2="101.16192664675087" /><path d="M 14.007167355692545 101.11028546245083 a86.0,86.0 0 0,1 10.666146001902534,-42.60595125391555" fill="none" id="id46" stroke="none" /><text fill="#e1ed5e" style="font-size:6.75px; font-family:Arial;" text-anchor="middle"><textPath startOffset="22.20632615414155" xlink:href="#id46">October</textPath></text><path d="M 79.12142395522702 97.74499172005258 l -19.572377420319068 -2.1139311917837924 a40.68620488989719,40.68620488989719 0 0,0 0.08119735640758313,-0.6956493633102483 l 19.533089710907895 2.450524293418902" fill="red" stroke="none" /><path d="M 79.21141760316559 97.0276538004421 l -39.27373144546724 -5.615348087523666 a60.67314098725658,60.67314098725658 0 0,0 0.15672192024214218,-1.032601640133583 l 39.171253631785795 6.290548840049341" fill="red" stroke="none" /><path d="M 79.32604984820605 96.31383870115002 l -14.269037610987176 -2.5441666361419406 a35.49407527979017,35.49407527979017 0 0,0 0.11242203441543423,-0.6005630031953912 l 14.22312985266188 2.7894077167999045" fill="red" stroke="none" /><path d="M 79.54389044137918 95.25157060432595 l -23.246480863586914 -5.396151832405054 a44.86456216106805,44.86456216106805 0 0,0 0.18109730009134986,-0.7507652246921105 l 23.15015076323475 5.795502288756562" fill="red" stroke="none" /><path d="M 79.91906864156998 93.8553929516997 l -14.677738047592204 -4.491272394219858 a36.34951210667027,36.34951210667027 0 0,0 0.18822905282388933,-0.5967375356788385 l 14.59825351100011 4.743260096325111" fill="red" stroke="none" /><path d="M 80.2630227832202 92.82701384747504 l -22.80128479269381 -8.286643809809048 a45.26040094120822,45.26040094120822 0 0,0 0.2724146191212064,-0.7299357432172686 l 22.655265585070975 8.677902690055658" fill="red" stroke="none" /><path d="M 80.52162464483688 92.15188598940014 l -21.791382119048865 -8.780057278930606 a44.493695760346114,44.493695760346114 0 0,0 0.2923411945338668,-0.7079273908593013 l 21.6370192376288 9.153859240243218" fill="red" stroke="none" /><path d="M 80.65960295795068 91.81776055985345 l -24.514321476976964 -10.371144273887072 a47.617899823734305,47.617899823734305 0 0,0 0.325863551545295,-0.752138004977252 l 24.33216721558899 10.791581423450925" fill="red" stroke="none" /><path d="M 81.10775173730289 90.83032412892265 l -6.195336879999761 -3.007012734101089 a27.886532119995614,27.886532119995614 0 0,0 0.2133186742157302,-0.430037430336967 l 6.142658192830619 3.1132097529370175" fill="red" stroke="none" /><path d="M 81.6062741919709 89.86733742301443 l -29.318330918712448 -16.150765626289825 a54.47255231043004,54.47255231043004 0 0,0 0.4594950667186206,-0.817390451855074 l 29.035978210701398 16.653039588079686" fill="red" stroke="none" /><line stroke="#e1ed5e" stroke-width="0.3" x1="26.266209847984243" x2="21.928928074336255" y1="57.711370442889674" y2="55.22380399835377" /><path d="M 25.398753493254645 57.213857153982495 a86.0,86.0 0 0,1 29.58750427330803,-30.492523968695096" fill="none" id="id47" stroke="none" /><text fill="#e1ed5e" style="font-size:6.75px; font-family:Arial;" text-anchor="middle"><textPath startOffset="21.46611528233685" xlink:href="#id47">November</textPath></text><path d="M 81.96595687620814 89.24020034530311 l -39.854184327894686 -23.778530184602477 a67.40877617629943,67.40877617629943 0 0,0 0.6030973381136712,-0.9913334500910695 l 39.438971191494794 24.46103140790062" fill="red" stroke="none" /><path d="M 82.34701348167596 88.62581576622439 l -14.326535043857989 -9.230882766003141 a38.04285196211552,38.04285196211552 0 0,0 0.3594204680887745,-0.5474220313201466 l 14.165517940411295 9.476122861300954" fill="red" stroke="none" /><path d="M 83.17141714833178 87.43820079747576 l -25.583715138406607 -19.0971215613313 a52.92532744094256,52.92532744094256 0 0,0 0.5512401182310158,-0.7253673799516637 l 25.25119907995148 19.53467371716399" fill="red" stroke="none" /><path d="M 83.39014120810768 87.1503855733568 l -49.82957637567698 -38.54884327992962 a84.0,84.0 0 0,0 0.8945836776241158,-1.1360304241878092 l 49.15863861745889 39.40086609807048" fill="red" stroke="none" /><path d="M 83.84228863543731 86.58626213691792 l -14.103980958516315 -11.708780973669741 a39.33078914743065,39.33078914743065 0 0,0 0.43692646053673184,-0.5171831155755843 l 13.90034388449246 11.94982303887444" fill="red" stroke="none" /><path d="M 84.5562425177563 85.77008943001954 l -25.230929933608337 -23.247831815896177 a55.30833003010854,55.30833003010854 0 0,0 0.6511441214612185,-0.6945951490638941 l 24.827018490176663 23.67869638183812" fill="red" stroke="none" /><path d="M 85.05521093208273 85.24692304244772 l -41.12196014632264 -40.59444666144379 a78.78342933769639,78.78342933769639 0 0,0 0.9610235303031437,-0.9568965898517499 l 40.41710081585218 41.29627910194564" fill="red" stroke="none" /><path d="M 85.57189188830299 84.74124197986013 l -10.568192808535693 -11.176621046032732 a36.381923067191806,36.381923067191806 0 0,0 0.45874506669402176,-0.42635354364861416 l 10.374239858046815 11.356879175755994" fill="red" stroke="none" /><path d="M 86.37877921826538 84.01681056812374 l -35.91023006507115 -42.13719305115017 a76.36323384301389,76.36323384301389 0 0,0 1.0077854625247757,-0.8439913425061515 l 35.17958706558726 42.749085551050136" fill="red" stroke="none" /><path d="M 88.70189139769569 82.29822771554957 l -14.36630484754302 -22.508993844185127 a47.702912179200645,47.702912179200645 0 0,0 0.695964698465523,-0.4358130303311883 l 13.976720996705255 22.752951215839246" fill="red" stroke="none" /><line stroke="#e1ed5e" stroke-width="0.3" x1="56.762969772571076" x2="54.21961505331055" y1="26.818313649435495" y2="22.513508569990535" /><path d="M 56.25429882871897 25.957352633546506 a86.0,86.0 0 0,1 42.265352541879196,-11.944610805530505" fill="none" id="id48" stroke="none" /><text fill="#e1ed5e" style="font-size:6.75px; font-family:Arial;" text-anchor="middle"><textPath startOffset="22.20632615414155" xlink:href="#id48">December</textPath></text></svg>