<?xml version="1.0" encoding="utf-8" ?>
<svg baseProfile="full" height="200mm" version="1.1" viewBox="0,0,200,200" width="200mm" xmlns="http://www.w3.org/2000/svg" xmlns:ev="http://www.w3.org/2001/xml-events" xmlns:xlink="http://www.w3.org/1999/xlink"><defs /><rect fill="#1a1a1a" height="200" width="200" x="0" y="0" /><text alignment-baseline="middle" fill="#e1ed5e" style="dominant-baseline: central; font-size:9.0px; font-family:Arial;" text-anchor="middle" x="100.0" y="100.0">2023</text><line stroke="#e1ed5e" stroke-width="0.3" x1="100.0" x2="100.0" y1="15.0" y2="10.0" /><path d="M 100.0 14.0 a86.0,86.0 0 0,1 42.46469731375804,11.215312516191453" fill="none" id="id13" stroke="none" /><text fill="#e1ed5e" style="font-size:6.75px; font-family:Arial;" text-anchor="middle"><textPath startOffset="22.20632615414155" xlink:href="#id13">January</textPath></text><path d="M 102.16513564639614 79.11191278185805 l 1.9021924015621337 -18.351349420371225 a39.44967103991613,39.44967103991613 0 0,0 0.6748397796726665,0.07582611225831742 l -2.2177988847445254 18.315887354642307" fill="#ff6609" stroke="none" /><path d="M 102.88285421437855 79.19881850522331 l 3.240756610489455 -23.3836196429794 a44.60712119289354,44.60712119289354 0 0,0 0.7596614396360492,0.1119543491697918 l -3.6427870305541603 23.32437080964864" fill="#ffba11" stroke="none" /><path d="M 105.01212808612495 79.60689891045804 l 6.211094506568704 -25.271396894224665 a47.02347394094332,47.02347394094332 0 0,0 0.7843764259363715,0.1999550158408361 l -6.6451798211901005 25.16073888221496" fill="#ffe015" stroke="none" /><path d="M 106.74666289553966 80.11325718540242 l 9.092354028221653 -26.8009990921669 a49.30131541311904,49.30131541311904 0 0,0 0.8013060082785823,0.2795599322324816 l -9.55234204056351 26.64051830676221" fill="#fcff18" stroke="none" /><path d="M 110.36928655335952 81.73862282372117 l 14.120344844921155 -24.867375565842295 a49.59668697720318,49.59668697720318 0 0,0 0.7387621783506406,0.4279387374998232 l -14.546303755737123 24.62063267095242" fill="#f8ff18" stroke="none" /><line stroke="#e1ed5e" stroke-width="0.3" x1="143.23703022742887" x2="145.7803849466894" y1="26.81831364943548" y2="22.513508569990506" /><path d="M 143.74570117128098 25.957352633546492 a86.0,86.0 0 0,1 28.547481713284135,27.462654790039103" fill="none" id="id14" stroke="none" /><text fill="#e1ed5e" style="font-size:6.75px; font-family:Arial;" text-anchor="middle"><textPath startOffset="19.985693538727396" xlink:href="#id14">February</textPath></text><path d="M 111.90073688211348 82.69761687909136 l 25.414025559032947 -36.94924198583418 a65.84550343616304,65.84550343616304 0 0,0 0.9283239602802661,0.6503502594523608 l -26.046280658896865 36.50630688361788" fill="#31ff42" stroke="none" /><path d="M 113.34407831869373 83.78471172551755 l 23.734838921399554 -28.841801289470784 a58.35227008156401,58.35227008156401 0 0,0 0.7700900883062597,0.6449283023511556 l -24.22778654666493 28.428971829725807" fill="#7dff26" stroke="none" /><path d="M 113.89432698308785 84.25364557470405 l 12.142568727373806 -13.761097680187927 a39.352378174576444,39.352378174576444 0 0,0 0.5040646352823064,0.45255420649741757 l -12.377644350252103 13.550044464921214" fill="#ff6409" stroke="none" /><path d="M 115.19652480421416 85.50635884689758 l 22.724245143158935 -21.673182442918907 a52.40251828325924,52.40251828325924 0 0,0 0.6169340443172363,0.6581022239953443 l -23.093946509446635 21.278810802045506" fill="#cfff1d" stroke="none" /><path d="M 116.38621287248628 86.86637796730983 l 24.64313400712122 -19.751580811811806 a52.58178269601744,52.58178269601744 0 0,0 0.559985768336153,0.7111250583417841 l -24.979473856051335 19.324463359516987" fill="#ccff1d" stroke="none" /><line stroke="#e1ed5e" stroke-width="0.3" x1="172.23445277983987" x2="176.4835382374775" y1="55.19839476539836" y2="52.563006222186495" /><path d="M 173.08426987136738 54.67131705675599 a86.0,86.0 0 0,1 12.851231095245387,41.99856678651699" fill="none" id="id15" stroke="none" /><text fill="#e1ed5e" style="font-size:6.75px; font-family:Arial;" text-anchor="middle"><textPath startOffset="22.20632615414155" xlink:href="#id15">March</textPath></text><path d="M 118.21658344932153 89.55222093294921 l 27.253257067950607 -15.630593381883216 a52.417438951664586,52.417438951664586 0 0,0 0.44215946539560774,0.7865523514598011 l -27.51827417463865 15.159157520488622" fill="#ceff1d" stroke="none" /><path d="M 118.56541770881063 90.18545643968196 l 28.02717894486321 -14.816470759860481 a52.70253247589511,52.70253247589511 0 0,0 0.4170792260031612,0.8056643109867798 l -28.278067604026486 14.331833726613356" fill="#caff1d" stroke="none" /><path d="M 119.34039704204932 91.81776055985345 l 20.10348461821151 -8.505074863244896 a42.828568258684925,42.828568258684925 0 0,0 0.28140064768631884,0.6814339888715776 l -20.246906952784027 8.157766303920017" fill="#ff9e0e" stroke="none" /><path d="M 119.61058180528143 92.48833698450437 l 35.41195060667264 -13.564240078132842 a58.920902608807296,58.920902608807296 0 0,0 0.3546348443378981,0.9502450694738586 l -35.64019003951216 12.95267187162965" fill="#76ff27" stroke="none" /><path d="M 119.85752413597 93.16781622104841 l 33.33757991944726 -11.47013450395706 a56.25561260883718,56.25561260883718 0 0,0 0.30716289439315264,0.9183779578043809 l -33.53008010761218 10.894583443230367" fill="#99ff23" stroke="none" /><path d="M 120.28053869075195 94.5502522615342 l 42.385873648052026 -11.389851254873346 a64.88953174182622,64.88953174182622 0 0,0 0.2805813097798213,1.0811942429012535 l -42.57565128970215 10.658560586423242" fill="#30ff34" stroke="none" /><path d="M 120.67395015179393 96.31383870115 l 30.83480412974866 -5.497839590700409 a52.32110128787042,52.32110128787042 0 0,0 0.15045590047554078,0.8879992414268365 l -30.924871891744427 4.9662545609577355" fill="#d0ff1d" stroke="none" /><path d="M 120.83666639777658 97.38593545837742 l 34.7917075153838 -4.3647945992058155 a56.06443131906276,56.06443131906276 0 0,0 0.1118876440779264,0.9585850058269392 l -34.861685512465314 3.765265855054023" fill="#9cff22" stroke="none" /><path d="M 120.91429891909075 98.10471618934814 l 31.523937288908915 -2.8567444800713 a52.65311376815052,52.65311376815052 0 0,0 0.07402906488169105,0.9033421003019348 l -31.5684408376101 2.313688462561596" fill="#cbff1d" stroke="none" /><path d="M 120.96714384426684 98.82574320788733 l 32.643682718523706 -1.828196841520631 a53.694836367827094,53.694836367827094 0 0,0 0.043739281273635786,0.9232670973389424 l -32.67031560803083 1.2660186375586888" fill="#bcff1f" stroke="none" /><line stroke="#e1ed5e" stroke-width="0.3" x1="184.98032266829074" x2="189.97916517819016" y1="98.17113171792111" y2="98.06355123074" /><path d="M 185.9800911702706 98.14961562048488 a86.0,86.0 0 0,1 -9.607161424134198,41.387399972396054" fill="none" id="id16" stroke="none" /><text fill="#e1ed5e" style="font-size:6.75px; font-family:Arial;" text-anchor="middle"><textPath startOffset="21.466115282336823" xlink:href="#id16">April</textPath></text><path d="M 120.9904718944345 100.63252640178507 l 37.87075228404517 1.1411963864172179 a58.88794277539867,58.88794277539867 0 0,0 -0.0392526476017133,1.0129364193814845 l -37.845497503592256 -1.7929100528127084" fill="#76ff27" stroke="none" /><path d="M 120.92983693683757 101.71520430193887 l 43.67913235035003 3.5795135881071816 a64.82555784478777,64.82555784478777 0 0,0 -0.10071238077380985,1.1113527296116568 l -43.61104537329915 -4.330847706267409" fill="#30ff33" stroke="none" /><path d="M 120.5718875245553 104.21870165774334 l 16.91948438153967 3.4696989628863384 a38.27158830652871,38.27158830652871 0 0,0 -0.1378979294645647,0.6442132178738877 l -16.85725241335066 -3.760426000176395" fill="#ff5207" stroke="none" /><path d="M 120.49622156327973 104.57218783832717 l 30.66796791868763 6.841246788395559 a52.4217586058035,52.4217586058035 0 0,0 -0.20404404196969284,0.879016392476716 l -30.545663310787383 -7.36813183822084" fill="#ceff1d" stroke="none" /><path d="M 120.32669344350535 105.2749913415812 l 39.38854371498691 10.221742539263584 a61.693259841482664,61.693259841482664 0 0,0 -0.2755982563083844,1.0256036367913541 l -39.20675738233675 -10.898237109230486" fill="#53ff2b" stroke="none" /><path d="M 120.02730092923936 106.31721596034902 l 30.167761822889315 9.51582378219162 a52.63296944101678,52.63296944101678 0 0,0 -0.2799766923136498,0.8616796567265075 l -29.99949287955942 -10.033702338895923" fill="#cbff1d" stroke="none" /><path d="M 119.26925614724726 108.34839909993367 l 40.33454404476154 17.47492838469668 a64.95734938948306,64.95734938948306 0 0,0 -0.4533370792978262,1.0221554363228749 l -40.027765880732446 -18.166632157512243" fill="#30ff35" stroke="none" /><line stroke="#e1ed5e" stroke-width="0.3" x1="174.80103733775053" x2="179.2010983576182" y1="140.37084112569926" y2="142.7455964860345" /><path d="M 175.68104954172406 140.8457921977663 a86.0,86.0 0 0,1 -30.038265399797805,32.042727171017184" fill="none" id="id17" stroke="none" /><text fill="#e1ed5e" style="font-size:6.75px; font-family:Arial;" text-anchor="middle"><textPath startOffset="22.206326154141568" xlink:href="#id17">May</textPath></text><path d="M 117.94076556474637 110.91462005526583 l 32.93360231368427 20.035809230539318 a59.54939445540584,59.54939445540584 0 0,0 -0.5402983490531192,0.8711329734132025 l -32.58383932496319 -20.59973853531779" fill="#6eff28" stroke="none" /><path d="M 117.55443506779139 111.5257021239791 l 31.539942538711035 20.70815616137836 a58.730567275741116,58.730567275741116 0 0,0 -0.5621267447566997,0.8403032130529826 l -31.178812688543616 -21.24799628863715" fill="#78ff26" stroke="none" /><path d="M 116.93607887273984 112.41649034213513 l 38.832075511984804 28.46928702816205 a69.1500819569434,69.1500819569434 0 0,0 -0.7120441014428653,0.9538994344667526 l -38.33627014384685 -29.13349934213812" fill="#36ff71" stroke="none" /><path d="M 116.27256486870786 113.27417163493432 l 29.107080977714176 23.743791578493198 a58.56314419169587,58.56314419169587 0 0,0 -0.6439268691749418,0.7756513954734962 l -28.69405810864569 -24.241304231080463" fill="#7aff26" stroke="none" /><path d="M 115.80600337817218 113.82643327865902 l 29.75221209083856 26.025995662798756 a60.52905987420217,60.52905987420217 0 0,0 -0.6927439942795475,0.7783052213017326 l -29.29980924691068 -26.534275053841352" fill="#61ff29" stroke="none" /><path d="M 115.07121518719521 114.62390073753431 l 22.628696767339594 21.957075871791268 a52.53047887723565,52.53047887723565 0 0,0 -0.6352670276760075,0.6435221450912749 l -22.24738911460805 -22.343338510863205" fill="#cdff1d" stroke="none" /><path d="M 114.55890576462653 115.13401014063108 l 23.68841725018636 24.624154636048427 a55.16855430595436,55.16855430595436 0 0,0 -0.6900382040304247,0.6524741919238435 l -23.26104321176513 -25.028263464718194" fill="#a8ff21" stroke="none" /><path d="M 114.0293411484842 115.62618273729858 l 42.088023445452606 46.878548211895726 a84.0,84.0 0 0,0 -1.0842305883736492,0.9567074329108447 l -41.27485050417237 -47.59607878657886" fill="#4dd2ff" stroke="none" /><path d="M 113.20401910651253 116.32954008644616 l 16.857072497618727 20.847307086538933 a47.80990686202453,47.80990686202453 0 0,0 -0.6443921862465403,0.5119441251353775 l -16.495722818654837 -21.134385125679437" fill="#ffec16" stroke="none" /><path d="M 112.63410532772338 116.77436683061366 l 23.371176718471926 31.03003191515972 a59.84681173354996,59.84681173354996 0 0,0 -0.8282087124904874,0.6126890058265381 l -22.833583035562874 -31.42773086972603" fill="#6aff28" stroke="none" /><path d="M 111.45004920935366 117.60387380957326 l 13.293103210038966 20.43747648315728 a45.38025918550406,45.38025918550406 0 0,0 -0.658485276269049,0.4202764584674453 l -12.939336131722987 -20.663267370448533" fill="#ffc612" stroke="none" /><line stroke="#e1ed5e" stroke-width="0.3" x1="143.8653032363475" x2="146.44561519142675" y1="172.8068346515853" y2="177.08958963109032" /><path d="M 144.38136562736335 173.6633856474863 a86.0,86.0 0 0,1 -40.68145358897372,12.25698825130547" fill="none" id="id18" stroke="none" /><text fill="#e1ed5e" style="font-size:6.75px; font-family:Arial;" text-anchor="middle"><textPath startOffset="21.466115282336833" xlink:href="#id18">June</textPath></text><path d="M 110.8373102113329 117.98757091392108 l 21.285238910701725 35.32885345716327 a62.24547589837421,62.24547589837421 0 0,0 -0.922513903938216,0.545037475068955 l -20.673957135735126 -35.690009504525975" fill="#4cff2c" stroke="none" /><path d="M 109.89434966115114 118.52300852407294 l 23.702419859230055 44.37281277995531 a71.30657234584949,71.30657234584949 0 0,0 -1.0876258967632475,0.5689944648121232 l -22.935103059940314 -44.774236663712145" fill="#3aff8f" stroke="none" /><path d="M 108.92500713936063 119.00905698771935 l 11.769120537321733 25.066633504711557 a48.69202617147283,48.69202617147283 0 0,0 -0.7617566165837731,0.3496851008709455 l -11.33589592497054 -25.265505675916575" fill="#fff917" stroke="none" /><path d="M 106.2309692047433 120.05430185196036 l 12.34711630682914 39.7390501031395 a62.61301940732248,62.61301940732248 0 0,0 -1.0319968067968037,0.3109321722889841 l -11.661244525592089 -39.945697644534214" fill="#47ff2c" stroke="none" /><path d="M 104.48393922423573 120.51570834832081 l 5.775319041489681 26.42425669672214 a48.04802491874884,48.04802491874884 0 0,0 -0.8095143560813025,0.16964160407749254 l -5.319613223979 -26.519754281526172" fill="#ffef16" stroke="none" /><path d="M 104.13013068566511 120.58985236759428 l 7.370414448790127 36.74356986215657 a58.475497800057504,58.475497800057504 0 0,0 -0.988604546336262,0.1894684142039953 l -6.736842287882161 -36.86499547470903" fill="#7cff26" stroke="none" /><path d="M 102.70371172650421 120.8252237178851 l 4.091254708786341 31.512714081944033 a52.7771854307854,52.7771854307854 0 0,0 -0.9019183114114812,0.10920974705994724 l -3.5482089743234795 -31.57846935772933" fill="#c9ff1d" stroke="none" /><path d="M 101.98527174616119 120.90594882070398 l 2.9567564157384716 31.136190006351786 a52.276264748426264,52.276264748426264 0 0,0 -0.8965520855425352,0.07735828643504265 l -2.4203600124543945 -31.182472545065494" fill="#d0ff1d" stroke="none" /><path d="M 101.26447882468166 120.96189622390904 l 2.291235630323173 37.98295595772316 a59.052,59.052 0 0,0 -1.0151655516212954,0.05247246338468827 l -1.637082010288398 -38.01676822787005" fill="#74ff27" stroke="none" /><line stroke="#e1ed5e" stroke-width="0.3" x1="102.19456741930631" x2="102.32365962044197" y1="184.97166512339345" y2="189.96999836594603" /><path d="M 102.22038585953345 185.97133177190398 a86.0,86.0 0 0,1 -42.740103519485714,-10.115201625700543" fill="none" id="id19" stroke="none" /><text fill="#e1ed5e" style="font-size:6.75px; font-family:Arial;" text-anchor="middle"><textPath startOffset="22.20632615414155" xlink:href="#id19">July</textPath></text><path d="M 100.54218724476979 120.99299961872073 l 0.970860084782953 37.590824177970696 a58.603359313807736,58.603359313807736 0 0,0 -1.0086483982720988,0.01736479689751138 l -0.32365199661818644 -37.601966452147366" fill="#7aff26" stroke="none" /><path d="M 99.81925306533755 120.99922214144158 l -0.14429827743226145 16.76460841831895 a37.765229417232575,37.765229417232575 0 0,0 -0.6499941062780514,-0.011190238005070366 l 0.4328520736029809 -16.75964070303472" fill="#ff4906" stroke="none" /><path d="M 98.73552117531835 120.96189622390904 l -2.292323704423178 38.00099350483237 a59.07007033510934,59.07007033510934 0 0,0 -1.014422242202298,-0.06996049708445921 l 2.9461087074044063 -37.95590466323163" fill="#74ff27" stroke="none" /><path d="M 97.2962882734958 120.8252237178851 l -4.065953982950775 31.317836325345574 a52.580672157074304,52.580672157074304 0 0,0 -0.8965540645536664,-0.12425422392789065 l 4.604436638691272 -31.24320753592508" fill="#ccff1d" stroke="none" /><path d="M 96.58105272829116 120.7198165907248 l -5.537626753995903 33.55963153925378 a55.01344115371228,55.01344115371228 0 0,0 -0.933004459512215,-0.16221478460423058 l 6.1144801849801675 -33.45933817612854" fill="#aaff21" stroke="none" /><path d="M 94.46302465271185 120.25689768951611 l -8.26811306512188 30.248702575053958 a52.3583434054115,52.3583434054115 0 0,0 -0.8673255124008538,-0.24511485328486082 l 8.78756974562735 -30.10189892843058" fill="#cfff1d" stroke="none" /><path d="M 93.76903079525671 120.05430185196036 l -9.300561005196183 29.933747329194254 a52.345329224294645,52.345329224294645 0 0,0 -0.85816093029105,-0.27475603005021276 l 9.814443280578175 -29.769218452484335" fill="#d0ff1d" stroke="none" /><path d="M 93.08242187328487 119.8279376855182 l -10.332320239606036 29.615654222471438 a52.36628471079676,52.36628471079676 0 0,0 -0.848534398551369,-0.3042542459126655 l 10.840574198787131 -29.433412435518814" fill="#cfff1d" stroke="none" /><path d="M 92.40401165467489 119.57807347666478 l -9.809327350584736 25.282783871647133 a48.119035074488735,48.119035074488735 0 0,0 -0.7696271296534936,-0.3062505181828849 l 10.243075556280088 -25.110186509058185" fill="#fff016" stroke="none" /><line stroke="#e1ed5e" stroke-width="0.3" x1="58.666819895761336" x2="56.23545636021788" y1="174.27360380694188" y2="178.64263932499728" /><path d="M 58.180547188652646 175.14741091055294 a86.0,86.0 0 0,1 -31.652253787137756,-30.449443065178592" fill="none" id="id20" stroke="none" /><text fill="#e1ed5e" style="font-size:6.75px; font-family:Arial;" text-anchor="middle"><textPath startOffset="22.20632615414155" xlink:href="#id20">August</textPath></text><path d="M 89.7882731507175 118.34994917583269 l -12.292600193087939 22.08917180328261 a46.27923120789161,46.27923120789161 0 0,0 -0.6927587331494893,-0.39336648857461287 l 12.671007693158636 -21.874302148913365" fill="#ffd413" stroke="none" /><path d="M 89.4739219176387 118.17145234162733 l -12.811545597494339 22.11691652160245 a46.559610658619356,46.559610658619356 0 0,0 -0.690040321398654,-0.40768798482638496 l 13.190353789921376 -21.893109964482317" fill="#ffd914" stroke="none" /><path d="M 88.54995079064634 117.60387380957326 l -16.67210425914284 25.63252036316501 a51.57752705167306,51.57752705167306 0 0,0 -0.7400768512901502,-0.4904825818778708 l 17.110855809172953 -25.341739760195825" fill="#dbff1b" stroke="none" /><path d="M 87.65650970185807 116.9893568818739 l -18.942127737616765 26.071602153311254 a53.2262725438226,53.2262725438226 0 0,0 -0.7365883223729792,-0.5449104315517831 l 19.388101030408308 -25.741681773019703" fill="#c3ff1e" stroke="none" /><path d="M 84.4343377721795 114.09645910891817 l -20.116762953717423 18.217993056154324 a48.1399967341587,48.1399967341587 0 0,0 -0.5509534377625263,-0.6190020279434847 l 20.427375241128285 -17.869016858469973" fill="#fff116" stroke="none" /><path d="M 83.72743513129215 113.27417163493433 l -24.21794289390357 19.75552921204862 a52.25363486797145,52.25363486797145 0 0,0 -0.5625528987463823,-0.7018712376485439 l 24.554413704704807 -19.33573014082182" fill="#d1ff1c" stroke="none" /><path d="M 83.28015986056508 112.70617746262583 l -21.55777840696629 16.38274982622738 a48.07641596874696,48.07641596874696 0 0,0 -0.4950468233772394,-0.6631961193094775 l 21.836586497038613 -16.00924082740859" fill="#fff016" stroke="none" /><path d="M 82.85270091963577 112.12312394758628 l -17.87310089045471 12.636265128822535 a42.88887689778234,42.88887689778234 0 0,0 -0.42100353221636977,-0.606486988084859 l 18.087965329833217 -12.326736878550664" fill="#ff9f0e" stroke="none" /><path d="M 82.05923443525364 110.91462005526583 l -26.876483528914775 16.350841054193445 a52.45942418512337,52.45942418512337 0 0,0 -0.46268993375921647,-0.7754949428557143 l 27.153954338372223 -15.885784017451622" fill="#ceff1d" stroke="none" /><line stroke="#e1ed5e" stroke-width="0.3" x1="26.63291911575756" x2="22.317208475507996" y1="142.92168965132927" y2="145.44649492493687" /><path d="M 25.769776987707644 143.4266507060508 a86.0,86.0 0 0,1 -11.730757126820373,-40.83630448921669" fill="none" id="id21" stroke="none" /><text fill="#e1ed5e" style="font-size:6.75px; font-family:Arial;" text-anchor="middle"><textPath startOffset="21.46611528233685" xlink:href="#id21">September</textPath></text><path d="M 81.87401531095188 110.60418214915194 l -29.38160944348859 17.189021381125166 a55.04029126682784,55.04029126682784 0 0,0 -0.47137554835860634,-0.8218830009264521 l 29.673136987999573 -16.680718534340407" fill="#aaff21" stroke="none" /><path d="M 81.18737489456691 109.33194174019688 l -28.200952795060097 13.988991277221585 a52.47992400726834,52.47992400726834 0 0,0 -0.39446595703115883,-0.8127167084412501 l 28.437572008705974 -13.501485612815049" fill="#ceff1d" stroke="none" /><path d="M 80.87730276802145 108.67885076344099 l -30.881656083950183 14.01566323145632 a54.913352802472566,54.913352802472566 0 0,0 -0.3832400676428114,-0.8641051801114543 l 31.118337236324273 -13.48200971485217" fill="#abff21" stroke="none" /><path d="M 80.32549172779594 107.34259656027581 l -33.022983482887284 12.324295051076753 a56.24777562651353,56.24777562651353 0 0,0 -0.330725507728385,-0.9100145563149334 l 33.230233251620895 -11.754032697755703" fill="#99ff23" stroke="none" /><path d="M 79.97269907076064 106.31721596034903 l -30.491463782579533 9.617929162910501 a52.9723931695318,52.9723931695318 0 0,0 -0.2668124282674092,-0.8719584532416801 l 30.652502983353074 -9.091643737116774" fill="#c7ff1e" stroke="none" /><path d="M 79.58551787078972 104.9243191809786 l -32.10243801247409 7.743652288627419 a54.02318393359287,54.02318393359287 0 0,0 -0.21027735625530505,-0.9058693472781424 l 32.23097593465995 -7.189914284000702" fill="#b8ff1f" stroke="none" /><path d="M 79.35854240842038 103.8639653848113 l -30.136630217320768 5.641408580665754 a51.660103907676834,51.660103907676834 0 0,0 -0.1560960658128226,-0.8754696340912391 l 30.22927272547278 -5.121820195841301" fill="#d9ff1c" stroke="none" /><path d="M 79.18660465613746 102.79330883721812 l -31.113699653447295 4.175684493791777 a52.392652756920995,52.392652756920995 0 0,0 -0.11226620479120984,-0.894872111890115 l 31.18096736748535 -3.639494627614253" fill="#cfff1d" stroke="none" /><path d="M 79.10278846688536 102.07522291339032 l -27.27561941451251 2.7086384370572345 a48.40978176906988,48.40978176906988 0 0,0 -0.07520898449307538,-0.8299248768174994 l 27.318202995282657 -2.238732171691169" fill="#fff517" stroke="none" /><line stroke="#e1ed5e" stroke-width="0.3" x1="15.007084014347285" x2="10.007500721073583" y1="101.09737516637583" y2="101.16192664675087" /><path d="M 14.007167355692545 101.11028546245083 a86.0,86.0 0 0,1 10.666146001902534,-42.60595125391555" fill="none" id="id22" stroke="none" /><text fill="#e1ed5e" style="font-size:6.75px; font-family:Arial;" text-anchor="middle"><textPath startOffset="22.20632615414155" xlink:href="#id22">October</textPath></text><path d="M 79.00486145842228 99.54816195383935 l -31.699948864062037 -0.682217120395049 a52.707289038697525,52.707289038697525 0 0,0 0.027328241307998498,-0.9068912846657516 l 31.683508928298394 1.227778552485795" fill="#caff1d" stroke="none" /><path d="M 79.05617556472873 98.46500227214037 l -31.973452172236314 -2.343372223535148 a53.05921142492933,53.05921142492933 0 0,0 0.07460002883102268,-0.9103093066824807 l 31.928377659585795 2.893395447425407" fill="#c5ff1e" stroke="none" /><path d="M 79.12142395522702 97.74499172005258 l -32.05800435846829 -3.4624518986310306 a53.24444474010841,53.24444474010841 0 0,0 0.10625980397989813,-0.9103691087310383 l 31.993654201484798 4.013764745686931" fill="#c3ff1e" stroke="none" /><path d="M 79.26566170972629 96.67025291283419 l -12.44060297416423 -1.997848252299487 a33.6,33.6 0 0,0 0.09662102156764317,-0.5702627386946744 l 12.404370091076364 2.2116967793099898" fill="#ff0000" stroke="none" /><path d="M 79.32604984820605 96.31383870115002 l -32.136438430735204 -5.72992073389382 a53.64326372514153,53.64326372514153 0 0,0 0.16990680256143662,-0.907648933238074 l 32.03304590426391 6.282247744594466" fill="#bdff1f" stroke="none" /><path d="M 79.46518482838121 95.60439243477599 l -31.53482058807402 -6.750228564827776 a53.24919371394321,53.24919371394321 0 0,0 0.19957192537634033,-0.8946418093401071 l 31.413954275695644 7.292048543717842" fill="#c3ff1e" stroke="none" /><path d="M 79.62865764111835 94.90015583598534 l -31.090824655758382 -7.7834026782208 a53.05028447652919,53.05028447652919 0 0,0 0.22938859170440679,-0.8839278173327232 l 30.95223973218367 8.317426921102387" fill="#c5ff1e" stroke="none" /><path d="M 80.02781315780177 93.51064311812611 l -19.064278908721818 -6.194359711921291 a41.045369104863326,41.045369104863326 0 0,0 0.22411300474762444,-0.6700693585537275 l 18.95482861020242 6.521602173397341" fill="#ff800b" stroke="none" /><path d="M 80.14247586403 93.16781622104843 l -29.740996030668978 -10.232693122227138 a52.45210411768889,52.45210411768889 0 0,0 0.30109235983002375,-0.8512286467727096 l 29.560450590029145 10.74311939542646" fill="#ceff1d" stroke="none" /><path d="M 80.38941819471856 92.48833698450439 l -33.585282785963244 -12.864550836545726 a56.96481458368982,56.96481458368982 0 0,0 0.3586245675122525,-0.9126604072671796 l 33.358864668569296 13.440760248708669" fill="#90ff24" stroke="none" /><path d="M 80.803312248108 91.48605970444005 l -32.42991273621897 -14.383019841491901 a56.47633718183892,56.47633718183892 0 0,0 0.40178256768396425,-0.8852746295940728 l 32.17752785157165 14.939116479928046" fill="#96ff23" stroke="none" /><line stroke="#e1ed5e" stroke-width="0.3" x1="26.266209847984243" x2="21.928928074336255" y1="57.71137044288968" y2="55.22380399835378" /><path d="M 25.398753493254645 57.2138571539825 a86.0,86.0 0 0,1 29.58750427330803,-30.4925239686951" fill="none" id="id23" stroke="none" /><text fill="#e1ed5e" style="font-size:6.75px; font-family:Arial;" text-anchor="middle"><textPath startOffset="21.46611528233685" xlink:href="#id23">November</textPath></text><path d="M 86.65592168130627 83.78471172551755 l -12.016968934746941 -14.602628282647618 a39.911485799372116,39.911485799372116 0 0,0 0.5342372864973668,-0.4319827319679224 l 11.763828249685075 14.807317111879675" fill="#ff6e0a" stroke="none" /><line stroke="#e1ed5e" stroke-width="0.3" x1="56.76296977257108" x2="54.21961505331056" y1="26.818313649435495" y2="22.513508569990535" /><path d="M 56.25429882871898 25.957352633546506 a86.0,86.0 0 0,1 42.26535254187918,-11.944610805530505" fill="none" id="id24" stroke="none" /><text fill="#e1ed5e" style="font-size:6.75px; font-family:Arial;" text-anchor="middle"><textPath startOffset="22.20632615414155" xlink:href="#id24">December</textPath></text></svg>